<?xml version="1.0" encoding="UTF-8" standalone="no"?><svg xmlns="http://www.w3.org/2000/svg" xmlns:xlink="http://www.w3.org/1999/xlink" contentScriptType="application/ecmascript" contentStyleType="text/css" height="412px" preserveAspectRatio="none" style="width:1604px;height:412px;background:#FFFFFF;" version="1.1" viewBox="0 0 1604 412" width="1604px" zoomAndPan="magnify"><defs><filter height="300%" id="fszs61jhta701" width="300%" x="-1" y="-1"><feGaussianBlur result="blurOut" stdDeviation="2.0"/><feColorMatrix in="blurOut" result="blurOut2" type="matrix" values="0 0 0 0 0 0 0 0 0 0 0 0 0 0 0 0 0 0 .4 0"/><feOffset dx="4.0" dy="4.0" in="blurOut2" result="blurOut3"/><feBlend in="SourceGraphic" in2="blurOut3" mode="normal"/></filter></defs><g><!--MD5=[cd5458322245a0c49df66b41751ab0c0]
class GM--><rect codeLine="14" fill="#FEFECE" filter="url(#fszs61jhta701)" height="116.7969" id="GM" style="stroke:#A80036;stroke-width:1.5;" width="71" x="147" y="22.5"/><text fill="#000000" font-family="sans-serif" font-size="12" lengthAdjust="spacing" textLength="19" x="155.5" y="38.6387">GM</text><rect fill="#FFFFFF" height="15.9688" style="stroke:#000000;stroke-width:1.0;stroke-dasharray:2.0,2.0;" width="33" x="188" y="19.5"/><text fill="#000000" font-family="sans-serif" font-size="12" font-style="italic" lengthAdjust="spacing" textLength="31" x="189" y="31.6387">actor</text><line style="stroke:#A80036;stroke-width:1.5;" x1="148" x2="217" y1="46.4688" y2="46.4688"/><text fill="#000000" font-family="sans-serif" font-size="11" lengthAdjust="spacing" textLength="25" x="153" y="60.6792">data</text><line style="stroke:#A80036;stroke-width:1.5;" x1="148" x2="217" y1="67.2734" y2="67.2734"/><text fill="#000000" font-family="sans-serif" font-size="11" lengthAdjust="spacing" textLength="40" x="153" y="81.4839">make()</text><text fill="#000000" font-family="sans-serif" font-size="11" lengthAdjust="spacing" textLength="59" x="153" y="94.2886">visualize()</text><text fill="#000000" font-family="sans-serif" font-size="11" lengthAdjust="spacing" textLength="35" x="153" y="107.0933">build()</text><text fill="#000000" font-family="sans-serif" font-size="11" lengthAdjust="spacing" textLength="41" x="153" y="119.8979">affect()</text><text fill="#000000" font-family="sans-serif" font-size="11" lengthAdjust="spacing" textLength="48" x="153" y="132.7026">extract()</text><!--MD5=[de1f8633644ee0aae50c6a7fba314ead]
class SporTechBIContractor--><rect codeLine="64" fill="#FEFECE" filter="url(#fszs61jhta701)" height="65.5781" id="SporTechBIContractor" style="stroke:#A80036;stroke-width:1.5;" width="173" x="791" y="48"/><text fill="#000000" font-family="sans-serif" font-size="12" lengthAdjust="spacing" textLength="132" x="794" y="64.1387">SporTechBIContractor</text><rect fill="#FFFFFF" height="15.9688" style="stroke:#000000;stroke-width:1.0;stroke-dasharray:2.0,2.0;" width="33" x="934" y="45"/><text fill="#000000" font-family="sans-serif" font-size="12" font-style="italic" lengthAdjust="spacing" textLength="31" x="935" y="57.1387">actor</text><line style="stroke:#A80036;stroke-width:1.5;" x1="792" x2="963" y1="71.9688" y2="71.9688"/><line style="stroke:#A80036;stroke-width:1.5;" x1="792" x2="963" y1="79.9688" y2="79.9688"/><text fill="#000000" font-family="sans-serif" font-size="11" lengthAdjust="spacing" textLength="29" x="797" y="94.1792">add()</text><text fill="#000000" font-family="sans-serif" font-size="11" lengthAdjust="spacing" textLength="48" x="797" y="106.9839">update()</text><!--MD5=[563fd89d482c4c23404165e69bfcbefa]
class Manger--><rect codeLine="38" fill="#FEFECE" filter="url(#fszs61jhta701)" height="52.7734" id="Manger" style="stroke:#A80036;stroke-width:1.5;" width="86" x="1106.5" y="54.5"/><text fill="#000000" font-family="sans-serif" font-size="12" lengthAdjust="spacing" textLength="45" x="1109.5" y="70.6387">Manger</text><rect fill="#FFFFFF" height="15.9688" style="stroke:#000000;stroke-width:1.0;stroke-dasharray:2.0,2.0;" width="33" x="1162.5" y="51.5"/><text fill="#000000" font-family="sans-serif" font-size="12" font-style="italic" lengthAdjust="spacing" textLength="31" x="1163.5" y="63.6387">actor</text><line style="stroke:#A80036;stroke-width:1.5;" x1="1107.5" x2="1191.5" y1="78.4688" y2="78.4688"/><line style="stroke:#A80036;stroke-width:1.5;" x1="1107.5" x2="1191.5" y1="86.4688" y2="86.4688"/><text fill="#000000" font-family="sans-serif" font-size="11" lengthAdjust="spacing" textLength="51" x="1112.5" y="100.6792">monitor()</text><!--MD5=[2ce0c9fb7f55b1e256ab28a8ea6b25ec]
class Customer--><rect codeLine="24" fill="#FEFECE" filter="url(#fszs61jhta701)" height="142.4063" id="Customer" style="stroke:#A80036;stroke-width:1.5;" width="99" x="581" y="10"/><text fill="#000000" font-family="sans-serif" font-size="12" lengthAdjust="spacing" textLength="58" x="584" y="26.1387">Customer</text><rect fill="#FFFFFF" height="15.9688" style="stroke:#000000;stroke-width:1.0;stroke-dasharray:2.0,2.0;" width="33" x="650" y="7"/><text fill="#000000" font-family="sans-serif" font-size="12" font-style="italic" lengthAdjust="spacing" textLength="31" x="651" y="19.1387">actor</text><line style="stroke:#A80036;stroke-width:1.5;" x1="582" x2="679" y1="33.9688" y2="33.9688"/><text fill="#000000" font-family="sans-serif" font-size="11" lengthAdjust="spacing" textLength="36" x="587" y="48.1792">model</text><line style="stroke:#A80036;stroke-width:1.5;" x1="582" x2="679" y1="54.7734" y2="54.7734"/><text fill="#000000" font-family="sans-serif" font-size="11" lengthAdjust="spacing" textLength="44" x="587" y="68.9839">import()</text><text fill="#000000" font-family="sans-serif" font-size="11" lengthAdjust="spacing" textLength="29" x="587" y="81.7886">add()</text><text fill="#000000" font-family="sans-serif" font-size="11" lengthAdjust="spacing" textLength="55" x="587" y="94.5933">manage()</text><text fill="#000000" font-family="sans-serif" font-size="11" lengthAdjust="spacing" textLength="33" x="587" y="107.3979">drag()</text><text fill="#000000" font-family="sans-serif" font-size="11" lengthAdjust="spacing" textLength="48" x="587" y="120.2026">update()</text><text fill="#000000" font-family="sans-serif" font-size="11" lengthAdjust="spacing" textLength="30" x="587" y="133.0073">see()</text><text fill="#000000" font-family="sans-serif" font-size="11" lengthAdjust="spacing" textLength="33" x="587" y="145.812">drop()</text><!--MD5=[0d6d527315af725114870e25843b9662]
class SoccerCoach--><rect codeLine="45" fill="#FEFECE" filter="url(#fszs61jhta701)" height="65.5781" id="SoccerCoach" style="stroke:#A80036;stroke-width:1.5;" width="121" x="1365" y="48"/><text fill="#000000" font-family="sans-serif" font-size="12" lengthAdjust="spacing" textLength="80" x="1368" y="64.1387">SoccerCoach</text><rect fill="#FFFFFF" height="15.9688" style="stroke:#000000;stroke-width:1.0;stroke-dasharray:2.0,2.0;" width="33" x="1456" y="45"/><text fill="#000000" font-family="sans-serif" font-size="12" font-style="italic" lengthAdjust="spacing" textLength="31" x="1457" y="57.1387">actor</text><line style="stroke:#A80036;stroke-width:1.5;" x1="1366" x2="1485" y1="71.9688" y2="71.9688"/><line style="stroke:#A80036;stroke-width:1.5;" x1="1366" x2="1485" y1="79.9688" y2="79.9688"/><text fill="#000000" font-family="sans-serif" font-size="11" lengthAdjust="spacing" textLength="61" x="1371" y="94.1792">configure()</text><text fill="#000000" font-family="sans-serif" font-size="11" lengthAdjust="spacing" textLength="49" x="1371" y="106.9839">specify()</text><!--MD5=[2916714cae8f0462c1096d4fd55ce4c3]
class Season--><rect codeLine="21" fill="#FEFECE" filter="url(#fszs61jhta701)" height="52.7734" id="Season" style="stroke:#A80036;stroke-width:1.5;" width="69" x="1521" y="54.5"/><text fill="#000000" font-family="sans-serif" font-size="12" lengthAdjust="spacing" textLength="45" x="1533" y="70.6387">Season</text><line style="stroke:#A80036;stroke-width:1.5;" x1="1522" x2="1589" y1="78.4688" y2="78.4688"/><line style="stroke:#A80036;stroke-width:1.5;" x1="1522" x2="1589" y1="86.4688" y2="86.4688"/><text fill="#000000" font-family="sans-serif" font-size="11" lengthAdjust="spacing" textLength="57" x="1527" y="100.6792">progress()</text><!--MD5=[c680266cf9e454ca06c2d1bb8b683e6b]
class Schedule--><rect codeLine="33" fill="#FEFECE" filter="url(#fszs61jhta701)" height="52.7734" id="Schedule" style="stroke:#A80036;stroke-width:1.5;" width="62" x="1394.5" y="229"/><text fill="#000000" font-family="sans-serif" font-size="12" lengthAdjust="spacing" textLength="56" x="1397.5" y="245.1387">Schedule</text><line style="stroke:#A80036;stroke-width:1.5;" x1="1395.5" x2="1455.5" y1="252.9688" y2="252.9688"/><line style="stroke:#A80036;stroke-width:1.5;" x1="1395.5" x2="1455.5" y1="260.9688" y2="260.9688"/><text fill="#000000" font-family="sans-serif" font-size="11" lengthAdjust="spacing" textLength="26" x="1400.5" y="275.1792">run()</text><!--MD5=[6cc3ad14011ab7f07f5dfe79da9fafb1]
class Roster--><rect codeLine="36" fill="#FEFECE" filter="url(#fszs61jhta701)" height="39.9688" id="Roster" style="stroke:#A80036;stroke-width:1.5;" width="45" x="7" y="235.5"/><text fill="#000000" font-family="sans-serif" font-size="12" lengthAdjust="spacing" textLength="39" x="10" y="251.6387">Roster</text><line style="stroke:#A80036;stroke-width:1.5;" x1="8" x2="51" y1="259.4688" y2="259.4688"/><line style="stroke:#A80036;stroke-width:1.5;" x1="8" x2="51" y1="267.4688" y2="267.4688"/><!--MD5=[a030fa97ffb865708cae79f6847e8968]
class Condition--><rect codeLine="41" fill="#FEFECE" filter="url(#fszs61jhta701)" height="39.9688" id="Condition" style="stroke:#A80036;stroke-width:1.5;" width="62" x="960.5" y="235.5"/><text fill="#000000" font-family="sans-serif" font-size="12" lengthAdjust="spacing" textLength="56" x="963.5" y="251.6387">Condition</text><line style="stroke:#A80036;stroke-width:1.5;" x1="961.5" x2="1021.5" y1="259.4688" y2="259.4688"/><line style="stroke:#A80036;stroke-width:1.5;" x1="961.5" x2="1021.5" y1="267.4688" y2="267.4688"/><!--MD5=[371364a6d7b486039f21f31616b5ee45]
class Change--><rect codeLine="43" fill="#FEFECE" filter="url(#fszs61jhta701)" height="39.9688" id="Change" style="stroke:#A80036;stroke-width:1.5;" width="51" x="541" y="235.5"/><text fill="#000000" font-family="sans-serif" font-size="12" lengthAdjust="spacing" textLength="45" x="544" y="251.6387">Change</text><line style="stroke:#A80036;stroke-width:1.5;" x1="542" x2="591" y1="259.4688" y2="259.4688"/><line style="stroke:#A80036;stroke-width:1.5;" x1="542" x2="591" y1="267.4688" y2="267.4688"/><!--MD5=[60c9ed31c535bee25c55ce21b5b01399]
class Data--><rect codeLine="49" fill="#FEFECE" filter="url(#fszs61jhta701)" height="52.7734" id="Data" style="stroke:#A80036;stroke-width:1.5;" width="72" x="412.5" y="229"/><text fill="#000000" font-family="sans-serif" font-size="12" lengthAdjust="spacing" textLength="27" x="435" y="245.1387">Data</text><line style="stroke:#A80036;stroke-width:1.5;" x1="413.5" x2="483.5" y1="252.9688" y2="252.9688"/><line style="stroke:#A80036;stroke-width:1.5;" x1="413.5" x2="483.5" y1="260.9688" y2="260.9688"/><text fill="#000000" font-family="sans-serif" font-size="11" lengthAdjust="spacing" textLength="60" x="418.5" y="275.1792">integrate()</text><!--MD5=[9e5b8da75a877d30f0aa7c5409b00ea1]
class Demand--><rect codeLine="52" fill="#FEFECE" filter="url(#fszs61jhta701)" height="39.9688" id="Demand" style="stroke:#A80036;stroke-width:1.5;" width="56" x="1121.5" y="235.5"/><text fill="#000000" font-family="sans-serif" font-size="12" lengthAdjust="spacing" textLength="50" x="1124.5" y="251.6387">Demand</text><line style="stroke:#A80036;stroke-width:1.5;" x1="1122.5" x2="1176.5" y1="259.4688" y2="259.4688"/><line style="stroke:#A80036;stroke-width:1.5;" x1="1122.5" x2="1176.5" y1="267.4688" y2="267.4688"/><!--MD5=[736dfa021baaf4f381c9890dd397bfe9]
class Line--><rect codeLine="54" fill="#FEFECE" filter="url(#fszs61jhta701)" height="39.9688" id="Line" style="stroke:#A80036;stroke-width:1.5;" width="30" x="87.5" y="235.5"/><text fill="#000000" font-family="sans-serif" font-size="12" lengthAdjust="spacing" textLength="24" x="90.5" y="251.6387">Line</text><line style="stroke:#A80036;stroke-width:1.5;" x1="88.5" x2="116.5" y1="259.4688" y2="259.4688"/><line style="stroke:#A80036;stroke-width:1.5;" x1="88.5" x2="116.5" y1="267.4688" y2="267.4688"/><!--MD5=[4d752406f8eecd9a547540c5e8a96c37]
class ExcelSheet--><rect codeLine="56" fill="#FEFECE" filter="url(#fszs61jhta701)" height="39.9688" id="ExcelSheet" style="stroke:#A80036;stroke-width:1.5;" width="73" x="627" y="235.5"/><text fill="#000000" font-family="sans-serif" font-size="12" lengthAdjust="spacing" textLength="67" x="630" y="251.6387">ExcelSheet</text><line style="stroke:#A80036;stroke-width:1.5;" x1="628" x2="699" y1="259.4688" y2="259.4688"/><line style="stroke:#A80036;stroke-width:1.5;" x1="628" x2="699" y1="267.4688" y2="267.4688"/><!--MD5=[7e20e022571e30ec1001cf6eabd7f3e2]
class Model--><rect codeLine="58" fill="#FEFECE" filter="url(#fszs61jhta701)" height="39.9688" id="Model" style="stroke:#A80036;stroke-width:1.5;" width="43" x="735" y="235.5"/><text fill="#000000" font-family="sans-serif" font-size="12" lengthAdjust="spacing" textLength="37" x="738" y="251.6387">Model</text><line style="stroke:#A80036;stroke-width:1.5;" x1="736" x2="777" y1="259.4688" y2="259.4688"/><line style="stroke:#A80036;stroke-width:1.5;" x1="736" x2="777" y1="267.4688" y2="267.4688"/><!--MD5=[3db53164d4ddbdea4156eda8a776d7e7]
class Decision--><rect codeLine="60" fill="#FEFECE" filter="url(#fszs61jhta701)" height="39.9688" id="Decision" style="stroke:#A80036;stroke-width:1.5;" width="58" x="153.5" y="235.5"/><text fill="#000000" font-family="sans-serif" font-size="12" lengthAdjust="spacing" textLength="52" x="156.5" y="251.6387">Decision</text><line style="stroke:#A80036;stroke-width:1.5;" x1="154.5" x2="210.5" y1="259.4688" y2="259.4688"/><line style="stroke:#A80036;stroke-width:1.5;" x1="154.5" x2="210.5" y1="267.4688" y2="267.4688"/><!--MD5=[4190bdce042a529d446b48ad26c6e801]
class SporTechBISystem--><rect codeLine="62" fill="#FEFECE" filter="url(#fszs61jhta701)" height="39.9688" id="SporTechBISystem" style="stroke:#A80036;stroke-width:1.5;" width="120" x="388.5" y="359"/><text fill="#000000" font-family="sans-serif" font-size="12" lengthAdjust="spacing" textLength="114" x="391.5" y="375.1387">SporTechBISystem</text><line style="stroke:#A80036;stroke-width:1.5;" x1="389.5" x2="507.5" y1="382.9688" y2="382.9688"/><line style="stroke:#A80036;stroke-width:1.5;" x1="389.5" x2="507.5" y1="390.9688" y2="390.9688"/><!--MD5=[ddc36e88a2144077ea4257ea6b073d34]
class Reaction--><rect codeLine="68" fill="#FEFECE" filter="url(#fszs61jhta701)" height="39.9688" id="Reaction" style="stroke:#A80036;stroke-width:1.5;" width="57" x="1213" y="235.5"/><text fill="#000000" font-family="sans-serif" font-size="12" lengthAdjust="spacing" textLength="51" x="1216" y="251.6387">Reaction</text><line style="stroke:#A80036;stroke-width:1.5;" x1="1214" x2="1269" y1="259.4688" y2="259.4688"/><line style="stroke:#A80036;stroke-width:1.5;" x1="1214" x2="1269" y1="267.4688" y2="267.4688"/><!--MD5=[4dc03b68a3b919398005b6a0327aa539]
class PlayerValue--><rect codeLine="70" fill="#FEFECE" filter="url(#fszs61jhta701)" height="39.9688" id="PlayerValue" style="stroke:#A80036;stroke-width:1.5;" width="75" x="247" y="235.5"/><text fill="#000000" font-family="sans-serif" font-size="12" lengthAdjust="spacing" textLength="69" x="250" y="251.6387">PlayerValue</text><line style="stroke:#A80036;stroke-width:1.5;" x1="248" x2="321" y1="259.4688" y2="259.4688"/><line style="stroke:#A80036;stroke-width:1.5;" x1="248" x2="321" y1="267.4688" y2="267.4688"/><!--MD5=[0b6f8c5a3aeecb178d61c5966e6e45f4]
class Need--><rect codeLine="72" fill="#FEFECE" filter="url(#fszs61jhta701)" height="39.9688" id="Need" style="stroke:#A80036;stroke-width:1.5;" width="38" x="813.5" y="235.5"/><text fill="#000000" font-family="sans-serif" font-size="12" lengthAdjust="spacing" textLength="32" x="816.5" y="251.6387">Need</text><line style="stroke:#A80036;stroke-width:1.5;" x1="814.5" x2="850.5" y1="259.4688" y2="259.4688"/><line style="stroke:#A80036;stroke-width:1.5;" x1="814.5" x2="850.5" y1="267.4688" y2="267.4688"/><!--MD5=[43d3c0ba1d3b9c6f5e40c8769cc5b343]
class Source--><rect codeLine="74" fill="#FEFECE" filter="url(#fszs61jhta701)" height="39.9688" id="Source" style="stroke:#A80036;stroke-width:1.5;" width="49" x="1309" y="235.5"/><text fill="#000000" font-family="sans-serif" font-size="12" lengthAdjust="spacing" textLength="43" x="1312" y="251.6387">Source</text><line style="stroke:#A80036;stroke-width:1.5;" x1="1310" x2="1357" y1="259.4688" y2="259.4688"/><line style="stroke:#A80036;stroke-width:1.5;" x1="1310" x2="1357" y1="267.4688" y2="267.4688"/><!--MD5=[c81e3c59bdba98824a48e28a0044be20]
link Manger to Condition--><path codeLine="76" d="M1106.35,99.757 C1042.51,126.224 929.828,173.801 924.5,182 C911.192,202.478 933.459,222.622 955.82,236.459 " fill="none" id="Manger-to-Condition" style="stroke:#A80036;stroke-width:1.0;"/><polygon fill="#A80036" points="960.283,239.141,954.6295,231.0764,955.9974,236.5654,950.5085,237.9333,960.283,239.141" style="stroke:#A80036;stroke-width:1.0;"/><text fill="#000000" font-family="sans-serif" font-size="13" lengthAdjust="spacing" textLength="88" x="925.5" y="195.0669">supported_by</text><!--MD5=[c81e3c59bdba98824a48e28a0044be20]
link Manger to Condition--><path codeLine="89" d="M1125.85,107.825 C1095.07,141.423 1041.78,199.604 1012.42,231.663 " fill="none" id="Manger-to-Condition-1" style="stroke:#A80036;stroke-width:1.0;"/><polygon fill="#A80036" points="1008.96,235.44,1017.9817,231.4892,1012.3307,231.747,1012.0729,226.096,1008.96,235.44" style="stroke:#A80036;stroke-width:1.0;"/><text fill="#000000" font-family="sans-serif" font-size="13" lengthAdjust="spacing" textLength="50" x="1057.5" y="195.0669">monitor</text><!--MD5=[e891f222eeb06b60d47e9f38cd0ef2fb]
link GM to PlayerValue--><path codeLine="77" d="M216.748,139.92 C235.087,170.935 256.678,207.448 270.47,230.773 " fill="none" id="GM-to-PlayerValue" style="stroke:#A80036;stroke-width:1.0;"/><polygon fill="#A80036" points="273.122,235.257,271.9833,225.4742,270.5767,230.9534,265.0975,229.5467,273.122,235.257" style="stroke:#A80036;stroke-width:1.0;"/><text fill="#000000" font-family="sans-serif" font-size="13" lengthAdjust="spacing" textLength="46" x="253.5" y="195.0669">extract</text><!--MD5=[f6a71835551c756e0a6beac3992d4664]
link Customer to Change--><path codeLine="78" d="M604.469,152.162 C594.132,180.023 582.934,210.205 575.397,230.519 " fill="none" id="Customer-to-Change" style="stroke:#A80036;stroke-width:1.0;"/><polygon fill="#A80036" points="573.563,235.463,580.4426,228.4152,575.3014,230.7749,572.9416,225.6338,573.563,235.463" style="stroke:#A80036;stroke-width:1.0;"/><text fill="#000000" font-family="sans-serif" font-size="13" lengthAdjust="spacing" textLength="23" x="594.5" y="195.0669">see</text><!--MD5=[15b1ee8fdcda5f30b6a480a68ae3e2f5]
link SoccerCoach to Schedule--><path codeLine="79" d="M1425.5,114.042 C1425.5,145.357 1425.5,192.706 1425.5,223.618 " fill="none" id="SoccerCoach-to-Schedule" style="stroke:#A80036;stroke-width:1.0;"/><polygon fill="#A80036" points="1425.5,228.812,1429.5,219.812,1425.5,223.812,1421.5,219.812,1425.5,228.812" style="stroke:#A80036;stroke-width:1.0;"/><text fill="#000000" font-family="sans-serif" font-size="13" lengthAdjust="spacing" textLength="60" x="1426.5" y="195.0669">configure</text><!--MD5=[5faa6a00c73834fb2504048a08b955ff]
link Customer to Need--><path codeLine="80" d="M680.026,122.191 C702.075,140.274 728.257,162.007 751.5,182 C771.285,199.019 793.33,218.805 809.42,233.404 " fill="none" id="Customer-to-Need" style="stroke:#A80036;stroke-width:1.0;"/><polygon fill="#A80036" points="813.377,236.999,809.4053,227.9865,809.6762,233.6368,804.0258,233.9078,813.377,236.999" style="stroke:#A80036;stroke-width:1.0;"/><text fill="#000000" font-family="sans-serif" font-size="13" lengthAdjust="spacing" textLength="53" x="770.5" y="195.0669">manage</text><!--MD5=[9e70175148f4bb6979afff5927f05dfe]
link Manger to Demand--><path codeLine="81" d="M1148.07,107.563 C1146.93,131.266 1145.65,167.517 1146.5,199 C1146.77,209.173 1147.33,220.384 1147.89,230.051 " fill="none" id="Manger-to-Demand" style="stroke:#A80036;stroke-width:1.0;"/><polygon fill="#A80036" points="1148.2,235.247,1151.6548,226.024,1147.9011,230.2559,1143.6691,226.5022,1148.2,235.247" style="stroke:#A80036;stroke-width:1.0;"/><text fill="#000000" font-family="sans-serif" font-size="13" lengthAdjust="spacing" textLength="50" x="1147.5" y="195.0669">monitor</text><!--MD5=[b7505b0150552ccae0bf931e5aac1819]
link Manger to Source--><path codeLine="82" d="M1184.37,107.529 C1209.84,126.829 1244.63,154.6 1272.5,182 C1288.26,197.497 1304.28,216.699 1315.95,231.448 " fill="none" id="Manger-to-Source" style="stroke:#A80036;stroke-width:1.0;"/><polygon fill="#A80036" points="1319.12,235.483,1316.7,225.9361,1316.0289,231.553,1310.412,230.8819,1319.12,235.483" style="stroke:#A80036;stroke-width:1.0;"/><text fill="#000000" font-family="sans-serif" font-size="13" lengthAdjust="spacing" textLength="50" x="1290.5" y="195.0669">monitor</text><!--MD5=[82f57bdd9dc388bcea23388f316e3097]
link Data to SporTechBISystem--><path codeLine="83" d="M412.485,274.421 C390.859,287.828 369.49,307.4951 380.5,329 C386.012,339.7666 395.115,348.7076 404.894,355.8732 " fill="none" id="Data-to-SporTechBISystem" style="stroke:#A80036;stroke-width:1.0;"/><polygon fill="#A80036" points="409.118,358.8357,404.045,350.3939,405.024,355.9654,399.4525,356.9443,409.118,358.8357" style="stroke:#A80036;stroke-width:1.0;"/><text fill="#000000" font-family="sans-serif" font-size="13" lengthAdjust="spacing" textLength="88" x="381.5" y="325.0669">supported_by</text><!--MD5=[82f57bdd9dc388bcea23388f316e3097]
link Data to SporTechBISystem--><path codeLine="91" d="M465.652,282.285 C472.72,295.962 478.44,313.1694 474.5,329 C472.343,337.6677 468.336,346.4867 464.103,354.2096 " fill="none" id="Data-to-SporTechBISystem-1" style="stroke:#A80036;stroke-width:1.0;"/><polygon fill="#A80036" points="461.452,358.8654,469.3805,353.0226,463.9255,354.5201,462.428,349.065,461.452,358.8654" style="stroke:#A80036;stroke-width:1.0;"/><text fill="#000000" font-family="sans-serif" font-size="13" lengthAdjust="spacing" textLength="58" x="477.5" y="325.0669">integrate</text><!--MD5=[0eaa1542ec092648ff745804588d0265]
link GM to Line--><path codeLine="84" d="M154.393,139.755 C147.783,153.556 140.824,168.269 134.5,182 C127.054,198.168 118.961,216.51 112.777,230.701 " fill="none" id="GM-to-Line" style="stroke:#A80036;stroke-width:1.0;"/><polygon fill="#A80036" points="110.757,235.345,118.0152,228.6878,112.7516,230.7601,110.6793,225.4964,110.757,235.345" style="stroke:#A80036;stroke-width:1.0;"/><text fill="#000000" font-family="sans-serif" font-size="13" lengthAdjust="spacing" textLength="38" x="135.5" y="195.0669">affect</text><!--MD5=[9b5cac166cdab0bb423bef2a88f8f812]
link Customer to Data--><path codeLine="85" d="M580.793,93.588 C536.585,106.817 474.573,133.236 445.5,182 C438.088,194.432 437.933,210.307 440.015,224.032 " fill="none" id="Customer-to-Data" style="stroke:#A80036;stroke-width:1.0;"/><polygon fill="#A80036" points="440.873,228.981,443.2767,219.43,440.0188,224.0545,435.3943,220.7966,440.873,228.981" style="stroke:#A80036;stroke-width:1.0;"/><text fill="#000000" font-family="sans-serif" font-size="13" lengthAdjust="spacing" textLength="24" x="446.5" y="195.0669">add</text><!--MD5=[9b5cac166cdab0bb423bef2a88f8f812]
link Customer to Data--><path codeLine="92" d="M580.768,129.136 C548.334,159.877 507.027,199.028 479.278,225.329 " fill="none" id="Customer-to-Data-1" style="stroke:#A80036;stroke-width:1.0;"/><polygon fill="#A80036" points="475.624,228.791,484.9074,225.5019,479.2526,225.351,479.4034,219.6962,475.624,228.791" style="stroke:#A80036;stroke-width:1.0;"/><text fill="#000000" font-family="sans-serif" font-size="13" lengthAdjust="spacing" textLength="42" x="524.5" y="195.0669">import</text><!--MD5=[63b6f58fdd481ce6f57e7b94b44dd6b8]
reverse link GM to Data--><path codeLine="86" d="M229.051,112.188 C281.225,146.023 364.719,200.169 412.261,230.999 " fill="none" id="GM-backto-Data" style="stroke:#A80036;stroke-width:1.0;"/><polygon fill="#FFFFFF" points="218.098,105.085,220.9559,111.7056,228.1664,111.614,225.3085,104.9933,218.098,105.085" style="stroke:#A80036;stroke-width:1.0;"/><text fill="#000000" font-family="sans-serif" font-size="13" lengthAdjust="spacing" textLength="46" x="363.5" y="195.0669">extract</text><!--MD5=[a50437f63663fdb0ca688ffd214f09fe]
link Customer to ExcelSheet--><path codeLine="87" d="M643.922,152.162 C649.252,180.023 655.026,210.205 658.912,230.519 " fill="none" id="Customer-to-ExcelSheet" style="stroke:#A80036;stroke-width:1.0;"/><polygon fill="#A80036" points="659.858,235.463,662.0944,225.8714,658.9178,230.5522,654.2371,227.3757,659.858,235.463" style="stroke:#A80036;stroke-width:1.0;"/><text fill="#000000" font-family="sans-serif" font-size="13" lengthAdjust="spacing" textLength="42" x="654.5" y="195.0669">import</text><!--MD5=[d5c6aea84850cb4143ea70db3b843909]
reverse link Customer to Model--><path codeLine="88" d="M687.867,157.987 C693.855,166.069 699.824,174.187 705.5,182 C718.525,199.929 733.033,220.627 743.235,235.306 " fill="none" id="Customer-backto-Model" style="stroke:#A80036;stroke-width:1.0;"/><polygon fill="#FFFFFF" points="680.006,147.413,680.3761,154.6146,687.1661,157.0428,686.796,149.8412,680.006,147.413" style="stroke:#A80036;stroke-width:1.0;"/><text fill="#000000" font-family="sans-serif" font-size="13" lengthAdjust="spacing" textLength="24" x="718.5" y="195.0669">add</text><!--MD5=[dab8cd1006f357c5080512cb7dbe8aee]
link GM to Decision--><path codeLine="90" d="M182.5,139.92 C182.5,170.676 182.5,206.839 182.5,230.187 " fill="none" id="GM-to-Decision" style="stroke:#A80036;stroke-width:1.0;"/><polygon fill="#A80036" points="182.5,235.257,186.5,226.257,182.5,230.257,178.5,226.257,182.5,235.257" style="stroke:#A80036;stroke-width:1.0;"/><text fill="#000000" font-family="sans-serif" font-size="13" lengthAdjust="spacing" textLength="36" x="183.5" y="195.0669">make</text><!--MD5=[bc0ef1902adce0626a327d1fa06af772]
link Manger to Reaction--><path codeLine="93" d="M1163.27,107.825 C1181.05,141.15 1211.72,198.659 1228.9,230.876 " fill="none" id="Manger-to-Reaction" style="stroke:#A80036;stroke-width:1.0;"/><polygon fill="#A80036" points="1231.33,235.44,1230.6266,225.6163,1228.9782,231.0276,1223.5668,229.3792,1231.33,235.44" style="stroke:#A80036;stroke-width:1.0;"/><text fill="#000000" font-family="sans-serif" font-size="13" lengthAdjust="spacing" textLength="50" x="1213.5" y="195.0669">monitor</text><!--MD5=[02c35b805d50a00c1852e1d3168c6773]
link GM to Roster--><path codeLine="94" d="M146.997,117.88 C128.811,136.629 106.5458,160.164 87.5,182 C73.4571,198.1 58.4085,216.963 47.1597,231.411 " fill="none" id="GM-to-Roster" style="stroke:#A80036;stroke-width:1.0;"/><polygon fill="#A80036" points="44.0917,235.364,52.77,230.7071,47.1576,231.4142,46.4504,225.8018,44.0917,235.364" style="stroke:#A80036;stroke-width:1.0;"/><text fill="#000000" font-family="sans-serif" font-size="13" lengthAdjust="spacing" textLength="30" x="88.5" y="195.0669">build</text><!--MD5=[5b8bbff66d31140687bba3a0a91e8424]
@startuml
hide circle
class GM<actor> {
	data
}
class SporTechBIContractor<actor> {
}
class Manger<actor> {
}
class Customer<actor> {
	model
}
class SoccerCoach<actor> {
}
class GM {
	make()
	visualize()
	build()
	affect()
	extract()
}
class Season {
	progress()
}
class Customer {
	import()
	add()
	manage()
	drag()
	update()
	see()
	drop()
}
class Schedule {
	run()
}
class Roster {
}
class Manger {
	monitor()
}
class Condition {
}
class Change {
}
class SoccerCoach {
	configure()
	specify()
}
class Data {
	integrate()
}
class Demand {
}
class Line {
}
class ExcelSheet {
}
class Model {
}
class Decision {
}
class SporTechBISystem {
}
class SporTechBIContractor {
	add()
	update()
}
class Reaction {
}
class PlayerValue {
}
class Need {
}
class Source {
}
Manger - -> Condition : supported_by
GM - -> PlayerValue : extract
Customer - -> Change : see
SoccerCoach - -> Schedule : configure
Customer - -> Need : manage
Manger - -> Demand : monitor
Manger - -> Source : monitor
Data - -> SporTechBISystem : supported_by
GM - -> Line : affect
Customer - -> Data : add
GM o- - Data : extract
Customer - -> ExcelSheet : import
Customer o- - Model : add
Manger - -> Condition : monitor
GM - -> Decision : make
Data - -> SporTechBISystem : integrate
Customer - -> Data : import
Manger - -> Reaction : monitor
GM - -> Roster : build
@enduml

PlantUML version 1.2021.9beta2(Unknown compile time)
(GPL source distribution)
Java Runtime: Java(TM) SE Runtime Environment
JVM: Java HotSpot(TM) 64-Bit Server VM
Default Encoding: UTF-8
Language: en
Country: US
--></g></svg>