<?xml version="1.0" encoding="UTF-8" standalone="no"?><svg xmlns="http://www.w3.org/2000/svg" xmlns:xlink="http://www.w3.org/1999/xlink" contentScriptType="application/ecmascript" contentStyleType="text/css" height="423px" preserveAspectRatio="none" style="width:2490px;height:423px;background:#FFFFFF;" version="1.1" viewBox="0 0 2490 423" width="2490px" zoomAndPan="magnify"><defs><filter height="300%" id="f1ruqmw5x37ou" width="300%" x="-1" y="-1"><feGaussianBlur result="blurOut" stdDeviation="2.0"/><feColorMatrix in="blurOut" result="blurOut2" type="matrix" values="0 0 0 0 0 0 0 0 0 0 0 0 0 0 0 0 0 0 .4 0"/><feOffset dx="4.0" dy="4.0" in="blurOut2" result="blurOut3"/><feBlend in="SourceGraphic" in2="blurOut3" mode="normal"/></filter></defs><g><!--MD5=[d6181cb537bdc20c0a3007a98a56832d]
class Student--><rect codeLine="65" fill="#FEFECE" filter="url(#f1ruqmw5x37ou)" height="52.7734" id="Student" style="stroke:#A80036;stroke-width:1.5;" width="87" x="7" y="125"/><text fill="#000000" font-family="sans-serif" font-size="12" lengthAdjust="spacing" textLength="46" x="10" y="141.1387">Student</text><rect fill="#FFFFFF" height="15.9688" style="stroke:#000000;stroke-width:1.0;stroke-dasharray:2.0,2.0;" width="33" x="64" y="122"/><text fill="#000000" font-family="sans-serif" font-size="12" font-style="italic" lengthAdjust="spacing" textLength="31" x="65" y="134.1387">actor</text><line style="stroke:#A80036;stroke-width:1.5;" x1="8" x2="93" y1="148.9688" y2="148.9688"/><line style="stroke:#A80036;stroke-width:1.5;" x1="8" x2="93" y1="156.9688" y2="156.9688"/><text fill="#000000" font-family="sans-serif" font-size="11" lengthAdjust="spacing" textLength="35" x="13" y="171.1792">grow()</text><!--MD5=[3fd616f346a44cd59a91eb10b19e157c]
class User--><rect codeLine="8" fill="#FEFECE" filter="url(#f1ruqmw5x37ou)" height="283.2578" id="User" style="stroke:#A80036;stroke-width:1.5;" width="70" x="1138.5" y="10"/><text fill="#000000" font-family="sans-serif" font-size="12" lengthAdjust="spacing" textLength="29" x="1141.5" y="26.1387">User</text><rect fill="#FFFFFF" height="15.9688" style="stroke:#000000;stroke-width:1.0;stroke-dasharray:2.0,2.0;" width="33" x="1178.5" y="7"/><text fill="#000000" font-family="sans-serif" font-size="12" font-style="italic" lengthAdjust="spacing" textLength="31" x="1179.5" y="19.1387">actor</text><line style="stroke:#A80036;stroke-width:1.5;" x1="1139.5" x2="1207.5" y1="33.9688" y2="33.9688"/><line style="stroke:#A80036;stroke-width:1.5;" x1="1139.5" x2="1207.5" y1="41.9688" y2="41.9688"/><text fill="#000000" font-family="sans-serif" font-size="11" lengthAdjust="spacing" textLength="28" x="1144.5" y="56.1792">join()</text><text fill="#000000" font-family="sans-serif" font-size="11" lengthAdjust="spacing" textLength="36" x="1144.5" y="68.9839">send()</text><text fill="#000000" font-family="sans-serif" font-size="11" lengthAdjust="spacing" textLength="46" x="1144.5" y="81.7886">delete()</text><text fill="#000000" font-family="sans-serif" font-size="11" lengthAdjust="spacing" textLength="55" x="1144.5" y="94.5933">unfollow()</text><text fill="#000000" font-family="sans-serif" font-size="11" lengthAdjust="spacing" textLength="29" x="1144.5" y="107.3979">find()</text><text fill="#000000" font-family="sans-serif" font-size="11" lengthAdjust="spacing" textLength="29" x="1144.5" y="120.2026">add()</text><text fill="#000000" font-family="sans-serif" font-size="11" lengthAdjust="spacing" textLength="41" x="1144.5" y="133.0073">reject()</text><text fill="#000000" font-family="sans-serif" font-size="11" lengthAdjust="spacing" textLength="37" x="1144.5" y="145.812">have()</text><text fill="#000000" font-family="sans-serif" font-size="11" lengthAdjust="spacing" textLength="36" x="1144.5" y="158.6167">write()</text><text fill="#000000" font-family="sans-serif" font-size="11" lengthAdjust="spacing" textLength="45" x="1144.5" y="171.4214">create()</text><text fill="#000000" font-family="sans-serif" font-size="11" lengthAdjust="spacing" textLength="48" x="1144.5" y="184.2261">update()</text><text fill="#000000" font-family="sans-serif" font-size="11" lengthAdjust="spacing" textLength="46" x="1144.5" y="197.0308">accept()</text><text fill="#000000" font-family="sans-serif" font-size="11" lengthAdjust="spacing" textLength="40" x="1144.5" y="209.8354">share()</text><text fill="#000000" font-family="sans-serif" font-size="11" lengthAdjust="spacing" textLength="45" x="1144.5" y="222.6401">cancel()</text><text fill="#000000" font-family="sans-serif" font-size="11" lengthAdjust="spacing" textLength="46" x="1144.5" y="235.4448">upload()</text><text fill="#000000" font-family="sans-serif" font-size="11" lengthAdjust="spacing" textLength="30" x="1144.5" y="248.2495">see()</text><text fill="#000000" font-family="sans-serif" font-size="11" lengthAdjust="spacing" textLength="44" x="1144.5" y="261.0542">import()</text><text fill="#000000" font-family="sans-serif" font-size="11" lengthAdjust="spacing" textLength="41" x="1144.5" y="273.8589">follow()</text><text fill="#000000" font-family="sans-serif" font-size="11" lengthAdjust="spacing" textLength="41" x="1144.5" y="286.6636">leave()</text><!--MD5=[da547346deef918ea16944ba046651ef]
class Administrator--><rect codeLine="6" fill="#FEFECE" filter="url(#f1ruqmw5x37ou)" height="39.9688" id="Administrator" style="stroke:#A80036;stroke-width:1.5;" width="121" x="1244" y="131.5"/><text fill="#000000" font-family="sans-serif" font-size="12" lengthAdjust="spacing" textLength="80" x="1247" y="147.6387">Administrator</text><rect fill="#FFFFFF" height="15.9688" style="stroke:#000000;stroke-width:1.0;stroke-dasharray:2.0,2.0;" width="33" x="1335" y="128.5"/><text fill="#000000" font-family="sans-serif" font-size="12" font-style="italic" lengthAdjust="spacing" textLength="31" x="1336" y="140.6387">actor</text><line style="stroke:#A80036;stroke-width:1.5;" x1="1245" x2="1364" y1="155.4688" y2="155.4688"/><line style="stroke:#A80036;stroke-width:1.5;" x1="1245" x2="1364" y1="163.4688" y2="163.4688"/><!--MD5=[bea5b0d46523efab5ea1c1d339f396f0]
class Message--><rect codeLine="29" fill="#FEFECE" filter="url(#f1ruqmw5x37ou)" height="39.9688" id="Message" style="stroke:#A80036;stroke-width:1.5;" width="61" x="117" y="370"/><text fill="#000000" font-family="sans-serif" font-size="12" lengthAdjust="spacing" textLength="55" x="120" y="386.1387">Message</text><line style="stroke:#A80036;stroke-width:1.5;" x1="118" x2="177" y1="393.9688" y2="393.9688"/><line style="stroke:#A80036;stroke-width:1.5;" x1="118" x2="177" y1="401.9688" y2="401.9688"/><!--MD5=[6f7011e189b0e47ab1f320872962b4c4]
class Optometrist--><rect codeLine="31" fill="#FEFECE" filter="url(#f1ruqmw5x37ou)" height="39.9688" id="Optometrist" style="stroke:#A80036;stroke-width:1.5;" width="78" x="219.5" y="370"/><text fill="#000000" font-family="sans-serif" font-size="12" lengthAdjust="spacing" textLength="72" x="222.5" y="386.1387">Optometrist</text><line style="stroke:#A80036;stroke-width:1.5;" x1="220.5" x2="296.5" y1="393.9688" y2="393.9688"/><line style="stroke:#A80036;stroke-width:1.5;" x1="220.5" x2="296.5" y1="401.9688" y2="401.9688"/><!--MD5=[17a697de5646a3e8ac01998c348cb8a8]
class ConnectionRequest--><rect codeLine="33" fill="#FEFECE" filter="url(#f1ruqmw5x37ou)" height="39.9688" id="ConnectionRequest" style="stroke:#A80036;stroke-width:1.5;" width="122" x="332.5" y="370"/><text fill="#000000" font-family="sans-serif" font-size="12" lengthAdjust="spacing" textLength="116" x="335.5" y="386.1387">ConnectionRequest</text><line style="stroke:#A80036;stroke-width:1.5;" x1="333.5" x2="453.5" y1="393.9688" y2="393.9688"/><line style="stroke:#A80036;stroke-width:1.5;" x1="333.5" x2="453.5" y1="401.9688" y2="401.9688"/><!--MD5=[b39bf2416e05f940a14e3aa44644fd2d]
class Office--><rect codeLine="35" fill="#FEFECE" filter="url(#f1ruqmw5x37ou)" height="39.9688" id="Office" style="stroke:#A80036;stroke-width:1.5;" width="42" x="489.5" y="370"/><text fill="#000000" font-family="sans-serif" font-size="12" lengthAdjust="spacing" textLength="36" x="492.5" y="386.1387">Office</text><line style="stroke:#A80036;stroke-width:1.5;" x1="490.5" x2="530.5" y1="393.9688" y2="393.9688"/><line style="stroke:#A80036;stroke-width:1.5;" x1="490.5" x2="530.5" y1="401.9688" y2="401.9688"/><!--MD5=[7b57f7066b803747d2119f99dd1555d4]
class Profile--><rect codeLine="37" fill="#FEFECE" filter="url(#f1ruqmw5x37ou)" height="39.9688" id="Profile" style="stroke:#A80036;stroke-width:1.5;" width="43" x="693" y="370"/><text fill="#000000" font-family="sans-serif" font-size="12" lengthAdjust="spacing" textLength="37" x="696" y="386.1387">Profile</text><line style="stroke:#A80036;stroke-width:1.5;" x1="694" x2="735" y1="393.9688" y2="393.9688"/><line style="stroke:#A80036;stroke-width:1.5;" x1="694" x2="735" y1="401.9688" y2="401.9688"/><!--MD5=[30fd7b95ab383a5e7c83ea23d4ea0fbf]
class Information--><rect codeLine="39" fill="#FEFECE" filter="url(#f1ruqmw5x37ou)" height="39.9688" id="Information" style="stroke:#A80036;stroke-width:1.5;" width="73" x="849" y="370"/><text fill="#000000" font-family="sans-serif" font-size="12" lengthAdjust="spacing" textLength="67" x="852" y="386.1387">Information</text><line style="stroke:#A80036;stroke-width:1.5;" x1="850" x2="921" y1="393.9688" y2="393.9688"/><line style="stroke:#A80036;stroke-width:1.5;" x1="850" x2="921" y1="401.9688" y2="401.9688"/><!--MD5=[0851f84a889f989e7bb0bebc385d0f09]
class Request--><rect codeLine="41" fill="#FEFECE" filter="url(#f1ruqmw5x37ou)" height="39.9688" id="Request" style="stroke:#A80036;stroke-width:1.5;" width="55" x="957" y="370"/><text fill="#000000" font-family="sans-serif" font-size="12" lengthAdjust="spacing" textLength="49" x="960" y="386.1387">Request</text><line style="stroke:#A80036;stroke-width:1.5;" x1="958" x2="1011" y1="393.9688" y2="393.9688"/><line style="stroke:#A80036;stroke-width:1.5;" x1="958" x2="1011" y1="401.9688" y2="401.9688"/><!--MD5=[e7236e0a28bf7d774911f64d0540ec3e]
class ProfilePicture--><rect codeLine="43" fill="#FEFECE" filter="url(#f1ruqmw5x37ou)" height="39.9688" id="ProfilePicture" style="stroke:#A80036;stroke-width:1.5;" width="83" x="1047" y="370"/><text fill="#000000" font-family="sans-serif" font-size="12" lengthAdjust="spacing" textLength="77" x="1050" y="386.1387">ProfilePicture</text><line style="stroke:#A80036;stroke-width:1.5;" x1="1048" x2="1129" y1="393.9688" y2="393.9688"/><line style="stroke:#A80036;stroke-width:1.5;" x1="1048" x2="1129" y1="401.9688" y2="401.9688"/><!--MD5=[d22815ff63be9cac9a63f8d1ea27d033]
class Article--><rect codeLine="45" fill="#FEFECE" filter="url(#f1ruqmw5x37ou)" height="39.9688" id="Article" style="stroke:#A80036;stroke-width:1.5;" width="44" x="1165.5" y="370"/><text fill="#000000" font-family="sans-serif" font-size="12" lengthAdjust="spacing" textLength="38" x="1168.5" y="386.1387">Article</text><line style="stroke:#A80036;stroke-width:1.5;" x1="1166.5" x2="1208.5" y1="393.9688" y2="393.9688"/><line style="stroke:#A80036;stroke-width:1.5;" x1="1166.5" x2="1208.5" y1="401.9688" y2="401.9688"/><!--MD5=[02e4b9b7573f1156f41e60aa5b4e25a4]
class Company--><rect codeLine="47" fill="#FEFECE" filter="url(#f1ruqmw5x37ou)" height="39.9688" id="Company" style="stroke:#A80036;stroke-width:1.5;" width="62" x="1244.5" y="370"/><text fill="#000000" font-family="sans-serif" font-size="12" lengthAdjust="spacing" textLength="56" x="1247.5" y="386.1387">Company</text><line style="stroke:#A80036;stroke-width:1.5;" x1="1245.5" x2="1305.5" y1="393.9688" y2="393.9688"/><line style="stroke:#A80036;stroke-width:1.5;" x1="1245.5" x2="1305.5" y1="401.9688" y2="401.9688"/><!--MD5=[ad510ca42d1a057b37ac2813b8ee5b40]
class Connection--><rect codeLine="49" fill="#FEFECE" filter="url(#f1ruqmw5x37ou)" height="39.9688" id="Connection" style="stroke:#A80036;stroke-width:1.5;" width="73" x="1342" y="370"/><text fill="#000000" font-family="sans-serif" font-size="12" lengthAdjust="spacing" textLength="67" x="1345" y="386.1387">Connection</text><line style="stroke:#A80036;stroke-width:1.5;" x1="1343" x2="1414" y1="393.9688" y2="393.9688"/><line style="stroke:#A80036;stroke-width:1.5;" x1="1343" x2="1414" y1="401.9688" y2="401.9688"/><!--MD5=[dd3bac0ad1c4203e836ed9e8df23a782]
class LetterRecommendation--><rect codeLine="51" fill="#FEFECE" filter="url(#f1ruqmw5x37ou)" height="39.9688" id="LetterRecommendation" style="stroke:#A80036;stroke-width:1.5;" width="145" x="1450" y="370"/><text fill="#000000" font-family="sans-serif" font-size="12" lengthAdjust="spacing" textLength="139" x="1453" y="386.1387">LetterRecommendation</text><line style="stroke:#A80036;stroke-width:1.5;" x1="1451" x2="1594" y1="393.9688" y2="393.9688"/><line style="stroke:#A80036;stroke-width:1.5;" x1="1451" x2="1594" y1="401.9688" y2="401.9688"/><!--MD5=[ad932b6f5864965112044123d6bad487]
class Someone--><rect codeLine="53" fill="#FEFECE" filter="url(#f1ruqmw5x37ou)" height="39.9688" id="Someone" style="stroke:#A80036;stroke-width:1.5;" width="64" x="1630.5" y="370"/><text fill="#000000" font-family="sans-serif" font-size="12" lengthAdjust="spacing" textLength="58" x="1633.5" y="386.1387">Someone</text><line style="stroke:#A80036;stroke-width:1.5;" x1="1631.5" x2="1693.5" y1="393.9688" y2="393.9688"/><line style="stroke:#A80036;stroke-width:1.5;" x1="1631.5" x2="1693.5" y1="401.9688" y2="401.9688"/><!--MD5=[41314a0efc36828092cff9ebad2fcafd]
class Group--><rect codeLine="55" fill="#FEFECE" filter="url(#f1ruqmw5x37ou)" height="39.9688" id="Group" style="stroke:#A80036;stroke-width:1.5;" width="43" x="1730" y="370"/><text fill="#000000" font-family="sans-serif" font-size="12" lengthAdjust="spacing" textLength="37" x="1733" y="386.1387">Group</text><line style="stroke:#A80036;stroke-width:1.5;" x1="1731" x2="1772" y1="393.9688" y2="393.9688"/><line style="stroke:#A80036;stroke-width:1.5;" x1="1731" x2="1772" y1="401.9688" y2="401.9688"/><!--MD5=[10a9fff9df9a76a22f65fd5d58adb785]
class School--><rect codeLine="57" fill="#FEFECE" filter="url(#f1ruqmw5x37ou)" height="39.9688" id="School" style="stroke:#A80036;stroke-width:1.5;" width="47" x="1824" y="370"/><text fill="#000000" font-family="sans-serif" font-size="12" lengthAdjust="spacing" textLength="41" x="1827" y="386.1387">School</text><line style="stroke:#A80036;stroke-width:1.5;" x1="1825" x2="1870" y1="393.9688" y2="393.9688"/><line style="stroke:#A80036;stroke-width:1.5;" x1="1825" x2="1870" y1="401.9688" y2="401.9688"/><!--MD5=[61e2610165a592fa949543c2d7246366]
class Presence--><rect codeLine="59" fill="#FEFECE" filter="url(#f1ruqmw5x37ou)" height="39.9688" id="Presence" style="stroke:#A80036;stroke-width:1.5;" width="62" x="1906.5" y="370"/><text fill="#000000" font-family="sans-serif" font-size="12" lengthAdjust="spacing" textLength="56" x="1909.5" y="386.1387">Presence</text><line style="stroke:#A80036;stroke-width:1.5;" x1="1907.5" x2="1967.5" y1="393.9688" y2="393.9688"/><line style="stroke:#A80036;stroke-width:1.5;" x1="1907.5" x2="1967.5" y1="401.9688" y2="401.9688"/><!--MD5=[6016c9c5425d34ae3d7a539916a91923]
class Recommendation--><rect codeLine="61" fill="#FEFECE" filter="url(#f1ruqmw5x37ou)" height="39.9688" id="Recommendation" style="stroke:#A80036;stroke-width:1.5;" width="110" x="2003.5" y="370"/><text fill="#000000" font-family="sans-serif" font-size="12" lengthAdjust="spacing" textLength="104" x="2006.5" y="386.1387">Recommendation</text><line style="stroke:#A80036;stroke-width:1.5;" x1="2004.5" x2="2112.5" y1="393.9688" y2="393.9688"/><line style="stroke:#A80036;stroke-width:1.5;" x1="2004.5" x2="2112.5" y1="401.9688" y2="401.9688"/><!--MD5=[bd2a4c30cd74f6f685e18e127d112db0]
class LinkedInInformation--><rect codeLine="63" fill="#FEFECE" filter="url(#f1ruqmw5x37ou)" height="39.9688" id="LinkedInInformation" style="stroke:#A80036;stroke-width:1.5;" width="122" x="2148.5" y="370"/><text fill="#000000" font-family="sans-serif" font-size="12" lengthAdjust="spacing" textLength="116" x="2151.5" y="386.1387">LinkedInInformation</text><line style="stroke:#A80036;stroke-width:1.5;" x1="2149.5" x2="2269.5" y1="393.9688" y2="393.9688"/><line style="stroke:#A80036;stroke-width:1.5;" x1="2149.5" x2="2269.5" y1="401.9688" y2="401.9688"/><!--MD5=[ec81f511f4d20a18ef555a8be4cd58b8]
class Network--><rect codeLine="68" fill="#FEFECE" filter="url(#f1ruqmw5x37ou)" height="39.9688" id="Network" style="stroke:#A80036;stroke-width:1.5;" width="56" x="22.5" y="370"/><text fill="#000000" font-family="sans-serif" font-size="12" lengthAdjust="spacing" textLength="50" x="25.5" y="386.1387">Network</text><line style="stroke:#A80036;stroke-width:1.5;" x1="23.5" x2="77.5" y1="393.9688" y2="393.9688"/><line style="stroke:#A80036;stroke-width:1.5;" x1="23.5" x2="77.5" y1="401.9688" y2="401.9688"/><!--MD5=[96a16f046dcf5a9f7fab5dd2542af37b]
class Advertisement--><rect codeLine="70" fill="#FEFECE" filter="url(#f1ruqmw5x37ou)" height="39.9688" id="Advertisement" style="stroke:#A80036;stroke-width:1.5;" width="94" x="2305.5" y="370"/><text fill="#000000" font-family="sans-serif" font-size="12" lengthAdjust="spacing" textLength="88" x="2308.5" y="386.1387">Advertisement</text><line style="stroke:#A80036;stroke-width:1.5;" x1="2306.5" x2="2398.5" y1="393.9688" y2="393.9688"/><line style="stroke:#A80036;stroke-width:1.5;" x1="2306.5" x2="2398.5" y1="401.9688" y2="401.9688"/><!--MD5=[166247bf81aba95c770c3b8fd8e3cb19]
class Video--><rect codeLine="72" fill="#FEFECE" filter="url(#f1ruqmw5x37ou)" height="39.9688" id="Video" style="stroke:#A80036;stroke-width:1.5;" width="41" x="2435" y="370"/><text fill="#000000" font-family="sans-serif" font-size="12" lengthAdjust="spacing" textLength="35" x="2438" y="386.1387">Video</text><line style="stroke:#A80036;stroke-width:1.5;" x1="2436" x2="2475" y1="393.9688" y2="393.9688"/><line style="stroke:#A80036;stroke-width:1.5;" x1="2436" x2="2475" y1="401.9688" y2="401.9688"/><!--MD5=[e67dabbd35c4ec59257a8de2eea4bdc5]
link User to School--><path codeLine="74" d="M1208.51,275.354 C1213.7,282.009 1219.66,288.002 1226.5,293 C1330.72,369.1272 1695.36,257.388 1806.5,323 C1822.15,332.2418 1832.69,350.0436 1839.16,364.8319 " fill="none" id="User-to-School" style="stroke:#A80036;stroke-width:1.0;"/><polygon fill="#A80036" points="1841.2,369.7148,1841.4238,359.8685,1839.2737,365.1008,1834.0414,362.9506,1841.2,369.7148" style="stroke:#A80036;stroke-width:1.0;"/><text fill="#000000" font-family="sans-serif" font-size="13" lengthAdjust="spacing" textLength="38" x="1826.5" y="336.0669">follow</text><!--MD5=[bb050fa5a44ccaa93abbad0c89f9b430]
link User to Office--><path codeLine="75" d="M1138.45,156.797 C1016.01,172.522 610.087,230.866 523.5,323 C513.192,333.9687 509.968,350.6228 509.308,364.4569 " fill="none" id="User-to-Office" style="stroke:#A80036;stroke-width:1.0;"/><polygon fill="#A80036" points="509.17,369.7971,513.4011,360.9034,509.2991,364.7988,505.4038,360.6968,509.17,369.7971" style="stroke:#A80036;stroke-width:1.0;"/><text fill="#000000" font-family="sans-serif" font-size="13" lengthAdjust="spacing" textLength="24" x="524.5" y="336.0669">find</text><!--MD5=[901c633d1219c6bb2f145874d26937eb]
link User to LetterRecommendation--><path codeLine="76" d="M1208.63,273.958 C1213.79,281.041 1219.71,287.504 1226.5,293 C1295.33,348.7304 1340.91,291.01 1423.5,323 C1450.18,333.3358 1476.98,351.8106 1495.95,366.5901 " fill="none" id="User-to-LetterRecommendation" style="stroke:#A80036;stroke-width:1.0;"/><polygon fill="#A80036" points="1500.11,369.8748,1495.5246,361.1585,1496.1856,366.7766,1490.5675,367.4376,1500.11,369.8748" style="stroke:#A80036;stroke-width:1.0;"/><text fill="#000000" font-family="sans-serif" font-size="13" lengthAdjust="spacing" textLength="32" x="1457.5" y="336.0669">write</text><!--MD5=[2b89edaa518263021c44da821f8a3df0]
link User to Presence--><path codeLine="77" d="M1208.72,275.702 C1213.86,282.225 1219.75,288.097 1226.5,293 C1284.73,335.2941 1807.89,293.421 1873.5,323 C1893.58,332.0544 1910.61,350.5307 1922.05,365.6372 " fill="none" id="User-to-Presence" style="stroke:#A80036;stroke-width:1.0;"/><polygon fill="#A80036" points="1925.12,369.798,1922.9974,360.1806,1922.1523,365.774,1916.559,364.9288,1925.12,369.798" style="stroke:#A80036;stroke-width:1.0;"/><text fill="#000000" font-family="sans-serif" font-size="13" lengthAdjust="spacing" textLength="32" x="1899.5" y="336.0669">have</text><!--MD5=[3b3a110f6aeec0a0bf442c01daca6c1c]
link User to Profile--><path codeLine="78" d="M1138.32,156.811 C1019.31,172.185 635.205,228.505 563.5,323 C529.642,367.6197 635.881,382.5932 687.741,387.1689 " fill="none" id="User-to-Profile" style="stroke:#A80036;stroke-width:1.0;"/><polygon fill="#A80036" points="692.883,387.6043,684.2535,382.8575,687.9009,387.1814,683.577,390.8288,692.883,387.6043" style="stroke:#A80036;stroke-width:1.0;"/><text fill="#000000" font-family="sans-serif" font-size="13" lengthAdjust="spacing" textLength="40" x="564.5" y="336.0669">delete</text><!--MD5=[3b3a110f6aeec0a0bf442c01daca6c1c]
link User to Profile--><path codeLine="80" d="M1138.16,158.428 C1029.78,177.4 705.734,240.253 645.5,323 C629.52,344.9534 662.24,365.8344 687.88,378.0272 " fill="none" id="User-to-Profile-1" style="stroke:#A80036;stroke-width:1.0;"/><polygon fill="#A80036" points="692.572,380.2011,686.0868,372.7888,688.0351,378.0996,682.7243,380.0479,692.572,380.2011" style="stroke:#A80036;stroke-width:1.0;"/><text fill="#000000" font-family="sans-serif" font-size="13" lengthAdjust="spacing" textLength="24" x="646.5" y="336.0669">add</text><!--MD5=[3b3a110f6aeec0a0bf442c01daca6c1c]
link User to Profile--><path codeLine="81" d="M1138.39,152.959 C1048.84,156.263 811.952,178.854 711.5,323 C703.163,334.9631 703.846,351.3201 706.646,364.757 " fill="none" id="User-to-Profile-2" style="stroke:#A80036;stroke-width:1.0;"/><polygon fill="#A80036" points="707.857,369.9366,709.703,360.2623,706.7187,365.0679,701.9131,362.0836,707.857,369.9366" style="stroke:#A80036;stroke-width:1.0;"/><text fill="#000000" font-family="sans-serif" font-size="13" lengthAdjust="spacing" textLength="23" x="712.5" y="336.0669">see</text><!--MD5=[3b3a110f6aeec0a0bf442c01daca6c1c]
link User to Profile--><path codeLine="96" d="M1138.42,162.224 C1066.09,183.371 897.063,238.531 776.5,323 C759.581,334.854 743.695,351.9284 732.24,365.7406 " fill="none" id="User-to-Profile-3" style="stroke:#A80036;stroke-width:1.0;"/><polygon fill="#A80036" points="728.831,369.913,737.6224,365.4734,731.9941,366.0407,731.4268,360.4124,728.831,369.913" style="stroke:#A80036;stroke-width:1.0;"/><text fill="#000000" font-family="sans-serif" font-size="13" lengthAdjust="spacing" textLength="41" x="777.5" y="336.0669">create</text><!--MD5=[3b3a110f6aeec0a0bf442c01daca6c1c]
link User to Profile--><path codeLine="101" d="M1138.15,172.49 C1075.46,207.701 940.407,282.494 823.5,340 C795.634,353.7073 763.091,368.1367 740.867,377.7578 " fill="none" id="User-to-Profile-4" style="stroke:#A80036;stroke-width:1.0;"/><polygon fill="#A80036" points="736.008,379.8559,745.8563,379.9591,740.5981,377.8732,742.684,372.615,736.008,379.8559" style="stroke:#A80036;stroke-width:1.0;"/><text fill="#000000" font-family="sans-serif" font-size="13" lengthAdjust="spacing" textLength="45" x="853.5" y="336.0669">update</text><!--MD5=[2126dce093f5cfa8a27fbaeca5d85891]
link User to Someone--><path codeLine="79" d="M1208.61,274.591 C1213.78,281.476 1219.7,287.726 1226.5,293 C1274.54,330.2825 1439.52,308.177 1498.5,323 C1543.75,334.3728 1593.09,355.5131 1625.71,370.8096 " fill="none" id="User-to-Someone" style="stroke:#A80036;stroke-width:1.0;"/><polygon fill="#A80036" points="1630.4,373.0222,1623.9607,365.57,1625.8762,370.8927,1620.5535,372.8082,1630.4,373.0222" style="stroke:#A80036;stroke-width:1.0;"/><text fill="#000000" font-family="sans-serif" font-size="13" lengthAdjust="spacing" textLength="24" x="1550.5" y="336.0669">find</text><!--MD5=[230d2250dd088f95bd28c8224becb2ce]
link User to Recommendation--><path codeLine="82" d="M1208.69,275.735 C1213.84,282.25 1219.74,288.112 1226.5,293 C1290.85,339.5253 1864.1,301.363 1940.5,323 C1972.82,332.1525 2005.87,351.694 2028.75,367.1509 " fill="none" id="User-to-Recommendation" style="stroke:#A80036;stroke-width:1.0;"/><polygon fill="#A80036" points="2032.9,369.9861,2027.7165,361.6116,2028.7686,367.1698,2023.2104,368.2219,2032.9,369.9861" style="stroke:#A80036;stroke-width:1.0;"/><text fill="#000000" font-family="sans-serif" font-size="13" lengthAdjust="spacing" textLength="23" x="1983.5" y="336.0669">see</text><!--MD5=[9d661380b54d9bff4ee137bc0bb1b8a2]
link User to Information--><path codeLine="83" d="M1138.47,181.263 C1080.33,229.013 965.085,323.646 912.635,366.7172 " fill="none" id="User-to-Information" style="stroke:#A80036;stroke-width:1.0;"/><polygon fill="#A80036" points="908.666,369.9768,918.16,367.3569,912.5302,366.8039,913.0833,361.1741,908.666,369.9768" style="stroke:#A80036;stroke-width:1.0;"/><text fill="#000000" font-family="sans-serif" font-size="13" lengthAdjust="spacing" textLength="24" x="964.5" y="336.0669">find</text><!--MD5=[bda46f8b3e8164a9780ce19d69123a1d]
link User to LinkedInInformation--><path codeLine="84" d="M1208.67,275.766 C1213.82,282.274 1219.73,288.125 1226.5,293 C1297.7,344.2623 1929.23,307.038 2015.5,323 C2066.22,332.3851 2121.72,352.3104 2160.31,367.8261 " fill="none" id="User-to-LinkedInInformation" style="stroke:#A80036;stroke-width:1.0;"/><polygon fill="#A80036" points="2165.41,369.8879,2158.5811,362.791,2160.7787,368.0036,2155.5661,370.2012,2165.41,369.8879" style="stroke:#A80036;stroke-width:1.0;"/><text fill="#000000" font-family="sans-serif" font-size="13" lengthAdjust="spacing" textLength="42" x="2082.5" y="336.0669">import</text><!--MD5=[bec43d67277193a86863b6703a526bb0]
link User to Request--><path codeLine="85" d="M1138.39,196.43 C1098.33,246.566 1034.3,326.6785 1002.979,365.877 " fill="none" id="User-to-Request" style="stroke:#A80036;stroke-width:1.0;"/><polygon fill="#A80036" points="999.688,369.9954,1008.4316,365.4623,1002.8096,366.0896,1002.1823,360.4676,999.688,369.9954" style="stroke:#A80036;stroke-width:1.0;"/><text fill="#000000" font-family="sans-serif" font-size="13" lengthAdjust="spacing" textLength="31" x="1036.5" y="336.0669">send</text><!--MD5=[466bf63bac18688930d4e31d035f36ce]
link User to Company--><path codeLine="86" d="M1208.58,249.847 C1220.22,279.303 1233.95,311.4092 1248.5,340 C1252.66,348.1724 1257.42,356.981 1261.78,364.8451 " fill="none" id="User-to-Company" style="stroke:#A80036;stroke-width:1.0;"/><polygon fill="#A80036" points="1264.43,369.6055,1263.549,359.7961,1261.9987,365.2364,1256.5584,363.6862,1264.43,369.6055" style="stroke:#A80036;stroke-width:1.0;"/><text fill="#000000" font-family="sans-serif" font-size="13" lengthAdjust="spacing" textLength="38" x="1249.5" y="336.0669">follow</text><!--MD5=[466bf63bac18688930d4e31d035f36ce]
link User to Company--><path codeLine="103" d="M1208.61,268.899 C1213.8,277.587 1219.73,285.768 1226.5,293 C1248.52,316.5223 1275.06,295.909 1292.5,323 C1300.6,335.5815 1296.55,351.8396 1290.37,365.0711 " fill="none" id="User-to-Company-1" style="stroke:#A80036;stroke-width:1.0;"/><polygon fill="#A80036" points="1288.02,369.7965,1295.6062,363.5156,1290.2443,365.3185,1288.4414,359.9567,1288.02,369.7965" style="stroke:#A80036;stroke-width:1.0;"/><text fill="#000000" font-family="sans-serif" font-size="13" lengthAdjust="spacing" textLength="54" x="1298.5" y="336.0669">unfollow</text><!--MD5=[d29f819f8f99482cd5623b298de68c75]
link User to Connection--><path codeLine="87" d="M1208.61,272.799 C1213.78,280.251 1219.7,287.108 1226.5,293 C1272.94,333.2675 1317.32,280.271 1361.5,323 C1372.64,333.7693 1376.83,350.7853 1378.27,364.8422 " fill="none" id="User-to-Connection" style="stroke:#A80036;stroke-width:1.0;"/><polygon fill="#A80036" points="1378.68,369.8701,1381.9278,360.5722,1378.2696,364.887,1373.9548,361.2288,1378.68,369.8701" style="stroke:#A80036;stroke-width:1.0;"/><text fill="#000000" font-family="sans-serif" font-size="13" lengthAdjust="spacing" textLength="41" x="1373.5" y="336.0669">cancel</text><!--MD5=[022f38aa651b92be90a5772e2f5db698]
link User to ConnectionRequest--><path codeLine="88" d="M1138.07,153.987 C991.924,160.925 438.785,195.391 334.5,323 C322.307,337.9205 336.208,354.0567 353.569,366.6391 " fill="none" id="User-to-ConnectionRequest" style="stroke:#A80036;stroke-width:1.0;"/><polygon fill="#A80036" points="358.043,369.7585,352.9464,361.3309,353.941,366.8996,348.3722,367.8941,358.043,369.7585" style="stroke:#A80036;stroke-width:1.0;"/><text fill="#000000" font-family="sans-serif" font-size="13" lengthAdjust="spacing" textLength="36" x="335.5" y="336.0669">reject</text><!--MD5=[022f38aa651b92be90a5772e2f5db698]
link User to ConnectionRequest--><path codeLine="102" d="M1138.17,154.397 C1030.16,161.515 697.342,193.313 461.5,323 C441.998,333.7241 424.118,351.5446 411.592,365.9668 " fill="none" id="User-to-ConnectionRequest-1" style="stroke:#A80036;stroke-width:1.0;"/><polygon fill="#A80036" points="408.204,369.9357,417.0895,365.6874,411.4502,366.1328,411.0048,360.4935,408.204,369.9357" style="stroke:#A80036;stroke-width:1.0;"/><text fill="#000000" font-family="sans-serif" font-size="13" lengthAdjust="spacing" textLength="43" x="462.5" y="336.0669">accept</text><!--MD5=[4fe8237c0d6ee2a1af83492a5467bc62]
link User to ProfilePicture--><path codeLine="89" d="M1138.44,250.059 C1123.28,292.223 1106.83,338.0094 1097.1,365.0672 " fill="none" id="User-to-ProfilePicture" style="stroke:#A80036;stroke-width:1.0;"/><polygon fill="#A80036" points="1095.37,369.8965,1102.1811,362.7825,1097.063,365.1918,1094.6536,360.0737,1095.37,369.8965" style="stroke:#A80036;stroke-width:1.0;"/><text fill="#000000" font-family="sans-serif" font-size="13" lengthAdjust="spacing" textLength="43" x="1112.5" y="336.0669">upload</text><!--MD5=[8694277179d3f9520cc26d9aa7e74a10]
link Student to Network--><path codeLine="90" d="M50.5,178.26 C50.5,224.161 50.5,319.4955 50.5,364.4856 " fill="none" id="Student-to-Network" style="stroke:#A80036;stroke-width:1.0;"/><polygon fill="#A80036" points="50.5,369.716,54.5,360.716,50.5,364.716,46.5,360.716,50.5,369.716" style="stroke:#A80036;stroke-width:1.0;"/><text fill="#000000" font-family="sans-serif" font-size="13" lengthAdjust="spacing" textLength="32" x="51.5" y="336.0669">grow</text><!--MD5=[a00ece9d0c4cd37035e31785d42481d2]
link User to Article--><path codeLine="91" d="M1165.68,293.19 C1166.45,309.043 1167.96,324.9114 1170.5,340 C1171.91,348.3825 1174.6,357.2462 1177.42,365.0963 " fill="none" id="User-to-Article" style="stroke:#A80036;stroke-width:1.0;"/><polygon fill="#A80036" points="1179.19,369.8397,1179.7978,360.0096,1177.4452,365.154,1172.3007,362.8014,1179.19,369.8397" style="stroke:#A80036;stroke-width:1.0;"/><text fill="#000000" font-family="sans-serif" font-size="13" lengthAdjust="spacing" textLength="36" x="1171.5" y="336.0669">share</text><!--MD5=[663645383e75be06282d0310212cce94]
link User to Advertisement--><path codeLine="92" d="M1208.64,275.805 C1213.8,282.303 1219.72,288.142 1226.5,293 C1267.49,322.3581 2083.75,314.824 2133.5,323 C2192.1,332.6307 2256.97,353.533 2300.79,369.2509 " fill="none" id="User-to-Advertisement" style="stroke:#A80036;stroke-width:1.0;"/><polygon fill="#A80036" points="2305.49,370.9476,2298.3673,364.1457,2300.7832,369.2607,2295.6682,371.6766,2305.49,370.9476" style="stroke:#A80036;stroke-width:1.0;"/><text fill="#000000" font-family="sans-serif" font-size="13" lengthAdjust="spacing" textLength="23" x="2208.5" y="336.0669">see</text><!--MD5=[67141e6eb3ba199f7c4756941637724e]
link User to Group--><path codeLine="93" d="M1208.7,275.104 C1213.84,281.818 1219.74,287.893 1226.5,293 C1290.02,340.9876 1505.77,305.792 1583.5,323 C1635.7,334.5561 1692.94,360.0229 1725.32,375.7264 " fill="none" id="User-to-Group" style="stroke:#A80036;stroke-width:1.0;"/><polygon fill="#A80036" points="1729.91,377.9697,1723.5862,370.4192,1725.4195,375.7708,1720.0679,377.6041,1729.91,377.9697" style="stroke:#A80036;stroke-width:1.0;"/><text fill="#000000" font-family="sans-serif" font-size="13" lengthAdjust="spacing" textLength="22" x="1641.5" y="336.0669">join</text><!--MD5=[67141e6eb3ba199f7c4756941637724e]
link User to Group--><path codeLine="98" d="M1208.6,275.233 C1213.77,281.917 1219.7,287.949 1226.5,293 C1306.26,352.2125 1580.31,286.01 1672.5,323 C1695.59,332.2641 1716.93,350.968 1731.59,366.1065 " fill="none" id="User-to-Group-1" style="stroke:#A80036;stroke-width:1.0;"/><polygon fill="#A80036" points="1735.17,369.8705,1731.8537,360.5967,1731.7194,366.252,1726.0642,366.1177,1735.17,369.8705" style="stroke:#A80036;stroke-width:1.0;"/><text fill="#000000" font-family="sans-serif" font-size="13" lengthAdjust="spacing" textLength="41" x="1703.5" y="336.0669">create</text><!--MD5=[67141e6eb3ba199f7c4756941637724e]
link User to Group--><path codeLine="100" d="M1208.54,275.313 C1213.72,281.978 1219.67,287.985 1226.5,293 C1273.77,327.7178 1713.22,280.366 1753.5,323 C1763.81,333.9099 1763.05,350.9228 1759.85,364.9429 " fill="none" id="User-to-Group-2" style="stroke:#A80036;stroke-width:1.0;"/><polygon fill="#A80036" points="1758.57,369.9559,1764.665,362.2195,1759.8024,365.1102,1756.9118,360.2476,1758.57,369.9559" style="stroke:#A80036;stroke-width:1.0;"/><text fill="#000000" font-family="sans-serif" font-size="13" lengthAdjust="spacing" textLength="35" x="1762.5" y="336.0669">leave</text><!--MD5=[e8a44440e7d883fedaa906df2c0e3d75]
link User to Message--><path codeLine="94" d="M1138.32,152.471 C971.698,153.144 264.463,165.36 130.5,323 C120.518,334.746 125.098,351.6287 132.004,365.3784 " fill="none" id="User-to-Message" style="stroke:#A80036;stroke-width:1.0;"/><polygon fill="#A80036" points="134.417,369.9093,133.716,360.0854,132.0662,365.4964,126.6553,363.8466,134.417,369.9093" style="stroke:#A80036;stroke-width:1.0;"/><text fill="#000000" font-family="sans-serif" font-size="13" lengthAdjust="spacing" textLength="23" x="131.5" y="336.0669">see</text><!--MD5=[e8a44440e7d883fedaa906df2c0e3d75]
link User to Message--><path codeLine="95" d="M1138.5,153.485 C1012.22,158.14 570.132,184.034 240.5,323 C215.398,333.5825 190.414,351.8554 172.672,366.4948 " fill="none" id="User-to-Message-1" style="stroke:#A80036;stroke-width:1.0;"/><polygon fill="#A80036" points="168.774,369.7491,178.2458,367.0499,172.6116,366.544,173.1176,360.9098,168.774,369.7491" style="stroke:#A80036;stroke-width:1.0;"/><text fill="#000000" font-family="sans-serif" font-size="13" lengthAdjust="spacing" textLength="31" x="241.5" y="336.0669">send</text><!--MD5=[d18a4d054d286cfcd5e9dc39bb2838cd]
link User to Video--><path codeLine="97" d="M1208.63,275.832 C1213.79,282.324 1219.71,288.154 1226.5,293 C1272.37,325.738 2184.74,314.8418 2240.5,323 C2320.61,334.7199 2340.65,341.695 2416.5,370 C2420.96,371.6629 2425.59,373.6618 2430.04,375.7296 " fill="none" id="User-to-Video" style="stroke:#A80036;stroke-width:1.0;"/><polygon fill="#A80036" points="2434.77,377.9877,2428.3552,370.5144,2430.2532,375.8434,2424.9242,377.7414,2434.77,377.9877" style="stroke:#A80036;stroke-width:1.0;"/><text fill="#000000" font-family="sans-serif" font-size="13" lengthAdjust="spacing" textLength="36" x="2328.5" y="336.0669">share</text><!--MD5=[a4c785ea6bb611cdfc632cf01eb4f7c2]
link User to Optometrist--><path codeLine="99" d="M1138.12,155.472 C991.979,168.325 436.447,223.047 296.5,323 C282.193,333.2181 272.497,350.6273 266.481,365.0007 " fill="none" id="User-to-Optometrist" style="stroke:#A80036;stroke-width:1.0;"/><polygon fill="#A80036" points="264.581,369.744,271.6412,362.8772,266.4405,365.1027,264.2151,359.9019,264.581,369.744" style="stroke:#A80036;stroke-width:1.0;"/><text fill="#000000" font-family="sans-serif" font-size="13" lengthAdjust="spacing" textLength="24" x="297.5" y="336.0669">find</text><!--MD5=[d1835915af5271afa8bc29c142a2adc6]
@startuml
hide circle
class Student<actor> {
}
class User<actor> {
}
class Administrator<actor> {
}
class User {
	join()
	send()
	delete()
	unfollow()
	find()
	add()
	reject()
	have()
	write()
	create()
	update()
	accept()
	share()
	cancel()
	upload()
	see()
	import()
	follow()
	leave()
}
class Message {
}
class Optometrist {
}
class ConnectionRequest {
}
class Office {
}
class Profile {
}
class Information {
}
class Request {
}
class ProfilePicture {
}
class Article {
}
class Company {
}
class Connection {
}
class LetterRecommendation {
}
class Someone {
}
class Group {
}
class School {
}
class Presence {
}
class Recommendation {
}
class LinkedInInformation {
}
class Student {
	grow()
}
class Network {
}
class Advertisement {
}
class Video {
}
User - -> School : follow
User - -> Office : find
User - -> LetterRecommendation : write
User - -> Presence : have
User - -> Profile : delete
User - -> Someone : find
User - -> Profile : add
User - -> Profile : see
User - -> Recommendation : see
User - -> Information : find
User - -> LinkedInInformation : import
User - -> Request : send
User - -> Company : follow
User - -> Connection : cancel
User - -> ConnectionRequest : reject
User - -> ProfilePicture : upload
Student - -> Network : grow
User - -> Article : share
User - -> Advertisement : see
User - -> Group : join
User - -> Message : see
User - -> Message : send
User - -> Profile : create
User - -> Video : share
User - -> Group : create
User - -> Optometrist : find
User - -> Group : leave
User - -> Profile : update
User - -> ConnectionRequest : accept
User - -> Company : unfollow
@enduml

PlantUML version 1.2021.6beta6(Unknown compile time)
(GPL source distribution)
Java Runtime: Java(TM) SE Runtime Environment
JVM: Java HotSpot(TM) 64-Bit Server VM
Default Encoding: UTF-8
Language: en
Country: US
--></g></svg>