<?xml version="1.0" encoding="UTF-8" standalone="no"?><svg xmlns="http://www.w3.org/2000/svg" xmlns:xlink="http://www.w3.org/1999/xlink" contentScriptType="application/ecmascript" contentStyleType="text/css" height="553px" preserveAspectRatio="none" style="width:2668px;height:553px;background:#FFFFFF;" version="1.1" viewBox="0 0 2668 553" width="2668px" zoomAndPan="magnify"><defs><filter height="300%" id="f1hwc98zetexko" width="300%" x="-1" y="-1"><feGaussianBlur result="blurOut" stdDeviation="2.0"/><feColorMatrix in="blurOut" result="blurOut2" type="matrix" values="0 0 0 0 0 0 0 0 0 0 0 0 0 0 0 0 0 0 .4 0"/><feOffset dx="4.0" dy="4.0" in="blurOut2" result="blurOut3"/><feBlend in="SourceGraphic" in2="blurOut3" mode="normal"/></filter></defs><g><!--MD5=[85d18e62f837734b14fa103cb6515b71]
class VOLUNTEERCOACH--><rect codeLine="35" fill="#FEFECE" filter="url(#f1hwc98zetexko)" height="52.7734" id="VOLUNTEERCOACH" style="stroke:#A80036;stroke-width:1.5;" width="153" x="366.5" y="80.5"/><text fill="#000000" font-family="sans-serif" font-size="12" lengthAdjust="spacing" textLength="112" x="369.5" y="96.6387">VOLUNTEERCOACH</text><rect fill="#FFFFFF" height="15.9688" style="stroke:#000000;stroke-width:1.0;stroke-dasharray:2.0,2.0;" width="33" x="489.5" y="77.5"/><text fill="#000000" font-family="sans-serif" font-size="12" font-style="italic" lengthAdjust="spacing" textLength="31" x="490.5" y="89.6387">actor</text><line style="stroke:#A80036;stroke-width:1.5;" x1="367.5" x2="518.5" y1="104.4688" y2="104.4688"/><line style="stroke:#A80036;stroke-width:1.5;" x1="367.5" x2="518.5" y1="112.4688" y2="112.4688"/><text fill="#000000" font-family="sans-serif" font-size="11" lengthAdjust="spacing" textLength="41" x="372.5" y="126.6792">check()</text><!--MD5=[8fd7917cad3218595641fd5866ef0ed3]
class GOTRLA--><rect codeLine="42" fill="#FEFECE" filter="url(#f1hwc98zetexko)" height="193.625" id="GOTRLA" style="stroke:#A80036;stroke-width:1.5;" width="88" x="1523" y="10"/><text fill="#000000" font-family="sans-serif" font-size="12" lengthAdjust="spacing" textLength="47" x="1526" y="26.1387">GOTRLA</text><rect fill="#FFFFFF" height="15.9688" style="stroke:#000000;stroke-width:1.0;stroke-dasharray:2.0,2.0;" width="33" x="1581" y="7"/><text fill="#000000" font-family="sans-serif" font-size="12" font-style="italic" lengthAdjust="spacing" textLength="31" x="1582" y="19.1387">actor</text><line style="stroke:#A80036;stroke-width:1.5;" x1="1524" x2="1610" y1="33.9688" y2="33.9688"/><line style="stroke:#A80036;stroke-width:1.5;" x1="1524" x2="1610" y1="41.9688" y2="41.9688"/><text fill="#000000" font-family="sans-serif" font-size="11" lengthAdjust="spacing" textLength="37" x="1529" y="56.1792">have()</text><text fill="#000000" font-family="sans-serif" font-size="11" lengthAdjust="spacing" textLength="51" x="1529" y="68.9839">monitor()</text><text fill="#000000" font-family="sans-serif" font-size="11" lengthAdjust="spacing" textLength="29" x="1529" y="81.7886">add()</text><text fill="#000000" font-family="sans-serif" font-size="11" lengthAdjust="spacing" textLength="30" x="1529" y="94.5933">edit()</text><text fill="#000000" font-family="sans-serif" font-size="11" lengthAdjust="spacing" textLength="50" x="1529" y="107.3979">support()</text><text fill="#000000" font-family="sans-serif" font-size="11" lengthAdjust="spacing" textLength="47" x="1529" y="120.2026">access()</text><text fill="#000000" font-family="sans-serif" font-size="11" lengthAdjust="spacing" textLength="35" x="1529" y="133.0073">offer()</text><text fill="#000000" font-family="sans-serif" font-size="11" lengthAdjust="spacing" textLength="48" x="1529" y="145.812">update()</text><text fill="#000000" font-family="sans-serif" font-size="11" lengthAdjust="spacing" textLength="60" x="1529" y="158.6167">schedule()</text><text fill="#000000" font-family="sans-serif" font-size="11" lengthAdjust="spacing" textLength="28" x="1529" y="171.4214">can()</text><text fill="#000000" font-family="sans-serif" font-size="11" lengthAdjust="spacing" textLength="46" x="1529" y="184.2261">delete()</text><text fill="#000000" font-family="sans-serif" font-size="11" lengthAdjust="spacing" textLength="35" x="1529" y="197.0308">login()</text><!--MD5=[ce225750be1aa34c384e75bd032b49fc]
class VolunteerCoach--><rect codeLine="56" fill="#FEFECE" filter="url(#f1hwc98zetexko)" height="65.5781" id="VolunteerCoach" style="stroke:#A80036;stroke-width:1.5;" width="136" x="691" y="319"/><text fill="#000000" font-family="sans-serif" font-size="12" lengthAdjust="spacing" textLength="95" x="694" y="335.1387">VolunteerCoach</text><rect fill="#FFFFFF" height="15.9688" style="stroke:#000000;stroke-width:1.0;stroke-dasharray:2.0,2.0;" width="33" x="797" y="316"/><text fill="#000000" font-family="sans-serif" font-size="12" font-style="italic" lengthAdjust="spacing" textLength="31" x="798" y="328.1387">actor</text><line style="stroke:#A80036;stroke-width:1.5;" x1="692" x2="826" y1="342.9688" y2="342.9688"/><line style="stroke:#A80036;stroke-width:1.5;" x1="692" x2="826" y1="350.9688" y2="350.9688"/><text fill="#000000" font-family="sans-serif" font-size="11" lengthAdjust="spacing" textLength="51" x="697" y="365.1792">identify()</text><text fill="#000000" font-family="sans-serif" font-size="11" lengthAdjust="spacing" textLength="37" x="697" y="377.9839">have()</text><!--MD5=[6081a303407aa0c0464c8b50c38f5612]
class Staff--><rect codeLine="64" fill="#FEFECE" filter="url(#f1hwc98zetexko)" height="91.1875" id="Staff" style="stroke:#A80036;stroke-width:1.5;" width="68" x="873" y="306.5"/><text fill="#000000" font-family="sans-serif" font-size="12" lengthAdjust="spacing" textLength="27" x="876" y="322.6387">Staff</text><rect fill="#FFFFFF" height="15.9688" style="stroke:#000000;stroke-width:1.0;stroke-dasharray:2.0,2.0;" width="33" x="911" y="303.5"/><text fill="#000000" font-family="sans-serif" font-size="12" font-style="italic" lengthAdjust="spacing" textLength="31" x="912" y="315.6387">actor</text><line style="stroke:#A80036;stroke-width:1.5;" x1="874" x2="940" y1="330.4688" y2="330.4688"/><line style="stroke:#A80036;stroke-width:1.5;" x1="874" x2="940" y1="338.4688" y2="338.4688"/><text fill="#000000" font-family="sans-serif" font-size="11" lengthAdjust="spacing" textLength="45" x="879" y="352.6792">export()</text><text fill="#000000" font-family="sans-serif" font-size="11" lengthAdjust="spacing" textLength="54" x="879" y="365.4839">analyze()</text><text fill="#000000" font-family="sans-serif" font-size="11" lengthAdjust="spacing" textLength="37" x="879" y="378.2886">have()</text><text fill="#000000" font-family="sans-serif" font-size="11" lengthAdjust="spacing" textLength="51" x="879" y="391.0933">monitor()</text><!--MD5=[d20e61c3df8b8f47d0b4e5ec2b6a1cdb]
class Volunteer--><rect codeLine="72" fill="#FEFECE" filter="url(#f1hwc98zetexko)" height="142.4063" id="Volunteer" style="stroke:#A80036;stroke-width:1.5;" width="99" x="1353.5" y="281"/><text fill="#000000" font-family="sans-serif" font-size="12" lengthAdjust="spacing" textLength="58" x="1356.5" y="297.1387">Volunteer</text><rect fill="#FFFFFF" height="15.9688" style="stroke:#000000;stroke-width:1.0;stroke-dasharray:2.0,2.0;" width="33" x="1422.5" y="278"/><text fill="#000000" font-family="sans-serif" font-size="12" font-style="italic" lengthAdjust="spacing" textLength="31" x="1423.5" y="290.1387">actor</text><line style="stroke:#A80036;stroke-width:1.5;" x1="1354.5" x2="1451.5" y1="304.9688" y2="304.9688"/><text fill="#000000" font-family="sans-serif" font-size="11" lengthAdjust="spacing" textLength="30" x="1359.5" y="319.1792">team</text><text fill="#000000" font-family="sans-serif" font-size="11" lengthAdjust="spacing" textLength="61" x="1359.5" y="331.9839">classroster</text><line style="stroke:#A80036;stroke-width:1.5;" x1="1354.5" x2="1451.5" y1="338.5781" y2="338.5781"/><text fill="#000000" font-family="sans-serif" font-size="11" lengthAdjust="spacing" textLength="35" x="1359.5" y="352.7886">view()</text><text fill="#000000" font-family="sans-serif" font-size="11" lengthAdjust="spacing" textLength="47" x="1359.5" y="365.5933">access()</text><text fill="#000000" font-family="sans-serif" font-size="11" lengthAdjust="spacing" textLength="35" x="1359.5" y="378.3979">login()</text><text fill="#000000" font-family="sans-serif" font-size="11" lengthAdjust="spacing" textLength="52" x="1359.5" y="391.2026">conduct()</text><text fill="#000000" font-family="sans-serif" font-size="11" lengthAdjust="spacing" textLength="37" x="1359.5" y="404.0073">know()</text><text fill="#000000" font-family="sans-serif" font-size="11" lengthAdjust="spacing" textLength="41" x="1359.5" y="416.812">check()</text><!--MD5=[db6d18d8099558415abc41d00477ab92]
class Admin--><rect codeLine="94" fill="#FEFECE" filter="url(#f1hwc98zetexko)" height="52.7734" id="Admin" style="stroke:#A80036;stroke-width:1.5;" width="78" x="2125" y="80.5"/><text fill="#000000" font-family="sans-serif" font-size="12" lengthAdjust="spacing" textLength="37" x="2128" y="96.6387">Admin</text><rect fill="#FFFFFF" height="15.9688" style="stroke:#000000;stroke-width:1.0;stroke-dasharray:2.0,2.0;" width="33" x="2173" y="77.5"/><text fill="#000000" font-family="sans-serif" font-size="12" font-style="italic" lengthAdjust="spacing" textLength="31" x="2174" y="89.6387">actor</text><line style="stroke:#A80036;stroke-width:1.5;" x1="2126" x2="2202" y1="104.4688" y2="104.4688"/><line style="stroke:#A80036;stroke-width:1.5;" x1="2126" x2="2202" y1="112.4688" y2="112.4688"/><text fill="#000000" font-family="sans-serif" font-size="11" lengthAdjust="spacing" textLength="29" x="2131" y="126.6792">add()</text><!--MD5=[3fd616f346a44cd59a91eb10b19e157c]
class User--><rect codeLine="80" fill="#FEFECE" filter="url(#f1hwc98zetexko)" height="65.5781" id="User" style="stroke:#A80036;stroke-width:1.5;" width="70" x="62" y="74"/><text fill="#000000" font-family="sans-serif" font-size="12" lengthAdjust="spacing" textLength="29" x="65" y="90.1387">User</text><rect fill="#FFFFFF" height="15.9688" style="stroke:#000000;stroke-width:1.0;stroke-dasharray:2.0,2.0;" width="33" x="102" y="71"/><text fill="#000000" font-family="sans-serif" font-size="12" font-style="italic" lengthAdjust="spacing" textLength="31" x="103" y="83.1387">actor</text><line style="stroke:#A80036;stroke-width:1.5;" x1="63" x2="131" y1="97.9688" y2="97.9688"/><line style="stroke:#A80036;stroke-width:1.5;" x1="63" x2="131" y1="105.9688" y2="105.9688"/><text fill="#000000" font-family="sans-serif" font-size="11" lengthAdjust="spacing" textLength="38" x="68" y="120.1792">reset()</text><text fill="#000000" font-family="sans-serif" font-size="11" lengthAdjust="spacing" textLength="35" x="68" y="132.9839">login()</text><!--MD5=[c6c62f837dd68de44bbb9e5ed88706fc]
class REGULARLY--><rect codeLine="18" fill="#FEFECE" filter="url(#f1hwc98zetexko)" height="52.7734" id="REGULARLY" style="stroke:#A80036;stroke-width:1.5;" width="110" x="167" y="80.5"/><text fill="#000000" font-family="sans-serif" font-size="12" lengthAdjust="spacing" textLength="66" x="189" y="96.6387">REGULARLY</text><line style="stroke:#A80036;stroke-width:1.5;" x1="168" x2="276" y1="104.4688" y2="104.4688"/><text fill="#000000" font-family="sans-serif" font-size="11" lengthAdjust="spacing" textLength="98" x="173" y="118.6792">attendancesheet</text><line style="stroke:#A80036;stroke-width:1.5;" x1="168" x2="276" y1="125.2734" y2="125.2734"/><!--MD5=[ae52e6d636807a0f3b0cdd781d4b6158]
class IMMEDIATELYCHECKEACHSITE--><rect codeLine="21" fill="#FEFECE" filter="url(#f1hwc98zetexko)" height="52.7734" id="IMMEDIATELYCHECKEACHSITE" style="stroke:#A80036;stroke-width:1.5;" width="180" x="7" y="325.5"/><text fill="#000000" font-family="sans-serif" font-size="12" lengthAdjust="spacing" textLength="174" x="10" y="341.6387">IMMEDIATELYCHECKEACHSITE</text><line style="stroke:#A80036;stroke-width:1.5;" x1="8" x2="186" y1="349.4688" y2="349.4688"/><text fill="#000000" font-family="sans-serif" font-size="11" lengthAdjust="spacing" textLength="98" x="13" y="363.6792">attendancesheet</text><line style="stroke:#A80036;stroke-width:1.5;" x1="8" x2="186" y1="370.2734" y2="370.2734"/><!--MD5=[99c2b22631e5dbb56ad6df3a963a21e2]
class Girl--><rect codeLine="24" fill="#FEFECE" filter="url(#f1hwc98zetexko)" height="65.5781" id="Girl" style="stroke:#A80036;stroke-width:1.5;" width="73" x="2251.5" y="74"/><text fill="#000000" font-family="sans-serif" font-size="12" lengthAdjust="spacing" textLength="20" x="2278" y="90.1387">Girl</text><line style="stroke:#A80036;stroke-width:1.5;" x1="2252.5" x2="2323.5" y1="97.9688" y2="97.9688"/><text fill="#000000" font-family="sans-serif" font-size="11" lengthAdjust="spacing" textLength="61" x="2257.5" y="112.1792">paperWork</text><line style="stroke:#A80036;stroke-width:1.5;" x1="2252.5" x2="2323.5" y1="118.7734" y2="118.7734"/><text fill="#000000" font-family="sans-serif" font-size="11" lengthAdjust="spacing" textLength="30" x="2257.5" y="132.9839">turn()</text><!--MD5=[fd8f06804651a767af6d5ee4693cdfe7]
class Coach--><rect codeLine="28" fill="#FEFECE" filter="url(#f1hwc98zetexko)" height="78.3828" id="Coach" style="stroke:#A80036;stroke-width:1.5;" width="64" x="1158" y="313"/><text fill="#000000" font-family="sans-serif" font-size="12" lengthAdjust="spacing" textLength="37" x="1171.5" y="329.1387">Coach</text><line style="stroke:#A80036;stroke-width:1.5;" x1="1159" x2="1221" y1="336.9688" y2="336.9688"/><line style="stroke:#A80036;stroke-width:1.5;" x1="1159" x2="1221" y1="344.9688" y2="344.9688"/><text fill="#000000" font-family="sans-serif" font-size="11" lengthAdjust="spacing" textLength="33" x="1164" y="359.1792">take()</text><text fill="#000000" font-family="sans-serif" font-size="11" lengthAdjust="spacing" textLength="37" x="1164" y="371.9839">know()</text><text fill="#000000" font-family="sans-serif" font-size="11" lengthAdjust="spacing" textLength="52" x="1164" y="384.7886">conduct()</text><!--MD5=[e7c98ac7ba8d7cf0aa11a2d3b0329a02]
class Attendance--><rect codeLine="33" fill="#FEFECE" filter="url(#f1hwc98zetexko)" height="39.9688" id="Attendance" style="stroke:#A80036;stroke-width:1.5;" width="74" x="1078" y="500"/><text fill="#000000" font-family="sans-serif" font-size="12" lengthAdjust="spacing" textLength="68" x="1081" y="516.1387">Attendance</text><line style="stroke:#A80036;stroke-width:1.5;" x1="1079" x2="1151" y1="523.9688" y2="523.9688"/><line style="stroke:#A80036;stroke-width:1.5;" x1="1079" x2="1151" y1="531.9688" y2="531.9688"/><!--MD5=[81887af3f86a51c89c8f7f4b9e0ef0fd]
class GIRLS--><rect codeLine="38" fill="#FEFECE" filter="url(#f1hwc98zetexko)" height="39.9688" id="GIRLS" style="stroke:#A80036;stroke-width:1.5;" width="39" x="222.5" y="332"/><text fill="#000000" font-family="sans-serif" font-size="12" lengthAdjust="spacing" textLength="33" x="225.5" y="348.1387">GIRLS</text><line style="stroke:#A80036;stroke-width:1.5;" x1="223.5" x2="260.5" y1="355.9688" y2="355.9688"/><line style="stroke:#A80036;stroke-width:1.5;" x1="223.5" x2="260.5" y1="363.9688" y2="363.9688"/><!--MD5=[d38494804542e8561a91592fe12d588b]
class ROSTERREMOTELY--><rect codeLine="40" fill="#FEFECE" filter="url(#f1hwc98zetexko)" height="39.9688" id="ROSTERREMOTELY" style="stroke:#A80036;stroke-width:1.5;" width="113" x="296.5" y="332"/><text fill="#000000" font-family="sans-serif" font-size="12" lengthAdjust="spacing" textLength="107" x="299.5" y="348.1387">ROSTERREMOTELY</text><line style="stroke:#A80036;stroke-width:1.5;" x1="297.5" x2="408.5" y1="355.9688" y2="355.9688"/><line style="stroke:#A80036;stroke-width:1.5;" x1="297.5" x2="408.5" y1="363.9688" y2="363.9688"/><!--MD5=[f87c8c4c2fa67e198cdedc778903b20d]
class Copyliabilitywaiverform--><rect codeLine="60" fill="#FEFECE" filter="url(#f1hwc98zetexko)" height="39.9688" id="Copyliabilitywaiverform" style="stroke:#A80036;stroke-width:1.5;" width="146" x="675" y="500"/><text fill="#000000" font-family="sans-serif" font-size="12" lengthAdjust="spacing" textLength="140" x="678" y="516.1387">Copyliabilitywaiverform</text><line style="stroke:#A80036;stroke-width:1.5;" x1="676" x2="820" y1="523.9688" y2="523.9688"/><line style="stroke:#A80036;stroke-width:1.5;" x1="676" x2="820" y1="531.9688" y2="531.9688"/><!--MD5=[47c54596e07e1c9b69023431b1273db8]
class TeamRoster--><rect codeLine="62" fill="#FEFECE" filter="url(#f1hwc98zetexko)" height="39.9688" id="TeamRoster" style="stroke:#A80036;stroke-width:1.5;" width="78" x="1488" y="332"/><text fill="#000000" font-family="sans-serif" font-size="12" lengthAdjust="spacing" textLength="72" x="1491" y="348.1387">TeamRoster</text><line style="stroke:#A80036;stroke-width:1.5;" x1="1489" x2="1565" y1="355.9688" y2="355.9688"/><line style="stroke:#A80036;stroke-width:1.5;" x1="1489" x2="1565" y1="363.9688" y2="363.9688"/><!--MD5=[798c4585c52cd82dd34b9467714c049e]
class PaperWork--><rect codeLine="70" fill="#FEFECE" filter="url(#f1hwc98zetexko)" height="39.9688" id="PaperWork" style="stroke:#A80036;stroke-width:1.5;" width="72" x="2252" y="332"/><text fill="#000000" font-family="sans-serif" font-size="12" lengthAdjust="spacing" textLength="66" x="2255" y="348.1387">PaperWork</text><line style="stroke:#A80036;stroke-width:1.5;" x1="2253" x2="2323" y1="355.9688" y2="355.9688"/><line style="stroke:#A80036;stroke-width:1.5;" x1="2253" x2="2323" y1="363.9688" y2="363.9688"/><!--MD5=[41e1c6cf192918703501b24b2053926c]
class Class--><rect codeLine="84" fill="#FEFECE" filter="url(#f1hwc98zetexko)" height="39.9688" id="Class" style="stroke:#A80036;stroke-width:1.5;" width="38" x="1270" y="500"/><text fill="#000000" font-family="sans-serif" font-size="12" lengthAdjust="spacing" textLength="32" x="1273" y="516.1387">Class</text><line style="stroke:#A80036;stroke-width:1.5;" x1="1271" x2="1307" y1="523.9688" y2="523.9688"/><line style="stroke:#A80036;stroke-width:1.5;" x1="1271" x2="1307" y1="531.9688" y2="531.9688"/><!--MD5=[55eedd8d867804194e1667e59d48a80b]
class OTHERCOACHES--><rect codeLine="86" fill="#FEFECE" filter="url(#f1hwc98zetexko)" height="39.9688" id="OTHERCOACHES" style="stroke:#A80036;stroke-width:1.5;" width="104" x="445" y="332"/><text fill="#000000" font-family="sans-serif" font-size="12" lengthAdjust="spacing" textLength="98" x="448" y="348.1387">OTHERCOACHES</text><line style="stroke:#A80036;stroke-width:1.5;" x1="446" x2="548" y1="355.9688" y2="355.9688"/><line style="stroke:#A80036;stroke-width:1.5;" x1="446" x2="548" y1="363.9688" y2="363.9688"/><!--MD5=[b2d53747d18a2a353bd50766c093d44e]
class INREALTIME--><rect codeLine="88" fill="#FEFECE" filter="url(#f1hwc98zetexko)" height="39.9688" id="INREALTIME" style="stroke:#A80036;stroke-width:1.5;" width="72" x="584" y="332"/><text fill="#000000" font-family="sans-serif" font-size="12" lengthAdjust="spacing" textLength="66" x="587" y="348.1387">INREALTIME</text><line style="stroke:#A80036;stroke-width:1.5;" x1="585" x2="655" y1="355.9688" y2="355.9688"/><line style="stroke:#A80036;stroke-width:1.5;" x1="585" x2="655" y1="363.9688" y2="363.9688"/><!--MD5=[66fe215d974d4d5c7ca351647c5901aa]
class Up--><rect codeLine="90" fill="#FEFECE" filter="url(#f1hwc98zetexko)" height="39.9688" id="Up" style="stroke:#A80036;stroke-width:1.5;" width="23" x="1601.5" y="332"/><text fill="#000000" font-family="sans-serif" font-size="12" lengthAdjust="spacing" textLength="17" x="1604.5" y="348.1387">Up</text><line style="stroke:#A80036;stroke-width:1.5;" x1="1602.5" x2="1623.5" y1="355.9688" y2="355.9688"/><line style="stroke:#A80036;stroke-width:1.5;" x1="1602.5" x2="1623.5" y1="363.9688" y2="363.9688"/><!--MD5=[0b4e4b4980470ea387cc45de9bd14b5b]
class Application--><rect codeLine="92" fill="#FEFECE" filter="url(#f1hwc98zetexko)" height="39.9688" id="Application" style="stroke:#A80036;stroke-width:1.5;" width="72" x="1372" y="500"/><text fill="#000000" font-family="sans-serif" font-size="12" lengthAdjust="spacing" textLength="66" x="1375" y="516.1387">Application</text><line style="stroke:#A80036;stroke-width:1.5;" x1="1373" x2="1443" y1="523.9688" y2="523.9688"/><line style="stroke:#A80036;stroke-width:1.5;" x1="1373" x2="1443" y1="531.9688" y2="531.9688"/><!--MD5=[3b94e41ff6a7382b1a20f9610f71b84a]
class EditProgramStaff--><rect codeLine="97" fill="#FEFECE" filter="url(#f1hwc98zetexko)" height="39.9688" id="EditProgramStaff" style="stroke:#A80036;stroke-width:1.5;" width="105" x="2111.5" y="332"/><text fill="#000000" font-family="sans-serif" font-size="12" lengthAdjust="spacing" textLength="99" x="2114.5" y="348.1387">EditProgramStaff</text><line style="stroke:#A80036;stroke-width:1.5;" x1="2112.5" x2="2215.5" y1="355.9688" y2="355.9688"/><line style="stroke:#A80036;stroke-width:1.5;" x1="2112.5" x2="2215.5" y1="363.9688" y2="363.9688"/><!--MD5=[5d164e213286f7d45cd576f6764a2381]
class AttendanceData--><rect codeLine="99" fill="#FEFECE" filter="url(#f1hwc98zetexko)" height="39.9688" id="AttendanceData" style="stroke:#A80036;stroke-width:1.5;" width="101" x="856.5" y="500"/><text fill="#000000" font-family="sans-serif" font-size="12" lengthAdjust="spacing" textLength="95" x="859.5" y="516.1387">AttendanceData</text><line style="stroke:#A80036;stroke-width:1.5;" x1="857.5" x2="956.5" y1="523.9688" y2="523.9688"/><line style="stroke:#A80036;stroke-width:1.5;" x1="857.5" x2="956.5" y1="531.9688" y2="531.9688"/><!--MD5=[c2c83fd2e3804b2fd4f5cb2480ec7217]
class GOTRLASTAFF--><rect codeLine="101" fill="#FEFECE" filter="url(#f1hwc98zetexko)" height="52.7734" id="GOTRLASTAFF" style="stroke:#A80036;stroke-width:1.5;" width="90" x="2488" y="80.5"/><text fill="#000000" font-family="sans-serif" font-size="12" lengthAdjust="spacing" textLength="84" x="2491" y="96.6387">GOTRLASTAFF</text><line style="stroke:#A80036;stroke-width:1.5;" x1="2489" x2="2577" y1="104.4688" y2="104.4688"/><line style="stroke:#A80036;stroke-width:1.5;" x1="2489" x2="2577" y1="112.4688" y2="112.4688"/><text fill="#000000" font-family="sans-serif" font-size="11" lengthAdjust="spacing" textLength="51" x="2494" y="126.6792">monitor()</text><!--MD5=[47ab3bbcc2249d76656428e4be6a5ff5]
class GirlData--><rect codeLine="104" fill="#FEFECE" filter="url(#f1hwc98zetexko)" height="39.9688" id="GirlData" style="stroke:#A80036;stroke-width:1.5;" width="53" x="1659.5" y="332"/><text fill="#000000" font-family="sans-serif" font-size="12" lengthAdjust="spacing" textLength="47" x="1662.5" y="348.1387">GirlData</text><line style="stroke:#A80036;stroke-width:1.5;" x1="1660.5" x2="1711.5" y1="355.9688" y2="355.9688"/><line style="stroke:#A80036;stroke-width:1.5;" x1="1660.5" x2="1711.5" y1="363.9688" y2="363.9688"/><!--MD5=[60c9ed31c535bee25c55ce21b5b01399]
class Data--><rect codeLine="106" fill="#FEFECE" filter="url(#f1hwc98zetexko)" height="39.9688" id="Data" style="stroke:#A80036;stroke-width:1.5;" width="33" x="992.5" y="500"/><text fill="#000000" font-family="sans-serif" font-size="12" lengthAdjust="spacing" textLength="27" x="995.5" y="516.1387">Data</text><line style="stroke:#A80036;stroke-width:1.5;" x1="993.5" x2="1024.5" y1="523.9688" y2="523.9688"/><line style="stroke:#A80036;stroke-width:1.5;" x1="993.5" x2="1024.5" y1="531.9688" y2="531.9688"/><!--MD5=[37d9809cb88c3d7038c4b5df64e24c2e]
class Semester--><rect codeLine="108" fill="#FEFECE" filter="url(#f1hwc98zetexko)" height="39.9688" id="Semester" style="stroke:#A80036;stroke-width:1.5;" width="65" x="1479.5" y="500"/><text fill="#000000" font-family="sans-serif" font-size="12" lengthAdjust="spacing" textLength="59" x="1482.5" y="516.1387">Semester</text><line style="stroke:#A80036;stroke-width:1.5;" x1="1480.5" x2="1543.5" y1="523.9688" y2="523.9688"/><line style="stroke:#A80036;stroke-width:1.5;" x1="1480.5" x2="1543.5" y1="531.9688" y2="531.9688"/><!--MD5=[60dbf37daf116f134d53c3427bd369e9]
class ProgramQUALITYIMMEDIATELY--><rect codeLine="110" fill="#FEFECE" filter="url(#f1hwc98zetexko)" height="39.9688" id="ProgramQUALITYIMMEDIATELY" style="stroke:#A80036;stroke-width:1.5;" width="183" x="2359.5" y="332"/><text fill="#000000" font-family="sans-serif" font-size="12" lengthAdjust="spacing" textLength="177" x="2362.5" y="348.1387">ProgramQUALITYIMMEDIATELY</text><line style="stroke:#A80036;stroke-width:1.5;" x1="2360.5" x2="2541.5" y1="355.9688" y2="355.9688"/><line style="stroke:#A80036;stroke-width:1.5;" x1="2360.5" x2="2541.5" y1="363.9688" y2="363.9688"/><!--MD5=[16014bfbaa2d73519967486fe4647cda]
class Attendancesheet--><rect codeLine="112" fill="#FEFECE" filter="url(#f1hwc98zetexko)" height="39.9688" id="Attendancesheet" style="stroke:#A80036;stroke-width:1.5;" width="108" x="1748" y="332"/><text fill="#000000" font-family="sans-serif" font-size="12" lengthAdjust="spacing" textLength="102" x="1751" y="348.1387">Attendancesheet</text><line style="stroke:#A80036;stroke-width:1.5;" x1="1749" x2="1855" y1="355.9688" y2="355.9688"/><line style="stroke:#A80036;stroke-width:1.5;" x1="1749" x2="1855" y1="363.9688" y2="363.9688"/><!--MD5=[9ef9b0995778fc9c39f4f880823807cb]
class EFFICIENTLY--><rect codeLine="114" fill="#FEFECE" filter="url(#f1hwc98zetexko)" height="39.9688" id="EFFICIENTLY" style="stroke:#A80036;stroke-width:1.5;" width="76" x="2578" y="332"/><text fill="#000000" font-family="sans-serif" font-size="12" lengthAdjust="spacing" textLength="70" x="2581" y="348.1387">EFFICIENTLY</text><line style="stroke:#A80036;stroke-width:1.5;" x1="2579" x2="2653" y1="355.9688" y2="355.9688"/><line style="stroke:#A80036;stroke-width:1.5;" x1="2579" x2="2653" y1="363.9688" y2="363.9688"/><!--MD5=[57d9811b58441422c709bb17bd2296bf]
class SUPPORT--><rect codeLine="116" fill="#FEFECE" filter="url(#f1hwc98zetexko)" height="39.9688" id="SUPPORT" style="stroke:#A80036;stroke-width:1.5;" width="59" x="1891.5" y="332"/><text fill="#000000" font-family="sans-serif" font-size="12" lengthAdjust="spacing" textLength="53" x="1894.5" y="348.1387">SUPPORT</text><line style="stroke:#A80036;stroke-width:1.5;" x1="1892.5" x2="1949.5" y1="355.9688" y2="355.9688"/><line style="stroke:#A80036;stroke-width:1.5;" x1="1892.5" x2="1949.5" y1="363.9688" y2="363.9688"/><!--MD5=[dacda350bad8e5445e265e2dca5bb0eb]
class ProgramWeek--><rect codeLine="118" fill="#FEFECE" filter="url(#f1hwc98zetexko)" height="39.9688" id="ProgramWeek" style="stroke:#A80036;stroke-width:1.5;" width="91" x="1985.5" y="332"/><text fill="#000000" font-family="sans-serif" font-size="12" lengthAdjust="spacing" textLength="85" x="1988.5" y="348.1387">ProgramWeek</text><line style="stroke:#A80036;stroke-width:1.5;" x1="1986.5" x2="2075.5" y1="355.9688" y2="355.9688"/><line style="stroke:#A80036;stroke-width:1.5;" x1="1986.5" x2="2075.5" y1="363.9688" y2="363.9688"/><!--MD5=[dfb0845b8492ffe07b1ce50e003034d7]
class Team--><rect codeLine="120" fill="#FEFECE" filter="url(#f1hwc98zetexko)" height="39.9688" id="Team" style="stroke:#A80036;stroke-width:1.5;" width="39" x="1579.5" y="500"/><text fill="#000000" font-family="sans-serif" font-size="12" lengthAdjust="spacing" textLength="33" x="1582.5" y="516.1387">Team</text><line style="stroke:#A80036;stroke-width:1.5;" x1="1580.5" x2="1617.5" y1="523.9688" y2="523.9688"/><line style="stroke:#A80036;stroke-width:1.5;" x1="1580.5" x2="1617.5" y1="531.9688" y2="531.9688"/><!--MD5=[c680266cf9e454ca06c2d1bb8b683e6b]
class Schedule--><rect codeLine="122" fill="#FEFECE" filter="url(#f1hwc98zetexko)" height="39.9688" id="Schedule" style="stroke:#A80036;stroke-width:1.5;" width="62" x="1654" y="500"/><text fill="#000000" font-family="sans-serif" font-size="12" lengthAdjust="spacing" textLength="56" x="1657" y="516.1387">Schedule</text><line style="stroke:#A80036;stroke-width:1.5;" x1="1655" x2="1715" y1="523.9688" y2="523.9688"/><line style="stroke:#A80036;stroke-width:1.5;" x1="1655" x2="1715" y1="531.9688" y2="531.9688"/><!--MD5=[d949ba87be6f7f49819ccff8b5943a12]
link Staff to Copyliabilitywaiverform--><path codeLine="124" d="M872.699,391.843 C863.485,402.075 853.453,413.037 844,423 C819.818,448.4883 791.249,476.8424 771.6,496.0834 " fill="none" id="Staff-to-Copyliabilitywaiverform" style="stroke:#A80036;stroke-width:1.0;"/><polygon fill="#A80036" points="767.794,499.8065,777.0252,496.3737,771.3687,496.3106,771.4318,490.6541,767.794,499.8065" style="stroke:#A80036;stroke-width:1.0;"/><text fill="#000000" font-family="sans-serif" font-size="13" lengthAdjust="spacing" textLength="32" x="814" y="466.0669">have</text><!--MD5=[f2b7afb59ec8fc39218386017c914544]
link VOLUNTEERCOACH to GIRLS--><path codeLine="125" d="M414.413,133.536 C379.574,165.63 320.261,223.504 279,281 C268.631,295.448 259.293,313.171 252.591,327.169 " fill="none" id="VOLUNTEERCOACH-to-GIRLS" style="stroke:#A80036;stroke-width:1.0;"/><polygon fill="#A80036" points="250.422,331.763,257.8827,325.3336,252.5575,327.242,250.6491,321.9168,250.422,331.763" style="stroke:#A80036;stroke-width:1.0;"/><text fill="#000000" font-family="sans-serif" font-size="13" lengthAdjust="spacing" textLength="37" x="317" y="247.0669">check</text><!--MD5=[08d4e4129dc230b55595333a9eb4ee23]
link GOTRLA to Class--><path codeLine="126" d="M1522.76,123.733 C1463.02,147.553 1358.45,198.898 1310,281 C1269.5,349.622 1277.96,449.2691 1284.7,494.7414 " fill="none" id="GOTRLA-to-Class" style="stroke:#A80036;stroke-width:1.0;"/><polygon fill="#A80036" points="1285.47,499.7525,1288.0582,490.2498,1284.7114,494.8104,1280.1508,491.4636,1285.47,499.7525" style="stroke:#A80036;stroke-width:1.0;"/><text fill="#000000" font-family="sans-serif" font-size="13" lengthAdjust="spacing" textLength="24" x="1311" y="356.5669">add</text><!--MD5=[ff0a00d215dd9a1fcf0d0ea471cde5c4]
link GOTRLA to Attendance--><path codeLine="127" d="M1522.7,107.817 C1423.27,110.146 1183.59,131.703 1088,281 C1044.73,348.58 1082.03,449.5078 1103.03,495.1111 " fill="none" id="GOTRLA-to-Attendance" style="stroke:#A80036;stroke-width:1.0;"/><polygon fill="#A80036" points="1105.25,499.8714,1105.062,490.0243,1103.1324,495.3419,1097.8148,493.4124,1105.25,499.8714" style="stroke:#A80036;stroke-width:1.0;"/><text fill="#000000" font-family="sans-serif" font-size="13" lengthAdjust="spacing" textLength="50" x="1089" y="356.5669">monitor</text><!--MD5=[60b4ed6d21ceb4b2b6873b7636998ad3]
link VOLUNTEERCOACH to ROSTERREMOTELY--><path codeLine="128" d="M433.539,133.546 C416.034,180.809 378.831,281.258 361.82,327.186 " fill="none" id="VOLUNTEERCOACH-to-ROSTERREMOTELY" style="stroke:#A80036;stroke-width:1.0;"/><polygon fill="#A80036" points="360.043,331.984,366.9181,324.9318,361.7784,327.2948,359.4154,322.1552,360.043,331.984" style="stroke:#A80036;stroke-width:1.0;"/><text fill="#000000" font-family="sans-serif" font-size="13" lengthAdjust="spacing" textLength="37" x="397" y="247.0669">check</text><!--MD5=[efcb5f18b35e06699d58e9fe15d70798]
link GOTRLA to Attendancesheet--><path codeLine="129" d="M1611.2,153.706 C1661.43,205.649 1741.43,288.363 1779.9,328.152 " fill="none" id="GOTRLA-to-Attendancesheet" style="stroke:#A80036;stroke-width:1.0;"/><polygon fill="#A80036" points="1783.5,331.866,1780.1265,322.6129,1780.0271,328.2689,1774.3711,328.1696,1783.5,331.866" style="stroke:#A80036;stroke-width:1.0;"/><text fill="#000000" font-family="sans-serif" font-size="13" lengthAdjust="spacing" textLength="23" x="1700" y="247.0669">can</text><!--MD5=[18d6561256c600904b39ce88bb4fc9e9]
link GOTRLA to Up--><path codeLine="130" d="M1585.18,204.04 C1593.6,248.5 1602.91,297.723 1608.35,326.423 " fill="none" id="GOTRLA-to-Up" style="stroke:#A80036;stroke-width:1.0;"/><polygon fill="#A80036" points="1609.32,331.538,1611.5767,321.9512,1608.3903,326.6252,1603.7163,323.4387,1609.32,331.538" style="stroke:#A80036;stroke-width:1.0;"/><text fill="#000000" font-family="sans-serif" font-size="13" lengthAdjust="spacing" textLength="32" x="1594" y="247.0669">have</text><!--MD5=[32ae973d918af5b28ed21eff132389a0]
link GOTRLASTAFF to EFFICIENTLY--><path codeLine="131" d="M2541.73,133.546 C2557.87,180.809 2592.18,281.258 2607.87,327.186 " fill="none" id="GOTRLASTAFF-to-EFFICIENTLY" style="stroke:#A80036;stroke-width:1.0;"/><polygon fill="#A80036" points="2609.5,331.984,2610.3751,322.1741,2607.8833,327.2526,2602.8048,324.7608,2609.5,331.984" style="stroke:#A80036;stroke-width:1.0;"/><text fill="#000000" font-family="sans-serif" font-size="13" lengthAdjust="spacing" textLength="50" x="2581" y="247.0669">monitor</text><!--MD5=[7dbef58d0dcb40bb77533eee7176d7da]
link Volunteer to Application--><path codeLine="132" d="M1405.12,423.399 C1405.89,448.9229 1406.71,476.0745 1407.27,494.894 " fill="none" id="Volunteer-to-Application" style="stroke:#A80036;stroke-width:1.0;"/><polygon fill="#A80036" points="1407.43,499.9729,1411.157,490.8565,1407.2794,494.9752,1403.1607,491.0975,1407.43,499.9729" style="stroke:#A80036;stroke-width:1.0;"/><text fill="#000000" font-family="sans-serif" font-size="13" lengthAdjust="spacing" textLength="30" x="1408" y="466.0669">login</text><!--MD5=[fc7407f45178b1fceffc1c33ce900eeb]
link VolunteerCoach to Copyliabilitywaiverform--><path codeLine="133" d="M756.879,385.006 C754.763,416.936 751.558,465.3045 749.633,494.3592 " fill="none" id="VolunteerCoach-to-Copyliabilitywaiverform" style="stroke:#A80036;stroke-width:1.0;"/><polygon fill="#A80036" points="749.289,499.5512,753.8754,490.8354,749.6197,494.5621,745.8929,490.3064,749.289,499.5512" style="stroke:#A80036;stroke-width:1.0;"/><text fill="#000000" font-family="sans-serif" font-size="13" lengthAdjust="spacing" textLength="32" x="754" y="466.0669">have</text><!--MD5=[38af996a4355728197d100c61dda2877]
link GOTRLA to SUPPORT--><path codeLine="134" d="M1611.02,125.279 C1674.3,151.697 1792.26,206.963 1873,281 C1887.47,294.268 1899.88,312.683 1908.45,327.295 " fill="none" id="GOTRLA-to-SUPPORT" style="stroke:#A80036;stroke-width:1.0;"/><polygon fill="#A80036" points="1910.99,331.698,1909.9599,321.9032,1908.4925,327.3664,1903.0293,325.8991,1910.99,331.698" style="stroke:#A80036;stroke-width:1.0;"/><text fill="#000000" font-family="sans-serif" font-size="13" lengthAdjust="spacing" textLength="31" x="1838" y="247.0669">offer</text><!--MD5=[23b934d095a36a5ed7211807a2af8d94]
link GOTRLA to TeamRoster--><path codeLine="135" d="M1526.29,204.319 C1523.33,214.207 1520.8,224.216 1519,234 C1513.18,265.647 1517.59,302.812 1521.82,326.62 " fill="none" id="GOTRLA-to-TeamRoster" style="stroke:#A80036;stroke-width:1.0;"/><polygon fill="#A80036" points="1522.78,331.784,1525.0798,322.2074,1521.8724,326.8671,1517.2127,323.6596,1522.78,331.784" style="stroke:#A80036;stroke-width:1.0;"/><text fill="#000000" font-family="sans-serif" font-size="13" lengthAdjust="spacing" textLength="49" x="1520" y="247.0669">support</text><!--MD5=[79a0f1b90fcd716bce4a49cbbbf5991a]
link GOTRLA to ProgramWeek--><path codeLine="136" d="M1611.13,119.132 C1689.29,140.46 1854.46,192.95 1968,281 C1985.36,294.463 2001.85,313.078 2013.61,327.727 " fill="none" id="GOTRLA-to-ProgramWeek" style="stroke:#A80036;stroke-width:1.0;"/><polygon fill="#A80036" points="2016.79,331.746,2014.3464,322.2051,2013.6892,327.8236,2008.0706,327.1664,2016.79,331.746" style="stroke:#A80036;stroke-width:1.0;"/><text fill="#000000" font-family="sans-serif" font-size="13" lengthAdjust="spacing" textLength="57" x="1921" y="247.0669">schedule</text><!--MD5=[85f0db422236c8b55ea36c2e006328e0]
link Admin to EditProgramStaff--><path codeLine="137" d="M2164,133.546 C2164,180.714 2164,280.851 2164,326.907 " fill="none" id="Admin-to-EditProgramStaff" style="stroke:#A80036;stroke-width:1.0;"/><polygon fill="#A80036" points="2164,331.984,2168,322.984,2164,326.984,2160,322.984,2164,331.984" style="stroke:#A80036;stroke-width:1.0;"/><text fill="#000000" font-family="sans-serif" font-size="13" lengthAdjust="spacing" textLength="24" x="2165" y="247.0669">add</text><!--MD5=[8ad92e3cb7a5ed3b29db43bcdd44c575]
link Staff to AttendanceData--><path codeLine="138" d="M907,397.922 C907,429.118 907,469.4755 907,494.8068 " fill="none" id="Staff-to-AttendanceData" style="stroke:#A80036;stroke-width:1.0;"/><polygon fill="#A80036" points="907,499.9754,911,490.9754,907,494.9754,903,490.9754,907,499.9754" style="stroke:#A80036;stroke-width:1.0;"/><text fill="#000000" font-family="sans-serif" font-size="13" lengthAdjust="spacing" textLength="50" x="908" y="466.0669">analyze</text><!--MD5=[ccd10f2085dfd0ca39dc8da1fe9a6eb5]
reverse link Girl to PaperWork--><path codeLine="139" d="M2288,153.205 C2288,206.804 2288,293.676 2288,331.908 " fill="none" id="Girl-backto-PaperWork" style="stroke:#A80036;stroke-width:1.0;"/><polygon fill="#FFFFFF" points="2288,140.018,2284,146.018,2288,152.018,2292,146.018,2288,140.018" style="stroke:#A80036;stroke-width:1.0;"/><text fill="#000000" font-family="sans-serif" font-size="13" lengthAdjust="spacing" textLength="26" x="2289" y="247.0669">turn</text><!--MD5=[fb63f97013652b2a39df537aa5a23115]
link GOTRLA to VolunteerCoach--><path codeLine="140" d="M1522.65,112.097 C1407.23,124.136 1090.15,166.081 855,281 C836.036,290.268 816.895,303.311 800.747,315.63 " fill="none" id="GOTRLA-to-VolunteerCoach" style="stroke:#A80036;stroke-width:1.0;"/><polygon fill="#A80036" points="796.708,318.744,806.278,316.4169,800.6679,315.6912,801.3936,310.0811,796.708,318.744" style="stroke:#A80036;stroke-width:1.0;"/><text fill="#000000" font-family="sans-serif" font-size="13" lengthAdjust="spacing" textLength="24" x="966" y="247.0669">add</text><!--MD5=[d6c05c37d1e56965ae193a9016f33c04]
link Coach to Class--><path codeLine="141" d="M1188.77,391.239 C1189.75,415.647 1194.47,446.9217 1210,470 C1223.1,489.4585 1246.79,502.616 1264.82,510.3554 " fill="none" id="Coach-to-Class" style="stroke:#A80036;stroke-width:1.0;"/><polygon fill="#A80036" points="1269.74,512.3953,1262.9572,505.2543,1265.121,510.481,1259.8943,512.6448,1269.74,512.3953" style="stroke:#A80036;stroke-width:1.0;"/><text fill="#000000" font-family="sans-serif" font-size="13" lengthAdjust="spacing" textLength="51" x="1211" y="466.0669">conduct</text><!--MD5=[1229cb4b1eb7263eb5a1003a4be5d7cb]
link GOTRLA to GOTRLA--><path codeLine="142" d="M1611.27,82.134 C1630.02,80.26 1646,88.549 1646,107 C1646,123.721 1632.88,132.096 1616.46,132.125 " fill="none" id="GOTRLA-to-GOTRLA" style="stroke:#A80036;stroke-width:1.0;"/><polygon fill="#A80036" points="1611.27,131.866,1620.0651,136.2984,1616.2641,132.1088,1620.4537,128.3078,1611.27,131.866" style="stroke:#A80036;stroke-width:1.0;"/><text fill="#000000" font-family="sans-serif" font-size="13" lengthAdjust="spacing" textLength="24" x="1652" y="111.5669">add</text><!--MD5=[4b52e9eab37b314553dfc659f26bc950]
reverse link Volunteer to Team--><path codeLine="143" d="M1462.7,416.921 C1465.12,419.017 1467.56,421.051 1470,423 C1490.25,439.171 1498.88,437.98 1520,453 C1541.12,468.0191 1563.66,487.1982 1579.23,501.0065 " fill="none" id="Volunteer-backto-Team" style="stroke:#A80036;stroke-width:1.0;"/><polygon fill="#FFFFFF" points="1452.84,408.005,1454.6029,414.9973,1461.7354,416.0593,1459.9725,409.067,1452.84,408.005" style="stroke:#A80036;stroke-width:1.0;"/><text fill="#000000" font-family="sans-serif" font-size="13" lengthAdjust="spacing" textLength="37" x="1542" y="466.0669">check</text><!--MD5=[afa5c0f07e14ed4df27b42dbad4cd8b1]
link GOTRLA to GirlData--><path codeLine="144" d="M1611.01,187.125 C1619.22,202.552 1627.55,218.69 1635,234 C1650.39,265.621 1666.3,303.004 1676.17,326.851 " fill="none" id="GOTRLA-to-GirlData" style="stroke:#A80036;stroke-width:1.0;"/><polygon fill="#A80036" points="1678.18,331.727,1678.4389,321.8815,1676.2701,327.1061,1671.0456,324.9373,1678.18,331.727" style="stroke:#A80036;stroke-width:1.0;"/><text fill="#000000" font-family="sans-serif" font-size="13" lengthAdjust="spacing" textLength="24" x="1644" y="247.0669">add</text><!--MD5=[c754fb85e28d9712f2a729270138986d]
link GOTRLA to Coach--><path codeLine="145" d="M1522.9,109.486 C1445.72,114.647 1286.8,137.159 1207,234 C1190.31,254.261 1186.05,283.482 1185.97,307.652 " fill="none" id="GOTRLA-to-Coach" style="stroke:#A80036;stroke-width:1.0;"/><polygon fill="#A80036" points="1186.01,312.728,1189.9327,303.694,1185.9671,307.7282,1181.933,303.7626,1186.01,312.728" style="stroke:#A80036;stroke-width:1.0;"/><text fill="#000000" font-family="sans-serif" font-size="13" lengthAdjust="spacing" textLength="57" x="1208" y="247.0669">schedule</text><!--MD5=[56164e484cb35a42e497367a2ef4d287]
link Volunteer to Schedule--><path codeLine="146" d="M1452.79,410.834 C1458.27,415.367 1464.04,419.524 1470,423 C1516.74,450.2684 1538.66,430.776 1588,453 C1613.38,464.4323 1639.31,482.4678 1657.96,496.7982 " fill="none" id="Volunteer-to-Schedule" style="stroke:#A80036;stroke-width:1.0;"/><polygon fill="#A80036" points="1662.07,499.9816,1657.4194,491.2999,1658.1225,496.9129,1652.5095,497.6159,1662.07,499.9816" style="stroke:#A80036;stroke-width:1.0;"/><text fill="#000000" font-family="sans-serif" font-size="13" lengthAdjust="spacing" textLength="44" x="1621" y="466.0669">access</text><!--MD5=[670eecf3ef87aae3e99e13c63e1630f1]
link Staff to Data--><path codeLine="147" d="M934.603,397.922 C953.931,429.379 978.985,470.1516 994.523,495.4395 " fill="none" id="Staff-to-Data" style="stroke:#A80036;stroke-width:1.0;"/><polygon fill="#A80036" points="997.31,499.9754,996.0076,490.213,994.6929,495.715,989.191,494.4004,997.31,499.9754" style="stroke:#A80036;stroke-width:1.0;"/><text fill="#000000" font-family="sans-serif" font-size="13" lengthAdjust="spacing" textLength="42" x="980" y="466.0669">export</text><!--MD5=[5e4d8b42aa6a4b9b75af0296bc6ae723]
reverse link Volunteer to Class--><path codeLine="148" d="M1347.19,434.267 C1330.32,458.8395 1313.3,483.615 1302.07,499.9729 " fill="none" id="Volunteer-backto-Class" style="stroke:#A80036;stroke-width:1.0;"/><polygon fill="#FFFFFF" points="1354.65,423.399,1347.9574,426.0839,1347.8616,433.2943,1354.5543,430.6095,1354.65,423.399" style="stroke:#A80036;stroke-width:1.0;"/><text fill="#000000" font-family="sans-serif" font-size="13" lengthAdjust="spacing" textLength="51" x="1334" y="466.0669">conduct</text><!--MD5=[c5b41850fd1c38cc2b30f128a1981fa4]
link Volunteer to Semester--><path codeLine="149" d="M1449.23,423.399 C1466.13,449.141 1484.12,476.5388 1496.49,495.3747 " fill="none" id="Volunteer-to-Semester" style="stroke:#A80036;stroke-width:1.0;"/><polygon fill="#A80036" points="1499.51,499.9729,1497.905,490.2557,1496.7619,495.7958,1491.2217,494.6527,1499.51,499.9729" style="stroke:#A80036;stroke-width:1.0;"/><text fill="#000000" font-family="sans-serif" font-size="13" lengthAdjust="spacing" textLength="30" x="1481" y="466.0669">login</text><!--MD5=[fb9372d06084abddb3e2e72f9ce49d9e]
link VOLUNTEERCOACH to OTHERCOACHES--><path codeLine="150" d="M448.677,133.546 C459.159,180.714 481.411,280.851 491.646,326.907 " fill="none" id="VOLUNTEERCOACH-to-OTHERCOACHES" style="stroke:#A80036;stroke-width:1.0;"/><polygon fill="#A80036" points="492.774,331.984,494.7273,322.3308,491.6898,327.103,486.9176,324.0655,492.774,331.984" style="stroke:#A80036;stroke-width:1.0;"/><text fill="#000000" font-family="sans-serif" font-size="13" lengthAdjust="spacing" textLength="37" x="475" y="247.0669">check</text><!--MD5=[97a840519167b633488e8025757e1319]
link Coach to Attendance--><path codeLine="151" d="M1164.56,391.154 C1153.34,409.294 1140.75,431.643 1132,453 C1126.5,466.4357 1122.36,482.1554 1119.55,494.8825 " fill="none" id="Coach-to-Attendance" style="stroke:#A80036;stroke-width:1.0;"/><polygon fill="#A80036" points="1118.5,499.7803,1124.2991,491.8197,1119.5489,494.8916,1116.4771,490.1414,1118.5,499.7803" style="stroke:#A80036;stroke-width:1.0;"/><text fill="#000000" font-family="sans-serif" font-size="13" lengthAdjust="spacing" textLength="28" x="1133" y="466.0669">take</text><!--MD5=[d72a2ae980c8a6212ff23fe86743069f]
link VOLUNTEERCOACH to INREALTIME--><path codeLine="152" d="M461.608,133.546 C496.173,181.001 569.793,282.072 603.059,327.741 " fill="none" id="VOLUNTEERCOACH-to-INREALTIME" style="stroke:#A80036;stroke-width:1.0;"/><polygon fill="#A80036" points="606.149,331.984,604.0847,322.3539,603.2058,327.9421,597.6176,327.0631,606.149,331.984" style="stroke:#A80036;stroke-width:1.0;"/><text fill="#000000" font-family="sans-serif" font-size="13" lengthAdjust="spacing" textLength="37" x="544" y="247.0669">check</text><!--MD5=[b7d5f5a35b7f0cdf558cfd475edbaec0]
link GOTRLASTAFF to ProgramQUALITYIMMEDIATELY--><path codeLine="153" d="M2524.38,133.546 C2508.43,180.809 2474.53,281.258 2459.04,327.186 " fill="none" id="GOTRLASTAFF-to-ProgramQUALITYIMMEDIATELY" style="stroke:#A80036;stroke-width:1.0;"/><polygon fill="#A80036" points="2457.42,331.984,2464.0917,324.7391,2459.0213,327.2474,2456.513,322.177,2457.42,331.984" style="stroke:#A80036;stroke-width:1.0;"/><text fill="#000000" font-family="sans-serif" font-size="13" lengthAdjust="spacing" textLength="50" x="2491" y="247.0669">monitor</text><!--MD5=[193d63e338f4baba97c336743ea8f930]
link User to REGULARLY--><!--MD5=[e100e153246a953eeeddf14ff6b06d84]
link User to IMMEDIATELYCHECKEACHSITE--><!--MD5=[2e4372334a313a9beae99f5ad6eb3e0f]
@startuml
hide circle
class VOLUNTEERCOACH<actor> {
}
class GOTRLA<actor> {
}
class VolunteerCoach<actor> {
}
class Staff<actor> {
}
class Volunteer<actor> {
	team
	classroster
}
class Admin<actor> {
}
class User<actor> {
}
class REGULARLY {
	attendancesheet
}
class IMMEDIATELYCHECKEACHSITE {
	attendancesheet
}
class Girl {
	paperWork
	turn()
}
class Coach {
	take()
	know()
	conduct()
}
class Attendance {
}
class VOLUNTEERCOACH {
	check()
}
class GIRLS {
}
class ROSTERREMOTELY {
}
class GOTRLA {
	have()
	monitor()
	add()
	edit()
	support()
	access()
	offer()
	update()
	schedule()
	can()
	delete()
	login()
}
class VolunteerCoach {
	identify()
	have()
}
class Copyliabilitywaiverform {
}
class TeamRoster {
}
class Staff {
	export()
	analyze()
	have()
	monitor()
}
class PaperWork {
}
class Volunteer {
	view()
	access()
	login()
	conduct()
	know()
	check()
}
class User {
	reset()
	login()
}
class Class {
}
class OTHERCOACHES {
}
class INREALTIME {
}
class Up {
}
class Application {
}
class Admin {
	add()
}
class EditProgramStaff {
}
class AttendanceData {
}
class GOTRLASTAFF {
	monitor()
}
class GirlData {
}
class Data {
}
class Semester {
}
class ProgramQUALITYIMMEDIATELY {
}
class Attendancesheet {
}
class EFFICIENTLY {
}
class SUPPORT {
}
class ProgramWeek {
}
class Team {
}
class Schedule {
}
Staff - -> Copyliabilitywaiverform : have
VOLUNTEERCOACH - -> GIRLS : check
GOTRLA - -> Class : add
GOTRLA - -> Attendance : monitor
VOLUNTEERCOACH - -> ROSTERREMOTELY : check
GOTRLA - -> Attendancesheet : can
GOTRLA - -> Up : have
GOTRLASTAFF - -> EFFICIENTLY : monitor
Volunteer - -> Application : login
VolunteerCoach - -> Copyliabilitywaiverform : have
GOTRLA - -> SUPPORT : offer
GOTRLA - -> TeamRoster : support
GOTRLA - -> ProgramWeek : schedule
Admin - -> EditProgramStaff : add
Staff - -> AttendanceData : analyze
Girl o- - PaperWork : turn
GOTRLA - -> VolunteerCoach : add
Coach - -> Class : conduct
GOTRLA - -> GOTRLA : add
Volunteer o- - Team : check
GOTRLA - -> GirlData : add
GOTRLA - -> Coach : schedule
Volunteer - -> Schedule : access
Staff - -> Data : export
Volunteer o- - Class : conduct
Volunteer - -> Semester : login
VOLUNTEERCOACH - -> OTHERCOACHES : check
Coach - -> Attendance : take
VOLUNTEERCOACH - -> INREALTIME : check
GOTRLASTAFF - -> ProgramQUALITYIMMEDIATELY : monitor
@enduml

PlantUML version 1.2021.9beta2(Unknown compile time)
(GPL source distribution)
Java Runtime: Java(TM) SE Runtime Environment
JVM: Java HotSpot(TM) 64-Bit Server VM
Default Encoding: UTF-8
Language: en
Country: US
--></g></svg>