<?xml version="1.0" encoding="UTF-8" standalone="no"?><svg xmlns="http://www.w3.org/2000/svg" xmlns:xlink="http://www.w3.org/1999/xlink" contentScriptType="application/ecmascript" contentStyleType="text/css" height="231px" preserveAspectRatio="none" style="width:1780px;height:231px;background:#FFFFFF;" version="1.1" viewBox="0 0 1780 231" width="1780px" zoomAndPan="magnify"><defs><filter height="300%" id="f71udnbu31d9d" width="300%" x="-1" y="-1"><feGaussianBlur result="blurOut" stdDeviation="2.0"/><feColorMatrix in="blurOut" result="blurOut2" type="matrix" values="0 0 0 0 0 0 0 0 0 0 0 0 0 0 0 0 0 0 .4 0"/><feOffset dx="4.0" dy="4.0" in="blurOut2" result="blurOut3"/><feBlend in="SourceGraphic" in2="blurOut3" mode="normal"/></filter></defs><g><!--MD5=[cd5458322245a0c49df66b41751ab0c0]
class GM--><rect codeLine="35" fill="#FEFECE" filter="url(#f71udnbu31d9d)" height="65.5781" id="GM" style="stroke:#A80036;stroke-width:1.5;" width="60" x="392.0106" y="22.5"/><text fill="#000000" font-family="sans-serif" font-size="12" lengthAdjust="spacing" textLength="19" x="395.0106" y="38.6387">GM</text><rect fill="#FFFFFF" height="15.9688" style="stroke:#000000;stroke-width:1.0;stroke-dasharray:2.0,2.0;" width="33" x="422.0106" y="19.5"/><text fill="#000000" font-family="sans-serif" font-size="12" font-style="italic" lengthAdjust="spacing" textLength="31" x="423.0106" y="31.6387">actor</text><line style="stroke:#A80036;stroke-width:1.5;" x1="393.0106" x2="451.0106" y1="46.4688" y2="46.4688"/><line style="stroke:#A80036;stroke-width:1.5;" x1="393.0106" x2="451.0106" y1="54.4688" y2="54.4688"/><text fill="#000000" font-family="sans-serif" font-size="11" lengthAdjust="spacing" textLength="35" x="398.0106" y="68.6792">build()</text><text fill="#000000" font-family="sans-serif" font-size="11" lengthAdjust="spacing" textLength="48" x="398.0106" y="81.4839">extract()</text><!--MD5=[fd8f06804651a767af6d5ee4693cdfe7]
class Coach--><rect codeLine="27" fill="#FEFECE" filter="url(#f71udnbu31d9d)" height="65.5781" id="Coach" style="stroke:#A80036;stroke-width:1.5;" width="78" x="564.0106" y="22.5"/><text fill="#000000" font-family="sans-serif" font-size="12" lengthAdjust="spacing" textLength="37" x="567.0106" y="38.6387">Coach</text><rect fill="#FFFFFF" height="15.9688" style="stroke:#000000;stroke-width:1.0;stroke-dasharray:2.0,2.0;" width="33" x="612.0106" y="19.5"/><text fill="#000000" font-family="sans-serif" font-size="12" font-style="italic" lengthAdjust="spacing" textLength="31" x="613.0106" y="31.6387">actor</text><line style="stroke:#A80036;stroke-width:1.5;" x1="565.0106" x2="641.0106" y1="46.4688" y2="46.4688"/><line style="stroke:#A80036;stroke-width:1.5;" x1="565.0106" x2="641.0106" y1="54.4688" y2="54.4688"/><text fill="#000000" font-family="sans-serif" font-size="11" lengthAdjust="spacing" textLength="35" x="570.0106" y="68.6792">build()</text><text fill="#000000" font-family="sans-serif" font-size="11" lengthAdjust="spacing" textLength="48" x="570.0106" y="81.4839">extract()</text><!--MD5=[de1f8633644ee0aae50c6a7fba314ead]
class SporTechBIContractor--><rect codeLine="54" fill="#FEFECE" filter="url(#f71udnbu31d9d)" height="65.5781" id="SporTechBIContractor" style="stroke:#A80036;stroke-width:1.5;" width="173" x="699.5106" y="22.5"/><text fill="#000000" font-family="sans-serif" font-size="12" lengthAdjust="spacing" textLength="132" x="702.5106" y="38.6387">SporTechBIContractor</text><rect fill="#FFFFFF" height="15.9688" style="stroke:#000000;stroke-width:1.0;stroke-dasharray:2.0,2.0;" width="33" x="842.5106" y="19.5"/><text fill="#000000" font-family="sans-serif" font-size="12" font-style="italic" lengthAdjust="spacing" textLength="31" x="843.5106" y="31.6387">actor</text><line style="stroke:#A80036;stroke-width:1.5;" x1="700.5106" x2="871.5106" y1="46.4688" y2="46.4688"/><line style="stroke:#A80036;stroke-width:1.5;" x1="700.5106" x2="871.5106" y1="54.4688" y2="54.4688"/><text fill="#000000" font-family="sans-serif" font-size="11" lengthAdjust="spacing" textLength="44" x="705.5106" y="68.6792">revise()</text><text fill="#000000" font-family="sans-serif" font-size="11" lengthAdjust="spacing" textLength="48" x="705.5106" y="81.4839">update()</text><!--MD5=[563fd89d482c4c23404165e69bfcbefa]
class Manger--><rect codeLine="14" fill="#FEFECE" filter="url(#f71udnbu31d9d)" height="52.7734" id="Manger" style="stroke:#A80036;stroke-width:1.5;" width="86" x="1189.0156" y="29"/><text fill="#000000" font-family="sans-serif" font-size="12" lengthAdjust="spacing" textLength="45" x="1192.0156" y="45.1387">Manger</text><rect fill="#FFFFFF" height="15.9688" style="stroke:#000000;stroke-width:1.0;stroke-dasharray:2.0,2.0;" width="33" x="1245.0156" y="26"/><text fill="#000000" font-family="sans-serif" font-size="12" font-style="italic" lengthAdjust="spacing" textLength="31" x="1246.0156" y="38.1387">actor</text><line style="stroke:#A80036;stroke-width:1.5;" x1="1190.0156" x2="1274.0156" y1="52.9688" y2="52.9688"/><line style="stroke:#A80036;stroke-width:1.5;" x1="1190.0156" x2="1274.0156" y1="60.9688" y2="60.9688"/><text fill="#000000" font-family="sans-serif" font-size="11" lengthAdjust="spacing" textLength="51" x="1195.0156" y="75.1792">monitor()</text><!--MD5=[2ce0c9fb7f55b1e256ab28a8ea6b25ec]
class Customer--><rect codeLine="19" fill="#FEFECE" filter="url(#f71udnbu31d9d)" height="91.1875" id="Customer" style="stroke:#A80036;stroke-width:1.5;" width="99" x="99.5108" y="10"/><text fill="#000000" font-family="sans-serif" font-size="12" lengthAdjust="spacing" textLength="58" x="102.5108" y="26.1387">Customer</text><rect fill="#FFFFFF" height="15.9688" style="stroke:#000000;stroke-width:1.0;stroke-dasharray:2.0,2.0;" width="33" x="168.5108" y="7"/><text fill="#000000" font-family="sans-serif" font-size="12" font-style="italic" lengthAdjust="spacing" textLength="31" x="169.5108" y="19.1387">actor</text><line style="stroke:#A80036;stroke-width:1.5;" x1="100.5108" x2="197.5108" y1="33.9688" y2="33.9688"/><line style="stroke:#A80036;stroke-width:1.5;" x1="100.5108" x2="197.5108" y1="41.9688" y2="41.9688"/><text fill="#000000" font-family="sans-serif" font-size="11" lengthAdjust="spacing" textLength="44" x="105.5108" y="56.1792">import()</text><text fill="#000000" font-family="sans-serif" font-size="11" lengthAdjust="spacing" textLength="30" x="105.5108" y="68.9839">see()</text><text fill="#000000" font-family="sans-serif" font-size="11" lengthAdjust="spacing" textLength="48" x="105.5108" y="81.7886">update()</text><text fill="#000000" font-family="sans-serif" font-size="11" lengthAdjust="spacing" textLength="29" x="105.5108" y="94.5933">add()</text><!--MD5=[0d6d527315af725114870e25843b9662]
class SoccerCoach--><rect codeLine="39" fill="#FEFECE" filter="url(#f71udnbu31d9d)" height="52.7734" id="SoccerCoach" style="stroke:#A80036;stroke-width:1.5;" width="121" x="1645.5156" y="29"/><text fill="#000000" font-family="sans-serif" font-size="12" lengthAdjust="spacing" textLength="80" x="1648.5156" y="45.1387">SoccerCoach</text><rect fill="#FFFFFF" height="15.9688" style="stroke:#000000;stroke-width:1.0;stroke-dasharray:2.0,2.0;" width="33" x="1736.5156" y="26"/><text fill="#000000" font-family="sans-serif" font-size="12" font-style="italic" lengthAdjust="spacing" textLength="31" x="1737.5156" y="38.1387">actor</text><line style="stroke:#A80036;stroke-width:1.5;" x1="1646.5156" x2="1765.5156" y1="52.9688" y2="52.9688"/><line style="stroke:#A80036;stroke-width:1.5;" x1="1646.5156" x2="1765.5156" y1="60.9688" y2="60.9688"/><text fill="#000000" font-family="sans-serif" font-size="11" lengthAdjust="spacing" textLength="61" x="1651.5156" y="75.1792">configure()</text><!--MD5=[7aa1498dd1bf43de04a568cbe98cf5a1]
class FacebookFeed--><rect codeLine="17" fill="#FEFECE" filter="url(#f71udnbu31d9d)" height="39.9688" id="FacebookFeed" style="stroke:#A80036;stroke-width:1.5;" width="97" x="861.5106" y="178"/><text fill="#000000" font-family="sans-serif" font-size="12" lengthAdjust="spacing" textLength="91" x="864.5106" y="194.1387">FacebookFeed</text><line style="stroke:#A80036;stroke-width:1.5;" x1="862.5106" x2="957.5106" y1="201.9688" y2="201.9688"/><line style="stroke:#A80036;stroke-width:1.5;" x1="862.5106" x2="957.5106" y1="209.9688" y2="209.9688"/><!--MD5=[60c9ed31c535bee25c55ce21b5b01399]
class Data--><rect codeLine="25" fill="#FEFECE" filter="url(#f71udnbu31d9d)" height="39.9688" id="Data" style="stroke:#A80036;stroke-width:1.5;" width="33" x="132.5106" y="178"/><text fill="#000000" font-family="sans-serif" font-size="12" lengthAdjust="spacing" textLength="27" x="135.5106" y="194.1387">Data</text><line style="stroke:#A80036;stroke-width:1.5;" x1="133.5106" x2="164.5106" y1="201.9688" y2="201.9688"/><line style="stroke:#A80036;stroke-width:1.5;" x1="133.5106" x2="164.5106" y1="209.9688" y2="209.9688"/><!--MD5=[6cc3ad14011ab7f07f5dfe79da9fafb1]
class Roster--><rect codeLine="31" fill="#FEFECE" filter="url(#f71udnbu31d9d)" height="39.9688" id="Roster" style="stroke:#A80036;stroke-width:1.5;" width="45" x="593.5106" y="178"/><text fill="#000000" font-family="sans-serif" font-size="12" lengthAdjust="spacing" textLength="39" x="596.5106" y="194.1387">Roster</text><line style="stroke:#A80036;stroke-width:1.5;" x1="594.5106" x2="637.5106" y1="201.9688" y2="201.9688"/><line style="stroke:#A80036;stroke-width:1.5;" x1="594.5106" x2="637.5106" y1="209.9688" y2="209.9688"/><!--MD5=[1ef17d6ced655ecdd6508b315ebc20d4]
class TwitterReaction--><rect codeLine="33" fill="#FEFECE" filter="url(#f71udnbu31d9d)" height="39.9688" id="TwitterReaction" style="stroke:#A80036;stroke-width:1.5;" width="98" x="994.0106" y="178"/><text fill="#000000" font-family="sans-serif" font-size="12" lengthAdjust="spacing" textLength="92" x="997.0106" y="194.1387">TwitterReaction</text><line style="stroke:#A80036;stroke-width:1.5;" x1="995.0106" x2="1091.0106" y1="201.9688" y2="201.9688"/><line style="stroke:#A80036;stroke-width:1.5;" x1="995.0106" x2="1091.0106" y1="209.9688" y2="209.9688"/><!--MD5=[c680266cf9e454ca06c2d1bb8b683e6b]
class Schedule--><rect codeLine="42" fill="#FEFECE" filter="url(#f71udnbu31d9d)" height="39.9688" id="Schedule" style="stroke:#A80036;stroke-width:1.5;" width="62" x="1675.0156" y="178"/><text fill="#000000" font-family="sans-serif" font-size="12" lengthAdjust="spacing" textLength="56" x="1678.0156" y="194.1387">Schedule</text><line style="stroke:#A80036;stroke-width:1.5;" x1="1676.0156" x2="1736.0156" y1="201.9688" y2="201.9688"/><line style="stroke:#A80036;stroke-width:1.5;" x1="1676.0156" x2="1736.0156" y1="209.9688" y2="209.9688"/><!--MD5=[535a1074f0c6ea7225521cfc8d9905c3]
class TwitterFeed--><rect codeLine="44" fill="#FEFECE" filter="url(#f71udnbu31d9d)" height="39.9688" id="TwitterFeed" style="stroke:#A80036;stroke-width:1.5;" width="78" x="1127.0156" y="178"/><text fill="#000000" font-family="sans-serif" font-size="12" lengthAdjust="spacing" textLength="72" x="1130.0156" y="194.1387">TwitterFeed</text><line style="stroke:#A80036;stroke-width:1.5;" x1="1128.0156" x2="1204.0156" y1="201.9688" y2="201.9688"/><line style="stroke:#A80036;stroke-width:1.5;" x1="1128.0156" x2="1204.0156" y1="209.9688" y2="209.9688"/><!--MD5=[4dc03b68a3b919398005b6a0327aa539]
class PlayerValue--><rect codeLine="46" fill="#FEFECE" filter="url(#f71udnbu31d9d)" height="39.9688" id="PlayerValue" style="stroke:#A80036;stroke-width:1.5;" width="75" x="417.5106" y="178"/><text fill="#000000" font-family="sans-serif" font-size="12" lengthAdjust="spacing" textLength="69" x="420.5106" y="194.1387">PlayerValue</text><line style="stroke:#A80036;stroke-width:1.5;" x1="418.5106" x2="491.5106" y1="201.9688" y2="201.9688"/><line style="stroke:#A80036;stroke-width:1.5;" x1="418.5106" x2="491.5106" y1="209.9688" y2="209.9688"/><!--MD5=[64dd13cd00e4d7b08a29e0ebd0301cf9]
class InstagramReaction--><rect codeLine="48" fill="#FEFECE" filter="url(#f71udnbu31d9d)" height="39.9688" id="InstagramReaction" style="stroke:#A80036;stroke-width:1.5;" width="116" x="1240.0156" y="178"/><text fill="#000000" font-family="sans-serif" font-size="12" lengthAdjust="spacing" textLength="110" x="1243.0156" y="194.1387">InstagramReaction</text><line style="stroke:#A80036;stroke-width:1.5;" x1="1241.0156" x2="1355.0156" y1="201.9688" y2="201.9688"/><line style="stroke:#A80036;stroke-width:1.5;" x1="1241.0156" x2="1355.0156" y1="209.9688" y2="209.9688"/><!--MD5=[cce8a709f8437762e697059258a5cdb8]
class InstagramFeed--><rect codeLine="50" fill="#FEFECE" filter="url(#f71udnbu31d9d)" height="39.9688" id="InstagramFeed" style="stroke:#A80036;stroke-width:1.5;" width="96" x="1391.0156" y="178"/><text fill="#000000" font-family="sans-serif" font-size="12" lengthAdjust="spacing" textLength="90" x="1394.0156" y="194.1387">InstagramFeed</text><line style="stroke:#A80036;stroke-width:1.5;" x1="1392.0156" x2="1486.0156" y1="201.9688" y2="201.9688"/><line style="stroke:#A80036;stroke-width:1.5;" x1="1392.0156" x2="1486.0156" y1="209.9688" y2="209.9688"/><!--MD5=[371364a6d7b486039f21f31616b5ee45]
class Change--><rect codeLine="52" fill="#FEFECE" filter="url(#f71udnbu31d9d)" height="39.9688" id="Change" style="stroke:#A80036;stroke-width:1.5;" width="51" x="243.5106" y="178"/><text fill="#000000" font-family="sans-serif" font-size="12" lengthAdjust="spacing" textLength="45" x="246.5106" y="194.1387">Change</text><line style="stroke:#A80036;stroke-width:1.5;" x1="244.5106" x2="293.5106" y1="201.9688" y2="201.9688"/><line style="stroke:#A80036;stroke-width:1.5;" x1="244.5106" x2="293.5106" y1="209.9688" y2="209.9688"/><!--MD5=[8390f10fa151c4895b184cc86cdd56db]
class PlayerData--><rect codeLine="58" fill="#FEFECE" filter="url(#f71udnbu31d9d)" height="39.9688" id="PlayerData" style="stroke:#A80036;stroke-width:1.5;" width="69" x="732.5106" y="178"/><text fill="#000000" font-family="sans-serif" font-size="12" lengthAdjust="spacing" textLength="63" x="735.5106" y="194.1387">PlayerData</text><line style="stroke:#A80036;stroke-width:1.5;" x1="733.5106" x2="800.5106" y1="201.9688" y2="201.9688"/><line style="stroke:#A80036;stroke-width:1.5;" x1="733.5106" x2="800.5106" y1="209.9688" y2="209.9688"/><!--MD5=[528ad5d751d24d29bea6a63aa10e47f5]
class FacebookReaction--><rect codeLine="60" fill="#FEFECE" filter="url(#f71udnbu31d9d)" height="39.9688" id="FacebookReaction" style="stroke:#A80036;stroke-width:1.5;" width="117" x="1522.5156" y="178"/><text fill="#000000" font-family="sans-serif" font-size="12" lengthAdjust="spacing" textLength="111" x="1525.5156" y="194.1387">FacebookReaction</text><line style="stroke:#A80036;stroke-width:1.5;" x1="1523.5156" x2="1638.5156" y1="201.9688" y2="201.9688"/><line style="stroke:#A80036;stroke-width:1.5;" x1="1523.5156" x2="1638.5156" y1="209.9688" y2="209.9688"/><!--MD5=[15b1ee8fdcda5f30b6a480a68ae3e2f5]
link SoccerCoach to Schedule--><path codeLine="62" d="M1706.0156,82.27 C1706.0156,108.008 1706.0156,147.2786 1706.0156,172.5439 " fill="none" id="SoccerCoach-to-Schedule" style="stroke:#A80036;stroke-width:1.0;"/><polygon fill="#A80036" points="1706.0156,177.7128,1710.0156,168.7128,1706.0156,172.7128,1702.0156,168.7128,1706.0156,177.7128" style="stroke:#A80036;stroke-width:1.0;"/><text fill="#000000" font-family="sans-serif" font-size="13" lengthAdjust="spacing" textLength="60" x="1707.0156" y="144.0669">configure</text><!--MD5=[51cbfc093db1cc90746d89e3821beaec]
link Manger to TwitterReaction--><path codeLine="63" d="M1196.4956,82.201 C1176.8356,96.486 1151.9956,114.632 1130.0156,131 C1110.6656,145.4021 1089.0556,161.7892 1072.2256,174.6317 " fill="none" id="Manger-to-TwitterReaction" style="stroke:#A80036;stroke-width:1.0;"/><polygon fill="#A80036" points="1068.0456,177.817,1077.6234,175.5224,1072.0158,174.7777,1072.7605,169.1701,1068.0456,177.817" style="stroke:#A80036;stroke-width:1.0;"/><text fill="#000000" font-family="sans-serif" font-size="13" lengthAdjust="spacing" textLength="50" x="1131.0156" y="144.0669">monitor</text><!--MD5=[02c35b805d50a00c1852e1d3168c6773]
link GM to Roster--><path codeLine="64" d="M444.6586,88.53 C459.5166,107.741 480.3436,131.5539 503.0106,148 C529.3486,167.1095 564.3026,180.8146 588.3236,188.788 " fill="none" id="GM-to-Roster" style="stroke:#A80036;stroke-width:1.0;"/><polygon fill="#A80036" points="593.2766,190.4024,585.9582,183.8115,588.5225,188.8537,583.4802,191.418,593.2766,190.4024" style="stroke:#A80036;stroke-width:1.0;"/><text fill="#000000" font-family="sans-serif" font-size="13" lengthAdjust="spacing" textLength="30" x="504.0106" y="144.0669">build</text><!--MD5=[9b5cac166cdab0bb423bef2a88f8f812]
link Customer to Data--><path codeLine="65" d="M99.1659,71.502 C56.7249,87.009 6,113.749 29.0107,148 C50.9845,180.7077 99.0397,191.5962 127.2176,195.2117 " fill="none" id="Customer-to-Data" style="stroke:#A80036;stroke-width:1.0;"/><polygon fill="#A80036" points="132.2366,195.8057,123.7686,190.7765,127.2712,195.2185,122.8291,198.7211,132.2366,195.8057" style="stroke:#A80036;stroke-width:1.0;"/><text fill="#000000" font-family="sans-serif" font-size="13" lengthAdjust="spacing" textLength="42" x="30.0107" y="144.0669">import</text><!--MD5=[9b5cac166cdab0bb423bef2a88f8f812]
link Customer to Data--><path codeLine="73" d="M118.2091,101.265 C111.6134,116.016 107.9584,132.5899 113.0108,148 C116.285,157.9868 122.4577,167.6171 128.7786,175.6576 " fill="none" id="Customer-to-Data-1" style="stroke:#A80036;stroke-width:1.0;"/><polygon fill="#A80036" points="132.2886,179.9532,129.6928,170.4526,129.1255,176.0809,123.4972,175.5136,132.2886,179.9532" style="stroke:#A80036;stroke-width:1.0;"/><text fill="#000000" font-family="sans-serif" font-size="13" lengthAdjust="spacing" textLength="24" x="114.0108" y="144.0669">add</text><!--MD5=[9b5cac166cdab0bb423bef2a88f8f812]
link Customer to Data--><path codeLine="76" d="M149.0106,101.341 C149.0106,125.0796 149.0106,153.2914 149.0106,172.8996 " fill="none" id="Customer-to-Data-2" style="stroke:#A80036;stroke-width:1.0;"/><polygon fill="#A80036" points="149.0106,177.9408,153.0106,168.9408,149.0106,172.9408,145.0106,168.9408,149.0106,177.9408" style="stroke:#A80036;stroke-width:1.0;"/><text fill="#000000" font-family="sans-serif" font-size="13" lengthAdjust="spacing" textLength="45" x="150.0106" y="144.0669">update</text><!--MD5=[7b7dc2bca7388d368c5fa1b2a0c39bbe]
link SporTechBIContractor to PlayerData--><path codeLine="66" d="M760.1516,88.675 C751.6836,101.144 743.3426,116.015 739.0106,131 C734.8236,145.4832 740.8676,161.0363 748.3976,173.4045 " fill="none" id="SporTechBIContractor-to-PlayerData" style="stroke:#A80036;stroke-width:1.0;"/><polygon fill="#A80036" points="751.2226,177.8092,749.7302,168.0741,748.523,173.6006,742.9965,172.3934,751.2226,177.8092" style="stroke:#A80036;stroke-width:1.0;"/><text fill="#000000" font-family="sans-serif" font-size="13" lengthAdjust="spacing" textLength="45" x="740.0106" y="144.0669">update</text><!--MD5=[7b7dc2bca7388d368c5fa1b2a0c39bbe]
link SporTechBIContractor to PlayerData--><path codeLine="78" d="M791.4796,88.619 C793.4846,106.331 794.3376,128.6008 790.0106,148 C788.1136,156.5072 784.5716,165.2819 780.8266,173.0137 " fill="none" id="SporTechBIContractor-to-PlayerData-1" style="stroke:#A80036;stroke-width:1.0;"/><polygon fill="#A80036" points="778.4806,177.6813,786.096,171.4359,780.7258,173.2137,778.9479,167.8435,778.4806,177.6813" style="stroke:#A80036;stroke-width:1.0;"/><text fill="#000000" font-family="sans-serif" font-size="13" lengthAdjust="spacing" textLength="39" x="794.0106" y="144.0669">revise</text><!--MD5=[f6a71835551c756e0a6beac3992d4664]
link Customer to Change--><path codeLine="67" d="M187.3096,101.341 C207.8426,125.3827 232.2956,154.0124 249.0646,173.6463 " fill="none" id="Customer-to-Change" style="stroke:#A80036;stroke-width:1.0;"/><polygon fill="#A80036" points="252.7326,177.9408,249.9284,168.4996,249.485,174.139,243.8456,173.6957,252.7326,177.9408" style="stroke:#A80036;stroke-width:1.0;"/><text fill="#000000" font-family="sans-serif" font-size="13" lengthAdjust="spacing" textLength="23" x="228.0106" y="144.0669">see</text><!--MD5=[cb4afa031cb4f94c62b890708ae3876c]
link Coach to PlayerValue--><path codeLine="68" d="M587.0976,88.519 C576.5166,107.489 561.2316,131.0515 543.0106,148 C529.7826,160.3042 512.8996,170.6576 497.4656,178.6309 " fill="none" id="Coach-to-PlayerValue" style="stroke:#A80036;stroke-width:1.0;"/><polygon fill="#A80036" points="492.7276,181.0285,502.5639,180.5321,497.1885,178.7701,498.9505,173.3947,492.7276,181.0285" style="stroke:#A80036;stroke-width:1.0;"/><text fill="#000000" font-family="sans-serif" font-size="13" lengthAdjust="spacing" textLength="46" x="559.0106" y="144.0669">extract</text><!--MD5=[6ca46f4ebb2499b328e21a10f8f772dc]
link Manger to TwitterFeed--><path codeLine="69" d="M1219.9056,82.27 C1207.7156,108.223 1189.0556,147.9368 1177.2056,173.1752 " fill="none" id="Manger-to-TwitterFeed" style="stroke:#A80036;stroke-width:1.0;"/><polygon fill="#A80036" points="1175.0756,177.7128,1182.5211,171.2658,1177.2004,173.1867,1175.2794,167.8661,1175.0756,177.7128" style="stroke:#A80036;stroke-width:1.0;"/><text fill="#000000" font-family="sans-serif" font-size="13" lengthAdjust="spacing" textLength="50" x="1197.0156" y="144.0669">monitor</text><!--MD5=[9decf6bdca770fd4dd7cd556d99ba558]
link Manger to InstagramFeed--><path codeLine="70" d="M1269.9756,82.27 C1309.1256,108.838 1369.5056,149.8253 1406.5156,174.9434 " fill="none" id="Manger-to-InstagramFeed" style="stroke:#A80036;stroke-width:1.0;"/><polygon fill="#A80036" points="1410.9056,177.9259,1405.7141,169.5564,1406.7715,175.1136,1401.2143,176.171,1410.9056,177.9259" style="stroke:#A80036;stroke-width:1.0;"/><text fill="#000000" font-family="sans-serif" font-size="13" lengthAdjust="spacing" textLength="50" x="1368.0156" y="144.0669">monitor</text><!--MD5=[ca60b3351a3e88dfffc39bcb1b3c0702]
link Manger to FacebookReaction--><path codeLine="71" d="M1275.1956,72.433 C1314.8356,87.193 1375.1156,109.976 1427.0156,131 C1462.7056,145.4625 1502.6756,162.6216 1532.9556,175.8184 " fill="none" id="Manger-to-FacebookReaction" style="stroke:#A80036;stroke-width:1.0;"/><polygon fill="#A80036" points="1537.7256,177.9014,1531.0769,170.6354,1533.143,175.9015,1527.877,177.9676,1537.7256,177.9014" style="stroke:#A80036;stroke-width:1.0;"/><text fill="#000000" font-family="sans-serif" font-size="13" lengthAdjust="spacing" textLength="50" x="1467.0156" y="144.0669">monitor</text><!--MD5=[342f26bd5bda400950e5c98c8c5f6f91]
link Manger to FacebookFeed--><path codeLine="72" d="M1188.8256,73.279 C1151.5656,87.95 1096.4156,110.118 1049.0156,131 C1016.6566,145.2532 980.6066,162.4084 953.3276,175.6559 " fill="none" id="Manger-to-FacebookFeed" style="stroke:#A80036;stroke-width:1.0;"/><polygon fill="#A80036" points="948.6836,177.9144,958.5266,177.5747,953.1799,175.7273,955.0273,170.3806,948.6836,177.9144" style="stroke:#A80036;stroke-width:1.0;"/><text fill="#000000" font-family="sans-serif" font-size="13" lengthAdjust="spacing" textLength="50" x="1050.0156" y="144.0669">monitor</text><!--MD5=[e5e7cade3c47679c99d706bff88eb291]
link GM to Data--><path codeLine="74" d="M391.7416,74.783 C359.5566,93.941 306.9286,124.4659 260.0106,148 C229.5516,163.2783 193.2656,178.8134 170.6776,188.1802 " fill="none" id="GM-to-Data" style="stroke:#A80036;stroke-width:1.0;"/><polygon fill="#A80036" points="165.7966,190.1968,175.642,190.4583,170.418,188.2881,172.5881,183.0641,165.7966,190.1968" style="stroke:#A80036;stroke-width:1.0;"/><text fill="#000000" font-family="sans-serif" font-size="13" lengthAdjust="spacing" textLength="46" x="293.0106" y="144.0669">extract</text><!--MD5=[401967659874aea1a33bf18ae03e981d]
link Coach to Roster--><path codeLine="75" d="M620.2796,88.566 C627.6886,105.879 634.0346,127.7915 631.0106,148 C629.7916,156.1498 627.4906,164.8167 625.0506,172.5597 " fill="none" id="Coach-to-Roster" style="stroke:#A80036;stroke-width:1.0;"/><polygon fill="#A80036" points="623.3506,177.755,629.9515,170.4456,624.9058,173.003,622.3483,167.9573,623.3506,177.755" style="stroke:#A80036;stroke-width:1.0;"/><text fill="#000000" font-family="sans-serif" font-size="13" lengthAdjust="spacing" textLength="30" x="633.0106" y="144.0669">build</text><!--MD5=[e891f222eeb06b60d47e9f38cd0ef2fb]
link GM to PlayerValue--><path codeLine="77" d="M415.6486,88.6 C413.4006,106.507 412.7716,128.9703 419.0106,148 C422.0076,157.1405 427.4326,165.9823 433.1766,173.5799 " fill="none" id="GM-to-PlayerValue" style="stroke:#A80036;stroke-width:1.0;"/><polygon fill="#A80036" points="436.3876,177.6668,433.9724,168.1187,433.2985,173.7352,427.6819,173.0612,436.3876,177.6668" style="stroke:#A80036;stroke-width:1.0;"/><text fill="#000000" font-family="sans-serif" font-size="13" lengthAdjust="spacing" textLength="46" x="420.0106" y="144.0669">extract</text><!--MD5=[6bf03dc42c703cc189bdfba6095b0323]
link Manger to InstagramReaction--><path codeLine="79" d="M1244.1156,82.27 C1256.3056,108.223 1274.9656,147.9368 1286.8156,173.1752 " fill="none" id="Manger-to-InstagramReaction" style="stroke:#A80036;stroke-width:1.0;"/><polygon fill="#A80036" points="1288.9456,177.7128,1288.7298,167.8663,1286.8153,173.1893,1281.4922,171.2748,1288.9456,177.7128" style="stroke:#A80036;stroke-width:1.0;"/><text fill="#000000" font-family="sans-serif" font-size="13" lengthAdjust="spacing" textLength="50" x="1276.0156" y="144.0669">monitor</text><!--MD5=[0f7c766851be67af9dfdd5f036cd1453]
@startuml
hide circle
class GM<actor> {
}
class Coach<actor> {
}
class SporTechBIContractor<actor> {
}
class Manger<actor> {
}
class Customer<actor> {
}
class SoccerCoach<actor> {
}
class Manger {
	monitor()
}
class FacebookFeed {
}
class Customer {
	import()
	see()
	update()
	add()
}
class Data {
}
class Coach {
	build()
	extract()
}
class Roster {
}
class TwitterReaction {
}
class GM {
	build()
	extract()
}
class SoccerCoach {
	configure()
}
class Schedule {
}
class TwitterFeed {
}
class PlayerValue {
}
class InstagramReaction {
}
class InstagramFeed {
}
class Change {
}
class SporTechBIContractor {
	revise()
	update()
}
class PlayerData {
}
class FacebookReaction {
}
SoccerCoach - -> Schedule : configure
Manger - -> TwitterReaction : monitor
GM - -> Roster : build
Customer - -> Data : import
SporTechBIContractor - -> PlayerData : update
Customer - -> Change : see
Coach - -> PlayerValue : extract
Manger - -> TwitterFeed : monitor
Manger - -> InstagramFeed : monitor
Manger - -> FacebookReaction : monitor
Manger - -> FacebookFeed : monitor
Customer - -> Data : add
GM - -> Data : extract
Coach - -> Roster : build
Customer - -> Data : update
GM - -> PlayerValue : extract
SporTechBIContractor - -> PlayerData : revise
Manger - -> InstagramReaction : monitor
@enduml

PlantUML version 1.2021.6beta6(Unknown compile time)
(GPL source distribution)
Java Runtime: Java(TM) SE Runtime Environment
JVM: Java HotSpot(TM) 64-Bit Server VM
Default Encoding: UTF-8
Language: en
Country: US
--></g></svg>