<?xml version="1.0" encoding="UTF-8" standalone="no"?><svg xmlns="http://www.w3.org/2000/svg" xmlns:xlink="http://www.w3.org/1999/xlink" contentScriptType="application/ecmascript" contentStyleType="text/css" height="736px" preserveAspectRatio="none" style="width:1152px;height:736px;background:#FFFFFF;" version="1.1" viewBox="0 0 1152 736" width="1152px" zoomAndPan="magnify"><defs><filter height="300%" id="f11togdfxttlik" width="300%" x="-1" y="-1"><feGaussianBlur result="blurOut" stdDeviation="2.0"/><feColorMatrix in="blurOut" result="blurOut2" type="matrix" values="0 0 0 0 0 0 0 0 0 0 0 0 0 0 0 0 0 0 .4 0"/><feOffset dx="4.0" dy="4.0" in="blurOut2" result="blurOut3"/><feBlend in="SourceGraphic" in2="blurOut3" mode="normal"/></filter></defs><g><!--MD5=[db6d18d8099558415abc41d00477ab92]
class Admin--><rect codeLine="8" fill="#FEFECE" filter="url(#f11togdfxttlik)" height="142.4063" id="Admin" style="stroke:#A80036;stroke-width:1.5;" width="84" x="658.5" y="10"/><text fill="#000000" font-family="sans-serif" font-size="12" lengthAdjust="spacing" textLength="37" x="664.5" y="26.1387">Admin</text><rect fill="#FFFFFF" height="15.9688" style="stroke:#000000;stroke-width:1.0;stroke-dasharray:2.0,2.0;" width="33" x="712.5" y="7"/><text fill="#000000" font-family="sans-serif" font-size="12" font-style="italic" lengthAdjust="spacing" textLength="31" x="713.5" y="19.1387">actor</text><line style="stroke:#A80036;stroke-width:1.5;" x1="659.5" x2="741.5" y1="33.9688" y2="33.9688"/><line style="stroke:#A80036;stroke-width:1.5;" x1="659.5" x2="741.5" y1="41.9688" y2="41.9688"/><text fill="#000000" font-family="sans-serif" font-size="11" lengthAdjust="spacing" textLength="29" x="664.5" y="56.1792">add()</text><text fill="#000000" font-family="sans-serif" font-size="11" lengthAdjust="spacing" textLength="72" x="664.5" y="68.9839">incorporate()</text><text fill="#000000" font-family="sans-serif" font-size="11" lengthAdjust="spacing" textLength="48" x="664.5" y="81.7886">revoke()</text><text fill="#000000" font-family="sans-serif" font-size="11" lengthAdjust="spacing" textLength="44" x="664.5" y="94.5933">assign()</text><text fill="#000000" font-family="sans-serif" font-size="11" lengthAdjust="spacing" textLength="46" x="664.5" y="107.3979">delete()</text><text fill="#000000" font-family="sans-serif" font-size="11" lengthAdjust="spacing" textLength="30" x="664.5" y="120.2026">edit()</text><text fill="#000000" font-family="sans-serif" font-size="11" lengthAdjust="spacing" textLength="30" x="664.5" y="133.0073">see()</text><text fill="#000000" font-family="sans-serif" font-size="11" lengthAdjust="spacing" textLength="51" x="664.5" y="145.812">provide()</text><!--MD5=[3fd616f346a44cd59a91eb10b19e157c]
class User--><rect codeLine="18" fill="#FEFECE" filter="url(#f11togdfxttlik)" height="116.7969" id="User" style="stroke:#A80036;stroke-width:1.5;" width="70" x="299.5" y="346"/><text fill="#000000" font-family="sans-serif" font-size="12" lengthAdjust="spacing" textLength="29" x="302.5" y="362.1387">User</text><rect fill="#FFFFFF" height="15.9688" style="stroke:#000000;stroke-width:1.0;stroke-dasharray:2.0,2.0;" width="33" x="339.5" y="343"/><text fill="#000000" font-family="sans-serif" font-size="12" font-style="italic" lengthAdjust="spacing" textLength="31" x="340.5" y="355.1387">actor</text><line style="stroke:#A80036;stroke-width:1.5;" x1="300.5" x2="368.5" y1="369.9688" y2="369.9688"/><line style="stroke:#A80036;stroke-width:1.5;" x1="300.5" x2="368.5" y1="377.9688" y2="377.9688"/><text fill="#000000" font-family="sans-serif" font-size="11" lengthAdjust="spacing" textLength="29" x="305.5" y="392.1792">add()</text><text fill="#000000" font-family="sans-serif" font-size="11" lengthAdjust="spacing" textLength="43" x="305.5" y="404.9839">select()</text><text fill="#000000" font-family="sans-serif" font-size="11" lengthAdjust="spacing" textLength="37" x="305.5" y="417.7886">have()</text><text fill="#000000" font-family="sans-serif" font-size="11" lengthAdjust="spacing" textLength="30" x="305.5" y="430.5933">turn()</text><text fill="#000000" font-family="sans-serif" font-size="11" lengthAdjust="spacing" textLength="50" x="305.5" y="443.3979">turn_on()</text><text fill="#000000" font-family="sans-serif" font-size="11" lengthAdjust="spacing" textLength="49" x="305.5" y="456.2026">choose()</text><!--MD5=[0276c55ef034c711ad16864ae0c1a09b]
class Id--><rect codeLine="6" fill="#FEFECE" filter="url(#f11togdfxttlik)" height="39.9688" id="Id" style="stroke:#A80036;stroke-width:1.5;" width="17" x="750" y="384.5"/><text fill="#000000" font-family="sans-serif" font-size="12" lengthAdjust="spacing" textLength="11" x="753" y="400.6387">Id</text><line style="stroke:#A80036;stroke-width:1.5;" x1="751" x2="766" y1="408.4688" y2="408.4688"/><line style="stroke:#A80036;stroke-width:1.5;" x1="751" x2="766" y1="416.4688" y2="416.4688"/><!--MD5=[7c1a0278dec21c72584b17e1785fd623]
class Light--><rect codeLine="26" fill="#FEFECE" filter="url(#f11togdfxttlik)" height="65.5781" id="Light" style="stroke:#A80036;stroke-width:1.5;" width="58" x="311.5" y="540"/><text fill="#000000" font-family="sans-serif" font-size="12" lengthAdjust="spacing" textLength="28" x="326.5" y="556.1387">Light</text><line style="stroke:#A80036;stroke-width:1.5;" x1="312.5" x2="368.5" y1="563.9688" y2="563.9688"/><line style="stroke:#A80036;stroke-width:1.5;" x1="312.5" x2="368.5" y1="571.9688" y2="571.9688"/><text fill="#000000" font-family="sans-serif" font-size="11" lengthAdjust="spacing" textLength="29" x="317.5" y="586.1792">use()</text><text fill="#000000" font-family="sans-serif" font-size="11" lengthAdjust="spacing" textLength="46" x="317.5" y="598.9839">control()</text><!--MD5=[b098efa4dd65edfeebe973e4edec7c36]
class Floor--><rect codeLine="30" fill="#FEFECE" filter="url(#f11togdfxttlik)" height="39.9688" id="Floor" style="stroke:#A80036;stroke-width:1.5;" width="37" x="788" y="553"/><text fill="#000000" font-family="sans-serif" font-size="12" lengthAdjust="spacing" textLength="31" x="791" y="569.1387">Floor</text><line style="stroke:#A80036;stroke-width:1.5;" x1="789" x2="824" y1="576.9688" y2="576.9688"/><line style="stroke:#A80036;stroke-width:1.5;" x1="789" x2="824" y1="584.9688" y2="584.9688"/><!--MD5=[964f074a2dd77d134c21b891bb53e381]
class Image--><rect codeLine="32" fill="#FEFECE" filter="url(#f11togdfxttlik)" height="39.9688" id="Image" style="stroke:#A80036;stroke-width:1.5;" width="43" x="109" y="553"/><text fill="#000000" font-family="sans-serif" font-size="12" lengthAdjust="spacing" textLength="37" x="112" y="569.1387">Image</text><line style="stroke:#A80036;stroke-width:1.5;" x1="110" x2="151" y1="576.9688" y2="576.9688"/><line style="stroke:#A80036;stroke-width:1.5;" x1="110" x2="151" y1="584.9688" y2="584.9688"/><!--MD5=[e2e04970b1b3f4a5a26dfa860353efc5]
class Control--><rect codeLine="34" fill="#FEFECE" filter="url(#f11togdfxttlik)" height="52.7734" id="Control" style="stroke:#A80036;stroke-width:1.5;" width="49" x="7" y="546.5"/><text fill="#000000" font-family="sans-serif" font-size="12" lengthAdjust="spacing" textLength="43" x="10" y="562.6387">Control</text><line style="stroke:#A80036;stroke-width:1.5;" x1="8" x2="55" y1="570.4688" y2="570.4688"/><line style="stroke:#A80036;stroke-width:1.5;" x1="8" x2="55" y1="578.4688" y2="578.4688"/><text fill="#000000" font-family="sans-serif" font-size="11" lengthAdjust="spacing" textLength="32" x="13" y="592.6792">limit()</text><!--MD5=[dab16d122782a892ddb6ee0eadcd68f0]
class Access--><rect codeLine="37" fill="#FEFECE" filter="url(#f11togdfxttlik)" height="39.9688" id="Access" style="stroke:#A80036;stroke-width:1.5;" width="50" x="309.5" y="229"/><text fill="#000000" font-family="sans-serif" font-size="12" lengthAdjust="spacing" textLength="44" x="312.5" y="245.1387">Access</text><line style="stroke:#A80036;stroke-width:1.5;" x1="310.5" x2="358.5" y1="252.9688" y2="252.9688"/><line style="stroke:#A80036;stroke-width:1.5;" x1="310.5" x2="358.5" y1="260.9688" y2="260.9688"/><!--MD5=[1a5ec66ac35c10b19d7bb63d6b8c4e50]
class Debugging--><rect codeLine="39" fill="#FEFECE" filter="url(#f11togdfxttlik)" height="39.9688" id="Debugging" style="stroke:#A80036;stroke-width:1.5;" width="72" x="720.5" y="229"/><text fill="#000000" font-family="sans-serif" font-size="12" lengthAdjust="spacing" textLength="66" x="723.5" y="245.1387">Debugging</text><line style="stroke:#A80036;stroke-width:1.5;" x1="721.5" x2="791.5" y1="252.9688" y2="252.9688"/><line style="stroke:#A80036;stroke-width:1.5;" x1="721.5" x2="791.5" y1="260.9688" y2="260.9688"/><!--MD5=[463c45b1df3dbfe1c2134e01e0a41cde]
class Screen--><rect codeLine="41" fill="#FEFECE" filter="url(#f11togdfxttlik)" height="39.9688" id="Screen" style="stroke:#A80036;stroke-width:1.5;" width="49" x="187" y="553"/><text fill="#000000" font-family="sans-serif" font-size="12" lengthAdjust="spacing" textLength="43" x="190" y="569.1387">Screen</text><line style="stroke:#A80036;stroke-width:1.5;" x1="188" x2="235" y1="576.9688" y2="576.9688"/><line style="stroke:#A80036;stroke-width:1.5;" x1="188" x2="235" y1="584.9688" y2="584.9688"/><!--MD5=[d218c48b946d362ff1ecd879cabebcad]
class Room--><rect codeLine="43" fill="#FEFECE" filter="url(#f11togdfxttlik)" height="39.9688" id="Room" style="stroke:#A80036;stroke-width:1.5;" width="40" x="430.5" y="553"/><text fill="#000000" font-family="sans-serif" font-size="12" lengthAdjust="spacing" textLength="34" x="433.5" y="569.1387">Room</text><line style="stroke:#A80036;stroke-width:1.5;" x1="431.5" x2="469.5" y1="576.9688" y2="576.9688"/><line style="stroke:#A80036;stroke-width:1.5;" x1="431.5" x2="469.5" y1="584.9688" y2="584.9688"/><!--MD5=[07d0c9d11162971c1cfc35a11a096c02]
class SwitchId--><rect codeLine="45" fill="#FEFECE" filter="url(#f11togdfxttlik)" height="39.9688" id="SwitchId" style="stroke:#A80036;stroke-width:1.5;" width="56" x="920.5" y="229"/><text fill="#000000" font-family="sans-serif" font-size="12" lengthAdjust="spacing" textLength="50" x="923.5" y="245.1387">SwitchId</text><line style="stroke:#A80036;stroke-width:1.5;" x1="921.5" x2="975.5" y1="252.9688" y2="252.9688"/><line style="stroke:#A80036;stroke-width:1.5;" x1="921.5" x2="975.5" y1="260.9688" y2="260.9688"/><!--MD5=[53f6a92bd21ca2f2960392a061f3a1c6]
class Name--><rect codeLine="47" fill="#FEFECE" filter="url(#f11togdfxttlik)" height="39.9688" id="Name" style="stroke:#A80036;stroke-width:1.5;" width="40" x="1011.5" y="229"/><text fill="#000000" font-family="sans-serif" font-size="12" lengthAdjust="spacing" textLength="34" x="1014.5" y="245.1387">Name</text><line style="stroke:#A80036;stroke-width:1.5;" x1="1012.5" x2="1050.5" y1="252.9688" y2="252.9688"/><line style="stroke:#A80036;stroke-width:1.5;" x1="1012.5" x2="1050.5" y1="260.9688" y2="260.9688"/><!--MD5=[6de492f04047ff8a778df2bea690e363]
class Gateway--><rect codeLine="49" fill="#FEFECE" filter="url(#f11togdfxttlik)" height="39.9688" id="Gateway" style="stroke:#A80036;stroke-width:1.5;" width="58" x="827.5" y="229"/><text fill="#000000" font-family="sans-serif" font-size="12" lengthAdjust="spacing" textLength="52" x="830.5" y="245.1387">Gateway</text><line style="stroke:#A80036;stroke-width:1.5;" x1="828.5" x2="884.5" y1="252.9688" y2="252.9688"/><line style="stroke:#A80036;stroke-width:1.5;" x1="828.5" x2="884.5" y1="260.9688" y2="260.9688"/><!--MD5=[5fadb62aff275cc80f50e9d40a5b6f13]
class MobileApplication--><rect codeLine="51" fill="#FEFECE" filter="url(#f11togdfxttlik)" height="39.9688" id="MobileApplication" style="stroke:#A80036;stroke-width:1.5;" width="112" x="284.5" y="683"/><text fill="#000000" font-family="sans-serif" font-size="12" lengthAdjust="spacing" textLength="106" x="287.5" y="699.1387">MobileApplication</text><line style="stroke:#A80036;stroke-width:1.5;" x1="285.5" x2="395.5" y1="706.9688" y2="706.9688"/><line style="stroke:#A80036;stroke-width:1.5;" x1="285.5" x2="395.5" y1="714.9688" y2="714.9688"/><!--MD5=[b67a629844505f95ba7c6e0aa40e306e]
reverse link Access to Control--><path codeLine="53" d="M306.259,278.715 C262.05,323.829 174.053,414.293 101.5,493 C85.3539,510.516 67.555,530.614 53.9456,546.155 " fill="none" id="Access-backto-Control" style="stroke:#A80036;stroke-width:1.0;"/><polygon fill="#FFFFFF" points="315.512,269.282,308.4549,270.7643,307.1089,277.8487,314.166,276.3664,315.512,269.282" style="stroke:#A80036;stroke-width:1.0;"/><!--MD5=[e1b43ed5ceef5606070359631aba66f0]
link User to Floor--><path codeLine="54" d="M369.591,417.879 C461.158,450.179 705.576,536.399 782.782,563.633 " fill="none" id="User-to-Floor" style="stroke:#A80036;stroke-width:1.0;"/><polygon fill="#A80036" points="787.622,565.341,780.4644,558.5757,782.9066,563.6782,777.804,566.1204,787.622,565.341" style="stroke:#A80036;stroke-width:1.0;"/><text fill="#000000" font-family="sans-serif" font-size="13" lengthAdjust="spacing" textLength="38" x="628.5" y="506.0669">select</text><!--MD5=[ec99a9ecca4dbd5d39f724ed3a1226e5]
link User to Image--><path codeLine="55" d="M299.464,421.775 C268.415,437.275 222.946,462.697 189.5,493 C171.643,509.179 155.585,531.451 144.747,548.224 " fill="none" id="User-to-Image" style="stroke:#A80036;stroke-width:1.0;"/><polygon fill="#A80036" points="141.831,552.799,150.0416,547.3597,144.5185,548.5827,143.2955,543.0596,141.831,552.799" style="stroke:#A80036;stroke-width:1.0;"/><text fill="#000000" font-family="sans-serif" font-size="13" lengthAdjust="spacing" textLength="24" x="190.5" y="506.0669">add</text><!--MD5=[6ab3aa66de0cfe6ae2f2a0b990812f1a]
link Admin to SwitchId--><path codeLine="56" d="M742.774,101.521 C780.507,119.848 836.446,149.283 880.5,182 C897.764,194.821 915.126,211.756 927.985,225.261 " fill="none" id="Admin-to-SwitchId" style="stroke:#A80036;stroke-width:1.0;"/><polygon fill="#A80036" points="931.489,228.973,928.2224,219.6817,928.0578,225.3361,922.4034,225.1716,931.489,228.973" style="stroke:#A80036;stroke-width:1.0;"/><text fill="#000000" font-family="sans-serif" font-size="13" lengthAdjust="spacing" textLength="23" x="902.5" y="195.0669">see</text><!--MD5=[004174e6025bfd31cc9058593d99fb9f]
link Admin to Name--><path codeLine="57" d="M742.643,97.175 C790.395,115.011 869.97,146.692 934.5,182 C960.415,196.18 988.1,215.476 1007.23,229.541 " fill="none" id="Admin-to-Name" style="stroke:#A80036;stroke-width:1.0;"/><polygon fill="#A80036" points="1011.42,232.637,1006.5602,224.0707,1007.3992,229.665,1001.8049,230.504,1011.42,232.637" style="stroke:#A80036;stroke-width:1.0;"/><text fill="#000000" font-family="sans-serif" font-size="13" lengthAdjust="spacing" textLength="24" x="963.5" y="195.0669">edit</text><!--MD5=[bfb2ff5f2366892d2d30bc17b72f60ad]
link Admin to Access--><path codeLine="58" d="M658.368,92.177 C601.406,106.966 497.732,137.571 417.5,182 C395.971,193.922 374.296,211.388 358.496,225.358 " fill="none" id="Admin-to-Access" style="stroke:#A80036;stroke-width:1.0;"/><polygon fill="#A80036" points="354.61,228.829,363.9864,225.8153,358.3385,225.4976,358.6562,219.8497,354.61,228.829" style="stroke:#A80036;stroke-width:1.0;"/><text fill="#000000" font-family="sans-serif" font-size="13" lengthAdjust="spacing" textLength="48" x="418.5" y="195.0669">provide</text><!--MD5=[bfb2ff5f2366892d2d30bc17b72f60ad]
link Admin to Access--><path codeLine="62" d="M658.296,87.602 C572.028,99.974 380.181,132.517 339.5,182 C330.158,193.363 328.909,209.864 329.995,223.524 " fill="none" id="Admin-to-Access-1" style="stroke:#A80036;stroke-width:1.0;"/><polygon fill="#A80036" points="330.537,228.795,333.5955,219.4331,330.0256,223.8212,325.6375,220.2513,330.537,228.795" style="stroke:#A80036;stroke-width:1.0;"/><text fill="#000000" font-family="sans-serif" font-size="13" lengthAdjust="spacing" textLength="44" x="340.5" y="195.0669">revoke</text><!--MD5=[584bcff8688ce6c8467e2d9b2311e0b1]
reverse link Gateway to Id--><path codeLine="59" d="M837.042,280.478 C815.775,313.789 782.662,365.654 767.114,390.008 " fill="none" id="Gateway-backto-Id" style="stroke:#A80036;stroke-width:1.0;"/><polygon fill="#FFFFFF" points="844.286,269.131,837.6858,272.0356,837.8284,279.2453,844.4286,276.3407,844.286,269.131" style="stroke:#A80036;stroke-width:1.0;"/><!--MD5=[c1698fe27d6a7060820055ce002943d6]
link Admin to Id--><path codeLine="60" d="M679.026,152.234 C671.388,187.728 666.991,231.181 677.5,269 C691.034,317.707 727.469,366.431 746.521,389.585 " fill="none" id="Admin-to-Id" style="stroke:#A80036;stroke-width:1.0;"/><polygon fill="#A80036" points="749.867,393.605,747.1838,384.1287,746.6683,389.762,741.035,389.2466,749.867,393.605" style="stroke:#A80036;stroke-width:1.0;"/><text fill="#000000" font-family="sans-serif" font-size="13" lengthAdjust="spacing" textLength="23" x="678.5" y="253.5669">see</text><!--MD5=[6eabbb8afbef624a25be3c91d84d2361]
link Admin to Debugging--><path codeLine="61" d="M722.773,152.056 C727.834,167.552 733.263,183.862 738.5,199 C741.346,207.228 744.591,216.18 747.534,224.155 " fill="none" id="Admin-to-Debugging" style="stroke:#A80036;stroke-width:1.0;"/><polygon fill="#A80036" points="749.322,228.979,749.946,219.1499,747.5849,224.2905,742.4443,221.9293,749.322,228.979" style="stroke:#A80036;stroke-width:1.0;"/><text fill="#000000" font-family="sans-serif" font-size="13" lengthAdjust="spacing" textLength="73" x="739.5" y="195.0669">incorporate</text><!--MD5=[2c02571bdbf585d4521f31a11e51ab30]
link Admin to Floor--><path codeLine="63" d="M742.662,82.984 C825.002,87.547 1004.708,111.178 1068.5,229 C1145.46,371.138 906.718,517.263 829.652,559.745 " fill="none" id="Admin-to-Floor" style="stroke:#A80036;stroke-width:1.0;"/><polygon fill="#A80036" points="825.243,562.159,835.0582,561.345,829.6286,559.7576,831.216,554.3281,825.243,562.159" style="stroke:#A80036;stroke-width:1.0;"/><text fill="#000000" font-family="sans-serif" font-size="13" lengthAdjust="spacing" textLength="40" x="1083.5" y="312.0669">delete</text><!--MD5=[08e4dc3319c42cf6c2761fa3afa7ae50]
link Admin to Gateway--><path codeLine="64" d="M742.501,112.358 C766.251,130.81 795.501,155.81 817.5,182 C828.25,194.798 837.838,210.922 844.817,224.029 " fill="none" id="Admin-to-Gateway" style="stroke:#A80036;stroke-width:1.0;"/><polygon fill="#A80036" points="847.268,228.709,846.6386,218.8803,844.9495,224.2791,839.5507,222.5899,847.268,228.709" style="stroke:#A80036;stroke-width:1.0;"/><text fill="#000000" font-family="sans-serif" font-size="13" lengthAdjust="spacing" textLength="40" x="831.5" y="195.0669">delete</text><!--MD5=[20e6a420b9b448c96b492e2944517c3f]
link Admin to Room--><path codeLine="65" d="M675.128,152.171 C671.542,162.177 667.915,172.346 664.5,182 C613.028,327.495 646.96,389.527 550.5,510 C530.595,534.861 497.844,552.437 475.277,562.379 " fill="none" id="Admin-to-Room" style="stroke:#A80036;stroke-width:1.0;"/><polygon fill="#A80036" points="470.625,564.385,480.4733,564.4941,475.2163,562.4051,477.3054,557.1481,470.625,564.385" style="stroke:#A80036;stroke-width:1.0;"/><text fill="#000000" font-family="sans-serif" font-size="13" lengthAdjust="spacing" textLength="40" x="636.5" y="312.0669">delete</text><!--MD5=[80ef188495123e0eb89422528c978ef4]
link User to Room--><path codeLine="66" d="M369.619,455.907 C391.088,486.723 417.539,524.689 434.217,548.628 " fill="none" id="User-to-Room" style="stroke:#A80036;stroke-width:1.0;"/><polygon fill="#A80036" points="437.214,552.93,435.3517,543.2588,434.356,548.8273,428.7875,547.8316,437.214,552.93" style="stroke:#A80036;stroke-width:1.0;"/><text fill="#000000" font-family="sans-serif" font-size="13" lengthAdjust="spacing" textLength="38" x="407.5" y="506.0669">select</text><!--MD5=[fe5c00bf3f1838913b1088d1375da4f6]
link User to Light--><path codeLine="67" d="M299.298,432.259 C276.981,452.702 254.559,482.031 267.5,510 C275.797,527.932 292.12,542.575 307.23,553.119 " fill="none" id="User-to-Light" style="stroke:#A80036;stroke-width:1.0;"/><polygon fill="#A80036" points="311.452,555.984,306.2491,547.6216,307.3141,553.1773,301.7584,554.2423,311.452,555.984" style="stroke:#A80036;stroke-width:1.0;"/><text fill="#000000" font-family="sans-serif" font-size="13" lengthAdjust="spacing" textLength="49" x="268.5" y="506.0669">turn_on</text><!--MD5=[fe5c00bf3f1838913b1088d1375da4f6]
link User to Light--><path codeLine="73" d="M336.582,463.266 C337.43,486.818 338.388,513.381 339.143,534.357 " fill="none" id="User-to-Light-1" style="stroke:#A80036;stroke-width:1.0;"/><polygon fill="#A80036" points="339.331,539.564,343.0044,530.4258,339.151,534.5672,335.0096,530.7138,339.331,539.564" style="stroke:#A80036;stroke-width:1.0;"/><text fill="#000000" font-family="sans-serif" font-size="13" lengthAdjust="spacing" textLength="26" x="339.5" y="506.0669">turn</text><!--MD5=[478425156ee10c55cac736d5b0b47b37]
link Admin to User--><path codeLine="68" d="M658.498,105.666 C626.471,124.548 581.979,152.621 546.5,182 C480.503,236.649 413.68,310.152 373.165,357.189 " fill="none" id="Admin-to-User" style="stroke:#A80036;stroke-width:1.0;"/><polygon fill="#A80036" points="369.811,361.092,378.7108,356.8737,373.07,357.3001,372.6437,351.6593,369.811,361.092" style="stroke:#A80036;stroke-width:1.0;"/><text fill="#000000" font-family="sans-serif" font-size="13" lengthAdjust="spacing" textLength="24" x="492.5" y="253.5669">add</text><!--MD5=[c944fda913ae73e0ac80ee078bed23fb]
link User to Control--><path codeLine="69" d="M299.237,417.647 C257.855,432.6 187.857,460.097 132.5,493 C106.7032,508.333 80.0686,529.424 60.6316,545.956 " fill="none" id="User-to-Control" style="stroke:#A80036;stroke-width:1.0;"/><polygon fill="#A80036" points="56.3486,549.625,65.7859,546.8077,60.1459,546.3722,60.5814,540.7321,56.3486,549.625" style="stroke:#A80036;stroke-width:1.0;"/><text fill="#000000" font-family="sans-serif" font-size="13" lengthAdjust="spacing" textLength="32" x="133.5" y="506.0669">have</text><!--MD5=[53afc77667c84fa178c92fa07afed1de]
link Light to MobileApplication--><path codeLine="70" d="M340.5,606.3 C340.5,628.463 340.5,657.4116 340.5,677.6422 " fill="none" id="Light-to-MobileApplication" style="stroke:#A80036;stroke-width:1.0;"/><polygon fill="#A80036" points="340.5,682.8458,344.5,673.8458,340.5,677.8458,336.5,673.8458,340.5,682.8458" style="stroke:#A80036;stroke-width:1.0;"/><text fill="#000000" font-family="sans-serif" font-size="13" lengthAdjust="spacing" textLength="23" x="341.5" y="649.0669">use</text><!--MD5=[df4e43a6e7aaaf252149511ab188fd02]
link Access to User--><path codeLine="71" d="M334.5,269.131 C334.5,287.063 334.5,314.884 334.5,340.57 " fill="none" id="Access-to-User" style="stroke:#A80036;stroke-width:1.0;"/><polygon fill="#A80036" points="334.5,345.675,338.5,336.675,334.5,340.675,330.5,336.675,334.5,345.675" style="stroke:#A80036;stroke-width:1.0;"/><text fill="#000000" font-family="sans-serif" font-size="13" lengthAdjust="spacing" textLength="13" x="335.5" y="312.0669">to</text><!--MD5=[c986a0e60bfea2f4954994103c35e1e1]
link User to Screen--><path codeLine="72" d="M299.495,426.479 C276.506,442.04 247.622,465.303 230.5,493 C220.304,509.494 215.579,531.052 213.39,547.481 " fill="none" id="User-to-Screen" style="stroke:#A80036;stroke-width:1.0;"/><polygon fill="#A80036" points="212.741,552.841,217.7944,544.3874,213.3424,547.8773,209.8525,543.4252,212.741,552.841" style="stroke:#A80036;stroke-width:1.0;"/><text fill="#000000" font-family="sans-serif" font-size="13" lengthAdjust="spacing" textLength="24" x="231.5" y="506.0669">add</text><!--MD5=[d1ee09f72ddb81db4a33e728d3a0b8cd]
@startuml
hide circle
class Admin<actor> {
}
class User<actor> {
}
class Id {
}
class Admin {
	add()
	incorporate()
	revoke()
	assign()
	delete()
	edit()
	see()
	provide()
}
class User {
	add()
	select()
	have()
	turn()
	turn_on()
	choose()
}
class Light {
	use()
	control()
}
class Floor {
}
class Image {
}
class Control {
	limit()
}
class Access {
}
class Debugging {
}
class Screen {
}
class Room {
}
class SwitchId {
}
class Name {
}
class Gateway {
}
class MobileApplication {
}
Access o- - Control
User - -> Floor : select
User - -> Image : add
Admin - -> SwitchId : see
Admin - -> Name : edit
Admin - -> Access : provide
Gateway o- - Id
Admin - -> Id : see
Admin - -> Debugging : incorporate
Admin - -> Access : revoke
Admin - -> Floor : delete
Admin - -> Gateway : delete
Admin - -> Room : delete
User - -> Room : select
User - -> Light : turn_on
Admin - -> User : add
User - -> Control : have
Light - -> MobileApplication : use
Access - -> User : to
User - -> Screen : add
User - -> Light : turn
@enduml

PlantUML version 1.2021.10beta5(Unknown compile time)
(GPL source distribution)
Java Runtime: Java(TM) SE Runtime Environment
JVM: Java HotSpot(TM) 64-Bit Server VM
Default Encoding: UTF-8
Language: en
Country: US
--></g></svg>