<?xml version="1.0" encoding="UTF-8" standalone="no"?><svg xmlns="http://www.w3.org/2000/svg" xmlns:xlink="http://www.w3.org/1999/xlink" contentScriptType="application/ecmascript" contentStyleType="text/css" height="423px" preserveAspectRatio="none" style="width:2481px;height:423px;background:#FFFFFF;" version="1.1" viewBox="0 0 2481 423" width="2481px" zoomAndPan="magnify"><defs><filter height="300%" id="ftzk1a8kgqy6" width="300%" x="-1" y="-1"><feGaussianBlur result="blurOut" stdDeviation="2.0"/><feColorMatrix in="blurOut" result="blurOut2" type="matrix" values="0 0 0 0 0 0 0 0 0 0 0 0 0 0 0 0 0 0 .4 0"/><feOffset dx="4.0" dy="4.0" in="blurOut2" result="blurOut3"/><feBlend in="SourceGraphic" in2="blurOut3" mode="normal"/></filter></defs><g><!--MD5=[d6181cb537bdc20c0a3007a98a56832d]
class Student--><rect codeLine="47" fill="#FEFECE" filter="url(#ftzk1a8kgqy6)" height="52.7734" id="Student" style="stroke:#A80036;stroke-width:1.5;" width="87" x="7" y="125"/><text fill="#000000" font-family="sans-serif" font-size="12" lengthAdjust="spacing" textLength="46" x="10" y="141.1387">Student</text><rect fill="#FFFFFF" height="15.9688" style="stroke:#000000;stroke-width:1.0;stroke-dasharray:2.0,2.0;" width="33" x="64" y="122"/><text fill="#000000" font-family="sans-serif" font-size="12" font-style="italic" lengthAdjust="spacing" textLength="31" x="65" y="134.1387">actor</text><line style="stroke:#A80036;stroke-width:1.5;" x1="8" x2="93" y1="148.9688" y2="148.9688"/><line style="stroke:#A80036;stroke-width:1.5;" x1="8" x2="93" y1="156.9688" y2="156.9688"/><text fill="#000000" font-family="sans-serif" font-size="11" lengthAdjust="spacing" textLength="35" x="13" y="171.1792">grow()</text><!--MD5=[3fd616f346a44cd59a91eb10b19e157c]
class User--><rect codeLine="8" fill="#FEFECE" filter="url(#ftzk1a8kgqy6)" height="283.2578" id="User" style="stroke:#A80036;stroke-width:1.5;" width="70" x="1133.5" y="10"/><text fill="#000000" font-family="sans-serif" font-size="12" lengthAdjust="spacing" textLength="29" x="1136.5" y="26.1387">User</text><rect fill="#FFFFFF" height="15.9688" style="stroke:#000000;stroke-width:1.0;stroke-dasharray:2.0,2.0;" width="33" x="1173.5" y="7"/><text fill="#000000" font-family="sans-serif" font-size="12" font-style="italic" lengthAdjust="spacing" textLength="31" x="1174.5" y="19.1387">actor</text><line style="stroke:#A80036;stroke-width:1.5;" x1="1134.5" x2="1202.5" y1="33.9688" y2="33.9688"/><line style="stroke:#A80036;stroke-width:1.5;" x1="1134.5" x2="1202.5" y1="41.9688" y2="41.9688"/><text fill="#000000" font-family="sans-serif" font-size="11" lengthAdjust="spacing" textLength="41" x="1139.5" y="56.1792">follow()</text><text fill="#000000" font-family="sans-serif" font-size="11" lengthAdjust="spacing" textLength="46" x="1139.5" y="68.9839">accept()</text><text fill="#000000" font-family="sans-serif" font-size="11" lengthAdjust="spacing" textLength="41" x="1139.5" y="81.7886">reject()</text><text fill="#000000" font-family="sans-serif" font-size="11" lengthAdjust="spacing" textLength="36" x="1139.5" y="94.5933">write()</text><text fill="#000000" font-family="sans-serif" font-size="11" lengthAdjust="spacing" textLength="46" x="1139.5" y="107.3979">upload()</text><text fill="#000000" font-family="sans-serif" font-size="11" lengthAdjust="spacing" textLength="48" x="1139.5" y="120.2026">update()</text><text fill="#000000" font-family="sans-serif" font-size="11" lengthAdjust="spacing" textLength="46" x="1139.5" y="133.0073">delete()</text><text fill="#000000" font-family="sans-serif" font-size="11" lengthAdjust="spacing" textLength="55" x="1139.5" y="145.812">unfollow()</text><text fill="#000000" font-family="sans-serif" font-size="11" lengthAdjust="spacing" textLength="37" x="1139.5" y="158.6167">have()</text><text fill="#000000" font-family="sans-serif" font-size="11" lengthAdjust="spacing" textLength="29" x="1139.5" y="171.4214">add()</text><text fill="#000000" font-family="sans-serif" font-size="11" lengthAdjust="spacing" textLength="45" x="1139.5" y="184.2261">create()</text><text fill="#000000" font-family="sans-serif" font-size="11" lengthAdjust="spacing" textLength="30" x="1139.5" y="197.0308">see()</text><text fill="#000000" font-family="sans-serif" font-size="11" lengthAdjust="spacing" textLength="40" x="1139.5" y="209.8354">share()</text><text fill="#000000" font-family="sans-serif" font-size="11" lengthAdjust="spacing" textLength="41" x="1139.5" y="222.6401">leave()</text><text fill="#000000" font-family="sans-serif" font-size="11" lengthAdjust="spacing" textLength="36" x="1139.5" y="235.4448">send()</text><text fill="#000000" font-family="sans-serif" font-size="11" lengthAdjust="spacing" textLength="29" x="1139.5" y="248.2495">find()</text><text fill="#000000" font-family="sans-serif" font-size="11" lengthAdjust="spacing" textLength="28" x="1139.5" y="261.0542">join()</text><text fill="#000000" font-family="sans-serif" font-size="11" lengthAdjust="spacing" textLength="44" x="1139.5" y="273.8589">import()</text><text fill="#000000" font-family="sans-serif" font-size="11" lengthAdjust="spacing" textLength="45" x="1139.5" y="286.6636">cancel()</text><!--MD5=[da547346deef918ea16944ba046651ef]
class Administrator--><rect codeLine="6" fill="#FEFECE" filter="url(#ftzk1a8kgqy6)" height="39.9688" id="Administrator" style="stroke:#A80036;stroke-width:1.5;" width="121" x="1239" y="131.5"/><text fill="#000000" font-family="sans-serif" font-size="12" lengthAdjust="spacing" textLength="80" x="1242" y="147.6387">Administrator</text><rect fill="#FFFFFF" height="15.9688" style="stroke:#000000;stroke-width:1.0;stroke-dasharray:2.0,2.0;" width="33" x="1330" y="128.5"/><text fill="#000000" font-family="sans-serif" font-size="12" font-style="italic" lengthAdjust="spacing" textLength="31" x="1331" y="140.6387">actor</text><line style="stroke:#A80036;stroke-width:1.5;" x1="1240" x2="1359" y1="155.4688" y2="155.4688"/><line style="stroke:#A80036;stroke-width:1.5;" x1="1240" x2="1359" y1="163.4688" y2="163.4688"/><!--MD5=[41314a0efc36828092cff9ebad2fcafd]
class Group--><rect codeLine="29" fill="#FEFECE" filter="url(#ftzk1a8kgqy6)" height="39.9688" id="Group" style="stroke:#A80036;stroke-width:1.5;" width="43" x="186" y="370"/><text fill="#000000" font-family="sans-serif" font-size="12" lengthAdjust="spacing" textLength="37" x="189" y="386.1387">Group</text><line style="stroke:#A80036;stroke-width:1.5;" x1="187" x2="228" y1="393.9688" y2="393.9688"/><line style="stroke:#A80036;stroke-width:1.5;" x1="187" x2="228" y1="401.9688" y2="401.9688"/><!--MD5=[17a697de5646a3e8ac01998c348cb8a8]
class ConnectionRequest--><rect codeLine="31" fill="#FEFECE" filter="url(#ftzk1a8kgqy6)" height="39.9688" id="ConnectionRequest" style="stroke:#A80036;stroke-width:1.5;" width="122" x="326.5" y="370"/><text fill="#000000" font-family="sans-serif" font-size="12" lengthAdjust="spacing" textLength="116" x="329.5" y="386.1387">ConnectionRequest</text><line style="stroke:#A80036;stroke-width:1.5;" x1="327.5" x2="447.5" y1="393.9688" y2="393.9688"/><line style="stroke:#A80036;stroke-width:1.5;" x1="327.5" x2="447.5" y1="401.9688" y2="401.9688"/><!--MD5=[7b57f7066b803747d2119f99dd1555d4]
class Profile--><rect codeLine="33" fill="#FEFECE" filter="url(#ftzk1a8kgqy6)" height="39.9688" id="Profile" style="stroke:#A80036;stroke-width:1.5;" width="43" x="569" y="370"/><text fill="#000000" font-family="sans-serif" font-size="12" lengthAdjust="spacing" textLength="37" x="572" y="386.1387">Profile</text><line style="stroke:#A80036;stroke-width:1.5;" x1="570" x2="611" y1="393.9688" y2="393.9688"/><line style="stroke:#A80036;stroke-width:1.5;" x1="570" x2="611" y1="401.9688" y2="401.9688"/><!--MD5=[6016c9c5425d34ae3d7a539916a91923]
class Recommendation--><rect codeLine="35" fill="#FEFECE" filter="url(#ftzk1a8kgqy6)" height="39.9688" id="Recommendation" style="stroke:#A80036;stroke-width:1.5;" width="110" x="647.5" y="370"/><text fill="#000000" font-family="sans-serif" font-size="12" lengthAdjust="spacing" textLength="104" x="650.5" y="386.1387">Recommendation</text><line style="stroke:#A80036;stroke-width:1.5;" x1="648.5" x2="756.5" y1="393.9688" y2="393.9688"/><line style="stroke:#A80036;stroke-width:1.5;" x1="648.5" x2="756.5" y1="401.9688" y2="401.9688"/><!--MD5=[166247bf81aba95c770c3b8fd8e3cb19]
class Video--><rect codeLine="37" fill="#FEFECE" filter="url(#ftzk1a8kgqy6)" height="39.9688" id="Video" style="stroke:#A80036;stroke-width:1.5;" width="41" x="793" y="370"/><text fill="#000000" font-family="sans-serif" font-size="12" lengthAdjust="spacing" textLength="35" x="796" y="386.1387">Video</text><line style="stroke:#A80036;stroke-width:1.5;" x1="794" x2="833" y1="393.9688" y2="393.9688"/><line style="stroke:#A80036;stroke-width:1.5;" x1="794" x2="833" y1="401.9688" y2="401.9688"/><!--MD5=[6f7011e189b0e47ab1f320872962b4c4]
class Optometrist--><rect codeLine="39" fill="#FEFECE" filter="url(#ftzk1a8kgqy6)" height="39.9688" id="Optometrist" style="stroke:#A80036;stroke-width:1.5;" width="78" x="869.5" y="370"/><text fill="#000000" font-family="sans-serif" font-size="12" lengthAdjust="spacing" textLength="72" x="872.5" y="386.1387">Optometrist</text><line style="stroke:#A80036;stroke-width:1.5;" x1="870.5" x2="946.5" y1="393.9688" y2="393.9688"/><line style="stroke:#A80036;stroke-width:1.5;" x1="870.5" x2="946.5" y1="401.9688" y2="401.9688"/><!--MD5=[96a16f046dcf5a9f7fab5dd2542af37b]
class Advertisement--><rect codeLine="41" fill="#FEFECE" filter="url(#ftzk1a8kgqy6)" height="39.9688" id="Advertisement" style="stroke:#A80036;stroke-width:1.5;" width="94" x="982.5" y="370"/><text fill="#000000" font-family="sans-serif" font-size="12" lengthAdjust="spacing" textLength="88" x="985.5" y="386.1387">Advertisement</text><line style="stroke:#A80036;stroke-width:1.5;" x1="983.5" x2="1075.5" y1="393.9688" y2="393.9688"/><line style="stroke:#A80036;stroke-width:1.5;" x1="983.5" x2="1075.5" y1="401.9688" y2="401.9688"/><!--MD5=[ad932b6f5864965112044123d6bad487]
class Someone--><rect codeLine="43" fill="#FEFECE" filter="url(#ftzk1a8kgqy6)" height="39.9688" id="Someone" style="stroke:#A80036;stroke-width:1.5;" width="64" x="1111.5" y="370"/><text fill="#000000" font-family="sans-serif" font-size="12" lengthAdjust="spacing" textLength="58" x="1114.5" y="386.1387">Someone</text><line style="stroke:#A80036;stroke-width:1.5;" x1="1112.5" x2="1174.5" y1="393.9688" y2="393.9688"/><line style="stroke:#A80036;stroke-width:1.5;" x1="1112.5" x2="1174.5" y1="401.9688" y2="401.9688"/><!--MD5=[10a9fff9df9a76a22f65fd5d58adb785]
class School--><rect codeLine="45" fill="#FEFECE" filter="url(#ftzk1a8kgqy6)" height="39.9688" id="School" style="stroke:#A80036;stroke-width:1.5;" width="47" x="1211" y="370"/><text fill="#000000" font-family="sans-serif" font-size="12" lengthAdjust="spacing" textLength="41" x="1214" y="386.1387">School</text><line style="stroke:#A80036;stroke-width:1.5;" x1="1212" x2="1257" y1="393.9688" y2="393.9688"/><line style="stroke:#A80036;stroke-width:1.5;" x1="1212" x2="1257" y1="401.9688" y2="401.9688"/><!--MD5=[ec81f511f4d20a18ef555a8be4cd58b8]
class Network--><rect codeLine="50" fill="#FEFECE" filter="url(#ftzk1a8kgqy6)" height="39.9688" id="Network" style="stroke:#A80036;stroke-width:1.5;" width="56" x="22.5" y="370"/><text fill="#000000" font-family="sans-serif" font-size="12" lengthAdjust="spacing" textLength="50" x="25.5" y="386.1387">Network</text><line style="stroke:#A80036;stroke-width:1.5;" x1="23.5" x2="77.5" y1="393.9688" y2="393.9688"/><line style="stroke:#A80036;stroke-width:1.5;" x1="23.5" x2="77.5" y1="401.9688" y2="401.9688"/><!--MD5=[b39bf2416e05f940a14e3aa44644fd2d]
class Office--><rect codeLine="52" fill="#FEFECE" filter="url(#ftzk1a8kgqy6)" height="39.9688" id="Office" style="stroke:#A80036;stroke-width:1.5;" width="42" x="1293.5" y="370"/><text fill="#000000" font-family="sans-serif" font-size="12" lengthAdjust="spacing" textLength="36" x="1296.5" y="386.1387">Office</text><line style="stroke:#A80036;stroke-width:1.5;" x1="1294.5" x2="1334.5" y1="393.9688" y2="393.9688"/><line style="stroke:#A80036;stroke-width:1.5;" x1="1294.5" x2="1334.5" y1="401.9688" y2="401.9688"/><!--MD5=[61e2610165a592fa949543c2d7246366]
class Presence--><rect codeLine="54" fill="#FEFECE" filter="url(#ftzk1a8kgqy6)" height="39.9688" id="Presence" style="stroke:#A80036;stroke-width:1.5;" width="62" x="1370.5" y="370"/><text fill="#000000" font-family="sans-serif" font-size="12" lengthAdjust="spacing" textLength="56" x="1373.5" y="386.1387">Presence</text><line style="stroke:#A80036;stroke-width:1.5;" x1="1371.5" x2="1431.5" y1="393.9688" y2="393.9688"/><line style="stroke:#A80036;stroke-width:1.5;" x1="1371.5" x2="1431.5" y1="401.9688" y2="401.9688"/><!--MD5=[30fd7b95ab383a5e7c83ea23d4ea0fbf]
class Information--><rect codeLine="56" fill="#FEFECE" filter="url(#ftzk1a8kgqy6)" height="39.9688" id="Information" style="stroke:#A80036;stroke-width:1.5;" width="73" x="1468" y="370"/><text fill="#000000" font-family="sans-serif" font-size="12" lengthAdjust="spacing" textLength="67" x="1471" y="386.1387">Information</text><line style="stroke:#A80036;stroke-width:1.5;" x1="1469" x2="1540" y1="393.9688" y2="393.9688"/><line style="stroke:#A80036;stroke-width:1.5;" x1="1469" x2="1540" y1="401.9688" y2="401.9688"/><!--MD5=[d22815ff63be9cac9a63f8d1ea27d033]
class Article--><rect codeLine="58" fill="#FEFECE" filter="url(#ftzk1a8kgqy6)" height="39.9688" id="Article" style="stroke:#A80036;stroke-width:1.5;" width="44" x="1576.5" y="370"/><text fill="#000000" font-family="sans-serif" font-size="12" lengthAdjust="spacing" textLength="38" x="1579.5" y="386.1387">Article</text><line style="stroke:#A80036;stroke-width:1.5;" x1="1577.5" x2="1619.5" y1="393.9688" y2="393.9688"/><line style="stroke:#A80036;stroke-width:1.5;" x1="1577.5" x2="1619.5" y1="401.9688" y2="401.9688"/><!--MD5=[02e4b9b7573f1156f41e60aa5b4e25a4]
class Company--><rect codeLine="60" fill="#FEFECE" filter="url(#ftzk1a8kgqy6)" height="39.9688" id="Company" style="stroke:#A80036;stroke-width:1.5;" width="62" x="1655.5" y="370"/><text fill="#000000" font-family="sans-serif" font-size="12" lengthAdjust="spacing" textLength="56" x="1658.5" y="386.1387">Company</text><line style="stroke:#A80036;stroke-width:1.5;" x1="1656.5" x2="1716.5" y1="393.9688" y2="393.9688"/><line style="stroke:#A80036;stroke-width:1.5;" x1="1656.5" x2="1716.5" y1="401.9688" y2="401.9688"/><!--MD5=[bd2a4c30cd74f6f685e18e127d112db0]
class LinkedInInformation--><rect codeLine="62" fill="#FEFECE" filter="url(#ftzk1a8kgqy6)" height="39.9688" id="LinkedInInformation" style="stroke:#A80036;stroke-width:1.5;" width="122" x="1752.5" y="370"/><text fill="#000000" font-family="sans-serif" font-size="12" lengthAdjust="spacing" textLength="116" x="1755.5" y="386.1387">LinkedInInformation</text><line style="stroke:#A80036;stroke-width:1.5;" x1="1753.5" x2="1873.5" y1="393.9688" y2="393.9688"/><line style="stroke:#A80036;stroke-width:1.5;" x1="1753.5" x2="1873.5" y1="401.9688" y2="401.9688"/><!--MD5=[bea5b0d46523efab5ea1c1d339f396f0]
class Message--><rect codeLine="64" fill="#FEFECE" filter="url(#ftzk1a8kgqy6)" height="39.9688" id="Message" style="stroke:#A80036;stroke-width:1.5;" width="61" x="1910" y="370"/><text fill="#000000" font-family="sans-serif" font-size="12" lengthAdjust="spacing" textLength="55" x="1913" y="386.1387">Message</text><line style="stroke:#A80036;stroke-width:1.5;" x1="1911" x2="1970" y1="393.9688" y2="393.9688"/><line style="stroke:#A80036;stroke-width:1.5;" x1="1911" x2="1970" y1="401.9688" y2="401.9688"/><!--MD5=[dd3bac0ad1c4203e836ed9e8df23a782]
class LetterRecommendation--><rect codeLine="66" fill="#FEFECE" filter="url(#ftzk1a8kgqy6)" height="39.9688" id="LetterRecommendation" style="stroke:#A80036;stroke-width:1.5;" width="145" x="2006" y="370"/><text fill="#000000" font-family="sans-serif" font-size="12" lengthAdjust="spacing" textLength="139" x="2009" y="386.1387">LetterRecommendation</text><line style="stroke:#A80036;stroke-width:1.5;" x1="2007" x2="2150" y1="393.9688" y2="393.9688"/><line style="stroke:#A80036;stroke-width:1.5;" x1="2007" x2="2150" y1="401.9688" y2="401.9688"/><!--MD5=[ad510ca42d1a057b37ac2813b8ee5b40]
class Connection--><rect codeLine="68" fill="#FEFECE" filter="url(#ftzk1a8kgqy6)" height="39.9688" id="Connection" style="stroke:#A80036;stroke-width:1.5;" width="73" x="2186" y="370"/><text fill="#000000" font-family="sans-serif" font-size="12" lengthAdjust="spacing" textLength="67" x="2189" y="386.1387">Connection</text><line style="stroke:#A80036;stroke-width:1.5;" x1="2187" x2="2258" y1="393.9688" y2="393.9688"/><line style="stroke:#A80036;stroke-width:1.5;" x1="2187" x2="2258" y1="401.9688" y2="401.9688"/><!--MD5=[0851f84a889f989e7bb0bebc385d0f09]
class Request--><rect codeLine="70" fill="#FEFECE" filter="url(#ftzk1a8kgqy6)" height="39.9688" id="Request" style="stroke:#A80036;stroke-width:1.5;" width="55" x="2294" y="370"/><text fill="#000000" font-family="sans-serif" font-size="12" lengthAdjust="spacing" textLength="49" x="2297" y="386.1387">Request</text><line style="stroke:#A80036;stroke-width:1.5;" x1="2295" x2="2348" y1="393.9688" y2="393.9688"/><line style="stroke:#A80036;stroke-width:1.5;" x1="2295" x2="2348" y1="401.9688" y2="401.9688"/><!--MD5=[e7236e0a28bf7d774911f64d0540ec3e]
class ProfilePicture--><rect codeLine="72" fill="#FEFECE" filter="url(#ftzk1a8kgqy6)" height="39.9688" id="ProfilePicture" style="stroke:#A80036;stroke-width:1.5;" width="83" x="2384" y="370"/><text fill="#000000" font-family="sans-serif" font-size="12" lengthAdjust="spacing" textLength="77" x="2387" y="386.1387">ProfilePicture</text><line style="stroke:#A80036;stroke-width:1.5;" x1="2385" x2="2466" y1="393.9688" y2="393.9688"/><line style="stroke:#A80036;stroke-width:1.5;" x1="2385" x2="2466" y1="401.9688" y2="401.9688"/><!--MD5=[3b3a110f6aeec0a0bf442c01daca6c1c]
link User to Profile--><path codeLine="74" d="M1133.12,156.051 C1007.65,169.441 587.215,221.366 508.5,323 C489.169,347.9601 533.271,369.2889 563.996,380.5205 " fill="none" id="User-to-Profile" style="stroke:#A80036;stroke-width:1.0;"/><polygon fill="#A80036" points="568.801,382.2354,561.6684,375.4438,564.0917,380.5553,558.9802,382.9786,568.801,382.2354" style="stroke:#A80036;stroke-width:1.0;"/><text fill="#000000" font-family="sans-serif" font-size="13" lengthAdjust="spacing" textLength="45" x="509.5" y="336.0669">update</text><!--MD5=[3b3a110f6aeec0a0bf442c01daca6c1c]
link User to Profile--><path codeLine="84" d="M1133.32,157.719 C1019.61,175.347 665.291,236.448 595.5,323 C586.267,334.4507 585.017,350.9521 586.076,364.59 " fill="none" id="User-to-Profile-1" style="stroke:#A80036;stroke-width:1.0;"/><polygon fill="#A80036" points="586.606,369.8512,589.6834,360.4955,586.1047,364.8764,581.7238,361.2976,586.606,369.8512" style="stroke:#A80036;stroke-width:1.0;"/><text fill="#000000" font-family="sans-serif" font-size="13" lengthAdjust="spacing" textLength="40" x="596.5" y="336.0669">delete</text><!--MD5=[3b3a110f6aeec0a0bf442c01daca6c1c]
link User to Profile--><path codeLine="86" d="M1133.32,160.647 C1050.47,180.684 837.992,237.063 677.5,323 C655.159,334.9627 632.429,352.4273 615.807,366.3865 " fill="none" id="User-to-Profile-2" style="stroke:#A80036;stroke-width:1.0;"/><polygon fill="#A80036" points="611.716,369.8545,621.1672,367.0842,615.5294,366.6206,615.993,360.9828,611.716,369.8545" style="stroke:#A80036;stroke-width:1.0;"/><text fill="#000000" font-family="sans-serif" font-size="13" lengthAdjust="spacing" textLength="41" x="678.5" y="336.0669">create</text><!--MD5=[3b3a110f6aeec0a0bf442c01daca6c1c]
link User to Profile--><path codeLine="90" d="M1133.34,166.566 C1062.41,195.08 897.281,262.162 760.5,323 C744.333,330.1909 740.974,333.5433 724.5,340 C683.276,356.157 670.625,353.5927 629.5,370 C625.287,371.6806 620.899,373.6219 616.65,375.6083 " fill="none" id="User-to-Profile-3" style="stroke:#A80036;stroke-width:1.0;"/><polygon fill="#A80036" points="612.109,377.7711,621.9545,377.5124,616.6231,375.6211,618.5145,370.2898,612.109,377.7711" style="stroke:#A80036;stroke-width:1.0;"/><text fill="#000000" font-family="sans-serif" font-size="13" lengthAdjust="spacing" textLength="24" x="761.5" y="336.0669">add</text><!--MD5=[3b3a110f6aeec0a0bf442c01daca6c1c]
link User to Profile--><path codeLine="91" d="M1133.46,169.333 C1070.78,199.535 935.463,265.178 822.5,323 C808.164,330.3379 805.703,334.6859 790.5,340 C721.79,364.018 698.62,347.1878 629.5,370 C625.388,371.3573 621.155,373.0634 617.064,374.8931 " fill="none" id="User-to-Profile-4" style="stroke:#A80036;stroke-width:1.0;"/><polygon fill="#A80036" points="612.341,377.0844,622.1886,376.925,616.8766,374.98,618.8216,369.6681,612.341,377.0844" style="stroke:#A80036;stroke-width:1.0;"/><text fill="#000000" font-family="sans-serif" font-size="13" lengthAdjust="spacing" textLength="23" x="823.5" y="336.0669">see</text><!--MD5=[8694277179d3f9520cc26d9aa7e74a10]
link Student to Network--><path codeLine="75" d="M49.3284,178.285 C47.8589,214.437 45.7335,282.24 47.5,340 C47.7456,348.0291 48.2169,356.7878 48.7146,364.6506 " fill="none" id="Student-to-Network" style="stroke:#A80036;stroke-width:1.0;"/><polygon fill="#A80036" points="49.0608,369.931,52.4631,360.6885,48.7335,364.9417,44.4803,361.2121,49.0608,369.931" style="stroke:#A80036;stroke-width:1.0;"/><text fill="#000000" font-family="sans-serif" font-size="13" lengthAdjust="spacing" textLength="32" x="48.5" y="336.0669">grow</text><!--MD5=[466bf63bac18688930d4e31d035f36ce]
link User to Company--><path codeLine="76" d="M1203.51,274.731 C1208.7,281.584 1214.66,287.787 1221.5,293 C1279.37,337.081 1477.34,303.768 1547.5,323 C1584.4,333.1138 1623.51,352.5673 1650.82,367.7454 " fill="none" id="User-to-Company" style="stroke:#A80036;stroke-width:1.0;"/><polygon fill="#A80036" points="1655.44,370.334,1649.5425,362.4461,1651.0777,367.8906,1645.6331,369.4258,1655.44,370.334" style="stroke:#A80036;stroke-width:1.0;"/><text fill="#000000" font-family="sans-serif" font-size="13" lengthAdjust="spacing" textLength="54" x="1592.5" y="336.0669">unfollow</text><!--MD5=[466bf63bac18688930d4e31d035f36ce]
link User to Company--><path codeLine="99" d="M1203.61,275.218 C1208.78,281.906 1214.7,287.943 1221.5,293 C1299.07,350.6984 1575.73,268.386 1655.5,323 C1669.58,332.638 1677.42,350.4189 1681.7,365.0985 " fill="none" id="User-to-Company-1" style="stroke:#A80036;stroke-width:1.0;"/><polygon fill="#A80036" points="1683.02,369.9416,1684.5131,360.2066,1681.7055,365.1175,1676.7946,362.3098,1683.02,369.9416" style="stroke:#A80036;stroke-width:1.0;"/><text fill="#000000" font-family="sans-serif" font-size="13" lengthAdjust="spacing" textLength="38" x="1671.5" y="336.0669">follow</text><!--MD5=[230d2250dd088f95bd28c8224becb2ce]
link User to Recommendation--><path codeLine="77" d="M1133.41,174.14 C1057.86,220.65 884.249,326.9948 855.5,340 C825.832,353.421 791.404,364.7916 762.728,373.1907 " fill="none" id="User-to-Recommendation" style="stroke:#A80036;stroke-width:1.0;"/><polygon fill="#A80036" points="757.81,374.6184,767.5684,375.95,762.6117,373.2241,765.3376,368.2674,757.81,374.6184" style="stroke:#A80036;stroke-width:1.0;"/><text fill="#000000" font-family="sans-serif" font-size="13" lengthAdjust="spacing" textLength="23" x="885.5" y="336.0669">see</text><!--MD5=[bb050fa5a44ccaa93abbad0c89f9b430]
link User to Office--><path codeLine="78" d="M1203.61,265.78 C1208.83,275.455 1214.76,284.7 1221.5,293 C1237.12,312.2428 1250.62,305.836 1268.5,323 C1281.44,335.4283 1292.98,352.0051 1301.26,365.4362 " fill="none" id="User-to-Office" style="stroke:#A80036;stroke-width:1.0;"/><polygon fill="#A80036" points="1303.95,369.86,1302.7006,360.0907,1301.3561,365.5855,1295.8614,364.2409,1303.95,369.86" style="stroke:#A80036;stroke-width:1.0;"/><text fill="#000000" font-family="sans-serif" font-size="13" lengthAdjust="spacing" textLength="24" x="1284.5" y="336.0669">find</text><!--MD5=[bda46f8b3e8164a9780ce19d69123a1d]
link User to LinkedInInformation--><path codeLine="79" d="M1203.56,275.286 C1208.74,281.958 1214.68,287.973 1221.5,293 C1310.57,358.6487 1613.96,286.755 1718.5,323 C1745.14,332.2352 1771.13,351.1887 1789.17,366.4248 " fill="none" id="User-to-LinkedInInformation" style="stroke:#A80036;stroke-width:1.0;"/><polygon fill="#A80036" points="1793.12,369.8122,1788.893,360.9166,1789.3249,366.5569,1783.6845,366.9888,1793.12,369.8122" style="stroke:#A80036;stroke-width:1.0;"/><text fill="#000000" font-family="sans-serif" font-size="13" lengthAdjust="spacing" textLength="42" x="1753.5" y="336.0669">import</text><!--MD5=[d18a4d054d286cfcd5e9dc39bb2838cd]
link User to Video--><path codeLine="80" d="M1133.43,183.306 C1087.02,223.029 1001.593,292.623 920.5,340 C891.627,356.8687 881.799,355.8509 851.5,370 C847.377,371.9252 843.035,374.0258 838.818,376.1055 " fill="none" id="User-to-Video" style="stroke:#A80036;stroke-width:1.0;"/><polygon fill="#A80036" points="834.308,378.3447,844.148,377.9263,838.7867,376.1217,840.5912,370.7604,834.308,378.3447" style="stroke:#A80036;stroke-width:1.0;"/><text fill="#000000" font-family="sans-serif" font-size="13" lengthAdjust="spacing" textLength="36" x="943.5" y="336.0669">share</text><!--MD5=[e8a44440e7d883fedaa906df2c0e3d75]
link User to Message--><path codeLine="81" d="M1203.51,275.356 C1208.7,282.011 1214.66,288.003 1221.5,293 C1273.88,331.253 1741.68,306.851 1804.5,323 C1840.9,332.3577 1879.14,351.9011 1905.76,367.3051 " fill="none" id="User-to-Message" style="stroke:#A80036;stroke-width:1.0;"/><polygon fill="#A80036" points="1910.27,369.9342,1904.5055,361.9485,1905.9492,367.4181,1900.4797,368.8618,1910.27,369.9342" style="stroke:#A80036;stroke-width:1.0;"/><text fill="#000000" font-family="sans-serif" font-size="13" lengthAdjust="spacing" textLength="31" x="1852.5" y="336.0669">send</text><!--MD5=[e8a44440e7d883fedaa906df2c0e3d75]
link User to Message--><path codeLine="94" d="M1203.71,275.715 C1208.85,282.235 1214.75,288.103 1221.5,293 C1281.92,336.8096 1826.77,287.657 1892.5,323 C1909.58,332.1817 1922.11,350.4061 1930.08,365.3822 " fill="none" id="User-to-Message-1" style="stroke:#A80036;stroke-width:1.0;"/><polygon fill="#A80036" points="1932.41,369.912,1931.8516,360.079,1930.1235,365.4654,1924.7371,363.7374,1932.41,369.912" style="stroke:#A80036;stroke-width:1.0;"/><text fill="#000000" font-family="sans-serif" font-size="13" lengthAdjust="spacing" textLength="23" x="1914.5" y="336.0669">see</text><!--MD5=[a4c785ea6bb611cdfc632cf01eb4f7c2]
link User to Optometrist--><path codeLine="82" d="M1133.43,199.349 C1101.42,239.968 1051.17,298.576 998.5,340 C984.56,350.9637 967.829,360.8189 952.595,368.7665 " fill="none" id="User-to-Optometrist" style="stroke:#A80036;stroke-width:1.0;"/><polygon fill="#A80036" points="947.92,371.1708,957.7529,370.6111,952.3663,368.8837,954.0936,363.4971,947.92,371.1708" style="stroke:#A80036;stroke-width:1.0;"/><text fill="#000000" font-family="sans-serif" font-size="13" lengthAdjust="spacing" textLength="24" x="1015.5" y="336.0669">find</text><!--MD5=[e67dabbd35c4ec59257a8de2eea4bdc5]
link User to School--><path codeLine="83" d="M1203.53,278.021 C1212.84,311.3873 1221.94,343.9787 1227.83,365.115 " fill="none" id="User-to-School" style="stroke:#A80036;stroke-width:1.0;"/><polygon fill="#A80036" points="1229.19,369.9721,1230.6227,360.228,1227.8456,365.1562,1222.9173,362.3791,1229.19,369.9721" style="stroke:#A80036;stroke-width:1.0;"/><text fill="#000000" font-family="sans-serif" font-size="13" lengthAdjust="spacing" textLength="38" x="1221.5" y="336.0669">follow</text><!--MD5=[901c633d1219c6bb2f145874d26937eb]
link User to LetterRecommendation--><path codeLine="85" d="M1203.69,275.74 C1208.84,282.254 1214.74,288.114 1221.5,293 C1286.85,340.22 1868.43,302.858 1946.5,323 C1982.15,332.1974 2019.36,351.8625 2045.16,367.3471 " fill="none" id="User-to-LetterRecommendation" style="stroke:#A80036;stroke-width:1.0;"/><polygon fill="#A80036" points="2049.52,369.9897,2043.9084,361.8959,2045.2478,367.3919,2039.7519,368.7313,2049.52,369.9897" style="stroke:#A80036;stroke-width:1.0;"/><text fill="#000000" font-family="sans-serif" font-size="13" lengthAdjust="spacing" textLength="32" x="1993.5" y="336.0669">write</text><!--MD5=[663645383e75be06282d0310212cce94]
link User to Advertisement--><path codeLine="87" d="M1133.49,219.955 C1114.12,256.128 1089.05,301.132 1064.5,340 C1059.13,348.5018 1052.85,357.5324 1047.11,365.4942 " fill="none" id="User-to-Advertisement" style="stroke:#A80036;stroke-width:1.0;"/><polygon fill="#A80036" points="1043.99,369.7972,1052.5175,364.8695,1046.93,365.7529,1046.0466,360.1655,1043.99,369.7972" style="stroke:#A80036;stroke-width:1.0;"/><text fill="#000000" font-family="sans-serif" font-size="13" lengthAdjust="spacing" textLength="23" x="1075.5" y="336.0669">see</text><!--MD5=[67141e6eb3ba199f7c4756941637724e]
link User to Group--><path codeLine="88" d="M1133.46,152.447 C966.72,153 256.086,164.724 121.5,323 C100.1483,348.11 148.258,369.7522 180.784,380.9198 " fill="none" id="User-to-Group" style="stroke:#A80036;stroke-width:1.0;"/><polygon fill="#A80036" points="185.858,382.6212,178.5953,375.9689,181.1171,381.0325,176.0534,383.5543,185.858,382.6212" style="stroke:#A80036;stroke-width:1.0;"/><text fill="#000000" font-family="sans-serif" font-size="13" lengthAdjust="spacing" textLength="41" x="122.5" y="336.0669">create</text><!--MD5=[67141e6eb3ba199f7c4756941637724e]
link User to Group--><path codeLine="97" d="M1133.34,152.979 C974.586,155.951 326.955,176.986 204.5,323 C194.982,334.3496 195.83,351.0439 199.008,364.8023 " fill="none" id="User-to-Group-1" style="stroke:#A80036;stroke-width:1.0;"/><polygon fill="#A80036" points="200.269,369.723,201.909,360.0117,199.0275,364.8796,194.1596,361.998,200.269,369.723" style="stroke:#A80036;stroke-width:1.0;"/><text fill="#000000" font-family="sans-serif" font-size="13" lengthAdjust="spacing" textLength="35" x="205.5" y="336.0669">leave</text><!--MD5=[67141e6eb3ba199f7c4756941637724e]
link User to Group--><path codeLine="102" d="M1133.19,154.739 C1013.35,163.319 612.797,200.054 309.5,323 C281.696,334.2709 253.299,353.3929 233.552,368.1617 " fill="none" id="User-to-Group-2" style="stroke:#A80036;stroke-width:1.0;"/><polygon fill="#A80036" points="229.224,371.4326,238.8155,369.1958,233.2125,368.4173,233.991,362.8143,229.224,371.4326" style="stroke:#A80036;stroke-width:1.0;"/><text fill="#000000" font-family="sans-serif" font-size="13" lengthAdjust="spacing" textLength="22" x="310.5" y="336.0669">join</text><!--MD5=[d29f819f8f99482cd5623b298de68c75]
link User to Connection--><path codeLine="89" d="M1203.67,275.775 C1208.82,282.281 1214.73,288.129 1221.5,293 C1294.89,345.7783 1945.68,306.185 2034.5,323 C2086.54,332.8533 2143.59,354.5325 2181.03,370.3651 " fill="none" id="User-to-Connection" style="stroke:#A80036;stroke-width:1.0;"/><polygon fill="#A80036" points="2185.96,372.4607,2179.2441,365.2568,2181.359,370.5034,2176.1124,372.6183,2185.96,372.4607" style="stroke:#A80036;stroke-width:1.0;"/><text fill="#000000" font-family="sans-serif" font-size="13" lengthAdjust="spacing" textLength="41" x="2099.5" y="336.0669">cancel</text><!--MD5=[bec43d67277193a86863b6703a526bb0]
link User to Request--><path codeLine="92" d="M1203.64,275.811 C1208.8,282.308 1214.72,288.145 1221.5,293 C1263.45,323.0215 2098.88,313.0869 2149.5,323 C2200.06,332.901 2255.09,356.4722 2288.95,372.5909 " fill="none" id="User-to-Request" style="stroke:#A80036;stroke-width:1.0;"/><polygon fill="#A80036" points="2293.79,374.9124,2287.4175,367.403,2289.2853,372.7426,2283.9458,374.6105,2293.79,374.9124" style="stroke:#A80036;stroke-width:1.0;"/><text fill="#000000" font-family="sans-serif" font-size="13" lengthAdjust="spacing" textLength="31" x="2209.5" y="336.0669">send</text><!--MD5=[2126dce093f5cfa8a27fbaeca5d85891]
link User to Someone--><path codeLine="93" d="M1153.63,293.147 C1150.72,320.6549 1147.99,346.484 1146.1,364.3833 " fill="none" id="User-to-Someone" style="stroke:#A80036;stroke-width:1.0;"/><polygon fill="#A80036" points="1145.54,369.6768,1150.4643,361.1473,1146.0658,364.7045,1142.5086,360.3061,1145.54,369.6768" style="stroke:#A80036;stroke-width:1.0;"/><text fill="#000000" font-family="sans-serif" font-size="13" lengthAdjust="spacing" textLength="24" x="1151.5" y="336.0669">find</text><!--MD5=[022f38aa651b92be90a5772e2f5db698]
link User to ConnectionRequest--><path codeLine="95" d="M1133.25,154.127 C989.121,161.579 447.523,197.675 345.5,323 C334.527,336.4788 345.02,352.974 358.259,366.1019 " fill="none" id="User-to-ConnectionRequest" style="stroke:#A80036;stroke-width:1.0;"/><polygon fill="#A80036" points="362.05,369.7101,358.2882,360.6079,358.4281,366.2631,352.773,366.403,362.05,369.7101" style="stroke:#A80036;stroke-width:1.0;"/><text fill="#000000" font-family="sans-serif" font-size="13" lengthAdjust="spacing" textLength="36" x="346.5" y="336.0669">reject</text><!--MD5=[022f38aa651b92be90a5772e2f5db698]
link User to ConnectionRequest--><path codeLine="100" d="M1133.13,153.994 C1024.26,159.975 687.287,188.897 451.5,323 C432.731,333.6747 415.927,351.4981 404.252,365.9338 " fill="none" id="User-to-ConnectionRequest-1" style="stroke:#A80036;stroke-width:1.0;"/><polygon fill="#A80036" points="401.098,369.9069,409.827,365.3457,404.2071,365.9911,403.5617,360.3712,401.098,369.9069" style="stroke:#A80036;stroke-width:1.0;"/><text fill="#000000" font-family="sans-serif" font-size="13" lengthAdjust="spacing" textLength="43" x="452.5" y="336.0669">accept</text><!--MD5=[4fe8237c0d6ee2a1af83492a5467bc62]
link User to ProfilePicture--><path codeLine="96" d="M1203.62,275.835 C1208.79,282.326 1214.71,288.155 1221.5,293 C1268.01,326.1803 2193.44,311.9867 2249.5,323 C2296.08,332.1505 2346.55,352.2127 2381.45,367.831 " fill="none" id="User-to-ProfilePicture" style="stroke:#A80036;stroke-width:1.0;"/><polygon fill="#A80036" points="2386.06,369.9065,2379.502,362.5585,2381.5026,367.8498,2376.2113,369.8504,2386.06,369.9065" style="stroke:#A80036;stroke-width:1.0;"/><text fill="#000000" font-family="sans-serif" font-size="13" lengthAdjust="spacing" textLength="43" x="2310.5" y="336.0669">upload</text><!--MD5=[2b89edaa518263021c44da821f8a3df0]
link User to Presence--><path codeLine="98" d="M1203.53,271.174 C1208.72,279.15 1214.67,286.558 1221.5,293 C1254.01,323.6816 1277.94,302.182 1317.5,323 C1339.59,334.6249 1361.67,352.2698 1377.65,366.3912 " fill="none" id="User-to-Presence" style="stroke:#A80036;stroke-width:1.0;"/><polygon fill="#A80036" points="1381.57,369.8997,1377.5201,360.922,1377.8401,366.5698,1372.1923,366.8898,1381.57,369.8997" style="stroke:#A80036;stroke-width:1.0;"/><text fill="#000000" font-family="sans-serif" font-size="13" lengthAdjust="spacing" textLength="32" x="1343.5" y="336.0669">have</text><!--MD5=[9d661380b54d9bff4ee137bc0bb1b8a2]
link User to Information--><path codeLine="101" d="M1203.6,273.401 C1208.77,280.665 1214.7,287.317 1221.5,293 C1278.03,340.2306 1315.12,298.266 1384.5,323 C1415.7,334.1233 1448.49,352.6887 1471.89,367.3006 " fill="none" id="User-to-Information" style="stroke:#A80036;stroke-width:1.0;"/><polygon fill="#A80036" points="1476.15,369.9802,1470.6749,361.7934,1471.922,367.3111,1466.4043,368.5582,1476.15,369.9802" style="stroke:#A80036;stroke-width:1.0;"/><text fill="#000000" font-family="sans-serif" font-size="13" lengthAdjust="spacing" textLength="24" x="1423.5" y="336.0669">find</text><!--MD5=[a00ece9d0c4cd37035e31785d42481d2]
link User to Article--><path codeLine="103" d="M1203.72,274.459 C1208.86,281.375 1214.75,287.668 1221.5,293 C1262.81,325.6315 1405.9,308.482 1456.5,323 C1498.49,335.0474 1543.72,357.9777 1571.58,373.38 " fill="none" id="User-to-Article" style="stroke:#A80036;stroke-width:1.0;"/><polygon fill="#A80036" points="1576.23,375.974,1570.3275,368.0898,1571.8661,373.5334,1566.4225,375.072,1576.23,375.974" style="stroke:#A80036;stroke-width:1.0;"/><text fill="#000000" font-family="sans-serif" font-size="13" lengthAdjust="spacing" textLength="36" x="1502.5" y="336.0669">share</text><!--MD5=[c6e0191a3c12c16b56674e174d647a8a]
@startuml
hide circle
class Student<actor> {
}
class User<actor> {
}
class Administrator<actor> {
}
class User {
	follow()
	accept()
	reject()
	write()
	upload()
	update()
	delete()
	unfollow()
	have()
	add()
	create()
	see()
	share()
	leave()
	send()
	find()
	join()
	import()
	cancel()
}
class Group {
}
class ConnectionRequest {
}
class Profile {
}
class Recommendation {
}
class Video {
}
class Optometrist {
}
class Advertisement {
}
class Someone {
}
class School {
}
class Student {
	grow()
}
class Network {
}
class Office {
}
class Presence {
}
class Information {
}
class Article {
}
class Company {
}
class LinkedInInformation {
}
class Message {
}
class LetterRecommendation {
}
class Connection {
}
class Request {
}
class ProfilePicture {
}
User - -> Profile : update
Student - -> Network : grow
User - -> Company : unfollow
User - -> Recommendation : see
User - -> Office : find
User - -> LinkedInInformation : import
User - -> Video : share
User - -> Message : send
User - -> Optometrist : find
User - -> School : follow
User - -> Profile : delete
User - -> LetterRecommendation : write
User - -> Profile : create
User - -> Advertisement : see
User - -> Group : create
User - -> Connection : cancel
User - -> Profile : add
User - -> Profile : see
User - -> Request : send
User - -> Someone : find
User - -> Message : see
User - -> ConnectionRequest : reject
User - -> ProfilePicture : upload
User - -> Group : leave
User - -> Presence : have
User - -> Company : follow
User - -> ConnectionRequest : accept
User - -> Information : find
User - -> Group : join
User - -> Article : share
@enduml

PlantUML version 1.2021.6beta6(Unknown compile time)
(GPL source distribution)
Java Runtime: Java(TM) SE Runtime Environment
JVM: Java HotSpot(TM) 64-Bit Server VM
Default Encoding: UTF-8
Language: en
Country: US
--></g></svg>