<?xml version="1.0" encoding="UTF-8" standalone="no"?><svg xmlns="http://www.w3.org/2000/svg" xmlns:xlink="http://www.w3.org/1999/xlink" contentScriptType="application/ecmascript" contentStyleType="text/css" height="603px" preserveAspectRatio="none" style="width:1044px;height:603px;background:#FFFFFF;" version="1.1" viewBox="0 0 1044 603" width="1044px" zoomAndPan="magnify"><defs><filter height="300%" id="fsp3z1ujavw01" width="300%" x="-1" y="-1"><feGaussianBlur result="blurOut" stdDeviation="2.0"/><feColorMatrix in="blurOut" result="blurOut2" type="matrix" values="0 0 0 0 0 0 0 0 0 0 0 0 0 0 0 0 0 0 .4 0"/><feOffset dx="4.0" dy="4.0" in="blurOut2" result="blurOut3"/><feBlend in="SourceGraphic" in2="blurOut3" mode="normal"/></filter></defs><g><!--MD5=[3fd616f346a44cd59a91eb10b19e157c]
class User--><rect codeLine="14" fill="#FEFECE" filter="url(#fsp3z1ujavw01)" height="116.7969" id="User" style="stroke:#A80036;stroke-width:1.5;" width="70" x="441.5" y="226"/><text fill="#000000" font-family="sans-serif" font-size="12" lengthAdjust="spacing" textLength="29" x="444.5" y="242.1387">User</text><rect fill="#FFFFFF" height="15.9688" style="stroke:#000000;stroke-width:1.0;stroke-dasharray:2.0,2.0;" width="33" x="481.5" y="223"/><text fill="#000000" font-family="sans-serif" font-size="12" font-style="italic" lengthAdjust="spacing" textLength="31" x="482.5" y="235.1387">actor</text><line style="stroke:#A80036;stroke-width:1.5;" x1="442.5" x2="510.5" y1="249.9688" y2="249.9688"/><line style="stroke:#A80036;stroke-width:1.5;" x1="442.5" x2="510.5" y1="257.9688" y2="257.9688"/><text fill="#000000" font-family="sans-serif" font-size="11" lengthAdjust="spacing" textLength="37" x="447.5" y="272.1792">have()</text><text fill="#000000" font-family="sans-serif" font-size="11" lengthAdjust="spacing" textLength="30" x="447.5" y="284.9839">turn()</text><text fill="#000000" font-family="sans-serif" font-size="11" lengthAdjust="spacing" textLength="43" x="447.5" y="297.7886">select()</text><text fill="#000000" font-family="sans-serif" font-size="11" lengthAdjust="spacing" textLength="49" x="447.5" y="310.5933">choose()</text><text fill="#000000" font-family="sans-serif" font-size="11" lengthAdjust="spacing" textLength="29" x="447.5" y="323.3979">add()</text><text fill="#000000" font-family="sans-serif" font-size="11" lengthAdjust="spacing" textLength="50" x="447.5" y="336.2026">turn_on()</text><!--MD5=[db6d18d8099558415abc41d00477ab92]
class Admin--><rect codeLine="4" fill="#FEFECE" filter="url(#fsp3z1ujavw01)" height="142.4063" id="Admin" style="stroke:#A80036;stroke-width:1.5;" width="84" x="770.5" y="7"/><text fill="#000000" font-family="sans-serif" font-size="12" lengthAdjust="spacing" textLength="37" x="794" y="23.1387">Admin</text><line style="stroke:#A80036;stroke-width:1.5;" x1="771.5" x2="853.5" y1="30.9688" y2="30.9688"/><line style="stroke:#A80036;stroke-width:1.5;" x1="771.5" x2="853.5" y1="38.9688" y2="38.9688"/><text fill="#000000" font-family="sans-serif" font-size="11" lengthAdjust="spacing" textLength="30" x="776.5" y="53.1792">edit()</text><text fill="#000000" font-family="sans-serif" font-size="11" lengthAdjust="spacing" textLength="44" x="776.5" y="65.9839">debug()</text><text fill="#000000" font-family="sans-serif" font-size="11" lengthAdjust="spacing" textLength="30" x="776.5" y="78.7886">see()</text><text fill="#000000" font-family="sans-serif" font-size="11" lengthAdjust="spacing" textLength="44" x="776.5" y="91.5933">assign()</text><text fill="#000000" font-family="sans-serif" font-size="11" lengthAdjust="spacing" textLength="29" x="776.5" y="104.3979">add()</text><text fill="#000000" font-family="sans-serif" font-size="11" lengthAdjust="spacing" textLength="51" x="776.5" y="117.2026">provide()</text><text fill="#000000" font-family="sans-serif" font-size="11" lengthAdjust="spacing" textLength="46" x="776.5" y="130.0073">delete()</text><text fill="#000000" font-family="sans-serif" font-size="11" lengthAdjust="spacing" textLength="72" x="776.5" y="142.812">incorporate()</text><!--MD5=[7c1a0278dec21c72584b17e1785fd623]
class Light--><rect codeLine="22" fill="#FEFECE" filter="url(#fsp3z1ujavw01)" height="39.9688" id="Light" style="stroke:#A80036;stroke-width:1.5;" width="34" x="242.5" y="426.5"/><text fill="#000000" font-family="sans-serif" font-size="12" lengthAdjust="spacing" textLength="28" x="245.5" y="442.6387">Light</text><line style="stroke:#A80036;stroke-width:1.5;" x1="243.5" x2="275.5" y1="450.4688" y2="450.4688"/><line style="stroke:#A80036;stroke-width:1.5;" x1="243.5" x2="275.5" y1="458.4688" y2="458.4688"/><!--MD5=[6de492f04047ff8a778df2bea690e363]
class Gateway--><rect codeLine="24" fill="#FEFECE" filter="url(#fsp3z1ujavw01)" height="52.7734" id="Gateway" style="stroke:#A80036;stroke-width:1.5;" width="58" x="700.5" y="420"/><text fill="#000000" font-family="sans-serif" font-size="12" lengthAdjust="spacing" textLength="52" x="703.5" y="436.1387">Gateway</text><line style="stroke:#A80036;stroke-width:1.5;" x1="701.5" x2="757.5" y1="443.9688" y2="443.9688"/><line style="stroke:#A80036;stroke-width:1.5;" x1="701.5" x2="757.5" y1="451.9688" y2="451.9688"/><text fill="#000000" font-family="sans-serif" font-size="11" lengthAdjust="spacing" textLength="43" x="706.5" y="466.1792">switch()</text><!--MD5=[0276c55ef034c711ad16864ae0c1a09b]
class Id--><rect codeLine="27" fill="#FEFECE" filter="url(#fsp3z1ujavw01)" height="39.9688" id="Id" style="stroke:#A80036;stroke-width:1.5;" width="17" x="721" y="550"/><text fill="#000000" font-family="sans-serif" font-size="12" lengthAdjust="spacing" textLength="11" x="724" y="566.1387">Id</text><line style="stroke:#A80036;stroke-width:1.5;" x1="722" x2="737" y1="573.9688" y2="573.9688"/><line style="stroke:#A80036;stroke-width:1.5;" x1="722" x2="737" y1="581.9688" y2="581.9688"/><!--MD5=[53f6a92bd21ca2f2960392a061f3a1c6]
class Name--><rect codeLine="29" fill="#FEFECE" filter="url(#fsp3z1ujavw01)" height="39.9688" id="Name" style="stroke:#A80036;stroke-width:1.5;" width="40" x="841.5" y="264.5"/><text fill="#000000" font-family="sans-serif" font-size="12" lengthAdjust="spacing" textLength="34" x="844.5" y="280.6387">Name</text><line style="stroke:#A80036;stroke-width:1.5;" x1="842.5" x2="880.5" y1="288.4688" y2="288.4688"/><line style="stroke:#A80036;stroke-width:1.5;" x1="842.5" x2="880.5" y1="296.4688" y2="296.4688"/><!--MD5=[7e68ee526bacd5d3b5b4ed7f8a923c39]
class Switch--><rect codeLine="31" fill="#FEFECE" filter="url(#fsp3z1ujavw01)" height="39.9688" id="Switch" style="stroke:#A80036;stroke-width:1.5;" width="45" x="929" y="426.5"/><text fill="#000000" font-family="sans-serif" font-size="12" lengthAdjust="spacing" textLength="39" x="932" y="442.6387">Switch</text><line style="stroke:#A80036;stroke-width:1.5;" x1="930" x2="973" y1="450.4688" y2="450.4688"/><line style="stroke:#A80036;stroke-width:1.5;" x1="930" x2="973" y1="458.4688" y2="458.4688"/><!--MD5=[0b4e4b4980470ea387cc45de9bd14b5b]
class Application--><rect codeLine="33" fill="#FEFECE" filter="url(#fsp3z1ujavw01)" height="39.9688" id="Application" style="stroke:#A80036;stroke-width:1.5;" width="72" x="311.5" y="426.5"/><text fill="#000000" font-family="sans-serif" font-size="12" lengthAdjust="spacing" textLength="66" x="314.5" y="442.6387">Application</text><line style="stroke:#A80036;stroke-width:1.5;" x1="312.5" x2="382.5" y1="450.4688" y2="450.4688"/><line style="stroke:#A80036;stroke-width:1.5;" x1="312.5" x2="382.5" y1="458.4688" y2="458.4688"/><!--MD5=[463c45b1df3dbfe1c2134e01e0a41cde]
class Screen--><rect codeLine="35" fill="#FEFECE" filter="url(#fsp3z1ujavw01)" height="39.9688" id="Screen" style="stroke:#A80036;stroke-width:1.5;" width="49" x="419" y="426.5"/><text fill="#000000" font-family="sans-serif" font-size="12" lengthAdjust="spacing" textLength="43" x="422" y="442.6387">Screen</text><line style="stroke:#A80036;stroke-width:1.5;" x1="420" x2="467" y1="450.4688" y2="450.4688"/><line style="stroke:#A80036;stroke-width:1.5;" x1="420" x2="467" y1="458.4688" y2="458.4688"/><!--MD5=[e2e04970b1b3f4a5a26dfa860353efc5]
class Control--><rect codeLine="37" fill="#FEFECE" filter="url(#fsp3z1ujavw01)" height="39.9688" id="Control" style="stroke:#A80036;stroke-width:1.5;" width="49" x="503" y="426.5"/><text fill="#000000" font-family="sans-serif" font-size="12" lengthAdjust="spacing" textLength="43" x="506" y="442.6387">Control</text><line style="stroke:#A80036;stroke-width:1.5;" x1="504" x2="551" y1="450.4688" y2="450.4688"/><line style="stroke:#A80036;stroke-width:1.5;" x1="504" x2="551" y1="458.4688" y2="458.4688"/><!--MD5=[964f074a2dd77d134c21b891bb53e381]
class Image--><rect codeLine="39" fill="#FEFECE" filter="url(#fsp3z1ujavw01)" height="39.9688" id="Image" style="stroke:#A80036;stroke-width:1.5;" width="43" x="587" y="426.5"/><text fill="#000000" font-family="sans-serif" font-size="12" lengthAdjust="spacing" textLength="37" x="590" y="442.6387">Image</text><line style="stroke:#A80036;stroke-width:1.5;" x1="588" x2="629" y1="450.4688" y2="450.4688"/><line style="stroke:#A80036;stroke-width:1.5;" x1="588" x2="629" y1="458.4688" y2="458.4688"/><!--MD5=[b098efa4dd65edfeebe973e4edec7c36]
class Floor--><rect codeLine="41" fill="#FEFECE" filter="url(#fsp3z1ujavw01)" height="39.9688" id="Floor" style="stroke:#A80036;stroke-width:1.5;" width="37" x="7" y="426.5"/><text fill="#000000" font-family="sans-serif" font-size="12" lengthAdjust="spacing" textLength="31" x="10" y="442.6387">Floor</text><line style="stroke:#A80036;stroke-width:1.5;" x1="8" x2="43" y1="450.4688" y2="450.4688"/><line style="stroke:#A80036;stroke-width:1.5;" x1="8" x2="43" y1="458.4688" y2="458.4688"/><!--MD5=[78bec0fde86ad92ec1dc3fb343b83709]
class Email--><rect codeLine="43" fill="#FEFECE" filter="url(#fsp3z1ujavw01)" height="39.9688" id="Email" style="stroke:#A80036;stroke-width:1.5;" width="37" x="87" y="426.5"/><text fill="#000000" font-family="sans-serif" font-size="12" lengthAdjust="spacing" textLength="31" x="90" y="442.6387">Email</text><line style="stroke:#A80036;stroke-width:1.5;" x1="88" x2="123" y1="450.4688" y2="450.4688"/><line style="stroke:#A80036;stroke-width:1.5;" x1="88" x2="123" y1="458.4688" y2="458.4688"/><!--MD5=[d218c48b946d362ff1ecd879cabebcad]
class Room--><rect codeLine="45" fill="#FEFECE" filter="url(#fsp3z1ujavw01)" height="39.9688" id="Room" style="stroke:#A80036;stroke-width:1.5;" width="40" x="167.5" y="426.5"/><text fill="#000000" font-family="sans-serif" font-size="12" lengthAdjust="spacing" textLength="34" x="170.5" y="442.6387">Room</text><line style="stroke:#A80036;stroke-width:1.5;" x1="168.5" x2="206.5" y1="450.4688" y2="450.4688"/><line style="stroke:#A80036;stroke-width:1.5;" x1="168.5" x2="206.5" y1="458.4688" y2="458.4688"/><!--MD5=[c944fda913ae73e0ac80ee078bed23fb]
link User to Control--><path codeLine="47" d="M492.162,343.253 C496.555,358.529 501.503,374.953 506.5,390 C509.956,400.407 514.169,411.755 517.912,421.462 " fill="none" id="User-to-Control" style="stroke:#A80036;stroke-width:1.0;"/><polygon fill="#A80036" points="519.819,426.375,520.2901,416.5374,518.0092,421.714,512.8326,419.4331,519.819,426.375" style="stroke:#A80036;stroke-width:1.0;"/><text fill="#000000" font-family="sans-serif" font-size="13" lengthAdjust="spacing" textLength="32" x="507.5" y="386.0669">have</text><!--MD5=[ec99a9ecca4dbd5d39f724ed3a1226e5]
link User to Image--><path codeLine="48" d="M511.527,327.957 C536.364,358.063 568.77,397.342 589.111,421.998 " fill="none" id="User-to-Image" style="stroke:#A80036;stroke-width:1.0;"/><polygon fill="#A80036" points="592.516,426.126,589.8751,416.6378,589.3345,422.2688,583.7035,421.7282,592.516,426.126" style="stroke:#A80036;stroke-width:1.0;"/><text fill="#000000" font-family="sans-serif" font-size="13" lengthAdjust="spacing" textLength="24" x="563.5" y="386.0669">add</text><!--MD5=[c190dcd4d9fd77f53c699cd810713ef5]
link Gateway to Id--><path codeLine="49" d="M729.5,473.267 C729.5,494.3301 729.5,523.9042 729.5,544.5902 " fill="none" id="Gateway-to-Id" style="stroke:#A80036;stroke-width:1.0;"/><polygon fill="#A80036" points="729.5,549.6472,733.5,540.6472,729.5,544.6472,725.5,540.6472,729.5,549.6472" style="stroke:#A80036;stroke-width:1.0;"/><text fill="#000000" font-family="sans-serif" font-size="13" lengthAdjust="spacing" textLength="41" x="730.5" y="516.0669">switch</text><!--MD5=[80ef188495123e0eb89422528c978ef4]
link User to Room--><path codeLine="50" d="M441.342,299.367 C402.601,315.192 338.963,342.816 287.5,373 C260.502,388.835 231.782,410.181 212.08,425.607 " fill="none" id="User-to-Room" style="stroke:#A80036;stroke-width:1.0;"/><polygon fill="#A80036" points="207.769,429,217.3152,426.5774,211.6982,425.9078,212.3677,420.2907,207.769,429" style="stroke:#A80036;stroke-width:1.0;"/><text fill="#000000" font-family="sans-serif" font-size="13" lengthAdjust="spacing" textLength="38" x="288.5" y="386.0669">select</text><!--MD5=[4981c864524f50ab1b82211e3369f909]
link User to Application--><path codeLine="51" d="M441.153,328.069 C429.421,342.3 416.337,358.284 404.5,373 C391.404,389.281 376.848,407.803 365.723,422.05 " fill="none" id="User-to-Application" style="stroke:#A80036;stroke-width:1.0;"/><polygon fill="#A80036" points="362.386,426.328,371.0755,421.692,365.4613,422.3856,364.7677,416.7715,362.386,426.328" style="stroke:#A80036;stroke-width:1.0;"/><text fill="#000000" font-family="sans-serif" font-size="13" lengthAdjust="spacing" textLength="26" x="405.5" y="386.0669">turn</text><!--MD5=[478425156ee10c55cac736d5b0b47b37]
link Admin to User--><path codeLine="52" d="M770.286,104.693 C704.878,144.502 579.952,220.536 516.144,259.371 " fill="none" id="Admin-to-User" style="stroke:#A80036;stroke-width:1.0;"/><polygon fill="#A80036" points="511.657,262.102,521.4247,260.8402,515.9282,259.5027,517.2658,254.0062,511.657,262.102" style="stroke:#A80036;stroke-width:1.0;"/><text fill="#000000" font-family="sans-serif" font-size="13" lengthAdjust="spacing" textLength="41" x="645.5" y="192.0669">assign</text><!--MD5=[478425156ee10c55cac736d5b0b47b37]
link Admin to User--><path codeLine="55" d="M770.367,93.377 C724.13,110.176 648.742,140.626 590.5,179 C563.372,196.874 536.42,221.197 515.539,241.88 " fill="none" id="Admin-to-User-1" style="stroke:#A80036;stroke-width:1.0;"/><polygon fill="#A80036" points="511.977,245.431,521.1751,241.9103,515.5182,241.9012,515.5274,236.2443,511.977,245.431" style="stroke:#A80036;stroke-width:1.0;"/><text fill="#000000" font-family="sans-serif" font-size="13" lengthAdjust="spacing" textLength="24" x="591.5" y="192.0669">add</text><!--MD5=[77ba401aaed80fb302951ee8db8cca99]
link Admin to Switch--><path codeLine="53" d="M854.562,147.085 C860.98,157.723 867.471,168.627 873.5,179 C885.496,199.639 890.891,203.734 899.5,226 C925.979,294.481 941.564,380.384 948.009,421.462 " fill="none" id="Admin-to-Switch" style="stroke:#A80036;stroke-width:1.0;"/><polygon fill="#A80036" points="948.786,426.482,951.3633,416.9764,948.0217,421.5408,943.4573,418.1992,948.786,426.482" style="stroke:#A80036;stroke-width:1.0;"/><text fill="#000000" font-family="sans-serif" font-size="13" lengthAdjust="spacing" textLength="40" x="933.5" y="289.0669">delete</text><!--MD5=[77ba401aaed80fb302951ee8db8cca99]
link Admin to Switch--><path codeLine="62" d="M854.564,101.104 C895.871,125.458 956.375,168.872 982.5,226 C1012.71,292.054 981.528,380.011 963.055,421.677 " fill="none" id="Admin-to-Switch-1" style="stroke:#A80036;stroke-width:1.0;"/><polygon fill="#A80036" points="960.98,426.284,968.3228,419.7202,963.0331,421.725,961.0283,416.4353,960.98,426.284" style="stroke:#A80036;stroke-width:1.0;"/><text fill="#000000" font-family="sans-serif" font-size="13" lengthAdjust="spacing" textLength="41" x="995.5" y="289.0669">assign</text><!--MD5=[004174e6025bfd31cc9058593d99fb9f]
link Admin to Name--><path codeLine="54" d="M829.294,149.091 C838.437,187.247 849.173,232.053 855.65,259.087 " fill="none" id="Admin-to-Name" style="stroke:#A80036;stroke-width:1.0;"/><polygon fill="#A80036" points="856.887,264.25,858.6788,254.5655,855.7214,259.3878,850.8992,256.4304,856.887,264.25" style="stroke:#A80036;stroke-width:1.0;"/><text fill="#000000" font-family="sans-serif" font-size="13" lengthAdjust="spacing" textLength="24" x="840.5" y="192.0669">edit</text><!--MD5=[fe5c00bf3f1838913b1088d1375da4f6]
link User to Light--><path codeLine="56" d="M441.246,311.052 C417.296,328.448 384.928,352.033 356.5,373 C328.386,393.736 321.473,399.076 293.5,420 C289.423,423.05 285.074,426.308 280.896,429.44 " fill="none" id="User-to-Light" style="stroke:#A80036;stroke-width:1.0;"/><polygon fill="#A80036" points="276.79,432.519,286.3905,430.3212,280.7907,429.5199,281.592,423.9201,276.79,432.519" style="stroke:#A80036;stroke-width:1.0;"/><text fill="#000000" font-family="sans-serif" font-size="13" lengthAdjust="spacing" textLength="26" x="357.5" y="386.0669">turn</text><!--MD5=[b61afa64175a2613a4357dafd225d644]
link User to Gateway--><path codeLine="57" d="M511.679,307.747 C560.444,338.587 647.979,393.945 695.894,424.247 " fill="none" id="User-to-Gateway" style="stroke:#A80036;stroke-width:1.0;"/><polygon fill="#A80036" points="700.122,426.921,694.6541,418.7294,695.8964,424.2482,690.3776,425.4905,700.122,426.921" style="stroke:#A80036;stroke-width:1.0;"/><text fill="#000000" font-family="sans-serif" font-size="13" lengthAdjust="spacing" textLength="24" x="641.5" y="386.0669">add</text><!--MD5=[c986a0e60bfea2f4954994103c35e1e1]
link User to Screen--><path codeLine="58" d="M449.04,343.353 C445.504,353.057 442.443,363.17 440.5,373 C439.035,380.412 440.296,382.447 440.5,390 C440.775,400.173 441.332,411.384 441.893,421.051 " fill="none" id="User-to-Screen" style="stroke:#A80036;stroke-width:1.0;"/><polygon fill="#A80036" points="442.203,426.247,445.6585,417.0242,441.9044,421.2559,437.6727,417.5019,442.203,426.247" style="stroke:#A80036;stroke-width:1.0;"/><text fill="#000000" font-family="sans-serif" font-size="13" lengthAdjust="spacing" textLength="24" x="441.5" y="386.0669">add</text><!--MD5=[08e4dc3319c42cf6c2761fa3afa7ae50]
link Admin to Gateway--><path codeLine="59" d="M796.897,149.135 C782.824,212.194 761.484,307.337 742.5,390 C740.647,398.067 738.618,406.787 736.724,414.873 " fill="none" id="Admin-to-Gateway" style="stroke:#A80036;stroke-width:1.0;"/><polygon fill="#A80036" points="735.566,419.814,741.5147,411.9646,736.7073,414.946,733.7259,410.1386,735.566,419.814" style="stroke:#A80036;stroke-width:1.0;"/><text fill="#000000" font-family="sans-serif" font-size="13" lengthAdjust="spacing" textLength="40" x="780.5" y="289.0669">delete</text><!--MD5=[e1b43ed5ceef5606070359631aba66f0]
link User to Floor--><path codeLine="60" d="M441.495,290.304 C377.784,299.926 239.581,324.886 132.5,373 C101.0308,387.14 68.7663,410.446 48.0128,426.808 " fill="none" id="User-to-Floor" style="stroke:#A80036;stroke-width:1.0;"/><polygon fill="#A80036" points="44.0192,429.984,53.5534,427.5146,47.9331,426.8726,48.5751,421.2523,44.0192,429.984" style="stroke:#A80036;stroke-width:1.0;"/><text fill="#000000" font-family="sans-serif" font-size="13" lengthAdjust="spacing" textLength="38" x="133.5" y="386.0669">select</text><!--MD5=[dbc364445409b51c9b407d19a07b4adf]
link User to Email--><path codeLine="61" d="M441.489,293.168 C388.674,305.536 286.318,332.657 206.5,373 C177.666,387.574 148.022,409.89 128.372,425.913 " fill="none" id="User-to-Email" style="stroke:#A80036;stroke-width:1.0;"/><polygon fill="#A80036" points="124.09,429.434,133.5819,426.8066,127.9518,426.258,128.5004,420.6278,124.09,429.434" style="stroke:#A80036;stroke-width:1.0;"/><text fill="#000000" font-family="sans-serif" font-size="13" lengthAdjust="spacing" textLength="46" x="207.5" y="386.0669">choose</text><!--MD5=[3d66c4360131e009b44029ce60747c12]
link User to Switch--><path codeLine="63" d="M511.814,297.395 C602.49,327.939 842.112,408.653 923.779,436.162 " fill="none" id="User-to-Switch" style="stroke:#A80036;stroke-width:1.0;"/><polygon fill="#A80036" points="928.926,437.896,921.6738,431.2322,924.1876,436.2999,919.12,438.8137,928.926,437.896" style="stroke:#A80036;stroke-width:1.0;"/><text fill="#000000" font-family="sans-serif" font-size="13" lengthAdjust="spacing" textLength="24" x="784.5" y="386.0669">add</text><!--MD5=[064ff0da8670bd014231fecc0104aeee]
@startuml
hide circle
class User<actor> {
}
class Admin {
	edit()
	debug()
	see()
	assign()
	add()
	provide()
	delete()
	incorporate()
}
class User {
	have()
	turn()
	select()
	choose()
	add()
	turn_on()
}
class Light {
}
class Gateway {
	switch()
}
class Id {
}
class Name {
}
class Switch {
}
class Application {
}
class Screen {
}
class Control {
}
class Image {
}
class Floor {
}
class Email {
}
class Room {
}
User - -> Control : have
User - -> Image : add
Gateway - -> Id : switch
User - -> Room : select
User - -> Application : turn
Admin - -> User : assign
Admin - -> Switch : delete
Admin - -> Name : edit
Admin - -> User : add
User - -> Light : turn
User - -> Gateway : add
User - -> Screen : add
Admin - -> Gateway : delete
User - -> Floor : select
User - -> Email : choose
Admin - -> Switch : assign
User - -> Switch : add
@enduml

PlantUML version 1.2021.9beta2(Unknown compile time)
(GPL source distribution)
Java Runtime: Java(TM) SE Runtime Environment
JVM: Java HotSpot(TM) 64-Bit Server VM
Default Encoding: UTF-8
Language: en
Country: US
--></g></svg>