<?xml version="1.0" encoding="UTF-8" standalone="no"?><svg xmlns="http://www.w3.org/2000/svg" xmlns:xlink="http://www.w3.org/1999/xlink" contentScriptType="application/ecmascript" contentStyleType="text/css" height="488px" preserveAspectRatio="none" style="width:1017px;height:488px;background:#FFFFFF;" version="1.1" viewBox="0 0 1017 488" width="1017px" zoomAndPan="magnify"><defs><filter height="300%" id="f1re5jhet57j95" width="300%" x="-1" y="-1"><feGaussianBlur result="blurOut" stdDeviation="2.0"/><feColorMatrix in="blurOut" result="blurOut2" type="matrix" values="0 0 0 0 0 0 0 0 0 0 0 0 0 0 0 0 0 0 .4 0"/><feOffset dx="4.0" dy="4.0" in="blurOut2" result="blurOut3"/><feBlend in="SourceGraphic" in2="blurOut3" mode="normal"/></filter></defs><g><!--MD5=[70aa74288b4705a51315db4e0d6b3cbb]
class CaseManager--><rect codeLine="39" fill="#FEFECE" filter="url(#f1re5jhet57j95)" height="39.9688" id="CaseManager" style="stroke:#A80036;stroke-width:1.5;" width="123" x="271.5865" y="10"/><text fill="#000000" font-family="sans-serif" font-size="12" lengthAdjust="spacing" textLength="82" x="274.5865" y="26.1387">CaseManager</text><rect fill="#FFFFFF" height="15.9688" style="stroke:#000000;stroke-width:1.0;stroke-dasharray:2.0,2.0;" width="33" x="364.5865" y="7"/><text fill="#000000" font-family="sans-serif" font-size="12" font-style="italic" lengthAdjust="spacing" textLength="31" x="365.5865" y="19.1387">actor</text><line style="stroke:#A80036;stroke-width:1.5;" x1="272.5865" x2="393.5865" y1="33.9688" y2="33.9688"/><line style="stroke:#A80036;stroke-width:1.5;" x1="272.5865" x2="393.5865" y1="41.9688" y2="41.9688"/><!--MD5=[e8dcfdde5c6ce5239f59acd294696d72]
class Case--><rect codeLine="4" fill="#FEFECE" filter="url(#f1re5jhet57j95)" height="39.9688" id="Case" style="stroke:#A80036;stroke-width:1.5;" width="36" x="77.0863" y="10"/><text fill="#000000" font-family="sans-serif" font-size="12" lengthAdjust="spacing" textLength="30" x="80.0863" y="26.1387">Case</text><line style="stroke:#A80036;stroke-width:1.5;" x1="78.0863" x2="112.0863" y1="33.9688" y2="33.9688"/><line style="stroke:#A80036;stroke-width:1.5;" x1="78.0863" x2="112.0863" y1="41.9688" y2="41.9688"/><!--MD5=[b24ed8d4ae84bae9290d9aab401637c7]
class Manager--><rect codeLine="6" fill="#FEFECE" filter="url(#f1re5jhet57j95)" height="116.7969" id="Manager" style="stroke:#A80036;stroke-width:1.5;" width="67" x="299.5865" y="111"/><text fill="#000000" font-family="sans-serif" font-size="12" lengthAdjust="spacing" textLength="52" x="307.0865" y="127.1387">Manager</text><line style="stroke:#A80036;stroke-width:1.5;" x1="300.5865" x2="365.5865" y1="134.9688" y2="134.9688"/><line style="stroke:#A80036;stroke-width:1.5;" x1="300.5865" x2="365.5865" y1="142.9688" y2="142.9688"/><text fill="#000000" font-family="sans-serif" font-size="11" lengthAdjust="spacing" textLength="46" x="305.5865" y="157.1792">upload()</text><text fill="#000000" font-family="sans-serif" font-size="11" lengthAdjust="spacing" textLength="26" x="305.5865" y="169.9839">run()</text><text fill="#000000" font-family="sans-serif" font-size="11" lengthAdjust="spacing" textLength="55" x="305.5865" y="182.7886">manage()</text><text fill="#000000" font-family="sans-serif" font-size="11" lengthAdjust="spacing" textLength="51" x="305.5865" y="195.5933">monitor()</text><text fill="#000000" font-family="sans-serif" font-size="11" lengthAdjust="spacing" textLength="45" x="305.5865" y="208.3979">create()</text><text fill="#000000" font-family="sans-serif" font-size="11" lengthAdjust="spacing" textLength="36" x="305.5865" y="221.2026">save()</text><!--MD5=[63dd87716ef75a5caca5dce59428e94a]
class File--><rect codeLine="14" fill="#FEFECE" filter="url(#f1re5jhet57j95)" height="39.9688" id="File" style="stroke:#A80036;stroke-width:1.5;" width="27" x="15.5863" y="311.5"/><text fill="#000000" font-family="sans-serif" font-size="12" lengthAdjust="spacing" textLength="21" x="18.5863" y="327.6387">File</text><line style="stroke:#A80036;stroke-width:1.5;" x1="16.5863" x2="41.5863" y1="335.4688" y2="335.4688"/><line style="stroke:#A80036;stroke-width:1.5;" x1="16.5863" x2="41.5863" y1="343.4688" y2="343.4688"/><!--MD5=[dbb8b4f13c7b21394f9d757e58732f45]
class Service--><rect codeLine="16" fill="#FEFECE" filter="url(#f1re5jhet57j95)" height="39.9688" id="Service" style="stroke:#A80036;stroke-width:1.5;" width="52" x="865.0865" y="311.5"/><text fill="#000000" font-family="sans-serif" font-size="12" lengthAdjust="spacing" textLength="46" x="868.0865" y="327.6387">Service</text><line style="stroke:#A80036;stroke-width:1.5;" x1="866.0865" x2="916.0865" y1="335.4688" y2="335.4688"/><line style="stroke:#A80036;stroke-width:1.5;" x1="866.0865" x2="916.0865" y1="343.4688" y2="343.4688"/><!--MD5=[dc30b613f1e19857666fe974d6d5a9b4]
class Youth--><rect codeLine="18" fill="#FEFECE" filter="url(#f1re5jhet57j95)" height="65.5781" id="Youth" style="stroke:#A80036;stroke-width:1.5;" width="59" x="919.5865" y="136.5"/><text fill="#000000" font-family="sans-serif" font-size="12" lengthAdjust="spacing" textLength="33" x="932.5865" y="152.6387">Youth</text><line style="stroke:#A80036;stroke-width:1.5;" x1="920.5865" x2="977.5865" y1="160.4688" y2="160.4688"/><line style="stroke:#A80036;stroke-width:1.5;" x1="920.5865" x2="977.5865" y1="168.4688" y2="168.4688"/><text fill="#000000" font-family="sans-serif" font-size="11" lengthAdjust="spacing" textLength="37" x="925.5865" y="182.6792">have()</text><text fill="#000000" font-family="sans-serif" font-size="11" lengthAdjust="spacing" textLength="47" x="925.5865" y="195.4839">access()</text><!--MD5=[dab16d122782a892ddb6ee0eadcd68f0]
class Access--><rect codeLine="22" fill="#FEFECE" filter="url(#f1re5jhet57j95)" height="39.9688" id="Access" style="stroke:#A80036;stroke-width:1.5;" width="50" x="953.0865" y="311.5"/><text fill="#000000" font-family="sans-serif" font-size="12" lengthAdjust="spacing" textLength="44" x="956.0865" y="327.6387">Access</text><line style="stroke:#A80036;stroke-width:1.5;" x1="954.0865" x2="1002.0865" y1="335.4688" y2="335.4688"/><line style="stroke:#A80036;stroke-width:1.5;" x1="954.0865" x2="1002.0865" y1="343.4688" y2="343.4688"/><!--MD5=[8f3fa1c68227f7296546d55286502fc6]
class Frequency--><rect codeLine="24" fill="#FEFECE" filter="url(#f1re5jhet57j95)" height="39.9688" id="Frequency" style="stroke:#A80036;stroke-width:1.5;" width="70" x="93.0863" y="311.5"/><text fill="#000000" font-family="sans-serif" font-size="12" lengthAdjust="spacing" textLength="64" x="96.0863" y="327.6387">Frequency</text><line style="stroke:#A80036;stroke-width:1.5;" x1="94.0863" x2="162.0863" y1="335.4688" y2="335.4688"/><line style="stroke:#A80036;stroke-width:1.5;" x1="94.0863" x2="162.0863" y1="343.4688" y2="343.4688"/><!--MD5=[2e42295458bb0bec21c9622a623eb29e]
class Time--><rect codeLine="26" fill="#FEFECE" filter="url(#f1re5jhet57j95)" height="52.7734" id="Time" style="stroke:#A80036;stroke-width:1.5;" width="44" x="311.0865" y="305"/><text fill="#000000" font-family="sans-serif" font-size="12" lengthAdjust="spacing" textLength="29" x="318.5865" y="321.1387">Time</text><line style="stroke:#A80036;stroke-width:1.5;" x1="312.0865" x2="354.0865" y1="328.9688" y2="328.9688"/><line style="stroke:#A80036;stroke-width:1.5;" x1="312.0865" x2="354.0865" y1="336.9688" y2="336.9688"/><text fill="#000000" font-family="sans-serif" font-size="11" lengthAdjust="spacing" textLength="32" x="317.0865" y="351.1792">lose()</text><!--MD5=[c881b25adf3665c6568c9693d41a70f3]
class Activity--><rect codeLine="29" fill="#FEFECE" filter="url(#f1re5jhet57j95)" height="39.9688" id="Activity" style="stroke:#A80036;stroke-width:1.5;" width="49" x="247.5865" y="435"/><text fill="#000000" font-family="sans-serif" font-size="12" lengthAdjust="spacing" textLength="43" x="250.5865" y="451.1387">Activity</text><line style="stroke:#A80036;stroke-width:1.5;" x1="248.5865" x2="295.5865" y1="458.9688" y2="458.9688"/><line style="stroke:#A80036;stroke-width:1.5;" x1="248.5865" x2="295.5865" y1="466.9688" y2="466.9688"/><!--MD5=[59b530d44ae785dc18db921986a9c15c]
class Document--><rect codeLine="31" fill="#FEFECE" filter="url(#f1re5jhet57j95)" height="39.9688" id="Document" style="stroke:#A80036;stroke-width:1.5;" width="67" x="390.5865" y="311.5"/><text fill="#000000" font-family="sans-serif" font-size="12" lengthAdjust="spacing" textLength="61" x="393.5865" y="327.6387">Document</text><line style="stroke:#A80036;stroke-width:1.5;" x1="391.5865" x2="456.5865" y1="335.4688" y2="335.4688"/><line style="stroke:#A80036;stroke-width:1.5;" x1="391.5865" x2="456.5865" y1="343.4688" y2="343.4688"/><!--MD5=[f9a29335b499db729be669fd1bd54958]
class Account--><rect codeLine="33" fill="#FEFECE" filter="url(#f1re5jhet57j95)" height="39.9688" id="Account" style="stroke:#A80036;stroke-width:1.5;" width="54" x="493.0865" y="311.5"/><text fill="#000000" font-family="sans-serif" font-size="12" lengthAdjust="spacing" textLength="48" x="496.0865" y="327.6387">Account</text><line style="stroke:#A80036;stroke-width:1.5;" x1="494.0865" x2="546.0865" y1="335.4688" y2="335.4688"/><line style="stroke:#A80036;stroke-width:1.5;" x1="494.0865" x2="546.0865" y1="343.4688" y2="343.4688"/><!--MD5=[3e5b84d7c7f2d9880c56f63037c32f18]
class MonitorCase--><rect codeLine="35" fill="#FEFECE" filter="url(#f1re5jhet57j95)" height="39.9688" id="MonitorCase" style="stroke:#A80036;stroke-width:1.5;" width="81" x="582.5865" y="311.5"/><text fill="#000000" font-family="sans-serif" font-size="12" lengthAdjust="spacing" textLength="75" x="585.5865" y="327.6387">MonitorCase</text><line style="stroke:#A80036;stroke-width:1.5;" x1="583.5865" x2="662.5865" y1="335.4688" y2="335.4688"/><line style="stroke:#A80036;stroke-width:1.5;" x1="583.5865" x2="662.5865" y1="343.4688" y2="343.4688"/><!--MD5=[2171e31279d9a49de620b944eca7c983]
class ManagementService--><rect codeLine="37" fill="#FEFECE" filter="url(#f1re5jhet57j95)" height="39.9688" id="ManagementService" style="stroke:#A80036;stroke-width:1.5;" width="129" x="698.5865" y="311.5"/><text fill="#000000" font-family="sans-serif" font-size="12" lengthAdjust="spacing" textLength="123" x="701.5865" y="327.6387">ManagementService</text><line style="stroke:#A80036;stroke-width:1.5;" x1="699.5865" x2="826.5865" y1="335.4688" y2="335.4688"/><line style="stroke:#A80036;stroke-width:1.5;" x1="699.5865" x2="826.5865" y1="343.4688" y2="343.4688"/><!--MD5=[c587a1797c16b191946eea7a945b96f9]
link Manager to Document--><path codeLine="41" d="M365.9395,228.264 C381.3695,255.393 398.9065,286.228 410.6495,306.875 " fill="none" id="Manager-to-Document" style="stroke:#A80036;stroke-width:1.0;"/><polygon fill="#A80036" points="413.2115,311.379,412.2393,301.5782,410.7397,307.0327,405.2852,305.5331,413.2115,311.379" style="stroke:#A80036;stroke-width:1.0;"/><text fill="#000000" font-family="sans-serif" font-size="13" lengthAdjust="spacing" textLength="43" x="393.0865" y="271.0669">upload</text><!--MD5=[fdf04c7bba981775c0945b8f2aaea74a]
link Youth to Access--><path codeLine="42" d="M954.9545,202.878 C960.5015,233.481 968.6975,278.702 973.6985,306.291 " fill="none" id="Youth-to-Access" style="stroke:#A80036;stroke-width:1.0;"/><polygon fill="#A80036" points="974.5935,311.23,976.9248,301.6611,973.702,306.3101,969.053,303.0873,974.5935,311.23" style="stroke:#A80036;stroke-width:1.0;"/><text fill="#000000" font-family="sans-serif" font-size="13" lengthAdjust="spacing" textLength="32" x="969.0865" y="271.0669">have</text><!--MD5=[f4da411f92095118d26502e401646de0]
reverse link CaseManager to Manager--><path codeLine="43" d="M333.0865,70.565 C333.0865,83.149 333.0865,97.334 333.0865,110.922 " fill="none" id="CaseManager-backto-Manager" style="stroke:#A80036;stroke-width:1.0;"/><polygon fill="none" points="326.0865,70.119,333.0865,50.119,340.0865,70.119,326.0865,70.119" style="stroke:#A80036;stroke-width:1.0;"/><!--MD5=[f6a2c872e8d3dbac80eeb5d0b058c8fd]
link Manager to Activity--><path codeLine="44" d="M299.4205,211.527 C280.9105,236.799 259.7845,270.816 250.0865,305 C237.8745,348.042 251.8145,400.1084 262.4035,429.9088 " fill="none" id="Manager-to-Activity" style="stroke:#A80036;stroke-width:1.0;"/><polygon fill="#A80036" points="264.2015,434.8512,264.8826,425.0259,262.4916,430.1526,257.3649,427.7617,264.2015,434.8512" style="stroke:#A80036;stroke-width:1.0;"/><text fill="#000000" font-family="sans-serif" font-size="13" lengthAdjust="spacing" textLength="41" x="251.0865" y="336.0669">create</text><!--MD5=[9094504a78a8a624dc0e3735af7308d8]
link Manager to File--><path codeLine="45" d="M299.4195,174.996 C226.8095,185.456 59.3498,213.931 26.0863,258 C15.8583,271.55 17.2303,290.926 20.8237,306.238 " fill="none" id="Manager-to-File" style="stroke:#A80036;stroke-width:1.0;"/><polygon fill="#A80036" points="22.1139,311.261,23.7483,301.5487,20.8696,306.4183,16,303.5396,22.1139,311.261" style="stroke:#A80036;stroke-width:1.0;"/><text fill="#000000" font-family="sans-serif" font-size="13" lengthAdjust="spacing" textLength="21" x="27.0863" y="271.0669">run</text><!--MD5=[9094504a78a8a624dc0e3735af7308d8]
link Manager to File--><path codeLine="55" d="M299.2625,179.088 C253.1785,191.75 169.1825,218.3 106.0863,258 C83.0203,272.513 60.8179,294.567 46.231,310.54 " fill="none" id="Manager-to-File-1" style="stroke:#A80036;stroke-width:1.0;"/><polygon fill="#A80036" points="42.6907,314.462,51.6903,310.4612,46.0408,310.7504,45.7517,305.1009,42.6907,314.462" style="stroke:#A80036;stroke-width:1.0;"/><text fill="#000000" font-family="sans-serif" font-size="13" lengthAdjust="spacing" textLength="53" x="107.0863" y="271.0669">manage</text><!--MD5=[2fe8c14c7ea51c13c14db97931569c74]
link Manager to ManagementService--><path codeLine="46" d="M366.9005,181.027 C416.6285,196.711 512.2345,227.633 592.0865,258 C634.3145,274.059 681.5415,294.257 715.6455,309.252 " fill="none" id="Manager-to-ManagementService" style="stroke:#A80036;stroke-width:1.0;"/><polygon fill="#A80036" points="720.5795,311.426,713.9558,304.1372,716.0038,309.4103,710.7307,311.4583,720.5795,311.426" style="stroke:#A80036;stroke-width:1.0;"/><text fill="#000000" font-family="sans-serif" font-size="13" lengthAdjust="spacing" textLength="41" x="636.0865" y="271.0669">create</text><!--MD5=[d898aa69dea030ca287f48f331dab8e3]
link Manager to Account--><path codeLine="47" d="M366.6545,195.263 C389.2965,212.316 419.5795,235.816 445.0865,258 C463.4785,273.996 483.2625,293.212 497.8905,307.841 " fill="none" id="Manager-to-Account" style="stroke:#A80036;stroke-width:1.0;"/><polygon fill="#A80036" points="501.4945,311.457,497.9738,302.2589,497.9646,307.9158,492.3078,307.9066,501.4945,311.457" style="stroke:#A80036;stroke-width:1.0;"/><text fill="#000000" font-family="sans-serif" font-size="13" lengthAdjust="spacing" textLength="53" x="463.0865" y="271.0669">manage</text><!--MD5=[2645ed043f89adf79d596f755b25ac73]
reverse link Case to File--><path codeLine="48" d="M79.8308,61.873 C59.6181,104.669 25.0114,185.013 12.0863,258 C8.8626,276.204 14.5448,296.693 20.1893,311.234 " fill="none" id="Case-backto-File" style="stroke:#A80036;stroke-width:1.0;"/><polygon fill="#FFFFFF" points="85.4814,50.094,79.2797,53.7737,80.2911,60.9135,86.4927,57.2338,85.4814,50.094" style="stroke:#A80036;stroke-width:1.0;"/><!--MD5=[16eabf39af29deb74e27fa65311fa276]
reverse link Case to Manager--><path codeLine="49" d="M124.8005,48.167 C169.2345,73.838 252.7495,122.087 299.3955,149.036 " fill="none" id="Case-backto-Manager" style="stroke:#A80036;stroke-width:1.0;"/><polygon fill="#FFFFFF" points="113.3665,41.561,116.5601,48.0263,123.7564,47.565,120.5628,41.0997,113.3665,41.561" style="stroke:#A80036;stroke-width:1.0;"/><!--MD5=[ff4e19812009c4a9874807cde86c2f36]
link Manager to Frequency--><path codeLine="50" d="M299.3295,185.67 C267.4645,201.014 219.4315,226.872 184.0865,258 C167.8305,272.316 153.0215,291.92 142.7205,307.133 " fill="none" id="Manager-to-Frequency" style="stroke:#A80036;stroke-width:1.0;"/><polygon fill="#A80036" points="139.9375,311.299,148.263,306.0373,142.7149,307.1414,141.6108,301.5933,139.9375,311.299" style="stroke:#A80036;stroke-width:1.0;"/><text fill="#000000" font-family="sans-serif" font-size="13" lengthAdjust="spacing" textLength="21" x="185.0865" y="271.0669">run</text><!--MD5=[bca0583dc7b79257a446bf78323c68ac]
link Manager to Service--><path codeLine="51" d="M366.7825,175.978 C450.2585,190.26 672.3795,232.632 845.0865,305 C850.1155,307.107 855.3015,309.619 860.2975,312.232 " fill="none" id="Manager-to-Service" style="stroke:#A80036;stroke-width:1.0;"/><polygon fill="#A80036" points="864.8225,314.651,858.7717,306.88,860.4131,312.2935,854.9997,313.9349,864.8225,314.651" style="stroke:#A80036;stroke-width:1.0;"/><text fill="#000000" font-family="sans-serif" font-size="13" lengthAdjust="spacing" textLength="50" x="766.0865" y="271.0669">monitor</text><!--MD5=[87a8dca685390457591af073bf35855b]
link Manager to MonitorCase--><path codeLine="52" d="M366.7535,183.338 C405.9425,198.845 472.0595,226.768 525.0865,258 C550.3475,272.878 576.9645,292.883 596.0735,308.109 " fill="none" id="Manager-to-MonitorCase" style="stroke:#A80036;stroke-width:1.0;"/><polygon fill="#A80036" points="600.2775,311.478,595.7547,302.729,596.3753,308.3517,590.7526,308.9724,600.2775,311.478" style="stroke:#A80036;stroke-width:1.0;"/><text fill="#000000" font-family="sans-serif" font-size="13" lengthAdjust="spacing" textLength="31" x="552.0865" y="271.0669">save</text><!--MD5=[de5e3191b1ab94e40b28ecd23b327baf]
reverse link Youth to Service--><path codeLine="53" d="M932.8305,215.345 C921.3805,246.929 906.6235,287.638 898.0715,311.23 " fill="none" id="Youth-backto-Service" style="stroke:#A80036;stroke-width:1.0;"/><polygon fill="#FFFFFF" points="937.3495,202.878,931.5442,207.1557,933.2601,214.1597,939.0653,209.882,937.3495,202.878" style="stroke:#A80036;stroke-width:1.0;"/><!--MD5=[3c9711882cf7bc34c8adfc76a608a793]
link Time to Activity--><path codeLine="54" d="M320.1495,358.267 C309.4855,379.5086 294.4755,409.4061 284.0785,430.1142 " fill="none" id="Time-to-Activity" style="stroke:#A80036;stroke-width:1.0;"/><polygon fill="#A80036" points="281.8025,434.6472,289.4161,428.3996,284.0464,430.179,282.267,424.8093,281.8025,434.6472" style="stroke:#A80036;stroke-width:1.0;"/><text fill="#000000" font-family="sans-serif" font-size="13" lengthAdjust="spacing" textLength="26" x="306.0865" y="401.0669">lose</text><!--MD5=[e9ec99bf7e27714a78d5fae6d5c03e65]
link Manager to Time--><path codeLine="56" d="M333.0865,228.264 C333.0865,252.421 333.0865,279.518 333.0865,299.742 " fill="none" id="Manager-to-Time" style="stroke:#A80036;stroke-width:1.0;"/><polygon fill="#A80036" points="333.0865,304.993,337.0865,295.993,333.0865,299.993,329.0865,295.993,333.0865,304.993" style="stroke:#A80036;stroke-width:1.0;"/><text fill="#000000" font-family="sans-serif" font-size="13" lengthAdjust="spacing" textLength="31" x="334.0865" y="271.0669">save</text><!--MD5=[fbb32727a26c27e20ab90fa186542e67]
@startuml
hide circle
class CaseManager<actor> {
}
class Case {
}
class Manager {
	upload()
	run()
	manage()
	monitor()
	create()
	save()
}
class File {
}
class Service {
}
class Youth {
	have()
	access()
}
class Access {
}
class Frequency {
}
class Time {
	lose()
}
class Activity {
}
class Document {
}
class Account {
}
class MonitorCase {
}
class ManagementService {
}
class CaseManager {
}
Manager - -> Document : upload
Youth - -> Access : have
CaseManager <|- - Manager
Manager - -> Activity : create
Manager - -> File : run
Manager - -> ManagementService : create
Manager - -> Account : manage
Case o- - File
Case o- - Manager
Manager - -> Frequency : run
Manager - -> Service : monitor
Manager - -> MonitorCase : save
Youth o- - Service
Time - -> Activity : lose
Manager - -> File : manage
Manager - -> Time : save
@enduml

PlantUML version 1.2021.10beta5(Unknown compile time)
(GPL source distribution)
Java Runtime: Java(TM) SE Runtime Environment
JVM: Java HotSpot(TM) 64-Bit Server VM
Default Encoding: UTF-8
Language: en
Country: US
--></g></svg>