<?xml version="1.0" encoding="UTF-8" standalone="no"?><svg xmlns="http://www.w3.org/2000/svg" xmlns:xlink="http://www.w3.org/1999/xlink" contentScriptType="application/ecmascript" contentStyleType="text/css" height="1049px" preserveAspectRatio="none" style="width:2431px;height:1049px;background:#FFFFFF;" version="1.1" viewBox="0 0 2431 1049" width="2431px" zoomAndPan="magnify"><defs><filter height="300%" id="f4nn432w3ax3t" width="300%" x="-1" y="-1"><feGaussianBlur result="blurOut" stdDeviation="2.0"/><feColorMatrix in="blurOut" result="blurOut2" type="matrix" values="0 0 0 0 0 0 0 0 0 0 0 0 0 0 0 0 0 0 .4 0"/><feOffset dx="4.0" dy="4.0" in="blurOut2" result="blurOut3"/><feBlend in="SourceGraphic" in2="blurOut3" mode="normal"/></filter></defs><g><!--MD5=[67ea9f8eb7ab97465d83c225b092f5fe]
class Consumer--><rect codeLine="33" fill="#FEFECE" filter="url(#f4nn432w3ax3t)" height="308.8672" id="Consumer" style="stroke:#A80036;stroke-width:1.5;" width="102" x="1489" y="108"/><text fill="#000000" font-family="sans-serif" font-size="12" lengthAdjust="spacing" textLength="61" x="1492" y="124.1387">Consumer</text><rect fill="#FFFFFF" height="15.9688" style="stroke:#000000;stroke-width:1.0;stroke-dasharray:2.0,2.0;" width="33" x="1561" y="105"/><text fill="#000000" font-family="sans-serif" font-size="12" font-style="italic" lengthAdjust="spacing" textLength="31" x="1562" y="117.1387">actor</text><line style="stroke:#A80036;stroke-width:1.5;" x1="1490" x2="1590" y1="131.9688" y2="131.9688"/><text fill="#000000" font-family="sans-serif" font-size="11" lengthAdjust="spacing" textLength="49" x="1495" y="146.1792">occasion</text><text fill="#000000" font-family="sans-serif" font-size="11" lengthAdjust="spacing" textLength="30" x="1495" y="158.9839">order</text><text fill="#000000" font-family="sans-serif" font-size="11" lengthAdjust="spacing" textLength="66" x="1495" y="171.7886">experience</text><text fill="#000000" font-family="sans-serif" font-size="11" lengthAdjust="spacing" textLength="69" x="1495" y="184.5933">orderHistory</text><line style="stroke:#A80036;stroke-width:1.5;" x1="1490" x2="1590" y1="191.1875" y2="191.1875"/><text fill="#000000" font-family="sans-serif" font-size="11" lengthAdjust="spacing" textLength="40" x="1495" y="205.3979">make()</text><text fill="#000000" font-family="sans-serif" font-size="11" lengthAdjust="spacing" textLength="45" x="1495" y="218.2026">cancel()</text><text fill="#000000" font-family="sans-serif" font-size="11" lengthAdjust="spacing" textLength="29" x="1495" y="231.0073">buy()</text><text fill="#000000" font-family="sans-serif" font-size="11" lengthAdjust="spacing" textLength="47" x="1495" y="243.812">review()</text><text fill="#000000" font-family="sans-serif" font-size="11" lengthAdjust="spacing" textLength="37" x="1495" y="256.6167">have()</text><text fill="#000000" font-family="sans-serif" font-size="11" lengthAdjust="spacing" textLength="48" x="1495" y="269.4214">deliver()</text><text fill="#000000" font-family="sans-serif" font-size="11" lengthAdjust="spacing" textLength="46" x="1495" y="282.2261">search()</text><text fill="#000000" font-family="sans-serif" font-size="11" lengthAdjust="spacing" textLength="35" x="1495" y="295.0308">want()</text><text fill="#000000" font-family="sans-serif" font-size="11" lengthAdjust="spacing" textLength="39" x="1495" y="307.8354">place()</text><text fill="#000000" font-family="sans-serif" font-size="11" lengthAdjust="spacing" textLength="41" x="1495" y="320.6401">check()</text><text fill="#000000" font-family="sans-serif" font-size="11" lengthAdjust="spacing" textLength="32" x="1495" y="333.4448">rank()</text><text fill="#000000" font-family="sans-serif" font-size="11" lengthAdjust="spacing" textLength="35" x="1495" y="346.2495">track()</text><text fill="#000000" font-family="sans-serif" font-size="11" lengthAdjust="spacing" textLength="60" x="1495" y="359.0542">schedule()</text><text fill="#000000" font-family="sans-serif" font-size="11" lengthAdjust="spacing" textLength="52" x="1495" y="371.8589">receive()</text><text fill="#000000" font-family="sans-serif" font-size="11" lengthAdjust="spacing" textLength="28" x="1495" y="384.6636">talk()</text><text fill="#000000" font-family="sans-serif" font-size="11" lengthAdjust="spacing" textLength="35" x="1495" y="397.4683">view()</text><text fill="#000000" font-family="sans-serif" font-size="11" lengthAdjust="spacing" textLength="27" x="1495" y="410.2729">get()</text><!--MD5=[3e0e84c13e77e83e0682ce19d96d1ecd]
class Florist--><rect codeLine="20" fill="#FEFECE" filter="url(#f4nn432w3ax3t)" height="193.625" id="Florist" style="stroke:#A80036;stroke-width:1.5;" width="101" x="850.5" y="494"/><text fill="#000000" font-family="sans-serif" font-size="12" lengthAdjust="spacing" textLength="37" x="865" y="510.1387">Florist</text><rect fill="#FFFFFF" height="15.9688" style="stroke:#000000;stroke-width:1.0;stroke-dasharray:2.0,2.0;" width="33" x="921.5" y="491"/><text fill="#000000" font-family="sans-serif" font-size="12" font-style="italic" lengthAdjust="spacing" textLength="31" x="922.5" y="503.1387">actor</text><line style="stroke:#A80036;stroke-width:1.5;" x1="851.5" x2="950.5" y1="517.9688" y2="517.9688"/><text fill="#000000" font-family="sans-serif" font-size="11" lengthAdjust="spacing" textLength="69" x="856.5" y="532.1792">orderHistory</text><text fill="#000000" font-family="sans-serif" font-size="11" lengthAdjust="spacing" textLength="89" x="856.5" y="544.9839">pastTransaction</text><text fill="#000000" font-family="sans-serif" font-size="11" lengthAdjust="spacing" textLength="42" x="856.5" y="557.7886">service</text><line style="stroke:#A80036;stroke-width:1.5;" x1="851.5" x2="950.5" y1="564.3828" y2="564.3828"/><text fill="#000000" font-family="sans-serif" font-size="11" lengthAdjust="spacing" textLength="48" x="856.5" y="578.5933">market()</text><text fill="#000000" font-family="sans-serif" font-size="11" lengthAdjust="spacing" textLength="45" x="856.5" y="591.3979">cancel()</text><text fill="#000000" font-family="sans-serif" font-size="11" lengthAdjust="spacing" textLength="37" x="856.5" y="604.2026">have()</text><text fill="#000000" font-family="sans-serif" font-size="11" lengthAdjust="spacing" textLength="45" x="856.5" y="617.0073">create()</text><text fill="#000000" font-family="sans-serif" font-size="11" lengthAdjust="spacing" textLength="46" x="856.5" y="629.812">upload()</text><text fill="#000000" font-family="sans-serif" font-size="11" lengthAdjust="spacing" textLength="29" x="856.5" y="642.6167">use()</text><text fill="#000000" font-family="sans-serif" font-size="11" lengthAdjust="spacing" textLength="51" x="856.5" y="655.4214">provide()</text><text fill="#000000" font-family="sans-serif" font-size="11" lengthAdjust="spacing" textLength="35" x="856.5" y="668.2261">track()</text><text fill="#000000" font-family="sans-serif" font-size="11" lengthAdjust="spacing" textLength="52" x="856.5" y="681.0308">receive()</text><!--MD5=[2ce0c9fb7f55b1e256ab28a8ea6b25ec]
class Customer--><rect codeLine="63" fill="#FEFECE" filter="url(#f4nn432w3ax3t)" height="65.5781" id="Customer" style="stroke:#A80036;stroke-width:1.5;" width="99" x="1278.5" y="558"/><text fill="#000000" font-family="sans-serif" font-size="12" lengthAdjust="spacing" textLength="58" x="1281.5" y="574.1387">Customer</text><rect fill="#FFFFFF" height="15.9688" style="stroke:#000000;stroke-width:1.0;stroke-dasharray:2.0,2.0;" width="33" x="1347.5" y="555"/><text fill="#000000" font-family="sans-serif" font-size="12" font-style="italic" lengthAdjust="spacing" textLength="31" x="1348.5" y="567.1387">actor</text><line style="stroke:#A80036;stroke-width:1.5;" x1="1279.5" x2="1376.5" y1="581.9688" y2="581.9688"/><line style="stroke:#A80036;stroke-width:1.5;" x1="1279.5" x2="1376.5" y1="589.9688" y2="589.9688"/><text fill="#000000" font-family="sans-serif" font-size="11" lengthAdjust="spacing" textLength="45" x="1284.5" y="604.1792">create()</text><text fill="#000000" font-family="sans-serif" font-size="11" lengthAdjust="spacing" textLength="52" x="1284.5" y="616.9839">receive()</text><!--MD5=[e3d83ec5fd90ea9f3f2bfe265cb53458]
class Status--><rect codeLine="15" fill="#FEFECE" filter="url(#f4nn432w3ax3t)" height="52.7734" id="Status" style="stroke:#A80036;stroke-width:1.5;" width="62" x="223" y="765"/><text fill="#000000" font-family="sans-serif" font-size="12" lengthAdjust="spacing" textLength="37" x="235.5" y="781.1387">Status</text><line style="stroke:#A80036;stroke-width:1.5;" x1="224" x2="284" y1="788.9688" y2="788.9688"/><line style="stroke:#A80036;stroke-width:1.5;" x1="224" x2="284" y1="796.9688" y2="796.9688"/><text fill="#000000" font-family="sans-serif" font-size="11" lengthAdjust="spacing" textLength="50" x="229" y="811.1792">confirm()</text><!--MD5=[7bff1aba3b0d0725284345139f4478e9]
class History--><rect codeLine="18" fill="#FEFECE" filter="url(#f4nn432w3ax3t)" height="39.9688" id="History" style="stroke:#A80036;stroke-width:1.5;" width="49" x="229.5" y="996"/><text fill="#000000" font-family="sans-serif" font-size="12" lengthAdjust="spacing" textLength="43" x="232.5" y="1012.1387">History</text><line style="stroke:#A80036;stroke-width:1.5;" x1="230.5" x2="277.5" y1="1019.9688" y2="1019.9688"/><line style="stroke:#A80036;stroke-width:1.5;" x1="230.5" x2="277.5" y1="1027.9688" y2="1027.9688"/><!--MD5=[4103ecd79478360f06b5dce88122c330]
class RefundConsumer--><rect codeLine="31" fill="#FEFECE" filter="url(#f4nn432w3ax3t)" height="39.9688" id="RefundConsumer" style="stroke:#A80036;stroke-width:1.5;" width="108" x="520" y="771.5"/><text fill="#000000" font-family="sans-serif" font-size="12" lengthAdjust="spacing" textLength="102" x="523" y="787.6387">RefundConsumer</text><line style="stroke:#A80036;stroke-width:1.5;" x1="521" x2="627" y1="795.4688" y2="795.4688"/><line style="stroke:#A80036;stroke-width:1.5;" x1="521" x2="627" y1="803.4688" y2="803.4688"/><!--MD5=[cf4d6237fcae255cd2e1656cf84a30e2]
class Order--><rect codeLine="52" fill="#FEFECE" filter="url(#f4nn432w3ax3t)" height="39.9688" id="Order" style="stroke:#A80036;stroke-width:1.5;" width="42" x="233" y="895"/><text fill="#000000" font-family="sans-serif" font-size="12" lengthAdjust="spacing" textLength="36" x="236" y="911.1387">Order</text><line style="stroke:#A80036;stroke-width:1.5;" x1="234" x2="274" y1="918.9688" y2="918.9688"/><line style="stroke:#A80036;stroke-width:1.5;" x1="234" x2="274" y1="926.9688" y2="926.9688"/><!--MD5=[72136138052d025cffdce3c22fbd185f]
class Product--><rect codeLine="54" fill="#FEFECE" filter="url(#f4nn432w3ax3t)" height="39.9688" id="Product" style="stroke:#A80036;stroke-width:1.5;" width="51" x="764.5" y="571"/><text fill="#000000" font-family="sans-serif" font-size="12" lengthAdjust="spacing" textLength="45" x="767.5" y="587.1387">Product</text><line style="stroke:#A80036;stroke-width:1.5;" x1="765.5" x2="814.5" y1="594.9688" y2="594.9688"/><line style="stroke:#A80036;stroke-width:1.5;" x1="765.5" x2="814.5" y1="602.9688" y2="602.9688"/><!--MD5=[b944342e320312f24f81372adece60af]
class ShoppingExperience--><rect codeLine="56" fill="#FEFECE" filter="url(#f4nn432w3ax3t)" height="39.9688" id="ShoppingExperience" style="stroke:#A80036;stroke-width:1.5;" width="131" x="1412.5" y="571"/><text fill="#000000" font-family="sans-serif" font-size="12" lengthAdjust="spacing" textLength="125" x="1415.5" y="587.1387">ShoppingExperience</text><line style="stroke:#A80036;stroke-width:1.5;" x1="1413.5" x2="1542.5" y1="594.9688" y2="594.9688"/><line style="stroke:#A80036;stroke-width:1.5;" x1="1413.5" x2="1542.5" y1="602.9688" y2="602.9688"/><!--MD5=[fa3eb94fb0c26490875283805236d9ad]
class MarketAnalyticTool--><rect codeLine="58" fill="#FEFECE" filter="url(#f4nn432w3ax3t)" height="52.7734" id="MarketAnalyticTool" style="stroke:#A80036;stroke-width:1.5;" width="119" x="841.5" y="765"/><text fill="#000000" font-family="sans-serif" font-size="12" lengthAdjust="spacing" textLength="113" x="844.5" y="781.1387">MarketAnalyticTool</text><line style="stroke:#A80036;stroke-width:1.5;" x1="842.5" x2="959.5" y1="788.9688" y2="788.9688"/><line style="stroke:#A80036;stroke-width:1.5;" x1="842.5" x2="959.5" y1="796.9688" y2="796.9688"/><text fill="#000000" font-family="sans-serif" font-size="11" lengthAdjust="spacing" textLength="48" x="847.5" y="811.1792">market()</text><!--MD5=[e6be9de0646ff5543d7ea01b9ba84c48]
class FlowerSeeker--><rect codeLine="61" fill="#FEFECE" filter="url(#f4nn432w3ax3t)" height="39.9688" id="FlowerSeeker" style="stroke:#A80036;stroke-width:1.5;" width="91" x="1329.5" y="771.5"/><text fill="#000000" font-family="sans-serif" font-size="12" lengthAdjust="spacing" textLength="85" x="1332.5" y="787.6387">FlowerSeeker</text><line style="stroke:#A80036;stroke-width:1.5;" x1="1330.5" x2="1419.5" y1="795.4688" y2="795.4688"/><line style="stroke:#A80036;stroke-width:1.5;" x1="1330.5" x2="1419.5" y1="803.4688" y2="803.4688"/><!--MD5=[7b57f7066b803747d2119f99dd1555d4]
class Profile--><rect codeLine="67" fill="#FEFECE" filter="url(#f4nn432w3ax3t)" height="39.9688" id="Profile" style="stroke:#A80036;stroke-width:1.5;" width="43" x="1067.5" y="771.5"/><text fill="#000000" font-family="sans-serif" font-size="12" lengthAdjust="spacing" textLength="37" x="1070.5" y="787.6387">Profile</text><line style="stroke:#A80036;stroke-width:1.5;" x1="1068.5" x2="1109.5" y1="795.4688" y2="795.4688"/><line style="stroke:#A80036;stroke-width:1.5;" x1="1068.5" x2="1109.5" y1="803.4688" y2="803.4688"/><!--MD5=[6016c9c5425d34ae3d7a539916a91923]
class Recommendation--><rect codeLine="69" fill="#FEFECE" filter="url(#f4nn432w3ax3t)" height="39.9688" id="Recommendation" style="stroke:#A80036;stroke-width:1.5;" width="110" x="1484" y="771.5"/><text fill="#000000" font-family="sans-serif" font-size="12" lengthAdjust="spacing" textLength="104" x="1487" y="787.6387">Recommendation</text><line style="stroke:#A80036;stroke-width:1.5;" x1="1485" x2="1593" y1="795.4688" y2="795.4688"/><line style="stroke:#A80036;stroke-width:1.5;" x1="1485" x2="1593" y1="803.4688" y2="803.4688"/><!--MD5=[eb0e8f8ddfdc21c3fdb48447501fec67]
class Review--><rect codeLine="71" fill="#FEFECE" filter="url(#f4nn432w3ax3t)" height="39.9688" id="Review" style="stroke:#A80036;stroke-width:1.5;" width="49" x="1578.5" y="571"/><text fill="#000000" font-family="sans-serif" font-size="12" lengthAdjust="spacing" textLength="43" x="1581.5" y="587.1387">Review</text><line style="stroke:#A80036;stroke-width:1.5;" x1="1579.5" x2="1626.5" y1="594.9688" y2="594.9688"/><line style="stroke:#A80036;stroke-width:1.5;" x1="1579.5" x2="1626.5" y1="602.9688" y2="602.9688"/><!--MD5=[b582e6ce3c86f1934c1c2f1f310142ca]
class Catalog--><rect codeLine="73" fill="#FEFECE" filter="url(#f4nn432w3ax3t)" height="39.9688" id="Catalog" style="stroke:#A80036;stroke-width:1.5;" width="51" x="433.5" y="771.5"/><text fill="#000000" font-family="sans-serif" font-size="12" lengthAdjust="spacing" textLength="45" x="436.5" y="787.6387">Catalog</text><line style="stroke:#A80036;stroke-width:1.5;" x1="434.5" x2="483.5" y1="795.4688" y2="795.4688"/><line style="stroke:#A80036;stroke-width:1.5;" x1="434.5" x2="483.5" y1="803.4688" y2="803.4688"/><!--MD5=[3db53164d4ddbdea4156eda8a776d7e7]
class Decision--><rect codeLine="75" fill="#FEFECE" filter="url(#f4nn432w3ax3t)" height="39.9688" id="Decision" style="stroke:#A80036;stroke-width:1.5;" width="58" x="1663" y="571"/><text fill="#000000" font-family="sans-serif" font-size="12" lengthAdjust="spacing" textLength="52" x="1666" y="587.1387">Decision</text><line style="stroke:#A80036;stroke-width:1.5;" x1="1664" x2="1720" y1="594.9688" y2="594.9688"/><line style="stroke:#A80036;stroke-width:1.5;" x1="1664" x2="1720" y1="602.9688" y2="602.9688"/><!--MD5=[30fd7b95ab383a5e7c83ea23d4ea0fbf]
class Information--><rect codeLine="77" fill="#FEFECE" filter="url(#f4nn432w3ax3t)" height="39.9688" id="Information" style="stroke:#A80036;stroke-width:1.5;" width="73" x="1756.5" y="571"/><text fill="#000000" font-family="sans-serif" font-size="12" lengthAdjust="spacing" textLength="67" x="1759.5" y="587.1387">Information</text><line style="stroke:#A80036;stroke-width:1.5;" x1="1757.5" x2="1828.5" y1="594.9688" y2="594.9688"/><line style="stroke:#A80036;stroke-width:1.5;" x1="1757.5" x2="1828.5" y1="602.9688" y2="602.9688"/><!--MD5=[5c85d133e2c913f4b8608c8db253c015]
class Record--><rect codeLine="79" fill="#FEFECE" filter="url(#f4nn432w3ax3t)" height="39.9688" id="Record" style="stroke:#A80036;stroke-width:1.5;" width="49" x="1217.5" y="771.5"/><text fill="#000000" font-family="sans-serif" font-size="12" lengthAdjust="spacing" textLength="43" x="1220.5" y="787.6387">Record</text><line style="stroke:#A80036;stroke-width:1.5;" x1="1218.5" x2="1265.5" y1="795.4688" y2="795.4688"/><line style="stroke:#A80036;stroke-width:1.5;" x1="1218.5" x2="1265.5" y1="803.4688" y2="803.4688"/><!--MD5=[ac13618b1a974308c1f12eb6c57723dc]
class Event--><rect codeLine="81" fill="#FEFECE" filter="url(#f4nn432w3ax3t)" height="39.9688" id="Event" style="stroke:#A80036;stroke-width:1.5;" width="39" x="1864.5" y="571"/><text fill="#000000" font-family="sans-serif" font-size="12" lengthAdjust="spacing" textLength="33" x="1867.5" y="587.1387">Event</text><line style="stroke:#A80036;stroke-width:1.5;" x1="1865.5" x2="1902.5" y1="594.9688" y2="594.9688"/><line style="stroke:#A80036;stroke-width:1.5;" x1="1865.5" x2="1902.5" y1="602.9688" y2="602.9688"/><!--MD5=[dbb8b4f13c7b21394f9d757e58732f45]
class Service--><rect codeLine="83" fill="#FEFECE" filter="url(#f4nn432w3ax3t)" height="39.9688" id="Service" style="stroke:#A80036;stroke-width:1.5;" width="52" x="663" y="771.5"/><text fill="#000000" font-family="sans-serif" font-size="12" lengthAdjust="spacing" textLength="46" x="666" y="787.6387">Service</text><line style="stroke:#A80036;stroke-width:1.5;" x1="664" x2="714" y1="795.4688" y2="795.4688"/><line style="stroke:#A80036;stroke-width:1.5;" x1="664" x2="714" y1="803.4688" y2="803.4688"/><!--MD5=[8dce5be27b88f5328a055380ca382252]
class Ranking--><rect codeLine="85" fill="#FEFECE" filter="url(#f4nn432w3ax3t)" height="39.9688" id="Ranking" style="stroke:#A80036;stroke-width:1.5;" width="52" x="1939" y="571"/><text fill="#000000" font-family="sans-serif" font-size="12" lengthAdjust="spacing" textLength="46" x="1942" y="587.1387">Ranking</text><line style="stroke:#A80036;stroke-width:1.5;" x1="1940" x2="1990" y1="594.9688" y2="594.9688"/><line style="stroke:#A80036;stroke-width:1.5;" x1="1940" x2="1990" y1="602.9688" y2="602.9688"/><!--MD5=[764fca796ce7f635542948d8fc39db5e]
class Payment--><rect codeLine="87" fill="#FEFECE" filter="url(#f4nn432w3ax3t)" height="39.9688" id="Payment" style="stroke:#A80036;stroke-width:1.5;" width="56" x="750" y="771.5"/><text fill="#000000" font-family="sans-serif" font-size="12" lengthAdjust="spacing" textLength="50" x="753" y="787.6387">Payment</text><line style="stroke:#A80036;stroke-width:1.5;" x1="751" x2="805" y1="795.4688" y2="795.4688"/><line style="stroke:#A80036;stroke-width:1.5;" x1="751" x2="805" y1="803.4688" y2="803.4688"/><!--MD5=[4a7c0def0655f5e0723ce9f5f6c1a8ef]
class Convenience--><rect codeLine="89" fill="#FEFECE" filter="url(#f4nn432w3ax3t)" height="39.9688" id="Convenience" style="stroke:#A80036;stroke-width:1.5;" width="84" x="2026" y="571"/><text fill="#000000" font-family="sans-serif" font-size="12" lengthAdjust="spacing" textLength="78" x="2029" y="587.1387">Convenience</text><line style="stroke:#A80036;stroke-width:1.5;" x1="2027" x2="2109" y1="594.9688" y2="594.9688"/><line style="stroke:#A80036;stroke-width:1.5;" x1="2027" x2="2109" y1="602.9688" y2="602.9688"/><!--MD5=[c508b5b6bbe276ff5e2700b6641f837f]
class Appointment--><rect codeLine="91" fill="#FEFECE" filter="url(#f4nn432w3ax3t)" height="39.9688" id="Appointment" style="stroke:#A80036;stroke-width:1.5;" width="82" x="2145" y="571"/><text fill="#000000" font-family="sans-serif" font-size="12" lengthAdjust="spacing" textLength="76" x="2148" y="587.1387">Appointment</text><line style="stroke:#A80036;stroke-width:1.5;" x1="2146" x2="2226" y1="594.9688" y2="594.9688"/><line style="stroke:#A80036;stroke-width:1.5;" x1="2146" x2="2226" y1="602.9688" y2="602.9688"/><!--MD5=[b07065dfc0d0e09965ec10bfc328bb3e]
class Option--><rect codeLine="93" fill="#FEFECE" filter="url(#f4nn432w3ax3t)" height="39.9688" id="Option" style="stroke:#A80036;stroke-width:1.5;" width="46" x="2262" y="571"/><text fill="#000000" font-family="sans-serif" font-size="12" lengthAdjust="spacing" textLength="40" x="2265" y="587.1387">Option</text><line style="stroke:#A80036;stroke-width:1.5;" x1="2263" x2="2307" y1="594.9688" y2="594.9688"/><line style="stroke:#A80036;stroke-width:1.5;" x1="2263" x2="2307" y1="602.9688" y2="602.9688"/><!--MD5=[0bec6c79456800b7fe9b285d2d6ba38a]
class Go--><rect codeLine="95" fill="#FEFECE" filter="url(#f4nn432w3ax3t)" height="39.9688" id="Go" style="stroke:#A80036;stroke-width:1.5;" width="23" x="1528.5" y="7"/><text fill="#000000" font-family="sans-serif" font-size="12" lengthAdjust="spacing" textLength="17" x="1531.5" y="23.1387">Go</text><line style="stroke:#A80036;stroke-width:1.5;" x1="1529.5" x2="1550.5" y1="30.9688" y2="30.9688"/><line style="stroke:#A80036;stroke-width:1.5;" x1="1529.5" x2="1550.5" y1="38.9688" y2="38.9688"/><!--MD5=[572ed6b619d9df2e4892c2de18186e7d]
class Experience--><rect codeLine="97" fill="#FEFECE" filter="url(#f4nn432w3ax3t)" height="39.9688" id="Experience" style="stroke:#A80036;stroke-width:1.5;" width="74" x="2343" y="571"/><text fill="#000000" font-family="sans-serif" font-size="12" lengthAdjust="spacing" textLength="68" x="2346" y="587.1387">Experience</text><line style="stroke:#A80036;stroke-width:1.5;" x1="2344" x2="2416" y1="594.9688" y2="594.9688"/><line style="stroke:#A80036;stroke-width:1.5;" x1="2344" x2="2416" y1="602.9688" y2="602.9688"/><!--MD5=[0e639e78fd62fefc1878e590497ae9b9]
link Consumer to Appointment--><path codeLine="99" d="M1591.16,272.181 C1700.59,292.988 1960.91,354.688 2127,494 C2150.27,513.519 2167.02,544.672 2176.59,566.169 " fill="none" id="Consumer-to-Appointment" style="stroke:#A80036;stroke-width:1.0;"/><polygon fill="#A80036" points="2178.64,570.871,2178.7111,561.0224,2176.6423,566.2874,2171.3773,564.2186,2178.64,570.871" style="stroke:#A80036;stroke-width:1.0;"/><text fill="#000000" font-family="sans-serif" font-size="13" lengthAdjust="spacing" textLength="57" x="2088" y="460.0669">schedule</text><!--MD5=[cc0d333ac02cc0a277889de4f05e2e12]
link Consumer to History--><path codeLine="100" d="M1488.96,263.223 C1222.79,263.115 6,279.595 6,590 C6,590 6,590 6,916 C6,962.5377 158.534,996.9712 224.351,1009.6627 " fill="none" id="Consumer-to-History" style="stroke:#A80036;stroke-width:1.0;"/><polygon fill="#A80036" points="229.314,1010.6101,221.2232,1004.9941,224.4026,1009.6729,219.7238,1012.8523,229.314,1010.6101" style="stroke:#A80036;stroke-width:1.0;"/><text fill="#000000" font-family="sans-serif" font-size="13" lengthAdjust="spacing" textLength="37" x="7" y="796.0669">check</text><!--MD5=[7f2e69f52ffab3176a1e9824edfc7b23]
link Florist to MarketAnalyticTool--><path codeLine="101" d="M901,688.052 C901,713.922 901,740.083 901,759.493 " fill="none" id="Florist-to-MarketAnalyticTool" style="stroke:#A80036;stroke-width:1.0;"/><polygon fill="#A80036" points="901,764.782,905,755.782,901,759.782,897,755.782,901,764.782" style="stroke:#A80036;stroke-width:1.0;"/><text fill="#000000" font-family="sans-serif" font-size="13" lengthAdjust="spacing" textLength="23" x="902" y="731.0669">use</text><!--MD5=[a67ba1665fce0c099980a137a5bd2339]
link Consumer to Option--><path codeLine="102" d="M1591.26,275.297 C1698.09,300.642 1951.45,364.726 2154,447 C2195.81,463.983 2213.35,460.877 2244,494 C2262.91,514.443 2273.9,544.938 2279.65,566.049 " fill="none" id="Consumer-to-Option" style="stroke:#A80036;stroke-width:1.0;"/><polygon fill="#A80036" points="2280.94,570.935,2282.5235,561.2143,2279.6703,566.0989,2274.7857,563.2457,2280.94,570.935" style="stroke:#A80036;stroke-width:1.0;"/><text fill="#000000" font-family="sans-serif" font-size="13" lengthAdjust="spacing" textLength="32" x="2203" y="460.0669">have</text><!--MD5=[d94ddc4c663556a8843659cc9140644c]
reverse link Go to Consumer--><path codeLine="103" d="M1540,67.327 C1540,79.246 1540,93.126 1540,107.88 " fill="none" id="Go-backto-Consumer" style="stroke:#A80036;stroke-width:1.0;"/><polygon fill="none" points="1533,67.108,1540,47.108,1547,67.108,1533,67.108" style="stroke:#A80036;stroke-width:1.0;"/><!--MD5=[231a075534f25bd8c9f21d6c51f205c4]
reverse link Consumer to Order--><path codeLine="104" d="M1475.65,274.611 C1228.42,318.794 346.186,490.735 201,718 C164.279,775.48 213.35,858.046 239.499,894.935 " fill="none" id="Consumer-backto-Order" style="stroke:#A80036;stroke-width:1.0;"/><polygon fill="#FFFFFF" points="1488.64,272.302,1482.0333,269.412,1476.8246,274.3989,1483.4313,277.2889,1488.64,272.302" style="stroke:#A80036;stroke-width:1.0;"/><text fill="#000000" font-family="sans-serif" font-size="13" lengthAdjust="spacing" textLength="41" x="202" y="731.0669">cancel</text><!--MD5=[231a075534f25bd8c9f21d6c51f205c4]
reverse link Consumer to Order--><path codeLine="123" d="M1475.41,265.973 C1236.54,276.406 407.088,324.441 217,494 C134.125,567.925 132.423,625.51 151,735 C161.437,796.516 167.048,814.724 204,865 C212.35,876.36 223.398,887.486 232.986,896.257 " fill="none" id="Consumer-backto-Order-1" style="stroke:#A80036;stroke-width:1.0;"/><polygon fill="#FFFFFF" points="1488.65,265.407,1482.4841,261.6678,1476.661,265.9213,1482.8269,269.6605,1488.65,265.407" style="stroke:#A80036;stroke-width:1.0;"/><text fill="#000000" font-family="sans-serif" font-size="13" lengthAdjust="spacing" textLength="32" x="152" y="731.0669">track</text><!--MD5=[231a075534f25bd8c9f21d6c51f205c4]
reverse link Consumer to Order--><path codeLine="130" d="M1476.57,288.108 C1397.83,322.077 1265.46,391.048 1196,494 C1134.61,584.988 1115.67,610.82 1092,718 C1090.37,725.378 1088.8,728.158 1092,735 C1100.83,753.861 1119.17,746.139 1128,765 C1137.99,786.332 1141.79,798.905 1128,818 C1089.07,871.889 1051.24,852.234 986,865 C844.441,892.7 380.358,909.742 275.281,913.301 " fill="none" id="Consumer-backto-Order-2" style="stroke:#A80036;stroke-width:1.0;"/><polygon fill="#FFFFFF" points="1488.73,282.957,1481.645,281.6146,1477.6808,287.6383,1484.7658,288.9807,1488.73,282.957" style="stroke:#A80036;stroke-width:1.0;"/><text fill="#000000" font-family="sans-serif" font-size="13" lengthAdjust="spacing" textLength="34" x="1093" y="731.0669">place</text><!--MD5=[dd490d3dab19f87c973581f3df6bdebe]
link Florist to Profile--><path codeLine="105" d="M951.777,664.727 C969.825,688.322 991.123,713.847 1013,735 C1028.35,749.844 1047.84,763.999 1063.24,774.298 " fill="none" id="Florist-to-Profile" style="stroke:#A80036;stroke-width:1.0;"/><polygon fill="#A80036" points="1067.47,777.098,1062.17,768.7968,1063.2997,774.3397,1057.7567,775.4693,1067.47,777.098" style="stroke:#A80036;stroke-width:1.0;"/><text fill="#000000" font-family="sans-serif" font-size="13" lengthAdjust="spacing" textLength="41" x="1014" y="731.0669">create</text><!--MD5=[f4d57d8522140113bd22020e72ee92bf]
link Florist to FlowerSeeker--><path codeLine="106" d="M951.628,612.799 C1012.02,637.653 1116,680.577 1205,718 C1245.74,735.128 1291.85,754.811 1325.76,769.342 " fill="none" id="Florist-to-FlowerSeeker" style="stroke:#A80036;stroke-width:1.0;"/><polygon fill="#A80036" points="1330.67,771.447,1323.9758,764.2229,1326.0749,769.4759,1320.822,771.575,1330.67,771.447" style="stroke:#A80036;stroke-width:1.0;"/><text fill="#000000" font-family="sans-serif" font-size="13" lengthAdjust="spacing" textLength="41" x="1244" y="731.0669">create</text><!--MD5=[6cbe00a371938127b153bdb9345e6bb9]
link Consumer to Product--><path codeLine="107" d="M1488.99,268.679 C1337.47,285.165 894.935,341.636 804,447 C775.651,479.847 779.362,534.074 784.654,565.464 " fill="none" id="Consumer-to-Product" style="stroke:#A80036;stroke-width:1.0;"/><polygon fill="#A80036" points="785.583,570.674,787.9418,561.1118,784.7057,565.7516,780.0659,562.5155,785.583,570.674" style="stroke:#A80036;stroke-width:1.0;"/><text fill="#000000" font-family="sans-serif" font-size="13" lengthAdjust="spacing" textLength="28" x="805" y="460.0669">rank</text><!--MD5=[6cbe00a371938127b153bdb9345e6bb9]
link Consumer to Product--><path codeLine="117" d="M1488.66,274.135 C1379.87,297.616 1119.28,358.886 914,447 C875.753,463.417 860.851,463.07 833,494 C814.333,514.73 802.633,544.902 796.232,565.866 " fill="none" id="Consumer-to-Product-1" style="stroke:#A80036;stroke-width:1.0;"/><polygon fill="#A80036" points="794.794,570.721,801.1852,563.2275,796.214,565.9269,793.5146,560.9556,794.794,570.721" style="stroke:#A80036;stroke-width:1.0;"/><text fill="#000000" font-family="sans-serif" font-size="13" lengthAdjust="spacing" textLength="43" x="915" y="460.0669">review</text><!--MD5=[55e5a9ecf7b5acd322454dfb3d1a9909]
reverse link Product to Status--><path codeLine="108" d="M751.11,595.445 C639.959,606.142 324.736,642.682 260,718 C249.133,730.643 247.878,749.524 249.211,764.848 " fill="none" id="Product-backto-Status" style="stroke:#A80036;stroke-width:1.0;"/><polygon fill="#FFFFFF" points="764.217,594.213,757.8692,590.7916,752.2696,595.3352,758.6174,598.7566,764.217,594.213" style="stroke:#A80036;stroke-width:1.0;"/><!--MD5=[3dcf6d79e9ed3e1807120ac8bd7d0080]
link Consumer to Record--><path codeLine="109" d="M1488.72,283.453 C1415.02,315.287 1281.95,385.288 1227,494 C1180.71,585.574 1215.49,714.028 1233.24,766.624 " fill="none" id="Consumer-to-Record" style="stroke:#A80036;stroke-width:1.0;"/><polygon fill="#A80036" points="1234.9,771.474,1235.7736,761.664,1233.2826,766.7428,1228.2037,764.2518,1234.9,771.474" style="stroke:#A80036;stroke-width:1.0;"/><text fill="#000000" font-family="sans-serif" font-size="13" lengthAdjust="spacing" textLength="32" x="1228" y="595.5669">have</text><!--MD5=[2cc0cf8a19b3381df0c182301a527ba1]
link Consumer to Experience--><path codeLine="110" d="M1591.01,271.893 C1709.12,292.366 2009.22,350.392 2244,447 C2282.49,462.838 2295.65,464.488 2325,494 C2345.69,514.804 2361.27,544.961 2370.47,565.902 " fill="none" id="Consumer-to-Experience" style="stroke:#A80036;stroke-width:1.0;"/><polygon fill="#A80036" points="2372.56,570.751,2372.6673,560.9027,2370.5792,566.1601,2365.3218,564.072,2372.56,570.751" style="stroke:#A80036;stroke-width:1.0;"/><text fill="#000000" font-family="sans-serif" font-size="13" lengthAdjust="spacing" textLength="88" x="2287" y="460.0669">supported_by</text><!--MD5=[c1528dc0dff0c09151988b7dd19d0a73]
link Florist to Record--><path codeLine="111" d="M951.846,617.257 C1000.047,641.666 1074.09,680.378 1136,718 C1162.79,734.281 1192.14,754.552 1213.14,769.517 " fill="none" id="Florist-to-Record" style="stroke:#A80036;stroke-width:1.0;"/><polygon fill="#A80036" points="1217.23,772.436,1212.2426,763.9433,1213.1652,769.5244,1207.5841,770.447,1217.23,772.436" style="stroke:#A80036;stroke-width:1.0;"/><text fill="#000000" font-family="sans-serif" font-size="13" lengthAdjust="spacing" textLength="32" x="1164" y="731.0669">have</text><!--MD5=[0434731a586382526579be451f170ef2]
link Consumer to Florist--><path codeLine="112" d="M1488.84,268.138 C1383.24,280.106 1138.04,320.549 983,447 C968.709,458.656 956.416,473.506 946.022,489.202 " fill="none" id="Consumer-to-Florist" style="stroke:#A80036;stroke-width:1.0;"/><polygon fill="#A80036" points="943.141,493.649,951.3919,488.271,945.8599,489.4528,944.678,483.9208,943.141,493.649" style="stroke:#A80036;stroke-width:1.0;"/><text fill="#000000" font-family="sans-serif" font-size="13" lengthAdjust="spacing" textLength="88" x="984" y="460.0669">supported_by</text><!--MD5=[6966e4c3665d06babc99cc7d844d0dc3]
link Customer to Profile--><path codeLine="113" d="M1340.38,624.155 C1350.3,655.867 1358.85,703.968 1334,735 C1295.85,782.636 1259.52,751.501 1200,765 C1171.14,771.546 1138.08,779.155 1115.6,784.346 " fill="none" id="Customer-to-Profile" style="stroke:#A80036;stroke-width:1.0;"/><polygon fill="#A80036" points="1110.69,785.48,1120.3606,787.3455,1115.561,784.3515,1118.555,779.552,1110.69,785.48" style="stroke:#A80036;stroke-width:1.0;"/><text fill="#000000" font-family="sans-serif" font-size="13" lengthAdjust="spacing" textLength="41" x="1345" y="731.0669">create</text><!--MD5=[0ca382115200c60c71119e995c991ce4]
link Consumer to Event--><path codeLine="114" d="M1591.05,289.863 C1658.36,326.99 1776.46,400.693 1847,494 C1863.29,515.542 1873.24,545.122 1878.66,565.733 " fill="none" id="Consumer-to-Event" style="stroke:#A80036;stroke-width:1.0;"/><polygon fill="#A80036" points="1879.94,570.77,1881.6029,561.0625,1878.7099,565.9237,1873.8487,563.0307,1879.94,570.77" style="stroke:#A80036;stroke-width:1.0;"/><text fill="#000000" font-family="sans-serif" font-size="13" lengthAdjust="spacing" textLength="23" x="1822" y="460.0669">talk</text><!--MD5=[336f800d866c1c63b5adde69f4037826]
link Status to Order--><path codeLine="115" d="M254,818.267 C254,839.33 254,868.904 254,889.59 " fill="none" id="Status-to-Order" style="stroke:#A80036;stroke-width:1.0;"/><polygon fill="#A80036" points="254,894.647,258,885.647,254,889.647,250,885.647,254,894.647" style="stroke:#A80036;stroke-width:1.0;"/><text fill="#000000" font-family="sans-serif" font-size="13" lengthAdjust="spacing" textLength="49" x="255" y="861.0669">confirm</text><!--MD5=[24de669c7c36f972318c8aac41b42a47]
link Customer to Recommendation--><path codeLine="116" d="M1344.09,624.177 C1355.8,644.794 1373.35,670.814 1395,688 C1423.12,710.322 1440.27,697.868 1470,718 C1489.86,731.449 1508.36,751.471 1521.2,767.068 " fill="none" id="Customer-to-Recommendation" style="stroke:#A80036;stroke-width:1.0;"/><polygon fill="#A80036" points="1524.66,771.341,1522.0997,761.8308,1521.5113,767.4569,1515.8852,766.8686,1524.66,771.341" style="stroke:#A80036;stroke-width:1.0;"/><text fill="#000000" font-family="sans-serif" font-size="13" lengthAdjust="spacing" textLength="47" x="1491" y="731.0669">receive</text><!--MD5=[67f0d23a9257f050d08899b28bc473f1]
reverse link Florist to Service--><path codeLine="118" d="M841.077,681.057 C838.451,683.493 835.757,685.817 833,688 C805.179,710.033 788.409,698.136 759,718 C737.107,732.787 716.687,755.354 703.619,771.378 " fill="none" id="Florist-backto-Service" style="stroke:#A80036;stroke-width:1.0;"/><polygon fill="#FFFFFF" points="850.286,671.8,843.2186,673.2323,841.8225,680.307,848.8899,678.8747,850.286,671.8" style="stroke:#A80036;stroke-width:1.0;"/><text fill="#000000" font-family="sans-serif" font-size="13" lengthAdjust="spacing" textLength="46" x="760" y="731.0669">market</text><!--MD5=[16071f9d299ebcf38005947182da931f]
link Florist to History--><path codeLine="119" d="M951.787,654.688 C984.536,703.17 1014.75,769.916 978,818 C890.034,933.1 408.415,996.9022 283.568,1011.6612 " fill="none" id="Florist-to-History" style="stroke:#A80036;stroke-width:1.0;"/><polygon fill="#A80036" points="278.584,1012.2466,287.9898,1015.1675,283.5497,1011.6623,287.0549,1007.2223,278.584,1012.2466" style="stroke:#A80036;stroke-width:1.0;"/><text fill="#000000" font-family="sans-serif" font-size="13" lengthAdjust="spacing" textLength="32" x="945" y="861.0669">track</text><!--MD5=[28eeabe720f68d4a504c588a001b7271]
link Customer to FlowerSeeker--><path codeLine="120" d="M1350.15,624.132 C1363.11,642.842 1379.86,666.842 1395,688 C1404.62,701.447 1411.86,702.286 1417,718 C1422.79,735.691 1412.3,753.811 1400.35,767.511 " fill="none" id="Customer-to-FlowerSeeker" style="stroke:#A80036;stroke-width:1.0;"/><polygon fill="#A80036" points="1396.96,771.254,1405.9717,767.2804,1400.3214,767.5525,1400.0493,761.9022,1396.96,771.254" style="stroke:#A80036;stroke-width:1.0;"/><text fill="#000000" font-family="sans-serif" font-size="13" lengthAdjust="spacing" textLength="41" x="1420" y="731.0669">create</text><!--MD5=[9f6bc7aa1dd6a4cd318da6c09d76da0f]
link Consumer to ShoppingExperience--><path codeLine="121" d="M1510.82,417.189 C1499.92,474.571 1488.72,533.533 1482.64,565.588 " fill="none" id="Consumer-to-ShoppingExperience" style="stroke:#A80036;stroke-width:1.0;"/><polygon fill="#A80036" points="1481.63,570.876,1487.2426,562.7829,1482.5651,565.9642,1479.3838,561.2867,1481.63,570.876" style="stroke:#A80036;stroke-width:1.0;"/><text fill="#000000" font-family="sans-serif" font-size="13" lengthAdjust="spacing" textLength="32" x="1505" y="460.0669">have</text><!--MD5=[a738a32d39989a2f3f1d529a7c091f2f]
link Consumer to Review--><path codeLine="122" d="M1569.66,417.189 C1580.73,474.571 1592.1,533.533 1598.29,565.588 " fill="none" id="Consumer-to-Review" style="stroke:#A80036;stroke-width:1.0;"/><polygon fill="#A80036" points="1599.31,570.876,1601.5345,561.2816,1598.3638,565.9664,1593.679,562.7956,1599.31,570.876" style="stroke:#A80036;stroke-width:1.0;"/><text fill="#000000" font-family="sans-serif" font-size="13" lengthAdjust="spacing" textLength="30" x="1579" y="460.0669">view</text><!--MD5=[768461965297cb67b85dfac9de3081b4]
link Consumer to Ranking--><path codeLine="124" d="M1591.2,281.748 C1672.12,313.051 1829.72,384.395 1921,494 C1938.81,515.39 1950.97,545.175 1957.92,565.874 " fill="none" id="Consumer-to-Ranking" style="stroke:#A80036;stroke-width:1.0;"/><polygon fill="#A80036" points="1959.49,570.668,1960.4944,560.8705,1957.9359,565.9157,1952.8907,563.3571,1959.49,570.668" style="stroke:#A80036;stroke-width:1.0;"/><text fill="#000000" font-family="sans-serif" font-size="13" lengthAdjust="spacing" textLength="30" x="1890" y="460.0669">view</text><!--MD5=[f118a8b64c238b7a8853289dba2ab54e]
link Florist to Catalog--><path codeLine="125" d="M850.156,674.862 C844.844,679.838 839.124,684.312 833,688 C744.692,741.187 701.998,689.251 603,718 C561.284,730.114 517.224,754.186 488.994,771.264 " fill="none" id="Florist-to-Catalog" style="stroke:#A80036;stroke-width:1.0;"/><polygon fill="#A80036" points="484.602,773.943,494.3688,772.6741,488.8713,771.3405,490.2048,765.8431,484.602,773.943" style="stroke:#A80036;stroke-width:1.0;"/><text fill="#000000" font-family="sans-serif" font-size="13" lengthAdjust="spacing" textLength="43" x="604" y="731.0669">upload</text><!--MD5=[ad991f3597b6a3968bad60f96f2dd5b8]
link Florist to Payment--><path codeLine="126" d="M850.439,673.597 C829.567,707.28 806.958,743.767 792.65,766.858 " fill="none" id="Florist-to-Payment" style="stroke:#A80036;stroke-width:1.0;"/><polygon fill="#A80036" points="789.902,771.292,798.0434,765.7496,792.5362,767.0422,791.2437,761.535,789.902,771.292" style="stroke:#A80036;stroke-width:1.0;"/><text fill="#000000" font-family="sans-serif" font-size="13" lengthAdjust="spacing" textLength="47" x="823" y="731.0669">receive</text><!--MD5=[7989be3b4618b4c91aa3cee025b02af4]
link Consumer to Information--><path codeLine="127" d="M1591.09,316.994 C1633.02,362.246 1692.65,429.797 1738,494 C1754.62,517.53 1770.64,546.439 1781.07,566.348 " fill="none" id="Consumer-to-Information" style="stroke:#A80036;stroke-width:1.0;"/><polygon fill="#A80036" points="1783.46,570.955,1782.8622,561.1243,1781.1557,566.5176,1775.7624,564.8112,1783.46,570.955" style="stroke:#A80036;stroke-width:1.0;"/><text fill="#000000" font-family="sans-serif" font-size="13" lengthAdjust="spacing" textLength="47" x="1715" y="460.0669">receive</text><!--MD5=[6d3e05a8613df1ec5a6822b82839e883]
reverse link Order to History--><path codeLine="128" d="M254,948.0896 C254,963.8999 254,982.4259 254,995.9704 " fill="none" id="Order-backto-History" style="stroke:#A80036;stroke-width:1.0;"/><polygon fill="#FFFFFF" points="254,935.088,250,941.088,254,947.088,258,941.088,254,935.088" style="stroke:#A80036;stroke-width:1.0;"/><!--MD5=[661c6f124f1bc4448be150bf15374635]
link Florist to Status--><path codeLine="129" d="M850.453,675.375 C845.073,680.234 839.256,684.542 833,688 C727.817,746.146 394.418,653.511 293,718 C278.155,727.44 268.569,744.562 262.617,759.797 " fill="none" id="Florist-to-Status" style="stroke:#A80036;stroke-width:1.0;"/><polygon fill="#A80036" points="260.736,764.878,267.6137,757.8283,262.4731,760.1895,260.112,755.0489,260.736,764.878" style="stroke:#A80036;stroke-width:1.0;"/><text fill="#000000" font-family="sans-serif" font-size="13" lengthAdjust="spacing" textLength="48" x="294" y="731.0669">provide</text><!--MD5=[233c84c80e6da851135aa914e7c8124f]
link Consumer to Convenience--><path codeLine="131" d="M1591.28,277.137 C1684.69,304.259 1884.35,373.026 2008,494 C2029.55,515.084 2046.82,545.37 2057.2,566.259 " fill="none" id="Consumer-to-Convenience" style="stroke:#A80036;stroke-width:1.0;"/><polygon fill="#A80036" points="2059.43,570.83,2059.0757,560.9875,2057.2363,566.337,2051.8868,564.4975,2059.43,570.83" style="stroke:#A80036;stroke-width:1.0;"/><text fill="#000000" font-family="sans-serif" font-size="13" lengthAdjust="spacing" textLength="32" x="1967" y="460.0669">have</text><!--MD5=[6eeb5ad543117638e81dfbde3d4ca61d]
link Consumer to Decision--><path codeLine="132" d="M1591.04,373.128 C1623.28,442.378 1662.26,526.11 1680.95,566.265 " fill="none" id="Consumer-to-Decision" style="stroke:#A80036;stroke-width:1.0;"/><polygon fill="#A80036" points="1683.13,570.942,1682.9547,561.0947,1681.0183,566.4098,1675.7032,564.4734,1683.13,570.942" style="stroke:#A80036;stroke-width:1.0;"/><text fill="#000000" font-family="sans-serif" font-size="13" lengthAdjust="spacing" textLength="36" x="1631" y="460.0669">make</text><!--MD5=[20bbd8a62e9bc2387e0e40df676e6c06]
reverse link Florist to Order--><path codeLine="133" d="M840.035,683.408 C837.753,685.05 835.408,686.586 833,688 C779.223,719.567 615.343,706.8 554,718 C472.239,732.928 439.554,715.218 373,765 C331.496,796.045 346.749,825.662 313,865 C301.903,877.935 287.153,890.185 275.177,899.201 " fill="none" id="Florist-backto-Order" style="stroke:#A80036;stroke-width:1.0;"/><polygon fill="#FFFFFF" points="850.249,675.017,843.0737,675.735,840.9767,682.6344,848.152,681.9165,850.249,675.017" style="stroke:#A80036;stroke-width:1.0;"/><text fill="#000000" font-family="sans-serif" font-size="13" lengthAdjust="spacing" textLength="41" x="374" y="796.0669">cancel</text><!--MD5=[e1c8f976c4ea91ab038cfe1aea5133f8]
link Florist to RefundConsumer--><path codeLine="134" d="M850.283,673.912 C844.916,679.176 839.15,683.971 833,688 C778.315,723.824 749.614,693.512 689,718 C657.48,730.734 625.024,752.089 602.664,768.334 " fill="none" id="Florist-to-RefundConsumer" style="stroke:#A80036;stroke-width:1.0;"/><polygon fill="#A80036" points="598.608,771.304,608.2322,769.2122,602.6415,768.3492,603.5045,762.7586,598.608,771.304" style="stroke:#A80036;stroke-width:1.0;"/><text fill="#000000" font-family="sans-serif" font-size="13" lengthAdjust="spacing" textLength="41" x="690" y="731.0669">cancel</text><!--MD5=[5f43643fd18b76aa3f8f390f3eb0e47f]
@startuml
hide circle
class Consumer<actor> {
	occasion
	order
	experience
	orderHistory
}
class Florist<actor> {
	orderHistory
	pastTransaction
	service
}
class Customer<actor> {
}
class Status {
	confirm()
}
class History {
}
class Florist {
	market()
	cancel()
	have()
	create()
	upload()
	use()
	provide()
	track()
	receive()
}
class RefundConsumer {
}
class Consumer {
	make()
	cancel()
	buy()
	review()
	have()
	deliver()
	search()
	want()
	place()
	check()
	rank()
	track()
	schedule()
	receive()
	talk()
	view()
	get()
}
class Order {
}
class Product {
}
class ShoppingExperience {
}
class MarketAnalyticTool {
	market()
}
class FlowerSeeker {
}
class Customer {
	create()
	receive()
}
class Profile {
}
class Recommendation {
}
class Review {
}
class Catalog {
}
class Decision {
}
class Information {
}
class Record {
}
class Event {
}
class Service {
}
class Ranking {
}
class Payment {
}
class Convenience {
}
class Appointment {
}
class Option {
}
class Go {
}
class Experience {
}
Consumer - -> Appointment : schedule
Consumer - -> History : check
Florist - -> MarketAnalyticTool : use
Consumer - -> Option : have
Go <|- - Consumer
Consumer o- - Order : cancel
Florist - -> Profile : create
Florist - -> FlowerSeeker : create
Consumer - -> Product : rank
Product o- - Status
Consumer - -> Record : have
Consumer - -> Experience : supported_by
Florist - -> Record : have
Consumer - -> Florist : supported_by
Customer - -> Profile : create
Consumer - -> Event : talk
Status - -> Order : confirm
Customer - -> Recommendation : receive
Consumer - -> Product : review
Florist o- - Service : market
Florist - -> History : track
Customer - -> FlowerSeeker : create
Consumer - -> ShoppingExperience : have
Consumer - -> Review : view
Consumer o- - Order : track
Consumer - -> Ranking : view
Florist - -> Catalog : upload
Florist - -> Payment : receive
Consumer - -> Information : receive
Order o- - History
Florist - -> Status : provide
Consumer o- - Order : place
Consumer - -> Convenience : have
Consumer - -> Decision : make
Florist o- - Order : cancel
Florist - -> RefundConsumer : cancel
@enduml

PlantUML version 1.2021.10beta5(Unknown compile time)
(GPL source distribution)
Java Runtime: Java(TM) SE Runtime Environment
JVM: Java HotSpot(TM) 64-Bit Server VM
Default Encoding: UTF-8
Language: en
Country: US
--></g></svg>