<?xml version="1.0" encoding="UTF-8" standalone="no"?><svg xmlns="http://www.w3.org/2000/svg" xmlns:xlink="http://www.w3.org/1999/xlink" contentScriptType="application/ecmascript" contentStyleType="text/css" height="308px" preserveAspectRatio="none" style="width:2142px;height:308px;background:#FFFFFF;" version="1.1" viewBox="0 0 2142 308" width="2142px" zoomAndPan="magnify"><defs><filter height="300%" id="fk56e89e0wo1" width="300%" x="-1" y="-1"><feGaussianBlur result="blurOut" stdDeviation="2.0"/><feColorMatrix in="blurOut" result="blurOut2" type="matrix" values="0 0 0 0 0 0 0 0 0 0 0 0 0 0 0 0 0 0 .4 0"/><feOffset dx="4.0" dy="4.0" in="blurOut2" result="blurOut3"/><feBlend in="SourceGraphic" in2="blurOut3" mode="normal"/></filter></defs><g><!--MD5=[67ea9f8eb7ab97465d83c225b092f5fe]
class Consumer--><rect codeLine="8" fill="#FEFECE" filter="url(#fk56e89e0wo1)" height="168.0156" id="Consumer" style="stroke:#A80036;stroke-width:1.5;" width="102" x="489.5" y="10"/><text fill="#000000" font-family="sans-serif" font-size="12" lengthAdjust="spacing" textLength="61" x="492.5" y="26.1387">Consumer</text><rect fill="#FFFFFF" height="15.9688" style="stroke:#000000;stroke-width:1.0;stroke-dasharray:2.0,2.0;" width="33" x="561.5" y="7"/><text fill="#000000" font-family="sans-serif" font-size="12" font-style="italic" lengthAdjust="spacing" textLength="31" x="562.5" y="19.1387">actor</text><line style="stroke:#A80036;stroke-width:1.5;" x1="490.5" x2="590.5" y1="33.9688" y2="33.9688"/><line style="stroke:#A80036;stroke-width:1.5;" x1="490.5" x2="590.5" y1="41.9688" y2="41.9688"/><text fill="#000000" font-family="sans-serif" font-size="11" lengthAdjust="spacing" textLength="37" x="495.5" y="56.1792">have()</text><text fill="#000000" font-family="sans-serif" font-size="11" lengthAdjust="spacing" textLength="60" x="495.5" y="68.9839">schedule()</text><text fill="#000000" font-family="sans-serif" font-size="11" lengthAdjust="spacing" textLength="32" x="495.5" y="81.7886">rank()</text><text fill="#000000" font-family="sans-serif" font-size="11" lengthAdjust="spacing" textLength="35" x="495.5" y="94.5933">track()</text><text fill="#000000" font-family="sans-serif" font-size="11" lengthAdjust="spacing" textLength="39" x="495.5" y="107.3979">place()</text><text fill="#000000" font-family="sans-serif" font-size="11" lengthAdjust="spacing" textLength="35" x="495.5" y="120.2026">view()</text><text fill="#000000" font-family="sans-serif" font-size="11" lengthAdjust="spacing" textLength="45" x="495.5" y="133.0073">cancel()</text><text fill="#000000" font-family="sans-serif" font-size="11" lengthAdjust="spacing" textLength="40" x="495.5" y="145.812">make()</text><text fill="#000000" font-family="sans-serif" font-size="11" lengthAdjust="spacing" textLength="52" x="495.5" y="158.6167">receive()</text><text fill="#000000" font-family="sans-serif" font-size="11" lengthAdjust="spacing" textLength="41" x="495.5" y="171.4214">check()</text><!--MD5=[3e0e84c13e77e83e0682ce19d96d1ecd]
class Florist--><rect codeLine="24" fill="#FEFECE" filter="url(#fk56e89e0wo1)" height="155.2109" id="Florist" style="stroke:#A80036;stroke-width:1.5;" width="78" x="1425.5" y="16.5"/><text fill="#000000" font-family="sans-serif" font-size="12" lengthAdjust="spacing" textLength="37" x="1428.5" y="32.6387">Florist</text><rect fill="#FFFFFF" height="15.9688" style="stroke:#000000;stroke-width:1.0;stroke-dasharray:2.0,2.0;" width="33" x="1473.5" y="13.5"/><text fill="#000000" font-family="sans-serif" font-size="12" font-style="italic" lengthAdjust="spacing" textLength="31" x="1474.5" y="25.6387">actor</text><line style="stroke:#A80036;stroke-width:1.5;" x1="1426.5" x2="1502.5" y1="40.4688" y2="40.4688"/><line style="stroke:#A80036;stroke-width:1.5;" x1="1426.5" x2="1502.5" y1="48.4688" y2="48.4688"/><text fill="#000000" font-family="sans-serif" font-size="11" lengthAdjust="spacing" textLength="37" x="1431.5" y="62.6792">have()</text><text fill="#000000" font-family="sans-serif" font-size="11" lengthAdjust="spacing" textLength="46" x="1431.5" y="75.4839">upload()</text><text fill="#000000" font-family="sans-serif" font-size="11" lengthAdjust="spacing" textLength="35" x="1431.5" y="88.2886">track()</text><text fill="#000000" font-family="sans-serif" font-size="11" lengthAdjust="spacing" textLength="29" x="1431.5" y="101.0933">use()</text><text fill="#000000" font-family="sans-serif" font-size="11" lengthAdjust="spacing" textLength="51" x="1431.5" y="113.8979">provide()</text><text fill="#000000" font-family="sans-serif" font-size="11" lengthAdjust="spacing" textLength="48" x="1431.5" y="126.7026">market()</text><text fill="#000000" font-family="sans-serif" font-size="11" lengthAdjust="spacing" textLength="45" x="1431.5" y="139.5073">cancel()</text><text fill="#000000" font-family="sans-serif" font-size="11" lengthAdjust="spacing" textLength="45" x="1431.5" y="152.312">create()</text><text fill="#000000" font-family="sans-serif" font-size="11" lengthAdjust="spacing" textLength="52" x="1431.5" y="165.1167">receive()</text><!--MD5=[2ce0c9fb7f55b1e256ab28a8ea6b25ec]
class Customer--><rect codeLine="63" fill="#FEFECE" filter="url(#fk56e89e0wo1)" height="65.5781" id="Customer" style="stroke:#A80036;stroke-width:1.5;" width="99" x="1982" y="61"/><text fill="#000000" font-family="sans-serif" font-size="12" lengthAdjust="spacing" textLength="58" x="1985" y="77.1387">Customer</text><rect fill="#FFFFFF" height="15.9688" style="stroke:#000000;stroke-width:1.0;stroke-dasharray:2.0,2.0;" width="33" x="2051" y="58"/><text fill="#000000" font-family="sans-serif" font-size="12" font-style="italic" lengthAdjust="spacing" textLength="31" x="2052" y="70.1387">actor</text><line style="stroke:#A80036;stroke-width:1.5;" x1="1983" x2="2080" y1="84.9688" y2="84.9688"/><line style="stroke:#A80036;stroke-width:1.5;" x1="1983" x2="2080" y1="92.9688" y2="92.9688"/><text fill="#000000" font-family="sans-serif" font-size="11" lengthAdjust="spacing" textLength="45" x="1988" y="107.1792">create()</text><text fill="#000000" font-family="sans-serif" font-size="11" lengthAdjust="spacing" textLength="52" x="1988" y="119.9839">receive()</text><!--MD5=[c508b5b6bbe276ff5e2700b6641f837f]
class Appointment--><rect codeLine="20" fill="#FEFECE" filter="url(#fk56e89e0wo1)" height="39.9688" id="Appointment" style="stroke:#A80036;stroke-width:1.5;" width="82" x="93.5" y="255"/><text fill="#000000" font-family="sans-serif" font-size="12" lengthAdjust="spacing" textLength="76" x="96.5" y="271.1387">Appointment</text><line style="stroke:#A80036;stroke-width:1.5;" x1="94.5" x2="174.5" y1="278.9688" y2="278.9688"/><line style="stroke:#A80036;stroke-width:1.5;" x1="94.5" x2="174.5" y1="286.9688" y2="286.9688"/><!--MD5=[5c85d133e2c913f4b8608c8db253c015]
class Record--><rect codeLine="22" fill="#FEFECE" filter="url(#fk56e89e0wo1)" height="39.9688" id="Record" style="stroke:#A80036;stroke-width:1.5;" width="49" x="995" y="255"/><text fill="#000000" font-family="sans-serif" font-size="12" lengthAdjust="spacing" textLength="43" x="998" y="271.1387">Record</text><line style="stroke:#A80036;stroke-width:1.5;" x1="996" x2="1043" y1="278.9688" y2="278.9688"/><line style="stroke:#A80036;stroke-width:1.5;" x1="996" x2="1043" y1="286.9688" y2="286.9688"/><!--MD5=[cf4d6237fcae255cd2e1656cf84a30e2]
class Order--><rect codeLine="35" fill="#FEFECE" filter="url(#fk56e89e0wo1)" height="39.9688" id="Order" style="stroke:#A80036;stroke-width:1.5;" width="42" x="268.5" y="255"/><text fill="#000000" font-family="sans-serif" font-size="12" lengthAdjust="spacing" textLength="36" x="271.5" y="271.1387">Order</text><line style="stroke:#A80036;stroke-width:1.5;" x1="269.5" x2="309.5" y1="278.9688" y2="278.9688"/><line style="stroke:#A80036;stroke-width:1.5;" x1="269.5" x2="309.5" y1="286.9688" y2="286.9688"/><!--MD5=[4a7c0def0655f5e0723ce9f5f6c1a8ef]
class Convenience--><rect codeLine="37" fill="#FEFECE" filter="url(#fk56e89e0wo1)" height="39.9688" id="Convenience" style="stroke:#A80036;stroke-width:1.5;" width="84" x="345.5" y="255"/><text fill="#000000" font-family="sans-serif" font-size="12" lengthAdjust="spacing" textLength="78" x="348.5" y="271.1387">Convenience</text><line style="stroke:#A80036;stroke-width:1.5;" x1="346.5" x2="428.5" y1="278.9688" y2="278.9688"/><line style="stroke:#A80036;stroke-width:1.5;" x1="346.5" x2="428.5" y1="286.9688" y2="286.9688"/><!--MD5=[8dce5be27b88f5328a055380ca382252]
class Ranking--><rect codeLine="39" fill="#FEFECE" filter="url(#fk56e89e0wo1)" height="39.9688" id="Ranking" style="stroke:#A80036;stroke-width:1.5;" width="52" x="464.5" y="255"/><text fill="#000000" font-family="sans-serif" font-size="12" lengthAdjust="spacing" textLength="46" x="467.5" y="271.1387">Ranking</text><line style="stroke:#A80036;stroke-width:1.5;" x1="465.5" x2="515.5" y1="278.9688" y2="278.9688"/><line style="stroke:#A80036;stroke-width:1.5;" x1="465.5" x2="515.5" y1="286.9688" y2="286.9688"/><!--MD5=[dbb8b4f13c7b21394f9d757e58732f45]
class Service--><rect codeLine="41" fill="#FEFECE" filter="url(#fk56e89e0wo1)" height="39.9688" id="Service" style="stroke:#A80036;stroke-width:1.5;" width="52" x="1690.5" y="255"/><text fill="#000000" font-family="sans-serif" font-size="12" lengthAdjust="spacing" textLength="46" x="1693.5" y="271.1387">Service</text><line style="stroke:#A80036;stroke-width:1.5;" x1="1691.5" x2="1741.5" y1="278.9688" y2="278.9688"/><line style="stroke:#A80036;stroke-width:1.5;" x1="1691.5" x2="1741.5" y1="286.9688" y2="286.9688"/><!--MD5=[8c5e8c7e9f912a860b6ae1ff0c8fc593]
class PurchasingDecision--><rect codeLine="43" fill="#FEFECE" filter="url(#fk56e89e0wo1)" height="39.9688" id="PurchasingDecision" style="stroke:#A80036;stroke-width:1.5;" width="122" x="551.5" y="255"/><text fill="#000000" font-family="sans-serif" font-size="12" lengthAdjust="spacing" textLength="116" x="554.5" y="271.1387">PurchasingDecision</text><line style="stroke:#A80036;stroke-width:1.5;" x1="552.5" x2="672.5" y1="278.9688" y2="278.9688"/><line style="stroke:#A80036;stroke-width:1.5;" x1="552.5" x2="672.5" y1="286.9688" y2="286.9688"/><!--MD5=[4103ecd79478360f06b5dce88122c330]
class RefundConsumer--><rect codeLine="45" fill="#FEFECE" filter="url(#fk56e89e0wo1)" height="39.9688" id="RefundConsumer" style="stroke:#A80036;stroke-width:1.5;" width="108" x="1777.5" y="255"/><text fill="#000000" font-family="sans-serif" font-size="12" lengthAdjust="spacing" textLength="102" x="1780.5" y="271.1387">RefundConsumer</text><line style="stroke:#A80036;stroke-width:1.5;" x1="1778.5" x2="1884.5" y1="278.9688" y2="278.9688"/><line style="stroke:#A80036;stroke-width:1.5;" x1="1778.5" x2="1884.5" y1="286.9688" y2="286.9688"/><!--MD5=[eb0e8f8ddfdc21c3fdb48447501fec67]
class Review--><rect codeLine="47" fill="#FEFECE" filter="url(#fk56e89e0wo1)" height="39.9688" id="Review" style="stroke:#A80036;stroke-width:1.5;" width="49" x="709" y="255"/><text fill="#000000" font-family="sans-serif" font-size="12" lengthAdjust="spacing" textLength="43" x="712" y="271.1387">Review</text><line style="stroke:#A80036;stroke-width:1.5;" x1="710" x2="757" y1="278.9688" y2="278.9688"/><line style="stroke:#A80036;stroke-width:1.5;" x1="710" x2="757" y1="286.9688" y2="286.9688"/><!--MD5=[7b57f7066b803747d2119f99dd1555d4]
class Profile--><rect codeLine="49" fill="#FEFECE" filter="url(#fk56e89e0wo1)" height="39.9688" id="Profile" style="stroke:#A80036;stroke-width:1.5;" width="43" x="1934" y="255"/><text fill="#000000" font-family="sans-serif" font-size="12" lengthAdjust="spacing" textLength="37" x="1937" y="271.1387">Profile</text><line style="stroke:#A80036;stroke-width:1.5;" x1="1935" x2="1976" y1="278.9688" y2="278.9688"/><line style="stroke:#A80036;stroke-width:1.5;" x1="1935" x2="1976" y1="286.9688" y2="286.9688"/><!--MD5=[764fca796ce7f635542948d8fc39db5e]
class Payment--><rect codeLine="51" fill="#FEFECE" filter="url(#fk56e89e0wo1)" height="39.9688" id="Payment" style="stroke:#A80036;stroke-width:1.5;" width="56" x="1235.5" y="255"/><text fill="#000000" font-family="sans-serif" font-size="12" lengthAdjust="spacing" textLength="50" x="1238.5" y="271.1387">Payment</text><line style="stroke:#A80036;stroke-width:1.5;" x1="1236.5" x2="1290.5" y1="278.9688" y2="278.9688"/><line style="stroke:#A80036;stroke-width:1.5;" x1="1236.5" x2="1290.5" y1="286.9688" y2="286.9688"/><!--MD5=[5058daa74c102caaad8e356ac17ac60f]
class OrderHistory--><rect codeLine="53" fill="#FEFECE" filter="url(#fk56e89e0wo1)" height="39.9688" id="OrderHistory" style="stroke:#A80036;stroke-width:1.5;" width="85" x="1103" y="255"/><text fill="#000000" font-family="sans-serif" font-size="12" lengthAdjust="spacing" textLength="79" x="1106" y="271.1387">OrderHistory</text><line style="stroke:#A80036;stroke-width:1.5;" x1="1104" x2="1187" y1="278.9688" y2="278.9688"/><line style="stroke:#A80036;stroke-width:1.5;" x1="1104" x2="1187" y1="286.9688" y2="286.9688"/><!--MD5=[fcb49dcc9df7a64ab61c4586389fc8b9]
class ProductStatus--><rect codeLine="55" fill="#FEFECE" filter="url(#fk56e89e0wo1)" height="39.9688" id="ProductStatus" style="stroke:#A80036;stroke-width:1.5;" width="88" x="1326.5" y="255"/><text fill="#000000" font-family="sans-serif" font-size="12" lengthAdjust="spacing" textLength="82" x="1329.5" y="271.1387">ProductStatus</text><line style="stroke:#A80036;stroke-width:1.5;" x1="1327.5" x2="1413.5" y1="278.9688" y2="278.9688"/><line style="stroke:#A80036;stroke-width:1.5;" x1="1327.5" x2="1413.5" y1="286.9688" y2="286.9688"/><!--MD5=[b07065dfc0d0e09965ec10bfc328bb3e]
class Option--><rect codeLine="57" fill="#FEFECE" filter="url(#fk56e89e0wo1)" height="39.9688" id="Option" style="stroke:#A80036;stroke-width:1.5;" width="46" x="793.5" y="255"/><text fill="#000000" font-family="sans-serif" font-size="12" lengthAdjust="spacing" textLength="40" x="796.5" y="271.1387">Option</text><line style="stroke:#A80036;stroke-width:1.5;" x1="794.5" x2="838.5" y1="278.9688" y2="278.9688"/><line style="stroke:#A80036;stroke-width:1.5;" x1="794.5" x2="838.5" y1="286.9688" y2="286.9688"/><!--MD5=[fa3eb94fb0c26490875283805236d9ad]
class MarketAnalyticTool--><rect codeLine="59" fill="#FEFECE" filter="url(#fk56e89e0wo1)" height="39.9688" id="MarketAnalyticTool" style="stroke:#A80036;stroke-width:1.5;" width="119" x="1450" y="255"/><text fill="#000000" font-family="sans-serif" font-size="12" lengthAdjust="spacing" textLength="113" x="1453" y="271.1387">MarketAnalyticTool</text><line style="stroke:#A80036;stroke-width:1.5;" x1="1451" x2="1568" y1="278.9688" y2="278.9688"/><line style="stroke:#A80036;stroke-width:1.5;" x1="1451" x2="1568" y1="286.9688" y2="286.9688"/><!--MD5=[30fd7b95ab383a5e7c83ea23d4ea0fbf]
class Information--><rect codeLine="61" fill="#FEFECE" filter="url(#fk56e89e0wo1)" height="39.9688" id="Information" style="stroke:#A80036;stroke-width:1.5;" width="73" x="875" y="255"/><text fill="#000000" font-family="sans-serif" font-size="12" lengthAdjust="spacing" textLength="67" x="878" y="271.1387">Information</text><line style="stroke:#A80036;stroke-width:1.5;" x1="876" x2="947" y1="278.9688" y2="278.9688"/><line style="stroke:#A80036;stroke-width:1.5;" x1="876" x2="947" y1="286.9688" y2="286.9688"/><!--MD5=[6016c9c5425d34ae3d7a539916a91923]
class Recommendation--><rect codeLine="67" fill="#FEFECE" filter="url(#fk56e89e0wo1)" height="39.9688" id="Recommendation" style="stroke:#A80036;stroke-width:1.5;" width="110" x="2018.5" y="255"/><text fill="#000000" font-family="sans-serif" font-size="12" lengthAdjust="spacing" textLength="104" x="2021.5" y="271.1387">Recommendation</text><line style="stroke:#A80036;stroke-width:1.5;" x1="2019.5" x2="2127.5" y1="278.9688" y2="278.9688"/><line style="stroke:#A80036;stroke-width:1.5;" x1="2019.5" x2="2127.5" y1="286.9688" y2="286.9688"/><!--MD5=[72136138052d025cffdce3c22fbd185f]
class Product--><rect codeLine="69" fill="#FEFECE" filter="url(#fk56e89e0wo1)" height="39.9688" id="Product" style="stroke:#A80036;stroke-width:1.5;" width="51" x="7" y="255"/><text fill="#000000" font-family="sans-serif" font-size="12" lengthAdjust="spacing" textLength="45" x="10" y="271.1387">Product</text><line style="stroke:#A80036;stroke-width:1.5;" x1="8" x2="57" y1="278.9688" y2="278.9688"/><line style="stroke:#A80036;stroke-width:1.5;" x1="8" x2="57" y1="286.9688" y2="286.9688"/><!--MD5=[b582e6ce3c86f1934c1c2f1f310142ca]
class Catalog--><rect codeLine="71" fill="#FEFECE" filter="url(#fk56e89e0wo1)" height="39.9688" id="Catalog" style="stroke:#A80036;stroke-width:1.5;" width="51" x="1604" y="255"/><text fill="#000000" font-family="sans-serif" font-size="12" lengthAdjust="spacing" textLength="45" x="1607" y="271.1387">Catalog</text><line style="stroke:#A80036;stroke-width:1.5;" x1="1605" x2="1654" y1="278.9688" y2="278.9688"/><line style="stroke:#A80036;stroke-width:1.5;" x1="1605" x2="1654" y1="286.9688" y2="286.9688"/><!--MD5=[0e3e20dd3cb839d66eb3bcf2284cfc87]
link Florist to Order--><path codeLine="73" d="M1425.45,104.232 C1347.1,122.88 1165.2,166.781 1013.5,208 C987.578,215.0435 981.991,220.55 955.5,225 C679.931,271.29 597.845,184.328 327.5,255 C323.397,256.0726 319.22,257.622 315.209,259.3797 " fill="none" id="Florist-to-Order" style="stroke:#A80036;stroke-width:1.0;"/><polygon fill="#A80036" points="310.591,261.5229,320.4385,261.3609,315.126,259.4173,317.0696,254.1048,310.591,261.5229" style="stroke:#A80036;stroke-width:1.0;"/><text fill="#000000" font-family="sans-serif" font-size="13" lengthAdjust="spacing" textLength="41" x="1014.5" y="221.0669">cancel</text><!--MD5=[6719358d3c62861d657407de87e00868]
link Florist to ProductStatus--><path codeLine="74" d="M1425.45,169.357 C1410.26,198.2905 1393.92,229.3986 1383.05,250.1082 " fill="none" id="Florist-to-ProductStatus" style="stroke:#A80036;stroke-width:1.0;"/><polygon fill="#A80036" points="1380.68,254.6232,1388.4048,248.5136,1383.0039,250.1961,1381.3214,244.7953,1380.68,254.6232" style="stroke:#A80036;stroke-width:1.0;"/><text fill="#000000" font-family="sans-serif" font-size="13" lengthAdjust="spacing" textLength="48" x="1405.5" y="221.0669">provide</text><!--MD5=[c1528dc0dff0c09151988b7dd19d0a73]
link Florist to Record--><path codeLine="75" d="M1425.01,111.119 C1364.48,135.795 1245.1,184.353 1143.5,225 C1111.26,237.897 1074.23,252.5032 1049.09,262.3877 " fill="none" id="Florist-to-Record" style="stroke:#A80036;stroke-width:1.0;"/><polygon fill="#A80036" points="1044.23,264.2998,1054.0694,264.7311,1048.8836,262.4712,1051.1436,257.2854,1044.23,264.2998" style="stroke:#A80036;stroke-width:1.0;"/><text fill="#000000" font-family="sans-serif" font-size="13" lengthAdjust="spacing" textLength="32" x="1179.5" y="221.0669">have</text><!--MD5=[24de669c7c36f972318c8aac41b42a47]
link Customer to Recommendation--><path codeLine="76" d="M2039.01,127.002 C2047.3,162.319 2060.44,218.3526 2067.88,250.063 " fill="none" id="Customer-to-Recommendation" style="stroke:#A80036;stroke-width:1.0;"/><polygon fill="#A80036" points="2069.03,254.9366,2070.8697,245.2611,2067.8885,250.0686,2063.081,247.0874,2069.03,254.9366" style="stroke:#A80036;stroke-width:1.0;"/><text fill="#000000" font-family="sans-serif" font-size="13" lengthAdjust="spacing" textLength="47" x="2061.5" y="221.0669">receive</text><!--MD5=[233c84c80e6da851135aa914e7c8124f]
link Consumer to Convenience--><path codeLine="77" d="M489.128,155.102 C461.061,187.938 427.919,226.7126 407.301,250.8338 " fill="none" id="Consumer-to-Convenience" style="stroke:#A80036;stroke-width:1.0;"/><polygon fill="#A80036" points="403.852,254.8691,412.7407,250.6276,407.1011,251.0687,406.66,245.429,403.852,254.8691" style="stroke:#A80036;stroke-width:1.0;"/><text fill="#000000" font-family="sans-serif" font-size="13" lengthAdjust="spacing" textLength="32" x="442.5" y="221.0669">have</text><!--MD5=[a67ba1665fce0c099980a137a5bd2339]
link Consumer to Option--><path codeLine="78" d="M591.824,127.712 C626.989,150.183 674.657,180.761 716.5,208 C740.973,223.9315 768.676,242.2372 788.708,255.5224 " fill="none" id="Consumer-to-Option" style="stroke:#A80036;stroke-width:1.0;"/><polygon fill="#A80036" points="793.117,258.4473,787.8289,250.1385,788.9506,255.683,783.4061,256.8047,793.117,258.4473" style="stroke:#A80036;stroke-width:1.0;"/><text fill="#000000" font-family="sans-serif" font-size="13" lengthAdjust="spacing" textLength="32" x="742.5" y="221.0669">have</text><!--MD5=[6966e4c3665d06babc99cc7d844d0dc3]
link Customer to Profile--><path codeLine="79" d="M2017.91,127.002 C2002.92,162.319 1979.13,218.3526 1965.66,250.063 " fill="none" id="Customer-to-Profile" style="stroke:#A80036;stroke-width:1.0;"/><polygon fill="#A80036" points="1963.59,254.9366,1970.7905,248.217,1965.545,250.3346,1963.4274,245.0891,1963.59,254.9366" style="stroke:#A80036;stroke-width:1.0;"/><text fill="#000000" font-family="sans-serif" font-size="13" lengthAdjust="spacing" textLength="41" x="1982.5" y="221.0669">create</text><!--MD5=[768461965297cb67b85dfac9de3081b4]
link Consumer to Ranking--><path codeLine="80" d="M517.257,178.212 C509.937,204.4157 502.416,231.3421 497.219,249.9465 " fill="none" id="Consumer-to-Ranking" style="stroke:#A80036;stroke-width:1.0;"/><polygon fill="#A80036" points="495.817,254.9657,502.091,247.3738,497.1623,250.1501,494.386,245.2214,495.817,254.9657" style="stroke:#A80036;stroke-width:1.0;"/><text fill="#000000" font-family="sans-serif" font-size="13" lengthAdjust="spacing" textLength="30" x="509.5" y="221.0669">view</text><!--MD5=[6cbe00a371938127b153bdb9345e6bb9]
link Consumer to Product--><path codeLine="81" d="M489.192,101.003 C405.785,112.358 237.356,142.019 110.5,208 C89.1733,219.0926 68.5683,236.9358 53.8972,251.2743 " fill="none" id="Consumer-to-Product" style="stroke:#A80036;stroke-width:1.0;"/><polygon fill="#A80036" points="50.2983,254.8379,59.508,251.3477,53.8512,251.3198,53.8791,245.6631,50.2983,254.8379" style="stroke:#A80036;stroke-width:1.0;"/><text fill="#000000" font-family="sans-serif" font-size="13" lengthAdjust="spacing" textLength="28" x="111.5" y="221.0669">rank</text><!--MD5=[eb0e22a56097f049ef3d8ce0cc70cdd9]
link Florist to Service--><path codeLine="82" d="M1503.67,119.598 C1538.58,141.855 1590.76,175.96 1634.5,208 C1653.53,221.9368 1674.21,238.5962 1690.05,251.6907 " fill="none" id="Florist-to-Service" style="stroke:#A80036;stroke-width:1.0;"/><polygon fill="#A80036" points="1693.96,254.9391,1689.5775,246.119,1690.1083,251.7509,1684.4764,252.2817,1693.96,254.9391" style="stroke:#A80036;stroke-width:1.0;"/><text fill="#000000" font-family="sans-serif" font-size="13" lengthAdjust="spacing" textLength="46" x="1656.5" y="221.0669">market</text><!--MD5=[82d0563fc71a032e8798650dc41b3e28]
link Consumer to Order--><path codeLine="83" d="M489.492,96.696 C417.787,102.157 289.375,123.875 230.5,208 C216.678,227.7496 241.939,248.0733 263.582,260.8543 " fill="none" id="Consumer-to-Order" style="stroke:#A80036;stroke-width:1.0;"/><polygon fill="#A80036" points="268.13,263.4643,262.3148,255.5155,263.7933,260.9757,258.3331,262.4542,268.13,263.4643" style="stroke:#A80036;stroke-width:1.0;"/><text fill="#000000" font-family="sans-serif" font-size="13" lengthAdjust="spacing" textLength="34" x="231.5" y="221.0669">place</text><!--MD5=[82d0563fc71a032e8798650dc41b3e28]
link Consumer to Order--><path codeLine="89" d="M489.238,106.252 C435.735,120.678 353.253,150.948 306.5,208 C296.966,219.6343 292.709,235.9891 290.838,249.5071 " fill="none" id="Consumer-to-Order-1" style="stroke:#A80036;stroke-width:1.0;"/><polygon fill="#A80036" points="290.213,254.7227,295.2561,246.263,290.8083,249.7583,287.313,245.3105,290.213,254.7227" style="stroke:#A80036;stroke-width:1.0;"/><text fill="#000000" font-family="sans-serif" font-size="13" lengthAdjust="spacing" textLength="32" x="307.5" y="221.0669">track</text><!--MD5=[82d0563fc71a032e8798650dc41b3e28]
link Consumer to Order--><path codeLine="90" d="M489.404,131.439 C436.436,169.213 355.793,226.7234 315.016,255.8034 " fill="none" id="Consumer-to-Order-2" style="stroke:#A80036;stroke-width:1.0;"/><polygon fill="#A80036" points="310.72,258.8667,320.3701,256.8982,314.791,255.9638,315.7254,250.3846,310.72,258.8667" style="stroke:#A80036;stroke-width:1.0;"/><text fill="#000000" font-family="sans-serif" font-size="13" lengthAdjust="spacing" textLength="41" x="379.5" y="221.0669">cancel</text><!--MD5=[f150701dd2437d5c23184ce97021bb65]
link Consumer to OrderHistory--><path codeLine="84" d="M591.801,98.113 C688.67,105.669 903.246,130.492 1064.5,208 C1086.81,218.7217 1108.34,236.7619 1123.6,251.2743 " fill="none" id="Consumer-to-OrderHistory" style="stroke:#A80036;stroke-width:1.0;"/><polygon fill="#A80036" points="1127.33,254.8813,1123.6299,245.7539,1123.7315,251.4098,1118.0756,251.5114,1127.33,254.8813" style="stroke:#A80036;stroke-width:1.0;"/><text fill="#000000" font-family="sans-serif" font-size="13" lengthAdjust="spacing" textLength="37" x="1092.5" y="221.0669">check</text><!--MD5=[ad991f3597b6a3968bad60f96f2dd5b8]
link Florist to Payment--><path codeLine="85" d="M1425.27,129.938 C1384.98,165.819 1323.44,220.6195 1289.04,251.2527 " fill="none" id="Florist-to-Payment" style="stroke:#A80036;stroke-width:1.0;"/><polygon fill="#A80036" points="1284.99,254.8657,1294.3763,251.8828,1288.7294,251.5466,1289.0657,245.8997,1284.99,254.8657" style="stroke:#A80036;stroke-width:1.0;"/><text fill="#000000" font-family="sans-serif" font-size="13" lengthAdjust="spacing" textLength="47" x="1335.5" y="221.0669">receive</text><!--MD5=[770ad9ae954fad37b129f984437d6df9]
link Consumer to PurchasingDecision--><path codeLine="86" d="M573.971,178.212 C584.511,204.4157 595.342,231.3421 602.825,249.9465 " fill="none" id="Consumer-to-PurchasingDecision" style="stroke:#A80036;stroke-width:1.0;"/><polygon fill="#A80036" points="604.844,254.9657,605.1961,245.1231,602.9779,250.327,597.7741,248.1088,604.844,254.9657" style="stroke:#A80036;stroke-width:1.0;"/><text fill="#000000" font-family="sans-serif" font-size="13" lengthAdjust="spacing" textLength="36" x="592.5" y="221.0669">make</text><!--MD5=[974118cb7767e9a230b243ee3672be6f]
link Florist to OrderHistory--><path codeLine="87" d="M1425.38,116.949 C1363.93,151.432 1245.47,217.9015 1184.25,252.2571 " fill="none" id="Florist-to-OrderHistory" style="stroke:#A80036;stroke-width:1.0;"/><polygon fill="#A80036" points="1179.58,254.8757,1189.3868,253.9666,1183.9421,252.4319,1185.4767,246.9872,1179.58,254.8757" style="stroke:#A80036;stroke-width:1.0;"/><text fill="#000000" font-family="sans-serif" font-size="13" lengthAdjust="spacing" textLength="32" x="1259.5" y="221.0669">track</text><!--MD5=[f118a8b64c238b7a8853289dba2ab54e]
link Florist to Catalog--><path codeLine="88" d="M1503.6,137.421 C1536.44,173.04 1582.09,222.5664 1608.44,251.1548 " fill="none" id="Florist-to-Catalog" style="stroke:#A80036;stroke-width:1.0;"/><polygon fill="#A80036" points="1611.87,254.8757,1608.7049,245.5493,1608.4787,251.2016,1602.8264,250.9754,1611.87,254.8757" style="stroke:#A80036;stroke-width:1.0;"/><text fill="#000000" font-family="sans-serif" font-size="13" lengthAdjust="spacing" textLength="43" x="1582.5" y="221.0669">upload</text><!--MD5=[e1c8f976c4ea91ab038cfe1aea5133f8]
link Florist to RefundConsumer--><path codeLine="91" d="M1503.85,111.931 C1552.95,133.3 1639.25,171.666 1711.5,208 C1739.48,222.0704 1770.43,239.1343 1793.9,252.3863 " fill="none" id="Florist-to-RefundConsumer" style="stroke:#A80036;stroke-width:1.0;"/><polygon fill="#A80036" points="1798.49,254.9838,1792.6396,247.0609,1794.1423,252.5145,1788.6887,254.0172,1798.49,254.9838" style="stroke:#A80036;stroke-width:1.0;"/><text fill="#000000" font-family="sans-serif" font-size="13" lengthAdjust="spacing" textLength="41" x="1743.5" y="221.0669">cancel</text><!--MD5=[a738a32d39989a2f3f1d529a7c091f2f]
link Consumer to Review--><path codeLine="92" d="M591.714,142.499 C629.548,177.588 679.393,223.8175 708.788,251.0804 " fill="none" id="Consumer-to-Review" style="stroke:#A80036;stroke-width:1.0;"/><polygon fill="#A80036" points="712.621,254.6352,708.7422,245.5823,708.955,251.2352,703.3021,251.448,712.621,254.6352" style="stroke:#A80036;stroke-width:1.0;"/><text fill="#000000" font-family="sans-serif" font-size="13" lengthAdjust="spacing" textLength="30" x="677.5" y="221.0669">view</text><!--MD5=[dd490d3dab19f87c973581f3df6bdebe]
link Florist to Profile--><path codeLine="93" d="M1503.75,107.691 C1565.69,127.896 1689.74,169.079 1793.5,208 C1841.68,226.0719 1897.05,249.1334 1928.98,262.6632 " fill="none" id="Florist-to-Profile" style="stroke:#A80036;stroke-width:1.0;"/><polygon fill="#A80036" points="1933.9,264.7506,1927.1639,257.5656,1929.2935,262.8062,1924.0529,264.9359,1933.9,264.7506" style="stroke:#A80036;stroke-width:1.0;"/><text fill="#000000" font-family="sans-serif" font-size="13" lengthAdjust="spacing" textLength="41" x="1835.5" y="221.0669">create</text><!--MD5=[0e639e78fd62fefc1878e590497ae9b9]
link Consumer to Appointment--><path codeLine="94" d="M489.379,96.473 C409.305,101.47 253.826,122.393 160.5,208 C148.618,218.8991 142.089,235.9122 138.546,249.9351 " fill="none" id="Consumer-to-Appointment" style="stroke:#A80036;stroke-width:1.0;"/><polygon fill="#A80036" points="137.371,254.9493,143.3192,247.0995,138.5119,250.0812,135.5302,245.274,137.371,254.9493" style="stroke:#A80036;stroke-width:1.0;"/><text fill="#000000" font-family="sans-serif" font-size="13" lengthAdjust="spacing" textLength="57" x="161.5" y="221.0669">schedule</text><!--MD5=[3dcf6d79e9ed3e1807120ac8bd7d0080]
link Consumer to Record--><path codeLine="95" d="M591.659,110.765 C657.328,131.376 774.488,169.416 872.5,208 C914.011,224.3414 960.847,245.9342 990.266,259.8949 " fill="none" id="Consumer-to-Record" style="stroke:#A80036;stroke-width:1.0;"/><polygon fill="#A80036" points="994.834,262.068,988.426,254.5889,990.3191,259.9196,984.9885,261.8127,994.834,262.068" style="stroke:#A80036;stroke-width:1.0;"/><text fill="#000000" font-family="sans-serif" font-size="13" lengthAdjust="spacing" textLength="32" x="914.5" y="221.0669">have</text><!--MD5=[7f2e69f52ffab3176a1e9824edfc7b23]
link Florist to MarketAnalyticTool--><path codeLine="96" d="M1483.78,171.691 C1490.86,199.8585 1498.38,229.7543 1503.44,249.9062 " fill="none" id="Florist-to-MarketAnalyticTool" style="stroke:#A80036;stroke-width:1.0;"/><polygon fill="#A80036" points="1504.68,254.8127,1506.3619,245.1085,1503.4594,249.964,1498.6039,247.0615,1504.68,254.8127" style="stroke:#A80036;stroke-width:1.0;"/><text fill="#000000" font-family="sans-serif" font-size="13" lengthAdjust="spacing" textLength="23" x="1497.5" y="221.0669">use</text><!--MD5=[7989be3b4618b4c91aa3cee025b02af4]
link Consumer to Information--><path codeLine="97" d="M591.516,117.992 C640.885,140.413 717.699,175.753 783.5,208 C812.984,222.4494 845.903,239.4426 870.973,252.5672 " fill="none" id="Consumer-to-Information" style="stroke:#A80036;stroke-width:1.0;"/><polygon fill="#A80036" points="875.56,254.9713,869.4458,247.2501,871.1315,252.65,865.7317,254.3357,875.56,254.9713" style="stroke:#A80036;stroke-width:1.0;"/><text fill="#000000" font-family="sans-serif" font-size="13" lengthAdjust="spacing" textLength="47" x="816.5" y="221.0669">receive</text><!--MD5=[bb4a2dbe68ffe180b51e4ca987c395d1]
@startuml
hide circle
class Consumer<actor> {
}
class Florist<actor> {
}
class Customer<actor> {
}
class Consumer {
	have()
	schedule()
	rank()
	track()
	place()
	view()
	cancel()
	make()
	receive()
	check()
}
class Appointment {
}
class Record {
}
class Florist {
	have()
	upload()
	track()
	use()
	provide()
	market()
	cancel()
	create()
	receive()
}
class Order {
}
class Convenience {
}
class Ranking {
}
class Service {
}
class PurchasingDecision {
}
class RefundConsumer {
}
class Review {
}
class Profile {
}
class Payment {
}
class OrderHistory {
}
class ProductStatus {
}
class Option {
}
class MarketAnalyticTool {
}
class Information {
}
class Customer {
	create()
	receive()
}
class Recommendation {
}
class Product {
}
class Catalog {
}
Florist - -> Order : cancel
Florist - -> ProductStatus : provide
Florist - -> Record : have
Customer - -> Recommendation : receive
Consumer - -> Convenience : have
Consumer - -> Option : have
Customer - -> Profile : create
Consumer - -> Ranking : view
Consumer - -> Product : rank
Florist - -> Service : market
Consumer - -> Order : place
Consumer - -> OrderHistory : check
Florist - -> Payment : receive
Consumer - -> PurchasingDecision : make
Florist - -> OrderHistory : track
Florist - -> Catalog : upload
Consumer - -> Order : track
Consumer - -> Order : cancel
Florist - -> RefundConsumer : cancel
Consumer - -> Review : view
Florist - -> Profile : create
Consumer - -> Appointment : schedule
Consumer - -> Record : have
Florist - -> MarketAnalyticTool : use
Consumer - -> Information : receive
@enduml

PlantUML version 1.2021.6beta6(Unknown compile time)
(GPL source distribution)
Java Runtime: Java(TM) SE Runtime Environment
JVM: Java HotSpot(TM) 64-Bit Server VM
Default Encoding: UTF-8
Language: en
Country: US
--></g></svg>