<?xml version="1.0" encoding="UTF-8" standalone="no"?><svg xmlns="http://www.w3.org/2000/svg" xmlns:xlink="http://www.w3.org/1999/xlink" contentScriptType="application/ecmascript" contentStyleType="text/css" height="489px" preserveAspectRatio="none" style="width:1157px;height:489px;background:#FFFFFF;" version="1.1" viewBox="0 0 1157 489" width="1157px" zoomAndPan="magnify"><defs><filter height="300%" id="f19wjl9yirt71b" width="300%" x="-1" y="-1"><feGaussianBlur result="blurOut" stdDeviation="2.0"/><feColorMatrix in="blurOut" result="blurOut2" type="matrix" values="0 0 0 0 0 0 0 0 0 0 0 0 0 0 0 0 0 0 .4 0"/><feOffset dx="4.0" dy="4.0" in="blurOut2" result="blurOut3"/><feBlend in="SourceGraphic" in2="blurOut3" mode="normal"/></filter></defs><g><!--MD5=[ed6624c6556d5e7b1bd23032162d20b7]
class Client--><rect codeLine="16" fill="#FEFECE" filter="url(#f19wjl9yirt71b)" height="168.0156" id="Client" style="stroke:#A80036;stroke-width:1.5;" width="86" x="250.5" y="191"/><text fill="#000000" font-family="sans-serif" font-size="12" lengthAdjust="spacing" textLength="33" x="259.5" y="207.1387">Client</text><rect fill="#FFFFFF" height="15.9688" style="stroke:#000000;stroke-width:1.0;stroke-dasharray:2.0,2.0;" width="33" x="306.5" y="188"/><text fill="#000000" font-family="sans-serif" font-size="12" font-style="italic" lengthAdjust="spacing" textLength="31" x="307.5" y="200.1387">actor</text><line style="stroke:#A80036;stroke-width:1.5;" x1="251.5" x2="335.5" y1="214.9688" y2="214.9688"/><text fill="#000000" font-family="sans-serif" font-size="11" lengthAdjust="spacing" textLength="74" x="256.5" y="229.1792">convenience</text><line style="stroke:#A80036;stroke-width:1.5;" x1="251.5" x2="335.5" y1="235.7734" y2="235.7734"/><text fill="#000000" font-family="sans-serif" font-size="11" lengthAdjust="spacing" textLength="27" x="256.5" y="249.9839">get()</text><text fill="#000000" font-family="sans-serif" font-size="11" lengthAdjust="spacing" textLength="52" x="256.5" y="262.7886">register()</text><text fill="#000000" font-family="sans-serif" font-size="11" lengthAdjust="spacing" textLength="57" x="256.5" y="275.5933">check_in()</text><text fill="#000000" font-family="sans-serif" font-size="11" lengthAdjust="spacing" textLength="40" x="256.5" y="288.3979">enroll()</text><text fill="#000000" font-family="sans-serif" font-size="11" lengthAdjust="spacing" textLength="51" x="256.5" y="301.2026">provide()</text><text fill="#000000" font-family="sans-serif" font-size="11" lengthAdjust="spacing" textLength="36" x="256.5" y="314.0073">save()</text><text fill="#000000" font-family="sans-serif" font-size="11" lengthAdjust="spacing" textLength="29" x="256.5" y="326.812">use()</text><text fill="#000000" font-family="sans-serif" font-size="11" lengthAdjust="spacing" textLength="57" x="256.5" y="339.6167">show_up()</text><text fill="#000000" font-family="sans-serif" font-size="11" lengthAdjust="spacing" textLength="39" x="256.5" y="352.4214">enter()</text><!--MD5=[9563755d011c5cec7ec66dc53565a59e]
class Board--><rect codeLine="36" fill="#FEFECE" filter="url(#f19wjl9yirt71b)" height="52.7734" id="Board" style="stroke:#A80036;stroke-width:1.5;" width="77" x="740" y="35.5"/><text fill="#000000" font-family="sans-serif" font-size="12" lengthAdjust="spacing" textLength="36" x="743" y="51.6387">Board</text><rect fill="#FFFFFF" height="15.9688" style="stroke:#000000;stroke-width:1.0;stroke-dasharray:2.0,2.0;" width="33" x="787" y="32.5"/><text fill="#000000" font-family="sans-serif" font-size="12" font-style="italic" lengthAdjust="spacing" textLength="31" x="788" y="44.6387">actor</text><line style="stroke:#A80036;stroke-width:1.5;" x1="741" x2="816" y1="59.4688" y2="59.4688"/><line style="stroke:#A80036;stroke-width:1.5;" x1="741" x2="816" y1="67.4688" y2="67.4688"/><text fill="#000000" font-family="sans-serif" font-size="11" lengthAdjust="spacing" textLength="40" x="746" y="81.6792">share()</text><!--MD5=[f58fd777f29c17413488bea9e7cfcca3]
class Member--><rect codeLine="48" fill="#FEFECE" filter="url(#f19wjl9yirt71b)" height="65.5781" id="Member" style="stroke:#A80036;stroke-width:1.5;" width="91" x="1007" y="29"/><text fill="#000000" font-family="sans-serif" font-size="12" lengthAdjust="spacing" textLength="50" x="1010" y="45.1387">Member</text><rect fill="#FFFFFF" height="15.9688" style="stroke:#000000;stroke-width:1.0;stroke-dasharray:2.0,2.0;" width="33" x="1068" y="26"/><text fill="#000000" font-family="sans-serif" font-size="12" font-style="italic" lengthAdjust="spacing" textLength="31" x="1069" y="38.1387">actor</text><line style="stroke:#A80036;stroke-width:1.5;" x1="1008" x2="1097" y1="52.9688" y2="52.9688"/><line style="stroke:#A80036;stroke-width:1.5;" x1="1008" x2="1097" y1="60.9688" y2="60.9688"/><text fill="#000000" font-family="sans-serif" font-size="11" lengthAdjust="spacing" textLength="37" x="1013" y="75.1792">keep()</text><text fill="#000000" font-family="sans-serif" font-size="11" lengthAdjust="spacing" textLength="47" x="1013" y="87.9839">access()</text><!--MD5=[4bf0339fc882b43a7cdd637248b9c8fa]
class WaWITPersonnel--><rect codeLine="27" fill="#FEFECE" filter="url(#f19wjl9yirt71b)" height="103.9922" id="WaWITPersonnel" style="stroke:#A80036;stroke-width:1.5;" width="141" x="408" y="10"/><text fill="#000000" font-family="sans-serif" font-size="12" lengthAdjust="spacing" textLength="100" x="411" y="26.1387">WaWITPersonnel</text><rect fill="#FFFFFF" height="15.9688" style="stroke:#000000;stroke-width:1.0;stroke-dasharray:2.0,2.0;" width="33" x="519" y="7"/><text fill="#000000" font-family="sans-serif" font-size="12" font-style="italic" lengthAdjust="spacing" textLength="31" x="520" y="19.1387">actor</text><line style="stroke:#A80036;stroke-width:1.5;" x1="409" x2="548" y1="33.9688" y2="33.9688"/><line style="stroke:#A80036;stroke-width:1.5;" x1="409" x2="548" y1="41.9688" y2="41.9688"/><text fill="#000000" font-family="sans-serif" font-size="11" lengthAdjust="spacing" textLength="61" x="414" y="56.1792">generate()</text><text fill="#000000" font-family="sans-serif" font-size="11" lengthAdjust="spacing" textLength="53" x="414" y="68.9839">analyse()</text><text fill="#000000" font-family="sans-serif" font-size="11" lengthAdjust="spacing" textLength="35" x="414" y="81.7886">track()</text><text fill="#000000" font-family="sans-serif" font-size="11" lengthAdjust="spacing" textLength="51" x="414" y="94.5933">capture()</text><text fill="#000000" font-family="sans-serif" font-size="11" lengthAdjust="spacing" textLength="29" x="414" y="107.3979">use()</text><!--MD5=[2e42295458bb0bec21c9622a623eb29e]
class Time--><rect codeLine="11" fill="#FEFECE" filter="url(#f19wjl9yirt71b)" height="52.7734" id="Time" style="stroke:#A80036;stroke-width:1.5;" width="51" x="85" y="35.5"/><text fill="#000000" font-family="sans-serif" font-size="12" lengthAdjust="spacing" textLength="29" x="96" y="51.6387">Time</text><line style="stroke:#A80036;stroke-width:1.5;" x1="86" x2="135" y1="59.4688" y2="59.4688"/><line style="stroke:#A80036;stroke-width:1.5;" x1="86" x2="135" y1="67.4688" y2="67.4688"/><text fill="#000000" font-family="sans-serif" font-size="11" lengthAdjust="spacing" textLength="39" x="91" y="81.6792">enter()</text><!--MD5=[60c9ed31c535bee25c55ce21b5b01399]
class Data--><rect codeLine="14" fill="#FEFECE" filter="url(#f19wjl9yirt71b)" height="39.9688" id="Data" style="stroke:#A80036;stroke-width:1.5;" width="33" x="7" y="436"/><text fill="#000000" font-family="sans-serif" font-size="12" lengthAdjust="spacing" textLength="27" x="10" y="452.1387">Data</text><line style="stroke:#A80036;stroke-width:1.5;" x1="8" x2="39" y1="459.9688" y2="459.9688"/><line style="stroke:#A80036;stroke-width:1.5;" x1="8" x2="39" y1="467.9688" y2="467.9688"/><!--MD5=[4296a1ab0576a383a1a509d52c22ebf0]
class Type--><rect codeLine="34" fill="#FEFECE" filter="url(#f19wjl9yirt71b)" height="39.9688" id="Type" style="stroke:#A80036;stroke-width:1.5;" width="36" x="179.5" y="255"/><text fill="#000000" font-family="sans-serif" font-size="12" lengthAdjust="spacing" textLength="30" x="182.5" y="271.1387">Type</text><line style="stroke:#A80036;stroke-width:1.5;" x1="180.5" x2="214.5" y1="278.9688" y2="278.9688"/><line style="stroke:#A80036;stroke-width:1.5;" x1="180.5" x2="214.5" y1="286.9688" y2="286.9688"/><!--MD5=[435987a092acd998883c72f97c5c9408]
class Number--><rect codeLine="39" fill="#FEFECE" filter="url(#f19wjl9yirt71b)" height="52.7734" id="Number" style="stroke:#A80036;stroke-width:1.5;" width="53" x="859" y="248.5"/><text fill="#000000" font-family="sans-serif" font-size="12" lengthAdjust="spacing" textLength="47" x="862" y="264.6387">Number</text><line style="stroke:#A80036;stroke-width:1.5;" x1="860" x2="911" y1="272.4688" y2="272.4688"/><line style="stroke:#A80036;stroke-width:1.5;" x1="860" x2="911" y1="280.4688" y2="280.4688"/><text fill="#000000" font-family="sans-serif" font-size="11" lengthAdjust="spacing" textLength="29" x="865" y="294.6792">use()</text><!--MD5=[bbd32abb87742158d8b9937325662454]
class Center--><rect codeLine="42" fill="#FEFECE" filter="url(#f19wjl9yirt71b)" height="39.9688" id="Center" style="stroke:#A80036;stroke-width:1.5;" width="46" x="504.5" y="436"/><text fill="#000000" font-family="sans-serif" font-size="12" lengthAdjust="spacing" textLength="40" x="507.5" y="452.1387">Center</text><line style="stroke:#A80036;stroke-width:1.5;" x1="505.5" x2="549.5" y1="459.9688" y2="459.9688"/><line style="stroke:#A80036;stroke-width:1.5;" x1="505.5" x2="549.5" y1="467.9688" y2="467.9688"/><!--MD5=[dbb8b4f13c7b21394f9d757e58732f45]
class Service--><rect codeLine="44" fill="#FEFECE" filter="url(#f19wjl9yirt71b)" height="39.9688" id="Service" style="stroke:#A80036;stroke-width:1.5;" width="52" x="400.5" y="436"/><text fill="#000000" font-family="sans-serif" font-size="12" lengthAdjust="spacing" textLength="46" x="403.5" y="452.1387">Service</text><line style="stroke:#A80036;stroke-width:1.5;" x1="401.5" x2="451.5" y1="459.9688" y2="459.9688"/><line style="stroke:#A80036;stroke-width:1.5;" x1="401.5" x2="451.5" y1="467.9688" y2="467.9688"/><!--MD5=[f00dbe8c0302c6aec2cb26b3c659c8fc]
class Report--><rect codeLine="46" fill="#FEFECE" filter="url(#f19wjl9yirt71b)" height="39.9688" id="Report" style="stroke:#A80036;stroke-width:1.5;" width="46" x="660.5" y="255"/><text fill="#000000" font-family="sans-serif" font-size="12" lengthAdjust="spacing" textLength="40" x="663.5" y="271.1387">Report</text><line style="stroke:#A80036;stroke-width:1.5;" x1="661.5" x2="705.5" y1="278.9688" y2="278.9688"/><line style="stroke:#A80036;stroke-width:1.5;" x1="661.5" x2="705.5" y1="286.9688" y2="286.9688"/><!--MD5=[f5ea1f64bc04260f09f32845b6b2c213]
class Portal--><rect codeLine="52" fill="#FEFECE" filter="url(#f19wjl9yirt71b)" height="39.9688" id="Portal" style="stroke:#A80036;stroke-width:1.5;" width="39" x="947" y="255"/><text fill="#000000" font-family="sans-serif" font-size="12" lengthAdjust="spacing" textLength="33" x="950" y="271.1387">Portal</text><line style="stroke:#A80036;stroke-width:1.5;" x1="948" x2="985" y1="278.9688" y2="278.9688"/><line style="stroke:#A80036;stroke-width:1.5;" x1="948" x2="985" y1="286.9688" y2="286.9688"/><!--MD5=[ac13618b1a974308c1f12eb6c57723dc]
class Event--><rect codeLine="54" fill="#FEFECE" filter="url(#f19wjl9yirt71b)" height="39.9688" id="Event" style="stroke:#A80036;stroke-width:1.5;" width="39" x="1033" y="255"/><text fill="#000000" font-family="sans-serif" font-size="12" lengthAdjust="spacing" textLength="33" x="1036" y="271.1387">Event</text><line style="stroke:#A80036;stroke-width:1.5;" x1="1034" x2="1071" y1="278.9688" y2="278.9688"/><line style="stroke:#A80036;stroke-width:1.5;" x1="1034" x2="1071" y1="286.9688" y2="286.9688"/><!--MD5=[1a502b0dbedafd291c48f46ef8646183]
class Feedback--><rect codeLine="56" fill="#FEFECE" filter="url(#f19wjl9yirt71b)" height="39.9688" id="Feedback" style="stroke:#A80036;stroke-width:1.5;" width="66" x="139.5" y="436"/><text fill="#000000" font-family="sans-serif" font-size="12" lengthAdjust="spacing" textLength="60" x="142.5" y="452.1387">Feedback</text><line style="stroke:#A80036;stroke-width:1.5;" x1="140.5" x2="204.5" y1="459.9688" y2="459.9688"/><line style="stroke:#A80036;stroke-width:1.5;" x1="140.5" x2="204.5" y1="467.9688" y2="467.9688"/><!--MD5=[b8e0354e0f3f5cbf52553869b78c0afa]
class Job--><rect codeLine="58" fill="#FEFECE" filter="url(#f19wjl9yirt71b)" height="39.9688" id="Job" style="stroke:#A80036;stroke-width:1.5;" width="26" x="249.5" y="436"/><text fill="#000000" font-family="sans-serif" font-size="12" lengthAdjust="spacing" textLength="20" x="252.5" y="452.1387">Job</text><line style="stroke:#A80036;stroke-width:1.5;" x1="250.5" x2="274.5" y1="459.9688" y2="459.9688"/><line style="stroke:#A80036;stroke-width:1.5;" x1="250.5" x2="274.5" y1="467.9688" y2="467.9688"/><!--MD5=[c508b5b6bbe276ff5e2700b6641f837f]
class Appointment--><rect codeLine="60" fill="#FEFECE" filter="url(#f19wjl9yirt71b)" height="39.9688" id="Appointment" style="stroke:#A80036;stroke-width:1.5;" width="82" x="741.5" y="255"/><text fill="#000000" font-family="sans-serif" font-size="12" lengthAdjust="spacing" textLength="76" x="744.5" y="271.1387">Appointment</text><line style="stroke:#A80036;stroke-width:1.5;" x1="742.5" x2="822.5" y1="278.9688" y2="278.9688"/><line style="stroke:#A80036;stroke-width:1.5;" x1="742.5" x2="822.5" y1="286.9688" y2="286.9688"/><!--MD5=[3fd616f346a44cd59a91eb10b19e157c]
class User--><rect codeLine="62" fill="#FEFECE" filter="url(#f19wjl9yirt71b)" height="39.9688" id="User" style="stroke:#A80036;stroke-width:1.5;" width="35" x="1108" y="255"/><text fill="#000000" font-family="sans-serif" font-size="12" lengthAdjust="spacing" textLength="29" x="1111" y="271.1387">User</text><line style="stroke:#A80036;stroke-width:1.5;" x1="1109" x2="1142" y1="278.9688" y2="278.9688"/><line style="stroke:#A80036;stroke-width:1.5;" x1="1109" x2="1142" y1="286.9688" y2="286.9688"/><!--MD5=[1eed8d26a5fecb962bac1ac3ddcd0283]
link Client to Data--><path codeLine="64" d="M250.289,342.844 C244.769,348.785 238.82,354.313 232.5,359 C200.322,382.8651 184.174,372.877 147.5,389 C110.3,405.3546 68.9924,428.3807 44.6846,442.4647 " fill="none" id="Client-to-Data" style="stroke:#A80036;stroke-width:1.0;"/><polygon fill="#A80036" points="40.3484,444.9867,50.1392,443.9191,44.6704,442.4727,46.1168,437.0039,40.3484,444.9867" style="stroke:#A80036;stroke-width:1.0;"/><text fill="#000000" font-family="sans-serif" font-size="13" lengthAdjust="spacing" textLength="34" x="148.5" y="402.0669">enter</text><!--MD5=[1eed8d26a5fecb962bac1ac3ddcd0283]
link Client to Data--><path codeLine="78" d="M250.217,344.651 C244.773,350.083 238.859,355.003 232.5,359 C171.246,397.5035 133.847,350.645 72.5,389 C56.1604,399.2158 43.4252,417.0171 35.038,431.5596 " fill="none" id="Client-to-Data-1" style="stroke:#A80036;stroke-width:1.0;"/><polygon fill="#A80036" points="32.5754,435.9561,40.4633,430.0586,35.0188,431.5938,33.4836,426.1492,32.5754,435.9561" style="stroke:#A80036;stroke-width:1.0;"/><text fill="#000000" font-family="sans-serif" font-size="13" lengthAdjust="spacing" textLength="31" x="73.5" y="402.0669">save</text><!--MD5=[3388e719b7f2c162a55a0dd3b12e9052]
link WaWITPersonnel to Service--><path codeLine="65" d="M471.872,114.005 C465.645,173.578 459.802,274.716 478.5,359 C483.221,380.2786 502.295,386.5289 492.5,406 C485.01,420.8902 470.616,432.393 457.177,440.4998 " fill="none" id="WaWITPersonnel-to-Service" style="stroke:#A80036;stroke-width:1.0;"/><polygon fill="#A80036" points="452.668,443.1189,462.4595,442.0573,456.9916,440.6076,458.4413,435.1396,452.668,443.1189" style="stroke:#A80036;stroke-width:1.0;"/><text fill="#000000" font-family="sans-serif" font-size="13" lengthAdjust="spacing" textLength="50" x="479.5" y="279.5669">analyse</text><!--MD5=[d371e2ba1e8d429b31547a4c1652534b]
link Client to Center--><path codeLine="66" d="M336.67,351.887 C350.8,371.636 367.963,391.4324 387.5,406 C392.155,409.4712 459.772,432.3829 499.301,445.6123 " fill="none" id="Client-to-Center" style="stroke:#A80036;stroke-width:1.0;"/><polygon fill="#A80036" points="504.448,447.3331,497.1811,440.6854,499.7061,445.7474,494.644,448.2724,504.448,447.3331" style="stroke:#A80036;stroke-width:1.0;"/><text fill="#000000" font-family="sans-serif" font-size="13" lengthAdjust="spacing" textLength="23" x="388.5" y="402.0669">use</text><!--MD5=[d371e2ba1e8d429b31547a4c1652534b]
link Client to Center--><path codeLine="73" d="M336.692,309.04 C384.472,345.59 460.009,403.3725 500.213,434.1263 " fill="none" id="Client-to-Center-1" style="stroke:#A80036;stroke-width:1.0;"/><polygon fill="#A80036" points="504.463,437.378,499.7438,428.7334,500.4913,434.3406,494.884,435.0881,504.463,437.378" style="stroke:#A80036;stroke-width:1.0;"/><text fill="#000000" font-family="sans-serif" font-size="13" lengthAdjust="spacing" textLength="34" x="459.5" y="402.0669">enter</text><!--MD5=[56cdceb58ea8945c902d27c478db40d4]
link WaWITPersonnel to Type--><path codeLine="67" d="M407.965,69.028 C353.745,77.336 280.698,97.081 235.5,144 C207.703,172.856 200.075,220.892 198.081,249.792 " fill="none" id="WaWITPersonnel-to-Type" style="stroke:#A80036;stroke-width:1.0;"/><polygon fill="#A80036" points="197.771,254.956,202.3039,246.2123,198.0711,249.965,194.3183,245.7322,197.771,254.956" style="stroke:#A80036;stroke-width:1.0;"/><text fill="#000000" font-family="sans-serif" font-size="13" lengthAdjust="spacing" textLength="32" x="236.5" y="157.0669">track</text><!--MD5=[56cdceb58ea8945c902d27c478db40d4]
link WaWITPersonnel to Type--><path codeLine="71" d="M407.756,96.761 C339.842,129.655 245.659,176.734 232.5,191 C217.187,207.602 208.012,231.888 202.924,249.904 " fill="none" id="WaWITPersonnel-to-Type-1" style="stroke:#A80036;stroke-width:1.0;"/><polygon fill="#A80036" points="201.595,254.808,207.8089,247.1668,202.9022,249.9819,200.0872,245.0752,201.595,254.808" style="stroke:#A80036;stroke-width:1.0;"/><text fill="#000000" font-family="sans-serif" font-size="13" lengthAdjust="spacing" textLength="50" x="309.5" y="157.0669">analyse</text><!--MD5=[678b0b523e79cc18d6a39ddec7dade71]
link Member to User--><path codeLine="68" d="M1066.86,95.012 C1073.24,109.782 1080.63,127.635 1086.5,144 C1099.55,180.388 1111.89,223.529 1119.07,249.822 " fill="none" id="Member-to-User" style="stroke:#A80036;stroke-width:1.0;"/><polygon fill="#A80036" points="1120.44,254.849,1121.9412,245.1152,1119.1295,250.0238,1114.2209,247.2121,1120.44,254.849" style="stroke:#A80036;stroke-width:1.0;"/><text fill="#000000" font-family="sans-serif" font-size="13" lengthAdjust="spacing" textLength="31" x="1092.5" y="157.0669">keep</text><!--MD5=[e9549c995802443983072af64e3191aa]
reverse link Time to Client--><path codeLine="69" d="M148.225,81.003 C174.595,95.128 209.134,116.909 232.5,144 C244.387,157.781 254.454,174.274 262.774,190.811 " fill="none" id="Time-backto-Client" style="stroke:#A80036;stroke-width:1.0;"/><polygon fill="#FFFFFF" points="136.388,74.878,139.8786,81.188,147.0457,80.3928,143.5551,74.0828,136.388,74.878" style="stroke:#A80036;stroke-width:1.0;"/><!--MD5=[df6ea19a75a24a099638c788fe8077ff]
link WaWITPersonnel to Report--><path codeLine="70" d="M549.032,89.891 C576.001,102.948 605.329,120.89 626.5,144 C654.551,174.621 670.371,221.258 677.907,249.557 " fill="none" id="WaWITPersonnel-to-Report" style="stroke:#A80036;stroke-width:1.0;"/><polygon fill="#A80036" points="679.219,254.62,680.8333,244.9043,677.9647,249.7799,673.0891,246.9112,679.219,254.62" style="stroke:#A80036;stroke-width:1.0;"/><text fill="#000000" font-family="sans-serif" font-size="13" lengthAdjust="spacing" textLength="58" x="639.5" y="157.0669">generate</text><!--MD5=[a46557d3ac1586d651cc173182b86fba]
link Number to Center--><path codeLine="72" d="M877.54,301.562 C870.556,319.997 858.64,344.156 840.5,359 C753.82,429.9296 615.13,448.5445 555.856,453.3563 " fill="none" id="Number-to-Center" style="stroke:#A80036;stroke-width:1.0;"/><polygon fill="#A80036" points="550.71,453.7553,559.9918,457.0491,555.6951,453.3696,559.3746,449.0729,550.71,453.7553" style="stroke:#A80036;stroke-width:1.0;"/><text fill="#000000" font-family="sans-serif" font-size="13" lengthAdjust="spacing" textLength="23" x="790.5" y="402.0669">use</text><!--MD5=[6ea78f051f3e319303cd0815692e6c9e]
link WaWITPersonnel to Center--><path codeLine="74" d="M508.612,114.112 C520.358,136.848 532.443,164.44 538.5,191 C558.067,276.802 540.056,300.997 540.5,389 C540.538,396.5555 541.477,398.5079 540.5,406 C539.446,414.0837 537.453,422.7324 535.338,430.4791 " fill="none" id="WaWITPersonnel-to-Center" style="stroke:#A80036;stroke-width:1.0;"/><polygon fill="#A80036" points="533.865,435.6799,540.1672,428.1114,535.2282,430.8693,532.4702,425.9303,533.865,435.6799" style="stroke:#A80036;stroke-width:1.0;"/><text fill="#000000" font-family="sans-serif" font-size="13" lengthAdjust="spacing" textLength="23" x="549.5" y="279.5669">use</text><!--MD5=[fdf07628649f670d776e43e7af5b9492]
link Client to Service--><path codeLine="75" d="M300.328,359.097 C304.779,375.919 311.735,392.5502 322.5,406 C340.665,428.6944 371.822,441.4259 395.309,448.1853 " fill="none" id="Client-to-Service" style="stroke:#A80036;stroke-width:1.0;"/><polygon fill="#A80036" points="400.197,449.5385,392.5907,443.2819,395.3783,448.2043,390.456,450.9918,400.197,449.5385" style="stroke:#A80036;stroke-width:1.0;"/><text fill="#000000" font-family="sans-serif" font-size="13" lengthAdjust="spacing" textLength="23" x="323.5" y="402.0669">use</text><!--MD5=[97d2cfb5bcfa774d823715ac37549814]
link Member to Portal--><path codeLine="76" d="M1025.49,95.107 C1014.75,109.313 1003.15,126.701 995.5,144 C980.069,178.895 972.483,222.813 969.039,249.627 " fill="none" id="Member-to-Portal" style="stroke:#A80036;stroke-width:1.0;"/><polygon fill="#A80036" points="968.404,254.753,973.4796,246.3127,969.0184,249.7909,965.5402,245.3297,968.404,254.753" style="stroke:#A80036;stroke-width:1.0;"/><text fill="#000000" font-family="sans-serif" font-size="13" lengthAdjust="spacing" textLength="44" x="996.5" y="157.0669">access</text><!--MD5=[739d7960a31d0f675943b8dd580b67ed]
link Member to Event--><path codeLine="77" d="M1051.03,95.313 C1050.42,110.144 1049.8,127.961 1049.5,144 C1048.82,180.82 1050.22,223.5 1051.33,249.622 " fill="none" id="Member-to-Event" style="stroke:#A80036;stroke-width:1.0;"/><polygon fill="#A80036" points="1051.55,254.619,1055.1557,245.4539,1051.3331,249.6237,1047.1633,245.801,1051.55,254.619" style="stroke:#A80036;stroke-width:1.0;"/><text fill="#000000" font-family="sans-serif" font-size="13" lengthAdjust="spacing" textLength="31" x="1050.5" y="157.0669">keep</text><!--MD5=[415ef8dd1dc40bf906b2506734fd1728]
link Client to Feedback--><path codeLine="79" d="M250.338,337.214 C244.528,344.703 238.499,352.13 232.5,359 C219.889,373.442 212.45,373.262 201.5,389 C192.602,401.7881 185.501,417.7442 180.553,430.7641 " fill="none" id="Client-to-Feedback" style="stroke:#A80036;stroke-width:1.0;"/><polygon fill="#A80036" points="178.697,435.7796,185.572,428.7274,180.4324,431.0904,178.0693,425.9508,178.697,435.7796" style="stroke:#A80036;stroke-width:1.0;"/><text fill="#000000" font-family="sans-serif" font-size="13" lengthAdjust="spacing" textLength="48" x="202.5" y="402.0669">provide</text><!--MD5=[589557b2882fb50d14886d47da9368af]
link WaWITPersonnel to Client--><path codeLine="80" d="M428.684,114.372 C419.527,124.105 410.137,134.284 401.5,144 C380.769,167.322 358.624,193.702 339.817,216.574 " fill="none" id="WaWITPersonnel-to-Client" style="stroke:#A80036;stroke-width:1.0;"/><polygon fill="#A80036" points="336.588,220.507,345.3916,216.0915,339.7617,216.6434,339.2098,211.0135,336.588,220.507" style="stroke:#A80036;stroke-width:1.0;"/><text fill="#000000" font-family="sans-serif" font-size="13" lengthAdjust="spacing" textLength="49" x="402.5" y="157.0669">capture</text><!--MD5=[0b714d7c49983d9e48ed1901cbeb8b2d]
link Client to Job--><path codeLine="81" d="M265.474,359.304 C263.022,369.218 260.932,379.2711 259.5,389 C258.4,396.475 259.269,398.448 259.5,406 C259.746,414.0291 260.217,422.7878 260.715,430.6506 " fill="none" id="Client-to-Job" style="stroke:#A80036;stroke-width:1.0;"/><polygon fill="#A80036" points="261.061,435.931,264.4634,426.6885,260.7338,430.9417,256.4805,427.2121,261.061,435.931" style="stroke:#A80036;stroke-width:1.0;"/><text fill="#000000" font-family="sans-serif" font-size="13" lengthAdjust="spacing" textLength="21" x="260.5" y="402.0669">get</text><!--MD5=[5f1188a7cb245db93749e131f360a8c7]
link WaWITPersonnel to Appointment--><path codeLine="82" d="M549.135,74.838 C597.716,85.934 661.363,106.629 706.5,144 C740.955,172.527 763.303,220.994 774.336,250.003 " fill="none" id="WaWITPersonnel-to-Appointment" style="stroke:#A80036;stroke-width:1.0;"/><polygon fill="#A80036" points="776.138,254.834,776.7416,245.0037,774.3912,250.1491,769.2457,247.7986,776.138,254.834" style="stroke:#A80036;stroke-width:1.0;"/><text fill="#000000" font-family="sans-serif" font-size="13" lengthAdjust="spacing" textLength="32" x="722.5" y="157.0669">track</text><!--MD5=[1c8e810ed29d12788db66899b41391f0]
link Time to Data--><path codeLine="83" d="M104.7917,88.72 C88.9123,160.269 44.3716,360.958 28.8867,430.7289 " fill="none" id="Time-to-Data" style="stroke:#A80036;stroke-width:1.0;"/><polygon fill="#A80036" points="27.7366,435.9108,33.5917,427.9914,28.82,431.0296,25.7818,426.2579,27.7366,435.9108" style="stroke:#A80036;stroke-width:1.0;"/><text fill="#000000" font-family="sans-serif" font-size="13" lengthAdjust="spacing" textLength="34" x="82.5" y="279.5669">enter</text><!--MD5=[4266b922050fc2ad33c1066d16e932a5]
@startuml
hide circle
class Client<actor> {
	convenience
}
class Board<actor> {
}
class Member<actor> {
}
class WaWITPersonnel<actor> {
}
class Time {
	enter()
}
class Data {
}
class Client {
	get()
	register()
	check_in()
	enroll()
	provide()
	save()
	use()
	show_up()
	enter()
}
class WaWITPersonnel {
	generate()
	analyse()
	track()
	capture()
	use()
}
class Type {
}
class Board {
	share()
}
class Number {
	use()
}
class Center {
}
class Service {
}
class Report {
}
class Member {
	keep()
	access()
}
class Portal {
}
class Event {
}
class Feedback {
}
class Job {
}
class Appointment {
}
class User {
}
Client - -> Data : enter
WaWITPersonnel - -> Service : analyse
Client - -> Center : use
WaWITPersonnel - -> Type : track
Member - -> User : keep
Time o- - Client
WaWITPersonnel - -> Report : generate
WaWITPersonnel - -> Type : analyse
Number - -> Center : use
Client - -> Center : enter
WaWITPersonnel - -> Center : use
Client - -> Service : use
Member - -> Portal : access
Member - -> Event : keep
Client - -> Data : save
Client - -> Feedback : provide
WaWITPersonnel - -> Client : capture
Client - -> Job : get
WaWITPersonnel - -> Appointment : track
Time - -> Data : enter
@enduml

PlantUML version 1.2021.10beta5(Unknown compile time)
(GPL source distribution)
Java Runtime: Java(TM) SE Runtime Environment
JVM: Java HotSpot(TM) 64-Bit Server VM
Default Encoding: UTF-8
Language: en
Country: US
--></g></svg>