<?xml version="1.0" encoding="UTF-8" standalone="no"?><svg xmlns="http://www.w3.org/2000/svg" xmlns:xlink="http://www.w3.org/1999/xlink" contentScriptType="application/ecmascript" contentStyleType="text/css" height="879px" preserveAspectRatio="none" style="width:752px;height:879px;background:#FFFFFF;" version="1.1" viewBox="0 0 752 879" width="752px" zoomAndPan="magnify"><defs><filter height="300%" id="f1tdylu6zqnog7" width="300%" x="-1" y="-1"><feGaussianBlur result="blurOut" stdDeviation="2.0"/><feColorMatrix in="blurOut" result="blurOut2" type="matrix" values="0 0 0 0 0 0 0 0 0 0 0 0 0 0 0 0 0 0 .4 0"/><feOffset dx="4.0" dy="4.0" in="blurOut2" result="blurOut3"/><feBlend in="SourceGraphic" in2="blurOut3" mode="normal"/></filter></defs><g><!--MD5=[67ea9f8eb7ab97465d83c225b092f5fe]
class Consumer--><rect codeLine="30" fill="#FEFECE" filter="url(#f1tdylu6zqnog7)" height="103.9922" id="Consumer" style="stroke:#A80036;stroke-width:1.5;" width="102" x="273.4892" y="10"/><text fill="#000000" font-family="sans-serif" font-size="12" lengthAdjust="spacing" textLength="61" x="276.4892" y="26.1387">Consumer</text><rect fill="#FFFFFF" height="15.9688" style="stroke:#000000;stroke-width:1.0;stroke-dasharray:2.0,2.0;" width="33" x="345.4892" y="7"/><text fill="#000000" font-family="sans-serif" font-size="12" font-style="italic" lengthAdjust="spacing" textLength="31" x="346.4892" y="19.1387">actor</text><line style="stroke:#A80036;stroke-width:1.5;" x1="274.4892" x2="374.4892" y1="33.9688" y2="33.9688"/><line style="stroke:#A80036;stroke-width:1.5;" x1="274.4892" x2="374.4892" y1="41.9688" y2="41.9688"/><text fill="#000000" font-family="sans-serif" font-size="11" lengthAdjust="spacing" textLength="31" x="279.4892" y="56.1792">rate()</text><text fill="#000000" font-family="sans-serif" font-size="11" lengthAdjust="spacing" textLength="58" x="279.4892" y="68.9839">compare()</text><text fill="#000000" font-family="sans-serif" font-size="11" lengthAdjust="spacing" textLength="52" x="279.4892" y="81.7886">register()</text><text fill="#000000" font-family="sans-serif" font-size="11" lengthAdjust="spacing" textLength="28" x="279.4892" y="94.5933">join()</text><text fill="#000000" font-family="sans-serif" font-size="11" lengthAdjust="spacing" textLength="45" x="279.4892" y="107.3979">create()</text><!--MD5=[dd02eecdbc258e1229f4c28de2428a13]
class Corporation--><rect codeLine="61" fill="#FEFECE" filter="url(#f1tdylu6zqnog7)" height="65.5781" id="Corporation" style="stroke:#A80036;stroke-width:1.5;" width="112" x="622.4892" y="29"/><text fill="#000000" font-family="sans-serif" font-size="12" lengthAdjust="spacing" textLength="71" x="625.4892" y="45.1387">Corporation</text><rect fill="#FFFFFF" height="15.9688" style="stroke:#000000;stroke-width:1.0;stroke-dasharray:2.0,2.0;" width="33" x="704.4892" y="26"/><text fill="#000000" font-family="sans-serif" font-size="12" font-style="italic" lengthAdjust="spacing" textLength="31" x="705.4892" y="38.1387">actor</text><line style="stroke:#A80036;stroke-width:1.5;" x1="623.4892" x2="733.4892" y1="52.9688" y2="52.9688"/><text fill="#000000" font-family="sans-serif" font-size="11" lengthAdjust="spacing" textLength="59" x="628.4892" y="67.1792">employee</text><line style="stroke:#A80036;stroke-width:1.5;" x1="623.4892" x2="733.4892" y1="73.7734" y2="73.7734"/><text fill="#000000" font-family="sans-serif" font-size="11" lengthAdjust="spacing" textLength="35" x="628.4892" y="87.9839">view()</text><!--MD5=[3521822871a02163bc1090dd8c65b7f5]
class Provider--><rect codeLine="20" fill="#FEFECE" filter="url(#f1tdylu6zqnog7)" height="65.5781" id="Provider" style="stroke:#A80036;stroke-width:1.5;" width="91" x="146.9892" y="191"/><text fill="#000000" font-family="sans-serif" font-size="12" lengthAdjust="spacing" textLength="50" x="149.9892" y="207.1387">Provider</text><rect fill="#FFFFFF" height="15.9688" style="stroke:#000000;stroke-width:1.0;stroke-dasharray:2.0,2.0;" width="33" x="207.9892" y="188"/><text fill="#000000" font-family="sans-serif" font-size="12" font-style="italic" lengthAdjust="spacing" textLength="31" x="208.9892" y="200.1387">actor</text><line style="stroke:#A80036;stroke-width:1.5;" x1="147.9892" x2="236.9892" y1="214.9688" y2="214.9688"/><line style="stroke:#A80036;stroke-width:1.5;" x1="147.9892" x2="236.9892" y1="222.9688" y2="222.9688"/><text fill="#000000" font-family="sans-serif" font-size="11" lengthAdjust="spacing" textLength="40" x="152.9892" y="237.1792">share()</text><text fill="#000000" font-family="sans-serif" font-size="11" lengthAdjust="spacing" textLength="36" x="152.9892" y="249.9839">send()</text><!--MD5=[3fd616f346a44cd59a91eb10b19e157c]
class User--><rect codeLine="39" fill="#FEFECE" filter="url(#f1tdylu6zqnog7)" height="155.2109" id="User" style="stroke:#A80036;stroke-width:1.5;" width="70" x="237.4892" y="464"/><text fill="#000000" font-family="sans-serif" font-size="12" lengthAdjust="spacing" textLength="29" x="240.4892" y="480.1387">User</text><rect fill="#FFFFFF" height="15.9688" style="stroke:#000000;stroke-width:1.0;stroke-dasharray:2.0,2.0;" width="33" x="277.4892" y="461"/><text fill="#000000" font-family="sans-serif" font-size="12" font-style="italic" lengthAdjust="spacing" textLength="31" x="278.4892" y="473.1387">actor</text><line style="stroke:#A80036;stroke-width:1.5;" x1="238.4892" x2="306.4892" y1="487.9688" y2="487.9688"/><text fill="#000000" font-family="sans-serif" font-size="11" lengthAdjust="spacing" textLength="36" x="243.4892" y="502.1792">profile</text><text fill="#000000" font-family="sans-serif" font-size="11" lengthAdjust="spacing" textLength="44" x="243.4892" y="514.9839">location</text><line style="stroke:#A80036;stroke-width:1.5;" x1="238.4892" x2="306.4892" y1="521.5781" y2="521.5781"/><text fill="#000000" font-family="sans-serif" font-size="11" lengthAdjust="spacing" textLength="41" x="243.4892" y="535.7886">follow()</text><text fill="#000000" font-family="sans-serif" font-size="11" lengthAdjust="spacing" textLength="34" x="243.4892" y="548.5933">filter()</text><text fill="#000000" font-family="sans-serif" font-size="11" lengthAdjust="spacing" textLength="52" x="243.4892" y="561.3979">receive()</text><text fill="#000000" font-family="sans-serif" font-size="11" lengthAdjust="spacing" textLength="53" x="243.4892" y="574.2026">connect()</text><text fill="#000000" font-family="sans-serif" font-size="11" lengthAdjust="spacing" textLength="29" x="243.4892" y="587.0073">find()</text><text fill="#000000" font-family="sans-serif" font-size="11" lengthAdjust="spacing" textLength="45" x="243.4892" y="599.812">create()</text><text fill="#000000" font-family="sans-serif" font-size="11" lengthAdjust="spacing" textLength="37" x="243.4892" y="612.6167">have()</text><!--MD5=[53272eeea06fe80d83fd996defbd63c3]
class Health--><rect codeLine="13" fill="#FEFECE" filter="url(#f1tdylu6zqnog7)" height="39.9688" id="Health" style="stroke:#A80036;stroke-width:1.5;" width="44" x="410.4892" y="521.5"/><text fill="#000000" font-family="sans-serif" font-size="12" lengthAdjust="spacing" textLength="38" x="413.4892" y="537.6387">Health</text><line style="stroke:#A80036;stroke-width:1.5;" x1="411.4892" x2="453.4892" y1="545.4688" y2="545.4688"/><line style="stroke:#A80036;stroke-width:1.5;" x1="411.4892" x2="453.4892" y1="553.4688" y2="553.4688"/><!--MD5=[7b57f7066b803747d2119f99dd1555d4]
class Profile--><rect codeLine="15" fill="#FEFECE" filter="url(#f1tdylu6zqnog7)" height="52.7734" id="Profile" style="stroke:#A80036;stroke-width:1.5;" width="55" x="372.9892" y="696"/><text fill="#000000" font-family="sans-serif" font-size="12" lengthAdjust="spacing" textLength="37" x="381.9892" y="712.1387">Profile</text><line style="stroke:#A80036;stroke-width:1.5;" x1="373.9892" x2="426.9892" y1="719.9688" y2="719.9688"/><line style="stroke:#A80036;stroke-width:1.5;" x1="373.9892" x2="426.9892" y1="727.9688" y2="727.9688"/><text fill="#000000" font-family="sans-serif" font-size="11" lengthAdjust="spacing" textLength="43" x="378.9892" y="742.1792">attach()</text><!--MD5=[63d3fe1f8a0ef560d1588fb1f9dd3b97]
class CarePricing--><rect codeLine="18" fill="#FEFECE" filter="url(#f1tdylu6zqnog7)" height="39.9688" id="CarePricing" style="stroke:#A80036;stroke-width:1.5;" width="73" x="475.9892" y="702.5"/><text fill="#000000" font-family="sans-serif" font-size="12" lengthAdjust="spacing" textLength="67" x="478.9892" y="718.6387">CarePricing</text><line style="stroke:#A80036;stroke-width:1.5;" x1="476.9892" x2="547.9892" y1="726.4688" y2="726.4688"/><line style="stroke:#A80036;stroke-width:1.5;" x1="476.9892" x2="547.9892" y1="734.4688" y2="734.4688"/><!--MD5=[2111911de20d23797b72d0006c9bfe6f]
class Offering--><rect codeLine="24" fill="#FEFECE" filter="url(#f1tdylu6zqnog7)" height="52.7734" id="Offering" style="stroke:#A80036;stroke-width:1.5;" width="55" x="255.9892" y="334"/><text fill="#000000" font-family="sans-serif" font-size="12" lengthAdjust="spacing" textLength="49" x="258.9892" y="350.1387">Offering</text><line style="stroke:#A80036;stroke-width:1.5;" x1="256.9892" x2="309.9892" y1="357.9688" y2="357.9688"/><line style="stroke:#A80036;stroke-width:1.5;" x1="256.9892" x2="309.9892" y1="365.9688" y2="365.9688"/><text fill="#000000" font-family="sans-serif" font-size="11" lengthAdjust="spacing" textLength="37" x="261.9892" y="380.1792">drive()</text><!--MD5=[fd7366e9f96236d9aa60dcc04f2b83e5]
class Content--><rect codeLine="27" fill="#FEFECE" filter="url(#f1tdylu6zqnog7)" height="52.7734" id="Content" style="stroke:#A80036;stroke-width:1.5;" width="52" x="84.4892" y="334"/><text fill="#000000" font-family="sans-serif" font-size="12" lengthAdjust="spacing" textLength="46" x="87.4892" y="350.1387">Content</text><line style="stroke:#A80036;stroke-width:1.5;" x1="85.4892" x2="135.4892" y1="357.9688" y2="357.9688"/><line style="stroke:#A80036;stroke-width:1.5;" x1="85.4892" x2="135.4892" y1="365.9688" y2="365.9688"/><text fill="#000000" font-family="sans-serif" font-size="11" lengthAdjust="spacing" textLength="37" x="90.4892" y="380.1792">drive()</text><!--MD5=[ec81f511f4d20a18ef555a8be4cd58b8]
class Network--><rect codeLine="37" fill="#FEFECE" filter="url(#f1tdylu6zqnog7)" height="39.9688" id="Network" style="stroke:#A80036;stroke-width:1.5;" width="56" x="282.4892" y="204"/><text fill="#000000" font-family="sans-serif" font-size="12" lengthAdjust="spacing" textLength="50" x="285.4892" y="220.1387">Network</text><line style="stroke:#A80036;stroke-width:1.5;" x1="283.4892" x2="337.4892" y1="227.9688" y2="227.9688"/><line style="stroke:#A80036;stroke-width:1.5;" x1="283.4892" x2="337.4892" y1="235.9688" y2="235.9688"/><!--MD5=[dab16d122782a892ddb6ee0eadcd68f0]
class Access--><rect codeLine="48" fill="#FEFECE" filter="url(#f1tdylu6zqnog7)" height="52.7734" id="Access" style="stroke:#A80036;stroke-width:1.5;" width="62" x="495.4892" y="515"/><text fill="#000000" font-family="sans-serif" font-size="12" lengthAdjust="spacing" textLength="44" x="504.4892" y="531.1387">Access</text><line style="stroke:#A80036;stroke-width:1.5;" x1="496.4892" x2="556.4892" y1="538.9688" y2="538.9688"/><line style="stroke:#A80036;stroke-width:1.5;" x1="496.4892" x2="556.4892" y1="546.9688" y2="546.9688"/><text fill="#000000" font-family="sans-serif" font-size="11" lengthAdjust="spacing" textLength="50" x="501.4892" y="561.1792">feature()</text><!--MD5=[4f1f3706c1a355a8488e154afcaed5df]
class Location--><rect codeLine="51" fill="#FEFECE" filter="url(#f1tdylu6zqnog7)" height="52.7734" id="Location" style="stroke:#A80036;stroke-width:1.5;" width="59" x="16.9892" y="696"/><text fill="#000000" font-family="sans-serif" font-size="12" lengthAdjust="spacing" textLength="50" x="21.4892" y="712.1387">Location</text><line style="stroke:#A80036;stroke-width:1.5;" x1="17.9892" x2="74.9892" y1="719.9688" y2="719.9688"/><line style="stroke:#A80036;stroke-width:1.5;" x1="17.9892" x2="74.9892" y1="727.9688" y2="727.9688"/><text fill="#000000" font-family="sans-serif" font-size="11" lengthAdjust="spacing" textLength="47" x="22.9892" y="742.1792">access()</text><!--MD5=[76b5e19c9337179d2d7ae334371d68c8]
class Notification--><rect codeLine="54" fill="#FEFECE" filter="url(#f1tdylu6zqnog7)" height="39.9688" id="Notification" style="stroke:#A80036;stroke-width:1.5;" width="72" x="125.4892" y="702.5"/><text fill="#000000" font-family="sans-serif" font-size="12" lengthAdjust="spacing" textLength="66" x="128.4892" y="718.6387">Notification</text><line style="stroke:#A80036;stroke-width:1.5;" x1="126.4892" x2="196.4892" y1="726.4688" y2="726.4688"/><line style="stroke:#A80036;stroke-width:1.5;" x1="126.4892" x2="196.4892" y1="734.4688" y2="734.4688"/><!--MD5=[eb0e8f8ddfdc21c3fdb48447501fec67]
class Review--><rect codeLine="56" fill="#FEFECE" filter="url(#f1tdylu6zqnog7)" height="39.9688" id="Review" style="stroke:#A80036;stroke-width:1.5;" width="49" x="382.9892" y="204"/><text fill="#000000" font-family="sans-serif" font-size="12" lengthAdjust="spacing" textLength="43" x="385.9892" y="220.1387">Review</text><line style="stroke:#A80036;stroke-width:1.5;" x1="383.9892" x2="430.9892" y1="227.9688" y2="227.9688"/><line style="stroke:#A80036;stroke-width:1.5;" x1="383.9892" x2="430.9892" y1="235.9688" y2="235.9688"/><!--MD5=[b2bc021cc86aa2558e9589819995bf4e]
class Pricing--><rect codeLine="58" fill="#FEFECE" filter="url(#f1tdylu6zqnog7)" height="52.7734" id="Pricing" style="stroke:#A80036;stroke-width:1.5;" width="49" x="171.9892" y="334"/><text fill="#000000" font-family="sans-serif" font-size="12" lengthAdjust="spacing" textLength="39" x="176.9892" y="350.1387">Pricing</text><line style="stroke:#A80036;stroke-width:1.5;" x1="172.9892" x2="219.9892" y1="357.9688" y2="357.9688"/><line style="stroke:#A80036;stroke-width:1.5;" x1="172.9892" x2="219.9892" y1="365.9688" y2="365.9688"/><text fill="#000000" font-family="sans-serif" font-size="11" lengthAdjust="spacing" textLength="37" x="177.9892" y="380.1792">drive()</text><!--MD5=[7421f545a0d8420c5bec41e74b387d9c]
class Employee--><rect codeLine="64" fill="#FEFECE" filter="url(#f1tdylu6zqnog7)" height="39.9688" id="Employee" style="stroke:#A80036;stroke-width:1.5;" width="66" x="602.4892" y="204"/><text fill="#000000" font-family="sans-serif" font-size="12" lengthAdjust="spacing" textLength="60" x="605.4892" y="220.1387">Employee</text><line style="stroke:#A80036;stroke-width:1.5;" x1="603.4892" x2="667.4892" y1="227.9688" y2="227.9688"/><line style="stroke:#A80036;stroke-width:1.5;" x1="603.4892" x2="667.4892" y1="235.9688" y2="235.9688"/><!--MD5=[a40a7ac4b423335b0d34bf16cf36e547]
class Price--><rect codeLine="66" fill="#FEFECE" filter="url(#f1tdylu6zqnog7)" height="39.9688" id="Price" style="stroke:#A80036;stroke-width:1.5;" width="35" x="703.9892" y="204"/><text fill="#000000" font-family="sans-serif" font-size="12" lengthAdjust="spacing" textLength="29" x="706.9892" y="220.1387">Price</text><line style="stroke:#A80036;stroke-width:1.5;" x1="704.9892" x2="737.9892" y1="227.9688" y2="227.9688"/><line style="stroke:#A80036;stroke-width:1.5;" x1="704.9892" x2="737.9892" y1="235.9688" y2="235.9688"/><!--MD5=[c4a230a62c72b1ee89d0ee03b7b563c6]
class PushContent--><rect codeLine="68" fill="#FEFECE" filter="url(#f1tdylu6zqnog7)" height="39.9688" id="PushContent" style="stroke:#A80036;stroke-width:1.5;" width="79" x="232.9892" y="702.5"/><text fill="#000000" font-family="sans-serif" font-size="12" lengthAdjust="spacing" textLength="73" x="235.9892" y="718.6387">PushContent</text><line style="stroke:#A80036;stroke-width:1.5;" x1="233.9892" x2="310.9892" y1="726.4688" y2="726.4688"/><line style="stroke:#A80036;stroke-width:1.5;" x1="233.9892" x2="310.9892" y1="734.4688" y2="734.4688"/><!--MD5=[75a950eaa3c958da064fdef7eb81a1f7]
class HealthcarePrice--><rect codeLine="70" fill="#FEFECE" filter="url(#f1tdylu6zqnog7)" height="39.9688" id="HealthcarePrice" style="stroke:#A80036;stroke-width:1.5;" width="100" x="467.4892" y="204"/><text fill="#000000" font-family="sans-serif" font-size="12" lengthAdjust="spacing" textLength="94" x="470.4892" y="220.1387">HealthcarePrice</text><line style="stroke:#A80036;stroke-width:1.5;" x1="468.4892" x2="566.4892" y1="227.9688" y2="227.9688"/><line style="stroke:#A80036;stroke-width:1.5;" x1="468.4892" x2="566.4892" y1="235.9688" y2="235.9688"/><!--MD5=[af8ed831b3fe9dbd380fec6c597723ab]
class Offer--><rect codeLine="72" fill="#FEFECE" filter="url(#f1tdylu6zqnog7)" height="39.9688" id="Offer" style="stroke:#A80036;stroke-width:1.5;" width="37" x="381.9892" y="826"/><text fill="#000000" font-family="sans-serif" font-size="12" lengthAdjust="spacing" textLength="31" x="384.9892" y="842.1387">Offer</text><line style="stroke:#A80036;stroke-width:1.5;" x1="382.9892" x2="417.9892" y1="849.9688" y2="849.9688"/><line style="stroke:#A80036;stroke-width:1.5;" x1="382.9892" x2="417.9892" y1="857.9688" y2="857.9688"/><!--MD5=[bd51663eabd2d07f6a49286db90a224e]
link Access to CarePricing--><path codeLine="74" d="M524.4832,568.146 C521.7852,602.649 517.0202,663.567 514.3812,697.308 " fill="none" id="Access-to-CarePricing" style="stroke:#A80036;stroke-width:1.0;"/><polygon fill="#A80036" points="513.9762,702.482,518.6661,693.8215,514.3662,697.4972,510.6905,693.1974,513.9762,702.482" style="stroke:#A80036;stroke-width:1.0;"/><text fill="#000000" font-family="sans-serif" font-size="13" lengthAdjust="spacing" textLength="47" x="519.4892" y="662.0669">feature</text><!--MD5=[0174d71ea7781994b6150da48517456b]
link Location to Provider--><path codeLine="75" d="M41.2477,695.79 C29.3892,631.071 6,457.768 66.4892,334 C82.8848,300.453 114.7853,273.022 142.3842,254.069 " fill="none" id="Location-to-Provider" style="stroke:#A80036;stroke-width:1.0;"/><polygon fill="#A80036" points="146.7732,251.1,137.0774,252.8294,142.6317,253.9015,141.5597,259.4558,146.7732,251.1" style="stroke:#A80036;stroke-width:1.0;"/><text fill="#000000" font-family="sans-serif" font-size="13" lengthAdjust="spacing" textLength="44" x="39.4892" y="430.0669">access</text><!--MD5=[6aa5b00f8ecb442ecb7c29fa9fced5e8]
link Provider to Offering--><path codeLine="76" d="M238.1872,244.515 C265.6852,257.296 296.8152,273.98 304.4892,287 C312.0152,299.769 308.7912,315.408 302.8472,328.887 " fill="none" id="Provider-to-Offering" style="stroke:#A80036;stroke-width:1.0;"/><polygon fill="#A80036" points="300.5492,333.747,308.0124,327.3204,302.6864,329.2268,300.7801,323.9008,300.5492,333.747" style="stroke:#A80036;stroke-width:1.0;"/><text fill="#000000" font-family="sans-serif" font-size="13" lengthAdjust="spacing" textLength="36" x="310.4892" y="300.0669">share</text><!--MD5=[6aa5b00f8ecb442ecb7c29fa9fced5e8]
link Provider to Offering--><path codeLine="79" d="M214.2862,257.216 C229.1732,279.219 248.7572,308.165 263.2912,329.647 " fill="none" id="Provider-to-Offering-1" style="stroke:#A80036;stroke-width:1.0;"/><polygon fill="#A80036" points="266.1272,333.839,264.3955,324.1436,263.3248,329.6982,257.7702,328.6275,266.1272,333.839" style="stroke:#A80036;stroke-width:1.0;"/><text fill="#000000" font-family="sans-serif" font-size="13" lengthAdjust="spacing" textLength="31" x="244.4892" y="300.0669">send</text><!--MD5=[2e2e530a658308b38e0151c4d25adf6b]
link User to Notification--><path codeLine="77" d="M237.3682,599.137 C216.6792,632.499 191.6042,672.936 176.0962,697.944 " fill="none" id="User-to-Notification" style="stroke:#A80036;stroke-width:1.0;"/><polygon fill="#A80036" points="173.3152,702.429,181.4579,696.8886,175.9504,698.1798,174.6592,692.6723,173.3152,702.429" style="stroke:#A80036;stroke-width:1.0;"/><text fill="#000000" font-family="sans-serif" font-size="13" lengthAdjust="spacing" textLength="29" x="205.4892" y="662.0669">filter</text><!--MD5=[130d2020c35399fa78e0453f3b67171c]
reverse link Health to Profile--><path codeLine="78" d="M426.7212,574.767 C420.5142,609.483 410.7712,663.988 405.0692,695.883 " fill="none" id="Health-backto-Profile" style="stroke:#A80036;stroke-width:1.0;"/><polygon fill="#FFFFFF" points="429.0642,561.656,424.071,566.8587,426.953,573.4688,431.9462,568.2662,429.0642,561.656" style="stroke:#A80036;stroke-width:1.0;"/><!--MD5=[4ce54f844658504f2e8b921203ac3277]
link Profile to Offer--><path codeLine="80" d="M400.4892,749.267 C400.4892,770.3301 400.4892,799.9042 400.4892,820.5902 " fill="none" id="Profile-to-Offer" style="stroke:#A80036;stroke-width:1.0;"/><polygon fill="#A80036" points="400.4892,825.6472,404.4892,816.6472,400.4892,820.6472,396.4892,816.6472,400.4892,825.6472" style="stroke:#A80036;stroke-width:1.0;"/><text fill="#000000" font-family="sans-serif" font-size="13" lengthAdjust="spacing" textLength="41" x="401.4892" y="792.0669">attach</text><!--MD5=[f8e62fce92094be4a82b4c889b78a008]
reverse link User to Location--><path codeLine="81" d="M226.8242,578.668 C181.8772,614.268 114.5552,667.589 76.1509,698.007 " fill="none" id="User-backto-Location" style="stroke:#A80036;stroke-width:1.0;"/><polygon fill="#FFFFFF" points="237.1772,570.469,229.9902,571.0584,227.7701,577.9193,234.9571,577.3298,237.1772,570.469" style="stroke:#A80036;stroke-width:1.0;"/><text fill="#000000" font-family="sans-serif" font-size="13" lengthAdjust="spacing" textLength="24" x="134.4892" y="662.0669">find</text><!--MD5=[30b2c9714cfee71f43c3116fa44b8c34]
reverse link Health to CarePricing--><path codeLine="82" d="M446.4432,573.723 C463.0512,610.881 490.2562,671.753 503.9892,702.482 " fill="none" id="Health-backto-CarePricing" style="stroke:#A80036;stroke-width:1.0;"/><polygon fill="#FFFFFF" points="441.0502,561.656,439.8465,568.7659,445.9465,572.6117,447.1502,565.5017,441.0502,561.656" style="stroke:#A80036;stroke-width:1.0;"/><!--MD5=[4dc4813d92a0ca0caa05972cc0e75c2f]
link Provider to Content--><path codeLine="83" d="M164.7502,257.065 C157.3582,266.387 149.7072,276.812 143.4892,287 C135.4042,300.247 128.0662,315.811 122.3742,329.116 " fill="none" id="Provider-to-Content" style="stroke:#A80036;stroke-width:1.0;"/><polygon fill="#A80036" points="120.3532,333.907,127.536,327.1685,122.296,329.2999,120.1646,324.0599,120.3532,333.907" style="stroke:#A80036;stroke-width:1.0;"/><text fill="#000000" font-family="sans-serif" font-size="13" lengthAdjust="spacing" textLength="36" x="144.4892" y="300.0669">share</text><!--MD5=[c8b30d8dec4508dbd4a4ce662d9c3bf2]
link Offering to User--><path codeLine="84" d="M281.9132,387.146 C280.7552,405.997 279.1122,432.733 277.5212,458.614 " fill="none" id="Offering-to-User" style="stroke:#A80036;stroke-width:1.0;"/><polygon fill="#A80036" points="277.2042,463.776,281.7496,455.0387,277.5114,458.7854,273.7647,454.5473,277.2042,463.776" style="stroke:#A80036;stroke-width:1.0;"/><text fill="#000000" font-family="sans-serif" font-size="13" lengthAdjust="spacing" textLength="13" x="281.4892" y="430.0669">to</text><!--MD5=[a738a32d39989a2f3f1d529a7c091f2f]
link Consumer to Review--><path codeLine="85" d="M352.7242,114.258 C358.0312,124.094 363.4822,134.338 368.4892,144 C377.9922,162.338 388.3202,183.31 395.9602,199.035 " fill="none" id="Consumer-to-Review" style="stroke:#A80036;stroke-width:1.0;"/><polygon fill="#A80036" points="398.2402,203.738,397.9125,193.8946,396.0586,199.239,390.7141,197.3852,398.2402,203.738" style="stroke:#A80036;stroke-width:1.0;"/><text fill="#000000" font-family="sans-serif" font-size="13" lengthAdjust="spacing" textLength="41" x="377.4892" y="157.0669">create</text><!--MD5=[4e658c0d93fcbd2f125aaf67a2357d50]
link Consumer to Network--><path codeLine="86" d="M320.0212,114.065 C317.5462,142.344 314.5842,176.198 312.6262,198.579 " fill="none" id="Consumer-to-Network" style="stroke:#A80036;stroke-width:1.0;"/><polygon fill="#A80036" points="312.1752,203.731,316.9444,195.1139,312.611,198.75,308.9749,194.4166,312.1752,203.731" style="stroke:#A80036;stroke-width:1.0;"/><text fill="#000000" font-family="sans-serif" font-size="13" lengthAdjust="spacing" textLength="41" x="318.4892" y="157.0669">create</text><!--MD5=[4e658c0d93fcbd2f125aaf67a2357d50]
link Consumer to Network--><path codeLine="90" d="M294.7862,114.407 C290.5262,123.964 286.8072,134.073 284.4892,144 C280.0862,162.859 287.4342,183.642 295.4282,199.156 " fill="none" id="Consumer-to-Network-1" style="stroke:#A80036;stroke-width:1.0;"/><polygon fill="#A80036" points="297.9172,203.794,297.1861,193.9723,295.5529,199.3883,290.1369,197.7552,297.9172,203.794" style="stroke:#A80036;stroke-width:1.0;"/><text fill="#000000" font-family="sans-serif" font-size="13" lengthAdjust="spacing" textLength="22" x="285.4892" y="157.0669">join</text><!--MD5=[40f982a3a92e37b465ed2c4e4df1ee5d]
link Provider to Pricing--><path codeLine="87" d="M189.7942,257.305 C188.9792,271.619 188.5252,288.658 189.4892,304 C189.9892,311.954 190.8872,320.512 191.8782,328.468 " fill="none" id="Provider-to-Pricing" style="stroke:#A80036;stroke-width:1.0;"/><polygon fill="#A80036" points="192.5742,333.866,195.3892,324.428,191.9342,328.9071,187.455,325.4521,192.5742,333.866" style="stroke:#A80036;stroke-width:1.0;"/><text fill="#000000" font-family="sans-serif" font-size="13" lengthAdjust="spacing" textLength="36" x="190.4892" y="300.0669">share</text><!--MD5=[4c70a1c5dc37904c85c8b4ac891b729d]
link User to PushContent--><path codeLine="88" d="M269.4032,619.252 C269.1252,634.729 269.0812,650.885 269.4892,666 C269.7642,676.173 270.3212,687.384 270.8822,697.051 " fill="none" id="User-to-PushContent" style="stroke:#A80036;stroke-width:1.0;"/><polygon fill="#A80036" points="271.1922,702.247,274.6477,693.0242,270.8936,697.2559,266.6619,693.5019,271.1922,702.247" style="stroke:#A80036;stroke-width:1.0;"/><text fill="#000000" font-family="sans-serif" font-size="13" lengthAdjust="spacing" textLength="47" x="270.4892" y="662.0669">receive</text><!--MD5=[6e75bbec5595801aea6f4b9ca891237a]
reverse link Corporation to Employee--><path codeLine="89" d="M658.7722,107.357 C654.1672,119.087 649.6822,131.866 646.4892,144 C641.2032,164.088 638.3352,187.758 636.8662,203.915 " fill="none" id="Corporation-backto-Employee" style="stroke:#A80036;stroke-width:1.0;"/><polygon fill="#FFFFFF" points="663.7592,95.119,657.7907,99.1659,659.2308,106.2317,665.1992,102.1849,663.7592,95.119" style="stroke:#A80036;stroke-width:1.0;"/><text fill="#000000" font-family="sans-serif" font-size="13" lengthAdjust="spacing" textLength="30" x="647.4892" y="157.0669">view</text><!--MD5=[bad1bea03e0687d853dd9cf25d2270af]
link Consumer to Provider--><path codeLine="91" d="M273.5782,114.225 C264.6202,123.885 255.5822,134.076 247.4892,144 C236.5772,157.38 225.5152,172.827 216.2012,186.493 " fill="none" id="Consumer-to-Provider" style="stroke:#A80036;stroke-width:1.0;"/><polygon fill="#A80036" points="213.3692,190.673,221.7304,185.4681,216.1749,186.5344,215.1086,180.979,213.3692,190.673" style="stroke:#A80036;stroke-width:1.0;"/><text fill="#000000" font-family="sans-serif" font-size="13" lengthAdjust="spacing" textLength="26" x="248.4892" y="157.0669">rate</text><!--MD5=[44ef1ec12018bf80af518d01c929521f]
link Corporation to Price--><path codeLine="92" d="M687.1912,95.378 C695.4152,125.981 707.5682,171.202 714.9832,198.791 " fill="none" id="Corporation-to-Price" style="stroke:#A80036;stroke-width:1.0;"/><polygon fill="#A80036" points="716.3102,203.73,717.8356,194,715.0117,198.9016,710.1101,196.0776,716.3102,203.73" style="stroke:#A80036;stroke-width:1.0;"/><text fill="#000000" font-family="sans-serif" font-size="13" lengthAdjust="spacing" textLength="30" x="705.4892" y="157.0669">view</text><!--MD5=[93c3eb30abc1593250e58e77219a9752]
link Consumer to HealthcarePrice--><path codeLine="93" d="M375.7422,102.425 C392.3992,115.471 410.8682,130.187 427.4892,144 C449.7872,162.531 474.4982,184.315 492.3772,200.31 " fill="none" id="Consumer-to-HealthcarePrice" style="stroke:#A80036;stroke-width:1.0;"/><polygon fill="#A80036" points="496.3132,203.836,492.2778,194.8518,492.5887,200.5001,486.9404,200.811,496.3132,203.836" style="stroke:#A80036;stroke-width:1.0;"/><text fill="#000000" font-family="sans-serif" font-size="13" lengthAdjust="spacing" textLength="57" x="449.4892" y="157.0669">compare</text><!--MD5=[c6ac01c158124ef578e1979e8d427316]
reverse link User to Profile--><path codeLine="94" d="M315.1102,602.452 C329.5002,622.656 345.6702,645.321 360.4892,666 C367.4772,675.751 375.1772,686.446 381.9402,695.824 " fill="none" id="User-backto-Profile" style="stroke:#A80036;stroke-width:1.0;"/><polygon fill="#FFFFFF" points="307.5422,591.822,307.7637,599.0297,314.5022,601.5974,314.2807,594.3897,307.5422,591.822" style="stroke:#A80036;stroke-width:1.0;"/><text fill="#000000" font-family="sans-serif" font-size="13" lengthAdjust="spacing" textLength="41" x="361.4892" y="662.0669">create</text><!--MD5=[fc350862e720ef4806df844de0eccba9]
@startuml
hide circle
class Consumer<actor> {
}
class Corporation<actor> {
	employee
}
class Provider<actor> {
}
class User<actor> {
	profile
	location
}
class Health {
}
class Profile {
	attach()
}
class CarePricing {
}
class Provider {
	share()
	send()
}
class Offering {
	drive()
}
class Content {
	drive()
}
class Consumer {
	rate()
	compare()
	register()
	join()
	create()
}
class Network {
}
class User {
	follow()
	filter()
	receive()
	connect()
	find()
	create()
	have()
}
class Access {
	feature()
}
class Location {
	access()
}
class Notification {
}
class Review {
}
class Pricing {
	drive()
}
class Corporation {
	view()
}
class Employee {
}
class Price {
}
class PushContent {
}
class HealthcarePrice {
}
class Offer {
}
Access - -> CarePricing : feature
Location - -> Provider : access
Provider - -> Offering : share
User - -> Notification : filter
Health o- - Profile
Provider - -> Offering : send
Profile - -> Offer : attach
User o- - Location : find
Health o- - CarePricing
Provider - -> Content : share
Offering - -> User : to
Consumer - -> Review : create
Consumer - -> Network : create
Provider - -> Pricing : share
User - -> PushContent : receive
Corporation o- - Employee : view
Consumer - -> Network : join
Consumer - -> Provider : rate
Corporation - -> Price : view
Consumer - -> HealthcarePrice : compare
User o- - Profile : create
@enduml

PlantUML version 1.2021.10beta5(Unknown compile time)
(GPL source distribution)
Java Runtime: Java(TM) SE Runtime Environment
JVM: Java HotSpot(TM) 64-Bit Server VM
Default Encoding: UTF-8
Language: en
Country: US
--></g></svg>