<?xml version="1.0" encoding="UTF-8" standalone="no"?><svg xmlns="http://www.w3.org/2000/svg" xmlns:xlink="http://www.w3.org/1999/xlink" contentScriptType="application/ecmascript" contentStyleType="text/css" height="413px" preserveAspectRatio="none" style="width:1242px;height:413px;background:#FFFFFF;" version="1.1" viewBox="0 0 1242 413" width="1242px" zoomAndPan="magnify"><defs><filter height="300%" id="f1g8qyo4i52ufo" width="300%" x="-1" y="-1"><feGaussianBlur result="blurOut" stdDeviation="2.0"/><feColorMatrix in="blurOut" result="blurOut2" type="matrix" values="0 0 0 0 0 0 0 0 0 0 0 0 0 0 0 0 0 0 .4 0"/><feOffset dx="4.0" dy="4.0" in="blurOut2" result="blurOut3"/><feBlend in="SourceGraphic" in2="blurOut3" mode="normal"/></filter></defs><g><!--MD5=[cd5458322245a0c49df66b41751ab0c0]
class GM--><rect codeLine="19" fill="#FEFECE" filter="url(#f1g8qyo4i52ufo)" height="91.1875" id="GM" style="stroke:#A80036;stroke-width:1.5;" width="60" x="407.5" y="29.5"/><text fill="#000000" font-family="sans-serif" font-size="12" lengthAdjust="spacing" textLength="19" x="410.5" y="45.6387">GM</text><rect fill="#FFFFFF" height="15.9688" style="stroke:#000000;stroke-width:1.0;stroke-dasharray:2.0,2.0;" width="33" x="437.5" y="26.5"/><text fill="#000000" font-family="sans-serif" font-size="12" font-style="italic" lengthAdjust="spacing" textLength="31" x="438.5" y="38.6387">actor</text><line style="stroke:#A80036;stroke-width:1.5;" x1="408.5" x2="466.5" y1="53.4688" y2="53.4688"/><text fill="#000000" font-family="sans-serif" font-size="11" lengthAdjust="spacing" textLength="25" x="413.5" y="67.6792">data</text><line style="stroke:#A80036;stroke-width:1.5;" x1="408.5" x2="466.5" y1="74.2734" y2="74.2734"/><text fill="#000000" font-family="sans-serif" font-size="11" lengthAdjust="spacing" textLength="40" x="413.5" y="88.4839">make()</text><text fill="#000000" font-family="sans-serif" font-size="11" lengthAdjust="spacing" textLength="35" x="413.5" y="101.2886">build()</text><text fill="#000000" font-family="sans-serif" font-size="11" lengthAdjust="spacing" textLength="48" x="413.5" y="114.0933">extract()</text><!--MD5=[de1f8633644ee0aae50c6a7fba314ead]
class SporTechBIContractor--><rect codeLine="54" fill="#FEFECE" filter="url(#f1g8qyo4i52ufo)" height="65.5781" id="SporTechBIContractor" style="stroke:#A80036;stroke-width:1.5;" width="173" x="7" y="42"/><text fill="#000000" font-family="sans-serif" font-size="12" lengthAdjust="spacing" textLength="132" x="10" y="58.1387">SporTechBIContractor</text><rect fill="#FFFFFF" height="15.9688" style="stroke:#000000;stroke-width:1.0;stroke-dasharray:2.0,2.0;" width="33" x="150" y="39"/><text fill="#000000" font-family="sans-serif" font-size="12" font-style="italic" lengthAdjust="spacing" textLength="31" x="151" y="51.1387">actor</text><line style="stroke:#A80036;stroke-width:1.5;" x1="8" x2="179" y1="65.9688" y2="65.9688"/><line style="stroke:#A80036;stroke-width:1.5;" x1="8" x2="179" y1="73.9688" y2="73.9688"/><text fill="#000000" font-family="sans-serif" font-size="11" lengthAdjust="spacing" textLength="29" x="13" y="88.1792">add()</text><text fill="#000000" font-family="sans-serif" font-size="11" lengthAdjust="spacing" textLength="48" x="13" y="100.9839">update()</text><!--MD5=[563fd89d482c4c23404165e69bfcbefa]
class Manger--><rect codeLine="14" fill="#FEFECE" filter="url(#f1g8qyo4i52ufo)" height="52.7734" id="Manger" style="stroke:#A80036;stroke-width:1.5;" width="86" x="944.5" y="48.5"/><text fill="#000000" font-family="sans-serif" font-size="12" lengthAdjust="spacing" textLength="45" x="947.5" y="64.6387">Manger</text><rect fill="#FFFFFF" height="15.9688" style="stroke:#000000;stroke-width:1.0;stroke-dasharray:2.0,2.0;" width="33" x="1000.5" y="45.5"/><text fill="#000000" font-family="sans-serif" font-size="12" font-style="italic" lengthAdjust="spacing" textLength="31" x="1001.5" y="57.6387">actor</text><line style="stroke:#A80036;stroke-width:1.5;" x1="945.5" x2="1029.5" y1="72.4688" y2="72.4688"/><line style="stroke:#A80036;stroke-width:1.5;" x1="945.5" x2="1029.5" y1="80.4688" y2="80.4688"/><text fill="#000000" font-family="sans-serif" font-size="11" lengthAdjust="spacing" textLength="51" x="950.5" y="94.6792">monitor()</text><!--MD5=[2ce0c9fb7f55b1e256ab28a8ea6b25ec]
class Customer--><rect codeLine="39" fill="#FEFECE" filter="url(#f1g8qyo4i52ufo)" height="129.6016" id="Customer" style="stroke:#A80036;stroke-width:1.5;" width="99" x="546" y="10"/><text fill="#000000" font-family="sans-serif" font-size="12" lengthAdjust="spacing" textLength="58" x="549" y="26.1387">Customer</text><rect fill="#FFFFFF" height="15.9688" style="stroke:#000000;stroke-width:1.0;stroke-dasharray:2.0,2.0;" width="33" x="615" y="7"/><text fill="#000000" font-family="sans-serif" font-size="12" font-style="italic" lengthAdjust="spacing" textLength="31" x="616" y="19.1387">actor</text><line style="stroke:#A80036;stroke-width:1.5;" x1="547" x2="644" y1="33.9688" y2="33.9688"/><text fill="#000000" font-family="sans-serif" font-size="11" lengthAdjust="spacing" textLength="36" x="552" y="48.1792">model</text><line style="stroke:#A80036;stroke-width:1.5;" x1="547" x2="644" y1="54.7734" y2="54.7734"/><text fill="#000000" font-family="sans-serif" font-size="11" lengthAdjust="spacing" textLength="33" x="552" y="68.9839">drop()</text><text fill="#000000" font-family="sans-serif" font-size="11" lengthAdjust="spacing" textLength="44" x="552" y="81.7886">import()</text><text fill="#000000" font-family="sans-serif" font-size="11" lengthAdjust="spacing" textLength="30" x="552" y="94.5933">see()</text><text fill="#000000" font-family="sans-serif" font-size="11" lengthAdjust="spacing" textLength="48" x="552" y="107.3979">update()</text><text fill="#000000" font-family="sans-serif" font-size="11" lengthAdjust="spacing" textLength="33" x="552" y="120.2026">drag()</text><text fill="#000000" font-family="sans-serif" font-size="11" lengthAdjust="spacing" textLength="29" x="552" y="133.0073">add()</text><!--MD5=[0d6d527315af725114870e25843b9662]
class SoccerCoach--><rect codeLine="66" fill="#FEFECE" filter="url(#f1g8qyo4i52ufo)" height="65.5781" id="SoccerCoach" style="stroke:#A80036;stroke-width:1.5;" width="121" x="1107" y="42"/><text fill="#000000" font-family="sans-serif" font-size="12" lengthAdjust="spacing" textLength="80" x="1110" y="58.1387">SoccerCoach</text><rect fill="#FFFFFF" height="15.9688" style="stroke:#000000;stroke-width:1.0;stroke-dasharray:2.0,2.0;" width="33" x="1198" y="39"/><text fill="#000000" font-family="sans-serif" font-size="12" font-style="italic" lengthAdjust="spacing" textLength="31" x="1199" y="51.1387">actor</text><line style="stroke:#A80036;stroke-width:1.5;" x1="1108" x2="1227" y1="65.9688" y2="65.9688"/><line style="stroke:#A80036;stroke-width:1.5;" x1="1108" x2="1227" y1="73.9688" y2="73.9688"/><text fill="#000000" font-family="sans-serif" font-size="11" lengthAdjust="spacing" textLength="61" x="1113" y="88.1792">configure()</text><text fill="#000000" font-family="sans-serif" font-size="11" lengthAdjust="spacing" textLength="49" x="1113" y="100.9839">specify()</text><!--MD5=[d945dc1017fe5e118931c0a8de036a22]
class Timetwitter--><rect codeLine="17" fill="#FEFECE" filter="url(#f1g8qyo4i52ufo)" height="39.9688" id="Timetwitter" style="stroke:#A80036;stroke-width:1.5;" width="73" x="898" y="223.5"/><text fill="#000000" font-family="sans-serif" font-size="12" lengthAdjust="spacing" textLength="67" x="901" y="239.6387">Timetwitter</text><line style="stroke:#A80036;stroke-width:1.5;" x1="899" x2="970" y1="247.4688" y2="247.4688"/><line style="stroke:#A80036;stroke-width:1.5;" x1="899" x2="970" y1="255.4688" y2="255.4688"/><!--MD5=[60c9ed31c535bee25c55ce21b5b01399]
class Data--><rect codeLine="24" fill="#FEFECE" filter="url(#f1g8qyo4i52ufo)" height="52.7734" id="Data" style="stroke:#A80036;stroke-width:1.5;" width="72" x="591.5" y="217"/><text fill="#000000" font-family="sans-serif" font-size="12" lengthAdjust="spacing" textLength="27" x="614" y="233.1387">Data</text><line style="stroke:#A80036;stroke-width:1.5;" x1="592.5" x2="662.5" y1="240.9688" y2="240.9688"/><line style="stroke:#A80036;stroke-width:1.5;" x1="592.5" x2="662.5" y1="248.9688" y2="248.9688"/><text fill="#000000" font-family="sans-serif" font-size="11" lengthAdjust="spacing" textLength="60" x="597.5" y="263.1792">integrate()</text><!--MD5=[cc10e3762d31933ec3f062b0abc50bc3]
class Crawler--><rect codeLine="27" fill="#FEFECE" filter="url(#f1g8qyo4i52ufo)" height="52.7734" id="Crawler" style="stroke:#A80036;stroke-width:1.5;" width="52" x="215.5" y="48.5"/><text fill="#000000" font-family="sans-serif" font-size="12" lengthAdjust="spacing" textLength="46" x="218.5" y="64.6387">Crawler</text><line style="stroke:#A80036;stroke-width:1.5;" x1="216.5" x2="266.5" y1="72.4688" y2="72.4688"/><line style="stroke:#A80036;stroke-width:1.5;" x1="216.5" x2="266.5" y1="80.4688" y2="80.4688"/><text fill="#000000" font-family="sans-serif" font-size="11" lengthAdjust="spacing" textLength="26" x="221.5" y="94.6792">run()</text><!--MD5=[4dc03b68a3b919398005b6a0327aa539]
class PlayerValue--><rect codeLine="30" fill="#FEFECE" filter="url(#f1g8qyo4i52ufo)" height="39.9688" id="PlayerValue" style="stroke:#A80036;stroke-width:1.5;" width="75" x="737" y="223.5"/><text fill="#000000" font-family="sans-serif" font-size="12" lengthAdjust="spacing" textLength="69" x="740" y="239.6387">PlayerValue</text><line style="stroke:#A80036;stroke-width:1.5;" x1="738" x2="811" y1="247.4688" y2="247.4688"/><line style="stroke:#A80036;stroke-width:1.5;" x1="738" x2="811" y1="255.4688" y2="255.4688"/><!--MD5=[fd8f06804651a767af6d5ee4693cdfe7]
class Coach--><rect codeLine="32" fill="#FEFECE" filter="url(#f1g8qyo4i52ufo)" height="65.5781" id="Coach" style="stroke:#A80036;stroke-width:1.5;" width="71" x="798" y="42"/><text fill="#000000" font-family="sans-serif" font-size="12" lengthAdjust="spacing" textLength="37" x="815" y="58.1387">Coach</text><line style="stroke:#A80036;stroke-width:1.5;" x1="799" x2="868" y1="65.9688" y2="65.9688"/><line style="stroke:#A80036;stroke-width:1.5;" x1="799" x2="868" y1="73.9688" y2="73.9688"/><text fill="#000000" font-family="sans-serif" font-size="11" lengthAdjust="spacing" textLength="59" x="804" y="88.1792">visualize()</text><text fill="#000000" font-family="sans-serif" font-size="11" lengthAdjust="spacing" textLength="48" x="804" y="100.9839">extract()</text><!--MD5=[3db53164d4ddbdea4156eda8a776d7e7]
class Decision--><rect codeLine="36" fill="#FEFECE" filter="url(#f1g8qyo4i52ufo)" height="52.7734" id="Decision" style="stroke:#A80036;stroke-width:1.5;" width="58" x="343.5" y="217"/><text fill="#000000" font-family="sans-serif" font-size="12" lengthAdjust="spacing" textLength="52" x="346.5" y="233.1387">Decision</text><line style="stroke:#A80036;stroke-width:1.5;" x1="344.5" x2="400.5" y1="240.9688" y2="240.9688"/><line style="stroke:#A80036;stroke-width:1.5;" x1="344.5" x2="400.5" y1="248.9688" y2="248.9688"/><text fill="#000000" font-family="sans-serif" font-size="11" lengthAdjust="spacing" textLength="41" x="349.5" y="263.1792">affect()</text><!--MD5=[d9427b671d7d049aff2d6f2fe36a13b3]
class Field--><rect codeLine="47" fill="#FEFECE" filter="url(#f1g8qyo4i52ufo)" height="52.7734" id="Field" style="stroke:#A80036;stroke-width:1.5;" width="63" x="303" y="48.5"/><text fill="#000000" font-family="sans-serif" font-size="12" lengthAdjust="spacing" textLength="29" x="320" y="64.6387">Field</text><line style="stroke:#A80036;stroke-width:1.5;" x1="304" x2="365" y1="72.4688" y2="72.4688"/><line style="stroke:#A80036;stroke-width:1.5;" x1="304" x2="365" y1="80.4688" y2="80.4688"/><text fill="#000000" font-family="sans-serif" font-size="11" lengthAdjust="spacing" textLength="51" x="309" y="94.6792">capture()</text><!--MD5=[736dfa021baaf4f381c9890dd397bfe9]
class Line--><rect codeLine="50" fill="#FEFECE" filter="url(#f1g8qyo4i52ufo)" height="39.9688" id="Line" style="stroke:#A80036;stroke-width:1.5;" width="30" x="357.5" y="353.5"/><text fill="#000000" font-family="sans-serif" font-size="12" lengthAdjust="spacing" textLength="24" x="360.5" y="369.6387">Line</text><line style="stroke:#A80036;stroke-width:1.5;" x1="358.5" x2="386.5" y1="377.4688" y2="377.4688"/><line style="stroke:#A80036;stroke-width:1.5;" x1="358.5" x2="386.5" y1="385.4688" y2="385.4688"/><!--MD5=[371364a6d7b486039f21f31616b5ee45]
class Change--><rect codeLine="52" fill="#FEFECE" filter="url(#f1g8qyo4i52ufo)" height="39.9688" id="Change" style="stroke:#A80036;stroke-width:1.5;" width="51" x="505" y="223.5"/><text fill="#000000" font-family="sans-serif" font-size="12" lengthAdjust="spacing" textLength="45" x="508" y="239.6387">Change</text><line style="stroke:#A80036;stroke-width:1.5;" x1="506" x2="555" y1="247.4688" y2="247.4688"/><line style="stroke:#A80036;stroke-width:1.5;" x1="506" x2="555" y1="255.4688" y2="255.4688"/><!--MD5=[6cc3ad14011ab7f07f5dfe79da9fafb1]
class Roster--><rect codeLine="58" fill="#FEFECE" filter="url(#f1g8qyo4i52ufo)" height="39.9688" id="Roster" style="stroke:#A80036;stroke-width:1.5;" width="45" x="263" y="223.5"/><text fill="#000000" font-family="sans-serif" font-size="12" lengthAdjust="spacing" textLength="39" x="266" y="239.6387">Roster</text><line style="stroke:#A80036;stroke-width:1.5;" x1="264" x2="307" y1="247.4688" y2="247.4688"/><line style="stroke:#A80036;stroke-width:1.5;" x1="264" x2="307" y1="255.4688" y2="255.4688"/><!--MD5=[7a57d4e6c259c3432f738831683a3b66]
class Sportechbisystem--><rect codeLine="60" fill="#FEFECE" filter="url(#f1g8qyo4i52ufo)" height="52.7734" id="Sportechbisystem" style="stroke:#A80036;stroke-width:1.5;" width="116" x="628.5" y="347"/><text fill="#000000" font-family="sans-serif" font-size="12" lengthAdjust="spacing" textLength="110" x="631.5" y="363.1387">Sportechbisystem</text><line style="stroke:#A80036;stroke-width:1.5;" x1="629.5" x2="743.5" y1="370.9688" y2="370.9688"/><line style="stroke:#A80036;stroke-width:1.5;" x1="629.5" x2="743.5" y1="378.9688" y2="378.9688"/><text fill="#000000" font-family="sans-serif" font-size="11" lengthAdjust="spacing" textLength="45" x="634.5" y="393.1792">launch()</text><!--MD5=[2916714cae8f0462c1096d4fd55ce4c3]
class Season--><rect codeLine="63" fill="#FEFECE" filter="url(#f1g8qyo4i52ufo)" height="52.7734" id="Season" style="stroke:#A80036;stroke-width:1.5;" width="69" x="59" y="217"/><text fill="#000000" font-family="sans-serif" font-size="12" lengthAdjust="spacing" textLength="45" x="71" y="233.1387">Season</text><line style="stroke:#A80036;stroke-width:1.5;" x1="60" x2="127" y1="240.9688" y2="240.9688"/><line style="stroke:#A80036;stroke-width:1.5;" x1="60" x2="127" y1="248.9688" y2="248.9688"/><text fill="#000000" font-family="sans-serif" font-size="11" lengthAdjust="spacing" textLength="57" x="65" y="263.1792">progress()</text><!--MD5=[c680266cf9e454ca06c2d1bb8b683e6b]
class Schedule--><rect codeLine="70" fill="#FEFECE" filter="url(#f1g8qyo4i52ufo)" height="39.9688" id="Schedule" style="stroke:#A80036;stroke-width:1.5;" width="62" x="1136.5" y="223.5"/><text fill="#000000" font-family="sans-serif" font-size="12" lengthAdjust="spacing" textLength="56" x="1139.5" y="239.6387">Schedule</text><line style="stroke:#A80036;stroke-width:1.5;" x1="1137.5" x2="1197.5" y1="247.4688" y2="247.4688"/><line style="stroke:#A80036;stroke-width:1.5;" x1="1137.5" x2="1197.5" y1="255.4688" y2="255.4688"/><!--MD5=[1dab20436cf0d1b1dd4840238477bf0e]
class Instagram--><rect codeLine="72" fill="#FEFECE" filter="url(#f1g8qyo4i52ufo)" height="52.7734" id="Instagram" style="stroke:#A80036;stroke-width:1.5;" width="65" x="163" y="217"/><text fill="#000000" font-family="sans-serif" font-size="12" lengthAdjust="spacing" textLength="59" x="166" y="233.1387">Instagram</text><line style="stroke:#A80036;stroke-width:1.5;" x1="164" x2="227" y1="240.9688" y2="240.9688"/><line style="stroke:#A80036;stroke-width:1.5;" x1="164" x2="227" y1="248.9688" y2="248.9688"/><text fill="#000000" font-family="sans-serif" font-size="11" lengthAdjust="spacing" textLength="35" x="169" y="263.1792">feed()</text><!--MD5=[69d1fc2307767191063ae5624aae7618]
class Manner--><rect codeLine="75" fill="#FEFECE" filter="url(#f1g8qyo4i52ufo)" height="39.9688" id="Manner" style="stroke:#A80036;stroke-width:1.5;" width="50" x="543.5" y="353.5"/><text fill="#000000" font-family="sans-serif" font-size="12" lengthAdjust="spacing" textLength="44" x="546.5" y="369.6387">Manner</text><line style="stroke:#A80036;stroke-width:1.5;" x1="544.5" x2="592.5" y1="377.4688" y2="377.4688"/><line style="stroke:#A80036;stroke-width:1.5;" x1="544.5" x2="592.5" y1="385.4688" y2="385.4688"/><!--MD5=[a030fa97ffb865708cae79f6847e8968]
class Condition--><rect codeLine="77" fill="#FEFECE" filter="url(#f1g8qyo4i52ufo)" height="39.9688" id="Condition" style="stroke:#A80036;stroke-width:1.5;" width="62" x="1006.5" y="223.5"/><text fill="#000000" font-family="sans-serif" font-size="12" lengthAdjust="spacing" textLength="56" x="1009.5" y="239.6387">Condition</text><line style="stroke:#A80036;stroke-width:1.5;" x1="1007.5" x2="1067.5" y1="247.4688" y2="247.4688"/><line style="stroke:#A80036;stroke-width:1.5;" x1="1007.5" x2="1067.5" y1="255.4688" y2="255.4688"/><!--MD5=[9b5cac166cdab0bb423bef2a88f8f812]
link Customer to Data--><path codeLine="79" d="M587.125,140.247 C586.906,155.788 588.218,172.184 592.5,187 C595.062,195.864 599.506,204.675 604.386,212.58 " fill="none" id="Customer-to-Data" style="stroke:#A80036;stroke-width:1.0;"/><polygon fill="#A80036" points="607.132,216.872,605.6489,207.1354,604.4364,212.6608,598.9111,211.4483,607.132,216.872" style="stroke:#A80036;stroke-width:1.0;"/><text fill="#000000" font-family="sans-serif" font-size="13" lengthAdjust="spacing" textLength="24" x="593.5" y="183.0669">add</text><!--MD5=[9b5cac166cdab0bb423bef2a88f8f812]
link Customer to Data--><path codeLine="92" d="M645.066,102.352 C669.612,118.336 696.856,141.225 710.5,170 C722.279,194.841 694.687,214.636 668.21,227.224 " fill="none" id="Customer-to-Data-1" style="stroke:#A80036;stroke-width:1.0;"/><polygon fill="#A80036" points="663.634,229.336,673.4819,229.1983,668.1742,227.2416,670.1309,221.9339,663.634,229.336" style="stroke:#A80036;stroke-width:1.0;"/><text fill="#000000" font-family="sans-serif" font-size="13" lengthAdjust="spacing" textLength="42" x="714.5" y="183.0669">import</text><!--MD5=[f2f8f24c4ef77a56fd7ce5d0f5a94a0f]
link Manger to Timetwitter--><path codeLine="80" d="M979.339,101.53 C973.299,120.434 964.876,146.82 957.5,170 C952.365,186.138 946.602,204.302 942.13,218.413 " fill="none" id="Manger-to-Timetwitter" style="stroke:#A80036;stroke-width:1.0;"/><polygon fill="#A80036" points="940.544,223.416,947.0776,216.0463,942.0555,218.6499,939.4519,213.6279,940.544,223.416" style="stroke:#A80036;stroke-width:1.0;"/><text fill="#000000" font-family="sans-serif" font-size="13" lengthAdjust="spacing" textLength="50" x="958.5" y="183.0669">monitor</text><!--MD5=[f6a71835551c756e0a6beac3992d4664]
link Customer to Change--><path codeLine="81" d="M568.436,140.049 C564.355,150.042 560.258,160.277 556.5,170 C550.318,185.996 543.804,204.161 538.843,218.306 " fill="none" id="Customer-to-Change" style="stroke:#A80036;stroke-width:1.0;"/><polygon fill="#A80036" points="537.089,223.325,543.8349,216.1491,538.739,218.6051,536.283,213.5092,537.089,223.325" style="stroke:#A80036;stroke-width:1.0;"/><text fill="#000000" font-family="sans-serif" font-size="13" lengthAdjust="spacing" textLength="23" x="557.5" y="183.0669">see</text><!--MD5=[c81e3c59bdba98824a48e28a0044be20]
link Manger to Condition--><path codeLine="82" d="M995.203,101.651 C1004.732,133.384 1020.84,187.017 1030.19,218.142 " fill="none" id="Manger-to-Condition" style="stroke:#A80036;stroke-width:1.0;"/><polygon fill="#A80036" points="1031.74,223.309,1032.9798,213.5385,1030.3006,218.5207,1025.3185,215.8415,1031.74,223.309" style="stroke:#A80036;stroke-width:1.0;"/><text fill="#000000" font-family="sans-serif" font-size="13" lengthAdjust="spacing" textLength="88" x="1021.5" y="183.0669">supported_by</text><!--MD5=[e891f222eeb06b60d47e9f38cd0ef2fb]
link GM to PlayerValue--><path codeLine="83" d="M467.613,100.689 C484.674,113.751 506.876,129.261 528.5,140 C567.777,159.505 582.085,152.978 622.5,170 C637.342,176.251 640.075,179.839 654.5,187 C680.029,199.673 709.024,213.109 732.117,223.586 " fill="none" id="GM-to-PlayerValue" style="stroke:#A80036;stroke-width:1.0;"/><polygon fill="#A80036" points="736.951,225.776,730.4032,218.419,732.3964,223.713,727.1024,225.7063,736.951,225.776" style="stroke:#A80036;stroke-width:1.0;"/><text fill="#000000" font-family="sans-serif" font-size="13" lengthAdjust="spacing" textLength="46" x="655.5" y="183.0669">extract</text><!--MD5=[1121c6727b1b994d339c072402071830]
link Decision to Line--><path codeLine="84" d="M372.5,270.095 C372.5,292.789 372.5,325.7065 372.5,348.0484 " fill="none" id="Decision-to-Line" style="stroke:#A80036;stroke-width:1.0;"/><polygon fill="#A80036" points="372.5,353.2072,376.5,344.2072,372.5,348.2072,368.5,344.2072,372.5,353.2072" style="stroke:#A80036;stroke-width:1.0;"/><text fill="#000000" font-family="sans-serif" font-size="13" lengthAdjust="spacing" textLength="38" x="373.5" y="313.0669">affect</text><!--MD5=[02c35b805d50a00c1852e1d3168c6773]
link GM to Roster--><path codeLine="85" d="M407.373,117.123 C400.151,125.345 392.037,133.454 383.5,140 C358.57,159.115 341.715,147.789 319.5,170 C306.163,183.335 297.413,202.897 292.134,218.341 " fill="none" id="GM-to-Roster" style="stroke:#A80036;stroke-width:1.0;"/><polygon fill="#A80036" points="290.475,223.406,297.0763,216.0969,292.0304,218.6541,289.4732,213.6082,290.475,223.406" style="stroke:#A80036;stroke-width:1.0;"/><text fill="#000000" font-family="sans-serif" font-size="13" lengthAdjust="spacing" textLength="30" x="320.5" y="183.0669">build</text><!--MD5=[15b1ee8fdcda5f30b6a480a68ae3e2f5]
link SoccerCoach to Schedule--><path codeLine="86" d="M1167.5,108.103 C1167.5,140.307 1167.5,189.182 1167.5,218.269 " fill="none" id="SoccerCoach-to-Schedule" style="stroke:#A80036;stroke-width:1.0;"/><polygon fill="#A80036" points="1167.5,223.461,1171.5,214.461,1167.5,218.461,1163.5,214.461,1167.5,223.461" style="stroke:#A80036;stroke-width:1.0;"/><text fill="#000000" font-family="sans-serif" font-size="13" lengthAdjust="spacing" textLength="60" x="1168.5" y="183.0669">configure</text><!--MD5=[1f39fa84b5606d05755b0505bee9428f]
link Data to Sportechbisystem--><path codeLine="87" d="M639.298,270.095 C648.905,290.937 662.486,320.4024 672.616,342.3792 " fill="none" id="Data-to-Sportechbisystem" style="stroke:#A80036;stroke-width:1.0;"/><polygon fill="#A80036" points="674.723,346.9493,674.5888,337.1014,672.6302,342.4083,667.3232,340.4498,674.723,346.9493" style="stroke:#A80036;stroke-width:1.0;"/><text fill="#000000" font-family="sans-serif" font-size="13" lengthAdjust="spacing" textLength="88" x="662.5" y="313.0669">supported_by</text><!--MD5=[63b6f58fdd481ce6f57e7b94b44dd6b8]
reverse link GM to Data--><path codeLine="88" d="M457.523,132.745 C466.633,152.037 479.115,172.389 495.5,187 C523.221,211.72 539.35,202.393 573.5,217 C579.315,219.487 585.424,222.237 591.358,224.983 " fill="none" id="GM-backto-Data" style="stroke:#A80036;stroke-width:1.0;"/><polygon fill="#FFFFFF" points="452.15,120.612,450.9225,127.7179,457.0096,131.584,458.2371,124.4781,452.15,120.612" style="stroke:#A80036;stroke-width:1.0;"/><text fill="#000000" font-family="sans-serif" font-size="13" lengthAdjust="spacing" textLength="46" x="496.5" y="183.0669">extract</text><!--MD5=[cb4afa031cb4f94c62b890708ae3876c]
link Coach to PlayerValue--><path codeLine="89" d="M822.124,108.103 C810.665,140.44 793.25,189.588 782.958,218.63 " fill="none" id="Coach-to-PlayerValue" style="stroke:#A80036;stroke-width:1.0;"/><polygon fill="#A80036" points="781.246,223.461,788.0223,216.3138,782.916,218.7481,780.4817,213.6418,781.246,223.461" style="stroke:#A80036;stroke-width:1.0;"/><text fill="#000000" font-family="sans-serif" font-size="13" lengthAdjust="spacing" textLength="46" x="800.5" y="183.0669">extract</text><!--MD5=[2b3f8bee6aea3628fe8df11393e25f04]
link Data to Manner--><path codeLine="90" d="M604.568,270.135 C597.57,279.071 590.431,289.5 585.5,300 C578.354,315.2162 574.081,333.6795 571.607,348.1656 " fill="none" id="Data-to-Manner" style="stroke:#A80036;stroke-width:1.0;"/><polygon fill="#A80036" points="570.775,353.3093,576.1613,345.0639,571.5737,348.3735,568.2641,343.7859,570.775,353.3093" style="stroke:#A80036;stroke-width:1.0;"/><text fill="#000000" font-family="sans-serif" font-size="13" lengthAdjust="spacing" textLength="58" x="586.5" y="313.0669">integrate</text><!--MD5=[dab8cd1006f357c5080512cb7dbe8aee]
link GM to Decision--><path codeLine="91" d="M407.311,112.188 C386.649,137.142 362.76,166.439 361.5,170 C356.816,183.245 358.214,198.542 361.321,211.662 " fill="none" id="GM-to-Decision" style="stroke:#A80036;stroke-width:1.0;"/><polygon fill="#A80036" points="362.638,216.762,364.2611,207.0478,361.388,211.9208,356.5151,209.0477,362.638,216.762" style="stroke:#A80036;stroke-width:1.0;"/><text fill="#000000" font-family="sans-serif" font-size="13" lengthAdjust="spacing" textLength="36" x="362.5" y="183.0669">make</text><!--MD5=[4272b4a73b24b2335e2c3589e1bc4861]
link SporTechBIContractor to Crawler--><!--MD5=[8f991116171f52d6b3a631ec18686755]
link Crawler to Field--><!--MD5=[c2a23edd9e592d8b99ad4c8959a70252]
link SporTechBIContractor to Season--><!--MD5=[a621dcd2d8145811b05cbaf74100d662]
link Season to Instagram--><!--MD5=[119aa11ffe3802386973fb8a85beb285]
@startuml
hide circle
class GM<actor> {
	data
}
class SporTechBIContractor<actor> {
}
class Manger<actor> {
}
class Customer<actor> {
	model
}
class SoccerCoach<actor> {
}
class Manger {
	monitor()
}
class Timetwitter {
}
class GM {
	make()
	build()
	extract()
}
class Data {
	integrate()
}
class Crawler {
	run()
}
class PlayerValue {
}
class Coach {
	visualize()
	extract()
}
class Decision {
	affect()
}
class Customer {
	drop()
	import()
	see()
	update()
	drag()
	add()
}
class Field {
	capture()
}
class Line {
}
class Change {
}
class SporTechBIContractor {
	add()
	update()
}
class Roster {
}
class Sportechbisystem {
	launch()
}
class Season {
	progress()
}
class SoccerCoach {
	configure()
	specify()
}
class Schedule {
}
class Instagram {
	feed()
}
class Manner {
}
class Condition {
}
Customer - -> Data : add
Manger - -> Timetwitter : monitor
Customer - -> Change : see
Manger - -> Condition : supported_by
GM - -> PlayerValue : extract
Decision - -> Line : affect
GM - -> Roster : build
SoccerCoach - -> Schedule : configure
Data - -> Sportechbisystem : supported_by
GM o- - Data : extract
Coach - -> PlayerValue : extract
Data - -> Manner : integrate
GM - -> Decision : make
Customer - -> Data : import
@enduml

PlantUML version 1.2021.10beta2(Unknown compile time)
(GPL source distribution)
Java Runtime: Java(TM) SE Runtime Environment
JVM: Java HotSpot(TM) 64-Bit Server VM
Default Encoding: UTF-8
Language: en
Country: US
--></g></svg>