<?xml version="1.0" encoding="UTF-8" standalone="no"?><svg xmlns="http://www.w3.org/2000/svg" xmlns:xlink="http://www.w3.org/1999/xlink" contentScriptType="application/ecmascript" contentStyleType="text/css" height="451px" preserveAspectRatio="none" style="width:1440px;height:451px;background:#FFFFFF;" version="1.1" viewBox="0 0 1440 451" width="1440px" zoomAndPan="magnify"><defs><filter height="300%" id="f1bkwb8vvfsxa" width="300%" x="-1" y="-1"><feGaussianBlur result="blurOut" stdDeviation="2.0"/><feColorMatrix in="blurOut" result="blurOut2" type="matrix" values="0 0 0 0 0 0 0 0 0 0 0 0 0 0 0 0 0 0 .4 0"/><feOffset dx="4.0" dy="4.0" in="blurOut2" result="blurOut3"/><feBlend in="SourceGraphic" in2="blurOut3" mode="normal"/></filter></defs><g><!--MD5=[3fd616f346a44cd59a91eb10b19e157c]
class User--><rect codeLine="14" fill="#FEFECE" filter="url(#f1bkwb8vvfsxa)" height="168.0156" id="User" style="stroke:#A80036;stroke-width:1.5;" width="74" x="578.4602" y="10"/><text fill="#000000" font-family="sans-serif" font-size="12" lengthAdjust="spacing" textLength="29" x="583.4602" y="26.1387">User</text><rect fill="#FFFFFF" height="15.9688" style="stroke:#000000;stroke-width:1.0;stroke-dasharray:2.0,2.0;" width="33" x="622.4602" y="7"/><text fill="#000000" font-family="sans-serif" font-size="12" font-style="italic" lengthAdjust="spacing" textLength="31" x="623.4602" y="19.1387">actor</text><line style="stroke:#A80036;stroke-width:1.5;" x1="579.4602" x2="651.4602" y1="33.9688" y2="33.9688"/><line style="stroke:#A80036;stroke-width:1.5;" x1="579.4602" x2="651.4602" y1="41.9688" y2="41.9688"/><text fill="#000000" font-family="sans-serif" font-size="11" lengthAdjust="spacing" textLength="47" x="584.4602" y="56.1792">review()</text><text fill="#000000" font-family="sans-serif" font-size="11" lengthAdjust="spacing" textLength="62" x="584.4602" y="68.9839">download()</text><text fill="#000000" font-family="sans-serif" font-size="11" lengthAdjust="spacing" textLength="30" x="584.4602" y="81.7886">see()</text><text fill="#000000" font-family="sans-serif" font-size="11" lengthAdjust="spacing" textLength="29" x="584.4602" y="94.5933">use()</text><text fill="#000000" font-family="sans-serif" font-size="11" lengthAdjust="spacing" textLength="29" x="584.4602" y="107.3979">add()</text><text fill="#000000" font-family="sans-serif" font-size="11" lengthAdjust="spacing" textLength="45" x="584.4602" y="120.2026">lookup()</text><text fill="#000000" font-family="sans-serif" font-size="11" lengthAdjust="spacing" textLength="28" x="584.4602" y="133.0073">like()</text><text fill="#000000" font-family="sans-serif" font-size="11" lengthAdjust="spacing" textLength="46" x="584.4602" y="145.812">submit()</text><text fill="#000000" font-family="sans-serif" font-size="11" lengthAdjust="spacing" textLength="55" x="584.4602" y="158.6167">reduced()</text><text fill="#000000" font-family="sans-serif" font-size="11" lengthAdjust="spacing" textLength="37" x="584.4602" y="171.4214">have()</text><!--MD5=[093d379f2b7e54e4fc4757309739f182]
class Business--><rect codeLine="35" fill="#FEFECE" filter="url(#f1bkwb8vvfsxa)" height="52.7734" id="Business" style="stroke:#A80036;stroke-width:1.5;" width="95" x="1013.9652" y="261.5"/><text fill="#000000" font-family="sans-serif" font-size="12" lengthAdjust="spacing" textLength="54" x="1016.9652" y="277.6387">Business</text><rect fill="#FFFFFF" height="15.9688" style="stroke:#000000;stroke-width:1.0;stroke-dasharray:2.0,2.0;" width="33" x="1078.9652" y="258.5"/><text fill="#000000" font-family="sans-serif" font-size="12" font-style="italic" lengthAdjust="spacing" textLength="31" x="1079.9652" y="270.6387">actor</text><line style="stroke:#A80036;stroke-width:1.5;" x1="1014.9652" x2="1107.9652" y1="285.4688" y2="285.4688"/><line style="stroke:#A80036;stroke-width:1.5;" x1="1014.9652" x2="1107.9652" y1="293.4688" y2="293.4688"/><text fill="#000000" font-family="sans-serif" font-size="11" lengthAdjust="spacing" textLength="38" x="1019.9652" y="307.6792">claim()</text><!--MD5=[da547346deef918ea16944ba046651ef]
class Administrator--><rect codeLine="28" fill="#FEFECE" filter="url(#f1bkwb8vvfsxa)" height="78.3828" id="Administrator" style="stroke:#A80036;stroke-width:1.5;" width="121" x="1244.9652" y="55"/><text fill="#000000" font-family="sans-serif" font-size="12" lengthAdjust="spacing" textLength="80" x="1247.9652" y="71.1387">Administrator</text><rect fill="#FFFFFF" height="15.9688" style="stroke:#000000;stroke-width:1.0;stroke-dasharray:2.0,2.0;" width="33" x="1335.9652" y="52"/><text fill="#000000" font-family="sans-serif" font-size="12" font-style="italic" lengthAdjust="spacing" textLength="31" x="1336.9652" y="64.1387">actor</text><line style="stroke:#A80036;stroke-width:1.5;" x1="1245.9652" x2="1364.9652" y1="78.9688" y2="78.9688"/><line style="stroke:#A80036;stroke-width:1.5;" x1="1245.9652" x2="1364.9652" y1="86.9688" y2="86.9688"/><text fill="#000000" font-family="sans-serif" font-size="11" lengthAdjust="spacing" textLength="44" x="1250.9652" y="101.1792">assign()</text><text fill="#000000" font-family="sans-serif" font-size="11" lengthAdjust="spacing" textLength="41" x="1250.9652" y="113.9839">verify()</text><text fill="#000000" font-family="sans-serif" font-size="11" lengthAdjust="spacing" textLength="55" x="1250.9652" y="126.7886">approve()</text><!--MD5=[63a951b26403029d56b8ede8f57f20fa]
class TipCalculator--><rect codeLine="8" fill="#FEFECE" filter="url(#f1bkwb8vvfsxa)" height="65.5781" id="TipCalculator" style="stroke:#A80036;stroke-width:1.5;" width="83" x="24.9603" y="255"/><text fill="#000000" font-family="sans-serif" font-size="12" lengthAdjust="spacing" textLength="77" x="27.9603" y="271.1387">TipCalculator</text><line style="stroke:#A80036;stroke-width:1.5;" x1="25.9603" x2="106.9603" y1="278.9688" y2="278.9688"/><line style="stroke:#A80036;stroke-width:1.5;" x1="25.9603" x2="106.9603" y1="286.9688" y2="286.9688"/><text fill="#000000" font-family="sans-serif" font-size="11" lengthAdjust="spacing" textLength="59" x="30.9603" y="301.1792">calculate()</text><text fill="#000000" font-family="sans-serif" font-size="11" lengthAdjust="spacing" textLength="31" x="30.9603" y="313.9839">split()</text><!--MD5=[287caa0945ba2d24fd1d0702d1f7cc2e]
class Tip--><rect codeLine="12" fill="#FEFECE" filter="url(#f1bkwb8vvfsxa)" height="39.9688" id="Tip" style="stroke:#A80036;stroke-width:1.5;" width="24" x="54.4603" y="398"/><text fill="#000000" font-family="sans-serif" font-size="12" lengthAdjust="spacing" textLength="18" x="57.4603" y="414.1387">Tip</text><line style="stroke:#A80036;stroke-width:1.5;" x1="55.4603" x2="77.4603" y1="421.9688" y2="421.9688"/><line style="stroke:#A80036;stroke-width:1.5;" x1="55.4603" x2="77.4603" y1="429.9688" y2="429.9688"/><!--MD5=[fc7123defb831ecdd44b2d9bcef6cceb]
class Question--><rect codeLine="26" fill="#FEFECE" filter="url(#f1bkwb8vvfsxa)" height="39.9688" id="Question" style="stroke:#A80036;stroke-width:1.5;" width="60" x="143.4602" y="268"/><text fill="#000000" font-family="sans-serif" font-size="12" lengthAdjust="spacing" textLength="54" x="146.4602" y="284.1387">Question</text><line style="stroke:#A80036;stroke-width:1.5;" x1="144.4602" x2="202.4602" y1="291.9688" y2="291.9688"/><line style="stroke:#A80036;stroke-width:1.5;" x1="144.4602" x2="202.4602" y1="299.9688" y2="299.9688"/><!--MD5=[042fa140da40c49659127f611bcff931]
class Comment--><rect codeLine="33" fill="#FEFECE" filter="url(#f1bkwb8vvfsxa)" height="39.9688" id="Comment" style="stroke:#A80036;stroke-width:1.5;" width="63" x="1240.9652" y="268"/><text fill="#000000" font-family="sans-serif" font-size="12" lengthAdjust="spacing" textLength="57" x="1243.9652" y="284.1387">Comment</text><line style="stroke:#A80036;stroke-width:1.5;" x1="1241.9652" x2="1302.9652" y1="291.9688" y2="291.9688"/><line style="stroke:#A80036;stroke-width:1.5;" x1="1241.9652" x2="1302.9652" y1="299.9688" y2="299.9688"/><!--MD5=[435987a092acd998883c72f97c5c9408]
class Number--><rect codeLine="38" fill="#FEFECE" filter="url(#f1bkwb8vvfsxa)" height="39.9688" id="Number" style="stroke:#A80036;stroke-width:1.5;" width="53" x="1373.9652" y="268"/><text fill="#000000" font-family="sans-serif" font-size="12" lengthAdjust="spacing" textLength="47" x="1376.9652" y="284.1387">Number</text><line style="stroke:#A80036;stroke-width:1.5;" x1="1374.9652" x2="1425.9652" y1="291.9688" y2="291.9688"/><line style="stroke:#A80036;stroke-width:1.5;" x1="1374.9652" x2="1425.9652" y1="299.9688" y2="299.9688"/><!--MD5=[540ecd4ec222ba344d52ca9cd9134f08]
class TravelGuide--><rect codeLine="40" fill="#FEFECE" filter="url(#f1bkwb8vvfsxa)" height="39.9688" id="TravelGuide" style="stroke:#A80036;stroke-width:1.5;" width="78" x="238.4602" y="268"/><text fill="#000000" font-family="sans-serif" font-size="12" lengthAdjust="spacing" textLength="72" x="241.4602" y="284.1387">TravelGuide</text><line style="stroke:#A80036;stroke-width:1.5;" x1="239.4602" x2="315.4602" y1="291.9688" y2="291.9688"/><line style="stroke:#A80036;stroke-width:1.5;" x1="239.4602" x2="315.4602" y1="299.9688" y2="299.9688"/><!--MD5=[0653f8dae23042bd6dde0eb89a530340]
class SearchResult--><rect codeLine="42" fill="#FEFECE" filter="url(#f1bkwb8vvfsxa)" height="39.9688" id="SearchResult" style="stroke:#A80036;stroke-width:1.5;" width="84" x="351.4602" y="268"/><text fill="#000000" font-family="sans-serif" font-size="12" lengthAdjust="spacing" textLength="78" x="354.4602" y="284.1387">SearchResult</text><line style="stroke:#A80036;stroke-width:1.5;" x1="352.4602" x2="434.4602" y1="291.9688" y2="291.9688"/><line style="stroke:#A80036;stroke-width:1.5;" x1="352.4602" x2="434.4602" y1="299.9688" y2="299.9688"/><!--MD5=[3d4177ac58b4411586d067f34e84928f]
class List--><rect codeLine="44" fill="#FEFECE" filter="url(#f1bkwb8vvfsxa)" height="52.7734" id="List" style="stroke:#A80036;stroke-width:1.5;" width="55" x="1115.9652" y="67.5"/><text fill="#000000" font-family="sans-serif" font-size="12" lengthAdjust="spacing" textLength="20" x="1133.4652" y="83.6387">List</text><line style="stroke:#A80036;stroke-width:1.5;" x1="1116.9652" x2="1169.9652" y1="91.4688" y2="91.4688"/><line style="stroke:#A80036;stroke-width:1.5;" x1="1116.9652" x2="1169.9652" y1="99.4688" y2="99.4688"/><text fill="#000000" font-family="sans-serif" font-size="11" lengthAdjust="spacing" textLength="43" x="1121.9652" y="113.6792">shows()</text><!--MD5=[30fd7b95ab383a5e7c83ea23d4ea0fbf]
class Information--><rect codeLine="47" fill="#FEFECE" filter="url(#f1bkwb8vvfsxa)" height="39.9688" id="Information" style="stroke:#A80036;stroke-width:1.5;" width="73" x="470.9602" y="268"/><text fill="#000000" font-family="sans-serif" font-size="12" lengthAdjust="spacing" textLength="67" x="473.9602" y="284.1387">Information</text><line style="stroke:#A80036;stroke-width:1.5;" x1="471.9602" x2="542.9602" y1="291.9688" y2="291.9688"/><line style="stroke:#A80036;stroke-width:1.5;" x1="471.9602" x2="542.9602" y1="299.9688" y2="299.9688"/><!--MD5=[0b4e4b4980470ea387cc45de9bd14b5b]
class Application--><rect codeLine="49" fill="#FEFECE" filter="url(#f1bkwb8vvfsxa)" height="39.9688" id="Application" style="stroke:#A80036;stroke-width:1.5;" width="72" x="579.4602" y="268"/><text fill="#000000" font-family="sans-serif" font-size="12" lengthAdjust="spacing" textLength="66" x="582.4602" y="284.1387">Application</text><line style="stroke:#A80036;stroke-width:1.5;" x1="580.4602" x2="650.4602" y1="291.9688" y2="291.9688"/><line style="stroke:#A80036;stroke-width:1.5;" x1="580.4602" x2="650.4602" y1="299.9688" y2="299.9688"/><!--MD5=[3c550501cdddb33123e8ff8e576a5e7e]
class Friction--><rect codeLine="51" fill="#FEFECE" filter="url(#f1bkwb8vvfsxa)" height="39.9688" id="Friction" style="stroke:#A80036;stroke-width:1.5;" width="50" x="686.4602" y="268"/><text fill="#000000" font-family="sans-serif" font-size="12" lengthAdjust="spacing" textLength="44" x="689.4602" y="284.1387">Friction</text><line style="stroke:#A80036;stroke-width:1.5;" x1="687.4602" x2="735.4602" y1="291.9688" y2="291.9688"/><line style="stroke:#A80036;stroke-width:1.5;" x1="687.4602" x2="735.4602" y1="299.9688" y2="299.9688"/><!--MD5=[bf609a3d5ee4113250b9e4a92d9171f4]
class TravelTippingGuide--><rect codeLine="53" fill="#FEFECE" filter="url(#f1bkwb8vvfsxa)" height="39.9688" id="TravelTippingGuide" style="stroke:#A80036;stroke-width:1.5;" width="122" x="771.4602" y="268"/><text fill="#000000" font-family="sans-serif" font-size="12" lengthAdjust="spacing" textLength="116" x="774.4602" y="284.1387">TravelTippingGuide</text><line style="stroke:#A80036;stroke-width:1.5;" x1="772.4602" x2="892.4602" y1="291.9688" y2="291.9688"/><line style="stroke:#A80036;stroke-width:1.5;" x1="772.4602" x2="892.4602" y1="299.9688" y2="299.9688"/><!--MD5=[dab16d122782a892ddb6ee0eadcd68f0]
class Access--><rect codeLine="55" fill="#FEFECE" filter="url(#f1bkwb8vvfsxa)" height="39.9688" id="Access" style="stroke:#A80036;stroke-width:1.5;" width="50" x="928.4602" y="268"/><text fill="#000000" font-family="sans-serif" font-size="12" lengthAdjust="spacing" textLength="44" x="931.4602" y="284.1387">Access</text><line style="stroke:#A80036;stroke-width:1.5;" x1="929.4602" x2="977.4602" y1="291.9688" y2="291.9688"/><line style="stroke:#A80036;stroke-width:1.5;" x1="929.4602" x2="977.4602" y1="299.9688" y2="299.9688"/><!--MD5=[bb57b6e8b6374ef6a58d0cffaeb4e6b4]
link Business to Business--><path codeLine="57" d="M1109.3452,274.94 C1128.2052,274.281 1143.9652,278.635 1143.9652,288 C1143.9652,296.487 1131.0252,300.858 1114.5652,301.113 " fill="none" id="Business-to-Business" style="stroke:#A80036;stroke-width:1.0;"/><polygon fill="#A80036" points="1109.3452,301.06,1118.3106,305.137,1114.345,301.1029,1118.3792,297.1373,1109.3452,301.06" style="stroke:#A80036;stroke-width:1.0;"/><text fill="#000000" font-family="sans-serif" font-size="13" lengthAdjust="spacing" textLength="34" x="1149.9652" y="292.5669">claim</text><!--MD5=[0d350f882d0eb5009954051adf137bfc]
link TipCalculator to Tip--><path codeLine="58" d="M32.238,321.316 C24.9855,330.173 18.351,340.3065 14.4603,351 C6,374.2527 31.5811,395.6674 49.8065,407.471 " fill="none" id="TipCalculator-to-Tip" style="stroke:#A80036;stroke-width:1.0;"/><polygon fill="#A80036" points="54.2563,410.2601,48.7548,402.091,50.0197,407.6047,44.5061,408.8696,54.2563,410.2601" style="stroke:#A80036;stroke-width:1.0;"/><text fill="#000000" font-family="sans-serif" font-size="13" lengthAdjust="spacing" textLength="57" x="15.4603" y="364.0669">calculate</text><!--MD5=[0d350f882d0eb5009954051adf137bfc]
link TipCalculator to Tip--><path codeLine="70" d="M74.6083,321.236 C77.2774,335.537 79.1692,352.5851 77.4603,368 C76.5704,376.0265 74.8845,384.6594 73.095,392.4091 " fill="none" id="TipCalculator-to-Tip-1" style="stroke:#A80036;stroke-width:1.0;"/><polygon fill="#A80036" points="71.8481,397.6149,77.8346,389.7943,73.0128,392.7524,70.0546,387.9307,71.8481,397.6149" style="stroke:#A80036;stroke-width:1.0;"/><text fill="#000000" font-family="sans-serif" font-size="13" lengthAdjust="spacing" textLength="26" x="79.4603" y="364.0669">split</text><!--MD5=[3497ab48bff3b8be52e6d740bffea033]
link User to Friction--><path codeLine="59" d="M652.5762,169.232 C669.2952,202.67 687.8742,239.828 699.6072,263.293 " fill="none" id="User-to-Friction" style="stroke:#A80036;stroke-width:1.0;"/><polygon fill="#A80036" points="701.8592,267.798,701.412,257.9593,699.6231,263.3259,694.2566,261.537,701.8592,267.798" style="stroke:#A80036;stroke-width:1.0;"/><text fill="#000000" font-family="sans-serif" font-size="13" lengthAdjust="spacing" textLength="52" x="681.4602" y="221.0669">reduced</text><!--MD5=[b0f65236b6e4863e2825c1db86e431e6]
link Administrator to Number--><path codeLine="60" d="M1324.4552,133.393 C1343.6552,172.194 1372.7152,230.92 1388.7652,263.366 " fill="none" id="Administrator-to-Number" style="stroke:#A80036;stroke-width:1.0;"/><polygon fill="#A80036" points="1391.0352,267.957,1390.6207,258.1169,1388.814,263.4774,1383.4535,261.6707,1391.0352,267.957" style="stroke:#A80036;stroke-width:1.0;"/><text fill="#000000" font-family="sans-serif" font-size="13" lengthAdjust="spacing" textLength="41" x="1371.4652" y="221.0669">assign</text><!--MD5=[8a8ea1534b93302bf9a2cd8ee8560db7]
link Administrator to Comment--><path codeLine="61" d="M1268.4352,133.111 C1251.1752,153.555 1232.4752,180.219 1223.4652,208 C1216.7952,228.52 1230.4552,249.15 1245.0252,264.18 " fill="none" id="Administrator-to-Comment" style="stroke:#A80036;stroke-width:1.0;"/><polygon fill="#A80036" points="1248.7352,267.877,1245.1811,258.6918,1245.1925,264.3486,1239.5357,264.36,1248.7352,267.877" style="stroke:#A80036;stroke-width:1.0;"/><text fill="#000000" font-family="sans-serif" font-size="13" lengthAdjust="spacing" textLength="37" x="1224.4652" y="221.0669">verify</text><!--MD5=[8a8ea1534b93302bf9a2cd8ee8560db7]
link Administrator to Comment--><path codeLine="67" d="M1298.8652,133.393 C1292.2152,172.035 1282.1852,230.438 1276.5952,262.966 " fill="none" id="Administrator-to-Comment-1" style="stroke:#A80036;stroke-width:1.0;"/><polygon fill="#A80036" points="1275.7352,267.957,1281.202,259.7647,1276.5822,263.0293,1273.3176,258.4095,1275.7352,267.957" style="stroke:#A80036;stroke-width:1.0;"/><text fill="#000000" font-family="sans-serif" font-size="13" lengthAdjust="spacing" textLength="53" x="1287.4652" y="221.0669">approve</text><!--MD5=[9c16c988490faca46152c53ac11d37c1]
link User to Business--><path codeLine="62" d="M652.5852,95.807 C729.6292,99.343 908.9712,117.458 1020.4652,208 C1035.6752,220.359 1045.8852,239.872 1052.3052,256.412 " fill="none" id="User-to-Business" style="stroke:#A80036;stroke-width:1.0;"/><polygon fill="#A80036" points="1054.1752,261.439,1054.7815,251.6088,1052.4296,256.7536,1047.2848,254.4018,1054.1752,261.439" style="stroke:#A80036;stroke-width:1.0;"/><text fill="#000000" font-family="sans-serif" font-size="13" lengthAdjust="spacing" textLength="42" x="1036.4652" y="221.0669">lookup</text><!--MD5=[9c16c988490faca46152c53ac11d37c1]
link User to Business--><path codeLine="72" d="M652.8962,108.971 C707.4012,129.533 811.5792,169.664 898.4602,208 C942.2882,227.339 952.3522,234.106 995.4602,255 C999.9292,257.166 1004.5682,259.415 1009.2222,261.671 " fill="none" id="User-to-Business-1" style="stroke:#A80036;stroke-width:1.0;"/><polygon fill="#A80036" points="1013.8752,263.927,1007.5224,256.4009,1009.3763,261.7454,1004.0318,263.5993,1013.8752,263.927" style="stroke:#A80036;stroke-width:1.0;"/><text fill="#000000" font-family="sans-serif" font-size="13" lengthAdjust="spacing" textLength="24" x="935.4602" y="221.0669">add</text><!--MD5=[0b7921e07c4445f3f91f460a4435ef4e]
link User to TipCalculator--><path codeLine="63" d="M578.4232,103.995 C495.2012,124.867 287.9702,180.541 125.4602,255 C121.2592,256.925 116.9442,259.021 112.6502,261.19 " fill="none" id="User-to-TipCalculator" style="stroke:#A80036;stroke-width:1.0;"/><polygon fill="#A80036" points="108.007,263.567,117.841,263.0263,112.4577,261.2885,114.1954,255.9052,108.007,263.567" style="stroke:#A80036;stroke-width:1.0;"/><text fill="#000000" font-family="sans-serif" font-size="13" lengthAdjust="spacing" textLength="23" x="231.4602" y="221.0669">use</text><!--MD5=[b8774b27f37a964db434cc75f76412b7]
link List to Business--><path codeLine="64" d="M1138.2452,120.801 C1132.2452,147.686 1121.0252,190.61 1104.4652,225 C1099.1352,236.049 1091.9552,247.309 1084.9852,257.148 " fill="none" id="List-to-Business" style="stroke:#A80036;stroke-width:1.0;"/><polygon fill="#A80036" points="1082.0252,261.273,1090.5292,256.3048,1084.946,257.2148,1084.036,251.6316,1082.0252,261.273" style="stroke:#A80036;stroke-width:1.0;"/><text fill="#000000" font-family="sans-serif" font-size="13" lengthAdjust="spacing" textLength="41" x="1113.4652" y="221.0669">shows</text><!--MD5=[6881d1d322c8f6c932c5fa96cae590ea]
link User to TravelGuide--><path codeLine="65" d="M578.1582,112.198 C533.4142,133.233 456.5452,170.667 393.4602,208 C363.4552,225.757 330.7502,248.345 307.7392,264.816 " fill="none" id="User-to-TravelGuide" style="stroke:#A80036;stroke-width:1.0;"/><polygon fill="#A80036" points="303.5582,267.818,313.2023,265.8203,307.6204,264.9028,308.538,259.3208,303.5582,267.818" style="stroke:#A80036;stroke-width:1.0;"/><text fill="#000000" font-family="sans-serif" font-size="13" lengthAdjust="spacing" textLength="62" x="394.4602" y="221.0669">download</text><!--MD5=[3cd9423b4d7bed705cce44348efe2e61]
link User to Access--><path codeLine="66" d="M652.7562,113.071 C709.6922,141.134 821.0922,197.924 910.4602,255 C915.1442,257.991 919.9822,261.328 924.6482,264.687 " fill="none" id="User-to-Access" style="stroke:#A80036;stroke-width:1.0;"/><polygon fill="#A80036" points="928.8752,267.768,923.9597,259.2335,924.8351,264.8222,919.2464,265.6977,928.8752,267.768" style="stroke:#A80036;stroke-width:1.0;"/><text fill="#000000" font-family="sans-serif" font-size="13" lengthAdjust="spacing" textLength="32" x="857.4602" y="221.0669">have</text><!--MD5=[4981c864524f50ab1b82211e3369f909]
link User to Application--><path codeLine="68" d="M615.4602,178.097 C615.4602,208.742 615.4602,241.174 615.4602,262.594 " fill="none" id="User-to-Application" style="stroke:#A80036;stroke-width:1.0;"/><polygon fill="#A80036" points="615.4602,267.794,619.4602,258.794,615.4602,262.794,611.4602,258.794,615.4602,267.794" style="stroke:#A80036;stroke-width:1.0;"/><text fill="#000000" font-family="sans-serif" font-size="13" lengthAdjust="spacing" textLength="21" x="616.4602" y="221.0669">like</text><!--MD5=[89a729879333f4a514a72f7623177c63]
link User to Question--><path codeLine="69" d="M578.3762,105.949 C506.3482,128.077 343.7802,182.272 220.4602,255 C215.2792,258.056 209.9012,261.47 204.7142,264.899 " fill="none" id="User-to-Question" style="stroke:#A80036;stroke-width:1.0;"/><polygon fill="#A80036" points="200.4102,267.775,210.1155,266.0994,204.5672,264.9966,205.67,259.4482,200.4102,267.775" style="stroke:#A80036;stroke-width:1.0;"/><text fill="#000000" font-family="sans-serif" font-size="13" lengthAdjust="spacing" textLength="44" x="304.4602" y="221.0669">submit</text><!--MD5=[d6694d316fdf8e4bc667ebec4b409f81]
link User to TravelTippingGuide--><path codeLine="71" d="M652.7642,128.006 C696.7252,166.903 768.6052,230.502 806.7692,264.269 " fill="none" id="User-to-TravelTippingGuide" style="stroke:#A80036;stroke-width:1.0;"/><polygon fill="#A80036" points="810.8042,267.839,806.7163,258.8786,807.0602,264.525,801.4138,264.869,810.8042,267.839" style="stroke:#A80036;stroke-width:1.0;"/><text fill="#000000" font-family="sans-serif" font-size="13" lengthAdjust="spacing" textLength="43" x="763.4602" y="221.0669">review</text><!--MD5=[9d661380b54d9bff4ee137bc0bb1b8a2]
link User to Information--><path codeLine="73" d="M578.4442,160.807 C558.5542,196.166 535.2422,237.61 520.9122,263.085 " fill="none" id="User-to-Information" style="stroke:#A80036;stroke-width:1.0;"/><polygon fill="#A80036" points="518.3442,267.651,526.2426,261.7675,520.7953,263.293,519.2698,257.8457,518.3442,267.651" style="stroke:#A80036;stroke-width:1.0;"/><text fill="#000000" font-family="sans-serif" font-size="13" lengthAdjust="spacing" textLength="21" x="553.4602" y="221.0669">like</text><!--MD5=[41c4f0e7aa53c7c1461746fe07354b36]
link User to SearchResult--><path codeLine="74" d="M578.3022,127.136 C533.4042,165.968 459.0062,230.312 419.6852,264.319 " fill="none" id="User-to-SearchResult" style="stroke:#A80036;stroke-width:1.0;"/><polygon fill="#A80036" points="415.5302,267.913,424.9537,265.0497,419.3115,264.6417,419.7195,258.9995,415.5302,267.913" style="stroke:#A80036;stroke-width:1.0;"/><text fill="#000000" font-family="sans-serif" font-size="13" lengthAdjust="spacing" textLength="23" x="486.4602" y="221.0669">see</text><!--MD5=[b095e1b4f5d92985eec0c8bdda31a849]
@startuml
hide circle
class User<actor> {
}
class Business<actor> {
}
class Administrator<actor> {
}
class TipCalculator {
	calculate()
	split()
}
class Tip {
}
class User {
	review()
	download()
	see()
	use()
	add()
	lookup()
	like()
	submit()
	reduced()
	have()
}
class Question {
}
class Administrator {
	assign()
	verify()
	approve()
}
class Comment {
}
class Business {
	claim()
}
class Number {
}
class TravelGuide {
}
class SearchResult {
}
class List {
	shows()
}
class Information {
}
class Application {
}
class Friction {
}
class TravelTippingGuide {
}
class Access {
}
Business - -> Business : claim
TipCalculator - -> Tip : calculate
User - -> Friction : reduced
Administrator - -> Number : assign
Administrator - -> Comment : verify
User - -> Business : lookup
User - -> TipCalculator : use
List - -> Business : shows
User - -> TravelGuide : download
User - -> Access : have
Administrator - -> Comment : approve
User - -> Application : like
User - -> Question : submit
TipCalculator - -> Tip : split
User - -> TravelTippingGuide : review
User - -> Business : add
User - -> Information : like
User - -> SearchResult : see
@enduml

PlantUML version 1.2021.6beta6(Unknown compile time)
(GPL source distribution)
Java Runtime: Java(TM) SE Runtime Environment
JVM: Java HotSpot(TM) 64-Bit Server VM
Default Encoding: UTF-8
Language: en
Country: US
--></g></svg>