<?xml version="1.0" encoding="UTF-8" standalone="no"?><svg xmlns="http://www.w3.org/2000/svg" xmlns:xlink="http://www.w3.org/1999/xlink" contentScriptType="application/ecmascript" contentStyleType="text/css" height="734px" preserveAspectRatio="none" style="width:2397px;height:734px;background:#FFFFFF;" version="1.1" viewBox="0 0 2397 734" width="2397px" zoomAndPan="magnify"><defs><filter height="300%" id="f1glkfur32ydes" width="300%" x="-1" y="-1"><feGaussianBlur result="blurOut" stdDeviation="2.0"/><feColorMatrix in="blurOut" result="blurOut2" type="matrix" values="0 0 0 0 0 0 0 0 0 0 0 0 0 0 0 0 0 0 .4 0"/><feOffset dx="4.0" dy="4.0" in="blurOut2" result="blurOut3"/><feBlend in="SourceGraphic" in2="blurOut3" mode="normal"/></filter></defs><g><!--MD5=[3fd616f346a44cd59a91eb10b19e157c]
class User--><rect codeLine="8" fill="#FEFECE" filter="url(#f1glkfur32ydes)" height="283.2578" id="User" style="stroke:#A80036;stroke-width:1.5;" width="70" x="1170.5" y="191"/><text fill="#000000" font-family="sans-serif" font-size="12" lengthAdjust="spacing" textLength="29" x="1173.5" y="207.1387">User</text><rect fill="#FFFFFF" height="15.9688" style="stroke:#000000;stroke-width:1.0;stroke-dasharray:2.0,2.0;" width="33" x="1210.5" y="188"/><text fill="#000000" font-family="sans-serif" font-size="12" font-style="italic" lengthAdjust="spacing" textLength="31" x="1211.5" y="200.1387">actor</text><line style="stroke:#A80036;stroke-width:1.5;" x1="1171.5" x2="1239.5" y1="214.9688" y2="214.9688"/><line style="stroke:#A80036;stroke-width:1.5;" x1="1171.5" x2="1239.5" y1="222.9688" y2="222.9688"/><text fill="#000000" font-family="sans-serif" font-size="11" lengthAdjust="spacing" textLength="28" x="1176.5" y="237.1792">like()</text><text fill="#000000" font-family="sans-serif" font-size="11" lengthAdjust="spacing" textLength="43" x="1176.5" y="249.9839">select()</text><text fill="#000000" font-family="sans-serif" font-size="11" lengthAdjust="spacing" textLength="27" x="1176.5" y="262.7886">get()</text><text fill="#000000" font-family="sans-serif" font-size="11" lengthAdjust="spacing" textLength="54" x="1176.5" y="275.5933">redeem()</text><text fill="#000000" font-family="sans-serif" font-size="11" lengthAdjust="spacing" textLength="52" x="1176.5" y="288.3979">receive()</text><text fill="#000000" font-family="sans-serif" font-size="11" lengthAdjust="spacing" textLength="44" x="1176.5" y="301.2026">gauge()</text><text fill="#000000" font-family="sans-serif" font-size="11" lengthAdjust="spacing" textLength="46" x="1176.5" y="314.0073">delete()</text><text fill="#000000" font-family="sans-serif" font-size="11" lengthAdjust="spacing" textLength="46" x="1176.5" y="326.812">usable()</text><text fill="#000000" font-family="sans-serif" font-size="11" lengthAdjust="spacing" textLength="30" x="1176.5" y="339.6167">see()</text><text fill="#000000" font-family="sans-serif" font-size="11" lengthAdjust="spacing" textLength="29" x="1176.5" y="352.4214">use()</text><text fill="#000000" font-family="sans-serif" font-size="11" lengthAdjust="spacing" textLength="42" x="1176.5" y="365.2261">report()</text><text fill="#000000" font-family="sans-serif" font-size="11" lengthAdjust="spacing" textLength="48" x="1176.5" y="378.0308">update()</text><text fill="#000000" font-family="sans-serif" font-size="11" lengthAdjust="spacing" textLength="49" x="1176.5" y="390.8354">answer()</text><text fill="#000000" font-family="sans-serif" font-size="11" lengthAdjust="spacing" textLength="35" x="1176.5" y="403.6401">track()</text><text fill="#000000" font-family="sans-serif" font-size="11" lengthAdjust="spacing" textLength="44" x="1176.5" y="416.4448">dislike()</text><text fill="#000000" font-family="sans-serif" font-size="11" lengthAdjust="spacing" textLength="46" x="1176.5" y="429.2495">search()</text><text fill="#000000" font-family="sans-serif" font-size="11" lengthAdjust="spacing" textLength="33" x="1176.5" y="442.0542">start()</text><text fill="#000000" font-family="sans-serif" font-size="11" lengthAdjust="spacing" textLength="35" x="1176.5" y="454.8589">view()</text><text fill="#000000" font-family="sans-serif" font-size="11" lengthAdjust="spacing" textLength="36" x="1176.5" y="467.6636">mark()</text><!--MD5=[da547346deef918ea16944ba046651ef]
class Administrator--><rect codeLine="71" fill="#FEFECE" filter="url(#f1glkfur32ydes)" height="52.7734" id="Administrator" style="stroke:#A80036;stroke-width:1.5;" width="121" x="7" y="306"/><text fill="#000000" font-family="sans-serif" font-size="12" lengthAdjust="spacing" textLength="80" x="10" y="322.1387">Administrator</text><rect fill="#FFFFFF" height="15.9688" style="stroke:#000000;stroke-width:1.0;stroke-dasharray:2.0,2.0;" width="33" x="98" y="303"/><text fill="#000000" font-family="sans-serif" font-size="12" font-style="italic" lengthAdjust="spacing" textLength="31" x="99" y="315.1387">actor</text><line style="stroke:#A80036;stroke-width:1.5;" x1="8" x2="127" y1="329.9688" y2="329.9688"/><line style="stroke:#A80036;stroke-width:1.5;" x1="8" x2="127" y1="337.9688" y2="337.9688"/><text fill="#000000" font-family="sans-serif" font-size="11" lengthAdjust="spacing" textLength="25" x="13" y="352.1792">pin()</text><!--MD5=[15c6922f6693225acd2805a9f7199676]
class Maintainer--><rect codeLine="31" fill="#FEFECE" filter="url(#f1glkfur32ydes)" height="103.9922" id="Maintainer" style="stroke:#A80036;stroke-width:1.5;" width="102" x="2034.5" y="10"/><text fill="#000000" font-family="sans-serif" font-size="12" lengthAdjust="spacing" textLength="61" x="2037.5" y="26.1387">Maintainer</text><rect fill="#FFFFFF" height="15.9688" style="stroke:#000000;stroke-width:1.0;stroke-dasharray:2.0,2.0;" width="33" x="2106.5" y="7"/><text fill="#000000" font-family="sans-serif" font-size="12" font-style="italic" lengthAdjust="spacing" textLength="31" x="2107.5" y="19.1387">actor</text><line style="stroke:#A80036;stroke-width:1.5;" x1="2035.5" x2="2135.5" y1="33.9688" y2="33.9688"/><line style="stroke:#A80036;stroke-width:1.5;" x1="2035.5" x2="2135.5" y1="41.9688" y2="41.9688"/><text fill="#000000" font-family="sans-serif" font-size="11" lengthAdjust="spacing" textLength="29" x="2040.5" y="56.1792">add()</text><text fill="#000000" font-family="sans-serif" font-size="11" lengthAdjust="spacing" textLength="30" x="2040.5" y="68.9839">edit()</text><text fill="#000000" font-family="sans-serif" font-size="11" lengthAdjust="spacing" textLength="45" x="2040.5" y="81.7886">create()</text><text fill="#000000" font-family="sans-serif" font-size="11" lengthAdjust="spacing" textLength="55" x="2040.5" y="94.5933">manage()</text><text fill="#000000" font-family="sans-serif" font-size="11" lengthAdjust="spacing" textLength="44" x="2040.5" y="107.3979">entice()</text><!--MD5=[94c938a5730286cd24ee618edf9a48e3]
class PointBalance--><rect codeLine="29" fill="#FEFECE" filter="url(#f1glkfur32ydes)" height="39.9688" id="PointBalance" style="stroke:#A80036;stroke-width:1.5;" width="81" x="216" y="557.5"/><text fill="#000000" font-family="sans-serif" font-size="12" lengthAdjust="spacing" textLength="75" x="219" y="573.6387">PointBalance</text><line style="stroke:#A80036;stroke-width:1.5;" x1="217" x2="296" y1="581.4688" y2="581.4688"/><line style="stroke:#A80036;stroke-width:1.5;" x1="217" x2="296" y1="589.4688" y2="589.4688"/><!--MD5=[948346f2dfe9866ea883595a582714fa]
class Thread--><rect codeLine="38" fill="#FEFECE" filter="url(#f1glkfur32ydes)" height="39.9688" id="Thread" style="stroke:#A80036;stroke-width:1.5;" width="48" x="332.5" y="557.5"/><text fill="#000000" font-family="sans-serif" font-size="12" lengthAdjust="spacing" textLength="42" x="335.5" y="573.6387">Thread</text><line style="stroke:#A80036;stroke-width:1.5;" x1="333.5" x2="379.5" y1="581.4688" y2="581.4688"/><line style="stroke:#A80036;stroke-width:1.5;" x1="333.5" x2="379.5" y1="589.4688" y2="589.4688"/><!--MD5=[d6d0139909907e6d9a450a5f34bc9321]
class WATPoint--><rect codeLine="40" fill="#FEFECE" filter="url(#f1glkfur32ydes)" height="39.9688" id="WATPoint" style="stroke:#A80036;stroke-width:1.5;" width="61" x="617" y="557.5"/><text fill="#000000" font-family="sans-serif" font-size="12" lengthAdjust="spacing" textLength="55" x="620" y="573.6387">WATPoint</text><line style="stroke:#A80036;stroke-width:1.5;" x1="618" x2="677" y1="581.4688" y2="581.4688"/><line style="stroke:#A80036;stroke-width:1.5;" x1="618" x2="677" y1="589.4688" y2="589.4688"/><!--MD5=[ac13618b1a974308c1f12eb6c57723dc]
class Event--><rect codeLine="42" fill="#FEFECE" filter="url(#f1glkfur32ydes)" height="39.9688" id="Event" style="stroke:#A80036;stroke-width:1.5;" width="39" x="1983" y="312.5"/><text fill="#000000" font-family="sans-serif" font-size="12" lengthAdjust="spacing" textLength="33" x="1986" y="328.6387">Event</text><line style="stroke:#A80036;stroke-width:1.5;" x1="1984" x2="2021" y1="336.4688" y2="336.4688"/><line style="stroke:#A80036;stroke-width:1.5;" x1="1984" x2="2021" y1="344.4688" y2="344.4688"/><!--MD5=[f9fadfa5a66b7e5a67b370cd443ffe52]
class Answer--><rect codeLine="44" fill="#FEFECE" filter="url(#f1glkfur32ydes)" height="39.9688" id="Answer" style="stroke:#A80036;stroke-width:1.5;" width="51" x="824" y="557.5"/><text fill="#000000" font-family="sans-serif" font-size="12" lengthAdjust="spacing" textLength="45" x="827" y="573.6387">Answer</text><line style="stroke:#A80036;stroke-width:1.5;" x1="825" x2="874" y1="581.4688" y2="581.4688"/><line style="stroke:#A80036;stroke-width:1.5;" x1="825" x2="874" y1="589.4688" y2="589.4688"/><!--MD5=[3511f803a31cb4fbfab7936e9b4660bc]
class Lifetime--><rect codeLine="46" fill="#FEFECE" filter="url(#f1glkfur32ydes)" height="39.9688" id="Lifetime" style="stroke:#A80036;stroke-width:1.5;" width="53" x="910" y="557.5"/><text fill="#000000" font-family="sans-serif" font-size="12" lengthAdjust="spacing" textLength="47" x="913" y="573.6387">Lifetime</text><line style="stroke:#A80036;stroke-width:1.5;" x1="911" x2="962" y1="581.4688" y2="581.4688"/><line style="stroke:#A80036;stroke-width:1.5;" x1="911" x2="962" y1="589.4688" y2="589.4688"/><!--MD5=[028fba31e0312914fa4880b63f0540b8]
class Detail--><rect codeLine="48" fill="#FEFECE" filter="url(#f1glkfur32ydes)" height="39.9688" id="Detail" style="stroke:#A80036;stroke-width:1.5;" width="40" x="2065.5" y="312.5"/><text fill="#000000" font-family="sans-serif" font-size="12" lengthAdjust="spacing" textLength="34" x="2068.5" y="328.6387">Detail</text><line style="stroke:#A80036;stroke-width:1.5;" x1="2066.5" x2="2104.5" y1="336.4688" y2="336.4688"/><line style="stroke:#A80036;stroke-width:1.5;" x1="2066.5" x2="2104.5" y1="344.4688" y2="344.4688"/><!--MD5=[ab5513caa948c03ee87f6bc67913e66b]
class GiftCard--><rect codeLine="50" fill="#FEFECE" filter="url(#f1glkfur32ydes)" height="52.7734" id="GiftCard" style="stroke:#A80036;stroke-width:1.5;" width="54" x="2101.5" y="551"/><text fill="#000000" font-family="sans-serif" font-size="12" lengthAdjust="spacing" textLength="48" x="2104.5" y="567.1387">GiftCard</text><line style="stroke:#A80036;stroke-width:1.5;" x1="2102.5" x2="2154.5" y1="574.9688" y2="574.9688"/><line style="stroke:#A80036;stroke-width:1.5;" x1="2102.5" x2="2154.5" y1="582.9688" y2="582.9688"/><text fill="#000000" font-family="sans-serif" font-size="11" lengthAdjust="spacing" textLength="38" x="2107.5" y="597.1792">using()</text><!--MD5=[fc7123defb831ecdd44b2d9bcef6cceb]
class Question--><rect codeLine="53" fill="#FEFECE" filter="url(#f1glkfur32ydes)" height="39.9688" id="Question" style="stroke:#A80036;stroke-width:1.5;" width="60" x="998.5" y="557.5"/><text fill="#000000" font-family="sans-serif" font-size="12" lengthAdjust="spacing" textLength="54" x="1001.5" y="573.6387">Question</text><line style="stroke:#A80036;stroke-width:1.5;" x1="999.5" x2="1057.5" y1="581.4688" y2="581.4688"/><line style="stroke:#A80036;stroke-width:1.5;" x1="999.5" x2="1057.5" y1="589.4688" y2="589.4688"/><!--MD5=[72136138052d025cffdce3c22fbd185f]
class Product--><rect codeLine="55" fill="#FEFECE" filter="url(#f1glkfur32ydes)" height="39.9688" id="Product" style="stroke:#A80036;stroke-width:1.5;" width="51" x="2237" y="312.5"/><text fill="#000000" font-family="sans-serif" font-size="12" lengthAdjust="spacing" textLength="45" x="2240" y="328.6387">Product</text><line style="stroke:#A80036;stroke-width:1.5;" x1="2238" x2="2287" y1="336.4688" y2="336.4688"/><line style="stroke:#A80036;stroke-width:1.5;" x1="2238" x2="2287" y1="344.4688" y2="344.4688"/><!--MD5=[b076201f908879798ada25c383f23fa3]
class NewsFeed--><rect codeLine="57" fill="#FEFECE" filter="url(#f1glkfur32ydes)" height="39.9688" id="NewsFeed" style="stroke:#A80036;stroke-width:1.5;" width="70" x="1093.5" y="557.5"/><text fill="#000000" font-family="sans-serif" font-size="12" lengthAdjust="spacing" textLength="64" x="1096.5" y="573.6387">NewsFeed</text><line style="stroke:#A80036;stroke-width:1.5;" x1="1094.5" x2="1162.5" y1="581.4688" y2="581.4688"/><line style="stroke:#A80036;stroke-width:1.5;" x1="1094.5" x2="1162.5" y1="589.4688" y2="589.4688"/><!--MD5=[042fa140da40c49659127f611bcff931]
class Comment--><rect codeLine="59" fill="#FEFECE" filter="url(#f1glkfur32ydes)" height="39.9688" id="Comment" style="stroke:#A80036;stroke-width:1.5;" width="63" x="2259" y="557.5"/><text fill="#000000" font-family="sans-serif" font-size="12" lengthAdjust="spacing" textLength="57" x="2262" y="573.6387">Comment</text><line style="stroke:#A80036;stroke-width:1.5;" x1="2260" x2="2321" y1="581.4688" y2="581.4688"/><line style="stroke:#A80036;stroke-width:1.5;" x1="2260" x2="2321" y1="589.4688" y2="589.4688"/><!--MD5=[b4fcf23bccaab157e4562a91bb7b243e]
class Leaderboard--><rect codeLine="61" fill="#FEFECE" filter="url(#f1glkfur32ydes)" height="39.9688" id="Leaderboard" style="stroke:#A80036;stroke-width:1.5;" width="84" x="1198.5" y="557.5"/><text fill="#000000" font-family="sans-serif" font-size="12" lengthAdjust="spacing" textLength="78" x="1201.5" y="573.6387">Leaderboard</text><line style="stroke:#A80036;stroke-width:1.5;" x1="1199.5" x2="1281.5" y1="581.4688" y2="581.4688"/><line style="stroke:#A80036;stroke-width:1.5;" x1="1199.5" x2="1281.5" y1="589.4688" y2="589.4688"/><!--MD5=[0a43156e7de176c6a14699d6e578d426]
class OrderingCriterion--><rect codeLine="63" fill="#FEFECE" filter="url(#f1glkfur32ydes)" height="39.9688" id="OrderingCriterion" style="stroke:#A80036;stroke-width:1.5;" width="111" x="1318" y="557.5"/><text fill="#000000" font-family="sans-serif" font-size="12" lengthAdjust="spacing" textLength="105" x="1321" y="573.6387">OrderingCriterion</text><line style="stroke:#A80036;stroke-width:1.5;" x1="1319" x2="1428" y1="581.4688" y2="581.4688"/><line style="stroke:#A80036;stroke-width:1.5;" x1="1319" x2="1428" y1="589.4688" y2="589.4688"/><!--MD5=[2731afa3914a2f1855b4f1ebf120a43f]
class Gift--><rect codeLine="65" fill="#FEFECE" filter="url(#f1glkfur32ydes)" height="39.9688" id="Gift" style="stroke:#A80036;stroke-width:1.5;" width="26" x="1464.5" y="557.5"/><text fill="#000000" font-family="sans-serif" font-size="12" lengthAdjust="spacing" textLength="20" x="1467.5" y="573.6387">Gift</text><line style="stroke:#A80036;stroke-width:1.5;" x1="1465.5" x2="1489.5" y1="581.4688" y2="581.4688"/><line style="stroke:#A80036;stroke-width:1.5;" x1="1465.5" x2="1489.5" y1="589.4688" y2="589.4688"/><!--MD5=[7b57f7066b803747d2119f99dd1555d4]
class Profile--><rect codeLine="67" fill="#FEFECE" filter="url(#f1glkfur32ydes)" height="39.9688" id="Profile" style="stroke:#A80036;stroke-width:1.5;" width="43" x="1526" y="557.5"/><text fill="#000000" font-family="sans-serif" font-size="12" lengthAdjust="spacing" textLength="37" x="1529" y="573.6387">Profile</text><line style="stroke:#A80036;stroke-width:1.5;" x1="1527" x2="1568" y1="581.4688" y2="581.4688"/><line style="stroke:#A80036;stroke-width:1.5;" x1="1527" x2="1568" y1="589.4688" y2="589.4688"/><!--MD5=[f33202a4358b6dc53d5337ad154687fb]
class Progress--><rect codeLine="69" fill="#FEFECE" filter="url(#f1glkfur32ydes)" height="39.9688" id="Progress" style="stroke:#A80036;stroke-width:1.5;" width="60" x="1604.5" y="557.5"/><text fill="#000000" font-family="sans-serif" font-size="12" lengthAdjust="spacing" textLength="54" x="1607.5" y="573.6387">Progress</text><line style="stroke:#A80036;stroke-width:1.5;" x1="1605.5" x2="1663.5" y1="581.4688" y2="581.4688"/><line style="stroke:#A80036;stroke-width:1.5;" x1="1605.5" x2="1663.5" y1="589.4688" y2="589.4688"/><!--MD5=[9dda5a78f2e9474cdcafc64756662734]
class Forum--><rect codeLine="74" fill="#FEFECE" filter="url(#f1glkfur32ydes)" height="39.9688" id="Forum" style="stroke:#A80036;stroke-width:1.5;" width="44" x="1699.5" y="557.5"/><text fill="#000000" font-family="sans-serif" font-size="12" lengthAdjust="spacing" textLength="38" x="1702.5" y="573.6387">Forum</text><line style="stroke:#A80036;stroke-width:1.5;" x1="1700.5" x2="1742.5" y1="581.4688" y2="581.4688"/><line style="stroke:#A80036;stroke-width:1.5;" x1="1700.5" x2="1742.5" y1="589.4688" y2="589.4688"/><!--MD5=[9bb0bdd047fba1a3c8d48282c35b4537]
class Post--><rect codeLine="76" fill="#FEFECE" filter="url(#f1glkfur32ydes)" height="39.9688" id="Post" style="stroke:#A80036;stroke-width:1.5;" width="31" x="1779" y="557.5"/><text fill="#000000" font-family="sans-serif" font-size="12" lengthAdjust="spacing" textLength="25" x="1782" y="573.6387">Post</text><line style="stroke:#A80036;stroke-width:1.5;" x1="1780" x2="1809" y1="581.4688" y2="581.4688"/><line style="stroke:#A80036;stroke-width:1.5;" x1="1780" x2="1809" y1="589.4688" y2="589.4688"/><!--MD5=[30fd7b95ab383a5e7c83ea23d4ea0fbf]
class Information--><rect codeLine="78" fill="#FEFECE" filter="url(#f1glkfur32ydes)" height="39.9688" id="Information" style="stroke:#A80036;stroke-width:1.5;" width="73" x="1845" y="557.5"/><text fill="#000000" font-family="sans-serif" font-size="12" lengthAdjust="spacing" textLength="67" x="1848" y="573.6387">Information</text><line style="stroke:#A80036;stroke-width:1.5;" x1="1846" x2="1917" y1="581.4688" y2="581.4688"/><line style="stroke:#A80036;stroke-width:1.5;" x1="1846" x2="1917" y1="589.4688" y2="589.4688"/><!--MD5=[dc2c0404096162f13f63ae7aa1b69b6e]
class Credibility--><rect codeLine="80" fill="#FEFECE" filter="url(#f1glkfur32ydes)" height="39.9688" id="Credibility" style="stroke:#A80036;stroke-width:1.5;" width="66" x="1953.5" y="557.5"/><text fill="#000000" font-family="sans-serif" font-size="12" lengthAdjust="spacing" textLength="60" x="1956.5" y="573.6387">Credibility</text><line style="stroke:#A80036;stroke-width:1.5;" x1="1954.5" x2="2018.5" y1="581.4688" y2="581.4688"/><line style="stroke:#A80036;stroke-width:1.5;" x1="1954.5" x2="2018.5" y1="589.4688" y2="589.4688"/><!--MD5=[972bde5337b4335dd91fa5354c932445]
class Point--><rect codeLine="82" fill="#FEFECE" filter="url(#f1glkfur32ydes)" height="39.9688" id="Point" style="stroke:#A80036;stroke-width:1.5;" width="34" x="2111.5" y="681"/><text fill="#000000" font-family="sans-serif" font-size="12" lengthAdjust="spacing" textLength="28" x="2114.5" y="697.1387">Point</text><line style="stroke:#A80036;stroke-width:1.5;" x1="2112.5" x2="2144.5" y1="704.9688" y2="704.9688"/><line style="stroke:#A80036;stroke-width:1.5;" x1="2112.5" x2="2144.5" y1="712.9688" y2="712.9688"/><!--MD5=[61ee93df81f29c8cb3678b425f18875b]
link User to WATPoint--><path codeLine="84" d="M1170.39,338.696 C1057.8,356.144 709.361,416.497 644.5,504 C634.39,517.639 635.756,537.01 639.317,552.298 " fill="none" id="User-to-WATPoint" style="stroke:#A80036;stroke-width:1.0;"/><polygon fill="#A80036" points="640.595,557.312,642.247,547.6027,639.3595,552.4671,634.4951,549.5795,640.595,557.312" style="stroke:#A80036;stroke-width:1.0;"/><text fill="#000000" font-family="sans-serif" font-size="13" lengthAdjust="spacing" textLength="50" x="645.5" y="517.0669">redeem</text><!--MD5=[61ee93df81f29c8cb3678b425f18875b]
link User to WATPoint--><path codeLine="85" d="M1170.43,346.399 C1097.71,373.441 925.578,438.962 785.5,504 C749.881,520.538 710.304,541.621 682.7,556.783 " fill="none" id="User-to-WATPoint-1" style="stroke:#A80036;stroke-width:1.0;"/><polygon fill="#A80036" points="678.032,559.353,687.8453,558.5164,682.4121,556.9415,683.9869,551.5083,678.032,559.353" style="stroke:#A80036;stroke-width:1.0;"/><text fill="#000000" font-family="sans-serif" font-size="13" lengthAdjust="spacing" textLength="23" x="786.5" y="517.0669">use</text><!--MD5=[61ee93df81f29c8cb3678b425f18875b]
link User to WATPoint--><path codeLine="101" d="M1170.49,337.84 C1052.06,353.306 669.818,409.89 598.5,504 C586.235,520.185 600.138,539.235 616.226,553.745 " fill="none" id="User-to-WATPoint-2" style="stroke:#A80036;stroke-width:1.0;"/><polygon fill="#A80036" points="620.348,557.331,616.1841,548.4056,616.576,554.0489,610.9328,554.4408,620.348,557.331" style="stroke:#A80036;stroke-width:1.0;"/><text fill="#000000" font-family="sans-serif" font-size="13" lengthAdjust="spacing" textLength="30" x="599.5" y="517.0669">view</text><!--MD5=[46ff99e5a5e97aff4ffa3fd5adbe36ab]
link Maintainer to Product--><path codeLine="86" d="M2136.7,88.819 C2159.34,102.495 2184.61,121.209 2201.5,144 C2238.9,194.456 2254.02,268.901 2259.59,307.03 " fill="none" id="Maintainer-to-Product" style="stroke:#A80036;stroke-width:1.0;"/><polygon fill="#A80036" points="2260.35,312.385,2263.0539,302.9146,2259.6517,307.434,2255.1323,304.0318,2260.35,312.385" style="stroke:#A80036;stroke-width:1.0;"/><text fill="#000000" font-family="sans-serif" font-size="13" lengthAdjust="spacing" textLength="24" x="2210.5" y="157.0669">add</text><!--MD5=[536384a6f716a0154588e079284d191d]
link Maintainer to Comment--><path codeLine="87" d="M2136.84,75.27 C2191.05,91.404 2273.06,125.702 2305.5,191 C2366.8,314.396 2319.9,488.408 2299.1,552.006 " fill="none" id="Maintainer-to-Comment" style="stroke:#A80036;stroke-width:1.0;"/><polygon fill="#A80036" points="2297.42,557.105,2304.0496,549.8216,2298.9938,552.3592,2296.4563,547.3034,2297.42,557.105" style="stroke:#A80036;stroke-width:1.0;"/><text fill="#000000" font-family="sans-serif" font-size="13" lengthAdjust="spacing" textLength="53" x="2336.5" y="337.0669">manage</text><!--MD5=[427a7b8a8d0a6ace38972764c6712a0b]
link User to Gift--><path codeLine="88" d="M1240.73,377.857 C1274.84,418.739 1329.61,479.227 1386.5,521 C1410.53,538.645 1421.5,534.761 1446.5,551 C1451.24,554.08 1456.09,557.771 1460.51,561.374 " fill="none" id="User-to-Gift" style="stroke:#A80036;stroke-width:1.0;"/><polygon fill="#A80036" points="1464.42,564.639,1460.0667,555.8045,1460.5789,561.4381,1454.9453,561.9502,1464.42,564.639" style="stroke:#A80036;stroke-width:1.0;"/><text fill="#000000" font-family="sans-serif" font-size="13" lengthAdjust="spacing" textLength="50" x="1387.5" y="517.0669">redeem</text><!--MD5=[e197af9641e783e6a87abdac0b55dc1a]
link User to Thread--><path codeLine="89" d="M1170.46,333.368 C1054.5,334.451 675.962,350.254 418.5,504 C398.484,515.953 381.734,536.681 370.711,552.92 " fill="none" id="User-to-Thread" style="stroke:#A80036;stroke-width:1.0;"/><polygon fill="#A80036" points="367.756,557.371,376.0677,552.0875,370.5226,553.2061,369.4039,547.661,367.756,557.371" style="stroke:#A80036;stroke-width:1.0;"/><text fill="#000000" font-family="sans-serif" font-size="13" lengthAdjust="spacing" textLength="40" x="419.5" y="517.0669">delete</text><!--MD5=[e197af9641e783e6a87abdac0b55dc1a]
link User to Thread--><path codeLine="99" d="M1170.24,341.491 C1071.91,364.04 786.679,431.268 554.5,504 C493.654,523.061 423.946,549.746 385.602,564.857 " fill="none" id="User-to-Thread-1" style="stroke:#A80036;stroke-width:1.0;"/><polygon fill="#A80036" points="380.631,566.821,390.4711,567.2352,385.2814,564.9843,387.5324,559.7945,380.631,566.821" style="stroke:#A80036;stroke-width:1.0;"/><text fill="#000000" font-family="sans-serif" font-size="13" lengthAdjust="spacing" textLength="30" x="555.5" y="517.0669">start</text><!--MD5=[e197af9641e783e6a87abdac0b55dc1a]
link User to Thread--><path codeLine="103" d="M1170.36,334.821 C1022.84,341.168 456.307,373.82 349.5,504 C338.619,517.263 341.236,536.829 346.101,552.293 " fill="none" id="User-to-Thread-2" style="stroke:#A80036;stroke-width:1.0;"/><polygon fill="#A80036" points="347.821,557.365,348.7183,547.5571,346.215,552.6299,341.1422,550.1267,347.821,557.365" style="stroke:#A80036;stroke-width:1.0;"/><text fill="#000000" font-family="sans-serif" font-size="13" lengthAdjust="spacing" textLength="39" x="350.5" y="517.0669">report</text><!--MD5=[3b3a110f6aeec0a0bf442c01daca6c1c]
link User to Profile--><path codeLine="90" d="M1240.76,344.62 C1303.51,366.033 1435.41,418.573 1514.5,504 C1527.16,517.676 1535.64,537.045 1540.83,552.323 " fill="none" id="User-to-Profile" style="stroke:#A80036;stroke-width:1.0;"/><polygon fill="#A80036" points="1542.46,557.333,1543.4637,547.5354,1540.9055,552.5808,1535.8601,550.0226,1542.46,557.333" style="stroke:#A80036;stroke-width:1.0;"/><text fill="#000000" font-family="sans-serif" font-size="13" lengthAdjust="spacing" textLength="45" x="1527.5" y="517.0669">update</text><!--MD5=[3b3a110f6aeec0a0bf442c01daca6c1c]
link User to Profile--><path codeLine="93" d="M1240.81,358.59 C1309.81,407.616 1461.07,515.09 1521.66,558.137 " fill="none" id="User-to-Profile-1" style="stroke:#A80036;stroke-width:1.0;"/><polygon fill="#A80036" points="1525.86,561.124,1520.8459,552.6471,1521.786,558.2252,1516.2079,559.1654,1525.86,561.124" style="stroke:#A80036;stroke-width:1.0;"/><text fill="#000000" font-family="sans-serif" font-size="13" lengthAdjust="spacing" textLength="30" x="1466.5" y="517.0669">view</text><!--MD5=[00013583ff5de2cfdeaafb0ac2d35ee9]
link Maintainer to Event--><path codeLine="91" d="M2049.14,114.139 C2043.55,123.725 2038.36,133.912 2034.5,144 C2013.07,199.999 2005.94,270.884 2003.61,307.369 " fill="none" id="Maintainer-to-Event" style="stroke:#A80036;stroke-width:1.0;"/><polygon fill="#A80036" points="2003.3,312.496,2007.8343,303.753,2003.6009,307.5051,1999.8488,303.2716,2003.3,312.496" style="stroke:#A80036;stroke-width:1.0;"/><text fill="#000000" font-family="sans-serif" font-size="13" lengthAdjust="spacing" textLength="41" x="2035.5" y="157.0669">create</text><!--MD5=[e4773dd10a40f4bea1ef171b82a8bbf2]
link User to NewsFeed--><path codeLine="92" d="M1170.49,443.979 C1157.61,484.647 1144.19,526.976 1136.09,552.539 " fill="none" id="User-to-NewsFeed" style="stroke:#A80036;stroke-width:1.0;"/><polygon fill="#A80036" points="1134.55,557.422,1141.0854,550.0539,1136.0627,552.6563,1133.4603,547.6336,1134.55,557.422" style="stroke:#A80036;stroke-width:1.0;"/><text fill="#000000" font-family="sans-serif" font-size="13" lengthAdjust="spacing" textLength="21" x="1152.5" y="517.0669">get</text><!--MD5=[c8c314011fafa3762ec5b219138322f9]
link User to Answer--><path codeLine="94" d="M1170.44,343.613 C1105.59,363.943 965.922,415.545 882.5,504 C869.713,517.559 861.244,536.934 856.09,552.244 " fill="none" id="User-to-Answer" style="stroke:#A80036;stroke-width:1.0;"/><polygon fill="#A80036" points="854.468,557.266,861.0408,549.9313,856.0049,552.5081,853.4281,547.4722,854.468,557.266" style="stroke:#A80036;stroke-width:1.0;"/><text fill="#000000" font-family="sans-serif" font-size="13" lengthAdjust="spacing" textLength="21" x="883.5" y="517.0669">like</text><!--MD5=[c8c314011fafa3762ec5b219138322f9]
link User to Answer--><path codeLine="107" d="M1170.39,357.465 C1100.53,405.151 945.199,511.177 879.631,555.933 " fill="none" id="User-to-Answer-1" style="stroke:#A80036;stroke-width:1.0;"/><polygon fill="#A80036" points="875.444,558.791,885.1326,557.0216,879.5739,555.9725,880.623,550.4138,875.444,558.791" style="stroke:#A80036;stroke-width:1.0;"/><text fill="#000000" font-family="sans-serif" font-size="13" lengthAdjust="spacing" textLength="23" x="956.5" y="517.0669">see</text><!--MD5=[c8c314011fafa3762ec5b219138322f9]
link User to Answer--><path codeLine="115" d="M1170.21,336.845 C1091.42,346.436 901.884,381.766 822.5,504 C812.754,519.006 820.463,538.027 830.1,552.821 " fill="none" id="User-to-Answer-2" style="stroke:#A80036;stroke-width:1.0;"/><polygon fill="#A80036" points="833.135,557.268,831.3618,547.5801,830.3149,553.1392,824.7557,552.0923,833.135,557.268" style="stroke:#A80036;stroke-width:1.0;"/><text fill="#000000" font-family="sans-serif" font-size="13" lengthAdjust="spacing" textLength="39" x="823.5" y="517.0669">dislike</text><!--MD5=[b5e9f595a827ebd329737bf51730f76a]
link User to Progress--><path codeLine="95" d="M1240.63,342.833 C1311.24,362.919 1472.91,415.716 1581.5,504 C1598.05,517.46 1612.06,537.246 1621.5,552.749 " fill="none" id="User-to-Progress" style="stroke:#A80036;stroke-width:1.0;"/><polygon fill="#A80036" points="1624.28,557.411,1623.0939,547.6338,1621.7138,553.1198,1616.2279,551.7397,1624.28,557.411" style="stroke:#A80036;stroke-width:1.0;"/><text fill="#000000" font-family="sans-serif" font-size="13" lengthAdjust="spacing" textLength="32" x="1598.5" y="517.0669">track</text><!--MD5=[c66da731458a4b05020f0c2fa6c4207b]
link User to Lifetime--><path codeLine="96" d="M1170.33,365.268 C1115.2,415.07 1009.76,510.317 961.608,553.819 " fill="none" id="User-to-Lifetime" style="stroke:#A80036;stroke-width:1.0;"/><polygon fill="#A80036" points="957.685,557.362,967.0442,554.2952,961.3946,554.0095,961.6803,548.3599,957.685,557.362" style="stroke:#A80036;stroke-width:1.0;"/><text fill="#000000" font-family="sans-serif" font-size="13" lengthAdjust="spacing" textLength="30" x="1017.5" y="517.0669">view</text><!--MD5=[b09034628046fdb1d4ec8849813fff87]
link Administrator to Thread--><path codeLine="97" d="M71.2639,359.029 C78.7353,400.04 99.4652,480.129 151.5,521 C209.428,566.5 245.661,524.787 314.5,551 C318.949,552.694 323.455,554.862 327.781,557.216 " fill="none" id="Administrator-to-Thread" style="stroke:#A80036;stroke-width:1.0;"/><polygon fill="#A80036" points="332.393,559.83,326.5358,551.9121,328.0432,557.3644,322.5909,558.8718,332.393,559.83" style="stroke:#A80036;stroke-width:1.0;"/><text fill="#000000" font-family="sans-serif" font-size="13" lengthAdjust="spacing" textLength="19" x="152.5" y="517.0669">pin</text><!--MD5=[a7c43d80471c30bc29d5b7d0e67b37f8]
link User to GiftCard--><path codeLine="98" d="M1240.5,339.995 C1346.42,360.008 1672.39,424.225 1935.5,504 C1993.2,521.493 2058.52,547.353 2096.46,562.996 " fill="none" id="User-to-GiftCard" style="stroke:#A80036;stroke-width:1.0;"/><polygon fill="#A80036" points="2101.4,565.04,2094.6166,557.8996,2096.7808,563.1261,2091.5543,565.2902,2101.4,565.04" style="stroke:#A80036;stroke-width:1.0;"/><text fill="#000000" font-family="sans-serif" font-size="13" lengthAdjust="spacing" textLength="47" x="1985.5" y="517.0669">receive</text><!--MD5=[89a729879333f4a514a72f7623177c63]
link User to Question--><path codeLine="100" d="M1170.32,381.8 C1132.58,433.615 1074.21,513.747 1045.55,553.087 " fill="none" id="User-to-Question" style="stroke:#A80036;stroke-width:1.0;"/><polygon fill="#A80036" points="1042.54,557.221,1051.0717,552.3006,1045.4835,553.1792,1044.6049,547.591,1042.54,557.221" style="stroke:#A80036;stroke-width:1.0;"/><text fill="#000000" font-family="sans-serif" font-size="13" lengthAdjust="spacing" textLength="47" x="1082.5" y="517.0669">answer</text><!--MD5=[3ce573af109d62397667c5235c20ebbd]
link Maintainer to Detail--><path codeLine="102" d="M2085.5,114.135 C2085.5,172.034 2085.5,263.938 2085.5,307.318 " fill="none" id="Maintainer-to-Detail" style="stroke:#A80036;stroke-width:1.0;"/><polygon fill="#A80036" points="2085.5,312.362,2089.5,303.362,2085.5,307.362,2081.5,303.362,2085.5,312.362" style="stroke:#A80036;stroke-width:1.0;"/><text fill="#000000" font-family="sans-serif" font-size="13" lengthAdjust="spacing" textLength="24" x="2086.5" y="157.0669">edit</text><!--MD5=[9236a67e5c669e56a2d5f735cf895a33]
link User to Forum--><path codeLine="104" d="M1240.61,342.746 C1316.99,363.811 1502.44,420.123 1639.5,504 C1662.06,517.807 1684.33,538.035 1699.96,553.619 " fill="none" id="User-to-Forum" style="stroke:#A80036;stroke-width:1.0;"/><polygon fill="#A80036" points="1703.78,557.474,1700.2705,548.2716,1700.2545,553.9285,1694.5977,553.9125,1703.78,557.474" style="stroke:#A80036;stroke-width:1.0;"/><text fill="#000000" font-family="sans-serif" font-size="13" lengthAdjust="spacing" textLength="43" x="1663.5" y="517.0669">search</text><!--MD5=[2dd21c5e4d24a00e804d12dd0c7b0d9f]
link User to Comment--><path codeLine="105" d="M1240.77,339.621 C1356.33,359.904 1733.77,427.955 2041.5,504 C2117.78,522.849 2205.77,549.689 2254.06,564.867 " fill="none" id="User-to-Comment" style="stroke:#A80036;stroke-width:1.0;"/><polygon fill="#A80036" points="2258.89,566.389,2251.505,559.8727,2254.1204,564.8887,2249.1045,567.5041,2258.89,566.389" style="stroke:#A80036;stroke-width:1.0;"/><text fill="#000000" font-family="sans-serif" font-size="13" lengthAdjust="spacing" textLength="33" x="2104.5" y="517.0669">mark</text><!--MD5=[77c575690b0287b9077f2f97ff7c450d]
link User to Post--><path codeLine="106" d="M1240.72,339.962 C1326.65,356.82 1552.03,407.653 1715.5,504 C1738.42,517.506 1760.36,538.522 1775.28,554.457 " fill="none" id="User-to-Post" style="stroke:#A80036;stroke-width:1.0;"/><polygon fill="#A80036" points="1778.92,558.391,1775.7475,549.0671,1775.5258,554.7196,1769.8732,554.4979,1778.92,558.391" style="stroke:#A80036;stroke-width:1.0;"/><text fill="#000000" font-family="sans-serif" font-size="13" lengthAdjust="spacing" textLength="40" x="1740.5" y="517.0669">delete</text><!--MD5=[9e2dd57e81962c78c30ff8d0f5852cdd]
link User to Leaderboard--><path codeLine="108" d="M1225.76,474.15 C1230.1,504.275 1234.2,532.788 1236.98,552.03 " fill="none" id="User-to-Leaderboard" style="stroke:#A80036;stroke-width:1.0;"/><polygon fill="#A80036" points="1237.72,557.205,1240.3944,547.7262,1237.0063,552.2562,1232.4763,548.8681,1237.72,557.205" style="stroke:#A80036;stroke-width:1.0;"/><text fill="#000000" font-family="sans-serif" font-size="13" lengthAdjust="spacing" textLength="30" x="1233.5" y="517.0669">view</text><!--MD5=[9d661380b54d9bff4ee137bc0bb1b8a2]
link User to Information--><path codeLine="109" d="M1240.81,338.955 C1334.53,354.431 1595.61,404.109 1789.5,504 C1815.05,517.161 1840.42,537.884 1858.03,553.809 " fill="none" id="User-to-Information" style="stroke:#A80036;stroke-width:1.0;"/><polygon fill="#A80036" points="1861.89,557.335,1857.942,548.3121,1858.1981,553.9631,1852.547,554.2191,1861.89,557.335" style="stroke:#A80036;stroke-width:1.0;"/><text fill="#000000" font-family="sans-serif" font-size="13" lengthAdjust="spacing" textLength="23" x="1818.5" y="517.0669">see</text><!--MD5=[36463e808045720f555a3b73eeb9eda4]
link User to PointBalance--><path codeLine="110" d="M1170.48,335.856 C1020.59,346.55 434.322,394.81 291.5,504 C276.004,515.847 267.001,536.325 262.018,552.501 " fill="none" id="User-to-PointBalance" style="stroke:#A80036;stroke-width:1.0;"/><polygon fill="#A80036" points="260.598,557.369,266.958,549.849,261.998,552.569,259.278,547.609,260.598,557.369" style="stroke:#A80036;stroke-width:1.0;"/><text fill="#000000" font-family="sans-serif" font-size="13" lengthAdjust="spacing" textLength="42" x="292.5" y="517.0669">usable</text><!--MD5=[658927cb44a983a3932a63580c32fed4]
link Maintainer to User--><path codeLine="111" d="M2034.38,78.596 C1875.05,127.21 1389.53,275.351 1245.92,319.168 " fill="none" id="Maintainer-to-User" style="stroke:#A80036;stroke-width:1.0;"/><polygon fill="#A80036" points="1240.96,320.682,1250.7351,321.8855,1245.743,319.2248,1248.4036,314.2327,1240.96,320.682" style="stroke:#A80036;stroke-width:1.0;"/><text fill="#000000" font-family="sans-serif" font-size="13" lengthAdjust="spacing" textLength="39" x="1802.5" y="157.0669">entice</text><!--MD5=[5df4ec8c0b136f9676aae9609ee39699]
link User to Credibility--><path codeLine="112" d="M1240.66,339.817 C1339.23,358.152 1625.71,415.749 1850.5,504 C1886.05,517.957 1924.24,538.89 1951.07,554.68 " fill="none" id="User-to-Credibility" style="stroke:#A80036;stroke-width:1.0;"/><polygon fill="#A80036" points="1955.61,557.367,1949.8969,549.3445,1951.3055,554.8232,1945.8268,556.2317,1955.61,557.367" style="stroke:#A80036;stroke-width:1.0;"/><text fill="#000000" font-family="sans-serif" font-size="13" lengthAdjust="spacing" textLength="40" x="1886.5" y="517.0669">gauge</text><!--MD5=[8669c182151f40b3796ec17f4052cacd]
link Maintainer to GiftCard--><path codeLine="113" d="M2109.82,114.014 C2113.64,123.783 2117.11,134.065 2119.5,144 C2157.04,299.997 2140.5,343.663 2146.5,504 C2146.78,511.55 2147.68,513.537 2146.5,521 C2145.19,529.286 2142.84,538.018 2140.27,546.042 " fill="none" id="Maintainer-to-GiftCard" style="stroke:#A80036;stroke-width:1.0;"/><polygon fill="#A80036" points="2138.64,550.936,2145.2735,543.6562,2140.2164,546.191,2137.6816,541.1339,2138.64,550.936" style="stroke:#A80036;stroke-width:1.0;"/><text fill="#000000" font-family="sans-serif" font-size="13" lengthAdjust="spacing" textLength="24" x="2146.5" y="337.0669">add</text><!--MD5=[ab630e7d20c7792532cfbdfbcc2f6e6b]
link Maintainer to Thread--><path codeLine="114" d="M2034.34,65.431 C1886.88,73.332 1449.02,103.064 1097.5,191 C715.845,286.474 493.16,180.346 269.5,504 C265.205,510.216 265.868,514.375 269.5,521 C271.182,524.069 303.231,544.073 327.944,559.192 " fill="none" id="Maintainer-to-Thread" style="stroke:#A80036;stroke-width:1.0;"/><polygon fill="#A80036" points="332.465,561.953,326.8705,553.8474,328.1983,559.3462,322.6995,560.674,332.465,561.953" style="stroke:#A80036;stroke-width:1.0;"/><text fill="#000000" font-family="sans-serif" font-size="13" lengthAdjust="spacing" textLength="53" x="1098.5" y="337.0669">manage</text><!--MD5=[448270d1fe7e1892a27099bb067427d9]
link GiftCard to Point--><path codeLine="116" d="M2128.5,604.267 C2128.5,625.3301 2128.5,654.9042 2128.5,675.5902 " fill="none" id="GiftCard-to-Point" style="stroke:#A80036;stroke-width:1.0;"/><polygon fill="#A80036" points="2128.5,680.6472,2132.5,671.6472,2128.5,675.6472,2124.5,671.6472,2128.5,680.6472" style="stroke:#A80036;stroke-width:1.0;"/><text fill="#000000" font-family="sans-serif" font-size="13" lengthAdjust="spacing" textLength="34" x="2129.5" y="647.0669">using</text><!--MD5=[ba41ab4b1bac97c809721ea10f7dbf6e]
link User to OrderingCriterion--><path codeLine="117" d="M1240.5,414.334 C1257.64,449.079 1280.25,488.971 1306.5,521 C1316.56,533.28 1329.66,544.833 1341.6,554.185 " fill="none" id="User-to-OrderingCriterion" style="stroke:#A80036;stroke-width:1.0;"/><polygon fill="#A80036" points="1345.6,557.271,1340.9218,548.6041,1341.6427,554.2149,1336.032,554.9358,1345.6,557.271" style="stroke:#A80036;stroke-width:1.0;"/><text fill="#000000" font-family="sans-serif" font-size="13" lengthAdjust="spacing" textLength="38" x="1307.5" y="517.0669">select</text><!--MD5=[96d443dc0b3bc62d5147a0211ffed7b9]
@startuml
hide circle
class User<actor> {
}
class Administrator<actor> {
}
class Maintainer<actor> {
}
class User {
	like()
	select()
	get()
	redeem()
	receive()
	gauge()
	delete()
	usable()
	see()
	use()
	report()
	update()
	answer()
	track()
	dislike()
	search()
	start()
	view()
	mark()
}
class PointBalance {
}
class Maintainer {
	add()
	edit()
	create()
	manage()
	entice()
}
class Thread {
}
class WATPoint {
}
class Event {
}
class Answer {
}
class Lifetime {
}
class Detail {
}
class GiftCard {
	using()
}
class Question {
}
class Product {
}
class NewsFeed {
}
class Comment {
}
class Leaderboard {
}
class OrderingCriterion {
}
class Gift {
}
class Profile {
}
class Progress {
}
class Administrator {
	pin()
}
class Forum {
}
class Post {
}
class Information {
}
class Credibility {
}
class Point {
}
User - -> WATPoint : redeem
User - -> WATPoint : use
Maintainer - -> Product : add
Maintainer - -> Comment : manage
User - -> Gift : redeem
User - -> Thread : delete
User - -> Profile : update
Maintainer - -> Event : create
User - -> NewsFeed : get
User - -> Profile : view
User - -> Answer : like
User - -> Progress : track
User - -> Lifetime : view
Administrator - -> Thread : pin
User - -> GiftCard : receive
User - -> Thread : start
User - -> Question : answer
User - -> WATPoint : view
Maintainer - -> Detail : edit
User - -> Thread : report
User - -> Forum : search
User - -> Comment : mark
User - -> Post : delete
User - -> Answer : see
User - -> Leaderboard : view
User - -> Information : see
User - -> PointBalance : usable
Maintainer - -> User : entice
User - -> Credibility : gauge
Maintainer - -> GiftCard : add
Maintainer - -> Thread : manage
User - -> Answer : dislike
GiftCard - -> Point : using
User - -> OrderingCriterion : select
@enduml

PlantUML version 1.2021.6beta6(Unknown compile time)
(GPL source distribution)
Java Runtime: Java(TM) SE Runtime Environment
JVM: Java HotSpot(TM) 64-Bit Server VM
Default Encoding: UTF-8
Language: en
Country: US
--></g></svg>