<?xml version="1.0" encoding="UTF-8" standalone="no"?><svg xmlns="http://www.w3.org/2000/svg" xmlns:xlink="http://www.w3.org/1999/xlink" contentScriptType="application/ecmascript" contentStyleType="text/css" height="361px" preserveAspectRatio="none" style="width:1171px;height:361px;background:#FFFFFF;" version="1.1" viewBox="0 0 1171 361" width="1171px" zoomAndPan="magnify"><defs><filter height="300%" id="f1say5rcd538q1" width="300%" x="-1" y="-1"><feGaussianBlur result="blurOut" stdDeviation="2.0"/><feColorMatrix in="blurOut" result="blurOut2" type="matrix" values="0 0 0 0 0 0 0 0 0 0 0 0 0 0 0 0 0 0 .4 0"/><feOffset dx="4.0" dy="4.0" in="blurOut2" result="blurOut3"/><feBlend in="SourceGraphic" in2="blurOut3" mode="normal"/></filter></defs><g><!--MD5=[85a5c2340e3a05c0f9f192e3f7c61eab]
class ESS--><rect codeLine="4" fill="#FEFECE" filter="url(#f1say5rcd538q1)" height="91.1875" id="ESS" style="stroke:#A80036;stroke-width:1.5;" width="64" x="508.5" y="10"/><text fill="#000000" font-family="sans-serif" font-size="12" lengthAdjust="spacing" textLength="23" x="511.5" y="26.1387">ESS</text><rect fill="#FFFFFF" height="15.9688" style="stroke:#000000;stroke-width:1.0;stroke-dasharray:2.0,2.0;" width="33" x="542.5" y="7"/><text fill="#000000" font-family="sans-serif" font-size="12" font-style="italic" lengthAdjust="spacing" textLength="31" x="543.5" y="19.1387">actor</text><line style="stroke:#A80036;stroke-width:1.5;" x1="509.5" x2="571.5" y1="33.9688" y2="33.9688"/><line style="stroke:#A80036;stroke-width:1.5;" x1="509.5" x2="571.5" y1="41.9688" y2="41.9688"/><text fill="#000000" font-family="sans-serif" font-size="11" lengthAdjust="spacing" textLength="33" x="514.5" y="56.1792">drag()</text><text fill="#000000" font-family="sans-serif" font-size="11" lengthAdjust="spacing" textLength="45" x="514.5" y="68.9839">create()</text><text fill="#000000" font-family="sans-serif" font-size="11" lengthAdjust="spacing" textLength="29" x="514.5" y="81.7886">use()</text><text fill="#000000" font-family="sans-serif" font-size="11" lengthAdjust="spacing" textLength="30" x="514.5" y="94.5933">turn()</text><!--MD5=[4899ead58b536ff968fbcbdca857d192]
class Function--><rect codeLine="10" fill="#FEFECE" filter="url(#f1say5rcd538q1)" height="39.9688" id="Function" style="stroke:#A80036;stroke-width:1.5;" width="56" x="73.5" y="184.5"/><text fill="#000000" font-family="sans-serif" font-size="12" lengthAdjust="spacing" textLength="50" x="76.5" y="200.6387">Function</text><line style="stroke:#A80036;stroke-width:1.5;" x1="74.5" x2="128.5" y1="208.4688" y2="208.4688"/><line style="stroke:#A80036;stroke-width:1.5;" x1="74.5" x2="128.5" y1="216.4688" y2="216.4688"/><!--MD5=[658d8e3a17e09357d1cfd9795e16e924]
class odule--><rect codeLine="12" fill="#FEFECE" filter="url(#f1say5rcd538q1)" height="52.7734" id="odule" style="stroke:#A80036;stroke-width:1.5;" width="57" x="165" y="178"/><text fill="#000000" font-family="sans-serif" font-size="12" lengthAdjust="spacing" textLength="34" x="176.5" y="194.1387">odule</text><line style="stroke:#A80036;stroke-width:1.5;" x1="166" x2="221" y1="201.9688" y2="201.9688"/><line style="stroke:#A80036;stroke-width:1.5;" x1="166" x2="221" y1="209.9688" y2="209.9688"/><text fill="#000000" font-family="sans-serif" font-size="11" lengthAdjust="spacing" textLength="45" x="171" y="224.1792">detect()</text><!--MD5=[2e2f8c8f62c4eb3bc59a59727cfd81a5]
class Edge--><rect codeLine="15" fill="#FEFECE" filter="url(#f1say5rcd538q1)" height="39.9688" id="Edge" style="stroke:#A80036;stroke-width:1.5;" width="37" x="7" y="308"/><text fill="#000000" font-family="sans-serif" font-size="12" lengthAdjust="spacing" textLength="31" x="10" y="324.1387">Edge</text><line style="stroke:#A80036;stroke-width:1.5;" x1="8" x2="43" y1="331.9688" y2="331.9688"/><line style="stroke:#A80036;stroke-width:1.5;" x1="8" x2="43" y1="339.9688" y2="339.9688"/><!--MD5=[562c4b801d528848837ef3b38203ac7d]
class Song--><rect codeLine="17" fill="#FEFECE" filter="url(#f1say5rcd538q1)" height="39.9688" id="Song" style="stroke:#A80036;stroke-width:1.5;" width="37" x="257" y="184.5"/><text fill="#000000" font-family="sans-serif" font-size="12" lengthAdjust="spacing" textLength="31" x="260" y="200.6387">Song</text><line style="stroke:#A80036;stroke-width:1.5;" x1="258" x2="293" y1="208.4688" y2="208.4688"/><line style="stroke:#A80036;stroke-width:1.5;" x1="258" x2="293" y1="216.4688" y2="216.4688"/><!--MD5=[b47f00dd0504bda501cad5ceb6604e40]
class Sound--><rect codeLine="19" fill="#FEFECE" filter="url(#f1say5rcd538q1)" height="39.9688" id="Sound" style="stroke:#A80036;stroke-width:1.5;" width="44" x="329.5" y="184.5"/><text fill="#000000" font-family="sans-serif" font-size="12" lengthAdjust="spacing" textLength="38" x="332.5" y="200.6387">Sound</text><line style="stroke:#A80036;stroke-width:1.5;" x1="330.5" x2="372.5" y1="208.4688" y2="208.4688"/><line style="stroke:#A80036;stroke-width:1.5;" x1="330.5" x2="372.5" y1="216.4688" y2="216.4688"/><!--MD5=[2b7409a316d9d2e410653e6983353aed]
class Module--><rect codeLine="21" fill="#FEFECE" filter="url(#f1say5rcd538q1)" height="39.9688" id="Module" style="stroke:#A80036;stroke-width:1.5;" width="50" x="408.5" y="184.5"/><text fill="#000000" font-family="sans-serif" font-size="12" lengthAdjust="spacing" textLength="44" x="411.5" y="200.6387">Module</text><line style="stroke:#A80036;stroke-width:1.5;" x1="409.5" x2="457.5" y1="208.4688" y2="208.4688"/><line style="stroke:#A80036;stroke-width:1.5;" x1="409.5" x2="457.5" y1="216.4688" y2="216.4688"/><!--MD5=[9ad4922ae42a5a4285a4d08e1bf94ebc]
class LoopConstruct--><rect codeLine="23" fill="#FEFECE" filter="url(#f1say5rcd538q1)" height="39.9688" id="LoopConstruct" style="stroke:#A80036;stroke-width:1.5;" width="93" x="494" y="184.5"/><text fill="#000000" font-family="sans-serif" font-size="12" lengthAdjust="spacing" textLength="87" x="497" y="200.6387">LoopConstruct</text><line style="stroke:#A80036;stroke-width:1.5;" x1="495" x2="586" y1="208.4688" y2="208.4688"/><line style="stroke:#A80036;stroke-width:1.5;" x1="495" x2="586" y1="216.4688" y2="216.4688"/><!--MD5=[aaa2e902e619045a6f24d394d34237d2]
class Speed--><rect codeLine="25" fill="#FEFECE" filter="url(#f1say5rcd538q1)" height="39.9688" id="Speed" style="stroke:#A80036;stroke-width:1.5;" width="46" x="82.5" y="308"/><text fill="#000000" font-family="sans-serif" font-size="12" lengthAdjust="spacing" textLength="40" x="85.5" y="324.1387">Speed</text><line style="stroke:#A80036;stroke-width:1.5;" x1="83.5" x2="127.5" y1="331.9688" y2="331.9688"/><line style="stroke:#A80036;stroke-width:1.5;" x1="83.5" x2="127.5" y1="339.9688" y2="339.9688"/><!--MD5=[ee6d8d16e59ce15f2bf0d85e021055b7]
class LEDs--><rect codeLine="27" fill="#FEFECE" filter="url(#f1say5rcd538q1)" height="39.9688" id="LEDs" style="stroke:#A80036;stroke-width:1.5;" width="35" x="622" y="184.5"/><text fill="#000000" font-family="sans-serif" font-size="12" lengthAdjust="spacing" textLength="29" x="625" y="200.6387">LEDs</text><line style="stroke:#A80036;stroke-width:1.5;" x1="623" x2="656" y1="208.4688" y2="208.4688"/><line style="stroke:#A80036;stroke-width:1.5;" x1="623" x2="656" y1="216.4688" y2="216.4688"/><!--MD5=[fe3834ec89abded0ba23e87c6f7e9c69]
class WaitCondition--><rect codeLine="29" fill="#FEFECE" filter="url(#f1say5rcd538q1)" height="39.9688" id="WaitCondition" style="stroke:#A80036;stroke-width:1.5;" width="88" x="692.5" y="184.5"/><text fill="#000000" font-family="sans-serif" font-size="12" lengthAdjust="spacing" textLength="82" x="695.5" y="200.6387">WaitCondition</text><line style="stroke:#A80036;stroke-width:1.5;" x1="693.5" x2="779.5" y1="208.4688" y2="208.4688"/><line style="stroke:#A80036;stroke-width:1.5;" x1="693.5" x2="779.5" y1="216.4688" y2="216.4688"/><!--MD5=[02f7077ed79257124e28b791f351f1d7]
class Direction--><rect codeLine="31" fill="#FEFECE" filter="url(#f1say5rcd538q1)" height="39.9688" id="Direction" style="stroke:#A80036;stroke-width:1.5;" width="60" x="163.5" y="308"/><text fill="#000000" font-family="sans-serif" font-size="12" lengthAdjust="spacing" textLength="54" x="166.5" y="324.1387">Direction</text><line style="stroke:#A80036;stroke-width:1.5;" x1="164.5" x2="222.5" y1="331.9688" y2="331.9688"/><line style="stroke:#A80036;stroke-width:1.5;" x1="164.5" x2="222.5" y1="339.9688" y2="339.9688"/><!--MD5=[59d85f4c836807ff313f7d7e5b03396a]
class InstructionConstruct--><rect codeLine="33" fill="#FEFECE" filter="url(#f1say5rcd538q1)" height="39.9688" id="InstructionConstruct" style="stroke:#A80036;stroke-width:1.5;" width="125" x="816" y="184.5"/><text fill="#000000" font-family="sans-serif" font-size="12" lengthAdjust="spacing" textLength="119" x="819" y="200.6387">InstructionConstruct</text><line style="stroke:#A80036;stroke-width:1.5;" x1="817" x2="940" y1="208.4688" y2="208.4688"/><line style="stroke:#A80036;stroke-width:1.5;" x1="817" x2="940" y1="216.4688" y2="216.4688"/><!--MD5=[818ce9cd1eb68477d70117a0a20ac581]
class Instruction--><rect codeLine="35" fill="#FEFECE" filter="url(#f1say5rcd538q1)" height="39.9688" id="Instruction" style="stroke:#A80036;stroke-width:1.5;" width="68" x="976.5" y="184.5"/><text fill="#000000" font-family="sans-serif" font-size="12" lengthAdjust="spacing" textLength="62" x="979.5" y="200.6387">Instruction</text><line style="stroke:#A80036;stroke-width:1.5;" x1="977.5" x2="1043.5" y1="208.4688" y2="208.4688"/><line style="stroke:#A80036;stroke-width:1.5;" x1="977.5" x2="1043.5" y1="216.4688" y2="216.4688"/><!--MD5=[f2eb7d5497efdc0fbc0e36060879ff38]
class ProgramFile--><rect codeLine="37" fill="#FEFECE" filter="url(#f1say5rcd538q1)" height="39.9688" id="ProgramFile" style="stroke:#A80036;stroke-width:1.5;" width="77" x="1080" y="184.5"/><text fill="#000000" font-family="sans-serif" font-size="12" lengthAdjust="spacing" textLength="71" x="1083" y="200.6387">ProgramFile</text><line style="stroke:#A80036;stroke-width:1.5;" x1="1081" x2="1156" y1="208.4688" y2="208.4688"/><line style="stroke:#A80036;stroke-width:1.5;" x1="1081" x2="1156" y1="216.4688" y2="216.4688"/><!--MD5=[ad2f17586aba3aae61eddb658c4c3ac2]
class ElapsedTime--><rect codeLine="39" fill="#FEFECE" filter="url(#f1say5rcd538q1)" height="39.9688" id="ElapsedTime" style="stroke:#A80036;stroke-width:1.5;" width="83" x="259" y="308"/><text fill="#000000" font-family="sans-serif" font-size="12" lengthAdjust="spacing" textLength="77" x="262" y="324.1387">ElapsedTime</text><line style="stroke:#A80036;stroke-width:1.5;" x1="260" x2="341" y1="331.9688" y2="331.9688"/><line style="stroke:#A80036;stroke-width:1.5;" x1="260" x2="341" y1="339.9688" y2="339.9688"/><!--MD5=[134fcdfebcde527fec53302009b24d6f]
class Cliff--><rect codeLine="41" fill="#FEFECE" filter="url(#f1say5rcd538q1)" height="39.9688" id="Cliff" style="stroke:#A80036;stroke-width:1.5;" width="28" x="377.5" y="308"/><text fill="#000000" font-family="sans-serif" font-size="12" lengthAdjust="spacing" textLength="22" x="380.5" y="324.1387">Cliff</text><line style="stroke:#A80036;stroke-width:1.5;" x1="378.5" x2="404.5" y1="331.9688" y2="331.9688"/><line style="stroke:#A80036;stroke-width:1.5;" x1="378.5" x2="404.5" y1="339.9688" y2="339.9688"/><!--MD5=[c1d67066dd56248896cb803de97256e9]
link ESS to Sound--><path codeLine="43" d="M508.194,80.391 C488.748,94.876 463.563,113.819 441.5,131 C419.718,147.962 395.352,167.634 377.471,182.204 " fill="none" id="ESS-to-Sound" style="stroke:#A80036;stroke-width:1.0;"/><polygon fill="#A80036" points="373.529,185.418,383.0315,182.8292,377.4036,182.2577,377.9751,176.6298,373.529,185.418" style="stroke:#A80036;stroke-width:1.0;"/><text fill="#000000" font-family="sans-serif" font-size="13" lengthAdjust="spacing" textLength="23" x="442.5" y="144.0669">use</text><!--MD5=[1f8e91301f447a7d83b58fef3a545b75]
link odule to ElapsedTime--><path codeLine="44" d="M217.327,231.005 C225.968,240.365 235.752,251.0933 244.5,261 C256.94,275.0868 270.59,291.1615 281.299,303.9198 " fill="none" id="odule-to-ElapsedTime" style="stroke:#A80036;stroke-width:1.0;"/><polygon fill="#A80036" points="284.524,307.767,281.8076,298.3002,281.3119,303.9353,275.6768,303.4396,284.524,307.767" style="stroke:#A80036;stroke-width:1.0;"/><text fill="#000000" font-family="sans-serif" font-size="13" lengthAdjust="spacing" textLength="41" x="260.5" y="274.0669">detect</text><!--MD5=[7f0a479645a2472de6e6bf9c7a0d73f2]
link odule to Speed--><path codeLine="45" d="M167.537,231.239 C159.074,240.264 149.948,250.7216 142.5,261 C132.889,274.263 123.863,290.2633 117.132,303.1881 " fill="none" id="odule-to-Speed" style="stroke:#A80036;stroke-width:1.0;"/><polygon fill="#A80036" points="114.759,307.7999,122.4336,301.6273,117.0467,303.354,115.3201,297.967,114.759,307.7999" style="stroke:#A80036;stroke-width:1.0;"/><text fill="#000000" font-family="sans-serif" font-size="13" lengthAdjust="spacing" textLength="41" x="143.5" y="274.0669">detect</text><!--MD5=[d26ad42ad556b313ad6b9eba0e2d8113]
link ESS to Instruction--><path codeLine="46" d="M572.582,63.812 C643.465,80.402 818.255,123.701 958.5,178 C962.838,179.68 967.307,181.585 971.717,183.58 " fill="none" id="ESS-to-Instruction" style="stroke:#A80036;stroke-width:1.0;"/><polygon fill="#A80036" points="976.47,185.773,969.9731,178.3709,971.9298,183.6786,966.6221,185.6353,976.47,185.773" style="stroke:#A80036;stroke-width:1.0;"/><text fill="#000000" font-family="sans-serif" font-size="13" lengthAdjust="spacing" textLength="29" x="870.5" y="144.0669">drag</text><!--MD5=[ad6c8407126baacd4355abfa4a9b83d6]
link odule to Edge--><path codeLine="47" d="M164.822,221.44 C158.807,224.676 152.475,228.004 146.5,231 C118.057,245.261 106.8332,241.75 81.5,261 C65.7776,272.9472 51.441,290.0191 41.21,303.8068 " fill="none" id="odule-to-Edge" style="stroke:#A80036;stroke-width:1.0;"/><polygon fill="#A80036" points="38.1697,307.971,46.7072,303.0607,41.118,303.9327,40.246,298.3435,38.1697,307.971" style="stroke:#A80036;stroke-width:1.0;"/><text fill="#000000" font-family="sans-serif" font-size="13" lengthAdjust="spacing" textLength="41" x="82.5" y="274.0669">detect</text><!--MD5=[e5527f32e0db27dabbdea506bc32bf7e]
link odule to Direction--><path codeLine="48" d="M193.5,231.267 C193.5,252.3301 193.5,281.9042 193.5,302.5902 " fill="none" id="odule-to-Direction" style="stroke:#A80036;stroke-width:1.0;"/><polygon fill="#A80036" points="193.5,307.6472,197.5,298.6472,193.5,302.6472,189.5,298.6472,193.5,307.6472" style="stroke:#A80036;stroke-width:1.0;"/><text fill="#000000" font-family="sans-serif" font-size="13" lengthAdjust="spacing" textLength="41" x="194.5" y="274.0669">detect</text><!--MD5=[22d9c9949c2d0028394ec2245ae3fb6c]
link ESS to Function--><path codeLine="49" d="M508.319,62.352 C453.256,72.858 337.873,97.034 244.5,131 C205.021,145.361 162.389,167.988 134.043,184.143 " fill="none" id="ESS-to-Function" style="stroke:#A80036;stroke-width:1.0;"/><polygon fill="#A80036" points="129.62,186.678,139.4175,185.6732,133.958,184.1918,135.4395,178.7323,129.62,186.678" style="stroke:#A80036;stroke-width:1.0;"/><text fill="#000000" font-family="sans-serif" font-size="13" lengthAdjust="spacing" textLength="29" x="245.5" y="144.0669">drag</text><!--MD5=[842679ae1843b7a28eb800004c62e4a6]
link ESS to Module--><path codeLine="50" d="M508.396,100.605 C489.352,126.769 465.977,158.882 450.458,180.202 " fill="none" id="ESS-to-Module" style="stroke:#A80036;stroke-width:1.0;"/><polygon fill="#A80036" points="447.463,184.318,455.9936,179.3956,450.4056,180.2756,449.5256,174.6876,447.463,184.318" style="stroke:#A80036;stroke-width:1.0;"/><text fill="#000000" font-family="sans-serif" font-size="13" lengthAdjust="spacing" textLength="23" x="485.5" y="144.0669">use</text><!--MD5=[bf3ab4365ba4cac512e59dc3f920b608]
link odule to Cliff--><path codeLine="51" d="M222.455,222.162 C228.054,225.21 233.917,228.283 239.5,231 C270.302,245.992 281.148,243.336 310.5,261 C333.855,275.0549 357.7,295.3497 373.413,309.7166 " fill="none" id="odule-to-Cliff" style="stroke:#A80036;stroke-width:1.0;"/><polygon fill="#A80036" points="377.228,313.234,373.3238,304.192,373.5524,309.8443,367.9002,310.0729,377.228,313.234" style="stroke:#A80036;stroke-width:1.0;"/><text fill="#000000" font-family="sans-serif" font-size="13" lengthAdjust="spacing" textLength="41" x="335.5" y="274.0669">detect</text><!--MD5=[1ce1fb6dbad6952e39f48fce5b108445]
link ESS to LEDs--><path codeLine="52" d="M570.472,101.004 C588.005,127.038 609.432,158.853 623.717,180.065 " fill="none" id="ESS-to-LEDs" style="stroke:#A80036;stroke-width:1.0;"/><polygon fill="#A80036" points="626.653,184.425,624.9435,174.7256,623.8601,180.2778,618.308,179.1943,626.653,184.425" style="stroke:#A80036;stroke-width:1.0;"/><text fill="#000000" font-family="sans-serif" font-size="13" lengthAdjust="spacing" textLength="26" x="603.5" y="144.0669">turn</text><!--MD5=[01e32d6dee133f5706095a432e5b2964]
link ESS to ProgramFile--><path codeLine="53" d="M572.768,61.028 C655.838,73.318 883.044,110.961 1061.5,178 C1065.9,179.652 1070.44,181.475 1074.95,183.364 " fill="none" id="ESS-to-ProgramFile" style="stroke:#A80036;stroke-width:1.0;"/><polygon fill="#A80036" points="1079.82,185.435,1073.1028,178.2323,1075.2187,183.4785,1069.9724,185.5944,1079.82,185.435" style="stroke:#A80036;stroke-width:1.0;"/><text fill="#000000" font-family="sans-serif" font-size="13" lengthAdjust="spacing" textLength="41" x="966.5" y="144.0669">create</text><!--MD5=[32ca3db569852ac93cc7863f19bcec64]
link ESS to Song--><path codeLine="54" d="M508.277,68.132 C473.449,81.285 416.845,104.37 371.5,131 C344.878,146.634 316.993,168.386 298.179,183.978 " fill="none" id="ESS-to-Song" style="stroke:#A80036;stroke-width:1.0;"/><polygon fill="#A80036" points="294.07,187.405,303.5435,184.7121,297.9097,184.2024,298.4194,178.5685,294.07,187.405" style="stroke:#A80036;stroke-width:1.0;"/><text fill="#000000" font-family="sans-serif" font-size="13" lengthAdjust="spacing" textLength="41" x="372.5" y="144.0669">create</text><!--MD5=[111b595fa84adaebdf72d32df7ceb63a]
link ESS to odule--><path codeLine="55" d="M508.214,64.713 C463.577,76.608 380.994,100.575 314.5,131 C283.473,145.196 250.378,165.415 226.656,180.896 " fill="none" id="ESS-to-odule" style="stroke:#A80036;stroke-width:1.0;"/><polygon fill="#A80036" points="222.338,183.729,232.0571,182.1357,226.5184,180.9859,227.6682,175.4471,222.338,183.729" style="stroke:#A80036;stroke-width:1.0;"/><text fill="#000000" font-family="sans-serif" font-size="13" lengthAdjust="spacing" textLength="23" x="315.5" y="144.0669">use</text><!--MD5=[bcf00a8998e31ca398852a07a28fcacb]
link ESS to LoopConstruct--><path codeLine="56" d="M540.5,101.004 C540.5,126.711 540.5,158.055 540.5,179.261 " fill="none" id="ESS-to-LoopConstruct" style="stroke:#A80036;stroke-width:1.0;"/><polygon fill="#A80036" points="540.5,184.425,544.5,175.425,540.5,179.425,536.5,175.425,540.5,184.425" style="stroke:#A80036;stroke-width:1.0;"/><text fill="#000000" font-family="sans-serif" font-size="13" lengthAdjust="spacing" textLength="29" x="541.5" y="144.0669">drag</text><!--MD5=[cfffa1432237292d6ca5ede1c263ce7d]
link ESS to InstructionConstruct--><path codeLine="57" d="M572.603,70.462 C632.064,96.322 759.65,151.811 829.803,182.321 " fill="none" id="ESS-to-InstructionConstruct" style="stroke:#A80036;stroke-width:1.0;"/><polygon fill="#A80036" points="834.753,184.474,828.0949,177.2166,830.1678,182.48,824.9045,184.5528,834.753,184.474" style="stroke:#A80036;stroke-width:1.0;"/><text fill="#000000" font-family="sans-serif" font-size="13" lengthAdjust="spacing" textLength="29" x="751.5" y="144.0669">drag</text><!--MD5=[431f8f88123ab42fa2b2e305fab9e6db]
link ESS to WaitCondition--><path codeLine="58" d="M572.865,80.774 C610.061,108.671 670.603,154.077 706.688,181.141 " fill="none" id="ESS-to-WaitCondition" style="stroke:#A80036;stroke-width:1.0;"/><polygon fill="#A80036" points="710.964,184.348,706.164,175.748,706.964,181.348,701.364,182.148,710.964,184.348" style="stroke:#A80036;stroke-width:1.0;"/><text fill="#000000" font-family="sans-serif" font-size="13" lengthAdjust="spacing" textLength="29" x="663.5" y="144.0669">drag</text><!--MD5=[9b0ebdf572803dd86f5726be845a289c]
@startuml
hide circle
class ESS<actor> {
}
class ESS {
	drag()
	create()
	use()
	turn()
}
class Function {
}
class odule {
	detect()
}
class Edge {
}
class Song {
}
class Sound {
}
class Module {
}
class LoopConstruct {
}
class Speed {
}
class LEDs {
}
class WaitCondition {
}
class Direction {
}
class InstructionConstruct {
}
class Instruction {
}
class ProgramFile {
}
class ElapsedTime {
}
class Cliff {
}
ESS - -> Sound : use
odule - -> ElapsedTime : detect
odule - -> Speed : detect
ESS - -> Instruction : drag
odule - -> Edge : detect
odule - -> Direction : detect
ESS - -> Function : drag
ESS - -> Module : use
odule - -> Cliff : detect
ESS - -> LEDs : turn
ESS - -> ProgramFile : create
ESS - -> Song : create
ESS - -> odule : use
ESS - -> LoopConstruct : drag
ESS - -> InstructionConstruct : drag
ESS - -> WaitCondition : drag
@enduml

PlantUML version 1.2021.6beta6(Unknown compile time)
(GPL source distribution)
Java Runtime: Java(TM) SE Runtime Environment
JVM: Java HotSpot(TM) 64-Bit Server VM
Default Encoding: UTF-8
Language: en
Country: US
--></g></svg>