<?xml version="1.0" encoding="UTF-8" standalone="no"?><svg xmlns="http://www.w3.org/2000/svg" xmlns:xlink="http://www.w3.org/1999/xlink" contentScriptType="application/ecmascript" contentStyleType="text/css" height="412px" preserveAspectRatio="none" style="width:1631px;height:412px;background:#FFFFFF;" version="1.1" viewBox="0 0 1631 412" width="1631px" zoomAndPan="magnify"><defs><filter height="300%" id="fj3hxbdyandvt" width="300%" x="-1" y="-1"><feGaussianBlur result="blurOut" stdDeviation="2.0"/><feColorMatrix in="blurOut" result="blurOut2" type="matrix" values="0 0 0 0 0 0 0 0 0 0 0 0 0 0 0 0 0 0 .4 0"/><feOffset dx="4.0" dy="4.0" in="blurOut2" result="blurOut3"/><feBlend in="SourceGraphic" in2="blurOut3" mode="normal"/></filter></defs><g><!--MD5=[cd5458322245a0c49df66b41751ab0c0]
class GM--><rect codeLine="37" fill="#FEFECE" filter="url(#fj3hxbdyandvt)" height="116.7969" id="GM" style="stroke:#A80036;stroke-width:1.5;" width="71" x="169.5" y="22.5"/><text fill="#000000" font-family="sans-serif" font-size="12" lengthAdjust="spacing" textLength="19" x="178" y="38.6387">GM</text><rect fill="#FFFFFF" height="15.9688" style="stroke:#000000;stroke-width:1.0;stroke-dasharray:2.0,2.0;" width="33" x="210.5" y="19.5"/><text fill="#000000" font-family="sans-serif" font-size="12" font-style="italic" lengthAdjust="spacing" textLength="31" x="211.5" y="31.6387">actor</text><line style="stroke:#A80036;stroke-width:1.5;" x1="170.5" x2="239.5" y1="46.4688" y2="46.4688"/><text fill="#000000" font-family="sans-serif" font-size="11" lengthAdjust="spacing" textLength="25" x="175.5" y="60.6792">data</text><line style="stroke:#A80036;stroke-width:1.5;" x1="170.5" x2="239.5" y1="67.2734" y2="67.2734"/><text fill="#000000" font-family="sans-serif" font-size="11" lengthAdjust="spacing" textLength="35" x="175.5" y="81.4839">build()</text><text fill="#000000" font-family="sans-serif" font-size="11" lengthAdjust="spacing" textLength="41" x="175.5" y="94.2886">affect()</text><text fill="#000000" font-family="sans-serif" font-size="11" lengthAdjust="spacing" textLength="48" x="175.5" y="107.0933">extract()</text><text fill="#000000" font-family="sans-serif" font-size="11" lengthAdjust="spacing" textLength="59" x="175.5" y="119.8979">visualize()</text><text fill="#000000" font-family="sans-serif" font-size="11" lengthAdjust="spacing" textLength="40" x="175.5" y="132.7026">make()</text><!--MD5=[de1f8633644ee0aae50c6a7fba314ead]
class SporTechBIContractor--><rect codeLine="33" fill="#FEFECE" filter="url(#fj3hxbdyandvt)" height="65.5781" id="SporTechBIContractor" style="stroke:#A80036;stroke-width:1.5;" width="173" x="794.5" y="48"/><text fill="#000000" font-family="sans-serif" font-size="12" lengthAdjust="spacing" textLength="132" x="797.5" y="64.1387">SporTechBIContractor</text><rect fill="#FFFFFF" height="15.9688" style="stroke:#000000;stroke-width:1.0;stroke-dasharray:2.0,2.0;" width="33" x="937.5" y="45"/><text fill="#000000" font-family="sans-serif" font-size="12" font-style="italic" lengthAdjust="spacing" textLength="31" x="938.5" y="57.1387">actor</text><line style="stroke:#A80036;stroke-width:1.5;" x1="795.5" x2="966.5" y1="71.9688" y2="71.9688"/><line style="stroke:#A80036;stroke-width:1.5;" x1="795.5" x2="966.5" y1="79.9688" y2="79.9688"/><text fill="#000000" font-family="sans-serif" font-size="11" lengthAdjust="spacing" textLength="48" x="800.5" y="94.1792">update()</text><text fill="#000000" font-family="sans-serif" font-size="11" lengthAdjust="spacing" textLength="29" x="800.5" y="106.9839">add()</text><!--MD5=[563fd89d482c4c23404165e69bfcbefa]
class Manger--><rect codeLine="28" fill="#FEFECE" filter="url(#fj3hxbdyandvt)" height="52.7734" id="Manger" style="stroke:#A80036;stroke-width:1.5;" width="86" x="1131" y="54.5"/><text fill="#000000" font-family="sans-serif" font-size="12" lengthAdjust="spacing" textLength="45" x="1134" y="70.6387">Manger</text><rect fill="#FFFFFF" height="15.9688" style="stroke:#000000;stroke-width:1.0;stroke-dasharray:2.0,2.0;" width="33" x="1187" y="51.5"/><text fill="#000000" font-family="sans-serif" font-size="12" font-style="italic" lengthAdjust="spacing" textLength="31" x="1188" y="63.6387">actor</text><line style="stroke:#A80036;stroke-width:1.5;" x1="1132" x2="1216" y1="78.4688" y2="78.4688"/><line style="stroke:#A80036;stroke-width:1.5;" x1="1132" x2="1216" y1="86.4688" y2="86.4688"/><text fill="#000000" font-family="sans-serif" font-size="11" lengthAdjust="spacing" textLength="51" x="1137" y="100.6792">monitor()</text><!--MD5=[2ce0c9fb7f55b1e256ab28a8ea6b25ec]
class Customer--><rect codeLine="14" fill="#FEFECE" filter="url(#fj3hxbdyandvt)" height="142.4063" id="Customer" style="stroke:#A80036;stroke-width:1.5;" width="99" x="574.5" y="10"/><text fill="#000000" font-family="sans-serif" font-size="12" lengthAdjust="spacing" textLength="58" x="577.5" y="26.1387">Customer</text><rect fill="#FFFFFF" height="15.9688" style="stroke:#000000;stroke-width:1.0;stroke-dasharray:2.0,2.0;" width="33" x="643.5" y="7"/><text fill="#000000" font-family="sans-serif" font-size="12" font-style="italic" lengthAdjust="spacing" textLength="31" x="644.5" y="19.1387">actor</text><line style="stroke:#A80036;stroke-width:1.5;" x1="575.5" x2="672.5" y1="33.9688" y2="33.9688"/><text fill="#000000" font-family="sans-serif" font-size="11" lengthAdjust="spacing" textLength="36" x="580.5" y="48.1792">model</text><line style="stroke:#A80036;stroke-width:1.5;" x1="575.5" x2="672.5" y1="54.7734" y2="54.7734"/><text fill="#000000" font-family="sans-serif" font-size="11" lengthAdjust="spacing" textLength="30" x="580.5" y="68.9839">see()</text><text fill="#000000" font-family="sans-serif" font-size="11" lengthAdjust="spacing" textLength="33" x="580.5" y="81.7886">drop()</text><text fill="#000000" font-family="sans-serif" font-size="11" lengthAdjust="spacing" textLength="44" x="580.5" y="94.5933">import()</text><text fill="#000000" font-family="sans-serif" font-size="11" lengthAdjust="spacing" textLength="29" x="580.5" y="107.3979">add()</text><text fill="#000000" font-family="sans-serif" font-size="11" lengthAdjust="spacing" textLength="33" x="580.5" y="120.2026">drag()</text><text fill="#000000" font-family="sans-serif" font-size="11" lengthAdjust="spacing" textLength="48" x="580.5" y="133.0073">update()</text><text fill="#000000" font-family="sans-serif" font-size="11" lengthAdjust="spacing" textLength="55" x="580.5" y="145.812">manage()</text><!--MD5=[0d6d527315af725114870e25843b9662]
class SoccerCoach--><rect codeLine="53" fill="#FEFECE" filter="url(#fj3hxbdyandvt)" height="65.5781" id="SoccerCoach" style="stroke:#A80036;stroke-width:1.5;" width="121" x="1392.5" y="48"/><text fill="#000000" font-family="sans-serif" font-size="12" lengthAdjust="spacing" textLength="80" x="1395.5" y="64.1387">SoccerCoach</text><rect fill="#FFFFFF" height="15.9688" style="stroke:#000000;stroke-width:1.0;stroke-dasharray:2.0,2.0;" width="33" x="1483.5" y="45"/><text fill="#000000" font-family="sans-serif" font-size="12" font-style="italic" lengthAdjust="spacing" textLength="31" x="1484.5" y="57.1387">actor</text><line style="stroke:#A80036;stroke-width:1.5;" x1="1393.5" x2="1512.5" y1="71.9688" y2="71.9688"/><line style="stroke:#A80036;stroke-width:1.5;" x1="1393.5" x2="1512.5" y1="79.9688" y2="79.9688"/><text fill="#000000" font-family="sans-serif" font-size="11" lengthAdjust="spacing" textLength="61" x="1398.5" y="94.1792">configure()</text><text fill="#000000" font-family="sans-serif" font-size="11" lengthAdjust="spacing" textLength="49" x="1398.5" y="106.9839">specify()</text><!--MD5=[4d752406f8eecd9a547540c5e8a96c37]
class ExcelSheet--><rect codeLine="23" fill="#FEFECE" filter="url(#fj3hxbdyandvt)" height="39.9688" id="ExcelSheet" style="stroke:#A80036;stroke-width:1.5;" width="73" x="627.5" y="235.5"/><text fill="#000000" font-family="sans-serif" font-size="12" lengthAdjust="spacing" textLength="67" x="630.5" y="251.6387">ExcelSheet</text><line style="stroke:#A80036;stroke-width:1.5;" x1="628.5" x2="699.5" y1="259.4688" y2="259.4688"/><line style="stroke:#A80036;stroke-width:1.5;" x1="628.5" x2="699.5" y1="267.4688" y2="267.4688"/><!--MD5=[2916714cae8f0462c1096d4fd55ce4c3]
class Season--><rect codeLine="25" fill="#FEFECE" filter="url(#fj3hxbdyandvt)" height="52.7734" id="Season" style="stroke:#A80036;stroke-width:1.5;" width="69" x="1548.5" y="54.5"/><text fill="#000000" font-family="sans-serif" font-size="12" lengthAdjust="spacing" textLength="45" x="1560.5" y="70.6387">Season</text><line style="stroke:#A80036;stroke-width:1.5;" x1="1549.5" x2="1616.5" y1="78.4688" y2="78.4688"/><line style="stroke:#A80036;stroke-width:1.5;" x1="1549.5" x2="1616.5" y1="86.4688" y2="86.4688"/><text fill="#000000" font-family="sans-serif" font-size="11" lengthAdjust="spacing" textLength="57" x="1554.5" y="100.6792">progress()</text><!--MD5=[a030fa97ffb865708cae79f6847e8968]
class Condition--><rect codeLine="31" fill="#FEFECE" filter="url(#fj3hxbdyandvt)" height="39.9688" id="Condition" style="stroke:#A80036;stroke-width:1.5;" width="62" x="960" y="235.5"/><text fill="#000000" font-family="sans-serif" font-size="12" lengthAdjust="spacing" textLength="56" x="963" y="251.6387">Condition</text><line style="stroke:#A80036;stroke-width:1.5;" x1="961" x2="1021" y1="259.4688" y2="259.4688"/><line style="stroke:#A80036;stroke-width:1.5;" x1="961" x2="1021" y1="267.4688" y2="267.4688"/><!--MD5=[c680266cf9e454ca06c2d1bb8b683e6b]
class Schedule--><rect codeLine="44" fill="#FEFECE" filter="url(#fj3hxbdyandvt)" height="52.7734" id="Schedule" style="stroke:#A80036;stroke-width:1.5;" width="62" x="1422" y="229"/><text fill="#000000" font-family="sans-serif" font-size="12" lengthAdjust="spacing" textLength="56" x="1425" y="245.1387">Schedule</text><line style="stroke:#A80036;stroke-width:1.5;" x1="1423" x2="1483" y1="252.9688" y2="252.9688"/><line style="stroke:#A80036;stroke-width:1.5;" x1="1423" x2="1483" y1="260.9688" y2="260.9688"/><text fill="#000000" font-family="sans-serif" font-size="11" lengthAdjust="spacing" textLength="26" x="1428" y="275.1792">run()</text><!--MD5=[43d3c0ba1d3b9c6f5e40c8769cc5b343]
class Source--><rect codeLine="47" fill="#FEFECE" filter="url(#fj3hxbdyandvt)" height="39.9688" id="Source" style="stroke:#A80036;stroke-width:1.5;" width="49" x="1149.5" y="235.5"/><text fill="#000000" font-family="sans-serif" font-size="12" lengthAdjust="spacing" textLength="43" x="1152.5" y="251.6387">Source</text><line style="stroke:#A80036;stroke-width:1.5;" x1="1150.5" x2="1197.5" y1="259.4688" y2="259.4688"/><line style="stroke:#A80036;stroke-width:1.5;" x1="1150.5" x2="1197.5" y1="267.4688" y2="267.4688"/><!--MD5=[0b6f8c5a3aeecb178d61c5966e6e45f4]
class Need--><rect codeLine="49" fill="#FEFECE" filter="url(#fj3hxbdyandvt)" height="39.9688" id="Need" style="stroke:#A80036;stroke-width:1.5;" width="38" x="736" y="235.5"/><text fill="#000000" font-family="sans-serif" font-size="12" lengthAdjust="spacing" textLength="32" x="739" y="251.6387">Need</text><line style="stroke:#A80036;stroke-width:1.5;" x1="737" x2="773" y1="259.4688" y2="259.4688"/><line style="stroke:#A80036;stroke-width:1.5;" x1="737" x2="773" y1="267.4688" y2="267.4688"/><!--MD5=[371364a6d7b486039f21f31616b5ee45]
class Change--><rect codeLine="51" fill="#FEFECE" filter="url(#fj3hxbdyandvt)" height="39.9688" id="Change" style="stroke:#A80036;stroke-width:1.5;" width="51" x="822.5" y="235.5"/><text fill="#000000" font-family="sans-serif" font-size="12" lengthAdjust="spacing" textLength="45" x="825.5" y="251.6387">Change</text><line style="stroke:#A80036;stroke-width:1.5;" x1="823.5" x2="872.5" y1="259.4688" y2="259.4688"/><line style="stroke:#A80036;stroke-width:1.5;" x1="823.5" x2="872.5" y1="267.4688" y2="267.4688"/><!--MD5=[736dfa021baaf4f381c9890dd397bfe9]
class Line--><rect codeLine="57" fill="#FEFECE" filter="url(#fj3hxbdyandvt)" height="39.9688" id="Line" style="stroke:#A80036;stroke-width:1.5;" width="30" x="7" y="235.5"/><text fill="#000000" font-family="sans-serif" font-size="12" lengthAdjust="spacing" textLength="24" x="10" y="251.6387">Line</text><line style="stroke:#A80036;stroke-width:1.5;" x1="8" x2="36" y1="259.4688" y2="259.4688"/><line style="stroke:#A80036;stroke-width:1.5;" x1="8" x2="36" y1="267.4688" y2="267.4688"/><!--MD5=[4dc03b68a3b919398005b6a0327aa539]
class PlayerValue--><rect codeLine="59" fill="#FEFECE" filter="url(#fj3hxbdyandvt)" height="39.9688" id="PlayerValue" style="stroke:#A80036;stroke-width:1.5;" width="75" x="72.5" y="235.5"/><text fill="#000000" font-family="sans-serif" font-size="12" lengthAdjust="spacing" textLength="69" x="75.5" y="251.6387">PlayerValue</text><line style="stroke:#A80036;stroke-width:1.5;" x1="73.5" x2="146.5" y1="259.4688" y2="259.4688"/><line style="stroke:#A80036;stroke-width:1.5;" x1="73.5" x2="146.5" y1="267.4688" y2="267.4688"/><!--MD5=[60c9ed31c535bee25c55ce21b5b01399]
class Data--><rect codeLine="61" fill="#FEFECE" filter="url(#fj3hxbdyandvt)" height="52.7734" id="Data" style="stroke:#A80036;stroke-width:1.5;" width="72" x="507" y="229"/><text fill="#000000" font-family="sans-serif" font-size="12" lengthAdjust="spacing" textLength="27" x="529.5" y="245.1387">Data</text><line style="stroke:#A80036;stroke-width:1.5;" x1="508" x2="578" y1="252.9688" y2="252.9688"/><line style="stroke:#A80036;stroke-width:1.5;" x1="508" x2="578" y1="260.9688" y2="260.9688"/><text fill="#000000" font-family="sans-serif" font-size="11" lengthAdjust="spacing" textLength="60" x="513" y="275.1792">integrate()</text><!--MD5=[4190bdce042a529d446b48ad26c6e801]
class SporTechBISystem--><rect codeLine="64" fill="#FEFECE" filter="url(#fj3hxbdyandvt)" height="39.9688" id="SporTechBISystem" style="stroke:#A80036;stroke-width:1.5;" width="120" x="483" y="359"/><text fill="#000000" font-family="sans-serif" font-size="12" lengthAdjust="spacing" textLength="114" x="486" y="375.1387">SporTechBISystem</text><line style="stroke:#A80036;stroke-width:1.5;" x1="484" x2="602" y1="382.9688" y2="382.9688"/><line style="stroke:#A80036;stroke-width:1.5;" x1="484" x2="602" y1="390.9688" y2="390.9688"/><!--MD5=[9e5b8da75a877d30f0aa7c5409b00ea1]
class Demand--><rect codeLine="66" fill="#FEFECE" filter="url(#fj3hxbdyandvt)" height="39.9688" id="Demand" style="stroke:#A80036;stroke-width:1.5;" width="56" x="1238" y="235.5"/><text fill="#000000" font-family="sans-serif" font-size="12" lengthAdjust="spacing" textLength="50" x="1241" y="251.6387">Demand</text><line style="stroke:#A80036;stroke-width:1.5;" x1="1239" x2="1293" y1="259.4688" y2="259.4688"/><line style="stroke:#A80036;stroke-width:1.5;" x1="1239" x2="1293" y1="267.4688" y2="267.4688"/><!--MD5=[6cc3ad14011ab7f07f5dfe79da9fafb1]
class Roster--><rect codeLine="68" fill="#FEFECE" filter="url(#fj3hxbdyandvt)" height="39.9688" id="Roster" style="stroke:#A80036;stroke-width:1.5;" width="45" x="182.5" y="235.5"/><text fill="#000000" font-family="sans-serif" font-size="12" lengthAdjust="spacing" textLength="39" x="185.5" y="251.6387">Roster</text><line style="stroke:#A80036;stroke-width:1.5;" x1="183.5" x2="226.5" y1="259.4688" y2="259.4688"/><line style="stroke:#A80036;stroke-width:1.5;" x1="183.5" x2="226.5" y1="267.4688" y2="267.4688"/><!--MD5=[3db53164d4ddbdea4156eda8a776d7e7]
class Decision--><rect codeLine="70" fill="#FEFECE" filter="url(#fj3hxbdyandvt)" height="39.9688" id="Decision" style="stroke:#A80036;stroke-width:1.5;" width="58" x="263" y="235.5"/><text fill="#000000" font-family="sans-serif" font-size="12" lengthAdjust="spacing" textLength="52" x="266" y="251.6387">Decision</text><line style="stroke:#A80036;stroke-width:1.5;" x1="264" x2="320" y1="259.4688" y2="259.4688"/><line style="stroke:#A80036;stroke-width:1.5;" x1="264" x2="320" y1="267.4688" y2="267.4688"/><!--MD5=[ddc36e88a2144077ea4257ea6b073d34]
class Reaction--><rect codeLine="72" fill="#FEFECE" filter="url(#fj3hxbdyandvt)" height="39.9688" id="Reaction" style="stroke:#A80036;stroke-width:1.5;" width="57" x="1329.5" y="235.5"/><text fill="#000000" font-family="sans-serif" font-size="12" lengthAdjust="spacing" textLength="51" x="1332.5" y="251.6387">Reaction</text><line style="stroke:#A80036;stroke-width:1.5;" x1="1330.5" x2="1385.5" y1="259.4688" y2="259.4688"/><line style="stroke:#A80036;stroke-width:1.5;" x1="1330.5" x2="1385.5" y1="267.4688" y2="267.4688"/><!--MD5=[7e20e022571e30ec1001cf6eabd7f3e2]
class Model--><rect codeLine="74" fill="#FEFECE" filter="url(#fj3hxbdyandvt)" height="39.9688" id="Model" style="stroke:#A80036;stroke-width:1.5;" width="43" x="428.5" y="235.5"/><text fill="#000000" font-family="sans-serif" font-size="12" lengthAdjust="spacing" textLength="37" x="431.5" y="251.6387">Model</text><line style="stroke:#A80036;stroke-width:1.5;" x1="429.5" x2="470.5" y1="259.4688" y2="259.4688"/><line style="stroke:#A80036;stroke-width:1.5;" x1="429.5" x2="470.5" y1="267.4688" y2="267.4688"/><!--MD5=[a50437f63663fdb0ca688ffd214f09fe]
link Customer to ExcelSheet--><path codeLine="76" d="M640.27,152.162 C646.73,180.023 653.729,210.205 658.439,230.519 " fill="none" id="Customer-to-ExcelSheet" style="stroke:#A80036;stroke-width:1.0;"/><polygon fill="#A80036" points="659.586,235.463,661.4489,225.7919,658.4562,230.5923,653.6558,227.5996,659.586,235.463" style="stroke:#A80036;stroke-width:1.0;"/><text fill="#000000" font-family="sans-serif" font-size="13" lengthAdjust="spacing" textLength="42" x="653" y="195.0669">import</text><!--MD5=[63b6f58fdd481ce6f57e7b94b44dd6b8]
reverse link GM to Data--><path codeLine="77" d="M252.268,106.981 C297.685,130.889 368.32,167.821 430,199 C455.553,211.917 484.544,226.147 506.763,236.964 " fill="none" id="GM-backto-Data" style="stroke:#A80036;stroke-width:1.0;"/><polygon fill="#FFFFFF" points="240.721,100.897,244.1647,107.2327,251.3375,106.4907,247.8938,100.155,240.721,100.897" style="stroke:#A80036;stroke-width:1.0;"/><text fill="#000000" font-family="sans-serif" font-size="13" lengthAdjust="spacing" textLength="46" x="431" y="195.0669">extract</text><!--MD5=[bc0ef1902adce0626a327d1fa06af772]
link Manger to Reaction--><path codeLine="78" d="M1208.87,107.529 C1234.34,126.829 1269.13,154.6 1297,182 C1312.76,197.497 1328.78,216.699 1340.45,231.448 " fill="none" id="Manger-to-Reaction" style="stroke:#A80036;stroke-width:1.0;"/><polygon fill="#A80036" points="1343.62,235.483,1341.2,225.9361,1340.5289,231.553,1334.912,230.8819,1343.62,235.483" style="stroke:#A80036;stroke-width:1.0;"/><text fill="#000000" font-family="sans-serif" font-size="13" lengthAdjust="spacing" textLength="50" x="1315" y="195.0669">monitor</text><!--MD5=[b7505b0150552ccae0bf931e5aac1819]
link Manger to Source--><path codeLine="79" d="M1172.57,107.563 C1171.43,131.266 1170.15,167.517 1171,199 C1171.27,209.173 1171.83,220.384 1172.39,230.051 " fill="none" id="Manger-to-Source" style="stroke:#A80036;stroke-width:1.0;"/><polygon fill="#A80036" points="1172.7,235.247,1176.1548,226.024,1172.4011,230.2559,1168.1691,226.5022,1172.7,235.247" style="stroke:#A80036;stroke-width:1.0;"/><text fill="#000000" font-family="sans-serif" font-size="13" lengthAdjust="spacing" textLength="50" x="1172" y="195.0669">monitor</text><!--MD5=[9b5cac166cdab0bb423bef2a88f8f812]
link Customer to Data--><path codeLine="80" d="M591.054,152.162 C579.295,177.205 566.655,204.123 557.291,224.065 " fill="none" id="Customer-to-Data" style="stroke:#A80036;stroke-width:1.0;"/><polygon fill="#A80036" points="555.105,228.722,562.5517,222.2764,557.2307,224.1964,555.3107,218.8753,555.105,228.722" style="stroke:#A80036;stroke-width:1.0;"/><text fill="#000000" font-family="sans-serif" font-size="13" lengthAdjust="spacing" textLength="42" x="578" y="195.0669">import</text><!--MD5=[9b5cac166cdab0bb423bef2a88f8f812]
link Customer to Data--><path codeLine="92" d="M574.423,124.532 C559.075,140.771 544.083,160.579 536,182 C531.034,195.16 531.705,210.572 534.052,223.794 " fill="none" id="Customer-to-Data-1" style="stroke:#A80036;stroke-width:1.0;"/><polygon fill="#A80036" points="535.066,228.933,537.2497,219.3293,534.0989,224.0274,529.4007,220.8767,535.066,228.933" style="stroke:#A80036;stroke-width:1.0;"/><text fill="#000000" font-family="sans-serif" font-size="13" lengthAdjust="spacing" textLength="24" x="537" y="195.0669">add</text><!--MD5=[5faa6a00c73834fb2504048a08b955ff]
link Customer to Need--><path codeLine="81" d="M673.682,142.878 C683.858,155.686 694.39,169.197 704,182 C716.14,198.173 729.254,216.845 739.144,231.189 " fill="none" id="Customer-to-Need" style="stroke:#A80036;stroke-width:1.0;"/><polygon fill="#A80036" points="742.105,235.495,740.2996,225.813,739.2711,231.3756,733.7086,230.3472,742.105,235.495" style="stroke:#A80036;stroke-width:1.0;"/><text fill="#000000" font-family="sans-serif" font-size="13" lengthAdjust="spacing" textLength="53" x="717" y="195.0669">manage</text><!--MD5=[f6a71835551c756e0a6beac3992d4664]
link Customer to Change--><path codeLine="82" d="M673.534,109.841 C705.028,128.518 745.946,154.634 779,182 C797.106,196.991 815.345,216.384 828.519,231.34 " fill="none" id="Customer-to-Change" style="stroke:#A80036;stroke-width:1.0;"/><polygon fill="#A80036" points="832.097,235.434,829.1861,226.0251,828.8066,231.6693,823.1625,231.2898,832.097,235.434" style="stroke:#A80036;stroke-width:1.0;"/><text fill="#000000" font-family="sans-serif" font-size="13" lengthAdjust="spacing" textLength="23" x="799" y="195.0669">see</text><!--MD5=[d5c6aea84850cb4143ea70db3b843909]
reverse link Customer to Model--><path codeLine="83" d="M564.029,124.067 C542.295,140.785 518.354,161.024 499,182 C483.856,198.413 469.947,219.882 460.849,235.189 " fill="none" id="Customer-backto-Model" style="stroke:#A80036;stroke-width:1.0;"/><polygon fill="#FFFFFF" points="574.492,116.155,567.2937,116.5838,564.9209,123.3933,572.1192,122.9645,574.492,116.155" style="stroke:#A80036;stroke-width:1.0;"/><text fill="#000000" font-family="sans-serif" font-size="13" lengthAdjust="spacing" textLength="24" x="500" y="195.0669">add</text><!--MD5=[82f57bdd9dc388bcea23388f316e3097]
link Data to SporTechBISystem--><path codeLine="84" d="M506.985,274.421 C485.359,287.828 463.99,307.4951 475,329 C480.512,339.7666 489.615,348.7076 499.394,355.8732 " fill="none" id="Data-to-SporTechBISystem" style="stroke:#A80036;stroke-width:1.0;"/><polygon fill="#A80036" points="503.618,358.8357,498.545,350.3939,499.524,355.9654,493.9525,356.9443,503.618,358.8357" style="stroke:#A80036;stroke-width:1.0;"/><text fill="#000000" font-family="sans-serif" font-size="13" lengthAdjust="spacing" textLength="88" x="476" y="325.0669">supported_by</text><!--MD5=[82f57bdd9dc388bcea23388f316e3097]
link Data to SporTechBISystem--><path codeLine="90" d="M560.152,282.285 C567.22,295.962 572.94,313.1694 569,329 C566.843,337.6677 562.836,346.4867 558.603,354.2096 " fill="none" id="Data-to-SporTechBISystem-1" style="stroke:#A80036;stroke-width:1.0;"/><polygon fill="#A80036" points="555.952,358.8654,563.8805,353.0226,558.4255,354.5201,556.928,349.065,555.952,358.8654" style="stroke:#A80036;stroke-width:1.0;"/><text fill="#000000" font-family="sans-serif" font-size="13" lengthAdjust="spacing" textLength="58" x="572" y="325.0669">integrate</text><!--MD5=[c81e3c59bdba98824a48e28a0044be20]
link Manger to Condition--><path codeLine="85" d="M1130.84,94.992 C1071.55,113.812 969.848,149.921 949,182 C938.405,198.304 950.325,217.348 964.137,231.826 " fill="none" id="Manger-to-Condition" style="stroke:#A80036;stroke-width:1.0;"/><polygon fill="#A80036" points="967.677,235.404,964.1917,226.1925,964.1608,231.8492,958.504,231.8184,967.677,235.404" style="stroke:#A80036;stroke-width:1.0;"/><text fill="#000000" font-family="sans-serif" font-size="13" lengthAdjust="spacing" textLength="88" x="950" y="195.0669">supported_by</text><!--MD5=[c81e3c59bdba98824a48e28a0044be20]
link Manger to Condition--><path codeLine="88" d="M1146.6,107.825 C1110.96,141.423 1049.24,199.604 1015.23,231.663 " fill="none" id="Manger-to-Condition-1" style="stroke:#A80036;stroke-width:1.0;"/><polygon fill="#A80036" points="1011.22,235.44,1020.5133,232.1791,1014.859,232.011,1015.027,226.3567,1011.22,235.44" style="stroke:#A80036;stroke-width:1.0;"/><text fill="#000000" font-family="sans-serif" font-size="13" lengthAdjust="spacing" textLength="50" x="1068" y="195.0669">monitor</text><!--MD5=[15b1ee8fdcda5f30b6a480a68ae3e2f5]
link SoccerCoach to Schedule--><path codeLine="86" d="M1453,114.042 C1453,145.357 1453,192.706 1453,223.618 " fill="none" id="SoccerCoach-to-Schedule" style="stroke:#A80036;stroke-width:1.0;"/><polygon fill="#A80036" points="1453,228.812,1457,219.812,1453,223.812,1449,219.812,1453,228.812" style="stroke:#A80036;stroke-width:1.0;"/><text fill="#000000" font-family="sans-serif" font-size="13" lengthAdjust="spacing" textLength="60" x="1454" y="195.0669">configure</text><!--MD5=[0eaa1542ec092648ff745804588d0265]
link GM to Line--><path codeLine="87" d="M169.392,112.71 C147.104,132.196 117.979,158.147 93,182 C74.7943,199.385 54.7922,219.95 40.671,234.729 " fill="none" id="GM-to-Line" style="stroke:#A80036;stroke-width:1.0;"/><polygon fill="#A80036" points="37.2123,238.356,46.3178,234.6023,40.6625,234.7372,40.5277,229.0819,37.2123,238.356" style="stroke:#A80036;stroke-width:1.0;"/><text fill="#000000" font-family="sans-serif" font-size="13" lengthAdjust="spacing" textLength="38" x="94" y="195.0669">affect</text><!--MD5=[e891f222eeb06b60d47e9f38cd0ef2fb]
link GM to PlayerValue--><path codeLine="89" d="M172.555,139.546 C164.792,153.422 156.564,168.22 149,182 C140.102,198.209 130.237,216.552 122.655,230.731 " fill="none" id="GM-to-PlayerValue" style="stroke:#A80036;stroke-width:1.0;"/><polygon fill="#A80036" points="120.176,235.371,127.9447,229.3173,122.5318,230.9608,120.8883,225.5479,120.176,235.371" style="stroke:#A80036;stroke-width:1.0;"/><text fill="#000000" font-family="sans-serif" font-size="13" lengthAdjust="spacing" textLength="46" x="150" y="195.0669">extract</text><!--MD5=[dab8cd1006f357c5080512cb7dbe8aee]
link GM to Decision--><path codeLine="91" d="M234.212,139.92 C249.854,170.935 268.269,207.448 280.033,230.773 " fill="none" id="GM-to-Decision" style="stroke:#A80036;stroke-width:1.0;"/><polygon fill="#A80036" points="282.295,235.257,281.8138,225.4199,280.0435,230.7926,274.6708,229.0223,282.295,235.257" style="stroke:#A80036;stroke-width:1.0;"/><text fill="#000000" font-family="sans-serif" font-size="13" lengthAdjust="spacing" textLength="36" x="265" y="195.0669">make</text><!--MD5=[9e70175148f4bb6979afff5927f05dfe]
link Manger to Demand--><path codeLine="93" d="M1187.77,107.825 C1205.55,141.15 1236.22,198.659 1253.4,230.876 " fill="none" id="Manger-to-Demand" style="stroke:#A80036;stroke-width:1.0;"/><polygon fill="#A80036" points="1255.83,235.44,1255.1266,225.6163,1253.4782,231.0276,1248.0668,229.3792,1255.83,235.44" style="stroke:#A80036;stroke-width:1.0;"/><text fill="#000000" font-family="sans-serif" font-size="13" lengthAdjust="spacing" textLength="50" x="1238" y="195.0669">monitor</text><!--MD5=[02c35b805d50a00c1852e1d3168c6773]
link GM to Roster--><path codeLine="94" d="M205,139.92 C205,170.676 205,206.839 205,230.187 " fill="none" id="GM-to-Roster" style="stroke:#A80036;stroke-width:1.0;"/><polygon fill="#A80036" points="205,235.257,209,226.257,205,230.257,201,226.257,205,235.257" style="stroke:#A80036;stroke-width:1.0;"/><text fill="#000000" font-family="sans-serif" font-size="13" lengthAdjust="spacing" textLength="30" x="206" y="195.0669">build</text><!--MD5=[9e30360687f88eb7bc73b86a189fc096]
@startuml
hide circle
class GM<actor> {
	data
}
class SporTechBIContractor<actor> {
}
class Manger<actor> {
}
class Customer<actor> {
	model
}
class SoccerCoach<actor> {
}
class Customer {
	see()
	drop()
	import()
	add()
	drag()
	update()
	manage()
}
class ExcelSheet {
}
class Season {
	progress()
}
class Manger {
	monitor()
}
class Condition {
}
class SporTechBIContractor {
	update()
	add()
}
class GM {
	build()
	affect()
	extract()
	visualize()
	make()
}
class Schedule {
	run()
}
class Source {
}
class Need {
}
class Change {
}
class SoccerCoach {
	configure()
	specify()
}
class Line {
}
class PlayerValue {
}
class Data {
	integrate()
}
class SporTechBISystem {
}
class Demand {
}
class Roster {
}
class Decision {
}
class Reaction {
}
class Model {
}
Customer - -> ExcelSheet : import
GM o- - Data : extract
Manger - -> Reaction : monitor
Manger - -> Source : monitor
Customer - -> Data : import
Customer - -> Need : manage
Customer - -> Change : see
Customer o- - Model : add
Data - -> SporTechBISystem : supported_by
Manger - -> Condition : supported_by
SoccerCoach - -> Schedule : configure
GM - -> Line : affect
Manger - -> Condition : monitor
GM - -> PlayerValue : extract
Data - -> SporTechBISystem : integrate
GM - -> Decision : make
Customer - -> Data : add
Manger - -> Demand : monitor
GM - -> Roster : build
@enduml

PlantUML version 1.2021.9beta2(Unknown compile time)
(GPL source distribution)
Java Runtime: Java(TM) SE Runtime Environment
JVM: Java HotSpot(TM) 64-Bit Server VM
Default Encoding: UTF-8
Language: en
Country: US
--></g></svg>