<?xml version="1.0" encoding="UTF-8" standalone="no"?><svg xmlns="http://www.w3.org/2000/svg" xmlns:xlink="http://www.w3.org/1999/xlink" contentScriptType="application/ecmascript" contentStyleType="text/css" height="489px" preserveAspectRatio="none" style="width:952px;height:489px;background:#FFFFFF;" version="1.1" viewBox="0 0 952 489" width="952px" zoomAndPan="magnify"><defs><filter height="300%" id="f1cx7o8ma3cqav" width="300%" x="-1" y="-1"><feGaussianBlur result="blurOut" stdDeviation="2.0"/><feColorMatrix in="blurOut" result="blurOut2" type="matrix" values="0 0 0 0 0 0 0 0 0 0 0 0 0 0 0 0 0 0 .4 0"/><feOffset dx="4.0" dy="4.0" in="blurOut2" result="blurOut3"/><feBlend in="SourceGraphic" in2="blurOut3" mode="normal"/></filter></defs><g><!--MD5=[ed6624c6556d5e7b1bd23032162d20b7]
class Client--><rect codeLine="22" fill="#FEFECE" filter="url(#f1cx7o8ma3cqav)" height="168.0156" id="Client" style="stroke:#A80036;stroke-width:1.5;" width="86" x="470" y="191"/><text fill="#000000" font-family="sans-serif" font-size="12" lengthAdjust="spacing" textLength="33" x="479" y="207.1387">Client</text><rect fill="#FFFFFF" height="15.9688" style="stroke:#000000;stroke-width:1.0;stroke-dasharray:2.0,2.0;" width="33" x="526" y="188"/><text fill="#000000" font-family="sans-serif" font-size="12" font-style="italic" lengthAdjust="spacing" textLength="31" x="527" y="200.1387">actor</text><line style="stroke:#A80036;stroke-width:1.5;" x1="471" x2="555" y1="214.9688" y2="214.9688"/><text fill="#000000" font-family="sans-serif" font-size="11" lengthAdjust="spacing" textLength="74" x="476" y="229.1792">convenience</text><line style="stroke:#A80036;stroke-width:1.5;" x1="471" x2="555" y1="235.7734" y2="235.7734"/><text fill="#000000" font-family="sans-serif" font-size="11" lengthAdjust="spacing" textLength="39" x="476" y="249.9839">enter()</text><text fill="#000000" font-family="sans-serif" font-size="11" lengthAdjust="spacing" textLength="27" x="476" y="262.7886">get()</text><text fill="#000000" font-family="sans-serif" font-size="11" lengthAdjust="spacing" textLength="29" x="476" y="275.5933">use()</text><text fill="#000000" font-family="sans-serif" font-size="11" lengthAdjust="spacing" textLength="57" x="476" y="288.3979">show_up()</text><text fill="#000000" font-family="sans-serif" font-size="11" lengthAdjust="spacing" textLength="57" x="476" y="301.2026">check_in()</text><text fill="#000000" font-family="sans-serif" font-size="11" lengthAdjust="spacing" textLength="51" x="476" y="314.0073">provide()</text><text fill="#000000" font-family="sans-serif" font-size="11" lengthAdjust="spacing" textLength="40" x="476" y="326.812">enroll()</text><text fill="#000000" font-family="sans-serif" font-size="11" lengthAdjust="spacing" textLength="52" x="476" y="339.6167">register()</text><text fill="#000000" font-family="sans-serif" font-size="11" lengthAdjust="spacing" textLength="36" x="476" y="352.4214">save()</text><!--MD5=[9563755d011c5cec7ec66dc53565a59e]
class Board--><rect codeLine="58" fill="#FEFECE" filter="url(#f1cx7o8ma3cqav)" height="52.7734" id="Board" style="stroke:#A80036;stroke-width:1.5;" width="77" x="647.5" y="35.5"/><text fill="#000000" font-family="sans-serif" font-size="12" lengthAdjust="spacing" textLength="36" x="650.5" y="51.6387">Board</text><rect fill="#FFFFFF" height="15.9688" style="stroke:#000000;stroke-width:1.0;stroke-dasharray:2.0,2.0;" width="33" x="694.5" y="32.5"/><text fill="#000000" font-family="sans-serif" font-size="12" font-style="italic" lengthAdjust="spacing" textLength="31" x="695.5" y="44.6387">actor</text><line style="stroke:#A80036;stroke-width:1.5;" x1="648.5" x2="723.5" y1="59.4688" y2="59.4688"/><line style="stroke:#A80036;stroke-width:1.5;" x1="648.5" x2="723.5" y1="67.4688" y2="67.4688"/><text fill="#000000" font-family="sans-serif" font-size="11" lengthAdjust="spacing" textLength="40" x="653.5" y="81.6792">share()</text><!--MD5=[f58fd777f29c17413488bea9e7cfcca3]
class Member--><rect codeLine="41" fill="#FEFECE" filter="url(#f1cx7o8ma3cqav)" height="65.5781" id="Member" style="stroke:#A80036;stroke-width:1.5;" width="91" x="759.5" y="29"/><text fill="#000000" font-family="sans-serif" font-size="12" lengthAdjust="spacing" textLength="50" x="762.5" y="45.1387">Member</text><rect fill="#FFFFFF" height="15.9688" style="stroke:#000000;stroke-width:1.0;stroke-dasharray:2.0,2.0;" width="33" x="820.5" y="26"/><text fill="#000000" font-family="sans-serif" font-size="12" font-style="italic" lengthAdjust="spacing" textLength="31" x="821.5" y="38.1387">actor</text><line style="stroke:#A80036;stroke-width:1.5;" x1="760.5" x2="849.5" y1="52.9688" y2="52.9688"/><line style="stroke:#A80036;stroke-width:1.5;" x1="760.5" x2="849.5" y1="60.9688" y2="60.9688"/><text fill="#000000" font-family="sans-serif" font-size="11" lengthAdjust="spacing" textLength="37" x="765.5" y="75.1792">keep()</text><text fill="#000000" font-family="sans-serif" font-size="11" lengthAdjust="spacing" textLength="47" x="765.5" y="87.9839">access()</text><!--MD5=[4bf0339fc882b43a7cdd637248b9c8fa]
class WaWITPersonnel--><rect codeLine="11" fill="#FEFECE" filter="url(#f1cx7o8ma3cqav)" height="103.9922" id="WaWITPersonnel" style="stroke:#A80036;stroke-width:1.5;" width="141" x="166.5" y="10"/><text fill="#000000" font-family="sans-serif" font-size="12" lengthAdjust="spacing" textLength="100" x="169.5" y="26.1387">WaWITPersonnel</text><rect fill="#FFFFFF" height="15.9688" style="stroke:#000000;stroke-width:1.0;stroke-dasharray:2.0,2.0;" width="33" x="277.5" y="7"/><text fill="#000000" font-family="sans-serif" font-size="12" font-style="italic" lengthAdjust="spacing" textLength="31" x="278.5" y="19.1387">actor</text><line style="stroke:#A80036;stroke-width:1.5;" x1="167.5" x2="306.5" y1="33.9688" y2="33.9688"/><line style="stroke:#A80036;stroke-width:1.5;" x1="167.5" x2="306.5" y1="41.9688" y2="41.9688"/><text fill="#000000" font-family="sans-serif" font-size="11" lengthAdjust="spacing" textLength="53" x="172.5" y="56.1792">analyse()</text><text fill="#000000" font-family="sans-serif" font-size="11" lengthAdjust="spacing" textLength="29" x="172.5" y="68.9839">use()</text><text fill="#000000" font-family="sans-serif" font-size="11" lengthAdjust="spacing" textLength="61" x="172.5" y="81.7886">generate()</text><text fill="#000000" font-family="sans-serif" font-size="11" lengthAdjust="spacing" textLength="35" x="172.5" y="94.5933">track()</text><text fill="#000000" font-family="sans-serif" font-size="11" lengthAdjust="spacing" textLength="51" x="172.5" y="107.3979">capture()</text><!--MD5=[c508b5b6bbe276ff5e2700b6641f837f]
class Appointment--><rect codeLine="18" fill="#FEFECE" filter="url(#f1cx7o8ma3cqav)" height="39.9688" id="Appointment" style="stroke:#A80036;stroke-width:1.5;" width="82" x="7" y="255"/><text fill="#000000" font-family="sans-serif" font-size="12" lengthAdjust="spacing" textLength="76" x="10" y="271.1387">Appointment</text><line style="stroke:#A80036;stroke-width:1.5;" x1="8" x2="88" y1="278.9688" y2="278.9688"/><line style="stroke:#A80036;stroke-width:1.5;" x1="8" x2="88" y1="286.9688" y2="286.9688"/><!--MD5=[bbd32abb87742158d8b9937325662454]
class Center--><rect codeLine="20" fill="#FEFECE" filter="url(#f1cx7o8ma3cqav)" height="39.9688" id="Center" style="stroke:#A80036;stroke-width:1.5;" width="46" x="326" y="436"/><text fill="#000000" font-family="sans-serif" font-size="12" lengthAdjust="spacing" textLength="40" x="329" y="452.1387">Center</text><line style="stroke:#A80036;stroke-width:1.5;" x1="327" x2="371" y1="459.9688" y2="459.9688"/><line style="stroke:#A80036;stroke-width:1.5;" x1="327" x2="371" y1="467.9688" y2="467.9688"/><!--MD5=[2e42295458bb0bec21c9622a623eb29e]
class Time--><rect codeLine="33" fill="#FEFECE" filter="url(#f1cx7o8ma3cqav)" height="52.7734" id="Time" style="stroke:#A80036;stroke-width:1.5;" width="51" x="561.5" y="35.5"/><text fill="#000000" font-family="sans-serif" font-size="12" lengthAdjust="spacing" textLength="29" x="572.5" y="51.6387">Time</text><line style="stroke:#A80036;stroke-width:1.5;" x1="562.5" x2="611.5" y1="59.4688" y2="59.4688"/><line style="stroke:#A80036;stroke-width:1.5;" x1="562.5" x2="611.5" y1="67.4688" y2="67.4688"/><text fill="#000000" font-family="sans-serif" font-size="11" lengthAdjust="spacing" textLength="39" x="567.5" y="81.6792">enter()</text><!--MD5=[60c9ed31c535bee25c55ce21b5b01399]
class Data--><rect codeLine="36" fill="#FEFECE" filter="url(#f1cx7o8ma3cqav)" height="39.9688" id="Data" style="stroke:#A80036;stroke-width:1.5;" width="33" x="599.5" y="255"/><text fill="#000000" font-family="sans-serif" font-size="12" lengthAdjust="spacing" textLength="27" x="602.5" y="271.1387">Data</text><line style="stroke:#A80036;stroke-width:1.5;" x1="600.5" x2="631.5" y1="278.9688" y2="278.9688"/><line style="stroke:#A80036;stroke-width:1.5;" x1="600.5" x2="631.5" y1="286.9688" y2="286.9688"/><!--MD5=[435987a092acd998883c72f97c5c9408]
class Number--><rect codeLine="38" fill="#FEFECE" filter="url(#f1cx7o8ma3cqav)" height="52.7734" id="Number" style="stroke:#A80036;stroke-width:1.5;" width="53" x="290.5" y="248.5"/><text fill="#000000" font-family="sans-serif" font-size="12" lengthAdjust="spacing" textLength="47" x="293.5" y="264.6387">Number</text><line style="stroke:#A80036;stroke-width:1.5;" x1="291.5" x2="342.5" y1="272.4688" y2="272.4688"/><line style="stroke:#A80036;stroke-width:1.5;" x1="291.5" x2="342.5" y1="280.4688" y2="280.4688"/><text fill="#000000" font-family="sans-serif" font-size="11" lengthAdjust="spacing" textLength="29" x="296.5" y="294.6792">use()</text><!--MD5=[3fd616f346a44cd59a91eb10b19e157c]
class User--><rect codeLine="45" fill="#FEFECE" filter="url(#f1cx7o8ma3cqav)" height="39.9688" id="User" style="stroke:#A80036;stroke-width:1.5;" width="35" x="714.5" y="255"/><text fill="#000000" font-family="sans-serif" font-size="12" lengthAdjust="spacing" textLength="29" x="717.5" y="271.1387">User</text><line style="stroke:#A80036;stroke-width:1.5;" x1="715.5" x2="748.5" y1="278.9688" y2="278.9688"/><line style="stroke:#A80036;stroke-width:1.5;" x1="715.5" x2="748.5" y1="286.9688" y2="286.9688"/><!--MD5=[b8e0354e0f3f5cbf52553869b78c0afa]
class Job--><rect codeLine="47" fill="#FEFECE" filter="url(#f1cx7o8ma3cqav)" height="39.9688" id="Job" style="stroke:#A80036;stroke-width:1.5;" width="26" x="510" y="436"/><text fill="#000000" font-family="sans-serif" font-size="12" lengthAdjust="spacing" textLength="20" x="513" y="452.1387">Job</text><line style="stroke:#A80036;stroke-width:1.5;" x1="511" x2="535" y1="459.9688" y2="459.9688"/><line style="stroke:#A80036;stroke-width:1.5;" x1="511" x2="535" y1="467.9688" y2="467.9688"/><!--MD5=[dbb8b4f13c7b21394f9d757e58732f45]
class Service--><rect codeLine="49" fill="#FEFECE" filter="url(#f1cx7o8ma3cqav)" height="52.7734" id="Service" style="stroke:#A80036;stroke-width:1.5;" width="52" x="886" y="35.5"/><text fill="#000000" font-family="sans-serif" font-size="12" lengthAdjust="spacing" textLength="46" x="889" y="51.6387">Service</text><line style="stroke:#A80036;stroke-width:1.5;" x1="887" x2="937" y1="59.4688" y2="59.4688"/><line style="stroke:#A80036;stroke-width:1.5;" x1="887" x2="937" y1="67.4688" y2="67.4688"/><text fill="#000000" font-family="sans-serif" font-size="11" lengthAdjust="spacing" textLength="29" x="892" y="81.6792">use()</text><!--MD5=[ac13618b1a974308c1f12eb6c57723dc]
class Event--><rect codeLine="52" fill="#FEFECE" filter="url(#f1cx7o8ma3cqav)" height="39.9688" id="Event" style="stroke:#A80036;stroke-width:1.5;" width="39" x="785.5" y="255"/><text fill="#000000" font-family="sans-serif" font-size="12" lengthAdjust="spacing" textLength="33" x="788.5" y="271.1387">Event</text><line style="stroke:#A80036;stroke-width:1.5;" x1="786.5" x2="823.5" y1="278.9688" y2="278.9688"/><line style="stroke:#A80036;stroke-width:1.5;" x1="786.5" x2="823.5" y1="286.9688" y2="286.9688"/><!--MD5=[1a502b0dbedafd291c48f46ef8646183]
class Feedback--><rect codeLine="54" fill="#FEFECE" filter="url(#f1cx7o8ma3cqav)" height="39.9688" id="Feedback" style="stroke:#A80036;stroke-width:1.5;" width="66" x="571" y="436"/><text fill="#000000" font-family="sans-serif" font-size="12" lengthAdjust="spacing" textLength="60" x="574" y="452.1387">Feedback</text><line style="stroke:#A80036;stroke-width:1.5;" x1="572" x2="636" y1="459.9688" y2="459.9688"/><line style="stroke:#A80036;stroke-width:1.5;" x1="572" x2="636" y1="467.9688" y2="467.9688"/><!--MD5=[f5ea1f64bc04260f09f32845b6b2c213]
class Portal--><rect codeLine="56" fill="#FEFECE" filter="url(#f1cx7o8ma3cqav)" height="39.9688" id="Portal" style="stroke:#A80036;stroke-width:1.5;" width="39" x="859.5" y="255"/><text fill="#000000" font-family="sans-serif" font-size="12" lengthAdjust="spacing" textLength="33" x="862.5" y="271.1387">Portal</text><line style="stroke:#A80036;stroke-width:1.5;" x1="860.5" x2="897.5" y1="278.9688" y2="278.9688"/><line style="stroke:#A80036;stroke-width:1.5;" x1="860.5" x2="897.5" y1="286.9688" y2="286.9688"/><!--MD5=[4296a1ab0576a383a1a509d52c22ebf0]
class Type--><rect codeLine="61" fill="#FEFECE" filter="url(#f1cx7o8ma3cqav)" height="39.9688" id="Type" style="stroke:#A80036;stroke-width:1.5;" width="36" x="219" y="255"/><text fill="#000000" font-family="sans-serif" font-size="12" lengthAdjust="spacing" textLength="30" x="222" y="271.1387">Type</text><line style="stroke:#A80036;stroke-width:1.5;" x1="220" x2="254" y1="278.9688" y2="278.9688"/><line style="stroke:#A80036;stroke-width:1.5;" x1="220" x2="254" y1="286.9688" y2="286.9688"/><!--MD5=[f00dbe8c0302c6aec2cb26b3c659c8fc]
class Report--><rect codeLine="63" fill="#FEFECE" filter="url(#f1cx7o8ma3cqav)" height="39.9688" id="Report" style="stroke:#A80036;stroke-width:1.5;" width="46" x="379" y="255"/><text fill="#000000" font-family="sans-serif" font-size="12" lengthAdjust="spacing" textLength="40" x="382" y="271.1387">Report</text><line style="stroke:#A80036;stroke-width:1.5;" x1="380" x2="424" y1="278.9688" y2="278.9688"/><line style="stroke:#A80036;stroke-width:1.5;" x1="380" x2="424" y1="286.9688" y2="286.9688"/><!--MD5=[0b714d7c49983d9e48ed1901cbeb8b2d]
link Client to Job--><path codeLine="65" d="M517.649,359.212 C519.113,385.4157 520.617,412.3421 521.656,430.9465 " fill="none" id="Client-to-Job" style="stroke:#A80036;stroke-width:1.0;"/><polygon fill="#A80036" points="521.937,435.9657,525.4286,426.7565,521.658,430.9735,517.4411,427.2029,521.937,435.9657" style="stroke:#A80036;stroke-width:1.0;"/><text fill="#000000" font-family="sans-serif" font-size="13" lengthAdjust="spacing" textLength="21" x="522" y="402.0669">get</text><!--MD5=[678b0b523e79cc18d6a39ddec7dade71]
link Member to User--><path codeLine="66" d="M785.411,95.198 C777.249,109.703 768.239,127.295 762,144 C748.705,179.6 740.129,222.963 735.684,249.517 " fill="none" id="Member-to-User" style="stroke:#A80036;stroke-width:1.0;"/><polygon fill="#A80036" points="734.85,254.597,740.2551,246.3638,735.6599,249.663,732.3607,245.0679,734.85,254.597" style="stroke:#A80036;stroke-width:1.0;"/><text fill="#000000" font-family="sans-serif" font-size="13" lengthAdjust="spacing" textLength="31" x="763" y="157.0669">keep</text><!--MD5=[56cdceb58ea8945c902d27c478db40d4]
link WaWITPersonnel to Type--><path codeLine="67" d="M237,114.077 C237,157.144 237,216.873 237,249.797 " fill="none" id="WaWITPersonnel-to-Type" style="stroke:#A80036;stroke-width:1.0;"/><polygon fill="#A80036" points="237,254.845,241,245.845,237,249.845,233,245.845,237,254.845" style="stroke:#A80036;stroke-width:1.0;"/><text fill="#000000" font-family="sans-serif" font-size="13" lengthAdjust="spacing" textLength="32" x="238" y="157.0669">track</text><!--MD5=[1c8e810ed29d12788db66899b41391f0]
link Time to Data--><path codeLine="68" d="M590.556,88.873 C596.201,129.946 607.137,209.517 612.65,249.629 " fill="none" id="Time-to-Data" style="stroke:#A80036;stroke-width:1.0;"/><polygon fill="#A80036" points="613.359,254.786,616.095,245.3248,612.6775,249.8327,608.1696,246.4152,613.359,254.786" style="stroke:#A80036;stroke-width:1.0;"/><text fill="#000000" font-family="sans-serif" font-size="13" lengthAdjust="spacing" textLength="34" x="601" y="157.0669">enter</text><!--MD5=[6ea78f051f3e319303cd0815692e6c9e]
link WaWITPersonnel to Center--><path codeLine="69" d="M205.944,114.2 C172.742,176.207 130.614,281.909 176,359 C207.354,412.2573 280.09,438.0738 320.552,448.7146 " fill="none" id="WaWITPersonnel-to-Center" style="stroke:#A80036;stroke-width:1.0;"/><polygon fill="#A80036" points="325.8,450.0572,318.0714,443.9524,320.9558,448.8186,316.0896,451.703,325.8,450.0572" style="stroke:#A80036;stroke-width:1.0;"/><text fill="#000000" font-family="sans-serif" font-size="13" lengthAdjust="spacing" textLength="23" x="177" y="279.5669">use</text><!--MD5=[97d2cfb5bcfa774d823715ac37549814]
link Member to Portal--><path codeLine="70" d="M820.011,95.363 C826.555,110.049 834.07,127.737 840,144 C853.244,180.319 865.53,223.479 872.647,249.795 " fill="none" id="Member-to-Portal" style="stroke:#A80036;stroke-width:1.0;"/><polygon fill="#A80036" points="874,254.827,875.5254,245.097,872.7015,249.9986,867.7999,247.1746,874,254.827" style="stroke:#A80036;stroke-width:1.0;"/><text fill="#000000" font-family="sans-serif" font-size="13" lengthAdjust="spacing" textLength="44" x="846" y="157.0669">access</text><!--MD5=[a46557d3ac1586d651cc173182b86fba]
link Number to Center--><path codeLine="71" d="M311.569,301.624 C307.005,328.365 302.839,371.172 314,406 C316.907,415.072 322.179,423.894 327.765,431.4946 " fill="none" id="Number-to-Center" style="stroke:#A80036;stroke-width:1.0;"/><polygon fill="#A80036" points="330.887,435.5854,328.6059,426.0043,327.8533,431.6109,322.2467,430.8583,330.887,435.5854" style="stroke:#A80036;stroke-width:1.0;"/><text fill="#000000" font-family="sans-serif" font-size="13" lengthAdjust="spacing" textLength="23" x="315" y="402.0669">use</text><!--MD5=[d371e2ba1e8d429b31547a4c1652534b]
link Client to Center--><path codeLine="72" d="M469.746,333.146 C461.177,342.463 451.784,351.504 442,359 C417.383,377.8618 400.733,366.877 379,389 C367.609,400.5953 360.076,417.2874 355.408,430.9833 " fill="none" id="Client-to-Center" style="stroke:#A80036;stroke-width:1.0;"/><polygon fill="#A80036" points="353.816,435.8786,360.4033,428.5568,355.3623,431.1237,352.7954,426.0828,353.816,435.8786" style="stroke:#A80036;stroke-width:1.0;"/><text fill="#000000" font-family="sans-serif" font-size="13" lengthAdjust="spacing" textLength="34" x="380" y="402.0669">enter</text><!--MD5=[d371e2ba1e8d429b31547a4c1652534b]
link Client to Center--><path codeLine="76" d="M469.886,344.556 C455.095,365.461 437.554,387.7277 419,406 C406.37,418.4377 390.28,429.9401 376.711,438.6705 " fill="none" id="Client-to-Center-1" style="stroke:#A80036;stroke-width:1.0;"/><polygon fill="#A80036" points="372.215,441.5223,381.9578,440.0811,376.4377,438.8449,377.674,433.3248,372.215,441.5223" style="stroke:#A80036;stroke-width:1.0;"/><text fill="#000000" font-family="sans-serif" font-size="13" lengthAdjust="spacing" textLength="23" x="435" y="402.0669">use</text><!--MD5=[739d7960a31d0f675943b8dd580b67ed]
link Member to Event--><path codeLine="73" d="M804.019,95.317 C803.616,110.149 803.198,127.965 803,144 C802.547,180.665 803.475,223.143 804.213,249.294 " fill="none" id="Member-to-Event" style="stroke:#A80036;stroke-width:1.0;"/><polygon fill="#A80036" points="804.367,254.619,808.1056,245.5073,804.2227,249.6211,800.1089,245.7382,804.367,254.619" style="stroke:#A80036;stroke-width:1.0;"/><text fill="#000000" font-family="sans-serif" font-size="13" lengthAdjust="spacing" textLength="31" x="804" y="157.0669">keep</text><!--MD5=[df6ea19a75a24a099638c788fe8077ff]
link WaWITPersonnel to Report--><path codeLine="74" d="M293.792,114.189 C316.433,136.393 341.654,163.565 361,191 C374.122,209.609 385.278,233.043 392.624,250.261 " fill="none" id="WaWITPersonnel-to-Report" style="stroke:#A80036;stroke-width:1.0;"/><polygon fill="#A80036" points="394.594,254.943,394.7914,245.0961,392.6553,250.3342,387.4173,248.198,394.594,254.943" style="stroke:#A80036;stroke-width:1.0;"/><text fill="#000000" font-family="sans-serif" font-size="13" lengthAdjust="spacing" textLength="58" x="339" y="157.0669">generate</text><!--MD5=[589557b2882fb50d14886d47da9368af]
link WaWITPersonnel to Client--><path codeLine="75" d="M307.523,88.649 C339.45,102.236 376.546,120.925 406,144 C428.529,161.649 449.476,184.813 466.756,206.692 " fill="none" id="WaWITPersonnel-to-Client" style="stroke:#A80036;stroke-width:1.0;"/><polygon fill="#A80036" points="469.939,210.761,467.5436,201.2079,466.858,206.823,461.2429,206.1374,469.939,210.761" style="stroke:#A80036;stroke-width:1.0;"/><text fill="#000000" font-family="sans-serif" font-size="13" lengthAdjust="spacing" textLength="49" x="425" y="157.0669">capture</text><!--MD5=[e9549c995802443983072af64e3191aa]
reverse link Time to Client--><path codeLine="77" d="M573.514,101.452 C564.749,126.445 552.978,160.01 542.147,190.891 " fill="none" id="Time-backto-Client" style="stroke:#A80036;stroke-width:1.0;"/><polygon fill="#FFFFFF" points="577.926,88.873,572.1655,93.2108,573.9541,100.1966,579.7146,95.8588,577.926,88.873" style="stroke:#A80036;stroke-width:1.0;"/><!--MD5=[415ef8dd1dc40bf906b2506734fd1728]
link Client to Feedback--><path codeLine="78" d="M555.303,359.212 C568.739,385.6396 582.548,412.8025 592.013,431.4217 " fill="none" id="Client-to-Feedback" style="stroke:#A80036;stroke-width:1.0;"/><polygon fill="#A80036" points="594.323,435.9657,593.8099,426.1302,592.057,431.5086,586.6786,429.7558,594.323,435.9657" style="stroke:#A80036;stroke-width:1.0;"/><text fill="#000000" font-family="sans-serif" font-size="13" lengthAdjust="spacing" textLength="48" x="579" y="402.0669">provide</text><!--MD5=[5f1188a7cb245db93749e131f360a8c7]
link WaWITPersonnel to Appointment--><path codeLine="79" d="M166.178,92.853 C142.298,105.727 117.134,122.771 99,144 C72.4648,175.064 58.7653,221.56 52.5007,249.712 " fill="none" id="WaWITPersonnel-to-Appointment" style="stroke:#A80036;stroke-width:1.0;"/><polygon fill="#A80036" points="51.4161,254.748,57.2216,246.7921,52.469,249.8601,49.4009,245.1075,51.4161,254.748" style="stroke:#A80036;stroke-width:1.0;"/><text fill="#000000" font-family="sans-serif" font-size="13" lengthAdjust="spacing" textLength="32" x="100" y="157.0669">track</text><!--MD5=[cd83a37cec14db6d6368c99cfbbd9d2b]
@startuml
hide circle
class Client<actor> {
	convenience
}
class Board<actor> {
}
class Member<actor> {
}
class WaWITPersonnel<actor> {
}
class WaWITPersonnel {
	analyse()
	use()
	generate()
	track()
	capture()
}
class Appointment {
}
class Center {
}
class Client {
	enter()
	get()
	use()
	show_up()
	check_in()
	provide()
	enroll()
	register()
	save()
}
class Time {
	enter()
}
class Data {
}
class Number {
	use()
}
class Member {
	keep()
	access()
}
class User {
}
class Job {
}
class Service {
	use()
}
class Event {
}
class Feedback {
}
class Portal {
}
class Board {
	share()
}
class Type {
}
class Report {
}
Client - -> Job : get
Member - -> User : keep
WaWITPersonnel - -> Type : track
Time - -> Data : enter
WaWITPersonnel - -> Center : use
Member - -> Portal : access
Number - -> Center : use
Client - -> Center : enter
Member - -> Event : keep
WaWITPersonnel - -> Report : generate
WaWITPersonnel - -> Client : capture
Client - -> Center : use
Time o- - Client
Client - -> Feedback : provide
WaWITPersonnel - -> Appointment : track
@enduml

PlantUML version 1.2021.10beta2(Unknown compile time)
(GPL source distribution)
Java Runtime: Java(TM) SE Runtime Environment
JVM: Java HotSpot(TM) 64-Bit Server VM
Default Encoding: UTF-8
Language: en
Country: US
--></g></svg>