<?xml version="1.0" encoding="UTF-8" standalone="no"?><svg xmlns="http://www.w3.org/2000/svg" xmlns:xlink="http://www.w3.org/1999/xlink" contentScriptType="application/ecmascript" contentStyleType="text/css" height="231px" preserveAspectRatio="none" style="width:623px;height:231px;background:#FFFFFF;" version="1.1" viewBox="0 0 623 231" width="623px" zoomAndPan="magnify"><defs><filter height="300%" id="f1h9lzb6j2ibz9" width="300%" x="-1" y="-1"><feGaussianBlur result="blurOut" stdDeviation="2.0"/><feColorMatrix in="blurOut" result="blurOut2" type="matrix" values="0 0 0 0 0 0 0 0 0 0 0 0 0 0 0 0 0 0 .4 0"/><feOffset dx="4.0" dy="4.0" in="blurOut2" result="blurOut3"/><feBlend in="SourceGraphic" in2="blurOut3" mode="normal"/></filter></defs><g><!--MD5=[7e60c9637a3e1c3cd06babfa3271b00a]
class SaleAgent--><rect codeLine="6" fill="#FEFECE" filter="url(#f1h9lzb6j2ibz9)" height="91.1875" id="SaleAgent" style="stroke:#A80036;stroke-width:1.5;" width="102" x="122" y="10"/><text fill="#000000" font-family="sans-serif" font-size="12" lengthAdjust="spacing" textLength="61" x="125" y="26.1387">SaleAgent</text><rect fill="#FFFFFF" height="15.9688" style="stroke:#000000;stroke-width:1.0;stroke-dasharray:2.0,2.0;" width="33" x="194" y="7"/><text fill="#000000" font-family="sans-serif" font-size="12" font-style="italic" lengthAdjust="spacing" textLength="31" x="195" y="19.1387">actor</text><line style="stroke:#A80036;stroke-width:1.5;" x1="123" x2="223" y1="33.9688" y2="33.9688"/><line style="stroke:#A80036;stroke-width:1.5;" x1="123" x2="223" y1="41.9688" y2="41.9688"/><text fill="#000000" font-family="sans-serif" font-size="11" lengthAdjust="spacing" textLength="38" x="128" y="56.1792">close()</text><text fill="#000000" font-family="sans-serif" font-size="11" lengthAdjust="spacing" textLength="52" x="128" y="68.9839">request()</text><text fill="#000000" font-family="sans-serif" font-size="11" lengthAdjust="spacing" textLength="62" x="128" y="81.7886">clicktocall()</text><text fill="#000000" font-family="sans-serif" font-size="11" lengthAdjust="spacing" textLength="36" x="128" y="94.5933">save()</text><!--MD5=[e8cbdd84d283a3a5c9a98727ec403a0a]
class SaleManager--><rect codeLine="14" fill="#FEFECE" filter="url(#f1h9lzb6j2ibz9)" height="78.3828" id="SaleManager" style="stroke:#A80036;stroke-width:1.5;" width="119" x="444.5" y="16.5"/><text fill="#000000" font-family="sans-serif" font-size="12" lengthAdjust="spacing" textLength="78" x="447.5" y="32.6387">SaleManager</text><rect fill="#FFFFFF" height="15.9688" style="stroke:#000000;stroke-width:1.0;stroke-dasharray:2.0,2.0;" width="33" x="533.5" y="13.5"/><text fill="#000000" font-family="sans-serif" font-size="12" font-style="italic" lengthAdjust="spacing" textLength="31" x="534.5" y="25.6387">actor</text><line style="stroke:#A80036;stroke-width:1.5;" x1="445.5" x2="562.5" y1="40.4688" y2="40.4688"/><line style="stroke:#A80036;stroke-width:1.5;" x1="445.5" x2="562.5" y1="48.4688" y2="48.4688"/><text fill="#000000" font-family="sans-serif" font-size="11" lengthAdjust="spacing" textLength="33" x="450.5" y="62.6792">train()</text><text fill="#000000" font-family="sans-serif" font-size="11" lengthAdjust="spacing" textLength="29" x="450.5" y="75.4839">use()</text><text fill="#000000" font-family="sans-serif" font-size="11" lengthAdjust="spacing" textLength="46" x="450.5" y="88.2886">assure()</text><!--MD5=[e0bd77868626c22cfc0c5aeed1b8d67f]
class Sale--><rect codeLine="12" fill="#FEFECE" filter="url(#f1h9lzb6j2ibz9)" height="39.9688" id="Sale" style="stroke:#A80036;stroke-width:1.5;" width="32" x="7" y="178"/><text fill="#000000" font-family="sans-serif" font-size="12" lengthAdjust="spacing" textLength="26" x="10" y="194.1387">Sale</text><line style="stroke:#A80036;stroke-width:1.5;" x1="8" x2="38" y1="201.9688" y2="201.9688"/><line style="stroke:#A80036;stroke-width:1.5;" x1="8" x2="38" y1="209.9688" y2="209.9688"/><!--MD5=[abb2a7cdedb14efb5af1120e5b6f0439]
class Recording--><rect codeLine="19" fill="#FEFECE" filter="url(#f1h9lzb6j2ibz9)" height="39.9688" id="Recording" style="stroke:#A80036;stroke-width:1.5;" width="67" x="378.5" y="178"/><text fill="#000000" font-family="sans-serif" font-size="12" lengthAdjust="spacing" textLength="61" x="381.5" y="194.1387">Recording</text><line style="stroke:#A80036;stroke-width:1.5;" x1="379.5" x2="444.5" y1="201.9688" y2="201.9688"/><line style="stroke:#A80036;stroke-width:1.5;" x1="379.5" x2="444.5" y1="209.9688" y2="209.9688"/><!--MD5=[3231c3d3ce17334343e5bf63c69a3780]
class ConferenceCall--><rect codeLine="21" fill="#FEFECE" filter="url(#f1h9lzb6j2ibz9)" height="39.9688" id="ConferenceCall" style="stroke:#A80036;stroke-width:1.5;" width="97" x="74.5" y="178"/><text fill="#000000" font-family="sans-serif" font-size="12" lengthAdjust="spacing" textLength="91" x="77.5" y="194.1387">ConferenceCall</text><line style="stroke:#A80036;stroke-width:1.5;" x1="75.5" x2="170.5" y1="201.9688" y2="201.9688"/><line style="stroke:#A80036;stroke-width:1.5;" x1="75.5" x2="170.5" y1="209.9688" y2="209.9688"/><!--MD5=[2e42295458bb0bec21c9622a623eb29e]
class Time--><rect codeLine="23" fill="#FEFECE" filter="url(#f1h9lzb6j2ibz9)" height="39.9688" id="Time" style="stroke:#A80036;stroke-width:1.5;" width="35" x="206.5" y="178"/><text fill="#000000" font-family="sans-serif" font-size="12" lengthAdjust="spacing" textLength="29" x="209.5" y="194.1387">Time</text><line style="stroke:#A80036;stroke-width:1.5;" x1="207.5" x2="240.5" y1="201.9688" y2="201.9688"/><line style="stroke:#A80036;stroke-width:1.5;" x1="207.5" x2="240.5" y1="209.9688" y2="209.9688"/><!--MD5=[fab76ac332c6d72510aaae6c360fa182]
class Quality--><rect codeLine="25" fill="#FEFECE" filter="url(#f1h9lzb6j2ibz9)" height="39.9688" id="Quality" style="stroke:#A80036;stroke-width:1.5;" width="47" x="480.5" y="178"/><text fill="#000000" font-family="sans-serif" font-size="12" lengthAdjust="spacing" textLength="41" x="483.5" y="194.1387">Quality</text><line style="stroke:#A80036;stroke-width:1.5;" x1="481.5" x2="526.5" y1="201.9688" y2="201.9688"/><line style="stroke:#A80036;stroke-width:1.5;" x1="481.5" x2="526.5" y1="209.9688" y2="209.9688"/><!--MD5=[9d44916250b776386006c440668bcfbb]
class Agent--><rect codeLine="27" fill="#FEFECE" filter="url(#f1h9lzb6j2ibz9)" height="39.9688" id="Agent" style="stroke:#A80036;stroke-width:1.5;" width="41" x="568.5" y="178"/><text fill="#000000" font-family="sans-serif" font-size="12" lengthAdjust="spacing" textLength="35" x="571.5" y="194.1387">Agent</text><line style="stroke:#A80036;stroke-width:1.5;" x1="569.5" x2="608.5" y1="201.9688" y2="201.9688"/><line style="stroke:#A80036;stroke-width:1.5;" x1="569.5" x2="608.5" y1="209.9688" y2="209.9688"/><!--MD5=[2ce0c9fb7f55b1e256ab28a8ea6b25ec]
class Customer--><rect codeLine="29" fill="#FEFECE" filter="url(#f1h9lzb6j2ibz9)" height="39.9688" id="Customer" style="stroke:#A80036;stroke-width:1.5;" width="64" x="277" y="178"/><text fill="#000000" font-family="sans-serif" font-size="12" lengthAdjust="spacing" textLength="58" x="280" y="194.1387">Customer</text><line style="stroke:#A80036;stroke-width:1.5;" x1="278" x2="340" y1="201.9688" y2="201.9688"/><line style="stroke:#A80036;stroke-width:1.5;" x1="278" x2="340" y1="209.9688" y2="209.9688"/><!--MD5=[410077e8f1d045423a2b2625eaf00a48]
link SaleManager to Agent--><path codeLine="31" d="M527.781,94.696 C534.967,106.324 542.847,119.1599 550,131 C558.458,145.0014 567.784,160.7715 575.195,173.3847 " fill="none" id="SaleManager-to-Agent" style="stroke:#A80036;stroke-width:1.0;"/><polygon fill="#A80036" points="577.834,177.8797,576.7282,168.0931,575.3031,173.5675,569.8287,172.1425,577.834,177.8797" style="stroke:#A80036;stroke-width:1.0;"/><text fill="#000000" font-family="sans-serif" font-size="13" lengthAdjust="spacing" textLength="29" x="561" y="144.0669">train</text><!--MD5=[5ddfc1ecd5a0f1d3b4408454fbb3038b]
link SaleAgent to Time--><path codeLine="32" d="M189.277,101.341 C197.93,125.1806 208.221,153.5316 215.342,173.1494 " fill="none" id="SaleAgent-to-Time" style="stroke:#A80036;stroke-width:1.0;"/><polygon fill="#A80036" points="217.082,177.9408,217.7709,168.1161,215.3759,173.2409,210.2511,170.8458,217.082,177.9408" style="stroke:#A80036;stroke-width:1.0;"/><text fill="#000000" font-family="sans-serif" font-size="13" lengthAdjust="spacing" textLength="31" x="208" y="144.0669">save</text><!--MD5=[9d932af400d3075b1874a80283a53c78]
link SaleAgent to Customer--><path codeLine="33" d="M218.526,101.103 C228.326,110.877 238.571,121.2253 248,131 C261.547,145.0441 276.416,161.1178 288.082,173.8863 " fill="none" id="SaleAgent-to-Customer" style="stroke:#A80036;stroke-width:1.0;"/><polygon fill="#A80036" points="291.595,177.7369,288.4833,168.3925,288.2248,174.0435,282.5738,173.7849,291.595,177.7369" style="stroke:#A80036;stroke-width:1.0;"/><text fill="#000000" font-family="sans-serif" font-size="13" lengthAdjust="spacing" textLength="61" x="265" y="144.0669">clicktocall</text><!--MD5=[c7493935afbd7640a65cff07ebd56c87]
link SaleManager to Recording--><path codeLine="34" d="M479.103,94.521 C462.609,119.7109 441.493,151.9586 427.396,173.4873 " fill="none" id="SaleManager-to-Recording" style="stroke:#A80036;stroke-width:1.0;"/><polygon fill="#A80036" points="424.499,177.9122,432.7757,172.5741,427.2381,173.7292,426.083,168.1915,424.499,177.9122" style="stroke:#A80036;stroke-width:1.0;"/><text fill="#000000" font-family="sans-serif" font-size="13" lengthAdjust="spacing" textLength="23" x="454" y="144.0669">use</text><!--MD5=[70961451184f4e090aa306266544c69b]
link SaleManager to Quality--><path codeLine="35" d="M501.664,94.785 C500.944,111.174 500.466,130.5248 501,148 C501.246,156.0291 501.717,164.7878 502.215,172.6506 " fill="none" id="SaleManager-to-Quality" style="stroke:#A80036;stroke-width:1.0;"/><polygon fill="#A80036" points="502.561,177.931,505.9634,168.6885,502.2338,172.9417,497.9805,169.2121,502.561,177.931" style="stroke:#A80036;stroke-width:1.0;"/><text fill="#000000" font-family="sans-serif" font-size="13" lengthAdjust="spacing" textLength="43" x="502" y="144.0669">assure</text><!--MD5=[b380e1473d6b83a63fec10f675b50e42]
link SaleAgent to ConferenceCall--><path codeLine="36" d="M143.228,101.191 C138.049,110.697 133.281,120.9173 130,131 C125.664,144.3267 123.868,159.8878 123.177,172.5521 " fill="none" id="SaleAgent-to-ConferenceCall" style="stroke:#A80036;stroke-width:1.0;"/><polygon fill="#A80036" points="122.945,177.7874,127.3406,168.9739,123.167,172.7923,119.3485,168.6187,122.945,177.7874" style="stroke:#A80036;stroke-width:1.0;"/><text fill="#000000" font-family="sans-serif" font-size="13" lengthAdjust="spacing" textLength="49" x="131" y="144.0669">request</text><!--MD5=[626c302e54f5c55fc7d80a78ba5c4543]
link SaleAgent to Sale--><path codeLine="37" d="M121.664,97.567 C109.072,108.155 95.8211,119.7456 84,131 C69.5602,144.7476 54.3376,161.2147 42.7113,174.2613 " fill="none" id="SaleAgent-to-Sale" style="stroke:#A80036;stroke-width:1.0;"/><polygon fill="#A80036" points="39.2235,178.1937,48.1881,174.115,42.5414,174.4531,42.2032,168.8064,39.2235,178.1937" style="stroke:#A80036;stroke-width:1.0;"/><text fill="#000000" font-family="sans-serif" font-size="13" lengthAdjust="spacing" textLength="33" x="85" y="144.0669">close</text><!--MD5=[c535f7c1e8982180ad289625835d2515]
@startuml
hide circle
class SaleAgent<actor> {
}
class SaleManager<actor> {
}
class SaleAgent {
	close()
	request()
	clicktocall()
	save()
}
class Sale {
}
class SaleManager {
	train()
	use()
	assure()
}
class Recording {
}
class ConferenceCall {
}
class Time {
}
class Quality {
}
class Agent {
}
class Customer {
}
SaleManager - -> Agent : train
SaleAgent - -> Time : save
SaleAgent - -> Customer : clicktocall
SaleManager - -> Recording : use
SaleManager - -> Quality : assure
SaleAgent - -> ConferenceCall : request
SaleAgent - -> Sale : close
@enduml

PlantUML version 1.2021.6beta6(Unknown compile time)
(GPL source distribution)
Java Runtime: Java(TM) SE Runtime Environment
JVM: Java HotSpot(TM) 64-Bit Server VM
Default Encoding: UTF-8
Language: en
Country: US
--></g></svg>