<?xml version="1.0" encoding="UTF-8" standalone="no"?><svg xmlns="http://www.w3.org/2000/svg" xmlns:xlink="http://www.w3.org/1999/xlink" contentScriptType="application/ecmascript" contentStyleType="text/css" height="425px" preserveAspectRatio="none" style="width:2024px;height:425px;background:#FFFFFF;" version="1.1" viewBox="0 0 2024 425" width="2024px" zoomAndPan="magnify"><defs><filter height="300%" id="f1auy0x0z7gg4p" width="300%" x="-1" y="-1"><feGaussianBlur result="blurOut" stdDeviation="2.0"/><feColorMatrix in="blurOut" result="blurOut2" type="matrix" values="0 0 0 0 0 0 0 0 0 0 0 0 0 0 0 0 0 0 .4 0"/><feOffset dx="4.0" dy="4.0" in="blurOut2" result="blurOut3"/><feBlend in="SourceGraphic" in2="blurOut3" mode="normal"/></filter></defs><g><!--MD5=[eee9d396a8aca12c6c152931e8dc1ab6]
class Driver--><rect codeLine="28" fill="#FEFECE" filter="url(#f1auy0x0z7gg4p)" height="91.1875" id="Driver" style="stroke:#A80036;stroke-width:1.5;" width="78" x="109.5" y="191"/><text fill="#000000" font-family="sans-serif" font-size="12" lengthAdjust="spacing" textLength="37" x="112.5" y="207.1387">Driver</text><rect fill="#FFFFFF" height="15.9688" style="stroke:#000000;stroke-width:1.0;stroke-dasharray:2.0,2.0;" width="33" x="157.5" y="188"/><text fill="#000000" font-family="sans-serif" font-size="12" font-style="italic" lengthAdjust="spacing" textLength="31" x="158.5" y="200.1387">actor</text><line style="stroke:#A80036;stroke-width:1.5;" x1="110.5" x2="186.5" y1="214.9688" y2="214.9688"/><line style="stroke:#A80036;stroke-width:1.5;" x1="110.5" x2="186.5" y1="222.9688" y2="222.9688"/><text fill="#000000" font-family="sans-serif" font-size="11" lengthAdjust="spacing" textLength="45" x="115.5" y="237.1792">create()</text><text fill="#000000" font-family="sans-serif" font-size="11" lengthAdjust="spacing" textLength="43" x="115.5" y="249.9839">select()</text><text fill="#000000" font-family="sans-serif" font-size="11" lengthAdjust="spacing" textLength="37" x="115.5" y="262.7886">have()</text><text fill="#000000" font-family="sans-serif" font-size="11" lengthAdjust="spacing" textLength="61" x="115.5" y="275.5933">message()</text><!--MD5=[02e4b9b7573f1156f41e60aa5b4e25a4]
class Company--><rect codeLine="46" fill="#FEFECE" filter="url(#f1auy0x0z7gg4p)" height="91.1875" id="Company" style="stroke:#A80036;stroke-width:1.5;" width="97" x="1378" y="10"/><text fill="#000000" font-family="sans-serif" font-size="12" lengthAdjust="spacing" textLength="56" x="1381" y="26.1387">Company</text><rect fill="#FFFFFF" height="15.9688" style="stroke:#000000;stroke-width:1.0;stroke-dasharray:2.0,2.0;" width="33" x="1445" y="7"/><text fill="#000000" font-family="sans-serif" font-size="12" font-style="italic" lengthAdjust="spacing" textLength="31" x="1446" y="19.1387">actor</text><line style="stroke:#A80036;stroke-width:1.5;" x1="1379" x2="1474" y1="33.9688" y2="33.9688"/><line style="stroke:#A80036;stroke-width:1.5;" x1="1379" x2="1474" y1="41.9688" y2="41.9688"/><text fill="#000000" font-family="sans-serif" font-size="11" lengthAdjust="spacing" textLength="52" x="1384" y="56.1792">receive()</text><text fill="#000000" font-family="sans-serif" font-size="11" lengthAdjust="spacing" textLength="46" x="1384" y="68.9839">control()</text><text fill="#000000" font-family="sans-serif" font-size="11" lengthAdjust="spacing" textLength="35" x="1384" y="81.7886">offer()</text><text fill="#000000" font-family="sans-serif" font-size="11" lengthAdjust="spacing" textLength="46" x="1384" y="94.5933">accept()</text><!--MD5=[523021a3bf93a6ec27c557f3441ae10a]
class Establishment--><rect codeLine="58" fill="#FEFECE" filter="url(#f1auy0x0z7gg4p)" height="65.5781" id="Establishment" style="stroke:#A80036;stroke-width:1.5;" width="124" x="1033.5" y="22.5"/><text fill="#000000" font-family="sans-serif" font-size="12" lengthAdjust="spacing" textLength="83" x="1036.5" y="38.6387">Establishment</text><rect fill="#FFFFFF" height="15.9688" style="stroke:#000000;stroke-width:1.0;stroke-dasharray:2.0,2.0;" width="33" x="1127.5" y="19.5"/><text fill="#000000" font-family="sans-serif" font-size="12" font-style="italic" lengthAdjust="spacing" textLength="31" x="1128.5" y="31.6387">actor</text><line style="stroke:#A80036;stroke-width:1.5;" x1="1034.5" x2="1156.5" y1="46.4688" y2="46.4688"/><line style="stroke:#A80036;stroke-width:1.5;" x1="1034.5" x2="1156.5" y1="54.4688" y2="54.4688"/><text fill="#000000" font-family="sans-serif" font-size="11" lengthAdjust="spacing" textLength="36" x="1039.5" y="68.6792">send()</text><text fill="#000000" font-family="sans-serif" font-size="11" lengthAdjust="spacing" textLength="44" x="1039.5" y="81.4839">attract()</text><!--MD5=[2ce0c9fb7f55b1e256ab28a8ea6b25ec]
class Customer--><rect codeLine="22" fill="#FEFECE" filter="url(#f1auy0x0z7gg4p)" height="65.5781" id="Customer" style="stroke:#A80036;stroke-width:1.5;" width="99" x="968" y="203.5"/><text fill="#000000" font-family="sans-serif" font-size="12" lengthAdjust="spacing" textLength="58" x="971" y="219.6387">Customer</text><rect fill="#FFFFFF" height="15.9688" style="stroke:#000000;stroke-width:1.0;stroke-dasharray:2.0,2.0;" width="33" x="1037" y="200.5"/><text fill="#000000" font-family="sans-serif" font-size="12" font-style="italic" lengthAdjust="spacing" textLength="31" x="1038" y="212.6387">actor</text><line style="stroke:#A80036;stroke-width:1.5;" x1="969" x2="1066" y1="227.4688" y2="227.4688"/><line style="stroke:#A80036;stroke-width:1.5;" x1="969" x2="1066" y1="235.4688" y2="235.4688"/><text fill="#000000" font-family="sans-serif" font-size="11" lengthAdjust="spacing" textLength="39" x="974" y="249.6792">enter()</text><text fill="#000000" font-family="sans-serif" font-size="11" lengthAdjust="spacing" textLength="52" x="974" y="262.4839">request()</text><!--MD5=[361e73a814e28ed043957a958c9da4ce]
class Operator--><rect codeLine="36" fill="#FEFECE" filter="url(#f1auy0x0z7gg4p)" height="116.7969" id="Operator" style="stroke:#A80036;stroke-width:1.5;" width="96" x="562.5" y="178"/><text fill="#000000" font-family="sans-serif" font-size="12" lengthAdjust="spacing" textLength="55" x="565.5" y="194.1387">Operator</text><rect fill="#FFFFFF" height="15.9688" style="stroke:#000000;stroke-width:1.0;stroke-dasharray:2.0,2.0;" width="33" x="628.5" y="175"/><text fill="#000000" font-family="sans-serif" font-size="12" font-style="italic" lengthAdjust="spacing" textLength="31" x="629.5" y="187.1387">actor</text><line style="stroke:#A80036;stroke-width:1.5;" x1="563.5" x2="657.5" y1="201.9688" y2="201.9688"/><line style="stroke:#A80036;stroke-width:1.5;" x1="563.5" x2="657.5" y1="209.9688" y2="209.9688"/><text fill="#000000" font-family="sans-serif" font-size="11" lengthAdjust="spacing" textLength="29" x="568.5" y="224.1792">add()</text><text fill="#000000" font-family="sans-serif" font-size="11" lengthAdjust="spacing" textLength="35" x="568.5" y="236.9839">track()</text><text fill="#000000" font-family="sans-serif" font-size="11" lengthAdjust="spacing" textLength="52" x="568.5" y="249.7886">receive()</text><text fill="#000000" font-family="sans-serif" font-size="11" lengthAdjust="spacing" textLength="36" x="568.5" y="262.5933">send()</text><text fill="#000000" font-family="sans-serif" font-size="11" lengthAdjust="spacing" textLength="54" x="568.5" y="275.3979">retrieve()</text><text fill="#000000" font-family="sans-serif" font-size="11" lengthAdjust="spacing" textLength="37" x="568.5" y="288.2026">have()</text><!--MD5=[4741ae9b66e8c8909830097dcbdef570]
class Head--><rect codeLine="16" fill="#FEFECE" filter="url(#f1auy0x0z7gg4p)" height="65.5781" id="Head" style="stroke:#A80036;stroke-width:1.5;" width="73" x="1796" y="22.5"/><text fill="#000000" font-family="sans-serif" font-size="12" lengthAdjust="spacing" textLength="32" x="1799" y="38.6387">Head</text><rect fill="#FFFFFF" height="15.9688" style="stroke:#000000;stroke-width:1.0;stroke-dasharray:2.0,2.0;" width="33" x="1839" y="19.5"/><text fill="#000000" font-family="sans-serif" font-size="12" font-style="italic" lengthAdjust="spacing" textLength="31" x="1840" y="31.6387">actor</text><line style="stroke:#A80036;stroke-width:1.5;" x1="1797" x2="1868" y1="46.4688" y2="46.4688"/><line style="stroke:#A80036;stroke-width:1.5;" x1="1797" x2="1868" y1="54.4688" y2="54.4688"/><text fill="#000000" font-family="sans-serif" font-size="11" lengthAdjust="spacing" textLength="26" x="1802" y="68.6792">set()</text><text fill="#000000" font-family="sans-serif" font-size="11" lengthAdjust="spacing" textLength="42" x="1802" y="81.4839">adjust()</text><!--MD5=[3fd616f346a44cd59a91eb10b19e157c]
class User--><rect codeLine="66" fill="#FEFECE" filter="url(#f1auy0x0z7gg4p)" height="52.7734" id="User" style="stroke:#A80036;stroke-width:1.5;" width="70" x="1935.5" y="29"/><text fill="#000000" font-family="sans-serif" font-size="12" lengthAdjust="spacing" textLength="29" x="1938.5" y="45.1387">User</text><rect fill="#FFFFFF" height="15.9688" style="stroke:#000000;stroke-width:1.0;stroke-dasharray:2.0,2.0;" width="33" x="1975.5" y="26"/><text fill="#000000" font-family="sans-serif" font-size="12" font-style="italic" lengthAdjust="spacing" textLength="31" x="1976.5" y="38.1387">actor</text><line style="stroke:#A80036;stroke-width:1.5;" x1="1936.5" x2="2004.5" y1="52.9688" y2="52.9688"/><line style="stroke:#A80036;stroke-width:1.5;" x1="1936.5" x2="2004.5" y1="60.9688" y2="60.9688"/><text fill="#000000" font-family="sans-serif" font-size="11" lengthAdjust="spacing" textLength="49" x="1941.5" y="75.1792">include()</text><!--MD5=[a40a7ac4b423335b0d34bf16cf36e547]
class Price--><rect codeLine="20" fill="#FEFECE" filter="url(#f1auy0x0z7gg4p)" height="39.9688" id="Price" style="stroke:#A80036;stroke-width:1.5;" width="35" x="1784" y="216.5"/><text fill="#000000" font-family="sans-serif" font-size="12" lengthAdjust="spacing" textLength="29" x="1787" y="232.6387">Price</text><line style="stroke:#A80036;stroke-width:1.5;" x1="1785" x2="1818" y1="240.4688" y2="240.4688"/><line style="stroke:#A80036;stroke-width:1.5;" x1="1785" x2="1818" y1="248.4688" y2="248.4688"/><!--MD5=[f4611e6df6d2aade4810cb7bdec70d80]
class TicketNumber--><rect codeLine="26" fill="#FEFECE" filter="url(#f1auy0x0z7gg4p)" height="39.9688" id="TicketNumber" style="stroke:#A80036;stroke-width:1.5;" width="89" x="1019" y="372"/><text fill="#000000" font-family="sans-serif" font-size="12" lengthAdjust="spacing" textLength="83" x="1022" y="388.1387">TicketNumber</text><line style="stroke:#A80036;stroke-width:1.5;" x1="1020" x2="1107" y1="395.9688" y2="395.9688"/><line style="stroke:#A80036;stroke-width:1.5;" x1="1020" x2="1107" y1="403.9688" y2="403.9688"/><!--MD5=[7b57f7066b803747d2119f99dd1555d4]
class Profile--><rect codeLine="34" fill="#FEFECE" filter="url(#f1auy0x0z7gg4p)" height="39.9688" id="Profile" style="stroke:#A80036;stroke-width:1.5;" width="43" x="7" y="372"/><text fill="#000000" font-family="sans-serif" font-size="12" lengthAdjust="spacing" textLength="37" x="10" y="388.1387">Profile</text><line style="stroke:#A80036;stroke-width:1.5;" x1="8" x2="49" y1="395.9688" y2="395.9688"/><line style="stroke:#A80036;stroke-width:1.5;" x1="8" x2="49" y1="403.9688" y2="403.9688"/><!--MD5=[3f0ef310aaa84a542276992c5216544d]
class Car--><rect codeLine="44" fill="#FEFECE" filter="url(#f1auy0x0z7gg4p)" height="39.9688" id="Car" style="stroke:#A80036;stroke-width:1.5;" width="26" x="927.5" y="372"/><text fill="#000000" font-family="sans-serif" font-size="12" lengthAdjust="spacing" textLength="20" x="930.5" y="388.1387">Car</text><line style="stroke:#A80036;stroke-width:1.5;" x1="928.5" x2="952.5" y1="395.9688" y2="395.9688"/><line style="stroke:#A80036;stroke-width:1.5;" x1="928.5" x2="952.5" y1="403.9688" y2="403.9688"/><!--MD5=[764fca796ce7f635542948d8fc39db5e]
class Payment--><rect codeLine="52" fill="#FEFECE" filter="url(#f1auy0x0z7gg4p)" height="39.9688" id="Payment" style="stroke:#A80036;stroke-width:1.5;" width="56" x="1231.5" y="216.5"/><text fill="#000000" font-family="sans-serif" font-size="12" lengthAdjust="spacing" textLength="50" x="1234.5" y="232.6387">Payment</text><line style="stroke:#A80036;stroke-width:1.5;" x1="1232.5" x2="1286.5" y1="240.4688" y2="240.4688"/><line style="stroke:#A80036;stroke-width:1.5;" x1="1232.5" x2="1286.5" y1="248.4688" y2="248.4688"/><!--MD5=[b07065dfc0d0e09965ec10bfc328bb3e]
class Option--><rect codeLine="54" fill="#FEFECE" filter="url(#f1auy0x0z7gg4p)" height="39.9688" id="Option" style="stroke:#A80036;stroke-width:1.5;" width="46" x="87.5" y="372"/><text fill="#000000" font-family="sans-serif" font-size="12" lengthAdjust="spacing" textLength="40" x="90.5" y="388.1387">Option</text><line style="stroke:#A80036;stroke-width:1.5;" x1="88.5" x2="132.5" y1="395.9688" y2="395.9688"/><line style="stroke:#A80036;stroke-width:1.5;" x1="88.5" x2="132.5" y1="403.9688" y2="403.9688"/><!--MD5=[7421f545a0d8420c5bec41e74b387d9c]
class Employee--><rect codeLine="56" fill="#FEFECE" filter="url(#f1auy0x0z7gg4p)" height="39.9688" id="Employee" style="stroke:#A80036;stroke-width:1.5;" width="66" x="577.5" y="372"/><text fill="#000000" font-family="sans-serif" font-size="12" lengthAdjust="spacing" textLength="60" x="580.5" y="388.1387">Employee</text><line style="stroke:#A80036;stroke-width:1.5;" x1="578.5" x2="642.5" y1="395.9688" y2="395.9688"/><line style="stroke:#A80036;stroke-width:1.5;" x1="578.5" x2="642.5" y1="403.9688" y2="403.9688"/><!--MD5=[96a16f046dcf5a9f7fab5dd2542af37b]
class Advertisement--><rect codeLine="62" fill="#FEFECE" filter="url(#f1auy0x0z7gg4p)" height="39.9688" id="Advertisement" style="stroke:#A80036;stroke-width:1.5;" width="94" x="1102.5" y="216.5"/><text fill="#000000" font-family="sans-serif" font-size="12" lengthAdjust="spacing" textLength="88" x="1105.5" y="232.6387">Advertisement</text><line style="stroke:#A80036;stroke-width:1.5;" x1="1103.5" x2="1195.5" y1="240.4688" y2="240.4688"/><line style="stroke:#A80036;stroke-width:1.5;" x1="1103.5" x2="1195.5" y1="248.4688" y2="248.4688"/><!--MD5=[4555bb1b0911a5adf28ce6dbe60fed2e]
class Transaction--><rect codeLine="64" fill="#FEFECE" filter="url(#f1auy0x0z7gg4p)" height="39.9688" id="Transaction" style="stroke:#A80036;stroke-width:1.5;" width="75" x="679" y="372"/><text fill="#000000" font-family="sans-serif" font-size="12" lengthAdjust="spacing" textLength="69" x="682" y="388.1387">Transaction</text><line style="stroke:#A80036;stroke-width:1.5;" x1="680" x2="753" y1="395.9688" y2="395.9688"/><line style="stroke:#A80036;stroke-width:1.5;" x1="680" x2="753" y1="403.9688" y2="403.9688"/><!--MD5=[30fd7b95ab383a5e7c83ea23d4ea0fbf]
class Information--><rect codeLine="69" fill="#FEFECE" filter="url(#f1auy0x0z7gg4p)" height="39.9688" id="Information" style="stroke:#A80036;stroke-width:1.5;" width="73" x="1934" y="216.5"/><text fill="#000000" font-family="sans-serif" font-size="12" lengthAdjust="spacing" textLength="67" x="1937" y="232.6387">Information</text><line style="stroke:#A80036;stroke-width:1.5;" x1="1935" x2="2006" y1="240.4688" y2="240.4688"/><line style="stroke:#A80036;stroke-width:1.5;" x1="1935" x2="2006" y1="248.4688" y2="248.4688"/><!--MD5=[76b5e19c9337179d2d7ae334371d68c8]
class Notification--><rect codeLine="71" fill="#FEFECE" filter="url(#f1auy0x0z7gg4p)" height="39.9688" id="Notification" style="stroke:#A80036;stroke-width:1.5;" width="72" x="789.5" y="372"/><text fill="#000000" font-family="sans-serif" font-size="12" lengthAdjust="spacing" textLength="66" x="792.5" y="388.1387">Notification</text><line style="stroke:#A80036;stroke-width:1.5;" x1="790.5" x2="860.5" y1="395.9688" y2="395.9688"/><line style="stroke:#A80036;stroke-width:1.5;" x1="790.5" x2="860.5" y1="403.9688" y2="403.9688"/><!--MD5=[7d7a39b6f6358b34427bb908063b0957]
class PaymentOption--><rect codeLine="73" fill="#FEFECE" filter="url(#f1auy0x0z7gg4p)" height="39.9688" id="PaymentOption" style="stroke:#A80036;stroke-width:1.5;" width="96" x="1322.5" y="216.5"/><text fill="#000000" font-family="sans-serif" font-size="12" lengthAdjust="spacing" textLength="90" x="1325.5" y="232.6387">PaymentOption</text><line style="stroke:#A80036;stroke-width:1.5;" x1="1323.5" x2="1417.5" y1="240.4688" y2="240.4688"/><line style="stroke:#A80036;stroke-width:1.5;" x1="1323.5" x2="1417.5" y1="248.4688" y2="248.4688"/><!--MD5=[4561320b770465f913c77565ad1b4c2d]
class Valet--><rect codeLine="75" fill="#FEFECE" filter="url(#f1auy0x0z7gg4p)" height="39.9688" id="Valet" style="stroke:#A80036;stroke-width:1.5;" width="36" x="168.5" y="372"/><text fill="#000000" font-family="sans-serif" font-size="12" lengthAdjust="spacing" textLength="30" x="171.5" y="388.1387">Valet</text><line style="stroke:#A80036;stroke-width:1.5;" x1="169.5" x2="203.5" y1="395.9688" y2="395.9688"/><line style="stroke:#A80036;stroke-width:1.5;" x1="169.5" x2="203.5" y1="403.9688" y2="403.9688"/><!--MD5=[412b3778b858f78f2b600242c4382785]
class Revenue--><rect codeLine="77" fill="#FEFECE" filter="url(#f1auy0x0z7gg4p)" height="39.9688" id="Revenue" style="stroke:#A80036;stroke-width:1.5;" width="58" x="1453.5" y="216.5"/><text fill="#000000" font-family="sans-serif" font-size="12" lengthAdjust="spacing" textLength="52" x="1456.5" y="232.6387">Revenue</text><line style="stroke:#A80036;stroke-width:1.5;" x1="1454.5" x2="1510.5" y1="240.4688" y2="240.4688"/><line style="stroke:#A80036;stroke-width:1.5;" x1="1454.5" x2="1510.5" y1="248.4688" y2="248.4688"/><!--MD5=[4f1f3706c1a355a8488e154afcaed5df]
class Location--><rect codeLine="79" fill="#FEFECE" filter="url(#f1auy0x0z7gg4p)" height="39.9688" id="Location" style="stroke:#A80036;stroke-width:1.5;" width="56" x="290.5" y="372"/><text fill="#000000" font-family="sans-serif" font-size="12" lengthAdjust="spacing" textLength="50" x="293.5" y="388.1387">Location</text><line style="stroke:#A80036;stroke-width:1.5;" x1="291.5" x2="345.5" y1="395.9688" y2="395.9688"/><line style="stroke:#A80036;stroke-width:1.5;" x1="291.5" x2="345.5" y1="403.9688" y2="403.9688"/><!--MD5=[3a4c166a60d6787da203754482b8bd14]
class EmailTransactionSummaryReport--><rect codeLine="81" fill="#FEFECE" filter="url(#f1auy0x0z7gg4p)" height="39.9688" id="EmailTransactionSummaryReport" style="stroke:#A80036;stroke-width:1.5;" width="202" x="1546.5" y="216.5"/><text fill="#000000" font-family="sans-serif" font-size="12" lengthAdjust="spacing" textLength="196" x="1549.5" y="232.6387">EmailTransactionSummaryReport</text><line style="stroke:#A80036;stroke-width:1.5;" x1="1547.5" x2="1747.5" y1="240.4688" y2="240.4688"/><line style="stroke:#A80036;stroke-width:1.5;" x1="1547.5" x2="1747.5" y1="248.4688" y2="248.4688"/><!--MD5=[b2bc021cc86aa2558e9589819995bf4e]
class Pricing--><rect codeLine="83" fill="#FEFECE" filter="url(#f1auy0x0z7gg4p)" height="39.9688" id="Pricing" style="stroke:#A80036;stroke-width:1.5;" width="45" x="1854" y="216.5"/><text fill="#000000" font-family="sans-serif" font-size="12" lengthAdjust="spacing" textLength="39" x="1857" y="232.6387">Pricing</text><line style="stroke:#A80036;stroke-width:1.5;" x1="1855" x2="1898" y1="240.4688" y2="240.4688"/><line style="stroke:#A80036;stroke-width:1.5;" x1="1855" x2="1898" y1="248.4688" y2="248.4688"/><!--MD5=[0851f84a889f989e7bb0bebc385d0f09]
class Request--><rect codeLine="85" fill="#FEFECE" filter="url(#f1auy0x0z7gg4p)" height="39.9688" id="Request" style="stroke:#A80036;stroke-width:1.5;" width="55" x="414" y="372"/><text fill="#000000" font-family="sans-serif" font-size="12" lengthAdjust="spacing" textLength="49" x="417" y="388.1387">Request</text><line style="stroke:#A80036;stroke-width:1.5;" x1="415" x2="468" y1="395.9688" y2="395.9688"/><line style="stroke:#A80036;stroke-width:1.5;" x1="415" x2="468" y1="403.9688" y2="403.9688"/><!--MD5=[5b90e4d4f77308a929aa4d17d3ae3119]
class Login--><rect codeLine="87" fill="#FEFECE" filter="url(#f1auy0x0z7gg4p)" height="39.9688" id="Login" style="stroke:#A80036;stroke-width:1.5;" width="38" x="504.5" y="372"/><text fill="#000000" font-family="sans-serif" font-size="12" lengthAdjust="spacing" textLength="32" x="507.5" y="388.1387">Login</text><line style="stroke:#A80036;stroke-width:1.5;" x1="505.5" x2="541.5" y1="395.9688" y2="395.9688"/><line style="stroke:#A80036;stroke-width:1.5;" x1="505.5" x2="541.5" y1="403.9688" y2="403.9688"/><!--MD5=[d78ff4fdbf5cacc6f21a1c53386866eb]
link Operator to Transaction--><path codeLine="89" d="M650.272,295.094 C667.64,320.2448 687.032,348.327 700.32,367.5696 " fill="none" id="Operator-to-Transaction" style="stroke:#A80036;stroke-width:1.0;"/><polygon fill="#A80036" points="703.227,371.7788,701.4059,362.0998,700.3865,367.664,694.8223,366.6446,703.227,371.7788" style="stroke:#A80036;stroke-width:1.0;"/><text fill="#000000" font-family="sans-serif" font-size="13" lengthAdjust="spacing" textLength="32" x="683.5" y="338.0669">track</text><!--MD5=[a9d47b1159bdba106b48e40d38526ca1]
link Establishment to Advertisement--><path codeLine="90" d="M1105.15,88.502 C1115.81,123.819 1132.71,179.853 1142.28,211.563 " fill="none" id="Establishment-to-Advertisement" style="stroke:#A80036;stroke-width:1.0;"/><polygon fill="#A80036" points="1143.75,216.437,1144.9791,206.6651,1142.3054,211.6502,1137.3203,208.9765,1143.75,216.437" style="stroke:#A80036;stroke-width:1.0;"/><text fill="#000000" font-family="sans-serif" font-size="13" lengthAdjust="spacing" textLength="31" x="1123.5" y="144.0669">send</text><!--MD5=[ebd7e5f5b9fa4dde2834aa2738c305f6]
link Customer to TicketNumber--><path codeLine="91" d="M1027.14,269.679 C1035.84,298.69 1048.43,340.7031 1056.28,366.9062 " fill="none" id="Customer-to-TicketNumber" style="stroke:#A80036;stroke-width:1.0;"/><polygon fill="#A80036" points="1057.78,371.9275,1059.0337,362.1588,1056.3474,367.1371,1051.3691,364.4508,1057.78,371.9275" style="stroke:#A80036;stroke-width:1.0;"/><text fill="#000000" font-family="sans-serif" font-size="13" lengthAdjust="spacing" textLength="34" x="1050.5" y="338.0669">enter</text><!--MD5=[17eb17ec7bfd32004f85eab07d5771ed]
link Driver to Valet--><path codeLine="92" d="M159.593,282.311 C166.436,309.954 174.945,344.3238 180.54,366.9229 " fill="none" id="Driver-to-Valet" style="stroke:#A80036;stroke-width:1.0;"/><polygon fill="#A80036" points="181.757,371.8405,183.4767,362.1429,180.5553,366.9871,175.7112,364.0657,181.757,371.8405" style="stroke:#A80036;stroke-width:1.0;"/><text fill="#000000" font-family="sans-serif" font-size="13" lengthAdjust="spacing" textLength="59" x="175.5" y="338.0669">message</text><!--MD5=[df83bc19c4ca8e3067eeb20db22dff41]
link Company to Revenue--><path codeLine="93" d="M1440.49,101.208 C1451.4,136.107 1466.15,183.249 1474.96,211.395 " fill="none" id="Company-to-Revenue" style="stroke:#A80036;stroke-width:1.0;"/><polygon fill="#A80036" points="1476.53,216.422,1477.6601,206.6382,1475.037,211.6501,1470.0251,209.027,1476.53,216.422" style="stroke:#A80036;stroke-width:1.0;"/><text fill="#000000" font-family="sans-serif" font-size="13" lengthAdjust="spacing" textLength="44" x="1455.5" y="144.0669">control</text><!--MD5=[4bf4cb14b43ada32caf9ded2bfea57c1]
link Driver to Profile--><path codeLine="94" d="M109.495,280.205 C97.264,294.169 83.9703,309.961 72.5,325 C62.0703,338.6744 51.3456,354.7135 43.0956,367.5561 " fill="none" id="Driver-to-Profile" style="stroke:#A80036;stroke-width:1.0;"/><polygon fill="#A80036" points="40.3967,371.7809,48.6129,366.35,43.0885,367.5674,41.8712,362.043,40.3967,371.7809" style="stroke:#A80036;stroke-width:1.0;"/><text fill="#000000" font-family="sans-serif" font-size="13" lengthAdjust="spacing" textLength="41" x="73.5" y="338.0669">create</text><!--MD5=[b4c37f78f92aa7babc0f70054ca55793]
link Operator to Location--><path codeLine="95" d="M562.147,261.339 C527.314,278.663 479.284,302.856 437.5,325 C408.145,340.5566 375.133,358.9376 351.338,372.3459 " fill="none" id="Operator-to-Location" style="stroke:#A80036;stroke-width:1.0;"/><polygon fill="#A80036" points="346.706,374.9589,356.51,374.02,351.0607,372.5019,352.5788,367.0525,346.706,374.9589" style="stroke:#A80036;stroke-width:1.0;"/><text fill="#000000" font-family="sans-serif" font-size="13" lengthAdjust="spacing" textLength="32" x="438.5" y="338.0669">have</text><!--MD5=[4d4954937cfb9d324b1ac38a479365e6]
link Company to EmailTransactionSummaryReport--><path codeLine="96" d="M1475.27,96.004 C1519.61,131.917 1583.48,183.644 1619.68,212.967 " fill="none" id="Company-to-EmailTransactionSummaryReport" style="stroke:#A80036;stroke-width:1.0;"/><polygon fill="#A80036" points="1623.96,216.43,1619.4779,207.6601,1620.0724,213.2857,1614.4469,213.8802,1623.96,216.43" style="stroke:#A80036;stroke-width:1.0;"/><text fill="#000000" font-family="sans-serif" font-size="13" lengthAdjust="spacing" textLength="47" x="1538.5" y="144.0669">receive</text><!--MD5=[57d5e5d41a105820e96b6e6a68f4250f]
link Operator to Car--><path codeLine="97" d="M658.838,259.985 C733.436,294.684 873.169,359.6809 922.608,382.6773 " fill="none" id="Operator-to-Car" style="stroke:#A80036;stroke-width:1.0;"/><polygon fill="#A80036" points="927.376,384.8951,920.9023,377.4727,922.8424,382.7865,917.5286,384.7265,927.376,384.8951" style="stroke:#A80036;stroke-width:1.0;"/><text fill="#000000" font-family="sans-serif" font-size="13" lengthAdjust="spacing" textLength="50" x="835.5" y="338.0669">retrieve</text><!--MD5=[5afc573c6f07a2822577eb54daeba940]
link Driver to Option--><path codeLine="98" d="M137.407,282.311 C130.564,309.954 122.055,344.3238 116.46,366.9229 " fill="none" id="Driver-to-Option" style="stroke:#A80036;stroke-width:1.0;"/><polygon fill="#A80036" points="115.243,371.8405,121.2888,364.0657,116.4447,366.9871,113.5233,362.1429,115.243,371.8405" style="stroke:#A80036;stroke-width:1.0;"/><text fill="#000000" font-family="sans-serif" font-size="13" lengthAdjust="spacing" textLength="32" x="127.5" y="338.0669">have</text><!--MD5=[8458b70687e0b28baa34464f5be564f2]
link Operator to Employee--><path codeLine="99" d="M610.5,295.094 C610.5,319.8221 610.5,347.3839 610.5,366.5919 " fill="none" id="Operator-to-Employee" style="stroke:#A80036;stroke-width:1.0;"/><polygon fill="#A80036" points="610.5,371.7788,614.5,362.7788,610.5,366.7788,606.5,362.7788,610.5,371.7788" style="stroke:#A80036;stroke-width:1.0;"/><text fill="#000000" font-family="sans-serif" font-size="13" lengthAdjust="spacing" textLength="24" x="611.5" y="338.0669">add</text><!--MD5=[7433a5b5397b198047d3f0959d7c84d5]
link Head to Pricing--><path codeLine="100" d="M1840.37,88.502 C1849.05,123.819 1862.82,179.853 1870.62,211.563 " fill="none" id="Head-to-Pricing" style="stroke:#A80036;stroke-width:1.0;"/><polygon fill="#A80036" points="1871.81,216.437,1873.5454,206.7422,1870.6161,211.5816,1865.7768,208.6524,1871.81,216.437" style="stroke:#A80036;stroke-width:1.0;"/><text fill="#000000" font-family="sans-serif" font-size="13" lengthAdjust="spacing" textLength="39" x="1855.5" y="144.0669">adjust</text><!--MD5=[a22dae885a37bde1255b11ba08eea568]
link Company to Payment--><path codeLine="101" d="M1377.7,99.773 C1366.89,109.806 1355.63,120.598 1345.5,131 C1326.16,150.857 1322.16,156.633 1304.5,178 C1295.3,189.128 1285.38,201.734 1277.2,212.301 " fill="none" id="Company-to-Payment" style="stroke:#A80036;stroke-width:1.0;"/><polygon fill="#A80036" points="1274.04,216.393,1282.7066,211.7144,1277.0959,212.4356,1276.3747,206.8249,1274.04,216.393" style="stroke:#A80036;stroke-width:1.0;"/><text fill="#000000" font-family="sans-serif" font-size="13" lengthAdjust="spacing" textLength="43" x="1346.5" y="144.0669">accept</text><!--MD5=[9eeca97bb41e62c49d44c7113973f28c]
link Establishment to Customer--><path codeLine="102" d="M1081.56,88.502 C1068.06,119.46 1047.64,166.335 1033.5,198.794 " fill="none" id="Establishment-to-Customer" style="stroke:#A80036;stroke-width:1.0;"/><polygon fill="#A80036" points="1031.46,203.474,1038.7227,196.8216,1033.4577,198.8904,1031.3889,193.6254,1031.46,203.474" style="stroke:#A80036;stroke-width:1.0;"/><text fill="#000000" font-family="sans-serif" font-size="13" lengthAdjust="spacing" textLength="43" x="1062.5" y="144.0669">attract</text><!--MD5=[58da342adb4de8a200eb2daaf3ab3880]
link Driver to Location--><path codeLine="103" d="M187.501,272.716 C220.016,302.075 265.38,343.036 293.3,368.2458 " fill="none" id="Driver-to-Location" style="stroke:#A80036;stroke-width:1.0;"/><polygon fill="#A80036" points="297.289,371.8477,293.2906,362.847,293.5783,368.4965,287.9287,368.7841,297.289,371.8477" style="stroke:#A80036;stroke-width:1.0;"/><text fill="#000000" font-family="sans-serif" font-size="13" lengthAdjust="spacing" textLength="38" x="265.5" y="338.0669">select</text><!--MD5=[19c84d3fcdf9484a6fc7ecd2b36aae80]
link Operator to Request--><path codeLine="104" d="M562.315,270.27 C540.913,285.784 515.987,305.224 495.5,325 C482.006,338.0254 468.644,354.3212 458.588,367.4611 " fill="none" id="Operator-to-Request" style="stroke:#A80036;stroke-width:1.0;"/><polygon fill="#A80036" points="455.308,371.787,463.9318,367.0299,458.3279,367.802,457.5558,362.1981,455.308,371.787" style="stroke:#A80036;stroke-width:1.0;"/><text fill="#000000" font-family="sans-serif" font-size="13" lengthAdjust="spacing" textLength="47" x="496.5" y="338.0669">receive</text><!--MD5=[9d661380b54d9bff4ee137bc0bb1b8a2]
link User to Information--><path codeLine="105" d="M1970.5,82.146 C1970.5,116.649 1970.5,177.567 1970.5,211.308 " fill="none" id="User-to-Information" style="stroke:#A80036;stroke-width:1.0;"/><polygon fill="#A80036" points="1970.5,216.482,1974.5,207.482,1970.5,211.482,1966.5,207.482,1970.5,216.482" style="stroke:#A80036;stroke-width:1.0;"/><text fill="#000000" font-family="sans-serif" font-size="13" lengthAdjust="spacing" textLength="45" x="1971.5" y="144.0669">include</text><!--MD5=[68143c8674b44c2b182313e24ee09193]
link Operator to Login--><path codeLine="106" d="M577.857,295.094 C563.722,320.0335 547.953,347.8552 537.056,367.0826 " fill="none" id="Operator-to-Login" style="stroke:#A80036;stroke-width:1.0;"/><polygon fill="#A80036" points="534.394,371.7788,542.3118,365.9214,536.8595,367.4289,535.352,361.9766,534.394,371.7788" style="stroke:#A80036;stroke-width:1.0;"/><text fill="#000000" font-family="sans-serif" font-size="13" lengthAdjust="spacing" textLength="32" x="560.5" y="338.0669">have</text><!--MD5=[5490f5d771f20c8458eb9f3c66926015]
link Operator to Notification--><path codeLine="107" d="M658.75,271.948 C700.271,301.592 758.941,343.4802 794.481,368.8535 " fill="none" id="Operator-to-Notification" style="stroke:#A80036;stroke-width:1.0;"/><polygon fill="#A80036" points="798.697,371.864,793.6969,363.3788,794.6279,368.9585,789.0481,369.8894,798.697,371.864" style="stroke:#A80036;stroke-width:1.0;"/><text fill="#000000" font-family="sans-serif" font-size="13" lengthAdjust="spacing" textLength="31" x="757.5" y="338.0669">send</text><!--MD5=[9cc0ccd97e0c2b1ecdadc96df79a8d6f]
link Customer to Car--><path codeLine="108" d="M1001.358,269.679 C986.745,298.811 965.555,341.0534 952.422,367.2329 " fill="none" id="Customer-to-Car" style="stroke:#A80036;stroke-width:1.0;"/><polygon fill="#A80036" points="950.067,371.9275,957.6775,365.676,952.3087,367.4582,950.5265,362.0894,950.067,371.9275" style="stroke:#A80036;stroke-width:1.0;"/><text fill="#000000" font-family="sans-serif" font-size="13" lengthAdjust="spacing" textLength="49" x="973.5" y="338.0669">request</text><!--MD5=[25f7efeb2d781a64d3ac021c8d38ca88]
link Head to Price--><path codeLine="109" d="M1822.02,88.838 C1818.17,101.82 1814.12,116.999 1811.5,131 C1806.4,158.249 1803.83,190.01 1802.58,211.301 " fill="none" id="Head-to-Price" style="stroke:#A80036;stroke-width:1.0;"/><polygon fill="#A80036" points="1802.29,216.479,1806.7859,207.7162,1802.5689,211.4868,1798.7983,207.2699,1802.29,216.479" style="stroke:#A80036;stroke-width:1.0;"/><text fill="#000000" font-family="sans-serif" font-size="13" lengthAdjust="spacing" textLength="20" x="1812.5" y="144.0669">set</text><!--MD5=[f09f5d79fa41cdb0d10438e369ee03f3]
link Company to PaymentOption--><path codeLine="110" d="M1412.51,101.208 C1401.6,136.107 1386.85,183.249 1378.04,211.395 " fill="none" id="Company-to-PaymentOption" style="stroke:#A80036;stroke-width:1.0;"/><polygon fill="#A80036" points="1376.47,216.422,1382.9749,209.027,1377.963,211.6501,1375.3399,206.6382,1376.47,216.422" style="stroke:#A80036;stroke-width:1.0;"/><text fill="#000000" font-family="sans-serif" font-size="13" lengthAdjust="spacing" textLength="31" x="1403.5" y="144.0669">offer</text><!--MD5=[40b19f6622c4b6ed8febf23267ef1508]
@startuml
hide circle
class Driver<actor> {
}
class Company<actor> {
}
class Establishment<actor> {
}
class Customer<actor> {
}
class Operator<actor> {
}
class Head<actor> {
}
class User<actor> {
}
class Head {
	set()
	adjust()
}
class Price {
}
class Customer {
	enter()
	request()
}
class TicketNumber {
}
class Driver {
	create()
	select()
	have()
	message()
}
class Profile {
}
class Operator {
	add()
	track()
	receive()
	send()
	retrieve()
	have()
}
class Car {
}
class Company {
	receive()
	control()
	offer()
	accept()
}
class Payment {
}
class Option {
}
class Employee {
}
class Establishment {
	send()
	attract()
}
class Advertisement {
}
class Transaction {
}
class User {
	include()
}
class Information {
}
class Notification {
}
class PaymentOption {
}
class Valet {
}
class Revenue {
}
class Location {
}
class EmailTransactionSummaryReport {
}
class Pricing {
}
class Request {
}
class Login {
}
Operator - -> Transaction : track
Establishment - -> Advertisement : send
Customer - -> TicketNumber : enter
Driver - -> Valet : message
Company - -> Revenue : control
Driver - -> Profile : create
Operator - -> Location : have
Company - -> EmailTransactionSummaryReport : receive
Operator - -> Car : retrieve
Driver - -> Option : have
Operator - -> Employee : add
Head - -> Pricing : adjust
Company - -> Payment : accept
Establishment - -> Customer : attract
Driver - -> Location : select
Operator - -> Request : receive
User - -> Information : include
Operator - -> Login : have
Operator - -> Notification : send
Customer - -> Car : request
Head - -> Price : set
Company - -> PaymentOption : offer
@enduml

PlantUML version 1.2021.6beta6(Unknown compile time)
(GPL source distribution)
Java Runtime: Java(TM) SE Runtime Environment
JVM: Java HotSpot(TM) 64-Bit Server VM
Default Encoding: UTF-8
Language: en
Country: US
--></g></svg>