<?xml version="1.0" encoding="UTF-8" standalone="no"?><svg xmlns="http://www.w3.org/2000/svg" xmlns:xlink="http://www.w3.org/1999/xlink" contentScriptType="application/ecmascript" contentStyleType="text/css" height="425px" preserveAspectRatio="none" style="width:2030px;height:425px;background:#FFFFFF;" version="1.1" viewBox="0 0 2030 425" width="2030px" zoomAndPan="magnify"><defs><filter height="300%" id="f1diin8j43vexr" width="300%" x="-1" y="-1"><feGaussianBlur result="blurOut" stdDeviation="2.0"/><feColorMatrix in="blurOut" result="blurOut2" type="matrix" values="0 0 0 0 0 0 0 0 0 0 0 0 0 0 0 0 0 0 .4 0"/><feOffset dx="4.0" dy="4.0" in="blurOut2" result="blurOut3"/><feBlend in="SourceGraphic" in2="blurOut3" mode="normal"/></filter></defs><g><!--MD5=[eee9d396a8aca12c6c152931e8dc1ab6]
class Driver--><rect codeLine="52" fill="#FEFECE" filter="url(#f1diin8j43vexr)" height="91.1875" id="Driver" style="stroke:#A80036;stroke-width:1.5;" width="78" x="125" y="191"/><text fill="#000000" font-family="sans-serif" font-size="12" lengthAdjust="spacing" textLength="37" x="128" y="207.1387">Driver</text><rect fill="#FFFFFF" height="15.9688" style="stroke:#000000;stroke-width:1.0;stroke-dasharray:2.0,2.0;" width="33" x="173" y="188"/><text fill="#000000" font-family="sans-serif" font-size="12" font-style="italic" lengthAdjust="spacing" textLength="31" x="174" y="200.1387">actor</text><line style="stroke:#A80036;stroke-width:1.5;" x1="126" x2="202" y1="214.9688" y2="214.9688"/><line style="stroke:#A80036;stroke-width:1.5;" x1="126" x2="202" y1="222.9688" y2="222.9688"/><text fill="#000000" font-family="sans-serif" font-size="11" lengthAdjust="spacing" textLength="37" x="131" y="237.1792">have()</text><text fill="#000000" font-family="sans-serif" font-size="11" lengthAdjust="spacing" textLength="45" x="131" y="249.9839">create()</text><text fill="#000000" font-family="sans-serif" font-size="11" lengthAdjust="spacing" textLength="43" x="131" y="262.7886">select()</text><text fill="#000000" font-family="sans-serif" font-size="11" lengthAdjust="spacing" textLength="61" x="131" y="275.5933">message()</text><!--MD5=[02e4b9b7573f1156f41e60aa5b4e25a4]
class Company--><rect codeLine="30" fill="#FEFECE" filter="url(#f1diin8j43vexr)" height="91.1875" id="Company" style="stroke:#A80036;stroke-width:1.5;" width="97" x="1387.5" y="10"/><text fill="#000000" font-family="sans-serif" font-size="12" lengthAdjust="spacing" textLength="56" x="1390.5" y="26.1387">Company</text><rect fill="#FFFFFF" height="15.9688" style="stroke:#000000;stroke-width:1.0;stroke-dasharray:2.0,2.0;" width="33" x="1454.5" y="7"/><text fill="#000000" font-family="sans-serif" font-size="12" font-style="italic" lengthAdjust="spacing" textLength="31" x="1455.5" y="19.1387">actor</text><line style="stroke:#A80036;stroke-width:1.5;" x1="1388.5" x2="1483.5" y1="33.9688" y2="33.9688"/><line style="stroke:#A80036;stroke-width:1.5;" x1="1388.5" x2="1483.5" y1="41.9688" y2="41.9688"/><text fill="#000000" font-family="sans-serif" font-size="11" lengthAdjust="spacing" textLength="35" x="1393.5" y="56.1792">offer()</text><text fill="#000000" font-family="sans-serif" font-size="11" lengthAdjust="spacing" textLength="52" x="1393.5" y="68.9839">receive()</text><text fill="#000000" font-family="sans-serif" font-size="11" lengthAdjust="spacing" textLength="46" x="1393.5" y="81.7886">accept()</text><text fill="#000000" font-family="sans-serif" font-size="11" lengthAdjust="spacing" textLength="46" x="1393.5" y="94.5933">control()</text><!--MD5=[523021a3bf93a6ec27c557f3441ae10a]
class Establishment--><rect codeLine="46" fill="#FEFECE" filter="url(#f1diin8j43vexr)" height="65.5781" id="Establishment" style="stroke:#A80036;stroke-width:1.5;" width="124" x="1033" y="22.5"/><text fill="#000000" font-family="sans-serif" font-size="12" lengthAdjust="spacing" textLength="83" x="1036" y="38.6387">Establishment</text><rect fill="#FFFFFF" height="15.9688" style="stroke:#000000;stroke-width:1.0;stroke-dasharray:2.0,2.0;" width="33" x="1127" y="19.5"/><text fill="#000000" font-family="sans-serif" font-size="12" font-style="italic" lengthAdjust="spacing" textLength="31" x="1128" y="31.6387">actor</text><line style="stroke:#A80036;stroke-width:1.5;" x1="1034" x2="1156" y1="46.4688" y2="46.4688"/><line style="stroke:#A80036;stroke-width:1.5;" x1="1034" x2="1156" y1="54.4688" y2="54.4688"/><text fill="#000000" font-family="sans-serif" font-size="11" lengthAdjust="spacing" textLength="44" x="1039" y="68.6792">attract()</text><text fill="#000000" font-family="sans-serif" font-size="11" lengthAdjust="spacing" textLength="36" x="1039" y="81.4839">send()</text><!--MD5=[2ce0c9fb7f55b1e256ab28a8ea6b25ec]
class Customer--><rect codeLine="68" fill="#FEFECE" filter="url(#f1diin8j43vexr)" height="65.5781" id="Customer" style="stroke:#A80036;stroke-width:1.5;" width="99" x="967.5" y="203.5"/><text fill="#000000" font-family="sans-serif" font-size="12" lengthAdjust="spacing" textLength="58" x="970.5" y="219.6387">Customer</text><rect fill="#FFFFFF" height="15.9688" style="stroke:#000000;stroke-width:1.0;stroke-dasharray:2.0,2.0;" width="33" x="1036.5" y="200.5"/><text fill="#000000" font-family="sans-serif" font-size="12" font-style="italic" lengthAdjust="spacing" textLength="31" x="1037.5" y="212.6387">actor</text><line style="stroke:#A80036;stroke-width:1.5;" x1="968.5" x2="1065.5" y1="227.4688" y2="227.4688"/><line style="stroke:#A80036;stroke-width:1.5;" x1="968.5" x2="1065.5" y1="235.4688" y2="235.4688"/><text fill="#000000" font-family="sans-serif" font-size="11" lengthAdjust="spacing" textLength="52" x="973.5" y="249.6792">request()</text><text fill="#000000" font-family="sans-serif" font-size="11" lengthAdjust="spacing" textLength="39" x="973.5" y="262.4839">enter()</text><!--MD5=[361e73a814e28ed043957a958c9da4ce]
class Operator--><rect codeLine="16" fill="#FEFECE" filter="url(#f1diin8j43vexr)" height="116.7969" id="Operator" style="stroke:#A80036;stroke-width:1.5;" width="96" x="568" y="178"/><text fill="#000000" font-family="sans-serif" font-size="12" lengthAdjust="spacing" textLength="55" x="571" y="194.1387">Operator</text><rect fill="#FFFFFF" height="15.9688" style="stroke:#000000;stroke-width:1.0;stroke-dasharray:2.0,2.0;" width="33" x="634" y="175"/><text fill="#000000" font-family="sans-serif" font-size="12" font-style="italic" lengthAdjust="spacing" textLength="31" x="635" y="187.1387">actor</text><line style="stroke:#A80036;stroke-width:1.5;" x1="569" x2="663" y1="201.9688" y2="201.9688"/><line style="stroke:#A80036;stroke-width:1.5;" x1="569" x2="663" y1="209.9688" y2="209.9688"/><text fill="#000000" font-family="sans-serif" font-size="11" lengthAdjust="spacing" textLength="52" x="574" y="224.1792">receive()</text><text fill="#000000" font-family="sans-serif" font-size="11" lengthAdjust="spacing" textLength="54" x="574" y="236.9839">retrieve()</text><text fill="#000000" font-family="sans-serif" font-size="11" lengthAdjust="spacing" textLength="29" x="574" y="249.7886">add()</text><text fill="#000000" font-family="sans-serif" font-size="11" lengthAdjust="spacing" textLength="35" x="574" y="262.5933">track()</text><text fill="#000000" font-family="sans-serif" font-size="11" lengthAdjust="spacing" textLength="37" x="574" y="275.3979">have()</text><text fill="#000000" font-family="sans-serif" font-size="11" lengthAdjust="spacing" textLength="36" x="574" y="288.2026">send()</text><!--MD5=[4741ae9b66e8c8909830097dcbdef570]
class Head--><rect codeLine="40" fill="#FEFECE" filter="url(#f1diin8j43vexr)" height="65.5781" id="Head" style="stroke:#A80036;stroke-width:1.5;" width="73" x="1800.5" y="22.5"/><text fill="#000000" font-family="sans-serif" font-size="12" lengthAdjust="spacing" textLength="32" x="1803.5" y="38.6387">Head</text><rect fill="#FFFFFF" height="15.9688" style="stroke:#000000;stroke-width:1.0;stroke-dasharray:2.0,2.0;" width="33" x="1843.5" y="19.5"/><text fill="#000000" font-family="sans-serif" font-size="12" font-style="italic" lengthAdjust="spacing" textLength="31" x="1844.5" y="31.6387">actor</text><line style="stroke:#A80036;stroke-width:1.5;" x1="1801.5" x2="1872.5" y1="46.4688" y2="46.4688"/><line style="stroke:#A80036;stroke-width:1.5;" x1="1801.5" x2="1872.5" y1="54.4688" y2="54.4688"/><text fill="#000000" font-family="sans-serif" font-size="11" lengthAdjust="spacing" textLength="42" x="1806.5" y="68.6792">adjust()</text><text fill="#000000" font-family="sans-serif" font-size="11" lengthAdjust="spacing" textLength="26" x="1806.5" y="81.4839">set()</text><!--MD5=[3fd616f346a44cd59a91eb10b19e157c]
class User--><rect codeLine="84" fill="#FEFECE" filter="url(#f1diin8j43vexr)" height="52.7734" id="User" style="stroke:#A80036;stroke-width:1.5;" width="70" x="1941" y="29"/><text fill="#000000" font-family="sans-serif" font-size="12" lengthAdjust="spacing" textLength="29" x="1944" y="45.1387">User</text><rect fill="#FFFFFF" height="15.9688" style="stroke:#000000;stroke-width:1.0;stroke-dasharray:2.0,2.0;" width="33" x="1981" y="26"/><text fill="#000000" font-family="sans-serif" font-size="12" font-style="italic" lengthAdjust="spacing" textLength="31" x="1982" y="38.1387">actor</text><line style="stroke:#A80036;stroke-width:1.5;" x1="1942" x2="2010" y1="52.9688" y2="52.9688"/><line style="stroke:#A80036;stroke-width:1.5;" x1="1942" x2="2010" y1="60.9688" y2="60.9688"/><text fill="#000000" font-family="sans-serif" font-size="11" lengthAdjust="spacing" textLength="49" x="1947" y="75.1792">include()</text><!--MD5=[7421f545a0d8420c5bec41e74b387d9c]
class Employee--><rect codeLine="24" fill="#FEFECE" filter="url(#f1diin8j43vexr)" height="39.9688" id="Employee" style="stroke:#A80036;stroke-width:1.5;" width="66" x="487" y="372"/><text fill="#000000" font-family="sans-serif" font-size="12" lengthAdjust="spacing" textLength="60" x="490" y="388.1387">Employee</text><line style="stroke:#A80036;stroke-width:1.5;" x1="488" x2="552" y1="395.9688" y2="395.9688"/><line style="stroke:#A80036;stroke-width:1.5;" x1="488" x2="552" y1="403.9688" y2="403.9688"/><!--MD5=[4f1f3706c1a355a8488e154afcaed5df]
class Location--><rect codeLine="26" fill="#FEFECE" filter="url(#f1diin8j43vexr)" height="39.9688" id="Location" style="stroke:#A80036;stroke-width:1.5;" width="56" x="292" y="372"/><text fill="#000000" font-family="sans-serif" font-size="12" lengthAdjust="spacing" textLength="50" x="295" y="388.1387">Location</text><line style="stroke:#A80036;stroke-width:1.5;" x1="293" x2="347" y1="395.9688" y2="395.9688"/><line style="stroke:#A80036;stroke-width:1.5;" x1="293" x2="347" y1="403.9688" y2="403.9688"/><!--MD5=[0851f84a889f989e7bb0bebc385d0f09]
class Request--><rect codeLine="28" fill="#FEFECE" filter="url(#f1diin8j43vexr)" height="39.9688" id="Request" style="stroke:#A80036;stroke-width:1.5;" width="55" x="588.5" y="372"/><text fill="#000000" font-family="sans-serif" font-size="12" lengthAdjust="spacing" textLength="49" x="591.5" y="388.1387">Request</text><line style="stroke:#A80036;stroke-width:1.5;" x1="589.5" x2="642.5" y1="395.9688" y2="395.9688"/><line style="stroke:#A80036;stroke-width:1.5;" x1="589.5" x2="642.5" y1="403.9688" y2="403.9688"/><!--MD5=[7d7a39b6f6358b34427bb908063b0957]
class PaymentOption--><rect codeLine="36" fill="#FEFECE" filter="url(#f1diin8j43vexr)" height="39.9688" id="PaymentOption" style="stroke:#A80036;stroke-width:1.5;" width="96" x="1231" y="216.5"/><text fill="#000000" font-family="sans-serif" font-size="12" lengthAdjust="spacing" textLength="90" x="1234" y="232.6387">PaymentOption</text><line style="stroke:#A80036;stroke-width:1.5;" x1="1232" x2="1326" y1="240.4688" y2="240.4688"/><line style="stroke:#A80036;stroke-width:1.5;" x1="1232" x2="1326" y1="248.4688" y2="248.4688"/><!--MD5=[4555bb1b0911a5adf28ce6dbe60fed2e]
class Transaction--><rect codeLine="38" fill="#FEFECE" filter="url(#f1diin8j43vexr)" height="39.9688" id="Transaction" style="stroke:#A80036;stroke-width:1.5;" width="75" x="678.5" y="372"/><text fill="#000000" font-family="sans-serif" font-size="12" lengthAdjust="spacing" textLength="69" x="681.5" y="388.1387">Transaction</text><line style="stroke:#A80036;stroke-width:1.5;" x1="679.5" x2="752.5" y1="395.9688" y2="395.9688"/><line style="stroke:#A80036;stroke-width:1.5;" x1="679.5" x2="752.5" y1="403.9688" y2="403.9688"/><!--MD5=[b2bc021cc86aa2558e9589819995bf4e]
class Pricing--><rect codeLine="44" fill="#FEFECE" filter="url(#f1diin8j43vexr)" height="39.9688" id="Pricing" style="stroke:#A80036;stroke-width:1.5;" width="45" x="1783.5" y="216.5"/><text fill="#000000" font-family="sans-serif" font-size="12" lengthAdjust="spacing" textLength="39" x="1786.5" y="232.6387">Pricing</text><line style="stroke:#A80036;stroke-width:1.5;" x1="1784.5" x2="1827.5" y1="240.4688" y2="240.4688"/><line style="stroke:#A80036;stroke-width:1.5;" x1="1784.5" x2="1827.5" y1="248.4688" y2="248.4688"/><!--MD5=[96a16f046dcf5a9f7fab5dd2542af37b]
class Advertisement--><rect codeLine="50" fill="#FEFECE" filter="url(#f1diin8j43vexr)" height="39.9688" id="Advertisement" style="stroke:#A80036;stroke-width:1.5;" width="94" x="1102" y="216.5"/><text fill="#000000" font-family="sans-serif" font-size="12" lengthAdjust="spacing" textLength="88" x="1105" y="232.6387">Advertisement</text><line style="stroke:#A80036;stroke-width:1.5;" x1="1103" x2="1195" y1="240.4688" y2="240.4688"/><line style="stroke:#A80036;stroke-width:1.5;" x1="1103" x2="1195" y1="248.4688" y2="248.4688"/><!--MD5=[7b57f7066b803747d2119f99dd1555d4]
class Profile--><rect codeLine="58" fill="#FEFECE" filter="url(#f1diin8j43vexr)" height="39.9688" id="Profile" style="stroke:#A80036;stroke-width:1.5;" width="43" x="182.5" y="372"/><text fill="#000000" font-family="sans-serif" font-size="12" lengthAdjust="spacing" textLength="37" x="185.5" y="388.1387">Profile</text><line style="stroke:#A80036;stroke-width:1.5;" x1="183.5" x2="224.5" y1="395.9688" y2="395.9688"/><line style="stroke:#A80036;stroke-width:1.5;" x1="183.5" x2="224.5" y1="403.9688" y2="403.9688"/><!--MD5=[764fca796ce7f635542948d8fc39db5e]
class Payment--><rect codeLine="60" fill="#FEFECE" filter="url(#f1diin8j43vexr)" height="39.9688" id="Payment" style="stroke:#A80036;stroke-width:1.5;" width="56" x="1362" y="216.5"/><text fill="#000000" font-family="sans-serif" font-size="12" lengthAdjust="spacing" textLength="50" x="1365" y="232.6387">Payment</text><line style="stroke:#A80036;stroke-width:1.5;" x1="1363" x2="1417" y1="240.4688" y2="240.4688"/><line style="stroke:#A80036;stroke-width:1.5;" x1="1363" x2="1417" y1="248.4688" y2="248.4688"/><!--MD5=[76b5e19c9337179d2d7ae334371d68c8]
class Notification--><rect codeLine="62" fill="#FEFECE" filter="url(#f1diin8j43vexr)" height="39.9688" id="Notification" style="stroke:#A80036;stroke-width:1.5;" width="72" x="789" y="372"/><text fill="#000000" font-family="sans-serif" font-size="12" lengthAdjust="spacing" textLength="66" x="792" y="388.1387">Notification</text><line style="stroke:#A80036;stroke-width:1.5;" x1="790" x2="860" y1="395.9688" y2="395.9688"/><line style="stroke:#A80036;stroke-width:1.5;" x1="790" x2="860" y1="403.9688" y2="403.9688"/><!--MD5=[4561320b770465f913c77565ad1b4c2d]
class Valet--><rect codeLine="64" fill="#FEFECE" filter="url(#f1diin8j43vexr)" height="39.9688" id="Valet" style="stroke:#A80036;stroke-width:1.5;" width="36" x="7" y="372"/><text fill="#000000" font-family="sans-serif" font-size="12" lengthAdjust="spacing" textLength="30" x="10" y="388.1387">Valet</text><line style="stroke:#A80036;stroke-width:1.5;" x1="8" x2="42" y1="395.9688" y2="395.9688"/><line style="stroke:#A80036;stroke-width:1.5;" x1="8" x2="42" y1="403.9688" y2="403.9688"/><!--MD5=[412b3778b858f78f2b600242c4382785]
class Revenue--><rect codeLine="66" fill="#FEFECE" filter="url(#f1diin8j43vexr)" height="39.9688" id="Revenue" style="stroke:#A80036;stroke-width:1.5;" width="58" x="1453" y="216.5"/><text fill="#000000" font-family="sans-serif" font-size="12" lengthAdjust="spacing" textLength="52" x="1456" y="232.6387">Revenue</text><line style="stroke:#A80036;stroke-width:1.5;" x1="1454" x2="1510" y1="240.4688" y2="240.4688"/><line style="stroke:#A80036;stroke-width:1.5;" x1="1454" x2="1510" y1="248.4688" y2="248.4688"/><!--MD5=[f4611e6df6d2aade4810cb7bdec70d80]
class TicketNumber--><rect codeLine="72" fill="#FEFECE" filter="url(#f1diin8j43vexr)" height="39.9688" id="TicketNumber" style="stroke:#A80036;stroke-width:1.5;" width="89" x="1018.5" y="372"/><text fill="#000000" font-family="sans-serif" font-size="12" lengthAdjust="spacing" textLength="83" x="1021.5" y="388.1387">TicketNumber</text><line style="stroke:#A80036;stroke-width:1.5;" x1="1019.5" x2="1106.5" y1="395.9688" y2="395.9688"/><line style="stroke:#A80036;stroke-width:1.5;" x1="1019.5" x2="1106.5" y1="403.9688" y2="403.9688"/><!--MD5=[a40a7ac4b423335b0d34bf16cf36e547]
class Price--><rect codeLine="74" fill="#FEFECE" filter="url(#f1diin8j43vexr)" height="39.9688" id="Price" style="stroke:#A80036;stroke-width:1.5;" width="35" x="1869.5" y="216.5"/><text fill="#000000" font-family="sans-serif" font-size="12" lengthAdjust="spacing" textLength="29" x="1872.5" y="232.6387">Price</text><line style="stroke:#A80036;stroke-width:1.5;" x1="1870.5" x2="1903.5" y1="240.4688" y2="240.4688"/><line style="stroke:#A80036;stroke-width:1.5;" x1="1870.5" x2="1903.5" y1="248.4688" y2="248.4688"/><!--MD5=[3f0ef310aaa84a542276992c5216544d]
class Car--><rect codeLine="76" fill="#FEFECE" filter="url(#f1diin8j43vexr)" height="39.9688" id="Car" style="stroke:#A80036;stroke-width:1.5;" width="26" x="927" y="372"/><text fill="#000000" font-family="sans-serif" font-size="12" lengthAdjust="spacing" textLength="20" x="930" y="388.1387">Car</text><line style="stroke:#A80036;stroke-width:1.5;" x1="928" x2="952" y1="395.9688" y2="395.9688"/><line style="stroke:#A80036;stroke-width:1.5;" x1="928" x2="952" y1="403.9688" y2="403.9688"/><!--MD5=[3a4c166a60d6787da203754482b8bd14]
class EmailTransactionSummaryReport--><rect codeLine="78" fill="#FEFECE" filter="url(#f1diin8j43vexr)" height="39.9688" id="EmailTransactionSummaryReport" style="stroke:#A80036;stroke-width:1.5;" width="202" x="1546" y="216.5"/><text fill="#000000" font-family="sans-serif" font-size="12" lengthAdjust="spacing" textLength="196" x="1549" y="232.6387">EmailTransactionSummaryReport</text><line style="stroke:#A80036;stroke-width:1.5;" x1="1547" x2="1747" y1="240.4688" y2="240.4688"/><line style="stroke:#A80036;stroke-width:1.5;" x1="1547" x2="1747" y1="248.4688" y2="248.4688"/><!--MD5=[5b90e4d4f77308a929aa4d17d3ae3119]
class Login--><rect codeLine="80" fill="#FEFECE" filter="url(#f1diin8j43vexr)" height="39.9688" id="Login" style="stroke:#A80036;stroke-width:1.5;" width="38" x="414" y="372"/><text fill="#000000" font-family="sans-serif" font-size="12" lengthAdjust="spacing" textLength="32" x="417" y="388.1387">Login</text><line style="stroke:#A80036;stroke-width:1.5;" x1="415" x2="451" y1="395.9688" y2="395.9688"/><line style="stroke:#A80036;stroke-width:1.5;" x1="415" x2="451" y1="403.9688" y2="403.9688"/><!--MD5=[b07065dfc0d0e09965ec10bfc328bb3e]
class Option--><rect codeLine="82" fill="#FEFECE" filter="url(#f1diin8j43vexr)" height="39.9688" id="Option" style="stroke:#A80036;stroke-width:1.5;" width="46" x="101" y="372"/><text fill="#000000" font-family="sans-serif" font-size="12" lengthAdjust="spacing" textLength="40" x="104" y="388.1387">Option</text><line style="stroke:#A80036;stroke-width:1.5;" x1="102" x2="146" y1="395.9688" y2="395.9688"/><line style="stroke:#A80036;stroke-width:1.5;" x1="102" x2="146" y1="403.9688" y2="403.9688"/><!--MD5=[30fd7b95ab383a5e7c83ea23d4ea0fbf]
class Information--><rect codeLine="87" fill="#FEFECE" filter="url(#f1diin8j43vexr)" height="39.9688" id="Information" style="stroke:#A80036;stroke-width:1.5;" width="73" x="1939.5" y="216.5"/><text fill="#000000" font-family="sans-serif" font-size="12" lengthAdjust="spacing" textLength="67" x="1942.5" y="232.6387">Information</text><line style="stroke:#A80036;stroke-width:1.5;" x1="1940.5" x2="2011.5" y1="240.4688" y2="240.4688"/><line style="stroke:#A80036;stroke-width:1.5;" x1="1940.5" x2="2011.5" y1="248.4688" y2="248.4688"/><!--MD5=[b4c37f78f92aa7babc0f70054ca55793]
link Operator to Location--><path codeLine="89" d="M567.784,262.504 C507.197,293.923 404.852,346.9975 352.688,374.0487 " fill="none" id="Operator-to-Location" style="stroke:#A80036;stroke-width:1.0;"/><polygon fill="#A80036" points="348.104,376.4256,357.9349,375.8315,352.5422,374.123,354.2507,368.7303,348.104,376.4256" style="stroke:#A80036;stroke-width:1.0;"/><text fill="#000000" font-family="sans-serif" font-size="13" lengthAdjust="spacing" textLength="32" x="443" y="338.0669">have</text><!--MD5=[4bf4cb14b43ada32caf9ded2bfea57c1]
link Driver to Profile--><path codeLine="90" d="M175.677,282.311 C182.88,309.954 191.837,344.3238 197.726,366.9229 " fill="none" id="Driver-to-Profile" style="stroke:#A80036;stroke-width:1.0;"/><polygon fill="#A80036" points="199.007,371.8405,200.608,362.1226,197.746,367.0021,192.8666,364.1402,199.007,371.8405" style="stroke:#A80036;stroke-width:1.0;"/><text fill="#000000" font-family="sans-serif" font-size="13" lengthAdjust="spacing" textLength="41" x="193" y="338.0669">create</text><!--MD5=[25f7efeb2d781a64d3ac021c8d38ca88]
link Head to Price--><path codeLine="91" d="M1845.94,88.502 C1855.8,123.819 1871.46,179.853 1880.31,211.563 " fill="none" id="Head-to-Price" style="stroke:#A80036;stroke-width:1.0;"/><polygon fill="#A80036" points="1881.68,216.437,1883.117,206.6935,1880.3377,211.6206,1875.4106,208.8413,1881.68,216.437" style="stroke:#A80036;stroke-width:1.0;"/><text fill="#000000" font-family="sans-serif" font-size="13" lengthAdjust="spacing" textLength="20" x="1863" y="144.0669">set</text><!--MD5=[19c84d3fcdf9484a6fc7ecd2b36aae80]
link Operator to Request--><path codeLine="92" d="M616,295.094 C616,319.8221 616,347.3839 616,366.5919 " fill="none" id="Operator-to-Request" style="stroke:#A80036;stroke-width:1.0;"/><polygon fill="#A80036" points="616,371.7788,620,362.7788,616,366.7788,612,362.7788,616,371.7788" style="stroke:#A80036;stroke-width:1.0;"/><text fill="#000000" font-family="sans-serif" font-size="13" lengthAdjust="spacing" textLength="47" x="617" y="338.0669">receive</text><!--MD5=[a22dae885a37bde1255b11ba08eea568]
link Company to Payment--><path codeLine="93" d="M1406.4,101.095 C1401.38,110.609 1396.87,120.856 1394,131 C1386.48,157.573 1386.48,189.461 1387.73,210.967 " fill="none" id="Company-to-Payment" style="stroke:#A80036;stroke-width:1.0;"/><polygon fill="#A80036" points="1388.06,216.201,1391.47,206.9613,1387.7369,211.2115,1383.4868,207.4783,1388.06,216.201" style="stroke:#A80036;stroke-width:1.0;"/><text fill="#000000" font-family="sans-serif" font-size="13" lengthAdjust="spacing" textLength="43" x="1395" y="144.0669">accept</text><!--MD5=[57d5e5d41a105820e96b6e6a68f4250f]
link Operator to Car--><path codeLine="94" d="M664.156,260.315 C737.441,295.034 873.575,359.5299 922.181,382.5579 " fill="none" id="Operator-to-Car" style="stroke:#A80036;stroke-width:1.0;"/><polygon fill="#A80036" points="926.873,384.7809,920.4531,377.312,922.3547,382.6396,917.0271,384.5412,926.873,384.7809" style="stroke:#A80036;stroke-width:1.0;"/><text fill="#000000" font-family="sans-serif" font-size="13" lengthAdjust="spacing" textLength="50" x="837" y="338.0669">retrieve</text><!--MD5=[4d4954937cfb9d324b1ac38a479365e6]
link Company to EmailTransactionSummaryReport--><path codeLine="95" d="M1484.67,97.791 C1526.89,133.608 1586.42,184.106 1620.42,212.95 " fill="none" id="Company-to-EmailTransactionSummaryReport" style="stroke:#A80036;stroke-width:1.0;"/><polygon fill="#A80036" points="1624.44,216.357,1620.1564,207.4885,1620.6242,213.1259,1614.9867,213.5937,1624.44,216.357" style="stroke:#A80036;stroke-width:1.0;"/><text fill="#000000" font-family="sans-serif" font-size="13" lengthAdjust="spacing" textLength="47" x="1543" y="144.0669">receive</text><!--MD5=[f09f5d79fa41cdb0d10438e369ee03f3]
link Company to PaymentOption--><path codeLine="96" d="M1387.08,95.019 C1374.39,106.025 1361.16,118.453 1350,131 C1327.28,156.554 1305.9,189.742 1292.65,211.787 " fill="none" id="Company-to-PaymentOption" style="stroke:#A80036;stroke-width:1.0;"/><polygon fill="#A80036" points="1289.95,216.316,1297.9924,210.6309,1292.5088,212.0204,1291.1194,206.5368,1289.95,216.316" style="stroke:#A80036;stroke-width:1.0;"/><text fill="#000000" font-family="sans-serif" font-size="13" lengthAdjust="spacing" textLength="31" x="1351" y="144.0669">offer</text><!--MD5=[a9d47b1159bdba106b48e40d38526ca1]
link Establishment to Advertisement--><path codeLine="97" d="M1104.65,88.502 C1115.31,123.819 1132.21,179.853 1141.78,211.563 " fill="none" id="Establishment-to-Advertisement" style="stroke:#A80036;stroke-width:1.0;"/><polygon fill="#A80036" points="1143.25,216.437,1144.4791,206.6651,1141.8054,211.6502,1136.8203,208.9765,1143.25,216.437" style="stroke:#A80036;stroke-width:1.0;"/><text fill="#000000" font-family="sans-serif" font-size="13" lengthAdjust="spacing" textLength="31" x="1123" y="144.0669">send</text><!--MD5=[d78ff4fdbf5cacc6f21a1c53386866eb]
link Operator to Transaction--><path codeLine="98" d="M653.521,295.094 C669.905,320.2448 688.2,348.327 700.736,367.5696 " fill="none" id="Operator-to-Transaction" style="stroke:#A80036;stroke-width:1.0;"/><polygon fill="#A80036" points="703.478,371.7788,701.9174,362.0544,700.749,367.5892,695.2141,366.4208,703.478,371.7788" style="stroke:#A80036;stroke-width:1.0;"/><text fill="#000000" font-family="sans-serif" font-size="13" lengthAdjust="spacing" textLength="32" x="685" y="338.0669">track</text><!--MD5=[58da342adb4de8a200eb2daaf3ab3880]
link Driver to Location--><path codeLine="99" d="M203.365,276.235 C232.838,305.235 272.157,343.9241 296.776,368.1482 " fill="none" id="Driver-to-Location" style="stroke:#A80036;stroke-width:1.0;"/><polygon fill="#A80036" points="300.597,371.9081,296.9877,362.7444,297.0332,368.4011,291.3765,368.4466,300.597,371.9081" style="stroke:#A80036;stroke-width:1.0;"/><text fill="#000000" font-family="sans-serif" font-size="13" lengthAdjust="spacing" textLength="38" x="271" y="338.0669">select</text><!--MD5=[68143c8674b44c2b182313e24ee09193]
link Operator to Login--><path codeLine="100" d="M567.825,276.95 C549.642,291.923 528.809,309.178 510,325 C491.896,340.229 471.584,357.6538 456.369,370.774 " fill="none" id="Operator-to-Login" style="stroke:#A80036;stroke-width:1.0;"/><polygon fill="#A80036" points="452.219,374.355,461.6465,371.5049,456.0049,371.089,456.4208,365.4474,452.219,374.355" style="stroke:#A80036;stroke-width:1.0;"/><text fill="#000000" font-family="sans-serif" font-size="13" lengthAdjust="spacing" textLength="32" x="511" y="338.0669">have</text><!--MD5=[9cc0ccd97e0c2b1ecdadc96df79a8d6f]
link Customer to Car--><path codeLine="101" d="M1000.858,269.679 C986.245,298.811 965.055,341.0534 951.922,367.2329 " fill="none" id="Customer-to-Car" style="stroke:#A80036;stroke-width:1.0;"/><polygon fill="#A80036" points="949.567,371.9275,957.1775,365.676,951.8087,367.4582,950.0265,362.0894,949.567,371.9275" style="stroke:#A80036;stroke-width:1.0;"/><text fill="#000000" font-family="sans-serif" font-size="13" lengthAdjust="spacing" textLength="49" x="973" y="338.0669">request</text><!--MD5=[7433a5b5397b198047d3f0959d7c84d5]
link Head to Pricing--><path codeLine="102" d="M1818.6,88.823 C1812.34,101.547 1806.14,116.552 1803,131 C1797.14,157.977 1799.3,189.789 1802.02,211.167 " fill="none" id="Head-to-Pricing" style="stroke:#A80036;stroke-width:1.0;"/><polygon fill="#A80036" points="1802.72,216.367,1805.4865,206.9147,1802.0545,211.4115,1797.5577,207.9795,1802.72,216.367" style="stroke:#A80036;stroke-width:1.0;"/><text fill="#000000" font-family="sans-serif" font-size="13" lengthAdjust="spacing" textLength="39" x="1804" y="144.0669">adjust</text><!--MD5=[5afc573c6f07a2822577eb54daeba940]
link Driver to Option--><path codeLine="103" d="M152.323,282.311 C145.12,309.954 136.163,344.3238 130.274,366.9229 " fill="none" id="Driver-to-Option" style="stroke:#A80036;stroke-width:1.0;"/><polygon fill="#A80036" points="128.993,371.8405,135.1334,364.1402,130.254,367.0021,127.392,362.1226,128.993,371.8405" style="stroke:#A80036;stroke-width:1.0;"/><text fill="#000000" font-family="sans-serif" font-size="13" lengthAdjust="spacing" textLength="32" x="142" y="338.0669">have</text><!--MD5=[5490f5d771f20c8458eb9f3c66926015]
link Operator to Notification--><path codeLine="104" d="M664.211,272.909 C704.525,302.517 760.768,343.825 794.936,368.9193 " fill="none" id="Operator-to-Notification" style="stroke:#A80036;stroke-width:1.0;"/><polygon fill="#A80036" points="798.99,371.8973,794.1023,363.3469,794.9595,368.9384,789.368,369.7956,798.99,371.8973" style="stroke:#A80036;stroke-width:1.0;"/><text fill="#000000" font-family="sans-serif" font-size="13" lengthAdjust="spacing" textLength="31" x="759" y="338.0669">send</text><!--MD5=[9d661380b54d9bff4ee137bc0bb1b8a2]
link User to Information--><path codeLine="105" d="M1976,82.146 C1976,116.649 1976,177.567 1976,211.308 " fill="none" id="User-to-Information" style="stroke:#A80036;stroke-width:1.0;"/><polygon fill="#A80036" points="1976,216.482,1980,207.482,1976,211.482,1972,207.482,1976,216.482" style="stroke:#A80036;stroke-width:1.0;"/><text fill="#000000" font-family="sans-serif" font-size="13" lengthAdjust="spacing" textLength="45" x="1977" y="144.0669">include</text><!--MD5=[17eb17ec7bfd32004f85eab07d5771ed]
link Driver to Valet--><path codeLine="106" d="M124.942,269.096 C106.6102,284.893 85.0893,304.898 68,325 C56.779,338.1993 46.1339,354.4968 38.2424,367.5942 " fill="none" id="Driver-to-Valet" style="stroke:#A80036;stroke-width:1.0;"/><polygon fill="#A80036" points="35.6749,371.9041,43.7175,366.2193,38.2339,367.6086,36.8446,362.125,35.6749,371.9041" style="stroke:#A80036;stroke-width:1.0;"/><text fill="#000000" font-family="sans-serif" font-size="13" lengthAdjust="spacing" textLength="59" x="69" y="338.0669">message</text><!--MD5=[9eeca97bb41e62c49d44c7113973f28c]
link Establishment to Customer--><path codeLine="107" d="M1081.06,88.502 C1067.56,119.46 1047.14,166.335 1033,198.794 " fill="none" id="Establishment-to-Customer" style="stroke:#A80036;stroke-width:1.0;"/><polygon fill="#A80036" points="1030.96,203.474,1038.2227,196.8216,1032.9577,198.8904,1030.8889,193.6254,1030.96,203.474" style="stroke:#A80036;stroke-width:1.0;"/><text fill="#000000" font-family="sans-serif" font-size="13" lengthAdjust="spacing" textLength="43" x="1062" y="144.0669">attract</text><!--MD5=[df83bc19c4ca8e3067eeb20db22dff41]
link Company to Revenue--><path codeLine="108" d="M1447.49,101.208 C1456.46,136.107 1468.57,183.249 1475.81,211.395 " fill="none" id="Company-to-Revenue" style="stroke:#A80036;stroke-width:1.0;"/><polygon fill="#A80036" points="1477.1,216.422,1478.7345,206.7097,1475.8558,211.5793,1470.9862,208.7005,1477.1,216.422" style="stroke:#A80036;stroke-width:1.0;"/><text fill="#000000" font-family="sans-serif" font-size="13" lengthAdjust="spacing" textLength="44" x="1460" y="144.0669">control</text><!--MD5=[8458b70687e0b28baa34464f5be564f2]
link Operator to Employee--><path codeLine="109" d="M579.98,295.094 C564.383,320.0335 546.983,347.8552 534.958,367.0826 " fill="none" id="Operator-to-Employee" style="stroke:#A80036;stroke-width:1.0;"/><polygon fill="#A80036" points="532.021,371.7788,540.185,366.2698,534.6726,367.5398,533.4026,362.0273,532.021,371.7788" style="stroke:#A80036;stroke-width:1.0;"/><text fill="#000000" font-family="sans-serif" font-size="13" lengthAdjust="spacing" textLength="24" x="561" y="338.0669">add</text><!--MD5=[ebd7e5f5b9fa4dde2834aa2738c305f6]
link Customer to TicketNumber--><path codeLine="110" d="M1026.64,269.679 C1035.34,298.69 1047.93,340.7031 1055.78,366.9062 " fill="none" id="Customer-to-TicketNumber" style="stroke:#A80036;stroke-width:1.0;"/><polygon fill="#A80036" points="1057.28,371.9275,1058.5337,362.1588,1055.8474,367.1371,1050.8691,364.4508,1057.28,371.9275" style="stroke:#A80036;stroke-width:1.0;"/><text fill="#000000" font-family="sans-serif" font-size="13" lengthAdjust="spacing" textLength="34" x="1050" y="338.0669">enter</text><!--MD5=[67c0cc8a5db9dcc0c95a982e116eef0d]
@startuml
hide circle
class Driver<actor> {
}
class Company<actor> {
}
class Establishment<actor> {
}
class Customer<actor> {
}
class Operator<actor> {
}
class Head<actor> {
}
class User<actor> {
}
class Operator {
	receive()
	retrieve()
	add()
	track()
	have()
	send()
}
class Employee {
}
class Location {
}
class Request {
}
class Company {
	offer()
	receive()
	accept()
	control()
}
class PaymentOption {
}
class Transaction {
}
class Head {
	adjust()
	set()
}
class Pricing {
}
class Establishment {
	attract()
	send()
}
class Advertisement {
}
class Driver {
	have()
	create()
	select()
	message()
}
class Profile {
}
class Payment {
}
class Notification {
}
class Valet {
}
class Revenue {
}
class Customer {
	request()
	enter()
}
class TicketNumber {
}
class Price {
}
class Car {
}
class EmailTransactionSummaryReport {
}
class Login {
}
class Option {
}
class User {
	include()
}
class Information {
}
Operator - -> Location : have
Driver - -> Profile : create
Head - -> Price : set
Operator - -> Request : receive
Company - -> Payment : accept
Operator - -> Car : retrieve
Company - -> EmailTransactionSummaryReport : receive
Company - -> PaymentOption : offer
Establishment - -> Advertisement : send
Operator - -> Transaction : track
Driver - -> Location : select
Operator - -> Login : have
Customer - -> Car : request
Head - -> Pricing : adjust
Driver - -> Option : have
Operator - -> Notification : send
User - -> Information : include
Driver - -> Valet : message
Establishment - -> Customer : attract
Company - -> Revenue : control
Operator - -> Employee : add
Customer - -> TicketNumber : enter
@enduml

PlantUML version 1.2021.6beta6(Unknown compile time)
(GPL source distribution)
Java Runtime: Java(TM) SE Runtime Environment
JVM: Java HotSpot(TM) 64-Bit Server VM
Default Encoding: UTF-8
Language: en
Country: US
--></g></svg>