<?xml version="1.0" encoding="UTF-8" standalone="no"?><svg xmlns="http://www.w3.org/2000/svg" xmlns:xlink="http://www.w3.org/1999/xlink" contentScriptType="application/ecmascript" contentStyleType="text/css" height="734px" preserveAspectRatio="none" style="width:2446px;height:734px;background:#FFFFFF;" version="1.1" viewBox="0 0 2446 734" width="2446px" zoomAndPan="magnify"><defs><filter height="300%" id="f1hvgjegrxaram" width="300%" x="-1" y="-1"><feGaussianBlur result="blurOut" stdDeviation="2.0"/><feColorMatrix in="blurOut" result="blurOut2" type="matrix" values="0 0 0 0 0 0 0 0 0 0 0 0 0 0 0 0 0 0 .4 0"/><feOffset dx="4.0" dy="4.0" in="blurOut2" result="blurOut3"/><feBlend in="SourceGraphic" in2="blurOut3" mode="normal"/></filter></defs><g><!--MD5=[3fd616f346a44cd59a91eb10b19e157c]
class User--><rect codeLine="13" fill="#FEFECE" filter="url(#f1hvgjegrxaram)" height="283.2578" id="User" style="stroke:#A80036;stroke-width:1.5;" width="70" x="1102" y="191"/><text fill="#000000" font-family="sans-serif" font-size="12" lengthAdjust="spacing" textLength="29" x="1105" y="207.1387">User</text><rect fill="#FFFFFF" height="15.9688" style="stroke:#000000;stroke-width:1.0;stroke-dasharray:2.0,2.0;" width="33" x="1142" y="188"/><text fill="#000000" font-family="sans-serif" font-size="12" font-style="italic" lengthAdjust="spacing" textLength="31" x="1143" y="200.1387">actor</text><line style="stroke:#A80036;stroke-width:1.5;" x1="1103" x2="1171" y1="214.9688" y2="214.9688"/><line style="stroke:#A80036;stroke-width:1.5;" x1="1103" x2="1171" y1="222.9688" y2="222.9688"/><text fill="#000000" font-family="sans-serif" font-size="11" lengthAdjust="spacing" textLength="46" x="1108" y="237.1792">usable()</text><text fill="#000000" font-family="sans-serif" font-size="11" lengthAdjust="spacing" textLength="33" x="1108" y="249.9839">start()</text><text fill="#000000" font-family="sans-serif" font-size="11" lengthAdjust="spacing" textLength="35" x="1108" y="262.7886">track()</text><text fill="#000000" font-family="sans-serif" font-size="11" lengthAdjust="spacing" textLength="52" x="1108" y="275.5933">receive()</text><text fill="#000000" font-family="sans-serif" font-size="11" lengthAdjust="spacing" textLength="42" x="1108" y="288.3979">report()</text><text fill="#000000" font-family="sans-serif" font-size="11" lengthAdjust="spacing" textLength="48" x="1108" y="301.2026">update()</text><text fill="#000000" font-family="sans-serif" font-size="11" lengthAdjust="spacing" textLength="43" x="1108" y="314.0073">select()</text><text fill="#000000" font-family="sans-serif" font-size="11" lengthAdjust="spacing" textLength="44" x="1108" y="326.812">gauge()</text><text fill="#000000" font-family="sans-serif" font-size="11" lengthAdjust="spacing" textLength="27" x="1108" y="339.6167">get()</text><text fill="#000000" font-family="sans-serif" font-size="11" lengthAdjust="spacing" textLength="30" x="1108" y="352.4214">see()</text><text fill="#000000" font-family="sans-serif" font-size="11" lengthAdjust="spacing" textLength="54" x="1108" y="365.2261">redeem()</text><text fill="#000000" font-family="sans-serif" font-size="11" lengthAdjust="spacing" textLength="29" x="1108" y="378.0308">use()</text><text fill="#000000" font-family="sans-serif" font-size="11" lengthAdjust="spacing" textLength="44" x="1108" y="390.8354">dislike()</text><text fill="#000000" font-family="sans-serif" font-size="11" lengthAdjust="spacing" textLength="46" x="1108" y="403.6401">search()</text><text fill="#000000" font-family="sans-serif" font-size="11" lengthAdjust="spacing" textLength="49" x="1108" y="416.4448">answer()</text><text fill="#000000" font-family="sans-serif" font-size="11" lengthAdjust="spacing" textLength="36" x="1108" y="429.2495">mark()</text><text fill="#000000" font-family="sans-serif" font-size="11" lengthAdjust="spacing" textLength="35" x="1108" y="442.0542">view()</text><text fill="#000000" font-family="sans-serif" font-size="11" lengthAdjust="spacing" textLength="46" x="1108" y="454.8589">delete()</text><text fill="#000000" font-family="sans-serif" font-size="11" lengthAdjust="spacing" textLength="28" x="1108" y="467.6636">like()</text><!--MD5=[da547346deef918ea16944ba046651ef]
class Administrator--><rect codeLine="75" fill="#FEFECE" filter="url(#f1hvgjegrxaram)" height="52.7734" id="Administrator" style="stroke:#A80036;stroke-width:1.5;" width="121" x="2149.5" y="306"/><text fill="#000000" font-family="sans-serif" font-size="12" lengthAdjust="spacing" textLength="80" x="2152.5" y="322.1387">Administrator</text><rect fill="#FFFFFF" height="15.9688" style="stroke:#000000;stroke-width:1.0;stroke-dasharray:2.0,2.0;" width="33" x="2240.5" y="303"/><text fill="#000000" font-family="sans-serif" font-size="12" font-style="italic" lengthAdjust="spacing" textLength="31" x="2241.5" y="315.1387">actor</text><line style="stroke:#A80036;stroke-width:1.5;" x1="2150.5" x2="2269.5" y1="329.9688" y2="329.9688"/><line style="stroke:#A80036;stroke-width:1.5;" x1="2150.5" x2="2269.5" y1="337.9688" y2="337.9688"/><text fill="#000000" font-family="sans-serif" font-size="11" lengthAdjust="spacing" textLength="25" x="2155.5" y="352.1792">pin()</text><!--MD5=[15c6922f6693225acd2805a9f7199676]
class Maintainer--><rect codeLine="36" fill="#FEFECE" filter="url(#f1hvgjegrxaram)" height="103.9922" id="Maintainer" style="stroke:#A80036;stroke-width:1.5;" width="102" x="1565" y="10"/><text fill="#000000" font-family="sans-serif" font-size="12" lengthAdjust="spacing" textLength="61" x="1568" y="26.1387">Maintainer</text><rect fill="#FFFFFF" height="15.9688" style="stroke:#000000;stroke-width:1.0;stroke-dasharray:2.0,2.0;" width="33" x="1637" y="7"/><text fill="#000000" font-family="sans-serif" font-size="12" font-style="italic" lengthAdjust="spacing" textLength="31" x="1638" y="19.1387">actor</text><line style="stroke:#A80036;stroke-width:1.5;" x1="1566" x2="1666" y1="33.9688" y2="33.9688"/><line style="stroke:#A80036;stroke-width:1.5;" x1="1566" x2="1666" y1="41.9688" y2="41.9688"/><text fill="#000000" font-family="sans-serif" font-size="11" lengthAdjust="spacing" textLength="29" x="1571" y="56.1792">add()</text><text fill="#000000" font-family="sans-serif" font-size="11" lengthAdjust="spacing" textLength="55" x="1571" y="68.9839">manage()</text><text fill="#000000" font-family="sans-serif" font-size="11" lengthAdjust="spacing" textLength="30" x="1571" y="81.7886">edit()</text><text fill="#000000" font-family="sans-serif" font-size="11" lengthAdjust="spacing" textLength="45" x="1571" y="94.5933">create()</text><text fill="#000000" font-family="sans-serif" font-size="11" lengthAdjust="spacing" textLength="44" x="1571" y="107.3979">entice()</text><!--MD5=[ab5513caa948c03ee87f6bc67913e66b]
class GiftCard--><rect codeLine="8" fill="#FEFECE" filter="url(#f1hvgjegrxaram)" height="52.7734" id="GiftCard" style="stroke:#A80036;stroke-width:1.5;" width="54" x="7" y="551"/><text fill="#000000" font-family="sans-serif" font-size="12" lengthAdjust="spacing" textLength="48" x="10" y="567.1387">GiftCard</text><line style="stroke:#A80036;stroke-width:1.5;" x1="8" x2="60" y1="574.9688" y2="574.9688"/><line style="stroke:#A80036;stroke-width:1.5;" x1="8" x2="60" y1="582.9688" y2="582.9688"/><text fill="#000000" font-family="sans-serif" font-size="11" lengthAdjust="spacing" textLength="38" x="13" y="597.1792">using()</text><!--MD5=[972bde5337b4335dd91fa5354c932445]
class Point--><rect codeLine="11" fill="#FEFECE" filter="url(#f1hvgjegrxaram)" height="39.9688" id="Point" style="stroke:#A80036;stroke-width:1.5;" width="34" x="17" y="681"/><text fill="#000000" font-family="sans-serif" font-size="12" lengthAdjust="spacing" textLength="28" x="20" y="697.1387">Point</text><line style="stroke:#A80036;stroke-width:1.5;" x1="18" x2="50" y1="704.9688" y2="704.9688"/><line style="stroke:#A80036;stroke-width:1.5;" x1="18" x2="50" y1="712.9688" y2="712.9688"/><!--MD5=[7b57f7066b803747d2119f99dd1555d4]
class Profile--><rect codeLine="34" fill="#FEFECE" filter="url(#f1hvgjegrxaram)" height="39.9688" id="Profile" style="stroke:#A80036;stroke-width:1.5;" width="43" x="370.5" y="557.5"/><text fill="#000000" font-family="sans-serif" font-size="12" lengthAdjust="spacing" textLength="37" x="373.5" y="573.6387">Profile</text><line style="stroke:#A80036;stroke-width:1.5;" x1="371.5" x2="412.5" y1="581.4688" y2="581.4688"/><line style="stroke:#A80036;stroke-width:1.5;" x1="371.5" x2="412.5" y1="589.4688" y2="589.4688"/><!--MD5=[042fa140da40c49659127f611bcff931]
class Comment--><rect codeLine="43" fill="#FEFECE" filter="url(#f1hvgjegrxaram)" height="39.9688" id="Comment" style="stroke:#A80036;stroke-width:1.5;" width="63" x="164.5" y="557.5"/><text fill="#000000" font-family="sans-serif" font-size="12" lengthAdjust="spacing" textLength="57" x="167.5" y="573.6387">Comment</text><line style="stroke:#A80036;stroke-width:1.5;" x1="165.5" x2="226.5" y1="581.4688" y2="581.4688"/><line style="stroke:#A80036;stroke-width:1.5;" x1="165.5" x2="226.5" y1="589.4688" y2="589.4688"/><!--MD5=[9bb0bdd047fba1a3c8d48282c35b4537]
class Post--><rect codeLine="45" fill="#FEFECE" filter="url(#f1hvgjegrxaram)" height="39.9688" id="Post" style="stroke:#A80036;stroke-width:1.5;" width="31" x="492.5" y="557.5"/><text fill="#000000" font-family="sans-serif" font-size="12" lengthAdjust="spacing" textLength="25" x="495.5" y="573.6387">Post</text><line style="stroke:#A80036;stroke-width:1.5;" x1="493.5" x2="522.5" y1="581.4688" y2="581.4688"/><line style="stroke:#A80036;stroke-width:1.5;" x1="493.5" x2="522.5" y1="589.4688" y2="589.4688"/><!--MD5=[b076201f908879798ada25c383f23fa3]
class NewsFeed--><rect codeLine="47" fill="#FEFECE" filter="url(#f1hvgjegrxaram)" height="39.9688" id="NewsFeed" style="stroke:#A80036;stroke-width:1.5;" width="70" x="559" y="557.5"/><text fill="#000000" font-family="sans-serif" font-size="12" lengthAdjust="spacing" textLength="64" x="562" y="573.6387">NewsFeed</text><line style="stroke:#A80036;stroke-width:1.5;" x1="560" x2="628" y1="581.4688" y2="581.4688"/><line style="stroke:#A80036;stroke-width:1.5;" x1="560" x2="628" y1="589.4688" y2="589.4688"/><!--MD5=[f9fadfa5a66b7e5a67b370cd443ffe52]
class Answer--><rect codeLine="49" fill="#FEFECE" filter="url(#f1hvgjegrxaram)" height="39.9688" id="Answer" style="stroke:#A80036;stroke-width:1.5;" width="51" x="710.5" y="557.5"/><text fill="#000000" font-family="sans-serif" font-size="12" lengthAdjust="spacing" textLength="45" x="713.5" y="573.6387">Answer</text><line style="stroke:#A80036;stroke-width:1.5;" x1="711.5" x2="760.5" y1="581.4688" y2="581.4688"/><line style="stroke:#A80036;stroke-width:1.5;" x1="711.5" x2="760.5" y1="589.4688" y2="589.4688"/><!--MD5=[0a43156e7de176c6a14699d6e578d426]
class OrderingCriterion--><rect codeLine="51" fill="#FEFECE" filter="url(#f1hvgjegrxaram)" height="39.9688" id="OrderingCriterion" style="stroke:#A80036;stroke-width:1.5;" width="111" x="808.5" y="557.5"/><text fill="#000000" font-family="sans-serif" font-size="12" lengthAdjust="spacing" textLength="105" x="811.5" y="573.6387">OrderingCriterion</text><line style="stroke:#A80036;stroke-width:1.5;" x1="809.5" x2="918.5" y1="581.4688" y2="581.4688"/><line style="stroke:#A80036;stroke-width:1.5;" x1="809.5" x2="918.5" y1="589.4688" y2="589.4688"/><!--MD5=[ac13618b1a974308c1f12eb6c57723dc]
class Event--><rect codeLine="53" fill="#FEFECE" filter="url(#f1hvgjegrxaram)" height="39.9688" id="Event" style="stroke:#A80036;stroke-width:1.5;" width="39" x="1596.5" y="312.5"/><text fill="#000000" font-family="sans-serif" font-size="12" lengthAdjust="spacing" textLength="33" x="1599.5" y="328.6387">Event</text><line style="stroke:#A80036;stroke-width:1.5;" x1="1597.5" x2="1634.5" y1="336.4688" y2="336.4688"/><line style="stroke:#A80036;stroke-width:1.5;" x1="1597.5" x2="1634.5" y1="344.4688" y2="344.4688"/><!--MD5=[d6d0139909907e6d9a450a5f34bc9321]
class WATPoint--><rect codeLine="55" fill="#FEFECE" filter="url(#f1hvgjegrxaram)" height="39.9688" id="WATPoint" style="stroke:#A80036;stroke-width:1.5;" width="61" x="978.5" y="557.5"/><text fill="#000000" font-family="sans-serif" font-size="12" lengthAdjust="spacing" textLength="55" x="981.5" y="573.6387">WATPoint</text><line style="stroke:#A80036;stroke-width:1.5;" x1="979.5" x2="1038.5" y1="581.4688" y2="581.4688"/><line style="stroke:#A80036;stroke-width:1.5;" x1="979.5" x2="1038.5" y1="589.4688" y2="589.4688"/><!--MD5=[9dda5a78f2e9474cdcafc64756662734]
class Forum--><rect codeLine="57" fill="#FEFECE" filter="url(#f1hvgjegrxaram)" height="39.9688" id="Forum" style="stroke:#A80036;stroke-width:1.5;" width="44" x="1076" y="557.5"/><text fill="#000000" font-family="sans-serif" font-size="12" lengthAdjust="spacing" textLength="38" x="1079" y="573.6387">Forum</text><line style="stroke:#A80036;stroke-width:1.5;" x1="1077" x2="1119" y1="581.4688" y2="581.4688"/><line style="stroke:#A80036;stroke-width:1.5;" x1="1077" x2="1119" y1="589.4688" y2="589.4688"/><!--MD5=[f33202a4358b6dc53d5337ad154687fb]
class Progress--><rect codeLine="59" fill="#FEFECE" filter="url(#f1hvgjegrxaram)" height="39.9688" id="Progress" style="stroke:#A80036;stroke-width:1.5;" width="60" x="1155" y="557.5"/><text fill="#000000" font-family="sans-serif" font-size="12" lengthAdjust="spacing" textLength="54" x="1158" y="573.6387">Progress</text><line style="stroke:#A80036;stroke-width:1.5;" x1="1156" x2="1214" y1="581.4688" y2="581.4688"/><line style="stroke:#A80036;stroke-width:1.5;" x1="1156" x2="1214" y1="589.4688" y2="589.4688"/><!--MD5=[94c938a5730286cd24ee618edf9a48e3]
class PointBalance--><rect codeLine="61" fill="#FEFECE" filter="url(#f1hvgjegrxaram)" height="39.9688" id="PointBalance" style="stroke:#A80036;stroke-width:1.5;" width="81" x="1250.5" y="557.5"/><text fill="#000000" font-family="sans-serif" font-size="12" lengthAdjust="spacing" textLength="75" x="1253.5" y="573.6387">PointBalance</text><line style="stroke:#A80036;stroke-width:1.5;" x1="1251.5" x2="1330.5" y1="581.4688" y2="581.4688"/><line style="stroke:#A80036;stroke-width:1.5;" x1="1251.5" x2="1330.5" y1="589.4688" y2="589.4688"/><!--MD5=[b4fcf23bccaab157e4562a91bb7b243e]
class Leaderboard--><rect codeLine="63" fill="#FEFECE" filter="url(#f1hvgjegrxaram)" height="39.9688" id="Leaderboard" style="stroke:#A80036;stroke-width:1.5;" width="84" x="1367" y="557.5"/><text fill="#000000" font-family="sans-serif" font-size="12" lengthAdjust="spacing" textLength="78" x="1370" y="573.6387">Leaderboard</text><line style="stroke:#A80036;stroke-width:1.5;" x1="1368" x2="1450" y1="581.4688" y2="581.4688"/><line style="stroke:#A80036;stroke-width:1.5;" x1="1368" x2="1450" y1="589.4688" y2="589.4688"/><!--MD5=[2731afa3914a2f1855b4f1ebf120a43f]
class Gift--><rect codeLine="65" fill="#FEFECE" filter="url(#f1hvgjegrxaram)" height="39.9688" id="Gift" style="stroke:#A80036;stroke-width:1.5;" width="26" x="1486" y="557.5"/><text fill="#000000" font-family="sans-serif" font-size="12" lengthAdjust="spacing" textLength="20" x="1489" y="573.6387">Gift</text><line style="stroke:#A80036;stroke-width:1.5;" x1="1487" x2="1511" y1="581.4688" y2="581.4688"/><line style="stroke:#A80036;stroke-width:1.5;" x1="1487" x2="1511" y1="589.4688" y2="589.4688"/><!--MD5=[948346f2dfe9866ea883595a582714fa]
class Thread--><rect codeLine="67" fill="#FEFECE" filter="url(#f1hvgjegrxaram)" height="39.9688" id="Thread" style="stroke:#A80036;stroke-width:1.5;" width="48" x="2027" y="557.5"/><text fill="#000000" font-family="sans-serif" font-size="12" lengthAdjust="spacing" textLength="42" x="2030" y="573.6387">Thread</text><line style="stroke:#A80036;stroke-width:1.5;" x1="2028" x2="2074" y1="581.4688" y2="581.4688"/><line style="stroke:#A80036;stroke-width:1.5;" x1="2028" x2="2074" y1="589.4688" y2="589.4688"/><!--MD5=[028fba31e0312914fa4880b63f0540b8]
class Detail--><rect codeLine="69" fill="#FEFECE" filter="url(#f1hvgjegrxaram)" height="39.9688" id="Detail" style="stroke:#A80036;stroke-width:1.5;" width="40" x="2306" y="312.5"/><text fill="#000000" font-family="sans-serif" font-size="12" lengthAdjust="spacing" textLength="34" x="2309" y="328.6387">Detail</text><line style="stroke:#A80036;stroke-width:1.5;" x1="2307" x2="2345" y1="336.4688" y2="336.4688"/><line style="stroke:#A80036;stroke-width:1.5;" x1="2307" x2="2345" y1="344.4688" y2="344.4688"/><!--MD5=[dc2c0404096162f13f63ae7aa1b69b6e]
class Credibility--><rect codeLine="71" fill="#FEFECE" filter="url(#f1hvgjegrxaram)" height="39.9688" id="Credibility" style="stroke:#A80036;stroke-width:1.5;" width="66" x="1547" y="557.5"/><text fill="#000000" font-family="sans-serif" font-size="12" lengthAdjust="spacing" textLength="60" x="1550" y="573.6387">Credibility</text><line style="stroke:#A80036;stroke-width:1.5;" x1="1548" x2="1612" y1="581.4688" y2="581.4688"/><line style="stroke:#A80036;stroke-width:1.5;" x1="1548" x2="1612" y1="589.4688" y2="589.4688"/><!--MD5=[30fd7b95ab383a5e7c83ea23d4ea0fbf]
class Information--><rect codeLine="73" fill="#FEFECE" filter="url(#f1hvgjegrxaram)" height="39.9688" id="Information" style="stroke:#A80036;stroke-width:1.5;" width="73" x="1648.5" y="557.5"/><text fill="#000000" font-family="sans-serif" font-size="12" lengthAdjust="spacing" textLength="67" x="1651.5" y="573.6387">Information</text><line style="stroke:#A80036;stroke-width:1.5;" x1="1649.5" x2="1720.5" y1="581.4688" y2="581.4688"/><line style="stroke:#A80036;stroke-width:1.5;" x1="1649.5" x2="1720.5" y1="589.4688" y2="589.4688"/><!--MD5=[3511f803a31cb4fbfab7936e9b4660bc]
class Lifetime--><rect codeLine="78" fill="#FEFECE" filter="url(#f1hvgjegrxaram)" height="39.9688" id="Lifetime" style="stroke:#A80036;stroke-width:1.5;" width="53" x="1756.5" y="557.5"/><text fill="#000000" font-family="sans-serif" font-size="12" lengthAdjust="spacing" textLength="47" x="1759.5" y="573.6387">Lifetime</text><line style="stroke:#A80036;stroke-width:1.5;" x1="1757.5" x2="1808.5" y1="581.4688" y2="581.4688"/><line style="stroke:#A80036;stroke-width:1.5;" x1="1757.5" x2="1808.5" y1="589.4688" y2="589.4688"/><!--MD5=[72136138052d025cffdce3c22fbd185f]
class Product--><rect codeLine="80" fill="#FEFECE" filter="url(#f1hvgjegrxaram)" height="39.9688" id="Product" style="stroke:#A80036;stroke-width:1.5;" width="51" x="2381.5" y="312.5"/><text fill="#000000" font-family="sans-serif" font-size="12" lengthAdjust="spacing" textLength="45" x="2384.5" y="328.6387">Product</text><line style="stroke:#A80036;stroke-width:1.5;" x1="2382.5" x2="2431.5" y1="336.4688" y2="336.4688"/><line style="stroke:#A80036;stroke-width:1.5;" x1="2382.5" x2="2431.5" y1="344.4688" y2="344.4688"/><!--MD5=[fc7123defb831ecdd44b2d9bcef6cceb]
class Question--><rect codeLine="82" fill="#FEFECE" filter="url(#f1hvgjegrxaram)" height="39.9688" id="Question" style="stroke:#A80036;stroke-width:1.5;" width="60" x="1845" y="557.5"/><text fill="#000000" font-family="sans-serif" font-size="12" lengthAdjust="spacing" textLength="54" x="1848" y="573.6387">Question</text><line style="stroke:#A80036;stroke-width:1.5;" x1="1846" x2="1904" y1="581.4688" y2="581.4688"/><line style="stroke:#A80036;stroke-width:1.5;" x1="1846" x2="1904" y1="589.4688" y2="589.4688"/><!--MD5=[e197af9641e783e6a87abdac0b55dc1a]
link User to Thread--><path codeLine="84" d="M1172.1,347.624 C1246,376.691 1423.63,443.067 1579,474 C1732.56,504.571 1781.02,455.859 1930,504 C1949.1,510.172 1993.36,538.171 2022.72,557.51 " fill="none" id="User-to-Thread" style="stroke:#A80036;stroke-width:1.0;"/><polygon fill="#A80036" points="2026.94,560.297,2021.6374,551.9974,2022.7688,557.54,2017.2262,558.6714,2026.94,560.297" style="stroke:#A80036;stroke-width:1.0;"/><text fill="#000000" font-family="sans-serif" font-size="13" lengthAdjust="spacing" textLength="40" x="1964" y="517.0669">delete</text><!--MD5=[e197af9641e783e6a87abdac0b55dc1a]
link User to Thread--><path codeLine="109" d="M1172.06,347.825 C1245.89,377.271 1423.38,444.318 1579,474 C1673.74,492.071 1930.96,451.69 2012,504 C2028.98,514.958 2039.1,535.924 2044.76,552.502 " fill="none" id="User-to-Thread-1" style="stroke:#A80036;stroke-width:1.0;"/><polygon fill="#A80036" points="2046.37,557.49,2047.401,547.6953,2044.8288,552.7335,2039.7906,550.1612,2046.37,557.49" style="stroke:#A80036;stroke-width:1.0;"/><text fill="#000000" font-family="sans-serif" font-size="13" lengthAdjust="spacing" textLength="30" x="2030" y="517.0669">start</text><!--MD5=[e197af9641e783e6a87abdac0b55dc1a]
link User to Thread--><path codeLine="113" d="M1172.21,347.124 C1246.3,375.251 1424.28,439.956 1579,474 C1683.12,496.911 1712.79,481.471 1817,504 C1856.87,512.619 1968.36,549.024 2021.76,566.738 " fill="none" id="User-to-Thread-2" style="stroke:#A80036;stroke-width:1.0;"/><polygon fill="#A80036" points="2026.75,568.392,2019.4642,561.765,2022.0036,566.8199,2016.9488,569.3593,2026.75,568.392" style="stroke:#A80036;stroke-width:1.0;"/><text fill="#000000" font-family="sans-serif" font-size="13" lengthAdjust="spacing" textLength="39" x="1875" y="517.0669">report</text><!--MD5=[536384a6f716a0154588e079284d191d]
link Maintainer to Comment--><path codeLine="85" d="M1564.71,71.538 C1461.89,89.234 1223.72,133.136 1029,191 C653.477,302.594 446.933,195.878 205,504 C194.444,517.444 192.508,536.825 193.041,552.167 " fill="none" id="Maintainer-to-Comment" style="stroke:#A80036;stroke-width:1.0;"/><polygon fill="#A80036" points="193.308,557.2,196.8267,548.0011,193.0437,552.207,188.8379,548.424,193.308,557.2" style="stroke:#A80036;stroke-width:1.0;"/><text fill="#000000" font-family="sans-serif" font-size="13" lengthAdjust="spacing" textLength="53" x="1030" y="337.0669">manage</text><!--MD5=[00013583ff5de2cfdeaafb0ac2d35ee9]
link Maintainer to Event--><path codeLine="86" d="M1616,114.135 C1616,172.034 1616,263.938 1616,307.318 " fill="none" id="Maintainer-to-Event" style="stroke:#A80036;stroke-width:1.0;"/><polygon fill="#A80036" points="1616,312.362,1620,303.362,1616,307.362,1612,303.362,1616,312.362" style="stroke:#A80036;stroke-width:1.0;"/><text fill="#000000" font-family="sans-serif" font-size="13" lengthAdjust="spacing" textLength="41" x="1617" y="157.0669">create</text><!--MD5=[89a729879333f4a514a72f7623177c63]
link User to Question--><path codeLine="87" d="M1172.23,345.793 C1246.72,371.547 1425.97,432.233 1579,474 C1636.62,489.727 1653,486.146 1710,504 C1763.48,520.751 1776.18,527.377 1827,551 C1831.27,552.986 1835.71,555.168 1840.07,557.394 " fill="none" id="User-to-Question" style="stroke:#A80036;stroke-width:1.0;"/><polygon fill="#A80036" points="1844.78,559.818,1838.6059,552.1446,1840.3336,557.5312,1834.947,559.2589,1844.78,559.818" style="stroke:#A80036;stroke-width:1.0;"/><text fill="#000000" font-family="sans-serif" font-size="13" lengthAdjust="spacing" textLength="47" x="1761" y="517.0669">answer</text><!--MD5=[427a7b8a8d0a6ace38972764c6712a0b]
link User to Gift--><path codeLine="88" d="M1172.13,354.857 C1233.5,392.539 1363.64,474.131 1468,551 C1472.64,554.417 1477.52,558.288 1481.99,561.961 " fill="none" id="User-to-Gift" style="stroke:#A80036;stroke-width:1.0;"/><polygon fill="#A80036" points="1485.97,565.262,1481.5877,556.4418,1482.1184,562.0738,1476.4865,562.6045,1485.97,565.262" style="stroke:#A80036;stroke-width:1.0;"/><text fill="#000000" font-family="sans-serif" font-size="13" lengthAdjust="spacing" textLength="50" x="1426" y="517.0669">redeem</text><!--MD5=[77c575690b0287b9077f2f97ff7c450d]
link User to Post--><path codeLine="89" d="M1101.98,337.844 C1009.83,350.55 755.385,393.933 577,504 C556.279,516.785 537.569,537.296 524.876,553.244 " fill="none" id="User-to-Post" style="stroke:#A80036;stroke-width:1.0;"/><polygon fill="#A80036" points="521.782,557.193,530.4826,552.5779,524.8668,553.258,524.1867,547.6422,521.782,557.193" style="stroke:#A80036;stroke-width:1.0;"/><text fill="#000000" font-family="sans-serif" font-size="13" lengthAdjust="spacing" textLength="40" x="578" y="517.0669">delete</text><!--MD5=[61ee93df81f29c8cb3678b425f18875b]
link User to WATPoint--><path codeLine="90" d="M1101.84,365.378 C1069.85,396.954 1024.86,448.51 1006,504 C1000.73,519.51 1001.587,537.968 1003.707,552.379 " fill="none" id="User-to-WATPoint" style="stroke:#A80036;stroke-width:1.0;"/><polygon fill="#A80036" points="1004.537,557.492,1007.0428,547.9673,1003.7356,552.5566,999.1462,549.2494,1004.537,557.492" style="stroke:#A80036;stroke-width:1.0;"/><text fill="#000000" font-family="sans-serif" font-size="13" lengthAdjust="spacing" textLength="50" x="1007" y="517.0669">redeem</text><!--MD5=[61ee93df81f29c8cb3678b425f18875b]
link User to WATPoint--><path codeLine="93" d="M1101.9,441.608 C1090.99,468.55 1077.64,496.671 1062,521 C1054.43,532.773 1044.15,544.23 1034.65,553.647 " fill="none" id="User-to-WATPoint-1" style="stroke:#A80036;stroke-width:1.0;"/><polygon fill="#A80036" points="1030.92,557.286,1040.1587,553.8734,1034.5024,553.798,1034.5779,548.1416,1030.92,557.286" style="stroke:#A80036;stroke-width:1.0;"/><text fill="#000000" font-family="sans-serif" font-size="13" lengthAdjust="spacing" textLength="30" x="1072" y="517.0669">view</text><!--MD5=[61ee93df81f29c8cb3678b425f18875b]
link User to WATPoint--><path codeLine="104" d="M1101.78,356.472 C1061.15,385.313 996.539,438.976 970,504 C962.99,521.176 973.114,539.572 984.8,553.536 " fill="none" id="User-to-WATPoint-2" style="stroke:#A80036;stroke-width:1.0;"/><polygon fill="#A80036" points="988.124,557.352,985.2283,547.9385,984.8397,553.582,979.1962,553.1934,988.124,557.352" style="stroke:#A80036;stroke-width:1.0;"/><text fill="#000000" font-family="sans-serif" font-size="13" lengthAdjust="spacing" textLength="23" x="971" y="517.0669">use</text><!--MD5=[ab630e7d20c7792532cfbdfbcc2f6e6b]
link Maintainer to Thread--><path codeLine="91" d="M1667.11,92.835 C1767.06,154.546 1985.88,307.069 2069,504 C2075.57,519.565 2070.79,538.063 2064.51,552.479 " fill="none" id="Maintainer-to-Thread" style="stroke:#A80036;stroke-width:1.0;"/><polygon fill="#A80036" points="2062.34,557.201,2069.7354,550.6966,2064.4298,552.6587,2062.4677,547.353,2062.34,557.201" style="stroke:#A80036;stroke-width:1.0;"/><text fill="#000000" font-family="sans-serif" font-size="13" lengthAdjust="spacing" textLength="53" x="2054" y="337.0669">manage</text><!--MD5=[e4773dd10a40f4bea1ef171b82a8bbf2]
link User to NewsFeed--><path codeLine="92" d="M1101.99,337.847 C1015.8,350.065 789.67,391.48 643,504 C626.396,516.738 613.474,536.759 605.078,552.537 " fill="none" id="User-to-NewsFeed" style="stroke:#A80036;stroke-width:1.0;"/><polygon fill="#A80036" points="602.619,557.285,610.3104,551.1334,604.9188,552.8453,603.207,547.4537,602.619,557.285" style="stroke:#A80036;stroke-width:1.0;"/><text fill="#000000" font-family="sans-serif" font-size="13" lengthAdjust="spacing" textLength="21" x="644" y="517.0669">get</text><!--MD5=[3ce573af109d62397667c5235c20ebbd]
link Maintainer to Detail--><path codeLine="94" d="M1667.11,65.679 C1808.23,74.131 2198.76,104.967 2288,191 C2319.64,221.504 2325.83,275.418 2326.54,306.848 " fill="none" id="Maintainer-to-Detail" style="stroke:#A80036;stroke-width:1.0;"/><polygon fill="#A80036" points="2326.62,312.068,2330.4936,303.0129,2326.55,307.0685,2322.4944,303.1249,2326.62,312.068" style="stroke:#A80036;stroke-width:1.0;"/><text fill="#000000" font-family="sans-serif" font-size="13" lengthAdjust="spacing" textLength="24" x="2231" y="157.0669">edit</text><!--MD5=[a7c43d80471c30bc29d5b7d0e67b37f8]
link User to GiftCard--><path codeLine="95" d="M1101.7,339.14 C983.461,358.31 590.875,424.222 272,504 C197.408,522.662 111.472,550.426 66.0368,565.61 " fill="none" id="User-to-GiftCard" style="stroke:#A80036;stroke-width:1.0;"/><polygon fill="#A80036" points="61.234,567.219,71.0385,568.1528,65.975,565.6307,68.4971,560.5672,61.234,567.219" style="stroke:#A80036;stroke-width:1.0;"/><text fill="#000000" font-family="sans-serif" font-size="13" lengthAdjust="spacing" textLength="47" x="273" y="517.0669">receive</text><!--MD5=[2dd21c5e4d24a00e804d12dd0c7b0d9f]
link User to Comment--><path codeLine="96" d="M1101.8,339.168 C992.247,357.269 648.211,417.61 373,504 C323.121,519.657 267.651,543.475 232.331,559.496 " fill="none" id="User-to-Comment" style="stroke:#A80036;stroke-width:1.0;"/><polygon fill="#A80036" points="227.697,561.605,237.5455,561.5164,232.2476,559.5333,234.2307,554.2354,227.697,561.605" style="stroke:#A80036;stroke-width:1.0;"/><text fill="#000000" font-family="sans-serif" font-size="13" lengthAdjust="spacing" textLength="33" x="374" y="517.0669">mark</text><!--MD5=[658927cb44a983a3932a63580c32fed4]
link Maintainer to User--><path codeLine="97" d="M1564.74,91.734 C1468.59,145.628 1263.11,260.808 1176.64,309.277 " fill="none" id="Maintainer-to-User" style="stroke:#A80036;stroke-width:1.0;"/><polygon fill="#A80036" points="1172.12,311.814,1181.9246,310.8814,1176.4762,309.3598,1177.9979,303.9114,1172.12,311.814" style="stroke:#A80036;stroke-width:1.0;"/><text fill="#000000" font-family="sans-serif" font-size="13" lengthAdjust="spacing" textLength="39" x="1463" y="157.0669">entice</text><!--MD5=[5df4ec8c0b136f9676aae9609ee39699]
link User to Credibility--><path codeLine="98" d="M1172.02,347.931 C1236.15,374.937 1375.84,436.515 1485,504 C1509.28,519.012 1534.9,538.83 1553.41,553.952 " fill="none" id="User-to-Credibility" style="stroke:#A80036;stroke-width:1.0;"/><polygon fill="#A80036" points="1557.49,557.298,1553.0706,548.4964,1553.625,554.126,1547.9954,554.6804,1557.49,557.298" style="stroke:#A80036;stroke-width:1.0;"/><text fill="#000000" font-family="sans-serif" font-size="13" lengthAdjust="spacing" textLength="40" x="1511" y="517.0669">gauge</text><!--MD5=[c8c314011fafa3762ec5b219138322f9]
link User to Answer--><path codeLine="99" d="M1101.7,335.982 C1019.9,343.861 817.905,376.011 733,504 C723.678,518.053 724.925,537.234 728.238,552.336 " fill="none" id="User-to-Answer" style="stroke:#A80036;stroke-width:1.0;"/><polygon fill="#A80036" points="729.428,557.289,731.2137,547.6034,728.2594,552.4275,723.4353,549.4731,729.428,557.289" style="stroke:#A80036;stroke-width:1.0;"/><text fill="#000000" font-family="sans-serif" font-size="13" lengthAdjust="spacing" textLength="23" x="734" y="517.0669">see</text><!--MD5=[c8c314011fafa3762ec5b219138322f9]
link User to Answer--><path codeLine="100" d="M1101.77,354.852 C1024.06,401.938 839.123,514.009 766.255,558.166 " fill="none" id="User-to-Answer-1" style="stroke:#A80036;stroke-width:1.0;"/><polygon fill="#A80036" points="761.619,560.975,771.389,559.7309,765.895,558.3834,767.2425,552.8894,761.619,560.975" style="stroke:#A80036;stroke-width:1.0;"/><text fill="#000000" font-family="sans-serif" font-size="13" lengthAdjust="spacing" textLength="21" x="856" y="517.0669">like</text><!--MD5=[c8c314011fafa3762ec5b219138322f9]
link User to Answer--><path codeLine="106" d="M1101.78,334.056 C1012.54,337.602 777.605,360.746 678,504 C664.512,523.398 685.483,544.35 705.875,558.718 " fill="none" id="User-to-Answer-2" style="stroke:#A80036;stroke-width:1.0;"/><polygon fill="#A80036" points="710.205,561.681,705.0379,553.2964,706.0791,558.8566,700.5189,559.8978,710.205,561.681" style="stroke:#A80036;stroke-width:1.0;"/><text fill="#000000" font-family="sans-serif" font-size="13" lengthAdjust="spacing" textLength="39" x="679" y="517.0669">dislike</text><!--MD5=[ba41ab4b1bac97c809721ea10f7dbf6e]
link User to OrderingCriterion--><path codeLine="101" d="M1101.77,357.087 C1056.95,387.974 978.367,445.148 920,504 C905.08,519.044 890.524,538.064 879.993,552.847 " fill="none" id="User-to-OrderingCriterion" style="stroke:#A80036;stroke-width:1.0;"/><polygon fill="#A80036" points="876.858,557.29,885.3151,552.2424,879.7406,553.2046,878.7784,547.6302,876.858,557.29" style="stroke:#A80036;stroke-width:1.0;"/><text fill="#000000" font-family="sans-serif" font-size="13" lengthAdjust="spacing" textLength="38" x="921" y="517.0669">select</text><!--MD5=[9d661380b54d9bff4ee137bc0bb1b8a2]
link User to Information--><path codeLine="102" d="M1172.27,345.783 C1245.79,371.803 1420.2,435.714 1560,504 C1591.41,519.341 1625.65,539.458 1650.35,554.609 " fill="none" id="User-to-Information" style="stroke:#A80036;stroke-width:1.0;"/><polygon fill="#A80036" points="1654.84,557.378,1649.2639,549.2597,1650.5793,554.7615,1645.0775,556.0769,1654.84,557.378" style="stroke:#A80036;stroke-width:1.0;"/><text fill="#000000" font-family="sans-serif" font-size="13" lengthAdjust="spacing" textLength="23" x="1593" y="517.0669">see</text><!--MD5=[9236a67e5c669e56a2d5f735cf895a33]
link User to Forum--><path codeLine="103" d="M1143.3,474.091 C1141.51,490.117 1138.55,506.051 1134,521 C1130.52,532.433 1123.92,543.741 1117.31,553.138 " fill="none" id="User-to-Forum" style="stroke:#A80036;stroke-width:1.0;"/><polygon fill="#A80036" points="1114.28,557.314,1122.7954,552.3655,1117.2102,553.2626,1116.3131,547.6773,1114.28,557.314" style="stroke:#A80036;stroke-width:1.0;"/><text fill="#000000" font-family="sans-serif" font-size="13" lengthAdjust="spacing" textLength="43" x="1139" y="517.0669">search</text><!--MD5=[3b3a110f6aeec0a0bf442c01daca6c1c]
link User to Profile--><path codeLine="105" d="M1101.95,339.782 C1005.666,357.738 730.068,413.868 516,504 C480.516,518.94 442.731,542.229 418.327,558.363 " fill="none" id="User-to-Profile" style="stroke:#A80036;stroke-width:1.0;"/><polygon fill="#A80036" points="413.929,561.289,423.6377,559.6334,418.0917,558.5191,419.2059,552.9731,413.929,561.289" style="stroke:#A80036;stroke-width:1.0;"/><text fill="#000000" font-family="sans-serif" font-size="13" lengthAdjust="spacing" textLength="30" x="517" y="517.0669">view</text><!--MD5=[3b3a110f6aeec0a0bf442c01daca6c1c]
link User to Profile--><path codeLine="114" d="M1101.63,338.12 C973.905,355.382 538.401,419.463 430,504 C414.462,516.117 404.608,536.377 398.839,552.404 " fill="none" id="User-to-Profile-1" style="stroke:#A80036;stroke-width:1.0;"/><polygon fill="#A80036" points="397.178,557.229,403.8914,550.0227,398.8066,552.5017,396.3277,547.4169,397.178,557.229" style="stroke:#A80036;stroke-width:1.0;"/><text fill="#000000" font-family="sans-serif" font-size="13" lengthAdjust="spacing" textLength="45" x="431" y="517.0669">update</text><!--MD5=[b09034628046fdb1d4ec8849813fff87]
link Administrator to Thread--><path codeLine="107" d="M2204.28,359.276 C2194.69,397.842 2172.34,471.33 2132,521 C2117.85,538.417 2096.84,552.595 2079.76,562.262 " fill="none" id="Administrator-to-Thread" style="stroke:#A80036;stroke-width:1.0;"/><polygon fill="#A80036" points="2075.06,564.867,2084.8701,563.9942,2079.4311,562.4394,2080.9859,557.0004,2075.06,564.867" style="stroke:#A80036;stroke-width:1.0;"/><text fill="#000000" font-family="sans-serif" font-size="13" lengthAdjust="spacing" textLength="19" x="2142" y="517.0669">pin</text><!--MD5=[b5e9f595a827ebd329737bf51730f76a]
link User to Progress--><path codeLine="108" d="M1172.12,426.514 C1179.92,451.331 1187.04,478.378 1191,504 C1193.47,520.008 1191.96,538.172 1189.84,552.315 " fill="none" id="User-to-Progress" style="stroke:#A80036;stroke-width:1.0;"/><polygon fill="#A80036" points="1189.04,557.332,1194.4163,549.08,1189.8327,552.3952,1186.5175,547.8116,1189.04,557.332" style="stroke:#A80036;stroke-width:1.0;"/><text fill="#000000" font-family="sans-serif" font-size="13" lengthAdjust="spacing" textLength="32" x="1194" y="517.0669">track</text><!--MD5=[448270d1fe7e1892a27099bb067427d9]
link GiftCard to Point--><path codeLine="110" d="M34,604.267 C34,625.3301 34,654.9042 34,675.5902 " fill="none" id="GiftCard-to-Point" style="stroke:#A80036;stroke-width:1.0;"/><polygon fill="#A80036" points="34,680.6472,38,671.6472,34,675.6472,30,671.6472,34,680.6472" style="stroke:#A80036;stroke-width:1.0;"/><text fill="#000000" font-family="sans-serif" font-size="13" lengthAdjust="spacing" textLength="34" x="35" y="647.0669">using</text><!--MD5=[c66da731458a4b05020f0c2fa6c4207b]
link User to Lifetime--><path codeLine="111" d="M1172.15,345.043 C1252.74,371.668 1456.83,440.009 1625,504 C1676.22,523.49 1689.85,526.761 1739,551 C1743.19,553.065 1747.52,555.364 1751.76,557.714 " fill="none" id="User-to-Lifetime" style="stroke:#A80036;stroke-width:1.0;"/><polygon fill="#A80036" points="1756.32,560.274,1750.4444,552.3698,1751.9644,557.8186,1746.5157,559.3386,1756.32,560.274" style="stroke:#A80036;stroke-width:1.0;"/><text fill="#000000" font-family="sans-serif" font-size="13" lengthAdjust="spacing" textLength="30" x="1671" y="517.0669">view</text><!--MD5=[36463e808045720f555a3b73eeb9eda4]
link User to PointBalance--><path codeLine="112" d="M1172.14,388.945 C1204.89,440.633 1252.17,515.236 1276.03,552.877 " fill="none" id="User-to-PointBalance" style="stroke:#A80036;stroke-width:1.0;"/><polygon fill="#A80036" points="1278.82,557.28,1277.3877,547.5358,1276.1464,553.0548,1270.6275,551.8135,1278.82,557.28" style="stroke:#A80036;stroke-width:1.0;"/><text fill="#000000" font-family="sans-serif" font-size="13" lengthAdjust="spacing" textLength="42" x="1255" y="517.0669">usable</text><!--MD5=[8669c182151f40b3796ec17f4052cacd]
link Maintainer to GiftCard--><path codeLine="115" d="M1564.65,64.596 C1324.21,72.476 316.575,110.132 204,191 C83.0398,277.891 46.9517,470.431 37.2472,545.594 " fill="none" id="Maintainer-to-GiftCard" style="stroke:#A80036;stroke-width:1.0;"/><polygon fill="#A80036" points="36.5932,550.799,41.6832,542.3674,37.2161,545.8379,33.7455,541.3708,36.5932,550.799" style="stroke:#A80036;stroke-width:1.0;"/><text fill="#000000" font-family="sans-serif" font-size="13" lengthAdjust="spacing" textLength="24" x="205" y="337.0669">add</text><!--MD5=[46ff99e5a5e97aff4ffa3fd5adbe36ab]
link Maintainer to Product--><path codeLine="116" d="M1667.09,63.962 C1777.98,67.217 2048.1,81.483 2264,144 C2311.17,157.659 2331.83,153.893 2364,191 C2392.91,224.344 2402.38,276.781 2405.49,307.281 " fill="none" id="Maintainer-to-Product" style="stroke:#A80036;stroke-width:1.0;"/><polygon fill="#A80036" points="2405.96,312.346,2409.0977,303.0103,2405.4907,307.3681,2401.133,303.7611,2405.96,312.346" style="stroke:#A80036;stroke-width:1.0;"/><text fill="#000000" font-family="sans-serif" font-size="13" lengthAdjust="spacing" textLength="24" x="2325" y="157.0669">add</text><!--MD5=[9e2dd57e81962c78c30ff8d0f5852cdd]
link User to Leaderboard--><path codeLine="117" d="M1172,364.771 C1227.55,414.393 1334.58,510.017 1383.49,553.712 " fill="none" id="User-to-Leaderboard" style="stroke:#A80036;stroke-width:1.0;"/><polygon fill="#A80036" points="1387.48,557.272,1383.4299,548.2944,1383.7501,553.9422,1378.1023,554.2623,1387.48,557.272" style="stroke:#A80036;stroke-width:1.0;"/><text fill="#000000" font-family="sans-serif" font-size="13" lengthAdjust="spacing" textLength="30" x="1345" y="517.0669">view</text><!--MD5=[3171232cc1a3fbed6dbffc7aec3b180d]
@startuml
hide circle
class User<actor> {
}
class Administrator<actor> {
}
class Maintainer<actor> {
}
class GiftCard {
	using()
}
class Point {
}
class User {
	usable()
	start()
	track()
	receive()
	report()
	update()
	select()
	gauge()
	get()
	see()
	redeem()
	use()
	dislike()
	search()
	answer()
	mark()
	view()
	delete()
	like()
}
class Profile {
}
class Maintainer {
	add()
	manage()
	edit()
	create()
	entice()
}
class Comment {
}
class Post {
}
class NewsFeed {
}
class Answer {
}
class OrderingCriterion {
}
class Event {
}
class WATPoint {
}
class Forum {
}
class Progress {
}
class PointBalance {
}
class Leaderboard {
}
class Gift {
}
class Thread {
}
class Detail {
}
class Credibility {
}
class Information {
}
class Administrator {
	pin()
}
class Lifetime {
}
class Product {
}
class Question {
}
User - -> Thread : delete
Maintainer - -> Comment : manage
Maintainer - -> Event : create
User - -> Question : answer
User - -> Gift : redeem
User - -> Post : delete
User - -> WATPoint : redeem
Maintainer - -> Thread : manage
User - -> NewsFeed : get
User - -> WATPoint : view
Maintainer - -> Detail : edit
User - -> GiftCard : receive
User - -> Comment : mark
Maintainer - -> User : entice
User - -> Credibility : gauge
User - -> Answer : see
User - -> Answer : like
User - -> OrderingCriterion : select
User - -> Information : see
User - -> Forum : search
User - -> WATPoint : use
User - -> Profile : view
User - -> Answer : dislike
Administrator - -> Thread : pin
User - -> Progress : track
User - -> Thread : start
GiftCard - -> Point : using
User - -> Lifetime : view
User - -> PointBalance : usable
User - -> Thread : report
User - -> Profile : update
Maintainer - -> GiftCard : add
Maintainer - -> Product : add
User - -> Leaderboard : view
@enduml

PlantUML version 1.2021.6beta6(Unknown compile time)
(GPL source distribution)
Java Runtime: Java(TM) SE Runtime Environment
JVM: Java HotSpot(TM) 64-Bit Server VM
Default Encoding: UTF-8
Language: en
Country: US
--></g></svg>