<?xml version="1.0" encoding="UTF-8" standalone="no"?><svg xmlns="http://www.w3.org/2000/svg" xmlns:xlink="http://www.w3.org/1999/xlink" contentScriptType="application/ecmascript" contentStyleType="text/css" height="579px" preserveAspectRatio="none" style="width:1980px;height:579px;background:#FFFFFF;" version="1.1" viewBox="0 0 1980 579" width="1980px" zoomAndPan="magnify"><defs><filter height="300%" id="f1oewa423hb2px" width="300%" x="-1" y="-1"><feGaussianBlur result="blurOut" stdDeviation="2.0"/><feColorMatrix in="blurOut" result="blurOut2" type="matrix" values="0 0 0 0 0 0 0 0 0 0 0 0 0 0 0 0 0 0 .4 0"/><feOffset dx="4.0" dy="4.0" in="blurOut2" result="blurOut3"/><feBlend in="SourceGraphic" in2="blurOut3" mode="normal"/></filter></defs><g><!--MD5=[3fd616f346a44cd59a91eb10b19e157c]
class User--><rect codeLine="45" fill="#FEFECE" filter="url(#f1oewa423hb2px)" height="155.2109" id="User" style="stroke:#A80036;stroke-width:1.5;" width="104" x="248" y="23"/><text fill="#000000" font-family="sans-serif" font-size="12" lengthAdjust="spacing" textLength="29" x="268" y="39.1387">User</text><rect fill="#FFFFFF" height="15.9688" style="stroke:#000000;stroke-width:1.0;stroke-dasharray:2.0,2.0;" width="33" x="322" y="20"/><text fill="#000000" font-family="sans-serif" font-size="12" font-style="italic" lengthAdjust="spacing" textLength="31" x="323" y="32.1387">actor</text><line style="stroke:#A80036;stroke-width:1.5;" x1="249" x2="351" y1="46.9688" y2="46.9688"/><text fill="#000000" font-family="sans-serif" font-size="11" lengthAdjust="spacing" textLength="64" x="254" y="61.1792">registration</text><text fill="#000000" font-family="sans-serif" font-size="11" lengthAdjust="spacing" textLength="92" x="254" y="73.9839">courseAttendee</text><line style="stroke:#A80036;stroke-width:1.5;" x1="249" x2="351" y1="80.5781" y2="80.5781"/><text fill="#000000" font-family="sans-serif" font-size="11" lengthAdjust="spacing" textLength="34" x="254" y="94.7886">filter()</text><text fill="#000000" font-family="sans-serif" font-size="11" lengthAdjust="spacing" textLength="40" x="254" y="107.5933">setup()</text><text fill="#000000" font-family="sans-serif" font-size="11" lengthAdjust="spacing" textLength="30" x="254" y="120.3979">see()</text><text fill="#000000" font-family="sans-serif" font-size="11" lengthAdjust="spacing" textLength="40" x="254" y="133.2026">share()</text><text fill="#000000" font-family="sans-serif" font-size="11" lengthAdjust="spacing" textLength="46" x="254" y="146.0073">search()</text><text fill="#000000" font-family="sans-serif" font-size="11" lengthAdjust="spacing" textLength="52" x="254" y="158.812">register()</text><text fill="#000000" font-family="sans-serif" font-size="11" lengthAdjust="spacing" textLength="52" x="254" y="171.6167">request()</text><!--MD5=[eea892f2ef094553bc3d2a13ea031b23]
class CourseAttendee--><rect codeLine="54" fill="#FEFECE" filter="url(#f1oewa423hb2px)" height="180.8203" id="CourseAttendee" style="stroke:#A80036;stroke-width:1.5;" width="139" x="118.5" y="268"/><text fill="#000000" font-family="sans-serif" font-size="12" lengthAdjust="spacing" textLength="98" x="121.5" y="284.1387">CourseAttendee</text><rect fill="#FFFFFF" height="15.9688" style="stroke:#000000;stroke-width:1.0;stroke-dasharray:2.0,2.0;" width="33" x="227.5" y="265"/><text fill="#000000" font-family="sans-serif" font-size="12" font-style="italic" lengthAdjust="spacing" textLength="31" x="228.5" y="277.1387">actor</text><line style="stroke:#A80036;stroke-width:1.5;" x1="119.5" x2="256.5" y1="291.9688" y2="291.9688"/><line style="stroke:#A80036;stroke-width:1.5;" x1="119.5" x2="256.5" y1="299.9688" y2="299.9688"/><text fill="#000000" font-family="sans-serif" font-size="11" lengthAdjust="spacing" textLength="47" x="124.5" y="314.1792">decide()</text><text fill="#000000" font-family="sans-serif" font-size="11" lengthAdjust="spacing" textLength="35" x="124.5" y="326.9839">offer()</text><text fill="#000000" font-family="sans-serif" font-size="11" lengthAdjust="spacing" textLength="31" x="124.5" y="339.7886">rate()</text><text fill="#000000" font-family="sans-serif" font-size="11" lengthAdjust="spacing" textLength="30" x="124.5" y="352.5933">see()</text><text fill="#000000" font-family="sans-serif" font-size="11" lengthAdjust="spacing" textLength="52" x="124.5" y="365.3979">receive()</text><text fill="#000000" font-family="sans-serif" font-size="11" lengthAdjust="spacing" textLength="58" x="124.5" y="378.2026">compare()</text><text fill="#000000" font-family="sans-serif" font-size="11" lengthAdjust="spacing" textLength="45" x="124.5" y="391.0073">attend()</text><text fill="#000000" font-family="sans-serif" font-size="11" lengthAdjust="spacing" textLength="41" x="124.5" y="403.812">verify()</text><text fill="#000000" font-family="sans-serif" font-size="11" lengthAdjust="spacing" textLength="47" x="124.5" y="416.6167">review()</text><text fill="#000000" font-family="sans-serif" font-size="11" lengthAdjust="spacing" textLength="33" x="124.5" y="429.4214">start()</text><text fill="#000000" font-family="sans-serif" font-size="11" lengthAdjust="spacing" textLength="29" x="124.5" y="442.2261">pay()</text><!--MD5=[3512c909caa28192c0057f20071d7997]
class Trainer--><rect codeLine="25" fill="#FEFECE" filter="url(#f1oewa423hb2px)" height="180.8203" id="Trainer" style="stroke:#A80036;stroke-width:1.5;" width="83" x="589.5" y="10"/><text fill="#000000" font-family="sans-serif" font-size="12" lengthAdjust="spacing" textLength="42" x="592.5" y="26.1387">Trainer</text><rect fill="#FFFFFF" height="15.9688" style="stroke:#000000;stroke-width:1.0;stroke-dasharray:2.0,2.0;" width="33" x="642.5" y="7"/><text fill="#000000" font-family="sans-serif" font-size="12" font-style="italic" lengthAdjust="spacing" textLength="31" x="643.5" y="19.1387">actor</text><line style="stroke:#A80036;stroke-width:1.5;" x1="590.5" x2="671.5" y1="33.9688" y2="33.9688"/><text fill="#000000" font-family="sans-serif" font-size="11" lengthAdjust="spacing" textLength="49" x="595.5" y="48.1792">calendar</text><text fill="#000000" font-family="sans-serif" font-size="11" lengthAdjust="spacing" textLength="28" x="595.5" y="60.9839">price</text><text fill="#000000" font-family="sans-serif" font-size="11" lengthAdjust="spacing" textLength="36" x="595.5" y="73.7886">profile</text><line style="stroke:#A80036;stroke-width:1.5;" x1="590.5" x2="671.5" y1="80.3828" y2="80.3828"/><text fill="#000000" font-family="sans-serif" font-size="11" lengthAdjust="spacing" textLength="35" x="595.5" y="94.5933">offer()</text><text fill="#000000" font-family="sans-serif" font-size="11" lengthAdjust="spacing" textLength="26" x="595.5" y="107.3979">set()</text><text fill="#000000" font-family="sans-serif" font-size="11" lengthAdjust="spacing" textLength="26" x="595.5" y="120.2026">put()</text><text fill="#000000" font-family="sans-serif" font-size="11" lengthAdjust="spacing" textLength="30" x="595.5" y="133.0073">see()</text><text fill="#000000" font-family="sans-serif" font-size="11" lengthAdjust="spacing" textLength="58" x="595.5" y="145.812">compare()</text><text fill="#000000" font-family="sans-serif" font-size="11" lengthAdjust="spacing" textLength="65" x="595.5" y="158.6167">maximize()</text><text fill="#000000" font-family="sans-serif" font-size="11" lengthAdjust="spacing" textLength="43" x="595.5" y="171.4214">attach()</text><text fill="#000000" font-family="sans-serif" font-size="11" lengthAdjust="spacing" textLength="57" x="595.5" y="184.2261">continue()</text><!--MD5=[428f3d998c8a9a358b7cb233b781ad06]
class Enterprise--><rect codeLine="87" fill="#FEFECE" filter="url(#f1oewa423hb2px)" height="78.3828" id="Enterprise" style="stroke:#A80036;stroke-width:1.5;" width="103" x="954.5" y="319.5"/><text fill="#000000" font-family="sans-serif" font-size="12" lengthAdjust="spacing" textLength="62" x="957.5" y="335.6387">Enterprise</text><rect fill="#FFFFFF" height="15.9688" style="stroke:#000000;stroke-width:1.0;stroke-dasharray:2.0,2.0;" width="33" x="1027.5" y="316.5"/><text fill="#000000" font-family="sans-serif" font-size="12" font-style="italic" lengthAdjust="spacing" textLength="31" x="1028.5" y="328.6387">actor</text><line style="stroke:#A80036;stroke-width:1.5;" x1="955.5" x2="1056.5" y1="343.4688" y2="343.4688"/><line style="stroke:#A80036;stroke-width:1.5;" x1="955.5" x2="1056.5" y1="351.4688" y2="351.4688"/><text fill="#000000" font-family="sans-serif" font-size="11" lengthAdjust="spacing" textLength="30" x="960.5" y="365.6792">see()</text><text fill="#000000" font-family="sans-serif" font-size="11" lengthAdjust="spacing" textLength="58" x="960.5" y="378.4839">compare()</text><text fill="#000000" font-family="sans-serif" font-size="11" lengthAdjust="spacing" textLength="27" x="960.5" y="391.2886">get()</text><!--MD5=[da547346deef918ea16944ba046651ef]
class Administrator--><rect codeLine="67" fill="#FEFECE" filter="url(#f1oewa423hb2px)" height="168.0156" id="Administrator" style="stroke:#A80036;stroke-width:1.5;" width="121" x="1207.5" y="16.5"/><text fill="#000000" font-family="sans-serif" font-size="12" lengthAdjust="spacing" textLength="80" x="1210.5" y="32.6387">Administrator</text><rect fill="#FFFFFF" height="15.9688" style="stroke:#000000;stroke-width:1.0;stroke-dasharray:2.0,2.0;" width="33" x="1298.5" y="13.5"/><text fill="#000000" font-family="sans-serif" font-size="12" font-style="italic" lengthAdjust="spacing" textLength="31" x="1299.5" y="25.6387">actor</text><line style="stroke:#A80036;stroke-width:1.5;" x1="1208.5" x2="1327.5" y1="40.4688" y2="40.4688"/><line style="stroke:#A80036;stroke-width:1.5;" x1="1208.5" x2="1327.5" y1="48.4688" y2="48.4688"/><text fill="#000000" font-family="sans-serif" font-size="11" lengthAdjust="spacing" textLength="46" x="1213.5" y="62.6792">delete()</text><text fill="#000000" font-family="sans-serif" font-size="11" lengthAdjust="spacing" textLength="37" x="1213.5" y="75.4839">have()</text><text fill="#000000" font-family="sans-serif" font-size="11" lengthAdjust="spacing" textLength="39" x="1213.5" y="88.2886">meet()</text><text fill="#000000" font-family="sans-serif" font-size="11" lengthAdjust="spacing" textLength="45" x="1213.5" y="101.0933">create()</text><text fill="#000000" font-family="sans-serif" font-size="11" lengthAdjust="spacing" textLength="52" x="1213.5" y="113.8979">receive()</text><text fill="#000000" font-family="sans-serif" font-size="11" lengthAdjust="spacing" textLength="45" x="1213.5" y="126.7026">cancel()</text><text fill="#000000" font-family="sans-serif" font-size="11" lengthAdjust="spacing" textLength="30" x="1213.5" y="139.5073">see()</text><text fill="#000000" font-family="sans-serif" font-size="11" lengthAdjust="spacing" textLength="41" x="1213.5" y="152.312">move()</text><text fill="#000000" font-family="sans-serif" font-size="11" lengthAdjust="spacing" textLength="43" x="1213.5" y="165.1167">attach()</text><text fill="#000000" font-family="sans-serif" font-size="11" lengthAdjust="spacing" textLength="42" x="1213.5" y="177.9214">adjust()</text><!--MD5=[db6d18d8099558415abc41d00477ab92]
class Admin--><rect codeLine="17" fill="#FEFECE" filter="url(#f1oewa423hb2px)" height="39.9688" id="Admin" style="stroke:#A80036;stroke-width:1.5;" width="78" x="1389" y="80.5"/><text fill="#000000" font-family="sans-serif" font-size="12" lengthAdjust="spacing" textLength="37" x="1392" y="96.6387">Admin</text><rect fill="#FFFFFF" height="15.9688" style="stroke:#000000;stroke-width:1.0;stroke-dasharray:2.0,2.0;" width="33" x="1437" y="77.5"/><text fill="#000000" font-family="sans-serif" font-size="12" font-style="italic" lengthAdjust="spacing" textLength="31" x="1438" y="89.6387">actor</text><line style="stroke:#A80036;stroke-width:1.5;" x1="1390" x2="1466" y1="104.4688" y2="104.4688"/><line style="stroke:#A80036;stroke-width:1.5;" x1="1390" x2="1466" y1="112.4688" y2="112.4688"/><!--MD5=[dfb0845b8492ffe07b1ce50e003034d7]
class Team--><rect codeLine="19" fill="#FEFECE" filter="url(#f1oewa423hb2px)" height="39.9688" id="Team" style="stroke:#A80036;stroke-width:1.5;" width="74" x="1600" y="80.5"/><text fill="#000000" font-family="sans-serif" font-size="12" lengthAdjust="spacing" textLength="33" x="1603" y="96.6387">Team</text><rect fill="#FFFFFF" height="15.9688" style="stroke:#000000;stroke-width:1.0;stroke-dasharray:2.0,2.0;" width="33" x="1644" y="77.5"/><text fill="#000000" font-family="sans-serif" font-size="12" font-style="italic" lengthAdjust="spacing" textLength="31" x="1645" y="89.6387">actor</text><line style="stroke:#A80036;stroke-width:1.5;" x1="1601" x2="1673" y1="104.4688" y2="104.4688"/><line style="stroke:#A80036;stroke-width:1.5;" x1="1601" x2="1673" y1="112.4688" y2="112.4688"/><!--MD5=[d342058c8fb6f80e9d50d673c6908241]
class Developer--><rect codeLine="37" fill="#FEFECE" filter="url(#f1oewa423hb2px)" height="65.5781" id="Developer" style="stroke:#A80036;stroke-width:1.5;" width="105" x="1758.5" y="67.5"/><text fill="#000000" font-family="sans-serif" font-size="12" lengthAdjust="spacing" textLength="64" x="1761.5" y="83.6387">Developer</text><rect fill="#FFFFFF" height="15.9688" style="stroke:#000000;stroke-width:1.0;stroke-dasharray:2.0,2.0;" width="33" x="1833.5" y="64.5"/><text fill="#000000" font-family="sans-serif" font-size="12" font-style="italic" lengthAdjust="spacing" textLength="31" x="1834.5" y="76.6387">actor</text><line style="stroke:#A80036;stroke-width:1.5;" x1="1759.5" x2="1862.5" y1="91.4688" y2="91.4688"/><line style="stroke:#A80036;stroke-width:1.5;" x1="1759.5" x2="1862.5" y1="99.4688" y2="99.4688"/><text fill="#000000" font-family="sans-serif" font-size="11" lengthAdjust="spacing" textLength="54" x="1764.5" y="113.6792">analyze()</text><text fill="#000000" font-family="sans-serif" font-size="11" lengthAdjust="spacing" textLength="72" x="1764.5" y="126.4839">understand()</text><!--MD5=[1f62e39e6986077d5626c6cf81ffb380]
class RegistrationInformation--><rect codeLine="23" fill="#FEFECE" filter="url(#f1oewa423hb2px)" height="39.9688" id="RegistrationInformation" style="stroke:#A80036;stroke-width:1.5;" width="144" x="1242" y="526"/><text fill="#000000" font-family="sans-serif" font-size="12" lengthAdjust="spacing" textLength="138" x="1245" y="542.1387">RegistrationInformation</text><line style="stroke:#A80036;stroke-width:1.5;" x1="1243" x2="1385" y1="549.9688" y2="549.9688"/><line style="stroke:#A80036;stroke-width:1.5;" x1="1243" x2="1385" y1="557.9688" y2="557.9688"/><!--MD5=[eb0e8f8ddfdc21c3fdb48447501fec67]
class Review--><rect codeLine="35" fill="#FEFECE" filter="url(#f1oewa423hb2px)" height="39.9688" id="Review" style="stroke:#A80036;stroke-width:1.5;" width="49" x="699.5" y="338.5"/><text fill="#000000" font-family="sans-serif" font-size="12" lengthAdjust="spacing" textLength="43" x="702.5" y="354.6387">Review</text><line style="stroke:#A80036;stroke-width:1.5;" x1="700.5" x2="747.5" y1="362.4688" y2="362.4688"/><line style="stroke:#A80036;stroke-width:1.5;" x1="700.5" x2="747.5" y1="370.4688" y2="370.4688"/><!--MD5=[704ee1a71dea58ca011676bdf272f2c7]
class Feasibility--><rect codeLine="41" fill="#FEFECE" filter="url(#f1oewa423hb2px)" height="39.9688" id="Feasibility" style="stroke:#A80036;stroke-width:1.5;" width="66" x="1663" y="338.5"/><text fill="#000000" font-family="sans-serif" font-size="12" lengthAdjust="spacing" textLength="60" x="1666" y="354.6387">Feasibility</text><line style="stroke:#A80036;stroke-width:1.5;" x1="1664" x2="1728" y1="362.4688" y2="362.4688"/><line style="stroke:#A80036;stroke-width:1.5;" x1="1664" x2="1728" y1="370.4688" y2="370.4688"/><!--MD5=[624b346bfdce2c0f9100d5fb9131a1ba]
class Duty--><rect codeLine="43" fill="#FEFECE" filter="url(#f1oewa423hb2px)" height="39.9688" id="Duty" style="stroke:#A80036;stroke-width:1.5;" width="33" x="798.5" y="338.5"/><text fill="#000000" font-family="sans-serif" font-size="12" lengthAdjust="spacing" textLength="27" x="801.5" y="354.6387">Duty</text><line style="stroke:#A80036;stroke-width:1.5;" x1="799.5" x2="830.5" y1="362.4688" y2="362.4688"/><line style="stroke:#A80036;stroke-width:1.5;" x1="799.5" x2="830.5" y1="370.4688" y2="370.4688"/><!--MD5=[a40a7ac4b423335b0d34bf16cf36e547]
class Price--><rect codeLine="79" fill="#FEFECE" filter="url(#f1oewa423hb2px)" height="39.9688" id="Price" style="stroke:#A80036;stroke-width:1.5;" width="35" x="313.5" y="526"/><text fill="#000000" font-family="sans-serif" font-size="12" lengthAdjust="spacing" textLength="29" x="316.5" y="542.1387">Price</text><line style="stroke:#A80036;stroke-width:1.5;" x1="314.5" x2="347.5" y1="549.9688" y2="549.9688"/><line style="stroke:#A80036;stroke-width:1.5;" x1="314.5" x2="347.5" y1="557.9688" y2="557.9688"/><!--MD5=[0a8a9a553ad28d76d3a1fd3918a25a86]
class Rating--><rect codeLine="81" fill="#FEFECE" filter="url(#f1oewa423hb2px)" height="39.9688" id="Rating" style="stroke:#A80036;stroke-width:1.5;" width="42" x="1186" y="338.5"/><text fill="#000000" font-family="sans-serif" font-size="12" lengthAdjust="spacing" textLength="36" x="1189" y="354.6387">Rating</text><line style="stroke:#A80036;stroke-width:1.5;" x1="1187" x2="1227" y1="362.4688" y2="362.4688"/><line style="stroke:#A80036;stroke-width:1.5;" x1="1187" x2="1227" y1="370.4688" y2="370.4688"/><!--MD5=[cf8fdaefc782a1097e8f7fd601adea66]
class People--><rect codeLine="83" fill="#FEFECE" filter="url(#f1oewa423hb2px)" height="39.9688" id="People" style="stroke:#A80036;stroke-width:1.5;" width="47" x="1580.5" y="338.5"/><text fill="#000000" font-family="sans-serif" font-size="12" lengthAdjust="spacing" textLength="41" x="1583.5" y="354.6387">People</text><line style="stroke:#A80036;stroke-width:1.5;" x1="1581.5" x2="1626.5" y1="362.4688" y2="362.4688"/><line style="stroke:#A80036;stroke-width:1.5;" x1="1581.5" x2="1626.5" y1="370.4688" y2="370.4688"/><!--MD5=[8b56c8475ecf541d0663395b5a75a5a0]
class Minimum--><rect codeLine="85" fill="#FEFECE" filter="url(#f1oewa423hb2px)" height="39.9688" id="Minimum" style="stroke:#A80036;stroke-width:1.5;" width="58" x="1093" y="338.5"/><text fill="#000000" font-family="sans-serif" font-size="12" lengthAdjust="spacing" textLength="52" x="1096" y="354.6387">Minimum</text><line style="stroke:#A80036;stroke-width:1.5;" x1="1094" x2="1150" y1="362.4688" y2="362.4688"/><line style="stroke:#A80036;stroke-width:1.5;" x1="1094" x2="1150" y1="370.4688" y2="370.4688"/><!--MD5=[ff3d20c1112759d46dde2fcead238479]
class Value--><rect codeLine="92" fill="#FEFECE" filter="url(#f1oewa423hb2px)" height="39.9688" id="Value" style="stroke:#A80036;stroke-width:1.5;" width="39" x="986.5" y="526"/><text fill="#000000" font-family="sans-serif" font-size="12" lengthAdjust="spacing" textLength="33" x="989.5" y="542.1387">Value</text><line style="stroke:#A80036;stroke-width:1.5;" x1="987.5" x2="1024.5" y1="549.9688" y2="549.9688"/><line style="stroke:#A80036;stroke-width:1.5;" x1="987.5" x2="1024.5" y1="557.9688" y2="557.9688"/><!--MD5=[f9a29335b499db729be669fd1bd54958]
class Account--><rect codeLine="94" fill="#FEFECE" filter="url(#f1oewa423hb2px)" height="39.9688" id="Account" style="stroke:#A80036;stroke-width:1.5;" width="54" x="425" y="338.5"/><text fill="#000000" font-family="sans-serif" font-size="12" lengthAdjust="spacing" textLength="48" x="428" y="354.6387">Account</text><line style="stroke:#A80036;stroke-width:1.5;" x1="426" x2="478" y1="362.4688" y2="362.4688"/><line style="stroke:#A80036;stroke-width:1.5;" x1="426" x2="478" y1="370.4688" y2="370.4688"/><!--MD5=[435987a092acd998883c72f97c5c9408]
class Number--><rect codeLine="96" fill="#FEFECE" filter="url(#f1oewa423hb2px)" height="39.9688" id="Number" style="stroke:#A80036;stroke-width:1.5;" width="53" x="866.5" y="338.5"/><text fill="#000000" font-family="sans-serif" font-size="12" lengthAdjust="spacing" textLength="47" x="869.5" y="354.6387">Number</text><line style="stroke:#A80036;stroke-width:1.5;" x1="867.5" x2="918.5" y1="362.4688" y2="362.4688"/><line style="stroke:#A80036;stroke-width:1.5;" x1="867.5" x2="918.5" y1="370.4688" y2="370.4688"/><!--MD5=[c680266cf9e454ca06c2d1bb8b683e6b]
class Schedule--><rect codeLine="98" fill="#FEFECE" filter="url(#f1oewa423hb2px)" height="39.9688" id="Schedule" style="stroke:#A80036;stroke-width:1.5;" width="62" x="7" y="526"/><text fill="#000000" font-family="sans-serif" font-size="12" lengthAdjust="spacing" textLength="56" x="10" y="542.1387">Schedule</text><line style="stroke:#A80036;stroke-width:1.5;" x1="8" x2="68" y1="549.9688" y2="549.9688"/><line style="stroke:#A80036;stroke-width:1.5;" x1="8" x2="68" y1="557.9688" y2="557.9688"/><!--MD5=[055ae584e8f48d8fc3c3de49aadf0637]
class Dashboard--><rect codeLine="100" fill="#FEFECE" filter="url(#f1oewa423hb2px)" height="39.9688" id="Dashboard" style="stroke:#A80036;stroke-width:1.5;" width="72" x="1263" y="338.5"/><text fill="#000000" font-family="sans-serif" font-size="12" lengthAdjust="spacing" textLength="66" x="1266" y="354.6387">Dashboard</text><line style="stroke:#A80036;stroke-width:1.5;" x1="1264" x2="1334" y1="362.4688" y2="362.4688"/><line style="stroke:#A80036;stroke-width:1.5;" x1="1264" x2="1334" y1="370.4688" y2="370.4688"/><!--MD5=[ea9b6de6547c3ff147b5b75930969138]
class Requirement--><rect codeLine="102" fill="#FEFECE" filter="url(#f1oewa423hb2px)" height="39.9688" id="Requirement" style="stroke:#A80036;stroke-width:1.5;" width="82" x="1770" y="338.5"/><text fill="#000000" font-family="sans-serif" font-size="12" lengthAdjust="spacing" textLength="76" x="1773" y="354.6387">Requirement</text><line style="stroke:#A80036;stroke-width:1.5;" x1="1771" x2="1851" y1="362.4688" y2="362.4688"/><line style="stroke:#A80036;stroke-width:1.5;" x1="1771" x2="1851" y1="370.4688" y2="370.4688"/><!--MD5=[4f1f3706c1a355a8488e154afcaed5df]
class Location--><rect codeLine="104" fill="#FEFECE" filter="url(#f1oewa423hb2px)" height="39.9688" id="Location" style="stroke:#A80036;stroke-width:1.5;" width="56" x="514" y="338.5"/><text fill="#000000" font-family="sans-serif" font-size="12" lengthAdjust="spacing" textLength="50" x="517" y="354.6387">Location</text><line style="stroke:#A80036;stroke-width:1.5;" x1="515" x2="569" y1="362.4688" y2="362.4688"/><line style="stroke:#A80036;stroke-width:1.5;" x1="515" x2="569" y1="370.4688" y2="370.4688"/><!--MD5=[f572c118330f78587a09a8d1323f8ced]
class Calendar--><rect codeLine="106" fill="#FEFECE" filter="url(#f1oewa423hb2px)" height="39.9688" id="Calendar" style="stroke:#A80036;stroke-width:1.5;" width="59" x="605.5" y="338.5"/><text fill="#000000" font-family="sans-serif" font-size="12" lengthAdjust="spacing" textLength="53" x="608.5" y="354.6387">Calendar</text><line style="stroke:#A80036;stroke-width:1.5;" x1="606.5" x2="663.5" y1="362.4688" y2="362.4688"/><line style="stroke:#A80036;stroke-width:1.5;" x1="606.5" x2="663.5" y1="370.4688" y2="370.4688"/><!--MD5=[0851f84a889f989e7bb0bebc385d0f09]
class Request--><rect codeLine="108" fill="#FEFECE" filter="url(#f1oewa423hb2px)" height="39.9688" id="Request" style="stroke:#A80036;stroke-width:1.5;" width="55" x="1370.5" y="338.5"/><text fill="#000000" font-family="sans-serif" font-size="12" lengthAdjust="spacing" textLength="49" x="1373.5" y="354.6387">Request</text><line style="stroke:#A80036;stroke-width:1.5;" x1="1371.5" x2="1424.5" y1="362.4688" y2="362.4688"/><line style="stroke:#A80036;stroke-width:1.5;" x1="1371.5" x2="1424.5" y1="370.4688" y2="370.4688"/><!--MD5=[4f701bd10107080cdd818c58b7ead570]
class ConfirmationEmail--><rect codeLine="110" fill="#FEFECE" filter="url(#f1oewa423hb2px)" height="39.9688" id="ConfirmationEmail" style="stroke:#A80036;stroke-width:1.5;" width="112" x="104" y="526"/><text fill="#000000" font-family="sans-serif" font-size="12" lengthAdjust="spacing" textLength="106" x="107" y="542.1387">ConfirmationEmail</text><line style="stroke:#A80036;stroke-width:1.5;" x1="105" x2="215" y1="549.9688" y2="549.9688"/><line style="stroke:#A80036;stroke-width:1.5;" x1="105" x2="215" y1="557.9688" y2="557.9688"/><!--MD5=[1bdaa8f9dbe9e469043c12b135c20638]
class Architecture--><rect codeLine="112" fill="#FEFECE" filter="url(#f1oewa423hb2px)" height="39.9688" id="Architecture" style="stroke:#A80036;stroke-width:1.5;" width="79" x="1887.5" y="338.5"/><text fill="#000000" font-family="sans-serif" font-size="12" lengthAdjust="spacing" textLength="73" x="1890.5" y="354.6387">Architecture</text><line style="stroke:#A80036;stroke-width:1.5;" x1="1888.5" x2="1965.5" y1="362.4688" y2="362.4688"/><line style="stroke:#A80036;stroke-width:1.5;" x1="1888.5" x2="1965.5" y1="370.4688" y2="370.4688"/><!--MD5=[48075845132e484a6733c2533be3cb13]
link Developer to Feasibility--><path codeLine="114" d="M1783.39,133.963 C1765.18,156.915 1742.17,189.152 1728,221 C1711.42,258.265 1702.83,305.23 1698.88,333.23 " fill="none" id="Developer-to-Feasibility" style="stroke:#A80036;stroke-width:1.0;"/><polygon fill="#A80036" points="1698.2,338.23,1703.3836,329.8556,1698.8781,333.2762,1695.4576,328.7707,1698.2,338.23" style="stroke:#A80036;stroke-width:1.0;"/><text fill="#000000" font-family="sans-serif" font-size="13" lengthAdjust="spacing" textLength="73" x="1729" y="234.0669">understand</text><!--MD5=[dbbf62669c5c9b1b3d09dc36ab3dbbbd]
link CourseAttendee to ConfirmationEmail--><path codeLine="115" d="M162.162,449.068 C160.048,459.096 158.248,469.22 157,479 C156.044,486.4948 156.769,488.448 157,496 C157.246,504.0291 157.717,512.7878 158.215,520.6506 " fill="none" id="CourseAttendee-to-ConfirmationEmail" style="stroke:#A80036;stroke-width:1.0;"/><polygon fill="#A80036" points="158.561,525.931,161.9634,516.6885,158.2338,520.9417,153.9805,517.2121,158.561,525.931" style="stroke:#A80036;stroke-width:1.0;"/><text fill="#000000" font-family="sans-serif" font-size="13" lengthAdjust="spacing" textLength="47" x="158" y="492.0669">receive</text><!--MD5=[e6e0b78f4397a8d21bd12da3a82502cb]
reverse link Account to RegistrationInformation--><path codeLine="116" d="M459.645,391.288 C466.055,410.968 477.262,435.063 496,449 C597.953,524.8312 651.98,479.7607 778,496 C943.429,517.3176 1138.75,532.73 1241.86,540.1079 " fill="none" id="Account-backto-RegistrationInformation" style="stroke:#A80036;stroke-width:1.0;"/><polygon fill="#FFFFFF" points="455.94,378.547,453.7745,385.4253,459.2908,390.0697,461.4563,383.1914,455.94,378.547" style="stroke:#A80036;stroke-width:1.0;"/><!--MD5=[aecb5ee5023adddeee850903ab749e8e]
link Trainer to Duty--><path codeLine="117" d="M672.812,112.144 C722.121,127.189 801.816,159.914 837,221 C857.386,256.393 840.952,305.041 827.639,333.687 " fill="none" id="Trainer-to-Duty" style="stroke:#A80036;stroke-width:1.0;"/><polygon fill="#A80036" points="825.367,338.451,832.8507,332.0483,827.5187,333.9376,825.6293,328.6056,825.367,338.451" style="stroke:#A80036;stroke-width:1.0;"/><text fill="#000000" font-family="sans-serif" font-size="13" lengthAdjust="spacing" textLength="41" x="845" y="234.0669">attach</text><!--MD5=[b5cb4a70fa7852cea887bbd7f1d7ea02]
link User to Number--><path codeLine="118" d="M352.074,119.785 C406.584,138.655 494.82,168.435 572,191 C623.525,206.065 638.501,202.79 689,221 C705.645,227.002 708.314,232.111 725,238 C778.469,256.87 804.755,232.54 849,268 C869.551,284.471 881.214,312.966 887.296,333.382 " fill="none" id="User-to-Number" style="stroke:#A80036;stroke-width:1.0;"/><polygon fill="#A80036" points="888.724,338.386,890.0995,328.6337,887.3513,333.5781,882.4069,330.8299,888.724,338.386" style="stroke:#A80036;stroke-width:1.0;"/><text fill="#000000" font-family="sans-serif" font-size="13" lengthAdjust="spacing" textLength="23" x="726" y="234.0669">see</text><!--MD5=[5e915e756e51ef60660640bfe80ff41c]
link Developer to Architecture--><path codeLine="119" d="M1827.97,133.639 C1840.37,157.513 1857.34,190.999 1871,221 C1888.69,259.844 1907.08,305.951 1917.76,333.41 " fill="none" id="Developer-to-Architecture" style="stroke:#A80036;stroke-width:1.0;"/><polygon fill="#A80036" points="1919.66,338.314,1920.1307,328.4764,1917.85,333.6531,1912.6733,331.3724,1919.66,338.314" style="stroke:#A80036;stroke-width:1.0;"/><text fill="#000000" font-family="sans-serif" font-size="13" lengthAdjust="spacing" textLength="73" x="1879" y="234.0669">understand</text><!--MD5=[b0f65236b6e4863e2825c1db86e431e6]
link Administrator to Number--><path codeLine="120" d="M1207.13,129.317 C1117.16,170.856 957.054,246.516 937,268 C919.356,286.903 907.324,314.21 900.36,333.683 " fill="none" id="Administrator-to-Number" style="stroke:#A80036;stroke-width:1.0;"/><polygon fill="#A80036" points="898.699,338.454,905.4358,331.2696,900.343,333.732,897.8806,328.6392,898.699,338.454" style="stroke:#A80036;stroke-width:1.0;"/><text fill="#000000" font-family="sans-serif" font-size="13" lengthAdjust="spacing" textLength="39" x="1014" y="234.0669">adjust</text><!--MD5=[0e7dacb716a6903f822018d3fe68ae2f]
reverse link User to CourseAttendee--><path codeLine="121" d="M237.846,148.963 C216.933,168.698 196.103,193.45 185,221 C179.108,235.62 176.479,251.856 175.816,267.88 " fill="none" id="User-backto-CourseAttendee" style="stroke:#A80036;stroke-width:1.0;"/><polygon fill="#FFFFFF" points="247.751,139.974,240.6198,141.0448,238.8655,148.0392,245.9967,146.9685,247.751,139.974" style="stroke:#A80036;stroke-width:1.0;"/><text fill="#000000" font-family="sans-serif" font-size="13" lengthAdjust="spacing" textLength="49" x="186" y="234.0669">request</text><!--MD5=[0e7dacb716a6903f822018d3fe68ae2f]
reverse link User to CourseAttendee--><path codeLine="123" d="M236.091,129.297 C199.264,149.064 156.186,179.498 135,221 C127.429,235.831 127.202,252.008 131.057,267.872 " fill="none" id="User-backto-CourseAttendee-1" style="stroke:#A80036;stroke-width:1.0;"/><polygon fill="#FFFFFF" points="247.792,123.254,240.6255,122.4535,237.1302,128.7609,244.2968,129.5614,247.792,123.254" style="stroke:#A80036;stroke-width:1.0;"/><text fill="#000000" font-family="sans-serif" font-size="13" lengthAdjust="spacing" textLength="36" x="136" y="234.0669">share</text><!--MD5=[a888661b3ebb5842bbfdfd50ef53618f]
link CourseAttendee to Schedule--><path codeLine="122" d="M118.489,445.462 C95.8323,473.4807 72.5042,502.3298 56.8342,521.7084 " fill="none" id="CourseAttendee-to-Schedule" style="stroke:#A80036;stroke-width:1.0;"/><polygon fill="#A80036" points="53.4138,525.9383,62.1832,521.4552,56.5577,522.0504,55.9625,516.4249,53.4138,525.9383" style="stroke:#A80036;stroke-width:1.0;"/><text fill="#000000" font-family="sans-serif" font-size="13" lengthAdjust="spacing" textLength="23" x="92" y="492.0669">see</text><!--MD5=[103dc7ab4da34375f039b836a71a715c]
link Administrator to RegistrationInformation--><path codeLine="124" d="M1328.56,154.778 C1376.62,197.76 1436.77,253.39 1443,268 C1474.56,341.996 1479.11,377.116 1443,449 C1426.11,482.6248 1391.24,507.4548 1362.01,523.4297 " fill="none" id="Administrator-to-RegistrationInformation" style="stroke:#A80036;stroke-width:1.0;"/><polygon fill="#A80036" points="1357.37,525.9175,1367.1908,525.1747,1361.7729,523.548,1363.3996,518.1301,1357.37,525.9175" style="stroke:#A80036;stroke-width:1.0;"/><text fill="#000000" font-family="sans-serif" font-size="13" lengthAdjust="spacing" textLength="47" x="1470" y="363.0669">receive</text><!--MD5=[d2ccffb5a467464b4addb7cf9e0f79fa]
link Administrator to Dashboard--><path codeLine="125" d="M1280.26,184.695 C1281.93,196.862 1283.56,209.248 1285,221 C1289.8,260.237 1294.26,305.959 1296.8,333.273 " fill="none" id="Administrator-to-Dashboard" style="stroke:#A80036;stroke-width:1.0;"/><polygon fill="#A80036" points="1297.29,338.483,1300.4436,329.1527,1296.8292,333.5043,1292.4776,329.8899,1297.29,338.483" style="stroke:#A80036;stroke-width:1.0;"/><text fill="#000000" font-family="sans-serif" font-size="13" lengthAdjust="spacing" textLength="32" x="1288" y="234.0669">have</text><!--MD5=[ca63dd3c09156b532cf54258039dcd47]
link CourseAttendee to Price--><path codeLine="126" d="M216.269,449.24 C224.159,465.954 233.965,482.4106 246,496 C263.032,515.2318 289.498,528.8104 308.371,536.7217 " fill="none" id="CourseAttendee-to-Price" style="stroke:#A80036;stroke-width:1.0;"/><polygon fill="#A80036" points="313.478,538.8028,306.6532,531.7019,308.8478,536.9157,303.6339,539.1103,313.478,538.8028" style="stroke:#A80036;stroke-width:1.0;"/><text fill="#000000" font-family="sans-serif" font-size="13" lengthAdjust="spacing" textLength="57" x="247" y="492.0669">compare</text><!--MD5=[cb3fe1faf220c6781c67f8b5f09e64e4]
link Trainer to CourseAttendee--><path codeLine="127" d="M589.328,115.981 C537.701,133.865 447.006,165.097 369,191 C327.782,204.687 310.44,194.54 276,221 C260.876,232.619 247.601,247.628 236.253,263.424 " fill="none" id="Trainer-to-CourseAttendee" style="stroke:#A80036;stroke-width:1.0;"/><polygon fill="#A80036" points="233.104,267.898,241.5547,262.8397,235.9815,263.809,235.0122,258.2358,233.104,267.898" style="stroke:#A80036;stroke-width:1.0;"/><text fill="#000000" font-family="sans-serif" font-size="13" lengthAdjust="spacing" textLength="31" x="277" y="234.0669">offer</text><!--MD5=[b321580c81ff0082f6442265bc11b394]
link Administrator to Rating--><path codeLine="128" d="M1245.15,184.609 C1241.97,196.788 1238.83,209.2 1236,221 C1226.62,260.092 1217.22,305.857 1211.76,333.219 " fill="none" id="Administrator-to-Rating" style="stroke:#A80036;stroke-width:1.0;"/><polygon fill="#A80036" points="1210.72,338.439,1216.4006,330.3935,1211.6965,333.5353,1208.5546,328.8311,1210.72,338.439" style="stroke:#A80036;stroke-width:1.0;"/><text fill="#000000" font-family="sans-serif" font-size="13" lengthAdjust="spacing" textLength="39" x="1237" y="234.0669">adjust</text><!--MD5=[c281fd3865e63ac394ecd12693085b4e]
link Trainer to Rating--><path codeLine="129" d="M672.562,101.881 C772.507,105.106 1028.34,127.443 1168,268 C1185.95,286.067 1196.27,313.76 1201.72,333.555 " fill="none" id="Trainer-to-Rating" style="stroke:#A80036;stroke-width:1.0;"/><polygon fill="#A80036" points="1203.01,338.406,1204.5703,328.6815,1201.7288,333.5729,1196.8374,330.7314,1203.01,338.406" style="stroke:#A80036;stroke-width:1.0;"/><text fill="#000000" font-family="sans-serif" font-size="13" lengthAdjust="spacing" textLength="23" x="1124" y="234.0669">see</text><!--MD5=[5a4c7b61c96aa23960c77d9ecec0911c]
link Administrator to CourseAttendee--><path codeLine="130" d="M1207.19,111.618 C1114.33,128.163 932.535,164.892 786,221 C770.96,226.759 769.494,233.607 754,238 C654.166,266.309 383.693,227.861 288,268 C279.117,271.726 270.495,276.583 262.282,282.108 " fill="none" id="Administrator-to-CourseAttendee" style="stroke:#A80036;stroke-width:1.0;"/><polygon fill="#A80036" points="257.761,285.243,267.4359,283.4,261.8693,282.3932,262.8761,276.8266,257.761,285.243" style="stroke:#A80036;stroke-width:1.0;"/><text fill="#000000" font-family="sans-serif" font-size="13" lengthAdjust="spacing" textLength="41" x="787" y="234.0669">cancel</text><!--MD5=[f4e71a7db7a41f38f34623796cfb64a1]
link Developer to Requirement--><path codeLine="131" d="M1811,133.663 C1811,185.644 1811,286.965 1811,333.312 " fill="none" id="Developer-to-Requirement" style="stroke:#A80036;stroke-width:1.0;"/><polygon fill="#A80036" points="1811,338.419,1815,329.419,1811,333.419,1807,329.419,1811,338.419" style="stroke:#A80036;stroke-width:1.0;"/><text fill="#000000" font-family="sans-serif" font-size="13" lengthAdjust="spacing" textLength="50" x="1812" y="234.0669">analyze</text><!--MD5=[01836bb29e062692d580706a54eb21b1]
link Enterprise to Price--><path codeLine="132" d="M985.705,397.81 C973.947,416.228 957.416,436.885 937,449 C834.957,509.5541 451.561,537.4187 353.8,543.6295 " fill="none" id="Enterprise-to-Price" style="stroke:#A80036;stroke-width:1.0;"/><polygon fill="#A80036" points="348.565,543.9586,357.7986,547.385,353.5551,543.6443,357.2958,539.4008,348.565,543.9586" style="stroke:#A80036;stroke-width:1.0;"/><text fill="#000000" font-family="sans-serif" font-size="13" lengthAdjust="spacing" textLength="57" x="857" y="492.0669">compare</text><!--MD5=[4dcc857daa2a67b6b9b85eea9919342f]
link Administrator to People--><path codeLine="133" d="M1328.53,163.026 C1341.66,173.702 1356.11,183.701 1371,191 C1432.44,221.115 1465.22,182.823 1522,221 C1562.29,248.087 1585.89,302.241 1596.74,333.584 " fill="none" id="Administrator-to-People" style="stroke:#A80036;stroke-width:1.0;"/><polygon fill="#A80036" points="1598.37,338.41,1599.278,328.6031,1596.7692,333.6732,1591.6991,331.1644,1598.37,338.41" style="stroke:#A80036;stroke-width:1.0;"/><text fill="#000000" font-family="sans-serif" font-size="13" lengthAdjust="spacing" textLength="37" x="1543" y="234.0669">move</text><!--MD5=[05976ef88894a53117ec25d95db9968a]
link Trainer to Location--><path codeLine="134" d="M589.424,154.934 C576.193,174.657 562.944,197.862 555,221 C542.101,258.572 540.495,305.162 540.94,333.048 " fill="none" id="Trainer-to-Location" style="stroke:#A80036;stroke-width:1.0;"/><polygon fill="#A80036" points="541.053,338.368,544.8618,329.2854,540.9473,333.3691,536.8636,329.4546,541.053,338.368" style="stroke:#A80036;stroke-width:1.0;"/><text fill="#000000" font-family="sans-serif" font-size="13" lengthAdjust="spacing" textLength="31" x="556" y="234.0669">offer</text><!--MD5=[b450ecb7b6ae8f320a4277f7893ff16e]
link Trainer to Minimum--><path codeLine="135" d="M672.618,120.954 C734.368,149.314 854.343,202.49 960,238 C1010.07,254.828 1033.64,235.148 1075,268 C1095.9,284.603 1108.56,313.073 1115.39,333.447 " fill="none" id="Trainer-to-Minimum" style="stroke:#A80036;stroke-width:1.0;"/><polygon fill="#A80036" points="1117,338.44,1118.039,328.6461,1115.4626,333.6822,1110.4265,331.1059,1117,338.44" style="stroke:#A80036;stroke-width:1.0;"/><text fill="#000000" font-family="sans-serif" font-size="13" lengthAdjust="spacing" textLength="20" x="961" y="234.0669">set</text><!--MD5=[897627040129361f8ccc0514ef652ca1]
reverse link Trainer to Calendar--><path codeLine="136" d="M596.368,204.487 C595.272,215.74 595.304,227.072 597,238 C602.675,274.572 617.57,315.269 626.937,338.485 " fill="none" id="Trainer-backto-Calendar" style="stroke:#A80036;stroke-width:1.0;"/><polygon fill="#FFFFFF" points="598.141,191.344,593.3746,196.7552,596.5363,203.2362,601.3027,197.825,598.141,191.344" style="stroke:#A80036;stroke-width:1.0;"/><text fill="#000000" font-family="sans-serif" font-size="13" lengthAdjust="spacing" textLength="21" x="598" y="234.0669">put</text><!--MD5=[6d6d3a842ecb8efcd60461691b87323c]
reverse link Trainer to Price--><path codeLine="137" d="M576.203,112.334 C516.135,126.962 420.768,158.709 364,221 C284.022,308.759 313.052,470.5622 326.067,525.8766 " fill="none" id="Trainer-backto-Price" style="stroke:#A80036;stroke-width:1.0;"/><polygon fill="#FFFFFF" points="589.194,109.303,582.442,106.7712,577.508,112.03,584.26,114.5618,589.194,109.303" style="stroke:#A80036;stroke-width:1.0;"/><text fill="#000000" font-family="sans-serif" font-size="13" lengthAdjust="spacing" textLength="57" x="335" y="363.0669">compare</text><!--MD5=[fe7b20b6c5ffff0db9d6f05d8fe9947c]
link Trainer to Review--><path codeLine="138" d="M644.412,191.344 C648.372,207.265 653.465,223.407 660,238 C666.758,253.09 673.559,253.782 682,268 C694.654,289.315 706.398,315.065 714.231,333.462 " fill="none" id="Trainer-to-Review" style="stroke:#A80036;stroke-width:1.0;"/><polygon fill="#A80036" points="716.334,338.446,716.5189,328.5989,714.3894,333.8396,709.1487,331.7102,716.334,338.446" style="stroke:#A80036;stroke-width:1.0;"/><text fill="#000000" font-family="sans-serif" font-size="13" lengthAdjust="spacing" textLength="23" x="661" y="234.0669">see</text><!--MD5=[9117c9c63c576195c66fa91def9a9dd4]
link Administrator to Minimum--><path codeLine="139" d="M1211.15,184.545 C1203.46,196.623 1195.86,209.023 1189,221 C1167.04,259.327 1145.17,305.864 1132.65,333.507 " fill="none" id="Administrator-to-Minimum" style="stroke:#A80036;stroke-width:1.0;"/><polygon fill="#A80036" points="1130.57,338.109,1137.9187,331.5518,1132.6272,333.5518,1130.6271,328.2603,1130.57,338.109" style="stroke:#A80036;stroke-width:1.0;"/><text fill="#000000" font-family="sans-serif" font-size="13" lengthAdjust="spacing" textLength="34" x="1190" y="234.0669">meet</text><!--MD5=[1369b313025ec66559ee47cdac0eaf96]
link Enterprise to Value--><path codeLine="140" d="M1006,397.936 C1006,434.853 1006,489.4949 1006,520.7333 " fill="none" id="Enterprise-to-Value" style="stroke:#A80036;stroke-width:1.0;"/><polygon fill="#A80036" points="1006,525.9119,1010,516.9119,1006,520.9119,1002,516.9119,1006,525.9119" style="stroke:#A80036;stroke-width:1.0;"/><text fill="#000000" font-family="sans-serif" font-size="13" lengthAdjust="spacing" textLength="21" x="1007" y="492.0669">get</text><!--MD5=[90cc2afd8668edf8ee39834b8313daa9]
link Administrator to Request--><path codeLine="141" d="M1310.54,184.729 C1316.74,196.891 1323.04,209.266 1329,221 C1349.12,260.612 1372.42,306.754 1386.14,333.969 " fill="none" id="Administrator-to-Request" style="stroke:#A80036;stroke-width:1.0;"/><polygon fill="#A80036" points="1388.42,338.497,1387.9452,328.6596,1386.1714,334.0312,1380.7998,332.2574,1388.42,338.497" style="stroke:#A80036;stroke-width:1.0;"/><text fill="#000000" font-family="sans-serif" font-size="13" lengthAdjust="spacing" textLength="47" x="1338" y="234.0669">receive</text><!--MD5=[87e802f94dff5db0b14b612664619da8]
link User to Account--><path codeLine="142" d="M345.605,178.308 C377.156,231.447 417.074,298.677 437.899,333.751 " fill="none" id="User-to-Account" style="stroke:#A80036;stroke-width:1.0;"/><polygon fill="#A80036" points="440.586,338.276,439.431,328.4951,438.0335,333.9766,432.552,332.5791,440.586,338.276" style="stroke:#A80036;stroke-width:1.0;"/><text fill="#000000" font-family="sans-serif" font-size="13" lengthAdjust="spacing" textLength="36" x="382" y="234.0669">setup</text><!--MD5=[848f71fd1d5c16aa0a02f8b7c722083e]
@startuml
hide circle
class User<actor> {
	registration
	courseAttendee
}
class CourseAttendee<actor> {
}
class Trainer<actor> {
	calendar
	price
	profile
}
class Enterprise<actor> {
}
class Administrator<actor> {
}
class Admin<actor> {
}
class Team<actor> {
}
class Developer<actor> {
}
class RegistrationInformation {
}
class Trainer {
	offer()
	set()
	put()
	see()
	compare()
	maximize()
	attach()
	continue()
}
class Review {
}
class Developer {
	analyze()
	understand()
}
class Feasibility {
}
class Duty {
}
class User {
	filter()
	setup()
	see()
	share()
	search()
	register()
	request()
}
class CourseAttendee {
	decide()
	offer()
	rate()
	see()
	receive()
	compare()
	attend()
	verify()
	review()
	start()
	pay()
}
class Administrator {
	delete()
	have()
	meet()
	create()
	receive()
	cancel()
	see()
	move()
	attach()
	adjust()
}
class Price {
}
class Rating {
}
class People {
}
class Minimum {
}
class Enterprise {
	see()
	compare()
	get()
}
class Value {
}
class Account {
}
class Number {
}
class Schedule {
}
class Dashboard {
}
class Requirement {
}
class Location {
}
class Calendar {
}
class Request {
}
class ConfirmationEmail {
}
class Architecture {
}
Developer - -> Feasibility : understand
CourseAttendee - -> ConfirmationEmail : receive
Account o- - RegistrationInformation
Trainer - -> Duty : attach
User - -> Number : see
Developer - -> Architecture : understand
Administrator - -> Number : adjust
User o- - CourseAttendee : request
CourseAttendee - -> Schedule : see
User o- - CourseAttendee : share
Administrator - -> RegistrationInformation : receive
Administrator - -> Dashboard : have
CourseAttendee - -> Price : compare
Trainer - -> CourseAttendee : offer
Administrator - -> Rating : adjust
Trainer - -> Rating : see
Administrator - -> CourseAttendee : cancel
Developer - -> Requirement : analyze
Enterprise - -> Price : compare
Administrator - -> People : move
Trainer - -> Location : offer
Trainer - -> Minimum : set
Trainer o- - Calendar : put
Trainer o- - Price : compare
Trainer - -> Review : see
Administrator - -> Minimum : meet
Enterprise - -> Value : get
Administrator - -> Request : receive
User - -> Account : setup
@enduml

PlantUML version 1.2021.10beta2(Unknown compile time)
(GPL source distribution)
Java Runtime: Java(TM) SE Runtime Environment
JVM: Java HotSpot(TM) 64-Bit Server VM
Default Encoding: UTF-8
Language: en
Country: US
--></g></svg>