<?xml version="1.0" encoding="UTF-8" standalone="no"?><svg xmlns="http://www.w3.org/2000/svg" xmlns:xlink="http://www.w3.org/1999/xlink" contentScriptType="application/ecmascript" contentStyleType="text/css" height="438px" preserveAspectRatio="none" style="width:1488px;height:438px;background:#FFFFFF;" version="1.1" viewBox="0 0 1488 438" width="1488px" zoomAndPan="magnify"><defs><filter height="300%" id="f66mpkfkkevwg" width="300%" x="-1" y="-1"><feGaussianBlur result="blurOut" stdDeviation="2.0"/><feColorMatrix in="blurOut" result="blurOut2" type="matrix" values="0 0 0 0 0 0 0 0 0 0 0 0 0 0 0 0 0 0 .4 0"/><feOffset dx="4.0" dy="4.0" in="blurOut2" result="blurOut3"/><feBlend in="SourceGraphic" in2="blurOut3" mode="normal"/></filter></defs><g><!--MD5=[85a5c2340e3a05c0f9f192e3f7c61eab]
class ESS--><rect codeLine="4" fill="#FEFECE" filter="url(#f66mpkfkkevwg)" height="168.0156" id="ESS" style="stroke:#A80036;stroke-width:1.5;" width="64" x="608.5" y="10"/><text fill="#000000" font-family="sans-serif" font-size="12" lengthAdjust="spacing" textLength="23" x="611.5" y="26.1387">ESS</text><rect fill="#FFFFFF" height="15.9688" style="stroke:#000000;stroke-width:1.0;stroke-dasharray:2.0,2.0;" width="33" x="642.5" y="7"/><text fill="#000000" font-family="sans-serif" font-size="12" font-style="italic" lengthAdjust="spacing" textLength="31" x="643.5" y="19.1387">actor</text><line style="stroke:#A80036;stroke-width:1.5;" x1="609.5" x2="671.5" y1="33.9688" y2="33.9688"/><line style="stroke:#A80036;stroke-width:1.5;" x1="609.5" x2="671.5" y1="41.9688" y2="41.9688"/><text fill="#000000" font-family="sans-serif" font-size="11" lengthAdjust="spacing" textLength="33" x="614.5" y="56.1792">lead()</text><text fill="#000000" font-family="sans-serif" font-size="11" lengthAdjust="spacing" textLength="35" x="614.5" y="68.9839">copy()</text><text fill="#000000" font-family="sans-serif" font-size="11" lengthAdjust="spacing" textLength="33" x="614.5" y="81.7886">drop()</text><text fill="#000000" font-family="sans-serif" font-size="11" lengthAdjust="spacing" textLength="40" x="614.5" y="94.5933">paste()</text><text fill="#000000" font-family="sans-serif" font-size="11" lengthAdjust="spacing" textLength="29" x="614.5" y="107.3979">use()</text><text fill="#000000" font-family="sans-serif" font-size="11" lengthAdjust="spacing" textLength="37" x="614.5" y="120.2026">have()</text><text fill="#000000" font-family="sans-serif" font-size="11" lengthAdjust="spacing" textLength="36" x="614.5" y="133.0073">save()</text><text fill="#000000" font-family="sans-serif" font-size="11" lengthAdjust="spacing" textLength="33" x="614.5" y="145.812">drag()</text><text fill="#000000" font-family="sans-serif" font-size="11" lengthAdjust="spacing" textLength="45" x="614.5" y="158.6167">create()</text><text fill="#000000" font-family="sans-serif" font-size="11" lengthAdjust="spacing" textLength="32" x="614.5" y="171.4214">load()</text><!--MD5=[818ce9cd1eb68477d70117a0a20ac581]
class Instruction--><rect codeLine="16" fill="#FEFECE" filter="url(#f66mpkfkkevwg)" height="39.9688" id="Instruction" style="stroke:#A80036;stroke-width:1.5;" width="68" x="1019.5" y="261.5"/><text fill="#000000" font-family="sans-serif" font-size="12" lengthAdjust="spacing" textLength="62" x="1022.5" y="277.6387">Instruction</text><line style="stroke:#A80036;stroke-width:1.5;" x1="1020.5" x2="1086.5" y1="285.4688" y2="285.4688"/><line style="stroke:#A80036;stroke-width:1.5;" x1="1020.5" x2="1086.5" y1="293.4688" y2="293.4688"/><!--MD5=[f2eb7d5497efdc0fbc0e36060879ff38]
class ProgramFile--><rect codeLine="18" fill="#FEFECE" filter="url(#f66mpkfkkevwg)" height="39.9688" id="ProgramFile" style="stroke:#A80036;stroke-width:1.5;" width="77" x="241" y="261.5"/><text fill="#000000" font-family="sans-serif" font-size="12" lengthAdjust="spacing" textLength="71" x="244" y="277.6387">ProgramFile</text><line style="stroke:#A80036;stroke-width:1.5;" x1="242" x2="317" y1="285.4688" y2="285.4688"/><line style="stroke:#A80036;stroke-width:1.5;" x1="242" x2="317" y1="293.4688" y2="293.4688"/><!--MD5=[9ad4922ae42a5a4285a4d08e1bf94ebc]
class LoopConstruct--><rect codeLine="20" fill="#FEFECE" filter="url(#f66mpkfkkevwg)" height="39.9688" id="LoopConstruct" style="stroke:#A80036;stroke-width:1.5;" width="93" x="373" y="261.5"/><text fill="#000000" font-family="sans-serif" font-size="12" lengthAdjust="spacing" textLength="87" x="376" y="277.6387">LoopConstruct</text><line style="stroke:#A80036;stroke-width:1.5;" x1="374" x2="465" y1="285.4688" y2="285.4688"/><line style="stroke:#A80036;stroke-width:1.5;" x1="374" x2="465" y1="293.4688" y2="293.4688"/><!--MD5=[c8cb825debe3256a739b3c648d30f7b6]
class DModule--><rect codeLine="22" fill="#FEFECE" filter="url(#f66mpkfkkevwg)" height="52.7734" id="DModule" style="stroke:#A80036;stroke-width:1.5;" width="59" x="501" y="255"/><text fill="#000000" font-family="sans-serif" font-size="12" lengthAdjust="spacing" textLength="53" x="504" y="271.1387">DModule</text><line style="stroke:#A80036;stroke-width:1.5;" x1="502" x2="559" y1="278.9688" y2="278.9688"/><line style="stroke:#A80036;stroke-width:1.5;" x1="502" x2="559" y1="286.9688" y2="286.9688"/><text fill="#000000" font-family="sans-serif" font-size="11" lengthAdjust="spacing" textLength="40" x="507" y="301.1792">make()</text><!--MD5=[4899ead58b536ff968fbcbdca857d192]
class Function--><rect codeLine="25" fill="#FEFECE" filter="url(#f66mpkfkkevwg)" height="52.7734" id="Function" style="stroke:#A80036;stroke-width:1.5;" width="58" x="61.5" y="255"/><text fill="#000000" font-family="sans-serif" font-size="12" lengthAdjust="spacing" textLength="50" x="65.5" y="271.1387">Function</text><line style="stroke:#A80036;stroke-width:1.5;" x1="62.5" x2="118.5" y1="278.9688" y2="278.9688"/><line style="stroke:#A80036;stroke-width:1.5;" x1="62.5" x2="118.5" y1="286.9688" y2="286.9688"/><text fill="#000000" font-family="sans-serif" font-size="11" lengthAdjust="spacing" textLength="46" x="67.5" y="301.1792">control()</text><!--MD5=[fe3834ec89abded0ba23e87c6f7e9c69]
class WaitCondition--><rect codeLine="28" fill="#FEFECE" filter="url(#f66mpkfkkevwg)" height="39.9688" id="WaitCondition" style="stroke:#A80036;stroke-width:1.5;" width="88" x="696.5" y="261.5"/><text fill="#000000" font-family="sans-serif" font-size="12" lengthAdjust="spacing" textLength="82" x="699.5" y="277.6387">WaitCondition</text><line style="stroke:#A80036;stroke-width:1.5;" x1="697.5" x2="783.5" y1="285.4688" y2="285.4688"/><line style="stroke:#A80036;stroke-width:1.5;" x1="697.5" x2="783.5" y1="293.4688" y2="293.4688"/><!--MD5=[1a60b7f2e923711067f8fe02fce9781a]
class DDM--><rect codeLine="30" fill="#FEFECE" filter="url(#f66mpkfkkevwg)" height="52.7734" id="DDM" style="stroke:#A80036;stroke-width:1.5;" width="57" x="1338" y="67.5"/><text fill="#000000" font-family="sans-serif" font-size="12" lengthAdjust="spacing" textLength="28" x="1352.5" y="83.6387">DDM</text><line style="stroke:#A80036;stroke-width:1.5;" x1="1339" x2="1394" y1="91.4688" y2="91.4688"/><line style="stroke:#A80036;stroke-width:1.5;" x1="1339" x2="1394" y1="99.4688" y2="99.4688"/><text fill="#000000" font-family="sans-serif" font-size="11" lengthAdjust="spacing" textLength="45" x="1344" y="113.6792">detect()</text><!--MD5=[5d3c9bb25b1b07c105e03cfa5bc0b7ee]
class Note--><rect codeLine="33" fill="#FEFECE" filter="url(#f66mpkfkkevwg)" height="39.9688" id="Note" style="stroke:#A80036;stroke-width:1.5;" width="34" x="842.5" y="261.5"/><text fill="#000000" font-family="sans-serif" font-size="12" lengthAdjust="spacing" textLength="28" x="845.5" y="277.6387">Note</text><line style="stroke:#A80036;stroke-width:1.5;" x1="843.5" x2="875.5" y1="285.4688" y2="285.4688"/><line style="stroke:#A80036;stroke-width:1.5;" x1="843.5" x2="875.5" y1="293.4688" y2="293.4688"/><!--MD5=[9ec104ddfc62073059e345d4e82bb5a8]
class Behavior--><rect codeLine="35" fill="#FEFECE" filter="url(#f66mpkfkkevwg)" height="39.9688" id="Behavior" style="stroke:#A80036;stroke-width:1.5;" width="59" x="111" y="385"/><text fill="#000000" font-family="sans-serif" font-size="12" lengthAdjust="spacing" textLength="53" x="114" y="401.1387">Behavior</text><line style="stroke:#A80036;stroke-width:1.5;" x1="112" x2="169" y1="408.9688" y2="408.9688"/><line style="stroke:#A80036;stroke-width:1.5;" x1="112" x2="169" y1="416.9688" y2="416.9688"/><!--MD5=[bc87bf052131b9ca3b54b8ba84b5b110]
class Movement--><rect codeLine="37" fill="#FEFECE" filter="url(#f66mpkfkkevwg)" height="39.9688" id="Movement" style="stroke:#A80036;stroke-width:1.5;" width="69" x="7" y="385"/><text fill="#000000" font-family="sans-serif" font-size="12" lengthAdjust="spacing" textLength="63" x="10" y="401.1387">Movement</text><line style="stroke:#A80036;stroke-width:1.5;" x1="8" x2="75" y1="408.9688" y2="408.9688"/><line style="stroke:#A80036;stroke-width:1.5;" x1="8" x2="75" y1="416.9688" y2="416.9688"/><!--MD5=[2e42295458bb0bec21c9622a623eb29e]
class Time--><rect codeLine="39" fill="#FEFECE" filter="url(#f66mpkfkkevwg)" height="39.9688" id="Time" style="stroke:#A80036;stroke-width:1.5;" width="35" x="1349" y="261.5"/><text fill="#000000" font-family="sans-serif" font-size="12" lengthAdjust="spacing" textLength="29" x="1352" y="277.6387">Time</text><line style="stroke:#A80036;stroke-width:1.5;" x1="1350" x2="1383" y1="285.4688" y2="285.4688"/><line style="stroke:#A80036;stroke-width:1.5;" x1="1350" x2="1383" y1="293.4688" y2="293.4688"/><!--MD5=[562c4b801d528848837ef3b38203ac7d]
class Song--><rect codeLine="41" fill="#FEFECE" filter="url(#f66mpkfkkevwg)" height="39.9688" id="Song" style="stroke:#A80036;stroke-width:1.5;" width="37" x="935" y="261.5"/><text fill="#000000" font-family="sans-serif" font-size="12" lengthAdjust="spacing" textLength="31" x="938" y="277.6387">Song</text><line style="stroke:#A80036;stroke-width:1.5;" x1="936" x2="971" y1="285.4688" y2="285.4688"/><line style="stroke:#A80036;stroke-width:1.5;" x1="936" x2="971" y1="293.4688" y2="293.4688"/><!--MD5=[c6e3725ae1bacc2e93092548ec772dd8]
class Construct--><rect codeLine="43" fill="#FEFECE" filter="url(#f66mpkfkkevwg)" height="39.9688" id="Construct" style="stroke:#A80036;stroke-width:1.5;" width="63" x="1022" y="385"/><text fill="#000000" font-family="sans-serif" font-size="12" lengthAdjust="spacing" textLength="57" x="1025" y="401.1387">Construct</text><line style="stroke:#A80036;stroke-width:1.5;" x1="1023" x2="1084" y1="408.9688" y2="408.9688"/><line style="stroke:#A80036;stroke-width:1.5;" x1="1023" x2="1084" y1="416.9688" y2="416.9688"/><!--MD5=[d9b4c0d58869fca5643125bc6b8755f9]
class IRobot--><rect codeLine="45" fill="#FEFECE" filter="url(#f66mpkfkkevwg)" height="52.7734" id="IRobot" style="stroke:#A80036;stroke-width:1.5;" width="44" x="1430.5" y="67.5"/><text fill="#000000" font-family="sans-serif" font-size="12" lengthAdjust="spacing" textLength="38" x="1433.5" y="83.6387">IRobot</text><line style="stroke:#A80036;stroke-width:1.5;" x1="1431.5" x2="1473.5" y1="91.4688" y2="91.4688"/><line style="stroke:#A80036;stroke-width:1.5;" x1="1431.5" x2="1473.5" y1="99.4688" y2="99.4688"/><text fill="#000000" font-family="sans-serif" font-size="11" lengthAdjust="spacing" textLength="22" x="1436.5" y="113.6792">go()</text><!--MD5=[0b710551c786b6ec2bc09a283d97084f]
class NavigationD--><rect codeLine="48" fill="#FEFECE" filter="url(#f66mpkfkkevwg)" height="52.7734" id="NavigationD" style="stroke:#A80036;stroke-width:1.5;" width="77" x="1237" y="255"/><text fill="#000000" font-family="sans-serif" font-size="12" lengthAdjust="spacing" textLength="71" x="1240" y="271.1387">NavigationD</text><line style="stroke:#A80036;stroke-width:1.5;" x1="1238" x2="1313" y1="278.9688" y2="278.9688"/><line style="stroke:#A80036;stroke-width:1.5;" x1="1238" x2="1313" y1="286.9688" y2="286.9688"/><text fill="#000000" font-family="sans-serif" font-size="11" lengthAdjust="spacing" textLength="40" x="1243" y="301.1792">make()</text><!--MD5=[bcf00a8998e31ca398852a07a28fcacb]
link ESS to LoopConstruct--><path codeLine="51" d="M608.393,100.515 C557.631,111.153 460.318,139.791 418.5,208 C409.692,222.366 410.369,241.532 413.02,256.55 " fill="none" id="ESS-to-LoopConstruct" style="stroke:#A80036;stroke-width:1.0;"/><polygon fill="#A80036" points="413.984,261.471,416.1784,251.8697,413.0224,256.5643,408.3278,253.4083,413.984,261.471" style="stroke:#A80036;stroke-width:1.0;"/><text fill="#000000" font-family="sans-serif" font-size="13" lengthAdjust="spacing" textLength="29" x="419.5" y="221.0669">drag</text><!--MD5=[bcf00a8998e31ca398852a07a28fcacb]
link ESS to LoopConstruct--><path codeLine="58" d="M608.365,121.973 C564.704,158.621 487.413,223.496 446.557,257.789 " fill="none" id="ESS-to-LoopConstruct-1" style="stroke:#A80036;stroke-width:1.0;"/><polygon fill="#A80036" points="442.239,261.413,451.7043,258.6913,446.069,258.1987,446.5615,252.5634,442.239,261.413" style="stroke:#A80036;stroke-width:1.0;"/><text fill="#000000" font-family="sans-serif" font-size="13" lengthAdjust="spacing" textLength="29" x="505.5" y="221.0669">drop</text><!--MD5=[f805d875c80a93fd054304df0fdcefc4]
link ESS to Construct--><path codeLine="52" d="M672.553,94.967 C750.402,96.493 952.307,110.264 1078.5,208 C1114.81,236.119 1115.6,263.44 1104.5,308 C1097.9,334.5049 1082.46,361.7253 1070.29,380.3801 " fill="none" id="ESS-to-Construct" style="stroke:#A80036;stroke-width:1.0;"/><polygon fill="#A80036" points="1067.27,384.9327,1075.574,379.637,1070.0305,380.7638,1068.9037,375.2203,1067.27,384.9327" style="stroke:#A80036;stroke-width:1.0;"/><text fill="#000000" font-family="sans-serif" font-size="13" lengthAdjust="spacing" textLength="29" x="1112.5" y="286.0669">drop</text><!--MD5=[f805d875c80a93fd054304df0fdcefc4]
link ESS to Construct--><path codeLine="62" d="M620.992,178.169 C615.898,221.408 618.448,272.492 647.5,308 C694.427,365.3556 925.745,392.3567 1016.69,400.8833 " fill="none" id="ESS-to-Construct-1" style="stroke:#A80036;stroke-width:1.0;"/><polygon fill="#A80036" points="1021.69,401.3472,1013.1071,396.5166,1016.7123,400.8759,1012.353,404.481,1021.69,401.3472" style="stroke:#A80036;stroke-width:1.0;"/><text fill="#000000" font-family="sans-serif" font-size="13" lengthAdjust="spacing" textLength="29" x="648.5" y="286.0669">drag</text><!--MD5=[be6e37065599cfe7f36d1e1b3fc92fa6]
reverse link Instruction to Construct--><path codeLine="53" d="M1053.5,314.966 C1053.5,337.2691 1053.5,366.119 1053.5,384.838 " fill="none" id="Instruction-backto-Construct" style="stroke:#A80036;stroke-width:1.0;"/><polygon fill="#FFFFFF" points="1053.5,301.752,1049.5,307.752,1053.5,313.752,1057.5,307.752,1053.5,301.752" style="stroke:#A80036;stroke-width:1.0;"/><!--MD5=[8c0f5759d99d2622cf81a4336a176790]
link ESS to DModule--><path codeLine="54" d="M608.357,135.669 C592.73,156.558 574.377,182.85 560.5,208 C553.174,221.278 546.546,236.718 541.395,249.929 " fill="none" id="ESS-to-DModule" style="stroke:#A80036;stroke-width:1.0;"/><polygon fill="#A80036" points="539.565,254.687,546.5301,247.7237,541.3605,250.0205,539.0636,244.8509,539.565,254.687" style="stroke:#A80036;stroke-width:1.0;"/><text fill="#000000" font-family="sans-serif" font-size="13" lengthAdjust="spacing" textLength="23" x="561.5" y="221.0669">use</text><!--MD5=[22d9c9949c2d0028394ec2245ae3fb6c]
link ESS to Function--><path codeLine="55" d="M608.278,96.02 C495.776,100.321 123.382,121.016 51.5,208 C40.9388,220.78 47.9562,236.864 58.7901,250.634 " fill="none" id="ESS-to-Function" style="stroke:#A80036;stroke-width:1.0;"/><polygon fill="#A80036" points="62.2597,254.827,59.6044,245.3428,59.0724,250.9746,53.4406,250.4426,62.2597,254.827" style="stroke:#A80036;stroke-width:1.0;"/><text fill="#000000" font-family="sans-serif" font-size="13" lengthAdjust="spacing" textLength="29" x="52.5" y="221.0669">drag</text><!--MD5=[22d9c9949c2d0028394ec2245ae3fb6c]
link ESS to Function--><path codeLine="68" d="M608.23,95.373 C525.547,97.734 301.902,113.097 149.5,208 C132.501,218.585 118.182,235.811 107.908,250.816 " fill="none" id="ESS-to-Function-1" style="stroke:#A80036;stroke-width:1.0;"/><polygon fill="#A80036" points="105.1187,254.982,113.449,249.7279,107.9,250.8269,106.801,245.2779,105.1187,254.982" style="stroke:#A80036;stroke-width:1.0;"/><text fill="#000000" font-family="sans-serif" font-size="13" lengthAdjust="spacing" textLength="29" x="150.5" y="221.0669">drop</text><!--MD5=[32ca3db569852ac93cc7863f19bcec64]
link ESS to Song--><path codeLine="56" d="M672.864,106.333 C720.588,123.894 811.521,160.649 879.5,208 C899.908,222.215 919.86,242.227 933.894,257.626 " fill="none" id="ESS-to-Song" style="stroke:#A80036;stroke-width:1.0;"/><polygon fill="#A80036" points="937.331,261.435,934.2718,252.0733,933.9815,257.7227,928.3321,257.4325,937.331,261.435" style="stroke:#A80036;stroke-width:1.0;"/><text fill="#000000" font-family="sans-serif" font-size="13" lengthAdjust="spacing" textLength="41" x="901.5" y="221.0669">create</text><!--MD5=[431f8f88123ab42fa2b2e305fab9e6db]
link ESS to WaitCondition--><path codeLine="57" d="M647.793,178.207 C651.742,194.563 657.664,210.98 666.5,225 C674.885,238.305 687.684,249.552 700.292,258.369 " fill="none" id="ESS-to-WaitCondition" style="stroke:#A80036;stroke-width:1.0;"/><polygon fill="#A80036" points="704.554,261.265,699.3577,252.8985,700.4183,258.455,694.8618,259.5156,704.554,261.265" style="stroke:#A80036;stroke-width:1.0;"/><text fill="#000000" font-family="sans-serif" font-size="13" lengthAdjust="spacing" textLength="29" x="667.5" y="221.0669">drop</text><!--MD5=[431f8f88123ab42fa2b2e305fab9e6db]
link ESS to WaitCondition--><path codeLine="63" d="M672.649,154.516 C681.962,171.767 692.14,190.631 701.5,208 C710.272,224.278 720.138,242.619 727.752,256.782 " fill="none" id="ESS-to-WaitCondition-1" style="stroke:#A80036;stroke-width:1.0;"/><polygon fill="#A80036" points="730.243,261.415,729.5031,251.594,727.8748,257.0114,722.4574,255.3831,730.243,261.415" style="stroke:#A80036;stroke-width:1.0;"/><text fill="#000000" font-family="sans-serif" font-size="13" lengthAdjust="spacing" textLength="29" x="711.5" y="221.0669">drag</text><!--MD5=[2d686928896881f7396e36216523b7c3]
link Function to Behavior--><path codeLine="59" d="M101.1037,308.267 C109.808,329.4193 122.045,359.155 130.563,379.8527 " fill="none" id="Function-to-Behavior" style="stroke:#A80036;stroke-width:1.0;"/><polygon fill="#A80036" points="132.536,384.6472,132.8092,374.8021,130.6328,380.0236,125.4114,377.8472,132.536,384.6472" style="stroke:#A80036;stroke-width:1.0;"/><text fill="#000000" font-family="sans-serif" font-size="13" lengthAdjust="spacing" textLength="44" x="121.5" y="351.0669">control</text><!--MD5=[3342415470021aaaa6e85db9290be11a]
link ESS to Note--><path codeLine="60" d="M672.814,122.371 C718.274,160.877 799.848,229.973 838.32,262.56 " fill="none" id="ESS-to-Note" style="stroke:#A80036;stroke-width:1.0;"/><polygon fill="#A80036" points="842.35,265.973,838.067,257.1042,838.5344,262.7417,832.8969,263.2091,842.35,265.973" style="stroke:#A80036;stroke-width:1.0;"/><text fill="#000000" font-family="sans-serif" font-size="13" lengthAdjust="spacing" textLength="29" x="790.5" y="221.0669">drag</text><!--MD5=[3342415470021aaaa6e85db9290be11a]
link ESS to Note--><path codeLine="65" d="M672.61,106.978 C713.76,123.795 784.967,158.046 828.5,208 C840.62,221.908 848.571,241.265 853.383,256.479 " fill="none" id="ESS-to-Note-1" style="stroke:#A80036;stroke-width:1.0;"/><polygon fill="#A80036" points="854.896,261.466,856.111,251.6924,853.4445,256.6813,848.4555,254.0148,854.896,261.466" style="stroke:#A80036;stroke-width:1.0;"/><text fill="#000000" font-family="sans-serif" font-size="13" lengthAdjust="spacing" textLength="29" x="841.5" y="221.0669">drop</text><!--MD5=[ffd086195696122be11b50e310020428]
link Function to Movement--><path codeLine="61" d="M68.7719,308.143 C62.2452,317.079 55.7087,327.5072 51.5,338 C46.215,351.1763 43.6981,366.8549 42.5104,379.6241 " fill="none" id="Function-to-Movement" style="stroke:#A80036;stroke-width:1.0;"/><polygon fill="#A80036" points="42.0785,384.9026,46.7993,376.2589,42.4863,379.9193,38.826,375.6063,42.0785,384.9026" style="stroke:#A80036;stroke-width:1.0;"/><text fill="#000000" font-family="sans-serif" font-size="13" lengthAdjust="spacing" textLength="44" x="52.5" y="351.0669">control</text><!--MD5=[01e32d6dee133f5706095a432e5b2964]
link ESS to ProgramFile--><path codeLine="64" d="M608.303,105.843 C557.195,123.681 455.136,161.879 375.5,208 C350.464,222.499 324.414,242.535 305.778,257.87 " fill="none" id="ESS-to-ProgramFile" style="stroke:#A80036;stroke-width:1.0;"/><polygon fill="#A80036" points="301.68,261.265,311.1628,258.6047,305.5307,258.0756,306.0597,252.4436,301.68,261.265" style="stroke:#A80036;stroke-width:1.0;"/><text fill="#000000" font-family="sans-serif" font-size="13" lengthAdjust="spacing" textLength="27" x="376.5" y="221.0669">load</text><!--MD5=[01e32d6dee133f5706095a432e5b2964]
link ESS to ProgramFile--><path codeLine="66" d="M608.397,98.106 C514.764,107.89 245.321,141.448 193.5,208 C175.905,230.596 206.693,251.096 236.203,264.486 " fill="none" id="ESS-to-ProgramFile-1" style="stroke:#A80036;stroke-width:1.0;"/><polygon fill="#A80036" points="240.921,266.573,234.3104,259.2723,236.3489,264.5491,231.0722,266.5876,240.921,266.573" style="stroke:#A80036;stroke-width:1.0;"/><text fill="#000000" font-family="sans-serif" font-size="13" lengthAdjust="spacing" textLength="41" x="194.5" y="221.0669">create</text><!--MD5=[01e32d6dee133f5706095a432e5b2964]
link ESS to ProgramFile--><path codeLine="71" d="M608.281,97.338 C543.45,103.7 396.058,126.759 309.5,208 C295.936,220.731 288.307,240.51 284.14,256.195 " fill="none" id="ESS-to-ProgramFile-2" style="stroke:#A80036;stroke-width:1.0;"/><polygon fill="#A80036" points="282.856,261.342,288.9151,253.5775,284.066,256.4906,281.1529,251.6415,282.856,261.342" style="stroke:#A80036;stroke-width:1.0;"/><text fill="#000000" font-family="sans-serif" font-size="13" lengthAdjust="spacing" textLength="31" x="310.5" y="221.0669">save</text><!--MD5=[d26ad42ad556b313ad6b9eba0e2d8113]
link ESS to Instruction--><path codeLine="67" d="M672.583,103.547 C730.352,119.605 854.849,157.286 951.5,208 C978.441,222.136 1006.43,242.502 1026.26,258.051 " fill="none" id="ESS-to-Instruction" style="stroke:#A80036;stroke-width:1.0;"/><polygon fill="#A80036" points="1030.36,261.292,1025.7787,252.5735,1026.437,258.1919,1020.8186,258.8502,1030.36,261.292" style="stroke:#A80036;stroke-width:1.0;"/><text fill="#000000" font-family="sans-serif" font-size="13" lengthAdjust="spacing" textLength="36" x="979.5" y="221.0669">paste</text><!--MD5=[d26ad42ad556b313ad6b9eba0e2d8113]
link ESS to Instruction--><path codeLine="69" d="M672.558,95.418 C744.708,98.067 921.57,114.347 1024.5,208 C1038.19,220.459 1045.53,240.257 1049.39,256.018 " fill="none" id="ESS-to-Instruction-1" style="stroke:#A80036;stroke-width:1.0;"/><polygon fill="#A80036" points="1050.58,261.192,1052.4752,251.5272,1049.4665,256.3176,1044.6761,253.3089,1050.58,261.192" style="stroke:#A80036;stroke-width:1.0;"/><text fill="#000000" font-family="sans-serif" font-size="13" lengthAdjust="spacing" textLength="31" x="1038.5" y="221.0669">copy</text><!--MD5=[5e3184659fdb6d5212b3c996416bc9ee]
link ESS to NavigationD--><path codeLine="70" d="M672.56,95.613 C761.006,98.503 1013.97,114.935 1196.5,208 C1217.14,218.524 1236.38,235.95 1250.71,251.08 " fill="none" id="ESS-to-NavigationD" style="stroke:#A80036;stroke-width:1.0;"/><polygon fill="#A80036" points="1254.24,254.871,1251.0298,245.56,1250.831,251.2133,1245.1776,251.0145,1254.24,254.871" style="stroke:#A80036;stroke-width:1.0;"/><text fill="#000000" font-family="sans-serif" font-size="13" lengthAdjust="spacing" textLength="23" x="1222.5" y="221.0669">use</text><!--MD5=[4da711a8e60f364f149a69821b7718a7]
link DDM to Time--><path codeLine="72" d="M1366.5,120.793 C1366.5,156.607 1366.5,220.941 1366.5,256.034 " fill="none" id="DDM-to-Time" style="stroke:#A80036;stroke-width:1.0;"/><polygon fill="#A80036" points="1366.5,261.406,1370.5,252.406,1366.5,256.406,1362.5,252.406,1366.5,261.406" style="stroke:#A80036;stroke-width:1.0;"/><text fill="#000000" font-family="sans-serif" font-size="13" lengthAdjust="spacing" textLength="41" x="1367.5" y="221.0669">detect</text><!--MD5=[17e0fff125f5a66dcd1ea0f4fc2f4fb1]
@startuml
hide circle
class ESS<actor> {
}
class ESS {
	lead()
	copy()
	drop()
	paste()
	use()
	have()
	save()
	drag()
	create()
	load()
}
class Instruction {
}
class ProgramFile {
}
class LoopConstruct {
}
class DModule {
	make()
}
class Function {
	control()
}
class WaitCondition {
}
class DDM {
	detect()
}
class Note {
}
class Behavior {
}
class Movement {
}
class Time {
}
class Song {
}
class Construct {
}
class IRobot {
	go()
}
class NavigationD {
	make()
}
ESS - -> LoopConstruct : drag
ESS - -> Construct : drop
Instruction o- - Construct
ESS - -> DModule : use
ESS - -> Function : drag
ESS - -> Song : create
ESS - -> WaitCondition : drop
ESS - -> LoopConstruct : drop
Function - -> Behavior : control
ESS - -> Note : drag
Function - -> Movement : control
ESS - -> Construct : drag
ESS - -> WaitCondition : drag
ESS - -> ProgramFile : load
ESS - -> Note : drop
ESS - -> ProgramFile : create
ESS - -> Instruction : paste
ESS - -> Function : drop
ESS - -> Instruction : copy
ESS - -> NavigationD : use
ESS - -> ProgramFile : save
DDM - -> Time : detect
@enduml

PlantUML version 1.2021.10beta5(Unknown compile time)
(GPL source distribution)
Java Runtime: Java(TM) SE Runtime Environment
JVM: Java HotSpot(TM) 64-Bit Server VM
Default Encoding: UTF-8
Language: en
Country: US
--></g></svg>