<?xml version="1.0" encoding="UTF-8" standalone="no"?><svg xmlns="http://www.w3.org/2000/svg" xmlns:xlink="http://www.w3.org/1999/xlink" contentScriptType="application/ecmascript" contentStyleType="text/css" height="683px" preserveAspectRatio="none" style="width:1894px;height:683px;background:#FFFFFF;" version="1.1" viewBox="0 0 1894 683" width="1894px" zoomAndPan="magnify"><defs><filter height="300%" id="f1t3uia4a0pkql" width="300%" x="-1" y="-1"><feGaussianBlur result="blurOut" stdDeviation="2.0"/><feColorMatrix in="blurOut" result="blurOut2" type="matrix" values="0 0 0 0 0 0 0 0 0 0 0 0 0 0 0 0 0 0 .4 0"/><feOffset dx="4.0" dy="4.0" in="blurOut2" result="blurOut3"/><feBlend in="SourceGraphic" in2="blurOut3" mode="normal"/></filter></defs><g><!--MD5=[eee9d396a8aca12c6c152931e8dc1ab6]
class Driver--><rect codeLine="53" fill="#FEFECE" filter="url(#f1t3uia4a0pkql)" height="206.4297" id="Driver" style="stroke:#A80036;stroke-width:1.5;" width="132" x="116" y="10"/><text fill="#000000" font-family="sans-serif" font-size="12" lengthAdjust="spacing" textLength="37" x="146" y="26.1387">Driver</text><rect fill="#FFFFFF" height="15.9688" style="stroke:#000000;stroke-width:1.0;stroke-dasharray:2.0,2.0;" width="33" x="218" y="7"/><text fill="#000000" font-family="sans-serif" font-size="12" font-style="italic" lengthAdjust="spacing" textLength="31" x="219" y="19.1387">actor</text><line style="stroke:#A80036;stroke-width:1.5;" x1="117" x2="247" y1="33.9688" y2="33.9688"/><text fill="#000000" font-family="sans-serif" font-size="11" lengthAdjust="spacing" textLength="42" x="122" y="48.1792">vehicle</text><text fill="#000000" font-family="sans-serif" font-size="11" lengthAdjust="spacing" textLength="120" x="122" y="60.9839">creditcardinformation</text><text fill="#000000" font-family="sans-serif" font-size="11" lengthAdjust="spacing" textLength="36" x="122" y="73.7886">phone</text><text fill="#000000" font-family="sans-serif" font-size="11" lengthAdjust="spacing" textLength="36" x="122" y="86.5933">profile</text><text fill="#000000" font-family="sans-serif" font-size="11" lengthAdjust="spacing" textLength="83" x="122" y="99.3979">valetCompany</text><line style="stroke:#A80036;stroke-width:1.5;" x1="117" x2="247" y1="105.9922" y2="105.9922"/><text fill="#000000" font-family="sans-serif" font-size="11" lengthAdjust="spacing" textLength="45" x="122" y="120.2026">create()</text><text fill="#000000" font-family="sans-serif" font-size="11" lengthAdjust="spacing" textLength="41" x="122" y="133.0073">check()</text><text fill="#000000" font-family="sans-serif" font-size="11" lengthAdjust="spacing" textLength="54" x="122" y="145.812">retrieve()</text><text fill="#000000" font-family="sans-serif" font-size="11" lengthAdjust="spacing" textLength="29" x="122" y="158.6167">pay()</text><text fill="#000000" font-family="sans-serif" font-size="11" lengthAdjust="spacing" textLength="33" x="122" y="171.4214">user()</text><text fill="#000000" font-family="sans-serif" font-size="11" lengthAdjust="spacing" textLength="37" x="122" y="184.2261">have()</text><text fill="#000000" font-family="sans-serif" font-size="11" lengthAdjust="spacing" textLength="52" x="122" y="197.0308">request()</text><text fill="#000000" font-family="sans-serif" font-size="11" lengthAdjust="spacing" textLength="35" x="122" y="209.8354">want()</text><!--MD5=[fb93882b56d34ceac3efde76a57f44df]
class ValetCompany--><rect codeLine="119" fill="#FEFECE" filter="url(#f1t3uia4a0pkql)" height="65.5781" id="ValetCompany" style="stroke:#A80036;stroke-width:1.5;" width="127" x="300.5" y="80"/><text fill="#000000" font-family="sans-serif" font-size="12" lengthAdjust="spacing" textLength="86" x="303.5" y="96.1387">ValetCompany</text><rect fill="#FFFFFF" height="15.9688" style="stroke:#000000;stroke-width:1.0;stroke-dasharray:2.0,2.0;" width="33" x="397.5" y="77"/><text fill="#000000" font-family="sans-serif" font-size="12" font-style="italic" lengthAdjust="spacing" textLength="31" x="398.5" y="89.1387">actor</text><line style="stroke:#A80036;stroke-width:1.5;" x1="301.5" x2="426.5" y1="103.9688" y2="103.9688"/><text fill="#000000" font-family="sans-serif" font-size="11" lengthAdjust="spacing" textLength="36" x="306.5" y="118.1792">profile</text><text fill="#000000" font-family="sans-serif" font-size="11" lengthAdjust="spacing" textLength="49" x="306.5" y="130.9839">revenue</text><line style="stroke:#A80036;stroke-width:1.5;" x1="301.5" x2="426.5" y1="137.5781" y2="137.5781"/><!--MD5=[523021a3bf93a6ec27c557f3441ae10a]
class Establishment--><rect codeLine="103" fill="#FEFECE" filter="url(#f1t3uia4a0pkql)" height="65.5781" id="Establishment" style="stroke:#A80036;stroke-width:1.5;" width="124" x="1528" y="80"/><text fill="#000000" font-family="sans-serif" font-size="12" lengthAdjust="spacing" textLength="83" x="1531" y="96.1387">Establishment</text><rect fill="#FFFFFF" height="15.9688" style="stroke:#000000;stroke-width:1.0;stroke-dasharray:2.0,2.0;" width="33" x="1622" y="77"/><text fill="#000000" font-family="sans-serif" font-size="12" font-style="italic" lengthAdjust="spacing" textLength="31" x="1623" y="89.1387">actor</text><line style="stroke:#A80036;stroke-width:1.5;" x1="1529" x2="1651" y1="103.9688" y2="103.9688"/><line style="stroke:#A80036;stroke-width:1.5;" x1="1529" x2="1651" y1="111.9688" y2="111.9688"/><text fill="#000000" font-family="sans-serif" font-size="11" lengthAdjust="spacing" textLength="44" x="1534" y="126.1792">attract()</text><text fill="#000000" font-family="sans-serif" font-size="11" lengthAdjust="spacing" textLength="36" x="1534" y="138.9839">send()</text><!--MD5=[2ce0c9fb7f55b1e256ab28a8ea6b25ec]
class Customer--><rect codeLine="73" fill="#FEFECE" filter="url(#f1t3uia4a0pkql)" height="116.7969" id="Customer" style="stroke:#A80036;stroke-width:1.5;" width="99" x="1561.5" y="299.5"/><text fill="#000000" font-family="sans-serif" font-size="12" lengthAdjust="spacing" textLength="58" x="1564.5" y="315.6387">Customer</text><rect fill="#FFFFFF" height="15.9688" style="stroke:#000000;stroke-width:1.0;stroke-dasharray:2.0,2.0;" width="33" x="1630.5" y="296.5"/><text fill="#000000" font-family="sans-serif" font-size="12" font-style="italic" lengthAdjust="spacing" textLength="31" x="1631.5" y="308.6387">actor</text><line style="stroke:#A80036;stroke-width:1.5;" x1="1562.5" x2="1659.5" y1="323.4688" y2="323.4688"/><text fill="#000000" font-family="sans-serif" font-size="11" lengthAdjust="spacing" textLength="76" x="1567.5" y="337.6792">ticketNumber</text><text fill="#000000" font-family="sans-serif" font-size="11" lengthAdjust="spacing" textLength="17" x="1567.5" y="350.4839">car</text><line style="stroke:#A80036;stroke-width:1.5;" x1="1562.5" x2="1659.5" y1="357.0781" y2="357.0781"/><text fill="#000000" font-family="sans-serif" font-size="11" lengthAdjust="spacing" textLength="37" x="1567.5" y="371.2886">have()</text><text fill="#000000" font-family="sans-serif" font-size="11" lengthAdjust="spacing" textLength="52" x="1567.5" y="384.0933">request()</text><text fill="#000000" font-family="sans-serif" font-size="11" lengthAdjust="spacing" textLength="39" x="1567.5" y="396.8979">enter()</text><text fill="#000000" font-family="sans-serif" font-size="11" lengthAdjust="spacing" textLength="29" x="1567.5" y="409.7026">pay()</text><!--MD5=[d38e62326350a1635630d70906b8f78d]
class ValetOperator--><rect codeLine="121" fill="#FEFECE" filter="url(#f1t3uia4a0pkql)" height="78.3828" id="ValetOperator" style="stroke:#A80036;stroke-width:1.5;" width="126" x="1024" y="74"/><text fill="#000000" font-family="sans-serif" font-size="12" lengthAdjust="spacing" textLength="85" x="1027" y="90.1387">ValetOperator</text><rect fill="#FFFFFF" height="15.9688" style="stroke:#000000;stroke-width:1.0;stroke-dasharray:2.0,2.0;" width="33" x="1120" y="71"/><text fill="#000000" font-family="sans-serif" font-size="12" font-style="italic" lengthAdjust="spacing" textLength="31" x="1121" y="83.1387">actor</text><line style="stroke:#A80036;stroke-width:1.5;" x1="1025" x2="1149" y1="97.9688" y2="97.9688"/><text fill="#000000" font-family="sans-serif" font-size="11" lengthAdjust="spacing" textLength="52" x="1030" y="112.1792">company</text><text fill="#000000" font-family="sans-serif" font-size="11" lengthAdjust="spacing" textLength="27" x="1030" y="124.9839">login</text><text fill="#000000" font-family="sans-serif" font-size="11" lengthAdjust="spacing" textLength="83" x="1030" y="137.7886">valetCompany</text><line style="stroke:#A80036;stroke-width:1.5;" x1="1025" x2="1149" y1="144.3828" y2="144.3828"/><!--MD5=[0ca4b2ceda985f59277321abdbab5632]
class ValetHead--><rect codeLine="123" fill="#FEFECE" filter="url(#f1t3uia4a0pkql)" height="39.9688" id="ValetHead" style="stroke:#A80036;stroke-width:1.5;" width="103" x="601.5" y="93"/><text fill="#000000" font-family="sans-serif" font-size="12" lengthAdjust="spacing" textLength="62" x="604.5" y="109.1387">ValetHead</text><rect fill="#FFFFFF" height="15.9688" style="stroke:#000000;stroke-width:1.0;stroke-dasharray:2.0,2.0;" width="33" x="674.5" y="90"/><text fill="#000000" font-family="sans-serif" font-size="12" font-style="italic" lengthAdjust="spacing" textLength="31" x="675.5" y="102.1387">actor</text><line style="stroke:#A80036;stroke-width:1.5;" x1="602.5" x2="703.5" y1="116.9688" y2="116.9688"/><line style="stroke:#A80036;stroke-width:1.5;" x1="602.5" x2="703.5" y1="124.9688" y2="124.9688"/><!--MD5=[3fd616f346a44cd59a91eb10b19e157c]
class User--><rect codeLine="91" fill="#FEFECE" filter="url(#f1t3uia4a0pkql)" height="65.5781" id="User" style="stroke:#A80036;stroke-width:1.5;" width="70" x="1713" y="80"/><text fill="#000000" font-family="sans-serif" font-size="12" lengthAdjust="spacing" textLength="29" x="1716" y="96.1387">User</text><rect fill="#FFFFFF" height="15.9688" style="stroke:#000000;stroke-width:1.0;stroke-dasharray:2.0,2.0;" width="33" x="1753" y="77"/><text fill="#000000" font-family="sans-serif" font-size="12" font-style="italic" lengthAdjust="spacing" textLength="31" x="1754" y="89.1387">actor</text><line style="stroke:#A80036;stroke-width:1.5;" x1="1714" x2="1782" y1="103.9688" y2="103.9688"/><line style="stroke:#A80036;stroke-width:1.5;" x1="1714" x2="1782" y1="111.9688" y2="111.9688"/><text fill="#000000" font-family="sans-serif" font-size="11" lengthAdjust="spacing" textLength="52" x="1719" y="126.1792">register()</text><text fill="#000000" font-family="sans-serif" font-size="11" lengthAdjust="spacing" textLength="49" x="1719" y="138.9839">include()</text><!--MD5=[4561320b770465f913c77565ad1b4c2d]
class Valet--><rect codeLine="28" fill="#FEFECE" filter="url(#f1t3uia4a0pkql)" height="39.9688" id="Valet" style="stroke:#A80036;stroke-width:1.5;" width="36" x="521" y="93"/><text fill="#000000" font-family="sans-serif" font-size="12" lengthAdjust="spacing" textLength="30" x="524" y="109.1387">Valet</text><line style="stroke:#A80036;stroke-width:1.5;" x1="522" x2="556" y1="116.9688" y2="116.9688"/><line style="stroke:#A80036;stroke-width:1.5;" x1="522" x2="556" y1="124.9688" y2="124.9688"/><!--MD5=[4741ae9b66e8c8909830097dcbdef570]
class Head--><rect codeLine="30" fill="#FEFECE" filter="url(#f1t3uia4a0pkql)" height="65.5781" id="Head" style="stroke:#A80036;stroke-width:1.5;" width="54" x="603" y="325"/><text fill="#000000" font-family="sans-serif" font-size="12" lengthAdjust="spacing" textLength="32" x="614" y="341.1387">Head</text><line style="stroke:#A80036;stroke-width:1.5;" x1="604" x2="656" y1="348.9688" y2="348.9688"/><line style="stroke:#A80036;stroke-width:1.5;" x1="604" x2="656" y1="356.9688" y2="356.9688"/><text fill="#000000" font-family="sans-serif" font-size="11" lengthAdjust="spacing" textLength="42" x="609" y="371.1792">adjust()</text><text fill="#000000" font-family="sans-serif" font-size="11" lengthAdjust="spacing" textLength="26" x="609" y="383.9839">set()</text><!--MD5=[a40a7ac4b423335b0d34bf16cf36e547]
class Price--><rect codeLine="34" fill="#FEFECE" filter="url(#f1t3uia4a0pkql)" height="39.9688" id="Price" style="stroke:#A80036;stroke-width:1.5;" width="35" x="557.5" y="506.5"/><text fill="#000000" font-family="sans-serif" font-size="12" lengthAdjust="spacing" textLength="29" x="560.5" y="522.6387">Price</text><line style="stroke:#A80036;stroke-width:1.5;" x1="558.5" x2="591.5" y1="530.4688" y2="530.4688"/><line style="stroke:#A80036;stroke-width:1.5;" x1="558.5" x2="591.5" y1="538.4688" y2="538.4688"/><!--MD5=[361e73a814e28ed043957a958c9da4ce]
class Operator--><rect codeLine="36" fill="#FEFECE" filter="url(#f1t3uia4a0pkql)" height="129.6016" id="Operator" style="stroke:#A80036;stroke-width:1.5;" width="66" x="1054" y="293"/><text fill="#000000" font-family="sans-serif" font-size="12" lengthAdjust="spacing" textLength="55" x="1059.5" y="309.1387">Operator</text><line style="stroke:#A80036;stroke-width:1.5;" x1="1055" x2="1119" y1="316.9688" y2="316.9688"/><line style="stroke:#A80036;stroke-width:1.5;" x1="1055" x2="1119" y1="324.9688" y2="324.9688"/><text fill="#000000" font-family="sans-serif" font-size="11" lengthAdjust="spacing" textLength="52" x="1060" y="339.1792">receive()</text><text fill="#000000" font-family="sans-serif" font-size="11" lengthAdjust="spacing" textLength="36" x="1060" y="351.9839">send()</text><text fill="#000000" font-family="sans-serif" font-size="11" lengthAdjust="spacing" textLength="54" x="1060" y="364.7886">retrieve()</text><text fill="#000000" font-family="sans-serif" font-size="11" lengthAdjust="spacing" textLength="30" x="1060" y="377.5933">see()</text><text fill="#000000" font-family="sans-serif" font-size="11" lengthAdjust="spacing" textLength="37" x="1060" y="390.3979">have()</text><text fill="#000000" font-family="sans-serif" font-size="11" lengthAdjust="spacing" textLength="29" x="1060" y="403.2026">add()</text><text fill="#000000" font-family="sans-serif" font-size="11" lengthAdjust="spacing" textLength="37" x="1060" y="416.0073">know()</text><!--MD5=[02e4b9b7573f1156f41e60aa5b4e25a4]
class Company--><rect codeLine="45" fill="#FEFECE" filter="url(#f1t3uia4a0pkql)" height="91.1875" id="Company" style="stroke:#A80036;stroke-width:1.5;" width="64" x="332" y="312.5"/><text fill="#000000" font-family="sans-serif" font-size="12" lengthAdjust="spacing" textLength="56" x="336" y="328.6387">Company</text><line style="stroke:#A80036;stroke-width:1.5;" x1="333" x2="395" y1="336.4688" y2="336.4688"/><line style="stroke:#A80036;stroke-width:1.5;" x1="333" x2="395" y1="344.4688" y2="344.4688"/><text fill="#000000" font-family="sans-serif" font-size="11" lengthAdjust="spacing" textLength="35" x="338" y="358.6792">offer()</text><text fill="#000000" font-family="sans-serif" font-size="11" lengthAdjust="spacing" textLength="46" x="338" y="371.4839">accept()</text><text fill="#000000" font-family="sans-serif" font-size="11" lengthAdjust="spacing" textLength="52" x="338" y="384.2886">receive()</text><text fill="#000000" font-family="sans-serif" font-size="11" lengthAdjust="spacing" textLength="46" x="338" y="397.0933">control()</text><!--MD5=[412b3778b858f78f2b600242c4382785]
class Revenue--><rect codeLine="51" fill="#FEFECE" filter="url(#f1t3uia4a0pkql)" height="39.9688" id="Revenue" style="stroke:#A80036;stroke-width:1.5;" width="58" x="335" y="506.5"/><text fill="#000000" font-family="sans-serif" font-size="12" lengthAdjust="spacing" textLength="52" x="338" y="522.6387">Revenue</text><line style="stroke:#A80036;stroke-width:1.5;" x1="336" x2="392" y1="530.4688" y2="530.4688"/><line style="stroke:#A80036;stroke-width:1.5;" x1="336" x2="392" y1="538.4688" y2="538.4688"/><!--MD5=[5b90e4d4f77308a929aa4d17d3ae3119]
class Login--><rect codeLine="63" fill="#FEFECE" filter="url(#f1t3uia4a0pkql)" height="39.9688" id="Login" style="stroke:#A80036;stroke-width:1.5;" width="38" x="1199" y="506.5"/><text fill="#000000" font-family="sans-serif" font-size="12" lengthAdjust="spacing" textLength="32" x="1202" y="522.6387">Login</text><line style="stroke:#A80036;stroke-width:1.5;" x1="1200" x2="1236" y1="530.4688" y2="530.4688"/><line style="stroke:#A80036;stroke-width:1.5;" x1="1200" x2="1236" y1="538.4688" y2="538.4688"/><!--MD5=[463c12544fc85af6f1e0c051447fcb90]
class Tracking--><rect codeLine="65" fill="#FEFECE" filter="url(#f1t3uia4a0pkql)" height="39.9688" id="Tracking" style="stroke:#A80036;stroke-width:1.5;" width="57" x="1170.5" y="630"/><text fill="#000000" font-family="sans-serif" font-size="12" lengthAdjust="spacing" textLength="51" x="1173.5" y="646.1387">Tracking</text><line style="stroke:#A80036;stroke-width:1.5;" x1="1171.5" x2="1226.5" y1="653.9688" y2="653.9688"/><line style="stroke:#A80036;stroke-width:1.5;" x1="1171.5" x2="1226.5" y1="661.9688" y2="661.9688"/><!--MD5=[af9e408bdcf0d5ece4190971d4f838fe]
class Timerequest--><rect codeLine="67" fill="#FEFECE" filter="url(#f1t3uia4a0pkql)" height="39.9688" id="Timerequest" style="stroke:#A80036;stroke-width:1.5;" width="82" x="1001" y="506.5"/><text fill="#000000" font-family="sans-serif" font-size="12" lengthAdjust="spacing" textLength="76" x="1004" y="522.6387">Timerequest</text><line style="stroke:#A80036;stroke-width:1.5;" x1="1002" x2="1082" y1="530.4688" y2="530.4688"/><line style="stroke:#A80036;stroke-width:1.5;" x1="1002" x2="1082" y1="538.4688" y2="538.4688"/><!--MD5=[15b0de36700cf8bf422172734e699e19]
class Queue--><rect codeLine="69" fill="#FEFECE" filter="url(#f1t3uia4a0pkql)" height="39.9688" id="Queue" style="stroke:#A80036;stroke-width:1.5;" width="46" x="1118" y="506.5"/><text fill="#000000" font-family="sans-serif" font-size="12" lengthAdjust="spacing" textLength="40" x="1121" y="522.6387">Queue</text><line style="stroke:#A80036;stroke-width:1.5;" x1="1119" x2="1163" y1="530.4688" y2="530.4688"/><line style="stroke:#A80036;stroke-width:1.5;" x1="1119" x2="1163" y1="538.4688" y2="538.4688"/><!--MD5=[b2bc021cc86aa2558e9589819995bf4e]
class Pricing--><rect codeLine="71" fill="#FEFECE" filter="url(#f1t3uia4a0pkql)" height="39.9688" id="Pricing" style="stroke:#A80036;stroke-width:1.5;" width="45" x="627.5" y="506.5"/><text fill="#000000" font-family="sans-serif" font-size="12" lengthAdjust="spacing" textLength="39" x="630.5" y="522.6387">Pricing</text><line style="stroke:#A80036;stroke-width:1.5;" x1="628.5" x2="671.5" y1="530.4688" y2="530.4688"/><line style="stroke:#A80036;stroke-width:1.5;" x1="628.5" x2="671.5" y1="538.4688" y2="538.4688"/><!--MD5=[f4611e6df6d2aade4810cb7bdec70d80]
class TicketNumber--><rect codeLine="79" fill="#FEFECE" filter="url(#f1t3uia4a0pkql)" height="39.9688" id="TicketNumber" style="stroke:#A80036;stroke-width:1.5;" width="89" x="1612.5" y="506.5"/><text fill="#000000" font-family="sans-serif" font-size="12" lengthAdjust="spacing" textLength="83" x="1615.5" y="522.6387">TicketNumber</text><line style="stroke:#A80036;stroke-width:1.5;" x1="1613.5" x2="1700.5" y1="530.4688" y2="530.4688"/><line style="stroke:#A80036;stroke-width:1.5;" x1="1613.5" x2="1700.5" y1="538.4688" y2="538.4688"/><!--MD5=[7421f545a0d8420c5bec41e74b387d9c]
class Employee--><rect codeLine="81" fill="#FEFECE" filter="url(#f1t3uia4a0pkql)" height="52.7734" id="Employee" style="stroke:#A80036;stroke-width:1.5;" width="66" x="900" y="500"/><text fill="#000000" font-family="sans-serif" font-size="12" lengthAdjust="spacing" textLength="60" x="903" y="516.1387">Employee</text><line style="stroke:#A80036;stroke-width:1.5;" x1="901" x2="965" y1="523.9688" y2="523.9688"/><line style="stroke:#A80036;stroke-width:1.5;" x1="901" x2="965" y1="531.9688" y2="531.9688"/><text fill="#000000" font-family="sans-serif" font-size="11" lengthAdjust="spacing" textLength="34" x="906" y="546.1792">work()</text><!--MD5=[85a48d552a1a8dd6c69f3e78129b3556]
class Paymentoption--><rect codeLine="84" fill="#FEFECE" filter="url(#f1t3uia4a0pkql)" height="39.9688" id="Paymentoption" style="stroke:#A80036;stroke-width:1.5;" width="94" x="428" y="506.5"/><text fill="#000000" font-family="sans-serif" font-size="12" lengthAdjust="spacing" textLength="88" x="431" y="522.6387">Paymentoption</text><line style="stroke:#A80036;stroke-width:1.5;" x1="429" x2="521" y1="530.4688" y2="530.4688"/><line style="stroke:#A80036;stroke-width:1.5;" x1="429" x2="521" y1="538.4688" y2="538.4688"/><!--MD5=[7b57f7066b803747d2119f99dd1555d4]
class Profile--><rect codeLine="86" fill="#FEFECE" filter="url(#f1t3uia4a0pkql)" height="39.9688" id="Profile" style="stroke:#A80036;stroke-width:1.5;" width="43" x="77.5" y="338"/><text fill="#000000" font-family="sans-serif" font-size="12" lengthAdjust="spacing" textLength="37" x="80.5" y="354.1387">Profile</text><line style="stroke:#A80036;stroke-width:1.5;" x1="78.5" x2="119.5" y1="361.9688" y2="361.9688"/><line style="stroke:#A80036;stroke-width:1.5;" x1="78.5" x2="119.5" y1="369.9688" y2="369.9688"/><!--MD5=[4f1f3706c1a355a8488e154afcaed5df]
class Location--><rect codeLine="88" fill="#FEFECE" filter="url(#f1t3uia4a0pkql)" height="52.7734" id="Location" style="stroke:#A80036;stroke-width:1.5;" width="62" x="1818" y="86.5"/><text fill="#000000" font-family="sans-serif" font-size="12" lengthAdjust="spacing" textLength="50" x="1824" y="102.6387">Location</text><line style="stroke:#A80036;stroke-width:1.5;" x1="1819" x2="1879" y1="110.4688" y2="110.4688"/><line style="stroke:#A80036;stroke-width:1.5;" x1="1819" x2="1879" y1="118.4688" y2="118.4688"/><text fill="#000000" font-family="sans-serif" font-size="11" lengthAdjust="spacing" textLength="50" x="1824" y="132.6792">service()</text><!--MD5=[30fd7b95ab383a5e7c83ea23d4ea0fbf]
class Information--><rect codeLine="95" fill="#FEFECE" filter="url(#f1t3uia4a0pkql)" height="39.9688" id="Information" style="stroke:#A80036;stroke-width:1.5;" width="73" x="1711.5" y="338"/><text fill="#000000" font-family="sans-serif" font-size="12" lengthAdjust="spacing" textLength="67" x="1714.5" y="354.1387">Information</text><line style="stroke:#A80036;stroke-width:1.5;" x1="1712.5" x2="1783.5" y1="361.9688" y2="361.9688"/><line style="stroke:#A80036;stroke-width:1.5;" x1="1712.5" x2="1783.5" y1="369.9688" y2="369.9688"/><!--MD5=[3f0ef310aaa84a542276992c5216544d]
class Car--><rect codeLine="97" fill="#FEFECE" filter="url(#f1t3uia4a0pkql)" height="39.9688" id="Car" style="stroke:#A80036;stroke-width:1.5;" width="26" x="1538" y="506.5"/><text fill="#000000" font-family="sans-serif" font-size="12" lengthAdjust="spacing" textLength="20" x="1541" y="522.6387">Car</text><line style="stroke:#A80036;stroke-width:1.5;" x1="1539" x2="1563" y1="530.4688" y2="530.4688"/><line style="stroke:#A80036;stroke-width:1.5;" x1="1539" x2="1563" y1="538.4688" y2="538.4688"/><!--MD5=[764fca796ce7f635542948d8fc39db5e]
class Payment--><rect codeLine="99" fill="#FEFECE" filter="url(#f1t3uia4a0pkql)" height="39.9688" id="Payment" style="stroke:#A80036;stroke-width:1.5;" width="56" x="7" y="506.5"/><text fill="#000000" font-family="sans-serif" font-size="12" lengthAdjust="spacing" textLength="50" x="10" y="522.6387">Payment</text><line style="stroke:#A80036;stroke-width:1.5;" x1="8" x2="62" y1="530.4688" y2="530.4688"/><line style="stroke:#A80036;stroke-width:1.5;" x1="8" x2="62" y1="538.4688" y2="538.4688"/><!--MD5=[3aa0d89c6bfdcbf7f32042cedac57549]
class Vehicle--><rect codeLine="101" fill="#FEFECE" filter="url(#f1t3uia4a0pkql)" height="39.9688" id="Vehicle" style="stroke:#A80036;stroke-width:1.5;" width="50" x="157" y="338"/><text fill="#000000" font-family="sans-serif" font-size="12" lengthAdjust="spacing" textLength="44" x="160" y="354.1387">Vehicle</text><line style="stroke:#A80036;stroke-width:1.5;" x1="158" x2="206" y1="361.9688" y2="361.9688"/><line style="stroke:#A80036;stroke-width:1.5;" x1="158" x2="206" y1="369.9688" y2="369.9688"/><!--MD5=[d5951f7e11aa4ff97efa9f893f527885]
class TrackTransaction--><rect codeLine="107" fill="#FEFECE" filter="url(#f1t3uia4a0pkql)" height="39.9688" id="TrackTransaction" style="stroke:#A80036;stroke-width:1.5;" width="108" x="1368" y="506.5"/><text fill="#000000" font-family="sans-serif" font-size="12" lengthAdjust="spacing" textLength="102" x="1371" y="522.6387">TrackTransaction</text><line style="stroke:#A80036;stroke-width:1.5;" x1="1369" x2="1475" y1="530.4688" y2="530.4688"/><line style="stroke:#A80036;stroke-width:1.5;" x1="1369" x2="1475" y1="538.4688" y2="538.4688"/><!--MD5=[3a4c166a60d6787da203754482b8bd14]
class EmailTransactionSummaryReport--><rect codeLine="109" fill="#FEFECE" filter="url(#f1t3uia4a0pkql)" height="39.9688" id="EmailTransactionSummaryReport" style="stroke:#A80036;stroke-width:1.5;" width="202" x="98" y="506.5"/><text fill="#000000" font-family="sans-serif" font-size="12" lengthAdjust="spacing" textLength="196" x="101" y="522.6387">EmailTransactionSummaryReport</text><line style="stroke:#A80036;stroke-width:1.5;" x1="99" x2="299" y1="530.4688" y2="530.4688"/><line style="stroke:#A80036;stroke-width:1.5;" x1="99" x2="299" y1="538.4688" y2="538.4688"/><!--MD5=[76b5e19c9337179d2d7ae334371d68c8]
class Notification--><rect codeLine="111" fill="#FEFECE" filter="url(#f1t3uia4a0pkql)" height="39.9688" id="Notification" style="stroke:#A80036;stroke-width:1.5;" width="72" x="708" y="506.5"/><text fill="#000000" font-family="sans-serif" font-size="12" lengthAdjust="spacing" textLength="66" x="711" y="522.6387">Notification</text><line style="stroke:#A80036;stroke-width:1.5;" x1="709" x2="779" y1="530.4688" y2="530.4688"/><line style="stroke:#A80036;stroke-width:1.5;" x1="709" x2="779" y1="538.4688" y2="538.4688"/><!--MD5=[69d1fc2307767191063ae5624aae7618]
class Manner--><rect codeLine="113" fill="#FEFECE" filter="url(#f1t3uia4a0pkql)" height="39.9688" id="Manner" style="stroke:#A80036;stroke-width:1.5;" width="50" x="815" y="506.5"/><text fill="#000000" font-family="sans-serif" font-size="12" lengthAdjust="spacing" textLength="44" x="818" y="522.6387">Manner</text><line style="stroke:#A80036;stroke-width:1.5;" x1="816" x2="864" y1="530.4688" y2="530.4688"/><line style="stroke:#A80036;stroke-width:1.5;" x1="816" x2="864" y1="538.4688" y2="538.4688"/><!--MD5=[96a16f046dcf5a9f7fab5dd2542af37b]
class Advertisement--><rect codeLine="115" fill="#FEFECE" filter="url(#f1t3uia4a0pkql)" height="39.9688" id="Advertisement" style="stroke:#A80036;stroke-width:1.5;" width="94" x="1432" y="338"/><text fill="#000000" font-family="sans-serif" font-size="12" lengthAdjust="spacing" textLength="88" x="1435" y="354.1387">Advertisement</text><line style="stroke:#A80036;stroke-width:1.5;" x1="1433" x2="1525" y1="361.9688" y2="361.9688"/><line style="stroke:#A80036;stroke-width:1.5;" x1="1433" x2="1525" y1="369.9688" y2="369.9688"/><!--MD5=[b07065dfc0d0e09965ec10bfc328bb3e]
class Option--><rect codeLine="117" fill="#FEFECE" filter="url(#f1t3uia4a0pkql)" height="39.9688" id="Option" style="stroke:#A80036;stroke-width:1.5;" width="46" x="251" y="338"/><text fill="#000000" font-family="sans-serif" font-size="12" lengthAdjust="spacing" textLength="40" x="254" y="354.1387">Option</text><line style="stroke:#A80036;stroke-width:1.5;" x1="252" x2="296" y1="361.9688" y2="361.9688"/><line style="stroke:#A80036;stroke-width:1.5;" x1="252" x2="296" y1="369.9688" y2="369.9688"/><!--MD5=[a37a002835bf108b4fe7f3913ff1f5c9]
link Operator to Manner--><path codeLine="125" d="M1053.8,376.652 C1020.97,394.556 969.747,423.728 928,453 C905.85,468.531 882.27,488.142 865.1,503.05 " fill="none" id="Operator-to-Manner" style="stroke:#A80036;stroke-width:1.0;"/><polygon fill="#A80036" points="861.317,506.348,870.7294,503.4485,865.0857,503.0622,865.472,497.4185,861.317,506.348" style="stroke:#A80036;stroke-width:1.0;"/><text fill="#000000" font-family="sans-serif" font-size="13" lengthAdjust="spacing" textLength="50" x="929" y="466.0669">retrieve</text><!--MD5=[25f7efeb2d781a64d3ac021c8d38ca88]
link Head to Price--><path codeLine="126" d="M619.395,391.103 C608.713,423.44 592.478,472.588 582.885,501.63 " fill="none" id="Head-to-Price" style="stroke:#A80036;stroke-width:1.0;"/><polygon fill="#A80036" points="581.289,506.461,587.9087,499.1686,582.8564,501.713,580.312,496.6607,581.289,506.461" style="stroke:#A80036;stroke-width:1.0;"/><text fill="#000000" font-family="sans-serif" font-size="13" lengthAdjust="spacing" textLength="20" x="599" y="466.0669">set</text><!--MD5=[a9d47b1159bdba106b48e40d38526ca1]
link Establishment to Advertisement--><path codeLine="127" d="M1575.37,146.018 C1552.77,195.508 1509.86,289.444 1489.82,333.316 " fill="none" id="Establishment-to-Advertisement" style="stroke:#A80036;stroke-width:1.0;"/><polygon fill="#A80036" points="1487.72,337.908,1495.1002,331.3863,1489.7991,333.3608,1487.8247,328.0597,1487.72,337.908" style="stroke:#A80036;stroke-width:1.0;"/><text fill="#000000" font-family="sans-serif" font-size="13" lengthAdjust="spacing" textLength="31" x="1529" y="259.0669">send</text><!--MD5=[68143c8674b44c2b182313e24ee09193]
link Operator to Login--><path codeLine="128" d="M1120.01,388.34 C1138.68,405.953 1161.68,429.453 1179,453 C1190.18,468.207 1200.21,487.019 1207.29,501.67 " fill="none" id="Operator-to-Login" style="stroke:#A80036;stroke-width:1.0;"/><polygon fill="#A80036" points="1209.58,506.467,1209.3189,496.6216,1207.4289,501.9534,1202.0971,500.0634,1209.58,506.467" style="stroke:#A80036;stroke-width:1.0;"/><text fill="#000000" font-family="sans-serif" font-size="13" lengthAdjust="spacing" textLength="32" x="1192" y="466.0669">have</text><!--MD5=[9d661380b54d9bff4ee137bc0bb1b8a2]
link User to Information--><path codeLine="129" d="M1748,146.018 C1748,195.307 1748,288.684 1748,332.781 " fill="none" id="User-to-Information" style="stroke:#A80036;stroke-width:1.0;"/><polygon fill="#A80036" points="1748,337.908,1752,328.908,1748,332.908,1744,328.908,1748,337.908" style="stroke:#A80036;stroke-width:1.0;"/><text fill="#000000" font-family="sans-serif" font-size="13" lengthAdjust="spacing" textLength="45" x="1749" y="259.0669">include</text><!--MD5=[5afc573c6f07a2822577eb54daeba940]
link Driver to Option--><path codeLine="130" d="M223.532,216.156 C227.467,226.217 231.348,236.292 235,246 C246.167,275.681 258.134,310.188 265.823,332.75 " fill="none" id="Driver-to-Option" style="stroke:#A80036;stroke-width:1.0;"/><polygon fill="#A80036" points="267.492,337.657,268.3804,327.8483,265.8817,332.9234,260.8066,330.4247,267.492,337.657" style="stroke:#A80036;stroke-width:1.0;"/><text fill="#000000" font-family="sans-serif" font-size="13" lengthAdjust="spacing" textLength="32" x="242" y="259.0669">have</text><!--MD5=[7eb03ee46f32edd704c25c7ed127995e]
reverse link Valet to Operator--><path codeLine="131" d="M545.433,145.823 C551.615,168.466 563.194,197.96 584,216 C725.499,338.686 966.007,355.189 1053.73,356.984 " fill="none" id="Valet-backto-Operator" style="stroke:#A80036;stroke-width:1.0;"/><polygon fill="#FFFFFF" points="542.318,133.097,539.8596,139.8761,545.1716,144.7528,547.6301,137.9737,542.318,133.097" style="stroke:#A80036;stroke-width:1.0;"/><!--MD5=[4dd6f95a698bbaf7e779ce12080b349b]
link Operator to Tracking--><path codeLine="132" d="M1120.24,373.449 C1152.71,389.007 1201.68,416.519 1233,453 C1247.9,470.358 1249.23,477.624 1254,500 C1258.91,523.038 1260.06,530.237 1254,553 C1246.89,579.6944 1230.42,606.6926 1217.34,625.2291 " fill="none" id="Operator-to-Tracking" style="stroke:#A80036;stroke-width:1.0;"/><polygon fill="#A80036" points="1214.09,629.7541,1222.5804,624.7627,1216.9997,625.6879,1216.0745,620.1072,1214.09,629.7541" style="stroke:#A80036;stroke-width:1.0;"/><text fill="#000000" font-family="sans-serif" font-size="13" lengthAdjust="spacing" textLength="24" x="1260" y="531.0669">add</text><!--MD5=[91468a9cb65a68e81b5f9f818b222d87]
reverse link Customer to Car--><path codeLine="133" d="M1585.76,429.046 C1575.65,457.106 1564.79,487.219 1557.96,506.194 " fill="none" id="Customer-backto-Car" style="stroke:#A80036;stroke-width:1.0;"/><polygon fill="#FFFFFF" points="1590.18,416.766,1584.3826,421.0544,1586.1114,428.0552,1591.9088,423.7668,1590.18,416.766" style="stroke:#A80036;stroke-width:1.0;"/><text fill="#000000" font-family="sans-serif" font-size="13" lengthAdjust="spacing" textLength="49" x="1577" y="466.0669">request</text><!--MD5=[c87e342087429febcf1f79b1dca2f524]
reverse link ValetCompany to Company--><path codeLine="134" d="M364,166.037 C364,209.483 364,270.772 364,312.097 " fill="none" id="ValetCompany-backto-Company" style="stroke:#A80036;stroke-width:1.0;"/><polygon fill="none" points="357,166.018,364,146.018,371,166.018,357,166.018" style="stroke:#A80036;stroke-width:1.0;"/><!--MD5=[ebecae2eb2c95fba78d24fb63582cf7e]
link Operator to Timerequest--><path codeLine="135" d="M1053.89,413.234 C1047.74,425.856 1042.24,439.549 1039,453 C1035.2,468.817 1035.99,487.126 1037.72,501.387 " fill="none" id="Operator-to-Timerequest" style="stroke:#A80036;stroke-width:1.0;"/><polygon fill="#A80036" points="1038.39,506.446,1041.1726,496.9984,1037.7329,501.4894,1033.242,498.0497,1038.39,506.446" style="stroke:#A80036;stroke-width:1.0;"/><text fill="#000000" font-family="sans-serif" font-size="13" lengthAdjust="spacing" textLength="47" x="1040" y="466.0669">receive</text><!--MD5=[a22dae885a37bde1255b11ba08eea568]
link Company to Payment--><path codeLine="136" d="M334.965,403.772 C328.739,410.967 321.69,417.76 314,423 C275.303,449.37 257.535,438.527 213,453 C153.376,472.376 137.048,474.001 80,500 C75.9196,501.86 71.7187,503.964 67.5997,506.147 " fill="none" id="Company-to-Payment" style="stroke:#A80036;stroke-width:1.0;"/><polygon fill="#A80036" points="63.1719,508.539,72.9915,507.7805,67.571,506.1624,69.189,500.7419,63.1719,508.539" style="stroke:#A80036;stroke-width:1.0;"/><text fill="#000000" font-family="sans-serif" font-size="13" lengthAdjust="spacing" textLength="43" x="214" y="466.0669">accept</text><!--MD5=[d0a2b48edbe4584ceec2f42455227ca4]
reverse link Valet to Price--><path codeLine="137" d="M541.799,145.994 C548.925,227.454 567.595,440.86 573.312,506.205 " fill="none" id="Valet-backto-Price" style="stroke:#A80036;stroke-width:1.0;"/><polygon fill="#FFFFFF" points="540.664,133.022,537.2021,139.3478,541.7098,144.9763,545.1717,138.6506,540.664,133.022" style="stroke:#A80036;stroke-width:1.0;"/><!--MD5=[0afdb51223e362fa40632eb16cb72bfc]
reverse link ValetOperator to Operator--><path codeLine="138" d="M1087,172.3 C1087,208.689 1087,255.56 1087,292.98 " fill="none" id="ValetOperator-backto-Operator" style="stroke:#A80036;stroke-width:1.0;"/><polygon fill="none" points="1080,172.236,1087,152.236,1094,172.236,1080,172.236" style="stroke:#A80036;stroke-width:1.0;"/><!--MD5=[76fbc3ea18435f082e19af7d4693e5a5]
link Operator to Queue--><path codeLine="139" d="M1107.88,423.373 C1116.74,450.706 1126.54,480.905 1133.16,501.323 " fill="none" id="Operator-to-Queue" style="stroke:#A80036;stroke-width:1.0;"/><polygon fill="#A80036" points="1134.77,506.296,1135.7983,496.501,1133.2275,501.5399,1128.1886,498.969,1134.77,506.296" style="stroke:#A80036;stroke-width:1.0;"/><text fill="#000000" font-family="sans-serif" font-size="13" lengthAdjust="spacing" textLength="47" x="1123" y="466.0669">receive</text><!--MD5=[fcc849c3111f25ca031dc3f52f17d143]
reverse link Driver to Vehicle--><path codeLine="140" d="M178.853,229.468 C178.791,240.799 178.826,252.122 179,263 C179.414,288.958 180.471,318.932 181.213,337.921 " fill="none" id="Driver-backto-Vehicle" style="stroke:#A80036;stroke-width:1.0;"/><polygon fill="#FFFFFF" points="178.967,216.191,174.9151,222.156,178.8628,228.1905,182.9148,222.2255,178.967,216.191" style="stroke:#A80036;stroke-width:1.0;"/><text fill="#000000" font-family="sans-serif" font-size="13" lengthAdjust="spacing" textLength="50" x="180" y="259.0669">retrieve</text><!--MD5=[ec413772314c2f61f401b79c00cea64c]
reverse link Valet to Head--><path codeLine="141" d="M550.171,145.603 C560.922,175.827 577.748,222.644 593,263 C600.812,283.671 609.898,306.765 617.11,324.89 " fill="none" id="Valet-backto-Head" style="stroke:#A80036;stroke-width:1.0;"/><polygon fill="#FFFFFF" points="545.823,133.35,544.0604,140.3424,549.837,144.6588,551.5996,137.6664,545.823,133.35" style="stroke:#A80036;stroke-width:1.0;"/><!--MD5=[7433a5b5397b198047d3f0959d7c84d5]
link Head to Pricing--><path codeLine="142" d="M633.856,391.103 C637.725,423.307 643.595,472.182 647.089,501.269 " fill="none" id="Head-to-Pricing" style="stroke:#A80036;stroke-width:1.0;"/><polygon fill="#A80036" points="647.713,506.461,650.6095,497.0477,647.1159,501.4968,642.6668,498.0031,647.713,506.461" style="stroke:#A80036;stroke-width:1.0;"/><text fill="#000000" font-family="sans-serif" font-size="13" lengthAdjust="spacing" textLength="39" x="644" y="466.0669">adjust</text><!--MD5=[5c9e44d571527ecacf9fb636cda97123]
link Employee to Tracking--><path codeLine="143" d="M966.227,544.758 C971.802,547.563 977.547,550.4 983,553 C1047.02,583.5263 1123.05,616.5925 1165.7,634.8542 " fill="none" id="Employee-to-Tracking" style="stroke:#A80036;stroke-width:1.0;"/><polygon fill="#A80036" points="1170.47,636.8986,1163.7751,629.6752,1165.8747,634.9279,1160.622,637.0276,1170.47,636.8986" style="stroke:#A80036;stroke-width:1.0;"/><text fill="#000000" font-family="sans-serif" font-size="13" lengthAdjust="spacing" textLength="31" x="1085" y="596.0669">work</text><!--MD5=[9a719b375275fe1ba23a99919725fdb0]
reverse link ValetHead to Head--><path codeLine="144" d="M649.304,153.045 C644.79,200.739 637.238,280.527 633.043,324.849 " fill="none" id="ValetHead-backto-Head" style="stroke:#A80036;stroke-width:1.0;"/><polygon fill="none" points="642.342,152.319,651.195,133.068,656.279,153.638,642.342,152.319" style="stroke:#A80036;stroke-width:1.0;"/><!--MD5=[9eeca97bb41e62c49d44c7113973f28c]
link Establishment to Customer--><path codeLine="145" d="M1592.77,146.018 C1596.01,183.57 1601.47,246.714 1605.57,294.157 " fill="none" id="Establishment-to-Customer" style="stroke:#A80036;stroke-width:1.0;"/><polygon fill="#A80036" points="1606.01,299.279,1609.2196,289.9678,1605.5791,294.2976,1601.2493,290.6572,1606.01,299.279" style="stroke:#A80036;stroke-width:1.0;"/><text fill="#000000" font-family="sans-serif" font-size="13" lengthAdjust="spacing" textLength="43" x="1604" y="259.0669">attract</text><!--MD5=[d064333d319f8af430cac4a31a83a1cc]
link Operator to TrackTransaction--><path codeLine="146" d="M1120.33,368.042 C1169.08,382.067 1261.76,411.803 1333,453 C1357.06,466.913 1381.32,487.181 1398.42,502.753 " fill="none" id="Operator-to-TrackTransaction" style="stroke:#A80036;stroke-width:1.0;"/><polygon fill="#A80036" points="1402.17,506.201,1398.2533,497.1645,1398.4897,502.8164,1392.8378,503.0529,1402.17,506.201" style="stroke:#A80036;stroke-width:1.0;"/><text fill="#000000" font-family="sans-serif" font-size="13" lengthAdjust="spacing" textLength="24" x="1358" y="466.0669">add</text><!--MD5=[1d683157638a18ee2b9d4039c361597c]
reverse link Customer to TicketNumber--><path codeLine="147" d="M1630.46,429.423 C1638.18,457.375 1646.45,487.304 1651.67,506.194 " fill="none" id="Customer-backto-TicketNumber" style="stroke:#A80036;stroke-width:1.0;"/><polygon fill="#FFFFFF" points="1626.96,416.766,1624.703,423.6148,1630.1569,428.3323,1632.4139,421.4835,1626.96,416.766" style="stroke:#A80036;stroke-width:1.0;"/><text fill="#000000" font-family="sans-serif" font-size="13" lengthAdjust="spacing" textLength="34" x="1642" y="466.0669">enter</text><!--MD5=[4d4954937cfb9d324b1ac38a479365e6]
link Company to EmailTransactionSummaryReport--><path codeLine="148" d="M331.952,402.228 C326.187,409.351 320.074,416.519 314,423 C286.338,452.515 251.22,482.933 227.112,502.885 " fill="none" id="Company-to-EmailTransactionSummaryReport" style="stroke:#A80036;stroke-width:1.0;"/><polygon fill="#A80036" points="223.042,506.24,232.5307,503.6008,226.8998,503.0592,227.4414,497.4283,223.042,506.24" style="stroke:#A80036;stroke-width:1.0;"/><text fill="#000000" font-family="sans-serif" font-size="13" lengthAdjust="spacing" textLength="47" x="282" y="466.0669">receive</text><!--MD5=[8458b70687e0b28baa34464f5be564f2]
link Operator to Employee--><path codeLine="149" d="M1053.96,394.718 C1025.97,424.987 986.309,467.864 960.137,496.161 " fill="none" id="Operator-to-Employee" style="stroke:#A80036;stroke-width:1.0;"/><polygon fill="#A80036" points="956.695,499.881,965.7433,495.9916,960.0907,496.211,959.8713,490.5584,956.695,499.881" style="stroke:#A80036;stroke-width:1.0;"/><text fill="#000000" font-family="sans-serif" font-size="13" lengthAdjust="spacing" textLength="24" x="998" y="466.0669">add</text><!--MD5=[5490f5d771f20c8458eb9f3c66926015]
link Operator to Notification--><path codeLine="150" d="M1053.62,371.455 C1009.61,388.257 930.111,419.912 865,453 C834.582,468.458 801.433,488.565 777.535,503.682 " fill="none" id="Operator-to-Notification" style="stroke:#A80036;stroke-width:1.0;"/><polygon fill="#A80036" points="773.184,506.444,782.926,504.9972,777.4052,503.7642,778.6383,498.2433,773.184,506.444" style="stroke:#A80036;stroke-width:1.0;"/><text fill="#000000" font-family="sans-serif" font-size="13" lengthAdjust="spacing" textLength="31" x="866" y="466.0669">send</text><!--MD5=[24ad974575c8253a4f6fdf64e20723c9]
link Company to Paymentoption--><path codeLine="151" d="M393.746,403.619 C414.872,435.307 442.394,476.591 459.372,502.058 " fill="none" id="Company-to-Paymentoption" style="stroke:#A80036;stroke-width:1.0;"/><polygon fill="#A80036" points="462.209,506.314,460.5457,496.6066,459.4358,502.1535,453.8889,501.0437,462.209,506.314" style="stroke:#A80036;stroke-width:1.0;"/><text fill="#000000" font-family="sans-serif" font-size="13" lengthAdjust="spacing" textLength="31" x="437" y="466.0669">offer</text><!--MD5=[57d5e5d41a105820e96b6e6a68f4250f]
link Operator to Car--><path codeLine="152" d="M1120.3,367.818 C1176.72,383.087 1294.41,416.351 1391,453 C1443.83,473.046 1504,502.052 1533.21,516.548 " fill="none" id="Operator-to-Car" style="stroke:#A80036;stroke-width:1.0;"/><polygon fill="#A80036" points="1537.96,518.914,1531.6864,511.3218,1533.4842,516.6854,1528.1206,518.4831,1537.96,518.914" style="stroke:#A80036;stroke-width:1.0;"/><text fill="#000000" font-family="sans-serif" font-size="13" lengthAdjust="spacing" textLength="50" x="1433" y="466.0669">retrieve</text><!--MD5=[68e28332b85646298301d3fe122830fa]
reverse link Valet to Company--><path codeLine="153" d="M517.592,143.726 C487.224,185.895 431.408,263.4 396.079,312.457 " fill="none" id="Valet-backto-Company" style="stroke:#A80036;stroke-width:1.0;"/><polygon fill="#FFFFFF" points="525.268,133.068,518.5157,135.5991,518.255,142.8055,525.0073,140.2744,525.268,133.068" style="stroke:#A80036;stroke-width:1.0;"/><!--MD5=[f239d54e3a5687325e87c0d4d88888bb]
reverse link Driver to Profile--><path codeLine="154" d="M134.135,228.385 C131.989,234.316 129.93,240.212 128,246 C117.413,277.743 108.232,315.627 103.1713,337.921 " fill="none" id="Driver-backto-Profile" style="stroke:#A80036;stroke-width:1.0;"/><polygon fill="#FFFFFF" points="138.645,216.188,132.8125,220.4285,134.4836,227.4433,140.3161,223.2028,138.645,216.188" style="stroke:#A80036;stroke-width:1.0;"/><text fill="#000000" font-family="sans-serif" font-size="13" lengthAdjust="spacing" textLength="41" x="129" y="259.0669">create</text><!--MD5=[df83bc19c4ca8e3067eeb20db22dff41]
link Company to Revenue--><path codeLine="155" d="M364,403.619 C364,434.915 364,475.569 364,501.104 " fill="none" id="Company-to-Revenue" style="stroke:#A80036;stroke-width:1.0;"/><polygon fill="#A80036" points="364,506.314,368,497.314,364,501.314,360,497.314,364,506.314" style="stroke:#A80036;stroke-width:1.0;"/><text fill="#000000" font-family="sans-serif" font-size="13" lengthAdjust="spacing" textLength="44" x="365" y="466.0669">control</text><!--MD5=[4d8a3119748bc4f2bf7e83e1340a351b]
@startuml
hide circle
class Driver<actor> {
	vehicle
	creditcardinformation
	phone
	profile
	valetCompany
}
class ValetCompany<actor> {
	profile
	revenue
}
class Establishment<actor> {
}
class Customer<actor> {
	ticketNumber
	car
}
class ValetOperator<actor> {
	company
	login
	valetCompany
}
class ValetHead<actor> {
}
class User<actor> {
}
class Valet {
}
class Head {
	adjust()
	set()
}
class Price {
}
class Operator {
	receive()
	send()
	retrieve()
	see()
	have()
	add()
	know()
}
class Company {
	offer()
	accept()
	receive()
	control()
}
class Revenue {
}
class Driver {
	create()
	check()
	retrieve()
	pay()
	user()
	have()
	request()
	want()
}
class Login {
}
class Tracking {
}
class Timerequest {
}
class Queue {
}
class Pricing {
}
class Customer {
	have()
	request()
	enter()
	pay()
}
class TicketNumber {
}
class Employee {
	work()
}
class Paymentoption {
}
class Profile {
}
class Location {
	service()
}
class User {
	register()
	include()
}
class Information {
}
class Car {
}
class Payment {
}
class Vehicle {
}
class Establishment {
	attract()
	send()
}
class TrackTransaction {
}
class EmailTransactionSummaryReport {
}
class Notification {
}
class Manner {
}
class Advertisement {
}
class Option {
}
class ValetCompany {
}
class ValetOperator {
}
class ValetHead {
}
Operator - -> Manner : retrieve
Head - -> Price : set
Establishment - -> Advertisement : send
Operator - -> Login : have
User - -> Information : include
Driver - -> Option : have
Valet o- - Operator
Operator - -> Tracking : add
Customer o- - Car : request
ValetCompany <|- - Company
Operator - -> Timerequest : receive
Company - -> Payment : accept
Valet o- - Price
ValetOperator <|- - Operator
Operator - -> Queue : receive
Driver o- - Vehicle : retrieve
Valet o- - Head
Head - -> Pricing : adjust
Employee - -> Tracking : work
ValetHead <|- - Head
Establishment - -> Customer : attract
Operator - -> TrackTransaction : add
Customer o- - TicketNumber : enter
Company - -> EmailTransactionSummaryReport : receive
Operator - -> Employee : add
Operator - -> Notification : send
Company - -> Paymentoption : offer
Operator - -> Car : retrieve
Valet o- - Company
Driver o- - Profile : create
Company - -> Revenue : control
@enduml

PlantUML version 1.2021.10beta2(Unknown compile time)
(GPL source distribution)
Java Runtime: Java(TM) SE Runtime Environment
JVM: Java HotSpot(TM) 64-Bit Server VM
Default Encoding: UTF-8
Language: en
Country: US
--></g></svg>