<?xml version="1.0" encoding="UTF-8" standalone="no"?><svg xmlns="http://www.w3.org/2000/svg" xmlns:xlink="http://www.w3.org/1999/xlink" contentScriptType="application/ecmascript" contentStyleType="text/css" height="400px" preserveAspectRatio="none" style="width:2057px;height:400px;background:#FFFFFF;" version="1.1" viewBox="0 0 2057 400" width="2057px" zoomAndPan="magnify"><defs><filter height="300%" id="fqyd9ke23elrb" width="300%" x="-1" y="-1"><feGaussianBlur result="blurOut" stdDeviation="2.0"/><feColorMatrix in="blurOut" result="blurOut2" type="matrix" values="0 0 0 0 0 0 0 0 0 0 0 0 0 0 0 0 0 0 .4 0"/><feOffset dx="4.0" dy="4.0" in="blurOut2" result="blurOut3"/><feBlend in="SourceGraphic" in2="blurOut3" mode="normal"/></filter></defs><g><!--MD5=[85d18e62f837734b14fa103cb6515b71]
class VOLUNTEERCOACH--><rect codeLine="2" fill="#FEFECE" filter="url(#fqyd9ke23elrb)" height="39.9688" id="VOLUNTEERCOACH" style="stroke:#A80036;stroke-width:1.5;" width="153" x="7" y="55"/><text fill="#000000" font-family="sans-serif" font-size="12" lengthAdjust="spacing" textLength="112" x="10" y="71.1387">VOLUNTEERCOACH</text><rect fill="#FFFFFF" height="15.9688" style="stroke:#000000;stroke-width:1.0;stroke-dasharray:2.0,2.0;" width="33" x="130" y="52"/><text fill="#000000" font-family="sans-serif" font-size="12" font-style="italic" lengthAdjust="spacing" textLength="31" x="131" y="64.1387">actor</text><line style="stroke:#A80036;stroke-width:1.5;" x1="8" x2="159" y1="78.9688" y2="78.9688"/><line style="stroke:#A80036;stroke-width:1.5;" x1="8" x2="159" y1="86.9688" y2="86.9688"/><!--MD5=[8fd7917cad3218595641fd5866ef0ed3]
class GOTRLA--><rect codeLine="31" fill="#FEFECE" filter="url(#fqyd9ke23elrb)" height="129.6016" id="GOTRLA" style="stroke:#A80036;stroke-width:1.5;" width="88" x="612.5" y="10"/><text fill="#000000" font-family="sans-serif" font-size="12" lengthAdjust="spacing" textLength="47" x="615.5" y="26.1387">GOTRLA</text><rect fill="#FFFFFF" height="15.9688" style="stroke:#000000;stroke-width:1.0;stroke-dasharray:2.0,2.0;" width="33" x="670.5" y="7"/><text fill="#000000" font-family="sans-serif" font-size="12" font-style="italic" lengthAdjust="spacing" textLength="31" x="671.5" y="19.1387">actor</text><line style="stroke:#A80036;stroke-width:1.5;" x1="613.5" x2="699.5" y1="33.9688" y2="33.9688"/><line style="stroke:#A80036;stroke-width:1.5;" x1="613.5" x2="699.5" y1="41.9688" y2="41.9688"/><text fill="#000000" font-family="sans-serif" font-size="11" lengthAdjust="spacing" textLength="37" x="618.5" y="56.1792">have()</text><text fill="#000000" font-family="sans-serif" font-size="11" lengthAdjust="spacing" textLength="60" x="618.5" y="68.9839">schedule()</text><text fill="#000000" font-family="sans-serif" font-size="11" lengthAdjust="spacing" textLength="51" x="618.5" y="81.7886">monitor()</text><text fill="#000000" font-family="sans-serif" font-size="11" lengthAdjust="spacing" textLength="49" x="618.5" y="94.5933">Update()</text><text fill="#000000" font-family="sans-serif" font-size="11" lengthAdjust="spacing" textLength="73" x="618.5" y="107.3979">REGULARLY()</text><text fill="#000000" font-family="sans-serif" font-size="11" lengthAdjust="spacing" textLength="30" x="618.5" y="120.2026">Add()</text><text fill="#000000" font-family="sans-serif" font-size="11" lengthAdjust="spacing" textLength="50" x="618.5" y="133.0073">support()</text><!--MD5=[ce225750be1aa34c384e75bd032b49fc]
class VolunteerCoach--><rect codeLine="56" fill="#FEFECE" filter="url(#fqyd9ke23elrb)" height="52.7734" id="VolunteerCoach" style="stroke:#A80036;stroke-width:1.5;" width="136" x="188.5" y="217"/><text fill="#000000" font-family="sans-serif" font-size="12" lengthAdjust="spacing" textLength="95" x="191.5" y="233.1387">VolunteerCoach</text><rect fill="#FFFFFF" height="15.9688" style="stroke:#000000;stroke-width:1.0;stroke-dasharray:2.0,2.0;" width="33" x="294.5" y="214"/><text fill="#000000" font-family="sans-serif" font-size="12" font-style="italic" lengthAdjust="spacing" textLength="31" x="295.5" y="226.1387">actor</text><line style="stroke:#A80036;stroke-width:1.5;" x1="189.5" x2="323.5" y1="240.9688" y2="240.9688"/><line style="stroke:#A80036;stroke-width:1.5;" x1="189.5" x2="323.5" y1="248.9688" y2="248.9688"/><text fill="#000000" font-family="sans-serif" font-size="11" lengthAdjust="spacing" textLength="37" x="194.5" y="263.1792">have()</text><!--MD5=[6081a303407aa0c0464c8b50c38f5612]
class Staff--><rect codeLine="59" fill="#FEFECE" filter="url(#fqyd9ke23elrb)" height="52.7734" id="Staff" style="stroke:#A80036;stroke-width:1.5;" width="68" x="1377.5" y="217"/><text fill="#000000" font-family="sans-serif" font-size="12" lengthAdjust="spacing" textLength="27" x="1380.5" y="233.1387">Staff</text><rect fill="#FFFFFF" height="15.9688" style="stroke:#000000;stroke-width:1.0;stroke-dasharray:2.0,2.0;" width="33" x="1415.5" y="214"/><text fill="#000000" font-family="sans-serif" font-size="12" font-style="italic" lengthAdjust="spacing" textLength="31" x="1416.5" y="226.1387">actor</text><line style="stroke:#A80036;stroke-width:1.5;" x1="1378.5" x2="1444.5" y1="240.9688" y2="240.9688"/><line style="stroke:#A80036;stroke-width:1.5;" x1="1378.5" x2="1444.5" y1="248.9688" y2="248.9688"/><text fill="#000000" font-family="sans-serif" font-size="11" lengthAdjust="spacing" textLength="37" x="1383.5" y="263.1792">have()</text><!--MD5=[b68f07952a0813cd0f0f99581ea5df9b]
class Edit--><rect codeLine="10" fill="#FEFECE" filter="url(#fqyd9ke23elrb)" height="39.9688" id="Edit" style="stroke:#A80036;stroke-width:1.5;" width="63" x="195" y="55"/><text fill="#000000" font-family="sans-serif" font-size="12" lengthAdjust="spacing" textLength="22" x="198" y="71.1387">Edit</text><rect fill="#FFFFFF" height="15.9688" style="stroke:#000000;stroke-width:1.0;stroke-dasharray:2.0,2.0;" width="33" x="228" y="52"/><text fill="#000000" font-family="sans-serif" font-size="12" font-style="italic" lengthAdjust="spacing" textLength="31" x="229" y="64.1387">actor</text><line style="stroke:#A80036;stroke-width:1.5;" x1="196" x2="257" y1="78.9688" y2="78.9688"/><line style="stroke:#A80036;stroke-width:1.5;" x1="196" x2="257" y1="86.9688" y2="86.9688"/><!--MD5=[d20e61c3df8b8f47d0b4e5ec2b6a1cdb]
class Volunteer--><rect codeLine="44" fill="#FEFECE" filter="url(#fqyd9ke23elrb)" height="65.5781" id="Volunteer" style="stroke:#A80036;stroke-width:1.5;" width="99" x="1203" y="42"/><text fill="#000000" font-family="sans-serif" font-size="12" lengthAdjust="spacing" textLength="58" x="1206" y="58.1387">Volunteer</text><rect fill="#FFFFFF" height="15.9688" style="stroke:#000000;stroke-width:1.0;stroke-dasharray:2.0,2.0;" width="33" x="1272" y="39"/><text fill="#000000" font-family="sans-serif" font-size="12" font-style="italic" lengthAdjust="spacing" textLength="31" x="1273" y="51.1387">actor</text><line style="stroke:#A80036;stroke-width:1.5;" x1="1204" x2="1301" y1="65.9688" y2="65.9688"/><line style="stroke:#A80036;stroke-width:1.5;" x1="1204" x2="1301" y1="73.9688" y2="73.9688"/><text fill="#000000" font-family="sans-serif" font-size="11" lengthAdjust="spacing" textLength="52" x="1209" y="88.1792">conduct()</text><text fill="#000000" font-family="sans-serif" font-size="11" lengthAdjust="spacing" textLength="47" x="1209" y="100.9839">access()</text><!--MD5=[db6d18d8099558415abc41d00477ab92]
class Admin--><rect codeLine="80" fill="#FEFECE" filter="url(#fqyd9ke23elrb)" height="52.7734" id="Admin" style="stroke:#A80036;stroke-width:1.5;" width="78" x="1372.5" y="48.5"/><text fill="#000000" font-family="sans-serif" font-size="12" lengthAdjust="spacing" textLength="37" x="1375.5" y="64.6387">Admin</text><rect fill="#FFFFFF" height="15.9688" style="stroke:#000000;stroke-width:1.0;stroke-dasharray:2.0,2.0;" width="33" x="1420.5" y="45.5"/><text fill="#000000" font-family="sans-serif" font-size="12" font-style="italic" lengthAdjust="spacing" textLength="31" x="1421.5" y="57.6387">actor</text><line style="stroke:#A80036;stroke-width:1.5;" x1="1373.5" x2="1449.5" y1="72.4688" y2="72.4688"/><line style="stroke:#A80036;stroke-width:1.5;" x1="1373.5" x2="1449.5" y1="80.4688" y2="80.4688"/><text fill="#000000" font-family="sans-serif" font-size="11" lengthAdjust="spacing" textLength="29" x="1378.5" y="94.6792">add()</text><!--MD5=[3b94e41ff6a7382b1a20f9610f71b84a]
class EditProgramStaff--><rect codeLine="16" fill="#FEFECE" filter="url(#fqyd9ke23elrb)" height="39.9688" id="EditProgramStaff" style="stroke:#A80036;stroke-width:1.5;" width="140" x="13.5" y="223.5"/><text fill="#000000" font-family="sans-serif" font-size="12" lengthAdjust="spacing" textLength="99" x="16.5" y="239.6387">EditProgramStaff</text><rect fill="#FFFFFF" height="15.9688" style="stroke:#000000;stroke-width:1.0;stroke-dasharray:2.0,2.0;" width="33" x="123.5" y="220.5"/><text fill="#000000" font-family="sans-serif" font-size="12" font-style="italic" lengthAdjust="spacing" textLength="31" x="124.5" y="232.6387">actor</text><line style="stroke:#A80036;stroke-width:1.5;" x1="14.5" x2="152.5" y1="247.4688" y2="247.4688"/><line style="stroke:#A80036;stroke-width:1.5;" x1="14.5" x2="152.5" y1="255.4688" y2="255.4688"/><!--MD5=[3fd616f346a44cd59a91eb10b19e157c]
class User--><rect codeLine="72" fill="#FEFECE" filter="url(#fqyd9ke23elrb)" height="65.5781" id="User" style="stroke:#A80036;stroke-width:1.5;" width="70" x="1522.5" y="42"/><text fill="#000000" font-family="sans-serif" font-size="12" lengthAdjust="spacing" textLength="29" x="1525.5" y="58.1387">User</text><rect fill="#FFFFFF" height="15.9688" style="stroke:#000000;stroke-width:1.0;stroke-dasharray:2.0,2.0;" width="33" x="1562.5" y="39"/><text fill="#000000" font-family="sans-serif" font-size="12" font-style="italic" lengthAdjust="spacing" textLength="31" x="1563.5" y="51.1387">actor</text><line style="stroke:#A80036;stroke-width:1.5;" x1="1523.5" x2="1591.5" y1="65.9688" y2="65.9688"/><line style="stroke:#A80036;stroke-width:1.5;" x1="1523.5" x2="1591.5" y1="73.9688" y2="73.9688"/><text fill="#000000" font-family="sans-serif" font-size="11" lengthAdjust="spacing" textLength="48" x="1528.5" y="88.1792">update()</text><text fill="#000000" font-family="sans-serif" font-size="11" lengthAdjust="spacing" textLength="38" x="1528.5" y="100.9839">reset()</text><!--MD5=[cec1a060a5ee78d3766bcb510441b10c]
class CAN--><rect codeLine="20" fill="#FEFECE" filter="url(#fqyd9ke23elrb)" height="52.7734" id="CAN" style="stroke:#A80036;stroke-width:1.5;" width="43" x="1712" y="48.5"/><text fill="#000000" font-family="sans-serif" font-size="12" lengthAdjust="spacing" textLength="24" x="1721.5" y="64.6387">CAN</text><line style="stroke:#A80036;stroke-width:1.5;" x1="1713" x2="1754" y1="72.4688" y2="72.4688"/><line style="stroke:#A80036;stroke-width:1.5;" x1="1713" x2="1754" y1="80.4688" y2="80.4688"/><text fill="#000000" font-family="sans-serif" font-size="11" lengthAdjust="spacing" textLength="31" x="1718" y="94.6792">ANY()</text><!--MD5=[60ff9fc3581cad7fe97bde2cb97ce632]
class TEAMSHAVINGISSUESIMMEDIATELY--><rect codeLine="23" fill="#FEFECE" filter="url(#fqyd9ke23elrb)" height="39.9688" id="TEAMSHAVINGISSUESIMMEDIATELY" style="stroke:#A80036;stroke-width:1.5;" width="211" x="1628" y="223.5"/><text fill="#000000" font-family="sans-serif" font-size="12" lengthAdjust="spacing" textLength="205" x="1631" y="239.6387">TEAMSHAVINGISSUESIMMEDIATELY</text><line style="stroke:#A80036;stroke-width:1.5;" x1="1629" x2="1838" y1="247.4688" y2="247.4688"/><line style="stroke:#A80036;stroke-width:1.5;" x1="1629" x2="1838" y1="255.4688" y2="255.4688"/><!--MD5=[131513fb47822ece733e5bc6ed6204b4]
class staff--><rect codeLine="25" fill="#FEFECE" filter="url(#fqyd9ke23elrb)" height="65.5781" id="staff" style="stroke:#A80036;stroke-width:1.5;" width="66" x="1908.5" y="42"/><text fill="#000000" font-family="sans-serif" font-size="12" lengthAdjust="spacing" textLength="26" x="1928.5" y="58.1387">staff</text><line style="stroke:#A80036;stroke-width:1.5;" x1="1909.5" x2="1973.5" y1="65.9688" y2="65.9688"/><line style="stroke:#A80036;stroke-width:1.5;" x1="1909.5" x2="1973.5" y1="73.9688" y2="73.9688"/><text fill="#000000" font-family="sans-serif" font-size="11" lengthAdjust="spacing" textLength="54" x="1914.5" y="88.1792">analyze()</text><text fill="#000000" font-family="sans-serif" font-size="11" lengthAdjust="spacing" textLength="45" x="1914.5" y="100.9839">export()</text><!--MD5=[60c9ed31c535bee25c55ce21b5b01399]
class Data--><rect codeLine="29" fill="#FEFECE" filter="url(#fqyd9ke23elrb)" height="39.9688" id="Data" style="stroke:#A80036;stroke-width:1.5;" width="33" x="1874" y="223.5"/><text fill="#000000" font-family="sans-serif" font-size="12" lengthAdjust="spacing" textLength="27" x="1877" y="239.6387">Data</text><line style="stroke:#A80036;stroke-width:1.5;" x1="1875" x2="1906" y1="247.4688" y2="247.4688"/><line style="stroke:#A80036;stroke-width:1.5;" x1="1875" x2="1906" y1="255.4688" y2="255.4688"/><!--MD5=[0120a974945614d2da58e970240dc147]
class ATTENDANCESHEET--><rect codeLine="40" fill="#FEFECE" filter="url(#fqyd9ke23elrb)" height="39.9688" id="ATTENDANCESHEET" style="stroke:#A80036;stroke-width:1.5;" width="121" x="360" y="223.5"/><text fill="#000000" font-family="sans-serif" font-size="12" lengthAdjust="spacing" textLength="115" x="363" y="239.6387">ATTENDANCESHEET</text><line style="stroke:#A80036;stroke-width:1.5;" x1="361" x2="480" y1="247.4688" y2="247.4688"/><line style="stroke:#A80036;stroke-width:1.5;" x1="361" x2="480" y1="255.4688" y2="255.4688"/><!--MD5=[47c54596e07e1c9b69023431b1273db8]
class TeamRoster--><rect codeLine="42" fill="#FEFECE" filter="url(#fqyd9ke23elrb)" height="39.9688" id="TeamRoster" style="stroke:#A80036;stroke-width:1.5;" width="78" x="516.5" y="223.5"/><text fill="#000000" font-family="sans-serif" font-size="12" lengthAdjust="spacing" textLength="72" x="519.5" y="239.6387">TeamRoster</text><line style="stroke:#A80036;stroke-width:1.5;" x1="517.5" x2="593.5" y1="247.4688" y2="247.4688"/><line style="stroke:#A80036;stroke-width:1.5;" x1="517.5" x2="593.5" y1="255.4688" y2="255.4688"/><!--MD5=[41e1c6cf192918703501b24b2053926c]
class Class--><rect codeLine="48" fill="#FEFECE" filter="url(#fqyd9ke23elrb)" height="39.9688" id="Class" style="stroke:#A80036;stroke-width:1.5;" width="38" x="1106.5" y="223.5"/><text fill="#000000" font-family="sans-serif" font-size="12" lengthAdjust="spacing" textLength="32" x="1109.5" y="239.6387">Class</text><line style="stroke:#A80036;stroke-width:1.5;" x1="1107.5" x2="1143.5" y1="247.4688" y2="247.4688"/><line style="stroke:#A80036;stroke-width:1.5;" x1="1107.5" x2="1143.5" y1="255.4688" y2="255.4688"/><!--MD5=[fd8f06804651a767af6d5ee4693cdfe7]
class Coach--><rect codeLine="50" fill="#FEFECE" filter="url(#fqyd9ke23elrb)" height="65.5781" id="Coach" style="stroke:#A80036;stroke-width:1.5;" width="64" x="1058.5" y="42"/><text fill="#000000" font-family="sans-serif" font-size="12" lengthAdjust="spacing" textLength="37" x="1072" y="58.1387">Coach</text><line style="stroke:#A80036;stroke-width:1.5;" x1="1059.5" x2="1121.5" y1="65.9688" y2="65.9688"/><line style="stroke:#A80036;stroke-width:1.5;" x1="1059.5" x2="1121.5" y1="73.9688" y2="73.9688"/><text fill="#000000" font-family="sans-serif" font-size="11" lengthAdjust="spacing" textLength="52" x="1064.5" y="88.1792">conduct()</text><text fill="#000000" font-family="sans-serif" font-size="11" lengthAdjust="spacing" textLength="33" x="1064.5" y="100.9839">take()</text><!--MD5=[5d164e213286f7d45cd576f6764a2381]
class AttendanceData--><rect codeLine="54" fill="#FEFECE" filter="url(#fqyd9ke23elrb)" height="39.9688" id="AttendanceData" style="stroke:#A80036;stroke-width:1.5;" width="101" x="1942" y="223.5"/><text fill="#000000" font-family="sans-serif" font-size="12" lengthAdjust="spacing" textLength="95" x="1945" y="239.6387">AttendanceData</text><line style="stroke:#A80036;stroke-width:1.5;" x1="1943" x2="2042" y1="247.4688" y2="247.4688"/><line style="stroke:#A80036;stroke-width:1.5;" x1="1943" x2="2042" y1="255.4688" y2="255.4688"/><!--MD5=[f399ba4c5ca3b0c93c815b3943fb7aa1]
class CopyLiabilityWaiverForm--><rect codeLine="62" fill="#FEFECE" filter="url(#fqyd9ke23elrb)" height="39.9688" id="CopyLiabilityWaiverForm" style="stroke:#A80036;stroke-width:1.5;" width="154" x="891.5" y="347"/><text fill="#000000" font-family="sans-serif" font-size="12" lengthAdjust="spacing" textLength="148" x="894.5" y="363.1387">CopyLiabilityWaiverForm</text><line style="stroke:#A80036;stroke-width:1.5;" x1="892.5" x2="1044.5" y1="370.9688" y2="370.9688"/><line style="stroke:#A80036;stroke-width:1.5;" x1="892.5" x2="1044.5" y1="378.9688" y2="378.9688"/><!--MD5=[e7c98ac7ba8d7cf0aa11a2d3b0329a02]
class Attendance--><rect codeLine="64" fill="#FEFECE" filter="url(#fqyd9ke23elrb)" height="39.9688" id="Attendance" style="stroke:#A80036;stroke-width:1.5;" width="74" x="975.5" y="223.5"/><text fill="#000000" font-family="sans-serif" font-size="12" lengthAdjust="spacing" textLength="68" x="978.5" y="239.6387">Attendance</text><line style="stroke:#A80036;stroke-width:1.5;" x1="976.5" x2="1048.5" y1="247.4688" y2="247.4688"/><line style="stroke:#A80036;stroke-width:1.5;" x1="976.5" x2="1048.5" y1="255.4688" y2="255.4688"/><!--MD5=[c680266cf9e454ca06c2d1bb8b683e6b]
class Schedule--><rect codeLine="66" fill="#FEFECE" filter="url(#fqyd9ke23elrb)" height="39.9688" id="Schedule" style="stroke:#A80036;stroke-width:1.5;" width="62" x="1280.5" y="223.5"/><text fill="#000000" font-family="sans-serif" font-size="12" lengthAdjust="spacing" textLength="56" x="1283.5" y="239.6387">Schedule</text><line style="stroke:#A80036;stroke-width:1.5;" x1="1281.5" x2="1341.5" y1="247.4688" y2="247.4688"/><line style="stroke:#A80036;stroke-width:1.5;" x1="1281.5" x2="1341.5" y1="255.4688" y2="255.4688"/><!--MD5=[47ab3bbcc2249d76656428e4be6a5ff5]
class GirlData--><rect codeLine="68" fill="#FEFECE" filter="url(#fqyd9ke23elrb)" height="39.9688" id="GirlData" style="stroke:#A80036;stroke-width:1.5;" width="53" x="630" y="223.5"/><text fill="#000000" font-family="sans-serif" font-size="12" lengthAdjust="spacing" textLength="47" x="633" y="239.6387">GirlData</text><line style="stroke:#A80036;stroke-width:1.5;" x1="631" x2="682" y1="247.4688" y2="247.4688"/><line style="stroke:#A80036;stroke-width:1.5;" x1="631" x2="682" y1="255.4688" y2="255.4688"/><!--MD5=[30fd7b95ab383a5e7c83ea23d4ea0fbf]
class Information--><rect codeLine="70" fill="#FEFECE" filter="url(#fqyd9ke23elrb)" height="39.9688" id="Information" style="stroke:#A80036;stroke-width:1.5;" width="73" x="718" y="223.5"/><text fill="#000000" font-family="sans-serif" font-size="12" lengthAdjust="spacing" textLength="67" x="721" y="239.6387">Information</text><line style="stroke:#A80036;stroke-width:1.5;" x1="719" x2="790" y1="247.4688" y2="247.4688"/><line style="stroke:#A80036;stroke-width:1.5;" x1="719" x2="790" y1="255.4688" y2="255.4688"/><!--MD5=[8d389e526eb4d7ee66857af2118481ed]
class AccountPassword--><rect codeLine="76" fill="#FEFECE" filter="url(#fqyd9ke23elrb)" height="39.9688" id="AccountPassword" style="stroke:#A80036;stroke-width:1.5;" width="112" x="1480.5" y="223.5"/><text fill="#000000" font-family="sans-serif" font-size="12" lengthAdjust="spacing" textLength="106" x="1483.5" y="239.6387">AccountPassword</text><line style="stroke:#A80036;stroke-width:1.5;" x1="1481.5" x2="1591.5" y1="247.4688" y2="247.4688"/><line style="stroke:#A80036;stroke-width:1.5;" x1="1481.5" x2="1591.5" y1="255.4688" y2="255.4688"/><!--MD5=[dacda350bad8e5445e265e2dca5bb0eb]
class ProgramWeek--><rect codeLine="78" fill="#FEFECE" filter="url(#fqyd9ke23elrb)" height="39.9688" id="ProgramWeek" style="stroke:#A80036;stroke-width:1.5;" width="91" x="826" y="223.5"/><text fill="#000000" font-family="sans-serif" font-size="12" lengthAdjust="spacing" textLength="85" x="829" y="239.6387">ProgramWeek</text><line style="stroke:#A80036;stroke-width:1.5;" x1="827" x2="916" y1="247.4688" y2="247.4688"/><line style="stroke:#A80036;stroke-width:1.5;" x1="827" x2="916" y1="255.4688" y2="255.4688"/><!--MD5=[afa5c0f07e14ed4df27b42dbad4cd8b1]
link GOTRLA to GirlData--><path codeLine="83" d="M653.584,140.272 C653.216,155.585 653.091,171.872 653.5,187 C653.775,197.173 654.332,208.384 654.893,218.051 " fill="none" id="GOTRLA-to-GirlData" style="stroke:#A80036;stroke-width:1.0;"/><polygon fill="#A80036" points="655.203,223.247,658.6585,214.0242,654.9044,218.2559,650.6727,214.5019,655.203,223.247" style="stroke:#A80036;stroke-width:1.0;"/><text fill="#000000" font-family="sans-serif" font-size="13" lengthAdjust="spacing" textLength="25" x="654.5" y="183.0669">Add</text><!--MD5=[1880530250a35d370d26846d03a01947]
link CAN to TEAMSHAVINGISSUESIMMEDIATELY--><path codeLine="84" d="M1733.5,101.651 C1733.5,133.384 1733.5,187.017 1733.5,218.142 " fill="none" id="CAN-to-TEAMSHAVINGISSUESIMMEDIATELY" style="stroke:#A80036;stroke-width:1.0;"/><polygon fill="#A80036" points="1733.5,223.309,1737.5,214.309,1733.5,218.309,1729.5,214.309,1733.5,223.309" style="stroke:#A80036;stroke-width:1.0;"/><text fill="#000000" font-family="sans-serif" font-size="13" lengthAdjust="spacing" textLength="26" x="1734.5" y="183.0669">ANY</text><!--MD5=[d6c05c37d1e56965ae193a9016f33c04]
link Coach to Class--><path codeLine="85" d="M1097.25,108.103 C1104.02,140.307 1114.29,189.182 1120.41,218.269 " fill="none" id="Coach-to-Class" style="stroke:#A80036;stroke-width:1.0;"/><polygon fill="#A80036" points="1121.5,223.461,1123.5601,213.83,1120.4699,218.5683,1115.7317,215.4781,1121.5,223.461" style="stroke:#A80036;stroke-width:1.0;"/><text fill="#000000" font-family="sans-serif" font-size="13" lengthAdjust="spacing" textLength="51" x="1114.5" y="183.0669">conduct</text><!--MD5=[fb63f97013652b2a39df537aa5a23115]
link GOTRLA to VolunteerCoach--><path codeLine="86" d="M612.183,79.89 C518.286,89.126 304.238,115.775 259.5,170 C250.075,181.424 248.674,197.645 249.914,211.848 " fill="none" id="GOTRLA-to-VolunteerCoach" style="stroke:#A80036;stroke-width:1.0;"/><polygon fill="#A80036" points="250.481,216.977,253.4695,207.5925,249.9324,212.0072,245.5178,208.4702,250.481,216.977" style="stroke:#A80036;stroke-width:1.0;"/><text fill="#000000" font-family="sans-serif" font-size="13" lengthAdjust="spacing" textLength="25" x="260.5" y="183.0669">Add</text><!--MD5=[fb63f97013652b2a39df537aa5a23115]
link GOTRLA to VolunteerCoach--><path codeLine="93" d="M612.125,93.503 C565.141,112.128 488.882,142.625 423.5,170 C388.907,184.484 350.506,201.116 319.258,214.794 " fill="none" id="GOTRLA-to-VolunteerCoach-1" style="stroke:#A80036;stroke-width:1.0;"/><polygon fill="#A80036" points="314.306,216.963,324.1547,217.0167,318.8861,214.9573,320.9455,209.6886,314.306,216.963" style="stroke:#A80036;stroke-width:1.0;"/><text fill="#000000" font-family="sans-serif" font-size="13" lengthAdjust="spacing" textLength="46" x="424.5" y="183.0669">Update</text><!--MD5=[2343a4999c4efe30becd5735e6a7eadd]
link staff to AttendanceData--><path codeLine="87" d="M1951.33,108.103 C1961.24,140.44 1976.29,189.588 1985.19,218.63 " fill="none" id="staff-to-AttendanceData" style="stroke:#A80036;stroke-width:1.0;"/><polygon fill="#A80036" points="1986.67,223.461,1987.8617,213.6845,1985.2071,218.6798,1980.2118,216.0252,1986.67,223.461" style="stroke:#A80036;stroke-width:1.0;"/><text fill="#000000" font-family="sans-serif" font-size="13" lengthAdjust="spacing" textLength="50" x="1976.5" y="183.0669">analyze</text><!--MD5=[c5f81a7d15bdf14543b93ed453e096e2]
link GOTRLA to Information--><path codeLine="88" d="M693.099,140.149 C701.988,155.541 711.52,171.894 720.5,187 C726.759,197.529 733.813,209.092 739.868,218.926 " fill="none" id="GOTRLA-to-Information" style="stroke:#A80036;stroke-width:1.0;"/><polygon fill="#A80036" points="742.572,223.313,741.2543,213.5527,739.9482,219.0567,734.4442,217.7507,742.572,223.313" style="stroke:#A80036;stroke-width:1.0;"/><text fill="#000000" font-family="sans-serif" font-size="13" lengthAdjust="spacing" textLength="32" x="721.5" y="183.0669">have</text><!--MD5=[4f0036c3ae8f06fcff77eea7ceb5244e]
link staff to Data--><path codeLine="89" d="M1931.67,108.103 C1921.76,140.44 1906.71,189.588 1897.81,218.63 " fill="none" id="staff-to-Data" style="stroke:#A80036;stroke-width:1.0;"/><polygon fill="#A80036" points="1896.33,223.461,1902.7882,216.0252,1897.7929,218.6798,1895.1383,213.6845,1896.33,223.461" style="stroke:#A80036;stroke-width:1.0;"/><text fill="#000000" font-family="sans-serif" font-size="13" lengthAdjust="spacing" textLength="42" x="1912.5" y="183.0669">export</text><!--MD5=[2e7e7dfc3f50204e40cfa2b7e40d4de4]
link User to AccountPassword--><path codeLine="90" d="M1533.91,108.131 C1522.61,125.508 1510.3,147.893 1504.5,170 C1500,187.125 1508.12,205.353 1517.29,219.248 " fill="none" id="User-to-AccountPassword" style="stroke:#A80036;stroke-width:1.0;"/><polygon fill="#A80036" points="1520.16,223.415,1518.346,213.7346,1517.3225,219.2981,1511.759,218.2746,1520.16,223.415" style="stroke:#A80036;stroke-width:1.0;"/><text fill="#000000" font-family="sans-serif" font-size="13" lengthAdjust="spacing" textLength="45" x="1505.5" y="183.0669">update</text><!--MD5=[2e7e7dfc3f50204e40cfa2b7e40d4de4]
link User to AccountPassword--><path codeLine="99" d="M1559.55,108.312 C1560.32,130.595 1560.1,160.803 1555.5,187 C1553.64,197.592 1550.08,208.888 1546.54,218.506 " fill="none" id="User-to-AccountPassword-1" style="stroke:#A80036;stroke-width:1.0;"/><polygon fill="#A80036" points="1544.7,223.37,1551.6204,216.3623,1546.4656,218.6921,1544.1358,213.5373,1544.7,223.37" style="stroke:#A80036;stroke-width:1.0;"/><text fill="#000000" font-family="sans-serif" font-size="13" lengthAdjust="spacing" textLength="33" x="1559.5" y="183.0669">reset</text><!--MD5=[e13edb030b9cef0dbd75fc789e83fb64]
link GOTRLA to ATTENDANCESHEET--><path codeLine="91" d="M612.338,99.271 C580.008,117.052 535.657,143.023 499.5,170 C479.143,185.188 458.045,204.78 442.779,219.768 " fill="none" id="GOTRLA-to-ATTENDANCESHEET" style="stroke:#A80036;stroke-width:1.0;"/><polygon fill="#A80036" points="439.027,223.474,448.2414,219.9961,442.5846,219.9607,442.62,214.3039,439.027,223.474" style="stroke:#A80036;stroke-width:1.0;"/><text fill="#000000" font-family="sans-serif" font-size="13" lengthAdjust="spacing" textLength="76" x="500.5" y="183.0669">REGULARLY</text><!--MD5=[4c17ace657c329cd16d1dba250f9a797]
link Volunteer to Class--><path codeLine="92" d="M1231.22,108.257 C1216.03,130.781 1194.78,161.296 1174.5,187 C1165.79,198.047 1155.56,209.795 1146.72,219.624 " fill="none" id="Volunteer-to-Class" style="stroke:#A80036;stroke-width:1.0;"/><polygon fill="#A80036" points="1143.27,223.43,1152.2707,219.4315,1146.6211,219.7192,1146.3334,214.0697,1143.27,223.43" style="stroke:#A80036;stroke-width:1.0;"/><text fill="#000000" font-family="sans-serif" font-size="13" lengthAdjust="spacing" textLength="51" x="1187.5" y="183.0669">conduct</text><!--MD5=[79a0f1b90fcd716bce4a49cbbbf5991a]
link GOTRLA to ProgramWeek--><path codeLine="94" d="M700.775,112.597 C727.613,134.534 762.703,162.78 794.5,187 C809.231,198.221 825.866,210.285 839.896,220.29 " fill="none" id="GOTRLA-to-ProgramWeek" style="stroke:#A80036;stroke-width:1.0;"/><polygon fill="#A80036" points="844.161,223.325,839.1463,214.8484,840.0868,220.4265,834.5087,221.3671,844.161,223.325" style="stroke:#A80036;stroke-width:1.0;"/><text fill="#000000" font-family="sans-serif" font-size="13" lengthAdjust="spacing" textLength="57" x="795.5" y="183.0669">schedule</text><!--MD5=[23b934d095a36a5ed7211807a2af8d94]
link GOTRLA to TeamRoster--><path codeLine="95" d="M613.038,140.24 C606.675,150.116 600.313,160.265 594.5,170 C584.954,185.986 575.024,204.477 567.573,218.783 " fill="none" id="GOTRLA-to-TeamRoster" style="stroke:#A80036;stroke-width:1.0;"/><polygon fill="#A80036" points="565.146,223.465,572.8414,217.3184,567.4487,219.0268,565.7402,213.6341,565.146,223.465" style="stroke:#A80036;stroke-width:1.0;"/><text fill="#000000" font-family="sans-serif" font-size="13" lengthAdjust="spacing" textLength="49" x="595.5" y="183.0669">support</text><!--MD5=[e0f37847ada082ebd2112632b788838e]
link VolunteerCoach to CopyLiabilityWaiverForm--><path codeLine="96" d="M324.815,265.669 C330.77,267.237 336.725,268.707 342.5,270 C535.182,313.1303 765.58,342.9899 885.964,356.9736 " fill="none" id="VolunteerCoach-to-CopyLiabilityWaiverForm" style="stroke:#A80036;stroke-width:1.0;"/><polygon fill="#A80036" points="891.26,357.5867,882.779,352.5794,886.2931,357.0124,881.8601,360.5265,891.26,357.5867" style="stroke:#A80036;stroke-width:1.0;"/><text fill="#000000" font-family="sans-serif" font-size="13" lengthAdjust="spacing" textLength="32" x="583.5" y="313.0669">have</text><!--MD5=[cd98bc415862b0d44f97c4ed61f2aec8]
link Admin to Staff--><path codeLine="97" d="M1411.5,101.651 C1411.5,131.228 1411.5,179.831 1411.5,211.501 " fill="none" id="Admin-to-Staff" style="stroke:#A80036;stroke-width:1.0;"/><polygon fill="#A80036" points="1411.5,216.82,1415.5,207.82,1411.5,211.82,1407.5,207.82,1411.5,216.82" style="stroke:#A80036;stroke-width:1.0;"/><text fill="#000000" font-family="sans-serif" font-size="13" lengthAdjust="spacing" textLength="24" x="1412.5" y="183.0669">add</text><!--MD5=[bc153eb19d68cb19a25dd9d84ee0a4b3]
link Staff to CopyLiabilityWaiverForm--><path codeLine="98" d="M1377.27,262.571 C1371.43,265.279 1365.36,267.872 1359.5,270 C1255.67,307.7046 1131.04,335.441 1050.85,351.1482 " fill="none" id="Staff-to-CopyLiabilityWaiverForm" style="stroke:#A80036;stroke-width:1.0;"/><polygon fill="#A80036" points="1045.63,352.1654,1055.2293,354.3686,1050.5375,351.2083,1053.6979,346.5165,1045.63,352.1654" style="stroke:#A80036;stroke-width:1.0;"/><text fill="#000000" font-family="sans-serif" font-size="13" lengthAdjust="spacing" textLength="32" x="1266.5" y="313.0669">have</text><!--MD5=[97a840519167b633488e8025757e1319]
link Coach to Attendance--><path codeLine="100" d="M1075.46,108.103 C1060.31,140.44 1037.29,189.588 1023.68,218.63 " fill="none" id="Coach-to-Attendance" style="stroke:#A80036;stroke-width:1.0;"/><polygon fill="#A80036" points="1021.42,223.461,1028.868,217.0168,1023.5466,218.9358,1021.6276,213.6143,1021.42,223.461" style="stroke:#A80036;stroke-width:1.0;"/><text fill="#000000" font-family="sans-serif" font-size="13" lengthAdjust="spacing" textLength="28" x="1046.5" y="183.0669">take</text><!--MD5=[56164e484cb35a42e497367a2ef4d287]
link Volunteer to Schedule--><path codeLine="101" d="M1263.88,108.103 C1275.33,140.44 1292.75,189.588 1303.04,218.63 " fill="none" id="Volunteer-to-Schedule" style="stroke:#A80036;stroke-width:1.0;"/><polygon fill="#A80036" points="1304.75,223.461,1305.5152,213.6419,1303.0804,218.748,1297.9744,216.3132,1304.75,223.461" style="stroke:#A80036;stroke-width:1.0;"/><text fill="#000000" font-family="sans-serif" font-size="13" lengthAdjust="spacing" textLength="44" x="1292.5" y="183.0669">access</text><!--MD5=[08d4e4129dc230b55595333a9eb4ee23]
link GOTRLA to Class--><path codeLine="102" d="M700.514,89.046 C758.126,106.367 862.062,138.457 949.5,170 C1002.214,189.016 1014.78,195.437 1066.5,217 C1078.11,221.84 1090.94,227.363 1101.66,232.028 " fill="none" id="GOTRLA-to-Class" style="stroke:#A80036;stroke-width:1.0;"/><polygon fill="#A80036" points="1106.42,234.105,1099.7712,226.8391,1101.8374,232.1051,1096.5714,234.1713,1106.42,234.105" style="stroke:#A80036;stroke-width:1.0;"/><text fill="#000000" font-family="sans-serif" font-size="13" lengthAdjust="spacing" textLength="25" x="996.5" y="183.0669">Add</text><!--MD5=[ff0a00d215dd9a1fcf0d0ea471cde5c4]
link GOTRLA to Attendance--><path codeLine="103" d="M700.832,96.675 C741.575,115.689 803.633,144.686 857.5,170 C873.514,177.526 877.482,179.483 893.5,187 C919.124,199.025 947.887,212.442 970.715,223.071 " fill="none" id="GOTRLA-to-Attendance" style="stroke:#A80036;stroke-width:1.0;"/><polygon fill="#A80036" points="975.493,225.296,969.0236,217.8699,970.9606,223.1848,965.6457,225.1217,975.493,225.296" style="stroke:#A80036;stroke-width:1.0;"/><text fill="#000000" font-family="sans-serif" font-size="13" lengthAdjust="spacing" textLength="50" x="894.5" y="183.0669">monitor</text><!--MD5=[341f56a68896181593118b166caad514]
link VOLUNTEERCOACH to Edit--><!--MD5=[cbd1640c1fd652c20a0bb1c799f6ae95]
link VOLUNTEERCOACH to EditProgramStaff--><!--MD5=[0458a7b2d59161817df616926a3e9510]
@startuml
hide circle
class VOLUNTEERCOACH<actor> {
}
class GOTRLA<actor> {
}
class VolunteerCoach<actor> {
}
class Staff<actor> {
}
class Edit<actor> {
}
class Volunteer<actor> {
}
class Admin<actor> {
}
class EditProgramStaff<actor> {
}
class User<actor> {
}
class CAN {
	ANY()
}
class TEAMSHAVINGISSUESIMMEDIATELY {
}
class staff {
	analyze()
	export()
}
class Data {
}
class GOTRLA {
	have()
	schedule()
	monitor()
	Update()
	REGULARLY()
	Add()
	support()
}
class ATTENDANCESHEET {
}
class TeamRoster {
}
class Volunteer {
	conduct()
	access()
}
class Class {
}
class Coach {
	conduct()
	take()
}
class AttendanceData {
}
class VolunteerCoach {
	have()
}
class Staff {
	have()
}
class CopyLiabilityWaiverForm {
}
class Attendance {
}
class Schedule {
}
class GirlData {
}
class Information {
}
class User {
	update()
	reset()
}
class AccountPassword {
}
class ProgramWeek {
}
class Admin {
	add()
}
GOTRLA - -> GirlData : Add
CAN - -> TEAMSHAVINGISSUESIMMEDIATELY : ANY
Coach - -> Class : conduct
GOTRLA - -> VolunteerCoach : Add
staff - -> AttendanceData : analyze
GOTRLA - -> Information : have
staff - -> Data : export
User - -> AccountPassword : update
GOTRLA - -> ATTENDANCESHEET : REGULARLY
Volunteer - -> Class : conduct
GOTRLA - -> VolunteerCoach : Update
GOTRLA - -> ProgramWeek : schedule
GOTRLA - -> TeamRoster : support
VolunteerCoach - -> CopyLiabilityWaiverForm : have
Admin - -> Staff : add
Staff - -> CopyLiabilityWaiverForm : have
User - -> AccountPassword : reset
Coach - -> Attendance : take
Volunteer - -> Schedule : access
GOTRLA - -> Class : Add
GOTRLA - -> Attendance : monitor
@enduml

PlantUML version 1.2021.6beta6(Unknown compile time)
(GPL source distribution)
Java Runtime: Java(TM) SE Runtime Environment
JVM: Java HotSpot(TM) 64-Bit Server VM
Default Encoding: UTF-8
Language: en
Country: US
--></g></svg>