<?xml version="1.0" encoding="UTF-8" standalone="no"?><svg xmlns="http://www.w3.org/2000/svg" xmlns:xlink="http://www.w3.org/1999/xlink" contentScriptType="application/ecmascript" contentStyleType="text/css" height="879px" preserveAspectRatio="none" style="width:790px;height:879px;background:#FFFFFF;" version="1.1" viewBox="0 0 790 879" width="790px" zoomAndPan="magnify"><defs><filter height="300%" id="fy7k4ofdol7af" width="300%" x="-1" y="-1"><feGaussianBlur result="blurOut" stdDeviation="2.0"/><feColorMatrix in="blurOut" result="blurOut2" type="matrix" values="0 0 0 0 0 0 0 0 0 0 0 0 0 0 0 0 0 0 .4 0"/><feOffset dx="4.0" dy="4.0" in="blurOut2" result="blurOut3"/><feBlend in="SourceGraphic" in2="blurOut3" mode="normal"/></filter></defs><g><!--MD5=[67ea9f8eb7ab97465d83c225b092f5fe]
class Consumer--><rect codeLine="32" fill="#FEFECE" filter="url(#fy7k4ofdol7af)" height="103.9922" id="Consumer" style="stroke:#A80036;stroke-width:1.5;" width="102" x="376" y="10"/><text fill="#000000" font-family="sans-serif" font-size="12" lengthAdjust="spacing" textLength="61" x="379" y="26.1387">Consumer</text><rect fill="#FFFFFF" height="15.9688" style="stroke:#000000;stroke-width:1.0;stroke-dasharray:2.0,2.0;" width="33" x="448" y="7"/><text fill="#000000" font-family="sans-serif" font-size="12" font-style="italic" lengthAdjust="spacing" textLength="31" x="449" y="19.1387">actor</text><line style="stroke:#A80036;stroke-width:1.5;" x1="377" x2="477" y1="33.9688" y2="33.9688"/><line style="stroke:#A80036;stroke-width:1.5;" x1="377" x2="477" y1="41.9688" y2="41.9688"/><text fill="#000000" font-family="sans-serif" font-size="11" lengthAdjust="spacing" textLength="31" x="382" y="56.1792">rate()</text><text fill="#000000" font-family="sans-serif" font-size="11" lengthAdjust="spacing" textLength="45" x="382" y="68.9839">create()</text><text fill="#000000" font-family="sans-serif" font-size="11" lengthAdjust="spacing" textLength="58" x="382" y="81.7886">compare()</text><text fill="#000000" font-family="sans-serif" font-size="11" lengthAdjust="spacing" textLength="28" x="382" y="94.5933">join()</text><text fill="#000000" font-family="sans-serif" font-size="11" lengthAdjust="spacing" textLength="52" x="382" y="107.3979">register()</text><!--MD5=[dd02eecdbc258e1229f4c28de2428a13]
class Corporation--><rect codeLine="41" fill="#FEFECE" filter="url(#fy7k4ofdol7af)" height="65.5781" id="Corporation" style="stroke:#A80036;stroke-width:1.5;" width="112" x="644" y="29"/><text fill="#000000" font-family="sans-serif" font-size="12" lengthAdjust="spacing" textLength="71" x="647" y="45.1387">Corporation</text><rect fill="#FFFFFF" height="15.9688" style="stroke:#000000;stroke-width:1.0;stroke-dasharray:2.0,2.0;" width="33" x="726" y="26"/><text fill="#000000" font-family="sans-serif" font-size="12" font-style="italic" lengthAdjust="spacing" textLength="31" x="727" y="38.1387">actor</text><line style="stroke:#A80036;stroke-width:1.5;" x1="645" x2="755" y1="52.9688" y2="52.9688"/><text fill="#000000" font-family="sans-serif" font-size="11" lengthAdjust="spacing" textLength="59" x="650" y="67.1792">employee</text><line style="stroke:#A80036;stroke-width:1.5;" x1="645" x2="755" y1="73.7734" y2="73.7734"/><text fill="#000000" font-family="sans-serif" font-size="11" lengthAdjust="spacing" textLength="35" x="650" y="87.9839">view()</text><!--MD5=[3521822871a02163bc1090dd8c65b7f5]
class Provider--><rect codeLine="52" fill="#FEFECE" filter="url(#fy7k4ofdol7af)" height="65.5781" id="Provider" style="stroke:#A80036;stroke-width:1.5;" width="91" x="151.5" y="191"/><text fill="#000000" font-family="sans-serif" font-size="12" lengthAdjust="spacing" textLength="50" x="154.5" y="207.1387">Provider</text><rect fill="#FFFFFF" height="15.9688" style="stroke:#000000;stroke-width:1.0;stroke-dasharray:2.0,2.0;" width="33" x="212.5" y="188"/><text fill="#000000" font-family="sans-serif" font-size="12" font-style="italic" lengthAdjust="spacing" textLength="31" x="213.5" y="200.1387">actor</text><line style="stroke:#A80036;stroke-width:1.5;" x1="152.5" x2="241.5" y1="214.9688" y2="214.9688"/><line style="stroke:#A80036;stroke-width:1.5;" x1="152.5" x2="241.5" y1="222.9688" y2="222.9688"/><text fill="#000000" font-family="sans-serif" font-size="11" lengthAdjust="spacing" textLength="36" x="157.5" y="237.1792">send()</text><text fill="#000000" font-family="sans-serif" font-size="11" lengthAdjust="spacing" textLength="40" x="157.5" y="249.9839">share()</text><!--MD5=[3fd616f346a44cd59a91eb10b19e157c]
class User--><rect codeLine="20" fill="#FEFECE" filter="url(#fy7k4ofdol7af)" height="155.2109" id="User" style="stroke:#A80036;stroke-width:1.5;" width="70" x="289" y="464"/><text fill="#000000" font-family="sans-serif" font-size="12" lengthAdjust="spacing" textLength="29" x="292" y="480.1387">User</text><rect fill="#FFFFFF" height="15.9688" style="stroke:#000000;stroke-width:1.0;stroke-dasharray:2.0,2.0;" width="33" x="329" y="461"/><text fill="#000000" font-family="sans-serif" font-size="12" font-style="italic" lengthAdjust="spacing" textLength="31" x="330" y="473.1387">actor</text><line style="stroke:#A80036;stroke-width:1.5;" x1="290" x2="358" y1="487.9688" y2="487.9688"/><text fill="#000000" font-family="sans-serif" font-size="11" lengthAdjust="spacing" textLength="36" x="295" y="502.1792">profile</text><text fill="#000000" font-family="sans-serif" font-size="11" lengthAdjust="spacing" textLength="44" x="295" y="514.9839">location</text><line style="stroke:#A80036;stroke-width:1.5;" x1="290" x2="358" y1="521.5781" y2="521.5781"/><text fill="#000000" font-family="sans-serif" font-size="11" lengthAdjust="spacing" textLength="29" x="295" y="535.7886">find()</text><text fill="#000000" font-family="sans-serif" font-size="11" lengthAdjust="spacing" textLength="34" x="295" y="548.5933">filter()</text><text fill="#000000" font-family="sans-serif" font-size="11" lengthAdjust="spacing" textLength="45" x="295" y="561.3979">create()</text><text fill="#000000" font-family="sans-serif" font-size="11" lengthAdjust="spacing" textLength="53" x="295" y="574.2026">connect()</text><text fill="#000000" font-family="sans-serif" font-size="11" lengthAdjust="spacing" textLength="41" x="295" y="587.0073">follow()</text><text fill="#000000" font-family="sans-serif" font-size="11" lengthAdjust="spacing" textLength="37" x="295" y="599.812">have()</text><text fill="#000000" font-family="sans-serif" font-size="11" lengthAdjust="spacing" textLength="52" x="295" y="612.6167">receive()</text><!--MD5=[53272eeea06fe80d83fd996defbd63c3]
class Health--><rect codeLine="13" fill="#FEFECE" filter="url(#fy7k4ofdol7af)" height="39.9688" id="Health" style="stroke:#A80036;stroke-width:1.5;" width="44" x="538" y="521.5"/><text fill="#000000" font-family="sans-serif" font-size="12" lengthAdjust="spacing" textLength="38" x="541" y="537.6387">Health</text><line style="stroke:#A80036;stroke-width:1.5;" x1="539" x2="581" y1="545.4688" y2="545.4688"/><line style="stroke:#A80036;stroke-width:1.5;" x1="539" x2="581" y1="553.4688" y2="553.4688"/><!--MD5=[7b57f7066b803747d2119f99dd1555d4]
class Profile--><rect codeLine="15" fill="#FEFECE" filter="url(#fy7k4ofdol7af)" height="52.7734" id="Profile" style="stroke:#A80036;stroke-width:1.5;" width="55" x="513.5" y="696"/><text fill="#000000" font-family="sans-serif" font-size="12" lengthAdjust="spacing" textLength="37" x="522.5" y="712.1387">Profile</text><line style="stroke:#A80036;stroke-width:1.5;" x1="514.5" x2="567.5" y1="719.9688" y2="719.9688"/><line style="stroke:#A80036;stroke-width:1.5;" x1="514.5" x2="567.5" y1="727.9688" y2="727.9688"/><text fill="#000000" font-family="sans-serif" font-size="11" lengthAdjust="spacing" textLength="43" x="519.5" y="742.1792">attach()</text><!--MD5=[63d3fe1f8a0ef560d1588fb1f9dd3b97]
class CarePricing--><rect codeLine="18" fill="#FEFECE" filter="url(#fy7k4ofdol7af)" height="39.9688" id="CarePricing" style="stroke:#A80036;stroke-width:1.5;" width="73" x="610.5" y="702.5"/><text fill="#000000" font-family="sans-serif" font-size="12" lengthAdjust="spacing" textLength="67" x="613.5" y="718.6387">CarePricing</text><line style="stroke:#A80036;stroke-width:1.5;" x1="611.5" x2="682.5" y1="726.4688" y2="726.4688"/><line style="stroke:#A80036;stroke-width:1.5;" x1="611.5" x2="682.5" y1="734.4688" y2="734.4688"/><!--MD5=[fd7366e9f96236d9aa60dcc04f2b83e5]
class Content--><rect codeLine="29" fill="#FEFECE" filter="url(#fy7k4ofdol7af)" height="52.7734" id="Content" style="stroke:#A80036;stroke-width:1.5;" width="52" x="7" y="334"/><text fill="#000000" font-family="sans-serif" font-size="12" lengthAdjust="spacing" textLength="46" x="10" y="350.1387">Content</text><line style="stroke:#A80036;stroke-width:1.5;" x1="8" x2="58" y1="357.9688" y2="357.9688"/><line style="stroke:#A80036;stroke-width:1.5;" x1="8" x2="58" y1="365.9688" y2="365.9688"/><text fill="#000000" font-family="sans-serif" font-size="11" lengthAdjust="spacing" textLength="37" x="13" y="380.1792">drive()</text><!--MD5=[75a950eaa3c958da064fdef7eb81a1f7]
class HealthcarePrice--><rect codeLine="39" fill="#FEFECE" filter="url(#fy7k4ofdol7af)" height="39.9688" id="HealthcarePrice" style="stroke:#A80036;stroke-width:1.5;" width="100" x="278" y="204"/><text fill="#000000" font-family="sans-serif" font-size="12" lengthAdjust="spacing" textLength="94" x="281" y="220.1387">HealthcarePrice</text><line style="stroke:#A80036;stroke-width:1.5;" x1="279" x2="377" y1="227.9688" y2="227.9688"/><line style="stroke:#A80036;stroke-width:1.5;" x1="279" x2="377" y1="235.9688" y2="235.9688"/><!--MD5=[a40a7ac4b423335b0d34bf16cf36e547]
class Price--><rect codeLine="44" fill="#FEFECE" filter="url(#fy7k4ofdol7af)" height="39.9688" id="Price" style="stroke:#A80036;stroke-width:1.5;" width="35" x="639.5" y="204"/><text fill="#000000" font-family="sans-serif" font-size="12" lengthAdjust="spacing" textLength="29" x="642.5" y="220.1387">Price</text><line style="stroke:#A80036;stroke-width:1.5;" x1="640.5" x2="673.5" y1="227.9688" y2="227.9688"/><line style="stroke:#A80036;stroke-width:1.5;" x1="640.5" x2="673.5" y1="235.9688" y2="235.9688"/><!--MD5=[4f1f3706c1a355a8488e154afcaed5df]
class Location--><rect codeLine="46" fill="#FEFECE" filter="url(#fy7k4ofdol7af)" height="52.7734" id="Location" style="stroke:#A80036;stroke-width:1.5;" width="59" x="178.5" y="696"/><text fill="#000000" font-family="sans-serif" font-size="12" lengthAdjust="spacing" textLength="50" x="183" y="712.1387">Location</text><line style="stroke:#A80036;stroke-width:1.5;" x1="179.5" x2="236.5" y1="719.9688" y2="719.9688"/><line style="stroke:#A80036;stroke-width:1.5;" x1="179.5" x2="236.5" y1="727.9688" y2="727.9688"/><text fill="#000000" font-family="sans-serif" font-size="11" lengthAdjust="spacing" textLength="47" x="184.5" y="742.1792">access()</text><!--MD5=[dab16d122782a892ddb6ee0eadcd68f0]
class Access--><rect codeLine="49" fill="#FEFECE" filter="url(#fy7k4ofdol7af)" height="52.7734" id="Access" style="stroke:#A80036;stroke-width:1.5;" width="62" x="623" y="515"/><text fill="#000000" font-family="sans-serif" font-size="12" lengthAdjust="spacing" textLength="44" x="632" y="531.1387">Access</text><line style="stroke:#A80036;stroke-width:1.5;" x1="624" x2="684" y1="538.9688" y2="538.9688"/><line style="stroke:#A80036;stroke-width:1.5;" x1="624" x2="684" y1="546.9688" y2="546.9688"/><text fill="#000000" font-family="sans-serif" font-size="11" lengthAdjust="spacing" textLength="50" x="629" y="561.1792">feature()</text><!--MD5=[b2bc021cc86aa2558e9589819995bf4e]
class Pricing--><rect codeLine="56" fill="#FEFECE" filter="url(#fy7k4ofdol7af)" height="52.7734" id="Pricing" style="stroke:#A80036;stroke-width:1.5;" width="49" x="94.5" y="334"/><text fill="#000000" font-family="sans-serif" font-size="12" lengthAdjust="spacing" textLength="39" x="99.5" y="350.1387">Pricing</text><line style="stroke:#A80036;stroke-width:1.5;" x1="95.5" x2="142.5" y1="357.9688" y2="357.9688"/><line style="stroke:#A80036;stroke-width:1.5;" x1="95.5" x2="142.5" y1="365.9688" y2="365.9688"/><text fill="#000000" font-family="sans-serif" font-size="11" lengthAdjust="spacing" textLength="37" x="100.5" y="380.1792">drive()</text><!--MD5=[ec81f511f4d20a18ef555a8be4cd58b8]
class Network--><rect codeLine="59" fill="#FEFECE" filter="url(#fy7k4ofdol7af)" height="39.9688" id="Network" style="stroke:#A80036;stroke-width:1.5;" width="56" x="436" y="204"/><text fill="#000000" font-family="sans-serif" font-size="12" lengthAdjust="spacing" textLength="50" x="439" y="220.1387">Network</text><line style="stroke:#A80036;stroke-width:1.5;" x1="437" x2="491" y1="227.9688" y2="227.9688"/><line style="stroke:#A80036;stroke-width:1.5;" x1="437" x2="491" y1="235.9688" y2="235.9688"/><!--MD5=[2111911de20d23797b72d0006c9bfe6f]
class Offering--><rect codeLine="61" fill="#FEFECE" filter="url(#fy7k4ofdol7af)" height="52.7734" id="Offering" style="stroke:#A80036;stroke-width:1.5;" width="55" x="296.5" y="334"/><text fill="#000000" font-family="sans-serif" font-size="12" lengthAdjust="spacing" textLength="49" x="299.5" y="350.1387">Offering</text><line style="stroke:#A80036;stroke-width:1.5;" x1="297.5" x2="350.5" y1="357.9688" y2="357.9688"/><line style="stroke:#A80036;stroke-width:1.5;" x1="297.5" x2="350.5" y1="365.9688" y2="365.9688"/><text fill="#000000" font-family="sans-serif" font-size="11" lengthAdjust="spacing" textLength="37" x="302.5" y="380.1792">drive()</text><!--MD5=[eb0e8f8ddfdc21c3fdb48447501fec67]
class Review--><rect codeLine="64" fill="#FEFECE" filter="url(#fy7k4ofdol7af)" height="39.9688" id="Review" style="stroke:#A80036;stroke-width:1.5;" width="49" x="549.5" y="204"/><text fill="#000000" font-family="sans-serif" font-size="12" lengthAdjust="spacing" textLength="43" x="552.5" y="220.1387">Review</text><line style="stroke:#A80036;stroke-width:1.5;" x1="550.5" x2="597.5" y1="227.9688" y2="227.9688"/><line style="stroke:#A80036;stroke-width:1.5;" x1="550.5" x2="597.5" y1="235.9688" y2="235.9688"/><!--MD5=[76b5e19c9337179d2d7ae334371d68c8]
class Notification--><rect codeLine="66" fill="#FEFECE" filter="url(#fy7k4ofdol7af)" height="39.9688" id="Notification" style="stroke:#A80036;stroke-width:1.5;" width="72" x="279" y="702.5"/><text fill="#000000" font-family="sans-serif" font-size="12" lengthAdjust="spacing" textLength="66" x="282" y="718.6387">Notification</text><line style="stroke:#A80036;stroke-width:1.5;" x1="280" x2="350" y1="726.4688" y2="726.4688"/><line style="stroke:#A80036;stroke-width:1.5;" x1="280" x2="350" y1="734.4688" y2="734.4688"/><!--MD5=[c4a230a62c72b1ee89d0ee03b7b563c6]
class PushContent--><rect codeLine="68" fill="#FEFECE" filter="url(#fy7k4ofdol7af)" height="39.9688" id="PushContent" style="stroke:#A80036;stroke-width:1.5;" width="79" x="386.5" y="702.5"/><text fill="#000000" font-family="sans-serif" font-size="12" lengthAdjust="spacing" textLength="73" x="389.5" y="718.6387">PushContent</text><line style="stroke:#A80036;stroke-width:1.5;" x1="387.5" x2="464.5" y1="726.4688" y2="726.4688"/><line style="stroke:#A80036;stroke-width:1.5;" x1="387.5" x2="464.5" y1="734.4688" y2="734.4688"/><!--MD5=[af8ed831b3fe9dbd380fec6c597723ab]
class Offer--><rect codeLine="70" fill="#FEFECE" filter="url(#fy7k4ofdol7af)" height="39.9688" id="Offer" style="stroke:#A80036;stroke-width:1.5;" width="37" x="522.5" y="826"/><text fill="#000000" font-family="sans-serif" font-size="12" lengthAdjust="spacing" textLength="31" x="525.5" y="842.1387">Offer</text><line style="stroke:#A80036;stroke-width:1.5;" x1="523.5" x2="558.5" y1="849.9688" y2="849.9688"/><line style="stroke:#A80036;stroke-width:1.5;" x1="523.5" x2="558.5" y1="857.9688" y2="857.9688"/><!--MD5=[7421f545a0d8420c5bec41e74b387d9c]
class Employee--><rect codeLine="72" fill="#FEFECE" filter="url(#fy7k4ofdol7af)" height="39.9688" id="Employee" style="stroke:#A80036;stroke-width:1.5;" width="66" x="710" y="204"/><text fill="#000000" font-family="sans-serif" font-size="12" lengthAdjust="spacing" textLength="60" x="713" y="220.1387">Employee</text><line style="stroke:#A80036;stroke-width:1.5;" x1="711" x2="775" y1="227.9688" y2="227.9688"/><line style="stroke:#A80036;stroke-width:1.5;" x1="711" x2="775" y1="235.9688" y2="235.9688"/><!--MD5=[6aa5b00f8ecb442ecb7c29fa9fced5e8]
link Provider to Offering--><path codeLine="74" d="M242.859,249.194 C258.92,259.291 276.138,272.15 289,287 C299.513,299.138 307.639,314.984 313.404,328.764 " fill="none" id="Provider-to-Offering" style="stroke:#A80036;stroke-width:1.0;"/><polygon fill="#A80036" points="315.42,333.737,315.7434,323.8935,313.5404,329.1037,308.3301,326.9008,315.42,333.737" style="stroke:#A80036;stroke-width:1.0;"/><text fill="#000000" font-family="sans-serif" font-size="13" lengthAdjust="spacing" textLength="36" x="302" y="300.0669">share</text><!--MD5=[6aa5b00f8ecb442ecb7c29fa9fced5e8]
link Provider to Offering--><path codeLine="87" d="M214.182,257.296 C223.108,272.417 234.888,290.111 248,304 C260.909,317.673 277.572,330.27 292.005,339.994 " fill="none" id="Provider-to-Offering-1" style="stroke:#A80036;stroke-width:1.0;"/><polygon fill="#A80036" points="296.405,342.918,291.1228,334.6054,292.2406,340.1508,286.6953,341.2685,296.405,342.918" style="stroke:#A80036;stroke-width:1.0;"/><text fill="#000000" font-family="sans-serif" font-size="13" lengthAdjust="spacing" textLength="31" x="249" y="300.0669">send</text><!--MD5=[c8b30d8dec4508dbd4a4ce662d9c3bf2]
link Offering to User--><path codeLine="75" d="M324,387.146 C324,405.997 324,432.733 324,458.614 " fill="none" id="Offering-to-User" style="stroke:#A80036;stroke-width:1.0;"/><polygon fill="#A80036" points="324,463.776,328,454.776,324,458.776,320,454.776,324,463.776" style="stroke:#A80036;stroke-width:1.0;"/><text fill="#000000" font-family="sans-serif" font-size="13" lengthAdjust="spacing" textLength="13" x="325" y="430.0669">to</text><!--MD5=[c6ac01c158124ef578e1979e8d427316]
reverse link User to Profile--><path codeLine="76" d="M369.645,580.152 C413.074,615.976 477.011,668.716 513.253,698.612 " fill="none" id="User-backto-Profile" style="stroke:#A80036;stroke-width:1.0;"/><polygon fill="#FFFFFF" points="359.348,571.658,361.431,578.5617,368.6048,579.2942,366.5218,572.3905,359.348,571.658" style="stroke:#A80036;stroke-width:1.0;"/><text fill="#000000" font-family="sans-serif" font-size="13" lengthAdjust="spacing" textLength="41" x="472" y="662.0669">create</text><!--MD5=[4ce54f844658504f2e8b921203ac3277]
link Profile to Offer--><path codeLine="77" d="M541,749.267 C541,770.3301 541,799.9042 541,820.5902 " fill="none" id="Profile-to-Offer" style="stroke:#A80036;stroke-width:1.0;"/><polygon fill="#A80036" points="541,825.6472,545,816.6472,541,820.6472,537,816.6472,541,825.6472" style="stroke:#A80036;stroke-width:1.0;"/><text fill="#000000" font-family="sans-serif" font-size="13" lengthAdjust="spacing" textLength="41" x="542" y="792.0669">attach</text><!--MD5=[f8e62fce92094be4a82b4c889b78a008]
reverse link User to Location--><path codeLine="78" d="M281.722,607.739 C261.913,638.307 239.457,672.958 224.589,695.901 " fill="none" id="User-backto-Location" style="stroke:#A80036;stroke-width:1.0;"/><polygon fill="#FFFFFF" points="288.881,596.692,282.2613,599.5519,282.3551,606.7624,288.9748,603.9025,288.881,596.692" style="stroke:#A80036;stroke-width:1.0;"/><text fill="#000000" font-family="sans-serif" font-size="13" lengthAdjust="spacing" textLength="24" x="254" y="662.0669">find</text><!--MD5=[bd51663eabd2d07f6a49286db90a224e]
link Access to CarePricing--><path codeLine="79" d="M652.997,568.146 C651.648,602.649 649.266,663.567 647.946,697.308 " fill="none" id="Access-to-CarePricing" style="stroke:#A80036;stroke-width:1.0;"/><polygon fill="#A80036" points="647.744,702.482,652.0933,693.6455,647.9397,697.4858,644.0994,693.3323,647.744,702.482" style="stroke:#A80036;stroke-width:1.0;"/><text fill="#000000" font-family="sans-serif" font-size="13" lengthAdjust="spacing" textLength="47" x="651" y="662.0669">feature</text><!--MD5=[6e75bbec5595801aea6f4b9ca891237a]
reverse link Corporation to Employee--><path codeLine="80" d="M712.165,108.266 C720.637,139.79 731.509,180.243 737.821,203.73 " fill="none" id="Corporation-backto-Employee" style="stroke:#A80036;stroke-width:1.0;"/><polygon fill="#FFFFFF" points="708.702,95.378,706.3965,102.2106,711.8168,106.9667,714.1223,100.1341,708.702,95.378" style="stroke:#A80036;stroke-width:1.0;"/><text fill="#000000" font-family="sans-serif" font-size="13" lengthAdjust="spacing" textLength="30" x="727" y="157.0669">view</text><!--MD5=[30b2c9714cfee71f43c3116fa44b8c34]
reverse link Health to CarePricing--><path codeLine="81" d="M575.175,573.723 C593.236,610.881 622.821,671.753 637.756,702.482 " fill="none" id="Health-backto-CarePricing" style="stroke:#A80036;stroke-width:1.0;"/><polygon fill="#FFFFFF" points="569.311,561.656,568.3361,568.8009,574.5564,572.4488,575.5313,565.3039,569.311,561.656" style="stroke:#A80036;stroke-width:1.0;"/><!--MD5=[130d2020c35399fa78e0453f3b67171c]
reverse link Health to Profile--><path codeLine="82" d="M556.575,574.767 C552.89,609.483 547.105,663.988 543.719,695.883 " fill="none" id="Health-backto-Profile" style="stroke:#A80036;stroke-width:1.0;"/><polygon fill="#FFFFFF" points="557.967,561.656,553.3557,567.2,556.6997,573.5889,561.311,568.0449,557.967,561.656" style="stroke:#A80036;stroke-width:1.0;"/><!--MD5=[40f982a3a92e37b465ed2c4e4df1ee5d]
link Provider to Pricing--><path codeLine="83" d="M156.196,257.186 C147.349,265.979 138.89,276.116 133,287 C126.16,299.641 122.626,315.115 120.814,328.517 " fill="none" id="Provider-to-Pricing" style="stroke:#A80036;stroke-width:1.0;"/><polygon fill="#A80036" points="120.18,333.733,125.2361,325.281,120.7829,328.7695,117.2945,324.3163,120.18,333.733" style="stroke:#A80036;stroke-width:1.0;"/><text fill="#000000" font-family="sans-serif" font-size="13" lengthAdjust="spacing" textLength="36" x="134" y="300.0669">share</text><!--MD5=[bad1bea03e0687d853dd9cf25d2270af]
link Consumer to Provider--><path codeLine="84" d="M375.979,96.964 C354.575,111.335 329.483,128.343 307,144 C286.64,158.178 264.376,174.09 245.236,187.897 " fill="none" id="Consumer-to-Provider" style="stroke:#A80036;stroke-width:1.0;"/><polygon fill="#A80036" points="240.949,190.992,250.587,188.9652,245.0024,188.0645,245.903,182.4798,240.949,190.992" style="stroke:#A80036;stroke-width:1.0;"/><text fill="#000000" font-family="sans-serif" font-size="13" lengthAdjust="spacing" textLength="26" x="308" y="157.0669">rate</text><!--MD5=[0174d71ea7781994b6150da48517456b]
link Location to Provider--><path codeLine="85" d="M207.431,695.828 C205.616,613.905 199.957,358.469 197.824,262.207 " fill="none" id="Location-to-Provider" style="stroke:#A80036;stroke-width:1.0;"/><polygon fill="#A80036" points="197.713,257.194,193.9146,266.2809,197.8244,262.1928,201.9126,266.1026,197.713,257.194" style="stroke:#A80036;stroke-width:1.0;"/><text fill="#000000" font-family="sans-serif" font-size="13" lengthAdjust="spacing" textLength="44" x="203" y="430.0669">access</text><!--MD5=[4e658c0d93fcbd2f125aaf67a2357d50]
link Consumer to Network--><path codeLine="86" d="M459.653,114.15 C464.341,123.734 468.438,133.918 471,144 C475.569,161.985 473.388,182.927 470.297,198.729 " fill="none" id="Consumer-to-Network" style="stroke:#A80036;stroke-width:1.0;"/><polygon fill="#A80036" points="469.222,203.879,474.9763,195.886,470.2435,198.9845,467.145,194.2516,469.222,203.879" style="stroke:#A80036;stroke-width:1.0;"/><text fill="#000000" font-family="sans-serif" font-size="13" lengthAdjust="spacing" textLength="22" x="475" y="157.0669">join</text><!--MD5=[4e658c0d93fcbd2f125aaf67a2357d50]
link Consumer to Network--><path codeLine="90" d="M416.149,114.224 C414.807,129.553 415.286,146.211 420,161 C424.534,175.224 433.651,188.982 442.416,199.909 " fill="none" id="Consumer-to-Network-1" style="stroke:#A80036;stroke-width:1.0;"/><polygon fill="#A80036" points="445.62,203.803,442.9888,194.3121,442.4425,199.9425,436.8121,199.3962,445.62,203.803" style="stroke:#A80036;stroke-width:1.0;"/><text fill="#000000" font-family="sans-serif" font-size="13" lengthAdjust="spacing" textLength="41" x="421" y="157.0669">create</text><!--MD5=[44ef1ec12018bf80af518d01c929521f]
link Corporation to Price--><path codeLine="88" d="M691.298,95.378 C683.074,125.981 670.921,171.202 663.506,198.791 " fill="none" id="Corporation-to-Price" style="stroke:#A80036;stroke-width:1.0;"/><polygon fill="#A80036" points="662.179,203.73,668.3791,196.0776,663.4775,198.9016,660.6536,194,662.179,203.73" style="stroke:#A80036;stroke-width:1.0;"/><text fill="#000000" font-family="sans-serif" font-size="13" lengthAdjust="spacing" textLength="30" x="679" y="157.0669">view</text><!--MD5=[a738a32d39989a2f3f1d529a7c091f2f]
link Consumer to Review--><path codeLine="89" d="M478.059,114.393 C487.459,124.125 497.108,134.297 506,144 C522.907,162.449 541.389,184.017 554.812,199.952 " fill="none" id="Consumer-to-Review" style="stroke:#A80036;stroke-width:1.0;"/><polygon fill="#A80036" points="558.112,203.877,555.3806,194.4145,554.8938,200.0503,549.258,199.5635,558.112,203.877" style="stroke:#A80036;stroke-width:1.0;"/><text fill="#000000" font-family="sans-serif" font-size="13" lengthAdjust="spacing" textLength="41" x="523" y="157.0669">create</text><!--MD5=[4dc4813d92a0ca0caa05972cc0e75c2f]
link Provider to Content--><path codeLine="91" d="M151.294,243.024 C128.466,253.533 101.4336,268.402 81,287 C67.9613,298.868 56.8287,314.998 48.5771,329.03 " fill="none" id="Provider-to-Content" style="stroke:#A80036;stroke-width:1.0;"/><polygon fill="#A80036" points="45.8905,333.699,53.8453,327.892,48.3835,329.3649,46.9106,323.9031,45.8905,333.699" style="stroke:#A80036;stroke-width:1.0;"/><text fill="#000000" font-family="sans-serif" font-size="13" lengthAdjust="spacing" textLength="36" x="82" y="300.0669">share</text><!--MD5=[2e2e530a658308b38e0151c4d25adf6b]
link User to Notification--><path codeLine="92" d="M320.144,619.191 C318.734,647.239 317.237,677.001 316.224,697.15 " fill="none" id="User-to-Notification" style="stroke:#A80036;stroke-width:1.0;"/><polygon fill="#A80036" points="315.965,702.313,320.4125,693.5255,316.2164,697.3193,312.4226,693.1233,315.965,702.313" style="stroke:#A80036;stroke-width:1.0;"/><text fill="#000000" font-family="sans-serif" font-size="13" lengthAdjust="spacing" textLength="29" x="320" y="662.0669">filter</text><!--MD5=[4c70a1c5dc37904c85c8b4ac891b729d]
link User to PushContent--><path codeLine="93" d="M359.103,604.102 C377.471,636.337 398.897,673.936 412.454,697.728 " fill="none" id="User-to-PushContent" style="stroke:#A80036;stroke-width:1.0;"/><polygon fill="#A80036" points="415.057,702.296,414.0762,692.4961,412.5814,697.9519,407.1256,696.4571,415.057,702.296" style="stroke:#A80036;stroke-width:1.0;"/><text fill="#000000" font-family="sans-serif" font-size="13" lengthAdjust="spacing" textLength="47" x="395" y="662.0669">receive</text><!--MD5=[93c3eb30abc1593250e58e77219a9752]
link Consumer to HealthcarePrice--><path codeLine="94" d="M375.923,109.109 C366.25,119.799 356.987,131.679 350,144 C340.41,160.913 334.791,182.262 331.635,198.502 " fill="none" id="Consumer-to-HealthcarePrice" style="stroke:#A80036;stroke-width:1.0;"/><polygon fill="#A80036" points="330.657,203.8,336.2234,195.6751,331.5641,198.883,328.3562,194.2237,330.657,203.8" style="stroke:#A80036;stroke-width:1.0;"/><text fill="#000000" font-family="sans-serif" font-size="13" lengthAdjust="spacing" textLength="57" x="351" y="157.0669">compare</text><!--MD5=[1e8ba339a7536c4b2d1ce087c9091381]
@startuml
hide circle
class Consumer<actor> {
}
class Corporation<actor> {
	employee
}
class Provider<actor> {
}
class User<actor> {
	profile
	location
}
class Health {
}
class Profile {
	attach()
}
class CarePricing {
}
class User {
	find()
	filter()
	create()
	connect()
	follow()
	have()
	receive()
}
class Content {
	drive()
}
class Consumer {
	rate()
	create()
	compare()
	join()
	register()
}
class HealthcarePrice {
}
class Corporation {
	view()
}
class Price {
}
class Location {
	access()
}
class Access {
	feature()
}
class Provider {
	send()
	share()
}
class Pricing {
	drive()
}
class Network {
}
class Offering {
	drive()
}
class Review {
}
class Notification {
}
class PushContent {
}
class Offer {
}
class Employee {
}
Provider - -> Offering : share
Offering - -> User : to
User o- - Profile : create
Profile - -> Offer : attach
User o- - Location : find
Access - -> CarePricing : feature
Corporation o- - Employee : view
Health o- - CarePricing
Health o- - Profile
Provider - -> Pricing : share
Consumer - -> Provider : rate
Location - -> Provider : access
Consumer - -> Network : join
Provider - -> Offering : send
Corporation - -> Price : view
Consumer - -> Review : create
Consumer - -> Network : create
Provider - -> Content : share
User - -> Notification : filter
User - -> PushContent : receive
Consumer - -> HealthcarePrice : compare
@enduml

PlantUML version 1.2021.10beta2(Unknown compile time)
(GPL source distribution)
Java Runtime: Java(TM) SE Runtime Environment
JVM: Java HotSpot(TM) 64-Bit Server VM
Default Encoding: UTF-8
Language: en
Country: US
--></g></svg>