<?xml version="1.0" encoding="UTF-8" standalone="no"?><svg xmlns="http://www.w3.org/2000/svg" xmlns:xlink="http://www.w3.org/1999/xlink" contentScriptType="application/ecmascript" contentStyleType="text/css" height="833px" preserveAspectRatio="none" style="width:1906px;height:833px;background:#FFFFFF;" version="1.1" viewBox="0 0 1906 833" width="1906px" zoomAndPan="magnify"><defs><filter height="300%" id="f1g3ih6dysxzu5" width="300%" x="-1" y="-1"><feGaussianBlur result="blurOut" stdDeviation="2.0"/><feColorMatrix in="blurOut" result="blurOut2" type="matrix" values="0 0 0 0 0 0 0 0 0 0 0 0 0 0 0 0 0 0 .4 0"/><feOffset dx="4.0" dy="4.0" in="blurOut2" result="blurOut3"/><feBlend in="SourceGraphic" in2="blurOut3" mode="normal"/></filter></defs><g><!--MD5=[67ea9f8eb7ab97465d83c225b092f5fe]
class Consumer--><rect codeLine="33" fill="#FEFECE" filter="url(#f1g3ih6dysxzu5)" height="308.8672" id="Consumer" style="stroke:#A80036;stroke-width:1.5;" width="102" x="960.8059" y="10"/><text fill="#000000" font-family="sans-serif" font-size="12" lengthAdjust="spacing" textLength="61" x="963.8059" y="26.1387">Consumer</text><rect fill="#FFFFFF" height="15.9688" style="stroke:#000000;stroke-width:1.0;stroke-dasharray:2.0,2.0;" width="33" x="1032.8059" y="7"/><text fill="#000000" font-family="sans-serif" font-size="12" font-style="italic" lengthAdjust="spacing" textLength="31" x="1033.8059" y="19.1387">actor</text><line style="stroke:#A80036;stroke-width:1.5;" x1="961.8059" x2="1061.8059" y1="33.9688" y2="33.9688"/><text fill="#000000" font-family="sans-serif" font-size="11" lengthAdjust="spacing" textLength="30" x="966.8059" y="48.1792">order</text><text fill="#000000" font-family="sans-serif" font-size="11" lengthAdjust="spacing" textLength="66" x="966.8059" y="60.9839">experience</text><text fill="#000000" font-family="sans-serif" font-size="11" lengthAdjust="spacing" textLength="49" x="966.8059" y="73.7886">occasion</text><text fill="#000000" font-family="sans-serif" font-size="11" lengthAdjust="spacing" textLength="69" x="966.8059" y="86.5933">orderHistory</text><line style="stroke:#A80036;stroke-width:1.5;" x1="961.8059" x2="1061.8059" y1="93.1875" y2="93.1875"/><text fill="#000000" font-family="sans-serif" font-size="11" lengthAdjust="spacing" textLength="41" x="966.8059" y="107.3979">check()</text><text fill="#000000" font-family="sans-serif" font-size="11" lengthAdjust="spacing" textLength="60" x="966.8059" y="120.2026">schedule()</text><text fill="#000000" font-family="sans-serif" font-size="11" lengthAdjust="spacing" textLength="27" x="966.8059" y="133.0073">get()</text><text fill="#000000" font-family="sans-serif" font-size="11" lengthAdjust="spacing" textLength="29" x="966.8059" y="145.812">buy()</text><text fill="#000000" font-family="sans-serif" font-size="11" lengthAdjust="spacing" textLength="35" x="966.8059" y="158.6167">view()</text><text fill="#000000" font-family="sans-serif" font-size="11" lengthAdjust="spacing" textLength="32" x="966.8059" y="171.4214">rank()</text><text fill="#000000" font-family="sans-serif" font-size="11" lengthAdjust="spacing" textLength="45" x="966.8059" y="184.2261">cancel()</text><text fill="#000000" font-family="sans-serif" font-size="11" lengthAdjust="spacing" textLength="39" x="966.8059" y="197.0308">place()</text><text fill="#000000" font-family="sans-serif" font-size="11" lengthAdjust="spacing" textLength="47" x="966.8059" y="209.8354">review()</text><text fill="#000000" font-family="sans-serif" font-size="11" lengthAdjust="spacing" textLength="35" x="966.8059" y="222.6401">track()</text><text fill="#000000" font-family="sans-serif" font-size="11" lengthAdjust="spacing" textLength="46" x="966.8059" y="235.4448">search()</text><text fill="#000000" font-family="sans-serif" font-size="11" lengthAdjust="spacing" textLength="35" x="966.8059" y="248.2495">want()</text><text fill="#000000" font-family="sans-serif" font-size="11" lengthAdjust="spacing" textLength="48" x="966.8059" y="261.0542">deliver()</text><text fill="#000000" font-family="sans-serif" font-size="11" lengthAdjust="spacing" textLength="52" x="966.8059" y="273.8589">receive()</text><text fill="#000000" font-family="sans-serif" font-size="11" lengthAdjust="spacing" textLength="28" x="966.8059" y="286.6636">talk()</text><text fill="#000000" font-family="sans-serif" font-size="11" lengthAdjust="spacing" textLength="40" x="966.8059" y="299.4683">make()</text><text fill="#000000" font-family="sans-serif" font-size="11" lengthAdjust="spacing" textLength="37" x="966.8059" y="312.2729">have()</text><!--MD5=[3e0e84c13e77e83e0682ce19d96d1ecd]
class Florist--><rect codeLine="19" fill="#FEFECE" filter="url(#f1g3ih6dysxzu5)" height="206.4297" id="Florist" style="stroke:#A80036;stroke-width:1.5;" width="101" x="616.3059" y="396"/><text fill="#000000" font-family="sans-serif" font-size="12" lengthAdjust="spacing" textLength="37" x="630.8059" y="412.1387">Florist</text><rect fill="#FFFFFF" height="15.9688" style="stroke:#000000;stroke-width:1.0;stroke-dasharray:2.0,2.0;" width="33" x="687.3059" y="393"/><text fill="#000000" font-family="sans-serif" font-size="12" font-style="italic" lengthAdjust="spacing" textLength="31" x="688.3059" y="405.1387">actor</text><line style="stroke:#A80036;stroke-width:1.5;" x1="617.3059" x2="716.3059" y1="419.9688" y2="419.9688"/><text fill="#000000" font-family="sans-serif" font-size="11" lengthAdjust="spacing" textLength="89" x="622.3059" y="434.1792">pastTransaction</text><text fill="#000000" font-family="sans-serif" font-size="11" lengthAdjust="spacing" textLength="42" x="622.3059" y="446.9839">service</text><text fill="#000000" font-family="sans-serif" font-size="11" lengthAdjust="spacing" textLength="69" x="622.3059" y="459.7886">orderHistory</text><line style="stroke:#A80036;stroke-width:1.5;" x1="617.3059" x2="716.3059" y1="466.3828" y2="466.3828"/><text fill="#000000" font-family="sans-serif" font-size="11" lengthAdjust="spacing" textLength="51" x="622.3059" y="480.5933">provide()</text><text fill="#000000" font-family="sans-serif" font-size="11" lengthAdjust="spacing" textLength="50" x="622.3059" y="493.3979">confirm()</text><text fill="#000000" font-family="sans-serif" font-size="11" lengthAdjust="spacing" textLength="45" x="622.3059" y="506.2026">cancel()</text><text fill="#000000" font-family="sans-serif" font-size="11" lengthAdjust="spacing" textLength="35" x="622.3059" y="519.0073">track()</text><text fill="#000000" font-family="sans-serif" font-size="11" lengthAdjust="spacing" textLength="45" x="622.3059" y="531.812">create()</text><text fill="#000000" font-family="sans-serif" font-size="11" lengthAdjust="spacing" textLength="46" x="622.3059" y="544.6167">upload()</text><text fill="#000000" font-family="sans-serif" font-size="11" lengthAdjust="spacing" textLength="52" x="622.3059" y="557.4214">receive()</text><text fill="#000000" font-family="sans-serif" font-size="11" lengthAdjust="spacing" textLength="48" x="622.3059" y="570.2261">market()</text><text fill="#000000" font-family="sans-serif" font-size="11" lengthAdjust="spacing" textLength="29" x="622.3059" y="583.0308">use()</text><text fill="#000000" font-family="sans-serif" font-size="11" lengthAdjust="spacing" textLength="37" x="622.3059" y="595.8354">have()</text><!--MD5=[2ce0c9fb7f55b1e256ab28a8ea6b25ec]
class Customer--><rect codeLine="58" fill="#FEFECE" filter="url(#f1g3ih6dysxzu5)" height="65.5781" id="Customer" style="stroke:#A80036;stroke-width:1.5;" width="99" x="752.3059" y="466"/><text fill="#000000" font-family="sans-serif" font-size="12" lengthAdjust="spacing" textLength="58" x="755.3059" y="482.1387">Customer</text><rect fill="#FFFFFF" height="15.9688" style="stroke:#000000;stroke-width:1.0;stroke-dasharray:2.0,2.0;" width="33" x="821.3059" y="463"/><text fill="#000000" font-family="sans-serif" font-size="12" font-style="italic" lengthAdjust="spacing" textLength="31" x="822.3059" y="475.1387">actor</text><line style="stroke:#A80036;stroke-width:1.5;" x1="753.3059" x2="850.3059" y1="489.9688" y2="489.9688"/><line style="stroke:#A80036;stroke-width:1.5;" x1="753.3059" x2="850.3059" y1="497.9688" y2="497.9688"/><text fill="#000000" font-family="sans-serif" font-size="11" lengthAdjust="spacing" textLength="52" x="758.3059" y="512.1792">receive()</text><text fill="#000000" font-family="sans-serif" font-size="11" lengthAdjust="spacing" textLength="45" x="758.3059" y="524.9839">create()</text><!--MD5=[7bff1aba3b0d0725284345139f4478e9]
class History--><rect codeLine="15" fill="#FEFECE" filter="url(#f1g3ih6dysxzu5)" height="39.9688" id="History" style="stroke:#A80036;stroke-width:1.5;" width="49" x="164.3059" y="780"/><text fill="#000000" font-family="sans-serif" font-size="12" lengthAdjust="spacing" textLength="43" x="167.3059" y="796.1387">History</text><line style="stroke:#A80036;stroke-width:1.5;" x1="165.3059" x2="212.3059" y1="803.9688" y2="803.9688"/><line style="stroke:#A80036;stroke-width:1.5;" x1="165.3059" x2="212.3059" y1="811.9688" y2="811.9688"/><!--MD5=[e3d83ec5fd90ea9f3f2bfe265cb53458]
class Status--><rect codeLine="17" fill="#FEFECE" filter="url(#f1g3ih6dysxzu5)" height="39.9688" id="Status" style="stroke:#A80036;stroke-width:1.5;" width="43" x="361.3059" y="679"/><text fill="#000000" font-family="sans-serif" font-size="12" lengthAdjust="spacing" textLength="37" x="364.3059" y="695.1387">Status</text><line style="stroke:#A80036;stroke-width:1.5;" x1="362.3059" x2="403.3059" y1="702.9688" y2="702.9688"/><line style="stroke:#A80036;stroke-width:1.5;" x1="362.3059" x2="403.3059" y1="710.9688" y2="710.9688"/><!--MD5=[b582e6ce3c86f1934c1c2f1f310142ca]
class Catalog--><rect codeLine="31" fill="#FEFECE" filter="url(#f1g3ih6dysxzu5)" height="39.9688" id="Catalog" style="stroke:#A80036;stroke-width:1.5;" width="51" x="686.3059" y="679"/><text fill="#000000" font-family="sans-serif" font-size="12" lengthAdjust="spacing" textLength="45" x="689.3059" y="695.1387">Catalog</text><line style="stroke:#A80036;stroke-width:1.5;" x1="687.3059" x2="736.3059" y1="702.9688" y2="702.9688"/><line style="stroke:#A80036;stroke-width:1.5;" x1="687.3059" x2="736.3059" y1="710.9688" y2="710.9688"/><!--MD5=[eb0e8f8ddfdc21c3fdb48447501fec67]
class Review--><rect codeLine="52" fill="#FEFECE" filter="url(#f1g3ih6dysxzu5)" height="39.9688" id="Review" style="stroke:#A80036;stroke-width:1.5;" width="49" x="886.3059" y="479"/><text fill="#000000" font-family="sans-serif" font-size="12" lengthAdjust="spacing" textLength="43" x="889.3059" y="495.1387">Review</text><line style="stroke:#A80036;stroke-width:1.5;" x1="887.3059" x2="934.3059" y1="502.9688" y2="502.9688"/><line style="stroke:#A80036;stroke-width:1.5;" x1="887.3059" x2="934.3059" y1="510.9688" y2="510.9688"/><!--MD5=[5c85d133e2c913f4b8608c8db253c015]
class Record--><rect codeLine="54" fill="#FEFECE" filter="url(#f1g3ih6dysxzu5)" height="39.9688" id="Record" style="stroke:#A80036;stroke-width:1.5;" width="49" x="510.3059" y="679"/><text fill="#000000" font-family="sans-serif" font-size="12" lengthAdjust="spacing" textLength="43" x="513.3059" y="695.1387">Record</text><line style="stroke:#A80036;stroke-width:1.5;" x1="511.3059" x2="558.3059" y1="702.9688" y2="702.9688"/><line style="stroke:#A80036;stroke-width:1.5;" x1="511.3059" x2="558.3059" y1="710.9688" y2="710.9688"/><!--MD5=[cf4d6237fcae255cd2e1656cf84a30e2]
class Order--><rect codeLine="56" fill="#FEFECE" filter="url(#f1g3ih6dysxzu5)" height="39.9688" id="Order" style="stroke:#A80036;stroke-width:1.5;" width="42" x="167.8059" y="679"/><text fill="#000000" font-family="sans-serif" font-size="12" lengthAdjust="spacing" textLength="36" x="170.8059" y="695.1387">Order</text><line style="stroke:#A80036;stroke-width:1.5;" x1="168.8059" x2="208.8059" y1="702.9688" y2="702.9688"/><line style="stroke:#A80036;stroke-width:1.5;" x1="168.8059" x2="208.8059" y1="710.9688" y2="710.9688"/><!--MD5=[7b57f7066b803747d2119f99dd1555d4]
class Profile--><rect codeLine="62" fill="#FEFECE" filter="url(#f1g3ih6dysxzu5)" height="39.9688" id="Profile" style="stroke:#A80036;stroke-width:1.5;" width="43" x="1173.3039" y="679"/><text fill="#000000" font-family="sans-serif" font-size="12" lengthAdjust="spacing" textLength="37" x="1176.3039" y="695.1387">Profile</text><line style="stroke:#A80036;stroke-width:1.5;" x1="1174.3039" x2="1215.3039" y1="702.9688" y2="702.9688"/><line style="stroke:#A80036;stroke-width:1.5;" x1="1174.3039" x2="1215.3039" y1="710.9688" y2="710.9688"/><!--MD5=[c508b5b6bbe276ff5e2700b6641f837f]
class Appointment--><rect codeLine="64" fill="#FEFECE" filter="url(#f1g3ih6dysxzu5)" height="39.9688" id="Appointment" style="stroke:#A80036;stroke-width:1.5;" width="82" x="970.8059" y="479"/><text fill="#000000" font-family="sans-serif" font-size="12" lengthAdjust="spacing" textLength="76" x="973.8059" y="495.1387">Appointment</text><line style="stroke:#A80036;stroke-width:1.5;" x1="971.8059" x2="1051.8059" y1="502.9688" y2="502.9688"/><line style="stroke:#A80036;stroke-width:1.5;" x1="971.8059" x2="1051.8059" y1="510.9688" y2="510.9688"/><!--MD5=[3db53164d4ddbdea4156eda8a776d7e7]
class Decision--><rect codeLine="66" fill="#FEFECE" filter="url(#f1g3ih6dysxzu5)" height="39.9688" id="Decision" style="stroke:#A80036;stroke-width:1.5;" width="58" x="1087.8039" y="479"/><text fill="#000000" font-family="sans-serif" font-size="12" lengthAdjust="spacing" textLength="52" x="1090.8039" y="495.1387">Decision</text><line style="stroke:#A80036;stroke-width:1.5;" x1="1088.8039" x2="1144.8039" y1="502.9688" y2="502.9688"/><line style="stroke:#A80036;stroke-width:1.5;" x1="1088.8039" x2="1144.8039" y1="510.9688" y2="510.9688"/><!--MD5=[725313703c1e3e4d64f1ae5c6c9a7b2b]
class Refundconsumer--><rect codeLine="68" fill="#FEFECE" filter="url(#f1g3ih6dysxzu5)" height="39.9688" id="Refundconsumer" style="stroke:#A80036;stroke-width:1.5;" width="107" x="877.3059" y="679"/><text fill="#000000" font-family="sans-serif" font-size="12" lengthAdjust="spacing" textLength="101" x="880.3059" y="695.1387">Refundconsumer</text><line style="stroke:#A80036;stroke-width:1.5;" x1="878.3059" x2="983.3059" y1="702.9688" y2="702.9688"/><line style="stroke:#A80036;stroke-width:1.5;" x1="878.3059" x2="983.3059" y1="710.9688" y2="710.9688"/><!--MD5=[8dce5be27b88f5328a055380ca382252]
class Ranking--><rect codeLine="70" fill="#FEFECE" filter="url(#f1g3ih6dysxzu5)" height="39.9688" id="Ranking" style="stroke:#A80036;stroke-width:1.5;" width="52" x="1180.8039" y="479"/><text fill="#000000" font-family="sans-serif" font-size="12" lengthAdjust="spacing" textLength="46" x="1183.8039" y="495.1387">Ranking</text><line style="stroke:#A80036;stroke-width:1.5;" x1="1181.8039" x2="1231.8039" y1="502.9688" y2="502.9688"/><line style="stroke:#A80036;stroke-width:1.5;" x1="1181.8039" x2="1231.8039" y1="510.9688" y2="510.9688"/><!--MD5=[fa3eb94fb0c26490875283805236d9ad]
class MarketAnalyticTool--><rect codeLine="72" fill="#FEFECE" filter="url(#f1g3ih6dysxzu5)" height="39.9688" id="MarketAnalyticTool" style="stroke:#A80036;stroke-width:1.5;" width="119" x="1019.3059" y="679"/><text fill="#000000" font-family="sans-serif" font-size="12" lengthAdjust="spacing" textLength="113" x="1022.3059" y="695.1387">MarketAnalyticTool</text><line style="stroke:#A80036;stroke-width:1.5;" x1="1020.3059" x2="1137.3059" y1="702.9688" y2="702.9688"/><line style="stroke:#A80036;stroke-width:1.5;" x1="1020.3059" x2="1137.3059" y1="710.9688" y2="710.9688"/><!--MD5=[ac13618b1a974308c1f12eb6c57723dc]
class Event--><rect codeLine="74" fill="#FEFECE" filter="url(#f1g3ih6dysxzu5)" height="39.9688" id="Event" style="stroke:#A80036;stroke-width:1.5;" width="39" x="1268.3039" y="479"/><text fill="#000000" font-family="sans-serif" font-size="12" lengthAdjust="spacing" textLength="33" x="1271.3039" y="495.1387">Event</text><line style="stroke:#A80036;stroke-width:1.5;" x1="1269.3039" x2="1306.3039" y1="502.9688" y2="502.9688"/><line style="stroke:#A80036;stroke-width:1.5;" x1="1269.3039" x2="1306.3039" y1="510.9688" y2="510.9688"/><!--MD5=[8723dfa379bb59f219e19ffc90261ee2]
class Shoppingexperience--><rect codeLine="76" fill="#FEFECE" filter="url(#f1g3ih6dysxzu5)" height="39.9688" id="Shoppingexperience" style="stroke:#A80036;stroke-width:1.5;" width="132" x="1342.8039" y="479"/><text fill="#000000" font-family="sans-serif" font-size="12" lengthAdjust="spacing" textLength="126" x="1345.8039" y="495.1387">Shoppingexperience</text><line style="stroke:#A80036;stroke-width:1.5;" x1="1343.8039" x2="1473.8039" y1="502.9688" y2="502.9688"/><line style="stroke:#A80036;stroke-width:1.5;" x1="1343.8039" x2="1473.8039" y1="510.9688" y2="510.9688"/><!--MD5=[30fd7b95ab383a5e7c83ea23d4ea0fbf]
class Information--><rect codeLine="78" fill="#FEFECE" filter="url(#f1g3ih6dysxzu5)" height="39.9688" id="Information" style="stroke:#A80036;stroke-width:1.5;" width="73" x="1510.3039" y="479"/><text fill="#000000" font-family="sans-serif" font-size="12" lengthAdjust="spacing" textLength="67" x="1513.3039" y="495.1387">Information</text><line style="stroke:#A80036;stroke-width:1.5;" x1="1511.3039" x2="1582.3039" y1="502.9688" y2="502.9688"/><line style="stroke:#A80036;stroke-width:1.5;" x1="1511.3039" x2="1582.3039" y1="510.9688" y2="510.9688"/><!--MD5=[dbb8b4f13c7b21394f9d757e58732f45]
class Service--><rect codeLine="80" fill="#FEFECE" filter="url(#f1g3ih6dysxzu5)" height="39.9688" id="Service" style="stroke:#A80036;stroke-width:1.5;" width="52" x="1251.8039" y="679"/><text fill="#000000" font-family="sans-serif" font-size="12" lengthAdjust="spacing" textLength="46" x="1254.8039" y="695.1387">Service</text><line style="stroke:#A80036;stroke-width:1.5;" x1="1252.8039" x2="1302.8039" y1="702.9688" y2="702.9688"/><line style="stroke:#A80036;stroke-width:1.5;" x1="1252.8039" x2="1302.8039" y1="710.9688" y2="710.9688"/><!--MD5=[b07065dfc0d0e09965ec10bfc328bb3e]
class Option--><rect codeLine="82" fill="#FEFECE" filter="url(#f1g3ih6dysxzu5)" height="39.9688" id="Option" style="stroke:#A80036;stroke-width:1.5;" width="46" x="1618.8039" y="479"/><text fill="#000000" font-family="sans-serif" font-size="12" lengthAdjust="spacing" textLength="40" x="1621.8039" y="495.1387">Option</text><line style="stroke:#A80036;stroke-width:1.5;" x1="1619.8039" x2="1663.8039" y1="502.9688" y2="502.9688"/><line style="stroke:#A80036;stroke-width:1.5;" x1="1619.8039" x2="1663.8039" y1="510.9688" y2="510.9688"/><!--MD5=[e6be9de0646ff5543d7ea01b9ba84c48]
class FlowerSeeker--><rect codeLine="84" fill="#FEFECE" filter="url(#f1g3ih6dysxzu5)" height="39.9688" id="FlowerSeeker" style="stroke:#A80036;stroke-width:1.5;" width="91" x="1339.3039" y="679"/><text fill="#000000" font-family="sans-serif" font-size="12" lengthAdjust="spacing" textLength="85" x="1342.3039" y="695.1387">FlowerSeeker</text><line style="stroke:#A80036;stroke-width:1.5;" x1="1340.3039" x2="1429.3039" y1="702.9688" y2="702.9688"/><line style="stroke:#A80036;stroke-width:1.5;" x1="1340.3039" x2="1429.3039" y1="710.9688" y2="710.9688"/><!--MD5=[4a7c0def0655f5e0723ce9f5f6c1a8ef]
class Convenience--><rect codeLine="86" fill="#FEFECE" filter="url(#f1g3ih6dysxzu5)" height="39.9688" id="Convenience" style="stroke:#A80036;stroke-width:1.5;" width="84" x="1699.8039" y="479"/><text fill="#000000" font-family="sans-serif" font-size="12" lengthAdjust="spacing" textLength="78" x="1702.8039" y="495.1387">Convenience</text><line style="stroke:#A80036;stroke-width:1.5;" x1="1700.8039" x2="1782.8039" y1="502.9688" y2="502.9688"/><line style="stroke:#A80036;stroke-width:1.5;" x1="1700.8039" x2="1782.8039" y1="510.9688" y2="510.9688"/><!--MD5=[764fca796ce7f635542948d8fc39db5e]
class Payment--><rect codeLine="88" fill="#FEFECE" filter="url(#f1g3ih6dysxzu5)" height="39.9688" id="Payment" style="stroke:#A80036;stroke-width:1.5;" width="56" x="594.8059" y="679"/><text fill="#000000" font-family="sans-serif" font-size="12" lengthAdjust="spacing" textLength="50" x="597.8059" y="695.1387">Payment</text><line style="stroke:#A80036;stroke-width:1.5;" x1="595.8059" x2="649.8059" y1="702.9688" y2="702.9688"/><line style="stroke:#A80036;stroke-width:1.5;" x1="595.8059" x2="649.8059" y1="710.9688" y2="710.9688"/><!--MD5=[6016c9c5425d34ae3d7a539916a91923]
class Recommendation--><rect codeLine="90" fill="#FEFECE" filter="url(#f1g3ih6dysxzu5)" height="39.9688" id="Recommendation" style="stroke:#A80036;stroke-width:1.5;" width="110" x="1465.8039" y="679"/><text fill="#000000" font-family="sans-serif" font-size="12" lengthAdjust="spacing" textLength="104" x="1468.8039" y="695.1387">Recommendation</text><line style="stroke:#A80036;stroke-width:1.5;" x1="1466.8039" x2="1574.8039" y1="702.9688" y2="702.9688"/><line style="stroke:#A80036;stroke-width:1.5;" x1="1466.8039" x2="1574.8039" y1="710.9688" y2="710.9688"/><!--MD5=[72136138052d025cffdce3c22fbd185f]
class Product--><rect codeLine="92" fill="#FEFECE" filter="url(#f1g3ih6dysxzu5)" height="39.9688" id="Product" style="stroke:#A80036;stroke-width:1.5;" width="51" x="368.3059" y="479"/><text fill="#000000" font-family="sans-serif" font-size="12" lengthAdjust="spacing" textLength="45" x="371.3059" y="495.1387">Product</text><line style="stroke:#A80036;stroke-width:1.5;" x1="369.3059" x2="418.3059" y1="502.9688" y2="502.9688"/><line style="stroke:#A80036;stroke-width:1.5;" x1="369.3059" x2="418.3059" y1="510.9688" y2="510.9688"/><!--MD5=[572ed6b619d9df2e4892c2de18186e7d]
class Experience--><rect codeLine="94" fill="#FEFECE" filter="url(#f1g3ih6dysxzu5)" height="39.9688" id="Experience" style="stroke:#A80036;stroke-width:1.5;" width="74" x="1818.8039" y="479"/><text fill="#000000" font-family="sans-serif" font-size="12" lengthAdjust="spacing" textLength="68" x="1821.8039" y="495.1387">Experience</text><line style="stroke:#A80036;stroke-width:1.5;" x1="1819.8039" x2="1891.8039" y1="502.9688" y2="502.9688"/><line style="stroke:#A80036;stroke-width:1.5;" x1="1819.8039" x2="1891.8039" y1="510.9688" y2="510.9688"/><!--MD5=[6cbe00a371938127b153bdb9345e6bb9]
link Consumer to Product--><path codeLine="96" d="M960.4689,171.05 C858.0879,184.502 625.7479,227.235 478.8059,349 C438.2109,382.639 413.1129,441.006 401.4919,473.815 " fill="none" id="Consumer-to-Product" style="stroke:#A80036;stroke-width:1.0;"/><polygon fill="#A80036" points="399.7419,478.853,406.4729,471.6631,401.3821,474.1297,398.9155,469.0389,399.7419,478.853" style="stroke:#A80036;stroke-width:1.0;"/><text fill="#000000" font-family="sans-serif" font-size="13" lengthAdjust="spacing" textLength="28" x="479.8059" y="362.0669">rank</text><!--MD5=[3dcf6d79e9ed3e1807120ac8bd7d0080]
link Consumer to Record--><path codeLine="97" d="M960.7519,175.267 C864.9529,196.544 659.3969,256.799 564.8059,396 C505.4219,483.39 520.6639,619.177 530.0569,673.918 " fill="none" id="Consumer-to-Record" style="stroke:#A80036;stroke-width:1.0;"/><polygon fill="#A80036" points="530.9449,678.958,533.3234,669.4007,530.0778,674.0338,525.4447,670.7881,530.9449,678.958" style="stroke:#A80036;stroke-width:1.0;"/><text fill="#000000" font-family="sans-serif" font-size="13" lengthAdjust="spacing" textLength="32" x="565.8059" y="503.5669">have</text><!--MD5=[0434731a586382526579be451f170ef2]
link Consumer to Florist--><path codeLine="98" d="M960.7649,200.969 C902.1259,243.224 804.9789,317.962 734.8059,396 C729.9499,401.4 725.1799,407.174 720.5599,413.124 " fill="none" id="Consumer-to-Florist" style="stroke:#A80036;stroke-width:1.0;"/><polygon fill="#A80036" points="717.3859,417.27,726.0324,412.5543,720.4248,413.2995,719.6796,407.692,717.3859,417.27" style="stroke:#A80036;stroke-width:1.0;"/><text fill="#000000" font-family="sans-serif" font-size="13" lengthAdjust="spacing" textLength="88" x="776.8059" y="362.0669">supported_by</text><!--MD5=[c1528dc0dff0c09151988b7dd19d0a73]
link Florist to Record--><path codeLine="99" d="M616.1489,575.986 C592.7409,611.098 566.6069,650.299 550.4309,674.562 " fill="none" id="Florist-to-Record" style="stroke:#A80036;stroke-width:1.0;"/><polygon fill="#A80036" points="547.5299,678.914,555.8492,673.6424,550.3024,674.7531,549.1917,669.2064,547.5299,678.914" style="stroke:#A80036;stroke-width:1.0;"/><text fill="#000000" font-family="sans-serif" font-size="13" lengthAdjust="spacing" textLength="32" x="578.8059" y="645.0669">have</text><!--MD5=[55e5a9ecf7b5acd322454dfb3d1a9909]
reverse link Product to Status--><path codeLine="100" d="M375.4949,530.905 C361.2329,556.877 342.5909,595.502 334.8059,632 C333.2299,639.389 331.9499,642.005 334.8059,649 C340.2059,662.23 351.0909,673.824 361.1309,682.408 " fill="none" id="Product-backto-Status" style="stroke:#A80036;stroke-width:1.0;"/><polygon fill="#FFFFFF" points="382.0789,519.236,375.6471,522.4966,376.1831,529.6878,382.6149,526.4272,382.0789,519.236" style="stroke:#A80036;stroke-width:1.0;"/><!--MD5=[231a075534f25bd8c9f21d6c51f205c4]
reverse link Consumer to Order--><path codeLine="101" d="M947.4819,169.868 C808.6889,181.509 473.7939,221.656 227.8059,349 C113.7861,408.026 171.1659,503.615 169.8059,632 C169.7259,639.555 168.4159,641.573 169.8059,649 C171.7189,659.224 175.6959,670.059 179.5189,678.934 " fill="none" id="Consumer-backto-Order" style="stroke:#A80036;stroke-width:1.0;"/><polygon fill="#FFFFFF" points="960.6839,168.797,954.3804,165.2947,948.7231,169.7663,955.0266,173.2686,960.6839,168.797" style="stroke:#A80036;stroke-width:1.0;"/><text fill="#000000" font-family="sans-serif" font-size="13" lengthAdjust="spacing" textLength="34" x="174.8059" y="503.5669">place</text><!--MD5=[231a075534f25bd8c9f21d6c51f205c4]
reverse link Consumer to Order--><path codeLine="104" d="M947.2679,169.414 C812.8549,180.903 500.1859,225.477 316.8059,396 C272.3929,437.299 213.2749,618.941 194.6679,678.796 " fill="none" id="Consumer-backto-Order-1" style="stroke:#A80036;stroke-width:1.0;"/><polygon fill="#FFFFFF" points="960.4729,168.344,954.1694,164.8416,948.5121,169.3132,954.8156,172.8155,960.4729,168.344" style="stroke:#A80036;stroke-width:1.0;"/><text fill="#000000" font-family="sans-serif" font-size="13" lengthAdjust="spacing" textLength="32" x="317.8059" y="503.5669">track</text><!--MD5=[231a075534f25bd8c9f21d6c51f205c4]
reverse link Consumer to Order--><path codeLine="127" d="M947.3269,170.618 C755.1439,187.467 194.0879,248.765 105.8058,396 C58.724,474.522 73.8575,516.199 105.8058,602 C118.1068,635.036 147.4529,664.277 167.7339,681.562 " fill="none" id="Consumer-backto-Order-2" style="stroke:#A80036;stroke-width:1.0;"/><polygon fill="#FFFFFF" points="960.5149,169.481,954.1933,166.0114,948.5593,170.5122,954.8808,173.9818,960.5149,169.481" style="stroke:#A80036;stroke-width:1.0;"/><text fill="#000000" font-family="sans-serif" font-size="13" lengthAdjust="spacing" textLength="41" x="106.8058" y="503.5669">cancel</text><!--MD5=[6966e4c3665d06babc99cc7d844d0dc3]
link Customer to Profile--><path codeLine="102" d="M814.1329,532.313 C824.8639,555.747 842.8149,586.023 868.8059,602 C969.7829,664.072 1028.0609,578.453 1133.8039,632 C1152.8939,641.664 1169.0339,659.909 1179.9039,674.77 " fill="none" id="Customer-to-Profile" style="stroke:#A80036;stroke-width:1.0;"/><polygon fill="#A80036" points="1182.8339,678.862,1180.841,669.2169,1179.9207,674.7984,1174.3392,673.878,1182.8339,678.862" style="stroke:#A80036;stroke-width:1.0;"/><text fill="#000000" font-family="sans-serif" font-size="13" lengthAdjust="spacing" textLength="41" x="1156.8039" y="645.0669">create</text><!--MD5=[16071f9d299ebcf38005947182da931f]
link Florist to History--><path codeLine="103" d="M717.4519,575.964 C735.4729,603.317 751.6529,628.402 752.8059,632 C764.6039,668.833 780.1689,689.8 754.8059,719 C684.0879,800.4159 325.5169,801.2531 218.8059,799.6483 " fill="none" id="Florist-to-History" style="stroke:#A80036;stroke-width:1.0;"/><polygon fill="#A80036" points="213.6199,799.5654,222.5547,803.7089,218.6193,799.6454,222.6827,795.7099,213.6199,799.5654" style="stroke:#A80036;stroke-width:1.0;"/><text fill="#000000" font-family="sans-serif" font-size="13" lengthAdjust="spacing" textLength="32" x="769.8059" y="703.5669">track</text><!--MD5=[20bbd8a62e9bc2387e0e40df676e6c06]
reverse link Florist to Order--><path codeLine="105" d="M606.5249,581.029 C597.4019,589.223 587.4469,596.526 576.8059,602 C460.7939,661.676 407.2529,586.979 284.8059,632 C256.3309,642.469 228.2659,663.329 209.9069,678.809 " fill="none" id="Florist-backto-Order" style="stroke:#A80036;stroke-width:1.0;"/><polygon fill="#FFFFFF" points="616.0919,571.833,608.9943,573.1074,607.4408,580.1491,614.5384,578.8748,616.0919,571.833" style="stroke:#A80036;stroke-width:1.0;"/><text fill="#000000" font-family="sans-serif" font-size="13" lengthAdjust="spacing" textLength="41" x="285.8059" y="645.0669">cancel</text><!--MD5=[20bbd8a62e9bc2387e0e40df676e6c06]
reverse link Florist to Order--><path codeLine="107" d="M606.9179,579.309 C597.6339,587.977 587.5329,595.865 576.8059,602 C515.8959,636.834 490.0669,615.757 421.8059,632 C342.8669,650.784 250.5219,678.758 209.8509,691.389 " fill="none" id="Florist-backto-Order-1" style="stroke:#A80036;stroke-width:1.0;"/><polygon fill="#FFFFFF" points="616.2889,570.034,609.2106,571.4114,607.7596,578.475,614.8379,577.0976,616.2889,570.034" style="stroke:#A80036;stroke-width:1.0;"/><text fill="#000000" font-family="sans-serif" font-size="13" lengthAdjust="spacing" textLength="49" x="422.8059" y="645.0669">confirm</text><!--MD5=[6d3e05a8613df1ec5a6822b82839e883]
reverse link Order to History--><path codeLine="106" d="M188.8059,732.0896 C188.8059,747.8999 188.8059,766.4259 188.8059,779.9704 " fill="none" id="Order-backto-History" style="stroke:#A80036;stroke-width:1.0;"/><polygon fill="#FFFFFF" points="188.8059,719.088,184.8059,725.088,188.8059,731.088,192.8059,725.088,188.8059,719.088" style="stroke:#A80036;stroke-width:1.0;"/><!--MD5=[67f0d23a9257f050d08899b28bc473f1]
reverse link Florist to Service--><path codeLine="108" d="M727.6719,597.397 C729.9799,599.048 732.3569,600.588 734.8059,602 C825.8499,654.508 1110.2539,590.473 1206.8039,632 C1230.1539,642.041 1250.6539,663.199 1263.5539,678.866 " fill="none" id="Florist-backto-Service" style="stroke:#A80036;stroke-width:1.0;"/><polygon fill="#FFFFFF" points="717.3839,588.924,719.4728,595.8259,726.6473,596.5523,724.5583,589.6503,717.3839,588.924" style="stroke:#A80036;stroke-width:1.0;"/><text fill="#000000" font-family="sans-serif" font-size="13" lengthAdjust="spacing" textLength="46" x="1234.8039" y="645.0669">market</text><!--MD5=[0e639e78fd62fefc1878e590497ae9b9]
link Consumer to Appointment--><path codeLine="109" d="M1011.8059,319.097 C1011.8059,378.859 1011.8059,440.813 1011.8059,473.832 " fill="none" id="Consumer-to-Appointment" style="stroke:#A80036;stroke-width:1.0;"/><polygon fill="#A80036" points="1011.8059,478.878,1015.8059,469.878,1011.8059,473.878,1007.8059,469.878,1011.8059,478.878" style="stroke:#A80036;stroke-width:1.0;"/><text fill="#000000" font-family="sans-serif" font-size="13" lengthAdjust="spacing" textLength="57" x="1012.8059" y="362.0669">schedule</text><!--MD5=[f118a8b64c238b7a8853289dba2ab54e]
link Florist to Catalog--><path codeLine="110" d="M690.0309,602.19 C696.1199,628.984 702.1389,655.466 706.2999,673.775 " fill="none" id="Florist-to-Catalog" style="stroke:#A80036;stroke-width:1.0;"/><polygon fill="#A80036" points="707.4229,678.716,709.328,669.0532,706.3144,673.8404,701.5271,670.8268,707.4229,678.716" style="stroke:#A80036;stroke-width:1.0;"/><text fill="#000000" font-family="sans-serif" font-size="13" lengthAdjust="spacing" textLength="43" x="700.8059" y="645.0669">upload</text><!--MD5=[a67ba1665fce0c099980a137a5bd2339]
link Consumer to Option--><path codeLine="111" d="M1063.0439,170.68 C1176.7339,184.926 1451.8139,235.029 1600.8039,396 C1621.1739,418.006 1631.9839,451.421 1637.2939,473.952 " fill="none" id="Consumer-to-Option" style="stroke:#A80036;stroke-width:1.0;"/><polygon fill="#A80036" points="1638.4139,478.867,1640.3252,469.2054,1637.3085,473.9907,1632.5232,470.974,1638.4139,478.867" style="stroke:#A80036;stroke-width:1.0;"/><text fill="#000000" font-family="sans-serif" font-size="13" lengthAdjust="spacing" textLength="32" x="1565.8039" y="362.0669">have</text><!--MD5=[6eeb5ad543117638e81dfbde3d4ca61d]
link Consumer to Decision--><path codeLine="112" d="M1062.8639,303.326 C1068.1039,318.671 1073.1939,334.125 1077.8039,349 C1091.2839,392.458 1104.0739,443.972 1111.1339,473.634 " fill="none" id="Consumer-to-Decision" style="stroke:#A80036;stroke-width:1.0;"/><polygon fill="#A80036" points="1112.3039,478.556,1114.121,468.8762,1111.1511,473.6907,1106.3366,470.7208,1112.3039,478.556" style="stroke:#A80036;stroke-width:1.0;"/><text fill="#000000" font-family="sans-serif" font-size="13" lengthAdjust="spacing" textLength="36" x="1083.8039" y="362.0669">make</text><!--MD5=[f4d57d8522140113bd22020e72ee92bf]
link Florist to FlowerSeeker--><path codeLine="113" d="M717.3459,588.991 C722.7049,593.982 728.5199,598.415 734.8059,602 C842.0909,663.2 1172.9839,591.907 1289.8039,632 C1316.4739,641.151 1342.4639,660.113 1360.4939,675.374 " fill="none" id="Florist-to-FlowerSeeker" style="stroke:#A80036;stroke-width:1.0;"/><polygon fill="#A80036" points="1364.4439,678.767,1360.222,669.8689,1360.6506,675.5095,1355.0101,675.9381,1364.4439,678.767" style="stroke:#A80036;stroke-width:1.0;"/><text fill="#000000" font-family="sans-serif" font-size="13" lengthAdjust="spacing" textLength="41" x="1325.8039" y="645.0669">create</text><!--MD5=[a2392ccf387e5da9584f43e14b3329c3]
link Florist to Refundconsumer--><path codeLine="114" d="M717.3239,586.667 C722.7359,592.342 728.5659,597.555 734.8059,602 C777.8269,632.648 802.6989,608.104 849.8059,632 C871.7289,643.121 893.1389,660.962 908.4369,675.293 " fill="none" id="Florist-to-Refundconsumer" style="stroke:#A80036;stroke-width:1.0;"/><polygon fill="#A80036" points="912.1909,678.854,908.4152,669.7576,908.5637,675.4125,902.9088,675.5611,912.1909,678.854" style="stroke:#A80036;stroke-width:1.0;"/><text fill="#000000" font-family="sans-serif" font-size="13" lengthAdjust="spacing" textLength="41" x="877.8059" y="645.0669">cancel</text><!--MD5=[dd490d3dab19f87c973581f3df6bdebe]
link Florist to Profile--><path codeLine="115" d="M717.5759,588.601 C722.8819,593.683 728.6219,598.242 734.8059,602 C786.9599,633.699 948.0949,619.368 1007.8059,632 C1075.3239,646.284 1091.7239,653.374 1155.8039,679 C1160.0139,680.684 1164.4039,682.627 1168.6539,684.614 " fill="none" id="Florist-to-Profile" style="stroke:#A80036;stroke-width:1.0;"/><polygon fill="#A80036" points="1173.1939,686.778,1166.798,679.2885,1168.6825,684.6222,1163.3488,686.5067,1173.1939,686.778" style="stroke:#A80036;stroke-width:1.0;"/><text fill="#000000" font-family="sans-serif" font-size="13" lengthAdjust="spacing" textLength="41" x="1076.8039" y="645.0669">create</text><!--MD5=[cc0d333ac02cc0a277889de4f05e2e12]
link Consumer to History--><path codeLine="116" d="M960.7179,168.015 C821.0569,176.557 423.6589,212.095 128.8058,349 C6,406.021 23.4861,524.119 75.8058,649 C96.9401,699.445 138.8969,748.1872 165.3129,775.7977 " fill="none" id="Consumer-to-History" style="stroke:#A80036;stroke-width:1.0;"/><polygon fill="#A80036" points="169.0939,779.7157,165.7238,770.4614,165.6224,776.1173,159.9664,776.0158,169.0939,779.7157" style="stroke:#A80036;stroke-width:1.0;"/><text fill="#000000" font-family="sans-serif" font-size="13" lengthAdjust="spacing" textLength="37" x="76.8058" y="645.0669">check</text><!--MD5=[a738a32d39989a2f3f1d529a7c091f2f]
link Consumer to Review--><path codeLine="117" d="M965.1489,319.097 C946.9959,378.859 928.1769,440.813 918.1469,473.832 " fill="none" id="Consumer-to-Review" style="stroke:#A80036;stroke-width:1.0;"/><polygon fill="#A80036" points="916.6139,478.878,923.0564,471.4286,918.0668,474.0937,915.4016,469.104,916.6139,478.878" style="stroke:#A80036;stroke-width:1.0;"/><text fill="#000000" font-family="sans-serif" font-size="13" lengthAdjust="spacing" textLength="30" x="956.8059" y="362.0669">view</text><!--MD5=[768461965297cb67b85dfac9de3081b4]
link Consumer to Ranking--><path codeLine="118" d="M1062.8839,236.461 C1093.8239,281.07 1132.9439,340.495 1162.8039,396 C1176.6839,421.786 1189.5739,452.863 1197.7739,473.886 " fill="none" id="Consumer-to-Ranking" style="stroke:#A80036;stroke-width:1.0;"/><polygon fill="#A80036" points="1199.6439,478.74,1200.1198,468.9026,1197.8364,474.0782,1192.6609,471.7947,1199.6439,478.74" style="stroke:#A80036;stroke-width:1.0;"/><text fill="#000000" font-family="sans-serif" font-size="13" lengthAdjust="spacing" textLength="30" x="1145.8039" y="362.0669">view</text><!--MD5=[233c84c80e6da851135aa914e7c8124f]
link Consumer to Convenience--><path codeLine="119" d="M1063.1939,176.567 C1168.3639,200.236 1414.4139,260.89 1606.8039,349 C1642.5739,365.38 1654.3839,367.796 1681.8039,396 C1704.1739,419.006 1721.5839,451.908 1731.7539,474.066 " fill="none" id="Consumer-to-Convenience" style="stroke:#A80036;stroke-width:1.0;"/><polygon fill="#A80036" points="1733.9439,478.9,1733.8842,469.0513,1731.8855,474.3433,1726.5935,472.3447,1733.9439,478.9" style="stroke:#A80036;stroke-width:1.0;"/><text fill="#000000" font-family="sans-serif" font-size="13" lengthAdjust="spacing" textLength="32" x="1644.8039" y="362.0669">have</text><!--MD5=[28eeabe720f68d4a504c588a001b7271]
link Customer to FlowerSeeker--><path codeLine="120" d="M813.6659,532.235 C824.2399,555.955 842.2019,586.637 868.8059,602 C918.8279,630.885 1348.1539,589.993 1387.8039,632 C1398.1139,642.921 1397.0939,659.933 1393.6339,673.951 " fill="none" id="Customer-to-FlowerSeeker" style="stroke:#A80036;stroke-width:1.0;"/><polygon fill="#A80036" points="1392.2639,678.963,1398.4914,671.3329,1393.5797,674.1392,1390.7734,669.2276,1392.2639,678.963" style="stroke:#A80036;stroke-width:1.0;"/><text fill="#000000" font-family="sans-serif" font-size="13" lengthAdjust="spacing" textLength="41" x="1396.8039" y="645.0669">create</text><!--MD5=[2cc0cf8a19b3381df0c182301a527ba1]
link Consumer to Experience--><path codeLine="121" d="M1063.1739,177.215 C1176.7539,203.609 1457.2539,271.507 1685.8039,349 C1738.0939,366.73 1759.7439,359.091 1800.8039,396 C1824.4539,417.255 1839.8639,451.142 1848.1939,473.963 " fill="none" id="Consumer-to-Experience" style="stroke:#A80036;stroke-width:1.0;"/><polygon fill="#A80036" points="1849.9639,478.941,1850.7212,469.1213,1848.2905,474.2293,1843.1825,471.7987,1849.9639,478.941" style="stroke:#A80036;stroke-width:1.0;"/><text fill="#000000" font-family="sans-serif" font-size="13" lengthAdjust="spacing" textLength="88" x="1750.8039" y="362.0669">supported_by</text><!--MD5=[7f2e69f52ffab3176a1e9824edfc7b23]
link Florist to MarketAnalyticTool--><path codeLine="122" d="M717.7689,588.291 C723.0299,593.444 728.7079,598.104 734.8059,602 C807.9599,648.735 844.4539,607.749 927.8059,632 C966.3979,643.228 1008.1069,662.009 1037.8939,676.671 " fill="none" id="Florist-to-MarketAnalyticTool" style="stroke:#A80036;stroke-width:1.0;"/><polygon fill="#A80036" points="1042.5639,678.987,1036.2874,671.3972,1038.0872,676.7601,1032.7243,678.5599,1042.5639,678.987" style="stroke:#A80036;stroke-width:1.0;"/><text fill="#000000" font-family="sans-serif" font-size="13" lengthAdjust="spacing" textLength="23" x="975.8059" y="645.0669">use</text><!--MD5=[661c6f124f1bc4448be150bf15374635]
link Florist to Status--><path codeLine="123" d="M616.2239,565.468 C604.2109,578.576 590.7909,591.52 576.8059,602 C551.6659,620.838 541.0369,618.221 512.8059,632 C476.6159,649.663 435.1979,670.863 409.0279,684.382 " fill="none" id="Florist-to-Status" style="stroke:#A80036;stroke-width:1.0;"/><polygon fill="#A80036" points="404.3239,686.814,414.1557,686.2348,408.7656,684.5181,410.4823,679.128,404.3239,686.814" style="stroke:#A80036;stroke-width:1.0;"/><text fill="#000000" font-family="sans-serif" font-size="13" lengthAdjust="spacing" textLength="48" x="513.8059" y="645.0669">provide</text><!--MD5=[ad991f3597b6a3968bad60f96f2dd5b8]
link Florist to Payment--><path codeLine="124" d="M644.0969,602.19 C638.1429,628.984 632.2579,655.466 628.1889,673.775 " fill="none" id="Florist-to-Payment" style="stroke:#A80036;stroke-width:1.0;"/><polygon fill="#A80036" points="627.0909,678.716,632.95,670.7995,628.1768,673.8353,625.1409,669.0621,627.0909,678.716" style="stroke:#A80036;stroke-width:1.0;"/><text fill="#000000" font-family="sans-serif" font-size="13" lengthAdjust="spacing" textLength="47" x="638.8059" y="645.0669">receive</text><!--MD5=[0ca382115200c60c71119e995c991ce4]
link Consumer to Event--><path codeLine="125" d="M1062.9039,203.587 C1116.0439,245.534 1198.5039,317.523 1249.8039,396 C1265.6939,420.308 1276.2039,452.189 1282.0639,473.791 " fill="none" id="Consumer-to-Event" style="stroke:#A80036;stroke-width:1.0;"/><polygon fill="#A80036" points="1283.3839,478.779,1284.9469,469.055,1282.104,473.9456,1277.2134,471.1027,1283.3839,478.779" style="stroke:#A80036;stroke-width:1.0;"/><text fill="#000000" font-family="sans-serif" font-size="13" lengthAdjust="spacing" textLength="23" x="1224.8039" y="362.0669">talk</text><!--MD5=[24de669c7c36f972318c8aac41b42a47]
link Customer to Recommendation--><path codeLine="126" d="M813.6409,532.279 C824.2009,556.022 842.1569,586.716 868.8059,602 C980.3759,665.989 1327.8539,583.091 1446.8039,632 C1468.9639,641.113 1488.9139,659.83 1502.4939,675.012 " fill="none" id="Customer-to-Recommendation" style="stroke:#A80036;stroke-width:1.0;"/><polygon fill="#A80036" points="1505.8039,678.787,1502.872,669.3847,1502.5051,675.0296,1496.8602,674.6627,1505.8039,678.787" style="stroke:#A80036;stroke-width:1.0;"/><text fill="#000000" font-family="sans-serif" font-size="13" lengthAdjust="spacing" textLength="47" x="1475.8039" y="645.0669">receive</text><!--MD5=[a81fade89d1d736eb26894ba2e89967e]
link Consumer to Shoppingexperience--><path codeLine="128" d="M1063.0039,197.519 C1127.5539,239.119 1240.2939,315.944 1324.8039,396 C1350.7239,420.551 1376.1739,452.947 1392.1439,474.577 " fill="none" id="Consumer-to-Shoppingexperience" style="stroke:#A80036;stroke-width:1.0;"/><polygon fill="#A80036" points="1395.2139,478.754,1393.1128,469.1319,1392.2552,474.7233,1386.6638,473.8658,1395.2139,478.754" style="stroke:#A80036;stroke-width:1.0;"/><text fill="#000000" font-family="sans-serif" font-size="13" lengthAdjust="spacing" textLength="32" x="1286.8039" y="362.0669">have</text><!--MD5=[7989be3b4618b4c91aa3cee025b02af4]
link Consumer to Information--><path codeLine="129" d="M1063.1039,178.645 C1158.1339,205.256 1363.5639,273.627 1491.8039,396 C1514.6739,417.822 1530.1939,451.279 1538.7639,473.869 " fill="none" id="Consumer-to-Information" style="stroke:#A80036;stroke-width:1.0;"/><polygon fill="#A80036" points="1540.5939,478.799,1541.2159,468.9698,1538.8558,474.1108,1533.7148,471.7507,1540.5939,478.799" style="stroke:#A80036;stroke-width:1.0;"/><text fill="#000000" font-family="sans-serif" font-size="13" lengthAdjust="spacing" textLength="47" x="1449.8039" y="362.0669">receive</text><!--MD5=[03664cdd7f86649081b34b12aca8dfcd]
@startuml
hide circle
class Consumer<actor> {
	order
	experience
	occasion
	orderHistory
}
class Florist<actor> {
	pastTransaction
	service
	orderHistory
}
class Customer<actor> {
}
class History {
}
class Status {
}
class Florist {
	provide()
	confirm()
	cancel()
	track()
	create()
	upload()
	receive()
	market()
	use()
	have()
}
class Catalog {
}
class Consumer {
	check()
	schedule()
	get()
	buy()
	view()
	rank()
	cancel()
	place()
	review()
	track()
	search()
	want()
	deliver()
	receive()
	talk()
	make()
	have()
}
class Review {
}
class Record {
}
class Order {
}
class Customer {
	receive()
	create()
}
class Profile {
}
class Appointment {
}
class Decision {
}
class Refundconsumer {
}
class Ranking {
}
class MarketAnalyticTool {
}
class Event {
}
class Shoppingexperience {
}
class Information {
}
class Service {
}
class Option {
}
class FlowerSeeker {
}
class Convenience {
}
class Payment {
}
class Recommendation {
}
class Product {
}
class Experience {
}
Consumer - -> Product : rank
Consumer - -> Record : have
Consumer - -> Florist : supported_by
Florist - -> Record : have
Product o- - Status
Consumer o- - Order : place
Customer - -> Profile : create
Florist - -> History : track
Consumer o- - Order : track
Florist o- - Order : cancel
Order o- - History
Florist o- - Order : confirm
Florist o- - Service : market
Consumer - -> Appointment : schedule
Florist - -> Catalog : upload
Consumer - -> Option : have
Consumer - -> Decision : make
Florist - -> FlowerSeeker : create
Florist - -> Refundconsumer : cancel
Florist - -> Profile : create
Consumer - -> History : check
Consumer - -> Review : view
Consumer - -> Ranking : view
Consumer - -> Convenience : have
Customer - -> FlowerSeeker : create
Consumer - -> Experience : supported_by
Florist - -> MarketAnalyticTool : use
Florist - -> Status : provide
Florist - -> Payment : receive
Consumer - -> Event : talk
Customer - -> Recommendation : receive
Consumer o- - Order : cancel
Consumer - -> Shoppingexperience : have
Consumer - -> Information : receive
@enduml

PlantUML version 1.2021.10beta2(Unknown compile time)
(GPL source distribution)
Java Runtime: Java(TM) SE Runtime Environment
JVM: Java HotSpot(TM) 64-Bit Server VM
Default Encoding: UTF-8
Language: en
Country: US
--></g></svg>