<?xml version="1.0" encoding="UTF-8" standalone="no"?><svg xmlns="http://www.w3.org/2000/svg" xmlns:xlink="http://www.w3.org/1999/xlink" contentScriptType="application/ecmascript" contentStyleType="text/css" height="665px" preserveAspectRatio="none" style="width:579px;height:665px;background:#FFFFFF;" version="1.1" viewBox="0 0 579 665" width="579px" zoomAndPan="magnify"><defs><filter height="300%" id="fc7fejxp8ezcs" width="300%" x="-1" y="-1"><feGaussianBlur result="blurOut" stdDeviation="2.0"/><feColorMatrix in="blurOut" result="blurOut2" type="matrix" values="0 0 0 0 0 0 0 0 0 0 0 0 0 0 0 0 0 0 .4 0"/><feOffset dx="4.0" dy="4.0" in="blurOut2" result="blurOut3"/><feBlend in="SourceGraphic" in2="blurOut3" mode="normal"/></filter></defs><g><!--MD5=[7e60c9637a3e1c3cd06babfa3271b00a]
class SaleAgent--><rect codeLine="40" fill="#FEFECE" filter="url(#fc7fejxp8ezcs)" height="39.9688" id="SaleAgent" style="stroke:#A80036;stroke-width:1.5;" width="102" x="153.5" y="10"/><text fill="#000000" font-family="sans-serif" font-size="12" lengthAdjust="spacing" textLength="61" x="156.5" y="26.1387">SaleAgent</text><rect fill="#FFFFFF" height="15.9688" style="stroke:#000000;stroke-width:1.0;stroke-dasharray:2.0,2.0;" width="33" x="225.5" y="7"/><text fill="#000000" font-family="sans-serif" font-size="12" font-style="italic" lengthAdjust="spacing" textLength="31" x="226.5" y="19.1387">actor</text><line style="stroke:#A80036;stroke-width:1.5;" x1="154.5" x2="254.5" y1="33.9688" y2="33.9688"/><line style="stroke:#A80036;stroke-width:1.5;" x1="154.5" x2="254.5" y1="41.9688" y2="41.9688"/><!--MD5=[e8cbdd84d283a3a5c9a98727ec403a0a]
class SaleManager--><rect codeLine="42" fill="#FEFECE" filter="url(#fc7fejxp8ezcs)" height="39.9688" id="SaleManager" style="stroke:#A80036;stroke-width:1.5;" width="119" x="446" y="279"/><text fill="#000000" font-family="sans-serif" font-size="12" lengthAdjust="spacing" textLength="78" x="449" y="295.1387">SaleManager</text><rect fill="#FFFFFF" height="15.9688" style="stroke:#000000;stroke-width:1.0;stroke-dasharray:2.0,2.0;" width="33" x="535" y="276"/><text fill="#000000" font-family="sans-serif" font-size="12" font-style="italic" lengthAdjust="spacing" textLength="31" x="536" y="288.1387">actor</text><line style="stroke:#A80036;stroke-width:1.5;" x1="447" x2="564" y1="302.9688" y2="302.9688"/><line style="stroke:#A80036;stroke-width:1.5;" x1="447" x2="564" y1="310.9688" y2="310.9688"/><!--MD5=[b24ed8d4ae84bae9290d9aab401637c7]
class Manager--><rect codeLine="6" fill="#FEFECE" filter="url(#fc7fejxp8ezcs)" height="155.2109" id="Manager" style="stroke:#A80036;stroke-width:1.5;" width="67" x="129" y="380"/><text fill="#000000" font-family="sans-serif" font-size="12" lengthAdjust="spacing" textLength="52" x="136.5" y="396.1387">Manager</text><line style="stroke:#A80036;stroke-width:1.5;" x1="130" x2="195" y1="403.9688" y2="403.9688"/><line style="stroke:#A80036;stroke-width:1.5;" x1="130" x2="195" y1="411.9688" y2="411.9688"/><text fill="#000000" font-family="sans-serif" font-size="11" lengthAdjust="spacing" textLength="36" x="135" y="426.1792">jump()</text><text fill="#000000" font-family="sans-serif" font-size="11" lengthAdjust="spacing" textLength="42" x="135" y="438.9839">speak()</text><text fill="#000000" font-family="sans-serif" font-size="11" lengthAdjust="spacing" textLength="40" x="135" y="451.7886">guide()</text><text fill="#000000" font-family="sans-serif" font-size="11" lengthAdjust="spacing" textLength="29" x="135" y="464.5933">use()</text><text fill="#000000" font-family="sans-serif" font-size="11" lengthAdjust="spacing" textLength="38" x="135" y="477.3979">close()</text><text fill="#000000" font-family="sans-serif" font-size="11" lengthAdjust="spacing" textLength="33" x="135" y="490.2026">train()</text><text fill="#000000" font-family="sans-serif" font-size="11" lengthAdjust="spacing" textLength="39" x="135" y="503.0073">listen()</text><text fill="#000000" font-family="sans-serif" font-size="11" lengthAdjust="spacing" textLength="55" x="135" y="515.812">listen_in()</text><text fill="#000000" font-family="sans-serif" font-size="11" lengthAdjust="spacing" textLength="46" x="135" y="528.6167">assure()</text><!--MD5=[9d44916250b776386006c440668bcfbb]
class Agent--><rect codeLine="17" fill="#FEFECE" filter="url(#fc7fejxp8ezcs)" height="91.1875" id="Agent" style="stroke:#A80036;stroke-width:1.5;" width="64" x="172.5" y="111"/><text fill="#000000" font-family="sans-serif" font-size="12" lengthAdjust="spacing" textLength="35" x="187" y="127.1387">Agent</text><line style="stroke:#A80036;stroke-width:1.5;" x1="173.5" x2="235.5" y1="134.9688" y2="134.9688"/><line style="stroke:#A80036;stroke-width:1.5;" x1="173.5" x2="235.5" y1="142.9688" y2="142.9688"/><text fill="#000000" font-family="sans-serif" font-size="11" lengthAdjust="spacing" textLength="52" x="178.5" y="157.1792">request()</text><text fill="#000000" font-family="sans-serif" font-size="11" lengthAdjust="spacing" textLength="38" x="178.5" y="169.9839">close()</text><text fill="#000000" font-family="sans-serif" font-size="11" lengthAdjust="spacing" textLength="32" x="178.5" y="182.7886">click()</text><text fill="#000000" font-family="sans-serif" font-size="11" lengthAdjust="spacing" textLength="28" x="178.5" y="195.5933">dial()</text><!--MD5=[e0bd77868626c22cfc0c5aeed1b8d67f]
class Sale--><rect codeLine="23" fill="#FEFECE" filter="url(#fc7fejxp8ezcs)" height="39.9688" id="Sale" style="stroke:#A80036;stroke-width:1.5;" width="32" x="146.5" y="279"/><text fill="#000000" font-family="sans-serif" font-size="12" lengthAdjust="spacing" textLength="26" x="149.5" y="295.1387">Sale</text><line style="stroke:#A80036;stroke-width:1.5;" x1="147.5" x2="177.5" y1="302.9688" y2="302.9688"/><line style="stroke:#A80036;stroke-width:1.5;" x1="147.5" x2="177.5" y1="310.9688" y2="310.9688"/><!--MD5=[3231c3d3ce17334343e5bf63c69a3780]
class ConferenceCall--><rect codeLine="25" fill="#FEFECE" filter="url(#fc7fejxp8ezcs)" height="39.9688" id="ConferenceCall" style="stroke:#A80036;stroke-width:1.5;" width="97" x="214" y="279"/><text fill="#000000" font-family="sans-serif" font-size="12" lengthAdjust="spacing" textLength="91" x="217" y="295.1387">ConferenceCall</text><line style="stroke:#A80036;stroke-width:1.5;" x1="215" x2="310" y1="302.9688" y2="302.9688"/><line style="stroke:#A80036;stroke-width:1.5;" x1="215" x2="310" y1="310.9688" y2="310.9688"/><!--MD5=[abb2a7cdedb14efb5af1120e5b6f0439]
class Recording--><rect codeLine="27" fill="#FEFECE" filter="url(#fc7fejxp8ezcs)" height="39.9688" id="Recording" style="stroke:#A80036;stroke-width:1.5;" width="67" x="7" y="612"/><text fill="#000000" font-family="sans-serif" font-size="12" lengthAdjust="spacing" textLength="61" x="10" y="628.1387">Recording</text><line style="stroke:#A80036;stroke-width:1.5;" x1="8" x2="73" y1="635.9688" y2="635.9688"/><line style="stroke:#A80036;stroke-width:1.5;" x1="8" x2="73" y1="643.9688" y2="643.9688"/><!--MD5=[fe139ee4e479f23285df0f8136f9d541]
class Deal--><rect codeLine="29" fill="#FEFECE" filter="url(#fc7fejxp8ezcs)" height="39.9688" id="Deal" style="stroke:#A80036;stroke-width:1.5;" width="33" x="109" y="612"/><text fill="#000000" font-family="sans-serif" font-size="12" lengthAdjust="spacing" textLength="27" x="112" y="628.1387">Deal</text><line style="stroke:#A80036;stroke-width:1.5;" x1="110" x2="141" y1="635.9688" y2="635.9688"/><line style="stroke:#A80036;stroke-width:1.5;" x1="110" x2="141" y1="643.9688" y2="643.9688"/><!--MD5=[fab76ac332c6d72510aaae6c360fa182]
class Quality--><rect codeLine="31" fill="#FEFECE" filter="url(#fc7fejxp8ezcs)" height="39.9688" id="Quality" style="stroke:#A80036;stroke-width:1.5;" width="47" x="177" y="612"/><text fill="#000000" font-family="sans-serif" font-size="12" lengthAdjust="spacing" textLength="41" x="180" y="628.1387">Quality</text><line style="stroke:#A80036;stroke-width:1.5;" x1="178" x2="223" y1="635.9688" y2="635.9688"/><line style="stroke:#A80036;stroke-width:1.5;" x1="178" x2="223" y1="643.9688" y2="643.9688"/><!--MD5=[2ce0c9fb7f55b1e256ab28a8ea6b25ec]
class Customer--><rect codeLine="33" fill="#FEFECE" filter="url(#fc7fejxp8ezcs)" height="39.9688" id="Customer" style="stroke:#A80036;stroke-width:1.5;" width="64" x="346.5" y="279"/><text fill="#000000" font-family="sans-serif" font-size="12" lengthAdjust="spacing" textLength="58" x="349.5" y="295.1387">Customer</text><line style="stroke:#A80036;stroke-width:1.5;" x1="347.5" x2="409.5" y1="302.9688" y2="302.9688"/><line style="stroke:#A80036;stroke-width:1.5;" x1="347.5" x2="409.5" y1="310.9688" y2="310.9688"/><!--MD5=[1dff292a6849a6db4d2021d5ff588741]
class Auto--><rect codeLine="35" fill="#FEFECE" filter="url(#fc7fejxp8ezcs)" height="52.7734" id="Auto" style="stroke:#A80036;stroke-width:1.5;" width="40" x="397.5" y="130"/><text fill="#000000" font-family="sans-serif" font-size="12" lengthAdjust="spacing" textLength="27" x="404" y="146.1387">Auto</text><line style="stroke:#A80036;stroke-width:1.5;" x1="398.5" x2="436.5" y1="153.9688" y2="153.9688"/><line style="stroke:#A80036;stroke-width:1.5;" x1="398.5" x2="436.5" y1="161.9688" y2="161.9688"/><text fill="#000000" font-family="sans-serif" font-size="11" lengthAdjust="spacing" textLength="28" x="403.5" y="176.1792">dial()</text><!--MD5=[93369dbd818f54d42a841537181a0712]
class Call--><rect codeLine="38" fill="#FEFECE" filter="url(#fc7fejxp8ezcs)" height="39.9688" id="Call" style="stroke:#A80036;stroke-width:1.5;" width="27" x="272" y="612"/><text fill="#000000" font-family="sans-serif" font-size="12" lengthAdjust="spacing" textLength="21" x="275" y="628.1387">Call</text><line style="stroke:#A80036;stroke-width:1.5;" x1="273" x2="298" y1="635.9688" y2="635.9688"/><line style="stroke:#A80036;stroke-width:1.5;" x1="273" x2="298" y1="643.9688" y2="643.9688"/><!--MD5=[6117a6ce282541ed7e59ab84b8c6511b]
link Auto to Customer--><path codeLine="44" d="M410.347,183.27 C403.173,209.116 392.21,248.607 385.201,273.86 " fill="none" id="Auto-to-Customer" style="stroke:#A80036;stroke-width:1.0;"/><polygon fill="#A80036" points="383.854,278.713,390.1155,271.1108,385.1913,273.8952,382.4069,268.971,383.854,278.713" style="stroke:#A80036;stroke-width:1.0;"/><text fill="#000000" font-family="sans-serif" font-size="13" lengthAdjust="spacing" textLength="22" x="397.5" y="245.0669">dial</text><!--MD5=[7c2592bbea1ed88d1dbccd0e341677a6]
reverse link Sale to Manager--><path codeLine="45" d="M162.5,332.453 C162.5,346.333 162.5,363.181 162.5,379.926 " fill="none" id="Sale-backto-Manager" style="stroke:#A80036;stroke-width:1.0;"/><polygon fill="#FFFFFF" points="162.5,319.19,158.5,325.19,162.5,331.19,166.5,325.19,162.5,319.19" style="stroke:#A80036;stroke-width:1.0;"/><!--MD5=[2ddd5f20e00c9e4faee30e27259e1ab3]
reverse link SaleAgent to Agent--><path codeLine="46" d="M204.5,70.542 C204.5,83.408 204.5,97.774 204.5,110.979 " fill="none" id="SaleAgent-backto-Agent" style="stroke:#A80036;stroke-width:1.0;"/><polygon fill="none" points="197.5,70.18,204.5,50.18,211.5,70.18,197.5,70.18" style="stroke:#A80036;stroke-width:1.0;"/><!--MD5=[cff53a3ae41222b5cfc4e2456f26f095]
link Agent to ConferenceCall--><path codeLine="47" d="M223.011,202.341 C232.852,226.181 244.556,254.532 252.654,274.149 " fill="none" id="Agent-to-ConferenceCall" style="stroke:#A80036;stroke-width:1.0;"/><polygon fill="#A80036" points="254.632,278.941,254.8937,269.0956,252.7234,274.3196,247.4995,272.1493,254.632,278.941" style="stroke:#A80036;stroke-width:1.0;"/><text fill="#000000" font-family="sans-serif" font-size="13" lengthAdjust="spacing" textLength="49" x="243.5" y="245.0669">request</text><!--MD5=[3831f6c21c1de5fb85b2bd6a4c78f73a]
link Manager to Quality--><path codeLine="48" d="M179.389,535.166 C185.078,560.9917 191.023,587.9784 195.149,606.7087 " fill="none" id="Manager-to-Quality" style="stroke:#A80036;stroke-width:1.0;"/><polygon fill="#A80036" points="196.263,611.7649,198.2328,602.115,195.1871,606.882,190.4201,603.8364,196.263,611.7649" style="stroke:#A80036;stroke-width:1.0;"/><text fill="#000000" font-family="sans-serif" font-size="13" lengthAdjust="spacing" textLength="43" x="190.5" y="578.0669">assure</text><!--MD5=[1a0ced8494ddda1f4e69c445006f5ee7]
reverse link SaleManager to Manager--><path codeLine="49" d="M445.131,327.544 C372.764,360.563 254.029,414.738 196.228,441.111 " fill="none" id="SaleManager-backto-Manager" style="stroke:#A80036;stroke-width:1.0;"/><polygon fill="none" points="442.683,320.967,463.784,319.034,448.495,333.704,442.683,320.967" style="stroke:#A80036;stroke-width:1.0;"/><!--MD5=[80a83e1ccae3866ad03f65525cf00c2f]
link Manager to Recording--><path codeLine="50" d="M128.84,506.093 C105.5046,539.088 75.4387,581.599 57.0855,607.5493 " fill="none" id="Manager-to-Recording" style="stroke:#A80036;stroke-width:1.0;"/><polygon fill="#A80036" points="54.0214,611.8817,62.4841,606.8436,56.9086,607.7995,55.9526,602.224,54.0214,611.8817" style="stroke:#A80036;stroke-width:1.0;"/><text fill="#000000" font-family="sans-serif" font-size="13" lengthAdjust="spacing" textLength="23" x="88.5" y="578.0669">use</text><!--MD5=[0c47255790977d742d8b475b328c86b4]
link Manager to Call--><path codeLine="51" d="M196.056,501.801 C210.629,520.953 227.711,543.878 242.5,565 C252.141,578.7687 262.436,594.5295 270.535,607.196 " fill="none" id="Manager-to-Call" style="stroke:#A80036;stroke-width:1.0;"/><polygon fill="#A80036" points="273.414,611.7131,271.9488,601.9738,270.7262,607.497,265.203,606.2744,273.414,611.7131" style="stroke:#A80036;stroke-width:1.0;"/><text fill="#000000" font-family="sans-serif" font-size="13" lengthAdjust="spacing" textLength="34" x="254.5" y="578.0669">listen</text><!--MD5=[f5c7c38f95be3d1e6efe8a1b98c8ad90]
link Manager to Agent--><path codeLine="52" d="M128.995,412.578 C105.906,376.785 81.9604,324.843 97.5,279 C110.476,240.719 142.638,207.106 168.337,184.997 " fill="none" id="Manager-to-Agent" style="stroke:#A80036;stroke-width:1.0;"/><polygon fill="#A80036" points="172.402,181.548,162.9511,184.3195,168.589,184.7824,168.1262,190.4203,172.402,181.548" style="stroke:#A80036;stroke-width:1.0;"/><text fill="#000000" font-family="sans-serif" font-size="13" lengthAdjust="spacing" textLength="29" x="98.5" y="303.5669">train</text><!--MD5=[41a56462ab9d1f6b00dff5a4b5f28f40]
link Agent to Sale--><path codeLine="53" d="M172.353,187.072 C160.943,199.672 149.46,215.313 143.5,232 C138.614,245.68 142.681,261.287 148.287,273.888 " fill="none" id="Agent-to-Sale" style="stroke:#A80036;stroke-width:1.0;"/><polygon fill="#A80036" points="150.583,278.736,150.3433,268.8901,148.4417,274.2177,143.1141,272.3161,150.583,278.736" style="stroke:#A80036;stroke-width:1.0;"/><text fill="#000000" font-family="sans-serif" font-size="13" lengthAdjust="spacing" textLength="33" x="144.5" y="245.0669">close</text><!--MD5=[7c2db3c5ced38026653e84f51577a605]
reverse link Sale to Agent--><path codeLine="55" d="M176.133,266.605 C178.416,260.807 180.643,254.764 182.5,249 C187.361,233.916 191.697,217.126 195.207,202.089 " fill="none" id="Sale-backto-Agent" style="stroke:#A80036;stroke-width:1.0;"/><polygon fill="#FFFFFF" points="171.169,278.699,177.1479,274.6675,175.726,267.5979,169.7471,271.6295,171.169,278.699" style="stroke:#A80036;stroke-width:1.0;"/><!--MD5=[ccdd8dbfef9d5013378772c2f6a01598]
link Agent to Customer--><path codeLine="54" d="M236.729,181.569 C255.767,195.956 280.232,214.738 301.5,232 C318.869,246.097 337.964,262.459 352.794,275.364 " fill="none" id="Agent-to-Customer" style="stroke:#A80036;stroke-width:1.0;"/><polygon fill="#A80036" points="356.858,278.908,352.703,269.9785,353.0893,275.6222,347.4456,276.0085,356.858,278.908" style="stroke:#A80036;stroke-width:1.0;"/><text fill="#000000" font-family="sans-serif" font-size="13" lengthAdjust="spacing" textLength="22" x="322.5" y="245.0669">dial</text><!--MD5=[2a077e1ad65352c1440bc32eee5509e4]
link Manager to Deal--><path codeLine="56" d="M130.001,535.231 C126.918,545.1 124.282,555.1864 122.5,565 C121.15,572.434 122.269,574.448 122.5,582 C122.746,590.0291 123.217,598.7878 123.715,606.6506 " fill="none" id="Manager-to-Deal" style="stroke:#A80036;stroke-width:1.0;"/><polygon fill="#A80036" points="124.061,611.931,127.4634,602.6885,123.7338,606.9417,119.4805,603.2121,124.061,611.931" style="stroke:#A80036;stroke-width:1.0;"/><text fill="#000000" font-family="sans-serif" font-size="13" lengthAdjust="spacing" textLength="33" x="123.5" y="578.0669">close</text><!--MD5=[ba1bf21a3869067194ab64273a001862]
@startuml
hide circle
class SaleAgent<actor> {
}
class SaleManager<actor> {
}
class Manager {
	jump()
	speak()
	guide()
	use()
	close()
	train()
	listen()
	listen_in()
	assure()
}
class Agent {
	request()
	close()
	click()
	dial()
}
class Sale {
}
class ConferenceCall {
}
class Recording {
}
class Deal {
}
class Quality {
}
class Customer {
}
class Auto {
	dial()
}
class Call {
}
class SaleAgent {
}
class SaleManager {
}
Auto - -> Customer : dial
Sale o- - Manager
SaleAgent <|- - Agent
Agent - -> ConferenceCall : request
Manager - -> Quality : assure
SaleManager <|- - Manager
Manager - -> Recording : use
Manager - -> Call : listen
Manager - -> Agent : train
Agent - -> Sale : close
Agent - -> Customer : dial
Sale o- - Agent
Manager - -> Deal : close
@enduml

PlantUML version 1.2021.10beta5(Unknown compile time)
(GPL source distribution)
Java Runtime: Java(TM) SE Runtime Environment
JVM: Java HotSpot(TM) 64-Bit Server VM
Default Encoding: UTF-8
Language: en
Country: US
--></g></svg>