<?xml version="1.0" encoding="UTF-8" standalone="no"?><svg xmlns="http://www.w3.org/2000/svg" xmlns:xlink="http://www.w3.org/1999/xlink" contentScriptType="application/ecmascript" contentStyleType="text/css" height="451px" preserveAspectRatio="none" style="width:1427px;height:451px;background:#FFFFFF;" version="1.1" viewBox="0 0 1427 451" width="1427px" zoomAndPan="magnify"><defs><filter height="300%" id="fq08qmdc4e130" width="300%" x="-1" y="-1"><feGaussianBlur result="blurOut" stdDeviation="2.0"/><feColorMatrix in="blurOut" result="blurOut2" type="matrix" values="0 0 0 0 0 0 0 0 0 0 0 0 0 0 0 0 0 0 .4 0"/><feOffset dx="4.0" dy="4.0" in="blurOut2" result="blurOut3"/><feBlend in="SourceGraphic" in2="blurOut3" mode="normal"/></filter></defs><g><!--MD5=[3fd616f346a44cd59a91eb10b19e157c]
class User--><rect codeLine="14" fill="#FEFECE" filter="url(#fq08qmdc4e130)" height="168.0156" id="User" style="stroke:#A80036;stroke-width:1.5;" width="74" x="571.5" y="10"/><text fill="#000000" font-family="sans-serif" font-size="12" lengthAdjust="spacing" textLength="29" x="576.5" y="26.1387">User</text><rect fill="#FFFFFF" height="15.9688" style="stroke:#000000;stroke-width:1.0;stroke-dasharray:2.0,2.0;" width="33" x="615.5" y="7"/><text fill="#000000" font-family="sans-serif" font-size="12" font-style="italic" lengthAdjust="spacing" textLength="31" x="616.5" y="19.1387">actor</text><line style="stroke:#A80036;stroke-width:1.5;" x1="572.5" x2="644.5" y1="33.9688" y2="33.9688"/><line style="stroke:#A80036;stroke-width:1.5;" x1="572.5" x2="644.5" y1="41.9688" y2="41.9688"/><text fill="#000000" font-family="sans-serif" font-size="11" lengthAdjust="spacing" textLength="45" x="577.5" y="56.1792">lookup()</text><text fill="#000000" font-family="sans-serif" font-size="11" lengthAdjust="spacing" textLength="47" x="577.5" y="68.9839">review()</text><text fill="#000000" font-family="sans-serif" font-size="11" lengthAdjust="spacing" textLength="28" x="577.5" y="81.7886">like()</text><text fill="#000000" font-family="sans-serif" font-size="11" lengthAdjust="spacing" textLength="29" x="577.5" y="94.5933">add()</text><text fill="#000000" font-family="sans-serif" font-size="11" lengthAdjust="spacing" textLength="30" x="577.5" y="107.3979">see()</text><text fill="#000000" font-family="sans-serif" font-size="11" lengthAdjust="spacing" textLength="55" x="577.5" y="120.2026">reduced()</text><text fill="#000000" font-family="sans-serif" font-size="11" lengthAdjust="spacing" textLength="62" x="577.5" y="133.0073">download()</text><text fill="#000000" font-family="sans-serif" font-size="11" lengthAdjust="spacing" textLength="29" x="577.5" y="145.812">use()</text><text fill="#000000" font-family="sans-serif" font-size="11" lengthAdjust="spacing" textLength="46" x="577.5" y="158.6167">submit()</text><text fill="#000000" font-family="sans-serif" font-size="11" lengthAdjust="spacing" textLength="37" x="577.5" y="171.4214">have()</text><!--MD5=[093d379f2b7e54e4fc4757309739f182]
class Business--><rect codeLine="39" fill="#FEFECE" filter="url(#fq08qmdc4e130)" height="52.7734" id="Business" style="stroke:#A80036;stroke-width:1.5;" width="95" x="998" y="261.5"/><text fill="#000000" font-family="sans-serif" font-size="12" lengthAdjust="spacing" textLength="54" x="1001" y="277.6387">Business</text><rect fill="#FFFFFF" height="15.9688" style="stroke:#000000;stroke-width:1.0;stroke-dasharray:2.0,2.0;" width="33" x="1063" y="258.5"/><text fill="#000000" font-family="sans-serif" font-size="12" font-style="italic" lengthAdjust="spacing" textLength="31" x="1064" y="270.6387">actor</text><line style="stroke:#A80036;stroke-width:1.5;" x1="999" x2="1092" y1="285.4688" y2="285.4688"/><line style="stroke:#A80036;stroke-width:1.5;" x1="999" x2="1092" y1="293.4688" y2="293.4688"/><text fill="#000000" font-family="sans-serif" font-size="11" lengthAdjust="spacing" textLength="38" x="1004" y="307.6792">claim()</text><!--MD5=[da547346deef918ea16944ba046651ef]
class Administrator--><rect codeLine="30" fill="#FEFECE" filter="url(#fq08qmdc4e130)" height="78.3828" id="Administrator" style="stroke:#A80036;stroke-width:1.5;" width="121" x="1231" y="55"/><text fill="#000000" font-family="sans-serif" font-size="12" lengthAdjust="spacing" textLength="80" x="1234" y="71.1387">Administrator</text><rect fill="#FFFFFF" height="15.9688" style="stroke:#000000;stroke-width:1.0;stroke-dasharray:2.0,2.0;" width="33" x="1322" y="52"/><text fill="#000000" font-family="sans-serif" font-size="12" font-style="italic" lengthAdjust="spacing" textLength="31" x="1323" y="64.1387">actor</text><line style="stroke:#A80036;stroke-width:1.5;" x1="1232" x2="1351" y1="78.9688" y2="78.9688"/><line style="stroke:#A80036;stroke-width:1.5;" x1="1232" x2="1351" y1="86.9688" y2="86.9688"/><text fill="#000000" font-family="sans-serif" font-size="11" lengthAdjust="spacing" textLength="44" x="1237" y="101.1792">assign()</text><text fill="#000000" font-family="sans-serif" font-size="11" lengthAdjust="spacing" textLength="41" x="1237" y="113.9839">verify()</text><text fill="#000000" font-family="sans-serif" font-size="11" lengthAdjust="spacing" textLength="55" x="1237" y="126.7886">approve()</text><!--MD5=[63a951b26403029d56b8ede8f57f20fa]
class TipCalculator--><rect codeLine="8" fill="#FEFECE" filter="url(#fq08qmdc4e130)" height="65.5781" id="TipCalculator" style="stroke:#A80036;stroke-width:1.5;" width="83" x="7" y="255"/><text fill="#000000" font-family="sans-serif" font-size="12" lengthAdjust="spacing" textLength="77" x="10" y="271.1387">TipCalculator</text><line style="stroke:#A80036;stroke-width:1.5;" x1="8" x2="89" y1="278.9688" y2="278.9688"/><line style="stroke:#A80036;stroke-width:1.5;" x1="8" x2="89" y1="286.9688" y2="286.9688"/><text fill="#000000" font-family="sans-serif" font-size="11" lengthAdjust="spacing" textLength="59" x="13" y="301.1792">calculate()</text><text fill="#000000" font-family="sans-serif" font-size="11" lengthAdjust="spacing" textLength="31" x="13" y="313.9839">split()</text><!--MD5=[287caa0945ba2d24fd1d0702d1f7cc2e]
class Tip--><rect codeLine="12" fill="#FEFECE" filter="url(#fq08qmdc4e130)" height="39.9688" id="Tip" style="stroke:#A80036;stroke-width:1.5;" width="24" x="36.5" y="398"/><text fill="#000000" font-family="sans-serif" font-size="12" lengthAdjust="spacing" textLength="18" x="39.5" y="414.1387">Tip</text><line style="stroke:#A80036;stroke-width:1.5;" x1="37.5" x2="59.5" y1="421.9688" y2="421.9688"/><line style="stroke:#A80036;stroke-width:1.5;" x1="37.5" x2="59.5" y1="429.9688" y2="429.9688"/><!--MD5=[0b4e4b4980470ea387cc45de9bd14b5b]
class Application--><rect codeLine="26" fill="#FEFECE" filter="url(#fq08qmdc4e130)" height="39.9688" id="Application" style="stroke:#A80036;stroke-width:1.5;" width="72" x="125.5" y="268"/><text fill="#000000" font-family="sans-serif" font-size="12" lengthAdjust="spacing" textLength="66" x="128.5" y="284.1387">Application</text><line style="stroke:#A80036;stroke-width:1.5;" x1="126.5" x2="196.5" y1="291.9688" y2="291.9688"/><line style="stroke:#A80036;stroke-width:1.5;" x1="126.5" x2="196.5" y1="299.9688" y2="299.9688"/><!--MD5=[bf609a3d5ee4113250b9e4a92d9171f4]
class TravelTippingGuide--><rect codeLine="28" fill="#FEFECE" filter="url(#fq08qmdc4e130)" height="39.9688" id="TravelTippingGuide" style="stroke:#A80036;stroke-width:1.5;" width="122" x="232.5" y="268"/><text fill="#000000" font-family="sans-serif" font-size="12" lengthAdjust="spacing" textLength="116" x="235.5" y="284.1387">TravelTippingGuide</text><line style="stroke:#A80036;stroke-width:1.5;" x1="233.5" x2="353.5" y1="291.9688" y2="291.9688"/><line style="stroke:#A80036;stroke-width:1.5;" x1="233.5" x2="353.5" y1="299.9688" y2="299.9688"/><!--MD5=[042fa140da40c49659127f611bcff931]
class Comment--><rect codeLine="35" fill="#FEFECE" filter="url(#fq08qmdc4e130)" height="39.9688" id="Comment" style="stroke:#A80036;stroke-width:1.5;" width="63" x="1226" y="268"/><text fill="#000000" font-family="sans-serif" font-size="12" lengthAdjust="spacing" textLength="57" x="1229" y="284.1387">Comment</text><line style="stroke:#A80036;stroke-width:1.5;" x1="1227" x2="1288" y1="291.9688" y2="291.9688"/><line style="stroke:#A80036;stroke-width:1.5;" x1="1227" x2="1288" y1="299.9688" y2="299.9688"/><!--MD5=[fc7123defb831ecdd44b2d9bcef6cceb]
class Question--><rect codeLine="37" fill="#FEFECE" filter="url(#fq08qmdc4e130)" height="39.9688" id="Question" style="stroke:#A80036;stroke-width:1.5;" width="60" x="389.5" y="268"/><text fill="#000000" font-family="sans-serif" font-size="12" lengthAdjust="spacing" textLength="54" x="392.5" y="284.1387">Question</text><line style="stroke:#A80036;stroke-width:1.5;" x1="390.5" x2="448.5" y1="291.9688" y2="291.9688"/><line style="stroke:#A80036;stroke-width:1.5;" x1="390.5" x2="448.5" y1="299.9688" y2="299.9688"/><!--MD5=[435987a092acd998883c72f97c5c9408]
class Number--><rect codeLine="42" fill="#FEFECE" filter="url(#fq08qmdc4e130)" height="39.9688" id="Number" style="stroke:#A80036;stroke-width:1.5;" width="53" x="1360" y="268"/><text fill="#000000" font-family="sans-serif" font-size="12" lengthAdjust="spacing" textLength="47" x="1363" y="284.1387">Number</text><line style="stroke:#A80036;stroke-width:1.5;" x1="1361" x2="1412" y1="291.9688" y2="291.9688"/><line style="stroke:#A80036;stroke-width:1.5;" x1="1361" x2="1412" y1="299.9688" y2="299.9688"/><!--MD5=[dab16d122782a892ddb6ee0eadcd68f0]
class Access--><rect codeLine="44" fill="#FEFECE" filter="url(#fq08qmdc4e130)" height="39.9688" id="Access" style="stroke:#A80036;stroke-width:1.5;" width="50" x="484.5" y="268"/><text fill="#000000" font-family="sans-serif" font-size="12" lengthAdjust="spacing" textLength="44" x="487.5" y="284.1387">Access</text><line style="stroke:#A80036;stroke-width:1.5;" x1="485.5" x2="533.5" y1="291.9688" y2="291.9688"/><line style="stroke:#A80036;stroke-width:1.5;" x1="485.5" x2="533.5" y1="299.9688" y2="299.9688"/><!--MD5=[540ecd4ec222ba344d52ca9cd9134f08]
class TravelGuide--><rect codeLine="46" fill="#FEFECE" filter="url(#fq08qmdc4e130)" height="39.9688" id="TravelGuide" style="stroke:#A80036;stroke-width:1.5;" width="78" x="569.5" y="268"/><text fill="#000000" font-family="sans-serif" font-size="12" lengthAdjust="spacing" textLength="72" x="572.5" y="284.1387">TravelGuide</text><line style="stroke:#A80036;stroke-width:1.5;" x1="570.5" x2="646.5" y1="291.9688" y2="291.9688"/><line style="stroke:#A80036;stroke-width:1.5;" x1="570.5" x2="646.5" y1="299.9688" y2="299.9688"/><!--MD5=[3d4177ac58b4411586d067f34e84928f]
class List--><rect codeLine="48" fill="#FEFECE" filter="url(#fq08qmdc4e130)" height="52.7734" id="List" style="stroke:#A80036;stroke-width:1.5;" width="55" x="1102" y="67.5"/><text fill="#000000" font-family="sans-serif" font-size="12" lengthAdjust="spacing" textLength="20" x="1119.5" y="83.6387">List</text><line style="stroke:#A80036;stroke-width:1.5;" x1="1103" x2="1156" y1="91.4688" y2="91.4688"/><line style="stroke:#A80036;stroke-width:1.5;" x1="1103" x2="1156" y1="99.4688" y2="99.4688"/><text fill="#000000" font-family="sans-serif" font-size="11" lengthAdjust="spacing" textLength="43" x="1108" y="113.6792">shows()</text><!--MD5=[0653f8dae23042bd6dde0eb89a530340]
class SearchResult--><rect codeLine="51" fill="#FEFECE" filter="url(#fq08qmdc4e130)" height="39.9688" id="SearchResult" style="stroke:#A80036;stroke-width:1.5;" width="84" x="682.5" y="268"/><text fill="#000000" font-family="sans-serif" font-size="12" lengthAdjust="spacing" textLength="78" x="685.5" y="284.1387">SearchResult</text><line style="stroke:#A80036;stroke-width:1.5;" x1="683.5" x2="765.5" y1="291.9688" y2="291.9688"/><line style="stroke:#A80036;stroke-width:1.5;" x1="683.5" x2="765.5" y1="299.9688" y2="299.9688"/><!--MD5=[3c550501cdddb33123e8ff8e576a5e7e]
class Friction--><rect codeLine="53" fill="#FEFECE" filter="url(#fq08qmdc4e130)" height="39.9688" id="Friction" style="stroke:#A80036;stroke-width:1.5;" width="50" x="801.5" y="268"/><text fill="#000000" font-family="sans-serif" font-size="12" lengthAdjust="spacing" textLength="44" x="804.5" y="284.1387">Friction</text><line style="stroke:#A80036;stroke-width:1.5;" x1="802.5" x2="850.5" y1="291.9688" y2="291.9688"/><line style="stroke:#A80036;stroke-width:1.5;" x1="802.5" x2="850.5" y1="299.9688" y2="299.9688"/><!--MD5=[30fd7b95ab383a5e7c83ea23d4ea0fbf]
class Information--><rect codeLine="55" fill="#FEFECE" filter="url(#fq08qmdc4e130)" height="39.9688" id="Information" style="stroke:#A80036;stroke-width:1.5;" width="73" x="887" y="268"/><text fill="#000000" font-family="sans-serif" font-size="12" lengthAdjust="spacing" textLength="67" x="890" y="284.1387">Information</text><line style="stroke:#A80036;stroke-width:1.5;" x1="888" x2="959" y1="291.9688" y2="291.9688"/><line style="stroke:#A80036;stroke-width:1.5;" x1="888" x2="959" y1="299.9688" y2="299.9688"/><!--MD5=[0d350f882d0eb5009954051adf137bfc]
link TipCalculator to Tip--><path codeLine="57" d="M20.9577,321.364 C12.293,335.397 6.2061,352.204 11.5,368 C15.6919,380.5077 24.477,392.373 32.4351,401.2943 " fill="none" id="TipCalculator-to-Tip" style="stroke:#A80036;stroke-width:1.0;"/><polygon fill="#A80036" points="36.2516,405.4273,33.0845,396.1015,32.8595,401.7539,27.2071,401.5289,36.2516,405.4273" style="stroke:#A80036;stroke-width:1.0;"/><text fill="#000000" font-family="sans-serif" font-size="13" lengthAdjust="spacing" textLength="26" x="12.5" y="364.0669">split</text><!--MD5=[0d350f882d0eb5009954051adf137bfc]
link TipCalculator to Tip--><path codeLine="64" d="M48.5,321.3 C48.5,343.463 48.5,372.4116 48.5,392.6422 " fill="none" id="TipCalculator-to-Tip-1" style="stroke:#A80036;stroke-width:1.0;"/><polygon fill="#A80036" points="48.5,397.8458,52.5,388.8458,48.5,392.8458,44.5,388.8458,48.5,397.8458" style="stroke:#A80036;stroke-width:1.0;"/><text fill="#000000" font-family="sans-serif" font-size="13" lengthAdjust="spacing" textLength="57" x="49.5" y="364.0669">calculate</text><!--MD5=[3497ab48bff3b8be52e6d740bffea033]
link User to Friction--><path codeLine="58" d="M645.976,128.006 C690.139,166.903 762.351,230.502 800.691,264.269 " fill="none" id="User-to-Friction" style="stroke:#A80036;stroke-width:1.0;"/><polygon fill="#A80036" points="804.744,267.839,800.6342,258.8886,800.9919,264.5342,795.3464,264.8919,804.744,267.839" style="stroke:#A80036;stroke-width:1.0;"/><text fill="#000000" font-family="sans-serif" font-size="13" lengthAdjust="spacing" textLength="52" x="757.5" y="221.0669">reduced</text><!--MD5=[89a729879333f4a514a72f7623177c63]
link User to Question--><path codeLine="59" d="M571.379,128.222 C547.206,150.274 515.301,180.177 488.5,208 C471.031,226.136 452.301,247.729 438.77,263.753 " fill="none" id="User-to-Question" style="stroke:#A80036;stroke-width:1.0;"/><polygon fill="#A80036" points="435.446,267.702,444.3026,263.3937,438.6664,263.8772,438.1829,258.2411,435.446,267.702" style="stroke:#A80036;stroke-width:1.0;"/><text fill="#000000" font-family="sans-serif" font-size="13" lengthAdjust="spacing" textLength="44" x="489.5" y="221.0669">submit</text><!--MD5=[d6694d316fdf8e4bc667ebec4b409f81]
link User to TravelTippingGuide--><path codeLine="60" d="M571.301,117.132 C533.301,139.793 472.643,176.114 420.5,208 C389.193,227.145 353.748,249.227 328.274,265.17 " fill="none" id="User-to-TravelTippingGuide" style="stroke:#A80036;stroke-width:1.0;"/><polygon fill="#A80036" points="323.956,267.874,333.7068,266.4874,328.1937,265.2203,329.4608,259.7072,323.956,267.874" style="stroke:#A80036;stroke-width:1.0;"/><text fill="#000000" font-family="sans-serif" font-size="13" lengthAdjust="spacing" textLength="43" x="421.5" y="221.0669">review</text><!--MD5=[bb57b6e8b6374ef6a58d0cffaeb4e6b4]
link Business to Business--><path codeLine="61" d="M1093.39,274.94 C1112.25,274.281 1128,278.635 1128,288 C1128,296.487 1115.06,300.858 1098.6,301.113 " fill="none" id="Business-to-Business" style="stroke:#A80036;stroke-width:1.0;"/><polygon fill="#A80036" points="1093.39,301.06,1102.3437,305.1626,1098.3897,301.1171,1102.4351,297.1631,1093.39,301.06" style="stroke:#A80036;stroke-width:1.0;"/><text fill="#000000" font-family="sans-serif" font-size="13" lengthAdjust="spacing" textLength="34" x="1134" y="292.5669">claim</text><!--MD5=[9d661380b54d9bff4ee137bc0bb1b8a2]
link User to Information--><path codeLine="62" d="M645.881,112.962 C688.643,133.997 760.266,170.728 818.5,208 C845.88,225.524 875.312,248.017 896.029,264.517 " fill="none" id="User-to-Information" style="stroke:#A80036;stroke-width:1.0;"/><polygon fill="#A80036" points="900.053,267.734,895.5216,258.9895,896.1478,264.6116,890.5257,265.2378,900.053,267.734" style="stroke:#A80036;stroke-width:1.0;"/><text fill="#000000" font-family="sans-serif" font-size="13" lengthAdjust="spacing" textLength="21" x="843.5" y="221.0669">like</text><!--MD5=[b8774b27f37a964db434cc75f76412b7]
link List to Business--><path codeLine="63" d="M1124.44,120.873 C1118.55,147.818 1107.43,190.79 1090.5,225 C1084.98,236.16 1077.47,247.45 1070.18,257.282 " fill="none" id="List-to-Business" style="stroke:#A80036;stroke-width:1.0;"/><polygon fill="#A80036" points="1067.07,261.401,1075.6777,256.6147,1070.0764,257.4058,1069.2853,251.8045,1067.07,261.401" style="stroke:#A80036;stroke-width:1.0;"/><text fill="#000000" font-family="sans-serif" font-size="13" lengthAdjust="spacing" textLength="41" x="1099.5" y="221.0669">shows</text><!--MD5=[3cd9423b4d7bed705cce44348efe2e61]
link User to Access--><path codeLine="65" d="M571.495,166.767 C553.989,200.718 534.252,238.996 521.847,263.054 " fill="none" id="User-to-Access" style="stroke:#A80036;stroke-width:1.0;"/><polygon fill="#A80036" points="519.467,267.671,527.1475,261.5057,521.7589,263.2272,520.0374,257.8387,519.467,267.671" style="stroke:#A80036;stroke-width:1.0;"/><text fill="#000000" font-family="sans-serif" font-size="13" lengthAdjust="spacing" textLength="32" x="551.5" y="221.0669">have</text><!--MD5=[9c16c988490faca46152c53ac11d37c1]
link User to Business--><path codeLine="66" d="M645.72,95.851 C722.042,99.483 898.182,117.791 1006.5,208 C1021.41,220.419 1031.12,239.932 1037.12,256.458 " fill="none" id="User-to-Business" style="stroke:#A80036;stroke-width:1.0;"/><polygon fill="#A80036" points="1038.87,261.479,1039.6882,251.6642,1037.2259,256.757,1032.133,254.2947,1038.87,261.479" style="stroke:#A80036;stroke-width:1.0;"/><text fill="#000000" font-family="sans-serif" font-size="13" lengthAdjust="spacing" textLength="42" x="1022.5" y="221.0669">lookup</text><!--MD5=[9c16c988490faca46152c53ac11d37c1]
link User to Business--><path codeLine="69" d="M645.912,110.656 C697.332,132.242 792.673,172.508 873.5,208 C919.943,228.394 931.44,233.756 977.5,255 C982.58,257.343 987.865,259.799 993.146,262.264 " fill="none" id="User-to-Business-1" style="stroke:#A80036;stroke-width:1.0;"/><polygon fill="#A80036" points="997.987,264.527,991.5291,257.0909,993.4578,262.4088,988.14,264.3376,997.987,264.527" style="stroke:#A80036;stroke-width:1.0;"/><text fill="#000000" font-family="sans-serif" font-size="13" lengthAdjust="spacing" textLength="24" x="912.5" y="221.0669">add</text><!--MD5=[0b7921e07c4445f3f91f460a4435ef4e]
link User to TipCalculator--><path codeLine="67" d="M571.498,104.256 C487.306,125.864 275.691,183.285 107.5,255 C103.328,256.779 99.0608,258.757 94.8237,260.831 " fill="none" id="User-to-TipCalculator" style="stroke:#A80036;stroke-width:1.0;"/><polygon fill="#A80036" points="90.2438,263.116,100.0829,262.6776,94.7179,260.8839,96.5116,255.519,90.2438,263.116" style="stroke:#A80036;stroke-width:1.0;"/><text fill="#000000" font-family="sans-serif" font-size="13" lengthAdjust="spacing" textLength="23" x="229.5" y="221.0669">use</text><!--MD5=[41c4f0e7aa53c7c1461746fe07354b36]
link User to SearchResult--><path codeLine="68" d="M645.606,151.787 C657.022,169.641 669.479,189.519 680.5,208 C691.431,226.329 703.159,247.468 711.757,263.264 " fill="none" id="User-to-SearchResult" style="stroke:#A80036;stroke-width:1.0;"/><polygon fill="#A80036" points="714.32,267.986,713.5412,258.168,711.9344,263.5918,706.5105,261.985,714.32,267.986" style="stroke:#A80036;stroke-width:1.0;"/><text fill="#000000" font-family="sans-serif" font-size="13" lengthAdjust="spacing" textLength="23" x="690.5" y="221.0669">see</text><!--MD5=[8a8ea1534b93302bf9a2cd8ee8560db7]
link Administrator to Comment--><path codeLine="70" d="M1254.48,133.111 C1237.21,153.555 1218.52,180.219 1209.5,208 C1202.88,228.404 1216.26,249.039 1230.56,264.101 " fill="none" id="Administrator-to-Comment" style="stroke:#A80036;stroke-width:1.0;"/><polygon fill="#A80036" points="1234.2,267.806,1230.7315,258.5881,1230.6903,264.2448,1225.0336,264.2036,1234.2,267.806" style="stroke:#A80036;stroke-width:1.0;"/><text fill="#000000" font-family="sans-serif" font-size="13" lengthAdjust="spacing" textLength="37" x="1210.5" y="221.0669">verify</text><!--MD5=[8a8ea1534b93302bf9a2cd8ee8560db7]
link Administrator to Comment--><path codeLine="73" d="M1284.7,133.393 C1277.86,172.035 1267.52,230.438 1261.76,262.966 " fill="none" id="Administrator-to-Comment-1" style="stroke:#A80036;stroke-width:1.0;"/><polygon fill="#A80036" points="1260.87,267.957,1266.3759,259.7909,1261.7406,263.0334,1258.4981,258.398,1260.87,267.957" style="stroke:#A80036;stroke-width:1.0;"/><text fill="#000000" font-family="sans-serif" font-size="13" lengthAdjust="spacing" textLength="53" x="1272.5" y="221.0669">approve</text><!--MD5=[6881d1d322c8f6c932c5fa96cae590ea]
link User to TravelGuide--><path codeLine="71" d="M608.5,178.097 C608.5,208.742 608.5,241.174 608.5,262.594 " fill="none" id="User-to-TravelGuide" style="stroke:#A80036;stroke-width:1.0;"/><polygon fill="#A80036" points="608.5,267.794,612.5,258.794,608.5,262.794,604.5,258.794,608.5,267.794" style="stroke:#A80036;stroke-width:1.0;"/><text fill="#000000" font-family="sans-serif" font-size="13" lengthAdjust="spacing" textLength="62" x="609.5" y="221.0669">download</text><!--MD5=[4981c864524f50ab1b82211e3369f909]
link User to Application--><path codeLine="72" d="M571.254,107.899 C500.316,132.949 341.562,191.338 214.5,255 C208.374,258.069 202.012,261.595 195.912,265.158 " fill="none" id="User-to-Application" style="stroke:#A80036;stroke-width:1.0;"/><polygon fill="#A80036" points="191.306,267.884,201.0884,266.7415,195.6086,265.337,197.0131,259.8573,191.306,267.884" style="stroke:#A80036;stroke-width:1.0;"/><text fill="#000000" font-family="sans-serif" font-size="13" lengthAdjust="spacing" textLength="21" x="311.5" y="221.0669">like</text><!--MD5=[b0f65236b6e4863e2825c1db86e431e6]
link Administrator to Number--><path codeLine="74" d="M1310.5,133.393 C1329.69,172.194 1358.75,230.92 1374.81,263.366 " fill="none" id="Administrator-to-Number" style="stroke:#A80036;stroke-width:1.0;"/><polygon fill="#A80036" points="1377.08,267.957,1376.678,258.1163,1374.8645,263.4746,1369.5062,261.6611,1377.08,267.957" style="stroke:#A80036;stroke-width:1.0;"/><text fill="#000000" font-family="sans-serif" font-size="13" lengthAdjust="spacing" textLength="41" x="1357.5" y="221.0669">assign</text><!--MD5=[bf15a5c07a722e090c298287c456be7e]
@startuml
hide circle
class User<actor> {
}
class Business<actor> {
}
class Administrator<actor> {
}
class TipCalculator {
	calculate()
	split()
}
class Tip {
}
class User {
	lookup()
	review()
	like()
	add()
	see()
	reduced()
	download()
	use()
	submit()
	have()
}
class Application {
}
class TravelTippingGuide {
}
class Administrator {
	assign()
	verify()
	approve()
}
class Comment {
}
class Question {
}
class Business {
	claim()
}
class Number {
}
class Access {
}
class TravelGuide {
}
class List {
	shows()
}
class SearchResult {
}
class Friction {
}
class Information {
}
TipCalculator - -> Tip : split
User - -> Friction : reduced
User - -> Question : submit
User - -> TravelTippingGuide : review
Business - -> Business : claim
User - -> Information : like
List - -> Business : shows
TipCalculator - -> Tip : calculate
User - -> Access : have
User - -> Business : lookup
User - -> TipCalculator : use
User - -> SearchResult : see
User - -> Business : add
Administrator - -> Comment : verify
User - -> TravelGuide : download
User - -> Application : like
Administrator - -> Comment : approve
Administrator - -> Number : assign
@enduml

PlantUML version 1.2021.6beta6(Unknown compile time)
(GPL source distribution)
Java Runtime: Java(TM) SE Runtime Environment
JVM: Java HotSpot(TM) 64-Bit Server VM
Default Encoding: UTF-8
Language: en
Country: US
--></g></svg>