<?xml version="1.0" encoding="UTF-8" standalone="no"?><svg xmlns="http://www.w3.org/2000/svg" xmlns:xlink="http://www.w3.org/1999/xlink" contentScriptType="application/ecmascript" contentStyleType="text/css" height="488px" preserveAspectRatio="none" style="width:1053px;height:488px;background:#FFFFFF;" version="1.1" viewBox="0 0 1053 488" width="1053px" zoomAndPan="magnify"><defs><filter height="300%" id="f16aktvzqf7gdx" width="300%" x="-1" y="-1"><feGaussianBlur result="blurOut" stdDeviation="2.0"/><feColorMatrix in="blurOut" result="blurOut2" type="matrix" values="0 0 0 0 0 0 0 0 0 0 0 0 0 0 0 0 0 0 .4 0"/><feOffset dx="4.0" dy="4.0" in="blurOut2" result="blurOut3"/><feBlend in="SourceGraphic" in2="blurOut3" mode="normal"/></filter></defs><g><!--MD5=[70aa74288b4705a51315db4e0d6b3cbb]
class CaseManager--><rect codeLine="39" fill="#FEFECE" filter="url(#f16aktvzqf7gdx)" height="39.9688" id="CaseManager" style="stroke:#A80036;stroke-width:1.5;" width="123" x="271.5865" y="10"/><text fill="#000000" font-family="sans-serif" font-size="12" lengthAdjust="spacing" textLength="82" x="274.5865" y="26.1387">CaseManager</text><rect fill="#FFFFFF" height="15.9688" style="stroke:#000000;stroke-width:1.0;stroke-dasharray:2.0,2.0;" width="33" x="364.5865" y="7"/><text fill="#000000" font-family="sans-serif" font-size="12" font-style="italic" lengthAdjust="spacing" textLength="31" x="365.5865" y="19.1387">actor</text><line style="stroke:#A80036;stroke-width:1.5;" x1="272.5865" x2="393.5865" y1="33.9688" y2="33.9688"/><line style="stroke:#A80036;stroke-width:1.5;" x1="272.5865" x2="393.5865" y1="41.9688" y2="41.9688"/><!--MD5=[e8dcfdde5c6ce5239f59acd294696d72]
class Case--><rect codeLine="4" fill="#FEFECE" filter="url(#f16aktvzqf7gdx)" height="39.9688" id="Case" style="stroke:#A80036;stroke-width:1.5;" width="36" x="77.0863" y="10"/><text fill="#000000" font-family="sans-serif" font-size="12" lengthAdjust="spacing" textLength="30" x="80.0863" y="26.1387">Case</text><line style="stroke:#A80036;stroke-width:1.5;" x1="78.0863" x2="112.0863" y1="33.9688" y2="33.9688"/><line style="stroke:#A80036;stroke-width:1.5;" x1="78.0863" x2="112.0863" y1="41.9688" y2="41.9688"/><!--MD5=[63dd87716ef75a5caca5dce59428e94a]
class File--><rect codeLine="6" fill="#FEFECE" filter="url(#f16aktvzqf7gdx)" height="39.9688" id="File" style="stroke:#A80036;stroke-width:1.5;" width="27" x="15.5863" y="311.5"/><text fill="#000000" font-family="sans-serif" font-size="12" lengthAdjust="spacing" textLength="21" x="18.5863" y="327.6387">File</text><line style="stroke:#A80036;stroke-width:1.5;" x1="16.5863" x2="41.5863" y1="335.4688" y2="335.4688"/><line style="stroke:#A80036;stroke-width:1.5;" x1="16.5863" x2="41.5863" y1="343.4688" y2="343.4688"/><!--MD5=[b24ed8d4ae84bae9290d9aab401637c7]
class Manager--><rect codeLine="8" fill="#FEFECE" filter="url(#f16aktvzqf7gdx)" height="116.7969" id="Manager" style="stroke:#A80036;stroke-width:1.5;" width="67" x="299.5865" y="111"/><text fill="#000000" font-family="sans-serif" font-size="12" lengthAdjust="spacing" textLength="52" x="307.0865" y="127.1387">Manager</text><line style="stroke:#A80036;stroke-width:1.5;" x1="300.5865" x2="365.5865" y1="134.9688" y2="134.9688"/><line style="stroke:#A80036;stroke-width:1.5;" x1="300.5865" x2="365.5865" y1="142.9688" y2="142.9688"/><text fill="#000000" font-family="sans-serif" font-size="11" lengthAdjust="spacing" textLength="55" x="305.5865" y="157.1792">manage()</text><text fill="#000000" font-family="sans-serif" font-size="11" lengthAdjust="spacing" textLength="45" x="305.5865" y="169.9839">create()</text><text fill="#000000" font-family="sans-serif" font-size="11" lengthAdjust="spacing" textLength="36" x="305.5865" y="182.7886">save()</text><text fill="#000000" font-family="sans-serif" font-size="11" lengthAdjust="spacing" textLength="46" x="305.5865" y="195.5933">upload()</text><text fill="#000000" font-family="sans-serif" font-size="11" lengthAdjust="spacing" textLength="26" x="305.5865" y="208.3979">run()</text><text fill="#000000" font-family="sans-serif" font-size="11" lengthAdjust="spacing" textLength="51" x="305.5865" y="221.2026">monitor()</text><!--MD5=[dbb8b4f13c7b21394f9d757e58732f45]
class Service--><rect codeLine="16" fill="#FEFECE" filter="url(#f16aktvzqf7gdx)" height="39.9688" id="Service" style="stroke:#A80036;stroke-width:1.5;" width="52" x="893.0865" y="311.5"/><text fill="#000000" font-family="sans-serif" font-size="12" lengthAdjust="spacing" textLength="46" x="896.0865" y="327.6387">Service</text><line style="stroke:#A80036;stroke-width:1.5;" x1="894.0865" x2="944.0865" y1="335.4688" y2="335.4688"/><line style="stroke:#A80036;stroke-width:1.5;" x1="894.0865" x2="944.0865" y1="343.4688" y2="343.4688"/><!--MD5=[2e42295458bb0bec21c9622a623eb29e]
class Time--><rect codeLine="18" fill="#FEFECE" filter="url(#f16aktvzqf7gdx)" height="52.7734" id="Time" style="stroke:#A80036;stroke-width:1.5;" width="44" x="219.0865" y="305"/><text fill="#000000" font-family="sans-serif" font-size="12" lengthAdjust="spacing" textLength="29" x="226.5865" y="321.1387">Time</text><line style="stroke:#A80036;stroke-width:1.5;" x1="220.0865" x2="262.0865" y1="328.9688" y2="328.9688"/><line style="stroke:#A80036;stroke-width:1.5;" x1="220.0865" x2="262.0865" y1="336.9688" y2="336.9688"/><text fill="#000000" font-family="sans-serif" font-size="11" lengthAdjust="spacing" textLength="32" x="225.0865" y="351.1792">lose()</text><!--MD5=[c881b25adf3665c6568c9693d41a70f3]
class Activity--><rect codeLine="21" fill="#FEFECE" filter="url(#f16aktvzqf7gdx)" height="39.9688" id="Activity" style="stroke:#A80036;stroke-width:1.5;" width="49" x="155.5865" y="435"/><text fill="#000000" font-family="sans-serif" font-size="12" lengthAdjust="spacing" textLength="43" x="158.5865" y="451.1387">Activity</text><line style="stroke:#A80036;stroke-width:1.5;" x1="156.5865" x2="203.5865" y1="458.9688" y2="458.9688"/><line style="stroke:#A80036;stroke-width:1.5;" x1="156.5865" x2="203.5865" y1="466.9688" y2="466.9688"/><!--MD5=[8f3fa1c68227f7296546d55286502fc6]
class Frequency--><rect codeLine="23" fill="#FEFECE" filter="url(#f16aktvzqf7gdx)" height="39.9688" id="Frequency" style="stroke:#A80036;stroke-width:1.5;" width="70" x="298.0865" y="311.5"/><text fill="#000000" font-family="sans-serif" font-size="12" lengthAdjust="spacing" textLength="64" x="301.0865" y="327.6387">Frequency</text><line style="stroke:#A80036;stroke-width:1.5;" x1="299.0865" x2="367.0865" y1="335.4688" y2="335.4688"/><line style="stroke:#A80036;stroke-width:1.5;" x1="299.0865" x2="367.0865" y1="343.4688" y2="343.4688"/><!--MD5=[f9a29335b499db729be669fd1bd54958]
class Account--><rect codeLine="25" fill="#FEFECE" filter="url(#f16aktvzqf7gdx)" height="39.9688" id="Account" style="stroke:#A80036;stroke-width:1.5;" width="54" x="403.0865" y="311.5"/><text fill="#000000" font-family="sans-serif" font-size="12" lengthAdjust="spacing" textLength="48" x="406.0865" y="327.6387">Account</text><line style="stroke:#A80036;stroke-width:1.5;" x1="404.0865" x2="456.0865" y1="335.4688" y2="335.4688"/><line style="stroke:#A80036;stroke-width:1.5;" x1="404.0865" x2="456.0865" y1="343.4688" y2="343.4688"/><!--MD5=[dc30b613f1e19857666fe974d6d5a9b4]
class Youth--><rect codeLine="27" fill="#FEFECE" filter="url(#f16aktvzqf7gdx)" height="65.5781" id="Youth" style="stroke:#A80036;stroke-width:1.5;" width="59" x="955.5865" y="136.5"/><text fill="#000000" font-family="sans-serif" font-size="12" lengthAdjust="spacing" textLength="33" x="968.5865" y="152.6387">Youth</text><line style="stroke:#A80036;stroke-width:1.5;" x1="956.5865" x2="1013.5865" y1="160.4688" y2="160.4688"/><line style="stroke:#A80036;stroke-width:1.5;" x1="956.5865" x2="1013.5865" y1="168.4688" y2="168.4688"/><text fill="#000000" font-family="sans-serif" font-size="11" lengthAdjust="spacing" textLength="47" x="961.5865" y="182.6792">access()</text><text fill="#000000" font-family="sans-serif" font-size="11" lengthAdjust="spacing" textLength="37" x="961.5865" y="195.4839">have()</text><!--MD5=[3e5b84d7c7f2d9880c56f63037c32f18]
class MonitorCase--><rect codeLine="31" fill="#FEFECE" filter="url(#f16aktvzqf7gdx)" height="39.9688" id="MonitorCase" style="stroke:#A80036;stroke-width:1.5;" width="81" x="492.5865" y="311.5"/><text fill="#000000" font-family="sans-serif" font-size="12" lengthAdjust="spacing" textLength="75" x="495.5865" y="327.6387">MonitorCase</text><line style="stroke:#A80036;stroke-width:1.5;" x1="493.5865" x2="572.5865" y1="335.4688" y2="335.4688"/><line style="stroke:#A80036;stroke-width:1.5;" x1="493.5865" x2="572.5865" y1="343.4688" y2="343.4688"/><!--MD5=[2171e31279d9a49de620b944eca7c983]
class ManagementService--><rect codeLine="33" fill="#FEFECE" filter="url(#f16aktvzqf7gdx)" height="39.9688" id="ManagementService" style="stroke:#A80036;stroke-width:1.5;" width="129" x="608.5865" y="311.5"/><text fill="#000000" font-family="sans-serif" font-size="12" lengthAdjust="spacing" textLength="123" x="611.5865" y="327.6387">ManagementService</text><line style="stroke:#A80036;stroke-width:1.5;" x1="609.5865" x2="736.5865" y1="335.4688" y2="335.4688"/><line style="stroke:#A80036;stroke-width:1.5;" x1="609.5865" x2="736.5865" y1="343.4688" y2="343.4688"/><!--MD5=[59b530d44ae785dc18db921986a9c15c]
class Document--><rect codeLine="35" fill="#FEFECE" filter="url(#f16aktvzqf7gdx)" height="39.9688" id="Document" style="stroke:#A80036;stroke-width:1.5;" width="67" x="772.5865" y="311.5"/><text fill="#000000" font-family="sans-serif" font-size="12" lengthAdjust="spacing" textLength="61" x="775.5865" y="327.6387">Document</text><line style="stroke:#A80036;stroke-width:1.5;" x1="773.5865" x2="838.5865" y1="335.4688" y2="335.4688"/><line style="stroke:#A80036;stroke-width:1.5;" x1="773.5865" x2="838.5865" y1="343.4688" y2="343.4688"/><!--MD5=[dab16d122782a892ddb6ee0eadcd68f0]
class Access--><rect codeLine="37" fill="#FEFECE" filter="url(#f16aktvzqf7gdx)" height="39.9688" id="Access" style="stroke:#A80036;stroke-width:1.5;" width="50" x="989.0865" y="311.5"/><text fill="#000000" font-family="sans-serif" font-size="12" lengthAdjust="spacing" textLength="44" x="992.0865" y="327.6387">Access</text><line style="stroke:#A80036;stroke-width:1.5;" x1="990.0865" x2="1038.0865" y1="335.4688" y2="335.4688"/><line style="stroke:#A80036;stroke-width:1.5;" x1="990.0865" x2="1038.0865" y1="343.4688" y2="343.4688"/><!--MD5=[9094504a78a8a624dc0e3735af7308d8]
link Manager to File--><path codeLine="41" d="M299.4195,174.996 C226.8095,185.456 59.3498,213.931 26.0863,258 C15.8583,271.55 17.2303,290.926 20.8237,306.238 " fill="none" id="Manager-to-File" style="stroke:#A80036;stroke-width:1.0;"/><polygon fill="#A80036" points="22.1139,311.261,23.7483,301.5487,20.8696,306.4183,16,303.5396,22.1139,311.261" style="stroke:#A80036;stroke-width:1.0;"/><text fill="#000000" font-family="sans-serif" font-size="13" lengthAdjust="spacing" textLength="53" x="27.0863" y="271.0669">manage</text><!--MD5=[9094504a78a8a624dc0e3735af7308d8]
link Manager to File--><path codeLine="56" d="M299.4305,181.158 C256.4545,195.482 180.5395,223.211 121.0865,258 C93.1833,274.327 64.4567,298.335 46.6901,314.188 " fill="none" id="Manager-to-File-1" style="stroke:#A80036;stroke-width:1.0;"/><polygon fill="#A80036" points="42.8522,317.638,52.2195,314.5961,46.5706,314.2954,46.8713,308.6465,42.8522,317.638" style="stroke:#A80036;stroke-width:1.0;"/><text fill="#000000" font-family="sans-serif" font-size="13" lengthAdjust="spacing" textLength="21" x="122.0865" y="271.0669">run</text><!--MD5=[e9ec99bf7e27714a78d5fae6d5c03e65]
link Manager to Time--><path codeLine="42" d="M299.8725,228.264 C285.8045,252.73 270.0035,280.21 258.3285,300.514 " fill="none" id="Manager-to-Time" style="stroke:#A80036;stroke-width:1.0;"/><polygon fill="#A80036" points="255.7535,304.993,263.708,299.1856,258.2463,300.6587,256.7732,295.1971,255.7535,304.993" style="stroke:#A80036;stroke-width:1.0;"/><text fill="#000000" font-family="sans-serif" font-size="13" lengthAdjust="spacing" textLength="31" x="283.0865" y="271.0669">save</text><!--MD5=[de5e3191b1ab94e40b28ecd23b327baf]
reverse link Youth to Service--><path codeLine="43" d="M966.7615,214.924 C953.7085,246.566 936.8105,287.533 927.0355,311.23 " fill="none" id="Youth-backto-Service" style="stroke:#A80036;stroke-width:1.0;"/><polygon fill="#FFFFFF" points="971.7305,202.878,965.7449,206.8995,967.1549,213.9714,973.1405,209.9499,971.7305,202.878" style="stroke:#A80036;stroke-width:1.0;"/><!--MD5=[2fe8c14c7ea51c13c14db97931569c74]
link Manager to ManagementService--><path codeLine="44" d="M366.8915,186.258 C404.3625,203.738 466.5795,232.805 520.0865,258 C556.4355,275.116 597.5865,294.623 628.0495,309.089 " fill="none" id="Manager-to-ManagementService" style="stroke:#A80036;stroke-width:1.0;"/><polygon fill="#A80036" points="632.8445,311.366,626.4294,303.893,628.3275,309.2218,622.9987,311.12,632.8445,311.366" style="stroke:#A80036;stroke-width:1.0;"/><text fill="#000000" font-family="sans-serif" font-size="13" lengthAdjust="spacing" textLength="41" x="555.0865" y="271.0669">create</text><!--MD5=[d898aa69dea030ca287f48f331dab8e3]
link Manager to Account--><path codeLine="45" d="M366.7405,226.011 C383.4955,253.65 402.8685,285.604 415.7335,306.825 " fill="none" id="Manager-to-Account" style="stroke:#A80036;stroke-width:1.0;"/><polygon fill="#A80036" points="418.3765,311.185,417.13,301.4153,415.7838,306.9097,410.2895,305.5635,418.3765,311.185" style="stroke:#A80036;stroke-width:1.0;"/><text fill="#000000" font-family="sans-serif" font-size="13" lengthAdjust="spacing" textLength="53" x="397.0865" y="271.0669">manage</text><!--MD5=[3c9711882cf7bc34c8adfc76a608a793]
link Time to Activity--><path codeLine="46" d="M228.1495,358.267 C217.4855,379.5086 202.4755,409.4061 192.0785,430.1142 " fill="none" id="Time-to-Activity" style="stroke:#A80036;stroke-width:1.0;"/><polygon fill="#A80036" points="189.8025,434.6472,197.4161,428.3996,192.0464,430.179,190.267,424.8093,189.8025,434.6472" style="stroke:#A80036;stroke-width:1.0;"/><text fill="#000000" font-family="sans-serif" font-size="13" lengthAdjust="spacing" textLength="26" x="214.0865" y="401.0669">lose</text><!--MD5=[f4da411f92095118d26502e401646de0]
reverse link CaseManager to Manager--><path codeLine="47" d="M333.0865,70.565 C333.0865,83.149 333.0865,97.334 333.0865,110.922 " fill="none" id="CaseManager-backto-Manager" style="stroke:#A80036;stroke-width:1.0;"/><polygon fill="none" points="326.0865,70.119,333.0865,50.119,340.0865,70.119,326.0865,70.119" style="stroke:#A80036;stroke-width:1.0;"/><!--MD5=[f6a2c872e8d3dbac80eeb5d0b058c8fd]
link Manager to Activity--><path codeLine="48" d="M299.4305,184.821 C257.4055,204.782 187.4675,245.362 158.0865,305 C138.1225,345.523 155.1225,399.2081 168.2885,429.8368 " fill="none" id="Manager-to-Activity" style="stroke:#A80036;stroke-width:1.0;"/><polygon fill="#A80036" points="170.3625,434.549,170.3976,424.7002,168.3481,429.9727,163.0755,427.9232,170.3625,434.549" style="stroke:#A80036;stroke-width:1.0;"/><text fill="#000000" font-family="sans-serif" font-size="13" lengthAdjust="spacing" textLength="41" x="159.0865" y="336.0669">create</text><!--MD5=[c587a1797c16b191946eea7a945b96f9]
link Manager to Document--><path codeLine="49" d="M366.8095,179.328 C439.1755,198.686 614.2195,247.738 755.0865,305 C759.2615,306.697 763.5655,308.598 767.8195,310.575 " fill="none" id="Manager-to-Document" style="stroke:#A80036;stroke-width:1.0;"/><polygon fill="#A80036" points="772.4075,312.744,765.9828,305.2792,767.8878,310.6056,762.5614,312.5106,772.4075,312.744" style="stroke:#A80036;stroke-width:1.0;"/><text fill="#000000" font-family="sans-serif" font-size="13" lengthAdjust="spacing" textLength="43" x="677.0865" y="271.0669">upload</text><!--MD5=[bca0583dc7b79257a446bf78323c68ac]
link Manager to Service--><path codeLine="50" d="M366.8485,176.374 C435.6995,188.698 596.9785,219.341 729.0865,258 C786.3235,274.749 850.7485,300.96 887.9555,316.854 " fill="none" id="Manager-to-Service" style="stroke:#A80036;stroke-width:1.0;"/><polygon fill="#A80036" points="892.7995,318.931,886.1034,311.7086,888.2039,316.9611,882.9515,319.0616,892.7995,318.931" style="stroke:#A80036;stroke-width:1.0;"/><text fill="#000000" font-family="sans-serif" font-size="13" lengthAdjust="spacing" textLength="50" x="778.0865" y="271.0669">monitor</text><!--MD5=[fdf04c7bba981775c0945b8f2aaea74a]
link Youth to Access--><path codeLine="51" d="M990.9545,202.878 C996.5015,233.481 1004.6975,278.702 1009.6985,306.291 " fill="none" id="Youth-to-Access" style="stroke:#A80036;stroke-width:1.0;"/><polygon fill="#A80036" points="1010.5945,311.23,1012.9263,301.6612,1009.7033,306.3101,1005.0544,303.087,1010.5945,311.23" style="stroke:#A80036;stroke-width:1.0;"/><text fill="#000000" font-family="sans-serif" font-size="13" lengthAdjust="spacing" textLength="32" x="1005.0865" y="271.0669">have</text><!--MD5=[2645ed043f89adf79d596f755b25ac73]
reverse link Case to File--><path codeLine="52" d="M79.8308,61.873 C59.6181,104.669 25.0114,185.013 12.0863,258 C8.8626,276.204 14.5448,296.693 20.1893,311.234 " fill="none" id="Case-backto-File" style="stroke:#A80036;stroke-width:1.0;"/><polygon fill="#FFFFFF" points="85.4814,50.094,79.2797,53.7737,80.2911,60.9135,86.4927,57.2338,85.4814,50.094" style="stroke:#A80036;stroke-width:1.0;"/><!--MD5=[16eabf39af29deb74e27fa65311fa276]
reverse link Case to Manager--><path codeLine="53" d="M124.8005,48.167 C169.2345,73.838 252.7495,122.087 299.3955,149.036 " fill="none" id="Case-backto-Manager" style="stroke:#A80036;stroke-width:1.0;"/><polygon fill="#FFFFFF" points="113.3665,41.561,116.5601,48.0263,123.7564,47.565,120.5628,41.0997,113.3665,41.561" style="stroke:#A80036;stroke-width:1.0;"/><!--MD5=[87a8dca685390457591af073bf35855b]
link Manager to MonitorCase--><path codeLine="54" d="M366.8265,191.703 C392.8585,208.584 429.3295,233.387 459.0865,258 C477.8675,273.535 497.5005,292.938 511.8215,307.762 " fill="none" id="Manager-to-MonitorCase" style="stroke:#A80036;stroke-width:1.0;"/><polygon fill="#A80036" points="515.3445,311.427,511.9897,302.1671,511.8789,307.8229,506.2231,307.712,515.3445,311.427" style="stroke:#A80036;stroke-width:1.0;"/><text fill="#000000" font-family="sans-serif" font-size="13" lengthAdjust="spacing" textLength="31" x="480.0865" y="271.0669">save</text><!--MD5=[ff4e19812009c4a9874807cde86c2f36]
link Manager to Frequency--><path codeLine="55" d="M333.0865,228.264 C333.0865,255.165 333.0865,285.71 333.0865,306.352 " fill="none" id="Manager-to-Frequency" style="stroke:#A80036;stroke-width:1.0;"/><polygon fill="#A80036" points="333.0865,311.379,337.0865,302.379,333.0865,306.379,329.0865,302.379,333.0865,311.379" style="stroke:#A80036;stroke-width:1.0;"/><text fill="#000000" font-family="sans-serif" font-size="13" lengthAdjust="spacing" textLength="21" x="334.0865" y="271.0669">run</text><!--MD5=[e5db1af74c374130e186cef9519d8fe1]
@startuml
hide circle
class CaseManager<actor> {
}
class Case {
}
class File {
}
class Manager {
	manage()
	create()
	save()
	upload()
	run()
	monitor()
}
class Service {
}
class Time {
	lose()
}
class Activity {
}
class Frequency {
}
class Account {
}
class Youth {
	access()
	have()
}
class MonitorCase {
}
class ManagementService {
}
class Document {
}
class Access {
}
class CaseManager {
}
Manager - -> File : manage
Manager - -> Time : save
Youth o- - Service
Manager - -> ManagementService : create
Manager - -> Account : manage
Time - -> Activity : lose
CaseManager <|- - Manager
Manager - -> Activity : create
Manager - -> Document : upload
Manager - -> Service : monitor
Youth - -> Access : have
Case o- - File
Case o- - Manager
Manager - -> MonitorCase : save
Manager - -> Frequency : run
Manager - -> File : run
@enduml

PlantUML version 1.2021.10beta2(Unknown compile time)
(GPL source distribution)
Java Runtime: Java(TM) SE Runtime Environment
JVM: Java HotSpot(TM) 64-Bit Server VM
Default Encoding: UTF-8
Language: en
Country: US
--></g></svg>