<?xml version="1.0" encoding="UTF-8" standalone="no"?><svg xmlns="http://www.w3.org/2000/svg" xmlns:xlink="http://www.w3.org/1999/xlink" contentScriptType="application/ecmascript" contentStyleType="text/css" height="231px" preserveAspectRatio="none" style="width:632px;height:231px;background:#FFFFFF;" version="1.1" viewBox="0 0 632 231" width="632px" zoomAndPan="magnify"><defs><filter height="300%" id="fqtrgis7oh3w5" width="300%" x="-1" y="-1"><feGaussianBlur result="blurOut" stdDeviation="2.0"/><feColorMatrix in="blurOut" result="blurOut2" type="matrix" values="0 0 0 0 0 0 0 0 0 0 0 0 0 0 0 0 0 0 .4 0"/><feOffset dx="4.0" dy="4.0" in="blurOut2" result="blurOut3"/><feBlend in="SourceGraphic" in2="blurOut3" mode="normal"/></filter></defs><g><!--MD5=[7e60c9637a3e1c3cd06babfa3271b00a]
class SaleAgent--><rect codeLine="6" fill="#FEFECE" filter="url(#fqtrgis7oh3w5)" height="91.1875" id="SaleAgent" style="stroke:#A80036;stroke-width:1.5;" width="102" x="144.5" y="10"/><text fill="#000000" font-family="sans-serif" font-size="12" lengthAdjust="spacing" textLength="61" x="147.5" y="26.1387">SaleAgent</text><rect fill="#FFFFFF" height="15.9688" style="stroke:#000000;stroke-width:1.0;stroke-dasharray:2.0,2.0;" width="33" x="216.5" y="7"/><text fill="#000000" font-family="sans-serif" font-size="12" font-style="italic" lengthAdjust="spacing" textLength="31" x="217.5" y="19.1387">actor</text><line style="stroke:#A80036;stroke-width:1.5;" x1="145.5" x2="245.5" y1="33.9688" y2="33.9688"/><line style="stroke:#A80036;stroke-width:1.5;" x1="145.5" x2="245.5" y1="41.9688" y2="41.9688"/><text fill="#000000" font-family="sans-serif" font-size="11" lengthAdjust="spacing" textLength="36" x="150.5" y="56.1792">save()</text><text fill="#000000" font-family="sans-serif" font-size="11" lengthAdjust="spacing" textLength="62" x="150.5" y="68.9839">clicktocall()</text><text fill="#000000" font-family="sans-serif" font-size="11" lengthAdjust="spacing" textLength="52" x="150.5" y="81.7886">request()</text><text fill="#000000" font-family="sans-serif" font-size="11" lengthAdjust="spacing" textLength="38" x="150.5" y="94.5933">close()</text><!--MD5=[e8cbdd84d283a3a5c9a98727ec403a0a]
class SaleManager--><rect codeLine="16" fill="#FEFECE" filter="url(#fqtrgis7oh3w5)" height="78.3828" id="SaleManager" style="stroke:#A80036;stroke-width:1.5;" width="119" x="443" y="16.5"/><text fill="#000000" font-family="sans-serif" font-size="12" lengthAdjust="spacing" textLength="78" x="446" y="32.6387">SaleManager</text><rect fill="#FFFFFF" height="15.9688" style="stroke:#000000;stroke-width:1.0;stroke-dasharray:2.0,2.0;" width="33" x="532" y="13.5"/><text fill="#000000" font-family="sans-serif" font-size="12" font-style="italic" lengthAdjust="spacing" textLength="31" x="533" y="25.6387">actor</text><line style="stroke:#A80036;stroke-width:1.5;" x1="444" x2="561" y1="40.4688" y2="40.4688"/><line style="stroke:#A80036;stroke-width:1.5;" x1="444" x2="561" y1="48.4688" y2="48.4688"/><text fill="#000000" font-family="sans-serif" font-size="11" lengthAdjust="spacing" textLength="46" x="449" y="62.6792">assure()</text><text fill="#000000" font-family="sans-serif" font-size="11" lengthAdjust="spacing" textLength="33" x="449" y="75.4839">train()</text><text fill="#000000" font-family="sans-serif" font-size="11" lengthAdjust="spacing" textLength="29" x="449" y="88.2886">use()</text><!--MD5=[3231c3d3ce17334343e5bf63c69a3780]
class ConferenceCall--><rect codeLine="12" fill="#FEFECE" filter="url(#fqtrgis7oh3w5)" height="39.9688" id="ConferenceCall" style="stroke:#A80036;stroke-width:1.5;" width="97" x="7" y="178"/><text fill="#000000" font-family="sans-serif" font-size="12" lengthAdjust="spacing" textLength="91" x="10" y="194.1387">ConferenceCall</text><line style="stroke:#A80036;stroke-width:1.5;" x1="8" x2="103" y1="201.9688" y2="201.9688"/><line style="stroke:#A80036;stroke-width:1.5;" x1="8" x2="103" y1="209.9688" y2="209.9688"/><!--MD5=[2e42295458bb0bec21c9622a623eb29e]
class Time--><rect codeLine="14" fill="#FEFECE" filter="url(#fqtrgis7oh3w5)" height="39.9688" id="Time" style="stroke:#A80036;stroke-width:1.5;" width="35" x="139" y="178"/><text fill="#000000" font-family="sans-serif" font-size="12" lengthAdjust="spacing" textLength="29" x="142" y="194.1387">Time</text><line style="stroke:#A80036;stroke-width:1.5;" x1="140" x2="173" y1="201.9688" y2="201.9688"/><line style="stroke:#A80036;stroke-width:1.5;" x1="140" x2="173" y1="209.9688" y2="209.9688"/><!--MD5=[9d44916250b776386006c440668bcfbb]
class Agent--><rect codeLine="21" fill="#FEFECE" filter="url(#fqtrgis7oh3w5)" height="39.9688" id="Agent" style="stroke:#A80036;stroke-width:1.5;" width="41" x="393" y="178"/><text fill="#000000" font-family="sans-serif" font-size="12" lengthAdjust="spacing" textLength="35" x="396" y="194.1387">Agent</text><line style="stroke:#A80036;stroke-width:1.5;" x1="394" x2="433" y1="201.9688" y2="201.9688"/><line style="stroke:#A80036;stroke-width:1.5;" x1="394" x2="433" y1="209.9688" y2="209.9688"/><!--MD5=[2ce0c9fb7f55b1e256ab28a8ea6b25ec]
class Customer--><rect codeLine="23" fill="#FEFECE" filter="url(#fqtrgis7oh3w5)" height="39.9688" id="Customer" style="stroke:#A80036;stroke-width:1.5;" width="64" x="209.5" y="178"/><text fill="#000000" font-family="sans-serif" font-size="12" lengthAdjust="spacing" textLength="58" x="212.5" y="194.1387">Customer</text><line style="stroke:#A80036;stroke-width:1.5;" x1="210.5" x2="272.5" y1="201.9688" y2="201.9688"/><line style="stroke:#A80036;stroke-width:1.5;" x1="210.5" x2="272.5" y1="209.9688" y2="209.9688"/><!--MD5=[e0bd77868626c22cfc0c5aeed1b8d67f]
class Sale--><rect codeLine="25" fill="#FEFECE" filter="url(#fqtrgis7oh3w5)" height="39.9688" id="Sale" style="stroke:#A80036;stroke-width:1.5;" width="32" x="322.5" y="178"/><text fill="#000000" font-family="sans-serif" font-size="12" lengthAdjust="spacing" textLength="26" x="325.5" y="194.1387">Sale</text><line style="stroke:#A80036;stroke-width:1.5;" x1="323.5" x2="353.5" y1="201.9688" y2="201.9688"/><line style="stroke:#A80036;stroke-width:1.5;" x1="323.5" x2="353.5" y1="209.9688" y2="209.9688"/><!--MD5=[abb2a7cdedb14efb5af1120e5b6f0439]
class Recording--><rect codeLine="27" fill="#FEFECE" filter="url(#fqtrgis7oh3w5)" height="39.9688" id="Recording" style="stroke:#A80036;stroke-width:1.5;" width="67" x="469" y="178"/><text fill="#000000" font-family="sans-serif" font-size="12" lengthAdjust="spacing" textLength="61" x="472" y="194.1387">Recording</text><line style="stroke:#A80036;stroke-width:1.5;" x1="470" x2="535" y1="201.9688" y2="201.9688"/><line style="stroke:#A80036;stroke-width:1.5;" x1="470" x2="535" y1="209.9688" y2="209.9688"/><!--MD5=[fab76ac332c6d72510aaae6c360fa182]
class Quality--><rect codeLine="29" fill="#FEFECE" filter="url(#fqtrgis7oh3w5)" height="39.9688" id="Quality" style="stroke:#A80036;stroke-width:1.5;" width="47" x="571" y="178"/><text fill="#000000" font-family="sans-serif" font-size="12" lengthAdjust="spacing" textLength="41" x="574" y="194.1387">Quality</text><line style="stroke:#A80036;stroke-width:1.5;" x1="572" x2="617" y1="201.9688" y2="201.9688"/><line style="stroke:#A80036;stroke-width:1.5;" x1="572" x2="617" y1="209.9688" y2="209.9688"/><!--MD5=[c7493935afbd7640a65cff07ebd56c87]
link SaleManager to Recording--><path codeLine="31" d="M502.5,94.521 C502.5,119.3947 502.5,151.1502 502.5,172.6716 " fill="none" id="SaleManager-to-Recording" style="stroke:#A80036;stroke-width:1.0;"/><polygon fill="#A80036" points="502.5,177.9122,506.5,168.9122,502.5,172.9122,498.5,168.9122,502.5,177.9122" style="stroke:#A80036;stroke-width:1.0;"/><text fill="#000000" font-family="sans-serif" font-size="13" lengthAdjust="spacing" textLength="23" x="503.5" y="144.0669">use</text><!--MD5=[9d932af400d3075b1874a80283a53c78]
link SaleAgent to Customer--><path codeLine="32" d="M210.181,101.341 C217.986,125.1806 227.268,153.5316 233.691,173.1494 " fill="none" id="SaleAgent-to-Customer" style="stroke:#A80036;stroke-width:1.0;"/><polygon fill="#A80036" points="235.26,177.9408,236.2607,168.1429,233.704,173.1891,228.6579,170.6324,235.26,177.9408" style="stroke:#A80036;stroke-width:1.0;"/><text fill="#000000" font-family="sans-serif" font-size="13" lengthAdjust="spacing" textLength="61" x="226.5" y="144.0669">clicktocall</text><!--MD5=[5ddfc1ecd5a0f1d3b4408454fbb3038b]
link SaleAgent to Time--><path codeLine="33" d="M170.372,101.096 C165.994,110.693 162.037,120.9731 159.5,131 C156.079,144.5245 155.231,160.0955 155.284,172.7156 " fill="none" id="SaleAgent-to-Time" style="stroke:#A80036;stroke-width:1.0;"/><polygon fill="#A80036" points="155.357,177.929,159.2306,168.8739,155.287,172.9295,151.2314,168.9859,155.357,177.929" style="stroke:#A80036;stroke-width:1.0;"/><text fill="#000000" font-family="sans-serif" font-size="13" lengthAdjust="spacing" textLength="31" x="160.5" y="144.0669">save</text><!--MD5=[70961451184f4e090aa306266544c69b]
link SaleManager to Quality--><path codeLine="34" d="M527.397,94.521 C543.891,119.7109 565.007,151.9586 579.104,173.4873 " fill="none" id="SaleManager-to-Quality" style="stroke:#A80036;stroke-width:1.0;"/><polygon fill="#A80036" points="582.001,177.9122,580.417,168.1915,579.2619,173.7292,573.7243,172.5741,582.001,177.9122" style="stroke:#A80036;stroke-width:1.0;"/><text fill="#000000" font-family="sans-serif" font-size="13" lengthAdjust="spacing" textLength="43" x="563.5" y="144.0669">assure</text><!--MD5=[626c302e54f5c55fc7d80a78ba5c4543]
link SaleAgent to Sale--><path codeLine="35" d="M246.519,88.584 C263.527,100.666 281.855,115.311 296.5,131 C308.324,143.6664 318.793,160.0995 326.322,173.3994 " fill="none" id="SaleAgent-to-Sale" style="stroke:#A80036;stroke-width:1.0;"/><polygon fill="#A80036" points="328.761,177.7796,327.8785,167.9704,326.3291,173.4109,320.8885,171.8615,328.761,177.7796" style="stroke:#A80036;stroke-width:1.0;"/><text fill="#000000" font-family="sans-serif" font-size="13" lengthAdjust="spacing" textLength="33" x="311.5" y="144.0669">close</text><!--MD5=[410077e8f1d045423a2b2625eaf00a48]
link SaleManager to Agent--><path codeLine="36" d="M478.415,94.521 C462.459,119.7109 442.032,151.9586 428.394,173.4873 " fill="none" id="SaleManager-to-Agent" style="stroke:#A80036;stroke-width:1.0;"/><polygon fill="#A80036" points="425.591,177.9122,433.7869,172.4508,428.2671,173.6887,427.0292,168.1689,425.591,177.9122" style="stroke:#A80036;stroke-width:1.0;"/><text fill="#000000" font-family="sans-serif" font-size="13" lengthAdjust="spacing" textLength="29" x="454.5" y="144.0669">train</text><!--MD5=[b380e1473d6b83a63fec10f675b50e42]
link SaleAgent to ConferenceCall--><path codeLine="37" d="M144.416,90.643 C128.736,102.414 112.056,116.35 98.5,131 C86.6503,143.8057 75.9319,160.2393 68.1603,173.5046 " fill="none" id="SaleAgent-to-ConferenceCall" style="stroke:#A80036;stroke-width:1.0;"/><polygon fill="#A80036" points="65.6403,177.8719,73.6031,172.0758,68.1393,173.5412,66.6739,168.0774,65.6403,177.8719" style="stroke:#A80036;stroke-width:1.0;"/><text fill="#000000" font-family="sans-serif" font-size="13" lengthAdjust="spacing" textLength="49" x="99.5" y="144.0669">request</text><!--MD5=[f1a0e32cb0fd67f35bda8c50c725c3c8]
@startuml
hide circle
class SaleAgent<actor> {
}
class SaleManager<actor> {
}
class SaleAgent {
	save()
	clicktocall()
	request()
	close()
}
class ConferenceCall {
}
class Time {
}
class SaleManager {
	assure()
	train()
	use()
}
class Agent {
}
class Customer {
}
class Sale {
}
class Recording {
}
class Quality {
}
SaleManager - -> Recording : use
SaleAgent - -> Customer : clicktocall
SaleAgent - -> Time : save
SaleManager - -> Quality : assure
SaleAgent - -> Sale : close
SaleManager - -> Agent : train
SaleAgent - -> ConferenceCall : request
@enduml

PlantUML version 1.2021.6beta6(Unknown compile time)
(GPL source distribution)
Java Runtime: Java(TM) SE Runtime Environment
JVM: Java HotSpot(TM) 64-Bit Server VM
Default Encoding: UTF-8
Language: en
Country: US
--></g></svg>