<?xml version="1.0" encoding="UTF-8" standalone="no"?><svg xmlns="http://www.w3.org/2000/svg" xmlns:xlink="http://www.w3.org/1999/xlink" contentScriptType="application/ecmascript" contentStyleType="text/css" height="451px" preserveAspectRatio="none" style="width:645px;height:451px;background:#FFFFFF;" version="1.1" viewBox="0 0 645 451" width="645px" zoomAndPan="magnify"><defs><filter height="300%" id="f3w42ygpoil5h" width="300%" x="-1" y="-1"><feGaussianBlur result="blurOut" stdDeviation="2.0"/><feColorMatrix in="blurOut" result="blurOut2" type="matrix" values="0 0 0 0 0 0 0 0 0 0 0 0 0 0 0 0 0 0 .4 0"/><feOffset dx="4.0" dy="4.0" in="blurOut2" result="blurOut3"/><feBlend in="SourceGraphic" in2="blurOut3" mode="normal"/></filter></defs><g><!--MD5=[db6d18d8099558415abc41d00477ab92]
class Admin--><rect codeLine="13" fill="#FEFECE" filter="url(#f3w42ygpoil5h)" height="129.6016" id="Admin" style="stroke:#A80036;stroke-width:1.5;" width="84" x="250.5" y="10"/><text fill="#000000" font-family="sans-serif" font-size="12" lengthAdjust="spacing" textLength="37" x="256.5" y="26.1387">Admin</text><rect fill="#FFFFFF" height="15.9688" style="stroke:#000000;stroke-width:1.0;stroke-dasharray:2.0,2.0;" width="33" x="304.5" y="7"/><text fill="#000000" font-family="sans-serif" font-size="12" font-style="italic" lengthAdjust="spacing" textLength="31" x="305.5" y="19.1387">actor</text><line style="stroke:#A80036;stroke-width:1.5;" x1="251.5" x2="333.5" y1="33.9688" y2="33.9688"/><line style="stroke:#A80036;stroke-width:1.5;" x1="251.5" x2="333.5" y1="41.9688" y2="41.9688"/><text fill="#000000" font-family="sans-serif" font-size="11" lengthAdjust="spacing" textLength="30" x="256.5" y="56.1792">see()</text><text fill="#000000" font-family="sans-serif" font-size="11" lengthAdjust="spacing" textLength="29" x="256.5" y="68.9839">add()</text><text fill="#000000" font-family="sans-serif" font-size="11" lengthAdjust="spacing" textLength="44" x="256.5" y="81.7886">assign()</text><text fill="#000000" font-family="sans-serif" font-size="11" lengthAdjust="spacing" textLength="30" x="256.5" y="94.5933">edit()</text><text fill="#000000" font-family="sans-serif" font-size="11" lengthAdjust="spacing" textLength="51" x="256.5" y="107.3979">provide()</text><text fill="#000000" font-family="sans-serif" font-size="11" lengthAdjust="spacing" textLength="72" x="256.5" y="120.2026">incorporate()</text><text fill="#000000" font-family="sans-serif" font-size="11" lengthAdjust="spacing" textLength="46" x="256.5" y="133.0073">delete()</text><!--MD5=[3fd616f346a44cd59a91eb10b19e157c]
class User--><rect codeLine="6" fill="#FEFECE" filter="url(#f3w42ygpoil5h)" height="103.9922" id="User" style="stroke:#A80036;stroke-width:1.5;" width="70" x="109.5" y="217"/><text fill="#000000" font-family="sans-serif" font-size="12" lengthAdjust="spacing" textLength="29" x="112.5" y="233.1387">User</text><rect fill="#FFFFFF" height="15.9688" style="stroke:#000000;stroke-width:1.0;stroke-dasharray:2.0,2.0;" width="33" x="149.5" y="214"/><text fill="#000000" font-family="sans-serif" font-size="12" font-style="italic" lengthAdjust="spacing" textLength="31" x="150.5" y="226.1387">actor</text><line style="stroke:#A80036;stroke-width:1.5;" x1="110.5" x2="178.5" y1="240.9688" y2="240.9688"/><line style="stroke:#A80036;stroke-width:1.5;" x1="110.5" x2="178.5" y1="248.9688" y2="248.9688"/><text fill="#000000" font-family="sans-serif" font-size="11" lengthAdjust="spacing" textLength="37" x="115.5" y="263.1792">have()</text><text fill="#000000" font-family="sans-serif" font-size="11" lengthAdjust="spacing" textLength="29" x="115.5" y="275.9839">add()</text><text fill="#000000" font-family="sans-serif" font-size="11" lengthAdjust="spacing" textLength="43" x="115.5" y="288.7886">select()</text><text fill="#000000" font-family="sans-serif" font-size="11" lengthAdjust="spacing" textLength="50" x="115.5" y="301.5933">turn_on()</text><text fill="#000000" font-family="sans-serif" font-size="11" lengthAdjust="spacing" textLength="49" x="115.5" y="314.3979">choose()</text><!--MD5=[6de492f04047ff8a778df2bea690e363]
class Gateway--><rect codeLine="22" fill="#FEFECE" filter="url(#f3w42ygpoil5h)" height="39.9688" id="Gateway" style="stroke:#A80036;stroke-width:1.5;" width="58" x="229.5" y="249"/><text fill="#000000" font-family="sans-serif" font-size="12" lengthAdjust="spacing" textLength="52" x="232.5" y="265.1387">Gateway</text><line style="stroke:#A80036;stroke-width:1.5;" x1="230.5" x2="286.5" y1="272.9688" y2="272.9688"/><line style="stroke:#A80036;stroke-width:1.5;" x1="230.5" x2="286.5" y1="280.9688" y2="280.9688"/><!--MD5=[b098efa4dd65edfeebe973e4edec7c36]
class Floor--><rect codeLine="24" fill="#FEFECE" filter="url(#f3w42ygpoil5h)" height="39.9688" id="Floor" style="stroke:#A80036;stroke-width:1.5;" width="37" x="7" y="398"/><text fill="#000000" font-family="sans-serif" font-size="12" lengthAdjust="spacing" textLength="31" x="10" y="414.1387">Floor</text><line style="stroke:#A80036;stroke-width:1.5;" x1="8" x2="43" y1="421.9688" y2="421.9688"/><line style="stroke:#A80036;stroke-width:1.5;" x1="8" x2="43" y1="429.9688" y2="429.9688"/><!--MD5=[53f6a92bd21ca2f2960392a061f3a1c6]
class Name--><rect codeLine="26" fill="#FEFECE" filter="url(#f3w42ygpoil5h)" height="39.9688" id="Name" style="stroke:#A80036;stroke-width:1.5;" width="40" x="337.5" y="249"/><text fill="#000000" font-family="sans-serif" font-size="12" lengthAdjust="spacing" textLength="34" x="340.5" y="265.1387">Name</text><line style="stroke:#A80036;stroke-width:1.5;" x1="338.5" x2="376.5" y1="272.9688" y2="272.9688"/><line style="stroke:#A80036;stroke-width:1.5;" x1="338.5" x2="376.5" y1="280.9688" y2="280.9688"/><!--MD5=[964f074a2dd77d134c21b891bb53e381]
class Image--><rect codeLine="28" fill="#FEFECE" filter="url(#f3w42ygpoil5h)" height="39.9688" id="Image" style="stroke:#A80036;stroke-width:1.5;" width="43" x="81" y="398"/><text fill="#000000" font-family="sans-serif" font-size="12" lengthAdjust="spacing" textLength="37" x="84" y="414.1387">Image</text><line style="stroke:#A80036;stroke-width:1.5;" x1="82" x2="123" y1="421.9688" y2="421.9688"/><line style="stroke:#A80036;stroke-width:1.5;" x1="82" x2="123" y1="429.9688" y2="429.9688"/><!--MD5=[7c1a0278dec21c72584b17e1785fd623]
class Light--><rect codeLine="30" fill="#FEFECE" filter="url(#f3w42ygpoil5h)" height="52.7734" id="Light" style="stroke:#A80036;stroke-width:1.5;" width="45" x="553" y="48.5"/><text fill="#000000" font-family="sans-serif" font-size="12" lengthAdjust="spacing" textLength="28" x="561.5" y="64.6387">Light</text><line style="stroke:#A80036;stroke-width:1.5;" x1="554" x2="597" y1="72.4688" y2="72.4688"/><line style="stroke:#A80036;stroke-width:1.5;" x1="554" x2="597" y1="80.4688" y2="80.4688"/><text fill="#000000" font-family="sans-serif" font-size="11" lengthAdjust="spacing" textLength="33" x="559" y="94.6792">user()</text><!--MD5=[537bf458cc3392cb9c2da279dcccde6d]
class Mobileapplication--><rect codeLine="33" fill="#FEFECE" filter="url(#f3w42ygpoil5h)" height="39.9688" id="Mobileapplication" style="stroke:#A80036;stroke-width:1.5;" width="111" x="520" y="249"/><text fill="#000000" font-family="sans-serif" font-size="12" lengthAdjust="spacing" textLength="105" x="523" y="265.1387">Mobileapplication</text><line style="stroke:#A80036;stroke-width:1.5;" x1="521" x2="630" y1="272.9688" y2="272.9688"/><line style="stroke:#A80036;stroke-width:1.5;" x1="521" x2="630" y1="280.9688" y2="280.9688"/><!--MD5=[463c45b1df3dbfe1c2134e01e0a41cde]
class Screen--><rect codeLine="35" fill="#FEFECE" filter="url(#f3w42ygpoil5h)" height="39.9688" id="Screen" style="stroke:#A80036;stroke-width:1.5;" width="49" x="159" y="398"/><text fill="#000000" font-family="sans-serif" font-size="12" lengthAdjust="spacing" textLength="43" x="162" y="414.1387">Screen</text><line style="stroke:#A80036;stroke-width:1.5;" x1="160" x2="207" y1="421.9688" y2="421.9688"/><line style="stroke:#A80036;stroke-width:1.5;" x1="160" x2="207" y1="429.9688" y2="429.9688"/><!--MD5=[e2e04970b1b3f4a5a26dfa860353efc5]
class Control--><rect codeLine="37" fill="#FEFECE" filter="url(#f3w42ygpoil5h)" height="39.9688" id="Control" style="stroke:#A80036;stroke-width:1.5;" width="49" x="243" y="398"/><text fill="#000000" font-family="sans-serif" font-size="12" lengthAdjust="spacing" textLength="43" x="246" y="414.1387">Control</text><line style="stroke:#A80036;stroke-width:1.5;" x1="244" x2="291" y1="421.9688" y2="421.9688"/><line style="stroke:#A80036;stroke-width:1.5;" x1="244" x2="291" y1="429.9688" y2="429.9688"/><!--MD5=[1a5ec66ac35c10b19d7bb63d6b8c4e50]
class Debugging--><rect codeLine="39" fill="#FEFECE" filter="url(#f3w42ygpoil5h)" height="39.9688" id="Debugging" style="stroke:#A80036;stroke-width:1.5;" width="72" x="412.5" y="249"/><text fill="#000000" font-family="sans-serif" font-size="12" lengthAdjust="spacing" textLength="66" x="415.5" y="265.1387">Debugging</text><line style="stroke:#A80036;stroke-width:1.5;" x1="413.5" x2="483.5" y1="272.9688" y2="272.9688"/><line style="stroke:#A80036;stroke-width:1.5;" x1="413.5" x2="483.5" y1="280.9688" y2="280.9688"/><!--MD5=[c986a0e60bfea2f4954994103c35e1e1]
link User to Screen--><path codeLine="41" d="M158.031,321.001 C164.466,345.2562 171.861,373.1293 177.019,392.5703 " fill="none" id="User-to-Screen" style="stroke:#A80036;stroke-width:1.0;"/><polygon fill="#A80036" points="178.411,397.82,179.9691,388.0952,177.1287,392.9872,172.2367,390.1468,178.411,397.82" style="stroke:#A80036;stroke-width:1.0;"/><text fill="#000000" font-family="sans-serif" font-size="13" lengthAdjust="spacing" textLength="24" x="171.5" y="364.0669">add</text><!--MD5=[ec99a9ecca4dbd5d39f724ed3a1226e5]
link User to Image--><path codeLine="42" d="M129.928,321.001 C122.998,345.2562 115.034,373.1293 109.48,392.5703 " fill="none" id="User-to-Image" style="stroke:#A80036;stroke-width:1.0;"/><polygon fill="#A80036" points="107.98,397.82,114.2989,390.2655,109.3538,393.0124,106.6069,388.0673,107.98,397.82" style="stroke:#A80036;stroke-width:1.0;"/><text fill="#000000" font-family="sans-serif" font-size="13" lengthAdjust="spacing" textLength="24" x="122.5" y="364.0669">add</text><!--MD5=[e1b43ed5ceef5606070359631aba66f0]
link User to Floor--><path codeLine="43" d="M109.247,305.601 C96.2468,319.356 81.7192,335.497 69.5,351 C58.7778,364.6041 47.97,380.7729 39.7491,393.7019 " fill="none" id="User-to-Floor" style="stroke:#A80036;stroke-width:1.0;"/><polygon fill="#A80036" points="37.0642,397.954,45.2516,392.4798,39.7338,393.7263,38.4873,388.2085,37.0642,397.954" style="stroke:#A80036;stroke-width:1.0;"/><text fill="#000000" font-family="sans-serif" font-size="13" lengthAdjust="spacing" textLength="38" x="70.5" y="364.0669">select</text><!--MD5=[478425156ee10c55cac736d5b0b47b37]
link Admin to User--><path codeLine="44" d="M250.34,99.143 C224.024,115.643 191.467,140.151 171.5,170 C163.169,182.454 157.394,197.426 153.396,211.877 " fill="none" id="Admin-to-User" style="stroke:#A80036;stroke-width:1.0;"/><polygon fill="#A80036" points="152.108,216.753,158.2741,209.0732,153.3851,211.9189,150.5395,207.0298,152.108,216.753" style="stroke:#A80036;stroke-width:1.0;"/><text fill="#000000" font-family="sans-serif" font-size="13" lengthAdjust="spacing" textLength="24" x="172.5" y="183.0669">add</text><!--MD5=[6eabbb8afbef624a25be3c91d84d2361]
link Admin to Debugging--><path codeLine="45" d="M334.51,127.705 C365.475,165.816 406.132,215.855 429.584,244.718 " fill="none" id="Admin-to-Debugging" style="stroke:#A80036;stroke-width:1.0;"/><polygon fill="#A80036" points="432.916,248.819,430.3463,239.3113,429.7635,244.938,424.1368,244.3552,432.916,248.819" style="stroke:#A80036;stroke-width:1.0;"/><text fill="#000000" font-family="sans-serif" font-size="13" lengthAdjust="spacing" textLength="73" x="381.5" y="183.0669">incorporate</text><!--MD5=[08e4dc3319c42cf6c2761fa3afa7ae50]
link Admin to Gateway--><path codeLine="46" d="M250.479,109.938 C233.732,126.137 216.355,147.004 207.5,170 C197.226,196.68 216.208,225.516 233.859,244.952 " fill="none" id="Admin-to-Gateway" style="stroke:#A80036;stroke-width:1.0;"/><polygon fill="#A80036" points="237.362,248.71,234.1518,239.399,233.953,245.0523,228.2996,244.8535,237.362,248.71" style="stroke:#A80036;stroke-width:1.0;"/><text fill="#000000" font-family="sans-serif" font-size="13" lengthAdjust="spacing" textLength="40" x="208.5" y="183.0669">delete</text><!--MD5=[08e4dc3319c42cf6c2761fa3afa7ae50]
link Admin to Gateway--><path codeLine="50" d="M281.131,140.2 C274.833,175.766 267.372,217.897 262.788,243.786 " fill="none" id="Admin-to-Gateway-1" style="stroke:#A80036;stroke-width:1.0;"/><polygon fill="#A80036" points="261.911,248.74,267.4181,240.5747,262.7823,243.8165,259.5405,239.1807,261.911,248.74" style="stroke:#A80036;stroke-width:1.0;"/><text fill="#000000" font-family="sans-serif" font-size="13" lengthAdjust="spacing" textLength="23" x="276.5" y="183.0669">see</text><!--MD5=[c944fda913ae73e0ac80ee078bed23fb]
link User to Control--><path codeLine="47" d="M179.747,312.124 C201.934,338.6409 229.734,371.8647 248.026,393.7258 " fill="none" id="User-to-Control" style="stroke:#A80036;stroke-width:1.0;"/><polygon fill="#A80036" points="251.327,397.6714,248.6203,388.2018,248.1188,393.8363,242.4843,393.3348,251.327,397.6714" style="stroke:#A80036;stroke-width:1.0;"/><text fill="#000000" font-family="sans-serif" font-size="13" lengthAdjust="spacing" textLength="32" x="225.5" y="364.0669">have</text><!--MD5=[b54e6d9d02feb4a4be0a12bfe936a942]
link Light to Mobileapplication--><path codeLine="48" d="M575.5,101.894 C575.5,139.162 575.5,207.425 575.5,243.754 " fill="none" id="Light-to-Mobileapplication" style="stroke:#A80036;stroke-width:1.0;"/><polygon fill="#A80036" points="575.5,248.875,579.5,239.875,575.5,243.875,571.5,239.875,575.5,248.875" style="stroke:#A80036;stroke-width:1.0;"/><text fill="#000000" font-family="sans-serif" font-size="13" lengthAdjust="spacing" textLength="28" x="576.5" y="183.0669">user</text><!--MD5=[004174e6025bfd31cc9058593d99fb9f]
link Admin to Name--><path codeLine="49" d="M314.234,140.2 C326.275,175.766 340.538,217.897 349.303,243.786 " fill="none" id="Admin-to-Name" style="stroke:#A80036;stroke-width:1.0;"/><polygon fill="#A80036" points="350.98,248.74,351.8808,238.9324,349.3757,244.0044,344.3038,241.4992,350.98,248.74" style="stroke:#A80036;stroke-width:1.0;"/><text fill="#000000" font-family="sans-serif" font-size="13" lengthAdjust="spacing" textLength="24" x="330.5" y="183.0669">edit</text><!--MD5=[7b5a64ccb86da71c41716963862e67fd]
@startuml
hide circle
class Admin<actor> {
}
class User<actor> {
}
class User {
	have()
	add()
	select()
	turn_on()
	choose()
}
class Admin {
	see()
	add()
	assign()
	edit()
	provide()
	incorporate()
	delete()
}
class Gateway {
}
class Floor {
}
class Name {
}
class Image {
}
class Light {
	user()
}
class Mobileapplication {
}
class Screen {
}
class Control {
}
class Debugging {
}
User - -> Screen : add
User - -> Image : add
User - -> Floor : select
Admin - -> User : add
Admin - -> Debugging : incorporate
Admin - -> Gateway : delete
User - -> Control : have
Light - -> Mobileapplication : user
Admin - -> Name : edit
Admin - -> Gateway : see
@enduml

PlantUML version 1.2021.10beta2(Unknown compile time)
(GPL source distribution)
Java Runtime: Java(TM) SE Runtime Environment
JVM: Java HotSpot(TM) 64-Bit Server VM
Default Encoding: UTF-8
Language: en
Country: US
--></g></svg>