<?xml version="1.0" encoding="UTF-8" standalone="no"?><svg xmlns="http://www.w3.org/2000/svg" xmlns:xlink="http://www.w3.org/1999/xlink" contentScriptType="application/ecmascript" contentStyleType="text/css" height="825px" preserveAspectRatio="none" style="width:616px;height:825px;background:#FFFFFF;" version="1.1" viewBox="0 0 616 825" width="616px" zoomAndPan="magnify"><defs><filter height="300%" id="f1thzv2gdyvweq" width="300%" x="-1" y="-1"><feGaussianBlur result="blurOut" stdDeviation="2.0"/><feColorMatrix in="blurOut" result="blurOut2" type="matrix" values="0 0 0 0 0 0 0 0 0 0 0 0 0 0 0 0 0 0 .4 0"/><feOffset dx="4.0" dy="4.0" in="blurOut2" result="blurOut3"/><feBlend in="SourceGraphic" in2="blurOut3" mode="normal"/></filter></defs><g><!--MD5=[d3bb6ba6f6edb088347a3eeef9f808bc]
class JobSeeker--><rect codeLine="50" fill="#FEFECE" filter="url(#f1thzv2gdyvweq)" height="65.5781" id="JobSeeker" style="stroke:#A80036;stroke-width:1.5;" width="105" x="274" y="10"/><text fill="#000000" font-family="sans-serif" font-size="12" lengthAdjust="spacing" textLength="64" x="277" y="26.1387">JobSeeker</text><rect fill="#FFFFFF" height="15.9688" style="stroke:#000000;stroke-width:1.0;stroke-dasharray:2.0,2.0;" width="33" x="349" y="7"/><text fill="#000000" font-family="sans-serif" font-size="12" font-style="italic" lengthAdjust="spacing" textLength="31" x="350" y="19.1387">actor</text><line style="stroke:#A80036;stroke-width:1.5;" x1="275" x2="378" y1="33.9688" y2="33.9688"/><text fill="#000000" font-family="sans-serif" font-size="11" lengthAdjust="spacing" textLength="92" x="280" y="48.1792">loginCredentials</text><text fill="#000000" font-family="sans-serif" font-size="11" lengthAdjust="spacing" textLength="45" x="280" y="60.9839">network</text><line style="stroke:#A80036;stroke-width:1.5;" x1="275" x2="378" y1="67.5781" y2="67.5781"/><!--MD5=[ec81f511f4d20a18ef555a8be4cd58b8]
class Network--><rect codeLine="6" fill="#FEFECE" filter="url(#f1thzv2gdyvweq)" height="39.9688" id="Network" style="stroke:#A80036;stroke-width:1.5;" width="56" x="183.5" y="518.5"/><text fill="#000000" font-family="sans-serif" font-size="12" lengthAdjust="spacing" textLength="50" x="186.5" y="534.6387">Network</text><line style="stroke:#A80036;stroke-width:1.5;" x1="184.5" x2="238.5" y1="542.4688" y2="542.4688"/><line style="stroke:#A80036;stroke-width:1.5;" x1="184.5" x2="238.5" y1="550.4688" y2="550.4688"/><!--MD5=[72ce1314beffbcf60a64ee91fbbc10dc]
class Contact--><rect codeLine="8" fill="#FEFECE" filter="url(#f1thzv2gdyvweq)" height="52.7734" id="Contact" style="stroke:#A80036;stroke-width:1.5;" width="63" x="185" y="642"/><text fill="#000000" font-family="sans-serif" font-size="12" lengthAdjust="spacing" textLength="45" x="194" y="658.1387">Contact</text><line style="stroke:#A80036;stroke-width:1.5;" x1="186" x2="247" y1="665.9688" y2="665.9688"/><line style="stroke:#A80036;stroke-width:1.5;" x1="186" x2="247" y1="673.9688" y2="673.9688"/><text fill="#000000" font-family="sans-serif" font-size="11" lengthAdjust="spacing" textLength="51" x="191" y="688.1792">provide()</text><!--MD5=[b76c921dec148580e221480ea486da2a]
class Friend--><rect codeLine="11" fill="#FEFECE" filter="url(#f1thzv2gdyvweq)" height="52.7734" id="Friend" style="stroke:#A80036;stroke-width:1.5;" width="48" x="98.5" y="642"/><text fill="#000000" font-family="sans-serif" font-size="12" lengthAdjust="spacing" textLength="38" x="103.5" y="658.1387">Friend</text><line style="stroke:#A80036;stroke-width:1.5;" x1="99.5" x2="145.5" y1="665.9688" y2="665.9688"/><line style="stroke:#A80036;stroke-width:1.5;" x1="99.5" x2="145.5" y1="673.9688" y2="673.9688"/><text fill="#000000" font-family="sans-serif" font-size="11" lengthAdjust="spacing" textLength="36" x="104.5" y="688.1792">refer()</text><!--MD5=[1d43bb2769481439486811cefb48cb7d]
class Seeker--><rect codeLine="14" fill="#FEFECE" filter="url(#f1thzv2gdyvweq)" height="168.0156" id="Seeker" style="stroke:#A80036;stroke-width:1.5;" width="88" x="282.5" y="137"/><text fill="#000000" font-family="sans-serif" font-size="12" lengthAdjust="spacing" textLength="44" x="304.5" y="153.1387">Seeker</text><line style="stroke:#A80036;stroke-width:1.5;" x1="283.5" x2="369.5" y1="160.9688" y2="160.9688"/><line style="stroke:#A80036;stroke-width:1.5;" x1="283.5" x2="369.5" y1="168.9688" y2="168.9688"/><text fill="#000000" font-family="sans-serif" font-size="11" lengthAdjust="spacing" textLength="76" x="288.5" y="183.1792">unsubscribe()</text><text fill="#000000" font-family="sans-serif" font-size="11" lengthAdjust="spacing" textLength="36" x="288.5" y="195.9839">mark()</text><text fill="#000000" font-family="sans-serif" font-size="11" lengthAdjust="spacing" textLength="49" x="288.5" y="208.7886">browse()</text><text fill="#000000" font-family="sans-serif" font-size="11" lengthAdjust="spacing" textLength="45" x="288.5" y="221.5933">create()</text><text fill="#000000" font-family="sans-serif" font-size="11" lengthAdjust="spacing" textLength="49" x="288.5" y="234.3979">contact()</text><text fill="#000000" font-family="sans-serif" font-size="11" lengthAdjust="spacing" textLength="46" x="288.5" y="247.2026">search()</text><text fill="#000000" font-family="sans-serif" font-size="11" lengthAdjust="spacing" textLength="36" x="288.5" y="260.0073">save()</text><text fill="#000000" font-family="sans-serif" font-size="11" lengthAdjust="spacing" textLength="43" x="288.5" y="272.812">select()</text><text fill="#000000" font-family="sans-serif" font-size="11" lengthAdjust="spacing" textLength="30" x="288.5" y="285.6167">see()</text><text fill="#000000" font-family="sans-serif" font-size="11" lengthAdjust="spacing" textLength="62" x="288.5" y="298.4214">subscribe()</text><!--MD5=[d5a630d213adc2e3986060bd811a90b1]
class Search--><rect codeLine="26" fill="#FEFECE" filter="url(#f1thzv2gdyvweq)" height="39.9688" id="Search" style="stroke:#A80036;stroke-width:1.5;" width="48" x="280.5" y="518.5"/><text fill="#000000" font-family="sans-serif" font-size="12" lengthAdjust="spacing" textLength="42" x="283.5" y="534.6387">Search</text><line style="stroke:#A80036;stroke-width:1.5;" x1="281.5" x2="327.5" y1="542.4688" y2="542.4688"/><line style="stroke:#A80036;stroke-width:1.5;" x1="281.5" x2="327.5" y1="550.4688" y2="550.4688"/><!--MD5=[c7159c368ecd92fb5843b3b4ed8c52fc]
class Listing--><rect codeLine="28" fill="#FEFECE" filter="url(#f1thzv2gdyvweq)" height="52.7734" id="Listing" style="stroke:#A80036;stroke-width:1.5;" width="49" x="94" y="512"/><text fill="#000000" font-family="sans-serif" font-size="12" lengthAdjust="spacing" textLength="38" x="99.5" y="528.1387">Listing</text><line style="stroke:#A80036;stroke-width:1.5;" x1="95" x2="142" y1="535.9688" y2="535.9688"/><line style="stroke:#A80036;stroke-width:1.5;" x1="95" x2="142" y1="543.9688" y2="543.9688"/><text fill="#000000" font-family="sans-serif" font-size="11" lengthAdjust="spacing" textLength="37" x="100" y="558.1792">have()</text><!--MD5=[b8e0354e0f3f5cbf52553869b78c0afa]
class Job--><rect codeLine="31" fill="#FEFECE" filter="url(#f1thzv2gdyvweq)" height="39.9688" id="Job" style="stroke:#A80036;stroke-width:1.5;" width="26" x="105.5" y="388.5"/><text fill="#000000" font-family="sans-serif" font-size="12" lengthAdjust="spacing" textLength="20" x="108.5" y="404.6387">Job</text><line style="stroke:#A80036;stroke-width:1.5;" x1="106.5" x2="130.5" y1="412.4688" y2="412.4688"/><line style="stroke:#A80036;stroke-width:1.5;" x1="106.5" x2="130.5" y1="420.4688" y2="420.4688"/><!--MD5=[8f3fa1c68227f7296546d55286502fc6]
class Frequency--><rect codeLine="33" fill="#FEFECE" filter="url(#f1thzv2gdyvweq)" height="39.9688" id="Frequency" style="stroke:#A80036;stroke-width:1.5;" width="70" x="188.5" y="388.5"/><text fill="#000000" font-family="sans-serif" font-size="12" lengthAdjust="spacing" textLength="64" x="191.5" y="404.6387">Frequency</text><line style="stroke:#A80036;stroke-width:1.5;" x1="189.5" x2="257.5" y1="412.4688" y2="412.4688"/><line style="stroke:#A80036;stroke-width:1.5;" x1="189.5" x2="257.5" y1="420.4688" y2="420.4688"/><!--MD5=[70ce7a33e1f5c9d7eb8109bc32c5b982]
class RefersySystem--><rect codeLine="35" fill="#FEFECE" filter="url(#f1thzv2gdyvweq)" height="65.5781" id="RefersySystem" style="stroke:#A80036;stroke-width:1.5;" width="97" x="7" y="188"/><text fill="#000000" font-family="sans-serif" font-size="12" lengthAdjust="spacing" textLength="91" x="10" y="204.1387">RefersySystem</text><line style="stroke:#A80036;stroke-width:1.5;" x1="8" x2="103" y1="211.9688" y2="211.9688"/><line style="stroke:#A80036;stroke-width:1.5;" x1="8" x2="103" y1="219.9688" y2="219.9688"/><text fill="#000000" font-family="sans-serif" font-size="11" lengthAdjust="spacing" textLength="53" x="13" y="234.1792">connect()</text><text fill="#000000" font-family="sans-serif" font-size="11" lengthAdjust="spacing" textLength="37" x="13" y="246.9839">fetch()</text><!--MD5=[3a7cf800944e5f3d9e9c59d889c61f3b]
class Reference--><rect codeLine="39" fill="#FEFECE" filter="url(#f1thzv2gdyvweq)" height="39.9688" id="Reference" style="stroke:#A80036;stroke-width:1.5;" width="68" x="182.5" y="772"/><text fill="#000000" font-family="sans-serif" font-size="12" lengthAdjust="spacing" textLength="62" x="185.5" y="788.1387">Reference</text><line style="stroke:#A80036;stroke-width:1.5;" x1="183.5" x2="249.5" y1="795.9688" y2="795.9688"/><line style="stroke:#A80036;stroke-width:1.5;" x1="183.5" x2="249.5" y1="803.9688" y2="803.9688"/><!--MD5=[ad932b6f5864965112044123d6bad487]
class Someone--><rect codeLine="41" fill="#FEFECE" filter="url(#f1thzv2gdyvweq)" height="39.9688" id="Someone" style="stroke:#A80036;stroke-width:1.5;" width="64" x="293.5" y="388.5"/><text fill="#000000" font-family="sans-serif" font-size="12" lengthAdjust="spacing" textLength="58" x="296.5" y="404.6387">Someone</text><line style="stroke:#A80036;stroke-width:1.5;" x1="294.5" x2="356.5" y1="412.4688" y2="412.4688"/><line style="stroke:#A80036;stroke-width:1.5;" x1="294.5" x2="356.5" y1="420.4688" y2="420.4688"/><!--MD5=[f9a29335b499db729be669fd1bd54958]
class Account--><rect codeLine="43" fill="#FEFECE" filter="url(#f1thzv2gdyvweq)" height="52.7734" id="Account" style="stroke:#A80036;stroke-width:1.5;" width="54" x="392.5" y="382"/><text fill="#000000" font-family="sans-serif" font-size="12" lengthAdjust="spacing" textLength="48" x="395.5" y="398.1387">Account</text><line style="stroke:#A80036;stroke-width:1.5;" x1="393.5" x2="445.5" y1="405.9688" y2="405.9688"/><line style="stroke:#A80036;stroke-width:1.5;" x1="393.5" x2="445.5" y1="413.9688" y2="413.9688"/><text fill="#000000" font-family="sans-serif" font-size="11" lengthAdjust="spacing" textLength="36" x="398.5" y="428.1792">save()</text><!--MD5=[ea0779d5893e382eddb4c95271b5b7a7]
class LoginCredentials--><rect codeLine="46" fill="#FEFECE" filter="url(#f1thzv2gdyvweq)" height="39.9688" id="LoginCredentials" style="stroke:#A80036;stroke-width:1.5;" width="106" x="366.5" y="518.5"/><text fill="#000000" font-family="sans-serif" font-size="12" lengthAdjust="spacing" textLength="100" x="369.5" y="534.6387">LoginCredentials</text><line style="stroke:#A80036;stroke-width:1.5;" x1="367.5" x2="471.5" y1="542.4688" y2="542.4688"/><line style="stroke:#A80036;stroke-width:1.5;" x1="367.5" x2="471.5" y1="550.4688" y2="550.4688"/><!--MD5=[bea5b0d46523efab5ea1c1d339f396f0]
class Message--><rect codeLine="48" fill="#FEFECE" filter="url(#f1thzv2gdyvweq)" height="39.9688" id="Message" style="stroke:#A80036;stroke-width:1.5;" width="61" x="482" y="388.5"/><text fill="#000000" font-family="sans-serif" font-size="12" lengthAdjust="spacing" textLength="55" x="485" y="404.6387">Message</text><line style="stroke:#A80036;stroke-width:1.5;" x1="483" x2="542" y1="412.4688" y2="412.4688"/><line style="stroke:#A80036;stroke-width:1.5;" x1="483" x2="542" y1="420.4688" y2="420.4688"/><!--MD5=[9006aa0d1ecc052948c71c824d5543a3]
link Seeker to Message--><path codeLine="52" d="M370.701,265.653 C391.86,286.591 417.533,312.054 440.5,335 C457.018,351.503 475.584,370.201 489.726,384.475 " fill="none" id="Seeker-to-Message" style="stroke:#A80036;stroke-width:1.0;"/><polygon fill="#A80036" points="493.592,388.378,490.0992,379.1693,490.0729,384.8261,484.4161,384.7998,493.592,388.378" style="stroke:#A80036;stroke-width:1.0;"/><text fill="#000000" font-family="sans-serif" font-size="13" lengthAdjust="spacing" textLength="88" x="457.5" y="348.0669">supported_by</text><!--MD5=[c16759a88a7068e5eef7d8e353fb0071]
link Listing to Friend--><path codeLine="53" d="M116.149,565.014 C115.194,578.913 114.521,596.41 115.5,612 C116,619.954 116.898,628.512 117.889,636.468 " fill="none" id="Listing-to-Friend" style="stroke:#A80036;stroke-width:1.0;"/><polygon fill="#A80036" points="118.585,641.866,121.4,632.428,117.945,636.9071,113.4658,633.4521,118.585,641.866" style="stroke:#A80036;stroke-width:1.0;"/><text fill="#000000" font-family="sans-serif" font-size="13" lengthAdjust="spacing" textLength="32" x="116.5" y="608.0669">have</text><!--MD5=[f75b51317e35e99b240f0c2a75f7d420]
link Account to LoginCredentials--><path codeLine="54" d="M419.5,435.095 C419.5,457.789 419.5,490.707 419.5,513.048 " fill="none" id="Account-to-LoginCredentials" style="stroke:#A80036;stroke-width:1.0;"/><polygon fill="#A80036" points="419.5,518.207,423.5,509.207,419.5,513.207,415.5,509.207,419.5,518.207" style="stroke:#A80036;stroke-width:1.0;"/><text fill="#000000" font-family="sans-serif" font-size="13" lengthAdjust="spacing" textLength="31" x="420.5" y="478.0669">save</text><!--MD5=[fb528e6dbe6b38fa9931dd0aff8fbdea]
link Contact to Reference--><path codeLine="55" d="M216.5,695.267 C216.5,716.3301 216.5,745.9042 216.5,766.5902 " fill="none" id="Contact-to-Reference" style="stroke:#A80036;stroke-width:1.0;"/><polygon fill="#A80036" points="216.5,771.6472,220.5,762.6472,216.5,766.6472,212.5,762.6472,216.5,771.6472" style="stroke:#A80036;stroke-width:1.0;"/><text fill="#000000" font-family="sans-serif" font-size="13" lengthAdjust="spacing" textLength="48" x="217.5" y="738.0669">provide</text><!--MD5=[4258d94ed6070a8ed66a974966776125]
link Seeker to Job--><path codeLine="56" d="M282.389,261.34 C236.738,302.052 167.733,363.592 135.817,392.056 " fill="none" id="Seeker-to-Job" style="stroke:#A80036;stroke-width:1.0;"/><polygon fill="#A80036" points="131.748,395.685,141.1269,392.6789,135.4792,392.3566,135.8015,386.709,131.748,395.685" style="stroke:#A80036;stroke-width:1.0;"/><text fill="#000000" font-family="sans-serif" font-size="13" lengthAdjust="spacing" textLength="33" x="199.5" y="348.0669">mark</text><!--MD5=[75fa626a0cec06b88a8fcc29a60d29c9]
reverse link Job to Seeker--><path codeLine="59" d="M139.577,379.063 C150.5,365.13 164.468,348.492 178.5,335 C210.891,303.855 251.74,273.218 282.313,251.719 " fill="none" id="Job-backto-Seeker" style="stroke:#A80036;stroke-width:1.0;"/><polygon fill="#FFFFFF" points="131.526,389.545,138.3532,387.2236,138.8363,380.0287,132.009,382.3501,131.526,389.545" style="stroke:#A80036;stroke-width:1.0;"/><!--MD5=[bf9efbe2fe28b4d2005fb525f9337cf4]
reverse link Job to Listing--><path codeLine="57" d="M118.5,441.773 C118.5,463.365 118.5,491.407 118.5,511.552 " fill="none" id="Job-backto-Listing" style="stroke:#A80036;stroke-width:1.0;"/><polygon fill="#FFFFFF" points="118.5,428.663,114.5,434.663,118.5,440.663,122.5,434.663,118.5,428.663" style="stroke:#A80036;stroke-width:1.0;"/><!--MD5=[4f792db8d4b7f138535e65bf2558b7fa]
reverse link Network to Contact--><path codeLine="58" d="M212.761,571.773 C213.604,593.365 214.699,621.407 215.486,641.552 " fill="none" id="Network-backto-Contact" style="stroke:#A80036;stroke-width:1.0;"/><polygon fill="#FFFFFF" points="212.249,558.663,208.4868,564.8149,212.7185,570.6538,216.4807,564.5019,212.249,558.663" style="stroke:#A80036;stroke-width:1.0;"/><!--MD5=[c51d7f3a99e5d823008a5d38ee5862a6]
link Seeker to Someone--><path codeLine="60" d="M324.617,305.219 C324.436,320.766 324.364,336.877 324.5,352 C324.592,362.245 324.78,373.552 324.969,383.273 " fill="none" id="Seeker-to-Someone" style="stroke:#A80036;stroke-width:1.0;"/><polygon fill="#A80036" points="325.073,388.493,328.8922,379.4148,324.973,383.494,320.8938,379.5748,325.073,388.493" style="stroke:#A80036;stroke-width:1.0;"/><text fill="#000000" font-family="sans-serif" font-size="13" lengthAdjust="spacing" textLength="48" x="325.5" y="348.0669">contact</text><!--MD5=[aeaf14070186bce0a5ce70734ce96ab2]
reverse link Network to Friend--><path codeLine="61" d="M190.546,569.636 C175.353,591.487 155.016,620.735 140.542,641.552 " fill="none" id="Network-backto-Friend" style="stroke:#A80036;stroke-width:1.0;"/><polygon fill="#FFFFFF" points="198.176,558.663,191.4665,561.3055,191.3252,568.5152,198.0347,565.8727,198.176,558.663" style="stroke:#A80036;stroke-width:1.0;"/><!--MD5=[d0e6f4fb8a320969f7cdf04367fcf8ee]
link RefersySystem to Job--><path codeLine="62" d="M47.1374,254.073 C41.7393,281.421 38.1098,321.097 52.5,352 C62.3511,373.155 84.6748,389.124 100.6301,398.38 " fill="none" id="RefersySystem-to-Job" style="stroke:#A80036;stroke-width:1.0;"/><polygon fill="#A80036" points="105.3565,401.035,99.4685,393.1399,100.9971,398.5864,95.5507,400.1149,105.3565,401.035" style="stroke:#A80036;stroke-width:1.0;"/><text fill="#000000" font-family="sans-serif" font-size="13" lengthAdjust="spacing" textLength="33" x="53.5" y="348.0669">fetch</text><!--MD5=[6298665acd1c08152c0a178b3cc67236]
link Seeker to Frequency--><path codeLine="63" d="M282.37,301.476 C265.822,331.279 248.237,362.95 236.641,383.834 " fill="none" id="Seeker-to-Frequency" style="stroke:#A80036;stroke-width:1.0;"/><polygon fill="#A80036" points="234.116,388.381,241.9819,382.4542,236.5431,384.0096,234.9877,378.5708,234.116,388.381" style="stroke:#A80036;stroke-width:1.0;"/><text fill="#000000" font-family="sans-serif" font-size="13" lengthAdjust="spacing" textLength="38" x="264.5" y="348.0669">select</text><!--MD5=[6c72fd5d8b3032e3eabcb7f46a5d3122]
link Seeker to Account--><path codeLine="64" d="M368.239,305.254 C381.06,330.826 394.368,357.371 404.211,377.003 " fill="none" id="Seeker-to-Account" style="stroke:#A80036;stroke-width:1.0;"/><polygon fill="#A80036" points="406.636,381.841,406.1762,372.0029,404.3942,377.3717,399.0254,375.5897,406.636,381.841" style="stroke:#A80036;stroke-width:1.0;"/><text fill="#000000" font-family="sans-serif" font-size="13" lengthAdjust="spacing" textLength="41" x="390.5" y="348.0669">create</text><!--MD5=[5a03791600d8309e3f81312d7a839638]
reverse link JobSeeker to Seeker--><path codeLine="65" d="M326.5,96.411 C326.5,109.192 326.5,123.177 326.5,136.997 " fill="none" id="JobSeeker-backto-Seeker" style="stroke:#A80036;stroke-width:1.0;"/><polygon fill="none" points="319.5,96.281,326.5,76.281,333.5,96.281,319.5,96.281" style="stroke:#A80036;stroke-width:1.0;"/><!--MD5=[d665e88d980f34323de7ba23a8b11cac]
reverse link Job to Search--><path codeLine="66" d="M142.37,425.926 C177.958,450.417 244.561,496.252 280.325,520.864 " fill="none" id="Job-backto-Search" style="stroke:#A80036;stroke-width:1.0;"/><polygon fill="#FFFFFF" points="131.579,418.501,134.2542,425.1975,141.4645,425.3037,138.7893,418.6071,131.579,418.501" style="stroke:#A80036;stroke-width:1.0;"/><!--MD5=[34b98de7c141e86dd2efe1f827551a99]
link Seeker to Search--><path codeLine="67" d="M370.722,230.748 C423.67,243.718 510.679,273.464 554.5,335 C580.327,371.268 584.366,397.412 560.5,435 C506.767,519.627 441.084,473.566 348.5,512 C343.381,514.125 338.126,516.742 333.11,519.481 " fill="none" id="Seeker-to-Search" style="stroke:#A80036;stroke-width:1.0;"/><polygon fill="#A80036" points="328.582,522.02,338.3884,521.1069,332.9431,519.5745,334.4756,514.1291,328.582,522.02" style="stroke:#A80036;stroke-width:1.0;"/><text fill="#000000" font-family="sans-serif" font-size="13" lengthAdjust="spacing" textLength="31" x="577.5" y="413.0669">save</text><!--MD5=[cfeddf85f533ebc4bf4479cbb191253f]
@startuml
hide circle
class JobSeeker<actor> {
	loginCredentials
	network
}
class Network {
}
class Contact {
	provide()
}
class Friend {
	refer()
}
class Seeker {
	unsubscribe()
	mark()
	browse()
	create()
	contact()
	search()
	save()
	select()
	see()
	subscribe()
}
class Search {
}
class Listing {
	have()
}
class Job {
}
class Frequency {
}
class RefersySystem {
	connect()
	fetch()
}
class Reference {
}
class Someone {
}
class Account {
	save()
}
class LoginCredentials {
}
class Message {
}
class JobSeeker {
}
Seeker - -> Message : supported_by
Listing - -> Friend : have
Account - -> LoginCredentials : save
Contact - -> Reference : provide
Seeker - -> Job : mark
Job o- - Listing
Network o- - Contact
Job o- - Seeker
Seeker - -> Someone : contact
Network o- - Friend
RefersySystem - -> Job : fetch
Seeker - -> Frequency : select
Seeker - -> Account : create
JobSeeker <|- - Seeker
Job o- - Search
Seeker - -> Search : save
@enduml

PlantUML version 1.2021.10beta2(Unknown compile time)
(GPL source distribution)
Java Runtime: Java(TM) SE Runtime Environment
JVM: Java HotSpot(TM) 64-Bit Server VM
Default Encoding: UTF-8
Language: en
Country: US
--></g></svg>