<?xml version="1.0" encoding="UTF-8" standalone="no"?><svg xmlns="http://www.w3.org/2000/svg" xmlns:xlink="http://www.w3.org/1999/xlink" contentScriptType="application/ecmascript" contentStyleType="text/css" height="825px" preserveAspectRatio="none" style="width:628px;height:825px;background:#FFFFFF;" version="1.1" viewBox="0 0 628 825" width="628px" zoomAndPan="magnify"><defs><filter height="300%" id="f19vbzzkw8vlcu" width="300%" x="-1" y="-1"><feGaussianBlur result="blurOut" stdDeviation="2.0"/><feColorMatrix in="blurOut" result="blurOut2" type="matrix" values="0 0 0 0 0 0 0 0 0 0 0 0 0 0 0 0 0 0 .4 0"/><feOffset dx="4.0" dy="4.0" in="blurOut2" result="blurOut3"/><feBlend in="SourceGraphic" in2="blurOut3" mode="normal"/></filter></defs><g><!--MD5=[d3bb6ba6f6edb088347a3eeef9f808bc]
class JobSeeker--><rect codeLine="48" fill="#FEFECE" filter="url(#f19vbzzkw8vlcu)" height="65.5781" id="JobSeeker" style="stroke:#A80036;stroke-width:1.5;" width="105" x="274" y="10"/><text fill="#000000" font-family="sans-serif" font-size="12" lengthAdjust="spacing" textLength="64" x="277" y="26.1387">JobSeeker</text><rect fill="#FFFFFF" height="15.9688" style="stroke:#000000;stroke-width:1.0;stroke-dasharray:2.0,2.0;" width="33" x="349" y="7"/><text fill="#000000" font-family="sans-serif" font-size="12" font-style="italic" lengthAdjust="spacing" textLength="31" x="350" y="19.1387">actor</text><line style="stroke:#A80036;stroke-width:1.5;" x1="275" x2="378" y1="33.9688" y2="33.9688"/><text fill="#000000" font-family="sans-serif" font-size="11" lengthAdjust="spacing" textLength="45" x="280" y="48.1792">network</text><text fill="#000000" font-family="sans-serif" font-size="11" lengthAdjust="spacing" textLength="92" x="280" y="60.9839">loginCredentials</text><line style="stroke:#A80036;stroke-width:1.5;" x1="275" x2="378" y1="67.5781" y2="67.5781"/><!--MD5=[1d43bb2769481439486811cefb48cb7d]
class Seeker--><rect codeLine="6" fill="#FEFECE" filter="url(#f19vbzzkw8vlcu)" height="168.0156" id="Seeker" style="stroke:#A80036;stroke-width:1.5;" width="88" x="282.5" y="137"/><text fill="#000000" font-family="sans-serif" font-size="12" lengthAdjust="spacing" textLength="44" x="304.5" y="153.1387">Seeker</text><line style="stroke:#A80036;stroke-width:1.5;" x1="283.5" x2="369.5" y1="160.9688" y2="160.9688"/><line style="stroke:#A80036;stroke-width:1.5;" x1="283.5" x2="369.5" y1="168.9688" y2="168.9688"/><text fill="#000000" font-family="sans-serif" font-size="11" lengthAdjust="spacing" textLength="36" x="288.5" y="183.1792">save()</text><text fill="#000000" font-family="sans-serif" font-size="11" lengthAdjust="spacing" textLength="36" x="288.5" y="195.9839">mark()</text><text fill="#000000" font-family="sans-serif" font-size="11" lengthAdjust="spacing" textLength="49" x="288.5" y="208.7886">contact()</text><text fill="#000000" font-family="sans-serif" font-size="11" lengthAdjust="spacing" textLength="76" x="288.5" y="221.5933">unsubscribe()</text><text fill="#000000" font-family="sans-serif" font-size="11" lengthAdjust="spacing" textLength="49" x="288.5" y="234.3979">browse()</text><text fill="#000000" font-family="sans-serif" font-size="11" lengthAdjust="spacing" textLength="43" x="288.5" y="247.2026">select()</text><text fill="#000000" font-family="sans-serif" font-size="11" lengthAdjust="spacing" textLength="46" x="288.5" y="260.0073">search()</text><text fill="#000000" font-family="sans-serif" font-size="11" lengthAdjust="spacing" textLength="45" x="288.5" y="272.812">create()</text><text fill="#000000" font-family="sans-serif" font-size="11" lengthAdjust="spacing" textLength="30" x="288.5" y="285.6167">see()</text><text fill="#000000" font-family="sans-serif" font-size="11" lengthAdjust="spacing" textLength="62" x="288.5" y="298.4214">subscribe()</text><!--MD5=[d5a630d213adc2e3986060bd811a90b1]
class Search--><rect codeLine="18" fill="#FEFECE" filter="url(#f19vbzzkw8vlcu)" height="39.9688" id="Search" style="stroke:#A80036;stroke-width:1.5;" width="48" x="196.5" y="518.5"/><text fill="#000000" font-family="sans-serif" font-size="12" lengthAdjust="spacing" textLength="42" x="199.5" y="534.6387">Search</text><line style="stroke:#A80036;stroke-width:1.5;" x1="197.5" x2="243.5" y1="542.4688" y2="542.4688"/><line style="stroke:#A80036;stroke-width:1.5;" x1="197.5" x2="243.5" y1="550.4688" y2="550.4688"/><!--MD5=[c7159c368ecd92fb5843b3b4ed8c52fc]
class Listing--><rect codeLine="20" fill="#FEFECE" filter="url(#f19vbzzkw8vlcu)" height="52.7734" id="Listing" style="stroke:#A80036;stroke-width:1.5;" width="49" x="112" y="512"/><text fill="#000000" font-family="sans-serif" font-size="12" lengthAdjust="spacing" textLength="38" x="117.5" y="528.1387">Listing</text><line style="stroke:#A80036;stroke-width:1.5;" x1="113" x2="160" y1="535.9688" y2="535.9688"/><line style="stroke:#A80036;stroke-width:1.5;" x1="113" x2="160" y1="543.9688" y2="543.9688"/><text fill="#000000" font-family="sans-serif" font-size="11" lengthAdjust="spacing" textLength="37" x="118" y="558.1792">have()</text><!--MD5=[ec81f511f4d20a18ef555a8be4cd58b8]
class Network--><rect codeLine="23" fill="#FEFECE" filter="url(#f19vbzzkw8vlcu)" height="39.9688" id="Network" style="stroke:#A80036;stroke-width:1.5;" width="56" x="279.5" y="518.5"/><text fill="#000000" font-family="sans-serif" font-size="12" lengthAdjust="spacing" textLength="50" x="282.5" y="534.6387">Network</text><line style="stroke:#A80036;stroke-width:1.5;" x1="280.5" x2="334.5" y1="542.4688" y2="542.4688"/><line style="stroke:#A80036;stroke-width:1.5;" x1="280.5" x2="334.5" y1="550.4688" y2="550.4688"/><!--MD5=[b76c921dec148580e221480ea486da2a]
class Friend--><rect codeLine="25" fill="#FEFECE" filter="url(#f19vbzzkw8vlcu)" height="52.7734" id="Friend" style="stroke:#A80036;stroke-width:1.5;" width="48" x="162.5" y="642"/><text fill="#000000" font-family="sans-serif" font-size="12" lengthAdjust="spacing" textLength="38" x="167.5" y="658.1387">Friend</text><line style="stroke:#A80036;stroke-width:1.5;" x1="163.5" x2="209.5" y1="665.9688" y2="665.9688"/><line style="stroke:#A80036;stroke-width:1.5;" x1="163.5" x2="209.5" y1="673.9688" y2="673.9688"/><text fill="#000000" font-family="sans-serif" font-size="11" lengthAdjust="spacing" textLength="36" x="168.5" y="688.1792">refer()</text><!--MD5=[72ce1314beffbcf60a64ee91fbbc10dc]
class Contact--><rect codeLine="28" fill="#FEFECE" filter="url(#f19vbzzkw8vlcu)" height="52.7734" id="Contact" style="stroke:#A80036;stroke-width:1.5;" width="63" x="276" y="642"/><text fill="#000000" font-family="sans-serif" font-size="12" lengthAdjust="spacing" textLength="45" x="285" y="658.1387">Contact</text><line style="stroke:#A80036;stroke-width:1.5;" x1="277" x2="338" y1="665.9688" y2="665.9688"/><line style="stroke:#A80036;stroke-width:1.5;" x1="277" x2="338" y1="673.9688" y2="673.9688"/><text fill="#000000" font-family="sans-serif" font-size="11" lengthAdjust="spacing" textLength="51" x="282" y="688.1792">provide()</text><!--MD5=[70ce7a33e1f5c9d7eb8109bc32c5b982]
class RefersySystem--><rect codeLine="31" fill="#FEFECE" filter="url(#f19vbzzkw8vlcu)" height="65.5781" id="RefersySystem" style="stroke:#A80036;stroke-width:1.5;" width="97" x="7" y="188"/><text fill="#000000" font-family="sans-serif" font-size="12" lengthAdjust="spacing" textLength="91" x="10" y="204.1387">RefersySystem</text><line style="stroke:#A80036;stroke-width:1.5;" x1="8" x2="103" y1="211.9688" y2="211.9688"/><line style="stroke:#A80036;stroke-width:1.5;" x1="8" x2="103" y1="219.9688" y2="219.9688"/><text fill="#000000" font-family="sans-serif" font-size="11" lengthAdjust="spacing" textLength="53" x="13" y="234.1792">connect()</text><text fill="#000000" font-family="sans-serif" font-size="11" lengthAdjust="spacing" textLength="37" x="13" y="246.9839">fetch()</text><!--MD5=[b8e0354e0f3f5cbf52553869b78c0afa]
class Job--><rect codeLine="35" fill="#FEFECE" filter="url(#f19vbzzkw8vlcu)" height="39.9688" id="Job" style="stroke:#A80036;stroke-width:1.5;" width="26" x="123.5" y="388.5"/><text fill="#000000" font-family="sans-serif" font-size="12" lengthAdjust="spacing" textLength="20" x="126.5" y="404.6387">Job</text><line style="stroke:#A80036;stroke-width:1.5;" x1="124.5" x2="148.5" y1="412.4688" y2="412.4688"/><line style="stroke:#A80036;stroke-width:1.5;" x1="124.5" x2="148.5" y1="420.4688" y2="420.4688"/><!--MD5=[f9a29335b499db729be669fd1bd54958]
class Account--><rect codeLine="37" fill="#FEFECE" filter="url(#f19vbzzkw8vlcu)" height="52.7734" id="Account" style="stroke:#A80036;stroke-width:1.5;" width="54" x="490.5" y="382"/><text fill="#000000" font-family="sans-serif" font-size="12" lengthAdjust="spacing" textLength="48" x="493.5" y="398.1387">Account</text><line style="stroke:#A80036;stroke-width:1.5;" x1="491.5" x2="543.5" y1="405.9688" y2="405.9688"/><line style="stroke:#A80036;stroke-width:1.5;" x1="491.5" x2="543.5" y1="413.9688" y2="413.9688"/><text fill="#000000" font-family="sans-serif" font-size="11" lengthAdjust="spacing" textLength="36" x="496.5" y="428.1792">save()</text><!--MD5=[ea0779d5893e382eddb4c95271b5b7a7]
class LoginCredentials--><rect codeLine="40" fill="#FEFECE" filter="url(#f19vbzzkw8vlcu)" height="39.9688" id="LoginCredentials" style="stroke:#A80036;stroke-width:1.5;" width="106" x="464.5" y="518.5"/><text fill="#000000" font-family="sans-serif" font-size="12" lengthAdjust="spacing" textLength="100" x="467.5" y="534.6387">LoginCredentials</text><line style="stroke:#A80036;stroke-width:1.5;" x1="465.5" x2="569.5" y1="542.4688" y2="542.4688"/><line style="stroke:#A80036;stroke-width:1.5;" x1="465.5" x2="569.5" y1="550.4688" y2="550.4688"/><!--MD5=[8f3fa1c68227f7296546d55286502fc6]
class Frequency--><rect codeLine="42" fill="#FEFECE" filter="url(#f19vbzzkw8vlcu)" height="39.9688" id="Frequency" style="stroke:#A80036;stroke-width:1.5;" width="70" x="189.5" y="388.5"/><text fill="#000000" font-family="sans-serif" font-size="12" lengthAdjust="spacing" textLength="64" x="192.5" y="404.6387">Frequency</text><line style="stroke:#A80036;stroke-width:1.5;" x1="190.5" x2="258.5" y1="412.4688" y2="412.4688"/><line style="stroke:#A80036;stroke-width:1.5;" x1="190.5" x2="258.5" y1="420.4688" y2="420.4688"/><!--MD5=[ad932b6f5864965112044123d6bad487]
class Someone--><rect codeLine="44" fill="#FEFECE" filter="url(#f19vbzzkw8vlcu)" height="39.9688" id="Someone" style="stroke:#A80036;stroke-width:1.5;" width="64" x="294.5" y="388.5"/><text fill="#000000" font-family="sans-serif" font-size="12" lengthAdjust="spacing" textLength="58" x="297.5" y="404.6387">Someone</text><line style="stroke:#A80036;stroke-width:1.5;" x1="295.5" x2="357.5" y1="412.4688" y2="412.4688"/><line style="stroke:#A80036;stroke-width:1.5;" x1="295.5" x2="357.5" y1="420.4688" y2="420.4688"/><!--MD5=[3a7cf800944e5f3d9e9c59d889c61f3b]
class Reference--><rect codeLine="46" fill="#FEFECE" filter="url(#f19vbzzkw8vlcu)" height="39.9688" id="Reference" style="stroke:#A80036;stroke-width:1.5;" width="68" x="273.5" y="772"/><text fill="#000000" font-family="sans-serif" font-size="12" lengthAdjust="spacing" textLength="62" x="276.5" y="788.1387">Reference</text><line style="stroke:#A80036;stroke-width:1.5;" x1="274.5" x2="340.5" y1="795.9688" y2="795.9688"/><line style="stroke:#A80036;stroke-width:1.5;" x1="274.5" x2="340.5" y1="803.9688" y2="803.9688"/><!--MD5=[bea5b0d46523efab5ea1c1d339f396f0]
class Message--><rect codeLine="50" fill="#FEFECE" filter="url(#f19vbzzkw8vlcu)" height="39.9688" id="Message" style="stroke:#A80036;stroke-width:1.5;" width="61" x="394" y="388.5"/><text fill="#000000" font-family="sans-serif" font-size="12" lengthAdjust="spacing" textLength="55" x="397" y="404.6387">Message</text><line style="stroke:#A80036;stroke-width:1.5;" x1="395" x2="454" y1="412.4688" y2="412.4688"/><line style="stroke:#A80036;stroke-width:1.5;" x1="395" x2="454" y1="420.4688" y2="420.4688"/><!--MD5=[4f792db8d4b7f138535e65bf2558b7fa]
reverse link Network to Contact--><path codeLine="52" d="M307.5,571.773 C307.5,593.365 307.5,621.407 307.5,641.552 " fill="none" id="Network-backto-Contact" style="stroke:#A80036;stroke-width:1.0;"/><polygon fill="#FFFFFF" points="307.5,558.663,303.5,564.663,307.5,570.663,311.5,564.663,307.5,558.663" style="stroke:#A80036;stroke-width:1.0;"/><!--MD5=[34b98de7c141e86dd2efe1f827551a99]
link Seeker to Search--><path codeLine="53" d="M370.636,231.562 C422.589,245.227 507.477,275.55 552.5,335 C591.977,387.126 603.875,434.918 558.5,482 C512.467,529.765 324.288,490.596 261.5,512 C257.394,513.4 253.273,515.275 249.31,517.378 " fill="none" id="Seeker-to-Search" style="stroke:#A80036;stroke-width:1.0;"/><polygon fill="#A80036" points="244.741,519.935,254.5482,519.0306,249.1043,517.4933,250.6416,512.0494,244.741,519.935" style="stroke:#A80036;stroke-width:1.0;"/><text fill="#000000" font-family="sans-serif" font-size="13" lengthAdjust="spacing" textLength="31" x="589.5" y="413.0669">save</text><!--MD5=[f75b51317e35e99b240f0c2a75f7d420]
link Account to LoginCredentials--><path codeLine="54" d="M517.5,435.095 C517.5,457.789 517.5,490.707 517.5,513.048 " fill="none" id="Account-to-LoginCredentials" style="stroke:#A80036;stroke-width:1.0;"/><polygon fill="#A80036" points="517.5,518.207,521.5,509.207,517.5,513.207,513.5,509.207,517.5,518.207" style="stroke:#A80036;stroke-width:1.0;"/><text fill="#000000" font-family="sans-serif" font-size="13" lengthAdjust="spacing" textLength="31" x="518.5" y="478.0669">save</text><!--MD5=[bf9efbe2fe28b4d2005fb525f9337cf4]
reverse link Job to Listing--><path codeLine="55" d="M136.5,441.773 C136.5,463.365 136.5,491.407 136.5,511.552 " fill="none" id="Job-backto-Listing" style="stroke:#A80036;stroke-width:1.0;"/><polygon fill="#FFFFFF" points="136.5,428.663,132.5,434.663,136.5,440.663,140.5,434.663,136.5,428.663" style="stroke:#A80036;stroke-width:1.0;"/><!--MD5=[c51d7f3a99e5d823008a5d38ee5862a6]
link Seeker to Someone--><path codeLine="56" d="M323.341,305.223 C323.103,320.77 323.092,336.88 323.5,352 C323.775,362.173 324.332,373.384 324.893,383.051 " fill="none" id="Seeker-to-Someone" style="stroke:#A80036;stroke-width:1.0;"/><polygon fill="#A80036" points="325.203,388.247,328.6585,379.0242,324.9044,383.2559,320.6727,379.5019,325.203,388.247" style="stroke:#A80036;stroke-width:1.0;"/><text fill="#000000" font-family="sans-serif" font-size="13" lengthAdjust="spacing" textLength="48" x="324.5" y="348.0669">contact</text><!--MD5=[6c72fd5d8b3032e3eabcb7f46a5d3122]
link Seeker to Account--><path codeLine="57" d="M370.837,242.49 C407.817,261.64 459.467,293.497 491.5,335 C500.887,347.162 507.085,363.01 511.066,376.786 " fill="none" id="Seeker-to-Account" style="stroke:#A80036;stroke-width:1.0;"/><polygon fill="#A80036" points="512.434,381.757,513.904,372.0185,511.108,376.936,506.1905,374.14,512.434,381.757" style="stroke:#A80036;stroke-width:1.0;"/><text fill="#000000" font-family="sans-serif" font-size="13" lengthAdjust="spacing" textLength="41" x="502.5" y="348.0669">create</text><!--MD5=[75fa626a0cec06b88a8fcc29a60d29c9]
reverse link Job to Seeker--><path codeLine="58" d="M159.39,385.152 C189.755,355.506 243.992,302.554 282.433,265.024 " fill="none" id="Job-backto-Seeker" style="stroke:#A80036;stroke-width:1.0;"/><polygon fill="#FFFFFF" points="149.71,394.603,156.7975,393.2735,158.2962,386.2199,151.2087,387.5494,149.71,394.603" style="stroke:#A80036;stroke-width:1.0;"/><!--MD5=[4258d94ed6070a8ed66a974966776125]
link Seeker to Job--><path codeLine="66" d="M282.27,240.127 C243.17,258.401 187.514,290.306 155.5,335 C145.445,349.037 140.709,368.003 138.479,383.016 " fill="none" id="Seeker-to-Job" style="stroke:#A80036;stroke-width:1.0;"/><polygon fill="#A80036" points="137.766,388.351,142.9239,379.9607,138.4289,383.3951,134.9945,378.9001,137.766,388.351" style="stroke:#A80036;stroke-width:1.0;"/><text fill="#000000" font-family="sans-serif" font-size="13" lengthAdjust="spacing" textLength="33" x="156.5" y="348.0669">mark</text><!--MD5=[6298665acd1c08152c0a178b3cc67236]
link Seeker to Frequency--><path codeLine="59" d="M282.355,302.284 C266.137,331.779 248.977,362.986 237.597,383.682 " fill="none" id="Seeker-to-Frequency" style="stroke:#A80036;stroke-width:1.0;"/><polygon fill="#A80036" points="235.117,388.192,242.9579,382.2321,237.5257,383.8104,235.9473,378.3782,235.117,388.192" style="stroke:#A80036;stroke-width:1.0;"/><text fill="#000000" font-family="sans-serif" font-size="13" lengthAdjust="spacing" textLength="38" x="264.5" y="348.0669">select</text><!--MD5=[d0e6f4fb8a320969f7cdf04367fcf8ee]
link RefersySystem to Job--><path codeLine="60" d="M46.3099,254.243 C40.3243,281.88 36.2993,321.879 52.5,352 C66.3913,377.828 98.1557,393.64 118.398,401.471 " fill="none" id="RefersySystem-to-Job" style="stroke:#A80036;stroke-width:1.0;"/><polygon fill="#A80036" points="123.279,403.292,116.2443,396.399,118.5942,401.5447,113.4486,403.8946,123.279,403.292" style="stroke:#A80036;stroke-width:1.0;"/><text fill="#000000" font-family="sans-serif" font-size="13" lengthAdjust="spacing" textLength="33" x="53.5" y="348.0669">fetch</text><!--MD5=[5a03791600d8309e3f81312d7a839638]
reverse link JobSeeker to Seeker--><path codeLine="61" d="M326.5,96.411 C326.5,109.192 326.5,123.177 326.5,136.997 " fill="none" id="JobSeeker-backto-Seeker" style="stroke:#A80036;stroke-width:1.0;"/><polygon fill="none" points="319.5,96.281,326.5,76.281,333.5,96.281,319.5,96.281" style="stroke:#A80036;stroke-width:1.0;"/><!--MD5=[c16759a88a7068e5eef7d8e353fb0071]
link Listing to Friend--><path codeLine="62" d="M146.498,565.095 C154.605,585.85 166.053,615.156 174.626,637.103 " fill="none" id="Listing-to-Friend" style="stroke:#A80036;stroke-width:1.0;"/><polygon fill="#A80036" points="176.519,641.949,176.9687,632.1104,174.6991,637.292,169.5175,635.0223,176.519,641.949" style="stroke:#A80036;stroke-width:1.0;"/><text fill="#000000" font-family="sans-serif" font-size="13" lengthAdjust="spacing" textLength="32" x="165.5" y="608.0669">have</text><!--MD5=[9006aa0d1ecc052948c71c824d5543a3]
link Seeker to Message--><path codeLine="63" d="M370.483,305.254 C385.558,333.788 401.272,363.533 411.839,383.534 " fill="none" id="Seeker-to-Message" style="stroke:#A80036;stroke-width:1.0;"/><polygon fill="#A80036" points="414.278,388.151,413.6109,378.3248,411.9425,383.73,406.5373,382.0616,414.278,388.151" style="stroke:#A80036;stroke-width:1.0;"/><text fill="#000000" font-family="sans-serif" font-size="13" lengthAdjust="spacing" textLength="88" x="394.5" y="348.0669">supported_by</text><!--MD5=[aeaf14070186bce0a5ce70734ce96ab2]
reverse link Network to Friend--><path codeLine="64" d="M280.368,568.201 C259.427,590.354 230.725,620.716 210.59,642.016 " fill="none" id="Network-backto-Friend" style="stroke:#A80036;stroke-width:1.0;"/><polygon fill="#FFFFFF" points="289.385,558.663,282.3564,560.275,281.1411,567.383,288.1697,565.771,289.385,558.663" style="stroke:#A80036;stroke-width:1.0;"/><!--MD5=[fb528e6dbe6b38fa9931dd0aff8fbdea]
link Contact to Reference--><path codeLine="65" d="M307.5,695.267 C307.5,716.3301 307.5,745.9042 307.5,766.5902 " fill="none" id="Contact-to-Reference" style="stroke:#A80036;stroke-width:1.0;"/><polygon fill="#A80036" points="307.5,771.6472,311.5,762.6472,307.5,766.6472,303.5,762.6472,307.5,771.6472" style="stroke:#A80036;stroke-width:1.0;"/><text fill="#000000" font-family="sans-serif" font-size="13" lengthAdjust="spacing" textLength="48" x="308.5" y="738.0669">provide</text><!--MD5=[d665e88d980f34323de7ba23a8b11cac]
reverse link Job to Search--><path codeLine="67" d="M156.359,439.762 C172.298,464.05 194.195,497.416 207.838,518.206 " fill="none" id="Job-backto-Search" style="stroke:#A80036;stroke-width:1.0;"/><polygon fill="#FFFFFF" points="149.076,428.663,149.0239,435.8739,155.6601,438.6954,155.7122,431.4845,149.076,428.663" style="stroke:#A80036;stroke-width:1.0;"/><!--MD5=[02d55856377343182bdb2b2adb78ae03]
@startuml
hide circle
class JobSeeker<actor> {
	network
	loginCredentials
}
class Seeker {
	save()
	mark()
	contact()
	unsubscribe()
	browse()
	select()
	search()
	create()
	see()
	subscribe()
}
class Search {
}
class Listing {
	have()
}
class Network {
}
class Friend {
	refer()
}
class Contact {
	provide()
}
class RefersySystem {
	connect()
	fetch()
}
class Job {
}
class Account {
	save()
}
class LoginCredentials {
}
class Frequency {
}
class Someone {
}
class Reference {
}
class JobSeeker {
}
class Message {
}
Network o- - Contact
Seeker - -> Search : save
Account - -> LoginCredentials : save
Job o- - Listing
Seeker - -> Someone : contact
Seeker - -> Account : create
Job o- - Seeker
Seeker - -> Frequency : select
RefersySystem - -> Job : fetch
JobSeeker <|- - Seeker
Listing - -> Friend : have
Seeker - -> Message : supported_by
Network o- - Friend
Contact - -> Reference : provide
Seeker - -> Job : mark
Job o- - Search
@enduml

PlantUML version 1.2021.10beta5(Unknown compile time)
(GPL source distribution)
Java Runtime: Java(TM) SE Runtime Environment
JVM: Java HotSpot(TM) 64-Bit Server VM
Default Encoding: UTF-8
Language: en
Country: US
--></g></svg>