<?xml version="1.0" encoding="UTF-8" standalone="no"?><svg xmlns="http://www.w3.org/2000/svg" xmlns:xlink="http://www.w3.org/1999/xlink" contentScriptType="application/ecmascript" contentStyleType="text/css" height="387px" preserveAspectRatio="none" style="width:761px;height:387px;background:#FFFFFF;" version="1.1" viewBox="0 0 761 387" width="761px" zoomAndPan="magnify"><defs><filter height="300%" id="fmzv8m4x0xvve" width="300%" x="-1" y="-1"><feGaussianBlur result="blurOut" stdDeviation="2.0"/><feColorMatrix in="blurOut" result="blurOut2" type="matrix" values="0 0 0 0 0 0 0 0 0 0 0 0 0 0 0 0 0 0 .4 0"/><feOffset dx="4.0" dy="4.0" in="blurOut2" result="blurOut3"/><feBlend in="SourceGraphic" in2="blurOut3" mode="normal"/></filter></defs><g><!--MD5=[d3bb6ba6f6edb088347a3eeef9f808bc]
class JobSeeker--><rect codeLine="4" fill="#FEFECE" filter="url(#fmzv8m4x0xvve)" height="116.7969" id="JobSeeker" style="stroke:#A80036;stroke-width:1.5;" width="105" x="238.5" y="10"/><text fill="#000000" font-family="sans-serif" font-size="12" lengthAdjust="spacing" textLength="64" x="241.5" y="26.1387">JobSeeker</text><rect fill="#FFFFFF" height="15.9688" style="stroke:#000000;stroke-width:1.0;stroke-dasharray:2.0,2.0;" width="33" x="313.5" y="7"/><text fill="#000000" font-family="sans-serif" font-size="12" font-style="italic" lengthAdjust="spacing" textLength="31" x="314.5" y="19.1387">actor</text><line style="stroke:#A80036;stroke-width:1.5;" x1="239.5" x2="342.5" y1="33.9688" y2="33.9688"/><line style="stroke:#A80036;stroke-width:1.5;" x1="239.5" x2="342.5" y1="41.9688" y2="41.9688"/><text fill="#000000" font-family="sans-serif" font-size="11" lengthAdjust="spacing" textLength="45" x="244.5" y="56.1792">create()</text><text fill="#000000" font-family="sans-serif" font-size="11" lengthAdjust="spacing" textLength="36" x="244.5" y="68.9839">mark()</text><text fill="#000000" font-family="sans-serif" font-size="11" lengthAdjust="spacing" textLength="40" x="244.5" y="81.7886">email()</text><text fill="#000000" font-family="sans-serif" font-size="11" lengthAdjust="spacing" textLength="49" x="244.5" y="94.5933">contact()</text><text fill="#000000" font-family="sans-serif" font-size="11" lengthAdjust="spacing" textLength="36" x="244.5" y="107.3979">save()</text><text fill="#000000" font-family="sans-serif" font-size="11" lengthAdjust="spacing" textLength="43" x="244.5" y="120.2026">select()</text><!--MD5=[003656e1a5c2d6cee151be86461e7c94]
class JobNotification--><rect codeLine="12" fill="#FEFECE" filter="url(#fmzv8m4x0xvve)" height="39.9688" id="JobNotification" style="stroke:#A80036;stroke-width:1.5;" width="92" x="403" y="210.5"/><text fill="#000000" font-family="sans-serif" font-size="12" lengthAdjust="spacing" textLength="86" x="406" y="226.6387">JobNotification</text><line style="stroke:#A80036;stroke-width:1.5;" x1="404" x2="494" y1="234.4688" y2="234.4688"/><line style="stroke:#A80036;stroke-width:1.5;" x1="404" x2="494" y1="242.4688" y2="242.4688"/><!--MD5=[ad45ed51012ae03798874bc5890b1e2e]
class REFERsySystem--><rect codeLine="14" fill="#FEFECE" filter="url(#fmzv8m4x0xvve)" height="52.7734" id="REFERsySystem" style="stroke:#A80036;stroke-width:1.5;" width="100" x="533" y="42"/><text fill="#000000" font-family="sans-serif" font-size="12" lengthAdjust="spacing" textLength="94" x="536" y="58.1387">REFERsySystem</text><line style="stroke:#A80036;stroke-width:1.5;" x1="534" x2="632" y1="65.9688" y2="65.9688"/><line style="stroke:#A80036;stroke-width:1.5;" x1="534" x2="632" y1="73.9688" y2="73.9688"/><text fill="#000000" font-family="sans-serif" font-size="11" lengthAdjust="spacing" textLength="37" x="539" y="88.1792">fetch()</text><!--MD5=[b8e0354e0f3f5cbf52553869b78c0afa]
class Job--><rect codeLine="17" fill="#FEFECE" filter="url(#fmzv8m4x0xvve)" height="39.9688" id="Job" style="stroke:#A80036;stroke-width:1.5;" width="26" x="550" y="210.5"/><text fill="#000000" font-family="sans-serif" font-size="12" lengthAdjust="spacing" textLength="20" x="553" y="226.6387">Job</text><line style="stroke:#A80036;stroke-width:1.5;" x1="551" x2="575" y1="234.4688" y2="234.4688"/><line style="stroke:#A80036;stroke-width:1.5;" x1="551" x2="575" y1="242.4688" y2="242.4688"/><!--MD5=[9f8bee8d056a665630cc3bc6e1e3c7c6]
class JobSearch--><rect codeLine="19" fill="#FEFECE" filter="url(#fmzv8m4x0xvve)" height="39.9688" id="JobSearch" style="stroke:#A80036;stroke-width:1.5;" width="68" x="7" y="210.5"/><text fill="#000000" font-family="sans-serif" font-size="12" lengthAdjust="spacing" textLength="62" x="10" y="226.6387">JobSearch</text><line style="stroke:#A80036;stroke-width:1.5;" x1="8" x2="74" y1="234.4688" y2="234.4688"/><line style="stroke:#A80036;stroke-width:1.5;" x1="8" x2="74" y1="242.4688" y2="242.4688"/><!--MD5=[ad932b6f5864965112044123d6bad487]
class Someone--><rect codeLine="21" fill="#FEFECE" filter="url(#fmzv8m4x0xvve)" height="39.9688" id="Someone" style="stroke:#A80036;stroke-width:1.5;" width="64" x="110" y="210.5"/><text fill="#000000" font-family="sans-serif" font-size="12" lengthAdjust="spacing" textLength="58" x="113" y="226.6387">Someone</text><line style="stroke:#A80036;stroke-width:1.5;" x1="111" x2="173" y1="234.4688" y2="234.4688"/><line style="stroke:#A80036;stroke-width:1.5;" x1="111" x2="173" y1="242.4688" y2="242.4688"/><!--MD5=[1888608331b38da42b1c8c3bbba38902]
class JobListing--><rect codeLine="23" fill="#FEFECE" filter="url(#fmzv8m4x0xvve)" height="52.7734" id="JobListing" style="stroke:#A80036;stroke-width:1.5;" width="64" x="668" y="42"/><text fill="#000000" font-family="sans-serif" font-size="12" lengthAdjust="spacing" textLength="58" x="671" y="58.1387">JobListing</text><line style="stroke:#A80036;stroke-width:1.5;" x1="669" x2="731" y1="65.9688" y2="65.9688"/><line style="stroke:#A80036;stroke-width:1.5;" x1="669" x2="731" y1="73.9688" y2="73.9688"/><text fill="#000000" font-family="sans-serif" font-size="11" lengthAdjust="spacing" textLength="37" x="674" y="88.1792">have()</text><!--MD5=[8aa1040de69c42256540211c136b2f65]
class NetworkFriend--><rect codeLine="26" fill="#FEFECE" filter="url(#fmzv8m4x0xvve)" height="39.9688" id="NetworkFriend" style="stroke:#A80036;stroke-width:1.5;" width="94" x="653" y="210.5"/><text fill="#000000" font-family="sans-serif" font-size="12" lengthAdjust="spacing" textLength="88" x="656" y="226.6387">NetworkFriend</text><line style="stroke:#A80036;stroke-width:1.5;" x1="654" x2="746" y1="234.4688" y2="234.4688"/><line style="stroke:#A80036;stroke-width:1.5;" x1="654" x2="746" y1="242.4688" y2="242.4688"/><!--MD5=[f9a29335b499db729be669fd1bd54958]
class Account--><rect codeLine="28" fill="#FEFECE" filter="url(#fmzv8m4x0xvve)" height="52.7734" id="Account" style="stroke:#A80036;stroke-width:1.5;" width="54" x="209" y="204"/><text fill="#000000" font-family="sans-serif" font-size="12" lengthAdjust="spacing" textLength="48" x="212" y="220.1387">Account</text><line style="stroke:#A80036;stroke-width:1.5;" x1="210" x2="262" y1="227.9688" y2="227.9688"/><line style="stroke:#A80036;stroke-width:1.5;" x1="210" x2="262" y1="235.9688" y2="235.9688"/><text fill="#000000" font-family="sans-serif" font-size="11" lengthAdjust="spacing" textLength="42" x="215" y="250.1792">saves()</text><!--MD5=[8f3fa1c68227f7296546d55286502fc6]
class Frequency--><rect codeLine="31" fill="#FEFECE" filter="url(#fmzv8m4x0xvve)" height="39.9688" id="Frequency" style="stroke:#A80036;stroke-width:1.5;" width="70" x="298" y="210.5"/><text fill="#000000" font-family="sans-serif" font-size="12" lengthAdjust="spacing" textLength="64" x="301" y="226.6387">Frequency</text><line style="stroke:#A80036;stroke-width:1.5;" x1="299" x2="367" y1="234.4688" y2="234.4688"/><line style="stroke:#A80036;stroke-width:1.5;" x1="299" x2="367" y1="242.4688" y2="242.4688"/><!--MD5=[ea0779d5893e382eddb4c95271b5b7a7]
class LoginCredentials--><rect codeLine="33" fill="#FEFECE" filter="url(#fmzv8m4x0xvve)" height="39.9688" id="LoginCredentials" style="stroke:#A80036;stroke-width:1.5;" width="106" x="183" y="334"/><text fill="#000000" font-family="sans-serif" font-size="12" lengthAdjust="spacing" textLength="100" x="186" y="350.1387">LoginCredentials</text><line style="stroke:#A80036;stroke-width:1.5;" x1="184" x2="288" y1="357.9688" y2="357.9688"/><line style="stroke:#A80036;stroke-width:1.5;" x1="184" x2="288" y1="365.9688" y2="365.9688"/><!--MD5=[b01f798c5c7c362fb8b623b9e6042e48]
link JobSeeker to Job--><path codeLine="35" d="M343.767,100.539 C405.673,136.955 504.964,195.361 545.204,219.032 " fill="none" id="JobSeeker-to-Job" style="stroke:#A80036;stroke-width:1.0;"/><polygon fill="#A80036" points="549.812,221.742,544.0824,213.7312,545.5023,219.207,540.0265,220.6268,549.812,221.742" style="stroke:#A80036;stroke-width:1.0;"/><text fill="#000000" font-family="sans-serif" font-size="13" lengthAdjust="spacing" textLength="33" x="469" y="170.0669">mark</text><!--MD5=[5c2521f8962e96b32b0cbfc07cc570ea]
link JobSeeker to Account--><path codeLine="36" d="M271.144,127.264 C262.769,151.627 253.367,178.979 246.396,199.257 " fill="none" id="JobSeeker-to-Account" style="stroke:#A80036;stroke-width:1.0;"/><polygon fill="#A80036" points="244.768,203.993,251.4768,196.7825,246.3936,199.2646,243.9115,194.1815,244.768,203.993" style="stroke:#A80036;stroke-width:1.0;"/><text fill="#000000" font-family="sans-serif" font-size="13" lengthAdjust="spacing" textLength="41" x="262" y="170.0669">create</text><!--MD5=[56a95d9b8ecd6e1a7f62c67975efb7a3]
link JobSeeker to Someone--><path codeLine="37" d="M238.412,116.242 C224.826,129.046 210.512,143.208 198,157 C183.861,172.586 169.378,191.427 158.684,205.996 " fill="none" id="JobSeeker-to-Someone" style="stroke:#A80036;stroke-width:1.0;"/><polygon fill="#A80036" points="155.491,210.372,164.0266,205.4584,158.4377,206.3326,157.5636,200.7437,155.491,210.372" style="stroke:#A80036;stroke-width:1.0;"/><text fill="#000000" font-family="sans-serif" font-size="13" lengthAdjust="spacing" textLength="48" x="199" y="170.0669">contact</text><!--MD5=[b9e201e5b59ba0186d5b63a04cc66ef3]
link REFERsySystem to Job--><path codeLine="38" d="M579.787,95.207 C576.003,125.477 569.765,175.384 566.052,205.083 " fill="none" id="REFERsySystem-to-Job" style="stroke:#A80036;stroke-width:1.0;"/><polygon fill="#A80036" points="565.39,210.384,570.4775,201.9509,566.0114,205.4228,562.5395,200.9567,565.39,210.384" style="stroke:#A80036;stroke-width:1.0;"/><text fill="#000000" font-family="sans-serif" font-size="13" lengthAdjust="spacing" textLength="33" x="573" y="170.0669">fetch</text><!--MD5=[f2f7238e9655a667b5a5458913a1ca7e]
link JobSeeker to JobNotification--><path codeLine="39" d="M343.612,122.778 C371.785,151.308 405.018,184.961 426.522,206.737 " fill="none" id="JobSeeker-to-JobNotification" style="stroke:#A80036;stroke-width:1.0;"/><polygon fill="#A80036" points="430.133,210.394,426.657,201.1789,426.6204,206.8357,420.9637,206.7991,430.133,210.394" style="stroke:#A80036;stroke-width:1.0;"/><text fill="#000000" font-family="sans-serif" font-size="13" lengthAdjust="spacing" textLength="35" x="395" y="170.0669">email</text><!--MD5=[7afcde1a89c4684ab686bb573f46ec45]
link JobSeeker to Frequency--><path codeLine="40" d="M306.163,127.264 C313.225,154.165 321.243,184.71 326.661,205.352 " fill="none" id="JobSeeker-to-Frequency" style="stroke:#A80036;stroke-width:1.0;"/><polygon fill="#A80036" points="327.981,210.379,329.5664,200.6586,326.7123,205.5426,321.8282,202.6886,327.981,210.379" style="stroke:#A80036;stroke-width:1.0;"/><text fill="#000000" font-family="sans-serif" font-size="13" lengthAdjust="spacing" textLength="38" x="320" y="170.0669">select</text><!--MD5=[ed19ca453feb5a4622f3b161a38cfa86]
link JobSeeker to JobSearch--><path codeLine="41" d="M238.361,99.522 C210.072,115.984 174.779,137.049 144,157 C118.989,173.213 91.4115,192.714 71.0916,207.406 " fill="none" id="JobSeeker-to-JobSearch" style="stroke:#A80036;stroke-width:1.0;"/><polygon fill="#A80036" points="66.8692,210.465,76.5044,208.4249,70.9185,207.5319,71.8115,201.946,66.8692,210.465" style="stroke:#A80036;stroke-width:1.0;"/><text fill="#000000" font-family="sans-serif" font-size="13" lengthAdjust="spacing" textLength="31" x="145" y="170.0669">save</text><!--MD5=[d75d942ede053b3e4379c8cf7ff7755a]
link JobListing to NetworkFriend--><path codeLine="42" d="M700,95.207 C700,125.477 700,175.384 700,205.083 " fill="none" id="JobListing-to-NetworkFriend" style="stroke:#A80036;stroke-width:1.0;"/><polygon fill="#A80036" points="700,210.384,704,201.384,700,205.384,696,201.384,700,210.384" style="stroke:#A80036;stroke-width:1.0;"/><text fill="#000000" font-family="sans-serif" font-size="13" lengthAdjust="spacing" textLength="32" x="701" y="170.0669">have</text><!--MD5=[f75b51317e35e99b240f0c2a75f7d420]
link Account to LoginCredentials--><path codeLine="43" d="M236,257.267 C236,278.3301 236,307.9042 236,328.5902 " fill="none" id="Account-to-LoginCredentials" style="stroke:#A80036;stroke-width:1.0;"/><polygon fill="#A80036" points="236,333.6472,240,324.6472,236,328.6472,232,324.6472,236,333.6472" style="stroke:#A80036;stroke-width:1.0;"/><text fill="#000000" font-family="sans-serif" font-size="13" lengthAdjust="spacing" textLength="38" x="237" y="300.0669">saves</text><!--MD5=[4bfe1b443b10bc72d246a0012b881d17]
@startuml
hide circle
class JobSeeker<actor> {
}
class JobSeeker {
	create()
	mark()
	email()
	contact()
	save()
	select()
}
class JobNotification {
}
class REFERsySystem {
	fetch()
}
class Job {
}
class JobSearch {
}
class Someone {
}
class JobListing {
	have()
}
class NetworkFriend {
}
class Account {
	saves()
}
class Frequency {
}
class LoginCredentials {
}
JobSeeker - -> Job : mark
JobSeeker - -> Account : create
JobSeeker - -> Someone : contact
REFERsySystem - -> Job : fetch
JobSeeker - -> JobNotification : email
JobSeeker - -> Frequency : select
JobSeeker - -> JobSearch : save
JobListing - -> NetworkFriend : have
Account - -> LoginCredentials : saves
@enduml

PlantUML version 1.2021.6beta6(Unknown compile time)
(GPL source distribution)
Java Runtime: Java(TM) SE Runtime Environment
JVM: Java HotSpot(TM) 64-Bit Server VM
Default Encoding: UTF-8
Language: en
Country: US
--></g></svg>