<?xml version="1.0" encoding="UTF-8" standalone="no"?><svg xmlns="http://www.w3.org/2000/svg" xmlns:xlink="http://www.w3.org/1999/xlink" contentScriptType="application/ecmascript" contentStyleType="text/css" height="334px" preserveAspectRatio="none" style="width:708px;height:334px;background:#FFFFFF;" version="1.1" viewBox="0 0 708 334" width="708px" zoomAndPan="magnify"><defs><filter height="300%" id="f1h9pa9rp0y724" width="300%" x="-1" y="-1"><feGaussianBlur result="blurOut" stdDeviation="2.0"/><feColorMatrix in="blurOut" result="blurOut2" type="matrix" values="0 0 0 0 0 0 0 0 0 0 0 0 0 0 0 0 0 0 .4 0"/><feOffset dx="4.0" dy="4.0" in="blurOut2" result="blurOut3"/><feBlend in="SourceGraphic" in2="blurOut3" mode="normal"/></filter></defs><g><!--MD5=[7e60c9637a3e1c3cd06babfa3271b00a]
class SaleAgent--><rect codeLine="22" fill="#FEFECE" filter="url(#f1h9pa9rp0y724)" height="91.1875" id="SaleAgent" style="stroke:#A80036;stroke-width:1.5;" width="102" x="105.5" y="61.5"/><text fill="#000000" font-family="sans-serif" font-size="12" lengthAdjust="spacing" textLength="61" x="108.5" y="77.6387">SaleAgent</text><rect fill="#FFFFFF" height="15.9688" style="stroke:#000000;stroke-width:1.0;stroke-dasharray:2.0,2.0;" width="33" x="177.5" y="58.5"/><text fill="#000000" font-family="sans-serif" font-size="12" font-style="italic" lengthAdjust="spacing" textLength="31" x="178.5" y="70.6387">actor</text><line style="stroke:#A80036;stroke-width:1.5;" x1="106.5" x2="206.5" y1="85.4688" y2="85.4688"/><line style="stroke:#A80036;stroke-width:1.5;" x1="106.5" x2="206.5" y1="93.4688" y2="93.4688"/><text fill="#000000" font-family="sans-serif" font-size="11" lengthAdjust="spacing" textLength="36" x="111.5" y="107.6792">save()</text><text fill="#000000" font-family="sans-serif" font-size="11" lengthAdjust="spacing" textLength="52" x="111.5" y="120.4839">request()</text><text fill="#000000" font-family="sans-serif" font-size="11" lengthAdjust="spacing" textLength="32" x="111.5" y="133.2886">click()</text><text fill="#000000" font-family="sans-serif" font-size="11" lengthAdjust="spacing" textLength="38" x="111.5" y="146.0933">close()</text><!--MD5=[e8cbdd84d283a3a5c9a98727ec403a0a]
class SaleManager--><rect codeLine="6" fill="#FEFECE" filter="url(#f1h9pa9rp0y724)" height="193.625" id="SaleManager" style="stroke:#A80036;stroke-width:1.5;" width="119" x="406" y="10"/><text fill="#000000" font-family="sans-serif" font-size="12" lengthAdjust="spacing" textLength="78" x="409" y="26.1387">SaleManager</text><rect fill="#FFFFFF" height="15.9688" style="stroke:#000000;stroke-width:1.0;stroke-dasharray:2.0,2.0;" width="33" x="495" y="7"/><text fill="#000000" font-family="sans-serif" font-size="12" font-style="italic" lengthAdjust="spacing" textLength="31" x="496" y="19.1387">actor</text><line style="stroke:#A80036;stroke-width:1.5;" x1="407" x2="524" y1="33.9688" y2="33.9688"/><line style="stroke:#A80036;stroke-width:1.5;" x1="407" x2="524" y1="41.9688" y2="41.9688"/><text fill="#000000" font-family="sans-serif" font-size="11" lengthAdjust="spacing" textLength="33" x="412" y="56.1792">help()</text><text fill="#000000" font-family="sans-serif" font-size="11" lengthAdjust="spacing" textLength="36" x="412" y="68.9839">jump()</text><text fill="#000000" font-family="sans-serif" font-size="11" lengthAdjust="spacing" textLength="52" x="412" y="81.7886">jump_in()</text><text fill="#000000" font-family="sans-serif" font-size="11" lengthAdjust="spacing" textLength="29" x="412" y="94.5933">use()</text><text fill="#000000" font-family="sans-serif" font-size="11" lengthAdjust="spacing" textLength="27" x="412" y="107.3979">call()</text><text fill="#000000" font-family="sans-serif" font-size="11" lengthAdjust="spacing" textLength="44" x="412" y="120.2026">record()</text><text fill="#000000" font-family="sans-serif" font-size="11" lengthAdjust="spacing" textLength="33" x="412" y="133.0073">train()</text><text fill="#000000" font-family="sans-serif" font-size="11" lengthAdjust="spacing" textLength="42" x="412" y="145.812">speak()</text><text fill="#000000" font-family="sans-serif" font-size="11" lengthAdjust="spacing" textLength="39" x="412" y="158.6167">listen()</text><text fill="#000000" font-family="sans-serif" font-size="11" lengthAdjust="spacing" textLength="46" x="412" y="171.4214">assure()</text><text fill="#000000" font-family="sans-serif" font-size="11" lengthAdjust="spacing" textLength="40" x="412" y="184.2261">guide()</text><text fill="#000000" font-family="sans-serif" font-size="11" lengthAdjust="spacing" textLength="55" x="412" y="197.0308">listen_in()</text><!--MD5=[93369dbd818f54d42a841537181a0712]
class Call--><rect codeLine="20" fill="#FEFECE" filter="url(#f1h9pa9rp0y724)" height="39.9688" id="Call" style="stroke:#A80036;stroke-width:1.5;" width="27" x="291" y="281"/><text fill="#000000" font-family="sans-serif" font-size="12" lengthAdjust="spacing" textLength="21" x="294" y="297.1387">Call</text><line style="stroke:#A80036;stroke-width:1.5;" x1="292" x2="317" y1="304.9688" y2="304.9688"/><line style="stroke:#A80036;stroke-width:1.5;" x1="292" x2="317" y1="312.9688" y2="312.9688"/><!--MD5=[3231c3d3ce17334343e5bf63c69a3780]
class ConferenceCall--><rect codeLine="28" fill="#FEFECE" filter="url(#f1h9pa9rp0y724)" height="39.9688" id="ConferenceCall" style="stroke:#A80036;stroke-width:1.5;" width="97" x="7" y="281"/><text fill="#000000" font-family="sans-serif" font-size="12" lengthAdjust="spacing" textLength="91" x="10" y="297.1387">ConferenceCall</text><line style="stroke:#A80036;stroke-width:1.5;" x1="8" x2="103" y1="304.9688" y2="304.9688"/><line style="stroke:#A80036;stroke-width:1.5;" x1="8" x2="103" y1="312.9688" y2="312.9688"/><!--MD5=[fab76ac332c6d72510aaae6c360fa182]
class Quality--><rect codeLine="30" fill="#FEFECE" filter="url(#f1h9pa9rp0y724)" height="39.9688" id="Quality" style="stroke:#A80036;stroke-width:1.5;" width="47" x="357" y="281"/><text fill="#000000" font-family="sans-serif" font-size="12" lengthAdjust="spacing" textLength="41" x="360" y="297.1387">Quality</text><line style="stroke:#A80036;stroke-width:1.5;" x1="358" x2="403" y1="304.9688" y2="304.9688"/><line style="stroke:#A80036;stroke-width:1.5;" x1="358" x2="403" y1="312.9688" y2="312.9688"/><!--MD5=[9d44916250b776386006c440668bcfbb]
class Agent--><rect codeLine="32" fill="#FEFECE" filter="url(#f1h9pa9rp0y724)" height="39.9688" id="Agent" style="stroke:#A80036;stroke-width:1.5;" width="41" x="442" y="281"/><text fill="#000000" font-family="sans-serif" font-size="12" lengthAdjust="spacing" textLength="35" x="445" y="297.1387">Agent</text><line style="stroke:#A80036;stroke-width:1.5;" x1="443" x2="482" y1="304.9688" y2="304.9688"/><line style="stroke:#A80036;stroke-width:1.5;" x1="443" x2="482" y1="312.9688" y2="312.9688"/><!--MD5=[abb2a7cdedb14efb5af1120e5b6f0439]
class Recording--><rect codeLine="34" fill="#FEFECE" filter="url(#f1h9pa9rp0y724)" height="39.9688" id="Recording" style="stroke:#A80036;stroke-width:1.5;" width="67" x="518" y="281"/><text fill="#000000" font-family="sans-serif" font-size="12" lengthAdjust="spacing" textLength="61" x="521" y="297.1387">Recording</text><line style="stroke:#A80036;stroke-width:1.5;" x1="519" x2="584" y1="304.9688" y2="304.9688"/><line style="stroke:#A80036;stroke-width:1.5;" x1="519" x2="584" y1="312.9688" y2="312.9688"/><!--MD5=[2e42295458bb0bec21c9622a623eb29e]
class Time--><rect codeLine="36" fill="#FEFECE" filter="url(#f1h9pa9rp0y724)" height="39.9688" id="Time" style="stroke:#A80036;stroke-width:1.5;" width="35" x="139" y="281"/><text fill="#000000" font-family="sans-serif" font-size="12" lengthAdjust="spacing" textLength="29" x="142" y="297.1387">Time</text><line style="stroke:#A80036;stroke-width:1.5;" x1="140" x2="173" y1="304.9688" y2="304.9688"/><line style="stroke:#A80036;stroke-width:1.5;" x1="140" x2="173" y1="312.9688" y2="312.9688"/><!--MD5=[6c4e78c78b1e46e3cfee53a0136212c9]
class AgentWhile--><rect codeLine="38" fill="#FEFECE" filter="url(#f1h9pa9rp0y724)" height="39.9688" id="AgentWhile" style="stroke:#A80036;stroke-width:1.5;" width="74" x="620.5" y="281"/><text fill="#000000" font-family="sans-serif" font-size="12" lengthAdjust="spacing" textLength="68" x="623.5" y="297.1387">AgentWhile</text><line style="stroke:#A80036;stroke-width:1.5;" x1="621.5" x2="693.5" y1="304.9688" y2="304.9688"/><line style="stroke:#A80036;stroke-width:1.5;" x1="621.5" x2="693.5" y1="312.9688" y2="312.9688"/><!--MD5=[e0bd77868626c22cfc0c5aeed1b8d67f]
class Sale--><rect codeLine="40" fill="#FEFECE" filter="url(#f1h9pa9rp0y724)" height="39.9688" id="Sale" style="stroke:#A80036;stroke-width:1.5;" width="32" x="213.5" y="281"/><text fill="#000000" font-family="sans-serif" font-size="12" lengthAdjust="spacing" textLength="26" x="216.5" y="297.1387">Sale</text><line style="stroke:#A80036;stroke-width:1.5;" x1="214.5" x2="244.5" y1="304.9688" y2="304.9688"/><line style="stroke:#A80036;stroke-width:1.5;" x1="214.5" x2="244.5" y1="312.9688" y2="312.9688"/><!--MD5=[b380e1473d6b83a63fec10f675b50e42]
link SaleAgent to ConferenceCall--><path codeLine="42" d="M133.075,152.531 C112.829,191.017 84.3417,245.1722 68.1186,276.0121 " fill="none" id="SaleAgent-to-ConferenceCall" style="stroke:#A80036;stroke-width:1.0;"/><polygon fill="#A80036" points="65.6234,280.7556,73.3535,274.6527,67.9512,276.3305,66.2734,270.9282,65.6234,280.7556" style="stroke:#A80036;stroke-width:1.0;"/><text fill="#000000" font-family="sans-serif" font-size="13" lengthAdjust="spacing" textLength="49" x="89.5" y="247.0669">request</text><!--MD5=[2fc671cb33200febe835d3c5b71f8f5d]
link SaleManager to AgentWhile--><path codeLine="43" d="M525.198,167.698 C562.13,204.63 607.469,249.9693 634.34,276.8396 " fill="none" id="SaleManager-to-AgentWhile" style="stroke:#A80036;stroke-width:1.0;"/><polygon fill="#A80036" points="638.167,280.6668,634.6317,271.4743,634.6315,277.1312,628.9747,277.1311,638.167,280.6668" style="stroke:#A80036;stroke-width:1.0;"/><text fill="#000000" font-family="sans-serif" font-size="13" lengthAdjust="spacing" textLength="38" x="607.5" y="247.0669">speak</text><!--MD5=[40c86800e665d598d943937508622c0d]
link SaleManager to SaleManager--><path codeLine="44" d="M525.023,81.877 C544.495,82.006 560,90.381 560,107 C560,122.061 547.266,130.351 530.386,131.87 " fill="none" id="SaleManager-to-SaleManager" style="stroke:#A80036;stroke-width:1.0;"/><polygon fill="#A80036" points="525.023,132.123,534.2016,135.6943,530.0174,131.8873,533.8244,127.7031,525.023,132.123" style="stroke:#A80036;stroke-width:1.0;"/><text fill="#000000" font-family="sans-serif" font-size="13" lengthAdjust="spacing" textLength="23" x="566" y="111.5669">use</text><!--MD5=[c7493935afbd7640a65cff07ebd56c87]
link SaleManager to Recording--><path codeLine="45" d="M508.626,204.281 C520.578,230.9653 532.517,257.6203 540.75,275.9997 " fill="none" id="SaleManager-to-Recording" style="stroke:#A80036;stroke-width:1.0;"/><polygon fill="#A80036" points="542.97,280.9574,542.9422,271.1086,540.9264,276.3941,535.6409,274.3783,542.97,280.9574" style="stroke:#A80036;stroke-width:1.0;"/><text fill="#000000" font-family="sans-serif" font-size="13" lengthAdjust="spacing" textLength="23" x="529.5" y="247.0669">use</text><!--MD5=[70961451184f4e090aa306266544c69b]
link SaleManager to Quality--><path codeLine="46" d="M422.875,204.281 C411.062,230.9653 399.262,257.6203 391.125,275.9997 " fill="none" id="SaleManager-to-Quality" style="stroke:#A80036;stroke-width:1.0;"/><polygon fill="#A80036" points="388.93,280.9574,396.2305,274.3467,390.9538,276.3853,388.9152,271.1086,388.93,280.9574" style="stroke:#A80036;stroke-width:1.0;"/><text fill="#000000" font-family="sans-serif" font-size="13" lengthAdjust="spacing" textLength="43" x="409.5" y="247.0669">assure</text><!--MD5=[e4b31df74f237e6ad424e805f9fb583a]
link SaleManager to Call--><path codeLine="47" d="M405.738,178.921 C390.633,196.877 374.457,216.137 359.5,234 C346.657,249.3386 332.174,266.7215 321.295,279.7962 " fill="none" id="SaleManager-to-Call" style="stroke:#A80036;stroke-width:1.0;"/><polygon fill="#A80036" points="318.04,283.7085,326.8706,279.3473,321.2375,279.8645,320.7202,274.2314,318.04,283.7085" style="stroke:#A80036;stroke-width:1.0;"/><text fill="#000000" font-family="sans-serif" font-size="13" lengthAdjust="spacing" textLength="34" x="360.5" y="247.0669">listen</text><!--MD5=[626c302e54f5c55fc7d80a78ba5c4543]
link SaleAgent to Sale--><path codeLine="48" d="M173.431,152.531 C188.064,191.017 208.654,245.1722 220.38,276.0121 " fill="none" id="SaleAgent-to-Sale" style="stroke:#A80036;stroke-width:1.0;"/><polygon fill="#A80036" points="222.183,280.7556,222.7238,270.9216,220.4062,276.0819,215.2459,273.7644,222.183,280.7556" style="stroke:#A80036;stroke-width:1.0;"/><text fill="#000000" font-family="sans-serif" font-size="13" lengthAdjust="spacing" textLength="33" x="211.5" y="247.0669">close</text><!--MD5=[5ddfc1ecd5a0f1d3b4408454fbb3038b]
link SaleAgent to Time--><path codeLine="49" d="M154.377,152.77 C153.333,180.961 152.494,218.113 153.5,251 C153.746,259.0291 154.217,267.7878 154.715,275.6506 " fill="none" id="SaleAgent-to-Time" style="stroke:#A80036;stroke-width:1.0;"/><polygon fill="#A80036" points="155.061,280.931,158.4634,271.6885,154.7338,275.9417,150.4805,272.2121,155.061,280.931" style="stroke:#A80036;stroke-width:1.0;"/><text fill="#000000" font-family="sans-serif" font-size="13" lengthAdjust="spacing" textLength="31" x="154.5" y="247.0669">save</text><!--MD5=[410077e8f1d045423a2b2625eaf00a48]
link SaleManager to Agent--><path codeLine="50" d="M463.996,204.281 C463.582,230.7372 463.169,257.1646 462.882,275.5267 " fill="none" id="SaleManager-to-Agent" style="stroke:#A80036;stroke-width:1.0;"/><polygon fill="#A80036" points="462.798,280.9574,466.9384,272.0211,462.8763,275.958,458.9394,271.8959,462.798,280.9574" style="stroke:#A80036;stroke-width:1.0;"/><text fill="#000000" font-family="sans-serif" font-size="13" lengthAdjust="spacing" textLength="29" x="464.5" y="247.0669">train</text><!--MD5=[10d557d3f63754aa95664546f0308b08]
@startuml
hide circle
class SaleAgent<actor> {
}
class SaleManager<actor> {
}
class SaleManager {
	help()
	jump()
	jump_in()
	use()
	call()
	record()
	train()
	speak()
	listen()
	assure()
	guide()
	listen_in()
}
class Call {
}
class SaleAgent {
	save()
	request()
	click()
	close()
}
class ConferenceCall {
}
class Quality {
}
class Agent {
}
class Recording {
}
class Time {
}
class AgentWhile {
}
class Sale {
}
SaleAgent - -> ConferenceCall : request
SaleManager - -> AgentWhile : speak
SaleManager - -> SaleManager : use
SaleManager - -> Recording : use
SaleManager - -> Quality : assure
SaleManager - -> Call : listen
SaleAgent - -> Sale : close
SaleAgent - -> Time : save
SaleManager - -> Agent : train
@enduml

PlantUML version 1.2021.9beta2(Unknown compile time)
(GPL source distribution)
Java Runtime: Java(TM) SE Runtime Environment
JVM: Java HotSpot(TM) 64-Bit Server VM
Default Encoding: UTF-8
Language: en
Country: US
--></g></svg>