<?xml version="1.0" encoding="UTF-8" standalone="no"?><svg xmlns="http://www.w3.org/2000/svg" xmlns:xlink="http://www.w3.org/1999/xlink" contentScriptType="application/ecmascript" contentStyleType="text/css" height="673px" preserveAspectRatio="none" style="width:1647px;height:673px;background:#FFFFFF;" version="1.1" viewBox="0 0 1647 673" width="1647px" zoomAndPan="magnify"><defs><filter height="300%" id="fz5xe4e7lqf79" width="300%" x="-1" y="-1"><feGaussianBlur result="blurOut" stdDeviation="2.0"/><feColorMatrix in="blurOut" result="blurOut2" type="matrix" values="0 0 0 0 0 0 0 0 0 0 0 0 0 0 0 0 0 0 .4 0"/><feOffset dx="4.0" dy="4.0" in="blurOut2" result="blurOut3"/><feBlend in="SourceGraphic" in2="blurOut3" mode="normal"/></filter></defs><g><!--MD5=[fd8f06804651a767af6d5ee4693cdfe7]
class Coach--><rect codeLine="37" fill="#FEFECE" filter="url(#fz5xe4e7lqf79)" height="91.1875" id="Coach" style="stroke:#A80036;stroke-width:1.5;" width="78" x="135.3875" y="172.5"/><text fill="#000000" font-family="sans-serif" font-size="12" lengthAdjust="spacing" textLength="37" x="138.3875" y="188.6387">Coach</text><rect fill="#FFFFFF" height="15.9688" style="stroke:#000000;stroke-width:1.0;stroke-dasharray:2.0,2.0;" width="33" x="183.3875" y="169.5"/><text fill="#000000" font-family="sans-serif" font-size="12" font-style="italic" lengthAdjust="spacing" textLength="31" x="184.3875" y="181.6387">actor</text><line style="stroke:#A80036;stroke-width:1.5;" x1="136.3875" x2="212.3875" y1="196.4688" y2="196.4688"/><line style="stroke:#A80036;stroke-width:1.5;" x1="136.3875" x2="212.3875" y1="204.4688" y2="204.4688"/><text fill="#000000" font-family="sans-serif" font-size="11" lengthAdjust="spacing" textLength="48" x="141.3875" y="218.6792">extract()</text><text fill="#000000" font-family="sans-serif" font-size="11" lengthAdjust="spacing" textLength="40" x="141.3875" y="231.4839">make()</text><text fill="#000000" font-family="sans-serif" font-size="11" lengthAdjust="spacing" textLength="59" x="141.3875" y="244.2886">visualize()</text><text fill="#000000" font-family="sans-serif" font-size="11" lengthAdjust="spacing" textLength="35" x="141.3875" y="257.0933">build()</text><!--MD5=[cd5458322245a0c49df66b41751ab0c0]
class GM--><rect codeLine="71" fill="#FEFECE" filter="url(#fz5xe4e7lqf79)" height="103.9922" id="GM" style="stroke:#A80036;stroke-width:1.5;" width="71" x="476.8875" y="166"/><text fill="#000000" font-family="sans-serif" font-size="12" lengthAdjust="spacing" textLength="19" x="485.3875" y="182.1387">GM</text><rect fill="#FFFFFF" height="15.9688" style="stroke:#000000;stroke-width:1.0;stroke-dasharray:2.0,2.0;" width="33" x="517.8875" y="163"/><text fill="#000000" font-family="sans-serif" font-size="12" font-style="italic" lengthAdjust="spacing" textLength="31" x="518.8875" y="175.1387">actor</text><line style="stroke:#A80036;stroke-width:1.5;" x1="477.8875" x2="546.8875" y1="189.9688" y2="189.9688"/><text fill="#000000" font-family="sans-serif" font-size="11" lengthAdjust="spacing" textLength="25" x="482.8875" y="204.1792">data</text><line style="stroke:#A80036;stroke-width:1.5;" x1="477.8875" x2="546.8875" y1="210.7734" y2="210.7734"/><text fill="#000000" font-family="sans-serif" font-size="11" lengthAdjust="spacing" textLength="48" x="482.8875" y="224.9839">extract()</text><text fill="#000000" font-family="sans-serif" font-size="11" lengthAdjust="spacing" textLength="40" x="482.8875" y="237.7886">make()</text><text fill="#000000" font-family="sans-serif" font-size="11" lengthAdjust="spacing" textLength="59" x="482.8875" y="250.5933">visualize()</text><text fill="#000000" font-family="sans-serif" font-size="11" lengthAdjust="spacing" textLength="35" x="482.8875" y="263.3979">build()</text><!--MD5=[de1f8633644ee0aae50c6a7fba314ead]
class SporTechBIContractor--><rect codeLine="95" fill="#FEFECE" filter="url(#fz5xe4e7lqf79)" height="39.9688" id="SporTechBIContractor" style="stroke:#A80036;stroke-width:1.5;" width="173" x="1304.8855" y="23"/><text fill="#000000" font-family="sans-serif" font-size="12" lengthAdjust="spacing" textLength="132" x="1307.8855" y="39.1387">SporTechBIContractor</text><rect fill="#FFFFFF" height="15.9688" style="stroke:#000000;stroke-width:1.0;stroke-dasharray:2.0,2.0;" width="33" x="1447.8855" y="20"/><text fill="#000000" font-family="sans-serif" font-size="12" font-style="italic" lengthAdjust="spacing" textLength="31" x="1448.8855" y="32.1387">actor</text><line style="stroke:#A80036;stroke-width:1.5;" x1="1305.8855" x2="1476.8855" y1="46.9688" y2="46.9688"/><line style="stroke:#A80036;stroke-width:1.5;" x1="1305.8855" x2="1476.8855" y1="54.9688" y2="54.9688"/><!--MD5=[563fd89d482c4c23404165e69bfcbefa]
class Manger--><rect codeLine="80" fill="#FEFECE" filter="url(#fz5xe4e7lqf79)" height="52.7734" id="Manger" style="stroke:#A80036;stroke-width:1.5;" width="86" x="1184.3855" y="490"/><text fill="#000000" font-family="sans-serif" font-size="12" lengthAdjust="spacing" textLength="45" x="1187.3855" y="506.1387">Manger</text><rect fill="#FFFFFF" height="15.9688" style="stroke:#000000;stroke-width:1.0;stroke-dasharray:2.0,2.0;" width="33" x="1240.3855" y="487"/><text fill="#000000" font-family="sans-serif" font-size="12" font-style="italic" lengthAdjust="spacing" textLength="31" x="1241.3855" y="499.1387">actor</text><line style="stroke:#A80036;stroke-width:1.5;" x1="1185.3855" x2="1269.3855" y1="513.9688" y2="513.9688"/><line style="stroke:#A80036;stroke-width:1.5;" x1="1185.3855" x2="1269.3855" y1="521.9688" y2="521.9688"/><text fill="#000000" font-family="sans-serif" font-size="11" lengthAdjust="spacing" textLength="51" x="1190.3855" y="536.1792">monitor()</text><!--MD5=[2ce0c9fb7f55b1e256ab28a8ea6b25ec]
class Customer--><rect codeLine="51" fill="#FEFECE" filter="url(#fz5xe4e7lqf79)" height="129.6016" id="Customer" style="stroke:#A80036;stroke-width:1.5;" width="99" x="925.8875" y="153"/><text fill="#000000" font-family="sans-serif" font-size="12" lengthAdjust="spacing" textLength="58" x="928.8875" y="169.1387">Customer</text><rect fill="#FFFFFF" height="15.9688" style="stroke:#000000;stroke-width:1.0;stroke-dasharray:2.0,2.0;" width="33" x="994.8875" y="150"/><text fill="#000000" font-family="sans-serif" font-size="12" font-style="italic" lengthAdjust="spacing" textLength="31" x="995.8875" y="162.1387">actor</text><line style="stroke:#A80036;stroke-width:1.5;" x1="926.8875" x2="1023.8875" y1="176.9688" y2="176.9688"/><text fill="#000000" font-family="sans-serif" font-size="11" lengthAdjust="spacing" textLength="36" x="931.8875" y="191.1792">model</text><line style="stroke:#A80036;stroke-width:1.5;" x1="926.8875" x2="1023.8875" y1="197.7734" y2="197.7734"/><text fill="#000000" font-family="sans-serif" font-size="11" lengthAdjust="spacing" textLength="48" x="931.8875" y="211.9839">update()</text><text fill="#000000" font-family="sans-serif" font-size="11" lengthAdjust="spacing" textLength="33" x="931.8875" y="224.7886">drag()</text><text fill="#000000" font-family="sans-serif" font-size="11" lengthAdjust="spacing" textLength="33" x="931.8875" y="237.5933">drop()</text><text fill="#000000" font-family="sans-serif" font-size="11" lengthAdjust="spacing" textLength="30" x="931.8875" y="250.3979">see()</text><text fill="#000000" font-family="sans-serif" font-size="11" lengthAdjust="spacing" textLength="44" x="931.8875" y="263.2026">import()</text><text fill="#000000" font-family="sans-serif" font-size="11" lengthAdjust="spacing" textLength="29" x="931.8875" y="276.0073">add()</text><!--MD5=[0d6d527315af725114870e25843b9662]
class SoccerCoach--><rect codeLine="62" fill="#FEFECE" filter="url(#fz5xe4e7lqf79)" height="65.5781" id="SoccerCoach" style="stroke:#A80036;stroke-width:1.5;" width="121" x="1512.8855" y="10"/><text fill="#000000" font-family="sans-serif" font-size="12" lengthAdjust="spacing" textLength="80" x="1515.8855" y="26.1387">SoccerCoach</text><rect fill="#FFFFFF" height="15.9688" style="stroke:#000000;stroke-width:1.0;stroke-dasharray:2.0,2.0;" width="33" x="1603.8855" y="7"/><text fill="#000000" font-family="sans-serif" font-size="12" font-style="italic" lengthAdjust="spacing" textLength="31" x="1604.8855" y="19.1387">actor</text><line style="stroke:#A80036;stroke-width:1.5;" x1="1513.8855" x2="1632.8855" y1="33.9688" y2="33.9688"/><line style="stroke:#A80036;stroke-width:1.5;" x1="1513.8855" x2="1632.8855" y1="41.9688" y2="41.9688"/><text fill="#000000" font-family="sans-serif" font-size="11" lengthAdjust="spacing" textLength="49" x="1518.8855" y="56.1792">specify()</text><text fill="#000000" font-family="sans-serif" font-size="11" lengthAdjust="spacing" textLength="61" x="1518.8855" y="68.9839">configure()</text><!--MD5=[9e5b8da75a877d30f0aa7c5409b00ea1]
class Demand--><rect codeLine="16" fill="#FEFECE" filter="url(#fz5xe4e7lqf79)" height="39.9688" id="Demand" style="stroke:#A80036;stroke-width:1.5;" width="56" x="797.3875" y="620"/><text fill="#000000" font-family="sans-serif" font-size="12" lengthAdjust="spacing" textLength="50" x="800.3875" y="636.1387">Demand</text><line style="stroke:#A80036;stroke-width:1.5;" x1="798.3875" x2="852.3875" y1="643.9688" y2="643.9688"/><line style="stroke:#A80036;stroke-width:1.5;" x1="798.3875" x2="852.3875" y1="651.9688" y2="651.9688"/><!--MD5=[ddc36e88a2144077ea4257ea6b073d34]
class Reaction--><rect codeLine="18" fill="#FEFECE" filter="url(#fz5xe4e7lqf79)" height="39.9688" id="Reaction" style="stroke:#A80036;stroke-width:1.5;" width="57" x="982.8875" y="620"/><text fill="#000000" font-family="sans-serif" font-size="12" lengthAdjust="spacing" textLength="51" x="985.8875" y="636.1387">Reaction</text><line style="stroke:#A80036;stroke-width:1.5;" x1="983.8875" x2="1038.8875" y1="643.9688" y2="643.9688"/><line style="stroke:#A80036;stroke-width:1.5;" x1="983.8875" x2="1038.8875" y1="651.9688" y2="651.9688"/><!--MD5=[2cb47ba637a0d19583e6199456f6ad0b]
class Player--><rect codeLine="20" fill="#FEFECE" filter="url(#fz5xe4e7lqf79)" height="39.9688" id="Player" style="stroke:#A80036;stroke-width:1.5;" width="42" x="768.3875" y="198"/><text fill="#000000" font-family="sans-serif" font-size="12" lengthAdjust="spacing" textLength="36" x="771.3875" y="214.1387">Player</text><line style="stroke:#A80036;stroke-width:1.5;" x1="769.3875" x2="809.3875" y1="221.9688" y2="221.9688"/><line style="stroke:#A80036;stroke-width:1.5;" x1="769.3875" x2="809.3875" y1="229.9688" y2="229.9688"/><!--MD5=[ff3d20c1112759d46dde2fcead238479]
class Value--><rect codeLine="22" fill="#FEFECE" filter="url(#fz5xe4e7lqf79)" height="39.9688" id="Value" style="stroke:#A80036;stroke-width:1.5;" width="39" x="492.8875" y="366.5"/><text fill="#000000" font-family="sans-serif" font-size="12" lengthAdjust="spacing" textLength="33" x="495.8875" y="382.6387">Value</text><line style="stroke:#A80036;stroke-width:1.5;" x1="493.8875" x2="530.8875" y1="390.4688" y2="390.4688"/><line style="stroke:#A80036;stroke-width:1.5;" x1="493.8875" x2="530.8875" y1="398.4688" y2="398.4688"/><!--MD5=[fafc4399c852450a8ddc76384e2aa5f5]
class SporTechBI--><rect codeLine="24" fill="#FEFECE" filter="url(#fz5xe4e7lqf79)" height="39.9688" id="SporTechBI" style="stroke:#A80036;stroke-width:1.5;" width="75" x="1194.8855" y="23"/><text fill="#000000" font-family="sans-serif" font-size="12" lengthAdjust="spacing" textLength="69" x="1197.8855" y="39.1387">SporTechBI</text><line style="stroke:#A80036;stroke-width:1.5;" x1="1195.8855" x2="1268.8855" y1="46.9688" y2="46.9688"/><line style="stroke:#A80036;stroke-width:1.5;" x1="1195.8855" x2="1268.8855" y1="54.9688" y2="54.9688"/><!--MD5=[5cebc918a8b8f2d1be5940e92c560bfd]
class Contractor--><rect codeLine="26" fill="#FEFECE" filter="url(#fz5xe4e7lqf79)" height="78.3828" id="Contractor" style="stroke:#A80036;stroke-width:1.5;" width="69" x="1197.8855" y="179"/><text fill="#000000" font-family="sans-serif" font-size="12" lengthAdjust="spacing" textLength="63" x="1200.8855" y="195.1387">Contractor</text><line style="stroke:#A80036;stroke-width:1.5;" x1="1198.8855" x2="1265.8855" y1="202.9688" y2="202.9688"/><line style="stroke:#A80036;stroke-width:1.5;" x1="1198.8855" x2="1265.8855" y1="210.9688" y2="210.9688"/><text fill="#000000" font-family="sans-serif" font-size="11" lengthAdjust="spacing" textLength="44" x="1203.8855" y="225.1792">revise()</text><text fill="#000000" font-family="sans-serif" font-size="11" lengthAdjust="spacing" textLength="48" x="1203.8855" y="237.9839">update()</text><text fill="#000000" font-family="sans-serif" font-size="11" lengthAdjust="spacing" textLength="29" x="1203.8855" y="250.7886">add()</text><!--MD5=[f8e092794d52bf9a252466252ae7bd1c]
class System--><rect codeLine="31" fill="#FEFECE" filter="url(#fz5xe4e7lqf79)" height="52.7734" id="System" style="stroke:#A80036;stroke-width:1.5;" width="57" x="1091.8855" y="490"/><text fill="#000000" font-family="sans-serif" font-size="12" lengthAdjust="spacing" textLength="45" x="1097.8855" y="506.1387">System</text><line style="stroke:#A80036;stroke-width:1.5;" x1="1092.8855" x2="1147.8855" y1="513.9688" y2="513.9688"/><line style="stroke:#A80036;stroke-width:1.5;" x1="1092.8855" x2="1147.8855" y1="521.9688" y2="521.9688"/><text fill="#000000" font-family="sans-serif" font-size="11" lengthAdjust="spacing" textLength="45" x="1097.8855" y="536.1792">launch()</text><!--MD5=[43d29b841e3cba9fc026b8764d770c1d]
class Twitter--><rect codeLine="34" fill="#FEFECE" filter="url(#fz5xe4e7lqf79)" height="52.7734" id="Twitter" style="stroke:#A80036;stroke-width:1.5;" width="47" x="831.8875" y="490"/><text fill="#000000" font-family="sans-serif" font-size="12" lengthAdjust="spacing" textLength="41" x="834.8875" y="506.1387">Twitter</text><line style="stroke:#A80036;stroke-width:1.5;" x1="832.8875" x2="877.8875" y1="513.9688" y2="513.9688"/><line style="stroke:#A80036;stroke-width:1.5;" x1="832.8875" x2="877.8875" y1="521.9688" y2="521.9688"/><text fill="#000000" font-family="sans-serif" font-size="11" lengthAdjust="spacing" textLength="35" x="837.8875" y="536.1792">feed()</text><!--MD5=[1dab20436cf0d1b1dd4840238477bf0e]
class Instagram--><rect codeLine="43" fill="#FEFECE" filter="url(#fz5xe4e7lqf79)" height="52.7734" id="Instagram" style="stroke:#A80036;stroke-width:1.5;" width="65" x="913.8875" y="490"/><text fill="#000000" font-family="sans-serif" font-size="12" lengthAdjust="spacing" textLength="59" x="916.8875" y="506.1387">Instagram</text><line style="stroke:#A80036;stroke-width:1.5;" x1="914.8875" x2="977.8875" y1="513.9688" y2="513.9688"/><line style="stroke:#A80036;stroke-width:1.5;" x1="914.8875" x2="977.8875" y1="521.9688" y2="521.9688"/><text fill="#000000" font-family="sans-serif" font-size="11" lengthAdjust="spacing" textLength="35" x="919.8875" y="536.1792">feed()</text><!--MD5=[6cc3ad14011ab7f07f5dfe79da9fafb1]
class Roster--><rect codeLine="46" fill="#FEFECE" filter="url(#fz5xe4e7lqf79)" height="39.9688" id="Roster" style="stroke:#A80036;stroke-width:1.5;" width="45" x="79.8877" y="366.5"/><text fill="#000000" font-family="sans-serif" font-size="12" lengthAdjust="spacing" textLength="39" x="82.8877" y="382.6387">Roster</text><line style="stroke:#A80036;stroke-width:1.5;" x1="80.8877" x2="123.8877" y1="390.4688" y2="390.4688"/><line style="stroke:#A80036;stroke-width:1.5;" x1="80.8877" x2="123.8877" y1="398.4688" y2="398.4688"/><!--MD5=[d9427b671d7d049aff2d6f2fe36a13b3]
class Field--><rect codeLine="48" fill="#FEFECE" filter="url(#fz5xe4e7lqf79)" height="52.7734" id="Field" style="stroke:#A80036;stroke-width:1.5;" width="63" x="33.8877" y="16.5"/><text fill="#000000" font-family="sans-serif" font-size="12" lengthAdjust="spacing" textLength="29" x="50.8877" y="32.6387">Field</text><line style="stroke:#A80036;stroke-width:1.5;" x1="34.8877" x2="95.8877" y1="40.4688" y2="40.4688"/><line style="stroke:#A80036;stroke-width:1.5;" x1="34.8877" x2="95.8877" y1="48.4688" y2="48.4688"/><text fill="#000000" font-family="sans-serif" font-size="11" lengthAdjust="spacing" textLength="51" x="39.8877" y="62.6792">capture()</text><!--MD5=[60c9ed31c535bee25c55ce21b5b01399]
class Data--><rect codeLine="59" fill="#FEFECE" filter="url(#fz5xe4e7lqf79)" height="52.7734" id="Data" style="stroke:#A80036;stroke-width:1.5;" width="72" x="939.3875" y="360"/><text fill="#000000" font-family="sans-serif" font-size="12" lengthAdjust="spacing" textLength="27" x="961.8875" y="376.1387">Data</text><line style="stroke:#A80036;stroke-width:1.5;" x1="940.3875" x2="1010.3875" y1="383.9688" y2="383.9688"/><line style="stroke:#A80036;stroke-width:1.5;" x1="940.3875" x2="1010.3875" y1="391.9688" y2="391.9688"/><text fill="#000000" font-family="sans-serif" font-size="11" lengthAdjust="spacing" textLength="60" x="945.3875" y="406.1792">integrate()</text><!--MD5=[c680266cf9e454ca06c2d1bb8b683e6b]
class Schedule--><rect codeLine="66" fill="#FEFECE" filter="url(#fz5xe4e7lqf79)" height="39.9688" id="Schedule" style="stroke:#A80036;stroke-width:1.5;" width="62" x="1542.3855" y="198"/><text fill="#000000" font-family="sans-serif" font-size="12" lengthAdjust="spacing" textLength="56" x="1545.3855" y="214.1387">Schedule</text><line style="stroke:#A80036;stroke-width:1.5;" x1="1543.3855" x2="1603.3855" y1="221.9688" y2="221.9688"/><line style="stroke:#A80036;stroke-width:1.5;" x1="1543.3855" x2="1603.3855" y1="229.9688" y2="229.9688"/><!--MD5=[3db53164d4ddbdea4156eda8a776d7e7]
class Decision--><rect codeLine="68" fill="#FEFECE" filter="url(#fz5xe4e7lqf79)" height="52.7734" id="Decision" style="stroke:#A80036;stroke-width:1.5;" width="58" x="280.3875" y="360"/><text fill="#000000" font-family="sans-serif" font-size="12" lengthAdjust="spacing" textLength="52" x="283.3875" y="376.1387">Decision</text><line style="stroke:#A80036;stroke-width:1.5;" x1="281.3875" x2="337.3875" y1="383.9688" y2="383.9688"/><line style="stroke:#A80036;stroke-width:1.5;" x1="281.3875" x2="337.3875" y1="391.9688" y2="391.9688"/><text fill="#000000" font-family="sans-serif" font-size="11" lengthAdjust="spacing" textLength="41" x="286.3875" y="406.1792">affect()</text><!--MD5=[cc10e3762d31933ec3f062b0abc50bc3]
class Crawler--><rect codeLine="77" fill="#FEFECE" filter="url(#fz5xe4e7lqf79)" height="52.7734" id="Crawler" style="stroke:#A80036;stroke-width:1.5;" width="52" x="132.3875" y="16.5"/><text fill="#000000" font-family="sans-serif" font-size="12" lengthAdjust="spacing" textLength="46" x="135.3875" y="32.6387">Crawler</text><line style="stroke:#A80036;stroke-width:1.5;" x1="133.3875" x2="183.3875" y1="40.4688" y2="40.4688"/><line style="stroke:#A80036;stroke-width:1.5;" x1="133.3875" x2="183.3875" y1="48.4688" y2="48.4688"/><text fill="#000000" font-family="sans-serif" font-size="11" lengthAdjust="spacing" textLength="26" x="138.3875" y="62.6792">run()</text><!--MD5=[3f15a2df9840cb60193e06cbcd48594b]
class Facebook--><rect codeLine="83" fill="#FEFECE" filter="url(#fz5xe4e7lqf79)" height="52.7734" id="Facebook" style="stroke:#A80036;stroke-width:1.5;" width="66" x="730.3875" y="490"/><text fill="#000000" font-family="sans-serif" font-size="12" lengthAdjust="spacing" textLength="60" x="733.3875" y="506.1387">Facebook</text><line style="stroke:#A80036;stroke-width:1.5;" x1="731.3875" x2="795.3875" y1="513.9688" y2="513.9688"/><line style="stroke:#A80036;stroke-width:1.5;" x1="731.3875" x2="795.3875" y1="521.9688" y2="521.9688"/><text fill="#000000" font-family="sans-serif" font-size="11" lengthAdjust="spacing" textLength="35" x="736.3875" y="536.1792">feed()</text><!--MD5=[2916714cae8f0462c1096d4fd55ce4c3]
class Season--><rect codeLine="86" fill="#FEFECE" filter="url(#fz5xe4e7lqf79)" height="52.7734" id="Season" style="stroke:#A80036;stroke-width:1.5;" width="69" x="30.8877" y="191.5"/><text fill="#000000" font-family="sans-serif" font-size="12" lengthAdjust="spacing" textLength="45" x="42.8877" y="207.6387">Season</text><line style="stroke:#A80036;stroke-width:1.5;" x1="31.8877" x2="98.8877" y1="215.4688" y2="215.4688"/><line style="stroke:#A80036;stroke-width:1.5;" x1="31.8877" x2="98.8877" y1="223.4688" y2="223.4688"/><text fill="#000000" font-family="sans-serif" font-size="11" lengthAdjust="spacing" textLength="57" x="36.8877" y="237.6792">progress()</text><!--MD5=[69d1fc2307767191063ae5624aae7618]
class Manner--><rect codeLine="89" fill="#FEFECE" filter="url(#fz5xe4e7lqf79)" height="39.9688" id="Manner" style="stroke:#A80036;stroke-width:1.5;" width="50" x="645.3875" y="496.5"/><text fill="#000000" font-family="sans-serif" font-size="12" lengthAdjust="spacing" textLength="44" x="648.3875" y="512.6387">Manner</text><line style="stroke:#A80036;stroke-width:1.5;" x1="646.3875" x2="694.3875" y1="520.4688" y2="520.4688"/><line style="stroke:#A80036;stroke-width:1.5;" x1="646.3875" x2="694.3875" y1="528.4688" y2="528.4688"/><!--MD5=[736dfa021baaf4f381c9890dd397bfe9]
class Line--><rect codeLine="91" fill="#FEFECE" filter="url(#fz5xe4e7lqf79)" height="39.9688" id="Line" style="stroke:#A80036;stroke-width:1.5;" width="30" x="294.3875" y="496.5"/><text fill="#000000" font-family="sans-serif" font-size="12" lengthAdjust="spacing" textLength="24" x="297.3875" y="512.6387">Line</text><line style="stroke:#A80036;stroke-width:1.5;" x1="295.3875" x2="323.3875" y1="520.4688" y2="520.4688"/><line style="stroke:#A80036;stroke-width:1.5;" x1="295.3875" x2="323.3875" y1="528.4688" y2="528.4688"/><!--MD5=[371364a6d7b486039f21f31616b5ee45]
class Change--><rect codeLine="93" fill="#FEFECE" filter="url(#fz5xe4e7lqf79)" height="39.9688" id="Change" style="stroke:#A80036;stroke-width:1.5;" width="51" x="1159.8855" y="366.5"/><text fill="#000000" font-family="sans-serif" font-size="12" lengthAdjust="spacing" textLength="45" x="1162.8855" y="382.6387">Change</text><line style="stroke:#A80036;stroke-width:1.5;" x1="1160.8855" x2="1209.8855" y1="390.4688" y2="390.4688"/><line style="stroke:#A80036;stroke-width:1.5;" x1="1160.8855" x2="1209.8855" y1="398.4688" y2="398.4688"/><!--MD5=[7e20e022571e30ec1001cf6eabd7f3e2]
class Model--><rect codeLine="97" fill="#FEFECE" filter="url(#fz5xe4e7lqf79)" height="39.9688" id="Model" style="stroke:#A80036;stroke-width:1.5;" width="43" x="1013.8875" y="496.5"/><text fill="#000000" font-family="sans-serif" font-size="12" lengthAdjust="spacing" textLength="37" x="1016.8875" y="512.6387">Model</text><line style="stroke:#A80036;stroke-width:1.5;" x1="1014.8875" x2="1055.8875" y1="520.4688" y2="520.4688"/><line style="stroke:#A80036;stroke-width:1.5;" x1="1014.8875" x2="1055.8875" y1="528.4688" y2="528.4688"/><!--MD5=[a030fa97ffb865708cae79f6847e8968]
class Condition--><rect codeLine="99" fill="#FEFECE" filter="url(#fz5xe4e7lqf79)" height="39.9688" id="Condition" style="stroke:#A80036;stroke-width:1.5;" width="62" x="1243.3855" y="620"/><text fill="#000000" font-family="sans-serif" font-size="12" lengthAdjust="spacing" textLength="56" x="1246.3855" y="636.1387">Condition</text><line style="stroke:#A80036;stroke-width:1.5;" x1="1244.3855" x2="1304.3855" y1="643.9688" y2="643.9688"/><line style="stroke:#A80036;stroke-width:1.5;" x1="1244.3855" x2="1304.3855" y1="651.9688" y2="651.9688"/><!--MD5=[a5acc9ca93ae99540ba6908e5db225cb]
reverse link SporTechBI to System--><path codeLine="101" d="M1251.5155,74.557 C1263.5855,95.697 1278.0455,124.965 1284.3855,153 C1297.1455,209.353 1296.0555,226.413 1284.3855,283 C1271.6855,344.614 1264.3855,361.404 1228.3855,413 C1206.2055,444.801 1172.9355,474.526 1149.1955,493.69 " fill="none" id="SporTechBI-backto-System" style="stroke:#A80036;stroke-width:1.0;"/><polygon fill="#FFFFFF" points="1244.7655,63.12,1244.3689,70.3202,1250.8627,73.4556,1251.2593,66.2554,1244.7655,63.12" style="stroke:#A80036;stroke-width:1.0;"/><!--MD5=[ccf6f9f38bb8fec2a2562aae303dcd84]
link Coach to Value--><path codeLine="102" d="M213.4925,252.269 C243.7535,276.616 287.5885,308.944 330.3875,330 C383.6415,356.2 451.7895,372.961 487.6955,380.627 " fill="none" id="Coach-to-Value" style="stroke:#A80036;stroke-width:1.0;"/><polygon fill="#A80036" points="492.7545,381.692,484.7735,375.9211,487.8621,380.6604,483.1228,383.749,492.7545,381.692" style="stroke:#A80036;stroke-width:1.0;"/><text fill="#000000" font-family="sans-serif" font-size="13" lengthAdjust="spacing" textLength="55" x="331.3875" y="326.0669">visualize</text><!--MD5=[ccf6f9f38bb8fec2a2562aae303dcd84]
link Coach to Value--><path codeLine="104" d="M193.4495,263.704 C205.5925,286.93 223.5555,313.774 247.3875,330 C267.3235,343.573 425.6085,371.053 487.6065,381.419 " fill="none" id="Coach-to-Value-1" style="stroke:#A80036;stroke-width:1.0;"/><polygon fill="#A80036" points="492.6015,382.252,484.3826,376.8253,487.6697,381.4291,483.0659,384.7162,492.6015,382.252" style="stroke:#A80036;stroke-width:1.0;"/><text fill="#000000" font-family="sans-serif" font-size="13" lengthAdjust="spacing" textLength="46" x="248.3875" y="326.0669">extract</text><!--MD5=[44466838d613c544a9ab9a4c6956b62e]
link Data to Model--><path codeLine="103" d="M987.3855,413.095 C998.1125,435.981 1013.7135,469.263 1024.1855,491.612 " fill="none" id="Data-to-Model" style="stroke:#A80036;stroke-width:1.0;"/><polygon fill="#A80036" points="1026.3455,496.207,1026.1473,486.3601,1024.2233,491.6797,1018.9037,489.7557,1026.3455,496.207" style="stroke:#A80036;stroke-width:1.0;"/><text fill="#000000" font-family="sans-serif" font-size="13" lengthAdjust="spacing" textLength="13" x="1010.3875" y="456.0669">to</text><!--MD5=[411145a7fff47287506639ffbb6e6974]
link GM to Value--><path codeLine="105" d="M509.8515,270.116 C509.2215,288.941 508.8595,310.44 509.3875,330 C509.6625,340.173 510.2195,351.384 510.7805,361.051 " fill="none" id="GM-to-Value" style="stroke:#A80036;stroke-width:1.0;"/><polygon fill="#A80036" points="511.0905,366.247,514.546,357.0242,510.7919,361.2559,506.5602,357.5019,511.0905,366.247" style="stroke:#A80036;stroke-width:1.0;"/><text fill="#000000" font-family="sans-serif" font-size="13" lengthAdjust="spacing" textLength="55" x="510.3875" y="326.0669">visualize</text><!--MD5=[411145a7fff47287506639ffbb6e6974]
link GM to Value--><path codeLine="123" d="M547.9815,265.371 C557.1105,279.85 565.6775,296.397 570.3875,313 C577.1355,336.788 554.9715,358.099 536.1215,371.361 " fill="none" id="GM-to-Value-1" style="stroke:#A80036;stroke-width:1.0;"/><polygon fill="#A80036" points="531.9155,374.229,541.6048,372.4635,536.0465,371.4121,537.0978,365.8538,531.9155,374.229" style="stroke:#A80036;stroke-width:1.0;"/><text fill="#000000" font-family="sans-serif" font-size="13" lengthAdjust="spacing" textLength="46" x="573.3875" y="326.0669">extract</text><!--MD5=[c6ef50d4d78fe4b066093134b18ca2df]
reverse link Player to Value--><path codeLine="106" d="M785.1605,251.041 C780.1615,276.099 769.3885,309.947 746.3875,330 C713.9725,358.261 582.2055,376.977 531.9705,383.21 " fill="none" id="Player-backto-Value" style="stroke:#A80036;stroke-width:1.0;"/><polygon fill="#FFFFFF" points="787.3845,238.167,782.4215,243.3985,785.3418,249.9919,790.3048,244.7603,787.3845,238.167" style="stroke:#A80036;stroke-width:1.0;"/><!--MD5=[4b0afda13744a193096420e1b0ce2312]
link Instagram to Demand--><path codeLine="107" d="M920.7265,543.267 C899.3055,564.7763 869.0465,595.1612 848.3995,615.8928 " fill="none" id="Instagram-to-Demand" style="stroke:#A80036;stroke-width:1.0;"/><polygon fill="#A80036" points="844.6605,619.6472,853.8456,616.0927,848.1887,616.1044,848.1771,610.4475,844.6605,619.6472" style="stroke:#A80036;stroke-width:1.0;"/><text fill="#000000" font-family="sans-serif" font-size="13" lengthAdjust="spacing" textLength="29" x="891.3875" y="586.0669">feed</text><!--MD5=[9e70175148f4bb6979afff5927f05dfe]
link Manger to Demand--><path codeLine="108" d="M1184.3155,536.266 C1178.3355,538.648 1172.2455,540.961 1166.3855,543 C1055.3855,581.6672 920.0555,616.1073 858.5975,631.0793 " fill="none" id="Manger-to-Demand" style="stroke:#A80036;stroke-width:1.0;"/><polygon fill="#A80036" points="853.5915,632.2955,863.2813,634.0585,858.4503,631.1155,861.3933,626.2845,853.5915,632.2955" style="stroke:#A80036;stroke-width:1.0;"/><text fill="#000000" font-family="sans-serif" font-size="13" lengthAdjust="spacing" textLength="50" x="1066.3855" y="586.0669">monitor</text><!--MD5=[b94b9a35c7944b1957e0ae9bda2faf0f]
reverse link Facebook to Reaction--><path codeLine="109" d="M808.4965,540.66 C810.4735,541.482 812.4425,542.267 814.3875,543 C863.4115,561.4801 881.5485,549.527 928.3875,573 C952.5825,585.125 976.3585,605.0872 992.2185,619.8881 " fill="none" id="Facebook-backto-Reaction" style="stroke:#A80036;stroke-width:1.0;"/><polygon fill="#FFFFFF" points="796.4145,535.245,800.2536,541.3492,807.3648,540.1531,803.5257,534.049,796.4145,535.245" style="stroke:#A80036;stroke-width:1.0;"/><!--MD5=[401967659874aea1a33bf18ae03e981d]
link Coach to Roster--><path codeLine="110" d="M140.3955,263.571 C133.3885,270.787 125.6145,277.638 117.3877,283 C81.0029,306.714 49.9528,277.891 24.3877,313 C6,338.252 45.8614,361.753 75.0924,374.814 " fill="none" id="Coach-to-Roster" style="stroke:#A80036;stroke-width:1.0;"/><polygon fill="#A80036" points="79.682,376.819,73.0359,369.5507,75.1001,374.8174,69.8333,376.8817,79.682,376.819" style="stroke:#A80036;stroke-width:1.0;"/><text fill="#000000" font-family="sans-serif" font-size="13" lengthAdjust="spacing" textLength="30" x="25.3877" y="326.0669">build</text><!--MD5=[bc0ef1902adce0626a327d1fa06af772]
link Manger to Reaction--><path codeLine="111" d="M1202.4055,543.293 C1186.5955,558.477 1165.1155,577.161 1143.3855,590 C1112.0855,608.4984 1072.5955,622.0426 1045.0055,630.1448 " fill="none" id="Manger-to-Reaction" style="stroke:#A80036;stroke-width:1.0;"/><polygon fill="#A80036" points="1039.9955,631.5943,1049.7553,632.9159,1044.7957,630.1951,1047.5166,625.2356,1039.9955,631.5943" style="stroke:#A80036;stroke-width:1.0;"/><text fill="#000000" font-family="sans-serif" font-size="13" lengthAdjust="spacing" textLength="50" x="1167.3855" y="586.0669">monitor</text><!--MD5=[ff86de57627de474c65a6aada275c52f]
link Data to System--><path codeLine="112" d="M1004.3825,413.095 C1028.3855,434.286 1062.4955,464.391 1087.5055,486.476 " fill="none" id="Data-to-System" style="stroke:#A80036;stroke-width:1.0;"/><polygon fill="#A80036" points="1091.4455,489.949,1087.3525,480.9909,1087.6996,486.6371,1082.0535,486.9843,1091.4455,489.949" style="stroke:#A80036;stroke-width:1.0;"/><text fill="#000000" font-family="sans-serif" font-size="13" lengthAdjust="spacing" textLength="88" x="1058.3855" y="456.0669">supported_by</text><!--MD5=[7f36ef74c58d51f896bdafb10e134c6a]
reverse link Instagram to Reaction--><path codeLine="113" d="M989.2845,545.712 C997.7875,553.475 1005.5685,562.6506 1010.3875,573 C1017.2085,587.648 1016.8185,606.1821 1015.0925,619.8778 " fill="none" id="Instagram-backto-Reaction" style="stroke:#A80036;stroke-width:1.0;"/><polygon fill="#FFFFFF" points="979.1035,537.263,981.166,544.1729,988.3376,544.9267,986.2751,538.0168,979.1035,537.263" style="stroke:#A80036;stroke-width:1.0;"/><!--MD5=[38fe845a21f560745ba5c6aab3cc98e7]
link Contractor to Data--><path codeLine="114" d="M1197.7255,241.455 C1150.5155,272.043 1066.1355,326.708 1016.0075,359.184 " fill="none" id="Contractor-to-Data" style="stroke:#A80036;stroke-width:1.0;"/><polygon fill="#A80036" points="1011.5645,362.062,1021.2927,360.525,1015.7607,359.3431,1016.9425,353.8111,1011.5645,362.062" style="stroke:#A80036;stroke-width:1.0;"/><text fill="#000000" font-family="sans-serif" font-size="13" lengthAdjust="spacing" textLength="39" x="1082.3855" y="326.0669">revise</text><!--MD5=[38fe845a21f560745ba5c6aab3cc98e7]
link Contractor to Data--><path codeLine="129" d="M1227.7955,257.22 C1222.9355,281.329 1212.9255,311.333 1192.3855,330 C1166.8055,353.246 1072.1155,370.969 1016.6335,379.631 " fill="none" id="Contractor-to-Data-1" style="stroke:#A80036;stroke-width:1.0;"/><polygon fill="#A80036" points="1011.3895,380.441,1020.8951,383.0183,1016.3307,379.6767,1019.6723,375.1123,1011.3895,380.441" style="stroke:#A80036;stroke-width:1.0;"/><text fill="#000000" font-family="sans-serif" font-size="13" lengthAdjust="spacing" textLength="45" x="1208.3855" y="326.0669">update</text><!--MD5=[ef7a677dfa79e1730ff14c84b5f5132b]
reverse link Player to Data--><path codeLine="115" d="M800.5905,250.497 C810.6425,274.907 827.5085,308.147 851.3875,330 C876.4425,352.929 912.5455,367.624 939.3395,376.092 " fill="none" id="Player-backto-Data" style="stroke:#A80036;stroke-width:1.0;"/><polygon fill="#FFFFFF" points="795.8295,238.308,794.2868,245.3522,800.1958,249.4855,801.7385,242.4413,795.8295,238.308" style="stroke:#A80036;stroke-width:1.0;"/><!--MD5=[d6563f1afb67c85169d7cbf4967cee1d]
link Facebook to Demand--><path codeLine="116" d="M766.6155,543.09 C769.1825,557.492 773.6725,575.4483 781.3875,590 C786.3585,599.3753 793.5085,608.3932 800.6045,616.0806 " fill="none" id="Facebook-to-Demand" style="stroke:#A80036;stroke-width:1.0;"/><polygon fill="#A80036" points="804.0735,619.7432,800.7885,610.4583,800.6351,616.1131,794.9804,615.9597,804.0735,619.7432" style="stroke:#A80036;stroke-width:1.0;"/><text fill="#000000" font-family="sans-serif" font-size="13" lengthAdjust="spacing" textLength="29" x="782.3875" y="586.0669">feed</text><!--MD5=[c81e3c59bdba98824a48e28a0044be20]
link Manger to Condition--><path codeLine="117" d="M1237.3555,543.267 C1245.5355,564.4193 1257.0355,594.155 1265.0455,614.8527 " fill="none" id="Manger-to-Condition" style="stroke:#A80036;stroke-width:1.0;"/><polygon fill="#A80036" points="1266.9055,619.6472,1267.3846,609.81,1265.0995,614.9848,1259.9247,612.6997,1266.9055,619.6472" style="stroke:#A80036;stroke-width:1.0;"/><text fill="#000000" font-family="sans-serif" font-size="13" lengthAdjust="spacing" textLength="88" x="1256.3855" y="586.0669">supported_by</text><!--MD5=[9b5cac166cdab0bb423bef2a88f8f812]
link Customer to Data--><path codeLine="118" d="M925.6755,241.02 C886.6835,261.596 842.3945,294.414 864.3875,330 C879.6265,354.656 909.5025,368.725 934.4245,376.525 " fill="none" id="Customer-to-Data" style="stroke:#A80036;stroke-width:1.0;"/><polygon fill="#A80036" points="939.3365,378.003,931.8697,371.5807,934.5483,376.5631,929.5659,379.2418,939.3365,378.003" style="stroke:#A80036;stroke-width:1.0;"/><text fill="#000000" font-family="sans-serif" font-size="13" lengthAdjust="spacing" textLength="24" x="865.3875" y="326.0669">add</text><!--MD5=[9b5cac166cdab0bb423bef2a88f8f812]
link Customer to Data--><path codeLine="119" d="M932.5155,283.193 C927.0295,298.436 924.9685,314.713 930.3875,330 C933.6395,339.174 939.1265,347.939 945.1715,355.683 " fill="none" id="Customer-to-Data-1" style="stroke:#A80036;stroke-width:1.0;"/><polygon fill="#A80036" points="948.5765,359.876,946.0089,350.3677,945.4249,355.9943,939.7983,355.4103,948.5765,359.876" style="stroke:#A80036;stroke-width:1.0;"/><text fill="#000000" font-family="sans-serif" font-size="13" lengthAdjust="spacing" textLength="42" x="931.3875" y="326.0669">import</text><!--MD5=[9b5cac166cdab0bb423bef2a88f8f812]
link Customer to Data--><path codeLine="131" d="M978.3035,283.272 C978.6725,298.585 978.7965,314.872 978.3875,330 C978.1735,337.916 977.7885,346.46 977.3645,354.415 " fill="none" id="Customer-to-Data-2" style="stroke:#A80036;stroke-width:1.0;"/><polygon fill="#A80036" points="977.0655,359.814,981.5582,351.0495,977.3426,354.8217,973.5705,350.6061,977.0655,359.814" style="stroke:#A80036;stroke-width:1.0;"/><text fill="#000000" font-family="sans-serif" font-size="13" lengthAdjust="spacing" textLength="45" x="980.3875" y="326.0669">update</text><!--MD5=[b34c94832c42dba1cf640b054bac1364]
link Twitter to Demand--><path codeLine="120" d="M836.3455,543 C830.7055,552.008 825.2695,562.5151 822.3875,573 C818.6905,586.4518 819.1835,602.0191 820.7195,614.6555 " fill="none" id="Twitter-to-Demand" style="stroke:#A80036;stroke-width:1.0;"/><polygon fill="#A80036" points="821.4325,619.8769,824.1777,610.4184,820.7558,614.9229,816.2513,611.501,821.4325,619.8769" style="stroke:#A80036;stroke-width:1.0;"/><text fill="#000000" font-family="sans-serif" font-size="13" lengthAdjust="spacing" textLength="29" x="823.3875" y="586.0669">feed</text><!--MD5=[1a3d408ab721edaa1973bb5272ac095b]
reverse link SporTechBI to Contractor--><path codeLine="121" d="M1232.3855,76.231 C1232.3855,105.3 1232.3855,148.089 1232.3855,178.854 " fill="none" id="SporTechBI-backto-Contractor" style="stroke:#A80036;stroke-width:1.0;"/><polygon fill="#FFFFFF" points="1232.3855,63.175,1228.3855,69.175,1232.3855,75.175,1236.3855,69.175,1232.3855,63.175" style="stroke:#A80036;stroke-width:1.0;"/><!--MD5=[2b3f8bee6aea3628fe8df11393e25f04]
link Data to Manner--><path codeLine="122" d="M939.2365,399.346 C887.7425,416.719 790.8215,451.273 712.3875,490 C708.3435,491.997 704.1775,494.257 700.1145,496.586 " fill="none" id="Data-to-Manner" style="stroke:#A80036;stroke-width:1.0;"/><polygon fill="#A80036" points="695.7545,499.131,705.5437,498.0485,700.0727,496.6104,701.5107,491.1394,695.7545,499.131" style="stroke:#A80036;stroke-width:1.0;"/><text fill="#000000" font-family="sans-serif" font-size="13" lengthAdjust="spacing" textLength="58" x="820.3875" y="456.0669">integrate</text><!--MD5=[15b1ee8fdcda5f30b6a480a68ae3e2f5]
link SoccerCoach to Schedule--><path codeLine="124" d="M1573.3855,76.135 C1573.3855,109.943 1573.3855,162.384 1573.3855,192.837 " fill="none" id="SoccerCoach-to-Schedule" style="stroke:#A80036;stroke-width:1.0;"/><polygon fill="#A80036" points="1573.3855,197.894,1577.3855,188.894,1573.3855,192.894,1569.3855,188.894,1573.3855,197.894" style="stroke:#A80036;stroke-width:1.0;"/><text fill="#000000" font-family="sans-serif" font-size="13" lengthAdjust="spacing" textLength="60" x="1574.3855" y="119.0669">configure</text><!--MD5=[1121c6727b1b994d339c072402071830]
link Decision to Line--><path codeLine="125" d="M309.3875,413.095 C309.3875,435.789 309.3875,468.707 309.3875,491.048 " fill="none" id="Decision-to-Line" style="stroke:#A80036;stroke-width:1.0;"/><polygon fill="#A80036" points="309.3875,496.207,313.3875,487.207,309.3875,491.207,305.3875,487.207,309.3875,496.207" style="stroke:#A80036;stroke-width:1.0;"/><text fill="#000000" font-family="sans-serif" font-size="13" lengthAdjust="spacing" textLength="38" x="310.3875" y="456.0669">affect</text><!--MD5=[59bc476e3895e73ed4257187fa5e23dc]
link Coach to Decision--><path codeLine="126" d="M135.3395,263.27 C116.9891,284.569 98.6191,306.816 96.3877,313 C93.823,320.107 91.7675,324.022 96.3877,330 C118.1196,358.12 220.7135,374.676 275.1945,381.628 " fill="none" id="Coach-to-Decision" style="stroke:#A80036;stroke-width:1.0;"/><polygon fill="#A80036" points="280.3125,382.271,271.8808,377.1811,275.3514,381.6482,270.8843,385.1188,280.3125,382.271" style="stroke:#A80036;stroke-width:1.0;"/><text fill="#000000" font-family="sans-serif" font-size="13" lengthAdjust="spacing" textLength="36" x="97.3877" y="326.0669">make</text><!--MD5=[f6a71835551c756e0a6beac3992d4664]
link Customer to Change--><path codeLine="127" d="M1025.2255,237.336 C1062.2355,252.938 1112.0455,278.349 1146.3855,313 C1159.9455,326.681 1170.0355,346.05 1176.5555,361.326 " fill="none" id="Customer-to-Change" style="stroke:#A80036;stroke-width:1.0;"/><polygon fill="#A80036" points="1178.6255,366.336,1178.8874,356.4906,1176.717,361.7146,1171.4931,359.5442,1178.6255,366.336" style="stroke:#A80036;stroke-width:1.0;"/><text fill="#000000" font-family="sans-serif" font-size="13" lengthAdjust="spacing" textLength="23" x="1160.3855" y="326.0669">see</text><!--MD5=[02c35b805d50a00c1852e1d3168c6773]
link GM to Roster--><path codeLine="128" d="M476.5005,224.376 C414.6975,234.703 285.4695,261.043 188.3875,313 C164.0575,326.021 140.3825,346.758 124.0545,362.725 " fill="none" id="GM-to-Roster" style="stroke:#A80036;stroke-width:1.0;"/><polygon fill="#A80036" points="120.4785,366.261,129.6907,362.7775,124.034,362.7455,124.066,357.0888,120.4785,366.261" style="stroke:#A80036;stroke-width:1.0;"/><text fill="#000000" font-family="sans-serif" font-size="13" lengthAdjust="spacing" textLength="30" x="189.3875" y="326.0669">build</text><!--MD5=[f7f98844ef561578b9f410327a50aa81]
reverse link Manner to Demand--><path codeLine="130" d="M705.4865,545.013 C734.6015,567.8355 775.2515,599.6996 800.9425,619.838 " fill="none" id="Manner-backto-Demand" style="stroke:#A80036;stroke-width:1.0;"/><polygon fill="#FFFFFF" points="694.9475,536.752,697.202,543.6016,704.3918,544.155,702.1373,537.3054,694.9475,536.752" style="stroke:#A80036;stroke-width:1.0;"/><!--MD5=[af3d13d7220df768ae23b8612ede4cdc]
reverse link SporTechBIContractor to Contractor--><path codeLine="132" d="M1359.8755,78.286 C1333.1155,107.398 1294.7755,149.119 1267.1355,179.193 " fill="none" id="SporTechBIContractor-backto-Contractor" style="stroke:#A80036;stroke-width:1.0;"/><polygon fill="none" points="1355.0755,73.164,1373.7655,63.175,1365.3855,82.637,1355.0755,73.164" style="stroke:#A80036;stroke-width:1.0;"/><!--MD5=[63b6f58fdd481ce6f57e7b94b44dd6b8]
reverse link GM to Data--><path codeLine="133" d="M560.1065,240.609 C613.3985,264.288 702.5415,302.552 781.3875,330 C835.6455,348.888 900.0035,366.353 939.2535,376.467 " fill="none" id="GM-backto-Data" style="stroke:#A80036;stroke-width:1.0;"/><polygon fill="#FFFFFF" points="548.0045,235.208,551.8532,241.3061,558.9626,240.0989,555.1138,234.0008,548.0045,235.208" style="stroke:#A80036;stroke-width:1.0;"/><text fill="#000000" font-family="sans-serif" font-size="13" lengthAdjust="spacing" textLength="46" x="782.3875" y="326.0669">extract</text><!--MD5=[dab8cd1006f357c5080512cb7dbe8aee]
link GM to Decision--><path codeLine="134" d="M476.8265,256.081 C454.4165,278.583 424.3365,307.249 395.3875,330 C378.9135,342.947 359.3705,355.742 343.0805,365.778 " fill="none" id="GM-to-Decision" style="stroke:#A80036;stroke-width:1.0;"/><polygon fill="#A80036" points="338.5765,368.533,348.341,367.2463,342.8411,365.9228,344.1646,360.423,338.5765,368.533" style="stroke:#A80036;stroke-width:1.0;"/><text fill="#000000" font-family="sans-serif" font-size="13" lengthAdjust="spacing" textLength="36" x="417.3875" y="326.0669">make</text><!--MD5=[612640c586703e815e1f5e175a7a3be0]
reverse link Twitter to Reaction--><path codeLine="135" d="M890.7485,539.993 C892.6395,541.038 894.5265,542.047 896.3875,543 C927.6115,558.985 942.4915,550.483 969.3875,573 C984.5925,585.7287 996.1145,605.4056 1003.2095,619.9654 " fill="none" id="Twitter-backto-Reaction" style="stroke:#A80036;stroke-width:1.0;"/><polygon fill="#FFFFFF" points="879.2825,533.286,882.4424,539.7679,889.641,539.3442,886.4811,532.8623,879.2825,533.286" style="stroke:#A80036;stroke-width:1.0;"/><!--MD5=[971eaabad06fde0878ff515519804fb3]
link Field to Crawler--><!--MD5=[584ec115e0ca94bdd93c2d768b09468b]
link Field to Season--><!--MD5=[741ce437f2e37ae09e27faf7d1792bab]
@startuml
hide circle
class Coach<actor> {
}
class GM<actor> {
	data
}
class SporTechBIContractor<actor> {
}
class Manger<actor> {
}
class Customer<actor> {
	model
}
class SoccerCoach<actor> {
}
class Demand {
}
class Reaction {
}
class Player {
}
class Value {
}
class SporTechBI {
}
class Contractor {
	revise()
	update()
	add()
}
class System {
	launch()
}
class Twitter {
	feed()
}
class Coach {
	extract()
	make()
	visualize()
	build()
}
class Instagram {
	feed()
}
class Roster {
}
class Field {
	capture()
}
class Customer {
	update()
	drag()
	drop()
	see()
	import()
	add()
}
class Data {
	integrate()
}
class SoccerCoach {
	specify()
	configure()
}
class Schedule {
}
class Decision {
	affect()
}
class GM {
	extract()
	make()
	visualize()
	build()
}
class Crawler {
	run()
}
class Manger {
	monitor()
}
class Facebook {
	feed()
}
class Season {
	progress()
}
class Manner {
}
class Line {
}
class Change {
}
class SporTechBIContractor {
}
class Model {
}
class Condition {
}
SporTechBI o- - System
Coach - -> Value : visualize
Data - -> Model : to
Coach - -> Value : extract
GM - -> Value : visualize
Player o- - Value
Instagram - -> Demand : feed
Manger - -> Demand : monitor
Facebook o- - Reaction
Coach - -> Roster : build
Manger - -> Reaction : monitor
Data - -> System : supported_by
Instagram o- - Reaction
Contractor - -> Data : revise
Player o- - Data
Facebook - -> Demand : feed
Manger - -> Condition : supported_by
Customer - -> Data : add
Customer - -> Data : import
Twitter - -> Demand : feed
SporTechBI o- - Contractor
Data - -> Manner : integrate
GM - -> Value : extract
SoccerCoach - -> Schedule : configure
Decision - -> Line : affect
Coach - -> Decision : make
Customer - -> Change : see
GM - -> Roster : build
Contractor - -> Data : update
Manner o- - Demand
Customer - -> Data : update
SporTechBIContractor <|- - Contractor
GM o- - Data : extract
GM - -> Decision : make
Twitter o- - Reaction
@enduml

PlantUML version 1.2021.10beta5(Unknown compile time)
(GPL source distribution)
Java Runtime: Java(TM) SE Runtime Environment
JVM: Java HotSpot(TM) 64-Bit Server VM
Default Encoding: UTF-8
Language: en
Country: US
--></g></svg>