<?xml version="1.0" encoding="UTF-8" standalone="no"?><svg xmlns="http://www.w3.org/2000/svg" xmlns:xlink="http://www.w3.org/1999/xlink" contentScriptType="application/ecmascript" contentStyleType="text/css" height="564px" preserveAspectRatio="none" style="width:572px;height:564px;background:#FFFFFF;" version="1.1" viewBox="0 0 572 564" width="572px" zoomAndPan="magnify"><defs><filter height="300%" id="fdcln059dmo3m" width="300%" x="-1" y="-1"><feGaussianBlur result="blurOut" stdDeviation="2.0"/><feColorMatrix in="blurOut" result="blurOut2" type="matrix" values="0 0 0 0 0 0 0 0 0 0 0 0 0 0 0 0 0 0 .4 0"/><feOffset dx="4.0" dy="4.0" in="blurOut2" result="blurOut3"/><feBlend in="SourceGraphic" in2="blurOut3" mode="normal"/></filter></defs><g><!--MD5=[7e60c9637a3e1c3cd06babfa3271b00a]
class SaleAgent--><rect codeLine="40" fill="#FEFECE" filter="url(#fdcln059dmo3m)" height="39.9688" id="SaleAgent" style="stroke:#A80036;stroke-width:1.5;" width="102" x="7" y="168.5"/><text fill="#000000" font-family="sans-serif" font-size="12" lengthAdjust="spacing" textLength="61" x="10" y="184.6387">SaleAgent</text><rect fill="#FFFFFF" height="15.9688" style="stroke:#000000;stroke-width:1.0;stroke-dasharray:2.0,2.0;" width="33" x="79" y="165.5"/><text fill="#000000" font-family="sans-serif" font-size="12" font-style="italic" lengthAdjust="spacing" textLength="31" x="80" y="177.6387">actor</text><line style="stroke:#A80036;stroke-width:1.5;" x1="8" x2="108" y1="192.4688" y2="192.4688"/><line style="stroke:#A80036;stroke-width:1.5;" x1="8" x2="108" y1="200.4688" y2="200.4688"/><!--MD5=[e8cbdd84d283a3a5c9a98727ec403a0a]
class SaleManager--><rect codeLine="42" fill="#FEFECE" filter="url(#fdcln059dmo3m)" height="39.9688" id="SaleManager" style="stroke:#A80036;stroke-width:1.5;" width="119" x="254.5" y="10"/><text fill="#000000" font-family="sans-serif" font-size="12" lengthAdjust="spacing" textLength="78" x="257.5" y="26.1387">SaleManager</text><rect fill="#FFFFFF" height="15.9688" style="stroke:#000000;stroke-width:1.0;stroke-dasharray:2.0,2.0;" width="33" x="343.5" y="7"/><text fill="#000000" font-family="sans-serif" font-size="12" font-style="italic" lengthAdjust="spacing" textLength="31" x="344.5" y="19.1387">actor</text><line style="stroke:#A80036;stroke-width:1.5;" x1="255.5" x2="372.5" y1="33.9688" y2="33.9688"/><line style="stroke:#A80036;stroke-width:1.5;" x1="255.5" x2="372.5" y1="41.9688" y2="41.9688"/><!--MD5=[e0bd77868626c22cfc0c5aeed1b8d67f]
class Sale--><rect codeLine="6" fill="#FEFECE" filter="url(#fdcln059dmo3m)" height="39.9688" id="Sale" style="stroke:#A80036;stroke-width:1.5;" width="32" x="167" y="10"/><text fill="#000000" font-family="sans-serif" font-size="12" lengthAdjust="spacing" textLength="26" x="170" y="26.1387">Sale</text><line style="stroke:#A80036;stroke-width:1.5;" x1="168" x2="198" y1="33.9688" y2="33.9688"/><line style="stroke:#A80036;stroke-width:1.5;" x1="168" x2="198" y1="41.9688" y2="41.9688"/><!--MD5=[b24ed8d4ae84bae9290d9aab401637c7]
class Manager--><rect codeLine="8" fill="#FEFECE" filter="url(#fdcln059dmo3m)" height="155.2109" id="Manager" style="stroke:#A80036;stroke-width:1.5;" width="67" x="280.5" y="111"/><text fill="#000000" font-family="sans-serif" font-size="12" lengthAdjust="spacing" textLength="52" x="288" y="127.1387">Manager</text><line style="stroke:#A80036;stroke-width:1.5;" x1="281.5" x2="346.5" y1="134.9688" y2="134.9688"/><line style="stroke:#A80036;stroke-width:1.5;" x1="281.5" x2="346.5" y1="142.9688" y2="142.9688"/><text fill="#000000" font-family="sans-serif" font-size="11" lengthAdjust="spacing" textLength="33" x="286.5" y="157.1792">train()</text><text fill="#000000" font-family="sans-serif" font-size="11" lengthAdjust="spacing" textLength="29" x="286.5" y="169.9839">use()</text><text fill="#000000" font-family="sans-serif" font-size="11" lengthAdjust="spacing" textLength="46" x="286.5" y="182.7886">assure()</text><text fill="#000000" font-family="sans-serif" font-size="11" lengthAdjust="spacing" textLength="38" x="286.5" y="195.5933">close()</text><text fill="#000000" font-family="sans-serif" font-size="11" lengthAdjust="spacing" textLength="42" x="286.5" y="208.3979">speak()</text><text fill="#000000" font-family="sans-serif" font-size="11" lengthAdjust="spacing" textLength="55" x="286.5" y="221.2026">listen_in()</text><text fill="#000000" font-family="sans-serif" font-size="11" lengthAdjust="spacing" textLength="40" x="286.5" y="234.0073">guide()</text><text fill="#000000" font-family="sans-serif" font-size="11" lengthAdjust="spacing" textLength="39" x="286.5" y="246.812">listen()</text><text fill="#000000" font-family="sans-serif" font-size="11" lengthAdjust="spacing" textLength="36" x="286.5" y="259.6167">jump()</text><!--MD5=[fe139ee4e479f23285df0f8136f9d541]
class Deal--><rect codeLine="19" fill="#FEFECE" filter="url(#fdcln059dmo3m)" height="39.9688" id="Deal" style="stroke:#A80036;stroke-width:1.5;" width="33" x="525.5" y="368.5"/><text fill="#000000" font-family="sans-serif" font-size="12" lengthAdjust="spacing" textLength="27" x="528.5" y="384.6387">Deal</text><line style="stroke:#A80036;stroke-width:1.5;" x1="526.5" x2="557.5" y1="392.4688" y2="392.4688"/><line style="stroke:#A80036;stroke-width:1.5;" x1="526.5" x2="557.5" y1="400.4688" y2="400.4688"/><!--MD5=[93369dbd818f54d42a841537181a0712]
class Call--><rect codeLine="21" fill="#FEFECE" filter="url(#fdcln059dmo3m)" height="39.9688" id="Call" style="stroke:#A80036;stroke-width:1.5;" width="27" x="277.5" y="368.5"/><text fill="#000000" font-family="sans-serif" font-size="12" lengthAdjust="spacing" textLength="21" x="280.5" y="384.6387">Call</text><line style="stroke:#A80036;stroke-width:1.5;" x1="278.5" x2="303.5" y1="392.4688" y2="392.4688"/><line style="stroke:#A80036;stroke-width:1.5;" x1="278.5" x2="303.5" y1="400.4688" y2="400.4688"/><!--MD5=[9d44916250b776386006c440668bcfbb]
class Agent--><rect codeLine="23" fill="#FEFECE" filter="url(#fdcln059dmo3m)" height="91.1875" id="Agent" style="stroke:#A80036;stroke-width:1.5;" width="64" x="40" y="343"/><text fill="#000000" font-family="sans-serif" font-size="12" lengthAdjust="spacing" textLength="35" x="54.5" y="359.1387">Agent</text><line style="stroke:#A80036;stroke-width:1.5;" x1="41" x2="103" y1="366.9688" y2="366.9688"/><line style="stroke:#A80036;stroke-width:1.5;" x1="41" x2="103" y1="374.9688" y2="374.9688"/><text fill="#000000" font-family="sans-serif" font-size="11" lengthAdjust="spacing" textLength="38" x="46" y="389.1792">close()</text><text fill="#000000" font-family="sans-serif" font-size="11" lengthAdjust="spacing" textLength="52" x="46" y="401.9839">request()</text><text fill="#000000" font-family="sans-serif" font-size="11" lengthAdjust="spacing" textLength="28" x="46" y="414.7886">dial()</text><text fill="#000000" font-family="sans-serif" font-size="11" lengthAdjust="spacing" textLength="32" x="46" y="427.5933">click()</text><!--MD5=[3231c3d3ce17334343e5bf63c69a3780]
class ConferenceCall--><rect codeLine="29" fill="#FEFECE" filter="url(#fdcln059dmo3m)" height="39.9688" id="ConferenceCall" style="stroke:#A80036;stroke-width:1.5;" width="97" x="18.5" y="511"/><text fill="#000000" font-family="sans-serif" font-size="12" lengthAdjust="spacing" textLength="91" x="21.5" y="527.1387">ConferenceCall</text><line style="stroke:#A80036;stroke-width:1.5;" x1="19.5" x2="114.5" y1="534.9688" y2="534.9688"/><line style="stroke:#A80036;stroke-width:1.5;" x1="19.5" x2="114.5" y1="542.9688" y2="542.9688"/><!--MD5=[1dff292a6849a6db4d2021d5ff588741]
class Auto--><rect codeLine="31" fill="#FEFECE" filter="url(#fdcln059dmo3m)" height="52.7734" id="Auto" style="stroke:#A80036;stroke-width:1.5;" width="40" x="202" y="362"/><text fill="#000000" font-family="sans-serif" font-size="12" lengthAdjust="spacing" textLength="27" x="208.5" y="378.1387">Auto</text><line style="stroke:#A80036;stroke-width:1.5;" x1="203" x2="241" y1="385.9688" y2="385.9688"/><line style="stroke:#A80036;stroke-width:1.5;" x1="203" x2="241" y1="393.9688" y2="393.9688"/><text fill="#000000" font-family="sans-serif" font-size="11" lengthAdjust="spacing" textLength="28" x="208" y="408.1792">dial()</text><!--MD5=[2ce0c9fb7f55b1e256ab28a8ea6b25ec]
class Customer--><rect codeLine="34" fill="#FEFECE" filter="url(#fdcln059dmo3m)" height="39.9688" id="Customer" style="stroke:#A80036;stroke-width:1.5;" width="64" x="170" y="511"/><text fill="#000000" font-family="sans-serif" font-size="12" lengthAdjust="spacing" textLength="58" x="173" y="527.1387">Customer</text><line style="stroke:#A80036;stroke-width:1.5;" x1="171" x2="233" y1="534.9688" y2="534.9688"/><line style="stroke:#A80036;stroke-width:1.5;" x1="171" x2="233" y1="542.9688" y2="542.9688"/><!--MD5=[fab76ac332c6d72510aaae6c360fa182]
class Quality--><rect codeLine="36" fill="#FEFECE" filter="url(#fdcln059dmo3m)" height="39.9688" id="Quality" style="stroke:#A80036;stroke-width:1.5;" width="47" x="341.5" y="368.5"/><text fill="#000000" font-family="sans-serif" font-size="12" lengthAdjust="spacing" textLength="41" x="344.5" y="384.6387">Quality</text><line style="stroke:#A80036;stroke-width:1.5;" x1="342.5" x2="387.5" y1="392.4688" y2="392.4688"/><line style="stroke:#A80036;stroke-width:1.5;" x1="342.5" x2="387.5" y1="400.4688" y2="400.4688"/><!--MD5=[abb2a7cdedb14efb5af1120e5b6f0439]
class Recording--><rect codeLine="38" fill="#FEFECE" filter="url(#fdcln059dmo3m)" height="39.9688" id="Recording" style="stroke:#A80036;stroke-width:1.5;" width="67" x="423.5" y="368.5"/><text fill="#000000" font-family="sans-serif" font-size="12" lengthAdjust="spacing" textLength="61" x="426.5" y="384.6387">Recording</text><line style="stroke:#A80036;stroke-width:1.5;" x1="424.5" x2="489.5" y1="392.4688" y2="392.4688"/><line style="stroke:#A80036;stroke-width:1.5;" x1="424.5" x2="489.5" y1="400.4688" y2="400.4688"/><!--MD5=[b89197ae2e1d131b50f41b83ac579fc3]
link Agent to Agent--><path codeLine="44" d="M104.0552,373.558 C122.2,370.641 139,375.621 139,388.5 C139,400.172 125.203,405.356 109.11,404.054 " fill="none" id="Agent-to-Agent" style="stroke:#A80036;stroke-width:1.0;"/><polygon fill="#A80036" points="104.0552,403.442,112.5086,408.4957,109.0189,404.0435,113.4711,400.5538,104.0552,403.442" style="stroke:#A80036;stroke-width:1.0;"/><text fill="#000000" font-family="sans-serif" font-size="13" lengthAdjust="spacing" textLength="33" x="145" y="393.0669">close</text><!--MD5=[0c47255790977d742d8b475b328c86b4]
link Manager to Call--><path codeLine="45" d="M292.974,266.174 C290.923,276.142 289.171,286.268 288,296 C287.098,303.501 287.848,305.446 288,313 C288.336,329.713 289.097,348.523 289.768,363.06 " fill="none" id="Manager-to-Call" style="stroke:#A80036;stroke-width:1.0;"/><polygon fill="#A80036" points="290.01,368.211,293.5839,359.0334,289.7757,363.2165,285.5927,359.4083,290.01,368.211" style="stroke:#A80036;stroke-width:1.0;"/><text fill="#000000" font-family="sans-serif" font-size="13" lengthAdjust="spacing" textLength="34" x="289" y="309.0669">listen</text><!--MD5=[f5c7c38f95be3d1e6efe8a1b98c8ad90]
link Manager to Agent--><path codeLine="46" d="M280.262,223.472 C254.104,249.146 216.453,284.682 181,313 C157.829,331.507 130.24,350.336 108.615,364.434 " fill="none" id="Manager-to-Agent" style="stroke:#A80036;stroke-width:1.0;"/><polygon fill="#A80036" points="104.3729,367.189,114.0995,365.642,108.5663,364.4658,109.7424,358.9326,104.3729,367.189" style="stroke:#A80036;stroke-width:1.0;"/><text fill="#000000" font-family="sans-serif" font-size="13" lengthAdjust="spacing" textLength="29" x="202" y="309.0669">train</text><!--MD5=[6117a6ce282541ed7e59ab84b8c6511b]
link Auto to Customer--><path codeLine="47" d="M218.332,415.27 C214.668,441.008 209.078,480.2786 205.481,505.5439 " fill="none" id="Auto-to-Customer" style="stroke:#A80036;stroke-width:1.0;"/><polygon fill="#A80036" points="204.746,510.7128,209.9746,502.3664,205.4507,505.7627,202.0544,501.2389,204.746,510.7128" style="stroke:#A80036;stroke-width:1.0;"/><text fill="#000000" font-family="sans-serif" font-size="13" lengthAdjust="spacing" textLength="22" x="212" y="477.0669">dial</text><!--MD5=[1a0ced8494ddda1f4e69c445006f5ee7]
reverse link SaleManager to Manager--><path codeLine="48" d="M314,70.238 C314,82.651 314,96.825 314,110.926 " fill="none" id="SaleManager-backto-Manager" style="stroke:#A80036;stroke-width:1.0;"/><polygon fill="none" points="307,70.19,314,50.19,321,70.19,307,70.19" style="stroke:#A80036;stroke-width:1.0;"/><!--MD5=[7c2592bbea1ed88d1dbccd0e341677a6]
reverse link Sale to Manager--><path codeLine="49" d="M207.551,60.33 C228.115,84.896 257.671,120.206 280.424,147.388 " fill="none" id="Sale-backto-Manager" style="stroke:#A80036;stroke-width:1.0;"/><polygon fill="#FFFFFF" points="199.063,50.19,199.847,57.3584,206.7654,59.3918,205.9815,52.2234,199.063,50.19" style="stroke:#A80036;stroke-width:1.0;"/><!--MD5=[80a83e1ccae3866ad03f65525cf00c2f]
link Manager to Recording--><path codeLine="50" d="M347.55,229.412 C363.635,249.073 382.866,273.365 399,296 C414.901,318.308 431.484,344.852 442.825,363.59 " fill="none" id="Manager-to-Recording" style="stroke:#A80036;stroke-width:1.0;"/><polygon fill="#A80036" points="445.592,368.178,444.3695,358.4053,443.0099,363.8963,437.5188,362.5367,445.592,368.178" style="stroke:#A80036;stroke-width:1.0;"/><text fill="#000000" font-family="sans-serif" font-size="13" lengthAdjust="spacing" textLength="23" x="411" y="309.0669">use</text><!--MD5=[3831f6c21c1de5fb85b2bd6a4c78f73a]
link Manager to Quality--><path codeLine="51" d="M333.718,266.052 C342.615,300.595 352.504,338.986 358.735,363.178 " fill="none" id="Manager-to-Quality" style="stroke:#A80036;stroke-width:1.0;"/><polygon fill="#A80036" points="360.008,368.118,361.6365,358.4047,358.7607,363.2761,353.8894,360.4003,360.008,368.118" style="stroke:#A80036;stroke-width:1.0;"/><text fill="#000000" font-family="sans-serif" font-size="13" lengthAdjust="spacing" textLength="43" x="347" y="309.0669">assure</text><!--MD5=[cff53a3ae41222b5cfc4e2456f26f095]
link Agent to ConferenceCall--><path codeLine="52" d="M66.3992,434.349 C65.4002,444.107 64.5146,454.3876 64,464 C63.5961,471.5448 63.769,473.448 64,481 C64.2456,489.0291 64.7169,497.7878 65.2146,505.6506 " fill="none" id="Agent-to-ConferenceCall" style="stroke:#A80036;stroke-width:1.0;"/><polygon fill="#A80036" points="65.5608,510.931,68.9631,501.6885,65.2335,505.9417,60.9803,502.2121,65.5608,510.931" style="stroke:#A80036;stroke-width:1.0;"/><text fill="#000000" font-family="sans-serif" font-size="13" lengthAdjust="spacing" textLength="49" x="65" y="477.0669">request</text><!--MD5=[2ddd5f20e00c9e4faee30e27259e1ab3]
reverse link SaleAgent to Agent--><path codeLine="53" d="M60.7976,229.066 C63.1226,261.948 66.4296,308.719 68.8478,342.919 " fill="none" id="SaleAgent-backto-Agent" style="stroke:#A80036;stroke-width:1.0;"/><polygon fill="none" points="53.796,229.29,59.3679,208.846,67.7611,228.302,53.796,229.29" style="stroke:#A80036;stroke-width:1.0;"/><!--MD5=[2a077e1ad65352c1440bc32eee5509e4]
link Manager to Deal--><path codeLine="54" d="M347.641,212.204 C388.058,240.33 456.812,290.937 508,343 C514.322,349.43 520.526,357.042 525.868,364.136 " fill="none" id="Manager-to-Deal" style="stroke:#A80036;stroke-width:1.0;"/><polygon fill="#A80036" points="529.076,368.47,526.9369,358.8562,526.1014,364.4511,520.5066,363.6155,529.076,368.47" style="stroke:#A80036;stroke-width:1.0;"/><text fill="#000000" font-family="sans-serif" font-size="13" lengthAdjust="spacing" textLength="33" x="475" y="309.0669">close</text><!--MD5=[ccdd8dbfef9d5013378772c2f6a01598]
link Agent to Customer--><path codeLine="55" d="M104.1348,424.23 C128.017,450.041 159.931,484.5332 180.721,507.0022 " fill="none" id="Agent-to-Customer" style="stroke:#A80036;stroke-width:1.0;"/><polygon fill="#A80036" points="184.214,510.777,181.0377,501.4544,180.8183,507.107,175.1657,506.8876,184.214,510.777" style="stroke:#A80036;stroke-width:1.0;"/><text fill="#000000" font-family="sans-serif" font-size="13" lengthAdjust="spacing" textLength="22" x="158" y="477.0669">dial</text><!--MD5=[7c2db3c5ced38026653e84f51577a605]
reverse link Sale to Agent--><path codeLine="56" d="M177.135,63.043 C168.339,108.766 150.152,195.048 126,266 C117.111,292.113 104.7544,320.322 94.1042,342.98 " fill="none" id="Sale-backto-Agent" style="stroke:#A80036;stroke-width:1.0;"/><polygon fill="#FFFFFF" points="179.559,50.217,174.5143,55.3698,177.3305,62.0083,182.3752,56.8555,179.559,50.217" style="stroke:#A80036;stroke-width:1.0;"/><!--MD5=[dc3c8ccc15d0d1928dba5b22031cb555]
@startuml
hide circle
class SaleAgent<actor> {
}
class SaleManager<actor> {
}
class Sale {
}
class Manager {
	train()
	use()
	assure()
	close()
	speak()
	listen_in()
	guide()
	listen()
	jump()
}
class Deal {
}
class Call {
}
class Agent {
	close()
	request()
	dial()
	click()
}
class ConferenceCall {
}
class Auto {
	dial()
}
class Customer {
}
class Quality {
}
class Recording {
}
class SaleAgent {
}
class SaleManager {
}
Agent - -> Agent : close
Manager - -> Call : listen
Manager - -> Agent : train
Auto - -> Customer : dial
SaleManager <|- - Manager
Sale o- - Manager
Manager - -> Recording : use
Manager - -> Quality : assure
Agent - -> ConferenceCall : request
SaleAgent <|- - Agent
Manager - -> Deal : close
Agent - -> Customer : dial
Sale o- - Agent
@enduml

PlantUML version 1.2021.10beta2(Unknown compile time)
(GPL source distribution)
Java Runtime: Java(TM) SE Runtime Environment
JVM: Java HotSpot(TM) 64-Bit Server VM
Default Encoding: UTF-8
Language: en
Country: US
--></g></svg>