<?xml version="1.0" encoding="UTF-8" standalone="no"?><svg xmlns="http://www.w3.org/2000/svg" xmlns:xlink="http://www.w3.org/1999/xlink" contentScriptType="application/ecmascript" contentStyleType="text/css" height="400px" preserveAspectRatio="none" style="width:2071px;height:400px;background:#FFFFFF;" version="1.1" viewBox="0 0 2071 400" width="2071px" zoomAndPan="magnify"><defs><filter height="300%" id="f6gm5kxgbrw8n" width="300%" x="-1" y="-1"><feGaussianBlur result="blurOut" stdDeviation="2.0"/><feColorMatrix in="blurOut" result="blurOut2" type="matrix" values="0 0 0 0 0 0 0 0 0 0 0 0 0 0 0 0 0 0 .4 0"/><feOffset dx="4.0" dy="4.0" in="blurOut2" result="blurOut3"/><feBlend in="SourceGraphic" in2="blurOut3" mode="normal"/></filter></defs><g><!--MD5=[85d18e62f837734b14fa103cb6515b71]
class VOLUNTEERCOACH--><rect codeLine="2" fill="#FEFECE" filter="url(#f6gm5kxgbrw8n)" height="39.9688" id="VOLUNTEERCOACH" style="stroke:#A80036;stroke-width:1.5;" width="153" x="7" y="55"/><text fill="#000000" font-family="sans-serif" font-size="12" lengthAdjust="spacing" textLength="112" x="10" y="71.1387">VOLUNTEERCOACH</text><rect fill="#FFFFFF" height="15.9688" style="stroke:#000000;stroke-width:1.0;stroke-dasharray:2.0,2.0;" width="33" x="130" y="52"/><text fill="#000000" font-family="sans-serif" font-size="12" font-style="italic" lengthAdjust="spacing" textLength="31" x="131" y="64.1387">actor</text><line style="stroke:#A80036;stroke-width:1.5;" x1="8" x2="159" y1="78.9688" y2="78.9688"/><line style="stroke:#A80036;stroke-width:1.5;" x1="8" x2="159" y1="86.9688" y2="86.9688"/><!--MD5=[8fd7917cad3218595641fd5866ef0ed3]
class GOTRLA--><rect codeLine="26" fill="#FEFECE" filter="url(#f6gm5kxgbrw8n)" height="129.6016" id="GOTRLA" style="stroke:#A80036;stroke-width:1.5;" width="88" x="567.5" y="10"/><text fill="#000000" font-family="sans-serif" font-size="12" lengthAdjust="spacing" textLength="47" x="570.5" y="26.1387">GOTRLA</text><rect fill="#FFFFFF" height="15.9688" style="stroke:#000000;stroke-width:1.0;stroke-dasharray:2.0,2.0;" width="33" x="625.5" y="7"/><text fill="#000000" font-family="sans-serif" font-size="12" font-style="italic" lengthAdjust="spacing" textLength="31" x="626.5" y="19.1387">actor</text><line style="stroke:#A80036;stroke-width:1.5;" x1="568.5" x2="654.5" y1="33.9688" y2="33.9688"/><line style="stroke:#A80036;stroke-width:1.5;" x1="568.5" x2="654.5" y1="41.9688" y2="41.9688"/><text fill="#000000" font-family="sans-serif" font-size="11" lengthAdjust="spacing" textLength="50" x="573.5" y="56.1792">support()</text><text fill="#000000" font-family="sans-serif" font-size="11" lengthAdjust="spacing" textLength="37" x="573.5" y="68.9839">have()</text><text fill="#000000" font-family="sans-serif" font-size="11" lengthAdjust="spacing" textLength="73" x="573.5" y="81.7886">REGULARLY()</text><text fill="#000000" font-family="sans-serif" font-size="11" lengthAdjust="spacing" textLength="49" x="573.5" y="94.5933">Update()</text><text fill="#000000" font-family="sans-serif" font-size="11" lengthAdjust="spacing" textLength="60" x="573.5" y="107.3979">schedule()</text><text fill="#000000" font-family="sans-serif" font-size="11" lengthAdjust="spacing" textLength="51" x="573.5" y="120.2026">monitor()</text><text fill="#000000" font-family="sans-serif" font-size="11" lengthAdjust="spacing" textLength="30" x="573.5" y="133.0073">Add()</text><!--MD5=[ce225750be1aa34c384e75bd032b49fc]
class VolunteerCoach--><rect codeLine="44" fill="#FEFECE" filter="url(#f6gm5kxgbrw8n)" height="52.7734" id="VolunteerCoach" style="stroke:#A80036;stroke-width:1.5;" width="136" x="315.5" y="217"/><text fill="#000000" font-family="sans-serif" font-size="12" lengthAdjust="spacing" textLength="95" x="318.5" y="233.1387">VolunteerCoach</text><rect fill="#FFFFFF" height="15.9688" style="stroke:#000000;stroke-width:1.0;stroke-dasharray:2.0,2.0;" width="33" x="421.5" y="214"/><text fill="#000000" font-family="sans-serif" font-size="12" font-style="italic" lengthAdjust="spacing" textLength="31" x="422.5" y="226.1387">actor</text><line style="stroke:#A80036;stroke-width:1.5;" x1="316.5" x2="450.5" y1="240.9688" y2="240.9688"/><line style="stroke:#A80036;stroke-width:1.5;" x1="316.5" x2="450.5" y1="248.9688" y2="248.9688"/><text fill="#000000" font-family="sans-serif" font-size="11" lengthAdjust="spacing" textLength="37" x="321.5" y="263.1792">have()</text><!--MD5=[6081a303407aa0c0464c8b50c38f5612]
class Staff--><rect codeLine="67" fill="#FEFECE" filter="url(#f6gm5kxgbrw8n)" height="52.7734" id="Staff" style="stroke:#A80036;stroke-width:1.5;" width="68" x="1375.5" y="217"/><text fill="#000000" font-family="sans-serif" font-size="12" lengthAdjust="spacing" textLength="27" x="1378.5" y="233.1387">Staff</text><rect fill="#FFFFFF" height="15.9688" style="stroke:#000000;stroke-width:1.0;stroke-dasharray:2.0,2.0;" width="33" x="1413.5" y="214"/><text fill="#000000" font-family="sans-serif" font-size="12" font-style="italic" lengthAdjust="spacing" textLength="31" x="1414.5" y="226.1387">actor</text><line style="stroke:#A80036;stroke-width:1.5;" x1="1376.5" x2="1442.5" y1="240.9688" y2="240.9688"/><line style="stroke:#A80036;stroke-width:1.5;" x1="1376.5" x2="1442.5" y1="248.9688" y2="248.9688"/><text fill="#000000" font-family="sans-serif" font-size="11" lengthAdjust="spacing" textLength="37" x="1381.5" y="263.1792">have()</text><!--MD5=[b68f07952a0813cd0f0f99581ea5df9b]
class Edit--><rect codeLine="10" fill="#FEFECE" filter="url(#f6gm5kxgbrw8n)" height="39.9688" id="Edit" style="stroke:#A80036;stroke-width:1.5;" width="63" x="195" y="55"/><text fill="#000000" font-family="sans-serif" font-size="12" lengthAdjust="spacing" textLength="22" x="198" y="71.1387">Edit</text><rect fill="#FFFFFF" height="15.9688" style="stroke:#000000;stroke-width:1.0;stroke-dasharray:2.0,2.0;" width="33" x="228" y="52"/><text fill="#000000" font-family="sans-serif" font-size="12" font-style="italic" lengthAdjust="spacing" textLength="31" x="229" y="64.1387">actor</text><line style="stroke:#A80036;stroke-width:1.5;" x1="196" x2="257" y1="78.9688" y2="78.9688"/><line style="stroke:#A80036;stroke-width:1.5;" x1="196" x2="257" y1="86.9688" y2="86.9688"/><!--MD5=[d20e61c3df8b8f47d0b4e5ec2b6a1cdb]
class Volunteer--><rect codeLine="75" fill="#FEFECE" filter="url(#f6gm5kxgbrw8n)" height="65.5781" id="Volunteer" style="stroke:#A80036;stroke-width:1.5;" width="99" x="1201" y="42"/><text fill="#000000" font-family="sans-serif" font-size="12" lengthAdjust="spacing" textLength="58" x="1204" y="58.1387">Volunteer</text><rect fill="#FFFFFF" height="15.9688" style="stroke:#000000;stroke-width:1.0;stroke-dasharray:2.0,2.0;" width="33" x="1270" y="39"/><text fill="#000000" font-family="sans-serif" font-size="12" font-style="italic" lengthAdjust="spacing" textLength="31" x="1271" y="51.1387">actor</text><line style="stroke:#A80036;stroke-width:1.5;" x1="1202" x2="1299" y1="65.9688" y2="65.9688"/><line style="stroke:#A80036;stroke-width:1.5;" x1="1202" x2="1299" y1="73.9688" y2="73.9688"/><text fill="#000000" font-family="sans-serif" font-size="11" lengthAdjust="spacing" textLength="52" x="1207" y="88.1792">conduct()</text><text fill="#000000" font-family="sans-serif" font-size="11" lengthAdjust="spacing" textLength="47" x="1207" y="100.9839">access()</text><!--MD5=[db6d18d8099558415abc41d00477ab92]
class Admin--><rect codeLine="70" fill="#FEFECE" filter="url(#f6gm5kxgbrw8n)" height="52.7734" id="Admin" style="stroke:#A80036;stroke-width:1.5;" width="78" x="1370.5" y="48.5"/><text fill="#000000" font-family="sans-serif" font-size="12" lengthAdjust="spacing" textLength="37" x="1373.5" y="64.6387">Admin</text><rect fill="#FFFFFF" height="15.9688" style="stroke:#000000;stroke-width:1.0;stroke-dasharray:2.0,2.0;" width="33" x="1418.5" y="45.5"/><text fill="#000000" font-family="sans-serif" font-size="12" font-style="italic" lengthAdjust="spacing" textLength="31" x="1419.5" y="57.6387">actor</text><line style="stroke:#A80036;stroke-width:1.5;" x1="1371.5" x2="1447.5" y1="72.4688" y2="72.4688"/><line style="stroke:#A80036;stroke-width:1.5;" x1="1371.5" x2="1447.5" y1="80.4688" y2="80.4688"/><text fill="#000000" font-family="sans-serif" font-size="11" lengthAdjust="spacing" textLength="29" x="1376.5" y="94.6792">add()</text><!--MD5=[3b94e41ff6a7382b1a20f9610f71b84a]
class EditProgramStaff--><rect codeLine="16" fill="#FEFECE" filter="url(#f6gm5kxgbrw8n)" height="39.9688" id="EditProgramStaff" style="stroke:#A80036;stroke-width:1.5;" width="140" x="13.5" y="223.5"/><text fill="#000000" font-family="sans-serif" font-size="12" lengthAdjust="spacing" textLength="99" x="16.5" y="239.6387">EditProgramStaff</text><rect fill="#FFFFFF" height="15.9688" style="stroke:#000000;stroke-width:1.0;stroke-dasharray:2.0,2.0;" width="33" x="123.5" y="220.5"/><text fill="#000000" font-family="sans-serif" font-size="12" font-style="italic" lengthAdjust="spacing" textLength="31" x="124.5" y="232.6387">actor</text><line style="stroke:#A80036;stroke-width:1.5;" x1="14.5" x2="152.5" y1="247.4688" y2="247.4688"/><line style="stroke:#A80036;stroke-width:1.5;" x1="14.5" x2="152.5" y1="255.4688" y2="255.4688"/><!--MD5=[3fd616f346a44cd59a91eb10b19e157c]
class User--><rect codeLine="49" fill="#FEFECE" filter="url(#f6gm5kxgbrw8n)" height="65.5781" id="User" style="stroke:#A80036;stroke-width:1.5;" width="70" x="1555.5" y="42"/><text fill="#000000" font-family="sans-serif" font-size="12" lengthAdjust="spacing" textLength="29" x="1558.5" y="58.1387">User</text><rect fill="#FFFFFF" height="15.9688" style="stroke:#000000;stroke-width:1.0;stroke-dasharray:2.0,2.0;" width="33" x="1595.5" y="39"/><text fill="#000000" font-family="sans-serif" font-size="12" font-style="italic" lengthAdjust="spacing" textLength="31" x="1596.5" y="51.1387">actor</text><line style="stroke:#A80036;stroke-width:1.5;" x1="1556.5" x2="1624.5" y1="65.9688" y2="65.9688"/><line style="stroke:#A80036;stroke-width:1.5;" x1="1556.5" x2="1624.5" y1="73.9688" y2="73.9688"/><text fill="#000000" font-family="sans-serif" font-size="11" lengthAdjust="spacing" textLength="38" x="1561.5" y="88.1792">reset()</text><text fill="#000000" font-family="sans-serif" font-size="11" lengthAdjust="spacing" textLength="48" x="1561.5" y="100.9839">update()</text><!--MD5=[131513fb47822ece733e5bc6ed6204b4]
class staff--><rect codeLine="20" fill="#FEFECE" filter="url(#f6gm5kxgbrw8n)" height="65.5781" id="staff" style="stroke:#A80036;stroke-width:1.5;" width="66" x="1672.5" y="42"/><text fill="#000000" font-family="sans-serif" font-size="12" lengthAdjust="spacing" textLength="26" x="1692.5" y="58.1387">staff</text><line style="stroke:#A80036;stroke-width:1.5;" x1="1673.5" x2="1737.5" y1="65.9688" y2="65.9688"/><line style="stroke:#A80036;stroke-width:1.5;" x1="1673.5" x2="1737.5" y1="73.9688" y2="73.9688"/><text fill="#000000" font-family="sans-serif" font-size="11" lengthAdjust="spacing" textLength="54" x="1678.5" y="88.1792">analyze()</text><text fill="#000000" font-family="sans-serif" font-size="11" lengthAdjust="spacing" textLength="45" x="1678.5" y="100.9839">export()</text><!--MD5=[5d164e213286f7d45cd576f6764a2381]
class AttendanceData--><rect codeLine="24" fill="#FEFECE" filter="url(#f6gm5kxgbrw8n)" height="39.9688" id="AttendanceData" style="stroke:#A80036;stroke-width:1.5;" width="101" x="1642" y="223.5"/><text fill="#000000" font-family="sans-serif" font-size="12" lengthAdjust="spacing" textLength="95" x="1645" y="239.6387">AttendanceData</text><line style="stroke:#A80036;stroke-width:1.5;" x1="1643" x2="1742" y1="247.4688" y2="247.4688"/><line style="stroke:#A80036;stroke-width:1.5;" x1="1643" x2="1742" y1="255.4688" y2="255.4688"/><!--MD5=[dacda350bad8e5445e265e2dca5bb0eb]
class ProgramWeek--><rect codeLine="35" fill="#FEFECE" filter="url(#f6gm5kxgbrw8n)" height="39.9688" id="ProgramWeek" style="stroke:#A80036;stroke-width:1.5;" width="91" x="189" y="223.5"/><text fill="#000000" font-family="sans-serif" font-size="12" lengthAdjust="spacing" textLength="85" x="192" y="239.6387">ProgramWeek</text><line style="stroke:#A80036;stroke-width:1.5;" x1="190" x2="279" y1="247.4688" y2="247.4688"/><line style="stroke:#A80036;stroke-width:1.5;" x1="190" x2="279" y1="255.4688" y2="255.4688"/><!--MD5=[cec1a060a5ee78d3766bcb510441b10c]
class CAN--><rect codeLine="37" fill="#FEFECE" filter="url(#f6gm5kxgbrw8n)" height="52.7734" id="CAN" style="stroke:#A80036;stroke-width:1.5;" width="43" x="1930" y="48.5"/><text fill="#000000" font-family="sans-serif" font-size="12" lengthAdjust="spacing" textLength="24" x="1939.5" y="64.6387">CAN</text><line style="stroke:#A80036;stroke-width:1.5;" x1="1931" x2="1972" y1="72.4688" y2="72.4688"/><line style="stroke:#A80036;stroke-width:1.5;" x1="1931" x2="1972" y1="80.4688" y2="80.4688"/><text fill="#000000" font-family="sans-serif" font-size="11" lengthAdjust="spacing" textLength="31" x="1936" y="94.6792">ANY()</text><!--MD5=[60ff9fc3581cad7fe97bde2cb97ce632]
class TEAMSHAVINGISSUESIMMEDIATELY--><rect codeLine="40" fill="#FEFECE" filter="url(#f6gm5kxgbrw8n)" height="39.9688" id="TEAMSHAVINGISSUESIMMEDIATELY" style="stroke:#A80036;stroke-width:1.5;" width="211" x="1846" y="223.5"/><text fill="#000000" font-family="sans-serif" font-size="12" lengthAdjust="spacing" textLength="205" x="1849" y="239.6387">TEAMSHAVINGISSUESIMMEDIATELY</text><line style="stroke:#A80036;stroke-width:1.5;" x1="1847" x2="2056" y1="247.4688" y2="247.4688"/><line style="stroke:#A80036;stroke-width:1.5;" x1="1847" x2="2056" y1="255.4688" y2="255.4688"/><!--MD5=[47ab3bbcc2249d76656428e4be6a5ff5]
class GirlData--><rect codeLine="42" fill="#FEFECE" filter="url(#f6gm5kxgbrw8n)" height="39.9688" id="GirlData" style="stroke:#A80036;stroke-width:1.5;" width="53" x="487" y="223.5"/><text fill="#000000" font-family="sans-serif" font-size="12" lengthAdjust="spacing" textLength="47" x="490" y="239.6387">GirlData</text><line style="stroke:#A80036;stroke-width:1.5;" x1="488" x2="539" y1="247.4688" y2="247.4688"/><line style="stroke:#A80036;stroke-width:1.5;" x1="488" x2="539" y1="255.4688" y2="255.4688"/><!--MD5=[f399ba4c5ca3b0c93c815b3943fb7aa1]
class CopyLiabilityWaiverForm--><rect codeLine="47" fill="#FEFECE" filter="url(#f6gm5kxgbrw8n)" height="39.9688" id="CopyLiabilityWaiverForm" style="stroke:#A80036;stroke-width:1.5;" width="154" x="938.5" y="347"/><text fill="#000000" font-family="sans-serif" font-size="12" lengthAdjust="spacing" textLength="148" x="941.5" y="363.1387">CopyLiabilityWaiverForm</text><line style="stroke:#A80036;stroke-width:1.5;" x1="939.5" x2="1091.5" y1="370.9688" y2="370.9688"/><line style="stroke:#A80036;stroke-width:1.5;" x1="939.5" x2="1091.5" y1="378.9688" y2="378.9688"/><!--MD5=[8d389e526eb4d7ee66857af2118481ed]
class AccountPassword--><rect codeLine="53" fill="#FEFECE" filter="url(#f6gm5kxgbrw8n)" height="39.9688" id="AccountPassword" style="stroke:#A80036;stroke-width:1.5;" width="112" x="1478.5" y="223.5"/><text fill="#000000" font-family="sans-serif" font-size="12" lengthAdjust="spacing" textLength="106" x="1481.5" y="239.6387">AccountPassword</text><line style="stroke:#A80036;stroke-width:1.5;" x1="1479.5" x2="1589.5" y1="247.4688" y2="247.4688"/><line style="stroke:#A80036;stroke-width:1.5;" x1="1479.5" x2="1589.5" y1="255.4688" y2="255.4688"/><!--MD5=[30fd7b95ab383a5e7c83ea23d4ea0fbf]
class Information--><rect codeLine="55" fill="#FEFECE" filter="url(#f6gm5kxgbrw8n)" height="39.9688" id="Information" style="stroke:#A80036;stroke-width:1.5;" width="73" x="575" y="223.5"/><text fill="#000000" font-family="sans-serif" font-size="12" lengthAdjust="spacing" textLength="67" x="578" y="239.6387">Information</text><line style="stroke:#A80036;stroke-width:1.5;" x1="576" x2="647" y1="247.4688" y2="247.4688"/><line style="stroke:#A80036;stroke-width:1.5;" x1="576" x2="647" y1="255.4688" y2="255.4688"/><!--MD5=[fd8f06804651a767af6d5ee4693cdfe7]
class Coach--><rect codeLine="57" fill="#FEFECE" filter="url(#f6gm5kxgbrw8n)" height="65.5781" id="Coach" style="stroke:#A80036;stroke-width:1.5;" width="64" x="1056.5" y="42"/><text fill="#000000" font-family="sans-serif" font-size="12" lengthAdjust="spacing" textLength="37" x="1070" y="58.1387">Coach</text><line style="stroke:#A80036;stroke-width:1.5;" x1="1057.5" x2="1119.5" y1="65.9688" y2="65.9688"/><line style="stroke:#A80036;stroke-width:1.5;" x1="1057.5" x2="1119.5" y1="73.9688" y2="73.9688"/><text fill="#000000" font-family="sans-serif" font-size="11" lengthAdjust="spacing" textLength="33" x="1062.5" y="88.1792">take()</text><text fill="#000000" font-family="sans-serif" font-size="11" lengthAdjust="spacing" textLength="52" x="1062.5" y="100.9839">conduct()</text><!--MD5=[41e1c6cf192918703501b24b2053926c]
class Class--><rect codeLine="61" fill="#FEFECE" filter="url(#f6gm5kxgbrw8n)" height="39.9688" id="Class" style="stroke:#A80036;stroke-width:1.5;" width="38" x="1104.5" y="223.5"/><text fill="#000000" font-family="sans-serif" font-size="12" lengthAdjust="spacing" textLength="32" x="1107.5" y="239.6387">Class</text><line style="stroke:#A80036;stroke-width:1.5;" x1="1105.5" x2="1141.5" y1="247.4688" y2="247.4688"/><line style="stroke:#A80036;stroke-width:1.5;" x1="1105.5" x2="1141.5" y1="255.4688" y2="255.4688"/><!--MD5=[e7c98ac7ba8d7cf0aa11a2d3b0329a02]
class Attendance--><rect codeLine="63" fill="#FEFECE" filter="url(#f6gm5kxgbrw8n)" height="39.9688" id="Attendance" style="stroke:#A80036;stroke-width:1.5;" width="74" x="974.5" y="223.5"/><text fill="#000000" font-family="sans-serif" font-size="12" lengthAdjust="spacing" textLength="68" x="977.5" y="239.6387">Attendance</text><line style="stroke:#A80036;stroke-width:1.5;" x1="975.5" x2="1047.5" y1="247.4688" y2="247.4688"/><line style="stroke:#A80036;stroke-width:1.5;" x1="975.5" x2="1047.5" y1="255.4688" y2="255.4688"/><!--MD5=[47c54596e07e1c9b69023431b1273db8]
class TeamRoster--><rect codeLine="65" fill="#FEFECE" filter="url(#f6gm5kxgbrw8n)" height="39.9688" id="TeamRoster" style="stroke:#A80036;stroke-width:1.5;" width="78" x="683.5" y="223.5"/><text fill="#000000" font-family="sans-serif" font-size="12" lengthAdjust="spacing" textLength="72" x="686.5" y="239.6387">TeamRoster</text><line style="stroke:#A80036;stroke-width:1.5;" x1="684.5" x2="760.5" y1="247.4688" y2="247.4688"/><line style="stroke:#A80036;stroke-width:1.5;" x1="684.5" x2="760.5" y1="255.4688" y2="255.4688"/><!--MD5=[60c9ed31c535bee25c55ce21b5b01399]
class Data--><rect codeLine="73" fill="#FEFECE" filter="url(#f6gm5kxgbrw8n)" height="39.9688" id="Data" style="stroke:#A80036;stroke-width:1.5;" width="33" x="1778" y="223.5"/><text fill="#000000" font-family="sans-serif" font-size="12" lengthAdjust="spacing" textLength="27" x="1781" y="239.6387">Data</text><line style="stroke:#A80036;stroke-width:1.5;" x1="1779" x2="1810" y1="247.4688" y2="247.4688"/><line style="stroke:#A80036;stroke-width:1.5;" x1="1779" x2="1810" y1="255.4688" y2="255.4688"/><!--MD5=[c680266cf9e454ca06c2d1bb8b683e6b]
class Schedule--><rect codeLine="79" fill="#FEFECE" filter="url(#f6gm5kxgbrw8n)" height="39.9688" id="Schedule" style="stroke:#A80036;stroke-width:1.5;" width="62" x="1278.5" y="223.5"/><text fill="#000000" font-family="sans-serif" font-size="12" lengthAdjust="spacing" textLength="56" x="1281.5" y="239.6387">Schedule</text><line style="stroke:#A80036;stroke-width:1.5;" x1="1279.5" x2="1339.5" y1="247.4688" y2="247.4688"/><line style="stroke:#A80036;stroke-width:1.5;" x1="1279.5" x2="1339.5" y1="255.4688" y2="255.4688"/><!--MD5=[0120a974945614d2da58e970240dc147]
class ATTENDANCESHEET--><rect codeLine="81" fill="#FEFECE" filter="url(#f6gm5kxgbrw8n)" height="39.9688" id="ATTENDANCESHEET" style="stroke:#A80036;stroke-width:1.5;" width="121" x="797" y="223.5"/><text fill="#000000" font-family="sans-serif" font-size="12" lengthAdjust="spacing" textLength="115" x="800" y="239.6387">ATTENDANCESHEET</text><line style="stroke:#A80036;stroke-width:1.5;" x1="798" x2="917" y1="247.4688" y2="247.4688"/><line style="stroke:#A80036;stroke-width:1.5;" x1="798" x2="917" y1="255.4688" y2="255.4688"/><!--MD5=[bc153eb19d68cb19a25dd9d84ee0a4b3]
link Staff to CopyLiabilityWaiverForm--><path codeLine="83" d="M1375.49,262.274 C1369.57,265.048 1363.42,267.74 1357.5,270 C1270.72,303.1412 1167.65,330.5193 1097.51,347.4418 " fill="none" id="Staff-to-CopyLiabilityWaiverForm" style="stroke:#A80036;stroke-width:1.0;"/><polygon fill="#A80036" points="1092.52,348.6421,1102.2066,350.4225,1097.3809,347.4708,1100.3325,342.6451,1092.52,348.6421" style="stroke:#A80036;stroke-width:1.0;"/><text fill="#000000" font-family="sans-serif" font-size="13" lengthAdjust="spacing" textLength="32" x="1266.5" y="313.0669">have</text><!--MD5=[2343a4999c4efe30becd5735e6a7eadd]
link staff to AttendanceData--><path codeLine="84" d="M1702.99,108.103 C1700.48,140.307 1696.66,189.182 1694.39,218.269 " fill="none" id="staff-to-AttendanceData" style="stroke:#A80036;stroke-width:1.0;"/><polygon fill="#A80036" points="1693.99,223.461,1698.6797,214.8004,1694.3799,218.4762,1690.704,214.1765,1693.99,223.461" style="stroke:#A80036;stroke-width:1.0;"/><text fill="#000000" font-family="sans-serif" font-size="13" lengthAdjust="spacing" textLength="50" x="1699.5" y="183.0669">analyze</text><!--MD5=[2e7e7dfc3f50204e40cfa2b7e40d4de4]
link User to AccountPassword--><path codeLine="85" d="M1555.25,108.144 C1539.55,124.858 1522.76,146.654 1514.5,170 C1508.83,186.036 1514.11,204.526 1520.66,218.819 " fill="none" id="User-to-AccountPassword" style="stroke:#A80036;stroke-width:1.0;"/><polygon fill="#A80036" points="1522.92,223.496,1522.6087,213.6521,1520.7459,218.9934,1515.4045,217.1306,1522.92,223.496" style="stroke:#A80036;stroke-width:1.0;"/><text fill="#000000" font-family="sans-serif" font-size="13" lengthAdjust="spacing" textLength="45" x="1515.5" y="183.0669">update</text><!--MD5=[2e7e7dfc3f50204e40cfa2b7e40d4de4]
link User to AccountPassword--><path codeLine="96" d="M1585.76,108.294 C1581.84,130.835 1575.31,161.356 1565.5,187 C1561.33,197.896 1555.32,209.256 1549.7,218.839 " fill="none" id="User-to-AccountPassword-1" style="stroke:#A80036;stroke-width:1.0;"/><polygon fill="#A80036" points="1546.98,223.391,1555.0252,217.7099,1549.5409,219.0966,1548.1542,213.6124,1546.98,223.391" style="stroke:#A80036;stroke-width:1.0;"/><text fill="#000000" font-family="sans-serif" font-size="13" lengthAdjust="spacing" textLength="33" x="1572.5" y="183.0669">reset</text><!--MD5=[cd98bc415862b0d44f97c4ed61f2aec8]
link Admin to Staff--><path codeLine="86" d="M1409.5,101.651 C1409.5,131.228 1409.5,179.831 1409.5,211.501 " fill="none" id="Admin-to-Staff" style="stroke:#A80036;stroke-width:1.0;"/><polygon fill="#A80036" points="1409.5,216.82,1413.5,207.82,1409.5,211.82,1405.5,207.82,1409.5,216.82" style="stroke:#A80036;stroke-width:1.0;"/><text fill="#000000" font-family="sans-serif" font-size="13" lengthAdjust="spacing" textLength="24" x="1410.5" y="183.0669">add</text><!--MD5=[c5f81a7d15bdf14543b93ed453e096e2]
link GOTRLA to Information--><path codeLine="87" d="M608.584,140.272 C608.216,155.585 608.091,171.872 608.5,187 C608.775,197.173 609.332,208.384 609.893,218.051 " fill="none" id="GOTRLA-to-Information" style="stroke:#A80036;stroke-width:1.0;"/><polygon fill="#A80036" points="610.203,223.247,613.6585,214.0242,609.9044,218.2559,605.6727,214.5019,610.203,223.247" style="stroke:#A80036;stroke-width:1.0;"/><text fill="#000000" font-family="sans-serif" font-size="13" lengthAdjust="spacing" textLength="32" x="609.5" y="183.0669">have</text><!--MD5=[4f0036c3ae8f06fcff77eea7ceb5244e]
link staff to Data--><path codeLine="88" d="M1722.66,108.103 C1740.02,140.574 1766.43,189.995 1781.93,218.989 " fill="none" id="staff-to-Data" style="stroke:#A80036;stroke-width:1.0;"/><polygon fill="#A80036" points="1784.32,223.461,1783.6092,213.6378,1781.9648,219.0504,1776.5522,217.4061,1784.32,223.461" style="stroke:#A80036;stroke-width:1.0;"/><text fill="#000000" font-family="sans-serif" font-size="13" lengthAdjust="spacing" textLength="42" x="1764.5" y="183.0669">export</text><!--MD5=[79a0f1b90fcd716bce4a49cbbbf5991a]
link GOTRLA to ProgramWeek--><path codeLine="89" d="M567.063,86.247 C510.316,100.363 410.067,128.81 331.5,170 C305.36,183.704 278.72,204.18 259.989,219.88 " fill="none" id="GOTRLA-to-ProgramWeek" style="stroke:#A80036;stroke-width:1.0;"/><polygon fill="#A80036" points="255.878,223.355,265.3339,220.6008,259.6969,220.1276,260.1701,214.4906,255.878,223.355" style="stroke:#A80036;stroke-width:1.0;"/><text fill="#000000" font-family="sans-serif" font-size="13" lengthAdjust="spacing" textLength="57" x="332.5" y="183.0669">schedule</text><!--MD5=[56164e484cb35a42e497367a2ef4d287]
link Volunteer to Schedule--><path codeLine="90" d="M1261.88,108.103 C1273.33,140.44 1290.75,189.588 1301.04,218.63 " fill="none" id="Volunteer-to-Schedule" style="stroke:#A80036;stroke-width:1.0;"/><polygon fill="#A80036" points="1302.75,223.461,1303.5152,213.6419,1301.0804,218.748,1295.9744,216.3132,1302.75,223.461" style="stroke:#A80036;stroke-width:1.0;"/><text fill="#000000" font-family="sans-serif" font-size="13" lengthAdjust="spacing" textLength="44" x="1290.5" y="183.0669">access</text><!--MD5=[1880530250a35d370d26846d03a01947]
link CAN to TEAMSHAVINGISSUESIMMEDIATELY--><path codeLine="91" d="M1951.5,101.651 C1951.5,133.384 1951.5,187.017 1951.5,218.142 " fill="none" id="CAN-to-TEAMSHAVINGISSUESIMMEDIATELY" style="stroke:#A80036;stroke-width:1.0;"/><polygon fill="#A80036" points="1951.5,223.309,1955.5,214.309,1951.5,218.309,1947.5,214.309,1951.5,223.309" style="stroke:#A80036;stroke-width:1.0;"/><text fill="#000000" font-family="sans-serif" font-size="13" lengthAdjust="spacing" textLength="26" x="1952.5" y="183.0669">ANY</text><!--MD5=[e0f37847ada082ebd2112632b788838e]
link VolunteerCoach to CopyLiabilityWaiverForm--><path codeLine="92" d="M451.846,265.532 C457.794,267.129 463.74,268.644 469.5,270 C632.272,308.3094 825.595,338.8374 933.027,354.5006 " fill="none" id="VolunteerCoach-to-CopyLiabilityWaiverForm" style="stroke:#A80036;stroke-width:1.0;"/><polygon fill="#A80036" points="938.077,355.2352,929.7468,349.9809,933.1291,354.5152,928.5948,357.8975,938.077,355.2352" style="stroke:#A80036;stroke-width:1.0;"/><text fill="#000000" font-family="sans-serif" font-size="13" lengthAdjust="spacing" textLength="32" x="694.5" y="313.0669">have</text><!--MD5=[97a840519167b633488e8025757e1319]
link Coach to Attendance--><path codeLine="93" d="M1073.65,108.103 C1058.7,140.44 1035.97,189.588 1022.54,218.63 " fill="none" id="Coach-to-Attendance" style="stroke:#A80036;stroke-width:1.0;"/><polygon fill="#A80036" points="1020.3,223.461,1027.715,216.9789,1022.4035,218.925,1020.4574,213.6134,1020.3,223.461" style="stroke:#A80036;stroke-width:1.0;"/><text fill="#000000" font-family="sans-serif" font-size="13" lengthAdjust="spacing" textLength="28" x="1044.5" y="183.0669">take</text><!--MD5=[afa5c0f07e14ed4df27b42dbad4cd8b1]
link GOTRLA to GirlData--><path codeLine="94" d="M573.611,140.373 C557.386,167.938 539.447,198.417 527.426,218.84 " fill="none" id="GOTRLA-to-GirlData" style="stroke:#A80036;stroke-width:1.0;"/><polygon fill="#A80036" points="524.803,223.296,532.8157,217.5692,527.3395,218.9871,525.9216,213.5109,524.803,223.296" style="stroke:#A80036;stroke-width:1.0;"/><text fill="#000000" font-family="sans-serif" font-size="13" lengthAdjust="spacing" textLength="25" x="555.5" y="183.0669">Add</text><!--MD5=[e13edb030b9cef0dbd75fc789e83fb64]
link GOTRLA to ATTENDANCESHEET--><path codeLine="95" d="M655.712,106.589 C688.203,128.996 733.475,160.068 773.5,187 C790.069,198.149 808.581,210.402 824.001,220.552 " fill="none" id="GOTRLA-to-ATTENDANCESHEET" style="stroke:#A80036;stroke-width:1.0;"/><polygon fill="#A80036" points="828.264,223.356,822.9424,215.0687,824.0865,220.6086,818.5465,221.7527,828.264,223.356" style="stroke:#A80036;stroke-width:1.0;"/><text fill="#000000" font-family="sans-serif" font-size="13" lengthAdjust="spacing" textLength="76" x="774.5" y="183.0669">REGULARLY</text><!--MD5=[4c17ace657c329cd16d1dba250f9a797]
link Volunteer to Class--><path codeLine="97" d="M1229.22,108.257 C1214.03,130.781 1192.78,161.296 1172.5,187 C1163.79,198.047 1153.56,209.795 1144.72,219.624 " fill="none" id="Volunteer-to-Class" style="stroke:#A80036;stroke-width:1.0;"/><polygon fill="#A80036" points="1141.27,223.43,1150.2707,219.4315,1144.6211,219.7192,1144.3334,214.0697,1141.27,223.43" style="stroke:#A80036;stroke-width:1.0;"/><text fill="#000000" font-family="sans-serif" font-size="13" lengthAdjust="spacing" textLength="51" x="1185.5" y="183.0669">conduct</text><!--MD5=[fb63f97013652b2a39df537aa5a23115]
link GOTRLA to VolunteerCoach--><path codeLine="98" d="M567.269,108.3 C525.412,138.867 463.165,184.323 422.954,213.688 " fill="none" id="GOTRLA-to-VolunteerCoach" style="stroke:#A80036;stroke-width:1.0;"/><polygon fill="#A80036" points="418.648,216.833,428.2755,214.7566,422.6862,213.8847,423.5582,208.2954,418.648,216.833" style="stroke:#A80036;stroke-width:1.0;"/><text fill="#000000" font-family="sans-serif" font-size="13" lengthAdjust="spacing" textLength="25" x="478.5" y="183.0669">Add</text><!--MD5=[fb63f97013652b2a39df537aa5a23115]
link GOTRLA to VolunteerCoach--><path codeLine="100" d="M567.394,85.603 C521.629,97.758 450.933,123.021 408.5,170 C398.088,181.528 391.974,197.607 388.403,211.694 " fill="none" id="GOTRLA-to-VolunteerCoach-1" style="stroke:#A80036;stroke-width:1.0;"/><polygon fill="#A80036" points="387.199,216.782,393.164,208.945,388.3504,211.9164,385.379,207.1028,387.199,216.782" style="stroke:#A80036;stroke-width:1.0;"/><text fill="#000000" font-family="sans-serif" font-size="13" lengthAdjust="spacing" textLength="46" x="409.5" y="183.0669">Update</text><!--MD5=[08d4e4129dc230b55595333a9eb4ee23]
link GOTRLA to Class--><path codeLine="99" d="M655.716,86.772 C720.402,102.89 844.352,135.139 947.5,170 C1000.98,188.074 1013.43,195.192 1065.5,217 C1076.76,221.717 1089.16,227.137 1099.6,231.765 " fill="none" id="GOTRLA-to-Class" style="stroke:#A80036;stroke-width:1.0;"/><polygon fill="#A80036" points="1104.24,233.829,1097.6377,226.5208,1099.6702,231.7999,1094.3911,233.8324,1104.24,233.829" style="stroke:#A80036;stroke-width:1.0;"/><text fill="#000000" font-family="sans-serif" font-size="13" lengthAdjust="spacing" textLength="25" x="994.5" y="183.0669">Add</text><!--MD5=[d6c05c37d1e56965ae193a9016f33c04]
link Coach to Class--><path codeLine="101" d="M1095.25,108.103 C1102.02,140.307 1112.29,189.182 1118.41,218.269 " fill="none" id="Coach-to-Class" style="stroke:#A80036;stroke-width:1.0;"/><polygon fill="#A80036" points="1119.5,223.461,1121.5601,213.83,1118.4699,218.5683,1113.7317,215.4781,1119.5,223.461" style="stroke:#A80036;stroke-width:1.0;"/><text fill="#000000" font-family="sans-serif" font-size="13" lengthAdjust="spacing" textLength="51" x="1112.5" y="183.0669">conduct</text><!--MD5=[ff0a00d215dd9a1fcf0d0ea471cde5c4]
link GOTRLA to Attendance--><path codeLine="102" d="M655.525,91.852 C704.688,109.81 786.431,140.435 855.5,170 C871.767,176.963 875.47,179.508 891.5,187 C917.417,199.113 946.542,212.586 969.608,223.224 " fill="none" id="GOTRLA-to-Attendance" style="stroke:#A80036;stroke-width:1.0;"/><polygon fill="#A80036" points="974.435,225.45,967.9381,218.0479,969.8948,223.3556,964.5871,225.3123,974.435,225.45" style="stroke:#A80036;stroke-width:1.0;"/><text fill="#000000" font-family="sans-serif" font-size="13" lengthAdjust="spacing" textLength="50" x="892.5" y="183.0669">monitor</text><!--MD5=[23b934d095a36a5ed7211807a2af8d94]
link GOTRLA to TeamRoster--><path codeLine="103" d="M651.637,140.083 C661.56,155.553 672.28,171.957 682.5,187 C689.8,197.745 698.164,209.44 705.35,219.311 " fill="none" id="GOTRLA-to-TeamRoster" style="stroke:#A80036;stroke-width:1.0;"/><polygon fill="#A80036" points="708.351,223.422,706.2746,213.7945,705.4027,219.3838,699.8134,218.5118,708.351,223.422" style="stroke:#A80036;stroke-width:1.0;"/><text fill="#000000" font-family="sans-serif" font-size="13" lengthAdjust="spacing" textLength="49" x="683.5" y="183.0669">support</text><!--MD5=[341f56a68896181593118b166caad514]
link VOLUNTEERCOACH to Edit--><!--MD5=[cbd1640c1fd652c20a0bb1c799f6ae95]
link VOLUNTEERCOACH to EditProgramStaff--><!--MD5=[4cb8fb540560b7ca72c268aa3380a42f]
@startuml
hide circle
class VOLUNTEERCOACH<actor> {
}
class GOTRLA<actor> {
}
class VolunteerCoach<actor> {
}
class Staff<actor> {
}
class Edit<actor> {
}
class Volunteer<actor> {
}
class Admin<actor> {
}
class EditProgramStaff<actor> {
}
class User<actor> {
}
class staff {
	analyze()
	export()
}
class AttendanceData {
}
class GOTRLA {
	support()
	have()
	REGULARLY()
	Update()
	schedule()
	monitor()
	Add()
}
class ProgramWeek {
}
class CAN {
	ANY()
}
class TEAMSHAVINGISSUESIMMEDIATELY {
}
class GirlData {
}
class VolunteerCoach {
	have()
}
class CopyLiabilityWaiverForm {
}
class User {
	reset()
	update()
}
class AccountPassword {
}
class Information {
}
class Coach {
	take()
	conduct()
}
class Class {
}
class Attendance {
}
class TeamRoster {
}
class Staff {
	have()
}
class Admin {
	add()
}
class Data {
}
class Volunteer {
	conduct()
	access()
}
class Schedule {
}
class ATTENDANCESHEET {
}
Staff - -> CopyLiabilityWaiverForm : have
staff - -> AttendanceData : analyze
User - -> AccountPassword : update
Admin - -> Staff : add
GOTRLA - -> Information : have
staff - -> Data : export
GOTRLA - -> ProgramWeek : schedule
Volunteer - -> Schedule : access
CAN - -> TEAMSHAVINGISSUESIMMEDIATELY : ANY
VolunteerCoach - -> CopyLiabilityWaiverForm : have
Coach - -> Attendance : take
GOTRLA - -> GirlData : Add
GOTRLA - -> ATTENDANCESHEET : REGULARLY
User - -> AccountPassword : reset
Volunteer - -> Class : conduct
GOTRLA - -> VolunteerCoach : Add
GOTRLA - -> Class : Add
GOTRLA - -> VolunteerCoach : Update
Coach - -> Class : conduct
GOTRLA - -> Attendance : monitor
GOTRLA - -> TeamRoster : support
@enduml

PlantUML version 1.2021.6beta6(Unknown compile time)
(GPL source distribution)
Java Runtime: Java(TM) SE Runtime Environment
JVM: Java HotSpot(TM) 64-Bit Server VM
Default Encoding: UTF-8
Language: en
Country: US
--></g></svg>