<?xml version="1.0" encoding="UTF-8" standalone="no"?><svg xmlns="http://www.w3.org/2000/svg" xmlns:xlink="http://www.w3.org/1999/xlink" contentScriptType="application/ecmascript" contentStyleType="text/css" height="489px" preserveAspectRatio="none" style="width:1310px;height:489px;background:#FFFFFF;" version="1.1" viewBox="0 0 1310 489" width="1310px" zoomAndPan="magnify"><defs><filter height="300%" id="f1cpdsp4uvhl6t" width="300%" x="-1" y="-1"><feGaussianBlur result="blurOut" stdDeviation="2.0"/><feColorMatrix in="blurOut" result="blurOut2" type="matrix" values="0 0 0 0 0 0 0 0 0 0 0 0 0 0 0 0 0 0 .4 0"/><feOffset dx="4.0" dy="4.0" in="blurOut2" result="blurOut3"/><feBlend in="SourceGraphic" in2="blurOut3" mode="normal"/></filter></defs><g><!--MD5=[ed6624c6556d5e7b1bd23032162d20b7]
class Client--><rect codeLine="11" fill="#FEFECE" filter="url(#f1cpdsp4uvhl6t)" height="168.0156" id="Client" style="stroke:#A80036;stroke-width:1.5;" width="86" x="693.5" y="191"/><text fill="#000000" font-family="sans-serif" font-size="12" lengthAdjust="spacing" textLength="33" x="702.5" y="207.1387">Client</text><rect fill="#FFFFFF" height="15.9688" style="stroke:#000000;stroke-width:1.0;stroke-dasharray:2.0,2.0;" width="33" x="749.5" y="188"/><text fill="#000000" font-family="sans-serif" font-size="12" font-style="italic" lengthAdjust="spacing" textLength="31" x="750.5" y="200.1387">actor</text><line style="stroke:#A80036;stroke-width:1.5;" x1="694.5" x2="778.5" y1="214.9688" y2="214.9688"/><text fill="#000000" font-family="sans-serif" font-size="11" lengthAdjust="spacing" textLength="74" x="699.5" y="229.1792">convenience</text><line style="stroke:#A80036;stroke-width:1.5;" x1="694.5" x2="778.5" y1="235.7734" y2="235.7734"/><text fill="#000000" font-family="sans-serif" font-size="11" lengthAdjust="spacing" textLength="29" x="699.5" y="249.9839">use()</text><text fill="#000000" font-family="sans-serif" font-size="11" lengthAdjust="spacing" textLength="57" x="699.5" y="262.7886">show_up()</text><text fill="#000000" font-family="sans-serif" font-size="11" lengthAdjust="spacing" textLength="36" x="699.5" y="275.5933">save()</text><text fill="#000000" font-family="sans-serif" font-size="11" lengthAdjust="spacing" textLength="40" x="699.5" y="288.3979">enroll()</text><text fill="#000000" font-family="sans-serif" font-size="11" lengthAdjust="spacing" textLength="27" x="699.5" y="301.2026">get()</text><text fill="#000000" font-family="sans-serif" font-size="11" lengthAdjust="spacing" textLength="52" x="699.5" y="314.0073">register()</text><text fill="#000000" font-family="sans-serif" font-size="11" lengthAdjust="spacing" textLength="51" x="699.5" y="326.812">provide()</text><text fill="#000000" font-family="sans-serif" font-size="11" lengthAdjust="spacing" textLength="57" x="699.5" y="339.6167">check_in()</text><text fill="#000000" font-family="sans-serif" font-size="11" lengthAdjust="spacing" textLength="39" x="699.5" y="352.4214">enter()</text><!--MD5=[9563755d011c5cec7ec66dc53565a59e]
class Board--><rect codeLine="45" fill="#FEFECE" filter="url(#f1cpdsp4uvhl6t)" height="52.7734" id="Board" style="stroke:#A80036;stroke-width:1.5;" width="77" x="975" y="35.5"/><text fill="#000000" font-family="sans-serif" font-size="12" lengthAdjust="spacing" textLength="36" x="978" y="51.6387">Board</text><rect fill="#FFFFFF" height="15.9688" style="stroke:#000000;stroke-width:1.0;stroke-dasharray:2.0,2.0;" width="33" x="1022" y="32.5"/><text fill="#000000" font-family="sans-serif" font-size="12" font-style="italic" lengthAdjust="spacing" textLength="31" x="1023" y="44.6387">actor</text><line style="stroke:#A80036;stroke-width:1.5;" x1="976" x2="1051" y1="59.4688" y2="59.4688"/><line style="stroke:#A80036;stroke-width:1.5;" x1="976" x2="1051" y1="67.4688" y2="67.4688"/><text fill="#000000" font-family="sans-serif" font-size="11" lengthAdjust="spacing" textLength="40" x="981" y="81.6792">share()</text><!--MD5=[f58fd777f29c17413488bea9e7cfcca3]
class Member--><rect codeLine="35" fill="#FEFECE" filter="url(#f1cpdsp4uvhl6t)" height="65.5781" id="Member" style="stroke:#A80036;stroke-width:1.5;" width="91" x="1145" y="29"/><text fill="#000000" font-family="sans-serif" font-size="12" lengthAdjust="spacing" textLength="50" x="1148" y="45.1387">Member</text><rect fill="#FFFFFF" height="15.9688" style="stroke:#000000;stroke-width:1.0;stroke-dasharray:2.0,2.0;" width="33" x="1206" y="26"/><text fill="#000000" font-family="sans-serif" font-size="12" font-style="italic" lengthAdjust="spacing" textLength="31" x="1207" y="38.1387">actor</text><line style="stroke:#A80036;stroke-width:1.5;" x1="1146" x2="1235" y1="52.9688" y2="52.9688"/><line style="stroke:#A80036;stroke-width:1.5;" x1="1146" x2="1235" y1="60.9688" y2="60.9688"/><text fill="#000000" font-family="sans-serif" font-size="11" lengthAdjust="spacing" textLength="37" x="1151" y="75.1792">keep()</text><text fill="#000000" font-family="sans-serif" font-size="11" lengthAdjust="spacing" textLength="47" x="1151" y="87.9839">access()</text><!--MD5=[4bf0339fc882b43a7cdd637248b9c8fa]
class WaWITPersonnel--><rect codeLine="22" fill="#FEFECE" filter="url(#f1cpdsp4uvhl6t)" height="103.9922" id="WaWITPersonnel" style="stroke:#A80036;stroke-width:1.5;" width="141" x="284" y="10"/><text fill="#000000" font-family="sans-serif" font-size="12" lengthAdjust="spacing" textLength="100" x="287" y="26.1387">WaWITPersonnel</text><rect fill="#FFFFFF" height="15.9688" style="stroke:#000000;stroke-width:1.0;stroke-dasharray:2.0,2.0;" width="33" x="395" y="7"/><text fill="#000000" font-family="sans-serif" font-size="12" font-style="italic" lengthAdjust="spacing" textLength="31" x="396" y="19.1387">actor</text><line style="stroke:#A80036;stroke-width:1.5;" x1="285" x2="424" y1="33.9688" y2="33.9688"/><line style="stroke:#A80036;stroke-width:1.5;" x1="285" x2="424" y1="41.9688" y2="41.9688"/><text fill="#000000" font-family="sans-serif" font-size="11" lengthAdjust="spacing" textLength="29" x="290" y="56.1792">use()</text><text fill="#000000" font-family="sans-serif" font-size="11" lengthAdjust="spacing" textLength="51" x="290" y="68.9839">capture()</text><text fill="#000000" font-family="sans-serif" font-size="11" lengthAdjust="spacing" textLength="53" x="290" y="81.7886">analyse()</text><text fill="#000000" font-family="sans-serif" font-size="11" lengthAdjust="spacing" textLength="61" x="290" y="94.5933">generate()</text><text fill="#000000" font-family="sans-serif" font-size="11" lengthAdjust="spacing" textLength="35" x="290" y="107.3979">track()</text><!--MD5=[4296a1ab0576a383a1a509d52c22ebf0]
class Type--><rect codeLine="29" fill="#FEFECE" filter="url(#f1cpdsp4uvhl6t)" height="39.9688" id="Type" style="stroke:#A80036;stroke-width:1.5;" width="36" x="212.5" y="255"/><text fill="#000000" font-family="sans-serif" font-size="12" lengthAdjust="spacing" textLength="30" x="215.5" y="271.1387">Type</text><line style="stroke:#A80036;stroke-width:1.5;" x1="213.5" x2="247.5" y1="278.9688" y2="278.9688"/><line style="stroke:#A80036;stroke-width:1.5;" x1="213.5" x2="247.5" y1="286.9688" y2="286.9688"/><!--MD5=[f00dbe8c0302c6aec2cb26b3c659c8fc]
class Report--><rect codeLine="31" fill="#FEFECE" filter="url(#f1cpdsp4uvhl6t)" height="39.9688" id="Report" style="stroke:#A80036;stroke-width:1.5;" width="46" x="304.5" y="255"/><text fill="#000000" font-family="sans-serif" font-size="12" lengthAdjust="spacing" textLength="40" x="307.5" y="271.1387">Report</text><line style="stroke:#A80036;stroke-width:1.5;" x1="305.5" x2="349.5" y1="278.9688" y2="278.9688"/><line style="stroke:#A80036;stroke-width:1.5;" x1="305.5" x2="349.5" y1="286.9688" y2="286.9688"/><!--MD5=[bbd32abb87742158d8b9937325662454]
class Center--><rect codeLine="33" fill="#FEFECE" filter="url(#f1cpdsp4uvhl6t)" height="39.9688" id="Center" style="stroke:#A80036;stroke-width:1.5;" width="46" x="211.5" y="436"/><text fill="#000000" font-family="sans-serif" font-size="12" lengthAdjust="spacing" textLength="40" x="214.5" y="452.1387">Center</text><line style="stroke:#A80036;stroke-width:1.5;" x1="212.5" x2="256.5" y1="459.9688" y2="459.9688"/><line style="stroke:#A80036;stroke-width:1.5;" x1="212.5" x2="256.5" y1="467.9688" y2="467.9688"/><!--MD5=[3fd616f346a44cd59a91eb10b19e157c]
class User--><rect codeLine="39" fill="#FEFECE" filter="url(#f1cpdsp4uvhl6t)" height="39.9688" id="User" style="stroke:#A80036;stroke-width:1.5;" width="35" x="1100" y="255"/><text fill="#000000" font-family="sans-serif" font-size="12" lengthAdjust="spacing" textLength="29" x="1103" y="271.1387">User</text><line style="stroke:#A80036;stroke-width:1.5;" x1="1101" x2="1134" y1="278.9688" y2="278.9688"/><line style="stroke:#A80036;stroke-width:1.5;" x1="1101" x2="1134" y1="286.9688" y2="286.9688"/><!--MD5=[60c9ed31c535bee25c55ce21b5b01399]
class Data--><rect codeLine="41" fill="#FEFECE" filter="url(#f1cpdsp4uvhl6t)" height="39.9688" id="Data" style="stroke:#A80036;stroke-width:1.5;" width="33" x="949" y="436"/><text fill="#000000" font-family="sans-serif" font-size="12" lengthAdjust="spacing" textLength="27" x="952" y="452.1387">Data</text><line style="stroke:#A80036;stroke-width:1.5;" x1="950" x2="981" y1="459.9688" y2="459.9688"/><line style="stroke:#A80036;stroke-width:1.5;" x1="950" x2="981" y1="467.9688" y2="467.9688"/><!--MD5=[f5ea1f64bc04260f09f32845b6b2c213]
class Portal--><rect codeLine="43" fill="#FEFECE" filter="url(#f1cpdsp4uvhl6t)" height="39.9688" id="Portal" style="stroke:#A80036;stroke-width:1.5;" width="39" x="1171" y="255"/><text fill="#000000" font-family="sans-serif" font-size="12" lengthAdjust="spacing" textLength="33" x="1174" y="271.1387">Portal</text><line style="stroke:#A80036;stroke-width:1.5;" x1="1172" x2="1209" y1="278.9688" y2="278.9688"/><line style="stroke:#A80036;stroke-width:1.5;" x1="1172" x2="1209" y1="286.9688" y2="286.9688"/><!--MD5=[2e42295458bb0bec21c9622a623eb29e]
class Time--><rect codeLine="48" fill="#FEFECE" filter="url(#f1cpdsp4uvhl6t)" height="52.7734" id="Time" style="stroke:#A80036;stroke-width:1.5;" width="51" x="773" y="35.5"/><text fill="#000000" font-family="sans-serif" font-size="12" lengthAdjust="spacing" textLength="29" x="784" y="51.6387">Time</text><line style="stroke:#A80036;stroke-width:1.5;" x1="774" x2="823" y1="59.4688" y2="59.4688"/><line style="stroke:#A80036;stroke-width:1.5;" x1="774" x2="823" y1="67.4688" y2="67.4688"/><text fill="#000000" font-family="sans-serif" font-size="11" lengthAdjust="spacing" textLength="39" x="779" y="81.6792">enter()</text><!--MD5=[b8e0354e0f3f5cbf52553869b78c0afa]
class Job--><rect codeLine="51" fill="#FEFECE" filter="url(#f1cpdsp4uvhl6t)" height="39.9688" id="Job" style="stroke:#A80036;stroke-width:1.5;" width="26" x="714.5" y="436"/><text fill="#000000" font-family="sans-serif" font-size="12" lengthAdjust="spacing" textLength="20" x="717.5" y="452.1387">Job</text><line style="stroke:#A80036;stroke-width:1.5;" x1="715.5" x2="739.5" y1="459.9688" y2="459.9688"/><line style="stroke:#A80036;stroke-width:1.5;" x1="715.5" x2="739.5" y1="467.9688" y2="467.9688"/><!--MD5=[ac13618b1a974308c1f12eb6c57723dc]
class Event--><rect codeLine="53" fill="#FEFECE" filter="url(#f1cpdsp4uvhl6t)" height="39.9688" id="Event" style="stroke:#A80036;stroke-width:1.5;" width="39" x="1257" y="255"/><text fill="#000000" font-family="sans-serif" font-size="12" lengthAdjust="spacing" textLength="33" x="1260" y="271.1387">Event</text><line style="stroke:#A80036;stroke-width:1.5;" x1="1258" x2="1295" y1="278.9688" y2="278.9688"/><line style="stroke:#A80036;stroke-width:1.5;" x1="1258" x2="1295" y1="286.9688" y2="286.9688"/><!--MD5=[c508b5b6bbe276ff5e2700b6641f837f]
class Appointment--><rect codeLine="55" fill="#FEFECE" filter="url(#f1cpdsp4uvhl6t)" height="39.9688" id="Appointment" style="stroke:#A80036;stroke-width:1.5;" width="82" x="385.5" y="255"/><text fill="#000000" font-family="sans-serif" font-size="12" lengthAdjust="spacing" textLength="76" x="388.5" y="271.1387">Appointment</text><line style="stroke:#A80036;stroke-width:1.5;" x1="386.5" x2="466.5" y1="278.9688" y2="278.9688"/><line style="stroke:#A80036;stroke-width:1.5;" x1="386.5" x2="466.5" y1="286.9688" y2="286.9688"/><!--MD5=[435987a092acd998883c72f97c5c9408]
class Number--><rect codeLine="57" fill="#FEFECE" filter="url(#f1cpdsp4uvhl6t)" height="52.7734" id="Number" style="stroke:#A80036;stroke-width:1.5;" width="53" x="7" y="248.5"/><text fill="#000000" font-family="sans-serif" font-size="12" lengthAdjust="spacing" textLength="47" x="10" y="264.6387">Number</text><line style="stroke:#A80036;stroke-width:1.5;" x1="8" x2="59" y1="272.4688" y2="272.4688"/><line style="stroke:#A80036;stroke-width:1.5;" x1="8" x2="59" y1="280.4688" y2="280.4688"/><text fill="#000000" font-family="sans-serif" font-size="11" lengthAdjust="spacing" textLength="29" x="13" y="294.6792">use()</text><!--MD5=[dbb8b4f13c7b21394f9d757e58732f45]
class Service--><rect codeLine="60" fill="#FEFECE" filter="url(#f1cpdsp4uvhl6t)" height="39.9688" id="Service" style="stroke:#A80036;stroke-width:1.5;" width="52" x="569.5" y="436"/><text fill="#000000" font-family="sans-serif" font-size="12" lengthAdjust="spacing" textLength="46" x="572.5" y="452.1387">Service</text><line style="stroke:#A80036;stroke-width:1.5;" x1="570.5" x2="620.5" y1="459.9688" y2="459.9688"/><line style="stroke:#A80036;stroke-width:1.5;" x1="570.5" x2="620.5" y1="467.9688" y2="467.9688"/><!--MD5=[1a502b0dbedafd291c48f46ef8646183]
class Feedback--><rect codeLine="62" fill="#FEFECE" filter="url(#f1cpdsp4uvhl6t)" height="39.9688" id="Feedback" style="stroke:#A80036;stroke-width:1.5;" width="66" x="775.5" y="436"/><text fill="#000000" font-family="sans-serif" font-size="12" lengthAdjust="spacing" textLength="60" x="778.5" y="452.1387">Feedback</text><line style="stroke:#A80036;stroke-width:1.5;" x1="776.5" x2="840.5" y1="459.9688" y2="459.9688"/><line style="stroke:#A80036;stroke-width:1.5;" x1="776.5" x2="840.5" y1="467.9688" y2="467.9688"/><!--MD5=[56cdceb58ea8945c902d27c478db40d4]
link WaWITPersonnel to Type--><path codeLine="64" d="M320.232,114.029 C313.864,123.886 307.372,134.196 301.5,144 C279.731,180.346 256.576,223.75 242.835,250.076 " fill="none" id="WaWITPersonnel-to-Type" style="stroke:#A80036;stroke-width:1.0;"/><polygon fill="#A80036" points="240.381,254.787,248.0866,248.6532,242.691,250.3526,240.9916,244.9571,240.381,254.787" style="stroke:#A80036;stroke-width:1.0;"/><text fill="#000000" font-family="sans-serif" font-size="13" lengthAdjust="spacing" textLength="32" x="302.5" y="157.0669">track</text><!--MD5=[56cdceb58ea8945c902d27c478db40d4]
link WaWITPersonnel to Type--><path codeLine="82" d="M283.88,94.431 C264.079,106.89 244.873,123.28 233.5,144 C215.298,177.163 219.639,222.611 224.811,250.052 " fill="none" id="WaWITPersonnel-to-Type-1" style="stroke:#A80036;stroke-width:1.0;"/><polygon fill="#A80036" points="225.781,254.96,227.9593,245.355,224.8111,250.055,220.1112,246.9068,225.781,254.96" style="stroke:#A80036;stroke-width:1.0;"/><text fill="#000000" font-family="sans-serif" font-size="13" lengthAdjust="spacing" textLength="50" x="234.5" y="157.0669">analyse</text><!--MD5=[97d2cfb5bcfa774d823715ac37549814]
link Member to Portal--><path codeLine="65" d="M1189.03,95.313 C1188.42,110.144 1187.8,127.961 1187.5,144 C1186.82,180.82 1188.22,223.5 1189.33,249.622 " fill="none" id="Member-to-Portal" style="stroke:#A80036;stroke-width:1.0;"/><polygon fill="#A80036" points="1189.55,254.619,1193.1557,245.4539,1189.3331,249.6237,1185.1633,245.801,1189.55,254.619" style="stroke:#A80036;stroke-width:1.0;"/><text fill="#000000" font-family="sans-serif" font-size="13" lengthAdjust="spacing" textLength="44" x="1188.5" y="157.0669">access</text><!--MD5=[1eed8d26a5fecb962bac1ac3ddcd0283]
link Client to Data--><path codeLine="66" d="M779.889,294.123 C821.343,313.081 883.683,346.061 926.5,389 C938.553,401.0868 948.317,417.6277 955.061,431.1264 " fill="none" id="Client-to-Data" style="stroke:#A80036;stroke-width:1.0;"/><polygon fill="#A80036" points="957.408,435.9481,957.0659,426.1052,955.2198,431.4523,949.8727,429.6063,957.408,435.9481" style="stroke:#A80036;stroke-width:1.0;"/><text fill="#000000" font-family="sans-serif" font-size="13" lengthAdjust="spacing" textLength="31" x="941.5" y="402.0669">save</text><!--MD5=[1eed8d26a5fecb962bac1ac3ddcd0283]
link Client to Data--><path codeLine="79" d="M779.656,318.467 C807.768,345.087 845.9,379.2921 882.5,406 C902.392,420.516 926.843,434.5354 944.037,443.8321 " fill="none" id="Client-to-Data-1" style="stroke:#A80036;stroke-width:1.0;"/><polygon fill="#A80036" points="948.684,446.3255,942.645,438.5454,944.2782,443.9613,938.8623,445.5946,948.684,446.3255" style="stroke:#A80036;stroke-width:1.0;"/><text fill="#000000" font-family="sans-serif" font-size="13" lengthAdjust="spacing" textLength="34" x="883.5" y="402.0669">enter</text><!--MD5=[e9549c995802443983072af64e3191aa]
reverse link Time to Client--><path codeLine="67" d="M787.201,101.452 C779.858,126.445 769.995,160.01 760.921,190.891 " fill="none" id="Time-backto-Client" style="stroke:#A80036;stroke-width:1.0;"/><polygon fill="#FFFFFF" points="790.898,88.873,785.369,93.5022,787.5156,100.3864,793.0446,95.7572,790.898,88.873" style="stroke:#A80036;stroke-width:1.0;"/><!--MD5=[1c8e810ed29d12788db66899b41391f0]
link Time to Data--><path codeLine="68" d="M819.266,88.851 C860.062,141.496 949.482,266.553 981.5,389 C985.134,402.8966 981.685,418.5138 977.073,431.0668 " fill="none" id="Time-to-Data" style="stroke:#A80036;stroke-width:1.0;"/><polygon fill="#A80036" points="975.188,435.8926,982.188,428.9644,977.007,431.2352,974.7362,426.0541,975.188,435.8926" style="stroke:#A80036;stroke-width:1.0;"/><text fill="#000000" font-family="sans-serif" font-size="13" lengthAdjust="spacing" textLength="34" x="973.5" y="279.5669">enter</text><!--MD5=[df6ea19a75a24a099638c788fe8077ff]
link WaWITPersonnel to Report--><path codeLine="69" d="M347.964,114.077 C342.453,157.144 334.81,216.873 330.597,249.797 " fill="none" id="WaWITPersonnel-to-Report" style="stroke:#A80036;stroke-width:1.0;"/><polygon fill="#A80036" points="329.951,254.845,335.0603,246.4251,330.5852,249.8854,327.1249,245.4103,329.951,254.845" style="stroke:#A80036;stroke-width:1.0;"/><text fill="#000000" font-family="sans-serif" font-size="13" lengthAdjust="spacing" textLength="58" x="344.5" y="157.0669">generate</text><!--MD5=[415ef8dd1dc40bf906b2506734fd1728]
link Client to Feedback--><path codeLine="70" d="M769.971,359.212 C780.511,385.4157 791.342,412.3421 798.825,430.9465 " fill="none" id="Client-to-Feedback" style="stroke:#A80036;stroke-width:1.0;"/><polygon fill="#A80036" points="800.844,435.9657,801.1961,426.1231,798.9779,431.327,793.7741,429.1088,800.844,435.9657" style="stroke:#A80036;stroke-width:1.0;"/><text fill="#000000" font-family="sans-serif" font-size="13" lengthAdjust="spacing" textLength="48" x="788.5" y="402.0669">provide</text><!--MD5=[d371e2ba1e8d429b31547a4c1652534b]
link Client to Center--><path codeLine="71" d="M693.41,306.024 C666.767,323.479 631.306,344.77 597.5,359 C477.993,409.3047 325.051,439.3932 262.778,450.3116 " fill="none" id="Client-to-Center" style="stroke:#A80036;stroke-width:1.0;"/><polygon fill="#A80036" points="257.744,451.187,267.2965,453.5849,262.67,450.3299,265.9251,445.7034,257.744,451.187" style="stroke:#A80036;stroke-width:1.0;"/><text fill="#000000" font-family="sans-serif" font-size="13" lengthAdjust="spacing" textLength="23" x="512.5" y="402.0669">use</text><!--MD5=[d371e2ba1e8d429b31547a4c1652534b]
link Client to Center--><path codeLine="83" d="M693.153,313.605 C656.18,343.551 600.291,383.9765 544.5,406 C446.059,444.8598 318.541,452.9593 262.738,454.6056 " fill="none" id="Client-to-Center-1" style="stroke:#A80036;stroke-width:1.0;"/><polygon fill="#A80036" points="257.565,454.7455,266.6703,458.4997,262.5632,454.6098,266.4531,450.5027,257.565,454.7455" style="stroke:#A80036;stroke-width:1.0;"/><text fill="#000000" font-family="sans-serif" font-size="13" lengthAdjust="spacing" textLength="34" x="580.5" y="402.0669">enter</text><!--MD5=[6ea78f051f3e319303cd0815692e6c9e]
link WaWITPersonnel to Center--><path codeLine="72" d="M283.607,89.32 C240.73,109.656 190.428,142.605 169.5,191 C139.863,259.533 147.606,287.615 169.5,359 C178.005,386.7294 197.53,413.6591 212.975,431.9032 " fill="none" id="WaWITPersonnel-to-Center" style="stroke:#A80036;stroke-width:1.0;"/><polygon fill="#A80036" points="216.402,435.8902,213.5679,426.4579,213.1424,432.0988,207.5016,431.6733,216.402,435.8902" style="stroke:#A80036;stroke-width:1.0;"/><text fill="#000000" font-family="sans-serif" font-size="13" lengthAdjust="spacing" textLength="23" x="170.5" y="279.5669">use</text><!--MD5=[589557b2882fb50d14886d47da9368af]
link WaWITPersonnel to Client--><path codeLine="73" d="M425.376,85.026 C466.89,99.244 519.617,119.622 563.5,144 C608.945,169.246 655.807,205.182 689.276,232.875 " fill="none" id="WaWITPersonnel-to-Client" style="stroke:#A80036;stroke-width:1.0;"/><polygon fill="#A80036" points="693.29,236.21,688.9245,227.3815,689.4444,233.0144,683.8115,233.5344,693.29,236.21" style="stroke:#A80036;stroke-width:1.0;"/><text fill="#000000" font-family="sans-serif" font-size="13" lengthAdjust="spacing" textLength="49" x="590.5" y="157.0669">capture</text><!--MD5=[678b0b523e79cc18d6a39ddec7dade71]
link Member to User--><path codeLine="74" d="M1170.37,95.123 C1162,109.614 1152.79,127.216 1146.5,144 C1133.19,179.526 1125.03,222.909 1120.88,249.488 " fill="none" id="Member-to-User" style="stroke:#A80036;stroke-width:1.0;"/><polygon fill="#A80036" points="1120.11,254.573,1125.4219,246.2794,1120.8643,249.6302,1117.5135,245.0726,1120.11,254.573" style="stroke:#A80036;stroke-width:1.0;"/><text fill="#000000" font-family="sans-serif" font-size="13" lengthAdjust="spacing" textLength="31" x="1147.5" y="157.0669">keep</text><!--MD5=[0b714d7c49983d9e48ed1901cbeb8b2d]
link Client to Job--><path codeLine="75" d="M732.316,359.212 C730.999,385.4157 729.645,412.3421 728.709,430.9465 " fill="none" id="Client-to-Job" style="stroke:#A80036;stroke-width:1.0;"/><polygon fill="#A80036" points="728.457,435.9657,732.904,427.1779,728.7081,430.972,724.9141,426.7762,728.457,435.9657" style="stroke:#A80036;stroke-width:1.0;"/><text fill="#000000" font-family="sans-serif" font-size="13" lengthAdjust="spacing" textLength="21" x="732.5" y="402.0669">get</text><!--MD5=[739d7960a31d0f675943b8dd580b67ed]
link Member to Event--><path codeLine="76" d="M1211.52,95.193 C1220.36,109.697 1230.26,127.29 1237.5,144 C1252.95,179.678 1264.68,223.37 1271.08,249.923 " fill="none" id="Member-to-Event" style="stroke:#A80036;stroke-width:1.0;"/><polygon fill="#A80036" points="1272.28,254.998,1274.0918,245.3172,1271.1245,250.1334,1266.3083,247.1661,1272.28,254.998" style="stroke:#A80036;stroke-width:1.0;"/><text fill="#000000" font-family="sans-serif" font-size="13" lengthAdjust="spacing" textLength="31" x="1244.5" y="157.0669">keep</text><!--MD5=[5f1188a7cb245db93749e131f360a8c7]
link WaWITPersonnel to Appointment--><path codeLine="77" d="M396.266,114.437 C402.232,123.831 407.643,133.877 411.5,144 C424.847,179.03 427.22,222.909 427.221,249.678 " fill="none" id="WaWITPersonnel-to-Appointment" style="stroke:#A80036;stroke-width:1.0;"/><polygon fill="#A80036" points="427.192,254.796,431.2434,245.819,427.2206,249.7961,423.2435,245.7733,427.192,254.796" style="stroke:#A80036;stroke-width:1.0;"/><text fill="#000000" font-family="sans-serif" font-size="13" lengthAdjust="spacing" textLength="32" x="418.5" y="157.0669">track</text><!--MD5=[a46557d3ac1586d651cc173182b86fba]
link Number to Center--><path codeLine="78" d="M35.8184,301.614 C39.8082,330.795 50.5818,378.0461 79.5,406 C114.17,439.5141 171.606,450.1193 205.975,453.4664 " fill="none" id="Number-to-Center" style="stroke:#A80036;stroke-width:1.0;"/><polygon fill="#A80036" points="211.286,453.9437,202.6811,449.1524,206.3062,453.4951,201.9634,457.1202,211.286,453.9437" style="stroke:#A80036;stroke-width:1.0;"/><text fill="#000000" font-family="sans-serif" font-size="13" lengthAdjust="spacing" textLength="23" x="80.5" y="402.0669">use</text><!--MD5=[3388e719b7f2c162a55a0dd3b12e9052]
link WaWITPersonnel to Service--><path codeLine="80" d="M425.141,110.764 C437.434,120.884 449.473,132.127 459.5,144 C474.766,162.077 475.02,169.322 484.5,191 C525.049,283.724 512.351,316.451 559.5,406 C564.147,414.8268 570.269,423.8139 576.144,431.6402 " fill="none" id="WaWITPersonnel-to-Service" style="stroke:#A80036;stroke-width:1.0;"/><polygon fill="#A80036" points="579.371,435.8603,577.0809,426.2814,576.3336,431.8887,570.7263,431.1413,579.371,435.8603" style="stroke:#A80036;stroke-width:1.0;"/><text fill="#000000" font-family="sans-serif" font-size="13" lengthAdjust="spacing" textLength="50" x="538.5" y="279.5669">analyse</text><!--MD5=[fdf07628649f670d776e43e7af5b9492]
link Client to Service--><path codeLine="81" d="M693.429,330.679 C666.677,364.641 633.681,406.5285 613.634,431.9784 " fill="none" id="Client-to-Service" style="stroke:#A80036;stroke-width:1.0;"/><polygon fill="#A80036" points="610.531,435.9181,619.2419,431.3225,613.6246,431.99,612.957,426.3727,610.531,435.9181" style="stroke:#A80036;stroke-width:1.0;"/><text fill="#000000" font-family="sans-serif" font-size="13" lengthAdjust="spacing" textLength="23" x="646.5" y="402.0669">use</text><!--MD5=[f9a1888b5b74c41f773de37bace72fae]
@startuml
hide circle
class Client<actor> {
	convenience
}
class Board<actor> {
}
class Member<actor> {
}
class WaWITPersonnel<actor> {
}
class Client {
	use()
	show_up()
	save()
	enroll()
	get()
	register()
	provide()
	check_in()
	enter()
}
class WaWITPersonnel {
	use()
	capture()
	analyse()
	generate()
	track()
}
class Type {
}
class Report {
}
class Center {
}
class Member {
	keep()
	access()
}
class User {
}
class Data {
}
class Portal {
}
class Board {
	share()
}
class Time {
	enter()
}
class Job {
}
class Event {
}
class Appointment {
}
class Number {
	use()
}
class Service {
}
class Feedback {
}
WaWITPersonnel - -> Type : track
Member - -> Portal : access
Client - -> Data : save
Time o- - Client
Time - -> Data : enter
WaWITPersonnel - -> Report : generate
Client - -> Feedback : provide
Client - -> Center : use
WaWITPersonnel - -> Center : use
WaWITPersonnel - -> Client : capture
Member - -> User : keep
Client - -> Job : get
Member - -> Event : keep
WaWITPersonnel - -> Appointment : track
Number - -> Center : use
Client - -> Data : enter
WaWITPersonnel - -> Service : analyse
Client - -> Service : use
WaWITPersonnel - -> Type : analyse
Client - -> Center : enter
@enduml

PlantUML version 1.2021.10beta2(Unknown compile time)
(GPL source distribution)
Java Runtime: Java(TM) SE Runtime Environment
JVM: Java HotSpot(TM) 64-Bit Server VM
Default Encoding: UTF-8
Language: en
Country: US
--></g></svg>