<?xml version="1.0" encoding="UTF-8" standalone="no"?><svg xmlns="http://www.w3.org/2000/svg" xmlns:xlink="http://www.w3.org/1999/xlink" contentScriptType="application/ecmascript" contentStyleType="text/css" height="387px" preserveAspectRatio="none" style="width:1833px;height:387px;background:#FFFFFF;" version="1.1" viewBox="0 0 1833 387" width="1833px" zoomAndPan="magnify"><defs><filter height="300%" id="f69ufh5awc8s" width="300%" x="-1" y="-1"><feGaussianBlur result="blurOut" stdDeviation="2.0"/><feColorMatrix in="blurOut" result="blurOut2" type="matrix" values="0 0 0 0 0 0 0 0 0 0 0 0 0 0 0 0 0 0 .4 0"/><feOffset dx="4.0" dy="4.0" in="blurOut2" result="blurOut3"/><feBlend in="SourceGraphic" in2="blurOut3" mode="normal"/></filter></defs><g><!--MD5=[ad29d52e2774325b6f3595b094b762c0]
class AdultLearner--><rect codeLine="41" fill="#FEFECE" filter="url(#f69ufh5awc8s)" height="116.7969" id="AdultLearner" style="stroke:#A80036;stroke-width:1.5;" width="117" x="358.5" y="10"/><text fill="#000000" font-family="sans-serif" font-size="12" lengthAdjust="spacing" textLength="76" x="361.5" y="26.1387">AdultLearner</text><rect fill="#FFFFFF" height="15.9688" style="stroke:#000000;stroke-width:1.0;stroke-dasharray:2.0,2.0;" width="33" x="445.5" y="7"/><text fill="#000000" font-family="sans-serif" font-size="12" font-style="italic" lengthAdjust="spacing" textLength="31" x="446.5" y="19.1387">actor</text><line style="stroke:#A80036;stroke-width:1.5;" x1="359.5" x2="474.5" y1="33.9688" y2="33.9688"/><line style="stroke:#A80036;stroke-width:1.5;" x1="359.5" x2="474.5" y1="41.9688" y2="41.9688"/><text fill="#000000" font-family="sans-serif" font-size="11" lengthAdjust="spacing" textLength="33" x="364.5" y="56.1792">take()</text><text fill="#000000" font-family="sans-serif" font-size="11" lengthAdjust="spacing" textLength="37" x="364.5" y="68.9839">have()</text><text fill="#000000" font-family="sans-serif" font-size="11" lengthAdjust="spacing" textLength="55" x="364.5" y="81.7886">improve()</text><text fill="#000000" font-family="sans-serif" font-size="11" lengthAdjust="spacing" textLength="51" x="364.5" y="94.5933">resolve()</text><text fill="#000000" font-family="sans-serif" font-size="11" lengthAdjust="spacing" textLength="53" x="364.5" y="107.3979">practice()</text><text fill="#000000" font-family="sans-serif" font-size="11" lengthAdjust="spacing" textLength="35" x="364.5" y="120.2026">view()</text><!--MD5=[967b63022d430a74f86b539c48b04415]
class ExperientialLearningCenterStaff--><rect codeLine="60" fill="#FEFECE" filter="url(#f69ufh5awc8s)" height="52.7734" id="ExperientialLearningCenterStaff" style="stroke:#A80036;stroke-width:1.5;" width="229" x="1099.5" y="42"/><text fill="#000000" font-family="sans-serif" font-size="12" lengthAdjust="spacing" textLength="188" x="1102.5" y="58.1387">ExperientialLearningCenterStaff</text><rect fill="#FFFFFF" height="15.9688" style="stroke:#000000;stroke-width:1.0;stroke-dasharray:2.0,2.0;" width="33" x="1298.5" y="39"/><text fill="#000000" font-family="sans-serif" font-size="12" font-style="italic" lengthAdjust="spacing" textLength="31" x="1299.5" y="51.1387">actor</text><line style="stroke:#A80036;stroke-width:1.5;" x1="1100.5" x2="1327.5" y1="65.9688" y2="65.9688"/><line style="stroke:#A80036;stroke-width:1.5;" x1="1100.5" x2="1327.5" y1="73.9688" y2="73.9688"/><text fill="#000000" font-family="sans-serif" font-size="11" lengthAdjust="spacing" textLength="33" x="1105.5" y="88.1792">take()</text><!--MD5=[0c104e2ac747727ee89f646d74b863b1]
class CollegeStudent--><rect codeLine="16" fill="#FEFECE" filter="url(#f69ufh5awc8s)" height="65.5781" id="CollegeStudent" style="stroke:#A80036;stroke-width:1.5;" width="133" x="876.5" y="35.5"/><text fill="#000000" font-family="sans-serif" font-size="12" lengthAdjust="spacing" textLength="92" x="879.5" y="51.6387">CollegeStudent</text><rect fill="#FFFFFF" height="15.9688" style="stroke:#000000;stroke-width:1.0;stroke-dasharray:2.0,2.0;" width="33" x="979.5" y="32.5"/><text fill="#000000" font-family="sans-serif" font-size="12" font-style="italic" lengthAdjust="spacing" textLength="31" x="980.5" y="44.6387">actor</text><line style="stroke:#A80036;stroke-width:1.5;" x1="877.5" x2="1008.5" y1="59.4688" y2="59.4688"/><line style="stroke:#A80036;stroke-width:1.5;" x1="877.5" x2="1008.5" y1="67.4688" y2="67.4688"/><text fill="#000000" font-family="sans-serif" font-size="11" lengthAdjust="spacing" textLength="55" x="882.5" y="81.6792">improve()</text><text fill="#000000" font-family="sans-serif" font-size="11" lengthAdjust="spacing" textLength="29" x="882.5" y="94.4839">use()</text><!--MD5=[3bd94c57bf4cfffb47c54f8628a30059]
class MBVStudent--><rect codeLine="22" fill="#FEFECE" filter="url(#f69ufh5awc8s)" height="65.5781" id="MBVStudent" style="stroke:#A80036;stroke-width:1.5;" width="113" x="48.5" y="35.5"/><text fill="#000000" font-family="sans-serif" font-size="12" lengthAdjust="spacing" textLength="72" x="51.5" y="51.6387">MBVStudent</text><rect fill="#FFFFFF" height="15.9688" style="stroke:#000000;stroke-width:1.0;stroke-dasharray:2.0,2.0;" width="33" x="131.5" y="32.5"/><text fill="#000000" font-family="sans-serif" font-size="12" font-style="italic" lengthAdjust="spacing" textLength="31" x="132.5" y="44.6387">actor</text><line style="stroke:#A80036;stroke-width:1.5;" x1="49.5" x2="160.5" y1="59.4688" y2="59.4688"/><line style="stroke:#A80036;stroke-width:1.5;" x1="49.5" x2="160.5" y1="67.4688" y2="67.4688"/><text fill="#000000" font-family="sans-serif" font-size="11" lengthAdjust="spacing" textLength="55" x="54.5" y="81.6792">improve()</text><text fill="#000000" font-family="sans-serif" font-size="11" lengthAdjust="spacing" textLength="29" x="54.5" y="94.4839">use()</text><!--MD5=[2605ea70dcba83496a20d3f92de61fba]
class Executive--><rect codeLine="70" fill="#FEFECE" filter="url(#f69ufh5awc8s)" height="52.7734" id="Executive" style="stroke:#A80036;stroke-width:1.5;" width="99" x="1363.5" y="42"/><text fill="#000000" font-family="sans-serif" font-size="12" lengthAdjust="spacing" textLength="58" x="1366.5" y="58.1387">Executive</text><rect fill="#FFFFFF" height="15.9688" style="stroke:#000000;stroke-width:1.0;stroke-dasharray:2.0,2.0;" width="33" x="1432.5" y="39"/><text fill="#000000" font-family="sans-serif" font-size="12" font-style="italic" lengthAdjust="spacing" textLength="31" x="1433.5" y="51.1387">actor</text><line style="stroke:#A80036;stroke-width:1.5;" x1="1364.5" x2="1461.5" y1="65.9688" y2="65.9688"/><line style="stroke:#A80036;stroke-width:1.5;" x1="1364.5" x2="1461.5" y1="73.9688" y2="73.9688"/><text fill="#000000" font-family="sans-serif" font-size="11" lengthAdjust="spacing" textLength="69" x="1369.5" y="88.1792">encourage()</text><!--MD5=[77d4d0fc85239ad4599824270418e7ce]
class Employer--><rect codeLine="12" fill="#FEFECE" filter="url(#f69ufh5awc8s)" height="39.9688" id="Employer" style="stroke:#A80036;stroke-width:1.5;" width="98" x="1498" y="48.5"/><text fill="#000000" font-family="sans-serif" font-size="12" lengthAdjust="spacing" textLength="57" x="1501" y="64.6387">Employer</text><rect fill="#FFFFFF" height="15.9688" style="stroke:#000000;stroke-width:1.0;stroke-dasharray:2.0,2.0;" width="33" x="1566" y="45.5"/><text fill="#000000" font-family="sans-serif" font-size="12" font-style="italic" lengthAdjust="spacing" textLength="31" x="1567" y="57.6387">actor</text><line style="stroke:#A80036;stroke-width:1.5;" x1="1499" x2="1595" y1="72.4688" y2="72.4688"/><line style="stroke:#A80036;stroke-width:1.5;" x1="1499" x2="1595" y1="80.4688" y2="80.4688"/><!--MD5=[c1dfe38a32b049d06341e224beded7d2]
class Veteran--><rect codeLine="33" fill="#FEFECE" filter="url(#f69ufh5awc8s)" height="65.5781" id="Veteran" style="stroke:#A80036;stroke-width:1.5;" width="88" x="1631" y="35.5"/><text fill="#000000" font-family="sans-serif" font-size="12" lengthAdjust="spacing" textLength="47" x="1634" y="51.6387">Veteran</text><rect fill="#FFFFFF" height="15.9688" style="stroke:#000000;stroke-width:1.0;stroke-dasharray:2.0,2.0;" width="33" x="1689" y="32.5"/><text fill="#000000" font-family="sans-serif" font-size="12" font-style="italic" lengthAdjust="spacing" textLength="31" x="1690" y="44.6387">actor</text><line style="stroke:#A80036;stroke-width:1.5;" x1="1632" x2="1718" y1="59.4688" y2="59.4688"/><line style="stroke:#A80036;stroke-width:1.5;" x1="1632" x2="1718" y1="67.4688" y2="67.4688"/><text fill="#000000" font-family="sans-serif" font-size="11" lengthAdjust="spacing" textLength="58" x="1637" y="81.6792">compare()</text><text fill="#000000" font-family="sans-serif" font-size="11" lengthAdjust="spacing" textLength="30" x="1637" y="94.4839">see()</text><!--MD5=[2d0fe8c154ffb14da4b88e9c9d111a6c]
class Competence--><rect codeLine="20" fill="#FEFECE" filter="url(#f69ufh5awc8s)" height="39.9688" id="Competence" style="stroke:#A80036;stroke-width:1.5;" width="83" x="846.5" y="210.5"/><text fill="#000000" font-family="sans-serif" font-size="12" lengthAdjust="spacing" textLength="77" x="849.5" y="226.6387">Competence</text><line style="stroke:#A80036;stroke-width:1.5;" x1="847.5" x2="928.5" y1="234.4688" y2="234.4688"/><line style="stroke:#A80036;stroke-width:1.5;" x1="847.5" x2="928.5" y1="242.4688" y2="242.4688"/><!--MD5=[4a7ab79f42bf463c89bf35003dabb597]
class ConflictResolutionSkill--><rect codeLine="26" fill="#FEFECE" filter="url(#f69ufh5awc8s)" height="39.9688" id="ConflictResolutionSkill" style="stroke:#A80036;stroke-width:1.5;" width="136" x="7" y="210.5"/><text fill="#000000" font-family="sans-serif" font-size="12" lengthAdjust="spacing" textLength="130" x="10" y="226.6387">ConflictResolutionSkill</text><line style="stroke:#A80036;stroke-width:1.5;" x1="8" x2="142" y1="234.4688" y2="234.4688"/><line style="stroke:#A80036;stroke-width:1.5;" x1="8" x2="142" y1="242.4688" y2="242.4688"/><!--MD5=[7421f545a0d8420c5bec41e74b387d9c]
class Employee--><rect codeLine="28" fill="#FEFECE" filter="url(#f69ufh5awc8s)" height="52.7734" id="Employee" style="stroke:#A80036;stroke-width:1.5;" width="66" x="1380" y="204"/><text fill="#000000" font-family="sans-serif" font-size="12" lengthAdjust="spacing" textLength="60" x="1383" y="220.1387">Employee</text><line style="stroke:#A80036;stroke-width:1.5;" x1="1381" x2="1445" y1="227.9688" y2="227.9688"/><line style="stroke:#A80036;stroke-width:1.5;" x1="1381" x2="1445" y1="235.9688" y2="235.9688"/><text fill="#000000" font-family="sans-serif" font-size="11" lengthAdjust="spacing" textLength="53" x="1386" y="250.1792">practice()</text><!--MD5=[4ae848d4280021f4fc2bd2749f2434fb]
class ProductConflictResolutionSkill--><rect codeLine="31" fill="#FEFECE" filter="url(#f69ufh5awc8s)" height="39.9688" id="ProductConflictResolutionSkill" style="stroke:#A80036;stroke-width:1.5;" width="181" x="1322.5" y="334"/><text fill="#000000" font-family="sans-serif" font-size="12" lengthAdjust="spacing" textLength="175" x="1325.5" y="350.1387">ProductConflictResolutionSkill</text><line style="stroke:#A80036;stroke-width:1.5;" x1="1323.5" x2="1502.5" y1="357.9688" y2="357.9688"/><line style="stroke:#A80036;stroke-width:1.5;" x1="1323.5" x2="1502.5" y1="365.9688" y2="365.9688"/><!--MD5=[706e73df52f3df32f52be1ce9adb217e]
class Graph--><rect codeLine="37" fill="#FEFECE" filter="url(#f69ufh5awc8s)" height="39.9688" id="Graph" style="stroke:#A80036;stroke-width:1.5;" width="42" x="1547" y="210.5"/><text fill="#000000" font-family="sans-serif" font-size="12" lengthAdjust="spacing" textLength="36" x="1550" y="226.6387">Graph</text><line style="stroke:#A80036;stroke-width:1.5;" x1="1548" x2="1588" y1="234.4688" y2="234.4688"/><line style="stroke:#A80036;stroke-width:1.5;" x1="1548" x2="1588" y1="242.4688" y2="242.4688"/><!--MD5=[bc787e21e543e9f9478412b4d9622c23]
class ConflictManagementSkill--><rect codeLine="39" fill="#FEFECE" filter="url(#f69ufh5awc8s)" height="39.9688" id="ConflictManagementSkill" style="stroke:#A80036;stroke-width:1.5;" width="151" x="644.5" y="210.5"/><text fill="#000000" font-family="sans-serif" font-size="12" lengthAdjust="spacing" textLength="145" x="647.5" y="226.6387">ConflictManagementSkill</text><line style="stroke:#A80036;stroke-width:1.5;" x1="645.5" x2="794.5" y1="234.4688" y2="234.4688"/><line style="stroke:#A80036;stroke-width:1.5;" x1="645.5" x2="794.5" y1="242.4688" y2="242.4688"/><!--MD5=[9aa9a4d17a8304204b9b5d7bdc48a70b]
class Practice--><rect codeLine="49" fill="#FEFECE" filter="url(#f69ufh5awc8s)" height="39.9688" id="Practice" style="stroke:#A80036;stroke-width:1.5;" width="53" x="436.5" y="210.5"/><text fill="#000000" font-family="sans-serif" font-size="12" lengthAdjust="spacing" textLength="47" x="439.5" y="226.6387">Practice</text><line style="stroke:#A80036;stroke-width:1.5;" x1="437.5" x2="488.5" y1="234.4688" y2="234.4688"/><line style="stroke:#A80036;stroke-width:1.5;" x1="437.5" x2="488.5" y1="242.4688" y2="242.4688"/><!--MD5=[107af66394bf1ebaa045812c9c475148]
class Score--><rect codeLine="51" fill="#FEFECE" filter="url(#f69ufh5awc8s)" height="39.9688" id="Score" style="stroke:#A80036;stroke-width:1.5;" width="42" x="214" y="210.5"/><text fill="#000000" font-family="sans-serif" font-size="12" lengthAdjust="spacing" textLength="36" x="217" y="226.6387">Score</text><line style="stroke:#A80036;stroke-width:1.5;" x1="215" x2="255" y1="234.4688" y2="234.4688"/><line style="stroke:#A80036;stroke-width:1.5;" x1="215" x2="255" y1="242.4688" y2="242.4688"/><!--MD5=[c33697d7d6f51a888cf1dd18fce4a280]
class ThoughtProcess--><rect codeLine="53" fill="#FEFECE" filter="url(#f69ufh5awc8s)" height="39.9688" id="ThoughtProcess" style="stroke:#A80036;stroke-width:1.5;" width="102" x="1624" y="210.5"/><text fill="#000000" font-family="sans-serif" font-size="12" lengthAdjust="spacing" textLength="96" x="1627" y="226.6387">ThoughtProcess</text><line style="stroke:#A80036;stroke-width:1.5;" x1="1625" x2="1725" y1="234.4688" y2="234.4688"/><line style="stroke:#A80036;stroke-width:1.5;" x1="1625" x2="1725" y1="242.4688" y2="242.4688"/><!--MD5=[dfb0845b8492ffe07b1ce50e003034d7]
class Team--><rect codeLine="55" fill="#FEFECE" filter="url(#f69ufh5awc8s)" height="52.7734" id="Team" style="stroke:#A80036;stroke-width:1.5;" width="63" x="678.5" y="42"/><text fill="#000000" font-family="sans-serif" font-size="12" lengthAdjust="spacing" textLength="33" x="693.5" y="58.1387">Team</text><line style="stroke:#A80036;stroke-width:1.5;" x1="679.5" x2="740.5" y1="65.9688" y2="65.9688"/><line style="stroke:#A80036;stroke-width:1.5;" x1="679.5" x2="740.5" y1="73.9688" y2="73.9688"/><text fill="#000000" font-family="sans-serif" font-size="11" lengthAdjust="spacing" textLength="51" x="684.5" y="88.1792">resolve()</text><!--MD5=[b85b2eaa9d07e18f255ffe398ebe2465]
class Conflict--><rect codeLine="58" fill="#FEFECE" filter="url(#f69ufh5awc8s)" height="39.9688" id="Conflict" style="stroke:#A80036;stroke-width:1.5;" width="50" x="536" y="210.5"/><text fill="#000000" font-family="sans-serif" font-size="12" lengthAdjust="spacing" textLength="44" x="539" y="226.6387">Conflict</text><line style="stroke:#A80036;stroke-width:1.5;" x1="537" x2="585" y1="234.4688" y2="234.4688"/><line style="stroke:#A80036;stroke-width:1.5;" x1="537" x2="585" y1="242.4688" y2="242.4688"/><!--MD5=[4034599964776293c58b00793c120f39]
class Training--><rect codeLine="63" fill="#FEFECE" filter="url(#f69ufh5awc8s)" height="39.9688" id="Training" style="stroke:#A80036;stroke-width:1.5;" width="53" x="1187.5" y="210.5"/><text fill="#000000" font-family="sans-serif" font-size="12" lengthAdjust="spacing" textLength="47" x="1190.5" y="226.6387">Training</text><line style="stroke:#A80036;stroke-width:1.5;" x1="1188.5" x2="1239.5" y1="234.4688" y2="234.4688"/><line style="stroke:#A80036;stroke-width:1.5;" x1="1188.5" x2="1239.5" y1="242.4688" y2="242.4688"/><!--MD5=[3db53164d4ddbdea4156eda8a776d7e7]
class Decision--><rect codeLine="65" fill="#FEFECE" filter="url(#f69ufh5awc8s)" height="39.9688" id="Decision" style="stroke:#A80036;stroke-width:1.5;" width="58" x="1761" y="210.5"/><text fill="#000000" font-family="sans-serif" font-size="12" lengthAdjust="spacing" textLength="52" x="1764" y="226.6387">Decision</text><line style="stroke:#A80036;stroke-width:1.5;" x1="1762" x2="1818" y1="234.4688" y2="234.4688"/><line style="stroke:#A80036;stroke-width:1.5;" x1="1762" x2="1818" y1="242.4688" y2="242.4688"/><!--MD5=[175f95e045c1a44aed0b30df3abe0e5c]
class Program--><rect codeLine="67" fill="#FEFECE" filter="url(#f69ufh5awc8s)" height="52.7734" id="Program" style="stroke:#A80036;stroke-width:1.5;" width="78" x="965" y="204"/><text fill="#000000" font-family="sans-serif" font-size="12" lengthAdjust="spacing" textLength="50" x="979" y="220.1387">Program</text><line style="stroke:#A80036;stroke-width:1.5;" x1="966" x2="1042" y1="227.9688" y2="227.9688"/><line style="stroke:#A80036;stroke-width:1.5;" x1="966" x2="1042" y1="235.9688" y2="235.9688"/><text fill="#000000" font-family="sans-serif" font-size="11" lengthAdjust="spacing" textLength="66" x="971" y="250.1792">integrates()</text><!--MD5=[8d1280e58717f51acd6181606489346b]
class Assessment--><rect codeLine="73" fill="#FEFECE" filter="url(#f69ufh5awc8s)" height="39.9688" id="Assessment" style="stroke:#A80036;stroke-width:1.5;" width="80" x="321" y="210.5"/><text fill="#000000" font-family="sans-serif" font-size="12" lengthAdjust="spacing" textLength="74" x="324" y="226.6387">Assessment</text><line style="stroke:#A80036;stroke-width:1.5;" x1="322" x2="400" y1="234.4688" y2="234.4688"/><line style="stroke:#A80036;stroke-width:1.5;" x1="322" x2="400" y1="242.4688" y2="242.4688"/><!--MD5=[33786da20871495ab13e197ee854b40c]
class Confidence--><rect codeLine="75" fill="#FEFECE" filter="url(#f69ufh5awc8s)" height="39.9688" id="Confidence" style="stroke:#A80036;stroke-width:1.5;" width="74" x="1078" y="210.5"/><text fill="#000000" font-family="sans-serif" font-size="12" lengthAdjust="spacing" textLength="68" x="1081" y="226.6387">Confidence</text><line style="stroke:#A80036;stroke-width:1.5;" x1="1079" x2="1151" y1="234.4688" y2="234.4688"/><line style="stroke:#A80036;stroke-width:1.5;" x1="1079" x2="1151" y1="242.4688" y2="242.4688"/><!--MD5=[572ed6b619d9df2e4892c2de18186e7d]
class Experience--><rect codeLine="77" fill="#FEFECE" filter="url(#f69ufh5awc8s)" height="39.9688" id="Experience" style="stroke:#A80036;stroke-width:1.5;" width="74" x="967" y="334"/><text fill="#000000" font-family="sans-serif" font-size="12" lengthAdjust="spacing" textLength="68" x="970" y="350.1387">Experience</text><line style="stroke:#A80036;stroke-width:1.5;" x1="968" x2="1040" y1="357.9688" y2="357.9688"/><line style="stroke:#A80036;stroke-width:1.5;" x1="968" x2="1040" y1="365.9688" y2="365.9688"/><!--MD5=[731a1bb7661fe1a097a4b189513947b9]
link CollegeStudent to Program--><path codeLine="79" d="M955.344,101.878 C966.171,130.278 981.798,171.265 992.398,199.069 " fill="none" id="CollegeStudent-to-Program" style="stroke:#A80036;stroke-width:1.0;"/><polygon fill="#A80036" points="994.186,203.757,994.7166,193.9224,992.4044,199.0852,987.2417,196.773,994.186,203.757" style="stroke:#A80036;stroke-width:1.0;"/><text fill="#000000" font-family="sans-serif" font-size="13" lengthAdjust="spacing" textLength="23" x="984" y="170.0669">use</text><!--MD5=[925a1c1f0a703a064621624b7e6aa35a]
link MBVStudent to ConflictResolutionSkill--><path codeLine="80" d="M80.6973,101.718 C70.2897,117.498 59.3195,137.31 54,157 C49.5784,173.367 54.9893,191.707 61.4238,205.847 " fill="none" id="MBVStudent-to-ConflictResolutionSkill" style="stroke:#A80036;stroke-width:1.0;"/><polygon fill="#A80036" points="63.6325,210.472,63.3644,200.6268,61.4782,205.9599,56.145,204.0737,63.6325,210.472" style="stroke:#A80036;stroke-width:1.0;"/><text fill="#000000" font-family="sans-serif" font-size="13" lengthAdjust="spacing" textLength="53" x="55" y="170.0669">improve</text><!--MD5=[490aa40ea827d125a5eac37759a6a619]
link Team to Conflict--><path codeLine="81" d="M705.929,95.022 C701.097,118.048 691.024,151.641 671,174 C659.567,186.766 619.353,205.294 590.865,217.369 " fill="none" id="Team-to-Conflict" style="stroke:#A80036;stroke-width:1.0;"/><polygon fill="#A80036" points="586.047,219.398,595.8939,219.5928,590.6553,217.4581,592.7901,212.2195,586.047,219.398" style="stroke:#A80036;stroke-width:1.0;"/><text fill="#000000" font-family="sans-serif" font-size="13" lengthAdjust="spacing" textLength="47" x="683" y="170.0669">resolve</text><!--MD5=[3a5060022e168ef3e0a3d5472d1cfd8f]
link Executive to Employee--><path codeLine="82" d="M1413,95.207 C1413,123.432 1413,168.728 1413,198.798 " fill="none" id="Executive-to-Employee" style="stroke:#A80036;stroke-width:1.0;"/><polygon fill="#A80036" points="1413,203.857,1417,194.857,1413,198.857,1409,194.857,1413,203.857" style="stroke:#A80036;stroke-width:1.0;"/><text fill="#000000" font-family="sans-serif" font-size="13" lengthAdjust="spacing" textLength="68" x="1414" y="170.0669">encourage</text><!--MD5=[c319ba4ab13f8b83e1354813aeb9f669]
link AdultLearner to ConflictManagementSkill--><path codeLine="83" d="M475.608,102.367 C513.231,123.266 563.25,150.683 608,174 C630.275,185.607 655.303,198.063 676.041,208.229 " fill="none" id="AdultLearner-to-ConflictManagementSkill" style="stroke:#A80036;stroke-width:1.0;"/><polygon fill="#A80036" points="680.67,210.495,674.3451,202.9454,676.1792,208.2967,670.8279,210.1308,680.67,210.495" style="stroke:#A80036;stroke-width:1.0;"/><text fill="#000000" font-family="sans-serif" font-size="13" lengthAdjust="spacing" textLength="53" x="609" y="170.0669">improve</text><!--MD5=[3b1c3ab71c6415370503305d4fe03025]
link Employee to ProductConflictResolutionSkill--><path codeLine="84" d="M1413,257.267 C1413,278.3301 1413,307.9042 1413,328.5902 " fill="none" id="Employee-to-ProductConflictResolutionSkill" style="stroke:#A80036;stroke-width:1.0;"/><polygon fill="#A80036" points="1413,333.6472,1417,324.6472,1413,328.6472,1409,324.6472,1413,333.6472" style="stroke:#A80036;stroke-width:1.0;"/><text fill="#000000" font-family="sans-serif" font-size="13" lengthAdjust="spacing" textLength="51" x="1414" y="300.0669">practice</text><!--MD5=[c4daed6fabdec7ad79f4c33ce646bda1]
link AdultLearner to Assessment--><path codeLine="85" d="M396.783,127.264 C387.327,154.279 376.586,184.969 369.36,205.614 " fill="none" id="AdultLearner-to-Assessment" style="stroke:#A80036;stroke-width:1.0;"/><polygon fill="#A80036" points="367.692,210.379,374.4398,203.2049,369.3432,205.6595,366.8887,200.563,367.692,210.379" style="stroke:#A80036;stroke-width:1.0;"/><text fill="#000000" font-family="sans-serif" font-size="13" lengthAdjust="spacing" textLength="28" x="387" y="170.0669">take</text><!--MD5=[067a5ee38485d85e4864f08046fcae2d]
link MBVStudent to Score--><path codeLine="86" d="M113.15,101.896 C119.952,124.032 131.412,153.039 149,174 C165.321,193.451 190.215,208.479 209.028,217.962 " fill="none" id="MBVStudent-to-Score" style="stroke:#A80036;stroke-width:1.0;"/><polygon fill="#A80036" points="213.671,220.253,207.3703,212.6833,209.1872,218.0404,203.8301,219.8573,213.671,220.253" style="stroke:#A80036;stroke-width:1.0;"/><text fill="#000000" font-family="sans-serif" font-size="13" lengthAdjust="spacing" textLength="23" x="150" y="170.0669">use</text><!--MD5=[58e3b1544f0dadd8cb8f0ca47030f1d3]
link Veteran to Graph--><path codeLine="87" d="M1653.35,101.878 C1632.71,132.735 1602.14,178.453 1583.73,205.974 " fill="none" id="Veteran-to-Graph" style="stroke:#A80036;stroke-width:1.0;"/><polygon fill="#A80036" points="1580.89,210.23,1589.218,204.9722,1583.6694,206.0737,1582.5679,200.5251,1580.89,210.23" style="stroke:#A80036;stroke-width:1.0;"/><text fill="#000000" font-family="sans-serif" font-size="13" lengthAdjust="spacing" textLength="23" x="1617" y="170.0669">see</text><!--MD5=[8b2005a5b5a7cdad2d70000be2a751f0]
link CollegeStudent to Confidence--><path codeLine="88" d="M977.807,101.878 C1011.25,132.989 1060.93,179.207 1090.44,206.65 " fill="none" id="CollegeStudent-to-Confidence" style="stroke:#A80036;stroke-width:1.0;"/><polygon fill="#A80036" points="1094.28,210.23,1090.4257,201.1666,1090.6232,206.82,1084.9698,207.0175,1094.28,210.23" style="stroke:#A80036;stroke-width:1.0;"/><text fill="#000000" font-family="sans-serif" font-size="13" lengthAdjust="spacing" textLength="53" x="1056" y="170.0669">improve</text><!--MD5=[aa674369491122573687637a03a1aa91]
link Program to Experience--><path codeLine="89" d="M1004,257.267 C1004,278.3301 1004,307.9042 1004,328.5902 " fill="none" id="Program-to-Experience" style="stroke:#A80036;stroke-width:1.0;"/><polygon fill="#A80036" points="1004,333.6472,1008,324.6472,1004,328.6472,1000,324.6472,1004,333.6472" style="stroke:#A80036;stroke-width:1.0;"/><text fill="#000000" font-family="sans-serif" font-size="13" lengthAdjust="spacing" textLength="65" x="1005" y="300.0669">integrates</text><!--MD5=[40640b81d0e2c468590501ba649192b8]
link CollegeStudent to ConflictManagementSkill--><path codeLine="90" d="M898.141,101.686 C854.509,132.991 789.372,179.726 751.136,207.16 " fill="none" id="CollegeStudent-to-ConflictManagementSkill" style="stroke:#A80036;stroke-width:1.0;"/><polygon fill="#A80036" points="746.61,210.408,756.2546,208.4126,750.6729,207.4937,751.5917,201.912,746.61,210.408" style="stroke:#A80036;stroke-width:1.0;"/><text fill="#000000" font-family="sans-serif" font-size="13" lengthAdjust="spacing" textLength="53" x="820" y="170.0669">improve</text><!--MD5=[04ee95632ff0c5837e827930e82bb9db]
link AdultLearner to Score--><path codeLine="91" d="M358.412,121.006 C325.27,150.142 285.53,185.078 260.272,207.283 " fill="none" id="AdultLearner-to-Score" style="stroke:#A80036;stroke-width:1.0;"/><polygon fill="#A80036" points="256.346,210.735,265.7465,207.7973,260.1014,207.4339,260.4647,201.7887,256.346,210.735" style="stroke:#A80036;stroke-width:1.0;"/><text fill="#000000" font-family="sans-serif" font-size="13" lengthAdjust="spacing" textLength="30" x="317" y="170.0669">view</text><!--MD5=[c6302a5f6352cc1ce0533847f4b5cad1]
link AdultLearner to Practice--><path codeLine="92" d="M433.607,127.264 C441.341,154.165 450.123,184.71 456.058,205.352 " fill="none" id="AdultLearner-to-Practice" style="stroke:#A80036;stroke-width:1.0;"/><polygon fill="#A80036" points="457.503,210.379,458.8609,200.6242,456.1217,205.5736,451.1723,202.8343,457.503,210.379" style="stroke:#A80036;stroke-width:1.0;"/><text fill="#000000" font-family="sans-serif" font-size="13" lengthAdjust="spacing" textLength="32" x="448" y="170.0669">have</text><!--MD5=[a497c16c9e7834d19f20b4aad9ca86bf]
link Veteran to ThoughtProcess--><path codeLine="93" d="M1675,101.878 C1675,132.354 1675,177.327 1675,204.947 " fill="none" id="Veteran-to-ThoughtProcess" style="stroke:#A80036;stroke-width:1.0;"/><polygon fill="#A80036" points="1675,210.23,1679,201.23,1675,205.23,1671,201.23,1675,210.23" style="stroke:#A80036;stroke-width:1.0;"/><text fill="#000000" font-family="sans-serif" font-size="13" lengthAdjust="spacing" textLength="57" x="1676" y="170.0669">compare</text><!--MD5=[a2856a8e46165d4334dc37b45ce87188]
link AdultLearner to ConflictResolutionSkill--><path codeLine="94" d="M358.208,97.005 C290.828,128.528 181.833,179.52 120.568,208.181 " fill="none" id="AdultLearner-to-ConflictResolutionSkill" style="stroke:#A80036;stroke-width:1.0;"/><polygon fill="#A80036" points="115.879,210.375,125.726,210.1831,120.4076,208.2556,122.335,202.9373,115.879,210.375" style="stroke:#A80036;stroke-width:1.0;"/><text fill="#000000" font-family="sans-serif" font-size="13" lengthAdjust="spacing" textLength="51" x="227" y="170.0669">practice</text><!--MD5=[b11b2c2f0e27f7982e77d7234dce49d5]
link ExperientialLearningCenterStaff to Training--><path codeLine="95" d="M1214,95.207 C1214,125.477 1214,175.384 1214,205.083 " fill="none" id="ExperientialLearningCenterStaff-to-Training" style="stroke:#A80036;stroke-width:1.0;"/><polygon fill="#A80036" points="1214,210.384,1218,201.384,1214,205.384,1210,201.384,1214,210.384" style="stroke:#A80036;stroke-width:1.0;"/><text fill="#000000" font-family="sans-serif" font-size="13" lengthAdjust="spacing" textLength="28" x="1215" y="170.0669">take</text><!--MD5=[11935107cb74dc19541e12dd4b955aa9]
link AdultLearner to Conflict--><path codeLine="96" d="M468.987,127.264 C493.711,154.735 521.855,186.006 540.436,206.651 " fill="none" id="AdultLearner-to-Conflict" style="stroke:#A80036;stroke-width:1.0;"/><polygon fill="#A80036" points="543.791,210.379,540.7451,201.013,540.4468,206.662,534.7978,206.3637,543.791,210.379" style="stroke:#A80036;stroke-width:1.0;"/><text fill="#000000" font-family="sans-serif" font-size="13" lengthAdjust="spacing" textLength="47" x="512" y="170.0669">resolve</text><!--MD5=[87a5b4f3c0da2ee83c7eccde9808d3ef]
link Veteran to Decision--><path codeLine="97" d="M1700.36,101.515 C1713.12,117.908 1728.68,138.302 1742,157 C1753.51,173.154 1765.85,191.827 1775.14,206.176 " fill="none" id="Veteran-to-Decision" style="stroke:#A80036;stroke-width:1.0;"/><polygon fill="#A80036" points="1777.92,210.483,1776.3992,200.7523,1775.2081,206.2823,1769.6781,205.0913,1777.92,210.483" style="stroke:#A80036;stroke-width:1.0;"/><text fill="#000000" font-family="sans-serif" font-size="13" lengthAdjust="spacing" textLength="57" x="1754" y="170.0669">compare</text><!--MD5=[c8d08300d3e283201b950d5f685f2af7]
link CollegeStudent to Competence--><path codeLine="98" d="M924.873,101.872 C916.513,118.011 907.112,138.079 901,157 C895.923,172.714 892.66,191.024 890.673,205.311 " fill="none" id="CollegeStudent-to-Competence" style="stroke:#A80036;stroke-width:1.0;"/><polygon fill="#A80036" points="889.998,210.381,895.1535,201.9893,890.6595,205.4249,887.2238,200.9309,889.998,210.381" style="stroke:#A80036;stroke-width:1.0;"/><text fill="#000000" font-family="sans-serif" font-size="13" lengthAdjust="spacing" textLength="53" x="902" y="170.0669">improve</text><!--MD5=[391ae634562cb4002e830731bf5cd55f]
@startuml
hide circle
class AdultLearner<actor> {
}
class ExperientialLearningCenterStaff<actor> {
}
class CollegeStudent<actor> {
}
class MBVStudent<actor> {
}
class Executive<actor> {
}
class Employer<actor> {
}
class Veteran<actor> {
}
class CollegeStudent {
	improve()
	use()
}
class Competence {
}
class MBVStudent {
	improve()
	use()
}
class ConflictResolutionSkill {
}
class Employee {
	practice()
}
class ProductConflictResolutionSkill {
}
class Veteran {
	compare()
	see()
}
class Graph {
}
class ConflictManagementSkill {
}
class AdultLearner {
	take()
	have()
	improve()
	resolve()
	practice()
	view()
}
class Practice {
}
class Score {
}
class ThoughtProcess {
}
class Team {
	resolve()
}
class Conflict {
}
class ExperientialLearningCenterStaff {
	take()
}
class Training {
}
class Decision {
}
class Program {
	integrates()
}
class Executive {
	encourage()
}
class Assessment {
}
class Confidence {
}
class Experience {
}
CollegeStudent - -> Program : use
MBVStudent - -> ConflictResolutionSkill : improve
Team - -> Conflict : resolve
Executive - -> Employee : encourage
AdultLearner - -> ConflictManagementSkill : improve
Employee - -> ProductConflictResolutionSkill : practice
AdultLearner - -> Assessment : take
MBVStudent - -> Score : use
Veteran - -> Graph : see
CollegeStudent - -> Confidence : improve
Program - -> Experience : integrates
CollegeStudent - -> ConflictManagementSkill : improve
AdultLearner - -> Score : view
AdultLearner - -> Practice : have
Veteran - -> ThoughtProcess : compare
AdultLearner - -> ConflictResolutionSkill : practice
ExperientialLearningCenterStaff - -> Training : take
AdultLearner - -> Conflict : resolve
Veteran - -> Decision : compare
CollegeStudent - -> Competence : improve
@enduml

PlantUML version 1.2021.6beta6(Unknown compile time)
(GPL source distribution)
Java Runtime: Java(TM) SE Runtime Environment
JVM: Java HotSpot(TM) 64-Bit Server VM
Default Encoding: UTF-8
Language: en
Country: US
--></g></svg>