<?xml version="1.0" encoding="UTF-8" standalone="no"?><svg xmlns="http://www.w3.org/2000/svg" xmlns:xlink="http://www.w3.org/1999/xlink" contentScriptType="application/ecmascript" contentStyleType="text/css" height="811px" preserveAspectRatio="none" style="width:3303px;height:811px;background:#FFFFFF;" version="1.1" viewBox="0 0 3303 811" width="3303px" zoomAndPan="magnify"><defs><filter height="300%" id="f16paz6znsgkli" width="300%" x="-1" y="-1"><feGaussianBlur result="blurOut" stdDeviation="2.0"/><feColorMatrix in="blurOut" result="blurOut2" type="matrix" values="0 0 0 0 0 0 0 0 0 0 0 0 0 0 0 0 0 0 .4 0"/><feOffset dx="4.0" dy="4.0" in="blurOut2" result="blurOut3"/><feBlend in="SourceGraphic" in2="blurOut3" mode="normal"/></filter></defs><g><!--MD5=[3fd616f346a44cd59a91eb10b19e157c]
class User--><rect codeLine="22" fill="#FEFECE" filter="url(#f16paz6znsgkli)" height="270.4531" id="User" style="stroke:#A80036;stroke-width:1.5;" width="76" x="1307.1742" y="281"/><text fill="#000000" font-family="sans-serif" font-size="12" lengthAdjust="spacing" textLength="29" x="1313.1742" y="297.1387">User</text><rect fill="#FFFFFF" height="15.9688" style="stroke:#000000;stroke-width:1.0;stroke-dasharray:2.0,2.0;" width="33" x="1353.1742" y="278"/><text fill="#000000" font-family="sans-serif" font-size="12" font-style="italic" lengthAdjust="spacing" textLength="31" x="1354.1742" y="290.1387">actor</text><line style="stroke:#A80036;stroke-width:1.5;" x1="1308.1742" x2="1382.1742" y1="304.9688" y2="304.9688"/><line style="stroke:#A80036;stroke-width:1.5;" x1="1308.1742" x2="1382.1742" y1="312.9688" y2="312.9688"/><text fill="#000000" font-family="sans-serif" font-size="11" lengthAdjust="spacing" textLength="53" x="1313.1742" y="327.1792">remove()</text><text fill="#000000" font-family="sans-serif" font-size="11" lengthAdjust="spacing" textLength="53" x="1313.1742" y="339.9839">reserve()</text><text fill="#000000" font-family="sans-serif" font-size="11" lengthAdjust="spacing" textLength="37" x="1313.1742" y="352.7886">keep()</text><text fill="#000000" font-family="sans-serif" font-size="11" lengthAdjust="spacing" textLength="46" x="1313.1742" y="365.5933">upload()</text><text fill="#000000" font-family="sans-serif" font-size="11" lengthAdjust="spacing" textLength="36" x="1313.1742" y="378.3979">write()</text><text fill="#000000" font-family="sans-serif" font-size="11" lengthAdjust="spacing" textLength="29" x="1313.1742" y="391.2026">use()</text><text fill="#000000" font-family="sans-serif" font-size="11" lengthAdjust="spacing" textLength="36" x="1313.1742" y="404.0073">save()</text><text fill="#000000" font-family="sans-serif" font-size="11" lengthAdjust="spacing" textLength="32" x="1313.1742" y="416.812">post()</text><text fill="#000000" font-family="sans-serif" font-size="11" lengthAdjust="spacing" textLength="32" x="1313.1742" y="429.6167">shut()</text><text fill="#000000" font-family="sans-serif" font-size="11" lengthAdjust="spacing" textLength="28" x="1313.1742" y="442.4214">like()</text><text fill="#000000" font-family="sans-serif" font-size="11" lengthAdjust="spacing" textLength="46" x="1313.1742" y="455.2261">delete()</text><text fill="#000000" font-family="sans-serif" font-size="11" lengthAdjust="spacing" textLength="64" x="1313.1742" y="468.0308">moderate()</text><text fill="#000000" font-family="sans-serif" font-size="11" lengthAdjust="spacing" textLength="37" x="1313.1742" y="480.8354">have()</text><text fill="#000000" font-family="sans-serif" font-size="11" lengthAdjust="spacing" textLength="42" x="1313.1742" y="493.6401">report()</text><text fill="#000000" font-family="sans-serif" font-size="11" lengthAdjust="spacing" textLength="49" x="1313.1742" y="506.4448">choose()</text><text fill="#000000" font-family="sans-serif" font-size="11" lengthAdjust="spacing" textLength="33" x="1313.1742" y="519.2495">take()</text><text fill="#000000" font-family="sans-serif" font-size="11" lengthAdjust="spacing" textLength="29" x="1313.1742" y="532.0542">sort()</text><text fill="#000000" font-family="sans-serif" font-size="11" lengthAdjust="spacing" textLength="45" x="1313.1742" y="544.8589">create()</text><!--MD5=[db6d18d8099558415abc41d00477ab92]
class Admin--><rect codeLine="6" fill="#FEFECE" filter="url(#f16paz6znsgkli)" height="193.625" id="Admin" style="stroke:#A80036;stroke-width:1.5;" width="78" x="2300.1742" y="10"/><text fill="#000000" font-family="sans-serif" font-size="12" lengthAdjust="spacing" textLength="37" x="2303.1742" y="26.1387">Admin</text><rect fill="#FFFFFF" height="15.9688" style="stroke:#000000;stroke-width:1.0;stroke-dasharray:2.0,2.0;" width="33" x="2348.1742" y="7"/><text fill="#000000" font-family="sans-serif" font-size="12" font-style="italic" lengthAdjust="spacing" textLength="31" x="2349.1742" y="19.1387">actor</text><line style="stroke:#A80036;stroke-width:1.5;" x1="2301.1742" x2="2377.1742" y1="33.9688" y2="33.9688"/><line style="stroke:#A80036;stroke-width:1.5;" x1="2301.1742" x2="2377.1742" y1="41.9688" y2="41.9688"/><text fill="#000000" font-family="sans-serif" font-size="11" lengthAdjust="spacing" textLength="50" x="2306.1742" y="56.1792">change()</text><text fill="#000000" font-family="sans-serif" font-size="11" lengthAdjust="spacing" textLength="53" x="2306.1742" y="68.9839">perform()</text><text fill="#000000" font-family="sans-serif" font-size="11" lengthAdjust="spacing" textLength="61" x="2306.1742" y="81.7886">generate()</text><text fill="#000000" font-family="sans-serif" font-size="11" lengthAdjust="spacing" textLength="24" x="2306.1742" y="94.5933">list()</text><text fill="#000000" font-family="sans-serif" font-size="11" lengthAdjust="spacing" textLength="46" x="2306.1742" y="107.3979">delete()</text><text fill="#000000" font-family="sans-serif" font-size="11" lengthAdjust="spacing" textLength="56" x="2306.1742" y="120.2026">suspend()</text><text fill="#000000" font-family="sans-serif" font-size="11" lengthAdjust="spacing" textLength="55" x="2306.1742" y="133.0073">manage()</text><text fill="#000000" font-family="sans-serif" font-size="11" lengthAdjust="spacing" textLength="37" x="2306.1742" y="145.812">have()</text><text fill="#000000" font-family="sans-serif" font-size="11" lengthAdjust="spacing" textLength="49" x="2306.1742" y="158.6167">browse()</text><text fill="#000000" font-family="sans-serif" font-size="11" lengthAdjust="spacing" textLength="49" x="2306.1742" y="171.4214">restore()</text><text fill="#000000" font-family="sans-serif" font-size="11" lengthAdjust="spacing" textLength="48" x="2306.1742" y="184.2261">update()</text><text fill="#000000" font-family="sans-serif" font-size="11" lengthAdjust="spacing" textLength="45" x="2306.1742" y="197.0308">create()</text><!--MD5=[2ae020d8583ade4ba5526b35f6139d98]
class SystemSetting--><rect codeLine="20" fill="#FEFECE" filter="url(#f16paz6znsgkli)" height="39.9688" id="SystemSetting" style="stroke:#A80036;stroke-width:1.5;" width="93" x="139.6732" y="396"/><text fill="#000000" font-family="sans-serif" font-size="12" lengthAdjust="spacing" textLength="87" x="142.6732" y="412.1387">SystemSetting</text><line style="stroke:#A80036;stroke-width:1.5;" x1="140.6732" x2="231.6732" y1="419.9688" y2="419.9688"/><line style="stroke:#A80036;stroke-width:1.5;" x1="140.6732" x2="231.6732" y1="427.9688" y2="427.9688"/><!--MD5=[e2e04970b1b3f4a5a26dfa860353efc5]
class Control--><rect codeLine="42" fill="#FEFECE" filter="url(#f16paz6znsgkli)" height="39.9688" id="Control" style="stroke:#A80036;stroke-width:1.5;" width="49" x="1873.6742" y="758"/><text fill="#000000" font-family="sans-serif" font-size="12" lengthAdjust="spacing" textLength="43" x="1876.6742" y="774.1387">Control</text><line style="stroke:#A80036;stroke-width:1.5;" x1="1874.6742" x2="1921.6742" y1="781.9688" y2="781.9688"/><line style="stroke:#A80036;stroke-width:1.5;" x1="1874.6742" x2="1921.6742" y1="789.9688" y2="789.9688"/><!--MD5=[18b89e0834131a909517048318a5909c]
class Picture--><rect codeLine="44" fill="#FEFECE" filter="url(#f16paz6znsgkli)" height="52.7734" id="Picture" style="stroke:#A80036;stroke-width:1.5;" width="46" x="1875.1742" y="628"/><text fill="#000000" font-family="sans-serif" font-size="12" lengthAdjust="spacing" textLength="40" x="1878.1742" y="644.1387">Picture</text><line style="stroke:#A80036;stroke-width:1.5;" x1="1876.1742" x2="1920.1742" y1="651.9688" y2="651.9688"/><line style="stroke:#A80036;stroke-width:1.5;" x1="1876.1742" x2="1920.1742" y1="659.9688" y2="659.9688"/><text fill="#000000" font-family="sans-serif" font-size="11" lengthAdjust="spacing" textLength="33" x="1881.1742" y="674.1792">give()</text><!--MD5=[ac13618b1a974308c1f12eb6c57723dc]
class Event--><rect codeLine="47" fill="#FEFECE" filter="url(#f16paz6znsgkli)" height="39.9688" id="Event" style="stroke:#A80036;stroke-width:1.5;" width="39" x="238.6732" y="634.5"/><text fill="#000000" font-family="sans-serif" font-size="12" lengthAdjust="spacing" textLength="33" x="241.6732" y="650.6387">Event</text><line style="stroke:#A80036;stroke-width:1.5;" x1="239.6732" x2="276.6732" y1="658.4688" y2="658.4688"/><line style="stroke:#A80036;stroke-width:1.5;" x1="239.6732" x2="276.6732" y1="666.4688" y2="666.4688"/><!--MD5=[3833dfc58284d688f88001bd4346281f]
class Public--><rect codeLine="49" fill="#FEFECE" filter="url(#f16paz6znsgkli)" height="39.9688" id="Public" style="stroke:#A80036;stroke-width:1.5;" width="40" x="483.1732" y="634.5"/><text fill="#000000" font-family="sans-serif" font-size="12" lengthAdjust="spacing" textLength="34" x="486.1732" y="650.6387">Public</text><line style="stroke:#A80036;stroke-width:1.5;" x1="484.1732" x2="522.1732" y1="658.4688" y2="658.4688"/><line style="stroke:#A80036;stroke-width:1.5;" x1="484.1732" x2="522.1732" y1="666.4688" y2="666.4688"/><!--MD5=[a805b40f8193e3b705560a3818c5c109]
class Photo--><rect codeLine="51" fill="#FEFECE" filter="url(#f16paz6znsgkli)" height="39.9688" id="Photo" style="stroke:#A80036;stroke-width:1.5;" width="39" x="602.6732" y="634.5"/><text fill="#000000" font-family="sans-serif" font-size="12" lengthAdjust="spacing" textLength="33" x="605.6732" y="650.6387">Photo</text><line style="stroke:#A80036;stroke-width:1.5;" x1="603.6732" x2="640.6732" y1="658.4688" y2="658.4688"/><line style="stroke:#A80036;stroke-width:1.5;" x1="603.6732" x2="640.6732" y1="666.4688" y2="666.4688"/><!--MD5=[5b90e4d4f77308a929aa4d17d3ae3119]
class Login--><rect codeLine="53" fill="#FEFECE" filter="url(#f16paz6znsgkli)" height="39.9688" id="Login" style="stroke:#A80036;stroke-width:1.5;" width="38" x="775.1732" y="634.5"/><text fill="#000000" font-family="sans-serif" font-size="12" lengthAdjust="spacing" textLength="32" x="778.1732" y="650.6387">Login</text><line style="stroke:#A80036;stroke-width:1.5;" x1="776.1732" x2="812.1732" y1="658.4688" y2="658.4688"/><line style="stroke:#A80036;stroke-width:1.5;" x1="776.1732" x2="812.1732" y1="666.4688" y2="666.4688"/><!--MD5=[a0f02e87dd82ec61d27b7cbd212f52db]
class AdminFeature--><rect codeLine="55" fill="#FEFECE" filter="url(#f16paz6znsgkli)" height="39.9688" id="AdminFeature" style="stroke:#A80036;stroke-width:1.5;" width="89" x="2416.6742" y="396"/><text fill="#000000" font-family="sans-serif" font-size="12" lengthAdjust="spacing" textLength="83" x="2419.6742" y="412.1387">AdminFeature</text><line style="stroke:#A80036;stroke-width:1.5;" x1="2417.6742" x2="2504.6742" y1="419.9688" y2="419.9688"/><line style="stroke:#A80036;stroke-width:1.5;" x1="2417.6742" x2="2504.6742" y1="427.9688" y2="427.9688"/><!--MD5=[0b89d373aa748124267f386155d3b5a5]
class Hashtag--><rect codeLine="57" fill="#FEFECE" filter="url(#f16paz6znsgkli)" height="39.9688" id="Hashtag" style="stroke:#A80036;stroke-width:1.5;" width="55" x="885.6732" y="634.5"/><text fill="#000000" font-family="sans-serif" font-size="12" lengthAdjust="spacing" textLength="49" x="888.6732" y="650.6387">Hashtag</text><line style="stroke:#A80036;stroke-width:1.5;" x1="886.6732" x2="939.6732" y1="658.4688" y2="658.4688"/><line style="stroke:#A80036;stroke-width:1.5;" x1="886.6732" x2="939.6732" y1="666.4688" y2="666.4688"/><!--MD5=[f00dbe8c0302c6aec2cb26b3c659c8fc]
class Report--><rect codeLine="59" fill="#FEFECE" filter="url(#f16paz6znsgkli)" height="39.9688" id="Report" style="stroke:#A80036;stroke-width:1.5;" width="46" x="2541.1742" y="396"/><text fill="#000000" font-family="sans-serif" font-size="12" lengthAdjust="spacing" textLength="40" x="2544.1742" y="412.1387">Report</text><line style="stroke:#A80036;stroke-width:1.5;" x1="2542.1742" x2="2586.1742" y1="419.9688" y2="419.9688"/><line style="stroke:#A80036;stroke-width:1.5;" x1="2542.1742" x2="2586.1742" y1="427.9688" y2="427.9688"/><!--MD5=[0b4e4b4980470ea387cc45de9bd14b5b]
class Application--><rect codeLine="61" fill="#FEFECE" filter="url(#f16paz6znsgkli)" height="39.9688" id="Application" style="stroke:#A80036;stroke-width:1.5;" width="72" x="1041.1742" y="634.5"/><text fill="#000000" font-family="sans-serif" font-size="12" lengthAdjust="spacing" textLength="66" x="1044.1742" y="650.6387">Application</text><line style="stroke:#A80036;stroke-width:1.5;" x1="1042.1742" x2="1112.1742" y1="658.4688" y2="658.4688"/><line style="stroke:#A80036;stroke-width:1.5;" x1="1042.1742" x2="1112.1742" y1="666.4688" y2="666.4688"/><!--MD5=[670382207858ea18b37accb7fa92be09]
class Radius--><rect codeLine="63" fill="#FEFECE" filter="url(#f16paz6znsgkli)" height="39.9688" id="Radius" style="stroke:#A80036;stroke-width:1.5;" width="45" x="1148.6742" y="634.5"/><text fill="#000000" font-family="sans-serif" font-size="12" lengthAdjust="spacing" textLength="39" x="1151.6742" y="650.6387">Radius</text><line style="stroke:#A80036;stroke-width:1.5;" x1="1149.6742" x2="1192.6742" y1="658.4688" y2="658.4688"/><line style="stroke:#A80036;stroke-width:1.5;" x1="1149.6742" x2="1192.6742" y1="666.4688" y2="666.4688"/><!--MD5=[9fdfd77c95b90defc9954a01606338dd]
class ExpirationDate--><rect codeLine="65" fill="#FEFECE" filter="url(#f16paz6znsgkli)" height="39.9688" id="ExpirationDate" style="stroke:#A80036;stroke-width:1.5;" width="93" x="2622.6742" y="396"/><text fill="#000000" font-family="sans-serif" font-size="12" lengthAdjust="spacing" textLength="87" x="2625.6742" y="412.1387">ExpirationDate</text><line style="stroke:#A80036;stroke-width:1.5;" x1="2623.6742" x2="2714.6742" y1="419.9688" y2="419.9688"/><line style="stroke:#A80036;stroke-width:1.5;" x1="2623.6742" x2="2714.6742" y1="427.9688" y2="427.9688"/><!--MD5=[53f6a92bd21ca2f2960392a061f3a1c6]
class Name--><rect codeLine="67" fill="#FEFECE" filter="url(#f16paz6znsgkli)" height="39.9688" id="Name" style="stroke:#A80036;stroke-width:1.5;" width="40" x="2751.1742" y="396"/><text fill="#000000" font-family="sans-serif" font-size="12" lengthAdjust="spacing" textLength="34" x="2754.1742" y="412.1387">Name</text><line style="stroke:#A80036;stroke-width:1.5;" x1="2752.1742" x2="2790.1742" y1="419.9688" y2="419.9688"/><line style="stroke:#A80036;stroke-width:1.5;" x1="2752.1742" x2="2790.1742" y1="427.9688" y2="427.9688"/><!--MD5=[f9c7d673263dfd5c9a1daf149439f8b1]
class EventHashtag--><rect codeLine="69" fill="#FEFECE" filter="url(#f16paz6znsgkli)" height="39.9688" id="EventHashtag" style="stroke:#A80036;stroke-width:1.5;" width="88" x="2826.1742" y="396"/><text fill="#000000" font-family="sans-serif" font-size="12" lengthAdjust="spacing" textLength="82" x="2829.1742" y="412.1387">EventHashtag</text><line style="stroke:#A80036;stroke-width:1.5;" x1="2827.1742" x2="2913.1742" y1="419.9688" y2="419.9688"/><line style="stroke:#A80036;stroke-width:1.5;" x1="2827.1742" x2="2913.1742" y1="427.9688" y2="427.9688"/><!--MD5=[f1bd6dbd8d4081205adc0601a16f1a8e]
class Tourist--><rect codeLine="71" fill="#FEFECE" filter="url(#f16paz6znsgkli)" height="52.7734" id="Tourist" style="stroke:#A80036;stroke-width:1.5;" width="58" x="3222.1742" y="80.5"/><text fill="#000000" font-family="sans-serif" font-size="12" lengthAdjust="spacing" textLength="41" x="3230.6742" y="96.6387">Tourist</text><line style="stroke:#A80036;stroke-width:1.5;" x1="3223.1742" x2="3279.1742" y1="104.4688" y2="104.4688"/><line style="stroke:#A80036;stroke-width:1.5;" x1="3223.1742" x2="3279.1742" y1="112.4688" y2="112.4688"/><text fill="#000000" font-family="sans-serif" font-size="11" lengthAdjust="spacing" textLength="46" x="3228.1742" y="126.6792">search()</text><!--MD5=[4f1f3706c1a355a8488e154afcaed5df]
class Location--><rect codeLine="74" fill="#FEFECE" filter="url(#f16paz6znsgkli)" height="39.9688" id="Location" style="stroke:#A80036;stroke-width:1.5;" width="56" x="3223.1742" y="396"/><text fill="#000000" font-family="sans-serif" font-size="12" lengthAdjust="spacing" textLength="50" x="3226.1742" y="412.1387">Location</text><line style="stroke:#A80036;stroke-width:1.5;" x1="3224.1742" x2="3278.1742" y1="419.9688" y2="419.9688"/><line style="stroke:#A80036;stroke-width:1.5;" x1="3224.1742" x2="3278.1742" y1="427.9688" y2="427.9688"/><!--MD5=[32cd4433c115ed96a993c633522ecf21]
class Contents--><rect codeLine="76" fill="#FEFECE" filter="url(#f16paz6znsgkli)" height="39.9688" id="Contents" style="stroke:#A80036;stroke-width:1.5;" width="59" x="2949.6742" y="396"/><text fill="#000000" font-family="sans-serif" font-size="12" lengthAdjust="spacing" textLength="53" x="2952.6742" y="412.1387">Contents</text><line style="stroke:#A80036;stroke-width:1.5;" x1="2950.6742" x2="3007.6742" y1="419.9688" y2="419.9688"/><line style="stroke:#A80036;stroke-width:1.5;" x1="2950.6742" x2="3007.6742" y1="427.9688" y2="427.9688"/><!--MD5=[30fd7b95ab383a5e7c83ea23d4ea0fbf]
class Information--><rect codeLine="78" fill="#FEFECE" filter="url(#f16paz6znsgkli)" height="39.9688" id="Information" style="stroke:#A80036;stroke-width:1.5;" width="73" x="3043.6742" y="396"/><text fill="#000000" font-family="sans-serif" font-size="12" lengthAdjust="spacing" textLength="67" x="3046.6742" y="412.1387">Information</text><line style="stroke:#A80036;stroke-width:1.5;" x1="3044.6742" x2="3115.6742" y1="419.9688" y2="419.9688"/><line style="stroke:#A80036;stroke-width:1.5;" x1="3044.6742" x2="3115.6742" y1="427.9688" y2="427.9688"/><!--MD5=[452b1a2cd99713edc3926c3fa3a64fd2]
class EventAttendee--><rect codeLine="80" fill="#FEFECE" filter="url(#f16paz6znsgkli)" height="52.7734" id="EventAttendee" style="stroke:#A80036;stroke-width:1.5;" width="94" x="682.1732" y="389.5"/><text fill="#000000" font-family="sans-serif" font-size="12" lengthAdjust="spacing" textLength="88" x="685.1732" y="405.6387">EventAttendee</text><line style="stroke:#A80036;stroke-width:1.5;" x1="683.1732" x2="775.1732" y1="413.4688" y2="413.4688"/><line style="stroke:#A80036;stroke-width:1.5;" x1="683.1732" x2="775.1732" y1="421.4688" y2="421.4688"/><text fill="#000000" font-family="sans-serif" font-size="11" lengthAdjust="spacing" textLength="29" x="688.1732" y="435.6792">use()</text><!--MD5=[aed7063b80b07051a2584a5ab68294f6]
class Caption--><rect codeLine="83" fill="#FEFECE" filter="url(#f16paz6znsgkli)" height="39.9688" id="Caption" style="stroke:#A80036;stroke-width:1.5;" width="51" x="1228.6742" y="634.5"/><text fill="#000000" font-family="sans-serif" font-size="12" lengthAdjust="spacing" textLength="45" x="1231.6742" y="650.6387">Caption</text><line style="stroke:#A80036;stroke-width:1.5;" x1="1229.6742" x2="1278.6742" y1="658.4688" y2="658.4688"/><line style="stroke:#A80036;stroke-width:1.5;" x1="1229.6742" x2="1278.6742" y1="666.4688" y2="666.4688"/><!--MD5=[c0646aff05db046bf03bd07f9451b561]
link User to Picture--><path codeLine="85" d="M1383.3042,510.234 C1401.4342,543.16 1426.4442,577.148 1459.1742,598 C1527.8742,641.766 1783.9842,651.107 1869.8842,653.024 " fill="none" id="User-to-Picture" style="stroke:#A80036;stroke-width:1.0;"/><polygon fill="#A80036" points="1875.0542,653.135,1866.148,648.9303,1870.0555,653.0207,1865.9651,656.9282,1875.0542,653.135" style="stroke:#A80036;stroke-width:1.0;"/><text fill="#000000" font-family="sans-serif" font-size="13" lengthAdjust="spacing" textLength="50" x="1460.1742" y="594.0669">remove</text><!--MD5=[c0646aff05db046bf03bd07f9451b561]
link User to Picture--><path codeLine="86" d="M1383.4242,462.995 C1421.3842,505.313 1483.5442,566.181 1551.1742,598 C1660.4942,649.43 1808.3142,654.503 1869.6642,654.163 " fill="none" id="User-to-Picture-1" style="stroke:#A80036;stroke-width:1.0;"/><polygon fill="#A80036" points="1874.9742,654.119,1865.9402,650.1963,1869.9744,654.1619,1866.0088,658.196,1874.9742,654.119" style="stroke:#A80036;stroke-width:1.0;"/><text fill="#000000" font-family="sans-serif" font-size="13" lengthAdjust="spacing" textLength="40" x="1552.1742" y="594.0669">delete</text><!--MD5=[c0646aff05db046bf03bd07f9451b561]
link User to Picture--><path codeLine="111" d="M1383.3942,443.41 C1449.1142,488.407 1581.4242,577.105 1633.1742,598 C1715.3842,631.198 1820.3142,645.605 1869.8542,650.889 " fill="none" id="User-to-Picture-2" style="stroke:#A80036;stroke-width:1.0;"/><polygon fill="#A80036" points="1875.0442,651.431,1866.5034,646.5264,1870.0707,650.9167,1865.6805,654.484,1875.0442,651.431" style="stroke:#A80036;stroke-width:1.0;"/><text fill="#000000" font-family="sans-serif" font-size="13" lengthAdjust="spacing" textLength="25" x="1634.1742" y="594.0669">sort</text><!--MD5=[c0646aff05db046bf03bd07f9451b561]
link User to Picture--><path codeLine="115" d="M1383.3942,436.745 C1471.7542,482.355 1683.8842,591.636 1700.1742,598 C1759.0442,620.998 1831.1942,638.731 1870.0942,647.482 " fill="none" id="User-to-Picture-3" style="stroke:#A80036;stroke-width:1.0;"/><polygon fill="#A80036" points="1875.1242,648.606,1867.2081,642.7464,1870.2436,647.5198,1865.4702,650.5554,1875.1242,648.606" style="stroke:#A80036;stroke-width:1.0;"/><text fill="#000000" font-family="sans-serif" font-size="13" lengthAdjust="spacing" textLength="28" x="1701.1742" y="594.0669">post</text><!--MD5=[c0646aff05db046bf03bd07f9451b561]
link User to Picture--><path codeLine="116" d="M1383.2242,432.419 C1453.1342,460.882 1606.5242,523.984 1734.1742,581 C1750.3242,588.216 1754.0542,590.702 1770.1742,598 C1804.4442,613.518 1844.2542,630.638 1870.2642,641.702 " fill="none" id="User-to-Picture-4" style="stroke:#A80036;stroke-width:1.0;"/><polygon fill="#A80036" points="1874.9542,643.696,1868.237,636.4933,1870.3529,641.7395,1865.1066,643.8554,1874.9542,643.696" style="stroke:#A80036;stroke-width:1.0;"/><text fill="#000000" font-family="sans-serif" font-size="13" lengthAdjust="spacing" textLength="31" x="1771.1742" y="594.0669">save</text><!--MD5=[c0646aff05db046bf03bd07f9451b561]
link User to Picture--><path codeLine="117" d="M1383.1942,425.917 C1464.5342,445.957 1660.0342,499.289 1807.1742,581 C1830.4842,593.946 1853.9542,612.82 1871.2142,628.065 " fill="none" id="User-to-Picture-5" style="stroke:#A80036;stroke-width:1.0;"/><polygon fill="#A80036" points="1875.0242,631.458,1870.969,622.4827,1871.2924,628.1303,1865.6448,628.4537,1875.0242,631.458" style="stroke:#A80036;stroke-width:1.0;"/><text fill="#000000" font-family="sans-serif" font-size="13" lengthAdjust="spacing" textLength="63" x="1833.1742" y="594.0669">moderate</text><!--MD5=[c0646aff05db046bf03bd07f9451b561]
link User to Picture--><path codeLine="121" d="M1383.4142,422.252 C1498.9942,438.988 1840.7942,495.058 1905.1742,581 C1913.9542,592.718 1913.3542,608.666 1910.0742,622.621 " fill="none" id="User-to-Picture-6" style="stroke:#A80036;stroke-width:1.0;"/><polygon fill="#A80036" points="1908.7542,627.661,1914.9,619.9649,1910.0185,622.8235,1907.16,617.942,1908.7542,627.661" style="stroke:#A80036;stroke-width:1.0;"/><text fill="#000000" font-family="sans-serif" font-size="13" lengthAdjust="spacing" textLength="39" x="1913.1742" y="594.0669">report</text><!--MD5=[c0646aff05db046bf03bd07f9451b561]
link User to Picture--><path codeLine="122" d="M1383.2142,421.163 C1506.1442,435.471 1888.9242,487.002 1961.1742,581 C1977.2442,601.91 1949.4142,624.655 1925.7942,638.987 " fill="none" id="User-to-Picture-7" style="stroke:#A80036;stroke-width:1.0;"/><polygon fill="#A80036" points="1921.4442,641.563,1931.2274,640.4277,1925.7487,639.0192,1927.1573,633.5405,1921.4442,641.563" style="stroke:#A80036;stroke-width:1.0;"/><text fill="#000000" font-family="sans-serif" font-size="13" lengthAdjust="spacing" textLength="28" x="1967.1742" y="594.0669">take</text><!--MD5=[c0646aff05db046bf03bd07f9451b561]
link User to Picture--><path codeLine="127" d="M1383.5642,420.5 C1512.4342,433.117 1925.9442,480.911 2004.1742,581 C2029.0742,612.857 1965.4942,635.963 1926.3042,646.729 " fill="none" id="User-to-Picture-8" style="stroke:#A80036;stroke-width:1.0;"/><polygon fill="#A80036" points="1921.1842,648.104,1930.9146,649.6267,1926.0123,646.8041,1928.8348,641.9018,1921.1842,648.104" style="stroke:#A80036;stroke-width:1.0;"/><text fill="#000000" font-family="sans-serif" font-size="13" lengthAdjust="spacing" textLength="43" x="2011.1742" y="594.0669">upload</text><!--MD5=[c0646aff05db046bf03bd07f9451b561]
link User to Picture--><path codeLine="128" d="M1383.5942,419.671 C1519.8742,430.015 1976.5842,472.403 2063.1742,581 C2101.5342,629.111 1983.5842,646.089 1926.8442,651.374 " fill="none" id="User-to-Picture-9" style="stroke:#A80036;stroke-width:1.0;"/><polygon fill="#A80036" points="1921.5542,651.85,1930.8822,655.0103,1926.5333,651.3928,1930.1507,647.0438,1921.5542,651.85" style="stroke:#A80036;stroke-width:1.0;"/><text fill="#000000" font-family="sans-serif" font-size="13" lengthAdjust="spacing" textLength="21" x="2072.1742" y="594.0669">like</text><!--MD5=[c0646aff05db046bf03bd07f9451b561]
link User to Picture--><path codeLine="129" d="M1354.6542,551.082 C1361.2842,568.887 1371.0342,585.33 1385.1742,598 C1421.5142,630.555 1767.5042,647.894 1869.8142,652.339 " fill="none" id="User-to-Picture-10" style="stroke:#A80036;stroke-width:1.0;"/><polygon fill="#A80036" points="1875.0642,652.565,1866.2439,648.183,1870.0688,652.3507,1865.9011,656.1756,1875.0642,652.565" style="stroke:#A80036;stroke-width:1.0;"/><text fill="#000000" font-family="sans-serif" font-size="13" lengthAdjust="spacing" textLength="46" x="1386.1742" y="594.0669">choose</text><!--MD5=[29793cb2e6ce1def3d6fecaef4efbf08]
link User to Event--><path codeLine="87" d="M1307.1642,428.779 C1218.2842,455.76 989.5002,521.945 793.1732,551 C733.9472,559.765 296.3122,537.503 255.1732,581 C243.3512,593.499 244.9962,613.294 249.1042,629.044 " fill="none" id="User-to-Event" style="stroke:#A80036;stroke-width:1.0;"/><polygon fill="#A80036" points="250.5752,634.214,251.9588,624.4628,249.2065,629.405,244.2643,626.6527,250.5752,634.214" style="stroke:#A80036;stroke-width:1.0;"/><text fill="#000000" font-family="sans-serif" font-size="13" lengthAdjust="spacing" textLength="50" x="256.1732" y="594.0669">remove</text><!--MD5=[29793cb2e6ce1def3d6fecaef4efbf08]
link User to Event--><path codeLine="104" d="M1307.1442,428.624 C1218.2142,455.279 989.3312,520.821 793.1732,551 C694.9932,566.105 439.5912,544.582 347.1732,581 C320.2822,591.597 295.2952,613.456 278.6852,630.416 " fill="none" id="User-to-Event-1" style="stroke:#A80036;stroke-width:1.0;"/><polygon fill="#A80036" points="275.0632,634.172,284.189,630.4681,278.5331,630.5721,278.4291,624.9162,275.0632,634.172" style="stroke:#A80036;stroke-width:1.0;"/><text fill="#000000" font-family="sans-serif" font-size="13" lengthAdjust="spacing" textLength="41" x="348.1732" y="594.0669">create</text><!--MD5=[29793cb2e6ce1def3d6fecaef4efbf08]
link User to Event--><path codeLine="110" d="M1307.0842,428.255 C1218.0342,454.127 988.8972,518.127 793.1732,551 C654.0452,574.367 615.2322,551.981 477.1732,581 C404.4842,596.278 322.1752,627.47 282.3352,643.5 " fill="none" id="User-to-Event-2" style="stroke:#A80036;stroke-width:1.0;"/><polygon fill="#A80036" points="277.6912,645.378,287.5344,645.7128,282.3267,643.5038,284.5357,638.2961,277.6912,645.378" style="stroke:#A80036;stroke-width:1.0;"/><text fill="#000000" font-family="sans-serif" font-size="13" lengthAdjust="spacing" textLength="28" x="478.1732" y="594.0669">shut</text><!--MD5=[ab04d9d692719507459a24048bd9bc75]
link Admin to AdminFeature--><path codeLine="88" d="M2377.4442,204.294 C2403.3842,269.591 2435.7442,351.003 2451.5642,390.81 " fill="none" id="Admin-to-AdminFeature" style="stroke:#A80036;stroke-width:1.0;"/><polygon fill="#A80036" points="2453.5842,395.915,2453.9765,386.074,2451.7371,391.2687,2446.5424,389.0293,2453.5842,395.915" style="stroke:#A80036;stroke-width:1.0;"/><text fill="#000000" font-family="sans-serif" font-size="13" lengthAdjust="spacing" textLength="52" x="2394.1742" y="247.0669">perform</text><!--MD5=[31dc62004037a63024412f930a4c90ff]
link Picture to Control--><path codeLine="89" d="M1898.1742,681.267 C1898.1742,702.3301 1898.1742,731.9042 1898.1742,752.5902 " fill="none" id="Picture-to-Control" style="stroke:#A80036;stroke-width:1.0;"/><polygon fill="#A80036" points="1898.1742,757.6472,1902.1742,748.6472,1898.1742,752.6472,1894.1742,748.6472,1898.1742,757.6472" style="stroke:#A80036;stroke-width:1.0;"/><text fill="#000000" font-family="sans-serif" font-size="13" lengthAdjust="spacing" textLength="27" x="1899.1742" y="724.0669">give</text><!--MD5=[004174e6025bfd31cc9058593d99fb9f]
link Admin to Name--><path codeLine="90" d="M2378.3842,113.321 C2458.3242,126.341 2640.3942,167.479 2733.1742,281 C2759.2442,312.904 2767.4442,361.703 2770.0142,390.772 " fill="none" id="Admin-to-Name" style="stroke:#A80036;stroke-width:1.0;"/><polygon fill="#A80036" points="2770.4342,395.961,2773.699,386.669,2770.0329,390.9771,2765.7248,387.3111,2770.4342,395.961" style="stroke:#A80036;stroke-width:1.0;"/><text fill="#000000" font-family="sans-serif" font-size="13" lengthAdjust="spacing" textLength="47" x="2703.1742" y="247.0669">change</text><!--MD5=[02ad04e18c569503c135d4c822c16d51]
link Admin to Information--><path codeLine="91" d="M2378.3242,111.751 C2476.5342,122.086 2740.1742,155.577 2945.1742,234 C2984.0442,248.872 2998.9142,249.546 3026.1742,281 C3054.0042,313.119 3068.6542,361.429 3075.3742,390.422 " fill="none" id="Admin-to-Information" style="stroke:#A80036;stroke-width:1.0;"/><polygon fill="#A80036" points="3076.5342,395.603,3078.4677,385.9458,3075.44,390.7242,3070.6617,387.6965,3076.5342,395.603" style="stroke:#A80036;stroke-width:1.0;"/><text fill="#000000" font-family="sans-serif" font-size="13" lengthAdjust="spacing" textLength="32" x="2990.1742" y="247.0669">have</text><!--MD5=[80c53a00355a45bdad4327219e12cc24]
link User to Public--><path codeLine="92" d="M1307.0442,428.018 C1217.9042,453.388 988.6002,516.401 793.1732,551 C734.5982,561.37 573.3632,543.517 527.1732,581 C512.9282,592.559 507.0712,612.801 504.6952,628.964 " fill="none" id="User-to-Public" style="stroke:#A80036;stroke-width:1.0;"/><polygon fill="#A80036" points="504.0162,634.271,509.1255,625.8511,504.6504,629.3114,501.1901,624.8363,504.0162,634.271" style="stroke:#A80036;stroke-width:1.0;"/><text fill="#000000" font-family="sans-serif" font-size="13" lengthAdjust="spacing" textLength="41" x="528.1732" y="594.0669">create</text><!--MD5=[87c821ae2bd6274f80c0e648365b96a1]
link User to Hashtag--><path codeLine="93" d="M1307.0042,423.201 C1229.7142,437.594 1053.0542,480.051 947.1732,581 C933.5232,594.015 924.7922,613.596 919.5992,629.129 " fill="none" id="User-to-Hashtag" style="stroke:#A80036;stroke-width:1.0;"/><polygon fill="#A80036" points="917.9722,634.226,924.5191,626.8682,919.4923,629.4627,916.8978,624.4359,917.9722,634.226" style="stroke:#A80036;stroke-width:1.0;"/><text fill="#000000" font-family="sans-serif" font-size="13" lengthAdjust="spacing" textLength="23" x="948.1732" y="594.0669">use</text><!--MD5=[87c821ae2bd6274f80c0e648365b96a1]
link User to Hashtag--><path codeLine="112" d="M1306.8342,437.988 C1222.7142,484.042 1023.2322,593.248 945.2262,635.953 " fill="none" id="User-to-Hashtag-1" style="stroke:#A80036;stroke-width:1.0;"/><polygon fill="#A80036" points="940.7102,638.424,950.5254,637.61,945.0958,636.0226,946.6832,630.5931,940.7102,638.424" style="stroke:#A80036;stroke-width:1.0;"/><text fill="#000000" font-family="sans-serif" font-size="13" lengthAdjust="spacing" textLength="49" x="1042.1742" y="594.0669">reserve</text><!--MD5=[87c821ae2bd6274f80c0e648365b96a1]
link User to Hashtag--><path codeLine="114" d="M1306.9142,417.357 C1216.5442,420.528 990.2012,442.577 893.1732,581 C883.0532,595.437 889.1732,614.815 897.2172,629.905 " fill="none" id="User-to-Hashtag-2" style="stroke:#A80036;stroke-width:1.0;"/><polygon fill="#A80036" points="899.7592,634.44,898.8486,624.6333,897.3147,630.0783,891.8698,628.5445,899.7592,634.44" style="stroke:#A80036;stroke-width:1.0;"/><text fill="#000000" font-family="sans-serif" font-size="13" lengthAdjust="spacing" textLength="31" x="894.1732" y="594.0669">save</text><!--MD5=[478425156ee10c55cac736d5b0b47b37]
link Admin to User--><path codeLine="94" d="M2299.9042,118.597 C2222.4242,139.634 2044.4942,188.566 1896.1742,234 C1705.8242,292.307 1480.8442,368.512 1388.2542,400.191 " fill="none" id="Admin-to-User" style="stroke:#A80036;stroke-width:1.0;"/><polygon fill="#A80036" points="1383.4142,401.849,1393.2261,402.7011,1388.1418,400.2212,1390.6217,395.1369,1383.4142,401.849" style="stroke:#A80036;stroke-width:1.0;"/><text fill="#000000" font-family="sans-serif" font-size="13" lengthAdjust="spacing" textLength="54" x="1897.1742" y="247.0669">suspend</text><!--MD5=[478425156ee10c55cac736d5b0b47b37]
link Admin to User--><path codeLine="102" d="M2299.9042,124.076 C2231.0242,151.96 2083.5942,210.213 1956.1742,251 C1745.8142,318.335 1488.8942,381.085 1388.3942,404.9 " fill="none" id="Admin-to-User-1" style="stroke:#A80036;stroke-width:1.0;"/><polygon fill="#A80036" points="1383.4342,406.072,1393.1155,407.8812,1388.2985,404.9152,1391.2646,400.0983,1383.4342,406.072" style="stroke:#A80036;stroke-width:1.0;"/><text fill="#000000" font-family="sans-serif" font-size="13" lengthAdjust="spacing" textLength="47" x="2000.1742" y="247.0669">browse</text><!--MD5=[478425156ee10c55cac736d5b0b47b37]
link Admin to User--><path codeLine="107" d="M2299.9142,114.731 C2208.9042,130.826 1976.9142,174.657 1789.1742,234 C1638.0042,281.782 1466.0142,358.649 1387.8542,394.877 " fill="none" id="Admin-to-User-2" style="stroke:#A80036;stroke-width:1.0;"/><polygon fill="#A80036" points="1383.2942,396.994,1393.1414,396.8158,1387.8258,394.881,1389.7606,389.5653,1383.2942,396.994" style="stroke:#A80036;stroke-width:1.0;"/><text fill="#000000" font-family="sans-serif" font-size="13" lengthAdjust="spacing" textLength="53" x="1790.1742" y="247.0669">manage</text><!--MD5=[e3dd31c72796d99f33f1e2d17458e7c3]
link User to Photo--><path codeLine="95" d="M1306.9742,427.622 C1217.6742,452.153 988.0662,513.514 793.1732,551 C746.8812,559.904 614.0592,545.388 583.1732,581 C569.6192,596.627 583.8572,617.758 598.7942,633.175 " fill="none" id="User-to-Photo" style="stroke:#A80036;stroke-width:1.0;"/><polygon fill="#A80036" points="602.5902,636.964,599.0472,627.7745,599.0518,633.4313,593.395,633.4359,602.5902,636.964" style="stroke:#A80036;stroke-width:1.0;"/><text fill="#000000" font-family="sans-serif" font-size="13" lengthAdjust="spacing" textLength="31" x="584.1732" y="594.0669">keep</text><!--MD5=[e3dd31c72796d99f33f1e2d17458e7c3]
link User to Photo--><path codeLine="105" d="M1306.9242,426.242 C1166.3442,460.236 686.0052,576.592 679.1732,581 C660.3572,593.139 645.0882,613.652 635.1062,629.767 " fill="none" id="User-to-Photo-1" style="stroke:#A80036;stroke-width:1.0;"/><polygon fill="#A80036" points="632.4332,634.185,640.5144,628.5552,635.0214,629.907,633.6696,624.4141,632.4332,634.185" style="stroke:#A80036;stroke-width:1.0;"/><text fill="#000000" font-family="sans-serif" font-size="13" lengthAdjust="spacing" textLength="28" x="680.1732" y="594.0669">take</text><!--MD5=[d335cd0b32dabe328b802accba953dd2]
link Admin to Report--><path codeLine="96" d="M2378.2842,135.033 C2419.9642,165.789 2485.0742,219.758 2523.1742,281 C2544.8342,315.809 2555.7442,362.853 2560.6642,390.942 " fill="none" id="Admin-to-Report" style="stroke:#A80036;stroke-width:1.0;"/><polygon fill="#A80036" points="2561.5242,395.959,2563.9606,386.4163,2560.6869,391.0296,2556.0736,387.7559,2561.5242,395.959" style="stroke:#A80036;stroke-width:1.0;"/><text fill="#000000" font-family="sans-serif" font-size="13" lengthAdjust="spacing" textLength="58" x="2501.1742" y="247.0669">generate</text><!--MD5=[0bdd5e278ed0444cb0b71303cf48350f]
link EventAttendee to Hashtag--><path codeLine="97" d="M719.7452,442.798 C707.6352,480.884 691.9752,552.543 726.1732,598 C755.0942,636.443 784.0672,614.269 830.1732,628 C846.7872,632.948 865.2242,638.597 880.4932,643.317 " fill="none" id="EventAttendee-to-Hashtag" style="stroke:#A80036;stroke-width:1.0;"/><polygon fill="#A80036" points="885.5422,644.881,878.1273,638.3988,880.7658,643.4026,875.7619,646.0411,885.5422,644.881" style="stroke:#A80036;stroke-width:1.0;"/><text fill="#000000" font-family="sans-serif" font-size="13" lengthAdjust="spacing" textLength="23" x="727.1732" y="594.0669">use</text><!--MD5=[c4769f8a1c0b5fe18631dc60f76a18a4]
link Admin to Event--><path codeLine="98" d="M2300.0742,108.802 C2046.3042,114.234 630.0252,148.043 207.1732,234 C146.1462,246.405 111.0705,230.113 75.1729,281 C6,379.057 14.4973,447.47 75.1729,551 C109.693,609.901 191.8012,637.504 233.2802,648.061 " fill="none" id="Admin-to-Event" style="stroke:#A80036;stroke-width:1.0;"/><polygon fill="#A80036" points="238.3732,649.323,230.5995,643.2758,233.52,648.1204,228.6753,651.0409,238.3732,649.323" style="stroke:#A80036;stroke-width:1.0;"/><text fill="#000000" font-family="sans-serif" font-size="13" lengthAdjust="spacing" textLength="45" x="76.1729" y="420.5669">update</text><!--MD5=[c4769f8a1c0b5fe18631dc60f76a18a4]
link Admin to Event--><path codeLine="99" d="M2299.8942,109.002 C2074.2742,115.198 941.9952,152.352 622.1732,281 C421.5692,361.693 333.8392,386.599 239.1732,581 C231.7002,596.345 236.8742,614.999 243.6962,629.543 " fill="none" id="Admin-to-Event-1" style="stroke:#A80036;stroke-width:1.0;"/><polygon fill="#A80036" points="246.0572,634.307,245.6427,624.4669,243.836,629.8275,238.4754,628.0208,246.0572,634.307" style="stroke:#A80036;stroke-width:1.0;"/><text fill="#000000" font-family="sans-serif" font-size="13" lengthAdjust="spacing" textLength="40" x="623.1732" y="420.5669">delete</text><!--MD5=[106f4b22098aac9edad344ae6c82f55f]
link Admin to EventHashtag--><path codeLine="100" d="M2378.3942,113.452 C2455.7342,125.512 2631.4342,159.497 2759.1742,234 C2818.9042,268.836 2850.6942,349.799 2863.4242,390.588 " fill="none" id="Admin-to-EventHashtag" style="stroke:#A80036;stroke-width:1.0;"/><polygon fill="#A80036" points="2865.0242,395.831,2866.2158,386.0545,2863.5612,391.0498,2858.5659,388.3953,2865.0242,395.831" style="stroke:#A80036;stroke-width:1.0;"/><text fill="#000000" font-family="sans-serif" font-size="13" lengthAdjust="spacing" textLength="41" x="2783.1742" y="247.0669">create</text><!--MD5=[4981c864524f50ab1b82211e3369f909]
link User to Application--><path codeLine="101" d="M1306.8242,450.084 C1268.6942,483.058 1208.6342,535.24 1157.1742,581 C1138.5742,597.534 1117.7542,616.415 1102.0142,630.764 " fill="none" id="User-to-Application" style="stroke:#A80036;stroke-width:1.0;"/><polygon fill="#A80036" points="1098.1342,634.31,1107.4784,631.1977,1101.8274,630.9395,1102.0856,625.2886,1098.1342,634.31" style="stroke:#A80036;stroke-width:1.0;"/><text fill="#000000" font-family="sans-serif" font-size="13" lengthAdjust="spacing" textLength="23" x="1158.1742" y="594.0669">use</text><!--MD5=[c0429c4d49f18f82bcb378aafcaa90ec]
link User to Caption--><path codeLine="103" d="M1307.1342,471.53 C1287.9742,502.196 1266.6342,542.049 1256.1742,581 C1251.9542,596.704 1251.4842,615.014 1252.0542,629.304 " fill="none" id="User-to-Caption" style="stroke:#A80036;stroke-width:1.0;"/><polygon fill="#A80036" points="1252.3042,634.374,1255.855,625.1875,1252.0574,629.3801,1247.8648,625.5824,1252.3042,634.374" style="stroke:#A80036;stroke-width:1.0;"/><text fill="#000000" font-family="sans-serif" font-size="13" lengthAdjust="spacing" textLength="32" x="1257.1742" y="594.0669">write</text><!--MD5=[5af6d7c3e037f74f83175e2986cdce5e]
link User to Login--><path codeLine="106" d="M1307.1042,420.15 C1216.3242,429.437 983.8212,463.892 837.1732,581 C821.4212,593.579 810.1702,613.612 803.1382,629.436 " fill="none" id="User-to-Login" style="stroke:#A80036;stroke-width:1.0;"/><polygon fill="#A80036" points="801.0912,634.198,808.3203,627.5092,803.0658,629.6044,800.9706,624.3499,801.0912,634.198" style="stroke:#A80036;stroke-width:1.0;"/><text fill="#000000" font-family="sans-serif" font-size="13" lengthAdjust="spacing" textLength="41" x="838.1732" y="594.0669">create</text><!--MD5=[71f0a89451cb8922921675eb6af792e2]
link Admin to Picture--><path codeLine="108" d="M2300.0342,133.795 C2257.8242,163.851 2192.1242,217.573 2158.1742,281 C2090.6642,407.14 2198.6442,492.348 2102.1742,598 C2078.5442,623.877 1976.6742,642.028 1926.4242,649.582 " fill="none" id="Admin-to-Picture" style="stroke:#A80036;stroke-width:1.0;"/><polygon fill="#A80036" points="1921.4342,650.323,1930.9211,652.9686,1926.3808,649.5943,1929.7551,645.054,1921.4342,650.323" style="stroke:#A80036;stroke-width:1.0;"/><text fill="#000000" font-family="sans-serif" font-size="13" lengthAdjust="spacing" textLength="46" x="2159.1742" y="420.5669">restore</text><!--MD5=[71f0a89451cb8922921675eb6af792e2]
link Admin to Picture--><path codeLine="113" d="M2301.9642,204.359 C2292.9742,229.154 2283.7842,255.918 2276.1742,281 C2240.3142,399.215 2282.7842,451.061 2210.1742,551 C2143.0242,643.42 1989.8542,653.959 1926.4542,654.176 " fill="none" id="Admin-to-Picture-1" style="stroke:#A80036;stroke-width:1.0;"/><polygon fill="#A80036" points="1921.3242,654.171,1930.3127,658.1967,1926.3242,654.1853,1930.3356,650.1967,1921.3242,654.171" style="stroke:#A80036;stroke-width:1.0;"/><text fill="#000000" font-family="sans-serif" font-size="13" lengthAdjust="spacing" textLength="18" x="2277.1742" y="420.5669">list</text><!--MD5=[71f0a89451cb8922921675eb6af792e2]
link Admin to Picture--><path codeLine="126" d="M2341.7342,204.255 C2342.8742,317.544 2338.2742,497.093 2300.1742,551 C2256.1942,613.22 2010.3342,642.606 1926.3242,650.932 " fill="none" id="Admin-to-Picture-2" style="stroke:#A80036;stroke-width:1.0;"/><polygon fill="#A80036" points="1921.2642,651.427,1930.6102,654.5339,1926.2406,650.9414,1929.8331,646.5718,1921.2642,651.427" style="stroke:#A80036;stroke-width:1.0;"/><text fill="#000000" font-family="sans-serif" font-size="13" lengthAdjust="spacing" textLength="40" x="2343.1742" y="420.5669">delete</text><!--MD5=[3d7bf7345ce32a6bb718e946326e88d3]
link User to Radius--><path codeLine="109" d="M1306.9842,451.581 C1274.4242,482.77 1228.2342,531.261 1198.1742,581 C1188.9942,596.181 1182.1042,614.995 1177.5742,629.652 " fill="none" id="User-to-Radius" style="stroke:#A80036;stroke-width:1.0;"/><polygon fill="#A80036" points="1176.1342,634.452,1182.5516,626.981,1177.5709,629.6629,1174.889,624.6822,1176.1342,634.452" style="stroke:#A80036;stroke-width:1.0;"/><text fill="#000000" font-family="sans-serif" font-size="13" lengthAdjust="spacing" textLength="46" x="1199.1742" y="594.0669">choose</text><!--MD5=[e3f4d6cb1bb0d11ba6767fca19015bd9]
link Admin to SystemSetting--><path codeLine="118" d="M2300.1042,109.012 C2018.7442,116.46 310.5332,164.46 228.1732,234 C182.1752,272.838 180.9212,351.239 183.6202,390.881 " fill="none" id="Admin-to-SystemSetting" style="stroke:#A80036;stroke-width:1.0;"/><polygon fill="#A80036" points="184.0042,395.98,187.3166,386.7049,183.6285,390.9941,179.3392,387.306,184.0042,395.98" style="stroke:#A80036;stroke-width:1.0;"/><text fill="#000000" font-family="sans-serif" font-size="13" lengthAdjust="spacing" textLength="47" x="229.1732" y="247.0669">change</text><!--MD5=[23e3a6a126d186d6242ef8a6001599fd]
link Admin to Control--><path codeLine="119" d="M2378.1842,109.607 C2526.4042,116.669 3050.3842,150.674 3134.1742,281 C3199.0642,381.94 3211.0142,458.831 3134.1742,551 C2973.2742,743.9843 2101.1042,772.6539 1928.0342,776.4606 " fill="none" id="Admin-to-Control" style="stroke:#A80036;stroke-width:1.0;"/><polygon fill="#A80036" points="1922.8842,776.5711,1931.9733,780.3643,1927.8829,776.4568,1931.7904,772.3664,1922.8842,776.5711" style="stroke:#A80036;stroke-width:1.0;"/><text fill="#000000" font-family="sans-serif" font-size="13" lengthAdjust="spacing" textLength="32" x="3099.1742" y="594.0669">have</text><!--MD5=[0e6dcd97912298e58338da76992df00b]
link Tourist to Location--><path codeLine="120" d="M3251.1742,133.647 C3251.1742,191.863 3251.1742,333.363 3251.1742,390.483 " fill="none" id="Tourist-to-Location" style="stroke:#A80036;stroke-width:1.0;"/><polygon fill="#A80036" points="3251.1742,395.742,3255.1742,386.742,3251.1742,390.742,3247.1742,386.742,3251.1742,395.742" style="stroke:#A80036;stroke-width:1.0;"/><text fill="#000000" font-family="sans-serif" font-size="13" lengthAdjust="spacing" textLength="43" x="3252.1742" y="247.0669">search</text><!--MD5=[63575b7639e7bb215994c7c107a504cd]
link Admin to Contents--><path codeLine="123" d="M2378.4642,114.037 C2498.2142,133.234 2855.0742,196.61 2931.1742,281 C2959.3742,312.27 2971.2942,361.279 2976.1242,390.559 " fill="none" id="Admin-to-Contents" style="stroke:#A80036;stroke-width:1.0;"/><polygon fill="#A80036" points="2976.9442,395.788,2979.5005,386.2767,2976.169,390.8485,2971.5972,387.517,2976.9442,395.788" style="stroke:#A80036;stroke-width:1.0;"/><text fill="#000000" font-family="sans-serif" font-size="13" lengthAdjust="spacing" textLength="53" x="2883.1742" y="247.0669">manage</text><!--MD5=[c944fda913ae73e0ac80ee078bed23fb]
link User to Control--><path codeLine="124" d="M1341.8142,551.455 C1346.2242,568.358 1353.3042,584.444 1364.1742,598 C1494.1642,760.0745 1776.2442,776.4181 1868.3942,777.2913 " fill="none" id="User-to-Control" style="stroke:#A80036;stroke-width:1.0;"/><polygon fill="#A80036" points="1873.4142,777.3251,1864.4372,773.2737,1868.4143,777.2965,1864.3915,781.2736,1873.4142,777.3251" style="stroke:#A80036;stroke-width:1.0;"/><text fill="#000000" font-family="sans-serif" font-size="13" lengthAdjust="spacing" textLength="32" x="1459.1742" y="659.0669">have</text><!--MD5=[22054ed1a8ac2478874dcfafe7b0def8]
link Admin to ExpirationDate--><path codeLine="125" d="M2378.2642,123.539 C2426.4442,143.96 2509.1642,183.268 2568.1742,234 C2618.5742,277.329 2648.8242,352.358 2661.7642,390.787 " fill="none" id="Admin-to-ExpirationDate" style="stroke:#A80036;stroke-width:1.0;"/><polygon fill="#A80036" points="2663.4042,395.736,2664.3794,385.9355,2661.8359,390.9883,2656.7831,388.4448,2663.4042,395.736" style="stroke:#A80036;stroke-width:1.0;"/><text fill="#000000" font-family="sans-serif" font-size="13" lengthAdjust="spacing" textLength="47" x="2586.1742" y="247.0669">change</text><!--MD5=[4d4467919c301de24f7b7d8856710181]
@startuml
hide circle
class User<actor> {
}
class Admin<actor> {
}
class Admin {
	change()
	perform()
	generate()
	list()
	delete()
	suspend()
	manage()
	have()
	browse()
	restore()
	update()
	create()
}
class SystemSetting {
}
class User {
	remove()
	reserve()
	keep()
	upload()
	write()
	use()
	save()
	post()
	shut()
	like()
	delete()
	moderate()
	have()
	report()
	choose()
	take()
	sort()
	create()
}
class Control {
}
class Picture {
	give()
}
class Event {
}
class Public {
}
class Photo {
}
class Login {
}
class AdminFeature {
}
class Hashtag {
}
class Report {
}
class Application {
}
class Radius {
}
class ExpirationDate {
}
class Name {
}
class EventHashtag {
}
class Tourist {
	search()
}
class Location {
}
class Contents {
}
class Information {
}
class EventAttendee {
	use()
}
class Caption {
}
User - -> Picture : remove
User - -> Picture : delete
User - -> Event : remove
Admin - -> AdminFeature : perform
Picture - -> Control : give
Admin - -> Name : change
Admin - -> Information : have
User - -> Public : create
User - -> Hashtag : use
Admin - -> User : suspend
User - -> Photo : keep
Admin - -> Report : generate
EventAttendee - -> Hashtag : use
Admin - -> Event : update
Admin - -> Event : delete
Admin - -> EventHashtag : create
User - -> Application : use
Admin - -> User : browse
User - -> Caption : write
User - -> Event : create
User - -> Photo : take
User - -> Login : create
Admin - -> User : manage
Admin - -> Picture : restore
User - -> Radius : choose
User - -> Event : shut
User - -> Picture : sort
User - -> Hashtag : reserve
Admin - -> Picture : list
User - -> Hashtag : save
User - -> Picture : post
User - -> Picture : save
User - -> Picture : moderate
Admin - -> SystemSetting : change
Admin - -> Control : have
Tourist - -> Location : search
User - -> Picture : report
User - -> Picture : take
Admin - -> Contents : manage
User - -> Control : have
Admin - -> ExpirationDate : change
Admin - -> Picture : delete
User - -> Picture : upload
User - -> Picture : like
User - -> Picture : choose
@enduml

PlantUML version 1.2021.6beta6(Unknown compile time)
(GPL source distribution)
Java Runtime: Java(TM) SE Runtime Environment
JVM: Java HotSpot(TM) 64-Bit Server VM
Default Encoding: UTF-8
Language: en
Country: US
--></g></svg>