<?xml version="1.0" encoding="UTF-8" standalone="no"?><svg xmlns="http://www.w3.org/2000/svg" xmlns:xlink="http://www.w3.org/1999/xlink" contentScriptType="application/ecmascript" contentStyleType="text/css" height="425px" preserveAspectRatio="none" style="width:1458px;height:425px;background:#FFFFFF;" version="1.1" viewBox="0 0 1458 425" width="1458px" zoomAndPan="magnify"><defs><filter height="300%" id="f1bhndf4dkw8lj" width="300%" x="-1" y="-1"><feGaussianBlur result="blurOut" stdDeviation="2.0"/><feColorMatrix in="blurOut" result="blurOut2" type="matrix" values="0 0 0 0 0 0 0 0 0 0 0 0 0 0 0 0 0 0 .4 0"/><feOffset dx="4.0" dy="4.0" in="blurOut2" result="blurOut3"/><feBlend in="SourceGraphic" in2="blurOut3" mode="normal"/></filter></defs><g><!--MD5=[11148126fcb8350cd83fd933a21e1a0c]
class TourCreator--><rect codeLine="10" fill="#FEFECE" filter="url(#f1bhndf4dkw8lj)" height="142.4063" id="TourCreator" style="stroke:#A80036;stroke-width:1.5;" width="113" x="390.5" y="153"/><text fill="#000000" font-family="sans-serif" font-size="12" lengthAdjust="spacing" textLength="72" x="393.5" y="169.1387">TourCreator</text><rect fill="#FFFFFF" height="15.9688" style="stroke:#000000;stroke-width:1.0;stroke-dasharray:2.0,2.0;" width="33" x="473.5" y="150"/><text fill="#000000" font-family="sans-serif" font-size="12" font-style="italic" lengthAdjust="spacing" textLength="31" x="474.5" y="162.1387">actor</text><line style="stroke:#A80036;stroke-width:1.5;" x1="391.5" x2="502.5" y1="176.9688" y2="176.9688"/><text fill="#000000" font-family="sans-serif" font-size="11" lengthAdjust="spacing" textLength="22" x="396.5" y="191.1792">tour</text><text fill="#000000" font-family="sans-serif" font-size="11" lengthAdjust="spacing" textLength="26" x="396.5" y="203.9839">area</text><line style="stroke:#A80036;stroke-width:1.5;" x1="391.5" x2="502.5" y1="210.5781" y2="210.5781"/><text fill="#000000" font-family="sans-serif" font-size="11" lengthAdjust="spacing" textLength="56" x="396.5" y="224.7886">promote()</text><text fill="#000000" font-family="sans-serif" font-size="11" lengthAdjust="spacing" textLength="46" x="396.5" y="237.5933">upload()</text><text fill="#000000" font-family="sans-serif" font-size="11" lengthAdjust="spacing" textLength="30" x="396.5" y="250.3979">edit()</text><text fill="#000000" font-family="sans-serif" font-size="11" lengthAdjust="spacing" textLength="46" x="396.5" y="263.2026">delete()</text><text fill="#000000" font-family="sans-serif" font-size="11" lengthAdjust="spacing" textLength="45" x="396.5" y="276.0073">create()</text><text fill="#000000" font-family="sans-serif" font-size="11" lengthAdjust="spacing" textLength="35" x="396.5" y="288.812">view()</text><!--MD5=[08d6a551530ab71b272f9c2c40bfb385]
class Owner--><rect codeLine="18" fill="#FEFECE" filter="url(#f1bhndf4dkw8lj)" height="65.5781" id="Owner" style="stroke:#A80036;stroke-width:1.5;" width="81" x="552.5" y="10"/><text fill="#000000" font-family="sans-serif" font-size="12" lengthAdjust="spacing" textLength="40" x="555.5" y="26.1387">Owner</text><rect fill="#FFFFFF" height="15.9688" style="stroke:#000000;stroke-width:1.0;stroke-dasharray:2.0,2.0;" width="33" x="603.5" y="7"/><text fill="#000000" font-family="sans-serif" font-size="12" font-style="italic" lengthAdjust="spacing" textLength="31" x="604.5" y="19.1387">actor</text><line style="stroke:#A80036;stroke-width:1.5;" x1="553.5" x2="632.5" y1="33.9688" y2="33.9688"/><line style="stroke:#A80036;stroke-width:1.5;" x1="553.5" x2="632.5" y1="41.9688" y2="41.9688"/><text fill="#000000" font-family="sans-serif" font-size="11" lengthAdjust="spacing" textLength="62" x="558.5" y="56.1792">authorize()</text><text fill="#000000" font-family="sans-serif" font-size="11" lengthAdjust="spacing" textLength="46" x="558.5" y="68.9839">delete()</text><!--MD5=[9dc77e7ad336a0b5d94bb7c1d3fca679]
class TourTaker--><rect codeLine="22" fill="#FEFECE" filter="url(#f1bhndf4dkw8lj)" height="129.6016" id="TourTaker" style="stroke:#A80036;stroke-width:1.5;" width="102" x="1085" y="159"/><text fill="#000000" font-family="sans-serif" font-size="12" lengthAdjust="spacing" textLength="61" x="1088" y="175.1387">TourTaker</text><rect fill="#FFFFFF" height="15.9688" style="stroke:#000000;stroke-width:1.0;stroke-dasharray:2.0,2.0;" width="33" x="1157" y="156"/><text fill="#000000" font-family="sans-serif" font-size="12" font-style="italic" lengthAdjust="spacing" textLength="31" x="1158" y="168.1387">actor</text><line style="stroke:#A80036;stroke-width:1.5;" x1="1086" x2="1186" y1="182.9688" y2="182.9688"/><line style="stroke:#A80036;stroke-width:1.5;" x1="1086" x2="1186" y1="190.9688" y2="190.9688"/><text fill="#000000" font-family="sans-serif" font-size="11" lengthAdjust="spacing" textLength="43" x="1091" y="205.1792">select()</text><text fill="#000000" font-family="sans-serif" font-size="11" lengthAdjust="spacing" textLength="47" x="1091" y="217.9839">access()</text><text fill="#000000" font-family="sans-serif" font-size="11" lengthAdjust="spacing" textLength="46" x="1091" y="230.7886">search()</text><text fill="#000000" font-family="sans-serif" font-size="11" lengthAdjust="spacing" textLength="32" x="1091" y="243.5933">click()</text><text fill="#000000" font-family="sans-serif" font-size="11" lengthAdjust="spacing" textLength="49" x="1091" y="256.3979">choose()</text><text fill="#000000" font-family="sans-serif" font-size="11" lengthAdjust="spacing" textLength="35" x="1091" y="269.2026">view()</text><text fill="#000000" font-family="sans-serif" font-size="11" lengthAdjust="spacing" textLength="29" x="1091" y="282.0073">use()</text><!--MD5=[670382207858ea18b37accb7fa92be09]
class Radius--><rect codeLine="31" fill="#FEFECE" filter="url(#f1bhndf4dkw8lj)" height="39.9688" id="Radius" style="stroke:#A80036;stroke-width:1.5;" width="45" x="1113.5" y="372"/><text fill="#000000" font-family="sans-serif" font-size="12" lengthAdjust="spacing" textLength="39" x="1116.5" y="388.1387">Radius</text><line style="stroke:#A80036;stroke-width:1.5;" x1="1114.5" x2="1157.5" y1="395.9688" y2="395.9688"/><line style="stroke:#A80036;stroke-width:1.5;" x1="1114.5" x2="1157.5" y1="403.9688" y2="403.9688"/><!--MD5=[ff3d20c1112759d46dde2fcead238479]
class Value--><rect codeLine="33" fill="#FEFECE" filter="url(#f1bhndf4dkw8lj)" height="39.9688" id="Value" style="stroke:#A80036;stroke-width:1.5;" width="39" x="1343.5" y="372"/><text fill="#000000" font-family="sans-serif" font-size="12" lengthAdjust="spacing" textLength="33" x="1346.5" y="388.1387">Value</text><line style="stroke:#A80036;stroke-width:1.5;" x1="1344.5" x2="1381.5" y1="395.9688" y2="395.9688"/><line style="stroke:#A80036;stroke-width:1.5;" x1="1344.5" x2="1381.5" y1="403.9688" y2="403.9688"/><!--MD5=[81bd20e0381b4631555d588155f2f5a3]
class Tour--><rect codeLine="35" fill="#FEFECE" filter="url(#f1bhndf4dkw8lj)" height="39.9688" id="Tour" style="stroke:#A80036;stroke-width:1.5;" width="33" x="718.5" y="372"/><text fill="#000000" font-family="sans-serif" font-size="12" lengthAdjust="spacing" textLength="27" x="721.5" y="388.1387">Tour</text><line style="stroke:#A80036;stroke-width:1.5;" x1="719.5" x2="750.5" y1="395.9688" y2="395.9688"/><line style="stroke:#A80036;stroke-width:1.5;" x1="719.5" x2="750.5" y1="403.9688" y2="403.9688"/><!--MD5=[625d529914033ab9379ad6bc01174fab]
class TourConductorWebsite--><rect codeLine="37" fill="#FEFECE" filter="url(#f1bhndf4dkw8lj)" height="39.9688" id="TourConductorWebsite" style="stroke:#A80036;stroke-width:1.5;" width="145" x="76.5" y="372"/><text fill="#000000" font-family="sans-serif" font-size="12" lengthAdjust="spacing" textLength="139" x="79.5" y="388.1387">TourConductorWebsite</text><line style="stroke:#A80036;stroke-width:1.5;" x1="77.5" x2="220.5" y1="395.9688" y2="395.9688"/><line style="stroke:#A80036;stroke-width:1.5;" x1="77.5" x2="220.5" y1="403.9688" y2="403.9688"/><!--MD5=[30fd7b95ab383a5e7c83ea23d4ea0fbf]
class Information--><rect codeLine="39" fill="#FEFECE" filter="url(#f1bhndf4dkw8lj)" height="39.9688" id="Information" style="stroke:#A80036;stroke-width:1.5;" width="73" x="546.5" y="372"/><text fill="#000000" font-family="sans-serif" font-size="12" lengthAdjust="spacing" textLength="67" x="549.5" y="388.1387">Information</text><line style="stroke:#A80036;stroke-width:1.5;" x1="547.5" x2="618.5" y1="395.9688" y2="395.9688"/><line style="stroke:#A80036;stroke-width:1.5;" x1="547.5" x2="618.5" y1="403.9688" y2="403.9688"/><!--MD5=[e817ac89aa025528a1ddf8e2c0b98a5e]
class Stop--><rect codeLine="41" fill="#FEFECE" filter="url(#f1bhndf4dkw8lj)" height="39.9688" id="Stop" style="stroke:#A80036;stroke-width:1.5;" width="34" x="1205" y="372"/><text fill="#000000" font-family="sans-serif" font-size="12" lengthAdjust="spacing" textLength="28" x="1208" y="388.1387">Stop</text><line style="stroke:#A80036;stroke-width:1.5;" x1="1206" x2="1238" y1="395.9688" y2="395.9688"/><line style="stroke:#A80036;stroke-width:1.5;" x1="1206" x2="1238" y1="403.9688" y2="403.9688"/><!--MD5=[3d4177ac58b4411586d067f34e84928f]
class List--><rect codeLine="43" fill="#FEFECE" filter="url(#f1bhndf4dkw8lj)" height="39.9688" id="List" style="stroke:#A80036;stroke-width:1.5;" width="26" x="1418" y="372"/><text fill="#000000" font-family="sans-serif" font-size="12" lengthAdjust="spacing" textLength="20" x="1421" y="388.1387">List</text><line style="stroke:#A80036;stroke-width:1.5;" x1="1419" x2="1443" y1="395.9688" y2="395.9688"/><line style="stroke:#A80036;stroke-width:1.5;" x1="1419" x2="1443" y1="403.9688" y2="403.9688"/><!--MD5=[18b89e0834131a909517048318a5909c]
class Picture--><rect codeLine="45" fill="#FEFECE" filter="url(#f1bhndf4dkw8lj)" height="39.9688" id="Picture" style="stroke:#A80036;stroke-width:1.5;" width="46" x="257" y="372"/><text fill="#000000" font-family="sans-serif" font-size="12" lengthAdjust="spacing" textLength="40" x="260" y="388.1387">Picture</text><line style="stroke:#A80036;stroke-width:1.5;" x1="258" x2="302" y1="395.9688" y2="395.9688"/><line style="stroke:#A80036;stroke-width:1.5;" x1="258" x2="302" y1="403.9688" y2="403.9688"/><!--MD5=[166247bf81aba95c770c3b8fd8e3cb19]
class Video--><rect codeLine="47" fill="#FEFECE" filter="url(#f1bhndf4dkw8lj)" height="39.9688" id="Video" style="stroke:#A80036;stroke-width:1.5;" width="41" x="341.5" y="372"/><text fill="#000000" font-family="sans-serif" font-size="12" lengthAdjust="spacing" textLength="35" x="344.5" y="388.1387">Video</text><line style="stroke:#A80036;stroke-width:1.5;" x1="342.5" x2="381.5" y1="395.9688" y2="395.9688"/><line style="stroke:#A80036;stroke-width:1.5;" x1="342.5" x2="381.5" y1="403.9688" y2="403.9688"/><!--MD5=[7cfcec95ce8c7b3cc21f2a5540b61e10]
class Area--><rect codeLine="49" fill="#FEFECE" filter="url(#f1bhndf4dkw8lj)" height="39.9688" id="Area" style="stroke:#A80036;stroke-width:1.5;" width="34" x="7" y="372"/><text fill="#000000" font-family="sans-serif" font-size="12" lengthAdjust="spacing" textLength="28" x="10" y="388.1387">Area</text><line style="stroke:#A80036;stroke-width:1.5;" x1="8" x2="40" y1="395.9688" y2="395.9688"/><line style="stroke:#A80036;stroke-width:1.5;" x1="8" x2="40" y1="403.9688" y2="403.9688"/><!--MD5=[b46deebd61b26634d574e36aa4c40304]
link TourTaker to Radius--><path codeLine="51" d="M1133.06,289.067 C1132.62,306.259 1132.48,324.8383 1133,342 C1133.25,350.0291 1133.72,358.7878 1134.21,366.6506 " fill="none" id="TourTaker-to-Radius" style="stroke:#A80036;stroke-width:1.0;"/><polygon fill="#A80036" points="1134.56,371.931,1137.9619,362.6883,1134.2325,366.9417,1129.9791,363.2123,1134.56,371.931" style="stroke:#A80036;stroke-width:1.0;"/><text fill="#000000" font-family="sans-serif" font-size="13" lengthAdjust="spacing" textLength="44" x="1134" y="338.0669">access</text><!--MD5=[ef1c2400a12f41a9a0944c779b777585]
link TourTaker to TourTaker--><path codeLine="52" d="M1187.21,203.794 C1206.29,203.132 1222,209.867 1222,224 C1222,236.808 1209.1,243.54 1192.48,244.197 " fill="none" id="TourTaker-to-TourTaker" style="stroke:#A80036;stroke-width:1.0;"/><polygon fill="#A80036" points="1187.21,244.206,1196.21,248.206,1192.21,244.206,1196.21,240.206,1187.21,244.206" style="stroke:#A80036;stroke-width:1.0;"/><text fill="#000000" font-family="sans-serif" font-size="13" lengthAdjust="spacing" textLength="27" x="1228" y="228.5669">click</text><!--MD5=[f50d5e8fe7691fae1635012e7f942dba]
link TourTaker to Value--><path codeLine="53" d="M1187.13,260.988 C1213.76,279.866 1246.77,303.484 1276,325 C1297.53,340.8538 1321.75,359.2729 1339.15,372.6179 " fill="none" id="TourTaker-to-Value" style="stroke:#A80036;stroke-width:1.0;"/><polygon fill="#A80036" points="1343.43,375.8968,1338.7434,367.2345,1339.4697,372.8445,1333.8597,373.5709,1343.43,375.8968" style="stroke:#A80036;stroke-width:1.0;"/><text fill="#000000" font-family="sans-serif" font-size="13" lengthAdjust="spacing" textLength="23" x="1298" y="338.0669">use</text><!--MD5=[9535a3bf614f6f7b0a2fd43ad20e6efc]
link Owner to TourCreator--><path codeLine="54" d="M566.898,76.002 C550.237,96.429 527.924,123.785 507.066,149.358 " fill="none" id="Owner-to-TourCreator" style="stroke:#A80036;stroke-width:1.0;"/><polygon fill="#A80036" points="503.732,153.446,512.5202,148.9999,506.8923,149.5714,506.3208,143.9435,503.732,153.446" style="stroke:#A80036;stroke-width:1.0;"/><text fill="#000000" font-family="sans-serif" font-size="13" lengthAdjust="spacing" textLength="60" x="543" y="119.0669">authorize</text><!--MD5=[4b6cdb996eb4d0e69577e66577dc21c2]
link TourTaker to Tour--><path codeLine="55" d="M1084.91,231.518 C1015.43,242.206 889.232,268.231 797,325 C779.164,335.978 763.102,353.4033 751.797,367.5929 " fill="none" id="TourTaker-to-Tour" style="stroke:#A80036;stroke-width:1.0;"/><polygon fill="#A80036" points="748.445,371.882,757.1395,367.2553,751.5245,367.9429,750.8369,362.328,748.445,371.882" style="stroke:#A80036;stroke-width:1.0;"/><text fill="#000000" font-family="sans-serif" font-size="13" lengthAdjust="spacing" textLength="38" x="798" y="338.0669">select</text><!--MD5=[4b6cdb996eb4d0e69577e66577dc21c2]
link TourTaker to Tour--><path codeLine="58" d="M1084.94,243.465 C1032.38,262.763 948.33,294.436 877,325 C860.736,331.969 857.031,334.5099 841,342 C811.629,355.7233 777.592,371.4207 756.178,381.2717 " fill="none" id="TourTaker-to-Tour-1" style="stroke:#A80036;stroke-width:1.0;"/><polygon fill="#A80036" points="751.544,383.4031,761.392,383.2752,756.0863,381.3132,758.0482,376.0075,751.544,383.4031" style="stroke:#A80036;stroke-width:1.0;"/><text fill="#000000" font-family="sans-serif" font-size="13" lengthAdjust="spacing" textLength="44" x="878" y="338.0669">access</text><!--MD5=[4b6cdb996eb4d0e69577e66577dc21c2]
link TourTaker to Tour--><path codeLine="69" d="M1084.81,255.685 C1033.66,285.97 958.278,329.5031 927,342 C867.473,365.7835 792.88,380.9045 756.691,387.3728 " fill="none" id="TourTaker-to-Tour-2" style="stroke:#A80036;stroke-width:1.0;"/><polygon fill="#A80036" points="751.637,388.2644,761.195,390.6401,756.561,387.3958,759.8053,382.7618,751.637,388.2644" style="stroke:#A80036;stroke-width:1.0;"/><text fill="#000000" font-family="sans-serif" font-size="13" lengthAdjust="spacing" textLength="43" x="959" y="338.0669">search</text><!--MD5=[80e25929cfe4bdf7129161e073bd4d9f]
link TourTaker to List--><path codeLine="56" d="M1187.01,249.502 C1226.59,268.94 1282.52,297.349 1330,325 C1360.12,342.5429 1393.76,365.1678 1413.62,378.8544 " fill="none" id="TourTaker-to-List" style="stroke:#A80036;stroke-width:1.0;"/><polygon fill="#A80036" points="1417.88,381.8004,1412.751,373.3925,1413.767,378.9573,1408.2021,379.9733,1417.88,381.8004" style="stroke:#A80036;stroke-width:1.0;"/><text fill="#000000" font-family="sans-serif" font-size="13" lengthAdjust="spacing" textLength="46" x="1356" y="338.0669">choose</text><!--MD5=[d85e29f1a5eb0cfefb4927405f246638]
link Owner to Tour--><path codeLine="57" d="M602.859,76.064 C625.115,148.08 678.376,318.2335 692,342 C698.095,352.6323 706.727,363.0367 714.659,371.5037 " fill="none" id="Owner-to-Tour" style="stroke:#A80036;stroke-width:1.0;"/><polygon fill="#A80036" points="718.483,375.4972,715.1478,366.2303,715.025,371.8858,709.3695,371.763,718.483,375.4972" style="stroke:#A80036;stroke-width:1.0;"/><text fill="#000000" font-family="sans-serif" font-size="13" lengthAdjust="spacing" textLength="40" x="674" y="228.5669">delete</text><!--MD5=[27dc7c7d8a6491c0998143395d5e0f8d]
link TourCreator to Picture--><path codeLine="59" d="M390.19,253.163 C360.605,270.347 325.92,294.823 303,325 C293.735,337.1988 288.014,353.4162 284.596,366.7224 " fill="none" id="TourCreator-to-Picture" style="stroke:#A80036;stroke-width:1.0;"/><polygon fill="#A80036" points="283.353,371.8511,289.3602,364.0464,284.5306,366.9918,281.5852,362.1622,283.353,371.8511" style="stroke:#A80036;stroke-width:1.0;"/><text fill="#000000" font-family="sans-serif" font-size="13" lengthAdjust="spacing" textLength="43" x="304" y="338.0669">upload</text><!--MD5=[752b1ded65b01d5d5d2ef2430e03f5a9]
link TourTaker to Stop--><path codeLine="60" d="M1169.25,289.18 C1183.49,316.6617 1199.23,347.0492 1209.78,367.4115 " fill="none" id="TourTaker-to-Stop" style="stroke:#A80036;stroke-width:1.0;"/><polygon fill="#A80036" points="1212.08,371.8539,1211.4814,362.0232,1209.7754,367.4167,1204.3819,365.7106,1212.08,371.8539" style="stroke:#A80036;stroke-width:1.0;"/><text fill="#000000" font-family="sans-serif" font-size="13" lengthAdjust="spacing" textLength="27" x="1197" y="338.0669">click</text><!--MD5=[752b1ded65b01d5d5d2ef2430e03f5a9]
link TourTaker to Stop--><path codeLine="66" d="M1187.22,263.528 C1205.26,280.211 1223.41,301.352 1233,325 C1238.39,338.3057 1236.01,354.1473 1232.11,366.9748 " fill="none" id="TourTaker-to-Stop-1" style="stroke:#A80036;stroke-width:1.0;"/><polygon fill="#A80036" points="1230.49,371.9108,1237.101,364.6105,1232.0517,367.161,1229.5012,362.1117,1230.49,371.9108" style="stroke:#A80036;stroke-width:1.0;"/><text fill="#000000" font-family="sans-serif" font-size="13" lengthAdjust="spacing" textLength="30" x="1237" y="338.0669">view</text><!--MD5=[19b1b88e563a48b6e8a43535c9cc881a]
link TourCreator to Stop--><path codeLine="61" d="M503.607,251.954 C538.399,267.262 584.341,285.262 627,295 C793.894,333.0975 842.51,294.734 1011,325 C1048.52,331.7405 1139.99,359.48 1176,372 C1183.82,374.7204 1192.24,378.0681 1199.71,381.1917 " fill="none" id="TourCreator-to-Stop" style="stroke:#A80036;stroke-width:1.0;"/><polygon fill="#A80036" points="1204.71,383.3078,1197.9731,376.1235,1200.1033,381.3639,1194.8629,383.4942,1204.71,383.3078" style="stroke:#A80036;stroke-width:1.0;"/><text fill="#000000" font-family="sans-serif" font-size="13" lengthAdjust="spacing" textLength="43" x="1079" y="338.0669">upload</text><!--MD5=[244187c8d910bfad0f8ef3444d8bc19c]
link TourCreator to TourCreator--><path codeLine="62" d="M503.74,203.751 C523.011,203.645 538.5,210.395 538.5,224 C538.5,236.33 525.779,243.029 509.051,244.098 " fill="none" id="TourCreator-to-TourCreator" style="stroke:#A80036;stroke-width:1.0;"/><polygon fill="#A80036" points="503.74,244.249,512.8506,247.9903,508.738,244.1062,512.6221,239.9935,503.74,244.249" style="stroke:#A80036;stroke-width:1.0;"/><text fill="#000000" font-family="sans-serif" font-size="13" lengthAdjust="spacing" textLength="30" x="544.5" y="228.5669">view</text><!--MD5=[7086601d8475114a830e5173f49228a0]
link TourTaker to Information--><path codeLine="63" d="M1084.72,235.032 C1007.87,250.69 858.734,283.492 736,325 C697.372,338.0637 654.896,356.7512 624.52,370.9087 " fill="none" id="TourTaker-to-Information" style="stroke:#A80036;stroke-width:1.0;"/><polygon fill="#A80036" points="619.752,373.1404,629.599,372.9473,624.2804,371.0205,626.2071,365.7019,619.752,373.1404" style="stroke:#A80036;stroke-width:1.0;"/><text fill="#000000" font-family="sans-serif" font-size="13" lengthAdjust="spacing" textLength="30" x="737" y="338.0669">view</text><!--MD5=[e3ffa9b227ba2a443abe79295ec238fa]
link TourCreator to Information--><path codeLine="64" d="M431.383,295.134 C431.261,311.714 434.433,328.4831 444,342 C465.89,372.9265 508.963,384.4699 541.389,388.7062 " fill="none" id="TourCreator-to-Information" style="stroke:#A80036;stroke-width:1.0;"/><polygon fill="#A80036" points="546.497,389.3253,538.0435,384.2718,541.5333,388.7239,537.0812,392.2137,546.497,389.3253" style="stroke:#A80036;stroke-width:1.0;"/><text fill="#000000" font-family="sans-serif" font-size="13" lengthAdjust="spacing" textLength="43" x="445" y="338.0669">upload</text><!--MD5=[e73028bfb15fea1f62547ee7fbb06ad4]
link TourCreator to Video--><path codeLine="65" d="M390.494,275.152 C377.69,289.811 365.858,306.825 359,325 C353.995,338.2635 354.522,354.1037 356.406,366.941 " fill="none" id="TourCreator-to-Video" style="stroke:#A80036;stroke-width:1.0;"/><polygon fill="#A80036" points="357.218,371.8814,359.7048,362.3517,356.4068,366.9476,351.8108,363.6496,357.218,371.8814" style="stroke:#A80036;stroke-width:1.0;"/><text fill="#000000" font-family="sans-serif" font-size="13" lengthAdjust="spacing" textLength="43" x="360" y="338.0669">upload</text><!--MD5=[207d807ab92b17857640dc859df7966f]
reverse link TourCreator to Tour--><path codeLine="67" d="M491.707,305.734 C502.382,319.4803 514.855,332.3952 529,342 C544.891,352.7903 672.138,378.6215 718.326,387.7427 " fill="none" id="TourCreator-backto-Tour" style="stroke:#A80036;stroke-width:1.0;"/><polygon fill="#FFFFFF" points="483.896,295.102,484.2246,302.3056,491.0005,304.7729,490.6719,297.5693,483.896,295.102" style="stroke:#A80036;stroke-width:1.0;"/><text fill="#000000" font-family="sans-serif" font-size="13" lengthAdjust="spacing" textLength="41" x="530" y="338.0669">create</text><!--MD5=[207d807ab92b17857640dc859df7966f]
reverse link TourCreator to Tour--><path codeLine="70" d="M514.033,278.023 C543.116,299.553 578.202,323.626 612,342 C648.149,361.6522 693.881,377.7785 718.122,385.7015 " fill="none" id="TourCreator-backto-Tour-1" style="stroke:#A80036;stroke-width:1.0;"/><polygon fill="#FFFFFF" points="503.603,270.221,506.0115,277.018,513.212,277.409,510.8035,270.612,503.603,270.221" style="stroke:#A80036;stroke-width:1.0;"/><text fill="#000000" font-family="sans-serif" font-size="13" lengthAdjust="spacing" textLength="30" x="613" y="338.0669">view</text><!--MD5=[52d70a5962bd0b8b8d685cf36264eb72]
reverse link TourCreator to Area--><path codeLine="68" d="M377.956,245.373 C317.513,263.922 227.764,293.201 152,325 C111.194,342.1267 65.6257,367.1212 41.3873,380.9165 " fill="none" id="TourCreator-backto-Area" style="stroke:#A80036;stroke-width:1.0;"/><polygon fill="#FFFFFF" points="390.393,241.581,383.4873,239.5047,378.9146,245.0806,385.8203,247.1569,390.393,241.581" style="stroke:#A80036;stroke-width:1.0;"/><text fill="#000000" font-family="sans-serif" font-size="13" lengthAdjust="spacing" textLength="55" x="153" y="338.0669">promote</text><!--MD5=[1b74eb28773c1a430b9854f7851021ec]
link TourCreator to TourConductorWebsite--><path codeLine="71" d="M390.35,249.871 C348.706,268.844 291.212,296.494 243,325 C220.34,338.3978 196.053,355.529 177.844,368.9801 " fill="none" id="TourCreator-to-TourConductorWebsite" style="stroke:#A80036;stroke-width:1.0;"/><polygon fill="#A80036" points="173.82,371.9657,183.431,369.8144,177.8352,368.986,178.6635,363.3901,173.82,371.9657" style="stroke:#A80036;stroke-width:1.0;"/><text fill="#000000" font-family="sans-serif" font-size="13" lengthAdjust="spacing" textLength="41" x="244" y="338.0669">create</text><!--MD5=[24a8114b1f8978d0642669ac291e6d47]
@startuml
hide circle
class TourCreator<actor> {
	tour
	area
}
class Owner<actor> {
}
class TourTaker<actor> {
}
class TourCreator {
	promote()
	upload()
	edit()
	delete()
	create()
	view()
}
class Owner {
	authorize()
	delete()
}
class TourTaker {
	select()
	access()
	search()
	click()
	choose()
	view()
	use()
}
class Radius {
}
class Value {
}
class Tour {
}
class TourConductorWebsite {
}
class Information {
}
class Stop {
}
class List {
}
class Picture {
}
class Video {
}
class Area {
}
TourTaker - -> Radius : access
TourTaker - -> TourTaker : click
TourTaker - -> Value : use
Owner - -> TourCreator : authorize
TourTaker - -> Tour : select
TourTaker - -> List : choose
Owner - -> Tour : delete
TourTaker - -> Tour : access
TourCreator - -> Picture : upload
TourTaker - -> Stop : click
TourCreator - -> Stop : upload
TourCreator - -> TourCreator : view
TourTaker - -> Information : view
TourCreator - -> Information : upload
TourCreator - -> Video : upload
TourTaker - -> Stop : view
TourCreator o- - Tour : create
TourCreator o- - Area : promote
TourTaker - -> Tour : search
TourCreator o- - Tour : view
TourCreator - -> TourConductorWebsite : create
@enduml

PlantUML version 1.2021.9beta2(Unknown compile time)
(GPL source distribution)
Java Runtime: Java(TM) SE Runtime Environment
JVM: Java HotSpot(TM) 64-Bit Server VM
Default Encoding: UTF-8
Language: en
Country: US
--></g></svg>