<?xml version="1.0" encoding="UTF-8" standalone="no"?><svg xmlns="http://www.w3.org/2000/svg" xmlns:xlink="http://www.w3.org/1999/xlink" contentScriptType="application/ecmascript" contentStyleType="text/css" height="334px" preserveAspectRatio="none" style="width:2464px;height:334px;background:#FFFFFF;" version="1.1" viewBox="0 0 2464 334" width="2464px" zoomAndPan="magnify"><defs><filter height="300%" id="fnqd1ot9966el" width="300%" x="-1" y="-1"><feGaussianBlur result="blurOut" stdDeviation="2.0"/><feColorMatrix in="blurOut" result="blurOut2" type="matrix" values="0 0 0 0 0 0 0 0 0 0 0 0 0 0 0 0 0 0 .4 0"/><feOffset dx="4.0" dy="4.0" in="blurOut2" result="blurOut3"/><feBlend in="SourceGraphic" in2="blurOut3" mode="normal"/></filter></defs><g><!--MD5=[b24ed8d4ae84bae9290d9aab401637c7]
class Manager--><rect codeLine="25" fill="#FEFECE" filter="url(#fnqd1ot9966el)" height="193.625" id="Manager" style="stroke:#A80036;stroke-width:1.5;" width="93" x="828" y="10"/><text fill="#000000" font-family="sans-serif" font-size="12" lengthAdjust="spacing" textLength="52" x="831" y="26.1387">Manager</text><rect fill="#FFFFFF" height="15.9688" style="stroke:#000000;stroke-width:1.0;stroke-dasharray:2.0,2.0;" width="33" x="891" y="7"/><text fill="#000000" font-family="sans-serif" font-size="12" font-style="italic" lengthAdjust="spacing" textLength="31" x="892" y="19.1387">actor</text><line style="stroke:#A80036;stroke-width:1.5;" x1="829" x2="920" y1="33.9688" y2="33.9688"/><line style="stroke:#A80036;stroke-width:1.5;" x1="829" x2="920" y1="41.9688" y2="41.9688"/><text fill="#000000" font-family="sans-serif" font-size="11" lengthAdjust="spacing" textLength="47" x="834" y="56.1792">modify()</text><text fill="#000000" font-family="sans-serif" font-size="11" lengthAdjust="spacing" textLength="27" x="834" y="68.9839">get()</text><text fill="#000000" font-family="sans-serif" font-size="11" lengthAdjust="spacing" textLength="35" x="834" y="81.7886">track()</text><text fill="#000000" font-family="sans-serif" font-size="11" lengthAdjust="spacing" textLength="40" x="834" y="94.5933">make()</text><text fill="#000000" font-family="sans-serif" font-size="11" lengthAdjust="spacing" textLength="36" x="834" y="107.3979">send()</text><text fill="#000000" font-family="sans-serif" font-size="11" lengthAdjust="spacing" textLength="47" x="834" y="120.2026">access()</text><text fill="#000000" font-family="sans-serif" font-size="11" lengthAdjust="spacing" textLength="30" x="834" y="133.0073">edit()</text><text fill="#000000" font-family="sans-serif" font-size="11" lengthAdjust="spacing" textLength="55" x="834" y="145.812">approve()</text><text fill="#000000" font-family="sans-serif" font-size="11" lengthAdjust="spacing" textLength="29" x="834" y="158.6167">find()</text><text fill="#000000" font-family="sans-serif" font-size="11" lengthAdjust="spacing" textLength="30" x="834" y="171.4214">see()</text><text fill="#000000" font-family="sans-serif" font-size="11" lengthAdjust="spacing" textLength="36" x="834" y="184.2261">save()</text><text fill="#000000" font-family="sans-serif" font-size="11" lengthAdjust="spacing" textLength="45" x="834" y="197.0308">create()</text><!--MD5=[5cebc918a8b8f2d1be5940e92c560bfd]
class Contractor--><rect codeLine="10" fill="#FEFECE" filter="url(#fnqd1ot9966el)" height="116.7969" id="Contractor" style="stroke:#A80036;stroke-width:1.5;" width="104" x="1808.5" y="48.5"/><text fill="#000000" font-family="sans-serif" font-size="12" lengthAdjust="spacing" textLength="63" x="1811.5" y="64.6387">Contractor</text><rect fill="#FFFFFF" height="15.9688" style="stroke:#000000;stroke-width:1.0;stroke-dasharray:2.0,2.0;" width="33" x="1882.5" y="45.5"/><text fill="#000000" font-family="sans-serif" font-size="12" font-style="italic" lengthAdjust="spacing" textLength="31" x="1883.5" y="57.6387">actor</text><line style="stroke:#A80036;stroke-width:1.5;" x1="1809.5" x2="1911.5" y1="72.4688" y2="72.4688"/><line style="stroke:#A80036;stroke-width:1.5;" x1="1809.5" x2="1911.5" y1="80.4688" y2="80.4688"/><text fill="#000000" font-family="sans-serif" font-size="11" lengthAdjust="spacing" textLength="39" x="1814.5" y="94.6792">enter()</text><text fill="#000000" font-family="sans-serif" font-size="11" lengthAdjust="spacing" textLength="55" x="1814.5" y="107.4839">manage()</text><text fill="#000000" font-family="sans-serif" font-size="11" lengthAdjust="spacing" textLength="36" x="1814.5" y="120.2886">send()</text><text fill="#000000" font-family="sans-serif" font-size="11" lengthAdjust="spacing" textLength="27" x="1814.5" y="133.0933">ask()</text><text fill="#000000" font-family="sans-serif" font-size="11" lengthAdjust="spacing" textLength="42" x="1814.5" y="145.8979">report()</text><text fill="#000000" font-family="sans-serif" font-size="11" lengthAdjust="spacing" textLength="30" x="1814.5" y="158.7026">see()</text><!--MD5=[26dcdd10cf618692568da23f9ea747aa]
class Architect--><rect codeLine="6" fill="#FEFECE" filter="url(#fnqd1ot9966el)" height="39.9688" id="Architect" style="stroke:#A80036;stroke-width:1.5;" width="94" x="2021.5" y="87"/><text fill="#000000" font-family="sans-serif" font-size="12" lengthAdjust="spacing" textLength="53" x="2024.5" y="103.1387">Architect</text><rect fill="#FFFFFF" height="15.9688" style="stroke:#000000;stroke-width:1.0;stroke-dasharray:2.0,2.0;" width="33" x="2085.5" y="84"/><text fill="#000000" font-family="sans-serif" font-size="12" font-style="italic" lengthAdjust="spacing" textLength="31" x="2086.5" y="96.1387">actor</text><line style="stroke:#A80036;stroke-width:1.5;" x1="2022.5" x2="2114.5" y1="110.9688" y2="110.9688"/><line style="stroke:#A80036;stroke-width:1.5;" x1="2022.5" x2="2114.5" y1="118.9688" y2="118.9688"/><!--MD5=[e60930a8d2a22e15a2c4c5b307c48b2d]
class ProjectManager--><rect codeLine="75" fill="#FEFECE" filter="url(#fnqd1ot9966el)" height="52.7734" id="ProjectManager" style="stroke:#A80036;stroke-width:1.5;" width="134" x="2224.5" y="80.5"/><text fill="#000000" font-family="sans-serif" font-size="12" lengthAdjust="spacing" textLength="93" x="2227.5" y="96.6387">ProjectManager</text><rect fill="#FFFFFF" height="15.9688" style="stroke:#000000;stroke-width:1.0;stroke-dasharray:2.0,2.0;" width="33" x="2328.5" y="77.5"/><text fill="#000000" font-family="sans-serif" font-size="12" font-style="italic" lengthAdjust="spacing" textLength="31" x="2329.5" y="89.6387">actor</text><line style="stroke:#A80036;stroke-width:1.5;" x1="2225.5" x2="2357.5" y1="104.4688" y2="104.4688"/><line style="stroke:#A80036;stroke-width:1.5;" x1="2225.5" x2="2357.5" y1="112.4688" y2="112.4688"/><text fill="#000000" font-family="sans-serif" font-size="11" lengthAdjust="spacing" textLength="35" x="2230.5" y="126.6792">track()</text><!--MD5=[95de876c96dd424a46bbdc4b910702da]
class MeetingMinute--><rect codeLine="18" fill="#FEFECE" filter="url(#fnqd1ot9966el)" height="39.9688" id="MeetingMinute" style="stroke:#A80036;stroke-width:1.5;" width="93" x="1452" y="281"/><text fill="#000000" font-family="sans-serif" font-size="12" lengthAdjust="spacing" textLength="87" x="1455" y="297.1387">MeetingMinute</text><line style="stroke:#A80036;stroke-width:1.5;" x1="1453" x2="1544" y1="304.9688" y2="304.9688"/><line style="stroke:#A80036;stroke-width:1.5;" x1="1453" x2="1544" y1="312.9688" y2="312.9688"/><!--MD5=[ac13618b1a974308c1f12eb6c57723dc]
class Event--><rect codeLine="20" fill="#FEFECE" filter="url(#fnqd1ot9966el)" height="52.7734" id="Event" style="stroke:#A80036;stroke-width:1.5;" width="52" x="2393.5" y="80.5"/><text fill="#000000" font-family="sans-serif" font-size="12" lengthAdjust="spacing" textLength="33" x="2403" y="96.6387">Event</text><line style="stroke:#A80036;stroke-width:1.5;" x1="2394.5" x2="2444.5" y1="104.4688" y2="104.4688"/><line style="stroke:#A80036;stroke-width:1.5;" x1="2394.5" x2="2444.5" y1="112.4688" y2="112.4688"/><text fill="#000000" font-family="sans-serif" font-size="11" lengthAdjust="spacing" textLength="40" x="2399.5" y="126.6792">taken()</text><!--MD5=[8515a37c80da559ff7ce07f8a9e75d30]
class Place--><rect codeLine="23" fill="#FEFECE" filter="url(#fnqd1ot9966el)" height="39.9688" id="Place" style="stroke:#A80036;stroke-width:1.5;" width="37" x="2401" y="281"/><text fill="#000000" font-family="sans-serif" font-size="12" lengthAdjust="spacing" textLength="31" x="2404" y="297.1387">Place</text><line style="stroke:#A80036;stroke-width:1.5;" x1="2402" x2="2437" y1="304.9688" y2="304.9688"/><line style="stroke:#A80036;stroke-width:1.5;" x1="2402" x2="2437" y1="312.9688" y2="312.9688"/><!--MD5=[41f5b97920949c93f11fe0d940b2487b]
class Summary--><rect codeLine="39" fill="#FEFECE" filter="url(#fnqd1ot9966el)" height="39.9688" id="Summary" style="stroke:#A80036;stroke-width:1.5;" width="62" x="878.5" y="281"/><text fill="#000000" font-family="sans-serif" font-size="12" lengthAdjust="spacing" textLength="56" x="881.5" y="297.1387">Summary</text><line style="stroke:#A80036;stroke-width:1.5;" x1="879.5" x2="939.5" y1="304.9688" y2="304.9688"/><line style="stroke:#A80036;stroke-width:1.5;" x1="879.5" x2="939.5" y1="312.9688" y2="312.9688"/><!--MD5=[818ce9cd1eb68477d70117a0a20ac581]
class Instruction--><rect codeLine="41" fill="#FEFECE" filter="url(#fnqd1ot9966el)" height="39.9688" id="Instruction" style="stroke:#A80036;stroke-width:1.5;" width="68" x="975.5" y="281"/><text fill="#000000" font-family="sans-serif" font-size="12" lengthAdjust="spacing" textLength="62" x="978.5" y="297.1387">Instruction</text><line style="stroke:#A80036;stroke-width:1.5;" x1="976.5" x2="1042.5" y1="304.9688" y2="304.9688"/><line style="stroke:#A80036;stroke-width:1.5;" x1="976.5" x2="1042.5" y1="312.9688" y2="312.9688"/><!--MD5=[79d378210367c0c6ec62ef762ddfbd1b]
class Project--><rect codeLine="43" fill="#FEFECE" filter="url(#fnqd1ot9966el)" height="39.9688" id="Project" style="stroke:#A80036;stroke-width:1.5;" width="47" x="1079" y="281"/><text fill="#000000" font-family="sans-serif" font-size="12" lengthAdjust="spacing" textLength="41" x="1082" y="297.1387">Project</text><line style="stroke:#A80036;stroke-width:1.5;" x1="1080" x2="1125" y1="304.9688" y2="304.9688"/><line style="stroke:#A80036;stroke-width:1.5;" x1="1080" x2="1125" y1="312.9688" y2="312.9688"/><!--MD5=[fc7123defb831ecdd44b2d9bcef6cceb]
class Question--><rect codeLine="45" fill="#FEFECE" filter="url(#fnqd1ot9966el)" height="39.9688" id="Question" style="stroke:#A80036;stroke-width:1.5;" width="60" x="1666.5" y="281"/><text fill="#000000" font-family="sans-serif" font-size="12" lengthAdjust="spacing" textLength="54" x="1669.5" y="297.1387">Question</text><line style="stroke:#A80036;stroke-width:1.5;" x1="1667.5" x2="1725.5" y1="304.9688" y2="304.9688"/><line style="stroke:#A80036;stroke-width:1.5;" x1="1667.5" x2="1725.5" y1="312.9688" y2="312.9688"/><!--MD5=[30fd7b95ab383a5e7c83ea23d4ea0fbf]
class Information--><rect codeLine="47" fill="#FEFECE" filter="url(#fnqd1ot9966el)" height="39.9688" id="Information" style="stroke:#A80036;stroke-width:1.5;" width="73" x="1161" y="281"/><text fill="#000000" font-family="sans-serif" font-size="12" lengthAdjust="spacing" textLength="67" x="1164" y="297.1387">Information</text><line style="stroke:#A80036;stroke-width:1.5;" x1="1162" x2="1233" y1="304.9688" y2="304.9688"/><line style="stroke:#A80036;stroke-width:1.5;" x1="1162" x2="1233" y1="312.9688" y2="312.9688"/><!--MD5=[f00dbe8c0302c6aec2cb26b3c659c8fc]
class Report--><rect codeLine="49" fill="#FEFECE" filter="url(#fnqd1ot9966el)" height="39.9688" id="Report" style="stroke:#A80036;stroke-width:1.5;" width="46" x="1761.5" y="281"/><text fill="#000000" font-family="sans-serif" font-size="12" lengthAdjust="spacing" textLength="40" x="1764.5" y="297.1387">Report</text><line style="stroke:#A80036;stroke-width:1.5;" x1="1762.5" x2="1806.5" y1="304.9688" y2="304.9688"/><line style="stroke:#A80036;stroke-width:1.5;" x1="1762.5" x2="1806.5" y1="312.9688" y2="312.9688"/><!--MD5=[f33202a4358b6dc53d5337ad154687fb]
class Progress--><rect codeLine="51" fill="#FEFECE" filter="url(#fnqd1ot9966el)" height="39.9688" id="Progress" style="stroke:#A80036;stroke-width:1.5;" width="60" x="1272.5" y="281"/><text fill="#000000" font-family="sans-serif" font-size="12" lengthAdjust="spacing" textLength="54" x="1275.5" y="297.1387">Progress</text><line style="stroke:#A80036;stroke-width:1.5;" x1="1273.5" x2="1331.5" y1="304.9688" y2="304.9688"/><line style="stroke:#A80036;stroke-width:1.5;" x1="1273.5" x2="1331.5" y1="312.9688" y2="312.9688"/><!--MD5=[e3d83ec5fd90ea9f3f2bfe265cb53458]
class Status--><rect codeLine="53" fill="#FEFECE" filter="url(#fnqd1ot9966el)" height="39.9688" id="Status" style="stroke:#A80036;stroke-width:1.5;" width="43" x="1374" y="281"/><text fill="#000000" font-family="sans-serif" font-size="12" lengthAdjust="spacing" textLength="37" x="1377" y="297.1387">Status</text><line style="stroke:#A80036;stroke-width:1.5;" x1="1375" x2="1416" y1="304.9688" y2="304.9688"/><line style="stroke:#A80036;stroke-width:1.5;" x1="1375" x2="1416" y1="312.9688" y2="312.9688"/><!--MD5=[b34797a66dc35cbf1d65f7e3ca75530e]
class Task--><rect codeLine="55" fill="#FEFECE" filter="url(#fnqd1ot9966el)" height="39.9688" id="Task" style="stroke:#A80036;stroke-width:1.5;" width="34" x="1842.5" y="281"/><text fill="#000000" font-family="sans-serif" font-size="12" lengthAdjust="spacing" textLength="28" x="1845.5" y="297.1387">Task</text><line style="stroke:#A80036;stroke-width:1.5;" x1="1843.5" x2="1875.5" y1="304.9688" y2="304.9688"/><line style="stroke:#A80036;stroke-width:1.5;" x1="1843.5" x2="1875.5" y1="312.9688" y2="312.9688"/><!--MD5=[f97d34d7a46e295edb007b908e35c034]
class MeetingInformation--><rect codeLine="57" fill="#FEFECE" filter="url(#fnqd1ot9966el)" height="39.9688" id="MeetingInformation" style="stroke:#A80036;stroke-width:1.5;" width="121" x="7" y="281"/><text fill="#000000" font-family="sans-serif" font-size="12" lengthAdjust="spacing" textLength="115" x="10" y="297.1387">MeetingInformation</text><line style="stroke:#A80036;stroke-width:1.5;" x1="8" x2="127" y1="304.9688" y2="304.9688"/><line style="stroke:#A80036;stroke-width:1.5;" x1="8" x2="127" y1="312.9688" y2="312.9688"/><!--MD5=[6b13f1b330d33795af281e5c1dfe1e98]
class Resource--><rect codeLine="59" fill="#FEFECE" filter="url(#fnqd1ot9966el)" height="39.9688" id="Resource" style="stroke:#A80036;stroke-width:1.5;" width="63" x="1912" y="281"/><text fill="#000000" font-family="sans-serif" font-size="12" lengthAdjust="spacing" textLength="57" x="1915" y="297.1387">Resource</text><line style="stroke:#A80036;stroke-width:1.5;" x1="1913" x2="1974" y1="304.9688" y2="304.9688"/><line style="stroke:#A80036;stroke-width:1.5;" x1="1913" x2="1974" y1="312.9688" y2="312.9688"/><!--MD5=[bed676bd0837f909e4d32ec2dc9dc1c5]
class logs--><rect codeLine="61" fill="#FEFECE" filter="url(#fnqd1ot9966el)" height="39.9688" id="logs" style="stroke:#A80036;stroke-width:1.5;" width="32" x="163.5" y="281"/><text fill="#000000" font-family="sans-serif" font-size="12" lengthAdjust="spacing" textLength="26" x="166.5" y="297.1387">logs</text><line style="stroke:#A80036;stroke-width:1.5;" x1="164.5" x2="194.5" y1="304.9688" y2="304.9688"/><line style="stroke:#A80036;stroke-width:1.5;" x1="164.5" x2="194.5" y1="312.9688" y2="312.9688"/><!--MD5=[60c9ed31c535bee25c55ce21b5b01399]
class Data--><rect codeLine="63" fill="#FEFECE" filter="url(#fnqd1ot9966el)" height="39.9688" id="Data" style="stroke:#A80036;stroke-width:1.5;" width="33" x="2010" y="281"/><text fill="#000000" font-family="sans-serif" font-size="12" lengthAdjust="spacing" textLength="27" x="2013" y="297.1387">Data</text><line style="stroke:#A80036;stroke-width:1.5;" x1="2011" x2="2042" y1="304.9688" y2="304.9688"/><line style="stroke:#A80036;stroke-width:1.5;" x1="2011" x2="2042" y1="312.9688" y2="312.9688"/><!--MD5=[e2c138412f9dfe80b78de5769550c1dc]
class GeneratedPDFReport--><rect codeLine="65" fill="#FEFECE" filter="url(#fnqd1ot9966el)" height="39.9688" id="GeneratedPDFReport" style="stroke:#A80036;stroke-width:1.5;" width="132" x="230.5" y="281"/><text fill="#000000" font-family="sans-serif" font-size="12" lengthAdjust="spacing" textLength="126" x="233.5" y="297.1387">GeneratedPDFReport</text><line style="stroke:#A80036;stroke-width:1.5;" x1="231.5" x2="361.5" y1="304.9688" y2="304.9688"/><line style="stroke:#A80036;stroke-width:1.5;" x1="231.5" x2="361.5" y1="312.9688" y2="312.9688"/><!--MD5=[0851f84a889f989e7bb0bebc385d0f09]
class Request--><rect codeLine="67" fill="#FEFECE" filter="url(#fnqd1ot9966el)" height="39.9688" id="Request" style="stroke:#A80036;stroke-width:1.5;" width="55" x="398" y="281"/><text fill="#000000" font-family="sans-serif" font-size="12" lengthAdjust="spacing" textLength="49" x="401" y="297.1387">Request</text><line style="stroke:#A80036;stroke-width:1.5;" x1="399" x2="452" y1="304.9688" y2="304.9688"/><line style="stroke:#A80036;stroke-width:1.5;" x1="399" x2="452" y1="312.9688" y2="312.9688"/><!--MD5=[042fa140da40c49659127f611bcff931]
class Comment--><rect codeLine="69" fill="#FEFECE" filter="url(#fnqd1ot9966el)" height="39.9688" id="Comment" style="stroke:#A80036;stroke-width:1.5;" width="63" x="488" y="281"/><text fill="#000000" font-family="sans-serif" font-size="12" lengthAdjust="spacing" textLength="57" x="491" y="297.1387">Comment</text><line style="stroke:#A80036;stroke-width:1.5;" x1="489" x2="550" y1="304.9688" y2="304.9688"/><line style="stroke:#A80036;stroke-width:1.5;" x1="489" x2="550" y1="312.9688" y2="312.9688"/><!--MD5=[3db53164d4ddbdea4156eda8a776d7e7]
class Decision--><rect codeLine="71" fill="#FEFECE" filter="url(#fnqd1ot9966el)" height="39.9688" id="Decision" style="stroke:#A80036;stroke-width:1.5;" width="58" x="586.5" y="281"/><text fill="#000000" font-family="sans-serif" font-size="12" lengthAdjust="spacing" textLength="52" x="589.5" y="297.1387">Decision</text><line style="stroke:#A80036;stroke-width:1.5;" x1="587.5" x2="643.5" y1="304.9688" y2="304.9688"/><line style="stroke:#A80036;stroke-width:1.5;" x1="587.5" x2="643.5" y1="312.9688" y2="312.9688"/><!--MD5=[1d7f89d46fe5890de77e49145f8259d3]
class Topic--><rect codeLine="73" fill="#FEFECE" filter="url(#fnqd1ot9966el)" height="39.9688" id="Topic" style="stroke:#A80036;stroke-width:1.5;" width="39" x="680" y="281"/><text fill="#000000" font-family="sans-serif" font-size="12" lengthAdjust="spacing" textLength="33" x="683" y="297.1387">Topic</text><line style="stroke:#A80036;stroke-width:1.5;" x1="681" x2="718" y1="304.9688" y2="304.9688"/><line style="stroke:#A80036;stroke-width:1.5;" x1="681" x2="718" y1="312.9688" y2="312.9688"/><!--MD5=[f9cd8866b3b5f3ce554e30a610b69661]
class TaskProgress--><rect codeLine="78" fill="#FEFECE" filter="url(#fnqd1ot9966el)" height="39.9688" id="TaskProgress" style="stroke:#A80036;stroke-width:1.5;" width="88" x="2247.5" y="281"/><text fill="#000000" font-family="sans-serif" font-size="12" lengthAdjust="spacing" textLength="82" x="2250.5" y="297.1387">TaskProgress</text><line style="stroke:#A80036;stroke-width:1.5;" x1="2248.5" x2="2334.5" y1="304.9688" y2="304.9688"/><line style="stroke:#A80036;stroke-width:1.5;" x1="2248.5" x2="2334.5" y1="312.9688" y2="312.9688"/><!--MD5=[bea5b0d46523efab5ea1c1d339f396f0]
class Message--><rect codeLine="80" fill="#FEFECE" filter="url(#fnqd1ot9966el)" height="39.9688" id="Message" style="stroke:#A80036;stroke-width:1.5;" width="61" x="2078" y="281"/><text fill="#000000" font-family="sans-serif" font-size="12" lengthAdjust="spacing" textLength="55" x="2081" y="297.1387">Message</text><line style="stroke:#A80036;stroke-width:1.5;" x1="2079" x2="2138" y1="304.9688" y2="304.9688"/><line style="stroke:#A80036;stroke-width:1.5;" x1="2079" x2="2138" y1="312.9688" y2="312.9688"/><!--MD5=[70313f9481c73a9808968c254b51c052]
class Issue--><rect codeLine="82" fill="#FEFECE" filter="url(#fnqd1ot9966el)" height="39.9688" id="Issue" style="stroke:#A80036;stroke-width:1.5;" width="38" x="2174.5" y="281"/><text fill="#000000" font-family="sans-serif" font-size="12" lengthAdjust="spacing" textLength="32" x="2177.5" y="297.1387">Issue</text><line style="stroke:#A80036;stroke-width:1.5;" x1="2175.5" x2="2211.5" y1="304.9688" y2="304.9688"/><line style="stroke:#A80036;stroke-width:1.5;" x1="2175.5" x2="2211.5" y1="312.9688" y2="312.9688"/><!--MD5=[25efae8c998e180ebb0f6912866ff8b7]
class TaskCategory--><rect codeLine="84" fill="#FEFECE" filter="url(#fnqd1ot9966el)" height="39.9688" id="TaskCategory" style="stroke:#A80036;stroke-width:1.5;" width="89" x="754" y="281"/><text fill="#000000" font-family="sans-serif" font-size="12" lengthAdjust="spacing" textLength="83" x="757" y="297.1387">TaskCategory</text><line style="stroke:#A80036;stroke-width:1.5;" x1="755" x2="842" y1="304.9688" y2="304.9688"/><line style="stroke:#A80036;stroke-width:1.5;" x1="755" x2="842" y1="312.9688" y2="312.9688"/><!--MD5=[371364a6d7b486039f21f31616b5ee45]
class Change--><rect codeLine="86" fill="#FEFECE" filter="url(#fnqd1ot9966el)" height="39.9688" id="Change" style="stroke:#A80036;stroke-width:1.5;" width="51" x="1580" y="281"/><text fill="#000000" font-family="sans-serif" font-size="12" lengthAdjust="spacing" textLength="45" x="1583" y="297.1387">Change</text><line style="stroke:#A80036;stroke-width:1.5;" x1="1581" x2="1630" y1="304.9688" y2="304.9688"/><line style="stroke:#A80036;stroke-width:1.5;" x1="1581" x2="1630" y1="312.9688" y2="312.9688"/><!--MD5=[84168ff54c636ca4e38ac786fe164e99]
link Contractor to Change--><path codeLine="88" d="M1808.21,146.695 C1774.75,171.526 1730.47,204.525 1691.5,234 C1672.4,248.4446 1651.05,264.832 1634.4,277.664 " fill="none" id="Contractor-to-Change" style="stroke:#A80036;stroke-width:1.0;"/><polygon fill="#A80036" points="1630.27,280.8464,1639.8384,278.5128,1634.2278,277.791,1634.9497,272.1803,1630.27,280.8464" style="stroke:#A80036;stroke-width:1.0;"/><text fill="#000000" font-family="sans-serif" font-size="13" lengthAdjust="spacing" textLength="39" x="1692.5" y="247.0669">report</text><!--MD5=[65124448dad3d56ccd5eb9ef3948322a]
link Manager to GeneratedPDFReport--><path codeLine="89" d="M827.776,121.339 C751.751,143.295 596.766,189.103 467.5,234 C427.102,248.0313 381.993,265.5194 348.253,278.9682 " fill="none" id="Manager-to-GeneratedPDFReport" style="stroke:#A80036;stroke-width:1.0;"/><polygon fill="#A80036" points="343.36,280.9222,353.2016,281.2992,348.0034,279.0679,350.2348,273.8697,343.36,280.9222" style="stroke:#A80036;stroke-width:1.0;"/><text fill="#000000" font-family="sans-serif" font-size="13" lengthAdjust="spacing" textLength="21" x="468.5" y="247.0669">get</text><!--MD5=[bf7fd19c0b8a90f671ba1f0c8382e75e]
link Manager to Summary--><path codeLine="90" d="M863.316,204.044 C864.042,220.023 866.433,236.1991 871.5,251 C874.677,260.2811 880.407,269.1635 886.47,276.7549 " fill="none" id="Manager-to-Summary" style="stroke:#A80036;stroke-width:1.0;"/><polygon fill="#A80036" points="889.859,280.834,887.1844,271.3552,886.6638,276.9881,881.031,276.4675,889.859,280.834" style="stroke:#A80036;stroke-width:1.0;"/><text fill="#000000" font-family="sans-serif" font-size="13" lengthAdjust="spacing" textLength="23" x="872.5" y="247.0669">see</text><!--MD5=[eb16c2c1dcd0ecbebbe4017e008d6656]
link Manager to MeetingInformation--><path codeLine="91" d="M827.874,115.941 C725.95,133.689 475.984,179.337 270.5,234 C221.115,247.1375 166.033,265.2715 125.721,279.2075 " fill="none" id="Manager-to-MeetingInformation" style="stroke:#A80036;stroke-width:1.0;"/><polygon fill="#A80036" points="120.879,280.8855,130.6928,281.7154,125.6029,279.2471,128.0713,274.1572,120.879,280.8855" style="stroke:#A80036;stroke-width:1.0;"/><text fill="#000000" font-family="sans-serif" font-size="13" lengthAdjust="spacing" textLength="24" x="271.5" y="247.0669">edit</text><!--MD5=[3a543d5ade3c31fce4ea27443ac4da43]
link Manager to Request--><path codeLine="92" d="M827.774,121.144 C759.624,141.145 629.833,182.405 526.5,234 C501.411,246.5271 474.942,264.0015 455.397,277.823 " fill="none" id="Manager-to-Request" style="stroke:#A80036;stroke-width:1.0;"/><polygon fill="#A80036" points="451.085,280.8926,460.7366,278.9313,455.1582,277.9927,456.0967,272.4143,451.085,280.8926" style="stroke:#A80036;stroke-width:1.0;"/><text fill="#000000" font-family="sans-serif" font-size="13" lengthAdjust="spacing" textLength="53" x="527.5" y="247.0669">approve</text><!--MD5=[f622e75bf3875c60f933b347b4864050]
link Manager to Instruction--><path codeLine="93" d="M907.194,204.334 C915.269,220.879 924.985,237.172 936.5,251 C945.982,262.387 958.77,272.184 970.993,279.9596 " fill="none" id="Manager-to-Instruction" style="stroke:#A80036;stroke-width:1.0;"/><polygon fill="#A80036" points="975.464,282.732,969.9223,274.5902,971.2144,280.0975,965.7071,281.3896,975.464,282.732" style="stroke:#A80036;stroke-width:1.0;"/><text fill="#000000" font-family="sans-serif" font-size="13" lengthAdjust="spacing" textLength="31" x="937.5" y="247.0669">send</text><!--MD5=[51eeb2879d8d4cd3e25182899c5ca718]
link Manager to Comment--><path codeLine="94" d="M827.794,128.368 C775.302,151.815 688.067,192.463 616.5,234 C593.407,247.403 568.53,264.3851 549.752,277.7666 " fill="none" id="Manager-to-Comment" style="stroke:#A80036;stroke-width:1.0;"/><polygon fill="#A80036" points="545.599,280.7378,555.2458,278.7529,549.6651,277.828,550.59,272.2472,545.599,280.7378" style="stroke:#A80036;stroke-width:1.0;"/><text fill="#000000" font-family="sans-serif" font-size="13" lengthAdjust="spacing" textLength="53" x="617.5" y="247.0669">approve</text><!--MD5=[a6a72dbc0865d34e0816a36dde2ec58a]
link Manager to Project--><path codeLine="95" d="M921.002,165.565 C945.435,193.525 977.009,226.3235 1009.5,251 C1020.54,259.3819 1051.21,275.0645 1074.34,286.4353 " fill="none" id="Manager-to-Project" style="stroke:#A80036;stroke-width:1.0;"/><polygon fill="#A80036" points="1078.85,288.6485,1072.528,281.0965,1074.36,286.4485,1069.008,288.2805,1078.85,288.6485" style="stroke:#A80036;stroke-width:1.0;"/><text fill="#000000" font-family="sans-serif" font-size="13" lengthAdjust="spacing" textLength="45" x="1010.5" y="247.0669">modify</text><!--MD5=[a6a72dbc0865d34e0816a36dde2ec58a]
link Manager to Project--><path codeLine="112" d="M921.194,132.438 C961.359,155.034 1019.18,191.482 1060.5,234 C1072.66,246.5142 1083.19,263.0907 1090.67,276.5002 " fill="none" id="Manager-to-Project-1" style="stroke:#A80036;stroke-width:1.0;"/><polygon fill="#A80036" points="1093.09,280.9159,1092.2782,271.1006,1090.6896,276.5298,1085.2604,274.9412,1093.09,280.9159" style="stroke:#A80036;stroke-width:1.0;"/><text fill="#000000" font-family="sans-serif" font-size="13" lengthAdjust="spacing" textLength="41" x="1075.5" y="247.0669">create</text><!--MD5=[dd56548757ba12c008ccee7e8487e858]
link Manager to Progress--><path codeLine="96" d="M921.219,125.335 C982.005,148.304 1091.12,190.964 1181.5,234 C1211.19,248.1396 1243.88,266.1212 1267.79,279.7434 " fill="none" id="Manager-to-Progress" style="stroke:#A80036;stroke-width:1.0;"/><polygon fill="#A80036" points="1272.15,282.2343,1266.3273,274.291,1267.811,279.7498,1262.3521,281.2334,1272.15,282.2343" style="stroke:#A80036;stroke-width:1.0;"/><text fill="#000000" font-family="sans-serif" font-size="13" lengthAdjust="spacing" textLength="32" x="1216.5" y="247.0669">track</text><!--MD5=[dd56548757ba12c008ccee7e8487e858]
link Manager to Progress--><path codeLine="106" d="M921.103,113.506 C998.007,124.59 1153.33,155.609 1257.5,234 C1272.14,245.013 1283.65,262.2288 1291.36,276.3163 " fill="none" id="Manager-to-Progress-1" style="stroke:#A80036;stroke-width:1.0;"/><polygon fill="#A80036" points="1293.83,280.9604,1293.135,271.1361,1291.482,276.546,1286.072,274.893,1293.83,280.9604" style="stroke:#A80036;stroke-width:1.0;"/><text fill="#000000" font-family="sans-serif" font-size="13" lengthAdjust="spacing" textLength="31" x="1275.5" y="247.0669">save</text><!--MD5=[1df5c66e6c44cb925a011a6faf68f637]
link Contractor to Question--><path codeLine="97" d="M1811.29,165.606 C1779.46,202.876 1739.73,249.3883 1716.34,276.7764 " fill="none" id="Contractor-to-Question" style="stroke:#A80036;stroke-width:1.0;"/><polygon fill="#A80036" points="1713.01,280.6752,1721.8979,276.4319,1716.2584,276.8741,1715.8162,271.2346,1713.01,280.6752" style="stroke:#A80036;stroke-width:1.0;"/><text fill="#000000" font-family="sans-serif" font-size="13" lengthAdjust="spacing" textLength="22" x="1751.5" y="247.0669">ask</text><!--MD5=[d29378c3152d5b3904b9963751ffbada]
link Manager to Decision--><path codeLine="98" d="M827.663,141.272 C792.461,166.435 743.168,202 700.5,234 C681.485,248.2608 660.378,264.647 643.953,277.5244 " fill="none" id="Manager-to-Decision" style="stroke:#A80036;stroke-width:1.0;"/><polygon fill="#A80036" points="639.883,280.7193,649.4324,278.3091,643.8162,277.6322,644.4931,272.016,639.883,280.7193" style="stroke:#A80036;stroke-width:1.0;"/><text fill="#000000" font-family="sans-serif" font-size="13" lengthAdjust="spacing" textLength="36" x="701.5" y="247.0669">make</text><!--MD5=[5b82e33fbfc8090aaa1bca9f8eccc825]
link Manager to Status--><path codeLine="99" d="M921.277,114.875 C1004.468,128.477 1181.94,163.78 1315.5,234 C1337.1,245.355 1358.25,263.1828 1373.37,277.4486 " fill="none" id="Manager-to-Status" style="stroke:#A80036;stroke-width:1.0;"/><polygon fill="#A80036" points="1377.08,280.9927,1373.3198,271.8899,1373.4587,277.5451,1367.8036,277.684,1377.08,280.9927" style="stroke:#A80036;stroke-width:1.0;"/><text fill="#000000" font-family="sans-serif" font-size="13" lengthAdjust="spacing" textLength="31" x="1343.5" y="247.0669">save</text><!--MD5=[bedb91481dcb33dcc126b3381107f57a]
link Manager to Information--><path codeLine="100" d="M921.047,126.735 C973.107,148.718 1058.86,188.058 1125.5,234 C1143.75,246.5808 1162.13,263.5207 1175.76,277.0884 " fill="none" id="Manager-to-Information" style="stroke:#A80036;stroke-width:1.0;"/><polygon fill="#A80036" points="1179.47,280.8193,1175.9555,271.6189,1175.9425,277.2757,1170.2857,277.2628,1179.47,280.8193" style="stroke:#A80036;stroke-width:1.0;"/><text fill="#000000" font-family="sans-serif" font-size="13" lengthAdjust="spacing" textLength="24" x="1148.5" y="247.0669">edit</text><!--MD5=[89f836664e8738708ef8deaecea8e0d9]
link Manager to Topic--><path codeLine="101" d="M827.833,159.2 C792.949,197.474 746.902,247.9935 720.511,276.9475 " fill="none" id="Manager-to-Topic" style="stroke:#A80036;stroke-width:1.0;"/><polygon fill="#A80036" points="717.078,280.714,726.0967,276.7564,720.446,277.0185,720.1839,271.3677,717.078,280.714" style="stroke:#A80036;stroke-width:1.0;"/><text fill="#000000" font-family="sans-serif" font-size="13" lengthAdjust="spacing" textLength="24" x="757.5" y="247.0669">find</text><!--MD5=[cafc7065a69571148802b93a1258e46a]
link Contractor to Task--><path codeLine="102" d="M1860.2,165.606 C1860.01,202.265 1859.77,247.8658 1859.63,275.4142 " fill="none" id="Contractor-to-Task" style="stroke:#A80036;stroke-width:1.0;"/><polygon fill="#A80036" points="1859.6,280.6752,1863.647,271.6962,1859.6261,275.6753,1855.6471,271.6544,1859.6,280.6752" style="stroke:#A80036;stroke-width:1.0;"/><text fill="#000000" font-family="sans-serif" font-size="13" lengthAdjust="spacing" textLength="23" x="1861.5" y="247.0669">see</text><!--MD5=[65f40a44a451bee789597ddaf8a7abd1]
link Contractor to Report--><path codeLine="103" d="M1837.7,165.606 C1823.13,202.418 1804.99,248.246 1794.1,275.7576 " fill="none" id="Contractor-to-Report" style="stroke:#A80036;stroke-width:1.0;"/><polygon fill="#A80036" points="1792.15,280.6752,1799.1776,273.775,1793.9875,276.0251,1791.7374,270.835,1792.15,280.6752" style="stroke:#A80036;stroke-width:1.0;"/><text fill="#000000" font-family="sans-serif" font-size="13" lengthAdjust="spacing" textLength="34" x="1810.5" y="247.0669">enter</text><!--MD5=[eb1a7a149f723248bd667206b9e79b6e]
link ProjectManager to TaskProgress--><path codeLine="104" d="M2291.5,133.894 C2291.5,171.162 2291.5,239.4246 2291.5,275.7537 " fill="none" id="ProjectManager-to-TaskProgress" style="stroke:#A80036;stroke-width:1.0;"/><polygon fill="#A80036" points="2291.5,280.8746,2295.5,271.8746,2291.5,275.8746,2287.5,271.8746,2291.5,280.8746" style="stroke:#A80036;stroke-width:1.0;"/><text fill="#000000" font-family="sans-serif" font-size="13" lengthAdjust="spacing" textLength="32" x="2292.5" y="247.0669">track</text><!--MD5=[dfa81e978f671dafe3f7e033d3402f09]
link Contractor to Resource--><path codeLine="105" d="M1885.4,165.606 C1901.32,202.418 1921.13,248.246 1933.02,275.7576 " fill="none" id="Contractor-to-Resource" style="stroke:#A80036;stroke-width:1.0;"/><polygon fill="#A80036" points="1935.15,280.6752,1935.2472,270.8268,1933.1645,276.0863,1927.905,274.0036,1935.15,280.6752" style="stroke:#A80036;stroke-width:1.0;"/><text fill="#000000" font-family="sans-serif" font-size="13" lengthAdjust="spacing" textLength="53" x="1922.5" y="247.0669">manage</text><!--MD5=[8e31512fb61e13187f094f63cd6eb6a2]
link Contractor to Message--><path codeLine="107" d="M1912.52,141.213 C1949.36,165.488 1999.33,199.982 2040.5,234 C2056.85,247.5067 2073.97,264.142 2086.94,277.3322 " fill="none" id="Contractor-to-Message" style="stroke:#A80036;stroke-width:1.0;"/><polygon fill="#A80036" points="2090.49,280.9557,2087.0516,271.7265,2086.992,277.3831,2081.3354,277.3234,2090.49,280.9557" style="stroke:#A80036;stroke-width:1.0;"/><text fill="#000000" font-family="sans-serif" font-size="13" lengthAdjust="spacing" textLength="31" x="2059.5" y="247.0669">send</text><!--MD5=[ffcad8848a113909bf2c8c082e59e5cd]
link Manager to logs--><path codeLine="108" d="M827.867,118.989 C738.851,140.12 538.683,188.373 371.5,234 C300.411,253.4016 280.231,251.9712 212.5,281 C208.395,282.7595 204.158,284.9137 200.145,287.1316 " fill="none" id="Manager-to-logs" style="stroke:#A80036;stroke-width:1.0;"/><polygon fill="#A80036" points="195.558,289.7448,205.3582,288.7666,199.9028,287.2703,201.399,281.8149,195.558,289.7448" style="stroke:#A80036;stroke-width:1.0;"/><text fill="#000000" font-family="sans-serif" font-size="13" lengthAdjust="spacing" textLength="44" x="372.5" y="247.0669">access</text><!--MD5=[c882a2df7292a83f268305884e0a8953]
link Contractor to MeetingMinute--><path codeLine="109" d="M1808.25,135.713 C1735.49,174.302 1605.19,243.4104 1539.2,278.4146 " fill="none" id="Contractor-to-MeetingMinute" style="stroke:#A80036;stroke-width:1.0;"/><polygon fill="#A80036" points="1534.56,280.8751,1544.3851,280.1917,1538.9771,278.5322,1540.6366,273.1243,1534.56,280.8751" style="stroke:#A80036;stroke-width:1.0;"/><text fill="#000000" font-family="sans-serif" font-size="13" lengthAdjust="spacing" textLength="23" x="1617.5" y="247.0669">see</text><!--MD5=[4410d9140e3b406b4f68816056386ee4]
link Contractor to Issue--><path codeLine="110" d="M1912.63,148.316 C1938.82,167.158 1971.68,188.746 2003.5,204 C2043.81,223.3249 2059.4,214.254 2099.5,234 C2125.45,246.7745 2152.16,266.2578 2170.45,280.7483 " fill="none" id="Contractor-to-Issue" style="stroke:#A80036;stroke-width:1.0;"/><polygon fill="#A80036" points="2174.45,283.9454,2169.9261,275.197,2170.5475,280.8196,2164.9249,281.441,2174.45,283.9454" style="stroke:#A80036;stroke-width:1.0;"/><text fill="#000000" font-family="sans-serif" font-size="13" lengthAdjust="spacing" textLength="22" x="2128.5" y="247.0669">ask</text><!--MD5=[c598bfb41868d98c09e8599501d3716c]
link Manager to MeetingMinute--><path codeLine="111" d="M921.119,115.069 C1012.34,129.863 1219.82,168.275 1383.5,234 C1412.74,245.7409 1443.59,263.7942 1465.96,278.0535 " fill="none" id="Manager-to-MeetingMinute" style="stroke:#A80036;stroke-width:1.0;"/><polygon fill="#A80036" points="1470.32,280.8518,1464.9054,272.6249,1466.1118,278.1516,1460.5851,279.358,1470.32,280.8518" style="stroke:#A80036;stroke-width:1.0;"/><text fill="#000000" font-family="sans-serif" font-size="13" lengthAdjust="spacing" textLength="31" x="1421.5" y="247.0669">send</text><!--MD5=[287e042efe01aeb0d99cab1f4e142eda]
link Manager to TaskCategory--><path codeLine="113" d="M836.389,204.281 C825.826,230.9653 815.275,257.6203 808,275.9997 " fill="none" id="Manager-to-TaskCategory" style="stroke:#A80036;stroke-width:1.0;"/><polygon fill="#A80036" points="806.038,280.9574,813.07,274.0616,807.8784,276.3084,805.6316,271.1169,806.038,280.9574" style="stroke:#A80036;stroke-width:1.0;"/><text fill="#000000" font-family="sans-serif" font-size="13" lengthAdjust="spacing" textLength="24" x="824.5" y="247.0669">edit</text><!--MD5=[9c43803ff805ab57812746058974aa85]
link Event to Place--><path codeLine="114" d="M2419.5,133.894 C2419.5,171.162 2419.5,239.4246 2419.5,275.7537 " fill="none" id="Event-to-Place" style="stroke:#A80036;stroke-width:1.0;"/><polygon fill="#A80036" points="2419.5,280.8746,2423.5,271.8746,2419.5,275.8746,2415.5,271.8746,2419.5,280.8746" style="stroke:#A80036;stroke-width:1.0;"/><text fill="#000000" font-family="sans-serif" font-size="13" lengthAdjust="spacing" textLength="36" x="2420.5" y="247.0669">taken</text><!--MD5=[38fe845a21f560745ba5c6aab3cc98e7]
link Contractor to Data--><path codeLine="115" d="M1912.52,156.022 C1935.74,178.64 1962.72,206.62 1984.5,234 C1995.04,247.252 2005.28,263.252 2013.01,276.1794 " fill="none" id="Contractor-to-Data" style="stroke:#A80036;stroke-width:1.0;"/><polygon fill="#A80036" points="2015.74,280.7923,2014.6105,271.0084,2013.1987,276.4863,2007.7209,275.0745,2015.74,280.7923" style="stroke:#A80036;stroke-width:1.0;"/><text fill="#000000" font-family="sans-serif" font-size="13" lengthAdjust="spacing" textLength="34" x="1997.5" y="247.0669">enter</text><!--MD5=[a472802edcbf553558965ee9cd84e81d]
@startuml
hide circle
class Manager<actor> {
}
class Contractor<actor> {
}
class Architect<actor> {
}
class ProjectManager<actor> {
}
class Contractor {
	enter()
	manage()
	send()
	ask()
	report()
	see()
}
class MeetingMinute {
}
class Event {
	taken()
}
class Place {
}
class Manager {
	modify()
	get()
	track()
	make()
	send()
	access()
	edit()
	approve()
	find()
	see()
	save()
	create()
}
class Summary {
}
class Instruction {
}
class Project {
}
class Question {
}
class Information {
}
class Report {
}
class Progress {
}
class Status {
}
class Task {
}
class MeetingInformation {
}
class Resource {
}
class logs {
}
class Data {
}
class GeneratedPDFReport {
}
class Request {
}
class Comment {
}
class Decision {
}
class Topic {
}
class ProjectManager {
	track()
}
class TaskProgress {
}
class Message {
}
class Issue {
}
class TaskCategory {
}
class Change {
}
Contractor - -> Change : report
Manager - -> GeneratedPDFReport : get
Manager - -> Summary : see
Manager - -> MeetingInformation : edit
Manager - -> Request : approve
Manager - -> Instruction : send
Manager - -> Comment : approve
Manager - -> Project : modify
Manager - -> Progress : track
Contractor - -> Question : ask
Manager - -> Decision : make
Manager - -> Status : save
Manager - -> Information : edit
Manager - -> Topic : find
Contractor - -> Task : see
Contractor - -> Report : enter
ProjectManager - -> TaskProgress : track
Contractor - -> Resource : manage
Manager - -> Progress : save
Contractor - -> Message : send
Manager - -> logs : access
Contractor - -> MeetingMinute : see
Contractor - -> Issue : ask
Manager - -> MeetingMinute : send
Manager - -> Project : create
Manager - -> TaskCategory : edit
Event - -> Place : taken
Contractor - -> Data : enter
@enduml

PlantUML version 1.2021.6beta6(Unknown compile time)
(GPL source distribution)
Java Runtime: Java(TM) SE Runtime Environment
JVM: Java HotSpot(TM) 64-Bit Server VM
Default Encoding: UTF-8
Language: en
Country: US
--></g></svg>