<?xml version="1.0" encoding="UTF-8" standalone="no"?><svg xmlns="http://www.w3.org/2000/svg" xmlns:xlink="http://www.w3.org/1999/xlink" contentScriptType="application/ecmascript" contentStyleType="text/css" height="374px" preserveAspectRatio="none" style="width:848px;height:374px;background:#FFFFFF;" version="1.1" viewBox="0 0 848 374" width="848px" zoomAndPan="magnify"><defs><filter height="300%" id="foyzynkm73agi" width="300%" x="-1" y="-1"><feGaussianBlur result="blurOut" stdDeviation="2.0"/><feColorMatrix in="blurOut" result="blurOut2" type="matrix" values="0 0 0 0 0 0 0 0 0 0 0 0 0 0 0 0 0 0 .4 0"/><feOffset dx="4.0" dy="4.0" in="blurOut2" result="blurOut3"/><feBlend in="SourceGraphic" in2="blurOut3" mode="normal"/></filter></defs><g><!--MD5=[11148126fcb8350cd83fd933a21e1a0c]
class TourCreator--><rect codeLine="8" fill="#FEFECE" filter="url(#foyzynkm73agi)" height="91.1875" id="TourCreator" style="stroke:#A80036;stroke-width:1.5;" width="113" x="234.5" y="153"/><text fill="#000000" font-family="sans-serif" font-size="12" lengthAdjust="spacing" textLength="72" x="237.5" y="169.1387">TourCreator</text><rect fill="#FFFFFF" height="15.9688" style="stroke:#000000;stroke-width:1.0;stroke-dasharray:2.0,2.0;" width="33" x="317.5" y="150"/><text fill="#000000" font-family="sans-serif" font-size="12" font-style="italic" lengthAdjust="spacing" textLength="31" x="318.5" y="162.1387">actor</text><line style="stroke:#A80036;stroke-width:1.5;" x1="235.5" x2="346.5" y1="176.9688" y2="176.9688"/><line style="stroke:#A80036;stroke-width:1.5;" x1="235.5" x2="346.5" y1="184.9688" y2="184.9688"/><text fill="#000000" font-family="sans-serif" font-size="11" lengthAdjust="spacing" textLength="56" x="240.5" y="199.1792">promote()</text><text fill="#000000" font-family="sans-serif" font-size="11" lengthAdjust="spacing" textLength="46" x="240.5" y="211.9839">upload()</text><text fill="#000000" font-family="sans-serif" font-size="11" lengthAdjust="spacing" textLength="35" x="240.5" y="224.7886">view()</text><text fill="#000000" font-family="sans-serif" font-size="11" lengthAdjust="spacing" textLength="45" x="240.5" y="237.5933">create()</text><!--MD5=[08d6a551530ab71b272f9c2c40bfb385]
class Owner--><rect codeLine="30" fill="#FEFECE" filter="url(#foyzynkm73agi)" height="65.5781" id="Owner" style="stroke:#A80036;stroke-width:1.5;" width="81" x="396.5" y="10"/><text fill="#000000" font-family="sans-serif" font-size="12" lengthAdjust="spacing" textLength="40" x="399.5" y="26.1387">Owner</text><rect fill="#FFFFFF" height="15.9688" style="stroke:#000000;stroke-width:1.0;stroke-dasharray:2.0,2.0;" width="33" x="447.5" y="7"/><text fill="#000000" font-family="sans-serif" font-size="12" font-style="italic" lengthAdjust="spacing" textLength="31" x="448.5" y="19.1387">actor</text><line style="stroke:#A80036;stroke-width:1.5;" x1="397.5" x2="476.5" y1="33.9688" y2="33.9688"/><line style="stroke:#A80036;stroke-width:1.5;" x1="397.5" x2="476.5" y1="41.9688" y2="41.9688"/><text fill="#000000" font-family="sans-serif" font-size="11" lengthAdjust="spacing" textLength="62" x="402.5" y="56.1792">authorize()</text><text fill="#000000" font-family="sans-serif" font-size="11" lengthAdjust="spacing" textLength="46" x="402.5" y="68.9839">delete()</text><!--MD5=[9dc77e7ad336a0b5d94bb7c1d3fca679]
class TourTaker--><rect codeLine="16" fill="#FEFECE" filter="url(#foyzynkm73agi)" height="91.1875" id="TourTaker" style="stroke:#A80036;stroke-width:1.5;" width="102" x="633" y="153"/><text fill="#000000" font-family="sans-serif" font-size="12" lengthAdjust="spacing" textLength="61" x="636" y="169.1387">TourTaker</text><rect fill="#FFFFFF" height="15.9688" style="stroke:#000000;stroke-width:1.0;stroke-dasharray:2.0,2.0;" width="33" x="705" y="150"/><text fill="#000000" font-family="sans-serif" font-size="12" font-style="italic" lengthAdjust="spacing" textLength="31" x="706" y="162.1387">actor</text><line style="stroke:#A80036;stroke-width:1.5;" x1="634" x2="734" y1="176.9688" y2="176.9688"/><line style="stroke:#A80036;stroke-width:1.5;" x1="634" x2="734" y1="184.9688" y2="184.9688"/><text fill="#000000" font-family="sans-serif" font-size="11" lengthAdjust="spacing" textLength="43" x="639" y="199.1792">select()</text><text fill="#000000" font-family="sans-serif" font-size="11" lengthAdjust="spacing" textLength="35" x="639" y="211.9839">view()</text><text fill="#000000" font-family="sans-serif" font-size="11" lengthAdjust="spacing" textLength="37" x="639" y="224.7886">have()</text><text fill="#000000" font-family="sans-serif" font-size="11" lengthAdjust="spacing" textLength="46" x="639" y="237.5933">search()</text><!--MD5=[7cfcec95ce8c7b3cc21f2a5540b61e10]
class Area--><rect codeLine="14" fill="#FEFECE" filter="url(#foyzynkm73agi)" height="39.9688" id="Area" style="stroke:#A80036;stroke-width:1.5;" width="34" x="7" y="321"/><text fill="#000000" font-family="sans-serif" font-size="12" lengthAdjust="spacing" textLength="28" x="10" y="337.1387">Area</text><line style="stroke:#A80036;stroke-width:1.5;" x1="8" x2="40" y1="344.9688" y2="344.9688"/><line style="stroke:#A80036;stroke-width:1.5;" x1="8" x2="40" y1="352.9688" y2="352.9688"/><!--MD5=[81bd20e0381b4631555d588155f2f5a3]
class Tour--><rect codeLine="22" fill="#FEFECE" filter="url(#foyzynkm73agi)" height="39.9688" id="Tour" style="stroke:#A80036;stroke-width:1.5;" width="33" x="497.5" y="321"/><text fill="#000000" font-family="sans-serif" font-size="12" lengthAdjust="spacing" textLength="27" x="500.5" y="337.1387">Tour</text><line style="stroke:#A80036;stroke-width:1.5;" x1="498.5" x2="529.5" y1="344.9688" y2="344.9688"/><line style="stroke:#A80036;stroke-width:1.5;" x1="498.5" x2="529.5" y1="352.9688" y2="352.9688"/><!--MD5=[166247bf81aba95c770c3b8fd8e3cb19]
class Video--><rect codeLine="24" fill="#FEFECE" filter="url(#foyzynkm73agi)" height="39.9688" id="Video" style="stroke:#A80036;stroke-width:1.5;" width="41" x="100.5" y="321"/><text fill="#000000" font-family="sans-serif" font-size="12" lengthAdjust="spacing" textLength="35" x="103.5" y="337.1387">Video</text><line style="stroke:#A80036;stroke-width:1.5;" x1="101.5" x2="140.5" y1="344.9688" y2="344.9688"/><line style="stroke:#A80036;stroke-width:1.5;" x1="101.5" x2="140.5" y1="352.9688" y2="352.9688"/><!--MD5=[dab16d122782a892ddb6ee0eadcd68f0]
class Access--><rect codeLine="26" fill="#FEFECE" filter="url(#foyzynkm73agi)" height="39.9688" id="Access" style="stroke:#A80036;stroke-width:1.5;" width="50" x="784" y="321"/><text fill="#000000" font-family="sans-serif" font-size="12" lengthAdjust="spacing" textLength="44" x="787" y="337.1387">Access</text><line style="stroke:#A80036;stroke-width:1.5;" x1="785" x2="833" y1="344.9688" y2="344.9688"/><line style="stroke:#A80036;stroke-width:1.5;" x1="785" x2="833" y1="352.9688" y2="352.9688"/><!--MD5=[30fd7b95ab383a5e7c83ea23d4ea0fbf]
class Information--><rect codeLine="28" fill="#FEFECE" filter="url(#foyzynkm73agi)" height="39.9688" id="Information" style="stroke:#A80036;stroke-width:1.5;" width="73" x="327.5" y="321"/><text fill="#000000" font-family="sans-serif" font-size="12" lengthAdjust="spacing" textLength="67" x="330.5" y="337.1387">Information</text><line style="stroke:#A80036;stroke-width:1.5;" x1="328.5" x2="399.5" y1="344.9688" y2="344.9688"/><line style="stroke:#A80036;stroke-width:1.5;" x1="328.5" x2="399.5" y1="352.9688" y2="352.9688"/><!--MD5=[18b89e0834131a909517048318a5909c]
class Picture--><rect codeLine="34" fill="#FEFECE" filter="url(#foyzynkm73agi)" height="39.9688" id="Picture" style="stroke:#A80036;stroke-width:1.5;" width="46" x="183" y="321"/><text fill="#000000" font-family="sans-serif" font-size="12" lengthAdjust="spacing" textLength="40" x="186" y="337.1387">Picture</text><line style="stroke:#A80036;stroke-width:1.5;" x1="184" x2="228" y1="344.9688" y2="344.9688"/><line style="stroke:#A80036;stroke-width:1.5;" x1="184" x2="228" y1="352.9688" y2="352.9688"/><!--MD5=[e73028bfb15fea1f62547ee7fbb06ad4]
link TourCreator to Video--><path codeLine="36" d="M234.297,228.412 C212.879,240.817 189.093,256.495 170,274 C156.485,286.3904 144.194,302.9673 135.302,316.408 " fill="none" id="TourCreator-to-Video" style="stroke:#A80036;stroke-width:1.0;"/><polygon fill="#A80036" points="132.42,320.8353,140.6826,315.4753,135.148,316.6451,133.9782,311.1105,132.42,320.8353" style="stroke:#A80036;stroke-width:1.0;"/><text fill="#000000" font-family="sans-serif" font-size="13" lengthAdjust="spacing" textLength="43" x="171" y="287.0669">upload</text><!--MD5=[033968d1c08c70a053b7d6d5b78e4e5f]
link TourCreator to Area--><path codeLine="37" d="M234.271,213.441 C192.267,225.394 134.8,245.274 90,274 C71.7955,285.6729 54.6353,303.1115 42.3777,317.1322 " fill="none" id="TourCreator-to-Area" style="stroke:#A80036;stroke-width:1.0;"/><polygon fill="#A80036" points="39.0536,320.9885,47.9595,316.7831,42.3181,317.2013,41.8999,311.5599,39.0536,320.9885" style="stroke:#A80036;stroke-width:1.0;"/><text fill="#000000" font-family="sans-serif" font-size="13" lengthAdjust="spacing" textLength="55" x="91" y="287.0669">promote</text><!--MD5=[c9482eb8c27e40d7c136fbbccaf6548f]
link TourCreator to Tour--><path codeLine="38" d="M323.08,244.025 C336.884,260.63 354.178,278.4713 373,291 C410.775,316.1439 462.84,329.8157 491.974,335.9457 " fill="none" id="TourCreator-to-Tour" style="stroke:#A80036;stroke-width:1.0;"/><polygon fill="#A80036" points="497.139,337.0035,489.1258,331.2774,492.2409,335.9993,487.519,339.1143,497.139,337.0035" style="stroke:#A80036;stroke-width:1.0;"/><text fill="#000000" font-family="sans-serif" font-size="13" lengthAdjust="spacing" textLength="41" x="374" y="287.0669">create</text><!--MD5=[c9482eb8c27e40d7c136fbbccaf6548f]
link TourCreator to Tour--><path codeLine="45" d="M347.522,230.707 C370.308,243.658 396.672,259.115 420,274 C445.786,290.4533 474.421,310.8862 493.232,324.6218 " fill="none" id="TourCreator-to-Tour-1" style="stroke:#A80036;stroke-width:1.0;"/><polygon fill="#A80036" points="497.325,327.6188,492.4267,319.0744,493.2909,324.6648,487.7004,325.529,497.325,327.6188" style="stroke:#A80036;stroke-width:1.0;"/><text fill="#000000" font-family="sans-serif" font-size="13" lengthAdjust="spacing" textLength="30" x="445" y="287.0669">view</text><!--MD5=[7086601d8475114a830e5173f49228a0]
link TourTaker to Information--><path codeLine="39" d="M632.88,223.594 C592.624,242.396 534.988,268.9375 484,291 C458.067,302.2213 428.703,314.2234 405.514,323.5407 " fill="none" id="TourTaker-to-Information" style="stroke:#A80036;stroke-width:1.0;"/><polygon fill="#A80036" points="400.662,325.4869,410.5042,325.8487,405.3026,323.6254,407.5258,318.4238,400.662,325.4869" style="stroke:#A80036;stroke-width:1.0;"/><text fill="#000000" font-family="sans-serif" font-size="13" lengthAdjust="spacing" textLength="30" x="523" y="287.0669">view</text><!--MD5=[27dc7c7d8a6491c0998143395d5e0f8d]
link TourCreator to Picture--><path codeLine="40" d="M250.355,244.23 C242.972,253.652 235.788,263.8302 230,274 C222.546,287.0964 216.695,302.9308 212.637,315.8069 " fill="none" id="TourCreator-to-Picture" style="stroke:#A80036;stroke-width:1.0;"/><polygon fill="#A80036" points="211.117,320.7648,217.5807,313.3338,212.5835,315.9847,209.9325,310.9874,211.117,320.7648" style="stroke:#A80036;stroke-width:1.0;"/><text fill="#000000" font-family="sans-serif" font-size="13" lengthAdjust="spacing" textLength="43" x="231" y="287.0669">upload</text><!--MD5=[48ad0909e84871a283c5fc90ca944864]
link TourTaker to Access--><path codeLine="41" d="M735.249,239.121 C747.376,249.744 759.75,261.714 770,274 C780.707,286.8335 790.294,302.9579 797.284,316.0563 " fill="none" id="TourTaker-to-Access" style="stroke:#A80036;stroke-width:1.0;"/><polygon fill="#A80036" points="799.739,320.7335,799.098,310.9055,797.4153,316.3063,792.0145,314.6235,799.739,320.7335" style="stroke:#A80036;stroke-width:1.0;"/><text fill="#000000" font-family="sans-serif" font-size="13" lengthAdjust="spacing" textLength="32" x="783" y="287.0669">have</text><!--MD5=[9535a3bf614f6f7b0a2fd43ad20e6efc]
link Owner to TourCreator--><path codeLine="42" d="M406.394,76.179 C386.313,97.291 359.682,125.289 337.065,149.069 " fill="none" id="Owner-to-TourCreator" style="stroke:#A80036;stroke-width:1.0;"/><polygon fill="#A80036" points="333.471,152.848,342.5719,149.0833,336.9168,149.225,336.7751,143.5699,333.471,152.848" style="stroke:#A80036;stroke-width:1.0;"/><text fill="#000000" font-family="sans-serif" font-size="13" lengthAdjust="spacing" textLength="60" x="379" y="119.0669">authorize</text><!--MD5=[4b6cdb996eb4d0e69577e66577dc21c2]
link TourTaker to Tour--><path codeLine="43" d="M650.756,244.452 C637.628,260.355 621.696,277.6019 605,291 C583.326,308.3931 554.571,322.6753 535.235,331.2448 " fill="none" id="TourTaker-to-Tour" style="stroke:#A80036;stroke-width:1.0;"/><polygon fill="#A80036" points="530.532,333.2988,540.3807,333.3618,535.114,331.2974,537.1784,326.0307,530.532,333.2988" style="stroke:#A80036;stroke-width:1.0;"/><text fill="#000000" font-family="sans-serif" font-size="13" lengthAdjust="spacing" textLength="38" x="623" y="287.0669">select</text><!--MD5=[4b6cdb996eb4d0e69577e66577dc21c2]
link TourTaker to Tour--><path codeLine="47" d="M686.602,244.082 C685.317,260.5 680.988,278.1941 670,291 C635.959,330.6734 570.171,338.6246 535.924,339.9626 " fill="none" id="TourTaker-to-Tour-1" style="stroke:#A80036;stroke-width:1.0;"/><polygon fill="#A80036" points="530.708,340.1245,539.8282,343.8423,535.7056,339.9688,539.5791,335.8462,530.708,340.1245" style="stroke:#A80036;stroke-width:1.0;"/><text fill="#000000" font-family="sans-serif" font-size="13" lengthAdjust="spacing" textLength="43" x="681" y="287.0669">search</text><!--MD5=[d85e29f1a5eb0cfefb4927405f246638]
link Owner to Tour--><path codeLine="44" d="M445.387,76.241 C460.944,136.044 493.941,262.8916 507.734,315.9142 " fill="none" id="Owner-to-Tour" style="stroke:#A80036;stroke-width:1.0;"/><polygon fill="#A80036" points="509.008,320.8102,510.613,311.093,507.7491,315.9713,502.8708,313.1073,509.008,320.8102" style="stroke:#A80036;stroke-width:1.0;"/><text fill="#000000" font-family="sans-serif" font-size="13" lengthAdjust="spacing" textLength="40" x="489" y="203.0669">delete</text><!--MD5=[e3ffa9b227ba2a443abe79295ec238fa]
link TourCreator to Information--><path codeLine="46" d="M280.583,244.01 C279.163,259.689 280.317,276.9051 288,291 C295.628,304.9943 309.159,315.5953 322.71,323.2936 " fill="none" id="TourCreator-to-Information" style="stroke:#A80036;stroke-width:1.0;"/><polygon fill="#A80036" points="327.299,325.7937,321.3106,317.9746,322.9087,323.401,317.4823,324.9991,327.299,325.7937" style="stroke:#A80036;stroke-width:1.0;"/><text fill="#000000" font-family="sans-serif" font-size="13" lengthAdjust="spacing" textLength="43" x="289" y="287.0669">upload</text><!--MD5=[81c55a9d8103c91698dd32c3f4374336]
@startuml
hide circle
class TourCreator<actor> {
}
class Owner<actor> {
}
class TourTaker<actor> {
}
class TourCreator {
	promote()
	upload()
	view()
	create()
}
class Area {
}
class TourTaker {
	select()
	view()
	have()
	search()
}
class Tour {
}
class Video {
}
class Access {
}
class Information {
}
class Owner {
	authorize()
	delete()
}
class Picture {
}
TourCreator - -> Video : upload
TourCreator - -> Area : promote
TourCreator - -> Tour : create
TourTaker - -> Information : view
TourCreator - -> Picture : upload
TourTaker - -> Access : have
Owner - -> TourCreator : authorize
TourTaker - -> Tour : select
Owner - -> Tour : delete
TourCreator - -> Tour : view
TourCreator - -> Information : upload
TourTaker - -> Tour : search
@enduml

PlantUML version 1.2021.6beta6(Unknown compile time)
(GPL source distribution)
Java Runtime: Java(TM) SE Runtime Environment
JVM: Java HotSpot(TM) 64-Bit Server VM
Default Encoding: UTF-8
Language: en
Country: US
--></g></svg>