<?xml version="1.0" encoding="UTF-8" standalone="no"?><svg xmlns="http://www.w3.org/2000/svg" xmlns:xlink="http://www.w3.org/1999/xlink" contentScriptType="application/ecmascript" contentStyleType="text/css" height="387px" preserveAspectRatio="none" style="width:1800px;height:387px;background:#FFFFFF;" version="1.1" viewBox="0 0 1800 387" width="1800px" zoomAndPan="magnify"><defs><filter height="300%" id="fl6nrenleo22k" width="300%" x="-1" y="-1"><feGaussianBlur result="blurOut" stdDeviation="2.0"/><feColorMatrix in="blurOut" result="blurOut2" type="matrix" values="0 0 0 0 0 0 0 0 0 0 0 0 0 0 0 0 0 0 .4 0"/><feOffset dx="4.0" dy="4.0" in="blurOut2" result="blurOut3"/><feBlend in="SourceGraphic" in2="blurOut3" mode="normal"/></filter></defs><g><!--MD5=[ad29d52e2774325b6f3595b094b762c0]
class AdultLearner--><rect codeLine="27" fill="#FEFECE" filter="url(#fl6nrenleo22k)" height="116.7969" id="AdultLearner" style="stroke:#A80036;stroke-width:1.5;" width="117" x="356.5" y="10"/><text fill="#000000" font-family="sans-serif" font-size="12" lengthAdjust="spacing" textLength="76" x="359.5" y="26.1387">AdultLearner</text><rect fill="#FFFFFF" height="15.9688" style="stroke:#000000;stroke-width:1.0;stroke-dasharray:2.0,2.0;" width="33" x="443.5" y="7"/><text fill="#000000" font-family="sans-serif" font-size="12" font-style="italic" lengthAdjust="spacing" textLength="31" x="444.5" y="19.1387">actor</text><line style="stroke:#A80036;stroke-width:1.5;" x1="357.5" x2="472.5" y1="33.9688" y2="33.9688"/><line style="stroke:#A80036;stroke-width:1.5;" x1="357.5" x2="472.5" y1="41.9688" y2="41.9688"/><text fill="#000000" font-family="sans-serif" font-size="11" lengthAdjust="spacing" textLength="35" x="362.5" y="56.1792">view()</text><text fill="#000000" font-family="sans-serif" font-size="11" lengthAdjust="spacing" textLength="55" x="362.5" y="68.9839">improve()</text><text fill="#000000" font-family="sans-serif" font-size="11" lengthAdjust="spacing" textLength="33" x="362.5" y="81.7886">take()</text><text fill="#000000" font-family="sans-serif" font-size="11" lengthAdjust="spacing" textLength="53" x="362.5" y="94.5933">practice()</text><text fill="#000000" font-family="sans-serif" font-size="11" lengthAdjust="spacing" textLength="51" x="362.5" y="107.3979">resolve()</text><text fill="#000000" font-family="sans-serif" font-size="11" lengthAdjust="spacing" textLength="37" x="362.5" y="120.2026">have()</text><!--MD5=[967b63022d430a74f86b539c48b04415]
class ExperientialLearningCenterStaff--><rect codeLine="68" fill="#FEFECE" filter="url(#fl6nrenleo22k)" height="52.7734" id="ExperientialLearningCenterStaff" style="stroke:#A80036;stroke-width:1.5;" width="229" x="1096.5" y="42"/><text fill="#000000" font-family="sans-serif" font-size="12" lengthAdjust="spacing" textLength="188" x="1099.5" y="58.1387">ExperientialLearningCenterStaff</text><rect fill="#FFFFFF" height="15.9688" style="stroke:#000000;stroke-width:1.0;stroke-dasharray:2.0,2.0;" width="33" x="1295.5" y="39"/><text fill="#000000" font-family="sans-serif" font-size="12" font-style="italic" lengthAdjust="spacing" textLength="31" x="1296.5" y="51.1387">actor</text><line style="stroke:#A80036;stroke-width:1.5;" x1="1097.5" x2="1324.5" y1="65.9688" y2="65.9688"/><line style="stroke:#A80036;stroke-width:1.5;" x1="1097.5" x2="1324.5" y1="73.9688" y2="73.9688"/><text fill="#000000" font-family="sans-serif" font-size="11" lengthAdjust="spacing" textLength="33" x="1102.5" y="88.1792">take()</text><!--MD5=[0c104e2ac747727ee89f646d74b863b1]
class CollegeStudent--><rect codeLine="47" fill="#FEFECE" filter="url(#fl6nrenleo22k)" height="65.5781" id="CollegeStudent" style="stroke:#A80036;stroke-width:1.5;" width="133" x="875.5" y="35.5"/><text fill="#000000" font-family="sans-serif" font-size="12" lengthAdjust="spacing" textLength="92" x="878.5" y="51.6387">CollegeStudent</text><rect fill="#FFFFFF" height="15.9688" style="stroke:#000000;stroke-width:1.0;stroke-dasharray:2.0,2.0;" width="33" x="978.5" y="32.5"/><text fill="#000000" font-family="sans-serif" font-size="12" font-style="italic" lengthAdjust="spacing" textLength="31" x="979.5" y="44.6387">actor</text><line style="stroke:#A80036;stroke-width:1.5;" x1="876.5" x2="1007.5" y1="59.4688" y2="59.4688"/><line style="stroke:#A80036;stroke-width:1.5;" x1="876.5" x2="1007.5" y1="67.4688" y2="67.4688"/><text fill="#000000" font-family="sans-serif" font-size="11" lengthAdjust="spacing" textLength="55" x="881.5" y="81.6792">improve()</text><text fill="#000000" font-family="sans-serif" font-size="11" lengthAdjust="spacing" textLength="29" x="881.5" y="94.4839">use()</text><!--MD5=[3bd94c57bf4cfffb47c54f8628a30059]
class MBVStudent--><rect codeLine="37" fill="#FEFECE" filter="url(#fl6nrenleo22k)" height="65.5781" id="MBVStudent" style="stroke:#A80036;stroke-width:1.5;" width="113" x="44.5" y="35.5"/><text fill="#000000" font-family="sans-serif" font-size="12" lengthAdjust="spacing" textLength="72" x="47.5" y="51.6387">MBVStudent</text><rect fill="#FFFFFF" height="15.9688" style="stroke:#000000;stroke-width:1.0;stroke-dasharray:2.0,2.0;" width="33" x="127.5" y="32.5"/><text fill="#000000" font-family="sans-serif" font-size="12" font-style="italic" lengthAdjust="spacing" textLength="31" x="128.5" y="44.6387">actor</text><line style="stroke:#A80036;stroke-width:1.5;" x1="45.5" x2="156.5" y1="59.4688" y2="59.4688"/><line style="stroke:#A80036;stroke-width:1.5;" x1="45.5" x2="156.5" y1="67.4688" y2="67.4688"/><text fill="#000000" font-family="sans-serif" font-size="11" lengthAdjust="spacing" textLength="55" x="50.5" y="81.6792">improve()</text><text fill="#000000" font-family="sans-serif" font-size="11" lengthAdjust="spacing" textLength="29" x="50.5" y="94.4839">use()</text><!--MD5=[2605ea70dcba83496a20d3f92de61fba]
class Executive--><rect codeLine="76" fill="#FEFECE" filter="url(#fl6nrenleo22k)" height="52.7734" id="Executive" style="stroke:#A80036;stroke-width:1.5;" width="99" x="1360.5" y="42"/><text fill="#000000" font-family="sans-serif" font-size="12" lengthAdjust="spacing" textLength="58" x="1363.5" y="58.1387">Executive</text><rect fill="#FFFFFF" height="15.9688" style="stroke:#000000;stroke-width:1.0;stroke-dasharray:2.0,2.0;" width="33" x="1429.5" y="39"/><text fill="#000000" font-family="sans-serif" font-size="12" font-style="italic" lengthAdjust="spacing" textLength="31" x="1430.5" y="51.1387">actor</text><line style="stroke:#A80036;stroke-width:1.5;" x1="1361.5" x2="1458.5" y1="65.9688" y2="65.9688"/><line style="stroke:#A80036;stroke-width:1.5;" x1="1361.5" x2="1458.5" y1="73.9688" y2="73.9688"/><text fill="#000000" font-family="sans-serif" font-size="11" lengthAdjust="spacing" textLength="69" x="1366.5" y="88.1792">encourage()</text><!--MD5=[77d4d0fc85239ad4599824270418e7ce]
class Employer--><rect codeLine="12" fill="#FEFECE" filter="url(#fl6nrenleo22k)" height="39.9688" id="Employer" style="stroke:#A80036;stroke-width:1.5;" width="98" x="1495" y="48.5"/><text fill="#000000" font-family="sans-serif" font-size="12" lengthAdjust="spacing" textLength="57" x="1498" y="64.6387">Employer</text><rect fill="#FFFFFF" height="15.9688" style="stroke:#000000;stroke-width:1.0;stroke-dasharray:2.0,2.0;" width="33" x="1563" y="45.5"/><text fill="#000000" font-family="sans-serif" font-size="12" font-style="italic" lengthAdjust="spacing" textLength="31" x="1564" y="57.6387">actor</text><line style="stroke:#A80036;stroke-width:1.5;" x1="1496" x2="1592" y1="72.4688" y2="72.4688"/><line style="stroke:#A80036;stroke-width:1.5;" x1="1496" x2="1592" y1="80.4688" y2="80.4688"/><!--MD5=[c1dfe38a32b049d06341e224beded7d2]
class Veteran--><rect codeLine="16" fill="#FEFECE" filter="url(#fl6nrenleo22k)" height="65.5781" id="Veteran" style="stroke:#A80036;stroke-width:1.5;" width="88" x="1628" y="35.5"/><text fill="#000000" font-family="sans-serif" font-size="12" lengthAdjust="spacing" textLength="47" x="1631" y="51.6387">Veteran</text><rect fill="#FFFFFF" height="15.9688" style="stroke:#000000;stroke-width:1.0;stroke-dasharray:2.0,2.0;" width="33" x="1686" y="32.5"/><text fill="#000000" font-family="sans-serif" font-size="12" font-style="italic" lengthAdjust="spacing" textLength="31" x="1687" y="44.6387">actor</text><line style="stroke:#A80036;stroke-width:1.5;" x1="1629" x2="1715" y1="59.4688" y2="59.4688"/><line style="stroke:#A80036;stroke-width:1.5;" x1="1629" x2="1715" y1="67.4688" y2="67.4688"/><text fill="#000000" font-family="sans-serif" font-size="11" lengthAdjust="spacing" textLength="58" x="1634" y="81.6792">compare()</text><text fill="#000000" font-family="sans-serif" font-size="11" lengthAdjust="spacing" textLength="30" x="1634" y="94.4839">see()</text><!--MD5=[c33697d7d6f51a888cf1dd18fce4a280]
class ThoughtProcess--><rect codeLine="20" fill="#FEFECE" filter="url(#fl6nrenleo22k)" height="39.9688" id="ThoughtProcess" style="stroke:#A80036;stroke-width:1.5;" width="102" x="1514" y="210.5"/><text fill="#000000" font-family="sans-serif" font-size="12" lengthAdjust="spacing" textLength="96" x="1517" y="226.6387">ThoughtProcess</text><line style="stroke:#A80036;stroke-width:1.5;" x1="1515" x2="1615" y1="234.4688" y2="234.4688"/><line style="stroke:#A80036;stroke-width:1.5;" x1="1515" x2="1615" y1="242.4688" y2="242.4688"/><!--MD5=[7421f545a0d8420c5bec41e74b387d9c]
class Employee--><rect codeLine="22" fill="#FEFECE" filter="url(#fl6nrenleo22k)" height="52.7734" id="Employee" style="stroke:#A80036;stroke-width:1.5;" width="66" x="1377" y="204"/><text fill="#000000" font-family="sans-serif" font-size="12" lengthAdjust="spacing" textLength="60" x="1380" y="220.1387">Employee</text><line style="stroke:#A80036;stroke-width:1.5;" x1="1378" x2="1442" y1="227.9688" y2="227.9688"/><line style="stroke:#A80036;stroke-width:1.5;" x1="1378" x2="1442" y1="235.9688" y2="235.9688"/><text fill="#000000" font-family="sans-serif" font-size="11" lengthAdjust="spacing" textLength="53" x="1383" y="250.1792">practice()</text><!--MD5=[4ae848d4280021f4fc2bd2749f2434fb]
class ProductConflictResolutionSkill--><rect codeLine="25" fill="#FEFECE" filter="url(#fl6nrenleo22k)" height="39.9688" id="ProductConflictResolutionSkill" style="stroke:#A80036;stroke-width:1.5;" width="181" x="1319.5" y="334"/><text fill="#000000" font-family="sans-serif" font-size="12" lengthAdjust="spacing" textLength="175" x="1322.5" y="350.1387">ProductConflictResolutionSkill</text><line style="stroke:#A80036;stroke-width:1.5;" x1="1320.5" x2="1499.5" y1="357.9688" y2="357.9688"/><line style="stroke:#A80036;stroke-width:1.5;" x1="1320.5" x2="1499.5" y1="365.9688" y2="365.9688"/><!--MD5=[8d1280e58717f51acd6181606489346b]
class Assessment--><rect codeLine="35" fill="#FEFECE" filter="url(#fl6nrenleo22k)" height="39.9688" id="Assessment" style="stroke:#A80036;stroke-width:1.5;" width="80" x="421" y="210.5"/><text fill="#000000" font-family="sans-serif" font-size="12" lengthAdjust="spacing" textLength="74" x="424" y="226.6387">Assessment</text><line style="stroke:#A80036;stroke-width:1.5;" x1="422" x2="500" y1="234.4688" y2="234.4688"/><line style="stroke:#A80036;stroke-width:1.5;" x1="422" x2="500" y1="242.4688" y2="242.4688"/><!--MD5=[4a7ab79f42bf463c89bf35003dabb597]
class ConflictResolutionSkill--><rect codeLine="41" fill="#FEFECE" filter="url(#fl6nrenleo22k)" height="39.9688" id="ConflictResolutionSkill" style="stroke:#A80036;stroke-width:1.5;" width="136" x="7" y="210.5"/><text fill="#000000" font-family="sans-serif" font-size="12" lengthAdjust="spacing" textLength="130" x="10" y="226.6387">ConflictResolutionSkill</text><line style="stroke:#A80036;stroke-width:1.5;" x1="8" x2="142" y1="234.4688" y2="234.4688"/><line style="stroke:#A80036;stroke-width:1.5;" x1="8" x2="142" y1="242.4688" y2="242.4688"/><!--MD5=[706e73df52f3df32f52be1ce9adb217e]
class Graph--><rect codeLine="43" fill="#FEFECE" filter="url(#fl6nrenleo22k)" height="39.9688" id="Graph" style="stroke:#A80036;stroke-width:1.5;" width="42" x="1651" y="210.5"/><text fill="#000000" font-family="sans-serif" font-size="12" lengthAdjust="spacing" textLength="36" x="1654" y="226.6387">Graph</text><line style="stroke:#A80036;stroke-width:1.5;" x1="1652" x2="1692" y1="234.4688" y2="234.4688"/><line style="stroke:#A80036;stroke-width:1.5;" x1="1652" x2="1692" y1="242.4688" y2="242.4688"/><!--MD5=[3db53164d4ddbdea4156eda8a776d7e7]
class Decision--><rect codeLine="45" fill="#FEFECE" filter="url(#fl6nrenleo22k)" height="39.9688" id="Decision" style="stroke:#A80036;stroke-width:1.5;" width="58" x="1728" y="210.5"/><text fill="#000000" font-family="sans-serif" font-size="12" lengthAdjust="spacing" textLength="52" x="1731" y="226.6387">Decision</text><line style="stroke:#A80036;stroke-width:1.5;" x1="1729" x2="1785" y1="234.4688" y2="234.4688"/><line style="stroke:#A80036;stroke-width:1.5;" x1="1729" x2="1785" y1="242.4688" y2="242.4688"/><!--MD5=[33786da20871495ab13e197ee854b40c]
class Confidence--><rect codeLine="51" fill="#FEFECE" filter="url(#fl6nrenleo22k)" height="39.9688" id="Confidence" style="stroke:#A80036;stroke-width:1.5;" width="74" x="843" y="210.5"/><text fill="#000000" font-family="sans-serif" font-size="12" lengthAdjust="spacing" textLength="68" x="846" y="226.6387">Confidence</text><line style="stroke:#A80036;stroke-width:1.5;" x1="844" x2="916" y1="234.4688" y2="234.4688"/><line style="stroke:#A80036;stroke-width:1.5;" x1="844" x2="916" y1="242.4688" y2="242.4688"/><!--MD5=[9aa9a4d17a8304204b9b5d7bdc48a70b]
class Practice--><rect codeLine="53" fill="#FEFECE" filter="url(#fl6nrenleo22k)" height="39.9688" id="Practice" style="stroke:#A80036;stroke-width:1.5;" width="53" x="332.5" y="210.5"/><text fill="#000000" font-family="sans-serif" font-size="12" lengthAdjust="spacing" textLength="47" x="335.5" y="226.6387">Practice</text><line style="stroke:#A80036;stroke-width:1.5;" x1="333.5" x2="384.5" y1="234.4688" y2="234.4688"/><line style="stroke:#A80036;stroke-width:1.5;" x1="333.5" x2="384.5" y1="242.4688" y2="242.4688"/><!--MD5=[b85b2eaa9d07e18f255ffe398ebe2465]
class Conflict--><rect codeLine="55" fill="#FEFECE" filter="url(#fl6nrenleo22k)" height="39.9688" id="Conflict" style="stroke:#A80036;stroke-width:1.5;" width="50" x="545" y="210.5"/><text fill="#000000" font-family="sans-serif" font-size="12" lengthAdjust="spacing" textLength="44" x="548" y="226.6387">Conflict</text><line style="stroke:#A80036;stroke-width:1.5;" x1="546" x2="594" y1="234.4688" y2="234.4688"/><line style="stroke:#A80036;stroke-width:1.5;" x1="546" x2="594" y1="242.4688" y2="242.4688"/><!--MD5=[bc787e21e543e9f9478412b4d9622c23]
class ConflictManagementSkill--><rect codeLine="57" fill="#FEFECE" filter="url(#fl6nrenleo22k)" height="39.9688" id="ConflictManagementSkill" style="stroke:#A80036;stroke-width:1.5;" width="151" x="647.5" y="210.5"/><text fill="#000000" font-family="sans-serif" font-size="12" lengthAdjust="spacing" textLength="145" x="650.5" y="226.6387">ConflictManagementSkill</text><line style="stroke:#A80036;stroke-width:1.5;" x1="648.5" x2="797.5" y1="234.4688" y2="234.4688"/><line style="stroke:#A80036;stroke-width:1.5;" x1="648.5" x2="797.5" y1="242.4688" y2="242.4688"/><!--MD5=[2d0fe8c154ffb14da4b88e9c9d111a6c]
class Competence--><rect codeLine="59" fill="#FEFECE" filter="url(#fl6nrenleo22k)" height="39.9688" id="Competence" style="stroke:#A80036;stroke-width:1.5;" width="83" x="952.5" y="210.5"/><text fill="#000000" font-family="sans-serif" font-size="12" lengthAdjust="spacing" textLength="77" x="955.5" y="226.6387">Competence</text><line style="stroke:#A80036;stroke-width:1.5;" x1="953.5" x2="1034.5" y1="234.4688" y2="234.4688"/><line style="stroke:#A80036;stroke-width:1.5;" x1="953.5" x2="1034.5" y1="242.4688" y2="242.4688"/><!--MD5=[175f95e045c1a44aed0b30df3abe0e5c]
class Program--><rect codeLine="61" fill="#FEFECE" filter="url(#fl6nrenleo22k)" height="52.7734" id="Program" style="stroke:#A80036;stroke-width:1.5;" width="78" x="1071" y="204"/><text fill="#000000" font-family="sans-serif" font-size="12" lengthAdjust="spacing" textLength="50" x="1085" y="220.1387">Program</text><line style="stroke:#A80036;stroke-width:1.5;" x1="1072" x2="1148" y1="227.9688" y2="227.9688"/><line style="stroke:#A80036;stroke-width:1.5;" x1="1072" x2="1148" y1="235.9688" y2="235.9688"/><text fill="#000000" font-family="sans-serif" font-size="11" lengthAdjust="spacing" textLength="66" x="1077" y="250.1792">integrates()</text><!--MD5=[572ed6b619d9df2e4892c2de18186e7d]
class Experience--><rect codeLine="64" fill="#FEFECE" filter="url(#fl6nrenleo22k)" height="39.9688" id="Experience" style="stroke:#A80036;stroke-width:1.5;" width="74" x="1073" y="334"/><text fill="#000000" font-family="sans-serif" font-size="12" lengthAdjust="spacing" textLength="68" x="1076" y="350.1387">Experience</text><line style="stroke:#A80036;stroke-width:1.5;" x1="1074" x2="1146" y1="357.9688" y2="357.9688"/><line style="stroke:#A80036;stroke-width:1.5;" x1="1074" x2="1146" y1="365.9688" y2="365.9688"/><!--MD5=[107af66394bf1ebaa045812c9c475148]
class Score--><rect codeLine="66" fill="#FEFECE" filter="url(#fl6nrenleo22k)" height="39.9688" id="Score" style="stroke:#A80036;stroke-width:1.5;" width="42" x="223" y="210.5"/><text fill="#000000" font-family="sans-serif" font-size="12" lengthAdjust="spacing" textLength="36" x="226" y="226.6387">Score</text><line style="stroke:#A80036;stroke-width:1.5;" x1="224" x2="264" y1="234.4688" y2="234.4688"/><line style="stroke:#A80036;stroke-width:1.5;" x1="224" x2="264" y1="242.4688" y2="242.4688"/><!--MD5=[4034599964776293c58b00793c120f39]
class Training--><rect codeLine="71" fill="#FEFECE" filter="url(#fl6nrenleo22k)" height="39.9688" id="Training" style="stroke:#A80036;stroke-width:1.5;" width="53" x="1184.5" y="210.5"/><text fill="#000000" font-family="sans-serif" font-size="12" lengthAdjust="spacing" textLength="47" x="1187.5" y="226.6387">Training</text><line style="stroke:#A80036;stroke-width:1.5;" x1="1185.5" x2="1236.5" y1="234.4688" y2="234.4688"/><line style="stroke:#A80036;stroke-width:1.5;" x1="1185.5" x2="1236.5" y1="242.4688" y2="242.4688"/><!--MD5=[dfb0845b8492ffe07b1ce50e003034d7]
class Team--><rect codeLine="73" fill="#FEFECE" filter="url(#fl6nrenleo22k)" height="52.7734" id="Team" style="stroke:#A80036;stroke-width:1.5;" width="63" x="674.5" y="42"/><text fill="#000000" font-family="sans-serif" font-size="12" lengthAdjust="spacing" textLength="33" x="689.5" y="58.1387">Team</text><line style="stroke:#A80036;stroke-width:1.5;" x1="675.5" x2="736.5" y1="65.9688" y2="65.9688"/><line style="stroke:#A80036;stroke-width:1.5;" x1="675.5" x2="736.5" y1="73.9688" y2="73.9688"/><text fill="#000000" font-family="sans-serif" font-size="11" lengthAdjust="spacing" textLength="51" x="680.5" y="88.1792">resolve()</text><!--MD5=[731a1bb7661fe1a097a4b189513947b9]
link CollegeStudent to Program--><path codeLine="79" d="M978.878,101.8 C997.2,118.09 1019.53,138.311 1039,157 C1053.52,170.939 1069.22,186.877 1082.16,200.254 " fill="none" id="CollegeStudent-to-Program" style="stroke:#A80036;stroke-width:1.0;"/><polygon fill="#A80036" points="1085.73,203.955,1082.3603,194.7006,1082.2586,200.3565,1076.6026,200.2548,1085.73,203.955" style="stroke:#A80036;stroke-width:1.0;"/><text fill="#000000" font-family="sans-serif" font-size="13" lengthAdjust="spacing" textLength="23" x="1056" y="170.0669">use</text><!--MD5=[a2856a8e46165d4334dc37b45ce87188]
link AdultLearner to ConflictResolutionSkill--><path codeLine="80" d="M356.165,97.187 C289.109,128.743 180.961,179.636 120.193,208.233 " fill="none" id="AdultLearner-to-ConflictResolutionSkill" style="stroke:#A80036;stroke-width:1.0;"/><polygon fill="#A80036" points="115.541,210.422,125.3875,210.2075,120.0647,208.2923,121.9799,202.9695,115.541,210.422" style="stroke:#A80036;stroke-width:1.0;"/><text fill="#000000" font-family="sans-serif" font-size="13" lengthAdjust="spacing" textLength="51" x="226" y="170.0669">practice</text><!--MD5=[11935107cb74dc19541e12dd4b955aa9]
link AdultLearner to Conflict--><path codeLine="81" d="M470.959,127.264 C497.571,154.735 527.865,186.006 547.865,206.651 " fill="none" id="AdultLearner-to-Conflict" style="stroke:#A80036;stroke-width:1.0;"/><polygon fill="#A80036" points="551.477,210.379,548.0868,201.132,547.9976,206.7882,542.3415,206.699,551.477,210.379" style="stroke:#A80036;stroke-width:1.0;"/><text fill="#000000" font-family="sans-serif" font-size="13" lengthAdjust="spacing" textLength="47" x="517" y="170.0669">resolve</text><!--MD5=[3b1c3ab71c6415370503305d4fe03025]
link Employee to ProductConflictResolutionSkill--><path codeLine="82" d="M1410,257.267 C1410,278.3301 1410,307.9042 1410,328.5902 " fill="none" id="Employee-to-ProductConflictResolutionSkill" style="stroke:#A80036;stroke-width:1.0;"/><polygon fill="#A80036" points="1410,333.6472,1414,324.6472,1410,328.6472,1406,324.6472,1410,333.6472" style="stroke:#A80036;stroke-width:1.0;"/><text fill="#000000" font-family="sans-serif" font-size="13" lengthAdjust="spacing" textLength="51" x="1411" y="300.0669">practice</text><!--MD5=[067a5ee38485d85e4864f08046fcae2d]
link MBVStudent to Score--><path codeLine="83" d="M108.605,101.765 C115.201,124.122 126.639,153.449 145,174 C164.894,196.267 195.926,211.619 217.938,220.441 " fill="none" id="MBVStudent-to-Score" style="stroke:#A80036;stroke-width:1.0;"/><polygon fill="#A80036" points="222.769,222.331,215.8442,215.3276,218.1125,220.5098,212.9303,222.7781,222.769,222.331" style="stroke:#A80036;stroke-width:1.0;"/><text fill="#000000" font-family="sans-serif" font-size="13" lengthAdjust="spacing" textLength="23" x="146" y="170.0669">use</text><!--MD5=[04ee95632ff0c5837e827930e82bb9db]
link AdultLearner to Score--><path codeLine="84" d="M356.152,124.563 C326.014,152.762 290.967,185.554 268.182,206.874 " fill="none" id="AdultLearner-to-Score" style="stroke:#A80036;stroke-width:1.0;"/><polygon fill="#A80036" points="264.354,210.456,273.6585,207.227,268.0048,207.0396,268.1922,201.3858,264.354,210.456" style="stroke:#A80036;stroke-width:1.0;"/><text fill="#000000" font-family="sans-serif" font-size="13" lengthAdjust="spacing" textLength="30" x="321" y="170.0669">view</text><!--MD5=[c4daed6fabdec7ad79f4c33ce646bda1]
link AdultLearner to Assessment--><path codeLine="85" d="M431.607,127.264 C439.341,154.165 448.123,184.71 454.058,205.352 " fill="none" id="AdultLearner-to-Assessment" style="stroke:#A80036;stroke-width:1.0;"/><polygon fill="#A80036" points="455.503,210.379,456.8609,200.6242,454.1217,205.5736,449.1723,202.8343,455.503,210.379" style="stroke:#A80036;stroke-width:1.0;"/><text fill="#000000" font-family="sans-serif" font-size="13" lengthAdjust="spacing" textLength="28" x="446" y="170.0669">take</text><!--MD5=[b11b2c2f0e27f7982e77d7234dce49d5]
link ExperientialLearningCenterStaff to Training--><path codeLine="86" d="M1211,95.207 C1211,125.477 1211,175.384 1211,205.083 " fill="none" id="ExperientialLearningCenterStaff-to-Training" style="stroke:#A80036;stroke-width:1.0;"/><polygon fill="#A80036" points="1211,210.384,1215,201.384,1211,205.384,1207,201.384,1211,210.384" style="stroke:#A80036;stroke-width:1.0;"/><text fill="#000000" font-family="sans-serif" font-size="13" lengthAdjust="spacing" textLength="28" x="1212" y="170.0669">take</text><!--MD5=[8b2005a5b5a7cdad2d70000be2a751f0]
link CollegeStudent to Confidence--><path codeLine="87" d="M929.453,101.878 C917.595,132.481 900.072,177.702 889.381,205.291 " fill="none" id="CollegeStudent-to-Confidence" style="stroke:#A80036;stroke-width:1.0;"/><polygon fill="#A80036" points="887.467,210.23,894.4472,203.2818,889.2726,205.5674,886.987,200.3928,887.467,210.23" style="stroke:#A80036;stroke-width:1.0;"/><text fill="#000000" font-family="sans-serif" font-size="13" lengthAdjust="spacing" textLength="53" x="909" y="170.0669">improve</text><!--MD5=[925a1c1f0a703a064621624b7e6aa35a]
link MBVStudent to ConflictResolutionSkill--><path codeLine="88" d="M76.6973,101.718 C66.2897,117.498 55.3195,137.31 50,157 C45.5387,173.514 51.852,191.712 59.2487,205.746 " fill="none" id="MBVStudent-to-ConflictResolutionSkill" style="stroke:#A80036;stroke-width:1.0;"/><polygon fill="#A80036" points="61.7847,210.336,60.9352,200.5238,59.3675,205.9591,53.9322,204.3914,61.7847,210.336" style="stroke:#A80036;stroke-width:1.0;"/><text fill="#000000" font-family="sans-serif" font-size="13" lengthAdjust="spacing" textLength="53" x="51" y="170.0669">improve</text><!--MD5=[40640b81d0e2c468590501ba649192b8]
link CollegeStudent to ConflictManagementSkill--><path codeLine="89" d="M897.946,101.686 C855.096,132.991 791.128,179.726 753.578,207.16 " fill="none" id="CollegeStudent-to-ConflictManagementSkill" style="stroke:#A80036;stroke-width:1.0;"/><polygon fill="#A80036" points="749.132,210.408,758.7587,208.3278,753.1691,207.4581,754.0388,201.8685,749.132,210.408" style="stroke:#A80036;stroke-width:1.0;"/><text fill="#000000" font-family="sans-serif" font-size="13" lengthAdjust="spacing" textLength="53" x="821" y="170.0669">improve</text><!--MD5=[490aa40ea827d125a5eac37759a6a619]
link Team to Conflict--><path codeLine="90" d="M701.554,95.224 C696.498,118.072 686.306,151.271 667,174 C649.134,195.034 621.175,209.828 599.855,218.823 " fill="none" id="Team-to-Conflict" style="stroke:#A80036;stroke-width:1.0;"/><polygon fill="#A80036" points="595.139,220.764,604.9841,221.0357,599.7623,218.8601,601.9379,213.6383,595.139,220.764" style="stroke:#A80036;stroke-width:1.0;"/><text fill="#000000" font-family="sans-serif" font-size="13" lengthAdjust="spacing" textLength="47" x="679" y="170.0669">resolve</text><!--MD5=[58e3b1544f0dadd8cb8f0ca47030f1d3]
link Veteran to Graph--><path codeLine="91" d="M1672,101.878 C1672,132.354 1672,177.327 1672,204.947 " fill="none" id="Veteran-to-Graph" style="stroke:#A80036;stroke-width:1.0;"/><polygon fill="#A80036" points="1672,210.23,1676,201.23,1672,205.23,1668,201.23,1672,210.23" style="stroke:#A80036;stroke-width:1.0;"/><text fill="#000000" font-family="sans-serif" font-size="13" lengthAdjust="spacing" textLength="23" x="1673" y="170.0669">see</text><!--MD5=[3a5060022e168ef3e0a3d5472d1cfd8f]
link Executive to Employee--><path codeLine="92" d="M1410,95.207 C1410,123.432 1410,168.728 1410,198.798 " fill="none" id="Executive-to-Employee" style="stroke:#A80036;stroke-width:1.0;"/><polygon fill="#A80036" points="1410,203.857,1414,194.857,1410,198.857,1406,194.857,1410,203.857" style="stroke:#A80036;stroke-width:1.0;"/><text fill="#000000" font-family="sans-serif" font-size="13" lengthAdjust="spacing" textLength="68" x="1411" y="170.0669">encourage</text><!--MD5=[87a5b4f3c0da2ee83c7eccde9808d3ef]
link Veteran to Decision--><path codeLine="93" d="M1689.2,101.878 C1705.53,132.608 1729.68,178.077 1744.32,205.634 " fill="none" id="Veteran-to-Decision" style="stroke:#A80036;stroke-width:1.0;"/><polygon fill="#A80036" points="1746.76,210.23,1746.0665,200.4056,1744.4126,205.8153,1739.0029,204.1614,1746.76,210.23" style="stroke:#A80036;stroke-width:1.0;"/><text fill="#000000" font-family="sans-serif" font-size="13" lengthAdjust="spacing" textLength="57" x="1729" y="170.0669">compare</text><!--MD5=[c6302a5f6352cc1ce0533847f4b5cad1]
link AdultLearner to Practice--><path codeLine="94" d="M394.783,127.264 C385.327,154.279 374.586,184.969 367.36,205.614 " fill="none" id="AdultLearner-to-Practice" style="stroke:#A80036;stroke-width:1.0;"/><polygon fill="#A80036" points="365.692,210.379,372.4398,203.2049,367.3432,205.6595,364.8887,200.563,365.692,210.379" style="stroke:#A80036;stroke-width:1.0;"/><text fill="#000000" font-family="sans-serif" font-size="13" lengthAdjust="spacing" textLength="32" x="385" y="170.0669">have</text><!--MD5=[c319ba4ab13f8b83e1354813aeb9f669]
link AdultLearner to ConflictManagementSkill--><path codeLine="95" d="M473.867,102.626 C519.566,128.233 579.189,161.374 604,174 C627.33,185.873 653.674,198.261 675.634,208.314 " fill="none" id="AdultLearner-to-ConflictManagementSkill" style="stroke:#A80036;stroke-width:1.0;"/><polygon fill="#A80036" points="680.25,210.422,673.7248,203.0449,675.7018,208.345,670.4016,210.322,680.25,210.422" style="stroke:#A80036;stroke-width:1.0;"/><text fill="#000000" font-family="sans-serif" font-size="13" lengthAdjust="spacing" textLength="53" x="605" y="170.0669">improve</text><!--MD5=[c8d08300d3e283201b950d5f685f2af7]
link CollegeStudent to Competence--><path codeLine="96" d="M952.523,101.878 C962.469,132.481 977.166,177.702 986.132,205.291 " fill="none" id="CollegeStudent-to-Competence" style="stroke:#A80036;stroke-width:1.0;"/><polygon fill="#A80036" points="987.737,210.23,988.7592,200.4343,986.1915,205.4749,981.1509,202.9072,987.737,210.23" style="stroke:#A80036;stroke-width:1.0;"/><text fill="#000000" font-family="sans-serif" font-size="13" lengthAdjust="spacing" textLength="53" x="977" y="170.0669">improve</text><!--MD5=[aa674369491122573687637a03a1aa91]
link Program to Experience--><path codeLine="97" d="M1110,257.267 C1110,278.3301 1110,307.9042 1110,328.5902 " fill="none" id="Program-to-Experience" style="stroke:#A80036;stroke-width:1.0;"/><polygon fill="#A80036" points="1110,333.6472,1114,324.6472,1110,328.6472,1106,324.6472,1110,333.6472" style="stroke:#A80036;stroke-width:1.0;"/><text fill="#000000" font-family="sans-serif" font-size="13" lengthAdjust="spacing" textLength="65" x="1111" y="300.0669">integrates</text><!--MD5=[a497c16c9e7834d19f20b4aad9ca86bf]
link Veteran to ThoughtProcess--><path codeLine="98" d="M1645.35,101.891 C1632.55,118.034 1617.35,138.101 1605,157 C1594.76,172.677 1584.58,191.173 1577.05,205.559 " fill="none" id="Veteran-to-ThoughtProcess" style="stroke:#A80036;stroke-width:1.0;"/><polygon fill="#A80036" points="1574.61,210.271,1582.3045,204.1233,1576.912,205.8325,1575.2029,200.44,1574.61,210.271" style="stroke:#A80036;stroke-width:1.0;"/><text fill="#000000" font-family="sans-serif" font-size="13" lengthAdjust="spacing" textLength="57" x="1606" y="170.0669">compare</text><!--MD5=[64ebf4c98f7005516213e550b0d76ae7]
@startuml
hide circle
class AdultLearner<actor> {
}
class ExperientialLearningCenterStaff<actor> {
}
class CollegeStudent<actor> {
}
class MBVStudent<actor> {
}
class Executive<actor> {
}
class Employer<actor> {
}
class Veteran<actor> {
}
class Veteran {
	compare()
	see()
}
class ThoughtProcess {
}
class Employee {
	practice()
}
class ProductConflictResolutionSkill {
}
class AdultLearner {
	view()
	improve()
	take()
	practice()
	resolve()
	have()
}
class Assessment {
}
class MBVStudent {
	improve()
	use()
}
class ConflictResolutionSkill {
}
class Graph {
}
class Decision {
}
class CollegeStudent {
	improve()
	use()
}
class Confidence {
}
class Practice {
}
class Conflict {
}
class ConflictManagementSkill {
}
class Competence {
}
class Program {
	integrates()
}
class Experience {
}
class Score {
}
class ExperientialLearningCenterStaff {
	take()
}
class Training {
}
class Team {
	resolve()
}
class Executive {
	encourage()
}
CollegeStudent - -> Program : use
AdultLearner - -> ConflictResolutionSkill : practice
AdultLearner - -> Conflict : resolve
Employee - -> ProductConflictResolutionSkill : practice
MBVStudent - -> Score : use
AdultLearner - -> Score : view
AdultLearner - -> Assessment : take
ExperientialLearningCenterStaff - -> Training : take
CollegeStudent - -> Confidence : improve
MBVStudent - -> ConflictResolutionSkill : improve
CollegeStudent - -> ConflictManagementSkill : improve
Team - -> Conflict : resolve
Veteran - -> Graph : see
Executive - -> Employee : encourage
Veteran - -> Decision : compare
AdultLearner - -> Practice : have
AdultLearner - -> ConflictManagementSkill : improve
CollegeStudent - -> Competence : improve
Program - -> Experience : integrates
Veteran - -> ThoughtProcess : compare
@enduml

PlantUML version 1.2021.6beta6(Unknown compile time)
(GPL source distribution)
Java Runtime: Java(TM) SE Runtime Environment
JVM: Java HotSpot(TM) 64-Bit Server VM
Default Encoding: UTF-8
Language: en
Country: US
--></g></svg>