<?xml version="1.0" encoding="UTF-8" standalone="no"?><svg xmlns="http://www.w3.org/2000/svg" xmlns:xlink="http://www.w3.org/1999/xlink" contentScriptType="application/ecmascript" contentStyleType="text/css" height="711px" preserveAspectRatio="none" style="width:662px;height:711px;background:#FFFFFF;" version="1.1" viewBox="0 0 662 711" width="662px" zoomAndPan="magnify"><defs><filter height="300%" id="f1whafvut3mjqj" width="300%" x="-1" y="-1"><feGaussianBlur result="blurOut" stdDeviation="2.0"/><feColorMatrix in="blurOut" result="blurOut2" type="matrix" values="0 0 0 0 0 0 0 0 0 0 0 0 0 0 0 0 0 0 .4 0"/><feOffset dx="4.0" dy="4.0" in="blurOut2" result="blurOut3"/><feBlend in="SourceGraphic" in2="blurOut3" mode="normal"/></filter></defs><g><!--MD5=[11148126fcb8350cd83fd933a21e1a0c]
class TourCreator--><rect codeLine="50" fill="#FEFECE" filter="url(#f1whafvut3mjqj)" height="65.5781" id="TourCreator" style="stroke:#A80036;stroke-width:1.5;" width="113" x="294.5" y="10"/><text fill="#000000" font-family="sans-serif" font-size="12" lengthAdjust="spacing" textLength="72" x="297.5" y="26.1387">TourCreator</text><rect fill="#FFFFFF" height="15.9688" style="stroke:#000000;stroke-width:1.0;stroke-dasharray:2.0,2.0;" width="33" x="377.5" y="7"/><text fill="#000000" font-family="sans-serif" font-size="12" font-style="italic" lengthAdjust="spacing" textLength="31" x="378.5" y="19.1387">actor</text><line style="stroke:#A80036;stroke-width:1.5;" x1="295.5" x2="406.5" y1="33.9688" y2="33.9688"/><text fill="#000000" font-family="sans-serif" font-size="11" lengthAdjust="spacing" textLength="22" x="300.5" y="48.1792">tour</text><text fill="#000000" font-family="sans-serif" font-size="11" lengthAdjust="spacing" textLength="26" x="300.5" y="60.9839">area</text><line style="stroke:#A80036;stroke-width:1.5;" x1="295.5" x2="406.5" y1="67.5781" y2="67.5781"/><!--MD5=[08d6a551530ab71b272f9c2c40bfb385]
class Owner--><rect codeLine="31" fill="#FEFECE" filter="url(#f1whafvut3mjqj)" height="65.5781" id="Owner" style="stroke:#A80036;stroke-width:1.5;" width="81" x="489.5" y="10"/><text fill="#000000" font-family="sans-serif" font-size="12" lengthAdjust="spacing" textLength="40" x="492.5" y="26.1387">Owner</text><rect fill="#FFFFFF" height="15.9688" style="stroke:#000000;stroke-width:1.0;stroke-dasharray:2.0,2.0;" width="33" x="540.5" y="7"/><text fill="#000000" font-family="sans-serif" font-size="12" font-style="italic" lengthAdjust="spacing" textLength="31" x="541.5" y="19.1387">actor</text><line style="stroke:#A80036;stroke-width:1.5;" x1="490.5" x2="569.5" y1="33.9688" y2="33.9688"/><line style="stroke:#A80036;stroke-width:1.5;" x1="490.5" x2="569.5" y1="41.9688" y2="41.9688"/><text fill="#000000" font-family="sans-serif" font-size="11" lengthAdjust="spacing" textLength="62" x="495.5" y="56.1792">authorize()</text><text fill="#000000" font-family="sans-serif" font-size="11" lengthAdjust="spacing" textLength="46" x="495.5" y="68.9839">delete()</text><!--MD5=[9dc77e7ad336a0b5d94bb7c1d3fca679]
class TourTaker--><rect codeLine="48" fill="#FEFECE" filter="url(#f1whafvut3mjqj)" height="39.9688" id="TourTaker" style="stroke:#A80036;stroke-width:1.5;" width="102" x="358" y="340.5"/><text fill="#000000" font-family="sans-serif" font-size="12" lengthAdjust="spacing" textLength="61" x="361" y="356.6387">TourTaker</text><rect fill="#FFFFFF" height="15.9688" style="stroke:#000000;stroke-width:1.0;stroke-dasharray:2.0,2.0;" width="33" x="430" y="337.5"/><text fill="#000000" font-family="sans-serif" font-size="12" font-style="italic" lengthAdjust="spacing" textLength="31" x="431" y="349.6387">actor</text><line style="stroke:#A80036;stroke-width:1.5;" x1="359" x2="459" y1="364.4688" y2="364.4688"/><line style="stroke:#A80036;stroke-width:1.5;" x1="359" x2="459" y1="372.4688" y2="372.4688"/><!--MD5=[73e46650e1031c65418ddd944e07a383]
class Taker--><rect codeLine="10" fill="#FEFECE" filter="url(#f1whafvut3mjqj)" height="116.7969" id="Taker" style="stroke:#A80036;stroke-width:1.5;" width="61" x="476.5" y="464"/><text fill="#000000" font-family="sans-serif" font-size="12" lengthAdjust="spacing" textLength="34" x="490" y="480.1387">Taker</text><line style="stroke:#A80036;stroke-width:1.5;" x1="477.5" x2="536.5" y1="487.9688" y2="487.9688"/><line style="stroke:#A80036;stroke-width:1.5;" x1="477.5" x2="536.5" y1="495.9688" y2="495.9688"/><text fill="#000000" font-family="sans-serif" font-size="11" lengthAdjust="spacing" textLength="37" x="482.5" y="510.1792">have()</text><text fill="#000000" font-family="sans-serif" font-size="11" lengthAdjust="spacing" textLength="35" x="482.5" y="522.9839">view()</text><text fill="#000000" font-family="sans-serif" font-size="11" lengthAdjust="spacing" textLength="49" x="482.5" y="535.7886">choose()</text><text fill="#000000" font-family="sans-serif" font-size="11" lengthAdjust="spacing" textLength="46" x="482.5" y="548.5933">search()</text><text fill="#000000" font-family="sans-serif" font-size="11" lengthAdjust="spacing" textLength="32" x="482.5" y="561.3979">click()</text><text fill="#000000" font-family="sans-serif" font-size="11" lengthAdjust="spacing" textLength="43" x="482.5" y="574.2026">select()</text><!--MD5=[2c589014e840926a718801db2289e0a7]
class Creator--><rect codeLine="18" fill="#FEFECE" filter="url(#f1whafvut3mjqj)" height="103.9922" id="Creator" style="stroke:#A80036;stroke-width:1.5;" width="68" x="317" y="153"/><text fill="#000000" font-family="sans-serif" font-size="12" lengthAdjust="spacing" textLength="45" x="328.5" y="169.1387">Creator</text><line style="stroke:#A80036;stroke-width:1.5;" x1="318" x2="384" y1="176.9688" y2="176.9688"/><line style="stroke:#A80036;stroke-width:1.5;" x1="318" x2="384" y1="184.9688" y2="184.9688"/><text fill="#000000" font-family="sans-serif" font-size="11" lengthAdjust="spacing" textLength="35" x="323" y="199.1792">view()</text><text fill="#000000" font-family="sans-serif" font-size="11" lengthAdjust="spacing" textLength="46" x="323" y="211.9839">delete()</text><text fill="#000000" font-family="sans-serif" font-size="11" lengthAdjust="spacing" textLength="56" x="323" y="224.7886">promote()</text><text fill="#000000" font-family="sans-serif" font-size="11" lengthAdjust="spacing" textLength="46" x="323" y="237.5933">upload()</text><text fill="#000000" font-family="sans-serif" font-size="11" lengthAdjust="spacing" textLength="45" x="323" y="250.3979">create()</text><!--MD5=[b8221a050ca314df6c20331c2dfbf611]
class ConductorWebsite--><rect codeLine="25" fill="#FEFECE" filter="url(#f1whafvut3mjqj)" height="39.9688" id="ConductorWebsite" style="stroke:#A80036;stroke-width:1.5;" width="118" x="245" y="502.5"/><text fill="#000000" font-family="sans-serif" font-size="12" lengthAdjust="spacing" textLength="112" x="248" y="518.6387">ConductorWebsite</text><line style="stroke:#A80036;stroke-width:1.5;" x1="246" x2="362" y1="526.4688" y2="526.4688"/><line style="stroke:#A80036;stroke-width:1.5;" x1="246" x2="362" y1="534.4688" y2="534.4688"/><!--MD5=[18b89e0834131a909517048318a5909c]
class Picture--><rect codeLine="27" fill="#FEFECE" filter="url(#f1whafvut3mjqj)" height="39.9688" id="Picture" style="stroke:#A80036;stroke-width:1.5;" width="46" x="495" y="340.5"/><text fill="#000000" font-family="sans-serif" font-size="12" lengthAdjust="spacing" textLength="40" x="498" y="356.6387">Picture</text><line style="stroke:#A80036;stroke-width:1.5;" x1="496" x2="540" y1="364.4688" y2="364.4688"/><line style="stroke:#A80036;stroke-width:1.5;" x1="496" x2="540" y1="372.4688" y2="372.4688"/><!--MD5=[30fd7b95ab383a5e7c83ea23d4ea0fbf]
class Information--><rect codeLine="29" fill="#FEFECE" filter="url(#f1whafvut3mjqj)" height="39.9688" id="Information" style="stroke:#A80036;stroke-width:1.5;" width="73" x="249.5" y="658"/><text fill="#000000" font-family="sans-serif" font-size="12" lengthAdjust="spacing" textLength="67" x="252.5" y="674.1387">Information</text><line style="stroke:#A80036;stroke-width:1.5;" x1="250.5" x2="321.5" y1="681.9688" y2="681.9688"/><line style="stroke:#A80036;stroke-width:1.5;" x1="250.5" x2="321.5" y1="689.9688" y2="689.9688"/><!--MD5=[81bd20e0381b4631555d588155f2f5a3]
class Tour--><rect codeLine="35" fill="#FEFECE" filter="url(#f1whafvut3mjqj)" height="52.7734" id="Tour" style="stroke:#A80036;stroke-width:1.5;" width="41" x="576.5" y="334"/><text fill="#000000" font-family="sans-serif" font-size="12" lengthAdjust="spacing" textLength="27" x="583.5" y="350.1387">Tour</text><line style="stroke:#A80036;stroke-width:1.5;" x1="577.5" x2="616.5" y1="357.9688" y2="357.9688"/><line style="stroke:#A80036;stroke-width:1.5;" x1="577.5" x2="616.5" y1="365.9688" y2="365.9688"/><text fill="#000000" font-family="sans-serif" font-size="11" lengthAdjust="spacing" textLength="29" x="582.5" y="380.1792">use()</text><!--MD5=[dab16d122782a892ddb6ee0eadcd68f0]
class Access--><rect codeLine="38" fill="#FEFECE" filter="url(#f1whafvut3mjqj)" height="39.9688" id="Access" style="stroke:#A80036;stroke-width:1.5;" width="50" x="520" y="658"/><text fill="#000000" font-family="sans-serif" font-size="12" lengthAdjust="spacing" textLength="44" x="523" y="674.1387">Access</text><line style="stroke:#A80036;stroke-width:1.5;" x1="521" x2="569" y1="681.9688" y2="681.9688"/><line style="stroke:#A80036;stroke-width:1.5;" x1="521" x2="569" y1="689.9688" y2="689.9688"/><!--MD5=[7cfcec95ce8c7b3cc21f2a5540b61e10]
class Area--><rect codeLine="40" fill="#FEFECE" filter="url(#f1whafvut3mjqj)" height="39.9688" id="Area" style="stroke:#A80036;stroke-width:1.5;" width="34" x="7" y="340.5"/><text fill="#000000" font-family="sans-serif" font-size="12" lengthAdjust="spacing" textLength="28" x="10" y="356.6387">Area</text><line style="stroke:#A80036;stroke-width:1.5;" x1="8" x2="40" y1="364.4688" y2="364.4688"/><line style="stroke:#A80036;stroke-width:1.5;" x1="8" x2="40" y1="372.4688" y2="372.4688"/><!--MD5=[ff3d20c1112759d46dde2fcead238479]
class Value--><rect codeLine="42" fill="#FEFECE" filter="url(#f1whafvut3mjqj)" height="39.9688" id="Value" style="stroke:#A80036;stroke-width:1.5;" width="39" x="398.5" y="502.5"/><text fill="#000000" font-family="sans-serif" font-size="12" lengthAdjust="spacing" textLength="33" x="401.5" y="518.6387">Value</text><line style="stroke:#A80036;stroke-width:1.5;" x1="399.5" x2="436.5" y1="526.4688" y2="526.4688"/><line style="stroke:#A80036;stroke-width:1.5;" x1="399.5" x2="436.5" y1="534.4688" y2="534.4688"/><!--MD5=[166247bf81aba95c770c3b8fd8e3cb19]
class Video--><rect codeLine="44" fill="#FEFECE" filter="url(#f1whafvut3mjqj)" height="39.9688" id="Video" style="stroke:#A80036;stroke-width:1.5;" width="41" x="97.5" y="340.5"/><text fill="#000000" font-family="sans-serif" font-size="12" lengthAdjust="spacing" textLength="35" x="100.5" y="356.6387">Video</text><line style="stroke:#A80036;stroke-width:1.5;" x1="98.5" x2="137.5" y1="364.4688" y2="364.4688"/><line style="stroke:#A80036;stroke-width:1.5;" x1="98.5" x2="137.5" y1="372.4688" y2="372.4688"/><!--MD5=[e817ac89aa025528a1ddf8e2c0b98a5e]
class Stop--><rect codeLine="46" fill="#FEFECE" filter="url(#f1whafvut3mjqj)" height="39.9688" id="Stop" style="stroke:#A80036;stroke-width:1.5;" width="34" x="451" y="658"/><text fill="#000000" font-family="sans-serif" font-size="12" lengthAdjust="spacing" textLength="28" x="454" y="674.1387">Stop</text><line style="stroke:#A80036;stroke-width:1.5;" x1="452" x2="484" y1="681.9688" y2="681.9688"/><line style="stroke:#A80036;stroke-width:1.5;" x1="452" x2="484" y1="689.9688" y2="689.9688"/><!--MD5=[79f1e500c11fe4da492be727aba2a7d1]
link Creator to Picture--><path codeLine="52" d="M337.105,257.236 C335.655,273.691 337.679,291.003 348,304 C384.606,350.096 422.612,311.488 477,334 C481.531,335.875 486.132,338.225 490.535,340.735 " fill="none" id="Creator-to-Picture" style="stroke:#A80036;stroke-width:1.0;"/><polygon fill="#A80036" points="494.861,343.286,489.1405,335.2688,490.5541,340.7462,485.0767,342.1598,494.861,343.286" style="stroke:#A80036;stroke-width:1.0;"/><text fill="#000000" font-family="sans-serif" font-size="13" lengthAdjust="spacing" textLength="43" x="349" y="300.0669">upload</text><!--MD5=[be86cd2ddad13e947b564723edcd9a68]
link Creator to Information--><path codeLine="53" d="M316.874,252.96 C283.737,302.528 237.006,384.366 227,464 C220.517,515.594 212.853,530.961 227,581 C234.719,608.3018 252.628,635.4807 266.704,653.9134 " fill="none" id="Creator-to-Information" style="stroke:#A80036;stroke-width:1.0;"/><polygon fill="#A80036" points="269.826,657.9417,267.4738,648.3779,266.7628,653.9899,261.1508,653.2789,269.826,657.9417" style="stroke:#A80036;stroke-width:1.0;"/><text fill="#000000" font-family="sans-serif" font-size="13" lengthAdjust="spacing" textLength="43" x="238" y="430.0669">upload</text><!--MD5=[c8b71346295e8520b60d9a056ecbe65f]
link Taker to Information--><path codeLine="54" d="M476.459,560.816 C469.773,567.935 462.454,575.02 455,581 C415.074,613.0292 363.127,640.807 327.423,658.1262 " fill="none" id="Taker-to-Information" style="stroke:#A80036;stroke-width:1.0;"/><polygon fill="#A80036" points="322.715,660.3952,332.5592,660.0926,327.2195,658.2251,329.087,652.8854,322.715,660.3952" style="stroke:#A80036;stroke-width:1.0;"/><text fill="#000000" font-family="sans-serif" font-size="13" lengthAdjust="spacing" textLength="30" x="413" y="624.0669">view</text><!--MD5=[dbc2542a16101cad6750cd5806fd5fbb]
link Tour to Value--><path codeLine="55" d="M576.126,375.544 C570.312,379.347 563.956,383.405 558,387 C534.495,401.188 525.738,400.229 504,417 C481.103,434.665 477.443,441.724 459,464 C450.027,474.838 440.859,487.515 433.474,498.204 " fill="none" id="Tour-to-Value" style="stroke:#A80036;stroke-width:1.0;"/><polygon fill="#A80036" points="430.633,502.346,439.0229,497.1876,433.4616,498.223,432.4262,492.6618,430.633,502.346" style="stroke:#A80036;stroke-width:1.0;"/><text fill="#000000" font-family="sans-serif" font-size="13" lengthAdjust="spacing" textLength="23" x="505" y="430.0669">use</text><!--MD5=[d85e29f1a5eb0cfefb4927405f246638]
link Owner to Tour--><path codeLine="56" d="M541.179,76.118 C556.603,122.153 583.777,209.86 595,287 C596.985,300.64 597.638,315.872 597.735,328.84 " fill="none" id="Owner-to-Tour" style="stroke:#A80036;stroke-width:1.0;"/><polygon fill="#A80036" points="597.746,333.875,601.7254,324.8659,597.7346,328.875,593.7254,324.8842,597.746,333.875" style="stroke:#A80036;stroke-width:1.0;"/><text fill="#000000" font-family="sans-serif" font-size="13" lengthAdjust="spacing" textLength="40" x="590" y="209.5669">delete</text><!--MD5=[4a287d16313d9acddd45ecc3cdca0b45]
link Creator to ConductorWebsite--><path codeLine="57" d="M323.905,257.112 C313.264,279.962 302.332,307.641 297,334 C285.334,391.667 293.614,461.296 299.502,497.302 " fill="none" id="Creator-to-ConductorWebsite" style="stroke:#A80036;stroke-width:1.0;"/><polygon fill="#A80036" points="300.351,502.365,302.8071,492.8273,299.5239,497.4339,294.9173,494.1507,300.351,502.365" style="stroke:#A80036;stroke-width:1.0;"/><text fill="#000000" font-family="sans-serif" font-size="13" lengthAdjust="spacing" textLength="41" x="298" y="365.0669">create</text><!--MD5=[9f2661e3adbb7f7027c61a2afd423cba]
link Taker to Tour--><path codeLine="58" d="M536.317,463.84 C544.403,448.488 553.339,432.003 562,417 C566.805,408.676 572.245,399.81 577.379,391.664 " fill="none" id="Taker-to-Tour" style="stroke:#A80036;stroke-width:1.0;"/><polygon fill="#A80036" points="580.194,387.22,571.9989,392.6827,577.5185,391.4439,578.7573,396.9635,580.194,387.22" style="stroke:#A80036;stroke-width:1.0;"/><text fill="#000000" font-family="sans-serif" font-size="13" lengthAdjust="spacing" textLength="38" x="563" y="430.0669">select</text><!--MD5=[9f2661e3adbb7f7027c61a2afd423cba]
link Taker to Tour--><path codeLine="59" d="M537.544,504.446 C561.14,489.359 592.049,464.95 606,434 C611.798,421.138 610.858,405.765 607.941,392.492 " fill="none" id="Taker-to-Tour-1" style="stroke:#A80036;stroke-width:1.0;"/><polygon fill="#A80036" points="606.686,387.328,604.9231,397.0178,607.866,392.1868,612.6971,395.1297,606.686,387.328" style="stroke:#A80036;stroke-width:1.0;"/><text fill="#000000" font-family="sans-serif" font-size="13" lengthAdjust="spacing" textLength="43" x="611" y="430.0669">search</text><!--MD5=[6df152493ec1f68b54eb41f9b5fa3469]
reverse link Tour to Taker--><path codeLine="70" d="M567.176,388.926 C559.201,397.358 551.109,407.053 545,417 C536.159,431.393 528.923,448.156 523.226,463.986 " fill="none" id="Tour-backto-Taker" style="stroke:#A80036;stroke-width:1.0;"/><polygon fill="#FFFFFF" points="576.36,379.669,569.2945,381.1107,567.9077,388.1872,574.9733,386.7455,576.36,379.669" style="stroke:#A80036;stroke-width:1.0;"/><!--MD5=[4c1051e25fc7d841cc97b7beb10af46e]
link Creator to Tour--><path codeLine="60" d="M383.637,257.039 C397.008,274.277 413.86,292.139 433,304 C481.564,334.096 505.541,311.367 558,334 C562.68,336.019 567.418,338.589 571.902,341.315 " fill="none" id="Creator-to-Tour" style="stroke:#A80036;stroke-width:1.0;"/><polygon fill="#A80036" points="576.291,344.08,570.8062,335.8997,572.0599,341.4159,566.5437,342.6695,576.291,344.08" style="stroke:#A80036;stroke-width:1.0;"/><text fill="#000000" font-family="sans-serif" font-size="13" lengthAdjust="spacing" textLength="41" x="434" y="300.0669">create</text><!--MD5=[291d3d9eae7244632a1dfcb4adb5c0dd]
reverse link Tour to Creator--><path codeLine="68" d="M584.974,321.326 C579.567,309.064 572.077,296.271 562,287 C511.178,240.241 430.506,219.491 385.049,211.088 " fill="none" id="Tour-backto-Creator" style="stroke:#A80036;stroke-width:1.0;"/><polygon fill="#FFFFFF" points="589.876,333.741,591.3922,326.6911,585.4678,322.58,583.9516,329.6299,589.876,333.741" style="stroke:#A80036;stroke-width:1.0;"/><!--MD5=[4c1051e25fc7d841cc97b7beb10af46e]
link Creator to Tour--><path codeLine="71" d="M385.23,226.802 C426.414,251.914 497.567,295.567 558,334 C562.599,336.925 567.479,340.076 572.173,343.133 " fill="none" id="Creator-to-Tour-1" style="stroke:#A80036;stroke-width:1.0;"/><polygon fill="#A80036" points="576.418,345.904,571.0675,337.6353,572.2309,343.1712,566.695,344.3346,576.418,345.904" style="stroke:#A80036;stroke-width:1.0;"/><text fill="#000000" font-family="sans-serif" font-size="13" lengthAdjust="spacing" textLength="40" x="509" y="300.0669">delete</text><!--MD5=[9f40f73a92cb62ff4cdd1a3e4ebf96e8]
link Owner to Creator--><path codeLine="61" d="M493.777,76.378 C463.371,103.557 420.067,142.264 389.136,169.912 " fill="none" id="Owner-to-Creator" style="stroke:#A80036;stroke-width:1.0;"/><polygon fill="#A80036" points="385.047,173.567,394.4234,170.5533,388.7755,170.2356,389.0932,164.5877,385.047,173.567" style="stroke:#A80036;stroke-width:1.0;"/><text fill="#000000" font-family="sans-serif" font-size="13" lengthAdjust="spacing" textLength="60" x="458" y="119.0669">authorize</text><!--MD5=[6b3fb00e18770f23823b85bd787d7748]
link Taker to Access--><path codeLine="62" d="M521.258,581.094 C527.379,605.8221 534.203,633.3839 538.958,652.5919 " fill="none" id="Taker-to-Access" style="stroke:#A80036;stroke-width:1.0;"/><polygon fill="#A80036" points="540.242,657.7788,541.9623,648.0814,539.0406,652.9253,534.1967,650.0036,540.242,657.7788" style="stroke:#A80036;stroke-width:1.0;"/><text fill="#000000" font-family="sans-serif" font-size="13" lengthAdjust="spacing" textLength="32" x="534" y="624.0669">have</text><!--MD5=[742c1b30e90db005def3ddedae710587]
reverse link TourTaker to Taker--><path codeLine="63" d="M431.989,397.721 C436.014,404.13 440.146,410.751 444,417 C454.675,434.31 466.203,453.333 476.443,470.35 " fill="none" id="TourTaker-backto-Taker" style="stroke:#A80036;stroke-width:1.0;"/><polygon fill="none" points="426.003,401.353,421.244,380.704,437.841,393.878,426.003,401.353" style="stroke:#A80036;stroke-width:1.0;"/><!--MD5=[45e4b9975428905032586eb4c666682d]
link Creator to Video--><path codeLine="64" d="M316.797,206.808 C264.802,210.085 167.065,224.711 121,287 C110.905,300.65 110.608,320.02 112.589,335.305 " fill="none" id="Creator-to-Video" style="stroke:#A80036;stroke-width:1.0;"/><polygon fill="#A80036" points="113.338,340.318,115.9644,330.8258,112.5993,335.3729,108.0522,332.0077,113.338,340.318" style="stroke:#A80036;stroke-width:1.0;"/><text fill="#000000" font-family="sans-serif" font-size="13" lengthAdjust="spacing" textLength="43" x="122" y="300.0669">upload</text><!--MD5=[411971aeb3f1a20160c847d96f6cfae1]
reverse link Tour to ConductorWebsite--><path codeLine="65" d="M565.333,383.028 C562.888,384.435 560.427,385.777 558,387 C523.719,404.28 512.284,401.874 477,417 C433.337,435.718 421.541,439.236 381,464 C362.064,475.567 342.02,490.635 327.131,502.445 " fill="none" id="Tour-backto-ConductorWebsite" style="stroke:#A80036;stroke-width:1.0;"/><polygon fill="#FFFFFF" points="576.466,376.157,569.2593,375.9047,566.2546,382.46,573.4613,382.7123,576.466,376.157" style="stroke:#A80036;stroke-width:1.0;"/><!--MD5=[68cf6b25f0715b84364106da8eb09100]
link Creator to Area--><path codeLine="66" d="M316.661,205.345 C254.936,206.061 124.637,216.482 49,287 C35.6137,299.48 29.3951,319.461 26.5062,335.289 " fill="none" id="Creator-to-Area" style="stroke:#A80036;stroke-width:1.0;"/><polygon fill="#A80036" points="25.6486,340.481,31.0609,332.2526,26.4629,335.5478,23.1677,330.9497,25.6486,340.481" style="stroke:#A80036;stroke-width:1.0;"/><text fill="#000000" font-family="sans-serif" font-size="13" lengthAdjust="spacing" textLength="55" x="50" y="300.0669">promote</text><!--MD5=[3f1a13ec486d851786d60f0df98d4dfb]
link Taker to Stop--><path codeLine="67" d="M492.367,581.094 C486.084,605.8221 479.082,633.3839 474.201,652.5919 " fill="none" id="Taker-to-Stop" style="stroke:#A80036;stroke-width:1.0;"/><polygon fill="#A80036" points="472.884,657.7788,478.9772,650.0411,474.1154,652.9328,471.2236,648.0709,472.884,657.7788" style="stroke:#A80036;stroke-width:1.0;"/><text fill="#000000" font-family="sans-serif" font-size="13" lengthAdjust="spacing" textLength="27" x="486" y="624.0669">click</text><!--MD5=[87f1e15d13910fd4633e06fdb91afe9a]
reverse link TourCreator to Creator--><path codeLine="69" d="M351,96.385 C351,114.494 351,134.755 351,152.77 " fill="none" id="TourCreator-backto-Creator" style="stroke:#A80036;stroke-width:1.0;"/><polygon fill="none" points="344,96.378,351,76.378,358,96.378,344,96.378" style="stroke:#A80036;stroke-width:1.0;"/><!--MD5=[4a822b44d30a30ad30df767f079f4b53]
@startuml
hide circle
class TourCreator<actor> {
	tour
	area
}
class Owner<actor> {
}
class TourTaker<actor> {
}
class Taker {
	have()
	view()
	choose()
	search()
	click()
	select()
}
class Creator {
	view()
	delete()
	promote()
	upload()
	create()
}
class ConductorWebsite {
}
class Picture {
}
class Information {
}
class Owner {
	authorize()
	delete()
}
class Tour {
	use()
}
class Access {
}
class Area {
}
class Value {
}
class Video {
}
class Stop {
}
class TourTaker {
}
class TourCreator {
}
Creator - -> Picture : upload
Creator - -> Information : upload
Taker - -> Information : view
Tour - -> Value : use
Owner - -> Tour : delete
Creator - -> ConductorWebsite : create
Taker - -> Tour : select
Taker - -> Tour : search
Creator - -> Tour : create
Owner - -> Creator : authorize
Taker - -> Access : have
TourTaker <|- - Taker
Creator - -> Video : upload
Tour o- - ConductorWebsite
Creator - -> Area : promote
Taker - -> Stop : click
Tour o- - Creator
TourCreator <|- - Creator
Tour o- - Taker
Creator - -> Tour : delete
@enduml

PlantUML version 1.2021.10beta5(Unknown compile time)
(GPL source distribution)
Java Runtime: Java(TM) SE Runtime Environment
JVM: Java HotSpot(TM) 64-Bit Server VM
Default Encoding: UTF-8
Language: en
Country: US
--></g></svg>