<?xml version="1.0" encoding="UTF-8" standalone="no"?><svg xmlns="http://www.w3.org/2000/svg" xmlns:xlink="http://www.w3.org/1999/xlink" contentScriptType="application/ecmascript" contentStyleType="text/css" height="552px" preserveAspectRatio="none" style="width:720px;height:552px;background:#FFFFFF;" version="1.1" viewBox="0 0 720 552" width="720px" zoomAndPan="magnify"><defs><filter height="300%" id="f154lvzbykkh73" width="300%" x="-1" y="-1"><feGaussianBlur result="blurOut" stdDeviation="2.0"/><feColorMatrix in="blurOut" result="blurOut2" type="matrix" values="0 0 0 0 0 0 0 0 0 0 0 0 0 0 0 0 0 0 .4 0"/><feOffset dx="4.0" dy="4.0" in="blurOut2" result="blurOut3"/><feBlend in="SourceGraphic" in2="blurOut3" mode="normal"/></filter></defs><g><!--MD5=[11148126fcb8350cd83fd933a21e1a0c]
class TourCreator--><rect codeLine="50" fill="#FEFECE" filter="url(#f154lvzbykkh73)" height="65.5781" id="TourCreator" style="stroke:#A80036;stroke-width:1.5;" width="113" x="374.6706" y="136.5"/><text fill="#000000" font-family="sans-serif" font-size="12" lengthAdjust="spacing" textLength="72" x="377.6706" y="152.6387">TourCreator</text><rect fill="#FFFFFF" height="15.9688" style="stroke:#000000;stroke-width:1.0;stroke-dasharray:2.0,2.0;" width="33" x="457.6706" y="133.5"/><text fill="#000000" font-family="sans-serif" font-size="12" font-style="italic" lengthAdjust="spacing" textLength="31" x="458.6706" y="145.6387">actor</text><line style="stroke:#A80036;stroke-width:1.5;" x1="375.6706" x2="486.6706" y1="160.4688" y2="160.4688"/><text fill="#000000" font-family="sans-serif" font-size="11" lengthAdjust="spacing" textLength="26" x="380.6706" y="174.6792">area</text><text fill="#000000" font-family="sans-serif" font-size="11" lengthAdjust="spacing" textLength="64" x="380.6706" y="187.4839">tourCreator</text><line style="stroke:#A80036;stroke-width:1.5;" x1="375.6706" x2="486.6706" y1="194.0781" y2="194.0781"/><!--MD5=[08d6a551530ab71b272f9c2c40bfb385]
class Owner--><rect codeLine="44" fill="#FEFECE" filter="url(#f154lvzbykkh73)" height="65.5781" id="Owner" style="stroke:#A80036;stroke-width:1.5;" width="81" x="522.6706" y="136.5"/><text fill="#000000" font-family="sans-serif" font-size="12" lengthAdjust="spacing" textLength="40" x="525.6706" y="152.6387">Owner</text><rect fill="#FFFFFF" height="15.9688" style="stroke:#000000;stroke-width:1.0;stroke-dasharray:2.0,2.0;" width="33" x="573.6706" y="133.5"/><text fill="#000000" font-family="sans-serif" font-size="12" font-style="italic" lengthAdjust="spacing" textLength="31" x="574.6706" y="145.6387">actor</text><line style="stroke:#A80036;stroke-width:1.5;" x1="523.6706" x2="602.6706" y1="160.4688" y2="160.4688"/><line style="stroke:#A80036;stroke-width:1.5;" x1="523.6706" x2="602.6706" y1="168.4688" y2="168.4688"/><text fill="#000000" font-family="sans-serif" font-size="11" lengthAdjust="spacing" textLength="62" x="528.6706" y="182.6792">authorize()</text><text fill="#000000" font-family="sans-serif" font-size="11" lengthAdjust="spacing" textLength="46" x="528.6706" y="195.4839">delete()</text><!--MD5=[9dc77e7ad336a0b5d94bb7c1d3fca679]
class TourTaker--><rect codeLine="48" fill="#FEFECE" filter="url(#f154lvzbykkh73)" height="39.9688" id="TourTaker" style="stroke:#A80036;stroke-width:1.5;" width="102" x="140.1706" y="10"/><text fill="#000000" font-family="sans-serif" font-size="12" lengthAdjust="spacing" textLength="61" x="143.1706" y="26.1387">TourTaker</text><rect fill="#FFFFFF" height="15.9688" style="stroke:#000000;stroke-width:1.0;stroke-dasharray:2.0,2.0;" width="33" x="212.1706" y="7"/><text fill="#000000" font-family="sans-serif" font-size="12" font-style="italic" lengthAdjust="spacing" textLength="31" x="213.1706" y="19.1387">actor</text><line style="stroke:#A80036;stroke-width:1.5;" x1="141.1706" x2="241.1706" y1="33.9688" y2="33.9688"/><line style="stroke:#A80036;stroke-width:1.5;" x1="141.1706" x2="241.1706" y1="41.9688" y2="41.9688"/><!--MD5=[81bd20e0381b4631555d588155f2f5a3]
class Tour--><rect codeLine="10" fill="#FEFECE" filter="url(#f154lvzbykkh73)" height="39.9688" id="Tour" style="stroke:#A80036;stroke-width:1.5;" width="33" x="304.6706" y="10"/><text fill="#000000" font-family="sans-serif" font-size="12" lengthAdjust="spacing" textLength="27" x="307.6706" y="26.1387">Tour</text><line style="stroke:#A80036;stroke-width:1.5;" x1="305.6706" x2="336.6706" y1="33.9688" y2="33.9688"/><line style="stroke:#A80036;stroke-width:1.5;" x1="305.6706" x2="336.6706" y1="41.9688" y2="41.9688"/><!--MD5=[73e46650e1031c65418ddd944e07a383]
class Taker--><rect codeLine="12" fill="#FEFECE" filter="url(#f154lvzbykkh73)" height="116.7969" id="Taker" style="stroke:#A80036;stroke-width:1.5;" width="61" x="160.6706" y="111"/><text fill="#000000" font-family="sans-serif" font-size="12" lengthAdjust="spacing" textLength="34" x="174.1706" y="127.1387">Taker</text><line style="stroke:#A80036;stroke-width:1.5;" x1="161.6706" x2="220.6706" y1="134.9688" y2="134.9688"/><line style="stroke:#A80036;stroke-width:1.5;" x1="161.6706" x2="220.6706" y1="142.9688" y2="142.9688"/><text fill="#000000" font-family="sans-serif" font-size="11" lengthAdjust="spacing" textLength="46" x="166.6706" y="157.1792">search()</text><text fill="#000000" font-family="sans-serif" font-size="11" lengthAdjust="spacing" textLength="43" x="166.6706" y="169.9839">select()</text><text fill="#000000" font-family="sans-serif" font-size="11" lengthAdjust="spacing" textLength="35" x="166.6706" y="182.7886">view()</text><text fill="#000000" font-family="sans-serif" font-size="11" lengthAdjust="spacing" textLength="49" x="166.6706" y="195.5933">choose()</text><text fill="#000000" font-family="sans-serif" font-size="11" lengthAdjust="spacing" textLength="32" x="166.6706" y="208.3979">click()</text><text fill="#000000" font-family="sans-serif" font-size="11" lengthAdjust="spacing" textLength="37" x="166.6706" y="221.2026">have()</text><!--MD5=[b8221a050ca314df6c20331c2dfbf611]
class ConductorWebsite--><rect codeLine="20" fill="#FEFECE" filter="url(#f154lvzbykkh73)" height="39.9688" id="ConductorWebsite" style="stroke:#A80036;stroke-width:1.5;" width="118" x="538.1706" y="499"/><text fill="#000000" font-family="sans-serif" font-size="12" lengthAdjust="spacing" textLength="112" x="541.1706" y="515.1387">ConductorWebsite</text><line style="stroke:#A80036;stroke-width:1.5;" x1="539.1706" x2="655.1706" y1="522.9688" y2="522.9688"/><line style="stroke:#A80036;stroke-width:1.5;" x1="539.1706" x2="655.1706" y1="530.9688" y2="530.9688"/><!--MD5=[2c589014e840926a718801db2289e0a7]
class Creator--><rect codeLine="22" fill="#FEFECE" filter="url(#f154lvzbykkh73)" height="116.7969" id="Creator" style="stroke:#A80036;stroke-width:1.5;" width="68" x="362.1706" y="305"/><text fill="#000000" font-family="sans-serif" font-size="12" lengthAdjust="spacing" textLength="45" x="373.6706" y="321.1387">Creator</text><line style="stroke:#A80036;stroke-width:1.5;" x1="363.1706" x2="429.1706" y1="328.9688" y2="328.9688"/><line style="stroke:#A80036;stroke-width:1.5;" x1="363.1706" x2="429.1706" y1="336.9688" y2="336.9688"/><text fill="#000000" font-family="sans-serif" font-size="11" lengthAdjust="spacing" textLength="35" x="368.1706" y="351.1792">view()</text><text fill="#000000" font-family="sans-serif" font-size="11" lengthAdjust="spacing" textLength="45" x="368.1706" y="363.9839">create()</text><text fill="#000000" font-family="sans-serif" font-size="11" lengthAdjust="spacing" textLength="46" x="368.1706" y="376.7886">upload()</text><text fill="#000000" font-family="sans-serif" font-size="11" lengthAdjust="spacing" textLength="29" x="368.1706" y="389.5933">use()</text><text fill="#000000" font-family="sans-serif" font-size="11" lengthAdjust="spacing" textLength="56" x="368.1706" y="402.3979">promote()</text><text fill="#000000" font-family="sans-serif" font-size="11" lengthAdjust="spacing" textLength="46" x="368.1706" y="415.2026">delete()</text><!--MD5=[18b89e0834131a909517048318a5909c]
class Picture--><rect codeLine="30" fill="#FEFECE" filter="url(#f154lvzbykkh73)" height="39.9688" id="Picture" style="stroke:#A80036;stroke-width:1.5;" width="46" x="198.1706" y="499"/><text fill="#000000" font-family="sans-serif" font-size="12" lengthAdjust="spacing" textLength="40" x="201.1706" y="515.1387">Picture</text><line style="stroke:#A80036;stroke-width:1.5;" x1="199.1706" x2="243.1706" y1="522.9688" y2="522.9688"/><line style="stroke:#A80036;stroke-width:1.5;" x1="199.1706" x2="243.1706" y1="530.9688" y2="530.9688"/><!--MD5=[7cfcec95ce8c7b3cc21f2a5540b61e10]
class Area--><rect codeLine="32" fill="#FEFECE" filter="url(#f154lvzbykkh73)" height="39.9688" id="Area" style="stroke:#A80036;stroke-width:1.5;" width="34" x="289.1706" y="499"/><text fill="#000000" font-family="sans-serif" font-size="12" lengthAdjust="spacing" textLength="28" x="292.1706" y="515.1387">Area</text><line style="stroke:#A80036;stroke-width:1.5;" x1="290.1706" x2="322.1706" y1="522.9688" y2="522.9688"/><line style="stroke:#A80036;stroke-width:1.5;" x1="290.1706" x2="322.1706" y1="530.9688" y2="530.9688"/><!--MD5=[e817ac89aa025528a1ddf8e2c0b98a5e]
class Stop--><rect codeLine="34" fill="#FEFECE" filter="url(#f154lvzbykkh73)" height="39.9688" id="Stop" style="stroke:#A80036;stroke-width:1.5;" width="34" x="78.1701" y="343.5"/><text fill="#000000" font-family="sans-serif" font-size="12" lengthAdjust="spacing" textLength="28" x="81.1701" y="359.6387">Stop</text><line style="stroke:#A80036;stroke-width:1.5;" x1="79.1701" x2="111.1701" y1="367.4688" y2="367.4688"/><line style="stroke:#A80036;stroke-width:1.5;" x1="79.1701" x2="111.1701" y1="375.4688" y2="375.4688"/><!--MD5=[dab16d122782a892ddb6ee0eadcd68f0]
class Access--><rect codeLine="36" fill="#FEFECE" filter="url(#f154lvzbykkh73)" height="39.9688" id="Access" style="stroke:#A80036;stroke-width:1.5;" width="50" x="147.1706" y="343.5"/><text fill="#000000" font-family="sans-serif" font-size="12" lengthAdjust="spacing" textLength="44" x="150.1706" y="359.6387">Access</text><line style="stroke:#A80036;stroke-width:1.5;" x1="148.1706" x2="196.1706" y1="367.4688" y2="367.4688"/><line style="stroke:#A80036;stroke-width:1.5;" x1="148.1706" x2="196.1706" y1="375.4688" y2="375.4688"/><!--MD5=[30fd7b95ab383a5e7c83ea23d4ea0fbf]
class Information--><rect codeLine="38" fill="#FEFECE" filter="url(#f154lvzbykkh73)" height="39.9688" id="Information" style="stroke:#A80036;stroke-width:1.5;" width="73" x="40.6701" y="499"/><text fill="#000000" font-family="sans-serif" font-size="12" lengthAdjust="spacing" textLength="67" x="43.6701" y="515.1387">Information</text><line style="stroke:#A80036;stroke-width:1.5;" x1="41.6701" x2="112.6701" y1="522.9688" y2="522.9688"/><line style="stroke:#A80036;stroke-width:1.5;" x1="41.6701" x2="112.6701" y1="530.9688" y2="530.9688"/><!--MD5=[ff3d20c1112759d46dde2fcead238479]
class Value--><rect codeLine="40" fill="#FEFECE" filter="url(#f154lvzbykkh73)" height="39.9688" id="Value" style="stroke:#A80036;stroke-width:1.5;" width="39" x="383.6706" y="499"/><text fill="#000000" font-family="sans-serif" font-size="12" lengthAdjust="spacing" textLength="33" x="386.6706" y="515.1387">Value</text><line style="stroke:#A80036;stroke-width:1.5;" x1="384.6706" x2="421.6706" y1="522.9688" y2="522.9688"/><line style="stroke:#A80036;stroke-width:1.5;" x1="384.6706" x2="421.6706" y1="530.9688" y2="530.9688"/><!--MD5=[166247bf81aba95c770c3b8fd8e3cb19]
class Video--><rect codeLine="42" fill="#FEFECE" filter="url(#f154lvzbykkh73)" height="39.9688" id="Video" style="stroke:#A80036;stroke-width:1.5;" width="41" x="457.6706" y="499"/><text fill="#000000" font-family="sans-serif" font-size="12" lengthAdjust="spacing" textLength="35" x="460.6706" y="515.1387">Video</text><line style="stroke:#A80036;stroke-width:1.5;" x1="458.6706" x2="497.6706" y1="522.9688" y2="522.9688"/><line style="stroke:#A80036;stroke-width:1.5;" x1="458.6706" x2="497.6706" y1="530.9688" y2="530.9688"/><!--MD5=[79f1e500c11fe4da492be727aba2a7d1]
link Creator to Picture--><path codeLine="52" d="M362.0286,385.736 C336.7466,402.256 302.1536,426.58 275.1706,452 C261.3026,465.0641 247.7316,481.6717 237.6636,494.959 " fill="none" id="Creator-to-Picture" style="stroke:#A80036;stroke-width:1.0;"/><polygon fill="#A80036" points="234.6546,498.9685,243.2554,494.1699,237.6553,494.969,236.8562,489.3689,234.6546,498.9685" style="stroke:#A80036;stroke-width:1.0;"/><text fill="#000000" font-family="sans-serif" font-size="13" lengthAdjust="spacing" textLength="43" x="276.1706" y="465.0669">upload</text><!--MD5=[509469c5f4f1c48adb4a8e513b089a60]
link Creator to Creator--><path codeLine="53" d="M430.2516,354.871 C448.5236,353.405 465.1706,356.281 465.1706,363.5 C465.1706,370.042 451.4986,373.018 435.3356,372.427 " fill="none" id="Creator-to-Creator" style="stroke:#A80036;stroke-width:1.0;"/><polygon fill="#A80036" points="430.2516,372.129,439.0019,376.6493,435.243,372.4219,439.4705,368.663,430.2516,372.129" style="stroke:#A80036;stroke-width:1.0;"/><text fill="#000000" font-family="sans-serif" font-size="13" lengthAdjust="spacing" textLength="41" x="471.1706" y="368.0669">create</text><!--MD5=[509469c5f4f1c48adb4a8e513b089a60]
link Creator to Creator--><path codeLine="54" d="M430.4706,349.86 C469.5556,341.047 518.1706,345.594 518.1706,363.5 C518.1706,380.637 473.6436,385.537 435.5576,378.202 " fill="none" id="Creator-to-Creator-1" style="stroke:#A80036;stroke-width:1.0;"/><polygon fill="#A80036" points="430.4706,377.14,438.4636,382.8943,435.3652,378.1615,440.098,375.063,430.4706,377.14" style="stroke:#A80036;stroke-width:1.0;"/><text fill="#000000" font-family="sans-serif" font-size="13" lengthAdjust="spacing" textLength="40" x="524.1706" y="368.0669">delete</text><!--MD5=[72aa2764f8ae4c9991afc8d16f9202fc]
link Creator to Value--><path codeLine="55" d="M398.7966,422.094 C399.9246,446.8221 401.1816,474.3839 402.0566,493.5919 " fill="none" id="Creator-to-Value" style="stroke:#A80036;stroke-width:1.0;"/><polygon fill="#A80036" points="402.2936,498.7788,405.8793,489.6058,402.0657,493.784,397.8876,489.9705,402.2936,498.7788" style="stroke:#A80036;stroke-width:1.0;"/><text fill="#000000" font-family="sans-serif" font-size="13" lengthAdjust="spacing" textLength="23" x="402.1706" y="465.0669">use</text><!--MD5=[68cf6b25f0715b84364106da8eb09100]
link Creator to Area--><path codeLine="56" d="M361.9226,411.216 C353.0656,424.139 343.8656,438.365 336.1706,452 C328.5786,465.4504 321.3716,481.1708 315.9256,493.8945 " fill="none" id="Creator-to-Area" style="stroke:#A80036;stroke-width:1.0;"/><polygon fill="#A80036" points="313.8526,498.7907,321.0447,492.0621,315.8018,494.1863,313.6777,488.9434,313.8526,498.7907" style="stroke:#A80036;stroke-width:1.0;"/><text fill="#000000" font-family="sans-serif" font-size="13" lengthAdjust="spacing" textLength="55" x="337.1706" y="465.0669">promote</text><!--MD5=[45e4b9975428905032586eb4c666682d]
link Creator to Video--><path codeLine="57" d="M426.9376,422.094 C440.2596,447.0335 455.1216,474.8552 465.3936,494.0826 " fill="none" id="Creator-to-Video" style="stroke:#A80036;stroke-width:1.0;"/><polygon fill="#A80036" points="467.9016,498.7788,467.1888,488.9558,465.5456,494.3687,460.1326,492.7255,467.9016,498.7788" style="stroke:#A80036;stroke-width:1.0;"/><text fill="#000000" font-family="sans-serif" font-size="13" lengthAdjust="spacing" textLength="43" x="453.1706" y="465.0669">upload</text><!--MD5=[3f1a13ec486d851786d60f0df98d4dfb]
link Taker to Stop--><path codeLine="58" d="M160.6236,203.27 C147.4836,218.86 132.9306,238.359 123.1706,258 C110.3242,283.849 102.8109,316.322 98.8571,338.151 " fill="none" id="Taker-to-Stop" style="stroke:#A80036;stroke-width:1.0;"/><polygon fill="#A80036" points="97.9739,343.187,103.4671,335.0123,98.8368,338.262,95.5871,333.6317,97.9739,343.187" style="stroke:#A80036;stroke-width:1.0;"/><text fill="#000000" font-family="sans-serif" font-size="13" lengthAdjust="spacing" textLength="27" x="124.1706" y="271.0669">click</text><!--MD5=[9f40f73a92cb62ff4cdd1a3e4ebf96e8]
link Owner to Creator--><path codeLine="59" d="M558.0626,202.808 C553.2836,224.903 544.3556,253.898 528.1706,275 C503.7886,306.787 464.4006,330.735 434.9866,345.471 " fill="none" id="Owner-to-Creator" style="stroke:#A80036;stroke-width:1.0;"/><polygon fill="#A80036" points="430.3556,347.756,440.1965,347.3603,434.8394,345.5434,436.6564,340.1863,430.3556,347.756" style="stroke:#A80036;stroke-width:1.0;"/><text fill="#000000" font-family="sans-serif" font-size="13" lengthAdjust="spacing" textLength="60" x="539.1706" y="271.0669">authorize</text><!--MD5=[9f40f73a92cb62ff4cdd1a3e4ebf96e8]
link Owner to Creator--><path codeLine="64" d="M530.4426,202.551 C514.2856,218.78 494.7526,239.021 478.1706,258 C462.9346,275.437 447.0366,295.271 433.3386,312.939 " fill="none" id="Owner-to-Creator-1" style="stroke:#A80036;stroke-width:1.0;"/><polygon fill="#A80036" points="430.2696,316.909,438.9392,312.2358,433.328,312.9535,432.6104,307.3423,430.2696,316.909" style="stroke:#A80036;stroke-width:1.0;"/><text fill="#000000" font-family="sans-serif" font-size="13" lengthAdjust="spacing" textLength="40" x="479.1706" y="271.0669">delete</text><!--MD5=[bf7555c69d82338510689df436e49ecc]
link Taker to Creator--><path codeLine="60" d="M207.4606,228.224 C214.1126,244.677 223.1476,261.72 235.1706,275 C268.5786,311.902 321.2966,336.383 357.2376,349.841 " fill="none" id="Taker-to-Creator" style="stroke:#A80036;stroke-width:1.0;"/><polygon fill="#A80036" points="361.9736,351.587,354.9134,344.7202,357.2824,349.8571,352.1455,352.2261,361.9736,351.587" style="stroke:#A80036;stroke-width:1.0;"/><text fill="#000000" font-family="sans-serif" font-size="13" lengthAdjust="spacing" textLength="38" x="236.1706" y="271.0669">select</text><!--MD5=[bf7555c69d82338510689df436e49ecc]
link Taker to Creator--><path codeLine="71" d="M221.8606,199.244 C258.2176,233.296 318.7976,290.034 358.1066,326.851 " fill="none" id="Taker-to-Creator-1" style="stroke:#A80036;stroke-width:1.0;"/><polygon fill="#A80036" points="361.8436,330.35,358.011,321.2775,358.195,326.9313,352.5411,327.1153,361.8436,330.35" style="stroke:#A80036;stroke-width:1.0;"/><text fill="#000000" font-family="sans-serif" font-size="13" lengthAdjust="spacing" textLength="43" x="301.1706" y="271.0669">search</text><!--MD5=[4a287d16313d9acddd45ecc3cdca0b45]
link Creator to ConductorWebsite--><path codeLine="61" d="M430.2666,390.539 C468.9056,420.047 531.2476,467.6561 567.8096,495.5778 " fill="none" id="Creator-to-ConductorWebsite" style="stroke:#A80036;stroke-width:1.0;"/><polygon fill="#A80036" points="572.1376,498.8828,567.412,490.2417,568.1636,495.8484,562.557,496.6001,572.1376,498.8828" style="stroke:#A80036;stroke-width:1.0;"/><text fill="#000000" font-family="sans-serif" font-size="13" lengthAdjust="spacing" textLength="41" x="533.1706" y="465.0669">create</text><!--MD5=[be86cd2ddad13e947b564723edcd9a68]
link Creator to Information--><path codeLine="62" d="M361.9926,379.727 C323.8016,396.861 260.2306,425.736 206.1706,452 C176.4536,466.4368 143.2786,483.4303 118.0126,496.5582 " fill="none" id="Creator-to-Information" style="stroke:#A80036;stroke-width:1.0;"/><polygon fill="#A80036" points="113.3896,498.963,123.2199,498.3587,117.8255,496.6558,119.5284,491.2613,113.3896,498.963" style="stroke:#A80036;stroke-width:1.0;"/><text fill="#000000" font-family="sans-serif" font-size="13" lengthAdjust="spacing" textLength="43" x="207.1706" y="465.0669">upload</text><!--MD5=[c8b71346295e8520b60d9a056ecbe65f]
link Taker to Information--><path codeLine="63" d="M160.4266,185.108 C121.2856,205.633 55.4658,247.088 28.1701,305 C6,352.037 16.0131,371.441 28.1701,422 C34.5018,448.3324 49.3365,475.5754 61.0356,494.2824 " fill="none" id="Taker-to-Information" style="stroke:#A80036;stroke-width:1.0;"/><polygon fill="#A80036" points="63.9353,498.8487,62.4873,489.1069,61.2549,494.6279,55.7339,493.3955,63.9353,498.8487" style="stroke:#A80036;stroke-width:1.0;"/><text fill="#000000" font-family="sans-serif" font-size="13" lengthAdjust="spacing" textLength="30" x="29.1701" y="368.0669">view</text><!--MD5=[291d3d9eae7244632a1dfcb4adb5c0dd]
reverse link Tour to Creator--><path codeLine="65" d="M326.0256,63.207 C332.1696,102.388 343.6016,170.434 357.1706,228 C363.1666,253.439 371.0036,281.23 378.0786,304.912 " fill="none" id="Tour-backto-Creator" style="stroke:#A80036;stroke-width:1.0;"/><polygon fill="#FFFFFF" points="324.0076,50.151,320.9711,56.6916,325.8406,62.0102,328.8772,55.4696,324.0076,50.151" style="stroke:#A80036;stroke-width:1.0;"/><!--MD5=[742c1b30e90db005def3ddedae710587]
reverse link TourTaker to Taker--><path codeLine="66" d="M191.1706,70.565 C191.1706,83.149 191.1706,97.334 191.1706,110.922 " fill="none" id="TourTaker-backto-Taker" style="stroke:#A80036;stroke-width:1.0;"/><polygon fill="none" points="184.1706,70.119,191.1706,50.119,198.1706,70.119,184.1706,70.119" style="stroke:#A80036;stroke-width:1.0;"/><!--MD5=[6df152493ec1f68b54eb41f9b5fa3469]
reverse link Tour to Taker--><path codeLine="67" d="M295.3906,58.266 C274.2046,80.675 244.1396,112.474 221.7416,136.165 " fill="none" id="Tour-backto-Taker" style="stroke:#A80036;stroke-width:1.0;"/><polygon fill="#FFFFFF" points="304.4406,48.694,297.4119,50.3055,296.196,57.4133,303.2248,55.8019,304.4406,48.694" style="stroke:#A80036;stroke-width:1.0;"/><!--MD5=[87f1e15d13910fd4633e06fdb91afe9a]
reverse link TourCreator to Creator--><path codeLine="68" d="M421.6746,222.591 C417.0286,248.077 411.4236,278.826 406.6526,304.998 " fill="none" id="TourCreator-backto-Creator" style="stroke:#A80036;stroke-width:1.0;"/><polygon fill="none" points="414.8386,221.057,425.3116,202.636,428.6116,223.568,414.8386,221.057" style="stroke:#A80036;stroke-width:1.0;"/><!--MD5=[411971aeb3f1a20160c847d96f6cfae1]
reverse link Tour to ConductorWebsite--><path codeLine="69" d="M351.0296,34.399 C420.1876,42.947 587.9816,67.801 621.1706,111 C713.6696,231.398 634.3106,435.774 606.1506,498.8725 " fill="none" id="Tour-backto-ConductorWebsite" style="stroke:#A80036;stroke-width:1.0;"/><polygon fill="#FFFFFF" points="337.8536,32.821,343.3354,37.5061,349.7685,34.2479,344.2867,29.5628,337.8536,32.821" style="stroke:#A80036;stroke-width:1.0;"/><!--MD5=[6b3fb00e18770f23823b85bd787d7748]
link Taker to Access--><path codeLine="70" d="M168.4166,228.169 C165.4106,237.983 162.8066,248.179 161.1706,258 C156.6166,285.321 161.3336,316.992 165.9266,338.243 " fill="none" id="Taker-to-Access" style="stroke:#A80036;stroke-width:1.0;"/><polygon fill="#A80036" points="167.0236,343.146,168.9601,333.4894,165.931,338.2669,161.1535,335.2377,167.0236,343.146" style="stroke:#A80036;stroke-width:1.0;"/><text fill="#000000" font-family="sans-serif" font-size="13" lengthAdjust="spacing" textLength="32" x="162.1706" y="271.0669">have</text><!--MD5=[7acfaa15c240ec448336cae47719c98b]
@startuml
hide circle
class TourCreator<actor> {
	area
	tourCreator
}
class Owner<actor> {
}
class TourTaker<actor> {
}
class Tour {
}
class Taker {
	search()
	select()
	view()
	choose()
	click()
	have()
}
class ConductorWebsite {
}
class Creator {
	view()
	create()
	upload()
	use()
	promote()
	delete()
}
class Picture {
}
class Area {
}
class Stop {
}
class Access {
}
class Information {
}
class Value {
}
class Video {
}
class Owner {
	authorize()
	delete()
}
class TourTaker {
}
class TourCreator {
}
Creator - -> Picture : upload
Creator - -> Creator : create
Creator - -> Creator : delete
Creator - -> Value : use
Creator - -> Area : promote
Creator - -> Video : upload
Taker - -> Stop : click
Owner - -> Creator : authorize
Taker - -> Creator : select
Creator - -> ConductorWebsite : create
Creator - -> Information : upload
Taker - -> Information : view
Owner - -> Creator : delete
Tour o- - Creator
TourTaker <|- - Taker
Tour o- - Taker
TourCreator <|- - Creator
Tour o- - ConductorWebsite
Taker - -> Access : have
Taker - -> Creator : search
@enduml

PlantUML version 1.2021.10beta2(Unknown compile time)
(GPL source distribution)
Java Runtime: Java(TM) SE Runtime Environment
JVM: Java HotSpot(TM) 64-Bit Server VM
Default Encoding: UTF-8
Language: en
Country: US
--></g></svg>