<?xml version="1.0" encoding="UTF-8" standalone="no"?><svg xmlns="http://www.w3.org/2000/svg" xmlns:xlink="http://www.w3.org/1999/xlink" contentScriptType="application/ecmascript" contentStyleType="text/css" height="487px" preserveAspectRatio="none" style="width:2433px;height:487px;background:#FFFFFF;" version="1.1" viewBox="0 0 2433 487" width="2433px" zoomAndPan="magnify"><defs><filter height="300%" id="f3bsba0dyuf9i" width="300%" x="-1" y="-1"><feGaussianBlur result="blurOut" stdDeviation="2.0"/><feColorMatrix in="blurOut" result="blurOut2" type="matrix" values="0 0 0 0 0 0 0 0 0 0 0 0 0 0 0 0 0 0 .4 0"/><feOffset dx="4.0" dy="4.0" in="blurOut2" result="blurOut3"/><feBlend in="SourceGraphic" in2="blurOut3" mode="normal"/></filter></defs><g><!--MD5=[3fd616f346a44cd59a91eb10b19e157c]
class User--><rect codeLine="20" fill="#FEFECE" filter="url(#f3bsba0dyuf9i)" height="334.4766" id="User" style="stroke:#A80036;stroke-width:1.5;" width="70" x="953.5" y="10"/><text fill="#000000" font-family="sans-serif" font-size="12" lengthAdjust="spacing" textLength="29" x="956.5" y="26.1387">User</text><rect fill="#FFFFFF" height="15.9688" style="stroke:#000000;stroke-width:1.0;stroke-dasharray:2.0,2.0;" width="33" x="993.5" y="7"/><text fill="#000000" font-family="sans-serif" font-size="12" font-style="italic" lengthAdjust="spacing" textLength="31" x="994.5" y="19.1387">actor</text><line style="stroke:#A80036;stroke-width:1.5;" x1="954.5" x2="1022.5" y1="33.9688" y2="33.9688"/><text fill="#000000" font-family="sans-serif" font-size="11" lengthAdjust="spacing" textLength="44" x="959.5" y="48.1792">location</text><text fill="#000000" font-family="sans-serif" font-size="11" lengthAdjust="spacing" textLength="36" x="959.5" y="60.9839">metric</text><text fill="#000000" font-family="sans-serif" font-size="11" lengthAdjust="spacing" textLength="52" x="959.5" y="73.7886">schedule</text><text fill="#000000" font-family="sans-serif" font-size="11" lengthAdjust="spacing" textLength="44" x="959.5" y="86.5933">account</text><line style="stroke:#A80036;stroke-width:1.5;" x1="954.5" x2="1022.5" y1="93.1875" y2="93.1875"/><text fill="#000000" font-family="sans-serif" font-size="11" lengthAdjust="spacing" textLength="41" x="959.5" y="107.3979">watch()</text><text fill="#000000" font-family="sans-serif" font-size="11" lengthAdjust="spacing" textLength="51" x="959.5" y="120.2026">identify()</text><text fill="#000000" font-family="sans-serif" font-size="11" lengthAdjust="spacing" textLength="36" x="959.5" y="133.0073">wear()</text><text fill="#000000" font-family="sans-serif" font-size="11" lengthAdjust="spacing" textLength="47" x="959.5" y="145.812">access()</text><text fill="#000000" font-family="sans-serif" font-size="11" lengthAdjust="spacing" textLength="37" x="959.5" y="158.6167">know()</text><text fill="#000000" font-family="sans-serif" font-size="11" lengthAdjust="spacing" textLength="31" x="959.5" y="171.4214">feel()</text><text fill="#000000" font-family="sans-serif" font-size="11" lengthAdjust="spacing" textLength="52" x="959.5" y="184.2261">receive()</text><text fill="#000000" font-family="sans-serif" font-size="11" lengthAdjust="spacing" textLength="26" x="959.5" y="197.0308">opt()</text><text fill="#000000" font-family="sans-serif" font-size="11" lengthAdjust="spacing" textLength="44" x="959.5" y="209.8354">toggle()</text><text fill="#000000" font-family="sans-serif" font-size="11" lengthAdjust="spacing" textLength="47" x="959.5" y="222.6401">modify()</text><text fill="#000000" font-family="sans-serif" font-size="11" lengthAdjust="spacing" textLength="22" x="959.5" y="235.4448">do()</text><text fill="#000000" font-family="sans-serif" font-size="11" lengthAdjust="spacing" textLength="50" x="959.5" y="248.2495">change()</text><text fill="#000000" font-family="sans-serif" font-size="11" lengthAdjust="spacing" textLength="49" x="959.5" y="261.0542">disable()</text><text fill="#000000" font-family="sans-serif" font-size="11" lengthAdjust="spacing" textLength="45" x="959.5" y="273.8589">create()</text><text fill="#000000" font-family="sans-serif" font-size="11" lengthAdjust="spacing" textLength="29" x="959.5" y="286.6636">use()</text><text fill="#000000" font-family="sans-serif" font-size="11" lengthAdjust="spacing" textLength="40" x="959.5" y="299.4683">share()</text><text fill="#000000" font-family="sans-serif" font-size="11" lengthAdjust="spacing" textLength="35" x="959.5" y="312.2729">view()</text><text fill="#000000" font-family="sans-serif" font-size="11" lengthAdjust="spacing" textLength="42" x="959.5" y="325.0776">report()</text><text fill="#000000" font-family="sans-serif" font-size="11" lengthAdjust="spacing" textLength="37" x="959.5" y="337.8823">have()</text><!--MD5=[db6d18d8099558415abc41d00477ab92]
class Admin--><rect codeLine="45" fill="#FEFECE" filter="url(#f3bsba0dyuf9i)" height="129.6016" id="Admin" style="stroke:#A80036;stroke-width:1.5;" width="78" x="1976.5" y="112"/><text fill="#000000" font-family="sans-serif" font-size="12" lengthAdjust="spacing" textLength="37" x="1979.5" y="128.1387">Admin</text><rect fill="#FFFFFF" height="15.9688" style="stroke:#000000;stroke-width:1.0;stroke-dasharray:2.0,2.0;" width="33" x="2024.5" y="109"/><text fill="#000000" font-family="sans-serif" font-size="12" font-style="italic" lengthAdjust="spacing" textLength="31" x="2025.5" y="121.1387">actor</text><line style="stroke:#A80036;stroke-width:1.5;" x1="1977.5" x2="2053.5" y1="135.9688" y2="135.9688"/><line style="stroke:#A80036;stroke-width:1.5;" x1="1977.5" x2="2053.5" y1="143.9688" y2="143.9688"/><text fill="#000000" font-family="sans-serif" font-size="11" lengthAdjust="spacing" textLength="46" x="1982.5" y="158.1792">delete()</text><text fill="#000000" font-family="sans-serif" font-size="11" lengthAdjust="spacing" textLength="45" x="1982.5" y="170.9839">create()</text><text fill="#000000" font-family="sans-serif" font-size="11" lengthAdjust="spacing" textLength="47" x="1982.5" y="183.7886">access()</text><text fill="#000000" font-family="sans-serif" font-size="11" lengthAdjust="spacing" textLength="30" x="1982.5" y="196.5933">see()</text><text fill="#000000" font-family="sans-serif" font-size="11" lengthAdjust="spacing" textLength="45" x="1982.5" y="209.3979">define()</text><text fill="#000000" font-family="sans-serif" font-size="11" lengthAdjust="spacing" textLength="46" x="1982.5" y="222.2026">upload()</text><text fill="#000000" font-family="sans-serif" font-size="11" lengthAdjust="spacing" textLength="29" x="1982.5" y="235.0073">add()</text><!--MD5=[32f29d0a8b98848dec61f11fa636792c]
class FarmManager--><rect codeLine="60" fill="#FEFECE" filter="url(#f3bsba0dyuf9i)" height="52.7734" id="FarmManager" style="stroke:#A80036;stroke-width:1.5;" width="123" x="7" y="150.5"/><text fill="#000000" font-family="sans-serif" font-size="12" lengthAdjust="spacing" textLength="82" x="10" y="166.6387">FarmManager</text><rect fill="#FFFFFF" height="15.9688" style="stroke:#000000;stroke-width:1.0;stroke-dasharray:2.0,2.0;" width="33" x="100" y="147.5"/><text fill="#000000" font-family="sans-serif" font-size="12" font-style="italic" lengthAdjust="spacing" textLength="31" x="101" y="159.6387">actor</text><line style="stroke:#A80036;stroke-width:1.5;" x1="8" x2="129" y1="174.4688" y2="174.4688"/><line style="stroke:#A80036;stroke-width:1.5;" x1="8" x2="129" y1="182.4688" y2="182.4688"/><text fill="#000000" font-family="sans-serif" font-size="11" lengthAdjust="spacing" textLength="46" x="13" y="196.6792">search()</text><!--MD5=[51459b575c2b6935d6ab8ee57e43f094]
class Tommorow--><rect codeLine="12" fill="#FEFECE" filter="url(#f3bsba0dyuf9i)" height="52.7734" id="Tommorow" style="stroke:#A80036;stroke-width:1.5;" width="74" x="165.5" y="150.5"/><text fill="#000000" font-family="sans-serif" font-size="12" lengthAdjust="spacing" textLength="68" x="168.5" y="166.6387">Tommorow</text><line style="stroke:#A80036;stroke-width:1.5;" x1="166.5" x2="238.5" y1="174.4688" y2="174.4688"/><text fill="#000000" font-family="sans-serif" font-size="11" lengthAdjust="spacing" textLength="47" x="171.5" y="188.6792">weather</text><line style="stroke:#A80036;stroke-width:1.5;" x1="166.5" x2="238.5" y1="195.2734" y2="195.2734"/><!--MD5=[30fa7e59e0dcc6ea44bfee28316cb738]
class HealthData--><rect codeLine="15" fill="#FEFECE" filter="url(#f3bsba0dyuf9i)" height="52.7734" id="HealthData" style="stroke:#A80036;stroke-width:1.5;" width="71" x="2229" y="150.5"/><text fill="#000000" font-family="sans-serif" font-size="12" lengthAdjust="spacing" textLength="65" x="2232" y="166.6387">HealthData</text><line style="stroke:#A80036;stroke-width:1.5;" x1="2230" x2="2299" y1="174.4688" y2="174.4688"/><line style="stroke:#A80036;stroke-width:1.5;" x1="2230" x2="2299" y1="182.4688" y2="182.4688"/><text fill="#000000" font-family="sans-serif" font-size="11" lengthAdjust="spacing" textLength="45" x="2235" y="196.6792">collect()</text><!--MD5=[187eb093202b8e01aea0dca77139d887]
class Farmer--><rect codeLine="18" fill="#FEFECE" filter="url(#f3bsba0dyuf9i)" height="39.9688" id="Farmer" style="stroke:#A80036;stroke-width:1.5;" width="49" x="2296" y="427.5"/><text fill="#000000" font-family="sans-serif" font-size="12" lengthAdjust="spacing" textLength="43" x="2299" y="443.6387">Farmer</text><line style="stroke:#A80036;stroke-width:1.5;" x1="2297" x2="2344" y1="451.4688" y2="451.4688"/><line style="stroke:#A80036;stroke-width:1.5;" x1="2297" x2="2344" y1="459.4688" y2="459.4688"/><!--MD5=[90d32ccc189f11441a6ce7cbb63ad387]
class Material--><rect codeLine="41" fill="#FEFECE" filter="url(#f3bsba0dyuf9i)" height="39.9688" id="Material" style="stroke:#A80036;stroke-width:1.5;" width="53" x="243" y="427.5"/><text fill="#000000" font-family="sans-serif" font-size="12" lengthAdjust="spacing" textLength="47" x="246" y="443.6387">Material</text><line style="stroke:#A80036;stroke-width:1.5;" x1="244" x2="295" y1="451.4688" y2="451.4688"/><line style="stroke:#A80036;stroke-width:1.5;" x1="244" x2="295" y1="459.4688" y2="459.4688"/><!--MD5=[292033ffe4750640675b59034298e578]
class Display--><rect codeLine="43" fill="#FEFECE" filter="url(#f3bsba0dyuf9i)" height="39.9688" id="Display" style="stroke:#A80036;stroke-width:1.5;" width="50" x="331.5" y="427.5"/><text fill="#000000" font-family="sans-serif" font-size="12" lengthAdjust="spacing" textLength="44" x="334.5" y="443.6387">Display</text><line style="stroke:#A80036;stroke-width:1.5;" x1="332.5" x2="380.5" y1="451.4688" y2="451.4688"/><line style="stroke:#A80036;stroke-width:1.5;" x1="332.5" x2="380.5" y1="459.4688" y2="459.4688"/><!--MD5=[fd7366e9f96236d9aa60dcc04f2b83e5]
class Content--><rect codeLine="54" fill="#FEFECE" filter="url(#f3bsba0dyuf9i)" height="39.9688" id="Content" style="stroke:#A80036;stroke-width:1.5;" width="52" x="1984.5" y="427.5"/><text fill="#000000" font-family="sans-serif" font-size="12" lengthAdjust="spacing" textLength="46" x="1987.5" y="443.6387">Content</text><line style="stroke:#A80036;stroke-width:1.5;" x1="1985.5" x2="2035.5" y1="451.4688" y2="451.4688"/><line style="stroke:#A80036;stroke-width:1.5;" x1="1985.5" x2="2035.5" y1="459.4688" y2="459.4688"/><!--MD5=[166247bf81aba95c770c3b8fd8e3cb19]
class Video--><rect codeLine="56" fill="#FEFECE" filter="url(#f3bsba0dyuf9i)" height="39.9688" id="Video" style="stroke:#A80036;stroke-width:1.5;" width="41" x="1874" y="427.5"/><text fill="#000000" font-family="sans-serif" font-size="12" lengthAdjust="spacing" textLength="35" x="1877" y="443.6387">Video</text><line style="stroke:#A80036;stroke-width:1.5;" x1="1875" x2="1914" y1="451.4688" y2="451.4688"/><line style="stroke:#A80036;stroke-width:1.5;" x1="1875" x2="1914" y1="459.4688" y2="459.4688"/><!--MD5=[4f1f3706c1a355a8488e154afcaed5df]
class Location--><rect codeLine="58" fill="#FEFECE" filter="url(#f3bsba0dyuf9i)" height="39.9688" id="Location" style="stroke:#A80036;stroke-width:1.5;" width="56" x="416.5" y="427.5"/><text fill="#000000" font-family="sans-serif" font-size="12" lengthAdjust="spacing" textLength="50" x="419.5" y="443.6387">Location</text><line style="stroke:#A80036;stroke-width:1.5;" x1="417.5" x2="471.5" y1="451.4688" y2="451.4688"/><line style="stroke:#A80036;stroke-width:1.5;" x1="417.5" x2="471.5" y1="459.4688" y2="459.4688"/><!--MD5=[ac7934929da5e0be69bf27d15ca10a9c]
class VibrationLevel--><rect codeLine="63" fill="#FEFECE" filter="url(#f3bsba0dyuf9i)" height="39.9688" id="VibrationLevel" style="stroke:#A80036;stroke-width:1.5;" width="91" x="508" y="427.5"/><text fill="#000000" font-family="sans-serif" font-size="12" lengthAdjust="spacing" textLength="85" x="511" y="443.6387">VibrationLevel</text><line style="stroke:#A80036;stroke-width:1.5;" x1="509" x2="598" y1="451.4688" y2="451.4688"/><line style="stroke:#A80036;stroke-width:1.5;" x1="509" x2="598" y1="459.4688" y2="459.4688"/><!--MD5=[f9a29335b499db729be669fd1bd54958]
class Account--><rect codeLine="65" fill="#FEFECE" filter="url(#f3bsba0dyuf9i)" height="39.9688" id="Account" style="stroke:#A80036;stroke-width:1.5;" width="54" x="634.5" y="427.5"/><text fill="#000000" font-family="sans-serif" font-size="12" lengthAdjust="spacing" textLength="48" x="637.5" y="443.6387">Account</text><line style="stroke:#A80036;stroke-width:1.5;" x1="635.5" x2="687.5" y1="451.4688" y2="451.4688"/><line style="stroke:#A80036;stroke-width:1.5;" x1="635.5" x2="687.5" y1="459.4688" y2="459.4688"/><!--MD5=[837837ccbd8621d7d3ffae7a6bc88f3a]
class Sign--><rect codeLine="67" fill="#FEFECE" filter="url(#f3bsba0dyuf9i)" height="39.9688" id="Sign" style="stroke:#A80036;stroke-width:1.5;" width="32" x="723.5" y="427.5"/><text fill="#000000" font-family="sans-serif" font-size="12" lengthAdjust="spacing" textLength="26" x="726.5" y="443.6387">Sign</text><line style="stroke:#A80036;stroke-width:1.5;" x1="724.5" x2="754.5" y1="451.4688" y2="451.4688"/><line style="stroke:#A80036;stroke-width:1.5;" x1="724.5" x2="754.5" y1="459.4688" y2="459.4688"/><!--MD5=[67f5bdafb709b09f80738cdb2228938c]
class Quiz--><rect codeLine="69" fill="#FEFECE" filter="url(#f3bsba0dyuf9i)" height="39.9688" id="Quiz" style="stroke:#A80036;stroke-width:1.5;" width="33" x="1771" y="427.5"/><text fill="#000000" font-family="sans-serif" font-size="12" lengthAdjust="spacing" textLength="27" x="1774" y="443.6387">Quiz</text><line style="stroke:#A80036;stroke-width:1.5;" x1="1772" x2="1803" y1="451.4688" y2="451.4688"/><line style="stroke:#A80036;stroke-width:1.5;" x1="1772" x2="1803" y1="459.4688" y2="459.4688"/><!--MD5=[c3a3f3b5ca588e3d37ad602d97aee482]
class TemperatureData--><rect codeLine="71" fill="#FEFECE" filter="url(#f3bsba0dyuf9i)" height="39.9688" id="TemperatureData" style="stroke:#A80036;stroke-width:1.5;" width="111" x="791" y="427.5"/><text fill="#000000" font-family="sans-serif" font-size="12" lengthAdjust="spacing" textLength="105" x="794" y="443.6387">TemperatureData</text><line style="stroke:#A80036;stroke-width:1.5;" x1="792" x2="901" y1="451.4688" y2="451.4688"/><line style="stroke:#A80036;stroke-width:1.5;" x1="792" x2="901" y1="459.4688" y2="459.4688"/><!--MD5=[6e9505041a277afbc8ca71b93440885d]
class NotificationTone--><rect codeLine="73" fill="#FEFECE" filter="url(#f3bsba0dyuf9i)" height="39.9688" id="NotificationTone" style="stroke:#A80036;stroke-width:1.5;" width="102" x="937.5" y="427.5"/><text fill="#000000" font-family="sans-serif" font-size="12" lengthAdjust="spacing" textLength="96" x="940.5" y="443.6387">NotificationTone</text><line style="stroke:#A80036;stroke-width:1.5;" x1="938.5" x2="1038.5" y1="451.4688" y2="451.4688"/><line style="stroke:#A80036;stroke-width:1.5;" x1="938.5" x2="1038.5" y1="459.4688" y2="459.4688"/><!--MD5=[3c2cbbee24bda6f963becc0a442377df]
class Temperature--><rect codeLine="75" fill="#FEFECE" filter="url(#f3bsba0dyuf9i)" height="52.7734" id="Temperature" style="stroke:#A80036;stroke-width:1.5;" width="84" x="2335.5" y="150.5"/><text fill="#000000" font-family="sans-serif" font-size="12" lengthAdjust="spacing" textLength="78" x="2338.5" y="166.6387">Temperature</text><line style="stroke:#A80036;stroke-width:1.5;" x1="2336.5" x2="2418.5" y1="174.4688" y2="174.4688"/><line style="stroke:#A80036;stroke-width:1.5;" x1="2336.5" x2="2418.5" y1="182.4688" y2="182.4688"/><text fill="#000000" font-family="sans-serif" font-size="11" lengthAdjust="spacing" textLength="45" x="2341.5" y="196.6792">collect()</text><!--MD5=[67d55cb799d9640d9c582a8cc2c589ce]
class Metric--><rect codeLine="78" fill="#FEFECE" filter="url(#f3bsba0dyuf9i)" height="39.9688" id="Metric" style="stroke:#A80036;stroke-width:1.5;" width="43" x="1075" y="427.5"/><text fill="#000000" font-family="sans-serif" font-size="12" lengthAdjust="spacing" textLength="37" x="1078" y="443.6387">Metric</text><line style="stroke:#A80036;stroke-width:1.5;" x1="1076" x2="1117" y1="451.4688" y2="451.4688"/><line style="stroke:#A80036;stroke-width:1.5;" x1="1076" x2="1117" y1="459.4688" y2="459.4688"/><!--MD5=[260c1e5e41e593ef0e92b4cae546ad19]
class EmergencyContactList--><rect codeLine="80" fill="#FEFECE" filter="url(#f3bsba0dyuf9i)" height="39.9688" id="EmergencyContactList" style="stroke:#A80036;stroke-width:1.5;" width="139" x="1153" y="427.5"/><text fill="#000000" font-family="sans-serif" font-size="12" lengthAdjust="spacing" textLength="133" x="1156" y="443.6387">EmergencyContactList</text><line style="stroke:#A80036;stroke-width:1.5;" x1="1154" x2="1291" y1="451.4688" y2="451.4688"/><line style="stroke:#A80036;stroke-width:1.5;" x1="1154" x2="1291" y1="459.4688" y2="459.4688"/><!--MD5=[76b5e19c9337179d2d7ae334371d68c8]
class Notification--><rect codeLine="82" fill="#FEFECE" filter="url(#f3bsba0dyuf9i)" height="39.9688" id="Notification" style="stroke:#A80036;stroke-width:1.5;" width="72" x="1327.5" y="427.5"/><text fill="#000000" font-family="sans-serif" font-size="12" lengthAdjust="spacing" textLength="66" x="1330.5" y="443.6387">Notification</text><line style="stroke:#A80036;stroke-width:1.5;" x1="1328.5" x2="1398.5" y1="451.4688" y2="451.4688"/><line style="stroke:#A80036;stroke-width:1.5;" x1="1328.5" x2="1398.5" y1="459.4688" y2="459.4688"/><!--MD5=[32cd4433c115ed96a993c633522ecf21]
class Contents--><rect codeLine="84" fill="#FEFECE" filter="url(#f3bsba0dyuf9i)" height="39.9688" id="Contents" style="stroke:#A80036;stroke-width:1.5;" width="59" x="2072" y="427.5"/><text fill="#000000" font-family="sans-serif" font-size="12" lengthAdjust="spacing" textLength="53" x="2075" y="443.6387">Contents</text><line style="stroke:#A80036;stroke-width:1.5;" x1="2073" x2="2130" y1="451.4688" y2="451.4688"/><line style="stroke:#A80036;stroke-width:1.5;" x1="2073" x2="2130" y1="459.4688" y2="459.4688"/><!--MD5=[5756c407c546eb76320546df130f846f]
class TextMessage--><rect codeLine="86" fill="#FEFECE" filter="url(#f3bsba0dyuf9i)" height="52.7734" id="TextMessage" style="stroke:#A80036;stroke-width:1.5;" width="87" x="25" y="421"/><text fill="#000000" font-family="sans-serif" font-size="12" lengthAdjust="spacing" textLength="81" x="28" y="437.1387">TextMessage</text><line style="stroke:#A80036;stroke-width:1.5;" x1="26" x2="111" y1="444.9688" y2="444.9688"/><line style="stroke:#A80036;stroke-width:1.5;" x1="26" x2="111" y1="452.9688" y2="452.9688"/><text fill="#000000" font-family="sans-serif" font-size="11" lengthAdjust="spacing" textLength="52" x="31" y="467.1792">receive()</text><!--MD5=[cf4d6237fcae255cd2e1656cf84a30e2]
class Order--><rect codeLine="89" fill="#FEFECE" filter="url(#f3bsba0dyuf9i)" height="39.9688" id="Order" style="stroke:#A80036;stroke-width:1.5;" width="42" x="1434.5" y="427.5"/><text fill="#000000" font-family="sans-serif" font-size="12" lengthAdjust="spacing" textLength="36" x="1437.5" y="443.6387">Order</text><line style="stroke:#A80036;stroke-width:1.5;" x1="1435.5" x2="1475.5" y1="451.4688" y2="451.4688"/><line style="stroke:#A80036;stroke-width:1.5;" x1="1435.5" x2="1475.5" y1="459.4688" y2="459.4688"/><!--MD5=[a3638c1e5b65d287ecad7f06f5c0f212]
class Role--><rect codeLine="91" fill="#FEFECE" filter="url(#f3bsba0dyuf9i)" height="39.9688" id="Role" style="stroke:#A80036;stroke-width:1.5;" width="32" x="2166.5" y="427.5"/><text fill="#000000" font-family="sans-serif" font-size="12" lengthAdjust="spacing" textLength="26" x="2169.5" y="443.6387">Role</text><line style="stroke:#A80036;stroke-width:1.5;" x1="2167.5" x2="2197.5" y1="451.4688" y2="451.4688"/><line style="stroke:#A80036;stroke-width:1.5;" x1="2167.5" x2="2197.5" y1="459.4688" y2="459.4688"/><!--MD5=[f8dbe852789f6b924c8219364c6d35e7]
class Weather--><rect codeLine="93" fill="#FEFECE" filter="url(#f3bsba0dyuf9i)" height="39.9688" id="Weather" style="stroke:#A80036;stroke-width:1.5;" width="57" x="1512" y="427.5"/><text fill="#000000" font-family="sans-serif" font-size="12" lengthAdjust="spacing" textLength="51" x="1515" y="443.6387">Weather</text><line style="stroke:#A80036;stroke-width:1.5;" x1="1513" x2="1568" y1="451.4688" y2="451.4688"/><line style="stroke:#A80036;stroke-width:1.5;" x1="1513" x2="1568" y1="459.4688" y2="459.4688"/><!--MD5=[30fd7b95ab383a5e7c83ea23d4ea0fbf]
class Information--><rect codeLine="95" fill="#FEFECE" filter="url(#f3bsba0dyuf9i)" height="39.9688" id="Information" style="stroke:#A80036;stroke-width:1.5;" width="73" x="1604" y="427.5"/><text fill="#000000" font-family="sans-serif" font-size="12" lengthAdjust="spacing" textLength="67" x="1607" y="443.6387">Information</text><line style="stroke:#A80036;stroke-width:1.5;" x1="1605" x2="1676" y1="451.4688" y2="451.4688"/><line style="stroke:#A80036;stroke-width:1.5;" x1="1605" x2="1676" y1="459.4688" y2="459.4688"/><!--MD5=[0c3b512350d460f5340b50da7a0b4194]
class Checklist--><rect codeLine="97" fill="#FEFECE" filter="url(#f3bsba0dyuf9i)" height="39.9688" id="Checklist" style="stroke:#A80036;stroke-width:1.5;" width="60" x="147.5" y="427.5"/><text fill="#000000" font-family="sans-serif" font-size="12" lengthAdjust="spacing" textLength="54" x="150.5" y="443.6387">Checklist</text><line style="stroke:#A80036;stroke-width:1.5;" x1="148.5" x2="206.5" y1="451.4688" y2="451.4688"/><line style="stroke:#A80036;stroke-width:1.5;" x1="148.5" x2="206.5" y1="459.4688" y2="459.4688"/><!--MD5=[ffbfde574bb7ae168ad208d635d3b889]
link Admin to Content--><path codeLine="99" d="M2014.3,242.312 C2013.23,300.07 2011.71,381.7888 2010.95,422.0869 " fill="none" id="Admin-to-Content" style="stroke:#A80036;stroke-width:1.0;"/><polygon fill="#A80036" points="2010.86,427.2584,2015.0269,418.3345,2010.9531,422.2593,2007.0283,418.1855,2010.86,427.2584" style="stroke:#A80036;stroke-width:1.0;"/><text fill="#000000" font-family="sans-serif" font-size="13" lengthAdjust="spacing" textLength="41" x="2013.5" y="387.0669">create</text><!--MD5=[d18a4d054d286cfcd5e9dc39bb2838cd]
link User to Video--><path codeLine="100" d="M1023.62,187.536 C1138.67,218.929 1514.48,322.669 1821.5,421 C1837.33,426.0691 1854.92,432.1987 1868.87,437.1778 " fill="none" id="User-to-Video" style="stroke:#A80036;stroke-width:1.0;"/><polygon fill="#A80036" points="1873.83,438.9561,1866.7055,432.1559,1869.1227,437.2703,1864.0083,439.6875,1873.83,438.9561" style="stroke:#A80036;stroke-width:1.0;"/><text fill="#000000" font-family="sans-serif" font-size="13" lengthAdjust="spacing" textLength="39" x="1710.5" y="387.0669">watch</text><!--MD5=[59f6618a3dc158c28d1239d81943c795]
link Admin to Video--><path codeLine="101" d="M1986.52,242.312 C1960.38,300.306 1923.36,382.4563 1905.28,422.5782 " fill="none" id="Admin-to-Video" style="stroke:#A80036;stroke-width:1.0;"/><polygon fill="#A80036" points="1903.17,427.2584,1910.5154,420.6975,1905.2249,422.7002,1903.2223,417.4097,1903.17,427.2584" style="stroke:#A80036;stroke-width:1.0;"/><text fill="#000000" font-family="sans-serif" font-size="13" lengthAdjust="spacing" textLength="43" x="1928.5" y="387.0669">upload</text><!--MD5=[f8e62fce92094be4a82b4c889b78a008]
reverse link User to Location--><path codeLine="102" d="M941.696,199.838 C852.972,241.455 654.508,335.601 490.5,421 C484.669,424.0363 478.479,427.3818 472.593,430.6224 " fill="none" id="User-backto-Location" style="stroke:#A80036;stroke-width:1.0;"/><polygon fill="#FFFFFF" points="953.472,194.32,946.3417,193.2437,942.6057,199.4116,949.7361,200.4879,953.472,194.32" style="stroke:#A80036;stroke-width:1.0;"/><text fill="#000000" font-family="sans-serif" font-size="13" lengthAdjust="spacing" textLength="36" x="572.5" y="387.0669">share</text><!--MD5=[949878349d057c0f9b0bc699490e2385]
link User to Display--><path codeLine="103" d="M953.489,192.071 C874.143,224.01 674.613,304.603 508.5,374 C459.444,394.4941 445.786,396.6988 398.5,421 C394.488,423.0617 390.342,425.3596 386.288,427.7081 " fill="none" id="User-to-Display" style="stroke:#A80036;stroke-width:1.0;"/><polygon fill="#A80036" points="381.936,430.2676,391.7217,429.1539,386.2461,427.7332,387.6667,422.2577,381.936,430.2676" style="stroke:#A80036;stroke-width:1.0;"/><text fill="#000000" font-family="sans-serif" font-size="13" lengthAdjust="spacing" textLength="40" x="509.5" y="387.0669">toggle</text><!--MD5=[2e2e530a658308b38e0151c4d25adf6b]
link User to Notification--><path codeLine="104" d="M1023.78,203.26 C1096.75,255.506 1263.21,374.6941 1332.42,424.2493 " fill="none" id="User-to-Notification" style="stroke:#A80036;stroke-width:1.0;"/><polygon fill="#A80036" points="1336.84,427.4113,1331.836,418.9284,1332.7695,424.5077,1327.1902,425.4412,1336.84,427.4113" style="stroke:#A80036;stroke-width:1.0;"/><text fill="#000000" font-family="sans-serif" font-size="13" lengthAdjust="spacing" textLength="47" x="1283.5" y="387.0669">receive</text><!--MD5=[3a528f818948185628c866cc79abcb85]
link User to VibrationLevel--><path codeLine="105" d="M953.257,198.779 C893.483,234.142 768.573,308.561 664.5,374 C638.012,390.6552 608.356,410.065 586.366,424.6078 " fill="none" id="User-to-VibrationLevel" style="stroke:#A80036;stroke-width:1.0;"/><polygon fill="#A80036" points="582.073,427.4492,591.7856,425.8166,586.2422,424.6892,587.3697,419.1459,582.073,427.4492" style="stroke:#A80036;stroke-width:1.0;"/><text fill="#000000" font-family="sans-serif" font-size="13" lengthAdjust="spacing" textLength="47" x="665.5" y="387.0669">change</text><!--MD5=[63575b7639e7bb215994c7c107a504cd]
link Admin to Contents--><path codeLine="106" d="M2036.1,242.312 C2054.6,300.07 2080.77,381.7888 2093.68,422.0869 " fill="none" id="Admin-to-Contents" style="stroke:#A80036;stroke-width:1.0;"/><polygon fill="#A80036" points="2095.34,427.2584,2096.4011,417.4669,2093.8134,422.4972,2088.7831,419.9094,2095.34,427.2584" style="stroke:#A80036;stroke-width:1.0;"/><text fill="#000000" font-family="sans-serif" font-size="13" lengthAdjust="spacing" textLength="40" x="2084.5" y="387.0669">delete</text><!--MD5=[750465eb2eae31e774ff8bb568da9181]
link Temperature to Farmer--><path codeLine="107" d="M2373.9,203.81 C2368.04,244.115 2355.34,324.297 2338.5,391 C2335.86,401.4542 2332.3,412.8101 2329.05,422.5104 " fill="none" id="Temperature-to-Farmer" style="stroke:#A80036;stroke-width:1.0;"/><polygon fill="#A80036" points="2327.38,427.4186,2334.0591,420.1806,2328.9862,422.6836,2326.4831,417.6107,2327.38,427.4186" style="stroke:#A80036;stroke-width:1.0;"/><text fill="#000000" font-family="sans-serif" font-size="13" lengthAdjust="spacing" textLength="41" x="2342.5" y="387.0669">collect</text><!--MD5=[c8ecc96e049822d047e1e20cd7f62a56]
reverse link User to Account--><path codeLine="108" d="M942.686,211.949 C891.786,250.116 807.658,314.544 738.5,374 C718.311,391.3564 696.29,412.3104 680.989,427.2184 " fill="none" id="User-backto-Account" style="stroke:#A80036;stroke-width:1.0;"/><polygon fill="#FFFFFF" points="953.335,203.984,946.1345,204.3743,943.7254,211.1711,950.9259,210.7808,953.335,203.984" style="stroke:#A80036;stroke-width:1.0;"/><text fill="#000000" font-family="sans-serif" font-size="13" lengthAdjust="spacing" textLength="45" x="739.5" y="387.0669">disable</text><!--MD5=[5b2a2bdb39cc116e4a78ea074bb38160]
link User to Order--><path codeLine="109" d="M1023.63,197.029 C1087.11,231.548 1224.99,307.116 1339.5,374 C1374.12,394.2219 1382.61,399.5823 1416.5,421 C1420.81,423.7225 1425.36,426.6494 1429.77,429.5151 " fill="none" id="User-to-Order" style="stroke:#A80036;stroke-width:1.0;"/><polygon fill="#A80036" points="1434.12,432.3507,1428.7619,424.0869,1429.9304,429.6217,1424.3955,430.7902,1434.12,432.3507" style="stroke:#A80036;stroke-width:1.0;"/><text fill="#000000" font-family="sans-serif" font-size="13" lengthAdjust="spacing" textLength="24" x="1369.5" y="387.0669">feel</text><!--MD5=[c3aa7a2d65cb8c844ab23221bc276f5c]
link HealthData to Farmer--><path codeLine="110" d="M2264.84,203.538 C2266.01,244.151 2270.98,325.555 2291.5,391 C2294.94,401.9653 2300.48,413.3375 2305.8,422.9112 " fill="none" id="HealthData-to-Farmer" style="stroke:#A80036;stroke-width:1.0;"/><polygon fill="#A80036" points="2308.39,427.4568,2307.4136,417.6565,2305.9164,423.1116,2300.4613,421.6143,2308.39,427.4568" style="stroke:#A80036;stroke-width:1.0;"/><text fill="#000000" font-family="sans-serif" font-size="13" lengthAdjust="spacing" textLength="41" x="2292.5" y="387.0669">collect</text><!--MD5=[9b9d7c946b7ba98c15f6bc532b353531]
link User to Sign--><path codeLine="111" d="M953.352,215.9 C900.26,273.151 801.347,379.8101 759.268,425.1843 " fill="none" id="User-to-Sign" style="stroke:#A80036;stroke-width:1.0;"/><polygon fill="#A80036" points="755.616,429.1221,764.669,425.2436,759.0162,425.4562,758.8036,419.8033,755.616,429.1221" style="stroke:#A80036;stroke-width:1.0;"/><text fill="#000000" font-family="sans-serif" font-size="13" lengthAdjust="spacing" textLength="48" x="807.5" y="387.0669">identify</text><!--MD5=[74bee6345d88bc124496cf141542b1c7]
link Admin to Role--><path codeLine="112" d="M2054.65,240.951 C2090.78,299.04 2142.52,382.2183 2167.66,422.6344 " fill="none" id="Admin-to-Role" style="stroke:#A80036;stroke-width:1.0;"/><polygon fill="#A80036" points="2170.59,427.3466,2169.2303,417.592,2167.948,423.1016,2162.4384,421.8193,2170.59,427.3466" style="stroke:#A80036;stroke-width:1.0;"/><text fill="#000000" font-family="sans-serif" font-size="13" lengthAdjust="spacing" textLength="40" x="2147.5" y="387.0669">define</text><!--MD5=[552385275cc74c32a9251f1f94479a39]
link User to Quiz--><path codeLine="113" d="M1023.74,189.102 C1116.39,218.388 1374.41,300.534 1587.5,374 C1652.73,396.4881 1729.26,424.7628 1765.86,438.4034 " fill="none" id="User-to-Quiz" style="stroke:#A80036;stroke-width:1.0;"/><polygon fill="#A80036" points="1770.97,440.3074,1763.9479,433.4015,1766.2885,438.5515,1761.1385,440.892,1770.97,440.3074" style="stroke:#A80036;stroke-width:1.0;"/><text fill="#000000" font-family="sans-serif" font-size="13" lengthAdjust="spacing" textLength="16" x="1632.5" y="387.0669">do</text><!--MD5=[4cdcf10824a5a72470989197280b3f5e]
link User to Material--><path codeLine="114" d="M953.249,188.44 C862.41,215.676 613.387,292.452 412.5,374 C367.37,392.32 356.607,398.3251 313.5,421 C309.368,423.1733 305.066,425.5367 300.841,427.9189 " fill="none" id="User-to-Material" style="stroke:#A80036;stroke-width:1.0;"/><polygon fill="#A80036" points="296.297,430.5031,306.0976,429.5289,300.6428,428.0304,302.1413,422.5757,296.297,430.5031" style="stroke:#A80036;stroke-width:1.0;"/><text fill="#000000" font-family="sans-serif" font-size="13" lengthAdjust="spacing" textLength="44" x="413.5" y="387.0669">access</text><!--MD5=[e8837e81a1184612c254236c46ab485d]
link User to Weather--><path codeLine="115" d="M1023.59,194.115 C1095.2,227.107 1263.16,305.056 1402.5,374 C1443.3,394.1865 1453.27,399.7005 1493.5,421 C1497.93,423.3456 1502.58,425.8363 1507.17,428.3065 " fill="none" id="User-to-Weather" style="stroke:#A80036;stroke-width:1.0;"/><polygon fill="#A80036" points="1511.72,430.7637,1505.6955,422.9723,1507.3187,428.3913,1501.8997,430.0145,1511.72,430.7637" style="stroke:#A80036;stroke-width:1.0;"/><text fill="#000000" font-family="sans-serif" font-size="13" lengthAdjust="spacing" textLength="47" x="1437.5" y="387.0669">receive</text><!--MD5=[44a4cd0d3a8972ac4bf5ff6c7c7a09c9]
link User to TemperatureData--><path codeLine="116" d="M953.399,244.371 C922.777,302.271 880.066,383.0314 859.111,422.6539 " fill="none" id="User-to-TemperatureData" style="stroke:#A80036;stroke-width:1.0;"/><polygon fill="#A80036" points="856.666,427.2777,864.4095,421.1918,859.0035,422.8578,857.3376,417.4518,856.666,427.2777" style="stroke:#A80036;stroke-width:1.0;"/><text fill="#000000" font-family="sans-serif" font-size="13" lengthAdjust="spacing" textLength="30" x="886.5" y="387.0669">view</text><!--MD5=[9d661380b54d9bff4ee137bc0bb1b8a2]
link User to Information--><path codeLine="117" d="M1023.52,190.387 C1106.24,219.904 1319.81,297.638 1493.5,374 C1529.85,389.9802 1570.24,410.0791 1599.48,425.0593 " fill="none" id="User-to-Information" style="stroke:#A80036;stroke-width:1.0;"/><polygon fill="#A80036" points="1604.07,427.4181,1597.8934,419.7467,1599.6228,425.1327,1594.2368,426.8622,1604.07,427.4181" style="stroke:#A80036;stroke-width:1.0;"/><text fill="#000000" font-family="sans-serif" font-size="13" lengthAdjust="spacing" textLength="47" x="1531.5" y="387.0669">receive</text><!--MD5=[1add203e6c1b91e831b9ab0773d963e7]
link User to NotificationTone--><path codeLine="118" d="M988.5,344.226 C988.5,374.8213 988.5,403.0642 988.5,422.0829 " fill="none" id="User-to-NotificationTone" style="stroke:#A80036;stroke-width:1.0;"/><polygon fill="#A80036" points="988.5,427.1969,992.5,418.1969,988.5,422.1969,984.5,418.1969,988.5,427.1969" style="stroke:#A80036;stroke-width:1.0;"/><text fill="#000000" font-family="sans-serif" font-size="13" lengthAdjust="spacing" textLength="47" x="989.5" y="387.0669">change</text><!--MD5=[ad8b54e37159f501f86126b68a5588a9]
link Admin to Quiz--><path codeLine="119" d="M1976.31,224.157 C1927.12,282.084 1844.66,379.1877 1807.15,423.3628 " fill="none" id="Admin-to-Quiz" style="stroke:#A80036;stroke-width:1.0;"/><polygon fill="#A80036" points="1803.88,427.2154,1812.7529,422.9408,1807.1149,423.4029,1806.6529,417.7649,1803.88,427.2154" style="stroke:#A80036;stroke-width:1.0;"/><text fill="#000000" font-family="sans-serif" font-size="13" lengthAdjust="spacing" textLength="41" x="1850.5" y="387.0669">create</text><!--MD5=[6b4d7518e221b0e4117d7b9d8c1511bb]
link User to Checklist--><path codeLine="120" d="M953.23,186.269 C852.956,210.227 558.313,283.76 323.5,374 C284.132,389.1294 241.122,411.2132 212.052,427.0274 " fill="none" id="User-to-Checklist" style="stroke:#A80036;stroke-width:1.0;"/><polygon fill="#A80036" points="207.508,429.5096,217.3239,428.705,211.8959,427.1124,213.4885,421.6844,207.508,429.5096" style="stroke:#A80036;stroke-width:1.0;"/><text fill="#000000" font-family="sans-serif" font-size="13" lengthAdjust="spacing" textLength="41" x="324.5" y="387.0669">create</text><!--MD5=[2fafb2fd3ca0e3c4a3a7201ae21297a1]
reverse link User to Metric--><path codeLine="121" d="M1028.53,277.531 C1050.73,332.705 1076.3,396.2793 1088.8,427.3693 " fill="none" id="User-backto-Metric" style="stroke:#A80036;stroke-width:1.0;"/><polygon fill="#FFFFFF" points="1023.56,265.174,1022.086,272.2328,1028.0349,276.3084,1029.5089,269.2496,1023.56,265.174" style="stroke:#A80036;stroke-width:1.0;"/><text fill="#000000" font-family="sans-serif" font-size="13" lengthAdjust="spacing" textLength="41" x="1074.5" y="387.0669">create</text><!--MD5=[94d8ec925dc05aae8ddd8357ad83aa96]
link User to EmergencyContactList--><path codeLine="122" d="M1023.53,218.197 C1073.16,275.142 1162.33,377.4587 1202.23,423.2448 " fill="none" id="User-to-EmergencyContactList" style="stroke:#A80036;stroke-width:1.0;"/><polygon fill="#A80036" points="1205.71,427.2331,1202.8148,417.8194,1202.4259,423.4629,1196.7824,423.074,1205.71,427.2331" style="stroke:#A80036;stroke-width:1.0;"/><text fill="#000000" font-family="sans-serif" font-size="13" lengthAdjust="spacing" textLength="41" x="1173.5" y="387.0669">create</text><!--MD5=[7fe06c019d1526ee883d9aa080eb8dd4]
link FarmManager to Tommorow--><!--MD5=[466d1141af7198801862983eb4999427]
link FarmManager to TextMessage--><!--MD5=[1cd9b70d328b6d176ce9fa75914adc86]
@startuml
hide circle
class User<actor> {
	location
	metric
	schedule
	account
}
class Admin<actor> {
}
class FarmManager<actor> {
}
class Tommorow {
	weather
}
class HealthData {
	collect()
}
class Farmer {
}
class User {
	watch()
	identify()
	wear()
	access()
	know()
	feel()
	receive()
	opt()
	toggle()
	modify()
	do()
	change()
	disable()
	create()
	use()
	share()
	view()
	report()
	have()
}
class Material {
}
class Display {
}
class Admin {
	delete()
	create()
	access()
	see()
	define()
	upload()
	add()
}
class Content {
}
class Video {
}
class Location {
}
class FarmManager {
	search()
}
class VibrationLevel {
}
class Account {
}
class Sign {
}
class Quiz {
}
class TemperatureData {
}
class NotificationTone {
}
class Temperature {
	collect()
}
class Metric {
}
class EmergencyContactList {
}
class Notification {
}
class Contents {
}
class TextMessage {
	receive()
}
class Order {
}
class Role {
}
class Weather {
}
class Information {
}
class Checklist {
}
Admin - -> Content : create
User - -> Video : watch
Admin - -> Video : upload
User o- - Location : share
User - -> Display : toggle
User - -> Notification : receive
User - -> VibrationLevel : change
Admin - -> Contents : delete
Temperature - -> Farmer : collect
User o- - Account : disable
User - -> Order : feel
HealthData - -> Farmer : collect
User - -> Sign : identify
Admin - -> Role : define
User - -> Quiz : do
User - -> Material : access
User - -> Weather : receive
User - -> TemperatureData : view
User - -> Information : receive
User - -> NotificationTone : change
Admin - -> Quiz : create
User - -> Checklist : create
User o- - Metric : create
User - -> EmergencyContactList : create
@enduml

PlantUML version 1.2021.9beta2(Unknown compile time)
(GPL source distribution)
Java Runtime: Java(TM) SE Runtime Environment
JVM: Java HotSpot(TM) 64-Bit Server VM
Default Encoding: UTF-8
Language: en
Country: US
--></g></svg>