<?xml version="1.0" encoding="UTF-8" standalone="no"?><svg xmlns="http://www.w3.org/2000/svg" xmlns:xlink="http://www.w3.org/1999/xlink" contentScriptType="application/ecmascript" contentStyleType="text/css" height="760px" preserveAspectRatio="none" style="width:1367px;height:760px;background:#FFFFFF;" version="1.1" viewBox="0 0 1367 760" width="1367px" zoomAndPan="magnify"><defs><filter height="300%" id="f1flcghp75k23h" width="300%" x="-1" y="-1"><feGaussianBlur result="blurOut" stdDeviation="2.0"/><feColorMatrix in="blurOut" result="blurOut2" type="matrix" values="0 0 0 0 0 0 0 0 0 0 0 0 0 0 0 0 0 0 .4 0"/><feOffset dx="4.0" dy="4.0" in="blurOut2" result="blurOut3"/><feBlend in="SourceGraphic" in2="blurOut3" mode="normal"/></filter></defs><g><!--MD5=[3fd616f346a44cd59a91eb10b19e157c]
class User--><rect codeLine="15" fill="#FEFECE" filter="url(#f1flcghp75k23h)" height="283.2578" id="User" style="stroke:#A80036;stroke-width:1.5;" width="84" x="771" y="10"/><text fill="#000000" font-family="sans-serif" font-size="12" lengthAdjust="spacing" textLength="29" x="781" y="26.1387">User</text><rect fill="#FFFFFF" height="15.9688" style="stroke:#000000;stroke-width:1.0;stroke-dasharray:2.0,2.0;" width="33" x="825" y="7"/><text fill="#000000" font-family="sans-serif" font-size="12" font-style="italic" lengthAdjust="spacing" textLength="31" x="826" y="19.1387">actor</text><line style="stroke:#A80036;stroke-width:1.5;" x1="772" x2="854" y1="33.9688" y2="33.9688"/><text fill="#000000" font-family="sans-serif" font-size="11" lengthAdjust="spacing" textLength="44" x="777" y="48.1792">location</text><text fill="#000000" font-family="sans-serif" font-size="11" lengthAdjust="spacing" textLength="72" x="777" y="60.9839">appointment</text><text fill="#000000" font-family="sans-serif" font-size="11" lengthAdjust="spacing" textLength="64" x="777" y="73.7886">information</text><line style="stroke:#A80036;stroke-width:1.5;" x1="772" x2="854" y1="80.3828" y2="80.3828"/><text fill="#000000" font-family="sans-serif" font-size="11" lengthAdjust="spacing" textLength="39" x="777" y="94.5933">apply()</text><text fill="#000000" font-family="sans-serif" font-size="11" lengthAdjust="spacing" textLength="45" x="777" y="107.3979">cancel()</text><text fill="#000000" font-family="sans-serif" font-size="11" lengthAdjust="spacing" textLength="37" x="777" y="120.2026">know()</text><text fill="#000000" font-family="sans-serif" font-size="11" lengthAdjust="spacing" textLength="27" x="777" y="133.0073">get()</text><text fill="#000000" font-family="sans-serif" font-size="11" lengthAdjust="spacing" textLength="44" x="777" y="145.812">inform()</text><text fill="#000000" font-family="sans-serif" font-size="11" lengthAdjust="spacing" textLength="40" x="777" y="158.6167">make()</text><text fill="#000000" font-family="sans-serif" font-size="11" lengthAdjust="spacing" textLength="29" x="777" y="171.4214">use()</text><text fill="#000000" font-family="sans-serif" font-size="11" lengthAdjust="spacing" textLength="37" x="777" y="184.2261">have()</text><text fill="#000000" font-family="sans-serif" font-size="11" lengthAdjust="spacing" textLength="47" x="777" y="197.0308">modify()</text><text fill="#000000" font-family="sans-serif" font-size="11" lengthAdjust="spacing" textLength="47" x="777" y="209.8354">decide()</text><text fill="#000000" font-family="sans-serif" font-size="11" lengthAdjust="spacing" textLength="30" x="777" y="222.6401">see()</text><text fill="#000000" font-family="sans-serif" font-size="11" lengthAdjust="spacing" textLength="35" x="777" y="235.4448">want()</text><text fill="#000000" font-family="sans-serif" font-size="11" lengthAdjust="spacing" textLength="49" x="777" y="248.2495">contact()</text><text fill="#000000" font-family="sans-serif" font-size="11" lengthAdjust="spacing" textLength="31" x="777" y="261.0542">visit()</text><text fill="#000000" font-family="sans-serif" font-size="11" lengthAdjust="spacing" textLength="35" x="777" y="273.8589">book()</text><text fill="#000000" font-family="sans-serif" font-size="11" lengthAdjust="spacing" textLength="48" x="777" y="286.6636">update()</text><!--MD5=[f22450cf9d5ee5a335b29715856a10cc]
class Shelter--><rect codeLine="37" fill="#FEFECE" filter="url(#f1flcghp75k23h)" height="116.7969" id="Shelter" style="stroke:#A80036;stroke-width:1.5;" width="84" x="91" y="370"/><text fill="#000000" font-family="sans-serif" font-size="12" lengthAdjust="spacing" textLength="43" x="94" y="386.1387">Shelter</text><rect fill="#FFFFFF" height="15.9688" style="stroke:#000000;stroke-width:1.0;stroke-dasharray:2.0,2.0;" width="33" x="145" y="367"/><text fill="#000000" font-family="sans-serif" font-size="12" font-style="italic" lengthAdjust="spacing" textLength="31" x="146" y="379.1387">actor</text><line style="stroke:#A80036;stroke-width:1.5;" x1="92" x2="174" y1="393.9688" y2="393.9688"/><text fill="#000000" font-family="sans-serif" font-size="11" lengthAdjust="spacing" textLength="64" x="97" y="408.1792">information</text><line style="stroke:#A80036;stroke-width:1.5;" x1="92" x2="174" y1="414.7734" y2="414.7734"/><text fill="#000000" font-family="sans-serif" font-size="11" lengthAdjust="spacing" textLength="36" x="97" y="428.9839">input()</text><text fill="#000000" font-family="sans-serif" font-size="11" lengthAdjust="spacing" textLength="46" x="97" y="441.7886">control()</text><text fill="#000000" font-family="sans-serif" font-size="11" lengthAdjust="spacing" textLength="27" x="97" y="454.5933">get()</text><text fill="#000000" font-family="sans-serif" font-size="11" lengthAdjust="spacing" textLength="37" x="97" y="467.3979">know()</text><text fill="#000000" font-family="sans-serif" font-size="11" lengthAdjust="spacing" textLength="35" x="97" y="480.2026">want()</text><!--MD5=[9cfa872a99fa8e70a8c023fe905238fd]
class Pet--><rect codeLine="10" fill="#FEFECE" filter="url(#f1flcghp75k23h)" height="78.3828" id="Pet" style="stroke:#A80036;stroke-width:1.5;" width="76" x="536" y="389.5"/><text fill="#000000" font-family="sans-serif" font-size="12" lengthAdjust="spacing" textLength="18" x="565" y="405.6387">Pet</text><line style="stroke:#A80036;stroke-width:1.5;" x1="537" x2="611" y1="413.4688" y2="413.4688"/><text fill="#000000" font-family="sans-serif" font-size="11" lengthAdjust="spacing" textLength="39" x="542" y="427.6792">picture</text><text fill="#000000" font-family="sans-serif" font-size="11" lengthAdjust="spacing" textLength="64" x="542" y="440.4839">information</text><line style="stroke:#A80036;stroke-width:1.5;" x1="537" x2="611" y1="447.0781" y2="447.0781"/><text fill="#000000" font-family="sans-serif" font-size="11" lengthAdjust="spacing" textLength="24" x="542" y="461.2886">list()</text><!--MD5=[8e27f3323bcc26430cc0e86656f150b6]
class SchedulingFunction--><rect codeLine="33" fill="#FEFECE" filter="url(#f1flcghp75k23h)" height="39.9688" id="SchedulingFunction" style="stroke:#A80036;stroke-width:1.5;" width="122" x="647" y="408.5"/><text fill="#000000" font-family="sans-serif" font-size="12" lengthAdjust="spacing" textLength="116" x="650" y="424.6387">SchedulingFunction</text><line style="stroke:#A80036;stroke-width:1.5;" x1="648" x2="768" y1="432.4688" y2="432.4688"/><line style="stroke:#A80036;stroke-width:1.5;" x1="648" x2="768" y1="440.4688" y2="440.4688"/><!--MD5=[df76e760f2062188d44f98c21a88999b]
class UI--><rect codeLine="35" fill="#FEFECE" filter="url(#f1flcghp75k23h)" height="39.9688" id="UI" style="stroke:#A80036;stroke-width:1.5;" width="18" x="804" y="408.5"/><text fill="#000000" font-family="sans-serif" font-size="12" lengthAdjust="spacing" textLength="12" x="807" y="424.6387">UI</text><line style="stroke:#A80036;stroke-width:1.5;" x1="805" x2="821" y1="432.4688" y2="432.4688"/><line style="stroke:#A80036;stroke-width:1.5;" x1="805" x2="821" y1="440.4688" y2="440.4688"/><!--MD5=[76b5e19c9337179d2d7ae334371d68c8]
class Notification--><rect codeLine="44" fill="#FEFECE" filter="url(#f1flcghp75k23h)" height="39.9688" id="Notification" style="stroke:#A80036;stroke-width:1.5;" width="72" x="7" y="577"/><text fill="#000000" font-family="sans-serif" font-size="12" lengthAdjust="spacing" textLength="66" x="10" y="593.1387">Notification</text><line style="stroke:#A80036;stroke-width:1.5;" x1="8" x2="78" y1="600.9688" y2="600.9688"/><line style="stroke:#A80036;stroke-width:1.5;" x1="8" x2="78" y1="608.9688" y2="608.9688"/><!--MD5=[30fd7b95ab383a5e7c83ea23d4ea0fbf]
class Information--><rect codeLine="46" fill="#FEFECE" filter="url(#f1flcghp75k23h)" height="65.5781" id="Information" style="stroke:#A80036;stroke-width:1.5;" width="73" x="270.5" y="564"/><text fill="#000000" font-family="sans-serif" font-size="12" lengthAdjust="spacing" textLength="67" x="273.5" y="580.1387">Information</text><line style="stroke:#A80036;stroke-width:1.5;" x1="271.5" x2="342.5" y1="587.9688" y2="587.9688"/><line style="stroke:#A80036;stroke-width:1.5;" x1="271.5" x2="342.5" y1="595.9688" y2="595.9688"/><text fill="#000000" font-family="sans-serif" font-size="11" lengthAdjust="spacing" textLength="52" x="276.5" y="610.1792">stay_up()</text><text fill="#000000" font-family="sans-serif" font-size="11" lengthAdjust="spacing" textLength="37" x="276.5" y="622.9839">keep()</text><!--MD5=[2741598bdf59a7d7e0d5c97658fd3022]
class Result--><rect codeLine="50" fill="#FEFECE" filter="url(#f1flcghp75k23h)" height="39.9688" id="Result" style="stroke:#A80036;stroke-width:1.5;" width="42" x="857" y="408.5"/><text fill="#000000" font-family="sans-serif" font-size="12" lengthAdjust="spacing" textLength="36" x="860" y="424.6387">Result</text><line style="stroke:#A80036;stroke-width:1.5;" x1="858" x2="898" y1="432.4688" y2="432.4688"/><line style="stroke:#A80036;stroke-width:1.5;" x1="858" x2="898" y1="440.4688" y2="440.4688"/><!--MD5=[50f39069cd7d30b8ca10557b7ad7ab8f]
class Reminder--><rect codeLine="52" fill="#FEFECE" filter="url(#f1flcghp75k23h)" height="39.9688" id="Reminder" style="stroke:#A80036;stroke-width:1.5;" width="63" x="934.5" y="408.5"/><text fill="#000000" font-family="sans-serif" font-size="12" lengthAdjust="spacing" textLength="57" x="937.5" y="424.6387">Reminder</text><line style="stroke:#A80036;stroke-width:1.5;" x1="935.5" x2="996.5" y1="432.4688" y2="432.4688"/><line style="stroke:#A80036;stroke-width:1.5;" x1="935.5" x2="996.5" y1="440.4688" y2="440.4688"/><!--MD5=[d2543b6030cba58518e60e2e2f7be175]
class Agency--><rect codeLine="54" fill="#FEFECE" filter="url(#f1flcghp75k23h)" height="39.9688" id="Agency" style="stroke:#A80036;stroke-width:1.5;" width="51" x="1032.5" y="408.5"/><text fill="#000000" font-family="sans-serif" font-size="12" lengthAdjust="spacing" textLength="45" x="1035.5" y="424.6387">Agency</text><line style="stroke:#A80036;stroke-width:1.5;" x1="1033.5" x2="1082.5" y1="432.4688" y2="432.4688"/><line style="stroke:#A80036;stroke-width:1.5;" x1="1033.5" x2="1082.5" y1="440.4688" y2="440.4688"/><!--MD5=[bffffc91ea6363a28ee965dd72c463ae]
class Ability--><rect codeLine="56" fill="#FEFECE" filter="url(#f1flcghp75k23h)" height="52.7734" id="Ability" style="stroke:#A80036;stroke-width:1.5;" width="55" x="114.5" y="570.5"/><text fill="#000000" font-family="sans-serif" font-size="12" lengthAdjust="spacing" textLength="36" x="124" y="586.6387">Ability</text><line style="stroke:#A80036;stroke-width:1.5;" x1="115.5" x2="168.5" y1="594.4688" y2="594.4688"/><line style="stroke:#A80036;stroke-width:1.5;" x1="115.5" x2="168.5" y1="602.4688" y2="602.4688"/><text fill="#000000" font-family="sans-serif" font-size="11" lengthAdjust="spacing" textLength="43" x="120.5" y="616.6792">select()</text><!--MD5=[c508b5b6bbe276ff5e2700b6641f837f]
class Appointment--><rect codeLine="59" fill="#FEFECE" filter="url(#f1flcghp75k23h)" height="39.9688" id="Appointment" style="stroke:#A80036;stroke-width:1.5;" width="82" x="1119" y="408.5"/><text fill="#000000" font-family="sans-serif" font-size="12" lengthAdjust="spacing" textLength="76" x="1122" y="424.6387">Appointment</text><line style="stroke:#A80036;stroke-width:1.5;" x1="1120" x2="1200" y1="432.4688" y2="432.4688"/><line style="stroke:#A80036;stroke-width:1.5;" x1="1120" x2="1200" y1="440.4688" y2="440.4688"/><!--MD5=[7fd4401f5c5cb0e3d029c879cad30c04]
class Animal--><rect codeLine="61" fill="#FEFECE" filter="url(#f1flcghp75k23h)" height="39.9688" id="Animal" style="stroke:#A80036;stroke-width:1.5;" width="45" x="119.5" y="707"/><text fill="#000000" font-family="sans-serif" font-size="12" lengthAdjust="spacing" textLength="39" x="122.5" y="723.1387">Animal</text><line style="stroke:#A80036;stroke-width:1.5;" x1="120.5" x2="163.5" y1="730.9688" y2="730.9688"/><line style="stroke:#A80036;stroke-width:1.5;" x1="120.5" x2="163.5" y1="738.9688" y2="738.9688"/><!--MD5=[18b89e0834131a909517048318a5909c]
class Picture--><rect codeLine="63" fill="#FEFECE" filter="url(#f1flcghp75k23h)" height="39.9688" id="Picture" style="stroke:#A80036;stroke-width:1.5;" width="46" x="1236" y="408.5"/><text fill="#000000" font-family="sans-serif" font-size="12" lengthAdjust="spacing" textLength="40" x="1239" y="424.6387">Picture</text><line style="stroke:#A80036;stroke-width:1.5;" x1="1237" x2="1281" y1="432.4688" y2="432.4688"/><line style="stroke:#A80036;stroke-width:1.5;" x1="1237" x2="1281" y1="440.4688" y2="440.4688"/><!--MD5=[bddb511951cf0a1d6a79f67b0c2ed87d]
class Filter--><rect codeLine="65" fill="#FEFECE" filter="url(#f1flcghp75k23h)" height="39.9688" id="Filter" style="stroke:#A80036;stroke-width:1.5;" width="36" x="1317" y="408.5"/><text fill="#000000" font-family="sans-serif" font-size="12" lengthAdjust="spacing" textLength="30" x="1320" y="424.6387">Filter</text><line style="stroke:#A80036;stroke-width:1.5;" x1="1318" x2="1352" y1="432.4688" y2="432.4688"/><line style="stroke:#A80036;stroke-width:1.5;" x1="1318" x2="1352" y1="440.4688" y2="440.4688"/><!--MD5=[0be64d42f857169ab3dbde34931f83c2]
class GoogleCalendar--><rect codeLine="67" fill="#FEFECE" filter="url(#f1flcghp75k23h)" height="39.9688" id="GoogleCalendar" style="stroke:#A80036;stroke-width:1.5;" width="103" x="656.5" y="577"/><text fill="#000000" font-family="sans-serif" font-size="12" lengthAdjust="spacing" textLength="97" x="659.5" y="593.1387">GoogleCalendar</text><line style="stroke:#A80036;stroke-width:1.5;" x1="657.5" x2="758.5" y1="600.9688" y2="600.9688"/><line style="stroke:#A80036;stroke-width:1.5;" x1="657.5" x2="758.5" y1="608.9688" y2="608.9688"/><!--MD5=[48af56c9a0e5a8a77220d910b4b4e159]
link User to UI--><path codeLine="69" d="M809.741,293.023 C809.674,308.869 809.739,324.782 810,340 C810.366,361.348 811.233,385.613 811.942,403.166 " fill="none" id="User-to-UI" style="stroke:#A80036;stroke-width:1.0;"/><polygon fill="#A80036" points="812.156,408.387,815.7849,399.2311,811.9517,403.3912,807.7916,399.5579,812.156,408.387" style="stroke:#A80036;stroke-width:1.0;"/><text fill="#000000" font-family="sans-serif" font-size="13" lengthAdjust="spacing" textLength="23" x="811" y="336.0669">use</text><!--MD5=[87124c9ddd046e983f03a9e038c77925]
reverse link User to Information--><path codeLine="70" d="M757.765,164.426 C665.063,186.068 474.447,237.643 333,323 C306.609,338.926 294.374,341.769 282,370 C261.125,417.626 276.15,435.33 282,487 C284.97,513.237 291.84,542.36 297.628,563.897 " fill="none" id="User-backto-Information" style="stroke:#A80036;stroke-width:1.0;"/><polygon fill="#FFFFFF" points="770.714,161.449,763.9703,158.895,759.0191,164.1377,765.7628,166.6916,770.714,161.449" style="stroke:#A80036;stroke-width:1.0;"/><text fill="#000000" font-family="sans-serif" font-size="13" lengthAdjust="spacing" textLength="32" x="283" y="433.0669">want</text><!--MD5=[87124c9ddd046e983f03a9e038c77925]
reverse link User to Information--><path codeLine="75" d="M758.247,163.783 C665.61,185.923 478.986,244.279 386,370 C341.511,430.151 320.528,517.445 311.991,563.975 " fill="none" id="User-backto-Information-1" style="stroke:#A80036;stroke-width:1.0;"/><polygon fill="#FFFFFF" points="770.943,160.836,764.1941,158.2959,759.2536,163.5487,766.0025,166.0888,770.943,160.836" style="stroke:#A80036;stroke-width:1.0;"/><text fill="#000000" font-family="sans-serif" font-size="13" lengthAdjust="spacing" textLength="45" x="387" y="433.0669">modify</text><!--MD5=[87124c9ddd046e983f03a9e038c77925]
reverse link User to Information--><path codeLine="84" d="M759.05,177.841 C689.715,212.703 569.22,281.345 493,370 C455.417,413.715 472.333,441.448 437,487 C410.644,520.978 372.067,551.653 343.781,571.741 " fill="none" id="User-backto-Information-2" style="stroke:#A80036;stroke-width:1.0;"/><polygon fill="#FFFFFF" points="770.965,171.929,763.8123,171.0128,760.2156,177.2628,767.3682,178.1791,770.965,171.929" style="stroke:#A80036;stroke-width:1.0;"/><text fill="#000000" font-family="sans-serif" font-size="13" lengthAdjust="spacing" textLength="23" x="494" y="433.0669">see</text><!--MD5=[6ee2f1af10d85f7857e9f45b56d6bf78]
link User to Result--><path codeLine="71" d="M846.262,293.222 C856.293,335.662 866.227,377.693 872.24,403.129 " fill="none" id="User-to-Result" style="stroke:#A80036;stroke-width:1.0;"/><polygon fill="#A80036" points="873.462,408.299,875.2847,398.6203,872.3119,403.4331,867.4992,400.4603,873.462,408.299" style="stroke:#A80036;stroke-width:1.0;"/><text fill="#000000" font-family="sans-serif" font-size="13" lengthAdjust="spacing" textLength="32" x="858" y="336.0669">have</text><!--MD5=[db3d45c735db5d92206c97ab66548b70]
link User to Reminder--><path codeLine="72" d="M855.01,228.009 C887.824,286.987 931.345,365.212 952.838,403.842 " fill="none" id="User-to-Reminder" style="stroke:#A80036;stroke-width:1.0;"/><polygon fill="#A80036" points="955.347,408.353,954.4677,398.5435,952.9165,403.9835,947.4765,402.4323,955.347,408.353" style="stroke:#A80036;stroke-width:1.0;"/><text fill="#000000" font-family="sans-serif" font-size="13" lengthAdjust="spacing" textLength="21" x="918" y="336.0669">get</text><!--MD5=[e78b158d9a99272efa72bbee0fe4f77a]
link Shelter to Notification--><path codeLine="73" d="M101.7749,487.266 C86.0387,516.378 67.8152,550.092 55.883,572.166 " fill="none" id="Shelter-to-Notification" style="stroke:#A80036;stroke-width:1.0;"/><polygon fill="#A80036" points="53.4355,576.694,61.2335,570.6781,55.8127,572.2953,54.1955,566.8745,53.4355,576.694" style="stroke:#A80036;stroke-width:1.0;"/><text fill="#000000" font-family="sans-serif" font-size="13" lengthAdjust="spacing" textLength="21" x="87" y="530.0669">get</text><!--MD5=[6b59dc3038d4f5bc0c27e9520e2febc8]
link User to Shelter--><path codeLine="74" d="M770.744,154.228 C664.712,160.528 382.881,189.603 201,323 C185.844,334.116 173.145,349.715 162.982,365.476 " fill="none" id="User-to-Shelter" style="stroke:#A80036;stroke-width:1.0;"/><polygon fill="#A80036" points="160.182,369.922,168.3623,364.4372,162.8461,365.6909,161.5925,360.1747,160.182,369.922" style="stroke:#A80036;stroke-width:1.0;"/><text fill="#000000" font-family="sans-serif" font-size="13" lengthAdjust="spacing" textLength="26" x="202" y="336.0669">visit</text><!--MD5=[7c0d43220991bac04c54f5912ae2e5bb]
link User to Agency--><path codeLine="76" d="M855.023,195.011 C896.889,237.986 962.345,306.884 1015,370 C1024.16,380.985 1033.75,393.677 1041.55,404.338 " fill="none" id="User-to-Agency" style="stroke:#A80036;stroke-width:1.0;"/><polygon fill="#A80036" points="1044.55,408.467,1042.4918,398.8356,1041.6093,404.4232,1036.0217,403.5407,1044.55,408.467" style="stroke:#A80036;stroke-width:1.0;"/><text fill="#000000" font-family="sans-serif" font-size="13" lengthAdjust="spacing" textLength="42" x="990" y="336.0669">inform</text><!--MD5=[2c5ee9923cd9026446f6061a2175874e]
link Shelter to Ability--><path codeLine="77" d="M120.651,487.133 C118.941,502.41 118.506,518.864 121,534 C122.731,544.504 126.006,555.622 129.465,565.498 " fill="none" id="Shelter-to-Ability" style="stroke:#A80036;stroke-width:1.0;"/><polygon fill="#A80036" points="131.171,570.239,131.8847,560.416,129.4767,565.5348,124.358,563.1268,131.171,570.239" style="stroke:#A80036;stroke-width:1.0;"/><text fill="#000000" font-family="sans-serif" font-size="13" lengthAdjust="spacing" textLength="32" x="122" y="530.0669">want</text><!--MD5=[93548ce508d075e67ede6c473b7474c3]
link User to Pet--><path codeLine="78" d="M770.822,201.031 C725.371,253.328 653.768,335.717 610.605,385.381 " fill="none" id="User-to-Pet" style="stroke:#A80036;stroke-width:1.0;"/><polygon fill="#A80036" points="607.291,389.195,616.2138,385.0256,610.5708,385.421,610.1754,379.778,607.291,389.195" style="stroke:#A80036;stroke-width:1.0;"/><text fill="#000000" font-family="sans-serif" font-size="13" lengthAdjust="spacing" textLength="23" x="660" y="336.0669">see</text><!--MD5=[0395d19c5d4b253bc8342f831d3ae628]
reverse link User to Appointment--><path codeLine="79" d="M866.43,189.353 C925.625,230.97 1023.01,301.805 1101,370 C1115,382.24 1129.99,396.876 1141.36,408.319 " fill="none" id="User-backto-Appointment" style="stroke:#A80036;stroke-width:1.0;"/><polygon fill="#FFFFFF" points="855.476,181.679,858.0952,188.3976,865.3044,188.564,862.6852,181.8454,855.476,181.679" style="stroke:#A80036;stroke-width:1.0;"/><text fill="#000000" font-family="sans-serif" font-size="13" lengthAdjust="spacing" textLength="31" x="1065" y="336.0669">book</text><!--MD5=[bc62c84d0432f6073a28aea9e3dc541c]
reverse link Shelter to Information--><path codeLine="80" d="M166.714,498.338 C174.863,511.106 184.346,523.659 195,534 C216.61,554.974 246.721,571.114 270.28,581.662 " fill="none" id="Shelter-backto-Information" style="stroke:#A80036;stroke-width:1.0;"/><polygon fill="#FFFFFF" points="159.899,487.112,159.5931,494.3166,166.1258,497.37,166.4317,490.1654,159.899,487.112" style="stroke:#A80036;stroke-width:1.0;"/><text fill="#000000" font-family="sans-serif" font-size="13" lengthAdjust="spacing" textLength="32" x="196" y="530.0669">input</text><!--MD5=[c3a439e3d88944b870cb0c6c03c51da5]
link Ability to Animal--><path codeLine="81" d="M142,623.595 C142,646.289 142,679.2065 142,701.5484 " fill="none" id="Ability-to-Animal" style="stroke:#A80036;stroke-width:1.0;"/><polygon fill="#A80036" points="142,706.7072,146,697.7072,142,701.7072,138,697.7072,142,706.7072" style="stroke:#A80036;stroke-width:1.0;"/><text fill="#000000" font-family="sans-serif" font-size="13" lengthAdjust="spacing" textLength="38" x="143" y="673.0669">select</text><!--MD5=[c0646aff05db046bf03bd07f9451b561]
link User to Picture--><path codeLine="82" d="M855.026,167.609 C933.135,197.201 1103.16,268.848 1218,370 C1228.97,379.658 1238.61,392.786 1245.78,404.059 " fill="none" id="User-to-Picture" style="stroke:#A80036;stroke-width:1.0;"/><polygon fill="#A80036" points="1248.5,408.438,1247.1391,398.6836,1245.8575,404.1934,1240.3477,402.9117,1248.5,408.438" style="stroke:#A80036;stroke-width:1.0;"/><text fill="#000000" font-family="sans-serif" font-size="13" lengthAdjust="spacing" textLength="23" x="1181" y="336.0669">see</text><!--MD5=[5397643791c131ed82debcaa0fb65303]
link SchedulingFunction to GoogleCalendar--><path codeLine="83" d="M708,448.6 C708,479.005 708,538.378 708,571.744 " fill="none" id="SchedulingFunction-to-GoogleCalendar" style="stroke:#A80036;stroke-width:1.0;"/><polygon fill="#A80036" points="708,576.867,712,567.867,708,571.867,704,567.867,708,576.867" style="stroke:#A80036;stroke-width:1.0;"/><text fill="#000000" font-family="sans-serif" font-size="13" lengthAdjust="spacing" textLength="88" x="709" y="530.0669">supported_by</text><!--MD5=[993a1ed30139d6bc9fd462e29443e622]
link User to User--><path codeLine="85" d="M855.369,118.213 C873.983,115.268 890,126.363 890,151.5 C890,174.28 876.845,185.528 860.524,185.245 " fill="none" id="User-to-User" style="stroke:#A80036;stroke-width:1.0;"/><polygon fill="#A80036" points="855.369,184.787,863.9793,189.5685,860.3493,185.2299,864.6879,181.5999,855.369,184.787" style="stroke:#A80036;stroke-width:1.0;"/><text fill="#000000" font-family="sans-serif" font-size="13" lengthAdjust="spacing" textLength="42" x="896" y="156.0669">decide</text><!--MD5=[ded0fb5f7d8afae38f6f17e4b4cd9ec3]
link User to SchedulingFunction--><path codeLine="86" d="M770.897,262.768 C751.076,314.682 729.195,371.99 717.175,403.47 " fill="none" id="User-to-SchedulingFunction" style="stroke:#A80036;stroke-width:1.0;"/><polygon fill="#A80036" points="715.333,408.296,722.281,401.3157,717.1171,403.6251,714.8076,398.4612,715.333,408.296" style="stroke:#A80036;stroke-width:1.0;"/><text fill="#000000" font-family="sans-serif" font-size="13" lengthAdjust="spacing" textLength="32" x="746" y="336.0669">want</text><!--MD5=[b878fafb79de2b9e39147c0e5651d71c]
link User to Filter--><path codeLine="87" d="M855.058,168.859 C928.609,197.814 1084.96,260.907 1213,323 C1252.19,342.007 1267.3,340.125 1299,370 C1309.12,379.542 1317.57,392.521 1323.73,403.733 " fill="none" id="User-to-Filter" style="stroke:#A80036;stroke-width:1.0;"/><polygon fill="#A80036" points="1326.23,408.415,1325.5241,398.5915,1323.8771,404.0032,1318.4653,402.3562,1326.23,408.415" style="stroke:#A80036;stroke-width:1.0;"/><text fill="#000000" font-family="sans-serif" font-size="13" lengthAdjust="spacing" textLength="35" x="1254" y="336.0669">apply</text><!--MD5=[f1e1c8f0e2bb4b8b446d58d5732e62c1]
@startuml
hide circle
class User<actor> {
	location
	appointment
	information
}
class Shelter<actor> {
	information
}
class Pet {
	picture
	information
	list()
}
class User {
	apply()
	cancel()
	know()
	get()
	inform()
	make()
	use()
	have()
	modify()
	decide()
	see()
	want()
	contact()
	visit()
	book()
	update()
}
class SchedulingFunction {
}
class UI {
}
class Shelter {
	input()
	control()
	get()
	know()
	want()
}
class Notification {
}
class Information {
	stay_up()
	keep()
}
class Result {
}
class Reminder {
}
class Agency {
}
class Ability {
	select()
}
class Appointment {
}
class Animal {
}
class Picture {
}
class Filter {
}
class GoogleCalendar {
}
User - -> UI : use
User o- - Information : want
User - -> Result : have
User - -> Reminder : get
Shelter - -> Notification : get
User - -> Shelter : visit
User o- - Information : modify
User - -> Agency : inform
Shelter - -> Ability : want
User - -> Pet : see
User o- - Appointment : book
Shelter o- - Information : input
Ability - -> Animal : select
User - -> Picture : see
SchedulingFunction - -> GoogleCalendar : supported_by
User o- - Information : see
User - -> User : decide
User - -> SchedulingFunction : want
User - -> Filter : apply
@enduml

PlantUML version 1.2021.10beta5(Unknown compile time)
(GPL source distribution)
Java Runtime: Java(TM) SE Runtime Environment
JVM: Java HotSpot(TM) 64-Bit Server VM
Default Encoding: UTF-8
Language: en
Country: US
--></g></svg>