<?xml version="1.0" encoding="UTF-8" standalone="no"?><svg xmlns="http://www.w3.org/2000/svg" xmlns:xlink="http://www.w3.org/1999/xlink" contentScriptType="application/ecmascript" contentStyleType="text/css" height="718px" preserveAspectRatio="none" style="width:3900px;height:718px;background:#FFFFFF;" version="1.1" viewBox="0 0 3900 718" width="3900px" zoomAndPan="magnify"><defs><filter height="300%" id="ffmbwudmx1zuz" width="300%" x="-1" y="-1"><feGaussianBlur result="blurOut" stdDeviation="2.0"/><feColorMatrix in="blurOut" result="blurOut2" type="matrix" values="0 0 0 0 0 0 0 0 0 0 0 0 0 0 0 0 0 0 .4 0"/><feOffset dx="4.0" dy="4.0" in="blurOut2" result="blurOut3"/><feBlend in="SourceGraphic" in2="blurOut3" mode="normal"/></filter></defs><g><!--MD5=[3fd616f346a44cd59a91eb10b19e157c]
class User--><rect codeLine="13" fill="#FEFECE" filter="url(#ffmbwudmx1zuz)" height="564.9609" id="User" style="stroke:#A80036;stroke-width:1.5;" width="74" x="1846.5" y="10"/><text fill="#000000" font-family="sans-serif" font-size="12" lengthAdjust="spacing" textLength="29" x="1851.5" y="26.1387">User</text><rect fill="#FFFFFF" height="15.9688" style="stroke:#000000;stroke-width:1.0;stroke-dasharray:2.0,2.0;" width="33" x="1890.5" y="7"/><text fill="#000000" font-family="sans-serif" font-size="12" font-style="italic" lengthAdjust="spacing" textLength="31" x="1891.5" y="19.1387">actor</text><line style="stroke:#A80036;stroke-width:1.5;" x1="1847.5" x2="1919.5" y1="33.9688" y2="33.9688"/><text fill="#000000" font-family="sans-serif" font-size="11" lengthAdjust="spacing" textLength="36" x="1852.5" y="48.1792">phone</text><text fill="#000000" font-family="sans-serif" font-size="11" lengthAdjust="spacing" textLength="43" x="1852.5" y="60.9839">storage</text><text fill="#000000" font-family="sans-serif" font-size="11" lengthAdjust="spacing" textLength="56" x="1852.5" y="73.7886">eventexit</text><text fill="#000000" font-family="sans-serif" font-size="11" lengthAdjust="spacing" textLength="36" x="1852.5" y="86.5933">record</text><text fill="#000000" font-family="sans-serif" font-size="11" lengthAdjust="spacing" textLength="34" x="1852.5" y="99.3979">event</text><text fill="#000000" font-family="sans-serif" font-size="11" lengthAdjust="spacing" textLength="35" x="1852.5" y="112.2026">felling</text><text fill="#000000" font-family="sans-serif" font-size="11" lengthAdjust="spacing" textLength="41" x="1852.5" y="125.0073">privacy</text><text fill="#000000" font-family="sans-serif" font-size="11" lengthAdjust="spacing" textLength="54" x="1852.5" y="137.812">computer</text><text fill="#000000" font-family="sans-serif" font-size="11" lengthAdjust="spacing" textLength="53" x="1852.5" y="150.6167">password</text><line style="stroke:#A80036;stroke-width:1.5;" x1="1847.5" x2="1919.5" y1="157.2109" y2="157.2109"/><text fill="#000000" font-family="sans-serif" font-size="11" lengthAdjust="spacing" textLength="47" x="1852.5" y="171.4214">review()</text><text fill="#000000" font-family="sans-serif" font-size="11" lengthAdjust="spacing" textLength="57" x="1852.5" y="184.2261">maintain()</text><text fill="#000000" font-family="sans-serif" font-size="11" lengthAdjust="spacing" textLength="37" x="1852.5" y="197.0308">keep()</text><text fill="#000000" font-family="sans-serif" font-size="11" lengthAdjust="spacing" textLength="39" x="1852.5" y="209.8354">enter()</text><text fill="#000000" font-family="sans-serif" font-size="11" lengthAdjust="spacing" textLength="50" x="1852.5" y="222.6401">change()</text><text fill="#000000" font-family="sans-serif" font-size="11" lengthAdjust="spacing" textLength="38" x="1852.5" y="235.4448">reset()</text><text fill="#000000" font-family="sans-serif" font-size="11" lengthAdjust="spacing" textLength="40" x="1852.5" y="248.2495">make()</text><text fill="#000000" font-family="sans-serif" font-size="11" lengthAdjust="spacing" textLength="38" x="1852.5" y="261.0542">need()</text><text fill="#000000" font-family="sans-serif" font-size="11" lengthAdjust="spacing" textLength="62" x="1852.5" y="273.8589">download()</text><text fill="#000000" font-family="sans-serif" font-size="11" lengthAdjust="spacing" textLength="29" x="1852.5" y="286.6636">sort()</text><text fill="#000000" font-family="sans-serif" font-size="11" lengthAdjust="spacing" textLength="49" x="1852.5" y="299.4683">choose()</text><text fill="#000000" font-family="sans-serif" font-size="11" lengthAdjust="spacing" textLength="42" x="1852.5" y="312.2729">report()</text><text fill="#000000" font-family="sans-serif" font-size="11" lengthAdjust="spacing" textLength="29" x="1852.5" y="325.0776">use()</text><text fill="#000000" font-family="sans-serif" font-size="11" lengthAdjust="spacing" textLength="42" x="1852.5" y="337.8823">forget()</text><text fill="#000000" font-family="sans-serif" font-size="11" lengthAdjust="spacing" textLength="23" x="1852.5" y="350.687">let()</text><text fill="#000000" font-family="sans-serif" font-size="11" lengthAdjust="spacing" textLength="40" x="1852.5" y="363.4917">share()</text><text fill="#000000" font-family="sans-serif" font-size="11" lengthAdjust="spacing" textLength="36" x="1852.5" y="376.2964">save()</text><text fill="#000000" font-family="sans-serif" font-size="11" lengthAdjust="spacing" textLength="46" x="1852.5" y="389.1011">delete()</text><text fill="#000000" font-family="sans-serif" font-size="11" lengthAdjust="spacing" textLength="25" x="1852.5" y="401.9058">log()</text><text fill="#000000" font-family="sans-serif" font-size="11" lengthAdjust="spacing" textLength="62" x="1852.5" y="414.7104">comment()</text><text fill="#000000" font-family="sans-serif" font-size="11" lengthAdjust="spacing" textLength="46" x="1852.5" y="427.5151">upload()</text><text fill="#000000" font-family="sans-serif" font-size="11" lengthAdjust="spacing" textLength="28" x="1852.5" y="440.3198">like()</text><text fill="#000000" font-family="sans-serif" font-size="11" lengthAdjust="spacing" textLength="54" x="1852.5" y="453.1245">express()</text><text fill="#000000" font-family="sans-serif" font-size="11" lengthAdjust="spacing" textLength="32" x="1852.5" y="465.9292">free()</text><text fill="#000000" font-family="sans-serif" font-size="11" lengthAdjust="spacing" textLength="31" x="1852.5" y="478.7339">look()</text><text fill="#000000" font-family="sans-serif" font-size="11" lengthAdjust="spacing" textLength="46" x="1852.5" y="491.5386">search()</text><text fill="#000000" font-family="sans-serif" font-size="11" lengthAdjust="spacing" textLength="30" x="1852.5" y="504.3433">see()</text><text fill="#000000" font-family="sans-serif" font-size="11" lengthAdjust="spacing" textLength="29" x="1852.5" y="517.1479">find()</text><text fill="#000000" font-family="sans-serif" font-size="11" lengthAdjust="spacing" textLength="45" x="1852.5" y="529.9526">create()</text><text fill="#000000" font-family="sans-serif" font-size="11" lengthAdjust="spacing" textLength="35" x="1852.5" y="542.7573">login()</text><text fill="#000000" font-family="sans-serif" font-size="11" lengthAdjust="spacing" textLength="49" x="1852.5" y="555.562">extend()</text><text fill="#000000" font-family="sans-serif" font-size="11" lengthAdjust="spacing" textLength="35" x="1852.5" y="568.3667">want()</text><!--MD5=[a3908a0ec113a75f17921675d1421845]
class Felling--><rect codeLine="47" fill="#FEFECE" filter="url(#ffmbwudmx1zuz)" height="39.9688" id="Felling" style="stroke:#A80036;stroke-width:1.5;" width="45" x="7" y="658.5"/><text fill="#000000" font-family="sans-serif" font-size="12" lengthAdjust="spacing" textLength="39" x="10" y="674.6387">Felling</text><line style="stroke:#A80036;stroke-width:1.5;" x1="8" x2="51" y1="682.4688" y2="682.4688"/><line style="stroke:#A80036;stroke-width:1.5;" x1="8" x2="51" y1="690.4688" y2="690.4688"/><!--MD5=[db25027423b3b96a5b12184dc6d389a4]
class Computer--><rect codeLine="49" fill="#FEFECE" filter="url(#ffmbwudmx1zuz)" height="39.9688" id="Computer" style="stroke:#A80036;stroke-width:1.5;" width="65" x="90" y="658.5"/><text fill="#000000" font-family="sans-serif" font-size="12" lengthAdjust="spacing" textLength="59" x="93" y="674.6387">Computer</text><line style="stroke:#A80036;stroke-width:1.5;" x1="91" x2="154" y1="682.4688" y2="682.4688"/><line style="stroke:#A80036;stroke-width:1.5;" x1="91" x2="154" y1="690.4688" y2="690.4688"/><!--MD5=[e4d8b67421868539f11a14c4b71b2db8]
class Resolutionpicture--><rect codeLine="51" fill="#FEFECE" filter="url(#ffmbwudmx1zuz)" height="39.9688" id="Resolutionpicture" style="stroke:#A80036;stroke-width:1.5;" width="110" x="218.5" y="658.5"/><text fill="#000000" font-family="sans-serif" font-size="12" lengthAdjust="spacing" textLength="104" x="221.5" y="674.6387">Resolutionpicture</text><line style="stroke:#A80036;stroke-width:1.5;" x1="219.5" x2="327.5" y1="682.4688" y2="682.4688"/><line style="stroke:#A80036;stroke-width:1.5;" x1="219.5" x2="327.5" y1="690.4688" y2="690.4688"/><!--MD5=[65eaf00a50d35493392163fa377b2455]
class Privacy--><rect codeLine="53" fill="#FEFECE" filter="url(#ffmbwudmx1zuz)" height="39.9688" id="Privacy" style="stroke:#A80036;stroke-width:1.5;" width="48" x="391.5" y="658.5"/><text fill="#000000" font-family="sans-serif" font-size="12" lengthAdjust="spacing" textLength="42" x="394.5" y="674.6387">Privacy</text><line style="stroke:#A80036;stroke-width:1.5;" x1="392.5" x2="438.5" y1="682.4688" y2="682.4688"/><line style="stroke:#A80036;stroke-width:1.5;" x1="392.5" x2="438.5" y1="690.4688" y2="690.4688"/><!--MD5=[18b89e0834131a909517048318a5909c]
class Picture--><rect codeLine="55" fill="#FEFECE" filter="url(#ffmbwudmx1zuz)" height="39.9688" id="Picture" style="stroke:#A80036;stroke-width:1.5;" width="46" x="811.5" y="658.5"/><text fill="#000000" font-family="sans-serif" font-size="12" lengthAdjust="spacing" textLength="40" x="814.5" y="674.6387">Picture</text><line style="stroke:#A80036;stroke-width:1.5;" x1="812.5" x2="856.5" y1="682.4688" y2="682.4688"/><line style="stroke:#A80036;stroke-width:1.5;" x1="812.5" x2="856.5" y1="690.4688" y2="690.4688"/><!--MD5=[e09c41c2f9238e7adb85a94dde2227e7]
class Size--><rect codeLine="57" fill="#FEFECE" filter="url(#ffmbwudmx1zuz)" height="52.7734" id="Size" style="stroke:#A80036;stroke-width:1.5;" width="74" x="1190.5" y="652"/><text fill="#000000" font-family="sans-serif" font-size="12" lengthAdjust="spacing" textLength="26" x="1214.5" y="668.1387">Size</text><line style="stroke:#A80036;stroke-width:1.5;" x1="1191.5" x2="1263.5" y1="675.9688" y2="675.9688"/><line style="stroke:#A80036;stroke-width:1.5;" x1="1191.5" x2="1263.5" y1="683.9688" y2="683.9688"/><text fill="#000000" font-family="sans-serif" font-size="11" lengthAdjust="spacing" textLength="62" x="1196.5" y="698.1792">download()</text><!--MD5=[3ead5fcdfa280341a471a2ae77c113bc]
class Popularity--><rect codeLine="60" fill="#FEFECE" filter="url(#ffmbwudmx1zuz)" height="39.9688" id="Popularity" style="stroke:#A80036;stroke-width:1.5;" width="64" x="1299.5" y="658.5"/><text fill="#000000" font-family="sans-serif" font-size="12" lengthAdjust="spacing" textLength="58" x="1302.5" y="674.6387">Popularity</text><line style="stroke:#A80036;stroke-width:1.5;" x1="1300.5" x2="1362.5" y1="682.4688" y2="682.4688"/><line style="stroke:#A80036;stroke-width:1.5;" x1="1300.5" x2="1362.5" y1="690.4688" y2="690.4688"/><!--MD5=[791ceb0e5f1f4f7768a59043084da501]
class Lot--><rect codeLine="62" fill="#FEFECE" filter="url(#ffmbwudmx1zuz)" height="39.9688" id="Lot" style="stroke:#A80036;stroke-width:1.5;" width="24" x="1401.5" y="658.5"/><text fill="#000000" font-family="sans-serif" font-size="12" lengthAdjust="spacing" textLength="18" x="1404.5" y="674.6387">Lot</text><line style="stroke:#A80036;stroke-width:1.5;" x1="1402.5" x2="1424.5" y1="682.4688" y2="682.4688"/><line style="stroke:#A80036;stroke-width:1.5;" x1="1402.5" x2="1424.5" y1="690.4688" y2="690.4688"/><!--MD5=[ac13618b1a974308c1f12eb6c57723dc]
class Event--><rect codeLine="64" fill="#FEFECE" filter="url(#ffmbwudmx1zuz)" height="39.9688" id="Event" style="stroke:#A80036;stroke-width:1.5;" width="39" x="1696" y="658.5"/><text fill="#000000" font-family="sans-serif" font-size="12" lengthAdjust="spacing" textLength="33" x="1699" y="674.6387">Event</text><line style="stroke:#A80036;stroke-width:1.5;" x1="1697" x2="1734" y1="682.4688" y2="682.4688"/><line style="stroke:#A80036;stroke-width:1.5;" x1="1697" x2="1734" y1="690.4688" y2="690.4688"/><!--MD5=[2f01b1126ff33a0669651ec2488a5ef9]
class Password--><rect codeLine="66" fill="#FEFECE" filter="url(#ffmbwudmx1zuz)" height="39.9688" id="Password" style="stroke:#A80036;stroke-width:1.5;" width="64" x="2115.5" y="658.5"/><text fill="#000000" font-family="sans-serif" font-size="12" lengthAdjust="spacing" textLength="58" x="2118.5" y="674.6387">Password</text><line style="stroke:#A80036;stroke-width:1.5;" x1="2116.5" x2="2178.5" y1="682.4688" y2="682.4688"/><line style="stroke:#A80036;stroke-width:1.5;" x1="2116.5" x2="2178.5" y1="690.4688" y2="690.4688"/><!--MD5=[3f04f889cbbdb3bce32c55a080e41562]
class Browser--><rect codeLine="68" fill="#FEFECE" filter="url(#ffmbwudmx1zuz)" height="52.7734" id="Browser" style="stroke:#A80036;stroke-width:1.5;" width="57" x="2257" y="652"/><text fill="#000000" font-family="sans-serif" font-size="12" lengthAdjust="spacing" textLength="51" x="2260" y="668.1387">Browser</text><line style="stroke:#A80036;stroke-width:1.5;" x1="2258" x2="2313" y1="675.9688" y2="675.9688"/><line style="stroke:#A80036;stroke-width:1.5;" x1="2258" x2="2313" y1="683.9688" y2="683.9688"/><text fill="#000000" font-family="sans-serif" font-size="11" lengthAdjust="spacing" textLength="31" x="2263" y="698.1792">visit()</text><!--MD5=[11b747870319a085bc745183e08c5f76]
class Storage--><rect codeLine="71" fill="#FEFECE" filter="url(#ffmbwudmx1zuz)" height="39.9688" id="Storage" style="stroke:#A80036;stroke-width:1.5;" width="54" x="2349.5" y="658.5"/><text fill="#000000" font-family="sans-serif" font-size="12" lengthAdjust="spacing" textLength="48" x="2352.5" y="674.6387">Storage</text><line style="stroke:#A80036;stroke-width:1.5;" x1="2350.5" x2="2402.5" y1="682.4688" y2="682.4688"/><line style="stroke:#A80036;stroke-width:1.5;" x1="2350.5" x2="2402.5" y1="690.4688" y2="690.4688"/><!--MD5=[4b19b23db4754680288ddfe7449a87e7]
class FacebookAccount--><rect codeLine="73" fill="#FEFECE" filter="url(#ffmbwudmx1zuz)" height="39.9688" id="FacebookAccount" style="stroke:#A80036;stroke-width:1.5;" width="114" x="2480.5" y="658.5"/><text fill="#000000" font-family="sans-serif" font-size="12" lengthAdjust="spacing" textLength="108" x="2483.5" y="674.6387">FacebookAccount</text><line style="stroke:#A80036;stroke-width:1.5;" x1="2481.5" x2="2593.5" y1="682.4688" y2="682.4688"/><line style="stroke:#A80036;stroke-width:1.5;" x1="2481.5" x2="2593.5" y1="690.4688" y2="690.4688"/><!--MD5=[2e42295458bb0bec21c9622a623eb29e]
class Time--><rect codeLine="75" fill="#FEFECE" filter="url(#ffmbwudmx1zuz)" height="39.9688" id="Time" style="stroke:#A80036;stroke-width:1.5;" width="35" x="2836" y="658.5"/><text fill="#000000" font-family="sans-serif" font-size="12" lengthAdjust="spacing" textLength="29" x="2839" y="674.6387">Time</text><line style="stroke:#A80036;stroke-width:1.5;" x1="2837" x2="2870" y1="682.4688" y2="682.4688"/><line style="stroke:#A80036;stroke-width:1.5;" x1="2837" x2="2870" y1="690.4688" y2="690.4688"/><!--MD5=[5c85d133e2c913f4b8608c8db253c015]
class Record--><rect codeLine="77" fill="#FEFECE" filter="url(#ffmbwudmx1zuz)" height="39.9688" id="Record" style="stroke:#A80036;stroke-width:1.5;" width="49" x="3082" y="658.5"/><text fill="#000000" font-family="sans-serif" font-size="12" lengthAdjust="spacing" textLength="43" x="3085" y="674.6387">Record</text><line style="stroke:#A80036;stroke-width:1.5;" x1="3083" x2="3130" y1="682.4688" y2="682.4688"/><line style="stroke:#A80036;stroke-width:1.5;" x1="3083" x2="3130" y1="690.4688" y2="690.4688"/><!--MD5=[04de2b998227c7d4fb4519a7c389f8cd]
class Eventexit--><rect codeLine="79" fill="#FEFECE" filter="url(#ffmbwudmx1zuz)" height="39.9688" id="Eventexit" style="stroke:#A80036;stroke-width:1.5;" width="61" x="3166" y="658.5"/><text fill="#000000" font-family="sans-serif" font-size="12" lengthAdjust="spacing" textLength="55" x="3169" y="674.6387">Eventexit</text><line style="stroke:#A80036;stroke-width:1.5;" x1="3167" x2="3226" y1="682.4688" y2="682.4688"/><line style="stroke:#A80036;stroke-width:1.5;" x1="3167" x2="3226" y1="690.4688" y2="690.4688"/><!--MD5=[b8a8351f4de83c8eb85722e96e223bf9]
class Charge--><rect codeLine="81" fill="#FEFECE" filter="url(#ffmbwudmx1zuz)" height="39.9688" id="Charge" style="stroke:#A80036;stroke-width:1.5;" width="49" x="3300" y="658.5"/><text fill="#000000" font-family="sans-serif" font-size="12" lengthAdjust="spacing" textLength="43" x="3303" y="674.6387">Charge</text><line style="stroke:#A80036;stroke-width:1.5;" x1="3301" x2="3348" y1="682.4688" y2="682.4688"/><line style="stroke:#A80036;stroke-width:1.5;" x1="3301" x2="3348" y1="690.4688" y2="690.4688"/><!--MD5=[8a8146ff89b20cc2efd6e16e3c0a6394]
class Register--><rect codeLine="83" fill="#FEFECE" filter="url(#ffmbwudmx1zuz)" height="39.9688" id="Register" style="stroke:#A80036;stroke-width:1.5;" width="56" x="3414.5" y="658.5"/><text fill="#000000" font-family="sans-serif" font-size="12" lengthAdjust="spacing" textLength="50" x="3417.5" y="674.6387">Register</text><line style="stroke:#A80036;stroke-width:1.5;" x1="3415.5" x2="3469.5" y1="682.4688" y2="682.4688"/><line style="stroke:#A80036;stroke-width:1.5;" x1="3415.5" x2="3469.5" y1="690.4688" y2="690.4688"/><!--MD5=[042fa140da40c49659127f611bcff931]
class Comment--><rect codeLine="85" fill="#FEFECE" filter="url(#ffmbwudmx1zuz)" height="39.9688" id="Comment" style="stroke:#A80036;stroke-width:1.5;" width="63" x="3506" y="658.5"/><text fill="#000000" font-family="sans-serif" font-size="12" lengthAdjust="spacing" textLength="57" x="3509" y="674.6387">Comment</text><line style="stroke:#A80036;stroke-width:1.5;" x1="3507" x2="3568" y1="682.4688" y2="682.4688"/><line style="stroke:#A80036;stroke-width:1.5;" x1="3507" x2="3568" y1="690.4688" y2="690.4688"/><!--MD5=[e4ab21d58258ec43be3236a0dfe4b40d]
class PictureOwner--><rect codeLine="87" fill="#FEFECE" filter="url(#ffmbwudmx1zuz)" height="39.9688" id="PictureOwner" style="stroke:#A80036;stroke-width:1.5;" width="86" x="3604.5" y="658.5"/><text fill="#000000" font-family="sans-serif" font-size="12" lengthAdjust="spacing" textLength="80" x="3607.5" y="674.6387">PictureOwner</text><line style="stroke:#A80036;stroke-width:1.5;" x1="3605.5" x2="3689.5" y1="682.4688" y2="682.4688"/><line style="stroke:#A80036;stroke-width:1.5;" x1="3605.5" x2="3689.5" y1="690.4688" y2="690.4688"/><!--MD5=[4296a1ab0576a383a1a509d52c22ebf0]
class Type--><rect codeLine="89" fill="#FEFECE" filter="url(#ffmbwudmx1zuz)" height="39.9688" id="Type" style="stroke:#A80036;stroke-width:1.5;" width="36" x="3725.5" y="658.5"/><text fill="#000000" font-family="sans-serif" font-size="12" lengthAdjust="spacing" textLength="30" x="3728.5" y="674.6387">Type</text><line style="stroke:#A80036;stroke-width:1.5;" x1="3726.5" x2="3760.5" y1="682.4688" y2="682.4688"/><line style="stroke:#A80036;stroke-width:1.5;" x1="3726.5" x2="3760.5" y1="690.4688" y2="690.4688"/><!--MD5=[501cf08ad2777cc970661487b121c8d0]
class Qualitypicture--><rect codeLine="91" fill="#FEFECE" filter="url(#ffmbwudmx1zuz)" height="39.9688" id="Qualitypicture" style="stroke:#A80036;stroke-width:1.5;" width="89" x="3797" y="658.5"/><text fill="#000000" font-family="sans-serif" font-size="12" lengthAdjust="spacing" textLength="83" x="3800" y="674.6387">Qualitypicture</text><line style="stroke:#A80036;stroke-width:1.5;" x1="3798" x2="3885" y1="682.4688" y2="682.4688"/><line style="stroke:#A80036;stroke-width:1.5;" x1="3798" x2="3885" y1="690.4688" y2="690.4688"/><!--MD5=[2002507a0917261d7d5709b3951adb7e]
link User to Popularity--><path codeLine="93" d="M1846.26,309.26 C1756.83,348.503 1526.39,458.112 1377.5,605 C1363.17,619.1361 1351.16,638.5306 1343.01,653.7032 " fill="none" id="User-to-Popularity" style="stroke:#A80036;stroke-width:1.0;"/><polygon fill="#A80036" points="1340.6,658.2659,1348.3395,652.175,1342.9347,653.8444,1341.2652,648.4395,1340.6,658.2659" style="stroke:#A80036;stroke-width:1.0;"/><text fill="#000000" font-family="sans-serif" font-size="13" lengthAdjust="spacing" textLength="43" x="1378.5" y="618.0669">review</text><!--MD5=[39240343b7996c01d925859f0577ba2a]
link User to PictureOwner--><path codeLine="94" d="M1920.64,296.858 C2099.76,313.829 2890.88,397.647 3502.5,605 C3541.21,618.1239 3582.67,639.6904 3611.29,655.8967 " fill="none" id="User-to-PictureOwner" style="stroke:#A80036;stroke-width:1.0;"/><polygon fill="#A80036" points="3615.78,658.4496,3609.9545,650.5083,3611.4401,655.9666,3605.9818,657.4522,3615.78,658.4496" style="stroke:#A80036;stroke-width:1.0;"/><text fill="#000000" font-family="sans-serif" font-size="13" lengthAdjust="spacing" textLength="36" x="3545.5" y="618.0669">make</text><!--MD5=[6149ca76d5a0a66a18c1d035a9055653]
reverse link User to Event--><path codeLine="95" d="M1834.28,313.542 C1743.87,353.416 1553.73,452.232 1478.5,605 C1475.16,611.7783 1473.81,616.0796 1478.5,622 C1505.67,656.2724 1643.86,671.4071 1695.76,675.9453 " fill="none" id="User-backto-Event" style="stroke:#A80036;stroke-width:1.0;"/><polygon fill="#FFFFFF" points="1846.36,308.307,1839.264,307.0239,1835.3503,313.0806,1842.4464,314.3637,1846.36,308.307" style="stroke:#A80036;stroke-width:1.0;"/><text fill="#000000" font-family="sans-serif" font-size="13" lengthAdjust="spacing" textLength="40" x="1479.5" y="618.0669">delete</text><!--MD5=[6149ca76d5a0a66a18c1d035a9055653]
reverse link User to Event--><path codeLine="99" d="M1835.17,321.844 C1759.71,369.276 1616.71,472.691 1560.5,605 C1536.8,660.7785 1649.3,673.6982 1695.98,676.6455 " fill="none" id="User-backto-Event-1" style="stroke:#A80036;stroke-width:1.0;"/><polygon fill="#FFFFFF" points="1846.24,314.986,1839.0327,314.7505,1836.0433,321.3128,1843.2506,321.5483,1846.24,314.986" style="stroke:#A80036;stroke-width:1.0;"/><text fill="#000000" font-family="sans-serif" font-size="13" lengthAdjust="spacing" textLength="45" x="1561.5" y="618.0669">extend</text><!--MD5=[6149ca76d5a0a66a18c1d035a9055653]
reverse link User to Event--><path codeLine="104" d="M1836.47,335.874 C1779,391.17 1684.78,494.046 1647.5,605 C1637.99,633.2993 1672.39,656.4596 1695.69,668.5029 " fill="none" id="User-backto-Event-2" style="stroke:#A80036;stroke-width:1.0;"/><polygon fill="#FFFFFF" points="1846.06,326.762,1838.9553,327.9961,1837.3619,335.029,1844.4666,333.7949,1846.06,326.762" style="stroke:#A80036;stroke-width:1.0;"/><text fill="#000000" font-family="sans-serif" font-size="13" lengthAdjust="spacing" textLength="23" x="1648.5" y="618.0669">see</text><!--MD5=[6149ca76d5a0a66a18c1d035a9055653]
reverse link User to Event--><path codeLine="106" d="M1838.84,353.006 C1796.82,413 1736.84,510.065 1712.5,605 C1707.96,622.694 1709.53,643.6032 1711.74,658.4088 " fill="none" id="User-backto-Event-3" style="stroke:#A80036;stroke-width:1.0;"/><polygon fill="#FFFFFF" points="1846.46,342.245,1839.7285,344.8308,1839.5264,352.0391,1846.2579,349.4533,1846.46,342.245" style="stroke:#A80036;stroke-width:1.0;"/><text fill="#000000" font-family="sans-serif" font-size="13" lengthAdjust="spacing" textLength="43" x="1713.5" y="618.0669">search</text><!--MD5=[6149ca76d5a0a66a18c1d035a9055653]
reverse link User to Event--><path codeLine="107" d="M1842.21,436.117 C1822.06,495.631 1794.88,564.212 1761.5,622 C1753.93,635.1123 1743.23,648.2283 1734.07,658.4152 " fill="none" id="User-backto-Event-4" style="stroke:#A80036;stroke-width:1.0;"/><polygon fill="#FFFFFF" points="1846.41,423.563,1840.715,427.9864,1842.6078,434.9447,1848.3028,430.5213,1846.41,423.563" style="stroke:#A80036;stroke-width:1.0;"/><text fill="#000000" font-family="sans-serif" font-size="13" lengthAdjust="spacing" textLength="41" x="1772.5" y="618.0669">create</text><!--MD5=[6149ca76d5a0a66a18c1d035a9055653]
reverse link User to Event--><path codeLine="113" d="M1844.03,587.119 C1837.76,599.349 1830.62,611.0533 1822.5,622 C1800.94,651.0825 1759.65,666.2039 1735.15,672.9522 " fill="none" id="User-backto-Event-5" style="stroke:#A80036;stroke-width:1.0;"/><polygon fill="#FFFFFF" points="1849.78,575.24,1843.5645,578.8962,1844.5489,586.0398,1850.7644,582.3836,1849.78,575.24" style="stroke:#A80036;stroke-width:1.0;"/><text fill="#000000" font-family="sans-serif" font-size="13" lengthAdjust="spacing" textLength="43" x="1834.5" y="618.0669">upload</text><!--MD5=[6149ca76d5a0a66a18c1d035a9055653]
reverse link User to Event--><path codeLine="120" d="M1921.99,449.335 C1927.64,508.389 1922.04,573.103 1886.5,622 C1851.08,670.7288 1771.88,677.5285 1735.04,677.9241 " fill="none" id="User-backto-Event-6" style="stroke:#A80036;stroke-width:1.0;"/><polygon fill="#FFFFFF" points="1920.53,436.043,1917.2111,442.4449,1921.844,447.9708,1925.163,441.5689,1920.53,436.043" style="stroke:#A80036;stroke-width:1.0;"/><text fill="#000000" font-family="sans-serif" font-size="13" lengthAdjust="spacing" textLength="56" x="1897.5" y="618.0669">maintain</text><!--MD5=[337e5993595d124d721fe55725397ce0]
link User to Lot--><path codeLine="96" d="M1846.4,309.764 C1762.02,348.575 1554.15,454.708 1439.5,605 C1428.64,619.232 1422.03,638.4044 1418.19,653.4586 " fill="none" id="User-to-Lot" style="stroke:#A80036;stroke-width:1.0;"/><polygon fill="#A80036" points="1417,658.393,1423.0048,650.5865,1418.1762,653.5333,1415.2293,648.7046,1417,658.393" style="stroke:#A80036;stroke-width:1.0;"/><text fill="#000000" font-family="sans-serif" font-size="13" lengthAdjust="spacing" textLength="26" x="1440.5" y="618.0669">free</text><!--MD5=[2a296c1e9d906f8978635dc9d2f5be85]
link User to Type--><path codeLine="97" d="M1920.77,297.479 C2105,317.726 2935.7,415.832 3590.5,605 C3644.34,620.5533 3658.3,625.176 3707.5,652 C3712.04,654.4747 3716.69,657.4172 3721.07,660.4087 " fill="none" id="User-to-Type" style="stroke:#A80036;stroke-width:1.0;"/><polygon fill="#A80036" points="3725.35,663.4012,3720.2741,654.9611,3721.255,660.5323,3715.6838,661.5131,3725.35,663.4012" style="stroke:#A80036;stroke-width:1.0;"/><text fill="#000000" font-family="sans-serif" font-size="13" lengthAdjust="spacing" textLength="47" x="3644.5" y="618.0669">change</text><!--MD5=[c0646aff05db046bf03bd07f9451b561]
link User to Picture--><path codeLine="98" d="M1846.4,295.73 C1642.79,308.803 663.689,382.738 485.5,605 C444.084,656.6597 715.756,672.6123 806.04,676.457 " fill="none" id="User-to-Picture" style="stroke:#A80036;stroke-width:1.0;"/><polygon fill="#A80036" points="811.216,676.6726,802.3907,672.3006,806.2204,676.464,802.057,680.2937,811.216,676.6726" style="stroke:#A80036;stroke-width:1.0;"/><text fill="#000000" font-family="sans-serif" font-size="13" lengthAdjust="spacing" textLength="39" x="486.5" y="618.0669">report</text><!--MD5=[c0646aff05db046bf03bd07f9451b561]
link User to Picture--><path codeLine="105" d="M1846.29,296.274 C1649.52,311.78 732.859,394.703 566.5,605 C561.812,610.9256 561.73,616.1407 566.5,622 C596.554,658.9153 743.738,672.0436 806.289,676.0061 " fill="none" id="User-to-Picture-1" style="stroke:#A80036;stroke-width:1.0;"/><polygon fill="#A80036" points="811.359,676.3189,802.623,671.7711,806.3685,676.0103,802.1293,679.7559,811.359,676.3189" style="stroke:#A80036;stroke-width:1.0;"/><text fill="#000000" font-family="sans-serif" font-size="13" lengthAdjust="spacing" textLength="21" x="567.5" y="618.0669">like</text><!--MD5=[c0646aff05db046bf03bd07f9451b561]
link User to Picture--><path codeLine="108" d="M1846.49,296.72 C1655.78,314.142 786.772,403.882 629.5,605 C582.132,665.5736 739.929,675.6531 806.39,677.2432 " fill="none" id="User-to-Picture-2" style="stroke:#A80036;stroke-width:1.0;"/><polygon fill="#A80036" points="811.393,677.3509,802.482,673.1564,806.3942,677.2423,802.3083,681.1545,811.393,677.3509" style="stroke:#A80036;stroke-width:1.0;"/><text fill="#000000" font-family="sans-serif" font-size="13" lengthAdjust="spacing" textLength="62" x="630.5" y="618.0669">comment</text><!--MD5=[c0646aff05db046bf03bd07f9451b561]
link User to Picture--><path codeLine="109" d="M1846.28,297.614 C1664.79,318.5 875.695,419.165 733.5,605 C709.963,635.7603 769.047,659.0193 806.49,670.1795 " fill="none" id="User-to-Picture-3" style="stroke:#A80036;stroke-width:1.0;"/><polygon fill="#A80036" points="811.393,671.6091,803.8729,665.2492,806.593,670.2091,801.633,672.9292,811.393,671.6091" style="stroke:#A80036;stroke-width:1.0;"/><text fill="#000000" font-family="sans-serif" font-size="13" lengthAdjust="spacing" textLength="56" x="734.5" y="618.0669">maintain</text><!--MD5=[c0646aff05db046bf03bd07f9451b561]
link User to Picture--><path codeLine="115" d="M1846.31,298.585 C1674.4,322.915 959.651,433.404 831.5,605 C821.341,618.6025 822.71,637.9752 826.284,653.2733 " fill="none" id="User-to-Picture-4" style="stroke:#A80036;stroke-width:1.0;"/><polygon fill="#A80036" points="827.567,658.2909,829.2122,648.5804,826.3281,653.4468,821.4616,650.5627,827.567,658.2909" style="stroke:#A80036;stroke-width:1.0;"/><text fill="#000000" font-family="sans-serif" font-size="13" lengthAdjust="spacing" textLength="25" x="832.5" y="618.0669">sort</text><!--MD5=[c0646aff05db046bf03bd07f9451b561]
link User to Picture--><path codeLine="125" d="M1846.5,297.955 C1710.07,315.798 1226.2,391.728 898.5,605 C878.949,617.7239 861.768,637.9915 850.144,653.8667 " fill="none" id="User-to-Picture-5" style="stroke:#A80036;stroke-width:1.0;"/><polygon fill="#A80036" points="847.015,658.2179,855.5164,653.2453,849.9337,654.1582,849.0208,648.5755,847.015,658.2179" style="stroke:#A80036;stroke-width:1.0;"/><text fill="#000000" font-family="sans-serif" font-size="13" lengthAdjust="spacing" textLength="43" x="899.5" y="618.0669">upload</text><!--MD5=[c0646aff05db046bf03bd07f9451b561]
link User to Picture--><path codeLine="132" d="M1846.48,304.564 C1722.53,341.973 1311.5,469.01 983.5,605 C977.407,607.5262 903.547,643.6544 862.163,663.9342 " fill="none" id="User-to-Picture-6" style="stroke:#A80036;stroke-width:1.0;"/><polygon fill="#A80036" points="857.528,666.2055,867.37,665.8374,862.018,664.0054,863.8499,658.6534,857.528,666.2055" style="stroke:#A80036;stroke-width:1.0;"/><text fill="#000000" font-family="sans-serif" font-size="13" lengthAdjust="spacing" textLength="62" x="984.5" y="618.0669">download</text><!--MD5=[c0646aff05db046bf03bd07f9451b561]
link User to Picture--><path codeLine="133" d="M1846.24,307.051 C1731.86,348.867 1376.05,480.58 1087.5,605 C1071.25,612.0059 1068.15,616.0028 1051.5,622 C985.408,645.8104 904.531,663.6542 862.651,672.0949 " fill="none" id="User-to-Picture-7" style="stroke:#A80036;stroke-width:1.0;"/><polygon fill="#A80036" points="857.74,673.0775,867.3494,675.2359,862.643,672.0975,865.7814,667.391,857.74,673.0775" style="stroke:#A80036;stroke-width:1.0;"/><text fill="#000000" font-family="sans-serif" font-size="13" lengthAdjust="spacing" textLength="23" x="1088.5" y="618.0669">see</text><!--MD5=[c0646aff05db046bf03bd07f9451b561]
link User to Picture--><path codeLine="134" d="M1846.26,312.814 C1737.08,368.694 1407.16,532.25 1116.5,622 C1025.7,650.0383 913.916,667.0763 862.632,673.9627 " fill="none" id="User-to-Picture-8" style="stroke:#A80036;stroke-width:1.0;"/><polygon fill="#A80036" points="857.565,674.6363,867.0142,677.4133,862.5213,673.9763,865.9583,669.4833,857.565,674.6363" style="stroke:#A80036;stroke-width:1.0;"/><text fill="#000000" font-family="sans-serif" font-size="13" lengthAdjust="spacing" textLength="43" x="1160.5" y="618.0669">review</text><!--MD5=[87c463e55ba9a05eb2c54f7e7fed640e]
link User to Time--><path codeLine="100" d="M1920.59,312.294 C2028.54,366.427 2352.85,525.005 2635.5,622 C2705.32,645.9602 2790.88,664.7943 2830.87,673.0102 " fill="none" id="User-to-Time" style="stroke:#A80036;stroke-width:1.0;"/><polygon fill="#A80036" points="2835.98,674.0521,2827.9618,668.3329,2831.081,673.0521,2826.3618,676.1713,2835.98,674.0521" style="stroke:#A80036;stroke-width:1.0;"/><text fill="#000000" font-family="sans-serif" font-size="13" lengthAdjust="spacing" textLength="43" x="2636.5" y="618.0669">upload</text><!--MD5=[87c463e55ba9a05eb2c54f7e7fed640e]
link User to Time--><path codeLine="116" d="M1920.6,306.871 C2035.29,348.429 2393.9,480.063 2684.5,605 C2700.76,611.9887 2704.33,614.8132 2720.5,622 C2759.03,639.1246 2804.46,657.7524 2831.02,668.4845 " fill="none" id="User-to-Time-1" style="stroke:#A80036;stroke-width:1.0;"/><polygon fill="#A80036" points="2835.75,670.3943,2828.9012,663.3166,2831.1134,668.5229,2825.907,670.7351,2835.75,670.3943" style="stroke:#A80036;stroke-width:1.0;"/><text fill="#000000" font-family="sans-serif" font-size="13" lengthAdjust="spacing" textLength="88" x="2721.5" y="618.0669">supported_by</text><!--MD5=[87c463e55ba9a05eb2c54f7e7fed640e]
link User to Time--><path codeLine="122" d="M1920.63,296.27 C2056.11,308.178 2530.66,365.89 2814.5,605 C2829.56,617.6843 2839.7,637.7095 2845.86,653.503 " fill="none" id="User-to-Time-2" style="stroke:#A80036;stroke-width:1.0;"/><polygon fill="#A80036" points="2847.65,658.2557,2848.2342,648.4242,2845.8939,653.5742,2840.7438,651.234,2847.65,658.2557" style="stroke:#A80036;stroke-width:1.0;"/><text fill="#000000" font-family="sans-serif" font-size="13" lengthAdjust="spacing" textLength="43" x="2830.5" y="618.0669">review</text><!--MD5=[87c463e55ba9a05eb2c54f7e7fed640e]
link User to Time--><path codeLine="127" d="M1920.77,299.202 C2087.5,325.533 2761.92,441.101 2882.5,605 C2893.37,619.7724 2884.65,639.1778 2874.01,654.1944 " fill="none" id="User-to-Time-3" style="stroke:#A80036;stroke-width:1.0;"/><polygon fill="#A80036" points="2870.98,658.306,2879.5406,653.4361,2873.9473,654.2817,2873.1017,648.6884,2870.98,658.306" style="stroke:#A80036;stroke-width:1.0;"/><text fill="#000000" font-family="sans-serif" font-size="13" lengthAdjust="spacing" textLength="31" x="2888.5" y="618.0669">save</text><!--MD5=[87c463e55ba9a05eb2c54f7e7fed640e]
link User to Time--><path codeLine="135" d="M1920.73,298.667 C2092.02,323.266 2801.36,434.432 2928.5,605 C2947.63,630.6675 2904.58,655.4565 2876.1,668.3415 " fill="none" id="User-to-Time-4" style="stroke:#A80036;stroke-width:1.0;"/><polygon fill="#A80036" points="2871.32,670.4561,2881.1689,670.4628,2875.8904,668.4285,2877.9248,663.1501,2871.32,670.4561" style="stroke:#A80036;stroke-width:1.0;"/><text fill="#000000" font-family="sans-serif" font-size="13" lengthAdjust="spacing" textLength="62" x="2934.5" y="618.0669">download</text><!--MD5=[4404c8c6464c50685a1ca567a7961ccf]
link User to Charge--><path codeLine="101" d="M1920.65,300.931 C2073.05,331.791 2664.6,455.254 3137.5,605 C3194.21,622.9569 3258.5,649.2323 3295.01,664.7281 " fill="none" id="User-to-Charge" style="stroke:#A80036;stroke-width:1.0;"/><polygon fill="#A80036" points="3299.75,666.7484,3293.0342,659.5444,3295.1491,664.791,3289.9024,666.9059,3299.75,666.7484" style="stroke:#A80036;stroke-width:1.0;"/><text fill="#000000" font-family="sans-serif" font-size="13" lengthAdjust="spacing" textLength="88" x="3185.5" y="618.0669">supported_by</text><!--MD5=[4404c8c6464c50685a1ca567a7961ccf]
link User to Charge--><path codeLine="118" d="M1920.52,297.694 C2118.66,320.727 3053.19,436.961 3282.5,605 C3298.88,616.9998 3309.88,637.4633 3316.5,653.5958 " fill="none" id="User-to-Charge-1" style="stroke:#A80036;stroke-width:1.0;"/><polygon fill="#A80036" points="3318.42,658.4492,3318.8412,648.6094,3316.5866,653.7975,3311.3984,651.5428,3318.42,658.4492" style="stroke:#A80036;stroke-width:1.0;"/><text fill="#000000" font-family="sans-serif" font-size="13" lengthAdjust="spacing" textLength="45" x="3299.5" y="618.0669">extend</text><!--MD5=[7b2cc10021c78df6ad31ab9f1eb0cd12]
reverse link User to Computer--><path codeLine="102" d="M1832.88,295.764 C1575.03,308.276 409.603,376.89 146.5,605 C131.173,618.2886 125.594,641.5896 123.586,658.1885 " fill="none" id="User-backto-Computer" style="stroke:#A80036;stroke-width:1.0;"/><polygon fill="#FFFFFF" points="1846.18,295.13,1839.9977,291.418,1834.1934,295.697,1840.3757,299.409,1846.18,295.13" style="stroke:#A80036;stroke-width:1.0;"/><text fill="#000000" font-family="sans-serif" font-size="13" lengthAdjust="spacing" textLength="62" x="147.5" y="618.0669">download</text><!--MD5=[9d049782a8d404ed70739ae076a2757a]
reverse link User to Record--><path codeLine="103" d="M1933.76,300.979 C2095.74,326.412 2616.19,418.525 3005.5,605 C3035.09,619.173 3065.15,642.0746 3084.69,658.3431 " fill="none" id="User-backto-Record" style="stroke:#A80036;stroke-width:1.0;"/><polygon fill="#FFFFFF" points="1920.52,298.925,1925.8385,303.7947,1932.3791,300.7582,1927.0606,295.8886,1920.52,298.925" style="stroke:#A80036;stroke-width:1.0;"/><text fill="#000000" font-family="sans-serif" font-size="13" lengthAdjust="spacing" textLength="31" x="3036.5" y="618.0669">keep</text><!--MD5=[6f53ebcf3bfbf297d2fe64c9c62424b6]
link User to Resolutionpicture--><path codeLine="110" d="M1846.39,294.346 C1621.18,300.323 440.122,343.948 223.5,605 C210.247,620.971 225.104,640.3876 241.988,655.106 " fill="none" id="User-to-Resolutionpicture" style="stroke:#A80036;stroke-width:1.0;"/><polygon fill="#A80036" points="245.843,658.3614,241.5475,649.4986,242.0229,655.1355,236.386,655.6108,245.843,658.3614" style="stroke:#A80036;stroke-width:1.0;"/><text fill="#000000" font-family="sans-serif" font-size="13" lengthAdjust="spacing" textLength="43" x="224.5" y="618.0669">upload</text><!--MD5=[6f53ebcf3bfbf297d2fe64c9c62424b6]
link User to Resolutionpicture--><path codeLine="123" d="M1846.34,294.202 C1669.91,298.892 902.702,334.654 356.5,605 C332.156,617.0492 309.287,638.0311 293.743,654.3326 " fill="none" id="User-to-Resolutionpicture-1" style="stroke:#A80036;stroke-width:1.0;"/><polygon fill="#A80036" points="289.953,658.3679,299.0296,654.5448,293.3755,654.7229,293.1975,649.0688,289.953,658.3679" style="stroke:#A80036;stroke-width:1.0;"/><text fill="#000000" font-family="sans-serif" font-size="13" lengthAdjust="spacing" textLength="62" x="357.5" y="618.0669">download</text><!--MD5=[2056f4143e66249b9ba884e6539150ca]
link User to Qualitypicture--><path codeLine="111" d="M1920.68,295.666 C2112.76,307.709 3010.26,374.455 3700.5,605 C3738.54,617.7058 3778.95,639.4342 3806.72,655.7987 " fill="none" id="User-to-Qualitypicture" style="stroke:#A80036;stroke-width:1.0;"/><polygon fill="#A80036" points="3811.06,658.3768,3805.369,650.3386,3806.7625,655.8211,3801.28,657.2146,3811.06,658.3768" style="stroke:#A80036;stroke-width:1.0;"/><text fill="#000000" font-family="sans-serif" font-size="13" lengthAdjust="spacing" textLength="43" x="3742.5" y="618.0669">review</text><!--MD5=[2989f9bb73787ec941ba5d8ade3f1d68]
reverse link User to Eventexit--><path codeLine="112" d="M1933.57,301.25 C2100.76,328.23 2653.09,426.264 3076.5,605 C3110.58,619.3884 3146.5,642.2497 3170.05,658.4498 " fill="none" id="User-backto-Eventexit" style="stroke:#A80036;stroke-width:1.0;"/><polygon fill="#FFFFFF" points="1920.62,299.179,1925.9115,304.078,1932.4688,301.0778,1927.1773,296.1788,1920.62,299.179" style="stroke:#A80036;stroke-width:1.0;"/><text fill="#000000" font-family="sans-serif" font-size="13" lengthAdjust="spacing" textLength="16" x="3112.5" y="618.0669">let</text><!--MD5=[ab617967845c95780f2f718173343d1e]
reverse link User to Felling--><path codeLine="114" d="M1833.37,296.565 C1572.82,313.31 373.676,400.573 73.5,605 C54.7591,617.763 42.6432,641.4066 35.9636,658.2215 " fill="none" id="User-backto-Felling" style="stroke:#A80036;stroke-width:1.0;"/><polygon fill="#FFFFFF" points="1846.45,295.734,1840.2073,292.1245,1834.4744,296.4988,1840.7171,300.1083,1846.45,295.734" style="stroke:#A80036;stroke-width:1.0;"/><text fill="#000000" font-family="sans-serif" font-size="13" lengthAdjust="spacing" textLength="51" x="74.5" y="618.0669">express</text><!--MD5=[bf6920a7c0d430d525e3e458e95f72ca]
reverse link User to Password--><path codeLine="117" d="M1926.02,400.435 C1956.97,469.106 2003.87,557.233 2063.5,622 C2078.18,637.9455 2098.35,651.4652 2115.24,661.1679 " fill="none" id="User-backto-Password" style="stroke:#A80036;stroke-width:1.0;"/><polygon fill="#FFFFFF" points="1920.61,388.285,1919.3949,395.393,1925.4888,399.2485,1926.7039,392.1405,1920.61,388.285" style="stroke:#A80036;stroke-width:1.0;"/><text fill="#000000" font-family="sans-serif" font-size="13" lengthAdjust="spacing" textLength="39" x="2064.5" y="618.0669">forget</text><!--MD5=[bf6920a7c0d430d525e3e458e95f72ca]
reverse link User to Password--><path codeLine="121" d="M1928.8,351.313 C1976.03,412.676 2051.04,513.262 2108.5,605 C2119.5,622.5636 2130.55,643.4901 2138.07,658.3353 " fill="none" id="User-backto-Password-1" style="stroke:#A80036;stroke-width:1.0;"/><polygon fill="#FFFFFF" points="1920.6,340.694,1921.1019,347.8876,1927.9352,350.1911,1927.4333,342.9975,1920.6,340.694" style="stroke:#A80036;stroke-width:1.0;"/><text fill="#000000" font-family="sans-serif" font-size="13" lengthAdjust="spacing" textLength="33" x="2119.5" y="618.0669">reset</text><!--MD5=[bf6920a7c0d430d525e3e458e95f72ca]
reverse link User to Password--><path codeLine="136" d="M1931.24,328.159 C1997.73,379.738 2115.26,483.745 2161.5,605 C2168.12,622.3681 2162.75,643.3205 2156.85,658.225 " fill="none" id="User-backto-Password-2" style="stroke:#A80036;stroke-width:1.0;"/><polygon fill="#FFFFFF" points="1920.63,320.038,1922.9638,326.861,1930.1596,327.3309,1927.8258,320.5079,1920.63,320.038" style="stroke:#A80036;stroke-width:1.0;"/><text fill="#000000" font-family="sans-serif" font-size="13" lengthAdjust="spacing" textLength="34" x="2165.5" y="618.0669">enter</text><!--MD5=[6f3304a8bbf6f49207b94ef31783336e]
link User to FacebookAccount--><path codeLine="119" d="M1920.81,316.633 C2009.11,371.191 2238.14,511.616 2433.5,622 C2453.87,633.5087 2476.78,645.8056 2495.91,655.8921 " fill="none" id="User-to-FacebookAccount" style="stroke:#A80036;stroke-width:1.0;"/><polygon fill="#A80036" points="2500.69,658.407,2494.5887,650.6756,2496.2654,656.0783,2490.8628,657.755,2500.69,658.407" style="stroke:#A80036;stroke-width:1.0;"/><text fill="#000000" font-family="sans-serif" font-size="13" lengthAdjust="spacing" textLength="88" x="2434.5" y="618.0669">supported_by</text><!--MD5=[6f3304a8bbf6f49207b94ef31783336e]
link User to FacebookAccount--><path codeLine="131" d="M1920.71,299.138 C2033.43,318.346 2372.84,392.292 2527.5,605 C2537.48,618.729 2539.77,637.8729 2539.67,653.0412 " fill="none" id="User-to-FacebookAccount-1" style="stroke:#A80036;stroke-width:1.0;"/><polygon fill="#A80036" points="2539.54,658.4323,2543.7615,649.5341,2539.6637,653.4338,2535.764,649.3361,2539.54,658.4323" style="stroke:#A80036;stroke-width:1.0;"/><text fill="#000000" font-family="sans-serif" font-size="13" lengthAdjust="spacing" textLength="30" x="2536.5" y="618.0669">login</text><!--MD5=[ec4c93e45963a154c97e3947d19a9663]
link User to Browser--><path codeLine="124" d="M1920.6,328.938 C1999.37,404.18 2182.05,578.679 2254.8,648.1737 " fill="none" id="User-to-Browser" style="stroke:#A80036;stroke-width:1.0;"/><polygon fill="#A80036" points="2258.6,651.802,2254.8595,642.6911,2254.9862,648.3465,2249.3307,648.4732,2258.6,651.802" style="stroke:#A80036;stroke-width:1.0;"/><text fill="#000000" font-family="sans-serif" font-size="13" lengthAdjust="spacing" textLength="23" x="2228.5" y="618.0669">use</text><!--MD5=[e0ebca121273885364fa8679885dc51a]
link User to Register--><path codeLine="126" d="M1920.51,294.995 C2092.17,303.19 2824.88,352.121 3353.5,605 C3379.24,617.3132 3404.03,638.53 3420.87,654.8403 " fill="none" id="User-to-Register" style="stroke:#A80036;stroke-width:1.0;"/><polygon fill="#A80036" points="3424.56,658.4508,3420.9325,649.2943,3420.9892,654.9509,3415.3326,655.0076,3424.56,658.4508" style="stroke:#A80036;stroke-width:1.0;"/><text fill="#000000" font-family="sans-serif" font-size="13" lengthAdjust="spacing" textLength="32" x="3381.5" y="618.0669">need</text><!--MD5=[6fea909be8e544bd2185a06b3c5377ba]
reverse link User to Storage--><path codeLine="128" d="M1930.95,330.459 C2033.86,410.617 2274.54,598.086 2352.01,658.4266 " fill="none" id="User-backto-Storage" style="stroke:#A80036;stroke-width:1.0;"/><polygon fill="#FFFFFF" points="1920.56,322.362,1922.8366,329.2043,1930.0282,329.7345,1927.7516,322.8922,1920.56,322.362" style="stroke:#A80036;stroke-width:1.0;"/><text fill="#000000" font-family="sans-serif" font-size="13" lengthAdjust="spacing" textLength="31" x="2306.5" y="618.0669">save</text><!--MD5=[a36eca77d1d238c04c5e1c39abdc6b68]
reverse link User to Privacy--><path codeLine="129" d="M1833.22,297.806 C1603.52,318.425 655.742,414.047 440.5,605 C425.262,618.5187 419.308,641.7748 416.984,658.3003 " fill="none" id="User-backto-Privacy" style="stroke:#A80036;stroke-width:1.0;"/><polygon fill="#FFFFFF" points="1846.39,296.636,1840.0578,293.1859,1834.4376,297.704,1840.7698,301.1541,1846.39,296.636" style="stroke:#A80036;stroke-width:1.0;"/><text fill="#000000" font-family="sans-serif" font-size="13" lengthAdjust="spacing" textLength="31" x="441.5" y="618.0669">keep</text><!--MD5=[2dd21c5e4d24a00e804d12dd0c7b0d9f]
link User to Comment--><path codeLine="130" d="M1920.69,296.061 C2095.77,309.122 2853.14,376.864 3422.5,605 C3454.06,617.6441 3486.51,639.0108 3508.86,655.2821 " fill="none" id="User-to-Comment" style="stroke:#A80036;stroke-width:1.0;"/><polygon fill="#A80036" points="3512.91,658.2578,3508.0395,649.6975,3508.8855,655.2907,3503.2923,656.1367,3512.91,658.2578" style="stroke:#A80036;stroke-width:1.0;"/><text fill="#000000" font-family="sans-serif" font-size="13" lengthAdjust="spacing" textLength="36" x="3457.5" y="618.0669">make</text><!--MD5=[99bb670aff7d8cd7d90f0c6cca3407ea]
link User to Size--><path codeLine="137" d="M1846.45,309.868 C1752.43,352.168 1498.6,471.207 1308.5,605 C1290.29,617.8175 1271.66,634.2224 1256.86,648.1844 " fill="none" id="User-to-Size" style="stroke:#A80036;stroke-width:1.0;"/><polygon fill="#A80036" points="1253.18,651.6778,1262.4602,648.3797,1256.8052,648.2343,1256.9506,642.5793,1253.18,651.6778" style="stroke:#A80036;stroke-width:1.0;"/><text fill="#000000" font-family="sans-serif" font-size="13" lengthAdjust="spacing" textLength="46" x="1309.5" y="618.0669">choose</text><!--MD5=[4029edbcfa7f7141e9b5bda73b72a78f]
@startuml
hide circle
class User<actor> {
	phone
	storage
	eventexit
	record
	event
	felling
	privacy
	computer
	password
}
class User {
	review()
	maintain()
	keep()
	enter()
	change()
	reset()
	make()
	need()
	download()
	sort()
	choose()
	report()
	use()
	forget()
	let()
	share()
	save()
	delete()
	log()
	comment()
	upload()
	like()
	express()
	free()
	look()
	search()
	see()
	find()
	create()
	login()
	extend()
	want()
}
class Felling {
}
class Computer {
}
class Resolutionpicture {
}
class Privacy {
}
class Picture {
}
class Size {
	download()
}
class Popularity {
}
class Lot {
}
class Event {
}
class Password {
}
class Browser {
	visit()
}
class Storage {
}
class FacebookAccount {
}
class Time {
}
class Record {
}
class Eventexit {
}
class Charge {
}
class Register {
}
class Comment {
}
class PictureOwner {
}
class Type {
}
class Qualitypicture {
}
User - -> Popularity : review
User - -> PictureOwner : make
User o- - Event : delete
User - -> Lot : free
User - -> Type : change
User - -> Picture : report
User o- - Event : extend
User - -> Time : upload
User - -> Charge : supported_by
User o- - Computer : download
User o- - Record : keep
User o- - Event : see
User - -> Picture : like
User o- - Event : search
User o- - Event : create
User - -> Picture : comment
User - -> Picture : maintain
User - -> Resolutionpicture : upload
User - -> Qualitypicture : review
User o- - Eventexit : let
User o- - Event : upload
User o- - Felling : express
User - -> Picture : sort
User - -> Time : supported_by
User o- - Password : forget
User - -> Charge : extend
User - -> FacebookAccount : supported_by
User o- - Event : maintain
User o- - Password : reset
User - -> Time : review
User - -> Resolutionpicture : download
User - -> Browser : use
User - -> Picture : upload
User - -> Register : need
User - -> Time : save
User o- - Storage : save
User o- - Privacy : keep
User - -> Comment : make
User - -> FacebookAccount : login
User - -> Picture : download
User - -> Picture : see
User - -> Picture : review
User - -> Time : download
User o- - Password : enter
User - -> Size : choose
@enduml

PlantUML version 1.2021.9beta2(Unknown compile time)
(GPL source distribution)
Java Runtime: Java(TM) SE Runtime Environment
JVM: Java HotSpot(TM) 64-Bit Server VM
Default Encoding: UTF-8
Language: en
Country: US
--></g></svg>