<?xml version="1.0" encoding="UTF-8" standalone="no"?><svg xmlns="http://www.w3.org/2000/svg" xmlns:xlink="http://www.w3.org/1999/xlink" contentScriptType="application/ecmascript" contentStyleType="text/css" height="563px" preserveAspectRatio="none" style="width:2737px;height:563px;background:#FFFFFF;" version="1.1" viewBox="0 0 2737 563" width="2737px" zoomAndPan="magnify"><defs><filter height="300%" id="f5brxt09gzr4h" width="300%" x="-1" y="-1"><feGaussianBlur result="blurOut" stdDeviation="2.0"/><feColorMatrix in="blurOut" result="blurOut2" type="matrix" values="0 0 0 0 0 0 0 0 0 0 0 0 0 0 0 0 0 0 .4 0"/><feOffset dx="4.0" dy="4.0" in="blurOut2" result="blurOut3"/><feBlend in="SourceGraphic" in2="blurOut3" mode="normal"/></filter></defs><g><!--MD5=[3fd616f346a44cd59a91eb10b19e157c]
class User--><rect codeLine="38" fill="#FEFECE" filter="url(#f5brxt09gzr4h)" height="308.8672" id="User" style="stroke:#A80036;stroke-width:1.5;" width="70" x="772" y="10"/><text fill="#000000" font-family="sans-serif" font-size="12" lengthAdjust="spacing" textLength="29" x="775" y="26.1387">User</text><rect fill="#FFFFFF" height="15.9688" style="stroke:#000000;stroke-width:1.0;stroke-dasharray:2.0,2.0;" width="33" x="812" y="7"/><text fill="#000000" font-family="sans-serif" font-size="12" font-style="italic" lengthAdjust="spacing" textLength="31" x="813" y="19.1387">actor</text><line style="stroke:#A80036;stroke-width:1.5;" x1="773" x2="841" y1="33.9688" y2="33.9688"/><text fill="#000000" font-family="sans-serif" font-size="11" lengthAdjust="spacing" textLength="52" x="778" y="48.1792">schedule</text><text fill="#000000" font-family="sans-serif" font-size="11" lengthAdjust="spacing" textLength="44" x="778" y="60.9839">account</text><text fill="#000000" font-family="sans-serif" font-size="11" lengthAdjust="spacing" textLength="44" x="778" y="73.7886">location</text><text fill="#000000" font-family="sans-serif" font-size="11" lengthAdjust="spacing" textLength="36" x="778" y="86.5933">metric</text><line style="stroke:#A80036;stroke-width:1.5;" x1="773" x2="841" y1="93.1875" y2="93.1875"/><text fill="#000000" font-family="sans-serif" font-size="11" lengthAdjust="spacing" textLength="45" x="778" y="107.3979">create()</text><text fill="#000000" font-family="sans-serif" font-size="11" lengthAdjust="spacing" textLength="31" x="778" y="120.2026">feel()</text><text fill="#000000" font-family="sans-serif" font-size="11" lengthAdjust="spacing" textLength="41" x="778" y="133.0073">watch()</text><text fill="#000000" font-family="sans-serif" font-size="11" lengthAdjust="spacing" textLength="29" x="778" y="145.812">use()</text><text fill="#000000" font-family="sans-serif" font-size="11" lengthAdjust="spacing" textLength="47" x="778" y="158.6167">modify()</text><text fill="#000000" font-family="sans-serif" font-size="11" lengthAdjust="spacing" textLength="35" x="778" y="171.4214">view()</text><text fill="#000000" font-family="sans-serif" font-size="11" lengthAdjust="spacing" textLength="47" x="778" y="184.2261">access()</text><text fill="#000000" font-family="sans-serif" font-size="11" lengthAdjust="spacing" textLength="50" x="778" y="197.0308">change()</text><text fill="#000000" font-family="sans-serif" font-size="11" lengthAdjust="spacing" textLength="40" x="778" y="209.8354">share()</text><text fill="#000000" font-family="sans-serif" font-size="11" lengthAdjust="spacing" textLength="37" x="778" y="222.6401">know()</text><text fill="#000000" font-family="sans-serif" font-size="11" lengthAdjust="spacing" textLength="51" x="778" y="235.4448">identify()</text><text fill="#000000" font-family="sans-serif" font-size="11" lengthAdjust="spacing" textLength="44" x="778" y="248.2495">toggle()</text><text fill="#000000" font-family="sans-serif" font-size="11" lengthAdjust="spacing" textLength="26" x="778" y="261.0542">opt()</text><text fill="#000000" font-family="sans-serif" font-size="11" lengthAdjust="spacing" textLength="52" x="778" y="273.8589">receive()</text><text fill="#000000" font-family="sans-serif" font-size="11" lengthAdjust="spacing" textLength="36" x="778" y="286.6636">wear()</text><text fill="#000000" font-family="sans-serif" font-size="11" lengthAdjust="spacing" textLength="22" x="778" y="299.4683">do()</text><text fill="#000000" font-family="sans-serif" font-size="11" lengthAdjust="spacing" textLength="49" x="778" y="312.2729">disable()</text><!--MD5=[db6d18d8099558415abc41d00477ab92]
class Admin--><rect codeLine="29" fill="#FEFECE" filter="url(#f5brxt09gzr4h)" height="129.6016" id="Admin" style="stroke:#A80036;stroke-width:1.5;" width="78" x="1793" y="99.5"/><text fill="#000000" font-family="sans-serif" font-size="12" lengthAdjust="spacing" textLength="37" x="1796" y="115.6387">Admin</text><rect fill="#FFFFFF" height="15.9688" style="stroke:#000000;stroke-width:1.0;stroke-dasharray:2.0,2.0;" width="33" x="1841" y="96.5"/><text fill="#000000" font-family="sans-serif" font-size="12" font-style="italic" lengthAdjust="spacing" textLength="31" x="1842" y="108.6387">actor</text><line style="stroke:#A80036;stroke-width:1.5;" x1="1794" x2="1870" y1="123.4688" y2="123.4688"/><line style="stroke:#A80036;stroke-width:1.5;" x1="1794" x2="1870" y1="131.4688" y2="131.4688"/><text fill="#000000" font-family="sans-serif" font-size="11" lengthAdjust="spacing" textLength="45" x="1799" y="145.6792">define()</text><text fill="#000000" font-family="sans-serif" font-size="11" lengthAdjust="spacing" textLength="45" x="1799" y="158.4839">create()</text><text fill="#000000" font-family="sans-serif" font-size="11" lengthAdjust="spacing" textLength="47" x="1799" y="171.2886">access()</text><text fill="#000000" font-family="sans-serif" font-size="11" lengthAdjust="spacing" textLength="29" x="1799" y="184.0933">add()</text><text fill="#000000" font-family="sans-serif" font-size="11" lengthAdjust="spacing" textLength="30" x="1799" y="196.8979">see()</text><text fill="#000000" font-family="sans-serif" font-size="11" lengthAdjust="spacing" textLength="46" x="1799" y="209.7026">upload()</text><text fill="#000000" font-family="sans-serif" font-size="11" lengthAdjust="spacing" textLength="46" x="1799" y="222.5073">delete()</text><!--MD5=[847e87e7264efe5893507b2587467ebf]
class FarmContractor--><rect codeLine="103" fill="#FEFECE" filter="url(#f5brxt09gzr4h)" height="39.9688" id="FarmContractor" style="stroke:#A80036;stroke-width:1.5;" width="134" x="2250" y="144.5"/><text fill="#000000" font-family="sans-serif" font-size="12" lengthAdjust="spacing" textLength="93" x="2253" y="160.6387">FarmContractor</text><rect fill="#FFFFFF" height="15.9688" style="stroke:#000000;stroke-width:1.0;stroke-dasharray:2.0,2.0;" width="33" x="2354" y="141.5"/><text fill="#000000" font-family="sans-serif" font-size="12" font-style="italic" lengthAdjust="spacing" textLength="31" x="2355" y="153.6387">actor</text><line style="stroke:#A80036;stroke-width:1.5;" x1="2251" x2="2383" y1="168.4688" y2="168.4688"/><line style="stroke:#A80036;stroke-width:1.5;" x1="2251" x2="2383" y1="176.4688" y2="176.4688"/><!--MD5=[32f29d0a8b98848dec61f11fa636792c]
class FarmManager--><rect codeLine="101" fill="#FEFECE" filter="url(#f5brxt09gzr4h)" height="39.9688" id="FarmManager" style="stroke:#A80036;stroke-width:1.5;" width="123" x="2490.5" y="144.5"/><text fill="#000000" font-family="sans-serif" font-size="12" lengthAdjust="spacing" textLength="82" x="2493.5" y="160.6387">FarmManager</text><rect fill="#FFFFFF" height="15.9688" style="stroke:#000000;stroke-width:1.0;stroke-dasharray:2.0,2.0;" width="33" x="2583.5" y="141.5"/><text fill="#000000" font-family="sans-serif" font-size="12" font-style="italic" lengthAdjust="spacing" textLength="31" x="2584.5" y="153.6387">actor</text><line style="stroke:#A80036;stroke-width:1.5;" x1="2491.5" x2="2612.5" y1="168.4688" y2="168.4688"/><line style="stroke:#A80036;stroke-width:1.5;" x1="2491.5" x2="2612.5" y1="176.4688" y2="176.4688"/><!--MD5=[51459b575c2b6935d6ab8ee57e43f094]
class Tommorow--><rect codeLine="14" fill="#FEFECE" filter="url(#f5brxt09gzr4h)" height="52.7734" id="Tommorow" style="stroke:#A80036;stroke-width:1.5;" width="74" x="2649" y="138"/><text fill="#000000" font-family="sans-serif" font-size="12" lengthAdjust="spacing" textLength="68" x="2652" y="154.1387">Tommorow</text><line style="stroke:#A80036;stroke-width:1.5;" x1="2650" x2="2722" y1="161.9688" y2="161.9688"/><text fill="#000000" font-family="sans-serif" font-size="11" lengthAdjust="spacing" textLength="47" x="2655" y="176.1792">weather</text><line style="stroke:#A80036;stroke-width:1.5;" x1="2650" x2="2722" y1="182.7734" y2="182.7734"/><!--MD5=[6977e2dceb465ed033a5dc19294ac2f5]
class Farm--><rect codeLine="17" fill="#FEFECE" filter="url(#f5brxt09gzr4h)" height="39.9688" id="Farm" style="stroke:#A80036;stroke-width:1.5;" width="36" x="2419" y="144.5"/><text fill="#000000" font-family="sans-serif" font-size="12" lengthAdjust="spacing" textLength="30" x="2422" y="160.6387">Farm</text><line style="stroke:#A80036;stroke-width:1.5;" x1="2420" x2="2454" y1="168.4688" y2="168.4688"/><line style="stroke:#A80036;stroke-width:1.5;" x1="2420" x2="2454" y1="176.4688" y2="176.4688"/><!--MD5=[b24ed8d4ae84bae9290d9aab401637c7]
class Manager--><rect codeLine="19" fill="#FEFECE" filter="url(#f5brxt09gzr4h)" height="52.7734" id="Manager" style="stroke:#A80036;stroke-width:1.5;" width="58" x="2466" y="396"/><text fill="#000000" font-family="sans-serif" font-size="12" lengthAdjust="spacing" textLength="52" x="2469" y="412.1387">Manager</text><line style="stroke:#A80036;stroke-width:1.5;" x1="2467" x2="2523" y1="419.9688" y2="419.9688"/><line style="stroke:#A80036;stroke-width:1.5;" x1="2467" x2="2523" y1="427.9688" y2="427.9688"/><text fill="#000000" font-family="sans-serif" font-size="11" lengthAdjust="spacing" textLength="46" x="2472" y="442.1792">search()</text><!--MD5=[5cebc918a8b8f2d1be5940e92c560bfd]
class Contractor--><rect codeLine="22" fill="#FEFECE" filter="url(#f5brxt09gzr4h)" height="52.7734" id="Contractor" style="stroke:#A80036;stroke-width:1.5;" width="69" x="2309.5" y="396"/><text fill="#000000" font-family="sans-serif" font-size="12" lengthAdjust="spacing" textLength="63" x="2312.5" y="412.1387">Contractor</text><line style="stroke:#A80036;stroke-width:1.5;" x1="2310.5" x2="2377.5" y1="419.9688" y2="419.9688"/><line style="stroke:#A80036;stroke-width:1.5;" x1="2310.5" x2="2377.5" y1="427.9688" y2="427.9688"/><text fill="#000000" font-family="sans-serif" font-size="11" lengthAdjust="spacing" textLength="46" x="2315.5" y="442.1792">search()</text><!--MD5=[ca71139d222feb1a17fd1a311ff658d0]
class Tone--><rect codeLine="25" fill="#FEFECE" filter="url(#f5brxt09gzr4h)" height="39.9688" id="Tone" style="stroke:#A80036;stroke-width:1.5;" width="36" x="95" y="510"/><text fill="#000000" font-family="sans-serif" font-size="12" lengthAdjust="spacing" textLength="30" x="98" y="526.1387">Tone</text><line style="stroke:#A80036;stroke-width:1.5;" x1="96" x2="130" y1="533.9688" y2="533.9688"/><line style="stroke:#A80036;stroke-width:1.5;" x1="96" x2="130" y1="541.9688" y2="541.9688"/><!--MD5=[60c9ed31c535bee25c55ce21b5b01399]
class Data--><rect codeLine="27" fill="#FEFECE" filter="url(#f5brxt09gzr4h)" height="39.9688" id="Data" style="stroke:#A80036;stroke-width:1.5;" width="33" x="1382.5" y="510"/><text fill="#000000" font-family="sans-serif" font-size="12" lengthAdjust="spacing" textLength="27" x="1385.5" y="526.1387">Data</text><line style="stroke:#A80036;stroke-width:1.5;" x1="1383.5" x2="1414.5" y1="533.9688" y2="533.9688"/><line style="stroke:#A80036;stroke-width:1.5;" x1="1383.5" x2="1414.5" y1="541.9688" y2="541.9688"/><!--MD5=[335f4d9be48430461c68bf6d6fdba145]
class App--><rect codeLine="57" fill="#FEFECE" filter="url(#f5brxt09gzr4h)" height="52.7734" id="App" style="stroke:#A80036;stroke-width:1.5;" width="39" x="1418.5" y="138"/><text fill="#000000" font-family="sans-serif" font-size="12" lengthAdjust="spacing" textLength="24" x="1426" y="154.1387">App</text><line style="stroke:#A80036;stroke-width:1.5;" x1="1419.5" x2="1456.5" y1="161.9688" y2="161.9688"/><line style="stroke:#A80036;stroke-width:1.5;" x1="1419.5" x2="1456.5" y1="169.9688" y2="169.9688"/><text fill="#000000" font-family="sans-serif" font-size="11" lengthAdjust="spacing" textLength="27" x="1424.5" y="184.1792">get()</text><!--MD5=[30fd7b95ab383a5e7c83ea23d4ea0fbf]
class Information--><rect codeLine="60" fill="#FEFECE" filter="url(#f5brxt09gzr4h)" height="39.9688" id="Information" style="stroke:#A80036;stroke-width:1.5;" width="73" x="1364.5" y="402.5"/><text fill="#000000" font-family="sans-serif" font-size="12" lengthAdjust="spacing" textLength="67" x="1367.5" y="418.6387">Information</text><line style="stroke:#A80036;stroke-width:1.5;" x1="1365.5" x2="1436.5" y1="426.4688" y2="426.4688"/><line style="stroke:#A80036;stroke-width:1.5;" x1="1365.5" x2="1436.5" y1="434.4688" y2="434.4688"/><!--MD5=[4f1f3706c1a355a8488e154afcaed5df]
class Location--><rect codeLine="62" fill="#FEFECE" filter="url(#f5brxt09gzr4h)" height="39.9688" id="Location" style="stroke:#A80036;stroke-width:1.5;" width="56" x="233" y="402.5"/><text fill="#000000" font-family="sans-serif" font-size="12" lengthAdjust="spacing" textLength="50" x="236" y="418.6387">Location</text><line style="stroke:#A80036;stroke-width:1.5;" x1="234" x2="288" y1="426.4688" y2="426.4688"/><line style="stroke:#A80036;stroke-width:1.5;" x1="234" x2="288" y1="434.4688" y2="434.4688"/><!--MD5=[5756c407c546eb76320546df130f846f]
class TextMessage--><rect codeLine="64" fill="#FEFECE" filter="url(#f5brxt09gzr4h)" height="52.7734" id="TextMessage" style="stroke:#A80036;stroke-width:1.5;" width="87" x="2127.5" y="138"/><text fill="#000000" font-family="sans-serif" font-size="12" lengthAdjust="spacing" textLength="81" x="2130.5" y="154.1387">TextMessage</text><line style="stroke:#A80036;stroke-width:1.5;" x1="2128.5" x2="2213.5" y1="161.9688" y2="161.9688"/><line style="stroke:#A80036;stroke-width:1.5;" x1="2128.5" x2="2213.5" y1="169.9688" y2="169.9688"/><text fill="#000000" font-family="sans-serif" font-size="11" lengthAdjust="spacing" textLength="52" x="2133.5" y="184.1792">receive()</text><!--MD5=[fd7366e9f96236d9aa60dcc04f2b83e5]
class Content--><rect codeLine="67" fill="#FEFECE" filter="url(#f5brxt09gzr4h)" height="39.9688" id="Content" style="stroke:#A80036;stroke-width:1.5;" width="52" x="2126" y="402.5"/><text fill="#000000" font-family="sans-serif" font-size="12" lengthAdjust="spacing" textLength="46" x="2129" y="418.6387">Content</text><line style="stroke:#A80036;stroke-width:1.5;" x1="2127" x2="2177" y1="426.4688" y2="426.4688"/><line style="stroke:#A80036;stroke-width:1.5;" x1="2127" x2="2177" y1="434.4688" y2="434.4688"/><!--MD5=[90d32ccc189f11441a6ce7cbb63ad387]
class Material--><rect codeLine="69" fill="#FEFECE" filter="url(#f5brxt09gzr4h)" height="39.9688" id="Material" style="stroke:#A80036;stroke-width:1.5;" width="53" x="324.5" y="402.5"/><text fill="#000000" font-family="sans-serif" font-size="12" lengthAdjust="spacing" textLength="47" x="327.5" y="418.6387">Material</text><line style="stroke:#A80036;stroke-width:1.5;" x1="325.5" x2="376.5" y1="426.4688" y2="426.4688"/><line style="stroke:#A80036;stroke-width:1.5;" x1="325.5" x2="376.5" y1="434.4688" y2="434.4688"/><!--MD5=[3c2cbbee24bda6f963becc0a442377df]
class Temperature--><rect codeLine="71" fill="#FEFECE" filter="url(#f5brxt09gzr4h)" height="39.9688" id="Temperature" style="stroke:#A80036;stroke-width:1.5;" width="84" x="1988" y="402.5"/><text fill="#000000" font-family="sans-serif" font-size="12" lengthAdjust="spacing" textLength="78" x="1991" y="418.6387">Temperature</text><line style="stroke:#A80036;stroke-width:1.5;" x1="1989" x2="2071" y1="426.4688" y2="426.4688"/><line style="stroke:#A80036;stroke-width:1.5;" x1="1989" x2="2071" y1="434.4688" y2="434.4688"/><!--MD5=[cf4d6237fcae255cd2e1656cf84a30e2]
class Order--><rect codeLine="73" fill="#FEFECE" filter="url(#f5brxt09gzr4h)" height="39.9688" id="Order" style="stroke:#A80036;stroke-width:1.5;" width="42" x="413" y="402.5"/><text fill="#000000" font-family="sans-serif" font-size="12" lengthAdjust="spacing" textLength="36" x="416" y="418.6387">Order</text><line style="stroke:#A80036;stroke-width:1.5;" x1="414" x2="454" y1="426.4688" y2="426.4688"/><line style="stroke:#A80036;stroke-width:1.5;" x1="414" x2="454" y1="434.4688" y2="434.4688"/><!--MD5=[0c3b512350d460f5340b50da7a0b4194]
class Checklist--><rect codeLine="75" fill="#FEFECE" filter="url(#f5brxt09gzr4h)" height="39.9688" id="Checklist" style="stroke:#A80036;stroke-width:1.5;" width="60" x="490" y="402.5"/><text fill="#000000" font-family="sans-serif" font-size="12" lengthAdjust="spacing" textLength="54" x="493" y="418.6387">Checklist</text><line style="stroke:#A80036;stroke-width:1.5;" x1="491" x2="549" y1="426.4688" y2="426.4688"/><line style="stroke:#A80036;stroke-width:1.5;" x1="491" x2="549" y1="434.4688" y2="434.4688"/><!--MD5=[f9a29335b499db729be669fd1bd54958]
class Account--><rect codeLine="77" fill="#FEFECE" filter="url(#f5brxt09gzr4h)" height="39.9688" id="Account" style="stroke:#A80036;stroke-width:1.5;" width="54" x="585" y="402.5"/><text fill="#000000" font-family="sans-serif" font-size="12" lengthAdjust="spacing" textLength="48" x="588" y="418.6387">Account</text><line style="stroke:#A80036;stroke-width:1.5;" x1="586" x2="638" y1="426.4688" y2="426.4688"/><line style="stroke:#A80036;stroke-width:1.5;" x1="586" x2="638" y1="434.4688" y2="434.4688"/><!--MD5=[260c1e5e41e593ef0e92b4cae546ad19]
class EmergencyContactList--><rect codeLine="79" fill="#FEFECE" filter="url(#f5brxt09gzr4h)" height="39.9688" id="EmergencyContactList" style="stroke:#A80036;stroke-width:1.5;" width="139" x="674.5" y="402.5"/><text fill="#000000" font-family="sans-serif" font-size="12" lengthAdjust="spacing" textLength="133" x="677.5" y="418.6387">EmergencyContactList</text><line style="stroke:#A80036;stroke-width:1.5;" x1="675.5" x2="812.5" y1="426.4688" y2="426.4688"/><line style="stroke:#A80036;stroke-width:1.5;" x1="675.5" x2="812.5" y1="434.4688" y2="434.4688"/><!--MD5=[67f5bdafb709b09f80738cdb2228938c]
class Quiz--><rect codeLine="81" fill="#FEFECE" filter="url(#f5brxt09gzr4h)" height="39.9688" id="Quiz" style="stroke:#A80036;stroke-width:1.5;" width="33" x="1518.5" y="402.5"/><text fill="#000000" font-family="sans-serif" font-size="12" lengthAdjust="spacing" textLength="27" x="1521.5" y="418.6387">Quiz</text><line style="stroke:#A80036;stroke-width:1.5;" x1="1519.5" x2="1550.5" y1="426.4688" y2="426.4688"/><line style="stroke:#A80036;stroke-width:1.5;" x1="1519.5" x2="1550.5" y1="434.4688" y2="434.4688"/><!--MD5=[166247bf81aba95c770c3b8fd8e3cb19]
class Video--><rect codeLine="83" fill="#FEFECE" filter="url(#f5brxt09gzr4h)" height="39.9688" id="Video" style="stroke:#A80036;stroke-width:1.5;" width="41" x="1615.5" y="402.5"/><text fill="#000000" font-family="sans-serif" font-size="12" lengthAdjust="spacing" textLength="35" x="1618.5" y="418.6387">Video</text><line style="stroke:#A80036;stroke-width:1.5;" x1="1616.5" x2="1655.5" y1="426.4688" y2="426.4688"/><line style="stroke:#A80036;stroke-width:1.5;" x1="1616.5" x2="1655.5" y1="434.4688" y2="434.4688"/><!--MD5=[32cd4433c115ed96a993c633522ecf21]
class Contents--><rect codeLine="85" fill="#FEFECE" filter="url(#f5brxt09gzr4h)" height="39.9688" id="Contents" style="stroke:#A80036;stroke-width:1.5;" width="59" x="1719.5" y="402.5"/><text fill="#000000" font-family="sans-serif" font-size="12" lengthAdjust="spacing" textLength="53" x="1722.5" y="418.6387">Contents</text><line style="stroke:#A80036;stroke-width:1.5;" x1="1720.5" x2="1777.5" y1="426.4688" y2="426.4688"/><line style="stroke:#A80036;stroke-width:1.5;" x1="1720.5" x2="1777.5" y1="434.4688" y2="434.4688"/><!--MD5=[67d55cb799d9640d9c582a8cc2c589ce]
class Metric--><rect codeLine="87" fill="#FEFECE" filter="url(#f5brxt09gzr4h)" height="39.9688" id="Metric" style="stroke:#A80036;stroke-width:1.5;" width="43" x="848.5" y="402.5"/><text fill="#000000" font-family="sans-serif" font-size="12" lengthAdjust="spacing" textLength="37" x="851.5" y="418.6387">Metric</text><line style="stroke:#A80036;stroke-width:1.5;" x1="849.5" x2="890.5" y1="426.4688" y2="426.4688"/><line style="stroke:#A80036;stroke-width:1.5;" x1="849.5" x2="890.5" y1="434.4688" y2="434.4688"/><!--MD5=[a3638c1e5b65d287ecad7f06f5c0f212]
class Role--><rect codeLine="89" fill="#FEFECE" filter="url(#f5brxt09gzr4h)" height="39.9688" id="Role" style="stroke:#A80036;stroke-width:1.5;" width="32" x="1814" y="402.5"/><text fill="#000000" font-family="sans-serif" font-size="12" lengthAdjust="spacing" textLength="26" x="1817" y="418.6387">Role</text><line style="stroke:#A80036;stroke-width:1.5;" x1="1815" x2="1845" y1="426.4688" y2="426.4688"/><line style="stroke:#A80036;stroke-width:1.5;" x1="1815" x2="1845" y1="434.4688" y2="434.4688"/><!--MD5=[ac7934929da5e0be69bf27d15ca10a9c]
class VibrationLevel--><rect codeLine="91" fill="#FEFECE" filter="url(#f5brxt09gzr4h)" height="39.9688" id="VibrationLevel" style="stroke:#A80036;stroke-width:1.5;" width="91" x="926.5" y="402.5"/><text fill="#000000" font-family="sans-serif" font-size="12" lengthAdjust="spacing" textLength="85" x="929.5" y="418.6387">VibrationLevel</text><line style="stroke:#A80036;stroke-width:1.5;" x1="927.5" x2="1016.5" y1="426.4688" y2="426.4688"/><line style="stroke:#A80036;stroke-width:1.5;" x1="927.5" x2="1016.5" y1="434.4688" y2="434.4688"/><!--MD5=[30fa7e59e0dcc6ea44bfee28316cb738]
class HealthData--><rect codeLine="93" fill="#FEFECE" filter="url(#f5brxt09gzr4h)" height="39.9688" id="HealthData" style="stroke:#A80036;stroke-width:1.5;" width="71" x="1881.5" y="402.5"/><text fill="#000000" font-family="sans-serif" font-size="12" lengthAdjust="spacing" textLength="65" x="1884.5" y="418.6387">HealthData</text><line style="stroke:#A80036;stroke-width:1.5;" x1="1882.5" x2="1951.5" y1="426.4688" y2="426.4688"/><line style="stroke:#A80036;stroke-width:1.5;" x1="1882.5" x2="1951.5" y1="434.4688" y2="434.4688"/><!--MD5=[82c53a10f238a1092cf5f0b044477708]
class Feature--><rect codeLine="95" fill="#FEFECE" filter="url(#f5brxt09gzr4h)" height="39.9688" id="Feature" style="stroke:#A80036;stroke-width:1.5;" width="52" x="1053" y="402.5"/><text fill="#000000" font-family="sans-serif" font-size="12" lengthAdjust="spacing" textLength="46" x="1056" y="418.6387">Feature</text><line style="stroke:#A80036;stroke-width:1.5;" x1="1054" x2="1104" y1="426.4688" y2="426.4688"/><line style="stroke:#A80036;stroke-width:1.5;" x1="1054" x2="1104" y1="434.4688" y2="434.4688"/><!--MD5=[76b5e19c9337179d2d7ae334371d68c8]
class Notification--><rect codeLine="97" fill="#FEFECE" filter="url(#f5brxt09gzr4h)" height="39.9688" id="Notification" style="stroke:#A80036;stroke-width:1.5;" width="72" x="7" y="402.5"/><text fill="#000000" font-family="sans-serif" font-size="12" lengthAdjust="spacing" textLength="66" x="10" y="418.6387">Notification</text><line style="stroke:#A80036;stroke-width:1.5;" x1="8" x2="78" y1="426.4688" y2="426.4688"/><line style="stroke:#A80036;stroke-width:1.5;" x1="8" x2="78" y1="434.4688" y2="434.4688"/><!--MD5=[292033ffe4750640675b59034298e578]
class Display--><rect codeLine="99" fill="#FEFECE" filter="url(#f5brxt09gzr4h)" height="39.9688" id="Display" style="stroke:#A80036;stroke-width:1.5;" width="50" x="1242" y="402.5"/><text fill="#000000" font-family="sans-serif" font-size="12" lengthAdjust="spacing" textLength="44" x="1245" y="418.6387">Display</text><line style="stroke:#A80036;stroke-width:1.5;" x1="1243" x2="1291" y1="426.4688" y2="426.4688"/><line style="stroke:#A80036;stroke-width:1.5;" x1="1243" x2="1291" y1="434.4688" y2="434.4688"/><!--MD5=[21c8f8291af381f45b2a12cafe8892a3]
link App to Information--><path codeLine="105" d="M1434.25,191.455 C1427.07,241.127 1411.48,348.977 1404.5,397.268 " fill="none" id="App-to-Information" style="stroke:#A80036;stroke-width:1.0;"/><polygon fill="#A80036" points="1403.77,402.303,1409.0184,393.9691,1404.4865,397.3546,1401.101,392.8227,1403.77,402.303" style="stroke:#A80036;stroke-width:1.0;"/><text fill="#000000" font-family="sans-serif" font-size="13" lengthAdjust="spacing" textLength="21" x="1412" y="362.0669">get</text><!--MD5=[949878349d057c0f9b0bc699490e2385]
link User to Display--><path codeLine="106" d="M842.112,180.777 C908.195,210.062 1054.77,277.562 1170,349 C1194.59,364.242 1220.77,384.044 1239.72,399.1 " fill="none" id="User-to-Display" style="stroke:#A80036;stroke-width:1.0;"/><polygon fill="#A80036" points="1243.9,402.431,1239.3538,393.6942,1239.9895,399.3152,1234.3685,399.9509,1243.9,402.431" style="stroke:#A80036;stroke-width:1.0;"/><text fill="#000000" font-family="sans-serif" font-size="13" lengthAdjust="spacing" textLength="40" x="1196" y="362.0669">toggle</text><!--MD5=[179b77aecdc449dcdd690e2ebd7591f4]
reverse link Notification to Tone--><path codeLine="107" d="M63.0347,453.6951 C75.0061,471.7378 89.8555,494.1179 100.2423,509.7723 " fill="none" id="Notification-backto-Tone" style="stroke:#A80036;stroke-width:1.0;"/><polygon fill="#FFFFFF" points="55.8391,442.85,55.8233,450.0611,62.4736,452.8491,62.4894,445.6381,55.8391,442.85" style="stroke:#A80036;stroke-width:1.0;"/><!--MD5=[13b90b1d6f0853b38835fcd7521c36a6]
reverse link Temperature to Data--><path codeLine="108" d="M1976.88,446.924 C1974.57,447.673 1972.27,448.37 1970,449 C1756.34,508.2545 1484.94,524.8614 1415.67,528.2613 " fill="none" id="Temperature-backto-Data" style="stroke:#A80036;stroke-width:1.0;"/><polygon fill="#FFFFFF" points="1989.2,442.518,1982.2024,440.7763,1977.9033,446.5657,1984.9009,448.3074,1989.2,442.518" style="stroke:#A80036;stroke-width:1.0;"/><!--MD5=[f8e62fce92094be4a82b4c889b78a008]
reverse link User to Location--><path codeLine="109" d="M759.8,185.82 C683.448,218.893 528.34,286.924 399,349 C357.605,368.867 347.529,374.422 307,396 C301.197,399.09 295.019,402.458 289.137,405.705 " fill="none" id="User-backto-Location" style="stroke:#A80036;stroke-width:1.0;"/><polygon fill="#FFFFFF" points="771.801,180.629,764.706,179.34,760.7874,185.3934,767.8823,186.6824,771.801,180.629" style="stroke:#A80036;stroke-width:1.0;"/><text fill="#000000" font-family="sans-serif" font-size="13" lengthAdjust="spacing" textLength="36" x="400" y="362.0669">share</text><!--MD5=[552385275cc74c32a9251f1f94479a39]
link User to Quiz--><path codeLine="110" d="M842.115,177.418 C927.186,206.343 1151.02,282.761 1337,349 C1370.95,361.093 1469.82,397.477 1513.65,413.628 " fill="none" id="User-to-Quiz" style="stroke:#A80036;stroke-width:1.0;"/><polygon fill="#A80036" points="1518.47,415.403,1511.4079,408.5381,1513.7783,413.6743,1508.6421,416.0447,1518.47,415.403" style="stroke:#A80036;stroke-width:1.0;"/><text fill="#000000" font-family="sans-serif" font-size="13" lengthAdjust="spacing" textLength="16" x="1381" y="362.0669">do</text><!--MD5=[c666eb82a221024806947c93f0ffbd3e]
reverse link Farm to Contractor--><path codeLine="111" d="M2432.05,198.131 C2426.63,229.751 2416.58,278.706 2401,319 C2390.35,346.538 2373.48,375.764 2360.85,395.931 " fill="none" id="Farm-backto-Contractor" style="stroke:#A80036;stroke-width:1.0;"/><polygon fill="#FFFFFF" points="2434.22,184.915,2429.3021,190.1889,2432.2789,196.757,2437.1968,191.483,2434.22,184.915" style="stroke:#A80036;stroke-width:1.0;"/><!--MD5=[63575b7639e7bb215994c7c107a504cd]
link Admin to Contents--><path codeLine="112" d="M1811.16,229.769 C1793.47,284.341 1769.05,359.663 1756.75,397.608 " fill="none" id="Admin-to-Contents" style="stroke:#A80036;stroke-width:1.0;"/><polygon fill="#A80036" points="1755.16,402.488,1761.7414,395.161,1756.7025,397.7319,1754.1317,392.693,1755.16,402.488" style="stroke:#A80036;stroke-width:1.0;"/><text fill="#000000" font-family="sans-serif" font-size="13" lengthAdjust="spacing" textLength="40" x="1773" y="362.0669">delete</text><!--MD5=[ffbfde574bb7ae168ad208d635d3b889]
link Admin to Content--><path codeLine="113" d="M1871.24,196.891 C1936.76,249.305 2066.87,353.392 2124,399.096 " fill="none" id="Admin-to-Content" style="stroke:#A80036;stroke-width:1.0;"/><polygon fill="#A80036" points="2127.98,402.285,2123.458,393.5356,2124.0782,399.1584,2118.4554,399.7786,2127.98,402.285" style="stroke:#A80036;stroke-width:1.0;"/><text fill="#000000" font-family="sans-serif" font-size="13" lengthAdjust="spacing" textLength="41" x="2076" y="362.0669">create</text><!--MD5=[a5424d6486606ff96ccbfb31b115d1a4]
reverse link FarmManager to Manager--><path codeLine="114" d="M2543.34,204.398 C2531.55,257.337 2510.78,350.631 2500.74,395.698 " fill="none" id="FarmManager-backto-Manager" style="stroke:#A80036;stroke-width:1.0;"/><polygon fill="none" points="2536.54,202.742,2547.72,184.742,2550.2,205.785,2536.54,202.742" style="stroke:#A80036;stroke-width:1.0;"/><!--MD5=[31711df2bc0c12128b46f8f5705c51c3]
link TextMessage to Content--><path codeLine="115" d="M2169.07,191.455 C2165.39,241.127 2157.38,348.977 2153.8,397.268 " fill="none" id="TextMessage-to-Content" style="stroke:#A80036;stroke-width:1.0;"/><polygon fill="#A80036" points="2153.42,402.303,2158.0751,393.6237,2153.79,397.3167,2150.097,393.0316,2153.42,402.303" style="stroke:#A80036;stroke-width:1.0;"/><text fill="#000000" font-family="sans-serif" font-size="13" lengthAdjust="spacing" textLength="47" x="2159" y="362.0669">receive</text><!--MD5=[2fafb2fd3ca0e3c4a3a7201ae21297a1]
reverse link User to Metric--><path codeLine="116" d="M845.118,320.391 C853.186,353.178 860.648,383.5 865.255,402.217 " fill="none" id="User-backto-Metric" style="stroke:#A80036;stroke-width:1.0;"/><polygon fill="#FFFFFF" points="842,307.724,839.55,314.5062,844.8682,319.3762,847.3182,312.594,842,307.724" style="stroke:#A80036;stroke-width:1.0;"/><text fill="#000000" font-family="sans-serif" font-size="13" lengthAdjust="spacing" textLength="41" x="856" y="362.0669">create</text><!--MD5=[eaafea414ac8f206b24e2e989c936c98]
reverse link FarmContractor to Contractor--><path codeLine="117" d="M2321.14,204.752 C2326.73,257.753 2336.54,350.731 2341.28,395.698 " fill="none" id="FarmContractor-backto-Contractor" style="stroke:#A80036;stroke-width:1.0;"/><polygon fill="none" points="2314.17,205.366,2319.03,184.742,2328.09,203.897,2314.17,205.366" style="stroke:#A80036;stroke-width:1.0;"/><!--MD5=[4cdcf10824a5a72470989197280b3f5e]
link User to Material--><path codeLine="118" d="M771.895,184.023 C710.454,216.586 579.623,286.565 471,349 C440.605,366.471 406.425,387.233 382.342,402.052 " fill="none" id="User-to-Material" style="stroke:#A80036;stroke-width:1.0;"/><polygon fill="#A80036" points="377.965,404.748,387.7259,403.435,382.2226,402.1263,383.5313,396.6229,377.965,404.748" style="stroke:#A80036;stroke-width:1.0;"/><text fill="#000000" font-family="sans-serif" font-size="13" lengthAdjust="spacing" textLength="44" x="472" y="362.0669">access</text><!--MD5=[db1650e6874e3b8185108ca1061efb23]
reverse link Farm to Manager--><path codeLine="119" d="M2444.27,197.571 C2455.9,248.93 2478.49,348.624 2489.15,395.698 " fill="none" id="Farm-backto-Manager" style="stroke:#A80036;stroke-width:1.0;"/><polygon fill="#FFFFFF" points="2441.36,184.742,2438.784,191.4773,2444.0105,196.4456,2446.5864,189.7103,2441.36,184.742" style="stroke:#A80036;stroke-width:1.0;"/><!--MD5=[74bee6345d88bc124496cf141542b1c7]
link Admin to Role--><path codeLine="120" d="M1831.5,229.769 C1831.07,284.118 1830.49,359.049 1830.19,397.141 " fill="none" id="Admin-to-Role" style="stroke:#A80036;stroke-width:1.0;"/><polygon fill="#A80036" points="1830.15,402.488,1834.2193,393.5191,1830.1886,397.4881,1826.2195,393.4574,1830.15,402.488" style="stroke:#A80036;stroke-width:1.0;"/><text fill="#000000" font-family="sans-serif" font-size="13" lengthAdjust="spacing" textLength="40" x="1832" y="362.0669">define</text><!--MD5=[00b85d6dc3621b72a7c88552e7d035b6]
link Admin to Temperature--><path codeLine="121" d="M1871.12,216.077 C1913.83,271.301 1980.36,357.323 2012.05,398.291 " fill="none" id="Admin-to-Temperature" style="stroke:#A80036;stroke-width:1.0;"/><polygon fill="#A80036" points="2015.19,402.35,2012.832,392.7876,2012.1245,398.4,2006.512,397.6924,2015.19,402.35" style="stroke:#A80036;stroke-width:1.0;"/><text fill="#000000" font-family="sans-serif" font-size="13" lengthAdjust="spacing" textLength="44" x="1984" y="362.0669">access</text><!--MD5=[9d661380b54d9bff4ee137bc0bb1b8a2]
link User to Information--><path codeLine="122" d="M842.112,179.677 C916.688,209.904 1096.24,283.299 1245,349 C1284.19,366.308 1328.44,386.982 1359.78,401.816 " fill="none" id="User-to-Information" style="stroke:#A80036;stroke-width:1.0;"/><polygon fill="#A80036" points="1364.3,403.962,1357.8628,396.508,1359.7767,401.8312,1354.4535,403.7452,1364.3,403.962" style="stroke:#A80036;stroke-width:1.0;"/><text fill="#000000" font-family="sans-serif" font-size="13" lengthAdjust="spacing" textLength="47" x="1281" y="362.0669">receive</text><!--MD5=[6228c31002e3ca9da35c89a172d882b3]
link User to Data--><path codeLine="123" d="M842.097,190.896 C900.421,233.162 1020.89,320.739 1122,396 C1153.3,419.301 1157.91,430.004 1192,449 C1255.93,484.6299 1338.97,511.4336 1377.55,522.8901 " fill="none" id="User-to-Data" style="stroke:#A80036;stroke-width:1.0;"/><polygon fill="#A80036" points="1382.47,524.3398,1374.9688,517.9576,1377.6742,522.9256,1372.7061,525.631,1382.47,524.3398" style="stroke:#A80036;stroke-width:1.0;"/><text fill="#000000" font-family="sans-serif" font-size="13" lengthAdjust="spacing" textLength="30" x="1193" y="427.0669">view</text><!--MD5=[5b2a2bdb39cc116e4a78ea074bb38160]
link User to Order--><path codeLine="124" d="M771.909,189.584 C697.377,240.737 524.779,359.196 459.57,403.951 " fill="none" id="User-to-Order" style="stroke:#A80036;stroke-width:1.0;"/><polygon fill="#A80036" points="455.432,406.791,465.1158,404.9955,459.5543,403.9614,460.5884,398.3999,455.432,406.791" style="stroke:#A80036;stroke-width:1.0;"/><text fill="#000000" font-family="sans-serif" font-size="13" lengthAdjust="spacing" textLength="24" x="536" y="362.0669">feel</text><!--MD5=[3a528f818948185628c866cc79abcb85]
link User to VibrationLevel--><path codeLine="125" d="M842.194,220.104 C877.664,275.137 930.755,357.508 956.667,397.711 " fill="none" id="User-to-VibrationLevel" style="stroke:#A80036;stroke-width:1.0;"/><polygon fill="#A80036" points="959.689,402.4,958.1744,392.6683,956.9798,398.1976,951.4505,397.003,959.689,402.4" style="stroke:#A80036;stroke-width:1.0;"/><text fill="#000000" font-family="sans-serif" font-size="13" lengthAdjust="spacing" textLength="47" x="934" y="362.0669">change</text><!--MD5=[6b4d7518e221b0e4117d7b9d8c1511bb]
link User to Checklist--><path codeLine="126" d="M771.808,196.891 C713.164,249.201 596.822,352.976 545.425,398.821 " fill="none" id="User-to-Checklist" style="stroke:#A80036;stroke-width:1.0;"/><polygon fill="#A80036" points="541.542,402.285,550.9209,399.2789,545.2732,398.9566,545.5955,393.309,541.542,402.285" style="stroke:#A80036;stroke-width:1.0;"/><text fill="#000000" font-family="sans-serif" font-size="13" lengthAdjust="spacing" textLength="41" x="598" y="362.0669">create</text><!--MD5=[d18a4d054d286cfcd5e9dc39bb2838cd]
link User to Video--><path codeLine="127" d="M842.035,174.658 C938.444,200.064 1215.54,274.487 1442,349 C1503.12,369.112 1573.6,396.536 1610.48,411.22 " fill="none" id="User-to-Video" style="stroke:#A80036;stroke-width:1.0;"/><polygon fill="#A80036" points="1615.24,413.119,1608.3685,406.0633,1610.5974,411.2625,1605.3982,413.4914,1615.24,413.119" style="stroke:#A80036;stroke-width:1.0;"/><text fill="#000000" font-family="sans-serif" font-size="13" lengthAdjust="spacing" textLength="39" x="1492" y="362.0669">watch</text><!--MD5=[8d0e38c9b7e7757be201a562fa9d77ce]
link User to Tone--><path codeLine="128" d="M771.931,168.216 C666.045,178.237 345.845,222.17 166,396 C135.378,425.597 122.005,475.1525 116.509,504.6929 " fill="none" id="User-to-Tone" style="stroke:#A80036;stroke-width:1.0;"/><polygon fill="#A80036" points="115.572,509.9665,121.0848,501.8051,116.4467,505.0436,113.2082,500.4055,115.572,509.9665" style="stroke:#A80036;stroke-width:1.0;"/><text fill="#000000" font-family="sans-serif" font-size="13" lengthAdjust="spacing" textLength="47" x="167" y="427.0669">change</text><!--MD5=[c8ecc96e049822d047e1e20cd7f62a56]
reverse link User to Account--><path codeLine="129" d="M763.77,222.253 C720.212,279.437 655.448,364.46 626.682,402.225 " fill="none" id="User-backto-Account" style="stroke:#A80036;stroke-width:1.0;"/><polygon fill="#FFFFFF" points="771.913,211.563,765.0953,213.9123,764.6417,221.1091,771.4594,218.7598,771.913,211.563" style="stroke:#A80036;stroke-width:1.0;"/><text fill="#000000" font-family="sans-serif" font-size="13" lengthAdjust="spacing" textLength="45" x="666" y="362.0669">disable</text><!--MD5=[78551f519915f91eacb1373215d48a8d]
link Admin to HealthData--><path codeLine="130" d="M1853.34,229.769 C1871.46,284.341 1896.47,359.663 1909.07,397.608 " fill="none" id="Admin-to-HealthData" style="stroke:#A80036;stroke-width:1.0;"/><polygon fill="#A80036" points="1910.69,402.488,1911.6484,392.6859,1909.1136,397.743,1904.0565,395.2082,1910.69,402.488" style="stroke:#A80036;stroke-width:1.0;"/><text fill="#000000" font-family="sans-serif" font-size="13" lengthAdjust="spacing" textLength="44" x="1898" y="362.0669">access</text><!--MD5=[94d8ec925dc05aae8ddd8357ad83aa96]
link User to EmergencyContactList--><path codeLine="131" d="M772,307.724 C763.452,342.457 755.252,375.776 749.961,397.279 " fill="none" id="User-to-EmergencyContactList" style="stroke:#A80036;stroke-width:1.0;"/><polygon fill="#A80036" points="748.745,402.217,754.7788,394.4328,749.9392,397.3617,747.0103,392.5221,748.745,402.217" style="stroke:#A80036;stroke-width:1.0;"/><text fill="#000000" font-family="sans-serif" font-size="13" lengthAdjust="spacing" textLength="41" x="762" y="362.0669">create</text><!--MD5=[0c31447fbdec0f53dcb5dd40b38613df]
link User to Feature--><path codeLine="132" d="M842.002,198.443 C898.078,251.22 1006.634,353.391 1054.88,398.798 " fill="none" id="User-to-Feature" style="stroke:#A80036;stroke-width:1.0;"/><polygon fill="#A80036" points="1058.53,402.23,1054.7212,393.1474,1054.8903,398.8018,1049.236,398.9709,1058.53,402.23" style="stroke:#A80036;stroke-width:1.0;"/><text fill="#000000" font-family="sans-serif" font-size="13" lengthAdjust="spacing" textLength="23" x="1015" y="362.0669">use</text><!--MD5=[ad8b54e37159f501f86126b68a5588a9]
link Admin to Quiz--><path codeLine="133" d="M1792.87,199.231 C1728.98,254.299 1604.49,361.605 1555.5,403.827 " fill="none" id="Admin-to-Quiz" style="stroke:#A80036;stroke-width:1.0;"/><polygon fill="#A80036" points="1551.55,407.231,1560.9817,404.3951,1555.3408,403.9707,1555.7652,398.3298,1551.55,407.231" style="stroke:#A80036;stroke-width:1.0;"/><text fill="#000000" font-family="sans-serif" font-size="13" lengthAdjust="spacing" textLength="41" x="1616" y="362.0669">create</text><!--MD5=[2e2e530a658308b38e0151c4d25adf6b]
link User to Notification--><path codeLine="134" d="M771.893,170.112 C640.979,187.925 183.183,255.907 74,349 C59.681,361.209 51.8014,381.21 47.5743,397.115 " fill="none" id="User-to-Notification" style="stroke:#A80036;stroke-width:1.0;"/><polygon fill="#A80036" points="46.2767,402.334,52.329,394.5642,47.4825,397.4816,44.5651,392.635,46.2767,402.334" style="stroke:#A80036;stroke-width:1.0;"/><text fill="#000000" font-family="sans-serif" font-size="13" lengthAdjust="spacing" textLength="47" x="75" y="362.0669">receive</text><!--MD5=[59f6618a3dc158c28d1239d81943c795]
link Admin to Video--><path codeLine="135" d="M1792.81,216.69 C1750.56,271.877 1685.16,357.293 1653.87,398.162 " fill="none" id="Admin-to-Video" style="stroke:#A80036;stroke-width:1.0;"/><polygon fill="#A80036" points="1650.59,402.448,1659.2367,397.7327,1653.6292,398.4777,1652.8842,392.8701,1650.59,402.448" style="stroke:#A80036;stroke-width:1.0;"/><text fill="#000000" font-family="sans-serif" font-size="13" lengthAdjust="spacing" textLength="43" x="1690" y="362.0669">upload</text><!--MD5=[5e440dd96f44297ee3420c03d3827cc8]
@startuml
hide circle
class User<actor> {
	schedule
	account
	location
	metric
}
class Admin<actor> {
}
class FarmContractor<actor> {
}
class FarmManager<actor> {
}
class Tommorow {
	weather
}
class Farm {
}
class Manager {
	search()
}
class Contractor {
	search()
}
class Tone {
}
class Data {
}
class Admin {
	define()
	create()
	access()
	add()
	see()
	upload()
	delete()
}
class User {
	create()
	feel()
	watch()
	use()
	modify()
	view()
	access()
	change()
	share()
	know()
	identify()
	toggle()
	opt()
	receive()
	wear()
	do()
	disable()
}
class App {
	get()
}
class Information {
}
class Location {
}
class TextMessage {
	receive()
}
class Content {
}
class Material {
}
class Temperature {
}
class Order {
}
class Checklist {
}
class Account {
}
class EmergencyContactList {
}
class Quiz {
}
class Video {
}
class Contents {
}
class Metric {
}
class Role {
}
class VibrationLevel {
}
class HealthData {
}
class Feature {
}
class Notification {
}
class Display {
}
class FarmManager {
}
class FarmContractor {
}
App - -> Information : get
User - -> Display : toggle
Notification o- - Tone
Temperature o- - Data
User o- - Location : share
User - -> Quiz : do
Farm o- - Contractor
Admin - -> Contents : delete
Admin - -> Content : create
FarmManager <|- - Manager
TextMessage - -> Content : receive
User o- - Metric : create
FarmContractor <|- - Contractor
User - -> Material : access
Farm o- - Manager
Admin - -> Role : define
Admin - -> Temperature : access
User - -> Information : receive
User - -> Data : view
User - -> Order : feel
User - -> VibrationLevel : change
User - -> Checklist : create
User - -> Video : watch
User - -> Tone : change
User o- - Account : disable
Admin - -> HealthData : access
User - -> EmergencyContactList : create
User - -> Feature : use
Admin - -> Quiz : create
User - -> Notification : receive
Admin - -> Video : upload
@enduml

PlantUML version 1.2021.10beta5(Unknown compile time)
(GPL source distribution)
Java Runtime: Java(TM) SE Runtime Environment
JVM: Java HotSpot(TM) 64-Bit Server VM
Default Encoding: UTF-8
Language: en
Country: US
--></g></svg>