<?xml version="1.0" encoding="UTF-8" standalone="no"?><svg xmlns="http://www.w3.org/2000/svg" xmlns:xlink="http://www.w3.org/1999/xlink" contentScriptType="application/ecmascript" contentStyleType="text/css" height="760px" preserveAspectRatio="none" style="width:1320px;height:760px;background:#FFFFFF;" version="1.1" viewBox="0 0 1320 760" width="1320px" zoomAndPan="magnify"><defs><filter height="300%" id="femc61c8u3gr9" width="300%" x="-1" y="-1"><feGaussianBlur result="blurOut" stdDeviation="2.0"/><feColorMatrix in="blurOut" result="blurOut2" type="matrix" values="0 0 0 0 0 0 0 0 0 0 0 0 0 0 0 0 0 0 .4 0"/><feOffset dx="4.0" dy="4.0" in="blurOut2" result="blurOut3"/><feBlend in="SourceGraphic" in2="blurOut3" mode="normal"/></filter></defs><g><!--MD5=[3fd616f346a44cd59a91eb10b19e157c]
class User--><rect codeLine="15" fill="#FEFECE" filter="url(#femc61c8u3gr9)" height="283.2578" id="User" style="stroke:#A80036;stroke-width:1.5;" width="84" x="679.5" y="10"/><text fill="#000000" font-family="sans-serif" font-size="12" lengthAdjust="spacing" textLength="29" x="689.5" y="26.1387">User</text><rect fill="#FFFFFF" height="15.9688" style="stroke:#000000;stroke-width:1.0;stroke-dasharray:2.0,2.0;" width="33" x="733.5" y="7"/><text fill="#000000" font-family="sans-serif" font-size="12" font-style="italic" lengthAdjust="spacing" textLength="31" x="734.5" y="19.1387">actor</text><line style="stroke:#A80036;stroke-width:1.5;" x1="680.5" x2="762.5" y1="33.9688" y2="33.9688"/><text fill="#000000" font-family="sans-serif" font-size="11" lengthAdjust="spacing" textLength="72" x="685.5" y="48.1792">appointment</text><text fill="#000000" font-family="sans-serif" font-size="11" lengthAdjust="spacing" textLength="64" x="685.5" y="60.9839">information</text><text fill="#000000" font-family="sans-serif" font-size="11" lengthAdjust="spacing" textLength="44" x="685.5" y="73.7886">location</text><line style="stroke:#A80036;stroke-width:1.5;" x1="680.5" x2="762.5" y1="80.3828" y2="80.3828"/><text fill="#000000" font-family="sans-serif" font-size="11" lengthAdjust="spacing" textLength="44" x="685.5" y="94.5933">inform()</text><text fill="#000000" font-family="sans-serif" font-size="11" lengthAdjust="spacing" textLength="40" x="685.5" y="107.3979">make()</text><text fill="#000000" font-family="sans-serif" font-size="11" lengthAdjust="spacing" textLength="35" x="685.5" y="120.2026">book()</text><text fill="#000000" font-family="sans-serif" font-size="11" lengthAdjust="spacing" textLength="37" x="685.5" y="133.0073">know()</text><text fill="#000000" font-family="sans-serif" font-size="11" lengthAdjust="spacing" textLength="37" x="685.5" y="145.812">have()</text><text fill="#000000" font-family="sans-serif" font-size="11" lengthAdjust="spacing" textLength="27" x="685.5" y="158.6167">get()</text><text fill="#000000" font-family="sans-serif" font-size="11" lengthAdjust="spacing" textLength="49" x="685.5" y="171.4214">contact()</text><text fill="#000000" font-family="sans-serif" font-size="11" lengthAdjust="spacing" textLength="35" x="685.5" y="184.2261">want()</text><text fill="#000000" font-family="sans-serif" font-size="11" lengthAdjust="spacing" textLength="48" x="685.5" y="197.0308">update()</text><text fill="#000000" font-family="sans-serif" font-size="11" lengthAdjust="spacing" textLength="29" x="685.5" y="209.8354">use()</text><text fill="#000000" font-family="sans-serif" font-size="11" lengthAdjust="spacing" textLength="47" x="685.5" y="222.6401">decide()</text><text fill="#000000" font-family="sans-serif" font-size="11" lengthAdjust="spacing" textLength="45" x="685.5" y="235.4448">cancel()</text><text fill="#000000" font-family="sans-serif" font-size="11" lengthAdjust="spacing" textLength="39" x="685.5" y="248.2495">apply()</text><text fill="#000000" font-family="sans-serif" font-size="11" lengthAdjust="spacing" textLength="30" x="685.5" y="261.0542">see()</text><text fill="#000000" font-family="sans-serif" font-size="11" lengthAdjust="spacing" textLength="31" x="685.5" y="273.8589">visit()</text><text fill="#000000" font-family="sans-serif" font-size="11" lengthAdjust="spacing" textLength="47" x="685.5" y="286.6636">modify()</text><!--MD5=[f22450cf9d5ee5a335b29715856a10cc]
class Shelter--><rect codeLine="39" fill="#FEFECE" filter="url(#femc61c8u3gr9)" height="116.7969" id="Shelter" style="stroke:#A80036;stroke-width:1.5;" width="84" x="53.5" y="370"/><text fill="#000000" font-family="sans-serif" font-size="12" lengthAdjust="spacing" textLength="43" x="56.5" y="386.1387">Shelter</text><rect fill="#FFFFFF" height="15.9688" style="stroke:#000000;stroke-width:1.0;stroke-dasharray:2.0,2.0;" width="33" x="107.5" y="367"/><text fill="#000000" font-family="sans-serif" font-size="12" font-style="italic" lengthAdjust="spacing" textLength="31" x="108.5" y="379.1387">actor</text><line style="stroke:#A80036;stroke-width:1.5;" x1="54.5" x2="136.5" y1="393.9688" y2="393.9688"/><text fill="#000000" font-family="sans-serif" font-size="11" lengthAdjust="spacing" textLength="64" x="59.5" y="408.1792">information</text><line style="stroke:#A80036;stroke-width:1.5;" x1="54.5" x2="136.5" y1="414.7734" y2="414.7734"/><text fill="#000000" font-family="sans-serif" font-size="11" lengthAdjust="spacing" textLength="46" x="59.5" y="428.9839">control()</text><text fill="#000000" font-family="sans-serif" font-size="11" lengthAdjust="spacing" textLength="37" x="59.5" y="441.7886">know()</text><text fill="#000000" font-family="sans-serif" font-size="11" lengthAdjust="spacing" textLength="27" x="59.5" y="454.5933">get()</text><text fill="#000000" font-family="sans-serif" font-size="11" lengthAdjust="spacing" textLength="35" x="59.5" y="467.3979">want()</text><text fill="#000000" font-family="sans-serif" font-size="11" lengthAdjust="spacing" textLength="36" x="59.5" y="480.2026">input()</text><!--MD5=[9cfa872a99fa8e70a8c023fe905238fd]
class Pet--><rect codeLine="10" fill="#FEFECE" filter="url(#femc61c8u3gr9)" height="78.3828" id="Pet" style="stroke:#A80036;stroke-width:1.5;" width="76" x="172.5" y="389.5"/><text fill="#000000" font-family="sans-serif" font-size="12" lengthAdjust="spacing" textLength="18" x="201.5" y="405.6387">Pet</text><line style="stroke:#A80036;stroke-width:1.5;" x1="173.5" x2="247.5" y1="413.4688" y2="413.4688"/><text fill="#000000" font-family="sans-serif" font-size="11" lengthAdjust="spacing" textLength="64" x="178.5" y="427.6792">information</text><text fill="#000000" font-family="sans-serif" font-size="11" lengthAdjust="spacing" textLength="39" x="178.5" y="440.4839">picture</text><line style="stroke:#A80036;stroke-width:1.5;" x1="173.5" x2="247.5" y1="447.0781" y2="447.0781"/><text fill="#000000" font-family="sans-serif" font-size="11" lengthAdjust="spacing" textLength="24" x="178.5" y="461.2886">list()</text><!--MD5=[18b89e0834131a909517048318a5909c]
class Picture--><rect codeLine="33" fill="#FEFECE" filter="url(#femc61c8u3gr9)" height="39.9688" id="Picture" style="stroke:#A80036;stroke-width:1.5;" width="46" x="283.5" y="408.5"/><text fill="#000000" font-family="sans-serif" font-size="12" lengthAdjust="spacing" textLength="40" x="286.5" y="424.6387">Picture</text><line style="stroke:#A80036;stroke-width:1.5;" x1="284.5" x2="328.5" y1="432.4688" y2="432.4688"/><line style="stroke:#A80036;stroke-width:1.5;" x1="284.5" x2="328.5" y1="440.4688" y2="440.4688"/><!--MD5=[30fd7b95ab383a5e7c83ea23d4ea0fbf]
class Information--><rect codeLine="35" fill="#FEFECE" filter="url(#femc61c8u3gr9)" height="65.5781" id="Information" style="stroke:#A80036;stroke-width:1.5;" width="73" x="415" y="564"/><text fill="#000000" font-family="sans-serif" font-size="12" lengthAdjust="spacing" textLength="67" x="418" y="580.1387">Information</text><line style="stroke:#A80036;stroke-width:1.5;" x1="416" x2="487" y1="587.9688" y2="587.9688"/><line style="stroke:#A80036;stroke-width:1.5;" x1="416" x2="487" y1="595.9688" y2="595.9688"/><text fill="#000000" font-family="sans-serif" font-size="11" lengthAdjust="spacing" textLength="37" x="421" y="610.1792">keep()</text><text fill="#000000" font-family="sans-serif" font-size="11" lengthAdjust="spacing" textLength="52" x="421" y="622.9839">stay_up()</text><!--MD5=[bffffc91ea6363a28ee965dd72c463ae]
class Ability--><rect codeLine="46" fill="#FEFECE" filter="url(#femc61c8u3gr9)" height="52.7734" id="Ability" style="stroke:#A80036;stroke-width:1.5;" width="55" x="7" y="570.5"/><text fill="#000000" font-family="sans-serif" font-size="12" lengthAdjust="spacing" textLength="36" x="16.5" y="586.6387">Ability</text><line style="stroke:#A80036;stroke-width:1.5;" x1="8" x2="61" y1="594.4688" y2="594.4688"/><line style="stroke:#A80036;stroke-width:1.5;" x1="8" x2="61" y1="602.4688" y2="602.4688"/><text fill="#000000" font-family="sans-serif" font-size="11" lengthAdjust="spacing" textLength="43" x="13" y="616.6792">select()</text><!--MD5=[c508b5b6bbe276ff5e2700b6641f837f]
class Appointment--><rect codeLine="49" fill="#FEFECE" filter="url(#femc61c8u3gr9)" height="39.9688" id="Appointment" style="stroke:#A80036;stroke-width:1.5;" width="82" x="680.5" y="408.5"/><text fill="#000000" font-family="sans-serif" font-size="12" lengthAdjust="spacing" textLength="76" x="683.5" y="424.6387">Appointment</text><line style="stroke:#A80036;stroke-width:1.5;" x1="681.5" x2="761.5" y1="432.4688" y2="432.4688"/><line style="stroke:#A80036;stroke-width:1.5;" x1="681.5" x2="761.5" y1="440.4688" y2="440.4688"/><!--MD5=[7fd4401f5c5cb0e3d029c879cad30c04]
class Animal--><rect codeLine="51" fill="#FEFECE" filter="url(#femc61c8u3gr9)" height="39.9688" id="Animal" style="stroke:#A80036;stroke-width:1.5;" width="45" x="12" y="707"/><text fill="#000000" font-family="sans-serif" font-size="12" lengthAdjust="spacing" textLength="39" x="15" y="723.1387">Animal</text><line style="stroke:#A80036;stroke-width:1.5;" x1="13" x2="56" y1="730.9688" y2="730.9688"/><line style="stroke:#A80036;stroke-width:1.5;" x1="13" x2="56" y1="738.9688" y2="738.9688"/><!--MD5=[d2543b6030cba58518e60e2e2f7be175]
class Agency--><rect codeLine="53" fill="#FEFECE" filter="url(#femc61c8u3gr9)" height="39.9688" id="Agency" style="stroke:#A80036;stroke-width:1.5;" width="51" x="798" y="408.5"/><text fill="#000000" font-family="sans-serif" font-size="12" lengthAdjust="spacing" textLength="45" x="801" y="424.6387">Agency</text><line style="stroke:#A80036;stroke-width:1.5;" x1="799" x2="848" y1="432.4688" y2="432.4688"/><line style="stroke:#A80036;stroke-width:1.5;" x1="799" x2="848" y1="440.4688" y2="440.4688"/><!--MD5=[50f39069cd7d30b8ca10557b7ad7ab8f]
class Reminder--><rect codeLine="55" fill="#FEFECE" filter="url(#femc61c8u3gr9)" height="39.9688" id="Reminder" style="stroke:#A80036;stroke-width:1.5;" width="63" x="884" y="408.5"/><text fill="#000000" font-family="sans-serif" font-size="12" lengthAdjust="spacing" textLength="57" x="887" y="424.6387">Reminder</text><line style="stroke:#A80036;stroke-width:1.5;" x1="885" x2="946" y1="432.4688" y2="432.4688"/><line style="stroke:#A80036;stroke-width:1.5;" x1="885" x2="946" y1="440.4688" y2="440.4688"/><!--MD5=[df76e760f2062188d44f98c21a88999b]
class UI--><rect codeLine="57" fill="#FEFECE" filter="url(#femc61c8u3gr9)" height="39.9688" id="UI" style="stroke:#A80036;stroke-width:1.5;" width="18" x="982.5" y="408.5"/><text fill="#000000" font-family="sans-serif" font-size="12" lengthAdjust="spacing" textLength="12" x="985.5" y="424.6387">UI</text><line style="stroke:#A80036;stroke-width:1.5;" x1="983.5" x2="999.5" y1="432.4688" y2="432.4688"/><line style="stroke:#A80036;stroke-width:1.5;" x1="983.5" x2="999.5" y1="440.4688" y2="440.4688"/><!--MD5=[8e27f3323bcc26430cc0e86656f150b6]
class SchedulingFunction--><rect codeLine="59" fill="#FEFECE" filter="url(#femc61c8u3gr9)" height="39.9688" id="SchedulingFunction" style="stroke:#A80036;stroke-width:1.5;" width="122" x="1035.5" y="408.5"/><text fill="#000000" font-family="sans-serif" font-size="12" lengthAdjust="spacing" textLength="116" x="1038.5" y="424.6387">SchedulingFunction</text><line style="stroke:#A80036;stroke-width:1.5;" x1="1036.5" x2="1156.5" y1="432.4688" y2="432.4688"/><line style="stroke:#A80036;stroke-width:1.5;" x1="1036.5" x2="1156.5" y1="440.4688" y2="440.4688"/><!--MD5=[76b5e19c9337179d2d7ae334371d68c8]
class Notification--><rect codeLine="61" fill="#FEFECE" filter="url(#femc61c8u3gr9)" height="39.9688" id="Notification" style="stroke:#A80036;stroke-width:1.5;" width="72" x="97.5" y="577"/><text fill="#000000" font-family="sans-serif" font-size="12" lengthAdjust="spacing" textLength="66" x="100.5" y="593.1387">Notification</text><line style="stroke:#A80036;stroke-width:1.5;" x1="98.5" x2="168.5" y1="600.9688" y2="600.9688"/><line style="stroke:#A80036;stroke-width:1.5;" x1="98.5" x2="168.5" y1="608.9688" y2="608.9688"/><!--MD5=[bddb511951cf0a1d6a79f67b0c2ed87d]
class Filter--><rect codeLine="63" fill="#FEFECE" filter="url(#femc61c8u3gr9)" height="39.9688" id="Filter" style="stroke:#A80036;stroke-width:1.5;" width="36" x="1192.5" y="408.5"/><text fill="#000000" font-family="sans-serif" font-size="12" lengthAdjust="spacing" textLength="30" x="1195.5" y="424.6387">Filter</text><line style="stroke:#A80036;stroke-width:1.5;" x1="1193.5" x2="1227.5" y1="432.4688" y2="432.4688"/><line style="stroke:#A80036;stroke-width:1.5;" x1="1193.5" x2="1227.5" y1="440.4688" y2="440.4688"/><!--MD5=[2741598bdf59a7d7e0d5c97658fd3022]
class Result--><rect codeLine="65" fill="#FEFECE" filter="url(#femc61c8u3gr9)" height="39.9688" id="Result" style="stroke:#A80036;stroke-width:1.5;" width="42" x="1264.5" y="408.5"/><text fill="#000000" font-family="sans-serif" font-size="12" lengthAdjust="spacing" textLength="36" x="1267.5" y="424.6387">Result</text><line style="stroke:#A80036;stroke-width:1.5;" x1="1265.5" x2="1305.5" y1="432.4688" y2="432.4688"/><line style="stroke:#A80036;stroke-width:1.5;" x1="1265.5" x2="1305.5" y1="440.4688" y2="440.4688"/><!--MD5=[0be64d42f857169ab3dbde34931f83c2]
class GoogleCalendar--><rect codeLine="67" fill="#FEFECE" filter="url(#femc61c8u3gr9)" height="39.9688" id="GoogleCalendar" style="stroke:#A80036;stroke-width:1.5;" width="103" x="1045" y="577"/><text fill="#000000" font-family="sans-serif" font-size="12" lengthAdjust="spacing" textLength="97" x="1048" y="593.1387">GoogleCalendar</text><line style="stroke:#A80036;stroke-width:1.5;" x1="1046" x2="1147" y1="600.9688" y2="600.9688"/><line style="stroke:#A80036;stroke-width:1.5;" x1="1046" x2="1147" y1="608.9688" y2="608.9688"/><!--MD5=[93548ce508d075e67ede6c473b7474c3]
link User to Pet--><path codeLine="69" d="M679.226,162.852 C600.06,183.658 426.37,236.128 303.5,323 C279.424,340.022 257.268,364.402 240.625,385.332 " fill="none" id="User-to-Pet" style="stroke:#A80036;stroke-width:1.0;"/><polygon fill="#A80036" points="237.371,389.469,246.0793,384.8683,240.4623,385.5391,239.7915,379.9222,237.371,389.469" style="stroke:#A80036;stroke-width:1.0;"/><text fill="#000000" font-family="sans-serif" font-size="13" lengthAdjust="spacing" textLength="23" x="304.5" y="336.0669">see</text><!--MD5=[87124c9ddd046e983f03a9e038c77925]
reverse link User to Information--><path codeLine="70" d="M667.042,172.566 C594.93,202.621 471.622,267.055 426.5,370 C398.292,434.356 421.397,518.479 438.096,563.767 " fill="none" id="User-backto-Information" style="stroke:#A80036;stroke-width:1.0;"/><polygon fill="#FFFFFF" points="679.449,167.523,672.3844,166.0771,668.3325,172.0421,675.3971,173.4881,679.449,167.523" style="stroke:#A80036;stroke-width:1.0;"/><text fill="#000000" font-family="sans-serif" font-size="13" lengthAdjust="spacing" textLength="32" x="427.5" y="433.0669">want</text><!--MD5=[87124c9ddd046e983f03a9e038c77925]
reverse link User to Information--><path codeLine="72" d="M669.782,200.148 C627.414,241.563 568.463,304.977 530.5,370 C493.198,433.892 469.576,518.196 458.644,563.637 " fill="none" id="User-backto-Information-1" style="stroke:#A80036;stroke-width:1.0;"/><polygon fill="#FFFFFF" points="679.363,190.88,672.2694,192.1764,670.7378,199.223,677.8314,197.9266,679.363,190.88" style="stroke:#A80036;stroke-width:1.0;"/><text fill="#000000" font-family="sans-serif" font-size="13" lengthAdjust="spacing" textLength="23" x="531.5" y="433.0669">see</text><!--MD5=[87124c9ddd046e983f03a9e038c77925]
reverse link User to Information--><path codeLine="83" d="M673.622,250.367 C655.372,287.769 634.417,330.834 615.5,370 C590.427,421.912 592.695,439.867 559.5,487 C539.099,515.967 510.745,544.256 488.209,564.753 " fill="none" id="User-backto-Information-2" style="stroke:#A80036;stroke-width:1.0;"/><polygon fill="#FFFFFF" points="679.446,238.434,673.2198,242.0719,674.1831,249.2183,680.4093,245.5805,679.446,238.434" style="stroke:#A80036;stroke-width:1.0;"/><text fill="#000000" font-family="sans-serif" font-size="13" lengthAdjust="spacing" textLength="45" x="616.5" y="433.0669">modify</text><!--MD5=[bc62c84d0432f6073a28aea9e3dc541c]
reverse link Shelter to Information--><path codeLine="71" d="M148.018,482.629 C150.158,484.164 152.322,485.628 154.5,487 C240.011,540.866 356.031,573.609 414.528,587.766 " fill="none" id="Shelter-backto-Information" style="stroke:#A80036;stroke-width:1.0;"/><polygon fill="#FFFFFF" points="137.551,474.447,139.8141,481.2938,147.0046,481.8382,144.7415,474.9914,137.551,474.447" style="stroke:#A80036;stroke-width:1.0;"/><text fill="#000000" font-family="sans-serif" font-size="13" lengthAdjust="spacing" textLength="32" x="248.5" y="530.0669">input</text><!--MD5=[7c0d43220991bac04c54f5912ae2e5bb]
link User to Agency--><path codeLine="73" d="M763.576,265.941 C782.537,317.061 803.196,372.76 814.627,403.578 " fill="none" id="User-to-Agency" style="stroke:#A80036;stroke-width:1.0;"/><polygon fill="#A80036" points="816.381,408.306,816.9997,398.4766,814.6414,403.6184,809.4996,401.26,816.381,408.306" style="stroke:#A80036;stroke-width:1.0;"/><text fill="#000000" font-family="sans-serif" font-size="13" lengthAdjust="spacing" textLength="42" x="792.5" y="336.0669">inform</text><!--MD5=[db3d45c735db5d92206c97ab66548b70]
link User to Reminder--><path codeLine="74" d="M763.541,210.712 C787.179,243.578 817.145,285.467 843.5,323 C862.885,350.606 884.837,382.571 899.351,403.806 " fill="none" id="User-to-Reminder" style="stroke:#A80036;stroke-width:1.0;"/><polygon fill="#A80036" points="902.332,408.169,900.5588,398.4811,899.5119,404.0402,893.9527,402.9933,902.332,408.169" style="stroke:#A80036;stroke-width:1.0;"/><text fill="#000000" font-family="sans-serif" font-size="13" lengthAdjust="spacing" textLength="21" x="854.5" y="336.0669">get</text><!--MD5=[48af56c9a0e5a8a77220d910b4b4e159]
link User to UI--><path codeLine="75" d="M763.58,181.818 C816.126,220.137 906.185,291.654 964.5,370 C972.038,380.127 978.233,392.694 982.779,403.494 " fill="none" id="User-to-UI" style="stroke:#A80036;stroke-width:1.0;"/><polygon fill="#A80036" points="984.751,408.317,985.0456,398.4725,982.8579,403.6892,977.6412,401.5015,984.751,408.317" style="stroke:#A80036;stroke-width:1.0;"/><text fill="#000000" font-family="sans-serif" font-size="13" lengthAdjust="spacing" textLength="23" x="938.5" y="336.0669">use</text><!--MD5=[c3a439e3d88944b870cb0c6c03c51da5]
link Ability to Animal--><path codeLine="76" d="M34.5,623.595 C34.5,646.289 34.5,679.2065 34.5,701.5484 " fill="none" id="Ability-to-Animal" style="stroke:#A80036;stroke-width:1.0;"/><polygon fill="#A80036" points="34.5,706.7072,38.5,697.7072,34.5,701.7072,30.5,697.7072,34.5,706.7072" style="stroke:#A80036;stroke-width:1.0;"/><text fill="#000000" font-family="sans-serif" font-size="13" lengthAdjust="spacing" textLength="38" x="35.5" y="673.0669">select</text><!--MD5=[ded0fb5f7d8afae38f6f17e4b4cd9ec3]
link User to SchedulingFunction--><path codeLine="77" d="M763.738,179.713 C813.944,212.447 899.82,269.669 970.5,323 C1006.246,349.972 1045.72,383.331 1070.8,404.996 " fill="none" id="User-to-SchedulingFunction" style="stroke:#A80036;stroke-width:1.0;"/><polygon fill="#A80036" points="1074.69,408.37,1070.5007,399.4565,1070.9087,405.0987,1065.2666,405.5067,1074.69,408.37" style="stroke:#A80036;stroke-width:1.0;"/><text fill="#000000" font-family="sans-serif" font-size="13" lengthAdjust="spacing" textLength="32" x="993.5" y="336.0669">want</text><!--MD5=[e78b158d9a99272efa72bbee0fe4f77a]
link Shelter to Notification--><path codeLine="78" d="M108.684,487.266 C115.273,516.135 122.894,549.528 127.933,571.61 " fill="none" id="Shelter-to-Notification" style="stroke:#A80036;stroke-width:1.0;"/><polygon fill="#A80036" points="129.094,576.694,130.9904,567.0294,127.9811,571.8194,123.1911,568.8101,129.094,576.694" style="stroke:#A80036;stroke-width:1.0;"/><text fill="#000000" font-family="sans-serif" font-size="13" lengthAdjust="spacing" textLength="21" x="120.5" y="530.0669">get</text><!--MD5=[0395d19c5d4b253bc8342f831d3ae628]
reverse link User to Appointment--><path codeLine="79" d="M721.5,306.244 C721.5,347.106 721.5,386.027 721.5,408.299 " fill="none" id="User-backto-Appointment" style="stroke:#A80036;stroke-width:1.0;"/><polygon fill="#FFFFFF" points="721.5,293.222,717.5,299.222,721.5,305.222,725.5,299.222,721.5,293.222" style="stroke:#A80036;stroke-width:1.0;"/><text fill="#000000" font-family="sans-serif" font-size="13" lengthAdjust="spacing" textLength="31" x="722.5" y="336.0669">book</text><!--MD5=[5397643791c131ed82debcaa0fb65303]
link SchedulingFunction to GoogleCalendar--><path codeLine="80" d="M1096.5,448.6 C1096.5,479.005 1096.5,538.378 1096.5,571.744 " fill="none" id="SchedulingFunction-to-GoogleCalendar" style="stroke:#A80036;stroke-width:1.0;"/><polygon fill="#A80036" points="1096.5,576.867,1100.5,567.867,1096.5,571.867,1092.5,567.867,1096.5,576.867" style="stroke:#A80036;stroke-width:1.0;"/><text fill="#000000" font-family="sans-serif" font-size="13" lengthAdjust="spacing" textLength="88" x="1097.5" y="530.0669">supported_by</text><!--MD5=[993a1ed30139d6bc9fd462e29443e622]
link User to User--><path codeLine="81" d="M763.869,118.213 C782.483,115.268 798.5,126.363 798.5,151.5 C798.5,174.28 785.345,185.528 769.024,185.245 " fill="none" id="User-to-User" style="stroke:#A80036;stroke-width:1.0;"/><polygon fill="#A80036" points="763.869,184.787,772.4793,189.5685,768.8493,185.2299,773.1879,181.5999,763.869,184.787" style="stroke:#A80036;stroke-width:1.0;"/><text fill="#000000" font-family="sans-serif" font-size="13" lengthAdjust="spacing" textLength="42" x="804.5" y="156.0669">decide</text><!--MD5=[b878fafb79de2b9e39147c0e5651d71c]
link User to Filter--><path codeLine="82" d="M763.809,164.057 C849.711,189.253 1047.19,256.177 1174.5,370 C1184.95,379.342 1193.46,392.423 1199.58,403.749 " fill="none" id="User-to-Filter" style="stroke:#A80036;stroke-width:1.0;"/><polygon fill="#A80036" points="1202.06,408.479,1201.4318,398.6502,1199.742,404.0488,1194.3434,402.359,1202.06,408.479" style="stroke:#A80036;stroke-width:1.0;"/><text fill="#000000" font-family="sans-serif" font-size="13" lengthAdjust="spacing" textLength="35" x="1133.5" y="336.0669">apply</text><!--MD5=[6b59dc3038d4f5bc0c27e9520e2febc8]
link User to Shelter--><path codeLine="84" d="M679.303,165.747 C595.682,192.42 403.527,255.812 247.5,323 C204.964,341.317 192.186,343.082 154.5,370 C150.134,373.119 145.78,376.558 141.529,380.158 " fill="none" id="User-to-Shelter" style="stroke:#A80036;stroke-width:1.0;"/><polygon fill="#A80036" points="137.656,383.503,147.0817,380.6473,141.44,380.2347,141.8525,374.5929,137.656,383.503" style="stroke:#A80036;stroke-width:1.0;"/><text fill="#000000" font-family="sans-serif" font-size="13" lengthAdjust="spacing" textLength="26" x="248.5" y="336.0669">visit</text><!--MD5=[c0646aff05db046bf03bd07f9451b561]
link User to Picture--><path codeLine="85" d="M679.433,160.935 C603.392,178.255 442.274,224.752 348.5,323 C327.163,345.355 316.164,379.937 310.87,403.128 " fill="none" id="User-to-Picture" style="stroke:#A80036;stroke-width:1.0;"/><polygon fill="#A80036" points="309.765,408.185,315.5961,400.2478,310.8336,403.3005,307.7809,398.5381,309.765,408.185" style="stroke:#A80036;stroke-width:1.0;"/><text fill="#000000" font-family="sans-serif" font-size="13" lengthAdjust="spacing" textLength="23" x="349.5" y="336.0669">see</text><!--MD5=[6ee2f1af10d85f7857e9f45b56d6bf78]
link User to Result--><path codeLine="86" d="M763.527,164.394 C845.711,188.47 1032.35,247.193 1177.5,323 C1210.07,340.007 1219.48,344.061 1245.5,370 C1255.61,380.081 1264.86,393.01 1271.91,404.055 " fill="none" id="User-to-Result" style="stroke:#A80036;stroke-width:1.0;"/><polygon fill="#A80036" points="1274.6,408.342,1273.2132,398.5913,1271.9462,404.1044,1266.433,402.8374,1274.6,408.342" style="stroke:#A80036;stroke-width:1.0;"/><text fill="#000000" font-family="sans-serif" font-size="13" lengthAdjust="spacing" textLength="32" x="1209.5" y="336.0669">have</text><!--MD5=[2c5ee9923cd9026446f6061a2175874e]
link Shelter to Ability--><path codeLine="87" d="M74.3364,487.266 C64.675,513.637 53.6305,543.783 45.625,565.634 " fill="none" id="Shelter-to-Ability" style="stroke:#A80036;stroke-width:1.0;"/><polygon fill="#A80036" points="43.8627,570.444,50.7146,563.3693,45.5827,565.7492,43.2028,560.6173,43.8627,570.444" style="stroke:#A80036;stroke-width:1.0;"/><text fill="#000000" font-family="sans-serif" font-size="13" lengthAdjust="spacing" textLength="32" x="64.5" y="530.0669">want</text><!--MD5=[f5d998b7a9918c1d1c35c018430f081a]
@startuml
hide circle
class User<actor> {
	appointment
	information
	location
}
class Shelter<actor> {
	information
}
class Pet {
	information
	picture
	list()
}
class User {
	inform()
	make()
	book()
	know()
	have()
	get()
	contact()
	want()
	update()
	use()
	decide()
	cancel()
	apply()
	see()
	visit()
	modify()
}
class Picture {
}
class Information {
	keep()
	stay_up()
}
class Shelter {
	control()
	know()
	get()
	want()
	input()
}
class Ability {
	select()
}
class Appointment {
}
class Animal {
}
class Agency {
}
class Reminder {
}
class UI {
}
class SchedulingFunction {
}
class Notification {
}
class Filter {
}
class Result {
}
class GoogleCalendar {
}
User - -> Pet : see
User o- - Information : want
Shelter o- - Information : input
User o- - Information : see
User - -> Agency : inform
User - -> Reminder : get
User - -> UI : use
Ability - -> Animal : select
User - -> SchedulingFunction : want
Shelter - -> Notification : get
User o- - Appointment : book
SchedulingFunction - -> GoogleCalendar : supported_by
User - -> User : decide
User - -> Filter : apply
User o- - Information : modify
User - -> Shelter : visit
User - -> Picture : see
User - -> Result : have
Shelter - -> Ability : want
@enduml

PlantUML version 1.2021.10beta2(Unknown compile time)
(GPL source distribution)
Java Runtime: Java(TM) SE Runtime Environment
JVM: Java HotSpot(TM) 64-Bit Server VM
Default Encoding: UTF-8
Language: en
Country: US
--></g></svg>