<?xml version="1.0" encoding="UTF-8" standalone="no"?><svg xmlns="http://www.w3.org/2000/svg" xmlns:xlink="http://www.w3.org/1999/xlink" contentScriptType="application/ecmascript" contentStyleType="text/css" height="398px" preserveAspectRatio="none" style="width:1673px;height:398px;background:#FFFFFF;" version="1.1" viewBox="0 0 1673 398" width="1673px" zoomAndPan="magnify"><defs><filter height="300%" id="f1ptl7jnge8wd5" width="300%" x="-1" y="-1"><feGaussianBlur result="blurOut" stdDeviation="2.0"/><feColorMatrix in="blurOut" result="blurOut2" type="matrix" values="0 0 0 0 0 0 0 0 0 0 0 0 0 0 0 0 0 0 .4 0"/><feOffset dx="4.0" dy="4.0" in="blurOut2" result="blurOut3"/><feBlend in="SourceGraphic" in2="blurOut3" mode="normal"/></filter></defs><g><!--MD5=[3fd616f346a44cd59a91eb10b19e157c]
class User--><rect codeLine="6" fill="#FEFECE" filter="url(#f1ptl7jnge8wd5)" height="244.8438" id="User" style="stroke:#A80036;stroke-width:1.5;" width="79" x="805" y="10"/><text fill="#000000" font-family="sans-serif" font-size="12" lengthAdjust="spacing" textLength="29" x="812.5" y="26.1387">User</text><rect fill="#FFFFFF" height="15.9688" style="stroke:#000000;stroke-width:1.0;stroke-dasharray:2.0,2.0;" width="33" x="854" y="7"/><text fill="#000000" font-family="sans-serif" font-size="12" font-style="italic" lengthAdjust="spacing" textLength="31" x="855" y="19.1387">actor</text><line style="stroke:#A80036;stroke-width:1.5;" x1="806" x2="883" y1="33.9688" y2="33.9688"/><line style="stroke:#A80036;stroke-width:1.5;" x1="806" x2="883" y1="41.9688" y2="41.9688"/><text fill="#000000" font-family="sans-serif" font-size="11" lengthAdjust="spacing" textLength="52" x="811" y="56.1792">recover()</text><text fill="#000000" font-family="sans-serif" font-size="11" lengthAdjust="spacing" textLength="30" x="811" y="68.9839">edit()</text><text fill="#000000" font-family="sans-serif" font-size="11" lengthAdjust="spacing" textLength="60" x="811" y="81.7886">detonate()</text><text fill="#000000" font-family="sans-serif" font-size="11" lengthAdjust="spacing" textLength="67" x="811" y="94.5933">registered()</text><text fill="#000000" font-family="sans-serif" font-size="11" lengthAdjust="spacing" textLength="52" x="811" y="107.3979">register()</text><text fill="#000000" font-family="sans-serif" font-size="11" lengthAdjust="spacing" textLength="34" x="811" y="120.2026">hear()</text><text fill="#000000" font-family="sans-serif" font-size="11" lengthAdjust="spacing" textLength="37" x="811" y="133.0073">have()</text><text fill="#000000" font-family="sans-serif" font-size="11" lengthAdjust="spacing" textLength="53" x="811" y="145.812">remove()</text><text fill="#000000" font-family="sans-serif" font-size="11" lengthAdjust="spacing" textLength="39" x="811" y="158.6167">place()</text><text fill="#000000" font-family="sans-serif" font-size="11" lengthAdjust="spacing" textLength="50" x="811" y="171.4214">change()</text><text fill="#000000" font-family="sans-serif" font-size="11" lengthAdjust="spacing" textLength="29" x="811" y="184.2261">buy()</text><text fill="#000000" font-family="sans-serif" font-size="11" lengthAdjust="spacing" textLength="32" x="811" y="197.0308">play()</text><text fill="#000000" font-family="sans-serif" font-size="11" lengthAdjust="spacing" textLength="27" x="811" y="209.8354">get()</text><text fill="#000000" font-family="sans-serif" font-size="11" lengthAdjust="spacing" textLength="30" x="811" y="222.6401">see()</text><text fill="#000000" font-family="sans-serif" font-size="11" lengthAdjust="spacing" textLength="34" x="811" y="235.4448">beat()</text><text fill="#000000" font-family="sans-serif" font-size="11" lengthAdjust="spacing" textLength="49" x="811" y="248.2495">choose()</text><!--MD5=[d342058c8fb6f80e9d50d673c6908241]
class Developer--><rect codeLine="4" fill="#FEFECE" filter="url(#f1ptl7jnge8wd5)" height="39.9688" id="Developer" style="stroke:#A80036;stroke-width:1.5;" width="105" x="919" y="112.5"/><text fill="#000000" font-family="sans-serif" font-size="12" lengthAdjust="spacing" textLength="64" x="922" y="128.6387">Developer</text><rect fill="#FFFFFF" height="15.9688" style="stroke:#000000;stroke-width:1.0;stroke-dasharray:2.0,2.0;" width="33" x="994" y="109.5"/><text fill="#000000" font-family="sans-serif" font-size="12" font-style="italic" lengthAdjust="spacing" textLength="31" x="995" y="121.6387">actor</text><line style="stroke:#A80036;stroke-width:1.5;" x1="920" x2="1023" y1="136.4688" y2="136.4688"/><line style="stroke:#A80036;stroke-width:1.5;" x1="920" x2="1023" y1="144.4688" y2="144.4688"/><!--MD5=[1a7e4ab60610fedec53391594f6b4b9b]
class GamingExperience--><rect codeLine="24" fill="#FEFECE" filter="url(#f1ptl7jnge8wd5)" height="39.9688" id="GamingExperience" style="stroke:#A80036;stroke-width:1.5;" width="119" x="7" y="338.5"/><text fill="#000000" font-family="sans-serif" font-size="12" lengthAdjust="spacing" textLength="113" x="10" y="354.6387">GamingExperience</text><line style="stroke:#A80036;stroke-width:1.5;" x1="8" x2="125" y1="362.4688" y2="362.4688"/><line style="stroke:#A80036;stroke-width:1.5;" x1="8" x2="125" y1="370.4688" y2="370.4688"/><!--MD5=[c58f1aaa489635c131bb08a383b1b7df]
class Multiplier--><rect codeLine="26" fill="#FEFECE" filter="url(#f1ptl7jnge8wd5)" height="39.9688" id="Multiplier" style="stroke:#A80036;stroke-width:1.5;" width="60" x="161.5" y="338.5"/><text fill="#000000" font-family="sans-serif" font-size="12" lengthAdjust="spacing" textLength="54" x="164.5" y="354.6387">Multiplier</text><line style="stroke:#A80036;stroke-width:1.5;" x1="162.5" x2="220.5" y1="362.4688" y2="362.4688"/><line style="stroke:#A80036;stroke-width:1.5;" x1="162.5" x2="220.5" y1="370.4688" y2="370.4688"/><!--MD5=[b6dcce5e5ef3c84b0b048d11301373dd]
class Game--><rect codeLine="28" fill="#FEFECE" filter="url(#f1ptl7jnge8wd5)" height="52.7734" id="Game" style="stroke:#A80036;stroke-width:1.5;" width="62" x="256.5" y="332"/><text fill="#000000" font-family="sans-serif" font-size="12" lengthAdjust="spacing" textLength="35" x="270" y="348.1387">Game</text><line style="stroke:#A80036;stroke-width:1.5;" x1="257.5" x2="317.5" y1="355.9688" y2="355.9688"/><line style="stroke:#A80036;stroke-width:1.5;" x1="257.5" x2="317.5" y1="363.9688" y2="363.9688"/><text fill="#000000" font-family="sans-serif" font-size="11" lengthAdjust="spacing" textLength="50" x="262.5" y="378.1792">attracts()</text><!--MD5=[c1de272898d89776fcc8107b22f2c59c]
class ProfileInformation--><rect codeLine="31" fill="#FEFECE" filter="url(#f1ptl7jnge8wd5)" height="39.9688" id="ProfileInformation" style="stroke:#A80036;stroke-width:1.5;" width="110" x="353.5" y="338.5"/><text fill="#000000" font-family="sans-serif" font-size="12" lengthAdjust="spacing" textLength="104" x="356.5" y="354.6387">ProfileInformation</text><line style="stroke:#A80036;stroke-width:1.5;" x1="354.5" x2="462.5" y1="362.4688" y2="362.4688"/><line style="stroke:#A80036;stroke-width:1.5;" x1="354.5" x2="462.5" y1="370.4688" y2="370.4688"/><!--MD5=[7bff1aba3b0d0725284345139f4478e9]
class History--><rect codeLine="33" fill="#FEFECE" filter="url(#f1ptl7jnge8wd5)" height="39.9688" id="History" style="stroke:#A80036;stroke-width:1.5;" width="49" x="499" y="338.5"/><text fill="#000000" font-family="sans-serif" font-size="12" lengthAdjust="spacing" textLength="43" x="502" y="354.6387">History</text><line style="stroke:#A80036;stroke-width:1.5;" x1="500" x2="547" y1="362.4688" y2="362.4688"/><line style="stroke:#A80036;stroke-width:1.5;" x1="500" x2="547" y1="370.4688" y2="370.4688"/><!--MD5=[004adecf53ebd169fe537d53b72288dd]
class Animation--><rect codeLine="35" fill="#FEFECE" filter="url(#f1ptl7jnge8wd5)" height="39.9688" id="Animation" style="stroke:#A80036;stroke-width:1.5;" width="64" x="583.5" y="338.5"/><text fill="#000000" font-family="sans-serif" font-size="12" lengthAdjust="spacing" textLength="58" x="586.5" y="354.6387">Animation</text><line style="stroke:#A80036;stroke-width:1.5;" x1="584.5" x2="646.5" y1="362.4688" y2="362.4688"/><line style="stroke:#A80036;stroke-width:1.5;" x1="584.5" x2="646.5" y1="370.4688" y2="370.4688"/><!--MD5=[7505e286249b15c81eb830586b01f924]
class Bomb--><rect codeLine="37" fill="#FEFECE" filter="url(#f1ptl7jnge8wd5)" height="39.9688" id="Bomb" style="stroke:#A80036;stroke-width:1.5;" width="41" x="733" y="338.5"/><text fill="#000000" font-family="sans-serif" font-size="12" lengthAdjust="spacing" textLength="35" x="736" y="354.6387">Bomb</text><line style="stroke:#A80036;stroke-width:1.5;" x1="734" x2="773" y1="362.4688" y2="362.4688"/><line style="stroke:#A80036;stroke-width:1.5;" x1="734" x2="773" y1="370.4688" y2="370.4688"/><!--MD5=[107af66394bf1ebaa045812c9c475148]
class Score--><rect codeLine="39" fill="#FEFECE" filter="url(#f1ptl7jnge8wd5)" height="39.9688" id="Score" style="stroke:#A80036;stroke-width:1.5;" width="42" x="976.5" y="338.5"/><text fill="#000000" font-family="sans-serif" font-size="12" lengthAdjust="spacing" textLength="36" x="979.5" y="354.6387">Score</text><line style="stroke:#A80036;stroke-width:1.5;" x1="977.5" x2="1017.5" y1="362.4688" y2="362.4688"/><line style="stroke:#A80036;stroke-width:1.5;" x1="977.5" x2="1017.5" y1="370.4688" y2="370.4688"/><!--MD5=[f694847fc702e0723b49e5500a5c29a4]
class Username--><rect codeLine="41" fill="#FEFECE" filter="url(#f1ptl7jnge8wd5)" height="39.9688" id="Username" style="stroke:#A80036;stroke-width:1.5;" width="68" x="1076.5" y="338.5"/><text fill="#000000" font-family="sans-serif" font-size="12" lengthAdjust="spacing" textLength="62" x="1079.5" y="354.6387">Username</text><line style="stroke:#A80036;stroke-width:1.5;" x1="1077.5" x2="1143.5" y1="362.4688" y2="362.4688"/><line style="stroke:#A80036;stroke-width:1.5;" x1="1077.5" x2="1143.5" y1="370.4688" y2="370.4688"/><!--MD5=[4c122067c55db3bfdcadf29dc88875c9]
class Reward--><rect codeLine="43" fill="#FEFECE" filter="url(#f1ptl7jnge8wd5)" height="39.9688" id="Reward" style="stroke:#A80036;stroke-width:1.5;" width="51" x="1186" y="338.5"/><text fill="#000000" font-family="sans-serif" font-size="12" lengthAdjust="spacing" textLength="45" x="1189" y="354.6387">Reward</text><line style="stroke:#A80036;stroke-width:1.5;" x1="1187" x2="1236" y1="362.4688" y2="362.4688"/><line style="stroke:#A80036;stroke-width:1.5;" x1="1187" x2="1236" y1="370.4688" y2="370.4688"/><!--MD5=[354ba6fe2710e9f7c691253c66156a32]
class Effect--><rect codeLine="45" fill="#FEFECE" filter="url(#f1ptl7jnge8wd5)" height="39.9688" id="Effect" style="stroke:#A80036;stroke-width:1.5;" width="40" x="1272.5" y="338.5"/><text fill="#000000" font-family="sans-serif" font-size="12" lengthAdjust="spacing" textLength="34" x="1275.5" y="354.6387">Effect</text><line style="stroke:#A80036;stroke-width:1.5;" x1="1273.5" x2="1311.5" y1="362.4688" y2="362.4688"/><line style="stroke:#A80036;stroke-width:1.5;" x1="1273.5" x2="1311.5" y1="370.4688" y2="370.4688"/><!--MD5=[2f01b1126ff33a0669651ec2488a5ef9]
class Password--><rect codeLine="47" fill="#FEFECE" filter="url(#f1ptl7jnge8wd5)" height="39.9688" id="Password" style="stroke:#A80036;stroke-width:1.5;" width="64" x="1381.5" y="338.5"/><text fill="#000000" font-family="sans-serif" font-size="12" lengthAdjust="spacing" textLength="58" x="1384.5" y="354.6387">Password</text><line style="stroke:#A80036;stroke-width:1.5;" x1="1382.5" x2="1444.5" y1="362.4688" y2="362.4688"/><line style="stroke:#A80036;stroke-width:1.5;" x1="1382.5" x2="1444.5" y1="370.4688" y2="370.4688"/><!--MD5=[028fba31e0312914fa4880b63f0540b8]
class Detail--><rect codeLine="49" fill="#FEFECE" filter="url(#f1ptl7jnge8wd5)" height="39.9688" id="Detail" style="stroke:#A80036;stroke-width:1.5;" width="40" x="1529.5" y="338.5"/><text fill="#000000" font-family="sans-serif" font-size="12" lengthAdjust="spacing" textLength="34" x="1532.5" y="354.6387">Detail</text><line style="stroke:#A80036;stroke-width:1.5;" x1="1530.5" x2="1568.5" y1="362.4688" y2="362.4688"/><line style="stroke:#A80036;stroke-width:1.5;" x1="1530.5" x2="1568.5" y1="370.4688" y2="370.4688"/><!--MD5=[973d64cd927d6fe317c299cd46f4acf0]
class while--><rect codeLine="51" fill="#FEFECE" filter="url(#f1ptl7jnge8wd5)" height="39.9688" id="while" style="stroke:#A80036;stroke-width:1.5;" width="37" x="1622" y="338.5"/><text fill="#000000" font-family="sans-serif" font-size="12" lengthAdjust="spacing" textLength="31" x="1625" y="354.6387">while</text><line style="stroke:#A80036;stroke-width:1.5;" x1="1623" x2="1658" y1="362.4688" y2="362.4688"/><line style="stroke:#A80036;stroke-width:1.5;" x1="1623" x2="1658" y1="370.4688" y2="370.4688"/><!--MD5=[9e5d13337581ae2adbc73e67d86a0392]
link User to ProfileInformation--><path codeLine="53" d="M804.934,149.645 C742.645,175.556 618.511,229.204 518.5,285 C490.786,300.4614 460.801,320.4602 439.147,335.536 " fill="none" id="User-to-ProfileInformation" style="stroke:#A80036;stroke-width:1.0;"/><polygon fill="#A80036" points="434.93,338.4827,444.5983,336.6056,439.0283,335.6184,440.0155,330.0484,434.93,338.4827" style="stroke:#A80036;stroke-width:1.0;"/><text fill="#000000" font-family="sans-serif" font-size="13" lengthAdjust="spacing" textLength="24" x="519.5" y="298.0669">edit</text><!--MD5=[570ec5c4e8a1dd44e7fcb71a8cfc57a6]
link User to Detail--><path codeLine="54" d="M884.157,239.42 C889.271,245.339 895.027,250.639 901.5,255 C1004.857,324.6283 1345.37,239.781 1461.5,285 C1488.42,295.4837 1513.25,317.5811 1529.62,334.6408 " fill="none" id="User-to-Detail" style="stroke:#A80036;stroke-width:1.0;"/><polygon fill="#A80036" points="1533.19,338.4178,1529.9105,329.131,1529.7538,334.7857,1524.0991,334.6289,1533.19,338.4178" style="stroke:#A80036;stroke-width:1.0;"/><text fill="#000000" font-family="sans-serif" font-size="13" lengthAdjust="spacing" textLength="49" x="1492.5" y="298.0669">register</text><!--MD5=[e37c45032bbffc9a32b60ba61ef7ae13]
link User to Bomb--><path codeLine="55" d="M804.754,149.092 C755.112,171 672.458,216.094 637.5,285 C634.082,291.738 633.472,295.6076 637.5,302 C657.22,333.2954 700.005,347.3294 727.738,353.3363 " fill="none" id="User-to-Bomb" style="stroke:#A80036;stroke-width:1.0;"/><polygon fill="#A80036" points="732.733,354.3669,724.7265,348.6313,727.8361,353.3569,723.1105,356.4664,732.733,354.3669" style="stroke:#A80036;stroke-width:1.0;"/><text fill="#000000" font-family="sans-serif" font-size="13" lengthAdjust="spacing" textLength="24" x="638.5" y="298.0669">buy</text><!--MD5=[e37c45032bbffc9a32b60ba61ef7ae13]
link User to Bomb--><path codeLine="58" d="M804.831,161.963 C770.665,189.142 723.755,233.507 703.5,285 C695.399,305.5938 712.441,326.0754 728.784,339.9891 " fill="none" id="User-to-Bomb-1" style="stroke:#A80036;stroke-width:1.0;"/><polygon fill="#A80036" points="732.908,343.381,728.4971,334.5751,729.0461,340.2052,723.4159,340.7542,732.908,343.381" style="stroke:#A80036;stroke-width:1.0;"/><text fill="#000000" font-family="sans-serif" font-size="13" lengthAdjust="spacing" textLength="58" x="704.5" y="298.0669">detonate</text><!--MD5=[e37c45032bbffc9a32b60ba61ef7ae13]
link User to Bomb--><path codeLine="61" d="M804.983,230.772 C789.604,268.628 773.297,308.7684 763.255,333.4866 " fill="none" id="User-to-Bomb-2" style="stroke:#A80036;stroke-width:1.0;"/><polygon fill="#A80036" points="761.333,338.2194,768.426,331.3864,763.2147,333.587,761.0141,328.3757,761.333,338.2194" style="stroke:#A80036;stroke-width:1.0;"/><text fill="#000000" font-family="sans-serif" font-size="13" lengthAdjust="spacing" textLength="34" x="784.5" y="298.0669">place</text><!--MD5=[e37c45032bbffc9a32b60ba61ef7ae13]
link User to Bomb--><path codeLine="62" d="M844.405,255.085 C840.961,271.534 835.594,287.6618 827.5,302 C816.531,321.4298 795.672,336.1171 778.889,345.4865 " fill="none" id="User-to-Bomb-3" style="stroke:#A80036;stroke-width:1.0;"/><polygon fill="#A80036" points="774.274,347.9877,784.0925,347.2151,778.6697,345.6049,780.28,340.182,774.274,347.9877" style="stroke:#A80036;stroke-width:1.0;"/><text fill="#000000" font-family="sans-serif" font-size="13" lengthAdjust="spacing" textLength="50" x="836.5" y="298.0669">remove</text><!--MD5=[9aecce486f7bede5d8dc488e17d94ab5]
link User to History--><path codeLine="56" d="M804.621,147.158 C746.264,168.766 636.813,215.629 565.5,285 C551.326,298.788 540.362,318.3756 533.196,333.7158 " fill="none" id="User-to-History" style="stroke:#A80036;stroke-width:1.0;"/><polygon fill="#A80036" points="531.095,338.329,538.4661,331.797,533.1678,333.7789,531.1859,328.4806,531.095,338.329" style="stroke:#A80036;stroke-width:1.0;"/><text fill="#000000" font-family="sans-serif" font-size="13" lengthAdjust="spacing" textLength="23" x="566.5" y="298.0669">see</text><!--MD5=[e8391b464a8c1f520fe41a9a3701b788]
link User to Animation--><path codeLine="57" d="M804.606,144.992 C747.805,163.756 645.723,206.947 602.5,285 C594.318,299.7745 598.039,318.6007 603.558,333.3658 " fill="none" id="User-to-Animation" style="stroke:#A80036;stroke-width:1.0;"/><polygon fill="#A80036" points="605.484,338.2057,605.8726,328.3645,603.6352,333.5601,598.4396,331.3226,605.484,338.2057" style="stroke:#A80036;stroke-width:1.0;"/><text fill="#000000" font-family="sans-serif" font-size="13" lengthAdjust="spacing" textLength="23" x="603.5" y="298.0669">see</text><!--MD5=[eee29d812ce114e66346c4876dced4ba]
link User to while--><path codeLine="59" d="M884.121,239.474 C889.243,245.38 895.011,250.663 901.5,255 C961.517,295.1127 1482.99,259.424 1550.5,285 C1577.89,295.3757 1603.3,317.4882 1620.09,334.5809 " fill="none" id="User-to-while" style="stroke:#A80036;stroke-width:1.0;"/><polygon fill="#A80036" points="1623.75,338.3657,1620.3774,329.1123,1620.2775,334.7683,1614.6215,334.6683,1623.75,338.3657" style="stroke:#A80036;stroke-width:1.0;"/><text fill="#000000" font-family="sans-serif" font-size="13" lengthAdjust="spacing" textLength="46" x="1582.5" y="298.0669">choose</text><!--MD5=[a654de48d4bf1588b9fb1dcf6440abd6]
link User to Score--><path codeLine="60" d="M884.156,226.092 C889.547,236.103 895.356,245.935 901.5,255 C922.104,285.3996 951.697,315.5106 972.567,335.1487 " fill="none" id="User-to-Score" style="stroke:#A80036;stroke-width:1.0;"/><polygon fill="#A80036" points="976.358,338.6914,972.5138,329.6238,972.705,335.2774,967.0514,335.4686,976.358,338.6914" style="stroke:#A80036;stroke-width:1.0;"/><text fill="#000000" font-family="sans-serif" font-size="13" lengthAdjust="spacing" textLength="29" x="939.5" y="298.0669">beat</text><!--MD5=[a654de48d4bf1588b9fb1dcf6440abd6]
link User to Score--><path codeLine="70" d="M884.065,234.577 C889.253,242 895.046,248.939 901.5,255 C927.97,279.861 953.229,257.988 977.5,285 C989.339,298.176 994.247,317.7476 996.245,333.2359 " fill="none" id="User-to-Score-1" style="stroke:#A80036;stroke-width:1.0;"/><polygon fill="#A80036" points="996.817,338.3168,999.7852,328.9258,996.2577,333.3482,991.8354,329.8207,996.817,338.3168" style="stroke:#A80036;stroke-width:1.0;"/><text fill="#000000" font-family="sans-serif" font-size="13" lengthAdjust="spacing" textLength="23" x="988.5" y="298.0669">see</text><!--MD5=[9f2010a726ff0d425086a1b968f0297b]
link User to Username--><path codeLine="63" d="M884.097,236.645 C889.25,243.426 895.028,249.664 901.5,255 C943.582,289.7001 971.688,260.662 1020.5,285 C1046.04,297.735 1070.98,318.7008 1088.11,334.8192 " fill="none" id="User-to-Username" style="stroke:#A80036;stroke-width:1.0;"/><polygon fill="#A80036" points="1091.86,338.3874,1088.0933,329.2873,1088.2363,334.9423,1082.5812,335.0853,1091.86,338.3874" style="stroke:#A80036;stroke-width:1.0;"/><text fill="#000000" font-family="sans-serif" font-size="13" lengthAdjust="spacing" textLength="65" x="1049.5" y="298.0669">registered</text><!--MD5=[e38a3bde52c7ecfcc01cfe2c1b1a0001]
link User to Reward--><path codeLine="64" d="M884.12,238.292 C889.252,244.562 895.02,250.243 901.5,255 C981.76,313.9171 1032.26,245.156 1123.5,285 C1149.64,296.4153 1174.24,317.9511 1190.74,334.5969 " fill="none" id="User-to-Reward" style="stroke:#A80036;stroke-width:1.0;"/><polygon fill="#A80036" points="1194.35,338.2833,1190.9139,329.0533,1190.8528,334.7098,1185.1963,334.6487,1194.35,338.2833" style="stroke:#A80036;stroke-width:1.0;"/><text fill="#000000" font-family="sans-serif" font-size="13" lengthAdjust="spacing" textLength="21" x="1151.5" y="298.0669">get</text><!--MD5=[5ab1f46e477a8163e64d30b24bef4255]
link User to Password--><path codeLine="65" d="M884.083,238.929 C889.218,245.007 894.998,250.474 901.5,255 C966.659,300.3576 1180.77,264.624 1257.5,285 C1300.42,296.397 1346.11,319.0122 1376.87,335.9696 " fill="none" id="User-to-Password" style="stroke:#A80036;stroke-width:1.0;"/><polygon fill="#A80036" points="1381.3,338.4285,1375.3753,330.561,1376.9292,336.0002,1371.49,337.5542,1381.3,338.4285" style="stroke:#A80036;stroke-width:1.0;"/><text fill="#000000" font-family="sans-serif" font-size="13" lengthAdjust="spacing" textLength="49" x="1308.5" y="298.0669">recover</text><!--MD5=[5ab1f46e477a8163e64d30b24bef4255]
link User to Password--><path codeLine="68" d="M884.211,239.34 C889.313,245.278 895.05,250.604 901.5,255 C987.062,313.3211 1277.16,232.65 1366.5,285 C1384.8,295.7212 1397.22,316.7117 1404.67,333.3594 " fill="none" id="User-to-Password-1" style="stroke:#A80036;stroke-width:1.0;"/><polygon fill="#A80036" points="1406.83,338.3703,1406.9424,328.5221,1404.8516,333.7784,1399.5953,331.6875,1406.83,338.3703" style="stroke:#A80036;stroke-width:1.0;"/><text fill="#000000" font-family="sans-serif" font-size="13" lengthAdjust="spacing" textLength="65" x="1387.5" y="298.0669">registered</text><!--MD5=[de6c51306c395b37c9731b69b285a82d]
link User to Effect--><path codeLine="66" d="M884.199,238.764 C889.308,244.88 895.05,250.401 901.5,255 C952.452,291.3317 1122.49,264.167 1181.5,285 C1214.26,296.5657 1246.98,319.6961 1268.31,336.7336 " fill="none" id="User-to-Effect" style="stroke:#A80036;stroke-width:1.0;"/><polygon fill="#A80036" points="1272.42,340.0546,1267.9333,331.2871,1268.5308,336.9123,1262.9056,337.5098,1272.42,340.0546" style="stroke:#A80036;stroke-width:1.0;"/><text fill="#000000" font-family="sans-serif" font-size="13" lengthAdjust="spacing" textLength="29" x="1219.5" y="298.0669">hear</text><!--MD5=[b9c617f8ff20985e566f1ad3fbfc12d0]
link User to GamingExperience--><path codeLine="67" d="M804.638,136.496 C696.715,145.819 391.629,180.271 163.5,285 C136.322,297.4769 109.399,318.4715 90.8387,334.6663 " fill="none" id="User-to-GamingExperience" style="stroke:#A80036;stroke-width:1.0;"/><polygon fill="#A80036" points="86.7745,338.2527,96.1694,335.297,90.5235,334.9444,90.8761,329.2985,86.7745,338.2527" style="stroke:#A80036;stroke-width:1.0;"/><text fill="#000000" font-family="sans-serif" font-size="13" lengthAdjust="spacing" textLength="32" x="164.5" y="298.0669">have</text><!--MD5=[3886277080dbeb22c0e47db9a476a5a4]
link User to Multiplier--><path codeLine="69" d="M804.883,138.142 C681.366,153.349 306.233,205.308 217.5,285 C203.825,297.2819 197.339,317.2775 194.265,333.1618 " fill="none" id="User-to-Multiplier" style="stroke:#A80036;stroke-width:1.0;"/><polygon fill="#A80036" points="193.348,338.3739,198.8473,330.2034,194.2146,333.4496,190.9684,328.8168,193.348,338.3739" style="stroke:#A80036;stroke-width:1.0;"/><text fill="#000000" font-family="sans-serif" font-size="13" lengthAdjust="spacing" textLength="47" x="218.5" y="298.0669">change</text><!--MD5=[7ce62e6be194a4eb1cd79b7464013187]
link User to Game--><path codeLine="71" d="M804.797,137.979 C687.337,152.126 345.666,200.019 280.5,285 C271.522,296.7076 272.182,312.8025 275.559,326.854 " fill="none" id="User-to-Game" style="stroke:#A80036;stroke-width:1.0;"/><polygon fill="#A80036" points="276.913,331.9265,278.4562,322.1993,275.6233,327.0957,270.7269,324.2628,276.913,331.9265" style="stroke:#A80036;stroke-width:1.0;"/><text fill="#000000" font-family="sans-serif" font-size="13" lengthAdjust="spacing" textLength="27" x="281.5" y="298.0669">play</text><!--MD5=[6b1f4da4dbea5ad1d54138511ad965a7]
link Game to User--><path codeLine="72" d="M318.703,340.3527 C347.512,324.8688 391.728,301.9767 431.5,285 C563.295,228.744 723.756,173.567 800.063,148.108 " fill="none" id="Game-to-User" style="stroke:#A80036;stroke-width:1.0;"/><polygon fill="#A80036" points="804.966,146.474,795.1629,145.5262,800.2227,148.0556,797.6934,153.1154,804.966,146.474" style="stroke:#A80036;stroke-width:1.0;"/><text fill="#000000" font-family="sans-serif" font-size="13" lengthAdjust="spacing" textLength="50" x="432.5" y="298.0669">attracts</text><!--MD5=[e43cf2b3d91c178f6f8ce601d380a590]
@startuml
hide circle
class User<actor> {
}
class Developer<actor> {
}
class User {
	recover()
	edit()
	detonate()
	registered()
	register()
	hear()
	have()
	remove()
	place()
	change()
	buy()
	play()
	get()
	see()
	beat()
	choose()
}
class GamingExperience {
}
class Multiplier {
}
class Game {
	attracts()
}
class ProfileInformation {
}
class History {
}
class Animation {
}
class Bomb {
}
class Score {
}
class Username {
}
class Reward {
}
class Effect {
}
class Password {
}
class Detail {
}
class while {
}
User - -> ProfileInformation : edit
User - -> Detail : register
User - -> Bomb : buy
User - -> History : see
User - -> Animation : see
User - -> Bomb : detonate
User - -> while : choose
User - -> Score : beat
User - -> Bomb : place
User - -> Bomb : remove
User - -> Username : registered
User - -> Reward : get
User - -> Password : recover
User - -> Effect : hear
User - -> GamingExperience : have
User - -> Password : registered
User - -> Multiplier : change
User - -> Score : see
User - -> Game : play
Game - -> User : attracts
@enduml

PlantUML version 1.2021.6beta6(Unknown compile time)
(GPL source distribution)
Java Runtime: Java(TM) SE Runtime Environment
JVM: Java HotSpot(TM) 64-Bit Server VM
Default Encoding: UTF-8
Language: en
Country: US
--></g></svg>