<?xml version="1.0" encoding="UTF-8" standalone="no"?><svg xmlns="http://www.w3.org/2000/svg" xmlns:xlink="http://www.w3.org/1999/xlink" contentScriptType="application/ecmascript" contentStyleType="text/css" height="835px" preserveAspectRatio="none" style="width:2955px;height:835px;background:#FFFFFF;" version="1.1" viewBox="0 0 2955 835" width="2955px" zoomAndPan="magnify"><defs><filter height="300%" id="f1qv8p38r6djmi" width="300%" x="-1" y="-1"><feGaussianBlur result="blurOut" stdDeviation="2.0"/><feColorMatrix in="blurOut" result="blurOut2" type="matrix" values="0 0 0 0 0 0 0 0 0 0 0 0 0 0 0 0 0 0 .4 0"/><feOffset dx="4.0" dy="4.0" in="blurOut2" result="blurOut3"/><feBlend in="SourceGraphic" in2="blurOut3" mode="normal"/></filter></defs><g><!--MD5=[3fd616f346a44cd59a91eb10b19e157c]
class User--><rect codeLine="13" fill="#FEFECE" filter="url(#f1qv8p38r6djmi)" height="564.9609" id="User" style="stroke:#A80036;stroke-width:1.5;" width="74" x="1442" y="10"/><text fill="#000000" font-family="sans-serif" font-size="12" lengthAdjust="spacing" textLength="29" x="1447" y="26.1387">User</text><rect fill="#FFFFFF" height="15.9688" style="stroke:#000000;stroke-width:1.0;stroke-dasharray:2.0,2.0;" width="33" x="1486" y="7"/><text fill="#000000" font-family="sans-serif" font-size="12" font-style="italic" lengthAdjust="spacing" textLength="31" x="1487" y="19.1387">actor</text><line style="stroke:#A80036;stroke-width:1.5;" x1="1443" x2="1515" y1="33.9688" y2="33.9688"/><text fill="#000000" font-family="sans-serif" font-size="11" lengthAdjust="spacing" textLength="53" x="1448" y="48.1792">password</text><text fill="#000000" font-family="sans-serif" font-size="11" lengthAdjust="spacing" textLength="35" x="1448" y="60.9839">felling</text><text fill="#000000" font-family="sans-serif" font-size="11" lengthAdjust="spacing" textLength="41" x="1448" y="73.7886">privacy</text><text fill="#000000" font-family="sans-serif" font-size="11" lengthAdjust="spacing" textLength="36" x="1448" y="86.5933">record</text><text fill="#000000" font-family="sans-serif" font-size="11" lengthAdjust="spacing" textLength="54" x="1448" y="99.3979">computer</text><text fill="#000000" font-family="sans-serif" font-size="11" lengthAdjust="spacing" textLength="55" x="1448" y="112.2026">eventExit</text><text fill="#000000" font-family="sans-serif" font-size="11" lengthAdjust="spacing" textLength="43" x="1448" y="125.0073">storage</text><text fill="#000000" font-family="sans-serif" font-size="11" lengthAdjust="spacing" textLength="36" x="1448" y="137.812">phone</text><text fill="#000000" font-family="sans-serif" font-size="11" lengthAdjust="spacing" textLength="34" x="1448" y="150.6167">event</text><line style="stroke:#A80036;stroke-width:1.5;" x1="1443" x2="1515" y1="157.2109" y2="157.2109"/><text fill="#000000" font-family="sans-serif" font-size="11" lengthAdjust="spacing" textLength="29" x="1448" y="171.4214">use()</text><text fill="#000000" font-family="sans-serif" font-size="11" lengthAdjust="spacing" textLength="54" x="1448" y="184.2261">express()</text><text fill="#000000" font-family="sans-serif" font-size="11" lengthAdjust="spacing" textLength="45" x="1448" y="197.0308">create()</text><text fill="#000000" font-family="sans-serif" font-size="11" lengthAdjust="spacing" textLength="32" x="1448" y="209.8354">free()</text><text fill="#000000" font-family="sans-serif" font-size="11" lengthAdjust="spacing" textLength="46" x="1448" y="222.6401">search()</text><text fill="#000000" font-family="sans-serif" font-size="11" lengthAdjust="spacing" textLength="37" x="1448" y="235.4448">allow()</text><text fill="#000000" font-family="sans-serif" font-size="11" lengthAdjust="spacing" textLength="40" x="1448" y="248.2495">make()</text><text fill="#000000" font-family="sans-serif" font-size="11" lengthAdjust="spacing" textLength="28" x="1448" y="261.0542">like()</text><text fill="#000000" font-family="sans-serif" font-size="11" lengthAdjust="spacing" textLength="42" x="1448" y="273.8589">report()</text><text fill="#000000" font-family="sans-serif" font-size="11" lengthAdjust="spacing" textLength="38" x="1448" y="286.6636">need()</text><text fill="#000000" font-family="sans-serif" font-size="11" lengthAdjust="spacing" textLength="49" x="1448" y="299.4683">choose()</text><text fill="#000000" font-family="sans-serif" font-size="11" lengthAdjust="spacing" textLength="46" x="1448" y="312.2729">delete()</text><text fill="#000000" font-family="sans-serif" font-size="11" lengthAdjust="spacing" textLength="29" x="1448" y="325.0776">find()</text><text fill="#000000" font-family="sans-serif" font-size="11" lengthAdjust="spacing" textLength="31" x="1448" y="337.8823">look()</text><text fill="#000000" font-family="sans-serif" font-size="11" lengthAdjust="spacing" textLength="23" x="1448" y="350.687">let()</text><text fill="#000000" font-family="sans-serif" font-size="11" lengthAdjust="spacing" textLength="41" x="1448" y="363.4917">log_in()</text><text fill="#000000" font-family="sans-serif" font-size="11" lengthAdjust="spacing" textLength="46" x="1448" y="376.2964">upload()</text><text fill="#000000" font-family="sans-serif" font-size="11" lengthAdjust="spacing" textLength="36" x="1448" y="389.1011">save()</text><text fill="#000000" font-family="sans-serif" font-size="11" lengthAdjust="spacing" textLength="42" x="1448" y="401.9058">forget()</text><text fill="#000000" font-family="sans-serif" font-size="11" lengthAdjust="spacing" textLength="50" x="1448" y="414.7104">change()</text><text fill="#000000" font-family="sans-serif" font-size="11" lengthAdjust="spacing" textLength="39" x="1448" y="427.5151">enter()</text><text fill="#000000" font-family="sans-serif" font-size="11" lengthAdjust="spacing" textLength="30" x="1448" y="440.3198">see()</text><text fill="#000000" font-family="sans-serif" font-size="11" lengthAdjust="spacing" textLength="62" x="1448" y="453.1245">download()</text><text fill="#000000" font-family="sans-serif" font-size="11" lengthAdjust="spacing" textLength="47" x="1448" y="465.9292">review()</text><text fill="#000000" font-family="sans-serif" font-size="11" lengthAdjust="spacing" textLength="38" x="1448" y="478.7339">reset()</text><text fill="#000000" font-family="sans-serif" font-size="11" lengthAdjust="spacing" textLength="35" x="1448" y="491.5386">login()</text><text fill="#000000" font-family="sans-serif" font-size="11" lengthAdjust="spacing" textLength="37" x="1448" y="504.3433">keep()</text><text fill="#000000" font-family="sans-serif" font-size="11" lengthAdjust="spacing" textLength="35" x="1448" y="517.1479">want()</text><text fill="#000000" font-family="sans-serif" font-size="11" lengthAdjust="spacing" textLength="49" x="1448" y="529.9526">extend()</text><text fill="#000000" font-family="sans-serif" font-size="11" lengthAdjust="spacing" textLength="47" x="1448" y="542.7573">picture()</text><text fill="#000000" font-family="sans-serif" font-size="11" lengthAdjust="spacing" textLength="57" x="1448" y="555.562">maintain()</text><text fill="#000000" font-family="sans-serif" font-size="11" lengthAdjust="spacing" textLength="62" x="1448" y="568.3667">comment()</text><!--MD5=[11b747870319a085bc745183e08c5f76]
class Storage--><rect codeLine="47" fill="#FEFECE" filter="url(#f1qv8p38r6djmi)" height="39.9688" id="Storage" style="stroke:#A80036;stroke-width:1.5;" width="54" x="7" y="658.5"/><text fill="#000000" font-family="sans-serif" font-size="12" lengthAdjust="spacing" textLength="48" x="10" y="674.6387">Storage</text><line style="stroke:#A80036;stroke-width:1.5;" x1="8" x2="60" y1="682.4688" y2="682.4688"/><line style="stroke:#A80036;stroke-width:1.5;" x1="8" x2="60" y1="690.4688" y2="690.4688"/><!--MD5=[767cfbea05c90a78f48d55055ddf8984]
class ResolutionPicture--><rect codeLine="49" fill="#FEFECE" filter="url(#f1qv8p38r6djmi)" height="39.9688" id="ResolutionPicture" style="stroke:#A80036;stroke-width:1.5;" width="108" x="115" y="658.5"/><text fill="#000000" font-family="sans-serif" font-size="12" lengthAdjust="spacing" textLength="102" x="118" y="674.6387">ResolutionPicture</text><line style="stroke:#A80036;stroke-width:1.5;" x1="116" x2="222" y1="682.4688" y2="682.4688"/><line style="stroke:#A80036;stroke-width:1.5;" x1="116" x2="222" y1="690.4688" y2="690.4688"/><!--MD5=[2e42295458bb0bec21c9622a623eb29e]
class Time--><rect codeLine="51" fill="#FEFECE" filter="url(#f1qv8p38r6djmi)" height="39.9688" id="Time" style="stroke:#A80036;stroke-width:1.5;" width="35" x="314.5" y="658.5"/><text fill="#000000" font-family="sans-serif" font-size="12" lengthAdjust="spacing" textLength="29" x="317.5" y="674.6387">Time</text><line style="stroke:#A80036;stroke-width:1.5;" x1="315.5" x2="348.5" y1="682.4688" y2="682.4688"/><line style="stroke:#A80036;stroke-width:1.5;" x1="315.5" x2="348.5" y1="690.4688" y2="690.4688"/><!--MD5=[2f01b1126ff33a0669651ec2488a5ef9]
class Password--><rect codeLine="53" fill="#FEFECE" filter="url(#f1qv8p38r6djmi)" height="39.9688" id="Password" style="stroke:#A80036;stroke-width:1.5;" width="64" x="512" y="658.5"/><text fill="#000000" font-family="sans-serif" font-size="12" lengthAdjust="spacing" textLength="58" x="515" y="674.6387">Password</text><line style="stroke:#A80036;stroke-width:1.5;" x1="513" x2="575" y1="682.4688" y2="682.4688"/><line style="stroke:#A80036;stroke-width:1.5;" x1="513" x2="575" y1="690.4688" y2="690.4688"/><!--MD5=[f8e092794d52bf9a252466252ae7bd1c]
class System--><rect codeLine="55" fill="#FEFECE" filter="url(#f1qv8p38r6djmi)" height="39.9688" id="System" style="stroke:#A80036;stroke-width:1.5;" width="51" x="611.5" y="658.5"/><text fill="#000000" font-family="sans-serif" font-size="12" lengthAdjust="spacing" textLength="45" x="614.5" y="674.6387">System</text><line style="stroke:#A80036;stroke-width:1.5;" x1="612.5" x2="661.5" y1="682.4688" y2="682.4688"/><line style="stroke:#A80036;stroke-width:1.5;" x1="612.5" x2="661.5" y1="690.4688" y2="690.4688"/><!--MD5=[ee22b46a919b1a1497ef2e7518f7277f]
class QualityPicture--><rect codeLine="57" fill="#FEFECE" filter="url(#f1qv8p38r6djmi)" height="39.9688" id="QualityPicture" style="stroke:#A80036;stroke-width:1.5;" width="87" x="697.5" y="658.5"/><text fill="#000000" font-family="sans-serif" font-size="12" lengthAdjust="spacing" textLength="81" x="700.5" y="674.6387">QualityPicture</text><line style="stroke:#A80036;stroke-width:1.5;" x1="698.5" x2="783.5" y1="682.4688" y2="682.4688"/><line style="stroke:#A80036;stroke-width:1.5;" x1="698.5" x2="783.5" y1="690.4688" y2="690.4688"/><!--MD5=[791ceb0e5f1f4f7768a59043084da501]
class Lot--><rect codeLine="59" fill="#FEFECE" filter="url(#f1qv8p38r6djmi)" height="39.9688" id="Lot" style="stroke:#A80036;stroke-width:1.5;" width="24" x="820" y="658.5"/><text fill="#000000" font-family="sans-serif" font-size="12" lengthAdjust="spacing" textLength="18" x="823" y="674.6387">Lot</text><line style="stroke:#A80036;stroke-width:1.5;" x1="821" x2="843" y1="682.4688" y2="682.4688"/><line style="stroke:#A80036;stroke-width:1.5;" x1="821" x2="843" y1="690.4688" y2="690.4688"/><!--MD5=[18b89e0834131a909517048318a5909c]
class Picture--><rect codeLine="61" fill="#FEFECE" filter="url(#f1qv8p38r6djmi)" height="39.9688" id="Picture" style="stroke:#A80036;stroke-width:1.5;" width="46" x="1969" y="658.5"/><text fill="#000000" font-family="sans-serif" font-size="12" lengthAdjust="spacing" textLength="40" x="1972" y="674.6387">Picture</text><line style="stroke:#A80036;stroke-width:1.5;" x1="1970" x2="2014" y1="682.4688" y2="682.4688"/><line style="stroke:#A80036;stroke-width:1.5;" x1="1970" x2="2014" y1="690.4688" y2="690.4688"/><!--MD5=[042fa140da40c49659127f611bcff931]
class Comment--><rect codeLine="63" fill="#FEFECE" filter="url(#f1qv8p38r6djmi)" height="39.9688" id="Comment" style="stroke:#A80036;stroke-width:1.5;" width="63" x="971.5" y="658.5"/><text fill="#000000" font-family="sans-serif" font-size="12" lengthAdjust="spacing" textLength="57" x="974.5" y="674.6387">Comment</text><line style="stroke:#A80036;stroke-width:1.5;" x1="972.5" x2="1033.5" y1="682.4688" y2="682.4688"/><line style="stroke:#A80036;stroke-width:1.5;" x1="972.5" x2="1033.5" y1="690.4688" y2="690.4688"/><!--MD5=[a3908a0ec113a75f17921675d1421845]
class Felling--><rect codeLine="65" fill="#FEFECE" filter="url(#f1qv8p38r6djmi)" height="39.9688" id="Felling" style="stroke:#A80036;stroke-width:1.5;" width="45" x="1069.5" y="658.5"/><text fill="#000000" font-family="sans-serif" font-size="12" lengthAdjust="spacing" textLength="39" x="1072.5" y="674.6387">Felling</text><line style="stroke:#A80036;stroke-width:1.5;" x1="1070.5" x2="1113.5" y1="682.4688" y2="682.4688"/><line style="stroke:#A80036;stroke-width:1.5;" x1="1070.5" x2="1113.5" y1="690.4688" y2="690.4688"/><!--MD5=[e09c41c2f9238e7adb85a94dde2227e7]
class Size--><rect codeLine="67" fill="#FEFECE" filter="url(#f1qv8p38r6djmi)" height="39.9688" id="Size" style="stroke:#A80036;stroke-width:1.5;" width="32" x="1150" y="658.5"/><text fill="#000000" font-family="sans-serif" font-size="12" lengthAdjust="spacing" textLength="26" x="1153" y="674.6387">Size</text><line style="stroke:#A80036;stroke-width:1.5;" x1="1151" x2="1181" y1="682.4688" y2="682.4688"/><line style="stroke:#A80036;stroke-width:1.5;" x1="1151" x2="1181" y1="690.4688" y2="690.4688"/><!--MD5=[4296a1ab0576a383a1a509d52c22ebf0]
class Type--><rect codeLine="69" fill="#FEFECE" filter="url(#f1qv8p38r6djmi)" height="39.9688" id="Type" style="stroke:#A80036;stroke-width:1.5;" width="36" x="1217" y="658.5"/><text fill="#000000" font-family="sans-serif" font-size="12" lengthAdjust="spacing" textLength="30" x="1220" y="674.6387">Type</text><line style="stroke:#A80036;stroke-width:1.5;" x1="1218" x2="1252" y1="682.4688" y2="682.4688"/><line style="stroke:#A80036;stroke-width:1.5;" x1="1218" x2="1252" y1="690.4688" y2="690.4688"/><!--MD5=[3f04f889cbbdb3bce32c55a080e41562]
class Browser--><rect codeLine="71" fill="#FEFECE" filter="url(#f1qv8p38r6djmi)" height="52.7734" id="Browser" style="stroke:#A80036;stroke-width:1.5;" width="57" x="879.5" y="652"/><text fill="#000000" font-family="sans-serif" font-size="12" lengthAdjust="spacing" textLength="51" x="882.5" y="668.1387">Browser</text><line style="stroke:#A80036;stroke-width:1.5;" x1="880.5" x2="935.5" y1="675.9688" y2="675.9688"/><line style="stroke:#A80036;stroke-width:1.5;" x1="880.5" x2="935.5" y1="683.9688" y2="683.9688"/><text fill="#000000" font-family="sans-serif" font-size="11" lengthAdjust="spacing" textLength="31" x="885.5" y="698.1792">visit()</text><!--MD5=[ac13618b1a974308c1f12eb6c57723dc]
class Event--><rect codeLine="74" fill="#FEFECE" filter="url(#f1qv8p38r6djmi)" height="39.9688" id="Event" style="stroke:#A80036;stroke-width:1.5;" width="39" x="1628.5" y="782"/><text fill="#000000" font-family="sans-serif" font-size="12" lengthAdjust="spacing" textLength="33" x="1631.5" y="798.1387">Event</text><line style="stroke:#A80036;stroke-width:1.5;" x1="1629.5" x2="1666.5" y1="805.9688" y2="805.9688"/><line style="stroke:#A80036;stroke-width:1.5;" x1="1629.5" x2="1666.5" y1="813.9688" y2="813.9688"/><!--MD5=[cc418a9e5ea6d55840a09e7ee261e5d7]
class SharewebWebsite--><rect codeLine="76" fill="#FEFECE" filter="url(#f1qv8p38r6djmi)" height="39.9688" id="SharewebWebsite" style="stroke:#A80036;stroke-width:1.5;" width="117" x="849.5" y="782"/><text fill="#000000" font-family="sans-serif" font-size="12" lengthAdjust="spacing" textLength="111" x="852.5" y="798.1387">SharewebWebsite</text><line style="stroke:#A80036;stroke-width:1.5;" x1="850.5" x2="965.5" y1="805.9688" y2="805.9688"/><line style="stroke:#A80036;stroke-width:1.5;" x1="850.5" x2="965.5" y1="813.9688" y2="813.9688"/><!--MD5=[8a8146ff89b20cc2efd6e16e3c0a6394]
class Register--><rect codeLine="78" fill="#FEFECE" filter="url(#f1qv8p38r6djmi)" height="39.9688" id="Register" style="stroke:#A80036;stroke-width:1.5;" width="56" x="2293" y="658.5"/><text fill="#000000" font-family="sans-serif" font-size="12" lengthAdjust="spacing" textLength="50" x="2296" y="674.6387">Register</text><line style="stroke:#A80036;stroke-width:1.5;" x1="2294" x2="2348" y1="682.4688" y2="682.4688"/><line style="stroke:#A80036;stroke-width:1.5;" x1="2294" x2="2348" y1="690.4688" y2="690.4688"/><!--MD5=[65eaf00a50d35493392163fa377b2455]
class Privacy--><rect codeLine="80" fill="#FEFECE" filter="url(#f1qv8p38r6djmi)" height="39.9688" id="Privacy" style="stroke:#A80036;stroke-width:1.5;" width="48" x="2384" y="658.5"/><text fill="#000000" font-family="sans-serif" font-size="12" lengthAdjust="spacing" textLength="42" x="2387" y="674.6387">Privacy</text><line style="stroke:#A80036;stroke-width:1.5;" x1="2385" x2="2431" y1="682.4688" y2="682.4688"/><line style="stroke:#A80036;stroke-width:1.5;" x1="2385" x2="2431" y1="690.4688" y2="690.4688"/><!--MD5=[d7f7c8380fcc5e5c5c99c9ab3ec38441]
class Upload--><rect codeLine="82" fill="#FEFECE" filter="url(#f1qv8p38r6djmi)" height="39.9688" id="Upload" style="stroke:#A80036;stroke-width:1.5;" width="49" x="2467.5" y="658.5"/><text fill="#000000" font-family="sans-serif" font-size="12" lengthAdjust="spacing" textLength="43" x="2470.5" y="674.6387">Upload</text><line style="stroke:#A80036;stroke-width:1.5;" x1="2468.5" x2="2515.5" y1="682.4688" y2="682.4688"/><line style="stroke:#A80036;stroke-width:1.5;" x1="2468.5" x2="2515.5" y1="690.4688" y2="690.4688"/><!--MD5=[db25027423b3b96a5b12184dc6d389a4]
class Computer--><rect codeLine="84" fill="#FEFECE" filter="url(#f1qv8p38r6djmi)" height="39.9688" id="Computer" style="stroke:#A80036;stroke-width:1.5;" width="65" x="2551.5" y="658.5"/><text fill="#000000" font-family="sans-serif" font-size="12" lengthAdjust="spacing" textLength="59" x="2554.5" y="674.6387">Computer</text><line style="stroke:#A80036;stroke-width:1.5;" x1="2552.5" x2="2615.5" y1="682.4688" y2="682.4688"/><line style="stroke:#A80036;stroke-width:1.5;" x1="2552.5" x2="2615.5" y1="690.4688" y2="690.4688"/><!--MD5=[5c85d133e2c913f4b8608c8db253c015]
class Record--><rect codeLine="86" fill="#FEFECE" filter="url(#f1qv8p38r6djmi)" height="39.9688" id="Record" style="stroke:#A80036;stroke-width:1.5;" width="49" x="2652.5" y="658.5"/><text fill="#000000" font-family="sans-serif" font-size="12" lengthAdjust="spacing" textLength="43" x="2655.5" y="674.6387">Record</text><line style="stroke:#A80036;stroke-width:1.5;" x1="2653.5" x2="2700.5" y1="682.4688" y2="682.4688"/><line style="stroke:#A80036;stroke-width:1.5;" x1="2653.5" x2="2700.5" y1="690.4688" y2="690.4688"/><!--MD5=[4b19b23db4754680288ddfe7449a87e7]
class FacebookAccount--><rect codeLine="88" fill="#FEFECE" filter="url(#f1qv8p38r6djmi)" height="39.9688" id="FacebookAccount" style="stroke:#A80036;stroke-width:1.5;" width="114" x="2737" y="658.5"/><text fill="#000000" font-family="sans-serif" font-size="12" lengthAdjust="spacing" textLength="108" x="2740" y="674.6387">FacebookAccount</text><line style="stroke:#A80036;stroke-width:1.5;" x1="2738" x2="2850" y1="682.4688" y2="682.4688"/><line style="stroke:#A80036;stroke-width:1.5;" x1="2738" x2="2850" y1="690.4688" y2="690.4688"/><!--MD5=[b8a8351f4de83c8eb85722e96e223bf9]
class Charge--><rect codeLine="90" fill="#FEFECE" filter="url(#f1qv8p38r6djmi)" height="39.9688" id="Charge" style="stroke:#A80036;stroke-width:1.5;" width="49" x="2892.5" y="658.5"/><text fill="#000000" font-family="sans-serif" font-size="12" lengthAdjust="spacing" textLength="43" x="2895.5" y="674.6387">Charge</text><line style="stroke:#A80036;stroke-width:1.5;" x1="2893.5" x2="2940.5" y1="682.4688" y2="682.4688"/><line style="stroke:#A80036;stroke-width:1.5;" x1="2893.5" x2="2940.5" y1="690.4688" y2="690.4688"/><!--MD5=[9d049782a8d404ed70739ae076a2757a]
reverse link User to Record--><path codeLine="92" d="M1529.26,303.844 C1684.9,336.765 2171.16,446.354 2550,605 C2587.23,620.593 2627.21,644.784 2652.15,660.877 " fill="none" id="User-backto-Record" style="stroke:#A80036;stroke-width:1.0;"/><polygon fill="#FFFFFF" points="1516.09,301.073,1521.1343,306.2261,1527.8312,303.5518,1522.7869,298.3987,1516.09,301.073" style="stroke:#A80036;stroke-width:1.0;"/><text fill="#000000" font-family="sans-serif" font-size="13" lengthAdjust="spacing" textLength="31" x="2584" y="618.0669">keep</text><!--MD5=[6f3304a8bbf6f49207b94ef31783336e]
link User to FacebookAccount--><path codeLine="93" d="M1516.14,301.641 C1660.42,333.677 2196.85,456.603 2624,605 C2667.19,620.004 2714.97,640.767 2748.85,656.229 " fill="none" id="User-to-FacebookAccount" style="stroke:#A80036;stroke-width:1.0;"/><polygon fill="#A80036" points="2753.74,658.471,2747.2089,651.0991,2749.1901,656.3977,2743.8916,658.3789,2753.74,658.471" style="stroke:#A80036;stroke-width:1.0;"/><text fill="#000000" font-family="sans-serif" font-size="13" lengthAdjust="spacing" textLength="88" x="2668" y="618.0669">supported_by</text><!--MD5=[337e5993595d124d721fe55725397ce0]
link User to Lot--><path codeLine="94" d="M1441.79,312.142 C1343.58,361.966 1070.64,504.488 862,652 C857.299,655.323 852.445,659.22 848.046,662.953 " fill="none" id="User-to-Lot" style="stroke:#A80036;stroke-width:1.0;"/><polygon fill="#A80036" points="844.152,666.314,853.5789,663.462,847.9373,663.0472,848.3521,657.4056,844.152,666.314" style="stroke:#A80036;stroke-width:1.0;"/><text fill="#000000" font-family="sans-serif" font-size="13" lengthAdjust="spacing" textLength="26" x="927" y="618.0669">free</text><!--MD5=[c0646aff05db046bf03bd07f9451b561]
link User to Picture--><path codeLine="95" d="M1516.05,323.875 C1588.98,383.251 1756.93,517.989 1905,622 C1924.46,635.671 1947.13,650.087 1964.45,660.8 " fill="none" id="User-to-Picture" style="stroke:#A80036;stroke-width:1.0;"/><polygon fill="#A80036" points="1968.74,663.441,1963.1848,655.3083,1964.486,660.8135,1958.9809,662.1147,1968.74,663.441" style="stroke:#A80036;stroke-width:1.0;"/><text fill="#000000" font-family="sans-serif" font-size="13" lengthAdjust="spacing" textLength="21" x="1906" y="618.0669">like</text><!--MD5=[c0646aff05db046bf03bd07f9451b561]
link User to Picture--><path codeLine="96" d="M1516.14,314.231 C1596.85,360.271 1792.21,477.121 1932,605 C1948.31,619.918 1964.14,639.316 1975.44,654.292 " fill="none" id="User-to-Picture-1" style="stroke:#A80036;stroke-width:1.0;"/><polygon fill="#A80036" points="1978.5,658.391,1976.311,648.7885,1975.5046,654.3876,1969.9055,653.5812,1978.5,658.391" style="stroke:#A80036;stroke-width:1.0;"/><text fill="#000000" font-family="sans-serif" font-size="13" lengthAdjust="spacing" textLength="43" x="1950" y="618.0669">review</text><!--MD5=[c0646aff05db046bf03bd07f9451b561]
link User to Picture--><path codeLine="98" d="M1516.17,302.183 C1616.67,327.901 1893.51,414.116 2002,605 C2010.35,619.689 2007.33,638.678 2002.49,653.537 " fill="none" id="User-to-Picture-2" style="stroke:#A80036;stroke-width:1.0;"/><polygon fill="#A80036" points="2000.8,658.406,2007.5321,651.2172,2002.4409,653.6829,1999.9752,648.5917,2000.8,658.406" style="stroke:#A80036;stroke-width:1.0;"/><text fill="#000000" font-family="sans-serif" font-size="13" lengthAdjust="spacing" textLength="39" x="2008" y="618.0669">report</text><!--MD5=[c0646aff05db046bf03bd07f9451b561]
link User to Picture--><path codeLine="101" d="M1516.33,300.172 C1623.71,321.606 1933.52,399.695 2056,605 C2069.47,627.574 2042.52,649.653 2019.56,663.4 " fill="none" id="User-to-Picture-3" style="stroke:#A80036;stroke-width:1.0;"/><polygon fill="#A80036" points="2015.04,666.036,2024.8307,664.9674,2019.3617,663.5215,2020.8076,658.0526,2015.04,666.036" style="stroke:#A80036;stroke-width:1.0;"/><text fill="#000000" font-family="sans-serif" font-size="13" lengthAdjust="spacing" textLength="62" x="2061" y="618.0669">comment</text><!--MD5=[c0646aff05db046bf03bd07f9451b561]
link User to Picture--><path codeLine="104" d="M1516.41,297.817 C1632.82,313.497 1989.41,378.995 2132,605 C2159.83,649.112 2068.66,667.724 2020.23,674.357 " fill="none" id="User-to-Picture-4" style="stroke:#A80036;stroke-width:1.0;"/><polygon fill="#A80036" points="2015.11,675.035,2024.5576,677.8176,2020.0666,674.3779,2023.5063,669.887,2015.11,675.035" style="stroke:#A80036;stroke-width:1.0;"/><text fill="#000000" font-family="sans-serif" font-size="13" lengthAdjust="spacing" textLength="62" x="2139" y="618.0669">download</text><!--MD5=[c0646aff05db046bf03bd07f9451b561]
link User to Picture--><path codeLine="120" d="M1516.08,422.715 C1543.31,493.391 1587.85,575.747 1657,622 C1709.93,657.407 1880.94,633.897 1942,652 C1949.44,654.206 1957.09,657.506 1964.1,661.007 " fill="none" id="User-to-Picture-5" style="stroke:#A80036;stroke-width:1.0;"/><polygon fill="#A80036" points="1968.83,663.452,1962.6559,655.7786,1964.3836,661.1652,1958.997,662.8929,1968.83,663.452" style="stroke:#A80036;stroke-width:1.0;"/><text fill="#000000" font-family="sans-serif" font-size="13" lengthAdjust="spacing" textLength="23" x="1658" y="618.0669">see</text><!--MD5=[c0646aff05db046bf03bd07f9451b561]
link User to Picture--><path codeLine="124" d="M1516.17,375.952 C1555.6,453.137 1625.56,564.883 1722,622 C1806.91,672.288 1847.83,622.501 1942,652 C1949.4,654.319 1957.04,657.663 1964.05,661.169 " fill="none" id="User-to-Picture-6" style="stroke:#A80036;stroke-width:1.0;"/><polygon fill="#A80036" points="1968.79,663.612,1962.6159,655.9386,1964.3436,661.3252,1958.957,663.0529,1968.79,663.612" style="stroke:#A80036;stroke-width:1.0;"/><text fill="#000000" font-family="sans-serif" font-size="13" lengthAdjust="spacing" textLength="56" x="1723" y="618.0669">maintain</text><!--MD5=[c0646aff05db046bf03bd07f9451b561]
link User to Picture--><path codeLine="129" d="M1516.1,340.938 C1574.76,412.677 1696.02,548.205 1829,622 C1874.44,647.213 1893.47,633.425 1942,652 C1949.32,654.802 1956.98,658.361 1964.04,661.924 " fill="none" id="User-to-Picture-7" style="stroke:#A80036;stroke-width:1.0;"/><polygon fill="#A80036" points="1968.81,664.382,1962.6349,656.7094,1964.3633,662.0958,1958.977,663.8242,1968.81,664.382" style="stroke:#A80036;stroke-width:1.0;"/><text fill="#000000" font-family="sans-serif" font-size="13" lengthAdjust="spacing" textLength="43" x="1830" y="618.0669">upload</text><!--MD5=[87c463e55ba9a05eb2c54f7e7fed640e]
link User to Time--><path codeLine="97" d="M1441.68,296.458 C1296.07,309.508 756.238,372.079 394,605 C374.518,617.527 357.819,638.004 346.676,654.006 " fill="none" id="User-to-Time" style="stroke:#A80036;stroke-width:1.0;"/><polygon fill="#A80036" points="343.683,658.391,352.0623,653.2153,346.5031,654.2622,345.4562,648.7031,343.683,658.391" style="stroke:#A80036;stroke-width:1.0;"/><text fill="#000000" font-family="sans-serif" font-size="13" lengthAdjust="spacing" textLength="88" x="395" y="618.0669">supported_by</text><!--MD5=[87c463e55ba9a05eb2c54f7e7fed640e]
link User to Time--><path codeLine="116" d="M1441.96,297.675 C1261.34,318.854 475.927,420.686 333,605 C322.535,618.495 322.881,638.048 325.518,653.448 " fill="none" id="User-to-Time-1" style="stroke:#A80036;stroke-width:1.0;"/><polygon fill="#A80036" points="326.488,658.496,328.719,648.9032,325.5451,653.5857,320.8625,650.4118,326.488,658.496" style="stroke:#A80036;stroke-width:1.0;"/><text fill="#000000" font-family="sans-serif" font-size="13" lengthAdjust="spacing" textLength="31" x="334" y="618.0669">save</text><!--MD5=[6c5455115fa83b9f5673c5990b04b3c1]
link Picture to Event--><path codeLine="99" d="M1973.87,698.664 C1956.91,715.402 1930.03,738.9973 1902,752 C1823.74,788.3044 1719.91,797.715 1672.95,800.1511 " fill="none" id="Picture-to-Event" style="stroke:#A80036;stroke-width:1.0;"/><polygon fill="#A80036" points="1667.78,800.4028,1676.9637,803.9609,1672.7741,800.1599,1676.5751,795.9704,1667.78,800.4028" style="stroke:#A80036;stroke-width:1.0;"/><text fill="#000000" font-family="sans-serif" font-size="13" lengthAdjust="spacing" textLength="13" x="1931" y="748.0669">to</text><!--MD5=[6149ca76d5a0a66a18c1d035a9055653]
reverse link User to Event--><path codeLine="100" d="M1434.41,354.231 C1380.73,435.215 1303.27,582.581 1350,705 C1359.99,731.1723 1367.62,738.1943 1392,752 C1470.95,796.7123 1583.26,801.4439 1628.25,801.394 " fill="none" id="User-backto-Event" style="stroke:#A80036;stroke-width:1.0;"/><polygon fill="#FFFFFF" points="1441.81,343.254,1435.1398,345.9942,1435.1038,353.2052,1441.774,350.465,1441.81,343.254" style="stroke:#A80036;stroke-width:1.0;"/><text fill="#000000" font-family="sans-serif" font-size="13" lengthAdjust="spacing" textLength="23" x="1351" y="683.0669">see</text><!--MD5=[6149ca76d5a0a66a18c1d035a9055653]
reverse link User to Event--><path codeLine="118" d="M1438.4,407.968 C1414.96,494.196 1398.37,612.898 1445,705 C1480.31,774.7363 1584.83,794.1243 1628.49,799.2532 " fill="none" id="User-backto-Event-1" style="stroke:#A80036;stroke-width:1.0;"/><polygon fill="#FFFFFF" points="1441.98,395.221,1436.5068,399.9161,1438.7356,406.7741,1444.2089,402.079,1441.98,395.221" style="stroke:#A80036;stroke-width:1.0;"/><text fill="#000000" font-family="sans-serif" font-size="13" lengthAdjust="spacing" textLength="45" x="1446" y="683.0669">extend</text><!--MD5=[6149ca76d5a0a66a18c1d035a9055653]
reverse link User to Event--><path codeLine="121" d="M1490.36,587.971 C1493.44,599.575 1496.97,610.961 1501,622 C1527.08,693.385 1594.78,756.9314 1628.42,785.3041 " fill="none" id="User-backto-Event-2" style="stroke:#A80036;stroke-width:1.0;"/><polygon fill="#FFFFFF" points="1487.2,575.299,1484.7728,582.0894,1490.1073,586.9415,1492.5345,580.1511,1487.2,575.299" style="stroke:#A80036;stroke-width:1.0;"/><text fill="#000000" font-family="sans-serif" font-size="13" lengthAdjust="spacing" textLength="41" x="1550" y="683.0669">create</text><!--MD5=[6149ca76d5a0a66a18c1d035a9055653]
reverse link User to Event--><path codeLine="122" d="M1520.31,587.16 C1526.64,599.379 1533.84,611.07 1542,622 C1559.37,645.253 1581.25,629.851 1600,652 C1632.49,690.372 1643.09,751.097 1646.47,781.8289 " fill="none" id="User-backto-Event-3" style="stroke:#A80036;stroke-width:1.0;"/><polygon fill="#FFFFFF" points="1514.49,575.29,1513.5352,582.4376,1519.7657,586.0681,1520.7205,578.9205,1514.49,575.29" style="stroke:#A80036;stroke-width:1.0;"/><text fill="#000000" font-family="sans-serif" font-size="13" lengthAdjust="spacing" textLength="40" x="1630" y="683.0669">delete</text><!--MD5=[6149ca76d5a0a66a18c1d035a9055653]
reverse link User to Event--><path codeLine="123" d="M1520.97,525.05 C1535.81,560.922 1555.87,594.973 1583,622 C1614.67,653.55 1652.52,615.984 1679,652 C1707.8,691.17 1679.18,751.0067 1660.81,781.5665 " fill="none" id="User-backto-Event-4" style="stroke:#A80036;stroke-width:1.0;"/><polygon fill="#FFFFFF" points="1516.14,512.823,1514.6271,519.8736,1520.5534,523.9819,1522.0664,516.9313,1516.14,512.823" style="stroke:#A80036;stroke-width:1.0;"/><text fill="#000000" font-family="sans-serif" font-size="13" lengthAdjust="spacing" textLength="44" x="1693" y="683.0669">picture</text><!--MD5=[6149ca76d5a0a66a18c1d035a9055653]
reverse link User to Event--><path codeLine="128" d="M1520.6,449.747 C1544.27,511.346 1580.09,577.8 1633,622 C1672.88,655.314 1714.32,610.812 1746,652 C1783,700.102 1705.9,761.8889 1667.72,788.2092 " fill="none" id="User-backto-Event-5" style="stroke:#A80036;stroke-width:1.0;"/><polygon fill="#FFFFFF" points="1516.03,437.5,1514.3835,444.5206,1520.2308,448.7407,1521.8773,441.7201,1516.03,437.5" style="stroke:#A80036;stroke-width:1.0;"/><text fill="#000000" font-family="sans-serif" font-size="13" lengthAdjust="spacing" textLength="56" x="1757" y="683.0669">maintain</text><!--MD5=[4404c8c6464c50685a1ca567a7961ccf]
link User to Charge--><path codeLine="102" d="M1516.04,299.797 C1671.26,326.736 2283.56,438.549 2765,605 C2809.33,620.325 2857.79,644.912 2887.79,661.136 " fill="none" id="User-to-Charge" style="stroke:#A80036;stroke-width:1.0;"/><polygon fill="#A80036" points="2892.45,663.665,2886.4501,655.8547,2888.0562,661.2788,2882.6321,662.8848,2892.45,663.665" style="stroke:#A80036;stroke-width:1.0;"/><text fill="#000000" font-family="sans-serif" font-size="13" lengthAdjust="spacing" textLength="88" x="2809" y="618.0669">supported_by</text><!--MD5=[2dd21c5e4d24a00e804d12dd0c7b0d9f]
link User to Comment--><path codeLine="103" d="M1441.73,320.353 C1369.6,372.773 1206.7,493.381 1078,605 C1059.59,620.97 1039.8,640.188 1025.18,654.824 " fill="none" id="User-to-Comment" style="stroke:#A80036;stroke-width:1.0;"/><polygon fill="#A80036" points="1021.58,658.442,1030.7645,654.886,1025.1077,654.8986,1025.0951,649.2418,1021.58,658.442" style="stroke:#A80036;stroke-width:1.0;"/><text fill="#000000" font-family="sans-serif" font-size="13" lengthAdjust="spacing" textLength="36" x="1079" y="618.0669">make</text><!--MD5=[4a0bbcdd6df460060db454e8e2c30a96]
link User to System--><path codeLine="105" d="M1441.66,308.478 C1326.3,355.125 966.118,503.583 680,652 C675.813,654.172 671.466,656.571 667.216,659.002 " fill="none" id="User-to-System" style="stroke:#A80036;stroke-width:1.0;"/><polygon fill="#A80036" points="662.654,661.645,672.4469,660.5965,666.9809,659.1394,668.438,653.6734,662.654,661.645" style="stroke:#A80036;stroke-width:1.0;"/><text fill="#000000" font-family="sans-serif" font-size="13" lengthAdjust="spacing" textLength="23" x="766" y="618.0669">use</text><!--MD5=[ab617967845c95780f2f718173343d1e]
reverse link User to Felling--><path codeLine="106" d="M1431.02,329.703 C1360.78,384.242 1228.29,493.063 1136,605 C1122.23,621.7 1109.77,643.126 1101.65,658.344 " fill="none" id="User-backto-Felling" style="stroke:#A80036;stroke-width:1.0;"/><polygon fill="#FFFFFF" points="1441.75,321.423,1434.5562,321.9228,1432.2508,328.7555,1439.4445,328.2556,1441.75,321.423" style="stroke:#A80036;stroke-width:1.0;"/><text fill="#000000" font-family="sans-serif" font-size="13" lengthAdjust="spacing" textLength="51" x="1137" y="618.0669">express</text><!--MD5=[e0ebca121273885364fa8679885dc51a]
link User to Register--><path codeLine="107" d="M1516.18,306.694 C1625.49,346.035 1954.18,468.317 2210,605 C2238.17,620.05 2268.41,640.083 2290.2,655.277 " fill="none" id="User-to-Register" style="stroke:#A80036;stroke-width:1.0;"/><polygon fill="#A80036" points="2294.44,658.248,2289.3471,649.8181,2290.3392,655.3873,2284.77,656.3794,2294.44,658.248" style="stroke:#A80036;stroke-width:1.0;"/><text fill="#000000" font-family="sans-serif" font-size="13" lengthAdjust="spacing" textLength="32" x="2240" y="618.0669">need</text><!--MD5=[bf6920a7c0d430d525e3e458e95f72ca]
reverse link User to Password--><path codeLine="108" d="M1429.56,312.014 C1305.21,358.821 969.754,486.605 695,605 C649.531,624.593 638.505,630.305 594,652 C588.219,654.818 582.096,657.878 576.19,660.868 " fill="none" id="User-backto-Password" style="stroke:#A80036;stroke-width:1.0;"/><polygon fill="#FFFFFF" points="1441.95,307.353,1434.9266,305.7186,1430.7165,311.5731,1437.74,313.2075,1441.95,307.353" style="stroke:#A80036;stroke-width:1.0;"/><text fill="#000000" font-family="sans-serif" font-size="13" lengthAdjust="spacing" textLength="39" x="696" y="618.0669">forget</text><!--MD5=[bf6920a7c0d430d525e3e458e95f72ca]
reverse link User to Password--><path codeLine="112" d="M1428.8,301.524 C1244.72,332.067 611.424,447.343 496,605 C483.07,622.661 500.186,643.575 517.46,658.39 " fill="none" id="User-backto-Password-1" style="stroke:#A80036;stroke-width:1.0;"/><polygon fill="#FFFFFF" points="1441.76,299.391,1435.1926,296.4129,1429.9177,301.3298,1436.4851,304.3078,1441.76,299.391" style="stroke:#A80036;stroke-width:1.0;"/><text fill="#000000" font-family="sans-serif" font-size="13" lengthAdjust="spacing" textLength="34" x="497" y="618.0669">enter</text><!--MD5=[bf6920a7c0d430d525e3e458e95f72ca]
reverse link User to Password--><path codeLine="115" d="M1428.84,303.313 C1290.29,332.084 894.151,425.703 615,605 C592.469,619.472 571.663,642.317 558.477,658.491 " fill="none" id="User-backto-Password-2" style="stroke:#A80036;stroke-width:1.0;"/><polygon fill="#FFFFFF" points="1441.81,300.654,1435.1282,297.9422,1430.0551,303.067,1436.7369,305.7788,1441.81,300.654" style="stroke:#A80036;stroke-width:1.0;"/><text fill="#000000" font-family="sans-serif" font-size="13" lengthAdjust="spacing" textLength="33" x="616" y="618.0669">reset</text><!--MD5=[fb15c8ffe2d453a42af6a630d0178531]
link User to ResolutionPicture--><path codeLine="109" d="M1441.89,298.185 C1290.52,318.285 707.244,405.438 273,605 C244.501,618.097 215.505,639.077 195.396,655.107 " fill="none" id="User-to-ResolutionPicture" style="stroke:#A80036;stroke-width:1.0;"/><polygon fill="#A80036" points="191.496,658.243,201.0167,655.7217,195.3929,655.1103,196.0043,649.4866,191.496,658.243" style="stroke:#A80036;stroke-width:1.0;"/><text fill="#000000" font-family="sans-serif" font-size="13" lengthAdjust="spacing" textLength="43" x="274" y="618.0669">upload</text><!--MD5=[fb15c8ffe2d453a42af6a630d0178531]
link User to ResolutionPicture--><path codeLine="131" d="M1441.82,296.425 C1246.22,312.64 338.897,398.347 171,605 C160.228,618.258 160.312,637.825 162.77,653.29 " fill="none" id="User-to-ResolutionPicture-1" style="stroke:#A80036;stroke-width:1.0;"/><polygon fill="#A80036" points="163.683,658.363,166.0256,648.7968,162.7974,653.4421,158.1521,650.2138,163.683,658.363" style="stroke:#A80036;stroke-width:1.0;"/><text fill="#000000" font-family="sans-serif" font-size="13" lengthAdjust="spacing" textLength="62" x="172" y="618.0669">download</text><!--MD5=[993a1ed30139d6bc9fd462e29443e622]
link User to User--><path codeLine="110" d="M1516.05,234.272 C1534.52,226.216 1551,245.625 1551,292.5 C1551,334.98 1537.47,354.904 1521.18,352.269 " fill="none" id="User-to-User" style="stroke:#A80036;stroke-width:1.0;"/><polygon fill="#A80036" points="1516.05,350.728,1523.5133,357.1544,1520.8374,352.1705,1525.8213,349.4946,1516.05,350.728" style="stroke:#A80036;stroke-width:1.0;"/><text fill="#000000" font-family="sans-serif" font-size="13" lengthAdjust="spacing" textLength="40" x="1557" y="297.0669">delete</text><!--MD5=[99bb670aff7d8cd7d90f0c6cca3407ea]
link User to Size--><path codeLine="111" d="M1441.69,330.61 C1386.28,386.857 1280.76,498.459 1206,605 C1195.17,620.435 1184.94,639.087 1177.53,653.607 " fill="none" id="User-to-Size" style="stroke:#A80036;stroke-width:1.0;"/><polygon fill="#A80036" points="1175.13,658.362,1182.7502,652.1224,1177.3786,653.8962,1175.6048,648.5246,1175.13,658.362" style="stroke:#A80036;stroke-width:1.0;"/><text fill="#000000" font-family="sans-serif" font-size="13" lengthAdjust="spacing" textLength="46" x="1207" y="618.0669">choose</text><!--MD5=[a36eca77d1d238c04c5e1c39abdc6b68]
reverse link User to Privacy--><path codeLine="113" d="M1528.8,310.21 C1656.23,353.534 2003.68,475.191 2281,605 C2318.02,622.328 2358.71,646.536 2383.81,662.117 " fill="none" id="User-backto-Privacy" style="stroke:#A80036;stroke-width:1.0;"/><polygon fill="#FFFFFF" points="1516.11,305.907,1520.5092,311.6207,1527.4755,309.7575,1523.0762,304.0437,1516.11,305.907" style="stroke:#A80036;stroke-width:1.0;"/><text fill="#000000" font-family="sans-serif" font-size="13" lengthAdjust="spacing" textLength="31" x="2315" y="618.0669">keep</text><!--MD5=[2a296c1e9d906f8978635dc9d2f5be85]
link User to Type--><path codeLine="114" d="M1441.95,343.89 C1398.28,404.341 1324.72,509.507 1270,605 C1260.95,620.798 1252.04,639.292 1245.48,653.647 " fill="none" id="User-to-Type" style="stroke:#A80036;stroke-width:1.0;"/><polygon fill="#A80036" points="1243.35,658.347,1250.7089,651.8013,1245.4143,653.793,1243.4225,648.4984,1243.35,658.347" style="stroke:#A80036;stroke-width:1.0;"/><text fill="#000000" font-family="sans-serif" font-size="13" lengthAdjust="spacing" textLength="47" x="1271" y="618.0669">change</text><!--MD5=[fd9da72820cc813c9a6ad90e9e0dac2a]
link User to Upload--><path codeLine="117" d="M1516.34,304.972 C1638.58,342.913 2037.2,469.644 2355,605 C2397.97,623.303 2408,629.629 2449,652 C2453.46,654.432 2458.12,657.084 2462.67,659.728 " fill="none" id="User-to-Upload" style="stroke:#A80036;stroke-width:1.0;"/><polygon fill="#A80036" points="2467.16,662.362,2461.4179,654.3602,2462.8463,659.8338,2457.3727,661.2621,2467.16,662.362" style="stroke:#A80036;stroke-width:1.0;"/><text fill="#000000" font-family="sans-serif" font-size="13" lengthAdjust="spacing" textLength="40" x="2393" y="618.0669">delete</text><!--MD5=[ec4c93e45963a154c97e3947d19a9663]
link User to Browser--><path codeLine="119" d="M1441.98,318.399 C1337.27,388.817 1040.18,588.609 940.824,655.426 " fill="none" id="User-to-Browser" style="stroke:#A80036;stroke-width:1.0;"/><polygon fill="#A80036" points="936.525,658.317,946.2257,656.6152,940.6745,655.5274,941.7623,649.9761,936.525,658.317" style="stroke:#A80036;stroke-width:1.0;"/><text fill="#000000" font-family="sans-serif" font-size="13" lengthAdjust="spacing" textLength="23" x="1005" y="618.0669">use</text><!--MD5=[6fea909be8e544bd2185a06b3c5377ba]
reverse link User to Storage--><path codeLine="125" d="M1428.73,296.825 C1244.91,310.636 595.402,374.063 123,605 C95.6064,618.392 69.1665,641.672 52.3252,658.239 " fill="none" id="User-backto-Storage" style="stroke:#A80036;stroke-width:1.0;"/><polygon fill="#FFFFFF" points="1441.89,295.862,1435.6157,292.3078,1429.9216,296.7324,1436.1959,300.2867,1441.89,295.862" style="stroke:#A80036;stroke-width:1.0;"/><text fill="#000000" font-family="sans-serif" font-size="13" lengthAdjust="spacing" textLength="31" x="124" y="618.0669">save</text><!--MD5=[a1781934604b9be321909f3b36cd5bf0]
link Browser to SharewebWebsite--><path codeLine="126" d="M908,705.267 C908,726.3301 908,755.9042 908,776.5902 " fill="none" id="Browser-to-SharewebWebsite" style="stroke:#A80036;stroke-width:1.0;"/><polygon fill="#A80036" points="908,781.6472,912,772.6472,908,776.6472,904,772.6472,908,781.6472" style="stroke:#A80036;stroke-width:1.0;"/><text fill="#000000" font-family="sans-serif" font-size="13" lengthAdjust="spacing" textLength="26" x="909" y="748.0669">visit</text><!--MD5=[7b2cc10021c78df6ad31ab9f1eb0cd12]
reverse link User to Computer--><path codeLine="127" d="M1528.69,306.551 C1672.67,345.006 2101.53,464.071 2442,605 C2480.62,620.986 2523.08,643.337 2551.42,658.983 " fill="none" id="User-backto-Computer" style="stroke:#A80036;stroke-width:1.0;"/><polygon fill="#FFFFFF" points="1516.05,303.187,1520.8197,308.5954,1527.6465,306.2727,1522.8768,300.8644,1516.05,303.187" style="stroke:#A80036;stroke-width:1.0;"/><text fill="#000000" font-family="sans-serif" font-size="13" lengthAdjust="spacing" textLength="62" x="2479" y="618.0669">download</text><!--MD5=[8aac999e40186a57f7e3ffafa98d6bfb]
link User to QualityPicture--><path codeLine="130" d="M1441.91,310.572 C1344.51,355.732 1073.95,483.234 857,605 C828.653,620.91 797.458,640.532 774.563,655.349 " fill="none" id="User-to-QualityPicture" style="stroke:#A80036;stroke-width:1.0;"/><polygon fill="#A80036" points="770.099,658.246,779.8264,656.7043,774.2939,655.5251,775.473,649.9925,770.099,658.246" style="stroke:#A80036;stroke-width:1.0;"/><text fill="#000000" font-family="sans-serif" font-size="13" lengthAdjust="spacing" textLength="43" x="858" y="618.0669">review</text><!--MD5=[e5bd877d3091559dd76b4f2bf694fe56]
@startuml
hide circle
class User<actor> {
	password
	felling
	privacy
	record
	computer
	eventExit
	storage
	phone
	event
}
class User {
	use()
	express()
	create()
	free()
	search()
	allow()
	make()
	like()
	report()
	need()
	choose()
	delete()
	find()
	look()
	let()
	log_in()
	upload()
	save()
	forget()
	change()
	enter()
	see()
	download()
	review()
	reset()
	login()
	keep()
	want()
	extend()
	picture()
	maintain()
	comment()
}
class Storage {
}
class ResolutionPicture {
}
class Time {
}
class Password {
}
class System {
}
class QualityPicture {
}
class Lot {
}
class Picture {
}
class Comment {
}
class Felling {
}
class Size {
}
class Type {
}
class Browser {
	visit()
}
class Event {
}
class SharewebWebsite {
}
class Register {
}
class Privacy {
}
class Upload {
}
class Computer {
}
class Record {
}
class FacebookAccount {
}
class Charge {
}
User o- - Record : keep
User - -> FacebookAccount : supported_by
User - -> Lot : free
User - -> Picture : like
User - -> Picture : review
User - -> Time : supported_by
User - -> Picture : report
Picture - -> Event : to
User o- - Event : see
User - -> Picture : comment
User - -> Charge : supported_by
User - -> Comment : make
User - -> Picture : download
User - -> System : use
User o- - Felling : express
User - -> Register : need
User o- - Password : forget
User - -> ResolutionPicture : upload
User - -> User : delete
User - -> Size : choose
User o- - Password : enter
User o- - Privacy : keep
User - -> Type : change
User o- - Password : reset
User - -> Time : save
User - -> Upload : delete
User o- - Event : extend
User - -> Browser : use
User - -> Picture : see
User o- - Event : create
User o- - Event : delete
User o- - Event : picture
User - -> Picture : maintain
User o- - Storage : save
Browser - -> SharewebWebsite : visit
User o- - Computer : download
User o- - Event : maintain
User - -> Picture : upload
User - -> QualityPicture : review
User - -> ResolutionPicture : download
@enduml

PlantUML version 1.2021.10beta5(Unknown compile time)
(GPL source distribution)
Java Runtime: Java(TM) SE Runtime Environment
JVM: Java HotSpot(TM) 64-Bit Server VM
Default Encoding: UTF-8
Language: en
Country: US
--></g></svg>