<?xml version="1.0" encoding="UTF-8" standalone="no"?><svg xmlns="http://www.w3.org/2000/svg" xmlns:xlink="http://www.w3.org/1999/xlink" contentScriptType="application/ecmascript" contentStyleType="text/css" height="398px" preserveAspectRatio="none" style="width:1761px;height:398px;background:#FFFFFF;" version="1.1" viewBox="0 0 1761 398" width="1761px" zoomAndPan="magnify"><defs><filter height="300%" id="fp6xs62zh6fjv" width="300%" x="-1" y="-1"><feGaussianBlur result="blurOut" stdDeviation="2.0"/><feColorMatrix in="blurOut" result="blurOut2" type="matrix" values="0 0 0 0 0 0 0 0 0 0 0 0 0 0 0 0 0 0 .4 0"/><feOffset dx="4.0" dy="4.0" in="blurOut2" result="blurOut3"/><feBlend in="SourceGraphic" in2="blurOut3" mode="normal"/></filter></defs><g><!--MD5=[3fd616f346a44cd59a91eb10b19e157c]
class User--><rect codeLine="6" fill="#FEFECE" filter="url(#fp6xs62zh6fjv)" height="244.8438" id="User" style="stroke:#A80036;stroke-width:1.5;" width="79" x="757.2129" y="10"/><text fill="#000000" font-family="sans-serif" font-size="12" lengthAdjust="spacing" textLength="29" x="764.7129" y="26.1387">User</text><rect fill="#FFFFFF" height="15.9688" style="stroke:#000000;stroke-width:1.0;stroke-dasharray:2.0,2.0;" width="33" x="806.2129" y="7"/><text fill="#000000" font-family="sans-serif" font-size="12" font-style="italic" lengthAdjust="spacing" textLength="31" x="807.2129" y="19.1387">actor</text><line style="stroke:#A80036;stroke-width:1.5;" x1="758.2129" x2="835.2129" y1="33.9688" y2="33.9688"/><line style="stroke:#A80036;stroke-width:1.5;" x1="758.2129" x2="835.2129" y1="41.9688" y2="41.9688"/><text fill="#000000" font-family="sans-serif" font-size="11" lengthAdjust="spacing" textLength="60" x="763.2129" y="56.1792">detonate()</text><text fill="#000000" font-family="sans-serif" font-size="11" lengthAdjust="spacing" textLength="27" x="763.2129" y="68.9839">get()</text><text fill="#000000" font-family="sans-serif" font-size="11" lengthAdjust="spacing" textLength="30" x="763.2129" y="81.7886">see()</text><text fill="#000000" font-family="sans-serif" font-size="11" lengthAdjust="spacing" textLength="52" x="763.2129" y="94.5933">recover()</text><text fill="#000000" font-family="sans-serif" font-size="11" lengthAdjust="spacing" textLength="50" x="763.2129" y="107.3979">change()</text><text fill="#000000" font-family="sans-serif" font-size="11" lengthAdjust="spacing" textLength="52" x="763.2129" y="120.2026">register()</text><text fill="#000000" font-family="sans-serif" font-size="11" lengthAdjust="spacing" textLength="49" x="763.2129" y="133.0073">choose()</text><text fill="#000000" font-family="sans-serif" font-size="11" lengthAdjust="spacing" textLength="32" x="763.2129" y="145.812">play()</text><text fill="#000000" font-family="sans-serif" font-size="11" lengthAdjust="spacing" textLength="53" x="763.2129" y="158.6167">remove()</text><text fill="#000000" font-family="sans-serif" font-size="11" lengthAdjust="spacing" textLength="67" x="763.2129" y="171.4214">registered()</text><text fill="#000000" font-family="sans-serif" font-size="11" lengthAdjust="spacing" textLength="30" x="763.2129" y="184.2261">edit()</text><text fill="#000000" font-family="sans-serif" font-size="11" lengthAdjust="spacing" textLength="39" x="763.2129" y="197.0308">place()</text><text fill="#000000" font-family="sans-serif" font-size="11" lengthAdjust="spacing" textLength="34" x="763.2129" y="209.8354">hear()</text><text fill="#000000" font-family="sans-serif" font-size="11" lengthAdjust="spacing" textLength="34" x="763.2129" y="222.6401">beat()</text><text fill="#000000" font-family="sans-serif" font-size="11" lengthAdjust="spacing" textLength="37" x="763.2129" y="235.4448">have()</text><text fill="#000000" font-family="sans-serif" font-size="11" lengthAdjust="spacing" textLength="29" x="763.2129" y="248.2495">buy()</text><!--MD5=[d342058c8fb6f80e9d50d673c6908241]
class Developer--><rect codeLine="4" fill="#FEFECE" filter="url(#fp6xs62zh6fjv)" height="39.9688" id="Developer" style="stroke:#A80036;stroke-width:1.5;" width="105" x="871.2129" y="112.5"/><text fill="#000000" font-family="sans-serif" font-size="12" lengthAdjust="spacing" textLength="64" x="874.2129" y="128.6387">Developer</text><rect fill="#FFFFFF" height="15.9688" style="stroke:#000000;stroke-width:1.0;stroke-dasharray:2.0,2.0;" width="33" x="946.2129" y="109.5"/><text fill="#000000" font-family="sans-serif" font-size="12" font-style="italic" lengthAdjust="spacing" textLength="31" x="947.2129" y="121.6387">actor</text><line style="stroke:#A80036;stroke-width:1.5;" x1="872.2129" x2="975.2129" y1="136.4688" y2="136.4688"/><line style="stroke:#A80036;stroke-width:1.5;" x1="872.2129" x2="975.2129" y1="144.4688" y2="144.4688"/><!--MD5=[107af66394bf1ebaa045812c9c475148]
class Score--><rect codeLine="24" fill="#FEFECE" filter="url(#fp6xs62zh6fjv)" height="39.9688" id="Score" style="stroke:#A80036;stroke-width:1.5;" width="42" x="23.7131" y="338.5"/><text fill="#000000" font-family="sans-serif" font-size="12" lengthAdjust="spacing" textLength="36" x="26.7131" y="354.6387">Score</text><line style="stroke:#A80036;stroke-width:1.5;" x1="24.7131" x2="64.7131" y1="362.4688" y2="362.4688"/><line style="stroke:#A80036;stroke-width:1.5;" x1="24.7131" x2="64.7131" y1="370.4688" y2="370.4688"/><!--MD5=[2f01b1126ff33a0669651ec2488a5ef9]
class Password--><rect codeLine="26" fill="#FEFECE" filter="url(#fp6xs62zh6fjv)" height="39.9688" id="Password" style="stroke:#A80036;stroke-width:1.5;" width="64" x="177.7129" y="338.5"/><text fill="#000000" font-family="sans-serif" font-size="12" lengthAdjust="spacing" textLength="58" x="180.7129" y="354.6387">Password</text><line style="stroke:#A80036;stroke-width:1.5;" x1="178.7129" x2="240.7129" y1="362.4688" y2="362.4688"/><line style="stroke:#A80036;stroke-width:1.5;" x1="178.7129" x2="240.7129" y1="370.4688" y2="370.4688"/><!--MD5=[7505e286249b15c81eb830586b01f924]
class Bomb--><rect codeLine="28" fill="#FEFECE" filter="url(#fp6xs62zh6fjv)" height="39.9688" id="Bomb" style="stroke:#A80036;stroke-width:1.5;" width="41" x="443.2129" y="338.5"/><text fill="#000000" font-family="sans-serif" font-size="12" lengthAdjust="spacing" textLength="35" x="446.2129" y="354.6387">Bomb</text><line style="stroke:#A80036;stroke-width:1.5;" x1="444.2129" x2="483.2129" y1="362.4688" y2="362.4688"/><line style="stroke:#A80036;stroke-width:1.5;" x1="444.2129" x2="483.2129" y1="370.4688" y2="370.4688"/><!--MD5=[4c122067c55db3bfdcadf29dc88875c9]
class Reward--><rect codeLine="30" fill="#FEFECE" filter="url(#fp6xs62zh6fjv)" height="39.9688" id="Reward" style="stroke:#A80036;stroke-width:1.5;" width="51" x="653.2129" y="338.5"/><text fill="#000000" font-family="sans-serif" font-size="12" lengthAdjust="spacing" textLength="45" x="656.2129" y="354.6387">Reward</text><line style="stroke:#A80036;stroke-width:1.5;" x1="654.2129" x2="703.2129" y1="362.4688" y2="362.4688"/><line style="stroke:#A80036;stroke-width:1.5;" x1="654.2129" x2="703.2129" y1="370.4688" y2="370.4688"/><!--MD5=[028fba31e0312914fa4880b63f0540b8]
class Detail--><rect codeLine="32" fill="#FEFECE" filter="url(#fp6xs62zh6fjv)" height="39.9688" id="Detail" style="stroke:#A80036;stroke-width:1.5;" width="40" x="739.7129" y="338.5"/><text fill="#000000" font-family="sans-serif" font-size="12" lengthAdjust="spacing" textLength="34" x="742.7129" y="354.6387">Detail</text><line style="stroke:#A80036;stroke-width:1.5;" x1="740.7129" x2="778.7129" y1="362.4688" y2="362.4688"/><line style="stroke:#A80036;stroke-width:1.5;" x1="740.7129" x2="778.7129" y1="370.4688" y2="370.4688"/><!--MD5=[973d64cd927d6fe317c299cd46f4acf0]
class while--><rect codeLine="34" fill="#FEFECE" filter="url(#fp6xs62zh6fjv)" height="39.9688" id="while" style="stroke:#A80036;stroke-width:1.5;" width="37" x="824.2129" y="338.5"/><text fill="#000000" font-family="sans-serif" font-size="12" lengthAdjust="spacing" textLength="31" x="827.2129" y="354.6387">while</text><line style="stroke:#A80036;stroke-width:1.5;" x1="825.2129" x2="860.2129" y1="362.4688" y2="362.4688"/><line style="stroke:#A80036;stroke-width:1.5;" x1="825.2129" x2="860.2129" y1="370.4688" y2="370.4688"/><!--MD5=[354ba6fe2710e9f7c691253c66156a32]
class Effect--><rect codeLine="36" fill="#FEFECE" filter="url(#fp6xs62zh6fjv)" height="39.9688" id="Effect" style="stroke:#A80036;stroke-width:1.5;" width="40" x="903.7129" y="338.5"/><text fill="#000000" font-family="sans-serif" font-size="12" lengthAdjust="spacing" textLength="34" x="906.7129" y="354.6387">Effect</text><line style="stroke:#A80036;stroke-width:1.5;" x1="904.7129" x2="942.7129" y1="362.4688" y2="362.4688"/><line style="stroke:#A80036;stroke-width:1.5;" x1="904.7129" x2="942.7129" y1="370.4688" y2="370.4688"/><!--MD5=[c58f1aaa489635c131bb08a383b1b7df]
class Multiplier--><rect codeLine="38" fill="#FEFECE" filter="url(#fp6xs62zh6fjv)" height="39.9688" id="Multiplier" style="stroke:#A80036;stroke-width:1.5;" width="60" x="978.7129" y="338.5"/><text fill="#000000" font-family="sans-serif" font-size="12" lengthAdjust="spacing" textLength="54" x="981.7129" y="354.6387">Multiplier</text><line style="stroke:#A80036;stroke-width:1.5;" x1="979.7129" x2="1037.7129" y1="362.4688" y2="362.4688"/><line style="stroke:#A80036;stroke-width:1.5;" x1="979.7129" x2="1037.7129" y1="370.4688" y2="370.4688"/><!--MD5=[b6dcce5e5ef3c84b0b048d11301373dd]
class Game--><rect codeLine="40" fill="#FEFECE" filter="url(#fp6xs62zh6fjv)" height="52.7734" id="Game" style="stroke:#A80036;stroke-width:1.5;" width="62" x="1089.7169" y="332"/><text fill="#000000" font-family="sans-serif" font-size="12" lengthAdjust="spacing" textLength="35" x="1103.2169" y="348.1387">Game</text><line style="stroke:#A80036;stroke-width:1.5;" x1="1090.7169" x2="1150.7169" y1="355.9688" y2="355.9688"/><line style="stroke:#A80036;stroke-width:1.5;" x1="1090.7169" x2="1150.7169" y1="363.9688" y2="363.9688"/><text fill="#000000" font-family="sans-serif" font-size="11" lengthAdjust="spacing" textLength="50" x="1095.7169" y="378.1792">attracts()</text><!--MD5=[f694847fc702e0723b49e5500a5c29a4]
class Username--><rect codeLine="43" fill="#FEFECE" filter="url(#fp6xs62zh6fjv)" height="39.9688" id="Username" style="stroke:#A80036;stroke-width:1.5;" width="68" x="1195.7169" y="338.5"/><text fill="#000000" font-family="sans-serif" font-size="12" lengthAdjust="spacing" textLength="62" x="1198.7169" y="354.6387">Username</text><line style="stroke:#A80036;stroke-width:1.5;" x1="1196.7169" x2="1262.7169" y1="362.4688" y2="362.4688"/><line style="stroke:#A80036;stroke-width:1.5;" x1="1196.7169" x2="1262.7169" y1="370.4688" y2="370.4688"/><!--MD5=[1a7e4ab60610fedec53391594f6b4b9b]
class GamingExperience--><rect codeLine="45" fill="#FEFECE" filter="url(#fp6xs62zh6fjv)" height="39.9688" id="GamingExperience" style="stroke:#A80036;stroke-width:1.5;" width="119" x="1299.2169" y="338.5"/><text fill="#000000" font-family="sans-serif" font-size="12" lengthAdjust="spacing" textLength="113" x="1302.2169" y="354.6387">GamingExperience</text><line style="stroke:#A80036;stroke-width:1.5;" x1="1300.2169" x2="1417.2169" y1="362.4688" y2="362.4688"/><line style="stroke:#A80036;stroke-width:1.5;" x1="1300.2169" x2="1417.2169" y1="370.4688" y2="370.4688"/><!--MD5=[c1de272898d89776fcc8107b22f2c59c]
class ProfileInformation--><rect codeLine="47" fill="#FEFECE" filter="url(#fp6xs62zh6fjv)" height="39.9688" id="ProfileInformation" style="stroke:#A80036;stroke-width:1.5;" width="110" x="1453.7169" y="338.5"/><text fill="#000000" font-family="sans-serif" font-size="12" lengthAdjust="spacing" textLength="104" x="1456.7169" y="354.6387">ProfileInformation</text><line style="stroke:#A80036;stroke-width:1.5;" x1="1454.7169" x2="1562.7169" y1="362.4688" y2="362.4688"/><line style="stroke:#A80036;stroke-width:1.5;" x1="1454.7169" x2="1562.7169" y1="370.4688" y2="370.4688"/><!--MD5=[7bff1aba3b0d0725284345139f4478e9]
class History--><rect codeLine="49" fill="#FEFECE" filter="url(#fp6xs62zh6fjv)" height="39.9688" id="History" style="stroke:#A80036;stroke-width:1.5;" width="49" x="1599.2169" y="338.5"/><text fill="#000000" font-family="sans-serif" font-size="12" lengthAdjust="spacing" textLength="43" x="1602.2169" y="354.6387">History</text><line style="stroke:#A80036;stroke-width:1.5;" x1="1600.2169" x2="1647.2169" y1="362.4688" y2="362.4688"/><line style="stroke:#A80036;stroke-width:1.5;" x1="1600.2169" x2="1647.2169" y1="370.4688" y2="370.4688"/><!--MD5=[004adecf53ebd169fe537d53b72288dd]
class Animation--><rect codeLine="51" fill="#FEFECE" filter="url(#fp6xs62zh6fjv)" height="39.9688" id="Animation" style="stroke:#A80036;stroke-width:1.5;" width="64" x="1683.7169" y="338.5"/><text fill="#000000" font-family="sans-serif" font-size="12" lengthAdjust="spacing" textLength="58" x="1686.7169" y="354.6387">Animation</text><line style="stroke:#A80036;stroke-width:1.5;" x1="1684.7169" x2="1746.7169" y1="362.4688" y2="362.4688"/><line style="stroke:#A80036;stroke-width:1.5;" x1="1684.7169" x2="1746.7169" y1="370.4688" y2="370.4688"/><!--MD5=[e37c45032bbffc9a32b60ba61ef7ae13]
link User to Bomb--><path codeLine="53" d="M757.1409,133.004 C667.0729,134.292 447.2029,151.619 351.7129,285 C326.5499,320.1478 397.5939,342.5792 437.9489,352.156 " fill="none" id="User-to-Bomb" style="stroke:#A80036;stroke-width:1.0;"/><polygon fill="#A80036" points="443.1879,353.3682,435.3213,347.4423,438.3166,352.2411,433.5178,355.2364,443.1879,353.3682" style="stroke:#A80036;stroke-width:1.0;"/><text fill="#000000" font-family="sans-serif" font-size="13" lengthAdjust="spacing" textLength="34" x="352.7129" y="298.0669">place</text><!--MD5=[e37c45032bbffc9a32b60ba61ef7ae13]
link User to Bomb--><path codeLine="54" d="M756.9569,136.072 C678.0979,143.569 503.0089,172.691 427.7129,285 C417.2699,300.5774 427.4979,319.616 439.6829,334.2739 " fill="none" id="User-to-Bomb-1" style="stroke:#A80036;stroke-width:1.0;"/><polygon fill="#A80036" points="443.1569,338.2855,440.2899,328.8632,439.8841,334.5054,434.2418,334.0996,443.1569,338.2855" style="stroke:#A80036;stroke-width:1.0;"/><text fill="#000000" font-family="sans-serif" font-size="13" lengthAdjust="spacing" textLength="24" x="428.7129" y="298.0669">buy</text><!--MD5=[e37c45032bbffc9a32b60ba61ef7ae13]
link User to Bomb--><path codeLine="70" d="M757.0889,143.547 C693.4149,161.594 567.9579,205.262 493.7129,285 C481.2029,298.4352 473.5509,317.8168 469.1079,333.1607 " fill="none" id="User-to-Bomb-2" style="stroke:#A80036;stroke-width:1.0;"/><polygon fill="#A80036" points="467.7219,338.1952,473.9669,330.5795,469.0488,333.3745,466.2538,328.4564,467.7219,338.1952" style="stroke:#A80036;stroke-width:1.0;"/><text fill="#000000" font-family="sans-serif" font-size="13" lengthAdjust="spacing" textLength="50" x="494.7129" y="298.0669">remove</text><!--MD5=[e37c45032bbffc9a32b60ba61ef7ae13]
link User to Bomb--><path codeLine="71" d="M757.1399,160.955 C708.5359,194.568 623.4589,253.062 549.7129,302 C529.2389,315.5869 505.7909,330.689 488.5559,341.7051 " fill="none" id="User-to-Bomb-3" style="stroke:#A80036;stroke-width:1.0;"/><polygon fill="#A80036" points="484.3129,344.4144,494.0509,342.9411,488.5267,341.7231,489.7448,336.1989,484.3129,344.4144" style="stroke:#A80036;stroke-width:1.0;"/><text fill="#000000" font-family="sans-serif" font-size="13" lengthAdjust="spacing" textLength="58" x="571.7129" y="298.0669">detonate</text><!--MD5=[9aecce486f7bede5d8dc488e17d94ab5]
link User to History--><path codeLine="55" d="M836.3649,239.427 C841.4809,245.344 847.2379,250.642 853.7129,255 C906.3289,290.4094 1361.2269,274.162 1423.7169,285 C1495.4769,297.4468 1514.0069,302.7612 1580.7169,332 C1585.2469,333.9859 1589.8869,336.3517 1594.3769,338.8297 " fill="none" id="User-to-History" style="stroke:#A80036;stroke-width:1.0;"/><polygon fill="#A80036" points="1598.7969,341.3351,1592.9478,333.4112,1594.4496,338.8651,1588.9957,340.3668,1598.7969,341.3351" style="stroke:#A80036;stroke-width:1.0;"/><text fill="#000000" font-family="sans-serif" font-size="13" lengthAdjust="spacing" textLength="23" x="1502.7169" y="298.0669">see</text><!--MD5=[a654de48d4bf1588b9fb1dcf6440abd6]
link User to Score--><path codeLine="56" d="M757.1299,134.843 C612.1109,140.67 113.3409,168.982 17.7131,285 C6,299.2105 14.5785,318.9958 25.0729,334.308 " fill="none" id="User-to-Score" style="stroke:#A80036;stroke-width:1.0;"/><polygon fill="#A80036" points="28.0683,338.4999,26.0901,328.8518,25.1612,334.4318,19.5812,333.503,28.0683,338.4999" style="stroke:#A80036;stroke-width:1.0;"/><text fill="#000000" font-family="sans-serif" font-size="13" lengthAdjust="spacing" textLength="23" x="18.7131" y="298.0669">see</text><!--MD5=[a654de48d4bf1588b9fb1dcf6440abd6]
link User to Score--><path codeLine="65" d="M756.9589,134.063 C646.6699,137.269 330.5239,157.732 110.7131,285 C89.9779,297.0054 72.0906,317.7287 60.1886,333.9526 " fill="none" id="User-to-Score-1" style="stroke:#A80036;stroke-width:1.0;"/><polygon fill="#A80036" points="56.9929,338.3983,65.4939,333.4251,59.9112,334.3383,58.998,328.7557,56.9929,338.3983" style="stroke:#A80036;stroke-width:1.0;"/><text fill="#000000" font-family="sans-serif" font-size="13" lengthAdjust="spacing" textLength="29" x="111.7131" y="298.0669">beat</text><!--MD5=[e38a3bde52c7ecfcc01cfe2c1b1a0001]
link User to Reward--><path codeLine="57" d="M757.0929,208.712 C734.2129,252.144 706.9599,303.8786 691.3629,333.4865 " fill="none" id="User-to-Reward" style="stroke:#A80036;stroke-width:1.0;"/><polygon fill="#A80036" points="688.9619,338.0438,696.6961,331.9461,691.2927,333.6203,689.6185,328.2169,688.9619,338.0438" style="stroke:#A80036;stroke-width:1.0;"/><text fill="#000000" font-family="sans-serif" font-size="13" lengthAdjust="spacing" textLength="21" x="718.7129" y="298.0669">get</text><!--MD5=[570ec5c4e8a1dd44e7fcb71a8cfc57a6]
link User to Detail--><path codeLine="58" d="M757.1509,245.098 C753.6889,258.406 750.7369,271.912 748.7129,285 C746.2179,301.1356 748.9839,319.2999 752.3649,333.4106 " fill="none" id="User-to-Detail" style="stroke:#A80036;stroke-width:1.0;"/><polygon fill="#A80036" points="753.6299,338.4147,755.3017,328.7088,752.4042,333.5672,747.5458,330.6698,753.6299,338.4147" style="stroke:#A80036;stroke-width:1.0;"/><text fill="#000000" font-family="sans-serif" font-size="13" lengthAdjust="spacing" textLength="49" x="749.7129" y="298.0669">register</text><!--MD5=[eee29d812ce114e66346c4876dced4ba]
link User to while--><path codeLine="59" d="M821.6649,255.005 C827.7659,284.713 833.6819,313.5216 837.6799,332.991 " fill="none" id="User-to-while" style="stroke:#A80036;stroke-width:1.0;"/><polygon fill="#A80036" points="838.7549,338.2277,840.8629,328.6071,837.7492,333.3299,833.0264,330.2162,838.7549,338.2277" style="stroke:#A80036;stroke-width:1.0;"/><text fill="#000000" font-family="sans-serif" font-size="13" lengthAdjust="spacing" textLength="46" x="831.7129" y="298.0669">choose</text><!--MD5=[de6c51306c395b37c9731b69b285a82d]
link User to Effect--><path codeLine="60" d="M836.3589,227.865 C841.6879,237.34 847.4869,246.564 853.7129,255 C865.4839,270.948 874.6789,269.25 886.7129,285 C898.0439,299.8298 907.5309,318.6543 914.0619,333.4048 " fill="none" id="User-to-Effect" style="stroke:#A80036;stroke-width:1.0;"/><polygon fill="#A80036" points="916.1609,338.2393,916.2452,328.3908,914.1694,333.653,908.9072,331.5772,916.1609,338.2393" style="stroke:#A80036;stroke-width:1.0;"/><text fill="#000000" font-family="sans-serif" font-size="13" lengthAdjust="spacing" textLength="29" x="899.7129" y="298.0669">hear</text><!--MD5=[5ab1f46e477a8163e64d30b24bef4255]
link User to Password--><path codeLine="61" d="M757.0709,136.588 C628.9619,147.468 229.9789,188.677 153.7129,285 C140.4959,301.6931 156.4169,320.7539 174.6159,335.1409 " fill="none" id="User-to-Password" style="stroke:#A80036;stroke-width:1.0;"/><polygon fill="#A80036" points="178.7719,338.3219,174.0556,329.6757,174.8012,335.2832,169.1937,336.0289,178.7719,338.3219" style="stroke:#A80036;stroke-width:1.0;"/><text fill="#000000" font-family="sans-serif" font-size="13" lengthAdjust="spacing" textLength="65" x="154.7129" y="298.0669">registered</text><!--MD5=[5ab1f46e477a8163e64d30b24bef4255]
link User to Password--><path codeLine="67" d="M756.9499,138.996 C667.8779,152.613 447.6219,193.637 287.7129,285 C265.2189,297.8516 243.9809,318.3557 229.3629,334.2845 " fill="none" id="User-to-Password-1" style="stroke:#A80036;stroke-width:1.0;"/><polygon fill="#A80036" points="225.7919,338.2281,234.7981,334.2422,229.1482,334.522,228.8684,328.8721,225.7919,338.2281" style="stroke:#A80036;stroke-width:1.0;"/><text fill="#000000" font-family="sans-serif" font-size="13" lengthAdjust="spacing" textLength="49" x="288.7129" y="298.0669">recover</text><!--MD5=[3886277080dbeb22c0e47db9a476a5a4]
link User to Multiplier--><path codeLine="62" d="M836.2699,235.101 C841.4519,242.363 847.2469,249.124 853.7129,255 C883.0529,281.66 904.3259,263.626 937.7129,285 C958.5039,298.3098 977.8069,318.7704 991.0209,334.5661 " fill="none" id="User-to-Multiplier" style="stroke:#A80036;stroke-width:1.0;"/><polygon fill="#A80036" points="994.2469,338.4742,991.6039,328.9866,991.0645,334.6177,985.4335,334.0783,994.2469,338.4742" style="stroke:#A80036;stroke-width:1.0;"/><text fill="#000000" font-family="sans-serif" font-size="13" lengthAdjust="spacing" textLength="47" x="960.7129" y="298.0669">change</text><!--MD5=[e8391b464a8c1f520fe41a9a3701b788]
link User to Animation--><path codeLine="63" d="M836.3229,239.49 C841.4489,245.392 847.2189,250.67 853.7129,255 C916.7289,297.0181 1460.3969,270.38 1534.7169,285 C1586.8469,295.2556 1643.0869,320.1878 1678.8069,337.9452 " fill="none" id="User-to-Animation" style="stroke:#A80036;stroke-width:1.0;"/><polygon fill="#A80036" points="1683.4869,340.2917,1677.2362,332.6806,1679.0178,338.0496,1673.6488,339.8312,1683.4869,340.2917" style="stroke:#A80036;stroke-width:1.0;"/><text fill="#000000" font-family="sans-serif" font-size="13" lengthAdjust="spacing" textLength="23" x="1592.7169" y="298.0669">see</text><!--MD5=[7ce62e6be194a4eb1cd79b7464013187]
link User to Game--><path codeLine="64" d="M836.3719,237.671 C841.4999,244.129 847.2559,250.019 853.7129,255 C912.0369,299.9927 948.7349,256.627 1016.7169,285 C1042.2069,295.6401 1067.6969,313.2734 1087.0669,328.4853 " fill="none" id="User-to-Game" style="stroke:#A80036;stroke-width:1.0;"/><polygon fill="#A80036" points="1091.3569,331.8911,1086.804,323.1578,1087.444,328.7783,1081.8235,329.4183,1091.3569,331.8911" style="stroke:#A80036;stroke-width:1.0;"/><text fill="#000000" font-family="sans-serif" font-size="13" lengthAdjust="spacing" textLength="27" x="1048.7169" y="298.0669">play</text><!--MD5=[6b1f4da4dbea5ad1d54138511ad965a7]
link Game to User--><path codeLine="69" d="M1114.6569,331.9593 C1109.4569,315.8654 1100.2769,296.0976 1084.7169,285 C1000.4249,224.886 937.3279,316.0475 853.7129,255 C848.6409,251.297 844.0049,247.027 839.7699,242.35 " fill="none" id="Game-to-User" style="stroke:#A80036;stroke-width:1.0;"/><polygon fill="#A80036" points="836.3059,238.329,839.152,247.7577,839.5703,242.1163,845.2117,242.5346,836.3059,238.329" style="stroke:#A80036;stroke-width:1.0;"/><text fill="#000000" font-family="sans-serif" font-size="13" lengthAdjust="spacing" textLength="50" x="1100.7169" y="298.0669">attracts</text><!--MD5=[9f2010a726ff0d425086a1b968f0297b]
link User to Username--><path codeLine="66" d="M836.3659,238.829 C841.4849,244.93 847.2429,250.43 853.7129,255 C909.5229,294.4177 1098.1969,255.26 1159.7169,285 C1182.3669,295.9521 1201.6569,317.4788 1214.2169,334.243 " fill="none" id="User-to-Username" style="stroke:#A80036;stroke-width:1.0;"/><polygon fill="#A80036" points="1217.2669,338.3931,1215.1638,328.7714,1214.3074,334.3631,1208.7157,333.5066,1217.2669,338.3931" style="stroke:#A80036;stroke-width:1.0;"/><text fill="#000000" font-family="sans-serif" font-size="13" lengthAdjust="spacing" textLength="65" x="1185.7169" y="298.0669">registered</text><!--MD5=[b9c617f8ff20985e566f1ad3fbfc12d0]
link User to GamingExperience--><path codeLine="68" d="M836.2429,239.005 C841.3909,245.066 847.1879,250.508 853.7129,255 C928.2289,306.3023 1174.8169,253.73 1259.7169,285 C1288.7069,295.6792 1316.6269,317.5275 1335.3769,334.4621 " fill="none" id="User-to-GamingExperience" style="stroke:#A80036;stroke-width:1.0;"/><polygon fill="#A80036" points="1339.4669,338.2131,1335.5245,329.1877,1335.777,334.8389,1330.1258,335.0915,1339.4669,338.2131" style="stroke:#A80036;stroke-width:1.0;"/><text fill="#000000" font-family="sans-serif" font-size="13" lengthAdjust="spacing" textLength="32" x="1293.7169" y="298.0669">have</text><!--MD5=[9e5d13337581ae2adbc73e67d86a0392]
link User to ProfileInformation--><path codeLine="72" d="M836.4139,239.356 C841.5179,245.29 847.2589,250.611 853.7129,255 C942.2719,315.225 1230.3969,260.737 1334.7169,285 C1382.4569,296.1046 1433.8869,319.0319 1468.3569,336.1469 " fill="none" id="User-to-ProfileInformation" style="stroke:#A80036;stroke-width:1.0;"/><polygon fill="#A80036" points="1472.8969,338.4154,1466.6256,330.8213,1468.4217,336.1854,1463.0576,337.9815,1472.8969,338.4154" style="stroke:#A80036;stroke-width:1.0;"/><text fill="#000000" font-family="sans-serif" font-size="13" lengthAdjust="spacing" textLength="24" x="1390.7169" y="298.0669">edit</text><!--MD5=[f9a62cc0e2991e521aeac5a6be85314d]
@startuml
hide circle
class User<actor> {
}
class Developer<actor> {
}
class User {
	detonate()
	get()
	see()
	recover()
	change()
	register()
	choose()
	play()
	remove()
	registered()
	edit()
	place()
	hear()
	beat()
	have()
	buy()
}
class Score {
}
class Password {
}
class Bomb {
}
class Reward {
}
class Detail {
}
class while {
}
class Effect {
}
class Multiplier {
}
class Game {
	attracts()
}
class Username {
}
class GamingExperience {
}
class ProfileInformation {
}
class History {
}
class Animation {
}
User - -> Bomb : place
User - -> Bomb : buy
User - -> History : see
User - -> Score : see
User - -> Reward : get
User - -> Detail : register
User - -> while : choose
User - -> Effect : hear
User - -> Password : registered
User - -> Multiplier : change
User - -> Animation : see
User - -> Game : play
User - -> Score : beat
User - -> Username : registered
User - -> Password : recover
User - -> GamingExperience : have
Game - -> User : attracts
User - -> Bomb : remove
User - -> Bomb : detonate
User - -> ProfileInformation : edit
@enduml

PlantUML version 1.2021.6beta6(Unknown compile time)
(GPL source distribution)
Java Runtime: Java(TM) SE Runtime Environment
JVM: Java HotSpot(TM) 64-Bit Server VM
Default Encoding: UTF-8
Language: en
Country: US
--></g></svg>