<?xml version="1.0" encoding="UTF-8" standalone="no"?><svg xmlns="http://www.w3.org/2000/svg" xmlns:xlink="http://www.w3.org/1999/xlink" contentScriptType="application/ecmascript" contentStyleType="text/css" height="566px" preserveAspectRatio="none" style="width:2914px;height:566px;background:#FFFFFF;" version="1.1" viewBox="0 0 2914 566" width="2914px" zoomAndPan="magnify"><defs><filter height="300%" id="fh2k42aghfjg2" width="300%" x="-1" y="-1"><feGaussianBlur result="blurOut" stdDeviation="2.0"/><feColorMatrix in="blurOut" result="blurOut2" type="matrix" values="0 0 0 0 0 0 0 0 0 0 0 0 0 0 0 0 0 0 .4 0"/><feOffset dx="4.0" dy="4.0" in="blurOut2" result="blurOut3"/><feBlend in="SourceGraphic" in2="blurOut3" mode="normal"/></filter></defs><g><!--MD5=[dc30b613f1e19857666fe974d6d5a9b4]
class Youth--><rect codeLine="80" fill="#FEFECE" filter="url(#fh2k42aghfjg2)" height="155.2109" id="Youth" style="stroke:#A80036;stroke-width:1.5;" width="88" x="500.0265" y="10"/><text fill="#000000" font-family="sans-serif" font-size="12" lengthAdjust="spacing" textLength="33" x="510.0265" y="26.1387">Youth</text><rect fill="#FFFFFF" height="15.9688" style="stroke:#000000;stroke-width:1.0;stroke-dasharray:2.0,2.0;" width="33" x="558.0265" y="7"/><text fill="#000000" font-family="sans-serif" font-size="12" font-style="italic" lengthAdjust="spacing" textLength="31" x="559.0265" y="19.1387">actor</text><line style="stroke:#A80036;stroke-width:1.5;" x1="501.0265" x2="587.0265" y1="33.9688" y2="33.9688"/><text fill="#000000" font-family="sans-serif" font-size="11" lengthAdjust="spacing" textLength="53" x="506.0265" y="48.1792">feedback</text><text fill="#000000" font-family="sans-serif" font-size="11" lengthAdjust="spacing" textLength="39" x="506.0265" y="60.9839">survey</text><text fill="#000000" font-family="sans-serif" font-size="11" lengthAdjust="spacing" textLength="27" x="506.0265" y="73.7886">case</text><text fill="#000000" font-family="sans-serif" font-size="11" lengthAdjust="spacing" textLength="36" x="506.0265" y="86.5933">profile</text><text fill="#000000" font-family="sans-serif" font-size="11" lengthAdjust="spacing" textLength="76" x="506.0265" y="99.3979">caseManager</text><line style="stroke:#A80036;stroke-width:1.5;" x1="501.0265" x2="587.0265" y1="105.9922" y2="105.9922"/><text fill="#000000" font-family="sans-serif" font-size="11" lengthAdjust="spacing" textLength="51" x="506.0265" y="120.2026">provide()</text><text fill="#000000" font-family="sans-serif" font-size="11" lengthAdjust="spacing" textLength="49" x="506.0265" y="133.0073">contact()</text><text fill="#000000" font-family="sans-serif" font-size="11" lengthAdjust="spacing" textLength="33" x="506.0265" y="145.812">take()</text><text fill="#000000" font-family="sans-serif" font-size="11" lengthAdjust="spacing" textLength="35" x="506.0265" y="158.6167">view()</text><!--MD5=[70aa74288b4705a51315db4e0d6b3cbb]
class CaseManager--><rect codeLine="92" fill="#FEFECE" filter="url(#fh2k42aghfjg2)" height="65.5781" id="CaseManager" style="stroke:#A80036;stroke-width:1.5;" width="123" x="684.5265" y="54.5"/><text fill="#000000" font-family="sans-serif" font-size="12" lengthAdjust="spacing" textLength="82" x="687.5265" y="70.6387">CaseManager</text><rect fill="#FFFFFF" height="15.9688" style="stroke:#000000;stroke-width:1.0;stroke-dasharray:2.0,2.0;" width="33" x="777.5265" y="51.5"/><text fill="#000000" font-family="sans-serif" font-size="12" font-style="italic" lengthAdjust="spacing" textLength="31" x="778.5265" y="63.6387">actor</text><line style="stroke:#A80036;stroke-width:1.5;" x1="685.5265" x2="806.5265" y1="78.4688" y2="78.4688"/><text fill="#000000" font-family="sans-serif" font-size="11" lengthAdjust="spacing" textLength="32" x="690.5265" y="92.6792">youth</text><text fill="#000000" font-family="sans-serif" font-size="11" lengthAdjust="spacing" textLength="27" x="690.5265" y="105.4839">case</text><line style="stroke:#A80036;stroke-width:1.5;" x1="685.5265" x2="806.5265" y1="112.0781" y2="112.0781"/><!--MD5=[da547346deef918ea16944ba046651ef]
class Administrator--><rect codeLine="52" fill="#FEFECE" filter="url(#fh2k42aghfjg2)" height="180.8203" id="Administrator" style="stroke:#A80036;stroke-width:1.5;" width="121" x="1911.5265" y="242"/><text fill="#000000" font-family="sans-serif" font-size="12" lengthAdjust="spacing" textLength="80" x="1914.5265" y="258.1387">Administrator</text><rect fill="#FFFFFF" height="15.9688" style="stroke:#000000;stroke-width:1.0;stroke-dasharray:2.0,2.0;" width="33" x="2002.5265" y="239"/><text fill="#000000" font-family="sans-serif" font-size="12" font-style="italic" lengthAdjust="spacing" textLength="31" x="2003.5265" y="251.1387">actor</text><line style="stroke:#A80036;stroke-width:1.5;" x1="1912.5265" x2="2031.5265" y1="265.9688" y2="265.9688"/><line style="stroke:#A80036;stroke-width:1.5;" x1="1912.5265" x2="2031.5265" y1="273.9688" y2="273.9688"/><text fill="#000000" font-family="sans-serif" font-size="11" lengthAdjust="spacing" textLength="46" x="1917.5265" y="288.1792">delete()</text><text fill="#000000" font-family="sans-serif" font-size="11" lengthAdjust="spacing" textLength="29" x="1917.5265" y="300.9839">add()</text><text fill="#000000" font-family="sans-serif" font-size="11" lengthAdjust="spacing" textLength="52" x="1917.5265" y="313.7886">transfer()</text><text fill="#000000" font-family="sans-serif" font-size="11" lengthAdjust="spacing" textLength="30" x="1917.5265" y="326.5933">see()</text><text fill="#000000" font-family="sans-serif" font-size="11" lengthAdjust="spacing" textLength="47" x="1917.5265" y="339.3979">modify()</text><text fill="#000000" font-family="sans-serif" font-size="11" lengthAdjust="spacing" textLength="45" x="1917.5265" y="352.2026">create()</text><text fill="#000000" font-family="sans-serif" font-size="11" lengthAdjust="spacing" textLength="45" x="1917.5265" y="365.0073">export()</text><text fill="#000000" font-family="sans-serif" font-size="11" lengthAdjust="spacing" textLength="40" x="1917.5265" y="377.812">make()</text><text fill="#000000" font-family="sans-serif" font-size="11" lengthAdjust="spacing" textLength="35" x="1917.5265" y="390.6167">view()</text><text fill="#000000" font-family="sans-serif" font-size="11" lengthAdjust="spacing" textLength="60" x="1917.5265" y="403.4214">send_out()</text><text fill="#000000" font-family="sans-serif" font-size="11" lengthAdjust="spacing" textLength="55" x="1917.5265" y="416.2261">manage()</text><!--MD5=[3fd616f346a44cd59a91eb10b19e157c]
class User--><rect codeLine="40" fill="#FEFECE" filter="url(#fh2k42aghfjg2)" height="103.9922" id="User" style="stroke:#A80036;stroke-width:1.5;" width="103" x="2724.5265" y="35.5"/><text fill="#000000" font-family="sans-serif" font-size="12" lengthAdjust="spacing" textLength="29" x="2744.0265" y="51.6387">User</text><rect fill="#FFFFFF" height="15.9688" style="stroke:#000000;stroke-width:1.0;stroke-dasharray:2.0,2.0;" width="33" x="2797.5265" y="32.5"/><text fill="#000000" font-family="sans-serif" font-size="12" font-style="italic" lengthAdjust="spacing" textLength="31" x="2798.5265" y="44.6387">actor</text><line style="stroke:#A80036;stroke-width:1.5;" x1="2725.5265" x2="2826.5265" y1="59.4688" y2="59.4688"/><text fill="#000000" font-family="sans-serif" font-size="11" lengthAdjust="spacing" textLength="91" x="2730.5265" y="73.6792">loginInformation</text><text fill="#000000" font-family="sans-serif" font-size="11" lengthAdjust="spacing" textLength="36" x="2730.5265" y="86.4839">record</text><line style="stroke:#A80036;stroke-width:1.5;" x1="2725.5265" x2="2826.5265" y1="93.0781" y2="93.0781"/><text fill="#000000" font-family="sans-serif" font-size="11" lengthAdjust="spacing" textLength="49" x="2730.5265" y="107.2886">answer()</text><text fill="#000000" font-family="sans-serif" font-size="11" lengthAdjust="spacing" textLength="52" x="2730.5265" y="120.0933">recover()</text><text fill="#000000" font-family="sans-serif" font-size="11" lengthAdjust="spacing" textLength="45" x="2730.5265" y="132.8979">create()</text><!--MD5=[6081a303407aa0c0464c8b50c38f5612]
class Staff--><rect codeLine="49" fill="#FEFECE" filter="url(#fh2k42aghfjg2)" height="52.7734" id="Staff" style="stroke:#A80036;stroke-width:1.5;" width="68" x="134.0265" y="306"/><text fill="#000000" font-family="sans-serif" font-size="12" lengthAdjust="spacing" textLength="27" x="137.0265" y="322.1387">Staff</text><rect fill="#FFFFFF" height="15.9688" style="stroke:#000000;stroke-width:1.0;stroke-dasharray:2.0,2.0;" width="33" x="172.0265" y="303"/><text fill="#000000" font-family="sans-serif" font-size="12" font-style="italic" lengthAdjust="spacing" textLength="31" x="173.0265" y="315.1387">actor</text><line style="stroke:#A80036;stroke-width:1.5;" x1="135.0265" x2="201.0265" y1="329.9688" y2="329.9688"/><line style="stroke:#A80036;stroke-width:1.5;" x1="135.0265" x2="201.0265" y1="337.9688" y2="337.9688"/><text fill="#000000" font-family="sans-serif" font-size="11" lengthAdjust="spacing" textLength="35" x="140.0265" y="352.1792">view()</text><!--MD5=[f9a29335b499db729be669fd1bd54958]
class Account--><rect codeLine="21" fill="#FEFECE" filter="url(#fh2k42aghfjg2)" height="39.9688" id="Account" style="stroke:#A80036;stroke-width:1.5;" width="54" x="515.0265" y="506.5"/><text fill="#000000" font-family="sans-serif" font-size="12" lengthAdjust="spacing" textLength="48" x="518.0265" y="522.6387">Account</text><line style="stroke:#A80036;stroke-width:1.5;" x1="516.0265" x2="568.0265" y1="530.4688" y2="530.4688"/><line style="stroke:#A80036;stroke-width:1.5;" x1="516.0265" x2="568.0265" y1="538.4688" y2="538.4688"/><!--MD5=[b24ed8d4ae84bae9290d9aab401637c7]
class Manager--><rect codeLine="23" fill="#FEFECE" filter="url(#fh2k42aghfjg2)" height="180.8203" id="Manager" style="stroke:#A80036;stroke-width:1.5;" width="81" x="705.5265" y="242"/><text fill="#000000" font-family="sans-serif" font-size="12" lengthAdjust="spacing" textLength="52" x="720.0265" y="258.1387">Manager</text><line style="stroke:#A80036;stroke-width:1.5;" x1="706.5265" x2="785.5265" y1="265.9688" y2="265.9688"/><line style="stroke:#A80036;stroke-width:1.5;" x1="706.5265" x2="785.5265" y1="273.9688" y2="273.9688"/><text fill="#000000" font-family="sans-serif" font-size="11" lengthAdjust="spacing" textLength="46" x="711.5265" y="288.1792">delete()</text><text fill="#000000" font-family="sans-serif" font-size="11" lengthAdjust="spacing" textLength="29" x="711.5265" y="300.9839">add()</text><text fill="#000000" font-family="sans-serif" font-size="11" lengthAdjust="spacing" textLength="30" x="711.5265" y="313.7886">see()</text><text fill="#000000" font-family="sans-serif" font-size="11" lengthAdjust="spacing" textLength="54" x="711.5265" y="326.5933">activate()</text><text fill="#000000" font-family="sans-serif" font-size="11" lengthAdjust="spacing" textLength="69" x="711.5265" y="339.3979">deactivate()</text><text fill="#000000" font-family="sans-serif" font-size="11" lengthAdjust="spacing" textLength="45" x="711.5265" y="352.2026">create()</text><text fill="#000000" font-family="sans-serif" font-size="11" lengthAdjust="spacing" textLength="45" x="711.5265" y="365.0073">export()</text><text fill="#000000" font-family="sans-serif" font-size="11" lengthAdjust="spacing" textLength="47" x="711.5265" y="377.812">review()</text><text fill="#000000" font-family="sans-serif" font-size="11" lengthAdjust="spacing" textLength="35" x="711.5265" y="390.6167">view()</text><text fill="#000000" font-family="sans-serif" font-size="11" lengthAdjust="spacing" textLength="60" x="711.5265" y="403.4214">send_out()</text><text fill="#000000" font-family="sans-serif" font-size="11" lengthAdjust="spacing" textLength="55" x="711.5265" y="416.2261">manage()</text><!--MD5=[59b530d44ae785dc18db921986a9c15c]
class Document--><rect codeLine="36" fill="#FEFECE" filter="url(#fh2k42aghfjg2)" height="39.9688" id="Document" style="stroke:#A80036;stroke-width:1.5;" width="67" x="385.5265" y="506.5"/><text fill="#000000" font-family="sans-serif" font-size="12" lengthAdjust="spacing" textLength="61" x="388.5265" y="522.6387">Document</text><line style="stroke:#A80036;stroke-width:1.5;" x1="386.5265" x2="451.5265" y1="530.4688" y2="530.4688"/><line style="stroke:#A80036;stroke-width:1.5;" x1="386.5265" x2="451.5265" y1="538.4688" y2="538.4688"/><!--MD5=[30fd7b95ab383a5e7c83ea23d4ea0fbf]
class Information--><rect codeLine="38" fill="#FEFECE" filter="url(#fh2k42aghfjg2)" height="39.9688" id="Information" style="stroke:#A80036;stroke-width:1.5;" width="73" x="150.5265" y="506.5"/><text fill="#000000" font-family="sans-serif" font-size="12" lengthAdjust="spacing" textLength="67" x="153.5265" y="522.6387">Information</text><line style="stroke:#A80036;stroke-width:1.5;" x1="151.5265" x2="222.5265" y1="530.4688" y2="530.4688"/><line style="stroke:#A80036;stroke-width:1.5;" x1="151.5265" x2="222.5265" y1="538.4688" y2="538.4688"/><!--MD5=[c238f5c780b4770aca76cc1e6fa299b9]
class LoginInformation--><rect codeLine="45" fill="#FEFECE" filter="url(#fh2k42aghfjg2)" height="39.9688" id="LoginInformation" style="stroke:#A80036;stroke-width:1.5;" width="105" x="2632.5265" y="312.5"/><text fill="#000000" font-family="sans-serif" font-size="12" lengthAdjust="spacing" textLength="99" x="2635.5265" y="328.6387">LoginInformation</text><line style="stroke:#A80036;stroke-width:1.5;" x1="2633.5265" x2="2736.5265" y1="336.4688" y2="336.4688"/><line style="stroke:#A80036;stroke-width:1.5;" x1="2633.5265" x2="2736.5265" y1="344.4688" y2="344.4688"/><!--MD5=[2741598bdf59a7d7e0d5c97658fd3022]
class Result--><rect codeLine="47" fill="#FEFECE" filter="url(#fh2k42aghfjg2)" height="39.9688" id="Result" style="stroke:#A80036;stroke-width:1.5;" width="42" x="1853.0265" y="506.5"/><text fill="#000000" font-family="sans-serif" font-size="12" lengthAdjust="spacing" textLength="36" x="1856.0265" y="522.6387">Result</text><line style="stroke:#A80036;stroke-width:1.5;" x1="1854.0265" x2="1894.0265" y1="530.4688" y2="530.4688"/><line style="stroke:#A80036;stroke-width:1.5;" x1="1854.0265" x2="1894.0265" y1="538.4688" y2="538.4688"/><!--MD5=[e8dcfdde5c6ce5239f59acd294696d72]
class Case--><rect codeLine="65" fill="#FEFECE" filter="url(#fh2k42aghfjg2)" height="39.9688" id="Case" style="stroke:#A80036;stroke-width:1.5;" width="36" x="1305.0265" y="506.5"/><text fill="#000000" font-family="sans-serif" font-size="12" lengthAdjust="spacing" textLength="30" x="1308.0265" y="522.6387">Case</text><line style="stroke:#A80036;stroke-width:1.5;" x1="1306.0265" x2="1340.0265" y1="530.4688" y2="530.4688"/><line style="stroke:#A80036;stroke-width:1.5;" x1="1306.0265" x2="1340.0265" y1="538.4688" y2="538.4688"/><!--MD5=[c464c8bffcc82a69bc478b3e0176a656]
class SecurityQuestion--><rect codeLine="67" fill="#FEFECE" filter="url(#fh2k42aghfjg2)" height="39.9688" id="SecurityQuestion" style="stroke:#A80036;stroke-width:1.5;" width="109" x="2791.5265" y="312.5"/><text fill="#000000" font-family="sans-serif" font-size="12" lengthAdjust="spacing" textLength="103" x="2794.5265" y="328.6387">SecurityQuestion</text><line style="stroke:#A80036;stroke-width:1.5;" x1="2792.5265" x2="2899.5265" y1="336.4688" y2="336.4688"/><line style="stroke:#A80036;stroke-width:1.5;" x1="2792.5265" x2="2899.5265" y1="344.4688" y2="344.4688"/><!--MD5=[93b867cf5e7a1e913dd5047074c12207]
class Mail--><rect codeLine="69" fill="#FEFECE" filter="url(#fh2k42aghfjg2)" height="39.9688" id="Mail" style="stroke:#A80036;stroke-width:1.5;" width="29" x="1675.5265" y="506.5"/><text fill="#000000" font-family="sans-serif" font-size="12" lengthAdjust="spacing" textLength="23" x="1678.5265" y="522.6387">Mail</text><line style="stroke:#A80036;stroke-width:1.5;" x1="1676.5265" x2="1703.5265" y1="530.4688" y2="530.4688"/><line style="stroke:#A80036;stroke-width:1.5;" x1="1676.5265" x2="1703.5265" y1="538.4688" y2="538.4688"/><!--MD5=[5c85d133e2c913f4b8608c8db253c015]
class Record--><rect codeLine="71" fill="#FEFECE" filter="url(#fh2k42aghfjg2)" height="39.9688" id="Record" style="stroke:#A80036;stroke-width:1.5;" width="49" x="2019.5265" y="506.5"/><text fill="#000000" font-family="sans-serif" font-size="12" lengthAdjust="spacing" textLength="43" x="2022.5265" y="522.6387">Record</text><line style="stroke:#A80036;stroke-width:1.5;" x1="2020.5265" x2="2067.5265" y1="530.4688" y2="530.4688"/><line style="stroke:#A80036;stroke-width:1.5;" x1="2020.5265" x2="2067.5265" y1="538.4688" y2="538.4688"/><!--MD5=[63dd87716ef75a5caca5dce59428e94a]
class File--><rect codeLine="73" fill="#FEFECE" filter="url(#fh2k42aghfjg2)" height="52.7734" id="File" style="stroke:#A80036;stroke-width:1.5;" width="59" x="278.5265" y="500"/><text fill="#000000" font-family="sans-serif" font-size="12" lengthAdjust="spacing" textLength="21" x="297.5265" y="516.1387">File</text><line style="stroke:#A80036;stroke-width:1.5;" x1="279.5265" x2="336.5265" y1="523.9688" y2="523.9688"/><line style="stroke:#A80036;stroke-width:1.5;" x1="279.5265" x2="336.5265" y1="531.9688" y2="531.9688"/><text fill="#000000" font-family="sans-serif" font-size="11" lengthAdjust="spacing" textLength="47" x="284.5265" y="546.1792">belong()</text><!--MD5=[7b57f7066b803747d2119f99dd1555d4]
class Profile--><rect codeLine="76" fill="#FEFECE" filter="url(#fh2k42aghfjg2)" height="39.9688" id="Profile" style="stroke:#A80036;stroke-width:1.5;" width="43" x="2318.5265" y="506.5"/><text fill="#000000" font-family="sans-serif" font-size="12" lengthAdjust="spacing" textLength="37" x="2321.5265" y="522.6387">Profile</text><line style="stroke:#A80036;stroke-width:1.5;" x1="2319.5265" x2="2360.5265" y1="530.4688" y2="530.4688"/><line style="stroke:#A80036;stroke-width:1.5;" x1="2319.5265" x2="2360.5265" y1="538.4688" y2="538.4688"/><!--MD5=[c881b25adf3665c6568c9693d41a70f3]
class Activity--><rect codeLine="78" fill="#FEFECE" filter="url(#fh2k42aghfjg2)" height="39.9688" id="Activity" style="stroke:#A80036;stroke-width:1.5;" width="49" x="851.5265" y="506.5"/><text fill="#000000" font-family="sans-serif" font-size="12" lengthAdjust="spacing" textLength="43" x="854.5265" y="522.6387">Activity</text><line style="stroke:#A80036;stroke-width:1.5;" x1="852.5265" x2="899.5265" y1="530.4688" y2="530.4688"/><line style="stroke:#A80036;stroke-width:1.5;" x1="852.5265" x2="899.5265" y1="538.4688" y2="538.4688"/><!--MD5=[1a502b0dbedafd291c48f46ef8646183]
class Feedback--><rect codeLine="86" fill="#FEFECE" filter="url(#fh2k42aghfjg2)" height="39.9688" id="Feedback" style="stroke:#A80036;stroke-width:1.5;" width="66" x="30.0265" y="506.5"/><text fill="#000000" font-family="sans-serif" font-size="12" lengthAdjust="spacing" textLength="60" x="33.0265" y="522.6387">Feedback</text><line style="stroke:#A80036;stroke-width:1.5;" x1="31.0265" x2="95.0265" y1="530.4688" y2="530.4688"/><line style="stroke:#A80036;stroke-width:1.5;" x1="31.0265" x2="95.0265" y1="538.4688" y2="538.4688"/><!--MD5=[3145b4be7c5005b24cda6f18a1d594b0]
class Survey--><rect codeLine="88" fill="#FEFECE" filter="url(#fh2k42aghfjg2)" height="39.9688" id="Survey" style="stroke:#A80036;stroke-width:1.5;" width="48" x="2549.0265" y="312.5"/><text fill="#000000" font-family="sans-serif" font-size="12" lengthAdjust="spacing" textLength="42" x="2552.0265" y="328.6387">Survey</text><line style="stroke:#A80036;stroke-width:1.5;" x1="2550.0265" x2="2596.0265" y1="336.4688" y2="336.4688"/><line style="stroke:#A80036;stroke-width:1.5;" x1="2550.0265" x2="2596.0265" y1="344.4688" y2="344.4688"/><!--MD5=[58a810081d5936703dfd7fe90a18b4f0]
class LogRecord--><rect codeLine="90" fill="#FEFECE" filter="url(#fh2k42aghfjg2)" height="39.9688" id="LogRecord" style="stroke:#A80036;stroke-width:1.5;" width="71" x="2504.5265" y="506.5"/><text fill="#000000" font-family="sans-serif" font-size="12" lengthAdjust="spacing" textLength="65" x="2507.5265" y="522.6387">LogRecord</text><line style="stroke:#A80036;stroke-width:1.5;" x1="2505.5265" x2="2574.5265" y1="530.4688" y2="530.4688"/><line style="stroke:#A80036;stroke-width:1.5;" x1="2505.5265" x2="2574.5265" y1="538.4688" y2="538.4688"/><!--MD5=[4cbfec2eefdac66ca0a7460db6afb337]
link Administrator to Record--><path codeLine="94" d="M1957.8265,423.295 C1958.6265,439.469 1961.8265,455.7123 1969.0265,470 C1978.5565,488.9071 1997.9065,502.9756 2014.5665,512.2175 " fill="none" id="Administrator-to-Record" style="stroke:#A80036;stroke-width:1.0;"/><polygon fill="#A80036" points="2019.1865,514.6962,2013.1578,506.9081,2014.7839,512.3262,2009.3658,513.9523,2019.1865,514.6962" style="stroke:#A80036;stroke-width:1.0;"/><text fill="#000000" font-family="sans-serif" font-size="13" lengthAdjust="spacing" textLength="30" x="1970.0265" y="466.0669">view</text><!--MD5=[4cbfec2eefdac66ca0a7460db6afb337]
link Administrator to Record--><path codeLine="118" d="M2005.6065,423.036 C2016.4165,451.876 2027.5265,481.4978 2034.9965,501.4264 " fill="none" id="Administrator-to-Record-1" style="stroke:#A80036;stroke-width:1.0;"/><polygon fill="#A80036" points="2036.8165,506.2777,2037.3945,496.4458,2035.0574,501.5973,2029.9059,499.2603,2036.8165,506.2777" style="stroke:#A80036;stroke-width:1.0;"/><text fill="#000000" font-family="sans-serif" font-size="13" lengthAdjust="spacing" textLength="24" x="2024.0265" y="466.0669">add</text><!--MD5=[4cbfec2eefdac66ca0a7460db6afb337]
link Administrator to Record--><path codeLine="127" d="M2032.6365,403.87 C2042.6665,419.158 2051.5665,435.902 2057.0265,453 C2062.0465,468.7311 2058.6965,487.0404 2054.1365,501.3235 " fill="none" id="Administrator-to-Record-2" style="stroke:#A80036;stroke-width:1.0;"/><polygon fill="#A80036" points="2052.4165,506.3913,2059.0931,499.1509,2054.021,501.6557,2051.5162,496.5837,2052.4165,506.3913" style="stroke:#A80036;stroke-width:1.0;"/><text fill="#000000" font-family="sans-serif" font-size="13" lengthAdjust="spacing" textLength="40" x="2061.0265" y="466.0669">delete</text><!--MD5=[f51c46761aa5b51b59eed1460891c3af]
link Manager to Result--><path codeLine="95" d="M786.6815,334.488 C957.7315,339.19 1618.6165,362.958 1803.0265,453 C1825.7965,464.1162 1845.3865,485.6228 1858.1865,502.3376 " fill="none" id="Manager-to-Result" style="stroke:#A80036;stroke-width:1.0;"/><polygon fill="#A80036" points="1861.2965,506.4747,1859.0934,496.8754,1858.2952,502.4757,1852.695,501.6775,1861.2965,506.4747" style="stroke:#A80036;stroke-width:1.0;"/><text fill="#000000" font-family="sans-serif" font-size="13" lengthAdjust="spacing" textLength="23" x="1830.0265" y="466.0669">see</text><!--MD5=[701b09fd52131508d42b729d9753da76]
link Administrator to Case--><path codeLine="96" d="M1911.3565,347.494 C1828.9565,367.244 1677.6465,406.163 1553.0265,453 C1536.4665,459.225 1533.5865,463.7683 1517.0265,470 C1456.8665,492.637 1383.2865,511.3344 1346.4265,520.1114 " fill="none" id="Administrator-to-Case" style="stroke:#A80036;stroke-width:1.0;"/><polygon fill="#A80036" points="1341.2665,521.3336,1350.9478,523.1428,1346.1308,520.1768,1349.0969,515.3599,1341.2665,521.3336" style="stroke:#A80036;stroke-width:1.0;"/><text fill="#000000" font-family="sans-serif" font-size="13" lengthAdjust="spacing" textLength="42" x="1554.0265" y="466.0669">export</text><!--MD5=[701b09fd52131508d42b729d9753da76]
link Administrator to Case--><path codeLine="98" d="M1911.4865,340.188 C1778.7865,355.715 1467.0265,397.179 1378.0265,453 C1359.1865,464.8163 1344.4365,485.5584 1334.9765,501.8376 " fill="none" id="Administrator-to-Case-1" style="stroke:#A80036;stroke-width:1.0;"/><polygon fill="#A80036" points="1332.4465,506.2997,1340.359,500.4352,1334.9081,501.9476,1333.3957,496.4967,1332.4465,506.2997" style="stroke:#A80036;stroke-width:1.0;"/><text fill="#000000" font-family="sans-serif" font-size="13" lengthAdjust="spacing" textLength="51" x="1379.0265" y="466.0669">transfer</text><!--MD5=[701b09fd52131508d42b729d9753da76]
link Administrator to Case--><path codeLine="107" d="M1911.4665,342.67 C1815.1665,358.387 1622.1565,394.548 1467.0265,453 C1451.9565,458.6785 1449.3565,462.6462 1435.0265,470 C1404.3865,485.727 1368.6865,503.2854 1345.9865,514.3596 " fill="none" id="Administrator-to-Case-2" style="stroke:#A80036;stroke-width:1.0;"/><polygon fill="#A80036" points="1341.3365,516.6213,1351.1786,516.2575,1345.8274,514.4232,1347.6617,509.072,1341.3365,516.6213" style="stroke:#A80036;stroke-width:1.0;"/><text fill="#000000" font-family="sans-serif" font-size="13" lengthAdjust="spacing" textLength="40" x="1468.0265" y="466.0669">delete</text><!--MD5=[c587a1797c16b191946eea7a945b96f9]
link Manager to Document--><path codeLine="97" d="M705.1075,346.256 C651.0675,364.365 554.5185,401.18 484.0265,453 C465.3515,466.7283 448.0355,486.5479 435.9795,501.996 " fill="none" id="Manager-to-Document" style="stroke:#A80036;stroke-width:1.0;"/><polygon fill="#A80036" points="432.7215,506.2286,441.3804,501.5357,435.7709,502.2661,435.0405,496.6566,432.7215,506.2286" style="stroke:#A80036;stroke-width:1.0;"/><text fill="#000000" font-family="sans-serif" font-size="13" lengthAdjust="spacing" textLength="40" x="485.0265" y="466.0669">delete</text><!--MD5=[4f054581cc7d8453f3cc806565a67c51]
link Staff to Information--><path codeLine="99" d="M164.2875,359.175 C160.9965,386.812 157.7565,431.932 165.0265,470 C167.0625,480.6636 171.1155,491.8921 175.1945,501.4381 " fill="none" id="Staff-to-Information" style="stroke:#A80036;stroke-width:1.0;"/><polygon fill="#A80036" points="177.3185,506.2647,177.3542,496.4159,175.3044,501.6883,170.032,499.6385,177.3185,506.2647" style="stroke:#A80036;stroke-width:1.0;"/><text fill="#000000" font-family="sans-serif" font-size="13" lengthAdjust="spacing" textLength="30" x="166.0265" y="466.0669">view</text><!--MD5=[a5b8cb98c49b390b66dd028ec3db86f8]
link Administrator to Profile--><path codeLine="100" d="M2032.5365,357.383 C2086.8265,379.652 2168.0465,415.057 2235.0265,453 C2263.2165,468.9682 2293.4665,490.3534 2314.2165,505.7547 " fill="none" id="Administrator-to-Profile" style="stroke:#A80036;stroke-width:1.0;"/><polygon fill="#A80036" points="2318.2465,508.7518,2313.4176,500.168,2314.2364,505.7653,2308.6391,506.5841,2318.2465,508.7518" style="stroke:#A80036;stroke-width:1.0;"/><text fill="#000000" font-family="sans-serif" font-size="13" lengthAdjust="spacing" textLength="24" x="2263.0265" y="466.0669">add</text><!--MD5=[a5b8cb98c49b390b66dd028ec3db86f8]
link Administrator to Profile--><path codeLine="104" d="M2032.6965,343.382 C2102.7165,357.399 2218.1865,388.843 2296.0265,453 C2311.6765,465.8996 2323.2265,485.9084 2330.5565,501.6408 " fill="none" id="Administrator-to-Profile-1" style="stroke:#A80036;stroke-width:1.0;"/><polygon fill="#A80036" points="2332.6965,506.3733,2332.6358,496.5246,2330.6377,501.8169,2325.3454,499.8188,2332.6965,506.3733" style="stroke:#A80036;stroke-width:1.0;"/><text fill="#000000" font-family="sans-serif" font-size="13" lengthAdjust="spacing" textLength="30" x="2313.0265" y="466.0669">view</text><!--MD5=[a5b8cb98c49b390b66dd028ec3db86f8]
link Administrator to Profile--><path codeLine="121" d="M2032.7965,343.716 C2130.1265,361.453 2313.9265,401.077 2352.0265,453 C2362.1965,466.8618 2358.3365,486.2208 2352.3965,501.4477 " fill="none" id="Administrator-to-Profile-2" style="stroke:#A80036;stroke-width:1.0;"/><polygon fill="#A80036" points="2350.3165,506.4393,2357.4681,499.6677,2352.2381,501.8233,2350.0825,496.5932,2350.3165,506.4393" style="stroke:#A80036;stroke-width:1.0;"/><text fill="#000000" font-family="sans-serif" font-size="13" lengthAdjust="spacing" textLength="45" x="2359.0265" y="466.0669">modify</text><!--MD5=[a5b8cb98c49b390b66dd028ec3db86f8]
link Administrator to Profile--><path codeLine="128" d="M2032.7665,377.673 C2074.2365,406.501 2131.2265,443.552 2185.0265,470 C2228.3665,491.3046 2282.0165,508.6631 2313.4865,518.0039 " fill="none" id="Administrator-to-Profile-3" style="stroke:#A80036;stroke-width:1.0;"/><polygon fill="#A80036" points="2318.3465,519.4336,2310.8278,513.0721,2313.5468,518.0326,2308.5862,520.7516,2318.3465,519.4336" style="stroke:#A80036;stroke-width:1.0;"/><text fill="#000000" font-family="sans-serif" font-size="13" lengthAdjust="spacing" textLength="40" x="2186.0265" y="466.0669">delete</text><!--MD5=[bedb91481dcb33dcc126b3381107f57a]
link Manager to Information--><path codeLine="101" d="M705.4285,344.742 C634.7695,364.609 484.8835,408.087 361.0265,453 C314.9475,469.7093 263.2275,491.6831 228.2395,507.0418 " fill="none" id="Manager-to-Information" style="stroke:#A80036;stroke-width:1.0;"/><polygon fill="#A80036" points="223.6295,509.0695,233.4783,509.1077,228.2064,507.0566,230.2576,501.7847,223.6295,509.0695" style="stroke:#A80036;stroke-width:1.0;"/><text fill="#000000" font-family="sans-serif" font-size="13" lengthAdjust="spacing" textLength="30" x="362.0265" y="466.0669">view</text><!--MD5=[0400bcc117a8e26b903c2e6b4894c00e]
link Youth to File--><path codeLine="102" d="M502.6485,165.12 C449.8475,262.89 360.9875,427.433 324.4605,495.0692 " fill="none" id="Youth-to-File" style="stroke:#A80036;stroke-width:1.0;"/><polygon fill="#A80036" points="321.9225,499.7694,329.7193,493.7519,324.2988,495.3702,322.6806,489.9498,321.9225,499.7694" style="stroke:#A80036;stroke-width:1.0;"/><text fill="#000000" font-family="sans-serif" font-size="13" lengthAdjust="spacing" textLength="30" x="462.0265" y="337.0669">view</text><!--MD5=[777d37820e8f126ade9097ace60e83dd]
link Administrator to Result--><path codeLine="103" d="M1926.3265,423.036 C1911.5465,451.998 1896.3565,481.7488 1886.1865,501.6792 " fill="none" id="Administrator-to-Result" style="stroke:#A80036;stroke-width:1.0;"/><polygon fill="#A80036" points="1883.8365,506.2777,1891.4968,500.0874,1886.1139,501.8265,1884.3749,496.4436,1883.8365,506.2777" style="stroke:#A80036;stroke-width:1.0;"/><text fill="#000000" font-family="sans-serif" font-size="13" lengthAdjust="spacing" textLength="23" x="1910.0265" y="466.0669">see</text><!--MD5=[f4da411f92095118d26502e401646de0]
reverse link CaseManager to Manager--><path codeLine="105" d="M746.0265,140.796 C746.0265,170.231 746.0265,207.795 746.0265,241.788 " fill="none" id="CaseManager-backto-Manager" style="stroke:#A80036;stroke-width:1.0;"/><polygon fill="none" points="739.0265,140.518,746.0265,120.518,753.0265,140.518,739.0265,140.518" style="stroke:#A80036;stroke-width:1.0;"/><!--MD5=[beee76c4932d3c66ef9562fe38562a95]
reverse link Youth to Feedback--><path codeLine="106" d="M486.7495,98.361 C371.2005,119.538 116.838,173.085 66.0265,242 C6,323.414 40.411,456.8027 56.3231,506.2607 " fill="none" id="Youth-backto-Feedback" style="stroke:#A80036;stroke-width:1.0;"/><polygon fill="#FFFFFF" points="499.8005,95.999,493.1839,93.1318,487.9924,98.1367,494.609,101.0039,499.8005,95.999" style="stroke:#A80036;stroke-width:1.0;"/><text fill="#000000" font-family="sans-serif" font-size="13" lengthAdjust="spacing" textLength="48" x="67.0265" y="337.0669">provide</text><!--MD5=[c435cb0b1b128aa1ae93533b9034c56d]
link Youth to Manager--><path codeLine="108" d="M588.1065,141.527 C621.9565,182.248 668.4715,238.204 702.2465,278.834 " fill="none" id="Youth-to-Manager" style="stroke:#A80036;stroke-width:1.0;"/><polygon fill="#A80036" points="705.4745,282.717,702.7989,273.2385,702.2789,278.8714,696.646,278.3515,705.4745,282.717" style="stroke:#A80036;stroke-width:1.0;"/><text fill="#000000" font-family="sans-serif" font-size="13" lengthAdjust="spacing" textLength="48" x="646.0265" y="208.0669">contact</text><!--MD5=[2f9ae04bd9fbe22ade3024c92f1374bf]
link Manager to Case--><path codeLine="109" d="M786.7225,347.653 C847.4535,369.042 965.1445,411.519 1063.0265,453 C1079.3165,459.9041 1082.3565,464.0654 1099.0265,470 C1170.5165,495.4509 1258.8365,513.6213 1299.9465,521.3531 " fill="none" id="Manager-to-Case" style="stroke:#A80036;stroke-width:1.0;"/><polygon fill="#A80036" points="1304.9565,522.2876,1296.8398,516.7092,1300.0408,521.3732,1295.3768,524.5743,1304.9565,522.2876" style="stroke:#A80036;stroke-width:1.0;"/><text fill="#000000" font-family="sans-serif" font-size="13" lengthAdjust="spacing" textLength="42" x="1100.0265" y="466.0669">export</text><!--MD5=[16eabf39af29deb74e27fa65311fa276]
reverse link Case to Manager--><path codeLine="111" d="M1320.5565,493.4197 C1317.8165,479.1746 1312.2465,463.3299 1301.0265,453 C1225.0765,383.07 901.7435,347.565 786.7905,336.974 " fill="none" id="Case-backto-Manager" style="stroke:#A80036;stroke-width:1.0;"/><polygon fill="#FFFFFF" points="1322.3965,506.355,1325.5084,499.8499,1320.7007,494.4754,1317.5887,500.9805,1322.3965,506.355" style="stroke:#A80036;stroke-width:1.0;"/><!--MD5=[2f9ae04bd9fbe22ade3024c92f1374bf]
link Manager to Case--><path codeLine="116" d="M786.5385,343.399 C859.6695,361.744 1018.1155,403.681 1147.0265,453 C1163.5565,459.3226 1166.7965,462.9582 1183.0265,470 C1223.6765,487.6319 1271.8465,506.2389 1299.7765,516.8048 " fill="none" id="Manager-to-Case-1" style="stroke:#A80036;stroke-width:1.0;"/><polygon fill="#A80036" points="1304.7565,518.682,1297.7563,511.754,1300.0805,516.9113,1294.9232,519.2355,1304.7565,518.682" style="stroke:#A80036;stroke-width:1.0;"/><text fill="#000000" font-family="sans-serif" font-size="13" lengthAdjust="spacing" textLength="40" x="1184.0265" y="466.0669">delete</text><!--MD5=[2f9ae04bd9fbe22ade3024c92f1374bf]
link Manager to Case--><path codeLine="122" d="M786.7465,337.827 C872.3655,348.133 1075.7765,379.017 1229.0265,453 C1256.1165,466.0781 1282.8765,487.8114 1300.8665,504.0788 " fill="none" id="Manager-to-Case-2" style="stroke:#A80036;stroke-width:1.0;"/><polygon fill="#A80036" points="1304.7965,507.6698,1300.8492,498.6465,1301.1048,504.2976,1295.4538,504.5532,1304.7965,507.6698" style="stroke:#A80036;stroke-width:1.0;"/><text fill="#000000" font-family="sans-serif" font-size="13" lengthAdjust="spacing" textLength="30" x="1259.0265" y="466.0669">view</text><!--MD5=[ddbc765706297d8d97cc35434fd3e71d]
reverse link Youth to Account--><path codeLine="110" d="M538.3365,178.629 C533.9795,252.368 528.3365,359.384 526.0265,453 C525.8405,460.5533 524.9695,462.5187 526.0265,470 C527.7655,482.3123 531.5745,495.7184 535.0385,506.27 " fill="none" id="Youth-backto-Account" style="stroke:#A80036;stroke-width:1.0;"/><polygon fill="#FFFFFF" points="539.1335,165.258,534.7832,171.0091,538.4188,177.2367,542.769,171.4856,539.1335,165.258" style="stroke:#A80036;stroke-width:1.0;"/><!--MD5=[2372c70ad42d704e831bbeed4e438186]
link User to SecurityQuestion--><path codeLine="112" d="M2768.0965,139.517 C2766.2865,162.11 2766.4965,188.773 2773.0265,212 C2783.3765,248.793 2808.5465,285.464 2826.4265,308.287 " fill="none" id="User-to-SecurityQuestion" style="stroke:#A80036;stroke-width:1.0;"/><polygon fill="#A80036" points="2829.6765,312.384,2827.2308,302.8436,2826.5748,308.4623,2820.9561,307.8063,2829.6765,312.384" style="stroke:#A80036;stroke-width:1.0;"/><text fill="#000000" font-family="sans-serif" font-size="13" lengthAdjust="spacing" textLength="47" x="2774.0265" y="208.0669">answer</text><!--MD5=[2372c70ad42d704e831bbeed4e438186]
link User to SecurityQuestion--><path codeLine="117" d="M2803.7165,139.568 C2812.0265,156.756 2820.4065,176.32 2826.0265,195 C2837.4765,233.059 2842.4865,279.13 2844.5965,306.835 " fill="none" id="User-to-SecurityQuestion-1" style="stroke:#A80036;stroke-width:1.0;"/><polygon fill="#A80036" points="2844.9765,312.124,2848.3127,302.8574,2844.6136,307.1372,2840.3338,303.4381,2844.9765,312.124" style="stroke:#A80036;stroke-width:1.0;"/><text fill="#000000" font-family="sans-serif" font-size="13" lengthAdjust="spacing" textLength="41" x="2831.0265" y="208.0669">create</text><!--MD5=[a6ea00cc16b722cd5930c4d1b6eccb80]
reverse link Youth to Survey--><path codeLine="113" d="M599.0355,131.535 C619.2715,144.897 643.1105,157.958 667.0265,165 C765.1525,193.892 2421.9765,139.685 2508.0265,195 C2549.0965,221.4 2564.7965,281.495 2570.3165,312.385 " fill="none" id="Youth-backto-Survey" style="stroke:#A80036;stroke-width:1.0;"/><polygon fill="#FFFFFF" points="588.1875,124.117,590.8829,130.8054,598.0935,130.8898,595.3981,124.2014,588.1875,124.117" style="stroke:#A80036;stroke-width:1.0;"/><text fill="#000000" font-family="sans-serif" font-size="13" lengthAdjust="spacing" textLength="28" x="2528.0265" y="208.0669">take</text><!--MD5=[d898aa69dea030ca287f48f331dab8e3]
link Manager to Account--><path codeLine="114" d="M705.3185,343.69 C655.8895,358.493 574.7145,391.19 539.0265,453 C530.6505,467.5065 531.7855,486.5028 534.8105,501.4113 " fill="none" id="Manager-to-Account" style="stroke:#A80036;stroke-width:1.0;"/><polygon fill="#A80036" points="535.8975,506.2981,537.8469,496.6441,534.8114,501.4175,530.038,498.3819,535.8975,506.2981" style="stroke:#A80036;stroke-width:1.0;"/><text fill="#000000" font-family="sans-serif" font-size="13" lengthAdjust="spacing" textLength="68" x="540.0265" y="466.0669">deactivate</text><!--MD5=[d898aa69dea030ca287f48f331dab8e3]
link Manager to Account--><path codeLine="120" d="M705.2395,378.342 C679.6295,405.732 645.4215,440.955 613.0265,470 C600.2585,481.448 585.4075,493.2672 572.5985,503.041 " fill="none" id="Manager-to-Account-1" style="stroke:#A80036;stroke-width:1.0;"/><polygon fill="#A80036" points="568.3395,506.2738,577.9268,504.0191,572.3223,503.2511,573.0904,497.6466,568.3395,506.2738" style="stroke:#A80036;stroke-width:1.0;"/><text fill="#000000" font-family="sans-serif" font-size="13" lengthAdjust="spacing" textLength="52" x="630.0265" y="466.0669">activate</text><!--MD5=[f366424ef49a2683057f1a9feb136ec9]
link Manager to Mail--><path codeLine="115" d="M786.5385,336.264 C935.3775,346.863 1451.1065,387.621 1601.0265,453 C1628.8765,465.1462 1655.1265,488.5413 1671.7965,505.4775 " fill="none" id="Manager-to-Mail" style="stroke:#A80036;stroke-width:1.0;"/><polygon fill="#A80036" points="1675.4165,509.2017,1672.0153,499.9588,1671.9329,505.615,1666.2766,505.5326,1675.4165,509.2017" style="stroke:#A80036;stroke-width:1.0;"/><text fill="#000000" font-family="sans-serif" font-size="13" lengthAdjust="spacing" textLength="59" x="1630.0265" y="466.0669">send_out</text><!--MD5=[130866f198908c2e23afd12da33e8ef4]
link Administrator to LogRecord--><path codeLine="119" d="M2032.8265,344.864 C2119.3865,362.176 2282.1565,398.949 2413.0265,453 C2446.5265,466.834 2482.1465,487.7811 2507.1165,503.608 " fill="none" id="Administrator-to-LogRecord" style="stroke:#A80036;stroke-width:1.0;"/><polygon fill="#A80036" points="2511.3365,506.3011,2505.8949,498.092,2507.1195,503.6147,2501.5967,504.8393,2511.3365,506.3011" style="stroke:#A80036;stroke-width:1.0;"/><text fill="#000000" font-family="sans-serif" font-size="13" lengthAdjust="spacing" textLength="30" x="2447.0265" y="466.0669">view</text><!--MD5=[72ecda8f2e749e44dcef65e4355a247a]
reverse link Youth to Profile--><path codeLine="123" d="M598.9385,130.837 C619.2435,144.21 643.1525,157.457 667.0265,165 C1254.0465,350.46 1460.3065,65.328 2050.0265,242 C2228.7865,295.553 2319.9565,291.256 2413.0265,453 C2428.7065,480.2482 2388.3265,504.2977 2361.5465,516.6677 " fill="none" id="Youth-backto-Profile" style="stroke:#A80036;stroke-width:1.0;"/><polygon fill="#FFFFFF" points="588.0515,123.43,590.7622,130.1122,597.973,130.1801,595.2623,123.4979,588.0515,123.43" style="stroke:#A80036;stroke-width:1.0;"/><text fill="#000000" font-family="sans-serif" font-size="13" lengthAdjust="spacing" textLength="30" x="2396.0265" y="337.0669">view</text><!--MD5=[9094504a78a8a624dc0e3735af7308d8]
link Manager to File--><path codeLine="124" d="M705.4865,346.525 C644.7915,366.559 527.2565,407.425 432.0265,453 C400.6855,467.9989 366.7295,488.1466 342.2885,503.3958 " fill="none" id="Manager-to-File" style="stroke:#A80036;stroke-width:1.0;"/><polygon fill="#A80036" points="337.8385,506.1838,347.5891,504.7958,342.0758,503.5294,343.3421,498.0161,337.8385,506.1838" style="stroke:#A80036;stroke-width:1.0;"/><text fill="#000000" font-family="sans-serif" font-size="13" lengthAdjust="spacing" textLength="24" x="433.0265" y="466.0669">add</text><!--MD5=[a57d982990350d4e677d475f11edcb3f]
link Manager to Feedback--><path codeLine="125" d="M705.4095,343.503 C631.8915,361.35 471.6935,399.05 335.0265,423 C235.6555,440.414 195.2815,399.062 110.0265,453 C92.2202,464.2654 79.8041,484.9962 72.2239,501.4132 " fill="none" id="Manager-to-Feedback" style="stroke:#A80036;stroke-width:1.0;"/><polygon fill="#A80036" points="70.0261,506.3544,77.3385,499.7568,72.0581,501.7859,70.029,496.5055,70.0261,506.3544" style="stroke:#A80036;stroke-width:1.0;"/><text fill="#000000" font-family="sans-serif" font-size="13" lengthAdjust="spacing" textLength="43" x="111.0265" y="466.0669">review</text><!--MD5=[f6a2c872e8d3dbac80eeb5d0b058c8fd]
link Manager to Activity--><path codeLine="126" d="M729.0065,423.096 C729.8815,439.729 733.8265,456.1917 743.0265,470 C765.8455,504.2483 814.2475,517.3984 845.9375,522.4234 " fill="none" id="Manager-to-Activity" style="stroke:#A80036;stroke-width:1.0;"/><polygon fill="#A80036" points="851.2605,523.2165,842.9485,517.9334,846.3151,522.4794,841.7691,525.846,851.2605,523.2165" style="stroke:#A80036;stroke-width:1.0;"/><text fill="#000000" font-family="sans-serif" font-size="13" lengthAdjust="spacing" textLength="41" x="744.0265" y="466.0669">create</text><!--MD5=[f6a2c872e8d3dbac80eeb5d0b058c8fd]
link Manager to Activity--><path codeLine="133" d="M786.5525,408.916 C798.4715,429.276 812.0765,450.936 826.0265,470 C834.2755,481.2723 844.4335,492.8834 853.4335,502.5529 " fill="none" id="Manager-to-Activity-1" style="stroke:#A80036;stroke-width:1.0;"/><polygon fill="#A80036" points="856.9495,506.2956,853.7028,496.9973,853.5261,502.6514,847.872,502.4747,856.9495,506.2956" style="stroke:#A80036;stroke-width:1.0;"/><text fill="#000000" font-family="sans-serif" font-size="13" lengthAdjust="spacing" textLength="53" x="827.0265" y="466.0669">manage</text><!--MD5=[949e9432d490f0632687767209539a51]
link Administrator to Mail--><path codeLine="129" d="M1911.3965,354.454 C1860.8665,374.114 1789.1465,407.342 1738.0265,453 C1722.7265,466.6702 1710.1365,486.2651 1701.6965,501.6381 " fill="none" id="Administrator-to-Mail" style="stroke:#A80036;stroke-width:1.0;"/><polygon fill="#A80036" points="1699.2165,506.2622,1706.994,500.2198,1701.5788,501.8554,1699.9431,496.4402,1699.2165,506.2622" style="stroke:#A80036;stroke-width:1.0;"/><text fill="#000000" font-family="sans-serif" font-size="13" lengthAdjust="spacing" textLength="59" x="1739.0265" y="466.0669">send_out</text><!--MD5=[ad1d421b774c2d63bd1c43c8f4162c1c]
link Administrator to Activity--><path codeLine="130" d="M1911.2665,332.561 C1755.4065,331.923 1330.4465,341.407 1000.0265,453 C989.9645,456.3982 938.3855,487.3772 904.9995,507.7257 " fill="none" id="Administrator-to-Activity" style="stroke:#A80036;stroke-width:1.0;"/><polygon fill="#A80036" points="900.6185,510.3988,910.3848,509.1259,904.8868,507.7946,906.218,502.2966,900.6185,510.3988" style="stroke:#A80036;stroke-width:1.0;"/><text fill="#000000" font-family="sans-serif" font-size="13" lengthAdjust="spacing" textLength="53" x="1001.0265" y="466.0669">manage</text><!--MD5=[ad1d421b774c2d63bd1c43c8f4162c1c]
link Administrator to Activity--><path codeLine="131" d="M1911.3865,333.451 C1712.7465,334.339 1084.7965,345.752 919.0265,453 C901.7675,464.166 890.5025,484.9065 883.8495,501.3525 " fill="none" id="Administrator-to-Activity-1" style="stroke:#A80036;stroke-width:1.0;"/><polygon fill="#A80036" points="881.9315,506.3032,888.9126,499.356,883.7377,501.6408,881.4528,496.466,881.9315,506.3032" style="stroke:#A80036;stroke-width:1.0;"/><text fill="#000000" font-family="sans-serif" font-size="13" lengthAdjust="spacing" textLength="41" x="920.0265" y="466.0669">create</text><!--MD5=[5a0660834d65989fb8f692b7a4c59369]
reverse link User to LoginInformation--><path codeLine="132" d="M2732.7365,151.092 C2724.5365,165.067 2716.7465,180.158 2711.0265,195 C2695.5765,235.064 2689.0365,285.406 2686.4965,312.364 " fill="none" id="User-backto-LoginInformation" style="stroke:#A80036;stroke-width:1.0;"/><polygon fill="#FFFFFF" points="2739.6865,139.645,2733.1542,142.6994,2733.4612,149.904,2739.9935,146.8496,2739.6865,139.645" style="stroke:#A80036;stroke-width:1.0;"/><text fill="#000000" font-family="sans-serif" font-size="13" lengthAdjust="spacing" textLength="49" x="2712.0265" y="208.0669">recover</text><!--MD5=[f3fa3e119629f796218ba7e58a4f0efc]
@startuml
hide circle
class Youth<actor> {
	feedback
	survey
	case
	profile
	caseManager
}
class CaseManager<actor> {
	youth
	case
}
class Administrator<actor> {
}
class User<actor> {
	loginInformation
	record
}
class Staff<actor> {
}
class Account {
}
class Manager {
	delete()
	add()
	see()
	activate()
	deactivate()
	create()
	export()
	review()
	view()
	send_out()
	manage()
}
class Document {
}
class Information {
}
class User {
	answer()
	recover()
	create()
}
class LoginInformation {
}
class Result {
}
class Staff {
	view()
}
class Administrator {
	delete()
	add()
	transfer()
	see()
	modify()
	create()
	export()
	make()
	view()
	send_out()
	manage()
}
class Case {
}
class SecurityQuestion {
}
class Mail {
}
class Record {
}
class File {
	belong()
}
class Profile {
}
class Activity {
}
class Youth {
	provide()
	contact()
	take()
	view()
}
class Feedback {
}
class Survey {
}
class LogRecord {
}
class CaseManager {
}
Administrator - -> Record : view
Manager - -> Result : see
Administrator - -> Case : export
Manager - -> Document : delete
Administrator - -> Case : transfer
Staff - -> Information : view
Administrator - -> Profile : add
Manager - -> Information : view
Youth - -> File : view
Administrator - -> Result : see
Administrator - -> Profile : view
CaseManager <|- - Manager
Youth o- - Feedback : provide
Administrator - -> Case : delete
Youth - -> Manager : contact
Manager - -> Case : export
Youth o- - Account
Case o- - Manager
User - -> SecurityQuestion : answer
Youth o- - Survey : take
Manager - -> Account : deactivate
Manager - -> Mail : send_out
Manager - -> Case : delete
User - -> SecurityQuestion : create
Administrator - -> Record : add
Administrator - -> LogRecord : view
Manager - -> Account : activate
Administrator - -> Profile : modify
Manager - -> Case : view
Youth o- - Profile : view
Manager - -> File : add
Manager - -> Feedback : review
Manager - -> Activity : create
Administrator - -> Record : delete
Administrator - -> Profile : delete
Administrator - -> Mail : send_out
Administrator - -> Activity : manage
Administrator - -> Activity : create
User o- - LoginInformation : recover
Manager - -> Activity : manage
@enduml

PlantUML version 1.2021.10beta5(Unknown compile time)
(GPL source distribution)
Java Runtime: Java(TM) SE Runtime Environment
JVM: Java HotSpot(TM) 64-Bit Server VM
Default Encoding: UTF-8
Language: en
Country: US
--></g></svg>