<?xml version="1.0" encoding="UTF-8" standalone="no"?><svg xmlns="http://www.w3.org/2000/svg" xmlns:xlink="http://www.w3.org/1999/xlink" contentScriptType="application/ecmascript" contentStyleType="text/css" height="500px" preserveAspectRatio="none" style="width:2876px;height:500px;background:#FFFFFF;" version="1.1" viewBox="0 0 2876 500" width="2876px" zoomAndPan="magnify"><defs><filter height="300%" id="f1v5lzkgnstmxh" width="300%" x="-1" y="-1"><feGaussianBlur result="blurOut" stdDeviation="2.0"/><feColorMatrix in="blurOut" result="blurOut2" type="matrix" values="0 0 0 0 0 0 0 0 0 0 0 0 0 0 0 0 0 0 .4 0"/><feOffset dx="4.0" dy="4.0" in="blurOut2" result="blurOut3"/><feBlend in="SourceGraphic" in2="blurOut3" mode="normal"/></filter></defs><g><!--MD5=[3fd616f346a44cd59a91eb10b19e157c]
class User--><rect codeLine="4" fill="#FEFECE" filter="url(#f1v5lzkgnstmxh)" height="360.0859" id="User" style="stroke:#A80036;stroke-width:1.5;" width="74" x="1395.5" y="10"/><text fill="#000000" font-family="sans-serif" font-size="12" lengthAdjust="spacing" textLength="29" x="1400.5" y="26.1387">User</text><rect fill="#FFFFFF" height="15.9688" style="stroke:#000000;stroke-width:1.0;stroke-dasharray:2.0,2.0;" width="33" x="1439.5" y="7"/><text fill="#000000" font-family="sans-serif" font-size="12" font-style="italic" lengthAdjust="spacing" textLength="31" x="1440.5" y="19.1387">actor</text><line style="stroke:#A80036;stroke-width:1.5;" x1="1396.5" x2="1468.5" y1="33.9688" y2="33.9688"/><line style="stroke:#A80036;stroke-width:1.5;" x1="1396.5" x2="1468.5" y1="41.9688" y2="41.9688"/><text fill="#000000" font-family="sans-serif" font-size="11" lengthAdjust="spacing" textLength="38" x="1401.5" y="56.1792">need()</text><text fill="#000000" font-family="sans-serif" font-size="11" lengthAdjust="spacing" textLength="32" x="1401.5" y="68.9839">free()</text><text fill="#000000" font-family="sans-serif" font-size="11" lengthAdjust="spacing" textLength="29" x="1401.5" y="81.7886">use()</text><text fill="#000000" font-family="sans-serif" font-size="11" lengthAdjust="spacing" textLength="62" x="1401.5" y="94.5933">download()</text><text fill="#000000" font-family="sans-serif" font-size="11" lengthAdjust="spacing" textLength="29" x="1401.5" y="107.3979">sort()</text><text fill="#000000" font-family="sans-serif" font-size="11" lengthAdjust="spacing" textLength="37" x="1401.5" y="120.2026">keep()</text><text fill="#000000" font-family="sans-serif" font-size="11" lengthAdjust="spacing" textLength="23" x="1401.5" y="133.0073">let()</text><text fill="#000000" font-family="sans-serif" font-size="11" lengthAdjust="spacing" textLength="36" x="1401.5" y="145.812">save()</text><text fill="#000000" font-family="sans-serif" font-size="11" lengthAdjust="spacing" textLength="28" x="1401.5" y="158.6167">like()</text><text fill="#000000" font-family="sans-serif" font-size="11" lengthAdjust="spacing" textLength="47" x="1401.5" y="171.4214">review()</text><text fill="#000000" font-family="sans-serif" font-size="11" lengthAdjust="spacing" textLength="38" x="1401.5" y="184.2261">reset()</text><text fill="#000000" font-family="sans-serif" font-size="11" lengthAdjust="spacing" textLength="54" x="1401.5" y="197.0308">express()</text><text fill="#000000" font-family="sans-serif" font-size="11" lengthAdjust="spacing" textLength="42" x="1401.5" y="209.8354">forget()</text><text fill="#000000" font-family="sans-serif" font-size="11" lengthAdjust="spacing" textLength="62" x="1401.5" y="222.6401">comment()</text><text fill="#000000" font-family="sans-serif" font-size="11" lengthAdjust="spacing" textLength="57" x="1401.5" y="235.4448">maintain()</text><text fill="#000000" font-family="sans-serif" font-size="11" lengthAdjust="spacing" textLength="30" x="1401.5" y="248.2495">see()</text><text fill="#000000" font-family="sans-serif" font-size="11" lengthAdjust="spacing" textLength="42" x="1401.5" y="261.0542">report()</text><text fill="#000000" font-family="sans-serif" font-size="11" lengthAdjust="spacing" textLength="39" x="1401.5" y="273.8589">enter()</text><text fill="#000000" font-family="sans-serif" font-size="11" lengthAdjust="spacing" textLength="50" x="1401.5" y="286.6636">change()</text><text fill="#000000" font-family="sans-serif" font-size="11" lengthAdjust="spacing" textLength="49" x="1401.5" y="299.4683">extend()</text><text fill="#000000" font-family="sans-serif" font-size="11" lengthAdjust="spacing" textLength="46" x="1401.5" y="312.2729">delete()</text><text fill="#000000" font-family="sans-serif" font-size="11" lengthAdjust="spacing" textLength="49" x="1401.5" y="325.0776">choose()</text><text fill="#000000" font-family="sans-serif" font-size="11" lengthAdjust="spacing" textLength="46" x="1401.5" y="337.8823">upload()</text><text fill="#000000" font-family="sans-serif" font-size="11" lengthAdjust="spacing" textLength="45" x="1401.5" y="350.687">create()</text><text fill="#000000" font-family="sans-serif" font-size="11" lengthAdjust="spacing" textLength="40" x="1401.5" y="363.4917">make()</text><!--MD5=[ee22b46a919b1a1497ef2e7518f7277f]
class QualityPicture--><rect codeLine="31" fill="#FEFECE" filter="url(#f1v5lzkgnstmxh)" height="39.9688" id="QualityPicture" style="stroke:#A80036;stroke-width:1.5;" width="87" x="7" y="447"/><text fill="#000000" font-family="sans-serif" font-size="12" lengthAdjust="spacing" textLength="81" x="10" y="463.1387">QualityPicture</text><line style="stroke:#A80036;stroke-width:1.5;" x1="8" x2="93" y1="470.9688" y2="470.9688"/><line style="stroke:#A80036;stroke-width:1.5;" x1="8" x2="93" y1="478.9688" y2="478.9688"/><!--MD5=[8a8146ff89b20cc2efd6e16e3c0a6394]
class Register--><rect codeLine="33" fill="#FEFECE" filter="url(#f1v5lzkgnstmxh)" height="39.9688" id="Register" style="stroke:#A80036;stroke-width:1.5;" width="56" x="129.5" y="447"/><text fill="#000000" font-family="sans-serif" font-size="12" lengthAdjust="spacing" textLength="50" x="132.5" y="463.1387">Register</text><line style="stroke:#A80036;stroke-width:1.5;" x1="130.5" x2="184.5" y1="470.9688" y2="470.9688"/><line style="stroke:#A80036;stroke-width:1.5;" x1="130.5" x2="184.5" y1="478.9688" y2="478.9688"/><!--MD5=[791ceb0e5f1f4f7768a59043084da501]
class Lot--><rect codeLine="35" fill="#FEFECE" filter="url(#f1v5lzkgnstmxh)" height="39.9688" id="Lot" style="stroke:#A80036;stroke-width:1.5;" width="24" x="220.5" y="447"/><text fill="#000000" font-family="sans-serif" font-size="12" lengthAdjust="spacing" textLength="18" x="223.5" y="463.1387">Lot</text><line style="stroke:#A80036;stroke-width:1.5;" x1="221.5" x2="243.5" y1="470.9688" y2="470.9688"/><line style="stroke:#A80036;stroke-width:1.5;" x1="221.5" x2="243.5" y1="478.9688" y2="478.9688"/><!--MD5=[767cfbea05c90a78f48d55055ddf8984]
class ResolutionPicture--><rect codeLine="37" fill="#FEFECE" filter="url(#f1v5lzkgnstmxh)" height="39.9688" id="ResolutionPicture" style="stroke:#A80036;stroke-width:1.5;" width="108" x="314.5" y="447"/><text fill="#000000" font-family="sans-serif" font-size="12" lengthAdjust="spacing" textLength="102" x="317.5" y="463.1387">ResolutionPicture</text><line style="stroke:#A80036;stroke-width:1.5;" x1="315.5" x2="421.5" y1="470.9688" y2="470.9688"/><line style="stroke:#A80036;stroke-width:1.5;" x1="315.5" x2="421.5" y1="478.9688" y2="478.9688"/><!--MD5=[18b89e0834131a909517048318a5909c]
class Picture--><rect codeLine="39" fill="#FEFECE" filter="url(#f1v5lzkgnstmxh)" height="39.9688" id="Picture" style="stroke:#A80036;stroke-width:1.5;" width="46" x="796.5" y="447"/><text fill="#000000" font-family="sans-serif" font-size="12" lengthAdjust="spacing" textLength="40" x="799.5" y="463.1387">Picture</text><line style="stroke:#A80036;stroke-width:1.5;" x1="797.5" x2="841.5" y1="470.9688" y2="470.9688"/><line style="stroke:#A80036;stroke-width:1.5;" x1="797.5" x2="841.5" y1="478.9688" y2="478.9688"/><!--MD5=[5c85d133e2c913f4b8608c8db253c015]
class Record--><rect codeLine="41" fill="#FEFECE" filter="url(#f1v5lzkgnstmxh)" height="39.9688" id="Record" style="stroke:#A80036;stroke-width:1.5;" width="49" x="1216" y="447"/><text fill="#000000" font-family="sans-serif" font-size="12" lengthAdjust="spacing" textLength="43" x="1219" y="463.1387">Record</text><line style="stroke:#A80036;stroke-width:1.5;" x1="1217" x2="1264" y1="470.9688" y2="470.9688"/><line style="stroke:#A80036;stroke-width:1.5;" x1="1217" x2="1264" y1="478.9688" y2="478.9688"/><!--MD5=[2f01b1126ff33a0669651ec2488a5ef9]
class Password--><rect codeLine="43" fill="#FEFECE" filter="url(#f1v5lzkgnstmxh)" height="39.9688" id="Password" style="stroke:#A80036;stroke-width:1.5;" width="64" x="1362.5" y="447"/><text fill="#000000" font-family="sans-serif" font-size="12" lengthAdjust="spacing" textLength="58" x="1365.5" y="463.1387">Password</text><line style="stroke:#A80036;stroke-width:1.5;" x1="1363.5" x2="1425.5" y1="470.9688" y2="470.9688"/><line style="stroke:#A80036;stroke-width:1.5;" x1="1363.5" x2="1425.5" y1="478.9688" y2="478.9688"/><!--MD5=[ac13618b1a974308c1f12eb6c57723dc]
class Event--><rect codeLine="45" fill="#FEFECE" filter="url(#f1v5lzkgnstmxh)" height="39.9688" id="Event" style="stroke:#A80036;stroke-width:1.5;" width="39" x="1651" y="447"/><text fill="#000000" font-family="sans-serif" font-size="12" lengthAdjust="spacing" textLength="33" x="1654" y="463.1387">Event</text><line style="stroke:#A80036;stroke-width:1.5;" x1="1652" x2="1689" y1="470.9688" y2="470.9688"/><line style="stroke:#A80036;stroke-width:1.5;" x1="1652" x2="1689" y1="478.9688" y2="478.9688"/><!--MD5=[3f04f889cbbdb3bce32c55a080e41562]
class Browser--><rect codeLine="47" fill="#FEFECE" filter="url(#f1v5lzkgnstmxh)" height="39.9688" id="Browser" style="stroke:#A80036;stroke-width:1.5;" width="57" x="1859" y="447"/><text fill="#000000" font-family="sans-serif" font-size="12" lengthAdjust="spacing" textLength="51" x="1862" y="463.1387">Browser</text><line style="stroke:#A80036;stroke-width:1.5;" x1="1860" x2="1915" y1="470.9688" y2="470.9688"/><line style="stroke:#A80036;stroke-width:1.5;" x1="1860" x2="1915" y1="478.9688" y2="478.9688"/><!--MD5=[e09c41c2f9238e7adb85a94dde2227e7]
class Size--><rect codeLine="49" fill="#FEFECE" filter="url(#f1v5lzkgnstmxh)" height="39.9688" id="Size" style="stroke:#A80036;stroke-width:1.5;" width="32" x="1951.5" y="447"/><text fill="#000000" font-family="sans-serif" font-size="12" lengthAdjust="spacing" textLength="26" x="1954.5" y="463.1387">Size</text><line style="stroke:#A80036;stroke-width:1.5;" x1="1952.5" x2="1982.5" y1="470.9688" y2="470.9688"/><line style="stroke:#A80036;stroke-width:1.5;" x1="1952.5" x2="1982.5" y1="478.9688" y2="478.9688"/><!--MD5=[a3908a0ec113a75f17921675d1421845]
class Felling--><rect codeLine="51" fill="#FEFECE" filter="url(#f1v5lzkgnstmxh)" height="39.9688" id="Felling" style="stroke:#A80036;stroke-width:1.5;" width="45" x="2026" y="447"/><text fill="#000000" font-family="sans-serif" font-size="12" lengthAdjust="spacing" textLength="39" x="2029" y="463.1387">Felling</text><line style="stroke:#A80036;stroke-width:1.5;" x1="2027" x2="2070" y1="470.9688" y2="470.9688"/><line style="stroke:#A80036;stroke-width:1.5;" x1="2027" x2="2070" y1="478.9688" y2="478.9688"/><!--MD5=[708d1bc6b7aa232d31112ba69b3372d9]
class upload--><rect codeLine="53" fill="#FEFECE" filter="url(#f1v5lzkgnstmxh)" height="39.9688" id="upload" style="stroke:#A80036;stroke-width:1.5;" width="47" x="2117" y="447"/><text fill="#000000" font-family="sans-serif" font-size="12" lengthAdjust="spacing" textLength="41" x="2120" y="463.1387">upload</text><line style="stroke:#A80036;stroke-width:1.5;" x1="2118" x2="2163" y1="470.9688" y2="470.9688"/><line style="stroke:#A80036;stroke-width:1.5;" x1="2118" x2="2163" y1="478.9688" y2="478.9688"/><!--MD5=[65eaf00a50d35493392163fa377b2455]
class Privacy--><rect codeLine="55" fill="#FEFECE" filter="url(#f1v5lzkgnstmxh)" height="39.9688" id="Privacy" style="stroke:#A80036;stroke-width:1.5;" width="48" x="2199.5" y="447"/><text fill="#000000" font-family="sans-serif" font-size="12" lengthAdjust="spacing" textLength="42" x="2202.5" y="463.1387">Privacy</text><line style="stroke:#A80036;stroke-width:1.5;" x1="2200.5" x2="2246.5" y1="470.9688" y2="470.9688"/><line style="stroke:#A80036;stroke-width:1.5;" x1="2200.5" x2="2246.5" y1="478.9688" y2="478.9688"/><!--MD5=[2e42295458bb0bec21c9622a623eb29e]
class Time--><rect codeLine="57" fill="#FEFECE" filter="url(#f1v5lzkgnstmxh)" height="39.9688" id="Time" style="stroke:#A80036;stroke-width:1.5;" width="35" x="2323" y="447"/><text fill="#000000" font-family="sans-serif" font-size="12" lengthAdjust="spacing" textLength="29" x="2326" y="463.1387">Time</text><line style="stroke:#A80036;stroke-width:1.5;" x1="2324" x2="2357" y1="470.9688" y2="470.9688"/><line style="stroke:#A80036;stroke-width:1.5;" x1="2324" x2="2357" y1="478.9688" y2="478.9688"/><!--MD5=[857a356b9e77f83de603e0318f36b735]
class type--><rect codeLine="59" fill="#FEFECE" filter="url(#f1v5lzkgnstmxh)" height="39.9688" id="type" style="stroke:#A80036;stroke-width:1.5;" width="33" x="2438" y="447"/><text fill="#000000" font-family="sans-serif" font-size="12" lengthAdjust="spacing" textLength="27" x="2441" y="463.1387">type</text><line style="stroke:#A80036;stroke-width:1.5;" x1="2439" x2="2470" y1="470.9688" y2="470.9688"/><line style="stroke:#A80036;stroke-width:1.5;" x1="2439" x2="2470" y1="478.9688" y2="478.9688"/><!--MD5=[11b747870319a085bc745183e08c5f76]
class Storage--><rect codeLine="61" fill="#FEFECE" filter="url(#f1v5lzkgnstmxh)" height="39.9688" id="Storage" style="stroke:#A80036;stroke-width:1.5;" width="54" x="2506.5" y="447"/><text fill="#000000" font-family="sans-serif" font-size="12" lengthAdjust="spacing" textLength="48" x="2509.5" y="463.1387">Storage</text><line style="stroke:#A80036;stroke-width:1.5;" x1="2507.5" x2="2559.5" y1="470.9688" y2="470.9688"/><line style="stroke:#A80036;stroke-width:1.5;" x1="2507.5" x2="2559.5" y1="478.9688" y2="478.9688"/><!--MD5=[b10c20a83e63d7d4138cbccfc49d6b23]
class RAWPicture--><rect codeLine="63" fill="#FEFECE" filter="url(#f1v5lzkgnstmxh)" height="39.9688" id="RAWPicture" style="stroke:#A80036;stroke-width:1.5;" width="73" x="2596" y="447"/><text fill="#000000" font-family="sans-serif" font-size="12" lengthAdjust="spacing" textLength="67" x="2599" y="463.1387">RAWPicture</text><line style="stroke:#A80036;stroke-width:1.5;" x1="2597" x2="2668" y1="470.9688" y2="470.9688"/><line style="stroke:#A80036;stroke-width:1.5;" x1="2597" x2="2668" y1="478.9688" y2="478.9688"/><!--MD5=[042fa140da40c49659127f611bcff931]
class Comment--><rect codeLine="65" fill="#FEFECE" filter="url(#f1v5lzkgnstmxh)" height="39.9688" id="Comment" style="stroke:#A80036;stroke-width:1.5;" width="63" x="2704" y="447"/><text fill="#000000" font-family="sans-serif" font-size="12" lengthAdjust="spacing" textLength="57" x="2707" y="463.1387">Comment</text><line style="stroke:#A80036;stroke-width:1.5;" x1="2705" x2="2766" y1="470.9688" y2="470.9688"/><line style="stroke:#A80036;stroke-width:1.5;" x1="2705" x2="2766" y1="478.9688" y2="478.9688"/><!--MD5=[7ad3d64ff7ad398cfd6a9362fe82826a]
class EventExit--><rect codeLine="67" fill="#FEFECE" filter="url(#f1v5lzkgnstmxh)" height="39.9688" id="EventExit" style="stroke:#A80036;stroke-width:1.5;" width="60" x="2802.5" y="447"/><text fill="#000000" font-family="sans-serif" font-size="12" lengthAdjust="spacing" textLength="54" x="2805.5" y="463.1387">EventExit</text><line style="stroke:#A80036;stroke-width:1.5;" x1="2803.5" x2="2861.5" y1="470.9688" y2="470.9688"/><line style="stroke:#A80036;stroke-width:1.5;" x1="2803.5" x2="2861.5" y1="478.9688" y2="478.9688"/><!--MD5=[87c463e55ba9a05eb2c54f7e7fed640e]
link User to Time--><path codeLine="69" d="M1469.53,199.392 C1580,224.829 1916.38,305.165 2186.5,400 C2234.44,416.8297 2288.64,441.416 2318.25,455.3414 " fill="none" id="User-to-Time" style="stroke:#A80036;stroke-width:1.0;"/><polygon fill="#A80036" points="2322.79,457.482,2316.37,450.0132,2318.2717,455.3408,2312.9441,457.2425,2322.79,457.482" style="stroke:#A80036;stroke-width:1.0;"/><text fill="#000000" font-family="sans-serif" font-size="13" lengthAdjust="spacing" textLength="43" x="2230.5" y="413.0669">upload</text><!--MD5=[87c463e55ba9a05eb2c54f7e7fed640e]
link User to Time--><path codeLine="94" d="M1469.86,192.343 C1594.45,198.364 2003.51,230.688 2282.5,400 C2299.99,410.6147 2315.07,428.2236 2325.47,442.5842 " fill="none" id="User-to-Time-1" style="stroke:#A80036;stroke-width:1.0;"/><polygon fill="#A80036" points="2328.55,446.9253,2326.619,437.2676,2325.6629,442.8431,2320.0874,441.887,2328.55,446.9253" style="stroke:#A80036;stroke-width:1.0;"/><text fill="#000000" font-family="sans-serif" font-size="13" lengthAdjust="spacing" textLength="31" x="2304.5" y="413.0669">save</text><!--MD5=[c0646aff05db046bf03bd07f9451b561]
link User to Picture--><path codeLine="70" d="M1395.48,193.21 C1235.11,203.623 603.139,253.568 485.5,400 C446.029,449.1325 704.085,462.2071 791.369,465.2036 " fill="none" id="User-to-Picture" style="stroke:#A80036;stroke-width:1.0;"/><polygon fill="#A80036" points="796.378,465.3709,787.5167,461.0723,791.3808,465.2038,787.2493,469.0678,796.378,465.3709" style="stroke:#A80036;stroke-width:1.0;"/><text fill="#000000" font-family="sans-serif" font-size="13" lengthAdjust="spacing" textLength="43" x="486.5" y="413.0669">review</text><!--MD5=[c0646aff05db046bf03bd07f9451b561]
link User to Picture--><path codeLine="71" d="M1395.5,194.061 C1244.24,207.406 675.931,265.951 570.5,400 C565.829,405.9388 565.701,411.1644 570.5,417 C598.208,450.6926 732.039,461.5798 791.235,464.783 " fill="none" id="User-to-Picture-1" style="stroke:#A80036;stroke-width:1.0;"/><polygon fill="#A80036" points="796.386,465.0525,787.6075,460.5874,791.3928,464.7911,787.1892,468.5765,796.386,465.0525" style="stroke:#A80036;stroke-width:1.0;"/><text fill="#000000" font-family="sans-serif" font-size="13" lengthAdjust="spacing" textLength="39" x="571.5" y="413.0669">report</text><!--MD5=[c0646aff05db046bf03bd07f9451b561]
link User to Picture--><path codeLine="76" d="M1395.12,195.082 C1252.42,211.503 745.297,277.802 651.5,400 C613.884,449.0052 733.831,461.6741 790.975,464.9092 " fill="none" id="User-to-Picture-2" style="stroke:#A80036;stroke-width:1.0;"/><polygon fill="#A80036" points="796.302,465.1937,787.5286,460.7186,791.3091,464.9266,787.1011,468.7071,796.302,465.1937" style="stroke:#A80036;stroke-width:1.0;"/><text fill="#000000" font-family="sans-serif" font-size="13" lengthAdjust="spacing" textLength="56" x="652.5" y="413.0669">maintain</text><!--MD5=[c0646aff05db046bf03bd07f9451b561]
link User to Picture--><path codeLine="86" d="M1395.35,196.543 C1264.63,216.873 829.516,291.836 749.5,400 C733.415,421.7427 765.683,442.3849 791.571,454.6202 " fill="none" id="User-to-Picture-3" style="stroke:#A80036;stroke-width:1.0;"/><polygon fill="#A80036" points="796.317,456.8054,789.8132,449.4094,791.7748,454.7153,786.469,456.6769,796.317,456.8054" style="stroke:#A80036;stroke-width:1.0;"/><text fill="#000000" font-family="sans-serif" font-size="13" lengthAdjust="spacing" textLength="25" x="750.5" y="413.0669">sort</text><!--MD5=[c0646aff05db046bf03bd07f9451b561]
link User to Picture--><path codeLine="90" d="M1395.35,190.151 C1284.55,189.889 955.476,206.09 816.5,400 C808.006,411.8518 808.687,428.208 811.527,441.6724 " fill="none" id="User-to-Picture-4" style="stroke:#A80036;stroke-width:1.0;"/><polygon fill="#A80036" points="812.755,446.8642,814.5755,437.1851,811.6039,441.9985,806.7904,439.0269,812.755,446.8642" style="stroke:#A80036;stroke-width:1.0;"/><text fill="#000000" font-family="sans-serif" font-size="13" lengthAdjust="spacing" textLength="43" x="817.5" y="413.0669">upload</text><!--MD5=[c0646aff05db046bf03bd07f9451b561]
link User to Picture--><path codeLine="92" d="M1395.35,201.363 C1306.25,227.102 1074.97,299.214 901.5,400 C880.524,412.1873 859.253,429.4824 843.633,443.3108 " fill="none" id="User-to-Picture-5" style="stroke:#A80036;stroke-width:1.0;"/><polygon fill="#A80036" points="839.787,446.7465,849.1635,443.733,843.5156,443.4152,843.8334,437.7673,839.787,446.7465" style="stroke:#A80036;stroke-width:1.0;"/><text fill="#000000" font-family="sans-serif" font-size="13" lengthAdjust="spacing" textLength="62" x="902.5" y="413.0669">download</text><!--MD5=[c0646aff05db046bf03bd07f9451b561]
link User to Picture--><path codeLine="93" d="M1395.24,209.272 C1287.15,262.27 980.42,412.5761 969.5,417 C927.975,433.8228 878.29,449.1487 847.817,458.0249 " fill="none" id="User-to-Picture-6" style="stroke:#A80036;stroke-width:1.0;"/><polygon fill="#A80036" points="842.726,459.4997,852.4836,460.8372,847.5285,458.1083,850.2574,453.1532,842.726,459.4997" style="stroke:#A80036;stroke-width:1.0;"/><text fill="#000000" font-family="sans-serif" font-size="13" lengthAdjust="spacing" textLength="23" x="999.5" y="413.0669">see</text><!--MD5=[c0646aff05db046bf03bd07f9451b561]
link User to Picture--><path codeLine="98" d="M1395.29,213.789 C1310.88,265.193 1106.37,387.9441 1031.5,417 C968.176,441.574 889.22,455.801 847.83,462.0928 " fill="none" id="User-to-Picture-7" style="stroke:#A80036;stroke-width:1.0;"/><polygon fill="#A80036" points="842.73,462.8567,852.2229,465.4806,847.6749,462.1167,851.0389,457.5687,842.73,462.8567" style="stroke:#A80036;stroke-width:1.0;"/><text fill="#000000" font-family="sans-serif" font-size="13" lengthAdjust="spacing" textLength="62" x="1067.5" y="413.0669">comment</text><!--MD5=[c0646aff05db046bf03bd07f9451b561]
link User to Picture--><path codeLine="100" d="M1395.28,229.929 C1343.15,281.836 1242.99,372.344 1138.5,417 C1037.93,459.9843 905.255,465.9063 847.912,466.2948 " fill="none" id="User-to-Picture-8" style="stroke:#A80036;stroke-width:1.0;"/><polygon fill="#A80036" points="842.602,466.3162,851.6179,470.2802,847.602,466.2962,851.5859,462.2802,842.602,466.3162" style="stroke:#A80036;stroke-width:1.0;"/><text fill="#000000" font-family="sans-serif" font-size="13" lengthAdjust="spacing" textLength="21" x="1167.5" y="413.0669">like</text><!--MD5=[aedd0fdf29cc18a4a95e7d3b456fec87]
link User to upload--><path codeLine="72" d="M1469.76,200.97 C1565.67,227.265 1827.84,303.184 2032.5,400 C2060.87,413.4223 2091.21,432.4138 2112.48,446.581 " fill="none" id="User-to-upload" style="stroke:#A80036;stroke-width:1.0;"/><polygon fill="#A80036" points="2116.88,449.5271,2111.6329,441.1924,2112.7273,446.7423,2107.1773,447.8367,2116.88,449.5271" style="stroke:#A80036;stroke-width:1.0;"/><text fill="#000000" font-family="sans-serif" font-size="13" lengthAdjust="spacing" textLength="40" x="2064.5" y="413.0669">delete</text><!--MD5=[a6af10484b68418978ce55ca6fa1ac34]
link User to type--><path codeLine="73" d="M1469.81,195.272 C1596.48,210.659 2020.17,269.384 2344.5,400 C2377.62,413.3374 2412.39,435.8526 2433.77,450.8206 " fill="none" id="User-to-type" style="stroke:#A80036;stroke-width:1.0;"/><polygon fill="#A80036" points="2437.86,453.7086,2432.8173,445.2486,2433.7763,450.8236,2428.2013,451.7826,2437.86,453.7086" style="stroke:#A80036;stroke-width:1.0;"/><text fill="#000000" font-family="sans-serif" font-size="13" lengthAdjust="spacing" textLength="47" x="2380.5" y="413.0669">change</text><!--MD5=[d3c4fd24cf8eb2e7404caf5034ae6665]
link User to Record--><path codeLine="74" d="M1395.34,230.936 C1359.23,271.268 1304.55,336.517 1267.5,400 C1259.79,413.2149 1253.23,429.0534 1248.51,441.902 " fill="none" id="User-to-Record" style="stroke:#A80036;stroke-width:1.0;"/><polygon fill="#A80036" points="1246.73,446.8475,1253.5386,439.7311,1248.4213,442.1422,1246.0102,437.025,1246.73,446.8475" style="stroke:#A80036;stroke-width:1.0;"/><text fill="#000000" font-family="sans-serif" font-size="13" lengthAdjust="spacing" textLength="31" x="1268.5" y="413.0669">keep</text><!--MD5=[3e2ee5d73d4b7d29814203f165e51bf4]
link User to Storage--><path codeLine="75" d="M1469.61,193.495 C1604.56,203.634 2080.03,248.721 2436.5,400 C2462.3,410.9487 2488.39,429.1942 2507,443.7299 " fill="none" id="User-to-Storage" style="stroke:#A80036;stroke-width:1.0;"/><polygon fill="#A80036" points="2511.09,446.9595,2506.5067,438.2421,2507.1663,443.8603,2501.5481,444.5199,2511.09,446.9595" style="stroke:#A80036;stroke-width:1.0;"/><text fill="#000000" font-family="sans-serif" font-size="13" lengthAdjust="spacing" textLength="31" x="2469.5" y="413.0669">save</text><!--MD5=[5ab1f46e477a8163e64d30b24bef4255]
link User to Password--><path codeLine="77" d="M1395.24,237.938 C1365.75,278.275 1326.9,339.368 1310.5,400 C1308.53,407.2934 1306.74,410.4483 1310.5,417 C1320.65,434.6642 1339.89,446.5623 1357.4,454.2058 " fill="none" id="User-to-Password" style="stroke:#A80036;stroke-width:1.0;"/><polygon fill="#A80036" points="1362.28,456.2501,1355.5197,449.0878,1357.667,454.3212,1352.4336,456.4685,1362.28,456.2501" style="stroke:#A80036;stroke-width:1.0;"/><text fill="#000000" font-family="sans-serif" font-size="13" lengthAdjust="spacing" textLength="39" x="1311.5" y="413.0669">forget</text><!--MD5=[5ab1f46e477a8163e64d30b24bef4255]
link User to Password--><path codeLine="84" d="M1395.49,366.817 C1393.91,378.013 1392.55,389.1431 1391.5,400 C1390.16,413.7853 1390.75,429.2499 1391.75,441.7427 " fill="none" id="User-to-Password-1" style="stroke:#A80036;stroke-width:1.0;"/><polygon fill="#A80036" points="1392.2,446.9012,1395.4058,437.5887,1391.7671,441.92,1387.4358,438.2813,1392.2,446.9012" style="stroke:#A80036;stroke-width:1.0;"/><text fill="#000000" font-family="sans-serif" font-size="13" lengthAdjust="spacing" textLength="34" x="1392.5" y="413.0669">enter</text><!--MD5=[5ab1f46e477a8163e64d30b24bef4255]
link User to Password--><path codeLine="88" d="M1442.33,370.113 C1440.04,386.192 1436.55,402.037 1431.5,417 C1428.39,426.2034 1422.81,435.0633 1416.91,442.6582 " fill="none" id="User-to-Password-2" style="stroke:#A80036;stroke-width:1.0;"/><polygon fill="#A80036" points="1413.61,446.7415,1422.3793,442.2582,1416.7538,442.8535,1416.1585,437.2281,1413.61,446.7415" style="stroke:#A80036;stroke-width:1.0;"/><text fill="#000000" font-family="sans-serif" font-size="13" lengthAdjust="spacing" textLength="33" x="1436.5" y="413.0669">reset</text><!--MD5=[1b064f50e6d87795b552d67d0390658e]
link User to RAWPicture--><path codeLine="78" d="M1469.82,194.153 C1610.06,206.846 2117.44,260.396 2509.5,400 C2541.09,411.2499 2574.47,429.6234 2598.48,444.1315 " fill="none" id="User-to-RAWPicture" style="stroke:#A80036;stroke-width:1.0;"/><polygon fill="#A80036" points="2602.85,446.793,2597.2428,438.6961,2598.5793,444.1928,2593.0826,445.5293,2602.85,446.793" style="stroke:#A80036;stroke-width:1.0;"/><text fill="#000000" font-family="sans-serif" font-size="13" lengthAdjust="spacing" textLength="43" x="2549.5" y="413.0669">upload</text><!--MD5=[29793cb2e6ce1def3d6fecaef4efbf08]
link User to Event--><path codeLine="79" d="M1469.55,307.939 C1486.62,346.792 1510.41,387.5947 1542.5,417 C1571.9,443.9364 1617.65,456.6039 1645.76,462.1413 " fill="none" id="User-to-Event" style="stroke:#A80036;stroke-width:1.0;"/><polygon fill="#A80036" points="1650.79,463.0941,1642.6895,457.4922,1645.877,462.1655,1641.2037,465.353,1650.79,463.0941" style="stroke:#A80036;stroke-width:1.0;"/><text fill="#000000" font-family="sans-serif" font-size="13" lengthAdjust="spacing" textLength="40" x="1543.5" y="413.0669">delete</text><!--MD5=[29793cb2e6ce1def3d6fecaef4efbf08]
link User to Event--><path codeLine="82" d="M1469.74,236.158 C1507.96,282.186 1569.46,355.372 1624.5,417 C1632.11,425.5256 1640.64,434.702 1648.26,442.7825 " fill="none" id="User-to-Event-1" style="stroke:#A80036;stroke-width:1.0;"/><polygon fill="#A80036" points="1651.92,446.6536,1648.6551,437.3617,1648.4895,443.0161,1642.835,442.8505,1651.92,446.6536" style="stroke:#A80036;stroke-width:1.0;"/><text fill="#000000" font-family="sans-serif" font-size="13" lengthAdjust="spacing" textLength="45" x="1625.5" y="413.0669">extend</text><!--MD5=[29793cb2e6ce1def3d6fecaef4efbf08]
link User to Event--><path codeLine="91" d="M1469.68,209.464 C1526.52,240.052 1632.91,307.197 1675.5,400 C1681.47,413.0002 1680.45,428.9622 1677.83,441.9321 " fill="none" id="User-to-Event-2" style="stroke:#A80036;stroke-width:1.0;"/><polygon fill="#A80036" points="1676.71,446.925,1682.5746,439.0126,1677.7993,442.0451,1674.7668,437.2697,1676.71,446.925" style="stroke:#A80036;stroke-width:1.0;"/><text fill="#000000" font-family="sans-serif" font-size="13" lengthAdjust="spacing" textLength="41" x="1681.5" y="413.0669">create</text><!--MD5=[29793cb2e6ce1def3d6fecaef4efbf08]
link User to Event--><path codeLine="96" d="M1469.73,203.831 C1536.67,229.182 1675.6,292.723 1731.5,400 C1743.01,422.0899 1716.44,442.2956 1694.81,454.3765 " fill="none" id="User-to-Event-3" style="stroke:#A80036;stroke-width:1.0;"/><polygon fill="#A80036" points="1690.29,456.8289,1700.1081,456.0517,1694.6846,454.444,1696.2923,449.0204,1690.29,456.8289" style="stroke:#A80036;stroke-width:1.0;"/><text fill="#000000" font-family="sans-serif" font-size="13" lengthAdjust="spacing" textLength="56" x="1735.5" y="413.0669">maintain</text><!--MD5=[2dd21c5e4d24a00e804d12dd0c7b0d9f]
link User to Comment--><path codeLine="80" d="M1469.78,193.841 C1616.96,205.848 2170.57,258.489 2601.5,400 C2636.09,411.3577 2673.03,430.1051 2699.35,444.7226 " fill="none" id="User-to-Comment" style="stroke:#A80036;stroke-width:1.0;"/><polygon fill="#A80036" points="2703.81,447.2158,2697.9105,439.3294,2699.4471,444.7735,2694.0029,446.3101,2703.81,447.2158" style="stroke:#A80036;stroke-width:1.0;"/><text fill="#000000" font-family="sans-serif" font-size="13" lengthAdjust="spacing" textLength="36" x="2644.5" y="413.0669">make</text><!--MD5=[99bb670aff7d8cd7d90f0c6cca3407ea]
link User to Size--><path codeLine="81" d="M1469.58,208.075 C1543.9,242.567 1716.02,323.767 1856.5,400 C1888.51,417.3714 1924.59,439.272 1946.69,452.9591 " fill="none" id="User-to-Size" style="stroke:#A80036;stroke-width:1.0;"/><polygon fill="#A80036" points="1951.18,455.7505,1945.6512,447.5999,1946.9346,453.1092,1941.4252,454.3926,1951.18,455.7505" style="stroke:#A80036;stroke-width:1.0;"/><text fill="#000000" font-family="sans-serif" font-size="13" lengthAdjust="spacing" textLength="46" x="1885.5" y="413.0669">choose</text><!--MD5=[ec4c93e45963a154c97e3947d19a9663]
link User to Browser--><path codeLine="83" d="M1469.76,210.055 C1537.3,245.056 1683.79,323.074 1800.5,400 C1821.08,413.5618 1843.19,430.3671 1859.97,443.6257 " fill="none" id="User-to-Browser" style="stroke:#A80036;stroke-width:1.0;"/><polygon fill="#A80036" points="1864.12,446.916,1859.5645,438.184,1860.2062,443.8044,1854.5859,444.4461,1864.12,446.916" style="stroke:#A80036;stroke-width:1.0;"/><text fill="#000000" font-family="sans-serif" font-size="13" lengthAdjust="spacing" textLength="23" x="1824.5" y="413.0669">use</text><!--MD5=[3c0b37013e462abb9be02f07c2143a40]
link User to EventExit--><path codeLine="85" d="M1469.58,193.529 C1622.92,204.742 2221.43,255.935 2689.5,400 C2728.07,411.8724 2769.7,431.9952 2798.04,446.9075 " fill="none" id="User-to-EventExit" style="stroke:#A80036;stroke-width:1.0;"/><polygon fill="#A80036" points="2802.48,449.254,2796.4022,441.5041,2798.0625,446.9119,2792.6548,448.5722,2802.48,449.254" style="stroke:#A80036;stroke-width:1.0;"/><text fill="#000000" font-family="sans-serif" font-size="13" lengthAdjust="spacing" textLength="16" x="2735.5" y="413.0669">let</text><!--MD5=[8aac999e40186a57f7e3ffafa98d6bfb]
link User to QualityPicture--><path codeLine="87" d="M1395.36,194.379 C1208.36,211.778 369.556,294.548 132.5,400 C109.565,410.2025 87.6345,428.4576 72.2334,443.1867 " fill="none" id="User-to-QualityPicture" style="stroke:#A80036;stroke-width:1.0;"/><polygon fill="#A80036" points="68.462,446.8484,77.7055,443.4488,72.0493,443.3654,72.1327,437.7092,68.462,446.8484" style="stroke:#A80036;stroke-width:1.0;"/><text fill="#000000" font-family="sans-serif" font-size="13" lengthAdjust="spacing" textLength="43" x="133.5" y="413.0669">review</text><!--MD5=[523aa1126110c4046dfaec92d5244001]
link User to Felling--><path codeLine="89" d="M1469.73,204.014 C1554.95,234.292 1769.97,313.501 1940.5,400 C1969.04,414.4775 2000.06,433.8436 2021.5,447.8502 " fill="none" id="User-to-Felling" style="stroke:#A80036;stroke-width:1.0;"/><polygon fill="#A80036" points="2025.93,450.7541,2020.5993,442.4726,2021.7495,448.0113,2016.2108,449.1614,2025.93,450.7541" style="stroke:#A80036;stroke-width:1.0;"/><text fill="#000000" font-family="sans-serif" font-size="13" lengthAdjust="spacing" textLength="51" x="1972.5" y="413.0669">express</text><!--MD5=[e0ebca121273885364fa8679885dc51a]
link User to Register--><path codeLine="95" d="M1395.49,193.41 C1212.94,205.868 408.975,267.556 202.5,400 C186.874,410.0237 175.285,427.6115 167.784,442.1117 " fill="none" id="User-to-Register" style="stroke:#A80036;stroke-width:1.0;"/><polygon fill="#A80036" points="165.397,446.8954,172.9951,440.629,167.6299,442.4217,165.8372,437.0564,165.397,446.8954" style="stroke:#A80036;stroke-width:1.0;"/><text fill="#000000" font-family="sans-serif" font-size="13" lengthAdjust="spacing" textLength="32" x="203.5" y="413.0669">need</text><!--MD5=[fb15c8ffe2d453a42af6a630d0178531]
link User to ResolutionPicture--><path codeLine="97" d="M1395.33,191.764 C1215.84,196.304 441.512,225.875 296.5,400 C283.026,416.1793 299.561,432.1905 320.164,444.3905 " fill="none" id="User-to-ResolutionPicture" style="stroke:#A80036;stroke-width:1.0;"/><polygon fill="#A80036" points="324.613,446.9346,318.785,438.9952,320.2723,444.453,314.8145,445.9403,324.613,446.9346" style="stroke:#A80036;stroke-width:1.0;"/><text fill="#000000" font-family="sans-serif" font-size="13" lengthAdjust="spacing" textLength="62" x="297.5" y="413.0669">download</text><!--MD5=[fb15c8ffe2d453a42af6a630d0178531]
link User to ResolutionPicture--><path codeLine="102" d="M1395.45,190.718 C1257.73,191.24 765.887,207.224 428.5,400 C410.466,410.3041 394.859,427.9279 384.086,442.373 " fill="none" id="User-to-ResolutionPicture-1" style="stroke:#A80036;stroke-width:1.0;"/><polygon fill="#A80036" points="380.901,446.7423,389.4354,441.8266,383.8467,442.7021,382.9711,437.1135,380.901,446.7423" style="stroke:#A80036;stroke-width:1.0;"/><text fill="#000000" font-family="sans-serif" font-size="13" lengthAdjust="spacing" textLength="43" x="429.5" y="413.0669">upload</text><!--MD5=[337e5993595d124d721fe55725397ce0]
link User to Lot--><path codeLine="99" d="M1395.23,192.726 C1215.07,201.778 435.878,249.232 256.5,400 C244.197,410.3404 238.201,427.53 235.278,441.7742 " fill="none" id="User-to-Lot" style="stroke:#A80036;stroke-width:1.0;"/><polygon fill="#A80036" points="234.335,446.8706,239.9067,438.7493,235.2453,441.9542,232.0404,437.2928,234.335,446.8706" style="stroke:#A80036;stroke-width:1.0;"/><text fill="#000000" font-family="sans-serif" font-size="13" lengthAdjust="spacing" textLength="26" x="257.5" y="413.0669">free</text><!--MD5=[2c38f7d20364e5e6ade2e97a9c4f51fc]
link User to Privacy--><path codeLine="101" d="M1469.81,199.078 C1574.36,222.424 1877.96,295.069 2113.5,400 C2142.49,412.9146 2173.29,431.9016 2194.9,446.1992 " fill="none" id="User-to-Privacy" style="stroke:#A80036;stroke-width:1.0;"/><polygon fill="#A80036" points="2199.1,448.993,2193.8259,440.6753,2194.9383,446.2217,2189.3919,447.3341,2199.1,448.993" style="stroke:#A80036;stroke-width:1.0;"/><text fill="#000000" font-family="sans-serif" font-size="13" lengthAdjust="spacing" textLength="31" x="2146.5" y="413.0669">keep</text><!--MD5=[0e17222b823bcc84ab923698898849c2]
@startuml
hide circle
class User<actor> {
}
class User {
	need()
	free()
	use()
	download()
	sort()
	keep()
	let()
	save()
	like()
	review()
	reset()
	express()
	forget()
	comment()
	maintain()
	see()
	report()
	enter()
	change()
	extend()
	delete()
	choose()
	upload()
	create()
	make()
}
class QualityPicture {
}
class Register {
}
class Lot {
}
class ResolutionPicture {
}
class Picture {
}
class Record {
}
class Password {
}
class Event {
}
class Browser {
}
class Size {
}
class Felling {
}
class upload {
}
class Privacy {
}
class Time {
}
class type {
}
class Storage {
}
class RAWPicture {
}
class Comment {
}
class EventExit {
}
User - -> Time : upload
User - -> Picture : review
User - -> Picture : report
User - -> upload : delete
User - -> type : change
User - -> Record : keep
User - -> Storage : save
User - -> Picture : maintain
User - -> Password : forget
User - -> RAWPicture : upload
User - -> Event : delete
User - -> Comment : make
User - -> Size : choose
User - -> Event : extend
User - -> Browser : use
User - -> Password : enter
User - -> EventExit : let
User - -> Picture : sort
User - -> QualityPicture : review
User - -> Password : reset
User - -> Felling : express
User - -> Picture : upload
User - -> Event : create
User - -> Picture : download
User - -> Picture : see
User - -> Time : save
User - -> Register : need
User - -> Event : maintain
User - -> ResolutionPicture : download
User - -> Picture : comment
User - -> Lot : free
User - -> Picture : like
User - -> Privacy : keep
User - -> ResolutionPicture : upload
@enduml

PlantUML version 1.2021.6beta6(Unknown compile time)
(GPL source distribution)
Java Runtime: Java(TM) SE Runtime Environment
JVM: Java HotSpot(TM) 64-Bit Server VM
Default Encoding: UTF-8
Language: en
Country: US
--></g></svg>