<?xml version="1.0" encoding="UTF-8" standalone="no"?><svg xmlns="http://www.w3.org/2000/svg" xmlns:xlink="http://www.w3.org/1999/xlink" contentScriptType="application/ecmascript" contentStyleType="text/css" height="849px" preserveAspectRatio="none" style="width:1607px;height:849px;background:#FFFFFF;" version="1.1" viewBox="0 0 1607 849" width="1607px" zoomAndPan="magnify"><defs><filter height="300%" id="f1r8jjmi1f6gye" width="300%" x="-1" y="-1"><feGaussianBlur result="blurOut" stdDeviation="2.0"/><feColorMatrix in="blurOut" result="blurOut2" type="matrix" values="0 0 0 0 0 0 0 0 0 0 0 0 0 0 0 0 0 0 .4 0"/><feOffset dx="4.0" dy="4.0" in="blurOut2" result="blurOut3"/><feBlend in="SourceGraphic" in2="blurOut3" mode="normal"/></filter></defs><g><!--MD5=[db6d18d8099558415abc41d00477ab92]
class Admin--><rect codeLine="58" fill="#FEFECE" filter="url(#f1r8jjmi1f6gye)" height="91.1875" id="Admin" style="stroke:#A80036;stroke-width:1.5;" width="78" x="210" y="67.5"/><text fill="#000000" font-family="sans-serif" font-size="12" lengthAdjust="spacing" textLength="37" x="213" y="83.6387">Admin</text><rect fill="#FFFFFF" height="15.9688" style="stroke:#000000;stroke-width:1.0;stroke-dasharray:2.0,2.0;" width="33" x="258" y="64.5"/><text fill="#000000" font-family="sans-serif" font-size="12" font-style="italic" lengthAdjust="spacing" textLength="31" x="259" y="76.6387">actor</text><line style="stroke:#A80036;stroke-width:1.5;" x1="211" x2="287" y1="91.4688" y2="91.4688"/><line style="stroke:#A80036;stroke-width:1.5;" x1="211" x2="287" y1="99.4688" y2="99.4688"/><text fill="#000000" font-family="sans-serif" font-size="11" lengthAdjust="spacing" textLength="29" x="216" y="113.6792">add()</text><text fill="#000000" font-family="sans-serif" font-size="11" lengthAdjust="spacing" textLength="49" x="216" y="126.4839">disable()</text><text fill="#000000" font-family="sans-serif" font-size="11" lengthAdjust="spacing" textLength="29" x="216" y="139.2886">use()</text><text fill="#000000" font-family="sans-serif" font-size="11" lengthAdjust="spacing" textLength="57" x="216" y="152.0933">increase()</text><!--MD5=[3fd616f346a44cd59a91eb10b19e157c]
class User--><rect codeLine="28" fill="#FEFECE" filter="url(#f1r8jjmi1f6gye)" height="206.4297" id="User" style="stroke:#A80036;stroke-width:1.5;" width="74" x="1106" y="10"/><text fill="#000000" font-family="sans-serif" font-size="12" lengthAdjust="spacing" textLength="29" x="1111" y="26.1387">User</text><rect fill="#FFFFFF" height="15.9688" style="stroke:#000000;stroke-width:1.0;stroke-dasharray:2.0,2.0;" width="33" x="1150" y="7"/><text fill="#000000" font-family="sans-serif" font-size="12" font-style="italic" lengthAdjust="spacing" textLength="31" x="1151" y="19.1387">actor</text><line style="stroke:#A80036;stroke-width:1.5;" x1="1107" x2="1179" y1="33.9688" y2="33.9688"/><text fill="#000000" font-family="sans-serif" font-size="11" lengthAdjust="spacing" textLength="44" x="1112" y="48.1792">account</text><line style="stroke:#A80036;stroke-width:1.5;" x1="1107" x2="1179" y1="54.7734" y2="54.7734"/><text fill="#000000" font-family="sans-serif" font-size="11" lengthAdjust="spacing" textLength="62" x="1112" y="68.9839">comment()</text><text fill="#000000" font-family="sans-serif" font-size="11" lengthAdjust="spacing" textLength="51" x="1112" y="81.7886">sign_up()</text><text fill="#000000" font-family="sans-serif" font-size="11" lengthAdjust="spacing" textLength="52" x="1112" y="94.5933">receive()</text><text fill="#000000" font-family="sans-serif" font-size="11" lengthAdjust="spacing" textLength="40" x="1112" y="107.3979">share()</text><text fill="#000000" font-family="sans-serif" font-size="11" lengthAdjust="spacing" textLength="28" x="1112" y="120.2026">like()</text><text fill="#000000" font-family="sans-serif" font-size="11" lengthAdjust="spacing" textLength="36" x="1112" y="133.0073">send()</text><text fill="#000000" font-family="sans-serif" font-size="11" lengthAdjust="spacing" textLength="29" x="1112" y="145.812">use()</text><text fill="#000000" font-family="sans-serif" font-size="11" lengthAdjust="spacing" textLength="47" x="1112" y="158.6167">access()</text><text fill="#000000" font-family="sans-serif" font-size="11" lengthAdjust="spacing" textLength="38" x="1112" y="171.4214">reset()</text><text fill="#000000" font-family="sans-serif" font-size="11" lengthAdjust="spacing" textLength="46" x="1112" y="184.2261">delete()</text><text fill="#000000" font-family="sans-serif" font-size="11" lengthAdjust="spacing" textLength="50" x="1112" y="197.0308">change()</text><text fill="#000000" font-family="sans-serif" font-size="11" lengthAdjust="spacing" textLength="32" x="1112" y="209.8354">post()</text><!--MD5=[15c6922f6693225acd2805a9f7199676]
class Maintainer--><rect codeLine="11" fill="#FEFECE" filter="url(#f1r8jjmi1f6gye)" height="65.5781" id="Maintainer" style="stroke:#A80036;stroke-width:1.5;" width="102" x="417" y="80"/><text fill="#000000" font-family="sans-serif" font-size="12" lengthAdjust="spacing" textLength="61" x="420" y="96.1387">Maintainer</text><rect fill="#FFFFFF" height="15.9688" style="stroke:#000000;stroke-width:1.0;stroke-dasharray:2.0,2.0;" width="33" x="489" y="77"/><text fill="#000000" font-family="sans-serif" font-size="12" font-style="italic" lengthAdjust="spacing" textLength="31" x="490" y="89.1387">actor</text><line style="stroke:#A80036;stroke-width:1.5;" x1="418" x2="518" y1="103.9688" y2="103.9688"/><line style="stroke:#A80036;stroke-width:1.5;" x1="418" x2="518" y1="111.9688" y2="111.9688"/><text fill="#000000" font-family="sans-serif" font-size="11" lengthAdjust="spacing" textLength="48" x="423" y="126.1792">update()</text><text fill="#000000" font-family="sans-serif" font-size="11" lengthAdjust="spacing" textLength="35" x="423" y="138.9839">build()</text><!--MD5=[ddf427ea503a475949d0894856939002]
class Entrepreneur--><rect codeLine="17" fill="#FEFECE" filter="url(#f1r8jjmi1f6gye)" height="129.6016" id="Entrepreneur" style="stroke:#A80036;stroke-width:1.5;" width="120" x="257" y="423"/><text fill="#000000" font-family="sans-serif" font-size="12" lengthAdjust="spacing" textLength="79" x="260" y="439.1387">Entrepreneur</text><rect fill="#FFFFFF" height="15.9688" style="stroke:#000000;stroke-width:1.0;stroke-dasharray:2.0,2.0;" width="33" x="347" y="420"/><text fill="#000000" font-family="sans-serif" font-size="12" font-style="italic" lengthAdjust="spacing" textLength="31" x="348" y="432.1387">actor</text><line style="stroke:#A80036;stroke-width:1.5;" x1="258" x2="376" y1="446.9688" y2="446.9688"/><line style="stroke:#A80036;stroke-width:1.5;" x1="258" x2="376" y1="454.9688" y2="454.9688"/><text fill="#000000" font-family="sans-serif" font-size="11" lengthAdjust="spacing" textLength="30" x="263" y="469.1792">see()</text><text fill="#000000" font-family="sans-serif" font-size="11" lengthAdjust="spacing" textLength="43" x="263" y="481.9839">match()</text><text fill="#000000" font-family="sans-serif" font-size="11" lengthAdjust="spacing" textLength="58" x="263" y="494.7886">resubmit()</text><text fill="#000000" font-family="sans-serif" font-size="11" lengthAdjust="spacing" textLength="30" x="263" y="507.5933">edit()</text><text fill="#000000" font-family="sans-serif" font-size="11" lengthAdjust="spacing" textLength="62" x="263" y="520.3979">complete()</text><text fill="#000000" font-family="sans-serif" font-size="11" lengthAdjust="spacing" textLength="46" x="263" y="533.2026">submit()</text><text fill="#000000" font-family="sans-serif" font-size="11" lengthAdjust="spacing" textLength="37" x="263" y="546.0073">have()</text><!--MD5=[335f4d9be48430461c68bf6d6fdba145]
class App--><rect codeLine="15" fill="#FEFECE" filter="url(#f1r8jjmi1f6gye)" height="39.9688" id="App" style="stroke:#A80036;stroke-width:1.5;" width="30" x="540" y="299.5"/><text fill="#000000" font-family="sans-serif" font-size="12" lengthAdjust="spacing" textLength="24" x="543" y="315.6387">App</text><line style="stroke:#A80036;stroke-width:1.5;" x1="541" x2="569" y1="323.4688" y2="323.4688"/><line style="stroke:#A80036;stroke-width:1.5;" x1="541" x2="569" y1="331.4688" y2="331.4688"/><!--MD5=[30fd7b95ab383a5e7c83ea23d4ea0fbf]
class Information--><rect codeLine="26" fill="#FEFECE" filter="url(#f1r8jjmi1f6gye)" height="39.9688" id="Information" style="stroke:#A80036;stroke-width:1.5;" width="73" x="416.5" y="796"/><text fill="#000000" font-family="sans-serif" font-size="12" lengthAdjust="spacing" textLength="67" x="419.5" y="812.1387">Information</text><line style="stroke:#A80036;stroke-width:1.5;" x1="417.5" x2="488.5" y1="819.9688" y2="819.9688"/><line style="stroke:#A80036;stroke-width:1.5;" x1="417.5" x2="488.5" y1="827.9688" y2="827.9688"/><!--MD5=[9bb0bdd047fba1a3c8d48282c35b4537]
class Post--><rect codeLine="42" fill="#FEFECE" filter="url(#f1r8jjmi1f6gye)" height="39.9688" id="Post" style="stroke:#A80036;stroke-width:1.5;" width="31" x="1532.5" y="299.5"/><text fill="#000000" font-family="sans-serif" font-size="12" lengthAdjust="spacing" textLength="25" x="1535.5" y="315.6387">Post</text><line style="stroke:#A80036;stroke-width:1.5;" x1="1533.5" x2="1562.5" y1="323.4688" y2="323.4688"/><line style="stroke:#A80036;stroke-width:1.5;" x1="1533.5" x2="1562.5" y1="331.4688" y2="331.4688"/><!--MD5=[dab16d122782a892ddb6ee0eadcd68f0]
class Access--><rect codeLine="44" fill="#FEFECE" filter="url(#f1r8jjmi1f6gye)" height="39.9688" id="Access" style="stroke:#A80036;stroke-width:1.5;" width="50" x="86" y="672.5"/><text fill="#000000" font-family="sans-serif" font-size="12" lengthAdjust="spacing" textLength="44" x="89" y="688.6387">Access</text><line style="stroke:#A80036;stroke-width:1.5;" x1="87" x2="135" y1="696.4688" y2="696.4688"/><line style="stroke:#A80036;stroke-width:1.5;" x1="87" x2="135" y1="704.4688" y2="704.4688"/><!--MD5=[8900b8126f988052b90f9f1b0582e804]
class Algorithm--><rect codeLine="46" fill="#FEFECE" filter="url(#f1r8jjmi1f6gye)" height="52.7734" id="Algorithm" style="stroke:#A80036;stroke-width:1.5;" width="63" x="105.5" y="293"/><text fill="#000000" font-family="sans-serif" font-size="12" lengthAdjust="spacing" textLength="57" x="108.5" y="309.1387">Algorithm</text><line style="stroke:#A80036;stroke-width:1.5;" x1="106.5" x2="167.5" y1="316.9688" y2="316.9688"/><line style="stroke:#A80036;stroke-width:1.5;" x1="106.5" x2="167.5" y1="324.9688" y2="324.9688"/><text fill="#000000" font-family="sans-serif" font-size="11" lengthAdjust="spacing" textLength="43" x="111.5" y="339.1792">match()</text><!--MD5=[e762170833d07b06faa87c40cb5a3bd7]
class Mentor--><rect codeLine="49" fill="#FEFECE" filter="url(#f1r8jjmi1f6gye)" height="52.7734" id="Mentor" style="stroke:#A80036;stroke-width:1.5;" width="56" x="7" y="583"/><text fill="#000000" font-family="sans-serif" font-size="12" lengthAdjust="spacing" textLength="42" x="14" y="599.1387">Mentor</text><line style="stroke:#A80036;stroke-width:1.5;" x1="8" x2="62" y1="606.9688" y2="606.9688"/><line style="stroke:#A80036;stroke-width:1.5;" x1="8" x2="62" y1="614.9688" y2="614.9688"/><text fill="#000000" font-family="sans-serif" font-size="11" lengthAdjust="spacing" textLength="44" x="13" y="629.1792">assign()</text><!--MD5=[bea5b0d46523efab5ea1c1d339f396f0]
class Message--><rect codeLine="52" fill="#FEFECE" filter="url(#f1r8jjmi1f6gye)" height="39.9688" id="Message" style="stroke:#A80036;stroke-width:1.5;" width="61" x="1184.5" y="299.5"/><text fill="#000000" font-family="sans-serif" font-size="12" lengthAdjust="spacing" textLength="55" x="1187.5" y="315.6387">Message</text><line style="stroke:#A80036;stroke-width:1.5;" x1="1185.5" x2="1244.5" y1="323.4688" y2="323.4688"/><line style="stroke:#A80036;stroke-width:1.5;" x1="1185.5" x2="1244.5" y1="331.4688" y2="331.4688"/><!--MD5=[b076201f908879798ada25c383f23fa3]
class NewsFeed--><rect codeLine="54" fill="#FEFECE" filter="url(#f1r8jjmi1f6gye)" height="39.9688" id="NewsFeed" style="stroke:#A80036;stroke-width:1.5;" width="70" x="752" y="299.5"/><text fill="#000000" font-family="sans-serif" font-size="12" lengthAdjust="spacing" textLength="64" x="755" y="315.6387">NewsFeed</text><line style="stroke:#A80036;stroke-width:1.5;" x1="753" x2="821" y1="323.4688" y2="323.4688"/><line style="stroke:#A80036;stroke-width:1.5;" x1="753" x2="821" y1="331.4688" y2="331.4688"/><!--MD5=[70313f9481c73a9808968c254b51c052]
class Issue--><rect codeLine="56" fill="#FEFECE" filter="url(#f1r8jjmi1f6gye)" height="39.9688" id="Issue" style="stroke:#A80036;stroke-width:1.5;" width="38" x="935" y="299.5"/><text fill="#000000" font-family="sans-serif" font-size="12" lengthAdjust="spacing" textLength="32" x="938" y="315.6387">Issue</text><line style="stroke:#A80036;stroke-width:1.5;" x1="936" x2="972" y1="323.4688" y2="323.4688"/><line style="stroke:#A80036;stroke-width:1.5;" x1="936" x2="972" y1="331.4688" y2="331.4688"/><!--MD5=[0af81624ebf4756f87573a2b1a0e36a1]
class CourseContent--><rect codeLine="64" fill="#FEFECE" filter="url(#f1r8jjmi1f6gye)" height="39.9688" id="CourseContent" style="stroke:#A80036;stroke-width:1.5;" width="95" x="203.5" y="299.5"/><text fill="#000000" font-family="sans-serif" font-size="12" lengthAdjust="spacing" textLength="89" x="206.5" y="315.6387">CourseContent</text><line style="stroke:#A80036;stroke-width:1.5;" x1="204.5" x2="297.5" y1="323.4688" y2="323.4688"/><line style="stroke:#A80036;stroke-width:1.5;" x1="204.5" x2="297.5" y1="331.4688" y2="331.4688"/><!--MD5=[0b4e4b4980470ea387cc45de9bd14b5b]
class Application--><rect codeLine="66" fill="#FEFECE" filter="url(#f1r8jjmi1f6gye)" height="39.9688" id="Application" style="stroke:#A80036;stroke-width:1.5;" width="72" x="336" y="299.5"/><text fill="#000000" font-family="sans-serif" font-size="12" lengthAdjust="spacing" textLength="66" x="339" y="315.6387">Application</text><line style="stroke:#A80036;stroke-width:1.5;" x1="337" x2="407" y1="323.4688" y2="323.4688"/><line style="stroke:#A80036;stroke-width:1.5;" x1="337" x2="407" y1="331.4688" y2="331.4688"/><!--MD5=[fab76ac332c6d72510aaae6c360fa182]
class Quality--><rect codeLine="68" fill="#FEFECE" filter="url(#f1r8jjmi1f6gye)" height="39.9688" id="Quality" style="stroke:#A80036;stroke-width:1.5;" width="47" x="23.5" y="299.5"/><text fill="#000000" font-family="sans-serif" font-size="12" lengthAdjust="spacing" textLength="41" x="26.5" y="315.6387">Quality</text><line style="stroke:#A80036;stroke-width:1.5;" x1="24.5" x2="69.5" y1="323.4688" y2="323.4688"/><line style="stroke:#A80036;stroke-width:1.5;" x1="24.5" x2="69.5" y1="331.4688" y2="331.4688"/><!--MD5=[2f01b1126ff33a0669651ec2488a5ef9]
class Password--><rect codeLine="70" fill="#FEFECE" filter="url(#f1r8jjmi1f6gye)" height="39.9688" id="Password" style="stroke:#A80036;stroke-width:1.5;" width="64" x="1033" y="299.5"/><text fill="#000000" font-family="sans-serif" font-size="12" lengthAdjust="spacing" textLength="58" x="1036" y="315.6387">Password</text><line style="stroke:#A80036;stroke-width:1.5;" x1="1034" x2="1096" y1="323.4688" y2="323.4688"/><line style="stroke:#A80036;stroke-width:1.5;" x1="1034" x2="1096" y1="331.4688" y2="331.4688"/><!--MD5=[042fa140da40c49659127f611bcff931]
class Comment--><rect codeLine="72" fill="#FEFECE" filter="url(#f1r8jjmi1f6gye)" height="39.9688" id="Comment" style="stroke:#A80036;stroke-width:1.5;" width="63" x="1307.5" y="299.5"/><text fill="#000000" font-family="sans-serif" font-size="12" lengthAdjust="spacing" textLength="57" x="1310.5" y="315.6387">Comment</text><line style="stroke:#A80036;stroke-width:1.5;" x1="1308.5" x2="1369.5" y1="323.4688" y2="323.4688"/><line style="stroke:#A80036;stroke-width:1.5;" x1="1308.5" x2="1369.5" y1="331.4688" y2="331.4688"/><!--MD5=[7b57f7066b803747d2119f99dd1555d4]
class Profile--><rect codeLine="74" fill="#FEFECE" filter="url(#f1r8jjmi1f6gye)" height="52.7734" id="Profile" style="stroke:#A80036;stroke-width:1.5;" width="63" x="476.5" y="666"/><text fill="#000000" font-family="sans-serif" font-size="12" lengthAdjust="spacing" textLength="37" x="489.5" y="682.1387">Profile</text><line style="stroke:#A80036;stroke-width:1.5;" x1="477.5" x2="538.5" y1="689.9688" y2="689.9688"/><line style="stroke:#A80036;stroke-width:1.5;" x1="477.5" x2="538.5" y1="697.9688" y2="697.9688"/><text fill="#000000" font-family="sans-serif" font-size="11" lengthAdjust="spacing" textLength="51" x="482.5" y="712.1792">provide()</text><!--MD5=[f9a29335b499db729be669fd1bd54958]
class Account--><rect codeLine="77" fill="#FEFECE" filter="url(#f1r8jjmi1f6gye)" height="39.9688" id="Account" style="stroke:#A80036;stroke-width:1.5;" width="54" x="446" y="299.5"/><text fill="#000000" font-family="sans-serif" font-size="12" lengthAdjust="spacing" textLength="48" x="449" y="315.6387">Account</text><line style="stroke:#A80036;stroke-width:1.5;" x1="447" x2="499" y1="323.4688" y2="323.4688"/><line style="stroke:#A80036;stroke-width:1.5;" x1="447" x2="499" y1="331.4688" y2="331.4688"/><!--MD5=[9eacd0a3ebf031cca6b9d9a6c40f7795]
class HomeworkAssignment--><rect codeLine="79" fill="#FEFECE" filter="url(#f1r8jjmi1f6gye)" height="39.9688" id="HomeworkAssignment" style="stroke:#A80036;stroke-width:1.5;" width="142" x="197" y="672.5"/><text fill="#000000" font-family="sans-serif" font-size="12" lengthAdjust="spacing" textLength="136" x="200" y="688.6387">HomeworkAssignment</text><line style="stroke:#A80036;stroke-width:1.5;" x1="198" x2="338" y1="696.4688" y2="696.4688"/><line style="stroke:#A80036;stroke-width:1.5;" x1="198" x2="338" y1="704.4688" y2="704.4688"/><!--MD5=[5a3b85c54cc1c79904e0b827443986bf]
class Questionnaire--><rect codeLine="81" fill="#FEFECE" filter="url(#f1r8jjmi1f6gye)" height="52.7734" id="Questionnaire" style="stroke:#A80036;stroke-width:1.5;" width="90" x="575" y="666"/><text fill="#000000" font-family="sans-serif" font-size="12" lengthAdjust="spacing" textLength="84" x="578" y="682.1387">Questionnaire</text><line style="stroke:#A80036;stroke-width:1.5;" x1="576" x2="664" y1="689.9688" y2="689.9688"/><line style="stroke:#A80036;stroke-width:1.5;" x1="576" x2="664" y1="697.9688" y2="697.9688"/><text fill="#000000" font-family="sans-serif" font-size="11" lengthAdjust="spacing" textLength="51" x="581" y="712.1792">provide()</text><!--MD5=[1db584ee1b8127ea75535273dec2b4f2]
class Version--><rect codeLine="84" fill="#FEFECE" filter="url(#f1r8jjmi1f6gye)" height="39.9688" id="Version" style="stroke:#A80036;stroke-width:1.5;" width="52" x="1406" y="299.5"/><text fill="#000000" font-family="sans-serif" font-size="12" lengthAdjust="spacing" textLength="46" x="1409" y="315.6387">Version</text><line style="stroke:#A80036;stroke-width:1.5;" x1="1407" x2="1457" y1="323.4688" y2="323.4688"/><line style="stroke:#A80036;stroke-width:1.5;" x1="1407" x2="1457" y1="331.4688" y2="331.4688"/><!--MD5=[b95f029087fe2ed21c4dd1f7ef08d354]
link Questionnaire to Information--><path codeLine="86" d="M594.99,719.29 C580.069,733.928 560.319,752.0528 541,766 C526.481,776.4817 509.496,786.4185 494.342,794.5691 " fill="none" id="Questionnaire-to-Information" style="stroke:#A80036;stroke-width:1.0;"/><polygon fill="#A80036" points="489.702,797.0398,499.526,796.3403,494.1153,794.6897,495.7659,789.279,489.702,797.0398" style="stroke:#A80036;stroke-width:1.0;"/><text fill="#000000" font-family="sans-serif" font-size="13" lengthAdjust="spacing" textLength="48" x="563" y="762.0669">provide</text><!--MD5=[2f53d70ec4e2745cfa954035d5e24b41]
link Entrepreneur to HomeworkAssignment--><path codeLine="87" d="M256.741,513.605 C227.648,528.922 195.532,551.736 179,583 C167.989,603.823 167.571,615.403 179,636 C186.927,650.285 200.229,661.374 214.165,669.753 " fill="none" id="Entrepreneur-to-HomeworkAssignment" style="stroke:#A80036;stroke-width:1.0;"/><polygon fill="#A80036" points="218.505,672.267,212.7222,664.2946,214.1785,669.7608,208.7123,671.2171,218.505,672.267" style="stroke:#A80036;stroke-width:1.0;"/><text fill="#000000" font-family="sans-serif" font-size="13" lengthAdjust="spacing" textLength="44" x="180" y="614.0669">submit</text><!--MD5=[2f53d70ec4e2745cfa954035d5e24b41]
link Entrepreneur to HomeworkAssignment--><path codeLine="109" d="M276.034,553.218 C271.497,562.883 267.587,572.978 265,583 C257.718,611.209 260.325,644.919 263.534,667.196 " fill="none" id="Entrepreneur-to-HomeworkAssignment-1" style="stroke:#A80036;stroke-width:1.0;"/><polygon fill="#A80036" points="264.312,672.325,266.9166,662.8268,263.5619,667.3816,259.0071,664.0269,264.312,672.325" style="stroke:#A80036;stroke-width:1.0;"/><text fill="#000000" font-family="sans-serif" font-size="13" lengthAdjust="spacing" textLength="57" x="266" y="614.0669">resubmit</text><!--MD5=[2f53d70ec4e2745cfa954035d5e24b41]
link Entrepreneur to HomeworkAssignment--><path codeLine="114" d="M334.713,553.097 C338.836,579.718 339.226,610.323 328,636 C322.33,648.969 311.969,660.257 301.433,669.206 " fill="none" id="Entrepreneur-to-HomeworkAssignment-2" style="stroke:#A80036;stroke-width:1.0;"/><polygon fill="#A80036" points="297.552,672.396,307.045,669.7725,301.415,669.2216,301.9659,663.5916,297.552,672.396" style="stroke:#A80036;stroke-width:1.0;"/><text fill="#000000" font-family="sans-serif" font-size="13" lengthAdjust="spacing" textLength="24" x="339" y="614.0669">edit</text><!--MD5=[e4773dd10a40f4bea1ef171b82a8bbf2]
link User to NewsFeed--><path codeLine="88" d="M1105.77,119.528 C1009.21,134.705 754.784,180.303 706,246 C689.354,268.416 718.999,289.136 746.991,302.634 " fill="none" id="User-to-NewsFeed" style="stroke:#A80036;stroke-width:1.0;"/><polygon fill="#A80036" points="751.823,304.904,745.3774,297.4573,747.2974,302.7783,741.9763,304.6983,751.823,304.904" style="stroke:#A80036;stroke-width:1.0;"/><text fill="#000000" font-family="sans-serif" font-size="13" lengthAdjust="spacing" textLength="36" x="707" y="259.0669">share</text><!--MD5=[e4773dd10a40f4bea1ef171b82a8bbf2]
link User to NewsFeed--><path codeLine="98" d="M1105.94,114.735 C1030.22,118.485 858.669,138.988 784,246 C774.285,259.923 775.63,279.279 779.083,294.489 " fill="none" id="User-to-NewsFeed-1" style="stroke:#A80036;stroke-width:1.0;"/><polygon fill="#A80036" points="780.321,299.474,782.0329,289.7751,779.1154,294.6215,774.2689,291.704,780.321,299.474" style="stroke:#A80036;stroke-width:1.0;"/><text fill="#000000" font-family="sans-serif" font-size="13" lengthAdjust="spacing" textLength="21" x="785" y="259.0669">like</text><!--MD5=[e4773dd10a40f4bea1ef171b82a8bbf2]
link User to NewsFeed--><path codeLine="103" d="M1105.91,135.306 C1037.69,174.496 893.019,257.599 824.495,296.961 " fill="none" id="User-to-NewsFeed-2" style="stroke:#A80036;stroke-width:1.0;"/><polygon fill="#A80036" points="820.093,299.49,829.8896,298.4765,824.4288,296.9999,825.9055,291.5392,820.093,299.49" style="stroke:#A80036;stroke-width:1.0;"/><text fill="#000000" font-family="sans-serif" font-size="13" lengthAdjust="spacing" textLength="62" x="914" y="259.0669">comment</text><!--MD5=[cbf6a630c9217992a8915fa665a5f323]
reverse link Mentor to Information--><path codeLine="89" d="M37.3948,649.125 C40.8634,672.417 49.0308,700.972 68,719 C118.558,767.0485 330.028,799.1505 416.208,810.4697 " fill="none" id="Mentor-backto-Information" style="stroke:#A80036;stroke-width:1.0;"/><polygon fill="#FFFFFF" points="35.8493,636.139,32.5861,642.5695,37.2669,648.055,40.5301,641.6245,35.8493,636.139" style="stroke:#A80036;stroke-width:1.0;"/><!--MD5=[273b771cefa7fb870785f3f56aa8a292]
link Entrepreneur to Information--><path codeLine="90" d="M356.7,553.101 C362.156,562.951 367.442,573.13 372,583 C405.862,656.32 433.936,748.0656 446.266,790.8938 " fill="none" id="Entrepreneur-to-Information" style="stroke:#A80036;stroke-width:1.0;"/><polygon fill="#A80036" points="447.691,795.8697,449.0588,786.1163,446.3145,791.0629,441.3679,788.3186,447.691,795.8697" style="stroke:#A80036;stroke-width:1.0;"/><text fill="#000000" font-family="sans-serif" font-size="13" lengthAdjust="spacing" textLength="23" x="425" y="697.0669">see</text><!--MD5=[60fcfb01e062bda5bf75b4118fd28a56]
link Profile to Information--><path codeLine="91" d="M496.336,719.267 C486.761,740.4193 473.3,770.155 463.931,790.8527 " fill="none" id="Profile-to-Information" style="stroke:#A80036;stroke-width:1.0;"/><polygon fill="#A80036" points="461.761,795.6472,469.1162,789.0973,463.8227,791.0921,461.828,785.7986,461.761,795.6472" style="stroke:#A80036;stroke-width:1.0;"/><text fill="#000000" font-family="sans-serif" font-size="13" lengthAdjust="spacing" textLength="48" x="484" y="762.0669">provide</text><!--MD5=[b2f9bbc5b67f9f7e5b4947c93ff68187]
link Admin to Application--><path codeLine="92" d="M275.841,158.626 C301.142,200.691 338.062,262.075 357.991,295.209 " fill="none" id="Admin-to-Application" style="stroke:#A80036;stroke-width:1.0;"/><polygon fill="#A80036" points="360.57,299.497,359.3585,289.7229,357.9927,295.2124,352.5032,293.8466,360.57,299.497" style="stroke:#A80036;stroke-width:1.0;"/><text fill="#000000" font-family="sans-serif" font-size="13" lengthAdjust="spacing" textLength="24" x="337" y="259.0669">add</text><!--MD5=[066c20a8166f989419d29a9042437fb7]
link Algorithm to Mentor--><path codeLine="93" d="M127.948,346.058 C109.159,399.11 65.9972,520.978 45.7965,578.016 " fill="none" id="Algorithm-to-Mentor" style="stroke:#A80036;stroke-width:1.0;"/><polygon fill="#A80036" points="44.0315,582.999,50.8057,575.8499,45.7001,578.2857,43.2644,573.1801,44.0315,582.999" style="stroke:#A80036;stroke-width:1.0;"/><text fill="#000000" font-family="sans-serif" font-size="13" lengthAdjust="spacing" textLength="41" x="118" y="389.0669">match</text><!--MD5=[e8a44440e7d883fedaa906df2c0e3d75]
link User to Message--><path codeLine="94" d="M1168.51,216.002 C1173.42,231.932 1178.94,248.056 1185,263 C1189.39,273.817 1195.32,285.245 1200.75,294.901 " fill="none" id="User-to-Message" style="stroke:#A80036;stroke-width:1.0;"/><polygon fill="#A80036" points="1203.37,299.489,1202.3854,289.6895,1200.8927,295.1459,1195.4363,293.6532,1203.37,299.489" style="stroke:#A80036;stroke-width:1.0;"/><text fill="#000000" font-family="sans-serif" font-size="13" lengthAdjust="spacing" textLength="31" x="1186" y="259.0669">send</text><!--MD5=[e8a44440e7d883fedaa906df2c0e3d75]
link User to Message--><path codeLine="96" d="M1180.01,161.543 C1196.31,185.464 1213.64,215.753 1222,246 C1226.35,261.74 1224.53,280.049 1221.66,294.33 " fill="none" id="User-to-Message-1" style="stroke:#A80036;stroke-width:1.0;"/><polygon fill="#A80036" points="1220.56,299.397,1226.3729,291.4465,1221.6174,294.5101,1218.5538,289.7546,1220.56,299.397" style="stroke:#A80036;stroke-width:1.0;"/><text fill="#000000" font-family="sans-serif" font-size="13" lengthAdjust="spacing" textLength="47" x="1226" y="259.0669">receive</text><!--MD5=[e1d13d98ee1a295d03e7f4db49673576]
link Algorithm to Entrepreneur--><path codeLine="95" d="M164.731,346.151 C188.232,367.89 222.845,399.906 253.133,427.923 " fill="none" id="Algorithm-to-Entrepreneur" style="stroke:#A80036;stroke-width:1.0;"/><polygon fill="#A80036" points="256.805,431.319,252.9119,422.2722,253.1336,427.9248,247.4811,428.1465,256.805,431.319" style="stroke:#A80036;stroke-width:1.0;"/><text fill="#000000" font-family="sans-serif" font-size="13" lengthAdjust="spacing" textLength="41" x="212" y="389.0669">match</text><!--MD5=[33ae7c9fddac52a75b546961b7f24f14]
link Admin to Account--><path codeLine="97" d="M288.281,136.48 C327.271,160.152 387.111,200.286 429,246 C442.341,260.56 453.781,279.764 461.649,294.75 " fill="none" id="Admin-to-Account" style="stroke:#A80036;stroke-width:1.0;"/><polygon fill="#A80036" points="463.975,299.255,463.3996,289.423,461.6808,294.8124,456.2914,293.0936,463.975,299.255" style="stroke:#A80036;stroke-width:1.0;"/><text fill="#000000" font-family="sans-serif" font-size="13" lengthAdjust="spacing" textLength="45" x="444" y="259.0669">disable</text><!--MD5=[5ab1f46e477a8163e64d30b24bef4255]
link User to Password--><path codeLine="99" d="M1105.94,211.159 C1094.15,242.071 1082.12,273.605 1074.18,294.422 " fill="none" id="User-to-Password" style="stroke:#A80036;stroke-width:1.0;"/><polygon fill="#A80036" points="1072.36,299.217,1079.3062,292.2348,1074.1428,294.5456,1071.832,289.3823,1072.36,299.217" style="stroke:#A80036;stroke-width:1.0;"/><text fill="#000000" font-family="sans-serif" font-size="13" lengthAdjust="spacing" textLength="47" x="1094" y="259.0669">change</text><!--MD5=[5ab1f46e477a8163e64d30b24bef4255]
link User to Password--><path codeLine="115" d="M1106,150.691 C1083.89,175.32 1057.87,209.789 1046,246 C1040.75,261.996 1045.66,280.341 1051.8,294.575 " fill="none" id="User-to-Password-1" style="stroke:#A80036;stroke-width:1.0;"/><polygon fill="#A80036" points="1053.92,299.235,1053.8449,289.3864,1051.8545,294.6816,1046.5594,292.6912,1053.92,299.235" style="stroke:#A80036;stroke-width:1.0;"/><text fill="#000000" font-family="sans-serif" font-size="13" lengthAdjust="spacing" textLength="33" x="1047" y="259.0669">reset</text><!--MD5=[c8ecc96e049822d047e1e20cd7f62a56]
reverse link User to Account--><path codeLine="100" d="M1093.09,125.94 C1003.894,147.605 811.544,195.812 652,246 C593.393,264.436 578.263,268.32 522,293 C514.799,296.159 507.183,299.91 500.158,303.551 " fill="none" id="User-backto-Account" style="stroke:#A80036;stroke-width:1.0;"/><polygon fill="#FFFFFF" points="1105.74,122.878,1098.9676,120.4011,1094.0765,125.6999,1100.8489,128.1768,1105.74,122.878" style="stroke:#A80036;stroke-width:1.0;"/><text fill="#000000" font-family="sans-serif" font-size="13" lengthAdjust="spacing" textLength="40" x="653" y="259.0669">delete</text><!--MD5=[e21ecfe4f4fa838f3322e27016d55e66]
link User to Issue--><path codeLine="101" d="M1105.74,146.499 C1077.12,172.241 1037.33,209.778 1006,246 C992.593,261.501 979.154,280.346 969.297,294.937 " fill="none" id="User-to-Issue" style="stroke:#A80036;stroke-width:1.0;"/><polygon fill="#A80036" points="966.357,299.32,974.6913,294.0721,969.1414,295.167,968.0465,289.6171,966.357,299.32" style="stroke:#A80036;stroke-width:1.0;"/><text fill="#000000" font-family="sans-serif" font-size="13" lengthAdjust="spacing" textLength="28" x="1007" y="259.0669">post</text><!--MD5=[77c575690b0287b9077f2f97ff7c450d]
link User to Post--><path codeLine="102" d="M1180.01,132.69 C1263.18,174.684 1462.62,275.387 1527.34,308.067 " fill="none" id="User-to-Post" style="stroke:#A80036;stroke-width:1.0;"/><polygon fill="#A80036" points="1532.12,310.481,1525.8746,302.8656,1527.6524,308.2358,1522.2822,310.0137,1532.12,310.481" style="stroke:#A80036;stroke-width:1.0;"/><text fill="#000000" font-family="sans-serif" font-size="13" lengthAdjust="spacing" textLength="21" x="1430" y="259.0669">like</text><!--MD5=[77c575690b0287b9077f2f97ff7c450d]
link User to Post--><path codeLine="104" d="M1180.33,125.543 C1241.37,145.28 1365.25,188.969 1460,246 C1485.54,261.375 1511.49,283.753 1528.52,299.572 " fill="none" id="User-to-Post-1" style="stroke:#A80036;stroke-width:1.0;"/><polygon fill="#A80036" points="1532.23,303.043,1528.3881,293.9744,1528.5779,299.6281,1522.9242,299.8178,1532.23,303.043" style="stroke:#A80036;stroke-width:1.0;"/><text fill="#000000" font-family="sans-serif" font-size="13" lengthAdjust="spacing" textLength="62" x="1485" y="259.0669">comment</text><!--MD5=[77c575690b0287b9077f2f97ff7c450d]
link User to Post--><path codeLine="117" d="M1180.23,120.21 C1273.03,136.528 1510.5,183.688 1556,246 C1566.06,259.782 1563.32,279.145 1558.45,294.394 " fill="none" id="User-to-Post-2" style="stroke:#A80036;stroke-width:1.0;"/><polygon fill="#A80036" points="1556.74,299.394,1563.4449,292.1799,1558.3631,294.6648,1555.8782,289.5829,1556.74,299.394" style="stroke:#A80036;stroke-width:1.0;"/><text fill="#000000" font-family="sans-serif" font-size="13" lengthAdjust="spacing" textLength="36" x="1563" y="259.0669">share</text><!--MD5=[e504e4f8bc1db7b3004403356d66d49b]
link Admin to CourseContent--><path codeLine="105" d="M246.585,158.68 C245.358,188.286 244.426,227.977 246,263 C246.458,273.193 247.388,284.408 248.322,294.072 " fill="none" id="Admin-to-CourseContent" style="stroke:#A80036;stroke-width:1.0;"/><polygon fill="#A80036" points="248.839,299.265,251.9271,289.9128,248.3433,294.2896,243.9665,290.7059,248.839,299.265" style="stroke:#A80036;stroke-width:1.0;"/><text fill="#000000" font-family="sans-serif" font-size="13" lengthAdjust="spacing" textLength="24" x="247" y="259.0669">add</text><!--MD5=[5ee7caafe67fd911674890a19f5f4901]
link Entrepreneur to Access--><path codeLine="106" d="M256.665,503.516 C214.248,516.945 159.769,541.307 129,583 C110.975,607.424 108.395,643.356 109.029,667.084 " fill="none" id="Entrepreneur-to-Access" style="stroke:#A80036;stroke-width:1.0;"/><polygon fill="#A80036" points="109.223,672.247,112.8807,663.1025,109.0344,667.2506,104.8864,663.4043,109.223,672.247" style="stroke:#A80036;stroke-width:1.0;"/><text fill="#000000" font-family="sans-serif" font-size="13" lengthAdjust="spacing" textLength="32" x="130" y="614.0669">have</text><!--MD5=[2dd21c5e4d24a00e804d12dd0c7b0d9f]
link User to Comment--><path codeLine="107" d="M1180.11,146.54 C1208.95,172.455 1249.39,210.201 1282,246 C1296.26,261.662 1311.01,280.501 1321.93,295.05 " fill="none" id="User-to-Comment" style="stroke:#A80036;stroke-width:1.0;"/><polygon fill="#A80036" points="1325.19,299.419,1323.0032,289.816,1322.1955,295.4149,1316.5966,294.6072,1325.19,299.419" style="stroke:#A80036;stroke-width:1.0;"/><text fill="#000000" font-family="sans-serif" font-size="13" lengthAdjust="spacing" textLength="28" x="1297" y="259.0669">post</text><!--MD5=[b583accc9d78332e0a1d2e7345e27147]
link Entrepreneur to Profile--><path codeLine="108" d="M377.135,527.16 C399.084,542.825 423.128,562.176 442,583 C463.515,606.74 481.87,638.488 493.72,661.504 " fill="none" id="Entrepreneur-to-Profile" style="stroke:#A80036;stroke-width:1.0;"/><polygon fill="#A80036" points="496.003,665.985,495.4841,656.1498,493.7344,661.5293,488.355,659.7795,496.003,665.985" style="stroke:#A80036;stroke-width:1.0;"/><text fill="#000000" font-family="sans-serif" font-size="13" lengthAdjust="spacing" textLength="60" x="480" y="614.0669">complete</text><!--MD5=[0afe85d0564bc9ff4abfc949b976bae7]
link Maintainer to Application--><path codeLine="110" d="M439.053,146.072 C418.148,171.293 391.338,208.352 378,246 C372.516,261.48 371.055,279.939 370.945,294.357 " fill="none" id="Maintainer-to-Application" style="stroke:#A80036;stroke-width:1.0;"/><polygon fill="#A80036" points="370.961,299.473,374.9327,290.4605,370.9453,294.473,366.9327,290.4856,370.961,299.473" style="stroke:#A80036;stroke-width:1.0;"/><text fill="#000000" font-family="sans-serif" font-size="13" lengthAdjust="spacing" textLength="45" x="379" y="259.0669">update</text><!--MD5=[52c698a7fba8b5afe1d0dc0621d3208a]
link Entrepreneur to Questionnaire--><path codeLine="111" d="M377.49,502.708 C427.651,516.442 498.648,541.599 549,583 C574.756,604.178 594.477,637.173 606.524,661.22 " fill="none" id="Entrepreneur-to-Questionnaire" style="stroke:#A80036;stroke-width:1.0;"/><polygon fill="#A80036" points="608.83,665.904,608.4431,656.0627,606.6214,661.4182,601.2659,659.5965,608.83,665.904" style="stroke:#A80036;stroke-width:1.0;"/><text fill="#000000" font-family="sans-serif" font-size="13" lengthAdjust="spacing" textLength="60" x="593" y="614.0669">complete</text><!--MD5=[c193d69033934650b8a94c1441c76782]
link Admin to Quality--><path codeLine="112" d="M209.736,147.993 C180.477,173.914 140.041,211 107,246 C92.0326,261.855 76.365,280.882 64.7946,295.465 " fill="none" id="Admin-to-Quality" style="stroke:#A80036;stroke-width:1.0;"/><polygon fill="#A80036" points="61.6438,299.454,70.3619,294.872,64.7435,295.5308,64.0847,289.9124,61.6438,299.454" style="stroke:#A80036;stroke-width:1.0;"/><text fill="#000000" font-family="sans-serif" font-size="13" lengthAdjust="spacing" textLength="54" x="108" y="259.0669">increase</text><!--MD5=[9d9c6880ca964776b77e2c7082356ba0]
link User to Version--><path codeLine="113" d="M1180.22,139.201 C1218.89,165.509 1281.05,208.132 1334,246 C1357.21,262.596 1383.15,281.817 1402.51,296.297 " fill="none" id="User-to-Version" style="stroke:#A80036;stroke-width:1.0;"/><polygon fill="#A80036" points="1406.78,299.497,1401.9771,290.8986,1402.779,296.4984,1397.1792,297.3003,1406.78,299.497" style="stroke:#A80036;stroke-width:1.0;"/><text fill="#000000" font-family="sans-serif" font-size="13" lengthAdjust="spacing" textLength="23" x="1357" y="259.0669">use</text><!--MD5=[b1cba03988d3e837214722b46aedd55f]
link Admin to Algorithm--><path codeLine="116" d="M224.56,158.626 C203,197.991 172.174,254.276 153.434,288.494 " fill="none" id="Admin-to-Algorithm" style="stroke:#A80036;stroke-width:1.0;"/><polygon fill="#A80036" points="150.984,292.966,158.8149,286.993,153.3854,288.5804,151.798,283.1508,150.984,292.966" style="stroke:#A80036;stroke-width:1.0;"/><text fill="#000000" font-family="sans-serif" font-size="13" lengthAdjust="spacing" textLength="23" x="178" y="259.0669">use</text><!--MD5=[dd0fb25622e670714349597d13fa38a0]
link Maintainer to App--><path codeLine="118" d="M481.785,146.404 C499.348,187.685 529.288,258.062 544.882,294.718 " fill="none" id="Maintainer-to-App" style="stroke:#A80036;stroke-width:1.0;"/><polygon fill="#A80036" points="546.894,299.445,547.0497,289.5974,544.9358,294.8444,539.6887,292.7305,546.894,299.445" style="stroke:#A80036;stroke-width:1.0;"/><text fill="#000000" font-family="sans-serif" font-size="13" lengthAdjust="spacing" textLength="30" x="531" y="259.0669">build</text><!--MD5=[b440be9399b0f118b600d47129af5a81]
@startuml
hide circle
class Admin<actor> {
}
class User<actor> {
	account
}
class Maintainer<actor> {
}
class Entrepreneur<actor> {
}
class Maintainer {
	update()
	build()
}
class App {
}
class Entrepreneur {
	see()
	match()
	resubmit()
	edit()
	complete()
	submit()
	have()
}
class Information {
}
class User {
	comment()
	sign_up()
	receive()
	share()
	like()
	send()
	use()
	access()
	reset()
	delete()
	change()
	post()
}
class Post {
}
class Access {
}
class Algorithm {
	match()
}
class Mentor {
	assign()
}
class Message {
}
class NewsFeed {
}
class Issue {
}
class Admin {
	add()
	disable()
	use()
	increase()
}
class CourseContent {
}
class Application {
}
class Quality {
}
class Password {
}
class Comment {
}
class Profile {
	provide()
}
class Account {
}
class HomeworkAssignment {
}
class Questionnaire {
	provide()
}
class Version {
}
Questionnaire - -> Information : provide
Entrepreneur - -> HomeworkAssignment : submit
User - -> NewsFeed : share
Mentor o- - Information
Entrepreneur - -> Information : see
Profile - -> Information : provide
Admin - -> Application : add
Algorithm - -> Mentor : match
User - -> Message : send
Algorithm - -> Entrepreneur : match
User - -> Message : receive
Admin - -> Account : disable
User - -> NewsFeed : like
User - -> Password : change
User o- - Account : delete
User - -> Issue : post
User - -> Post : like
User - -> NewsFeed : comment
User - -> Post : comment
Admin - -> CourseContent : add
Entrepreneur - -> Access : have
User - -> Comment : post
Entrepreneur - -> Profile : complete
Entrepreneur - -> HomeworkAssignment : resubmit
Maintainer - -> Application : update
Entrepreneur - -> Questionnaire : complete
Admin - -> Quality : increase
User - -> Version : use
Entrepreneur - -> HomeworkAssignment : edit
User - -> Password : reset
Admin - -> Algorithm : use
User - -> Post : share
Maintainer - -> App : build
@enduml

PlantUML version 1.2021.10beta2(Unknown compile time)
(GPL source distribution)
Java Runtime: Java(TM) SE Runtime Environment
JVM: Java HotSpot(TM) 64-Bit Server VM
Default Encoding: UTF-8
Language: en
Country: US
--></g></svg>