<?xml version="1.0" encoding="UTF-8" standalone="no"?><svg xmlns="http://www.w3.org/2000/svg" xmlns:xlink="http://www.w3.org/1999/xlink" contentScriptType="application/ecmascript" contentStyleType="text/css" height="244px" preserveAspectRatio="none" style="width:696px;height:244px;background:#FFFFFF;" version="1.1" viewBox="0 0 696 244" width="696px" zoomAndPan="magnify"><defs><filter height="300%" id="fp1f5qcfqggeg" width="300%" x="-1" y="-1"><feGaussianBlur result="blurOut" stdDeviation="2.0"/><feColorMatrix in="blurOut" result="blurOut2" type="matrix" values="0 0 0 0 0 0 0 0 0 0 0 0 0 0 0 0 0 0 .4 0"/><feOffset dx="4.0" dy="4.0" in="blurOut2" result="blurOut3"/><feBlend in="SourceGraphic" in2="blurOut3" mode="normal"/></filter></defs><g><!--MD5=[3cab58e622330109321580dbb0b85605]
class Input--><rect codeLine="2" fill="#FEFECE" filter="url(#fp1f5qcfqggeg)" height="39.9688" id="Input" style="stroke:#A80036;stroke-width:1.5;" width="70" x="7" y="42"/><text fill="#000000" font-family="sans-serif" font-size="12" lengthAdjust="spacing" textLength="29" x="10" y="58.1387">Input</text><rect fill="#FFFFFF" height="15.9688" style="stroke:#000000;stroke-width:1.0;stroke-dasharray:2.0,2.0;" width="33" x="47" y="39"/><text fill="#000000" font-family="sans-serif" font-size="12" font-style="italic" lengthAdjust="spacing" textLength="31" x="48" y="51.1387">actor</text><line style="stroke:#A80036;stroke-width:1.5;" x1="8" x2="76" y1="65.9688" y2="65.9688"/><line style="stroke:#A80036;stroke-width:1.5;" x1="8" x2="76" y1="73.9688" y2="73.9688"/><!--MD5=[3fd616f346a44cd59a91eb10b19e157c]
class User--><rect codeLine="17" fill="#FEFECE" filter="url(#fp1f5qcfqggeg)" height="65.5781" id="User" style="stroke:#A80036;stroke-width:1.5;" width="70" x="112" y="29"/><text fill="#000000" font-family="sans-serif" font-size="12" lengthAdjust="spacing" textLength="29" x="115" y="45.1387">User</text><rect fill="#FFFFFF" height="15.9688" style="stroke:#000000;stroke-width:1.0;stroke-dasharray:2.0,2.0;" width="33" x="152" y="26"/><text fill="#000000" font-family="sans-serif" font-size="12" font-style="italic" lengthAdjust="spacing" textLength="31" x="153" y="38.1387">actor</text><line style="stroke:#A80036;stroke-width:1.5;" x1="113" x2="181" y1="52.9688" y2="52.9688"/><line style="stroke:#A80036;stroke-width:1.5;" x1="113" x2="181" y1="60.9688" y2="60.9688"/><text fill="#000000" font-family="sans-serif" font-size="11" lengthAdjust="spacing" textLength="49" x="118" y="75.1792">choose()</text><text fill="#000000" font-family="sans-serif" font-size="11" lengthAdjust="spacing" textLength="46" x="118" y="87.9839">upload()</text><!--MD5=[ed6624c6556d5e7b1bd23032162d20b7]
class Client--><rect codeLine="8" fill="#FEFECE" filter="url(#fp1f5qcfqggeg)" height="103.9922" id="Client" style="stroke:#A80036;stroke-width:1.5;" width="74" x="412" y="10"/><text fill="#000000" font-family="sans-serif" font-size="12" lengthAdjust="spacing" textLength="33" x="415" y="26.1387">Client</text><rect fill="#FFFFFF" height="15.9688" style="stroke:#000000;stroke-width:1.0;stroke-dasharray:2.0,2.0;" width="33" x="456" y="7"/><text fill="#000000" font-family="sans-serif" font-size="12" font-style="italic" lengthAdjust="spacing" textLength="31" x="457" y="19.1387">actor</text><line style="stroke:#A80036;stroke-width:1.5;" x1="413" x2="485" y1="33.9688" y2="33.9688"/><line style="stroke:#A80036;stroke-width:1.5;" x1="413" x2="485" y1="41.9688" y2="41.9688"/><text fill="#000000" font-family="sans-serif" font-size="11" lengthAdjust="spacing" textLength="33" x="418" y="56.1792">train()</text><text fill="#000000" font-family="sans-serif" font-size="11" lengthAdjust="spacing" textLength="48" x="418" y="68.9839">extract()</text><text fill="#000000" font-family="sans-serif" font-size="11" lengthAdjust="spacing" textLength="46" x="418" y="81.7886">upload()</text><text fill="#000000" font-family="sans-serif" font-size="11" lengthAdjust="spacing" textLength="30" x="418" y="94.5933">see()</text><text fill="#000000" font-family="sans-serif" font-size="11" lengthAdjust="spacing" textLength="51" x="418" y="107.3979">replace()</text><!--MD5=[7e20e022571e30ec1001cf6eabd7f3e2]
class Model--><rect codeLine="15" fill="#FEFECE" filter="url(#fp1f5qcfqggeg)" height="39.9688" id="Model" style="stroke:#A80036;stroke-width:1.5;" width="43" x="339.5" y="191"/><text fill="#000000" font-family="sans-serif" font-size="12" lengthAdjust="spacing" textLength="37" x="342.5" y="207.1387">Model</text><line style="stroke:#A80036;stroke-width:1.5;" x1="340.5" x2="381.5" y1="214.9688" y2="214.9688"/><line style="stroke:#A80036;stroke-width:1.5;" x1="340.5" x2="381.5" y1="222.9688" y2="222.9688"/><!--MD5=[39d6d2ea03de602dbf4d534e70c872a9]
class Tag--><rect codeLine="21" fill="#FEFECE" filter="url(#fp1f5qcfqggeg)" height="39.9688" id="Tag" style="stroke:#A80036;stroke-width:1.5;" width="28" x="89" y="191"/><text fill="#000000" font-family="sans-serif" font-size="12" lengthAdjust="spacing" textLength="22" x="92" y="207.1387">Tag</text><line style="stroke:#A80036;stroke-width:1.5;" x1="90" x2="116" y1="214.9688" y2="214.9688"/><line style="stroke:#A80036;stroke-width:1.5;" x1="90" x2="116" y1="222.9688" y2="222.9688"/><!--MD5=[1337a0cce0671f1bf71893bca8a76aa6]
class Machine--><rect codeLine="23" fill="#FEFECE" filter="url(#fp1f5qcfqggeg)" height="39.9688" id="Machine" style="stroke:#A80036;stroke-width:1.5;" width="55" x="421.5" y="191"/><text fill="#000000" font-family="sans-serif" font-size="12" lengthAdjust="spacing" textLength="49" x="424.5" y="207.1387">Machine</text><line style="stroke:#A80036;stroke-width:1.5;" x1="422.5" x2="475.5" y1="214.9688" y2="214.9688"/><line style="stroke:#A80036;stroke-width:1.5;" x1="422.5" x2="475.5" y1="222.9688" y2="222.9688"/><!--MD5=[964f074a2dd77d134c21b891bb53e381]
class Image--><rect codeLine="25" fill="#FEFECE" filter="url(#fp1f5qcfqggeg)" height="39.9688" id="Image" style="stroke:#A80036;stroke-width:1.5;" width="43" x="211.5" y="191"/><text fill="#000000" font-family="sans-serif" font-size="12" lengthAdjust="spacing" textLength="37" x="214.5" y="207.1387">Image</text><line style="stroke:#A80036;stroke-width:1.5;" x1="212.5" x2="253.5" y1="214.9688" y2="214.9688"/><line style="stroke:#A80036;stroke-width:1.5;" x1="212.5" x2="253.5" y1="222.9688" y2="222.9688"/><!--MD5=[5d7f87ad7be124bcf8ad2c9ead1692a4]
class Pipeline--><rect codeLine="27" fill="#FEFECE" filter="url(#fp1f5qcfqggeg)" height="39.9688" id="Pipeline" style="stroke:#A80036;stroke-width:1.5;" width="52" x="512" y="191"/><text fill="#000000" font-family="sans-serif" font-size="12" lengthAdjust="spacing" textLength="46" x="515" y="207.1387">Pipeline</text><line style="stroke:#A80036;stroke-width:1.5;" x1="513" x2="563" y1="214.9688" y2="214.9688"/><line style="stroke:#A80036;stroke-width:1.5;" x1="513" x2="563" y1="222.9688" y2="222.9688"/><!--MD5=[090baa0da4ff03e6b68a244d81271cc4]
class classification--><rect codeLine="29" fill="#FEFECE" filter="url(#fp1f5qcfqggeg)" height="39.9688" id="classification" style="stroke:#A80036;stroke-width:1.5;" width="83" x="599.5" y="191"/><text fill="#000000" font-family="sans-serif" font-size="12" lengthAdjust="spacing" textLength="77" x="602.5" y="207.1387">classification</text><line style="stroke:#A80036;stroke-width:1.5;" x1="600.5" x2="681.5" y1="214.9688" y2="214.9688"/><line style="stroke:#A80036;stroke-width:1.5;" x1="600.5" x2="681.5" y1="222.9688" y2="222.9688"/><!--MD5=[347ae774c4c4cf6073041b2a5c91cdf2]
link Client to Machine--><path codeLine="31" d="M446.253,114.117 C445.761,129.214 445.534,145.7726 446,161 C446.246,169.0291 446.717,177.7878 447.215,185.6506 " fill="none" id="Client-to-Machine" style="stroke:#A80036;stroke-width:1.0;"/><polygon fill="#A80036" points="447.561,190.931,450.9634,181.6885,447.2338,185.9417,442.9805,182.2121,447.561,190.931" style="stroke:#A80036;stroke-width:1.0;"/><text fill="#000000" font-family="sans-serif" font-size="13" lengthAdjust="spacing" textLength="47" x="447" y="157.0669">replace</text><!--MD5=[a27555979845385991c022b1bcd3d809]
link Client to Model--><path codeLine="32" d="M411.978,110.252 C404.26,121.052 396.503,132.688 390,144 C382.29,157.4103 375.265,173.2555 370.061,186.0588 " fill="none" id="Client-to-Model" style="stroke:#A80036;stroke-width:1.0;"/><polygon fill="#A80036" points="368.088,190.9839,375.1486,184.1175,369.9478,186.3427,367.7226,181.1418,368.088,190.9839" style="stroke:#A80036;stroke-width:1.0;"/><text fill="#000000" font-family="sans-serif" font-size="13" lengthAdjust="spacing" textLength="46" x="391" y="157.0669">extract</text><!--MD5=[af659dcf0828431e08f7049b48145d57]
link Client to classification--><path codeLine="33" d="M486.02,91.343 C522.774,119.483 578.361,162.0419 612.017,187.81 " fill="none" id="Client-to-classification" style="stroke:#A80036;stroke-width:1.0;"/><polygon fill="#A80036" points="616.01,190.8671,611.2961,182.2196,612.0401,187.8273,606.4324,188.5714,616.01,190.8671" style="stroke:#A80036;stroke-width:1.0;"/><text fill="#000000" font-family="sans-serif" font-size="13" lengthAdjust="spacing" textLength="23" x="574" y="157.0669">see</text><!--MD5=[ec99a9ecca4dbd5d39f724ed3a1226e5]
link User to Image--><path codeLine="34" d="M157.299,95.274 C164.382,115.084 174.872,140.4984 188,161 C193.888,170.1948 201.563,179.2804 208.903,187.0837 " fill="none" id="User-to-Image" style="stroke:#A80036;stroke-width:1.0;"/><polygon fill="#A80036" points="212.47,190.8063,209.131,181.5407,209.0106,187.1963,203.355,187.0758,212.47,190.8063" style="stroke:#A80036;stroke-width:1.0;"/><text fill="#000000" font-family="sans-serif" font-size="13" lengthAdjust="spacing" textLength="43" x="189" y="157.0669">upload</text><!--MD5=[f79da127e1b4d6a6e5d53da9189c090a]
link Client to Image--><path codeLine="35" d="M411.915,87.914 C388.174,103.892 356.732,125.108 329,144 C305.224,160.1972 278.231,178.7711 258.937,192.08 " fill="none" id="Client-to-Image" style="stroke:#A80036;stroke-width:1.0;"/><polygon fill="#A80036" points="254.696,195.006,264.3753,193.1866,258.8113,192.1662,259.8317,186.6021,254.696,195.006" style="stroke:#A80036;stroke-width:1.0;"/><text fill="#000000" font-family="sans-serif" font-size="13" lengthAdjust="spacing" textLength="43" x="330" y="157.0669">upload</text><!--MD5=[2ee27a3c226c8efddfe3344676e0d9e8]
link User to Tag--><path codeLine="36" d="M123.111,95.135 C113.979,109.346 104.6475,126.73 100,144 C96.3747,157.4713 96.8713,173.0396 98.3915,185.6717 " fill="none" id="User-to-Tag" style="stroke:#A80036;stroke-width:1.0;"/><polygon fill="#A80036" points="99.0966,190.8909,101.8554,181.4363,98.427,185.9359,93.9274,182.5076,99.0966,190.8909" style="stroke:#A80036;stroke-width:1.0;"/><text fill="#000000" font-family="sans-serif" font-size="13" lengthAdjust="spacing" textLength="46" x="101" y="157.0669">choose</text><!--MD5=[a66cf45e9b16d3819df4923c26f08b9d]
link Client to Pipeline--><path codeLine="37" d="M480.89,114.328 C486.939,124.157 493.19,134.3809 499,144 C507.457,158.0019 516.783,173.7721 524.195,186.3851 " fill="none" id="Client-to-Pipeline" style="stroke:#A80036;stroke-width:1.0;"/><polygon fill="#A80036" points="526.833,190.88,525.7257,181.0936,524.3015,186.5682,518.8269,185.144,526.833,190.88" style="stroke:#A80036;stroke-width:1.0;"/><text fill="#000000" font-family="sans-serif" font-size="13" lengthAdjust="spacing" textLength="29" x="510" y="157.0669">train</text><!--MD5=[701e3f90202bfb0bb2ed8874f8cf325f]
@startuml
hide circle
class Input<actor> {
}
class User<actor> {
}
class Client<actor> {
}
class Client {
	train()
	extract()
	upload()
	see()
	replace()
}
class Model {
}
class User {
	choose()
	upload()
}
class Tag {
}
class Machine {
}
class Image {
}
class Pipeline {
}
class classification {
}
Client - -> Machine : replace
Client - -> Model : extract
Client - -> classification : see
User - -> Image : upload
Client - -> Image : upload
User - -> Tag : choose
Client - -> Pipeline : train
@enduml

PlantUML version 1.2021.6beta6(Unknown compile time)
(GPL source distribution)
Java Runtime: Java(TM) SE Runtime Environment
JVM: Java HotSpot(TM) 64-Bit Server VM
Default Encoding: UTF-8
Language: en
Country: US
--></g></svg>