<?xml version="1.0" encoding="UTF-8" standalone="no"?><svg xmlns="http://www.w3.org/2000/svg" xmlns:xlink="http://www.w3.org/1999/xlink" contentScriptType="application/ecmascript" contentStyleType="text/css" height="473px" preserveAspectRatio="none" style="width:1896px;height:473px;background:#FFFFFF;" version="1.1" viewBox="0 0 1896 473" width="1896px" zoomAndPan="magnify"><defs><filter height="300%" id="fpxubw9mnjyuk" width="300%" x="-1" y="-1"><feGaussianBlur result="blurOut" stdDeviation="2.0"/><feColorMatrix in="blurOut" result="blurOut2" type="matrix" values="0 0 0 0 0 0 0 0 0 0 0 0 0 0 0 0 0 0 .4 0"/><feOffset dx="4.0" dy="4.0" in="blurOut2" result="blurOut3"/><feBlend in="SourceGraphic" in2="blurOut3" mode="normal"/></filter></defs><g><!--MD5=[3fd616f346a44cd59a91eb10b19e157c]
class User--><rect codeLine="13" fill="#FEFECE" filter="url(#fpxubw9mnjyuk)" height="219.2344" id="User" style="stroke:#A80036;stroke-width:1.5;" width="76" x="729.4655" y="10"/><text fill="#000000" font-family="sans-serif" font-size="12" lengthAdjust="spacing" textLength="29" x="735.4655" y="26.1387">User</text><rect fill="#FFFFFF" height="15.9688" style="stroke:#000000;stroke-width:1.0;stroke-dasharray:2.0,2.0;" width="33" x="775.4655" y="7"/><text fill="#000000" font-family="sans-serif" font-size="12" font-style="italic" lengthAdjust="spacing" textLength="31" x="776.4655" y="19.1387">actor</text><line style="stroke:#A80036;stroke-width:1.5;" x1="730.4655" x2="804.4655" y1="33.9688" y2="33.9688"/><text fill="#000000" font-family="sans-serif" font-size="11" lengthAdjust="spacing" textLength="64" x="735.4655" y="48.1792">priceRange</text><text fill="#000000" font-family="sans-serif" font-size="11" lengthAdjust="spacing" textLength="36" x="735.4655" y="60.9839">phone</text><line style="stroke:#A80036;stroke-width:1.5;" x1="730.4655" x2="804.4655" y1="67.5781" y2="67.5781"/><text fill="#000000" font-family="sans-serif" font-size="11" lengthAdjust="spacing" textLength="29" x="735.4655" y="81.7886">buy()</text><text fill="#000000" font-family="sans-serif" font-size="11" lengthAdjust="spacing" textLength="30" x="735.4655" y="94.5933">see()</text><text fill="#000000" font-family="sans-serif" font-size="11" lengthAdjust="spacing" textLength="61" x="735.4655" y="107.3979">minimize()</text><text fill="#000000" font-family="sans-serif" font-size="11" lengthAdjust="spacing" textLength="41" x="735.4655" y="120.2026">follow()</text><text fill="#000000" font-family="sans-serif" font-size="11" lengthAdjust="spacing" textLength="27" x="735.4655" y="133.0073">get()</text><text fill="#000000" font-family="sans-serif" font-size="11" lengthAdjust="spacing" textLength="42" x="735.4655" y="145.812">waste()</text><text fill="#000000" font-family="sans-serif" font-size="11" lengthAdjust="spacing" textLength="35" x="735.4655" y="158.6167">slide()</text><text fill="#000000" font-family="sans-serif" font-size="11" lengthAdjust="spacing" textLength="29" x="735.4655" y="171.4214">sort()</text><text fill="#000000" font-family="sans-serif" font-size="11" lengthAdjust="spacing" textLength="55" x="735.4655" y="184.2261">collapse()</text><text fill="#000000" font-family="sans-serif" font-size="11" lengthAdjust="spacing" textLength="35" x="735.4655" y="197.0308">view()</text><text fill="#000000" font-family="sans-serif" font-size="11" lengthAdjust="spacing" textLength="35" x="735.4655" y="209.8354">shop()</text><text fill="#000000" font-family="sans-serif" font-size="11" lengthAdjust="spacing" textLength="24" x="735.4655" y="222.6401">list()</text><!--MD5=[3a082f03ada48a9c9760bc64ea0753c5]
class Retailer--><rect codeLine="49" fill="#FEFECE" filter="url(#fpxubw9mnjyuk)" height="65.5781" id="Retailer" style="stroke:#A80036;stroke-width:1.5;" width="86" x="1262.4655" y="86.5"/><text fill="#000000" font-family="sans-serif" font-size="12" lengthAdjust="spacing" textLength="45" x="1265.4655" y="102.6387">Retailer</text><rect fill="#FFFFFF" height="15.9688" style="stroke:#000000;stroke-width:1.0;stroke-dasharray:2.0,2.0;" width="33" x="1318.4655" y="83.5"/><text fill="#000000" font-family="sans-serif" font-size="12" font-style="italic" lengthAdjust="spacing" textLength="31" x="1319.4655" y="95.6387">actor</text><line style="stroke:#A80036;stroke-width:1.5;" x1="1263.4655" x2="1347.4655" y1="110.4688" y2="110.4688"/><text fill="#000000" font-family="sans-serif" font-size="11" lengthAdjust="spacing" textLength="45" x="1268.4655" y="124.6792">website</text><line style="stroke:#A80036;stroke-width:1.5;" x1="1263.4655" x2="1347.4655" y1="131.2734" y2="131.2734"/><text fill="#000000" font-family="sans-serif" font-size="11" lengthAdjust="spacing" textLength="37" x="1268.4655" y="145.4839">have()</text><!--MD5=[0b23b6a8778191db2a6dd3041d271245]
class SlideLayout--><rect codeLine="9" fill="#FEFECE" filter="url(#fpxubw9mnjyuk)" height="39.9688" id="SlideLayout" style="stroke:#A80036;stroke-width:1.5;" width="75" x="77.9653" y="420"/><text fill="#000000" font-family="sans-serif" font-size="12" lengthAdjust="spacing" textLength="69" x="80.9653" y="436.1387">SlideLayout</text><line style="stroke:#A80036;stroke-width:1.5;" x1="78.9653" x2="151.9653" y1="443.9688" y2="443.9688"/><line style="stroke:#A80036;stroke-width:1.5;" x1="78.9653" x2="151.9653" y1="451.9688" y2="451.9688"/><!--MD5=[964f074a2dd77d134c21b891bb53e381]
class Image--><rect codeLine="11" fill="#FEFECE" filter="url(#fpxubw9mnjyuk)" height="39.9688" id="Image" style="stroke:#A80036;stroke-width:1.5;" width="43" x="260.9655" y="420"/><text fill="#000000" font-family="sans-serif" font-size="12" lengthAdjust="spacing" textLength="37" x="263.9655" y="436.1387">Image</text><line style="stroke:#A80036;stroke-width:1.5;" x1="261.9655" x2="302.9655" y1="443.9688" y2="443.9688"/><line style="stroke:#A80036;stroke-width:1.5;" x1="261.9655" x2="302.9655" y1="451.9688" y2="451.9688"/><!--MD5=[6a494c20d032ff54e1efa92c1369bc7b]
class Page--><rect codeLine="27" fill="#FEFECE" filter="url(#fpxubw9mnjyuk)" height="39.9688" id="Page" style="stroke:#A80036;stroke-width:1.5;" width="35" x="429.9655" y="312.5"/><text fill="#000000" font-family="sans-serif" font-size="12" lengthAdjust="spacing" textLength="29" x="432.9655" y="328.6387">Page</text><line style="stroke:#A80036;stroke-width:1.5;" x1="430.9655" x2="463.9655" y1="336.4688" y2="336.4688"/><line style="stroke:#A80036;stroke-width:1.5;" x1="430.9655" x2="463.9655" y1="344.4688" y2="344.4688"/><!--MD5=[72136138052d025cffdce3c22fbd185f]
class Product--><rect codeLine="29" fill="#FEFECE" filter="url(#fpxubw9mnjyuk)" height="52.7734" id="Product" style="stroke:#A80036;stroke-width:1.5;" width="51" x="203.9655" y="306"/><text fill="#000000" font-family="sans-serif" font-size="12" lengthAdjust="spacing" textLength="45" x="206.9655" y="322.1387">Product</text><line style="stroke:#A80036;stroke-width:1.5;" x1="204.9655" x2="253.9655" y1="329.9688" y2="329.9688"/><line style="stroke:#A80036;stroke-width:1.5;" x1="204.9655" x2="253.9655" y1="337.9688" y2="337.9688"/><text fill="#000000" font-family="sans-serif" font-size="11" lengthAdjust="spacing" textLength="24" x="209.9655" y="352.1792">list()</text><!--MD5=[6e17115284426477538ba7ec818be746]
class Clothing--><rect codeLine="32" fill="#FEFECE" filter="url(#fpxubw9mnjyuk)" height="39.9688" id="Clothing" style="stroke:#A80036;stroke-width:1.5;" width="54" x="602.4655" y="312.5"/><text fill="#000000" font-family="sans-serif" font-size="12" lengthAdjust="spacing" textLength="48" x="605.4655" y="328.6387">Clothing</text><line style="stroke:#A80036;stroke-width:1.5;" x1="603.4655" x2="655.4655" y1="336.4688" y2="336.4688"/><line style="stroke:#A80036;stroke-width:1.5;" x1="603.4655" x2="655.4655" y1="344.4688" y2="344.4688"/><!--MD5=[9d93cc8568a88ed605ddd50c0dd874e2]
class Media--><rect codeLine="34" fill="#FEFECE" filter="url(#fpxubw9mnjyuk)" height="52.7734" id="Media" style="stroke:#A80036;stroke-width:1.5;" width="45" x="1836.9655" y="93"/><text fill="#000000" font-family="sans-serif" font-size="12" lengthAdjust="spacing" textLength="36" x="1841.4655" y="109.1387">Media</text><line style="stroke:#A80036;stroke-width:1.5;" x1="1837.9655" x2="1880.9655" y1="116.9688" y2="116.9688"/><line style="stroke:#A80036;stroke-width:1.5;" x1="1837.9655" x2="1880.9655" y1="124.9688" y2="124.9688"/><text fill="#000000" font-family="sans-serif" font-size="11" lengthAdjust="spacing" textLength="33" x="1842.9655" y="139.1792">user()</text><!--MD5=[f9979e0582a854fef1ace7e94e409464]
class Frenzy--><rect codeLine="37" fill="#FEFECE" filter="url(#fpxubw9mnjyuk)" height="39.9688" id="Frenzy" style="stroke:#A80036;stroke-width:1.5;" width="47" x="1835.9655" y="312.5"/><text fill="#000000" font-family="sans-serif" font-size="12" lengthAdjust="spacing" textLength="41" x="1838.9655" y="328.6387">Frenzy</text><line style="stroke:#A80036;stroke-width:1.5;" x1="1836.9655" x2="1881.9655" y1="336.4688" y2="336.4688"/><line style="stroke:#A80036;stroke-width:1.5;" x1="1836.9655" x2="1881.9655" y1="344.4688" y2="344.4688"/><!--MD5=[44a1b4afaef76c16e6c9ec4990ad0c8d]
class Item--><rect codeLine="39" fill="#FEFECE" filter="url(#fpxubw9mnjyuk)" height="39.9688" id="Item" style="stroke:#A80036;stroke-width:1.5;" width="32" x="691.4655" y="312.5"/><text fill="#000000" font-family="sans-serif" font-size="12" lengthAdjust="spacing" textLength="26" x="694.4655" y="328.6387">Item</text><line style="stroke:#A80036;stroke-width:1.5;" x1="692.4655" x2="722.4655" y1="336.4688" y2="336.4688"/><line style="stroke:#A80036;stroke-width:1.5;" x1="692.4655" x2="722.4655" y1="344.4688" y2="344.4688"/><!--MD5=[a7998728ec5159d0ecbc950d0709be7b]
class Trend--><rect codeLine="41" fill="#FEFECE" filter="url(#fpxubw9mnjyuk)" height="39.9688" id="Trend" style="stroke:#A80036;stroke-width:1.5;" width="41" x="758.9655" y="312.5"/><text fill="#000000" font-family="sans-serif" font-size="12" lengthAdjust="spacing" textLength="35" x="761.9655" y="328.6387">Trend</text><line style="stroke:#A80036;stroke-width:1.5;" x1="759.9655" x2="798.9655" y1="336.4688" y2="336.4688"/><line style="stroke:#A80036;stroke-width:1.5;" x1="759.9655" x2="798.9655" y1="344.4688" y2="344.4688"/><!--MD5=[b875eb2a6d4ff9e6a3852fd4edc20d45]
class Cost--><rect codeLine="43" fill="#FEFECE" filter="url(#fpxubw9mnjyuk)" height="39.9688" id="Cost" style="stroke:#A80036;stroke-width:1.5;" width="33" x="834.9655" y="312.5"/><text fill="#000000" font-family="sans-serif" font-size="12" lengthAdjust="spacing" textLength="27" x="837.9655" y="328.6387">Cost</text><line style="stroke:#A80036;stroke-width:1.5;" x1="835.9655" x2="866.9655" y1="336.4688" y2="336.4688"/><line style="stroke:#A80036;stroke-width:1.5;" x1="835.9655" x2="866.9655" y1="344.4688" y2="344.4688"/><!--MD5=[c160724f8e3bb89ca8141a12554ac2e3]
class Collection--><rect codeLine="45" fill="#FEFECE" filter="url(#fpxubw9mnjyuk)" height="39.9688" id="Collection" style="stroke:#A80036;stroke-width:1.5;" width="65" x="902.9655" y="312.5"/><text fill="#000000" font-family="sans-serif" font-size="12" lengthAdjust="spacing" textLength="59" x="905.9655" y="328.6387">Collection</text><line style="stroke:#A80036;stroke-width:1.5;" x1="903.9655" x2="966.9655" y1="336.4688" y2="336.4688"/><line style="stroke:#A80036;stroke-width:1.5;" x1="903.9655" x2="966.9655" y1="344.4688" y2="344.4688"/><!--MD5=[c3bb88e6202ea5e73b6c35efdb0891b7]
class Loaderanimation--><rect codeLine="47" fill="#FEFECE" filter="url(#fpxubw9mnjyuk)" height="39.9688" id="Loaderanimation" style="stroke:#A80036;stroke-width:1.5;" width="105" x="1002.9655" y="312.5"/><text fill="#000000" font-family="sans-serif" font-size="12" lengthAdjust="spacing" textLength="99" x="1005.9655" y="328.6387">Loaderanimation</text><line style="stroke:#A80036;stroke-width:1.5;" x1="1003.9655" x2="1106.9655" y1="336.4688" y2="336.4688"/><line style="stroke:#A80036;stroke-width:1.5;" x1="1003.9655" x2="1106.9655" y1="344.4688" y2="344.4688"/><!--MD5=[028fba31e0312914fa4880b63f0540b8]
class Detail--><rect codeLine="52" fill="#FEFECE" filter="url(#fpxubw9mnjyuk)" height="39.9688" id="Detail" style="stroke:#A80036;stroke-width:1.5;" width="40" x="1143.4655" y="312.5"/><text fill="#000000" font-family="sans-serif" font-size="12" lengthAdjust="spacing" textLength="34" x="1146.4655" y="328.6387">Detail</text><line style="stroke:#A80036;stroke-width:1.5;" x1="1144.4655" x2="1182.4655" y1="336.4688" y2="336.4688"/><line style="stroke:#A80036;stroke-width:1.5;" x1="1144.4655" x2="1182.4655" y1="344.4688" y2="344.4688"/><!--MD5=[2e42295458bb0bec21c9622a623eb29e]
class Time--><rect codeLine="54" fill="#FEFECE" filter="url(#fpxubw9mnjyuk)" height="39.9688" id="Time" style="stroke:#A80036;stroke-width:1.5;" width="35" x="1218.9655" y="312.5"/><text fill="#000000" font-family="sans-serif" font-size="12" lengthAdjust="spacing" textLength="29" x="1221.9655" y="328.6387">Time</text><line style="stroke:#A80036;stroke-width:1.5;" x1="1219.9655" x2="1252.9655" y1="336.4688" y2="336.4688"/><line style="stroke:#A80036;stroke-width:1.5;" x1="1219.9655" x2="1252.9655" y1="344.4688" y2="344.4688"/><!--MD5=[0232c7177aaee3276cba5fa2fa6ac7d8]
class Userexperience--><rect codeLine="56" fill="#FEFECE" filter="url(#fpxubw9mnjyuk)" height="39.9688" id="Userexperience" style="stroke:#A80036;stroke-width:1.5;" width="104" x="1289.4655" y="312.5"/><text fill="#000000" font-family="sans-serif" font-size="12" lengthAdjust="spacing" textLength="98" x="1292.4655" y="328.6387">Userexperience</text><line style="stroke:#A80036;stroke-width:1.5;" x1="1290.4655" x2="1392.4655" y1="336.4688" y2="336.4688"/><line style="stroke:#A80036;stroke-width:1.5;" x1="1290.4655" x2="1392.4655" y1="344.4688" y2="344.4688"/><!--MD5=[26b1154f4b01dec99cfe7f1f8bee6bbb]
class Cluster--><rect codeLine="58" fill="#FEFECE" filter="url(#fpxubw9mnjyuk)" height="39.9688" id="Cluster" style="stroke:#A80036;stroke-width:1.5;" width="48" x="1428.4655" y="312.5"/><text fill="#000000" font-family="sans-serif" font-size="12" lengthAdjust="spacing" textLength="42" x="1431.4655" y="328.6387">Cluster</text><line style="stroke:#A80036;stroke-width:1.5;" x1="1429.4655" x2="1475.4655" y1="336.4688" y2="336.4688"/><line style="stroke:#A80036;stroke-width:1.5;" x1="1429.4655" x2="1475.4655" y1="344.4688" y2="344.4688"/><!--MD5=[1db584ee1b8127ea75535273dec2b4f2]
class Version--><rect codeLine="60" fill="#FEFECE" filter="url(#fpxubw9mnjyuk)" height="39.9688" id="Version" style="stroke:#A80036;stroke-width:1.5;" width="52" x="1511.4655" y="312.5"/><text fill="#000000" font-family="sans-serif" font-size="12" lengthAdjust="spacing" textLength="46" x="1514.4655" y="328.6387">Version</text><line style="stroke:#A80036;stroke-width:1.5;" x1="1512.4655" x2="1562.4655" y1="336.4688" y2="336.4688"/><line style="stroke:#A80036;stroke-width:1.5;" x1="1512.4655" x2="1562.4655" y1="344.4688" y2="344.4688"/><!--MD5=[03be55fb4aae919908819e432b9694ea]
class Phone--><rect codeLine="62" fill="#FEFECE" filter="url(#fpxubw9mnjyuk)" height="39.9688" id="Phone" style="stroke:#A80036;stroke-width:1.5;" width="42" x="1598.4655" y="312.5"/><text fill="#000000" font-family="sans-serif" font-size="12" lengthAdjust="spacing" textLength="36" x="1601.4655" y="328.6387">Phone</text><line style="stroke:#A80036;stroke-width:1.5;" x1="1599.4655" x2="1639.4655" y1="336.4688" y2="336.4688"/><line style="stroke:#A80036;stroke-width:1.5;" x1="1599.4655" x2="1639.4655" y1="344.4688" y2="344.4688"/><!--MD5=[a7f9118cae7621dd25d25149752faef0]
class Circle--><rect codeLine="64" fill="#FEFECE" filter="url(#fpxubw9mnjyuk)" height="39.9688" id="Circle" style="stroke:#A80036;stroke-width:1.5;" width="40" x="1675.4655" y="312.5"/><text fill="#000000" font-family="sans-serif" font-size="12" lengthAdjust="spacing" textLength="34" x="1678.4655" y="328.6387">Circle</text><line style="stroke:#A80036;stroke-width:1.5;" x1="1676.4655" x2="1714.4655" y1="336.4688" y2="336.4688"/><line style="stroke:#A80036;stroke-width:1.5;" x1="1676.4655" x2="1714.4655" y1="344.4688" y2="344.4688"/><!--MD5=[292033ffe4750640675b59034298e578]
class Display--><rect codeLine="66" fill="#FEFECE" filter="url(#fpxubw9mnjyuk)" height="39.9688" id="Display" style="stroke:#A80036;stroke-width:1.5;" width="50" x="1750.4655" y="312.5"/><text fill="#000000" font-family="sans-serif" font-size="12" lengthAdjust="spacing" textLength="44" x="1753.4655" y="328.6387">Display</text><line style="stroke:#A80036;stroke-width:1.5;" x1="1751.4655" x2="1799.4655" y1="336.4688" y2="336.4688"/><line style="stroke:#A80036;stroke-width:1.5;" x1="1751.4655" x2="1799.4655" y1="344.4688" y2="344.4688"/><!--MD5=[057ee07bb7b2e2aedbcccdbc42ce2201]
link User to Product--><path codeLine="68" d="M729.4325,123.655 C611.8965,134.266 258.3115,172.941 190.4655,259 C179.4655,272.953 188.3445,290.45 200.3905,304.76 " fill="none" id="User-to-Product" style="stroke:#A80036;stroke-width:1.0;"/><polygon fill="#A80036" points="203.8585,308.706,200.9228,299.3048,200.5582,304.9499,194.9131,304.5853,203.8585,308.706" style="stroke:#A80036;stroke-width:1.0;"/><text fill="#000000" font-family="sans-serif" font-size="13" lengthAdjust="spacing" textLength="31" x="191.4655" y="272.0669">shop</text><!--MD5=[057ee07bb7b2e2aedbcccdbc42ce2201]
link User to Product--><path codeLine="69" d="M729.3795,120.596 C638.1295,122.804 404.1555,140.442 263.4655,259 C250.6665,269.785 242.3865,286.46 237.2055,301.101 " fill="none" id="User-to-Product-1" style="stroke:#A80036;stroke-width:1.0;"/><polygon fill="#A80036" points="235.5645,305.976,242.225,298.7208,237.1585,301.2369,234.6424,296.1704,235.5645,305.976" style="stroke:#A80036;stroke-width:1.0;"/><text fill="#000000" font-family="sans-serif" font-size="13" lengthAdjust="spacing" textLength="39" x="264.4655" y="272.0669">waste</text><!--MD5=[057ee07bb7b2e2aedbcccdbc42ce2201]
link User to Product--><path codeLine="71" d="M729.2155,129.64 C653.5455,148.449 480.3065,195.138 344.4655,259 C314.2285,273.215 282.2675,293.878 259.7345,309.511 " fill="none" id="User-to-Product-2" style="stroke:#A80036;stroke-width:1.0;"/><polygon fill="#A80036" points="255.3565,312.568,265.0256,310.6951,259.456,309.7055,260.4456,304.1359,255.3565,312.568" style="stroke:#A80036;stroke-width:1.0;"/><text fill="#000000" font-family="sans-serif" font-size="13" lengthAdjust="spacing" textLength="23" x="345.4655" y="272.0669">see</text><!--MD5=[057ee07bb7b2e2aedbcccdbc42ce2201]
link User to Product--><path codeLine="76" d="M729.1945,135.722 C658.8325,163.683 504.1495,225.029 373.4655,276 C334.2955,291.277 289.0395,308.679 259.8765,319.86 " fill="none" id="User-to-Product-3" style="stroke:#A80036;stroke-width:1.0;"/><polygon fill="#A80036" points="254.9805,321.737,264.816,322.2499,259.6491,319.947,261.952,314.7801,254.9805,321.737" style="stroke:#A80036;stroke-width:1.0;"/><text fill="#000000" font-family="sans-serif" font-size="13" lengthAdjust="spacing" textLength="30" x="417.4655" y="272.0669">view</text><!--MD5=[057ee07bb7b2e2aedbcccdbc42ce2201]
link User to Product--><path codeLine="80" d="M729.2445,121.869 C594.7375,127.56 146.7095,154.222 60.4653,259 C20.8782,307.095 139.8025,323.992 198.6135,329.309 " fill="none" id="User-to-Product-4" style="stroke:#A80036;stroke-width:1.0;"/><polygon fill="#A80036" points="203.7675,329.759,195.1503,324.99,198.7865,329.3233,194.4532,332.9596,203.7675,329.759" style="stroke:#A80036;stroke-width:1.0;"/><text fill="#000000" font-family="sans-serif" font-size="13" lengthAdjust="spacing" textLength="21" x="61.4653" y="272.0669">get</text><!--MD5=[057ee07bb7b2e2aedbcccdbc42ce2201]
link User to Product--><path codeLine="81" d="M729.0815,123.066 C605.9645,132.168 224.7415,167.42 151.4655,259 C132.4975,282.706 169.9595,305.831 199.2605,319.366 " fill="none" id="User-to-Product-5" style="stroke:#A80036;stroke-width:1.0;"/><polygon fill="#A80036" points="203.8825,321.454,197.3281,314.1029,199.3261,319.3951,194.0338,321.3931,203.8825,321.454" style="stroke:#A80036;stroke-width:1.0;"/><text fill="#000000" font-family="sans-serif" font-size="13" lengthAdjust="spacing" textLength="25" x="152.4655" y="272.0669">sort</text><!--MD5=[5831214aaa856d067eb0074bfe664020]
link User to Clothing--><path codeLine="70" d="M729.2735,144.497 C694.8075,168.635 646.4005,209.338 625.4655,259 C619.0985,274.105 620.2315,292.57 622.8875,307.084 " fill="none" id="User-to-Clothing" style="stroke:#A80036;stroke-width:1.0;"/><polygon fill="#A80036" points="623.9245,312.24,626.0715,302.628,622.9387,307.3381,618.2286,304.2053,623.9245,312.24" style="stroke:#A80036;stroke-width:1.0;"/><text fill="#000000" font-family="sans-serif" font-size="13" lengthAdjust="spacing" textLength="24" x="626.4655" y="272.0669">buy</text><!--MD5=[9d9c6880ca964776b77e2c7082356ba0]
link User to Version--><path codeLine="72" d="M805.6275,129.048 C928.7695,156.672 1310.7655,242.692 1365.4655,259 C1423.5455,276.315 1438.5955,280.265 1493.4655,306 C1497.9055,308.081 1502.4855,310.458 1506.9355,312.905 " fill="none" id="User-to-Version" style="stroke:#A80036;stroke-width:1.0;"/><polygon fill="#A80036" points="1511.3355,315.367,1505.4358,307.4807,1506.9725,312.9249,1501.5284,314.4615,1511.3355,315.367" style="stroke:#A80036;stroke-width:1.0;"/><text fill="#000000" font-family="sans-serif" font-size="13" lengthAdjust="spacing" textLength="30" x="1421.4655" y="272.0669">view</text><!--MD5=[0a4221e411748d8d90e6808bfd758b5b]
link User to Trend--><path codeLine="73" d="M773.6415,229.09 C775.3175,258.567 776.9755,287.721 778.0915,307.339 " fill="none" id="User-to-Trend" style="stroke:#A80036;stroke-width:1.0;"/><polygon fill="#A80036" points="778.3765,312.364,781.8584,303.1512,778.0923,307.3721,773.8714,303.6059,778.3765,312.364" style="stroke:#A80036;stroke-width:1.0;"/><text fill="#000000" font-family="sans-serif" font-size="13" lengthAdjust="spacing" textLength="38" x="777.4655" y="272.0669">follow</text><!--MD5=[787b9acce24cbb7de0761e46390aefb9]
reverse link User to Phone--><path codeLine="74" d="M818.4325,133.606 C905.3625,155.619 1088.0855,200.409 1244.4655,229 C1339.8055,246.431 1366.6955,234.491 1460.4655,259 C1515.8855,273.484 1529.5555,279.744 1580.4655,306 C1586.3655,309.041 1592.4855,312.75 1598.0755,316.387 " fill="none" id="User-backto-Phone" style="stroke:#A80036;stroke-width:1.0;"/><polygon fill="#FFFFFF" points="805.5705,130.338,810.4006,135.6925,817.2009,133.2934,812.3708,127.9389,805.5705,130.338" style="stroke:#A80036;stroke-width:1.0;"/><text fill="#000000" font-family="sans-serif" font-size="13" lengthAdjust="spacing" textLength="30" x="1517.4655" y="272.0669">view</text><!--MD5=[bb84d9f49c56e3fb2d2271475c9b14ae]
link User to Cost--><path codeLine="75" d="M805.4655,211.586 C811.8985,227.359 818.4415,243.627 824.4655,259 C830.7495,275.038 837.5145,293.203 842.6995,307.338 " fill="none" id="User-to-Cost" style="stroke:#A80036;stroke-width:1.0;"/><polygon fill="#A80036" points="844.5355,312.352,845.1976,302.5254,842.8166,307.6568,837.6852,305.2757,844.5355,312.352" style="stroke:#A80036;stroke-width:1.0;"/><text fill="#000000" font-family="sans-serif" font-size="13" lengthAdjust="spacing" textLength="58" x="832.4655" y="272.0669">minimize</text><!--MD5=[94684fa9b6f8a362b98c679d792a65fa]
link User to Circle--><path codeLine="77" d="M805.4755,130.892 C885.8595,152.481 1079.2855,202.385 1244.4655,229 C1381.9955,251.161 1422.0455,222.42 1556.4655,259 C1599.4155,270.688 1644.2155,297.03 1670.9755,314.533 " fill="none" id="User-to-Circle" style="stroke:#A80036;stroke-width:1.0;"/><polygon fill="#A80036" points="1675.4355,317.478,1670.1316,309.1793,1671.2639,314.7217,1665.7215,315.8539,1675.4355,317.478" style="stroke:#A80036;stroke-width:1.0;"/><text fill="#000000" font-family="sans-serif" font-size="13" lengthAdjust="spacing" textLength="23" x="1602.4655" y="272.0669">see</text><!--MD5=[83407b90fd95681fb135dfbc460c56b2]
link User to Collection--><path codeLine="78" d="M805.6905,154.616 C833.9505,181.17 872.1155,219.962 899.4655,259 C910.1145,274.201 919.3575,293.013 925.8105,307.665 " fill="none" id="User-to-Collection" style="stroke:#A80036;stroke-width:1.0;"/><polygon fill="#A80036" points="927.8905,312.464,927.9808,302.6156,925.9018,307.8765,920.6408,305.7975,927.8905,312.464" style="stroke:#A80036;stroke-width:1.0;"/><text fill="#000000" font-family="sans-serif" font-size="13" lengthAdjust="spacing" textLength="29" x="911.4655" y="272.0669">slide</text><!--MD5=[949878349d057c0f9b0bc699490e2385]
link User to Display--><path codeLine="79" d="M805.7425,131.227 C886.2365,153.337 1079.2555,203.994 1244.4655,229 C1416.3555,255.016 1466.5555,213.975 1634.4655,259 C1675.5955,270.03 1718.5155,294.21 1746.0355,311.616 " fill="none" id="User-to-Display" style="stroke:#A80036;stroke-width:1.0;"/><polygon fill="#A80036" points="1750.3155,314.348,1744.8742,306.1387,1746.0985,311.6615,1740.5758,312.8859,1750.3155,314.348" style="stroke:#A80036;stroke-width:1.0;"/><text fill="#000000" font-family="sans-serif" font-size="13" lengthAdjust="spacing" textLength="29" x="1680.4655" y="272.0669">slide</text><!--MD5=[05aec61ae2721fe9c50583f9fb7582e3]
link User to Loaderanimation--><path codeLine="82" d="M805.7095,148.519 C863.6035,190.934 972.3245,270.588 1025.1355,309.279 " fill="none" id="User-to-Loaderanimation" style="stroke:#A80036;stroke-width:1.0;"/><polygon fill="#A80036" points="1029.4545,312.443,1024.5565,303.8984,1025.4205,309.4889,1019.83,310.3529,1029.4545,312.443" style="stroke:#A80036;stroke-width:1.0;"/><text fill="#000000" font-family="sans-serif" font-size="13" lengthAdjust="spacing" textLength="23" x="979.4655" y="272.0669">see</text><!--MD5=[632f3b4883bdef966d65a4eed36d6210]
link User to SlideLayout--><path codeLine="83" d="M729.3875,121.696 C593.2255,126.844 133.8845,152.007 45.4653,259 C6,306.755 59.9672,379.3418 93.0557,416.0389 " fill="none" id="User-to-SlideLayout" style="stroke:#A80036;stroke-width:1.0;"/><polygon fill="#A80036" points="96.5839,419.9044,93.471,410.5604,93.2132,416.2114,87.5622,415.9536,96.5839,419.9044" style="stroke:#A80036;stroke-width:1.0;"/><text fill="#000000" font-family="sans-serif" font-size="13" lengthAdjust="spacing" textLength="30" x="52.4653" y="337.0669">view</text><!--MD5=[53a588df3f5f0f7f452d1b4562b14650]
link User to Item--><path codeLine="84" d="M729.3935,155.798 C704.4795,181.632 674.1075,219.029 660.4655,259 C653.0065,280.856 671.5165,302.644 687.4585,316.542 " fill="none" id="User-to-Item" style="stroke:#A80036;stroke-width:1.0;"/><polygon fill="#A80036" points="691.4395,319.901,687.1403,311.04,687.618,316.6767,681.9814,317.1544,691.4395,319.901" style="stroke:#A80036;stroke-width:1.0;"/><text fill="#000000" font-family="sans-serif" font-size="13" lengthAdjust="spacing" textLength="30" x="661.4655" y="272.0669">view</text><!--MD5=[53a588df3f5f0f7f452d1b4562b14650]
link User to Item--><path codeLine="86" d="M736.5865,229.09 C728.2045,258.567 719.9145,287.721 714.3355,307.339 " fill="none" id="User-to-Item-1" style="stroke:#A80036;stroke-width:1.0;"/><polygon fill="#A80036" points="712.9065,312.364,719.2153,304.801,714.2739,307.5546,711.5203,302.6132,712.9065,312.364" style="stroke:#A80036;stroke-width:1.0;"/><text fill="#000000" font-family="sans-serif" font-size="13" lengthAdjust="spacing" textLength="23" x="728.4655" y="272.0669">see</text><!--MD5=[c931dfc15b0be952436162600685d182]
reverse link Product to SlideLayout--><path codeLine="85" d="M194.2965,366.0463 C175.1885,383.73 152.2235,404.9822 136.0235,419.9749 " fill="none" id="Product-backto-SlideLayout" style="stroke:#A80036;stroke-width:1.0;"/><polygon fill="#FFFFFF" points="203.8815,357.176,196.761,358.3156,195.0744,365.3267,202.1948,364.1871,203.8815,357.176" style="stroke:#A80036;stroke-width:1.0;"/><!--MD5=[177dfbff35b3888f619f0bd80867b5d3]
reverse link Product to Image--><path codeLine="87" d="M248.1345,370.662 C256.5055,387.3257 266.0225,406.2697 272.9095,419.9787 " fill="none" id="Product-backto-Image" style="stroke:#A80036;stroke-width:1.0;"/><polygon fill="#FFFFFF" points="242.2955,359.039,241.4149,366.1961,247.6827,369.7618,248.5634,362.6046,242.2955,359.039" style="stroke:#A80036;stroke-width:1.0;"/><!--MD5=[570ec5c4e8a1dd44e7fcb71a8cfc57a6]
link User to Detail--><path codeLine="88" d="M805.5895,138.494 C871.8605,170.159 1012.0715,238.866 1125.4655,306 C1129.8755,308.611 1134.4755,311.525 1138.8855,314.423 " fill="none" id="User-to-Detail" style="stroke:#A80036;stroke-width:1.0;"/><polygon fill="#A80036" points="1143.2255,317.305,1137.9493,308.9887,1139.0631,314.5348,1133.5169,315.6486,1143.2255,317.305" style="stroke:#A80036;stroke-width:1.0;"/><text fill="#000000" font-family="sans-serif" font-size="13" lengthAdjust="spacing" textLength="30" x="1069.4655" y="272.0669">view</text><!--MD5=[dfad3907d3db9e5bc41e9d8f642803f1]
link User to Cluster--><path codeLine="89" d="M805.4755,130.653 C888.6085,152.963 1092.7355,208.32 1262.4655,259 C1328.5955,278.745 1347.6355,277.445 1410.4655,306 C1414.7955,307.97 1419.2355,310.293 1423.5355,312.721 " fill="none" id="User-to-Cluster" style="stroke:#A80036;stroke-width:1.0;"/><polygon fill="#A80036" points="1428.1255,315.386,1422.3359,307.4185,1423.7968,312.8835,1418.3319,314.3444,1428.1255,315.386" style="stroke:#A80036;stroke-width:1.0;"/><text fill="#000000" font-family="sans-serif" font-size="13" lengthAdjust="spacing" textLength="30" x="1326.4655" y="272.0669">view</text><!--MD5=[ec99a9ecca4dbd5d39f724ed3a1226e5]
link User to Image--><path codeLine="90" d="M729.3125,153.582 C657.9895,215.252 509.2225,343.01 482.4655,359 C424.5545,393.608 348.9445,419.1672 309.3375,431.2449 " fill="none" id="User-to-Image" style="stroke:#A80036;stroke-width:1.0;"/><polygon fill="#A80036" points="304.2255,432.7897,313.998,434.0138,309.0115,431.3426,311.6827,426.3562,304.2255,432.7897" style="stroke:#A80036;stroke-width:1.0;"/><text fill="#000000" font-family="sans-serif" font-size="13" lengthAdjust="spacing" textLength="30" x="551.4655" y="337.0669">view</text><!--MD5=[87c463e55ba9a05eb2c54f7e7fed640e]
link User to Time--><path codeLine="91" d="M805.5115,134.716 C868.9965,158.711 1000.2425,209.49 1108.4655,259 C1150.2155,278.101 1161.1855,282.224 1200.4655,306 C1205.1855,308.854 1210.0855,312.119 1214.7155,315.338 " fill="none" id="User-to-Time" style="stroke:#A80036;stroke-width:1.0;"/><polygon fill="#A80036" points="1218.8655,318.268,1213.8218,309.8086,1214.7815,315.3835,1209.2066,316.3431,1218.8655,318.268" style="stroke:#A80036;stroke-width:1.0;"/><text fill="#000000" font-family="sans-serif" font-size="13" lengthAdjust="spacing" textLength="39" x="1145.4655" y="272.0669">waste</text><!--MD5=[fa0d60c64efeaab092b5b86e3d3838e3]
link User to Userexperience--><path codeLine="92" d="M805.7175,130.968 C881.0905,152.022 1053.6355,202.35 1193.4655,259 C1230.9755,274.195 1272.2055,294.729 1301.6055,310.065 " fill="none" id="User-to-Userexperience" style="stroke:#A80036;stroke-width:1.0;"/><polygon fill="#A80036" points="1306.2255,312.48,1300.1201,304.7519,1301.7997,310.1536,1296.3979,311.8332,1306.2255,312.48" style="stroke:#A80036;stroke-width:1.0;"/><text fill="#000000" font-family="sans-serif" font-size="13" lengthAdjust="spacing" textLength="21" x="1232.4655" y="272.0669">get</text><!--MD5=[f5cb418a67f5511ae63644bf46000c15]
link Media to Frenzy--><path codeLine="93" d="M1859.4655,146.373 C1859.4655,187.446 1859.4655,267.017 1859.4655,307.129 " fill="none" id="Media-to-Frenzy" style="stroke:#A80036;stroke-width:1.0;"/><polygon fill="#A80036" points="1859.4655,312.286,1863.4655,303.286,1859.4655,307.286,1855.4655,303.286,1859.4655,312.286" style="stroke:#A80036;stroke-width:1.0;"/><text fill="#000000" font-family="sans-serif" font-size="13" lengthAdjust="spacing" textLength="28" x="1860.4655" y="272.0669">user</text><!--MD5=[970cac591fccbf7a9f15ccd0a38b4219]
link User to Page--><path codeLine="94" d="M729.2485,130.065 C669.3365,146.824 552.7945,186.775 481.4655,259 C468.2125,272.419 459.4575,291.976 454.1555,307.397 " fill="none" id="User-to-Page" style="stroke:#A80036;stroke-width:1.0;"/><polygon fill="#A80036" points="452.4885,312.453,459.1056,305.1582,454.0542,307.7045,451.5079,302.6531,452.4885,312.453" style="stroke:#A80036;stroke-width:1.0;"/><text fill="#000000" font-family="sans-serif" font-size="13" lengthAdjust="spacing" textLength="30" x="482.4655" y="272.0669">view</text><!--MD5=[7f95a3fdfc0ee0bf493d3f2602a7fc9c]
@startuml
hide circle
class User<actor> {
	priceRange
	phone
}
class Retailer<actor> {
	website
}
class SlideLayout {
}
class Image {
}
class User {
	buy()
	see()
	minimize()
	follow()
	get()
	waste()
	slide()
	sort()
	collapse()
	view()
	shop()
	list()
}
class Page {
}
class Product {
	list()
}
class Clothing {
}
class Media {
	user()
}
class Frenzy {
}
class Item {
}
class Trend {
}
class Cost {
}
class Collection {
}
class Loaderanimation {
}
class Retailer {
	have()
}
class Detail {
}
class Time {
}
class Userexperience {
}
class Cluster {
}
class Version {
}
class Phone {
}
class Circle {
}
class Display {
}
User - -> Product : shop
User - -> Product : waste
User - -> Clothing : buy
User - -> Product : see
User - -> Version : view
User - -> Trend : follow
User o- - Phone : view
User - -> Cost : minimize
User - -> Product : view
User - -> Circle : see
User - -> Collection : slide
User - -> Display : slide
User - -> Product : get
User - -> Product : sort
User - -> Loaderanimation : see
User - -> SlideLayout : view
User - -> Item : view
Product o- - SlideLayout
User - -> Item : see
Product o- - Image
User - -> Detail : view
User - -> Cluster : view
User - -> Image : view
User - -> Time : waste
User - -> Userexperience : get
Media - -> Frenzy : user
User - -> Page : view
@enduml

PlantUML version 1.2021.10beta2(Unknown compile time)
(GPL source distribution)
Java Runtime: Java(TM) SE Runtime Environment
JVM: Java HotSpot(TM) 64-Bit Server VM
Default Encoding: UTF-8
Language: en
Country: US
--></g></svg>