<?xml version="1.0" encoding="UTF-8" standalone="no"?><svg xmlns="http://www.w3.org/2000/svg" xmlns:xlink="http://www.w3.org/1999/xlink" contentScriptType="application/ecmascript" contentStyleType="text/css" height="488px" preserveAspectRatio="none" style="width:1883px;height:488px;background:#FFFFFF;" version="1.1" viewBox="0 0 1883 488" width="1883px" zoomAndPan="magnify"><defs><filter height="300%" id="fbgwi5pdf1weo" width="300%" x="-1" y="-1"><feGaussianBlur result="blurOut" stdDeviation="2.0"/><feColorMatrix in="blurOut" result="blurOut2" type="matrix" values="0 0 0 0 0 0 0 0 0 0 0 0 0 0 0 0 0 0 .4 0"/><feOffset dx="4.0" dy="4.0" in="blurOut2" result="blurOut3"/><feBlend in="SourceGraphic" in2="blurOut3" mode="normal"/></filter></defs><g><!--MD5=[3fd616f346a44cd59a91eb10b19e157c]
class User--><rect codeLine="37" fill="#FEFECE" filter="url(#fbgwi5pdf1weo)" height="91.1875" id="User" style="stroke:#A80036;stroke-width:1.5;" width="72" x="174" y="23"/><text fill="#000000" font-family="sans-serif" font-size="12" lengthAdjust="spacing" textLength="29" x="178" y="39.1387">User</text><rect fill="#FFFFFF" height="15.9688" style="stroke:#000000;stroke-width:1.0;stroke-dasharray:2.0,2.0;" width="33" x="216" y="20"/><text fill="#000000" font-family="sans-serif" font-size="12" font-style="italic" lengthAdjust="spacing" textLength="31" x="217" y="32.1387">actor</text><line style="stroke:#A80036;stroke-width:1.5;" x1="175" x2="245" y1="46.9688" y2="46.9688"/><line style="stroke:#A80036;stroke-width:1.5;" x1="175" x2="245" y1="54.9688" y2="54.9688"/><text fill="#000000" font-family="sans-serif" font-size="11" lengthAdjust="spacing" textLength="37" x="180" y="69.1792">have()</text><text fill="#000000" font-family="sans-serif" font-size="11" lengthAdjust="spacing" textLength="35" x="180" y="81.9839">view()</text><text fill="#000000" font-family="sans-serif" font-size="11" lengthAdjust="spacing" textLength="60" x="180" y="94.7886">purchase()</text><text fill="#000000" font-family="sans-serif" font-size="11" lengthAdjust="spacing" textLength="52" x="180" y="107.5933">receive()</text><!--MD5=[cf9bc73d4b319b8f5d50999aecc13d13]
class Parent--><rect codeLine="51" fill="#FEFECE" filter="url(#fbgwi5pdf1weo)" height="116.7969" id="Parent" style="stroke:#A80036;stroke-width:1.5;" width="78" x="1016" y="10"/><text fill="#000000" font-family="sans-serif" font-size="12" lengthAdjust="spacing" textLength="37" x="1019" y="26.1387">Parent</text><rect fill="#FFFFFF" height="15.9688" style="stroke:#000000;stroke-width:1.0;stroke-dasharray:2.0,2.0;" width="33" x="1064" y="7"/><text fill="#000000" font-family="sans-serif" font-size="12" font-style="italic" lengthAdjust="spacing" textLength="31" x="1065" y="19.1387">actor</text><line style="stroke:#A80036;stroke-width:1.5;" x1="1017" x2="1093" y1="33.9688" y2="33.9688"/><text fill="#000000" font-family="sans-serif" font-size="11" lengthAdjust="spacing" textLength="26" x="1022" y="48.1792">child</text><text fill="#000000" font-family="sans-serif" font-size="11" lengthAdjust="spacing" textLength="32" x="1022" y="60.9839">detail</text><line style="stroke:#A80036;stroke-width:1.5;" x1="1017" x2="1093" y1="67.5781" y2="67.5781"/><text fill="#000000" font-family="sans-serif" font-size="11" lengthAdjust="spacing" textLength="46" x="1022" y="81.7886">set_up()</text><text fill="#000000" font-family="sans-serif" font-size="11" lengthAdjust="spacing" textLength="29" x="1022" y="94.5933">pay()</text><text fill="#000000" font-family="sans-serif" font-size="11" lengthAdjust="spacing" textLength="35" x="1022" y="107.3979">view()</text><text fill="#000000" font-family="sans-serif" font-size="11" lengthAdjust="spacing" textLength="52" x="1022" y="120.2026">register()</text><!--MD5=[ed6624c6556d5e7b1bd23032162d20b7]
class Client--><rect codeLine="65" fill="#FEFECE" filter="url(#fbgwi5pdf1weo)" height="78.3828" id="Client" style="stroke:#A80036;stroke-width:1.5;" width="74" x="1326" y="29.5"/><text fill="#000000" font-family="sans-serif" font-size="12" lengthAdjust="spacing" textLength="33" x="1329" y="45.6387">Client</text><rect fill="#FFFFFF" height="15.9688" style="stroke:#000000;stroke-width:1.0;stroke-dasharray:2.0,2.0;" width="33" x="1370" y="26.5"/><text fill="#000000" font-family="sans-serif" font-size="12" font-style="italic" lengthAdjust="spacing" textLength="31" x="1371" y="38.6387">actor</text><line style="stroke:#A80036;stroke-width:1.5;" x1="1327" x2="1399" y1="53.4688" y2="53.4688"/><text fill="#000000" font-family="sans-serif" font-size="11" lengthAdjust="spacing" textLength="32" x="1332" y="67.6792">email</text><line style="stroke:#A80036;stroke-width:1.5;" x1="1327" x2="1399" y1="74.2734" y2="74.2734"/><text fill="#000000" font-family="sans-serif" font-size="11" lengthAdjust="spacing" textLength="41" x="1332" y="88.4839">check()</text><text fill="#000000" font-family="sans-serif" font-size="11" lengthAdjust="spacing" textLength="29" x="1332" y="101.2886">add()</text><!--MD5=[db6d18d8099558415abc41d00477ab92]
class Admin--><rect codeLine="59" fill="#FEFECE" filter="url(#fbgwi5pdf1weo)" height="78.3828" id="Admin" style="stroke:#A80036;stroke-width:1.5;" width="78" x="542" y="29.5"/><text fill="#000000" font-family="sans-serif" font-size="12" lengthAdjust="spacing" textLength="37" x="545" y="45.6387">Admin</text><rect fill="#FFFFFF" height="15.9688" style="stroke:#000000;stroke-width:1.0;stroke-dasharray:2.0,2.0;" width="33" x="590" y="26.5"/><text fill="#000000" font-family="sans-serif" font-size="12" font-style="italic" lengthAdjust="spacing" textLength="31" x="591" y="38.6387">actor</text><line style="stroke:#A80036;stroke-width:1.5;" x1="543" x2="619" y1="53.4688" y2="53.4688"/><text fill="#000000" font-family="sans-serif" font-size="11" lengthAdjust="spacing" textLength="24" x="548" y="67.6792">mail</text><line style="stroke:#A80036;stroke-width:1.5;" x1="543" x2="619" y1="74.2734" y2="74.2734"/><text fill="#000000" font-family="sans-serif" font-size="11" lengthAdjust="spacing" textLength="41" x="548" y="88.4839">check()</text><text fill="#000000" font-family="sans-serif" font-size="11" lengthAdjust="spacing" textLength="48" x="548" y="101.2886">update()</text><!--MD5=[f58fd777f29c17413488bea9e7cfcca3]
class Member--><rect codeLine="79" fill="#FEFECE" filter="url(#fbgwi5pdf1weo)" height="52.7734" id="Member" style="stroke:#A80036;stroke-width:1.5;" width="91" x="785.5" y="42"/><text fill="#000000" font-family="sans-serif" font-size="12" lengthAdjust="spacing" textLength="50" x="788.5" y="58.1387">Member</text><rect fill="#FFFFFF" height="15.9688" style="stroke:#000000;stroke-width:1.0;stroke-dasharray:2.0,2.0;" width="33" x="846.5" y="39"/><text fill="#000000" font-family="sans-serif" font-size="12" font-style="italic" lengthAdjust="spacing" textLength="31" x="847.5" y="51.1387">actor</text><line style="stroke:#A80036;stroke-width:1.5;" x1="786.5" x2="875.5" y1="65.9688" y2="65.9688"/><line style="stroke:#A80036;stroke-width:1.5;" x1="786.5" x2="875.5" y1="73.9688" y2="73.9688"/><text fill="#000000" font-family="sans-serif" font-size="11" lengthAdjust="spacing" textLength="35" x="791.5" y="88.1792">view()</text><!--MD5=[d6181cb537bdc20c0a3007a98a56832d]
class Student--><rect codeLine="45" fill="#FEFECE" filter="url(#fbgwi5pdf1weo)" height="91.1875" id="Student" style="stroke:#A80036;stroke-width:1.5;" width="87" x="1475.5" y="23"/><text fill="#000000" font-family="sans-serif" font-size="12" lengthAdjust="spacing" textLength="46" x="1478.5" y="39.1387">Student</text><rect fill="#FFFFFF" height="15.9688" style="stroke:#000000;stroke-width:1.0;stroke-dasharray:2.0,2.0;" width="33" x="1532.5" y="20"/><text fill="#000000" font-family="sans-serif" font-size="12" font-style="italic" lengthAdjust="spacing" textLength="31" x="1533.5" y="32.1387">actor</text><line style="stroke:#A80036;stroke-width:1.5;" x1="1476.5" x2="1561.5" y1="46.9688" y2="46.9688"/><line style="stroke:#A80036;stroke-width:1.5;" x1="1476.5" x2="1561.5" y1="54.9688" y2="54.9688"/><text fill="#000000" font-family="sans-serif" font-size="11" lengthAdjust="spacing" textLength="62" x="1481.5" y="69.1792">download()</text><text fill="#000000" font-family="sans-serif" font-size="11" lengthAdjust="spacing" textLength="53" x="1481.5" y="81.9839">practice()</text><text fill="#000000" font-family="sans-serif" font-size="11" lengthAdjust="spacing" textLength="35" x="1481.5" y="94.7886">view()</text><text fill="#000000" font-family="sans-serif" font-size="11" lengthAdjust="spacing" textLength="52" x="1481.5" y="107.5933">register()</text><!--MD5=[08385c368f5d303c28b24e93c0141e57]
class Donor--><rect codeLine="29" fill="#FEFECE" filter="url(#fbgwi5pdf1weo)" height="65.5781" id="Donor" style="stroke:#A80036;stroke-width:1.5;" width="78" x="1601" y="35.5"/><text fill="#000000" font-family="sans-serif" font-size="12" lengthAdjust="spacing" textLength="37" x="1604" y="51.6387">Donor</text><rect fill="#FFFFFF" height="15.9688" style="stroke:#000000;stroke-width:1.0;stroke-dasharray:2.0,2.0;" width="33" x="1649" y="32.5"/><text fill="#000000" font-family="sans-serif" font-size="12" font-style="italic" lengthAdjust="spacing" textLength="31" x="1650" y="44.6387">actor</text><line style="stroke:#A80036;stroke-width:1.5;" x1="1602" x2="1678" y1="59.4688" y2="59.4688"/><line style="stroke:#A80036;stroke-width:1.5;" x1="1602" x2="1678" y1="67.4688" y2="67.4688"/><text fill="#000000" font-family="sans-serif" font-size="11" lengthAdjust="spacing" textLength="40" x="1607" y="81.6792">make()</text><text fill="#000000" font-family="sans-serif" font-size="11" lengthAdjust="spacing" textLength="50" x="1607" y="94.4839">support()</text><!--MD5=[661c05259cf57e4b4baa54079a4420a8]
class Child--><rect codeLine="20" fill="#FEFECE" filter="url(#fbgwi5pdf1weo)" height="52.7734" id="Child" style="stroke:#A80036;stroke-width:1.5;" width="47" x="1714.5" y="42"/><text fill="#000000" font-family="sans-serif" font-size="12" lengthAdjust="spacing" textLength="29" x="1723.5" y="58.1387">Child</text><line style="stroke:#A80036;stroke-width:1.5;" x1="1715.5" x2="1760.5" y1="65.9688" y2="65.9688"/><text fill="#000000" font-family="sans-serif" font-size="11" lengthAdjust="spacing" textLength="35" x="1720.5" y="80.1792">tuition</text><line style="stroke:#A80036;stroke-width:1.5;" x1="1715.5" x2="1760.5" y1="86.7734" y2="86.7734"/><!--MD5=[8e25390c635c35bf4f9330e34b8d70bb]
class VYMA--><rect codeLine="23" fill="#FEFECE" filter="url(#fbgwi5pdf1weo)" height="52.7734" id="VYMA" style="stroke:#A80036;stroke-width:1.5;" width="73" x="1796.5" y="42"/><text fill="#000000" font-family="sans-serif" font-size="12" lengthAdjust="spacing" textLength="33" x="1816.5" y="58.1387">VYMA</text><line style="stroke:#A80036;stroke-width:1.5;" x1="1797.5" x2="1868.5" y1="65.9688" y2="65.9688"/><text fill="#000000" font-family="sans-serif" font-size="11" lengthAdjust="spacing" textLength="61" x="1802.5" y="80.1792">newsletter</text><line style="stroke:#A80036;stroke-width:1.5;" x1="1797.5" x2="1868.5" y1="86.7734" y2="86.7734"/><!--MD5=[09a53695e98d4f26e7a054522080af08]
class Section--><rect codeLine="26" fill="#FEFECE" filter="url(#fbgwi5pdf1weo)" height="52.7734" id="Section" style="stroke:#A80036;stroke-width:1.5;" width="57" x="92.5" y="305"/><text fill="#000000" font-family="sans-serif" font-size="12" lengthAdjust="spacing" textLength="45" x="98.5" y="321.1387">Section</text><line style="stroke:#A80036;stroke-width:1.5;" x1="93.5" x2="148.5" y1="328.9688" y2="328.9688"/><line style="stroke:#A80036;stroke-width:1.5;" x1="93.5" x2="148.5" y1="336.9688" y2="336.9688"/><text fill="#000000" font-family="sans-serif" font-size="11" lengthAdjust="spacing" textLength="45" x="98.5" y="351.1792">trigger()</text><!--MD5=[b63fa85fe98a1a075196adefd8758dff]
class Vymacommunity--><rect codeLine="33" fill="#FEFECE" filter="url(#fbgwi5pdf1weo)" height="39.9688" id="Vymacommunity" style="stroke:#A80036;stroke-width:1.5;" width="104" x="1588" y="204"/><text fill="#000000" font-family="sans-serif" font-size="12" lengthAdjust="spacing" textLength="98" x="1591" y="220.1387">Vymacommunity</text><line style="stroke:#A80036;stroke-width:1.5;" x1="1589" x2="1691" y1="227.9688" y2="227.9688"/><line style="stroke:#A80036;stroke-width:1.5;" x1="1589" x2="1691" y1="235.9688" y2="235.9688"/><!--MD5=[76b5e19c9337179d2d7ae334371d68c8]
class Notification--><rect codeLine="35" fill="#FEFECE" filter="url(#fbgwi5pdf1weo)" height="39.9688" id="Notification" style="stroke:#A80036;stroke-width:1.5;" width="72" x="85" y="435"/><text fill="#000000" font-family="sans-serif" font-size="12" lengthAdjust="spacing" textLength="66" x="88" y="451.1387">Notification</text><line style="stroke:#A80036;stroke-width:1.5;" x1="86" x2="156" y1="458.9688" y2="458.9688"/><line style="stroke:#A80036;stroke-width:1.5;" x1="86" x2="156" y1="466.9688" y2="466.9688"/><!--MD5=[483f2b7e0d769c0752c08834feba6229]
class Dvd--><rect codeLine="43" fill="#FEFECE" filter="url(#fbgwi5pdf1weo)" height="39.9688" id="Dvd" style="stroke:#A80036;stroke-width:1.5;" width="30" x="267" y="204"/><text fill="#000000" font-family="sans-serif" font-size="12" lengthAdjust="spacing" textLength="24" x="270" y="220.1387">Dvd</text><line style="stroke:#A80036;stroke-width:1.5;" x1="268" x2="296" y1="227.9688" y2="227.9688"/><line style="stroke:#A80036;stroke-width:1.5;" x1="268" x2="296" y1="235.9688" y2="235.9688"/><!--MD5=[764fca796ce7f635542948d8fc39db5e]
class Payment--><rect codeLine="57" fill="#FEFECE" filter="url(#fbgwi5pdf1weo)" height="39.9688" id="Payment" style="stroke:#A80036;stroke-width:1.5;" width="56" x="932" y="204"/><text fill="#000000" font-family="sans-serif" font-size="12" lengthAdjust="spacing" textLength="50" x="935" y="220.1387">Payment</text><line style="stroke:#A80036;stroke-width:1.5;" x1="933" x2="987" y1="227.9688" y2="227.9688"/><line style="stroke:#A80036;stroke-width:1.5;" x1="933" x2="987" y1="235.9688" y2="235.9688"/><!--MD5=[93b867cf5e7a1e913dd5047074c12207]
class Mail--><rect codeLine="63" fill="#FEFECE" filter="url(#fbgwi5pdf1weo)" height="39.9688" id="Mail" style="stroke:#A80036;stroke-width:1.5;" width="29" x="527.5" y="204"/><text fill="#000000" font-family="sans-serif" font-size="12" lengthAdjust="spacing" textLength="23" x="530.5" y="220.1387">Mail</text><line style="stroke:#A80036;stroke-width:1.5;" x1="528.5" x2="555.5" y1="227.9688" y2="227.9688"/><line style="stroke:#A80036;stroke-width:1.5;" x1="528.5" x2="555.5" y1="235.9688" y2="235.9688"/><!--MD5=[79161bd9717dde76825e47f640a803e7]
class GoogleDrive--><rect codeLine="69" fill="#FEFECE" filter="url(#fbgwi5pdf1weo)" height="39.9688" id="GoogleDrive" style="stroke:#A80036;stroke-width:1.5;" width="82" x="1231" y="204"/><text fill="#000000" font-family="sans-serif" font-size="12" lengthAdjust="spacing" textLength="76" x="1234" y="220.1387">GoogleDrive</text><line style="stroke:#A80036;stroke-width:1.5;" x1="1232" x2="1312" y1="227.9688" y2="227.9688"/><line style="stroke:#A80036;stroke-width:1.5;" x1="1232" x2="1312" y1="235.9688" y2="235.9688"/><!--MD5=[6cc3ad14011ab7f07f5dfe79da9fafb1]
class Roster--><rect codeLine="71" fill="#FEFECE" filter="url(#fbgwi5pdf1weo)" height="39.9688" id="Roster" style="stroke:#A80036;stroke-width:1.5;" width="45" x="598.5" y="204"/><text fill="#000000" font-family="sans-serif" font-size="12" lengthAdjust="spacing" textLength="39" x="601.5" y="220.1387">Roster</text><line style="stroke:#A80036;stroke-width:1.5;" x1="599.5" x2="642.5" y1="227.9688" y2="227.9688"/><line style="stroke:#A80036;stroke-width:1.5;" x1="599.5" x2="642.5" y1="235.9688" y2="235.9688"/><!--MD5=[2f01b1126ff33a0669651ec2488a5ef9]
class Password--><rect codeLine="73" fill="#FEFECE" filter="url(#fbgwi5pdf1weo)" height="39.9688" id="Password" style="stroke:#A80036;stroke-width:1.5;" width="64" x="1023" y="204"/><text fill="#000000" font-family="sans-serif" font-size="12" lengthAdjust="spacing" textLength="58" x="1026" y="220.1387">Password</text><line style="stroke:#A80036;stroke-width:1.5;" x1="1024" x2="1086" y1="227.9688" y2="227.9688"/><line style="stroke:#A80036;stroke-width:1.5;" x1="1024" x2="1086" y1="235.9688" y2="235.9688"/><!--MD5=[028fba31e0312914fa4880b63f0540b8]
class Detail--><rect codeLine="75" fill="#FEFECE" filter="url(#fbgwi5pdf1weo)" height="39.9688" id="Detail" style="stroke:#A80036;stroke-width:1.5;" width="40" x="399" y="204"/><text fill="#000000" font-family="sans-serif" font-size="12" lengthAdjust="spacing" textLength="34" x="402" y="220.1387">Detail</text><line style="stroke:#A80036;stroke-width:1.5;" x1="400" x2="438" y1="227.9688" y2="227.9688"/><line style="stroke:#A80036;stroke-width:1.5;" x1="400" x2="438" y1="235.9688" y2="235.9688"/><!--MD5=[7a61594029303f9a476eb599fbfc6915]
class MusicNote--><rect codeLine="77" fill="#FEFECE" filter="url(#fbgwi5pdf1weo)" height="39.9688" id="MusicNote" style="stroke:#A80036;stroke-width:1.5;" width="68" x="1485" y="204"/><text fill="#000000" font-family="sans-serif" font-size="12" lengthAdjust="spacing" textLength="62" x="1488" y="220.1387">MusicNote</text><line style="stroke:#A80036;stroke-width:1.5;" x1="1486" x2="1552" y1="227.9688" y2="227.9688"/><line style="stroke:#A80036;stroke-width:1.5;" x1="1486" x2="1552" y1="235.9688" y2="235.9688"/><!--MD5=[f572c118330f78587a09a8d1323f8ced]
class Calendar--><rect codeLine="82" fill="#FEFECE" filter="url(#fbgwi5pdf1weo)" height="39.9688" id="Calendar" style="stroke:#A80036;stroke-width:1.5;" width="59" x="837.5" y="204"/><text fill="#000000" font-family="sans-serif" font-size="12" lengthAdjust="spacing" textLength="53" x="840.5" y="220.1387">Calendar</text><line style="stroke:#A80036;stroke-width:1.5;" x1="838.5" x2="895.5" y1="227.9688" y2="227.9688"/><line style="stroke:#A80036;stroke-width:1.5;" x1="838.5" x2="895.5" y1="235.9688" y2="235.9688"/><!--MD5=[e2d3da46aad6ad2235ed97afaf326e98]
class Update--><rect codeLine="84" fill="#FEFECE" filter="url(#fbgwi5pdf1weo)" height="39.9688" id="Update" style="stroke:#A80036;stroke-width:1.5;" width="50" x="7" y="204"/><text fill="#000000" font-family="sans-serif" font-size="12" lengthAdjust="spacing" textLength="44" x="10" y="220.1387">Update</text><line style="stroke:#A80036;stroke-width:1.5;" x1="8" x2="56" y1="227.9688" y2="227.9688"/><line style="stroke:#A80036;stroke-width:1.5;" x1="8" x2="56" y1="235.9688" y2="235.9688"/><!--MD5=[d189332174d53557e6def82bbd003869]
class Link--><rect codeLine="86" fill="#FEFECE" filter="url(#fbgwi5pdf1weo)" height="39.9688" id="Link" style="stroke:#A80036;stroke-width:1.5;" width="29" x="1348.5" y="204"/><text fill="#000000" font-family="sans-serif" font-size="12" lengthAdjust="spacing" textLength="23" x="1351.5" y="220.1387">Link</text><line style="stroke:#A80036;stroke-width:1.5;" x1="1349.5" x2="1376.5" y1="227.9688" y2="227.9688"/><line style="stroke:#A80036;stroke-width:1.5;" x1="1349.5" x2="1376.5" y1="235.9688" y2="235.9688"/><!--MD5=[30fd7b95ab383a5e7c83ea23d4ea0fbf]
class Information--><rect codeLine="88" fill="#FEFECE" filter="url(#fbgwi5pdf1weo)" height="39.9688" id="Information" style="stroke:#A80036;stroke-width:1.5;" width="73" x="703.5" y="204"/><text fill="#000000" font-family="sans-serif" font-size="12" lengthAdjust="spacing" textLength="67" x="706.5" y="220.1387">Information</text><line style="stroke:#A80036;stroke-width:1.5;" x1="704.5" x2="775.5" y1="227.9688" y2="227.9688"/><line style="stroke:#A80036;stroke-width:1.5;" x1="704.5" x2="775.5" y1="235.9688" y2="235.9688"/><!--MD5=[cbaac4eed5b318c44b2ea50495fa77ea]
class News--><rect codeLine="90" fill="#FEFECE" filter="url(#fbgwi5pdf1weo)" height="39.9688" id="News" style="stroke:#A80036;stroke-width:1.5;" width="39" x="101.5" y="204"/><text fill="#000000" font-family="sans-serif" font-size="12" lengthAdjust="spacing" textLength="33" x="104.5" y="220.1387">News</text><line style="stroke:#A80036;stroke-width:1.5;" x1="102.5" x2="139.5" y1="227.9688" y2="227.9688"/><line style="stroke:#A80036;stroke-width:1.5;" x1="102.5" x2="139.5" y1="235.9688" y2="235.9688"/><!--MD5=[78bec0fde86ad92ec1dc3fb343b83709]
class Email--><rect codeLine="92" fill="#FEFECE" filter="url(#fbgwi5pdf1weo)" height="39.9688" id="Email" style="stroke:#A80036;stroke-width:1.5;" width="37" x="1412.5" y="204"/><text fill="#000000" font-family="sans-serif" font-size="12" lengthAdjust="spacing" textLength="31" x="1415.5" y="220.1387">Email</text><line style="stroke:#A80036;stroke-width:1.5;" x1="1413.5" x2="1448.5" y1="227.9688" y2="227.9688"/><line style="stroke:#A80036;stroke-width:1.5;" x1="1413.5" x2="1448.5" y1="235.9688" y2="235.9688"/><!--MD5=[317fa42ee935da44eb3b0db0eaef8bbc]
class OtherDetail--><rect codeLine="94" fill="#FEFECE" filter="url(#fbgwi5pdf1weo)" height="39.9688" id="OtherDetail" style="stroke:#A80036;stroke-width:1.5;" width="74" x="1122" y="204"/><text fill="#000000" font-family="sans-serif" font-size="12" lengthAdjust="spacing" textLength="68" x="1125" y="220.1387">OtherDetail</text><line style="stroke:#A80036;stroke-width:1.5;" x1="1123" x2="1195" y1="227.9688" y2="227.9688"/><line style="stroke:#A80036;stroke-width:1.5;" x1="1123" x2="1195" y1="235.9688" y2="235.9688"/><!--MD5=[e65e6d38455b41cf3bfbebe5b46c38ff]
class Trailer--><rect codeLine="96" fill="#FEFECE" filter="url(#fbgwi5pdf1weo)" height="39.9688" id="Trailer" style="stroke:#A80036;stroke-width:1.5;" width="44" x="188" y="204"/><text fill="#000000" font-family="sans-serif" font-size="12" lengthAdjust="spacing" textLength="38" x="191" y="220.1387">Trailer</text><line style="stroke:#A80036;stroke-width:1.5;" x1="189" x2="231" y1="227.9688" y2="227.9688"/><line style="stroke:#A80036;stroke-width:1.5;" x1="189" x2="231" y1="235.9688" y2="235.9688"/><!--MD5=[570ec5c4e8a1dd44e7fcb71a8cfc57a6]
link User to Detail--><path codeLine="98" d="M246.405,96.238 C288.886,127.438 357.96,178.169 394.513,205.016 " fill="none" id="User-to-Detail" style="stroke:#A80036;stroke-width:1.0;"/><polygon fill="#A80036" points="398.806,208.168,393.9202,199.6164,394.7762,205.2081,389.1845,206.0641,398.806,208.168" style="stroke:#A80036;stroke-width:1.0;"/><text fill="#000000" font-family="sans-serif" font-size="13" lengthAdjust="spacing" textLength="30" x="353" y="170.0669">view</text><!--MD5=[15cf7303f49a00c1075ea0c722950319]
link Member to Calendar--><path codeLine="99" d="M837.026,95.192 C843.772,123.956 854.624,170.231 861.254,198.5 " fill="none" id="Member-to-Calendar" style="stroke:#A80036;stroke-width:1.0;"/><polygon fill="#A80036" points="862.441,203.56,864.2811,193.8846,861.2997,198.692,856.4923,195.7106,862.441,203.56" style="stroke:#A80036;stroke-width:1.0;"/><text fill="#000000" font-family="sans-serif" font-size="13" lengthAdjust="spacing" textLength="30" x="857" y="170.0669">view</text><!--MD5=[e7be74c6895fc15c3c0e6cdd9b7c2955]
link User to Dvd--><path codeLine="100" d="M231.019,114.311 C244.039,142.07 260.242,176.613 270.84,199.207 " fill="none" id="User-to-Dvd" style="stroke:#A80036;stroke-width:1.0;"/><polygon fill="#A80036" points="273.013,203.84,272.8136,193.9932,270.8902,199.313,265.5704,197.3896,273.013,203.84" style="stroke:#A80036;stroke-width:1.0;"/><text fill="#000000" font-family="sans-serif" font-size="13" lengthAdjust="spacing" textLength="59" x="260" y="170.0669">purchase</text><!--MD5=[a421cc73cfb01b18772ccf80ff98e661]
link User to Update--><path codeLine="101" d="M173.773,90.98 C147.666,107.352 112.363,131.382 85,157 C71.3137,169.813 58.1058,186.247 48.2985,199.51 " fill="none" id="User-to-Update" style="stroke:#A80036;stroke-width:1.0;"/><polygon fill="#A80036" points="45.1071,203.877,53.6469,198.9707,48.0572,199.8401,47.1878,194.2504,45.1071,203.877" style="stroke:#A80036;stroke-width:1.0;"/><text fill="#000000" font-family="sans-serif" font-size="13" lengthAdjust="spacing" textLength="47" x="86" y="170.0669">receive</text><!--MD5=[59a9940f35054a42f16b92827aad867d]
link Parent to Payment--><path codeLine="102" d="M1019.36,127.094 C1003.921,152.033 986.702,179.855 974.802,199.083 " fill="none" id="Parent-to-Payment" style="stroke:#A80036;stroke-width:1.0;"/><polygon fill="#A80036" points="971.896,203.779,980.0339,198.2315,974.5275,199.5275,973.2315,194.0211,971.896,203.779" style="stroke:#A80036;stroke-width:1.0;"/><text fill="#000000" font-family="sans-serif" font-size="13" lengthAdjust="spacing" textLength="43" x="1000" y="170.0669">set_up</text><!--MD5=[e99c33e2de4541fd4e2e9c87ce7c280a]
link Client to Link--><path codeLine="103" d="M1362.27,107.718 C1361.99,127.502 1361.78,152.048 1362,174 C1362.08,182.019 1362.24,190.775 1362.4,198.639 " fill="none" id="Client-to-Link" style="stroke:#A80036;stroke-width:1.0;"/><polygon fill="#A80036" points="1362.52,203.92,1366.3237,194.8353,1362.4115,198.9212,1358.3256,195.009,1362.52,203.92" style="stroke:#A80036;stroke-width:1.0;"/><text fill="#000000" font-family="sans-serif" font-size="13" lengthAdjust="spacing" textLength="24" x="1363" y="170.0669">add</text><!--MD5=[763dac2b4360ce04d37305d47b03599a]
link Member to Information--><path codeLine="104" d="M815.769,95.192 C798.575,124.195 770.827,171 754.11,199.2 " fill="none" id="Member-to-Information" style="stroke:#A80036;stroke-width:1.0;"/><polygon fill="#A80036" points="751.524,203.56,759.5544,197.858,754.0738,199.259,752.6727,193.7784,751.524,203.56" style="stroke:#A80036;stroke-width:1.0;"/><text fill="#000000" font-family="sans-serif" font-size="13" lengthAdjust="spacing" textLength="30" x="779" y="170.0669">view</text><!--MD5=[55d81670b58c2d77e1de0682157566cf]
reverse link Admin to Mail--><path codeLine="105" d="M552.217,119.716 C546.755,131.579 541.858,144.44 539,157 C535.462,172.546 536.651,190.668 538.476,203.985 " fill="none" id="Admin-backto-Mail" style="stroke:#A80036;stroke-width:1.0;"/><polygon fill="#FFFFFF" points="558.053,107.77,551.8255,111.4057,552.7864,118.5525,559.0138,114.9168,558.053,107.77" style="stroke:#A80036;stroke-width:1.0;"/><text fill="#000000" font-family="sans-serif" font-size="13" lengthAdjust="spacing" textLength="37" x="540" y="170.0669">check</text><!--MD5=[02ad04e18c569503c135d4c822c16d51]
link Admin to Information--><path codeLine="106" d="M620.303,107.444 C650.455,136.553 691.076,175.768 716.392,200.209 " fill="none" id="Admin-to-Information" style="stroke:#A80036;stroke-width:1.0;"/><polygon fill="#A80036" points="720.013,203.705,716.3164,194.5762,716.4159,200.2322,710.7599,200.3316,720.013,203.705" style="stroke:#A80036;stroke-width:1.0;"/><text fill="#000000" font-family="sans-serif" font-size="13" lengthAdjust="spacing" textLength="45" x="690" y="170.0669">update</text><!--MD5=[d70d2fe948da43b65955c5d249e0a3d8]
link Donor to Vymacommunity--><path codeLine="107" d="M1640,101.679 C1640,130.69 1640,172.703 1640,198.906 " fill="none" id="Donor-to-Vymacommunity" style="stroke:#A80036;stroke-width:1.0;"/><polygon fill="#A80036" points="1640,203.927,1644,194.927,1640,198.927,1636,194.927,1640,203.927" style="stroke:#A80036;stroke-width:1.0;"/><text fill="#000000" font-family="sans-serif" font-size="13" lengthAdjust="spacing" textLength="49" x="1641" y="170.0669">support</text><!--MD5=[9902fbc8647ea0197a4a2845c1380e94]
link User to News--><path codeLine="108" d="M176.885,114.336 C167.647,127.732 157.968,142.673 150,157 C142.536,170.422 135.564,186.141 130.328,198.871 " fill="none" id="User-to-News" style="stroke:#A80036;stroke-width:1.0;"/><polygon fill="#A80036" points="128.337,203.771,135.4294,196.9374,130.2183,199.1384,128.0173,193.9273,128.337,203.771" style="stroke:#A80036;stroke-width:1.0;"/><text fill="#000000" font-family="sans-serif" font-size="13" lengthAdjust="spacing" textLength="47" x="151" y="170.0669">receive</text><!--MD5=[dbf32f210f2fcc2c01e9b3ac7c0aecb0]
link Client to GoogleDrive--><path codeLine="109" d="M1340.27,107.839 C1323.22,136.596 1300.43,175.047 1285.98,199.424 " fill="none" id="Client-to-GoogleDrive" style="stroke:#A80036;stroke-width:1.0;"/><polygon fill="#A80036" points="1283.38,203.807,1291.4112,198.1061,1285.9304,199.5064,1284.5302,194.0255,1283.38,203.807" style="stroke:#A80036;stroke-width:1.0;"/><text fill="#000000" font-family="sans-serif" font-size="13" lengthAdjust="spacing" textLength="37" x="1311" y="170.0669">check</text><!--MD5=[384058efae90a903e4598941bfb2522a]
link Section to Notification--><path codeLine="110" d="M121,358.267 C121,379.3301 121,408.9042 121,429.5902 " fill="none" id="Section-to-Notification" style="stroke:#A80036;stroke-width:1.0;"/><polygon fill="#A80036" points="121,434.6472,125,425.6472,121,429.6472,117,425.6472,121,434.6472" style="stroke:#A80036;stroke-width:1.0;"/><text fill="#000000" font-family="sans-serif" font-size="13" lengthAdjust="spacing" textLength="42" x="122" y="401.0669">trigger</text><!--MD5=[03ace3d29766901fa70c1cf7f24a30cc]
reverse link Client to Email--><path codeLine="111" d="M1385.26,119.751 C1397.99,148.483 1413.22,182.863 1422.5,203.807 " fill="none" id="Client-backto-Email" style="stroke:#A80036;stroke-width:1.0;"/><polygon fill="#FFFFFF" points="1379.98,107.839,1378.7525,114.9449,1384.8396,118.811,1386.0671,111.7051,1379.98,107.839" style="stroke:#A80036;stroke-width:1.0;"/><text fill="#000000" font-family="sans-serif" font-size="13" lengthAdjust="spacing" textLength="37" x="1411" y="170.0669">check</text><!--MD5=[170cbaa933ad52d0aa604a4b5f82577c]
link Admin to Roster--><path codeLine="112" d="M590.991,107.839 C598.422,136.357 608.338,174.409 614.698,198.814 " fill="none" id="Admin-to-Roster" style="stroke:#A80036;stroke-width:1.0;"/><polygon fill="#A80036" points="615.998,203.807,617.6009,194.0894,614.738,198.9684,609.8591,196.1055,615.998,203.807" style="stroke:#A80036;stroke-width:1.0;"/><text fill="#000000" font-family="sans-serif" font-size="13" lengthAdjust="spacing" textLength="45" x="610" y="170.0669">update</text><!--MD5=[e716c58f1ea66883fc627c4f1e4f8742]
link Parent to OtherDetail--><path codeLine="113" d="M1094.02,127.094 C1111.06,152.245 1130.09,180.327 1143.13,199.57 " fill="none" id="Parent-to-OtherDetail" style="stroke:#A80036;stroke-width:1.0;"/><polygon fill="#A80036" points="1145.98,203.779,1144.2475,194.0837,1143.1772,199.6384,1137.6226,198.5681,1145.98,203.779" style="stroke:#A80036;stroke-width:1.0;"/><text fill="#000000" font-family="sans-serif" font-size="13" lengthAdjust="spacing" textLength="30" x="1127" y="170.0669">view</text><!--MD5=[bdd58364f90171701dcb0a5373671f68]
link Parent to Password--><path codeLine="114" d="M1055,127.094 C1055,151.822 1055,179.384 1055,198.592 " fill="none" id="Parent-to-Password" style="stroke:#A80036;stroke-width:1.0;"/><polygon fill="#A80036" points="1055,203.779,1059,194.779,1055,198.779,1051,194.779,1055,203.779" style="stroke:#A80036;stroke-width:1.0;"/><text fill="#000000" font-family="sans-serif" font-size="13" lengthAdjust="spacing" textLength="30" x="1056" y="170.0669">view</text><!--MD5=[76979a5a2f694f0473fc60cce7bc6a1d]
link User to Trailer--><path codeLine="115" d="M207.55,114.251 C206.841,132.747 206.401,154.407 207,174 C207.246,182.029 207.717,190.788 208.215,198.651 " fill="none" id="User-to-Trailer" style="stroke:#A80036;stroke-width:1.0;"/><polygon fill="#A80036" points="208.561,203.931,211.9637,194.6886,208.2339,198.9417,203.9808,195.212,208.561,203.931" style="stroke:#A80036;stroke-width:1.0;"/><text fill="#000000" font-family="sans-serif" font-size="13" lengthAdjust="spacing" textLength="30" x="208" y="170.0669">view</text><!--MD5=[c537d2a61bdc5c00aa8acb8d451f65ff]
reverse link News to Section--><path codeLine="116" d="M121,257.429 C121,272.687 121,290.623 121,304.907 " fill="none" id="News-backto-Section" style="stroke:#A80036;stroke-width:1.0;"/><polygon fill="#FFFFFF" points="121,244.35,117,250.35,121,256.35,125,250.35,121,244.35" style="stroke:#A80036;stroke-width:1.0;"/><!--MD5=[a0ef8329b23cdf62601a8e926f63eb24]
link Admin to Detail--><path codeLine="117" d="M541.761,102.83 C523.297,118.853 501.172,138.549 482,157 C467.622,170.837 452.14,187.037 440.122,199.924 " fill="none" id="Admin-to-Detail" style="stroke:#A80036;stroke-width:1.0;"/><polygon fill="#A80036" points="436.508,203.811,445.5665,199.9454,439.9134,200.1499,439.7088,194.4968,436.508,203.811" style="stroke:#A80036;stroke-width:1.0;"/><text fill="#000000" font-family="sans-serif" font-size="13" lengthAdjust="spacing" textLength="45" x="483" y="170.0669">update</text><!--MD5=[273ffdedf463e8c64c8beee01ffe88bd]
link Student to MusicNote--><path codeLine="118" d="M1519,114.311 C1519,141.838 1519,176.035 1519,198.637 " fill="none" id="Student-to-MusicNote" style="stroke:#A80036;stroke-width:1.0;"/><polygon fill="#A80036" points="1519,203.84,1523,194.84,1519,198.84,1515,194.84,1519,203.84" style="stroke:#A80036;stroke-width:1.0;"/><text fill="#000000" font-family="sans-serif" font-size="13" lengthAdjust="spacing" textLength="62" x="1520" y="170.0669">download</text><!--MD5=[42df132f100da48bd47bc9702ca0b06e]
@startuml
hide circle
class User<actor> {
}
class Parent<actor> {
	child
	detail
}
class Client<actor> {
	email
}
class Admin<actor> {
	mail
}
class Member<actor> {
}
class Student<actor> {
}
class Donor<actor> {
}
class Child {
	tuition
}
class VYMA {
	newsletter
}
class Section {
	trigger()
}
class Donor {
	make()
	support()
}
class Vymacommunity {
}
class Notification {
}
class User {
	have()
	view()
	purchase()
	receive()
}
class Dvd {
}
class Student {
	download()
	practice()
	view()
	register()
}
class Parent {
	set_up()
	pay()
	view()
	register()
}
class Payment {
}
class Admin {
	check()
	update()
}
class Mail {
}
class Client {
	check()
	add()
}
class GoogleDrive {
}
class Roster {
}
class Password {
}
class Detail {
}
class MusicNote {
}
class Member {
	view()
}
class Calendar {
}
class Update {
}
class Link {
}
class Information {
}
class News {
}
class Email {
}
class OtherDetail {
}
class Trailer {
}
User - -> Detail : view
Member - -> Calendar : view
User - -> Dvd : purchase
User - -> Update : receive
Parent - -> Payment : set_up
Client - -> Link : add
Member - -> Information : view
Admin o- - Mail : check
Admin - -> Information : update
Donor - -> Vymacommunity : support
User - -> News : receive
Client - -> GoogleDrive : check
Section - -> Notification : trigger
Client o- - Email : check
Admin - -> Roster : update
Parent - -> OtherDetail : view
Parent - -> Password : view
User - -> Trailer : view
News o- - Section
Admin - -> Detail : update
Student - -> MusicNote : download
@enduml

PlantUML version 1.2021.10beta2(Unknown compile time)
(GPL source distribution)
Java Runtime: Java(TM) SE Runtime Environment
JVM: Java HotSpot(TM) 64-Bit Server VM
Default Encoding: UTF-8
Language: en
Country: US
--></g></svg>