<?xml version="1.0" encoding="UTF-8" standalone="no"?><svg xmlns="http://www.w3.org/2000/svg" xmlns:xlink="http://www.w3.org/1999/xlink" contentScriptType="application/ecmascript" contentStyleType="text/css" height="464px" preserveAspectRatio="none" style="width:2644px;height:464px;background:#FFFFFF;" version="1.1" viewBox="0 0 2644 464" width="2644px" zoomAndPan="magnify"><defs><filter height="300%" id="fl1p8fidn7ew4" width="300%" x="-1" y="-1"><feGaussianBlur result="blurOut" stdDeviation="2.0"/><feColorMatrix in="blurOut" result="blurOut2" type="matrix" values="0 0 0 0 0 0 0 0 0 0 0 0 0 0 0 0 0 0 .4 0"/><feOffset dx="4.0" dy="4.0" in="blurOut2" result="blurOut3"/><feBlend in="SourceGraphic" in2="blurOut3" mode="normal"/></filter></defs><g><!--MD5=[3fd616f346a44cd59a91eb10b19e157c]
class User--><rect codeLine="30" fill="#FEFECE" filter="url(#fl1p8fidn7ew4)" height="116.7969" id="User" style="stroke:#A80036;stroke-width:1.5;" width="74" x="1154.5" y="217"/><text fill="#000000" font-family="sans-serif" font-size="12" lengthAdjust="spacing" textLength="29" x="1159.5" y="233.1387">User</text><rect fill="#FFFFFF" height="15.9688" style="stroke:#000000;stroke-width:1.0;stroke-dasharray:2.0,2.0;" width="33" x="1198.5" y="214"/><text fill="#000000" font-family="sans-serif" font-size="12" font-style="italic" lengthAdjust="spacing" textLength="31" x="1199.5" y="226.1387">actor</text><line style="stroke:#A80036;stroke-width:1.5;" x1="1155.5" x2="1227.5" y1="240.9688" y2="240.9688"/><line style="stroke:#A80036;stroke-width:1.5;" x1="1155.5" x2="1227.5" y1="248.9688" y2="248.9688"/><text fill="#000000" font-family="sans-serif" font-size="11" lengthAdjust="spacing" textLength="37" x="1160.5" y="263.1792">have()</text><text fill="#000000" font-family="sans-serif" font-size="11" lengthAdjust="spacing" textLength="52" x="1160.5" y="275.9839">receive()</text><text fill="#000000" font-family="sans-serif" font-size="11" lengthAdjust="spacing" textLength="46" x="1160.5" y="288.7886">search()</text><text fill="#000000" font-family="sans-serif" font-size="11" lengthAdjust="spacing" textLength="35" x="1160.5" y="301.5933">view()</text><text fill="#000000" font-family="sans-serif" font-size="11" lengthAdjust="spacing" textLength="60" x="1160.5" y="314.3979">purchase()</text><text fill="#000000" font-family="sans-serif" font-size="11" lengthAdjust="spacing" textLength="62" x="1160.5" y="327.2026">subscribe()</text><!--MD5=[cf9bc73d4b319b8f5d50999aecc13d13]
class Parent--><rect codeLine="40" fill="#FEFECE" filter="url(#fl1p8fidn7ew4)" height="129.6016" id="Parent" style="stroke:#A80036;stroke-width:1.5;" width="78" x="1521.5" y="10"/><text fill="#000000" font-family="sans-serif" font-size="12" lengthAdjust="spacing" textLength="37" x="1524.5" y="26.1387">Parent</text><rect fill="#FFFFFF" height="15.9688" style="stroke:#000000;stroke-width:1.0;stroke-dasharray:2.0,2.0;" width="33" x="1569.5" y="7"/><text fill="#000000" font-family="sans-serif" font-size="12" font-style="italic" lengthAdjust="spacing" textLength="31" x="1570.5" y="19.1387">actor</text><line style="stroke:#A80036;stroke-width:1.5;" x1="1522.5" x2="1598.5" y1="33.9688" y2="33.9688"/><text fill="#000000" font-family="sans-serif" font-size="11" lengthAdjust="spacing" textLength="32" x="1527.5" y="48.1792">detail</text><text fill="#000000" font-family="sans-serif" font-size="11" lengthAdjust="spacing" textLength="35" x="1527.5" y="60.9839">tuition</text><line style="stroke:#A80036;stroke-width:1.5;" x1="1522.5" x2="1598.5" y1="67.5781" y2="67.5781"/><text fill="#000000" font-family="sans-serif" font-size="11" lengthAdjust="spacing" textLength="46" x="1527.5" y="81.7886">set_up()</text><text fill="#000000" font-family="sans-serif" font-size="11" lengthAdjust="spacing" textLength="52" x="1527.5" y="94.5933">register()</text><text fill="#000000" font-family="sans-serif" font-size="11" lengthAdjust="spacing" textLength="35" x="1527.5" y="107.3979">view()</text><text fill="#000000" font-family="sans-serif" font-size="11" lengthAdjust="spacing" textLength="29" x="1527.5" y="120.2026">pay()</text><text fill="#000000" font-family="sans-serif" font-size="11" lengthAdjust="spacing" textLength="26" x="1527.5" y="133.0073">set()</text><!--MD5=[ed6624c6556d5e7b1bd23032162d20b7]
class Client--><rect codeLine="51" fill="#FEFECE" filter="url(#fl1p8fidn7ew4)" height="78.3828" id="Client" style="stroke:#A80036;stroke-width:1.5;" width="74" x="170.5" y="236.5"/><text fill="#000000" font-family="sans-serif" font-size="12" lengthAdjust="spacing" textLength="33" x="173.5" y="252.6387">Client</text><rect fill="#FFFFFF" height="15.9688" style="stroke:#000000;stroke-width:1.0;stroke-dasharray:2.0,2.0;" width="33" x="214.5" y="233.5"/><text fill="#000000" font-family="sans-serif" font-size="12" font-style="italic" lengthAdjust="spacing" textLength="31" x="215.5" y="245.6387">actor</text><line style="stroke:#A80036;stroke-width:1.5;" x1="171.5" x2="243.5" y1="260.4688" y2="260.4688"/><text fill="#000000" font-family="sans-serif" font-size="11" lengthAdjust="spacing" textLength="32" x="176.5" y="274.6792">email</text><line style="stroke:#A80036;stroke-width:1.5;" x1="171.5" x2="243.5" y1="281.2734" y2="281.2734"/><text fill="#000000" font-family="sans-serif" font-size="11" lengthAdjust="spacing" textLength="29" x="176.5" y="295.4839">add()</text><text fill="#000000" font-family="sans-serif" font-size="11" lengthAdjust="spacing" textLength="41" x="176.5" y="308.2886">check()</text><!--MD5=[f58fd777f29c17413488bea9e7cfcca3]
class Member--><rect codeLine="68" fill="#FEFECE" filter="url(#fl1p8fidn7ew4)" height="52.7734" id="Member" style="stroke:#A80036;stroke-width:1.5;" width="91" x="483" y="249"/><text fill="#000000" font-family="sans-serif" font-size="12" lengthAdjust="spacing" textLength="50" x="486" y="265.1387">Member</text><rect fill="#FFFFFF" height="15.9688" style="stroke:#000000;stroke-width:1.0;stroke-dasharray:2.0,2.0;" width="33" x="544" y="246"/><text fill="#000000" font-family="sans-serif" font-size="12" font-style="italic" lengthAdjust="spacing" textLength="31" x="545" y="258.1387">actor</text><line style="stroke:#A80036;stroke-width:1.5;" x1="484" x2="573" y1="272.9688" y2="272.9688"/><line style="stroke:#A80036;stroke-width:1.5;" x1="484" x2="573" y1="280.9688" y2="280.9688"/><text fill="#000000" font-family="sans-serif" font-size="11" lengthAdjust="spacing" textLength="35" x="489" y="295.1792">view()</text><!--MD5=[d6181cb537bdc20c0a3007a98a56832d]
class Student--><rect codeLine="57" fill="#FEFECE" filter="url(#fl1p8fidn7ew4)" height="78.3828" id="Student" style="stroke:#A80036;stroke-width:1.5;" width="87" x="2002" y="36"/><text fill="#000000" font-family="sans-serif" font-size="12" lengthAdjust="spacing" textLength="46" x="2005" y="52.1387">Student</text><rect fill="#FFFFFF" height="15.9688" style="stroke:#000000;stroke-width:1.0;stroke-dasharray:2.0,2.0;" width="33" x="2059" y="33"/><text fill="#000000" font-family="sans-serif" font-size="12" font-style="italic" lengthAdjust="spacing" textLength="31" x="2060" y="45.1387">actor</text><line style="stroke:#A80036;stroke-width:1.5;" x1="2003" x2="2088" y1="59.9688" y2="59.9688"/><line style="stroke:#A80036;stroke-width:1.5;" x1="2003" x2="2088" y1="67.9688" y2="67.9688"/><text fill="#000000" font-family="sans-serif" font-size="11" lengthAdjust="spacing" textLength="62" x="2008" y="82.1792">download()</text><text fill="#000000" font-family="sans-serif" font-size="11" lengthAdjust="spacing" textLength="53" x="2008" y="94.9839">practice()</text><text fill="#000000" font-family="sans-serif" font-size="11" lengthAdjust="spacing" textLength="52" x="2008" y="107.7886">register()</text><!--MD5=[08385c368f5d303c28b24e93c0141e57]
class Donor--><rect codeLine="82" fill="#FEFECE" filter="url(#fl1p8fidn7ew4)" height="65.5781" id="Donor" style="stroke:#A80036;stroke-width:1.5;" width="78" x="2361.5" y="42"/><text fill="#000000" font-family="sans-serif" font-size="12" lengthAdjust="spacing" textLength="37" x="2364.5" y="58.1387">Donor</text><rect fill="#FFFFFF" height="15.9688" style="stroke:#000000;stroke-width:1.0;stroke-dasharray:2.0,2.0;" width="33" x="2409.5" y="39"/><text fill="#000000" font-family="sans-serif" font-size="12" font-style="italic" lengthAdjust="spacing" textLength="31" x="2410.5" y="51.1387">actor</text><line style="stroke:#A80036;stroke-width:1.5;" x1="2362.5" x2="2438.5" y1="65.9688" y2="65.9688"/><line style="stroke:#A80036;stroke-width:1.5;" x1="2362.5" x2="2438.5" y1="73.9688" y2="73.9688"/><text fill="#000000" font-family="sans-serif" font-size="11" lengthAdjust="spacing" textLength="50" x="2367.5" y="88.1792">support()</text><text fill="#000000" font-family="sans-serif" font-size="11" lengthAdjust="spacing" textLength="40" x="2367.5" y="100.9839">make()</text><!--MD5=[661c05259cf57e4b4baa54079a4420a8]
class Child--><rect codeLine="17" fill="#FEFECE" filter="url(#fl1p8fidn7ew4)" height="52.7734" id="Child" style="stroke:#A80036;stroke-width:1.5;" width="47" x="2475" y="48.5"/><text fill="#000000" font-family="sans-serif" font-size="12" lengthAdjust="spacing" textLength="29" x="2484" y="64.6387">Child</text><line style="stroke:#A80036;stroke-width:1.5;" x1="2476" x2="2521" y1="72.4688" y2="72.4688"/><text fill="#000000" font-family="sans-serif" font-size="11" lengthAdjust="spacing" textLength="35" x="2481" y="86.6792">tuition</text><line style="stroke:#A80036;stroke-width:1.5;" x1="2476" x2="2521" y1="93.2734" y2="93.2734"/><!--MD5=[db6d18d8099558415abc41d00477ab92]
class Admin--><rect codeLine="20" fill="#FEFECE" filter="url(#fl1p8fidn7ew4)" height="78.3828" id="Admin" style="stroke:#A80036;stroke-width:1.5;" width="60" x="731.5" y="236.5"/><text fill="#000000" font-family="sans-serif" font-size="12" lengthAdjust="spacing" textLength="37" x="743" y="252.6387">Admin</text><line style="stroke:#A80036;stroke-width:1.5;" x1="732.5" x2="790.5" y1="260.4688" y2="260.4688"/><text fill="#000000" font-family="sans-serif" font-size="11" lengthAdjust="spacing" textLength="24" x="737.5" y="274.6792">mail</text><line style="stroke:#A80036;stroke-width:1.5;" x1="732.5" x2="790.5" y1="281.2734" y2="281.2734"/><text fill="#000000" font-family="sans-serif" font-size="11" lengthAdjust="spacing" textLength="48" x="737.5" y="295.4839">update()</text><text fill="#000000" font-family="sans-serif" font-size="11" lengthAdjust="spacing" textLength="41" x="737.5" y="308.2886">check()</text><!--MD5=[8e25390c635c35bf4f9330e34b8d70bb]
class VYMA--><rect codeLine="25" fill="#FEFECE" filter="url(#fl1p8fidn7ew4)" height="52.7734" id="VYMA" style="stroke:#A80036;stroke-width:1.5;" width="73" x="2557" y="48.5"/><text fill="#000000" font-family="sans-serif" font-size="12" lengthAdjust="spacing" textLength="33" x="2577" y="64.6387">VYMA</text><line style="stroke:#A80036;stroke-width:1.5;" x1="2558" x2="2629" y1="72.4688" y2="72.4688"/><text fill="#000000" font-family="sans-serif" font-size="11" lengthAdjust="spacing" textLength="61" x="2563" y="86.6792">newsletter</text><line style="stroke:#A80036;stroke-width:1.5;" x1="2558" x2="2629" y1="93.2734" y2="93.2734"/><!--MD5=[30fd7b95ab383a5e7c83ea23d4ea0fbf]
class Information--><rect codeLine="28" fill="#FEFECE" filter="url(#fl1p8fidn7ew4)" height="39.9688" id="Information" style="stroke:#A80036;stroke-width:1.5;" width="73" x="415" y="411"/><text fill="#000000" font-family="sans-serif" font-size="12" lengthAdjust="spacing" textLength="67" x="418" y="427.1387">Information</text><line style="stroke:#A80036;stroke-width:1.5;" x1="416" x2="487" y1="434.9688" y2="434.9688"/><line style="stroke:#A80036;stroke-width:1.5;" x1="416" x2="487" y1="442.9688" y2="442.9688"/><!--MD5=[028fba31e0312914fa4880b63f0540b8]
class Detail--><rect codeLine="38" fill="#FEFECE" filter="url(#fl1p8fidn7ew4)" height="39.9688" id="Detail" style="stroke:#A80036;stroke-width:1.5;" width="40" x="899.5" y="411"/><text fill="#000000" font-family="sans-serif" font-size="12" lengthAdjust="spacing" textLength="34" x="902.5" y="427.1387">Detail</text><line style="stroke:#A80036;stroke-width:1.5;" x1="900.5" x2="938.5" y1="434.9688" y2="434.9688"/><line style="stroke:#A80036;stroke-width:1.5;" x1="900.5" x2="938.5" y1="442.9688" y2="442.9688"/><!--MD5=[2f01b1126ff33a0669651ec2488a5ef9]
class Password--><rect codeLine="47" fill="#FEFECE" filter="url(#fl1p8fidn7ew4)" height="39.9688" id="Password" style="stroke:#A80036;stroke-width:1.5;" width="64" x="1613.5" y="255.5"/><text fill="#000000" font-family="sans-serif" font-size="12" lengthAdjust="spacing" textLength="58" x="1616.5" y="271.6387">Password</text><line style="stroke:#A80036;stroke-width:1.5;" x1="1614.5" x2="1676.5" y1="279.4688" y2="279.4688"/><line style="stroke:#A80036;stroke-width:1.5;" x1="1614.5" x2="1676.5" y1="287.4688" y2="287.4688"/><!--MD5=[764fca796ce7f635542948d8fc39db5e]
class Payment--><rect codeLine="49" fill="#FEFECE" filter="url(#fl1p8fidn7ew4)" height="39.9688" id="Payment" style="stroke:#A80036;stroke-width:1.5;" width="56" x="1400.5" y="255.5"/><text fill="#000000" font-family="sans-serif" font-size="12" lengthAdjust="spacing" textLength="50" x="1403.5" y="271.6387">Payment</text><line style="stroke:#A80036;stroke-width:1.5;" x1="1401.5" x2="1455.5" y1="279.4688" y2="279.4688"/><line style="stroke:#A80036;stroke-width:1.5;" x1="1401.5" x2="1455.5" y1="287.4688" y2="287.4688"/><!--MD5=[767f754094ca5d3269abf36ccdd883d9]
class Googledrive--><rect codeLine="55" fill="#FEFECE" filter="url(#fl1p8fidn7ew4)" height="39.9688" id="Googledrive" style="stroke:#A80036;stroke-width:1.5;" width="81" x="167" y="411"/><text fill="#000000" font-family="sans-serif" font-size="12" lengthAdjust="spacing" textLength="75" x="170" y="427.1387">Googledrive</text><line style="stroke:#A80036;stroke-width:1.5;" x1="168" x2="247" y1="434.9688" y2="434.9688"/><line style="stroke:#A80036;stroke-width:1.5;" x1="168" x2="247" y1="442.9688" y2="442.9688"/><!--MD5=[36b1ebf6a30b4cbfab7ef8e8f83c47cf]
class Concert--><rect codeLine="62" fill="#FEFECE" filter="url(#fl1p8fidn7ew4)" height="39.9688" id="Concert" style="stroke:#A80036;stroke-width:1.5;" width="53" x="2110" y="255.5"/><text fill="#000000" font-family="sans-serif" font-size="12" lengthAdjust="spacing" textLength="47" x="2113" y="271.6387">Concert</text><line style="stroke:#A80036;stroke-width:1.5;" x1="2111" x2="2162" y1="279.4688" y2="279.4688"/><line style="stroke:#A80036;stroke-width:1.5;" x1="2111" x2="2162" y1="287.4688" y2="287.4688"/><!--MD5=[079b0b114f6f5dc1715ad62860f6c52a]
class Newsletter--><rect codeLine="64" fill="#FEFECE" filter="url(#fl1p8fidn7ew4)" height="39.9688" id="Newsletter" style="stroke:#A80036;stroke-width:1.5;" width="71" x="1009" y="411"/><text fill="#000000" font-family="sans-serif" font-size="12" lengthAdjust="spacing" textLength="65" x="1012" y="427.1387">Newsletter</text><line style="stroke:#A80036;stroke-width:1.5;" x1="1010" x2="1079" y1="434.9688" y2="434.9688"/><line style="stroke:#A80036;stroke-width:1.5;" x1="1010" x2="1079" y1="442.9688" y2="442.9688"/><!--MD5=[60f2633f4c630ac173648db81f4f85a7]
class Rehearsal--><rect codeLine="66" fill="#FEFECE" filter="url(#fl1p8fidn7ew4)" height="39.9688" id="Rehearsal" style="stroke:#A80036;stroke-width:1.5;" width="65" x="2198" y="255.5"/><text fill="#000000" font-family="sans-serif" font-size="12" lengthAdjust="spacing" textLength="59" x="2201" y="271.6387">Rehearsal</text><line style="stroke:#A80036;stroke-width:1.5;" x1="2199" x2="2262" y1="279.4688" y2="279.4688"/><line style="stroke:#A80036;stroke-width:1.5;" x1="2199" x2="2262" y1="287.4688" y2="287.4688"/><!--MD5=[1a502b0dbedafd291c48f46ef8646183]
class Feedback--><rect codeLine="71" fill="#FEFECE" filter="url(#fl1p8fidn7ew4)" height="52.7734" id="Feedback" style="stroke:#A80036;stroke-width:1.5;" width="66" x="1226.5" y="48.5"/><text fill="#000000" font-family="sans-serif" font-size="12" lengthAdjust="spacing" textLength="60" x="1229.5" y="64.6387">Feedback</text><line style="stroke:#A80036;stroke-width:1.5;" x1="1227.5" x2="1291.5" y1="72.4688" y2="72.4688"/><line style="stroke:#A80036;stroke-width:1.5;" x1="1227.5" x2="1291.5" y1="80.4688" y2="80.4688"/><text fill="#000000" font-family="sans-serif" font-size="11" lengthAdjust="spacing" textLength="51" x="1232.5" y="94.6792">provide()</text><!--MD5=[7e65a71ffd125836dc3bfe062cb4326d]
class ContactUsPage--><rect codeLine="74" fill="#FEFECE" filter="url(#fl1p8fidn7ew4)" height="39.9688" id="ContactUsPage" style="stroke:#A80036;stroke-width:1.5;" width="96" x="1263.5" y="255.5"/><text fill="#000000" font-family="sans-serif" font-size="12" lengthAdjust="spacing" textLength="90" x="1266.5" y="271.6387">ContactUsPage</text><line style="stroke:#A80036;stroke-width:1.5;" x1="1264.5" x2="1358.5" y1="279.4688" y2="279.4688"/><line style="stroke:#A80036;stroke-width:1.5;" x1="1264.5" x2="1358.5" y1="287.4688" y2="287.4688"/><!--MD5=[7a61594029303f9a476eb599fbfc6915]
class MusicNote--><rect codeLine="76" fill="#FEFECE" filter="url(#fl1p8fidn7ew4)" height="39.9688" id="MusicNote" style="stroke:#A80036;stroke-width:1.5;" width="68" x="1712.5" y="255.5"/><text fill="#000000" font-family="sans-serif" font-size="12" lengthAdjust="spacing" textLength="62" x="1715.5" y="271.6387">MusicNote</text><line style="stroke:#A80036;stroke-width:1.5;" x1="1713.5" x2="1779.5" y1="279.4688" y2="279.4688"/><line style="stroke:#A80036;stroke-width:1.5;" x1="1713.5" x2="1779.5" y1="287.4688" y2="287.4688"/><!--MD5=[e2d3da46aad6ad2235ed97afaf326e98]
class Update--><rect codeLine="78" fill="#FEFECE" filter="url(#fl1p8fidn7ew4)" height="39.9688" id="Update" style="stroke:#A80036;stroke-width:1.5;" width="50" x="1122.5" y="411"/><text fill="#000000" font-family="sans-serif" font-size="12" lengthAdjust="spacing" textLength="44" x="1125.5" y="427.1387">Update</text><line style="stroke:#A80036;stroke-width:1.5;" x1="1123.5" x2="1171.5" y1="434.9688" y2="434.9688"/><line style="stroke:#A80036;stroke-width:1.5;" x1="1123.5" x2="1171.5" y1="442.9688" y2="442.9688"/><!--MD5=[6a494c20d032ff54e1efa92c1369bc7b]
class Page--><rect codeLine="80" fill="#FEFECE" filter="url(#fl1p8fidn7ew4)" height="39.9688" id="Page" style="stroke:#A80036;stroke-width:1.5;" width="35" x="1924" y="255.5"/><text fill="#000000" font-family="sans-serif" font-size="12" lengthAdjust="spacing" textLength="29" x="1927" y="271.6387">Page</text><line style="stroke:#A80036;stroke-width:1.5;" x1="1925" x2="1958" y1="279.4688" y2="279.4688"/><line style="stroke:#A80036;stroke-width:1.5;" x1="1925" x2="1958" y1="287.4688" y2="287.4688"/><!--MD5=[17907fcaf021f39d1813291df3da99a7]
class Online--><rect codeLine="86" fill="#FEFECE" filter="url(#fl1p8fidn7ew4)" height="39.9688" id="Online" style="stroke:#A80036;stroke-width:1.5;" width="44" x="2023.5" y="255.5"/><text fill="#000000" font-family="sans-serif" font-size="12" lengthAdjust="spacing" textLength="38" x="2026.5" y="271.6387">Online</text><line style="stroke:#A80036;stroke-width:1.5;" x1="2024.5" x2="2066.5" y1="279.4688" y2="279.4688"/><line style="stroke:#A80036;stroke-width:1.5;" x1="2024.5" x2="2066.5" y1="287.4688" y2="287.4688"/><!--MD5=[78bec0fde86ad92ec1dc3fb343b83709]
class Email--><rect codeLine="88" fill="#FEFECE" filter="url(#fl1p8fidn7ew4)" height="39.9688" id="Email" style="stroke:#A80036;stroke-width:1.5;" width="37" x="283" y="411"/><text fill="#000000" font-family="sans-serif" font-size="12" lengthAdjust="spacing" textLength="31" x="286" y="427.1387">Email</text><line style="stroke:#A80036;stroke-width:1.5;" x1="284" x2="319" y1="434.9688" y2="434.9688"/><line style="stroke:#A80036;stroke-width:1.5;" x1="284" x2="319" y1="442.9688" y2="442.9688"/><!--MD5=[8515a37c80da559ff7ce07f8a9e75d30]
class Place--><rect codeLine="90" fill="#FEFECE" filter="url(#fl1p8fidn7ew4)" height="39.9688" id="Place" style="stroke:#A80036;stroke-width:1.5;" width="37" x="1216" y="411"/><text fill="#000000" font-family="sans-serif" font-size="12" lengthAdjust="spacing" textLength="31" x="1219" y="427.1387">Place</text><line style="stroke:#A80036;stroke-width:1.5;" x1="1217" x2="1252" y1="434.9688" y2="434.9688"/><line style="stroke:#A80036;stroke-width:1.5;" x1="1217" x2="1252" y1="442.9688" y2="442.9688"/><!--MD5=[f572c118330f78587a09a8d1323f8ced]
class Calendar--><rect codeLine="92" fill="#FEFECE" filter="url(#fl1p8fidn7ew4)" height="39.9688" id="Calendar" style="stroke:#A80036;stroke-width:1.5;" width="59" x="581" y="411"/><text fill="#000000" font-family="sans-serif" font-size="12" lengthAdjust="spacing" textLength="53" x="584" y="427.1387">Calendar</text><line style="stroke:#A80036;stroke-width:1.5;" x1="582" x2="639" y1="434.9688" y2="434.9688"/><line style="stroke:#A80036;stroke-width:1.5;" x1="582" x2="639" y1="442.9688" y2="442.9688"/><!--MD5=[40e92e76b0c4ce8ed40790b8b04e6104]
class NewsSection--><rect codeLine="94" fill="#FEFECE" filter="url(#fl1p8fidn7ew4)" height="39.9688" id="NewsSection" style="stroke:#A80036;stroke-width:1.5;" width="84" x="675.5" y="411"/><text fill="#000000" font-family="sans-serif" font-size="12" lengthAdjust="spacing" textLength="78" x="678.5" y="427.1387">NewsSection</text><line style="stroke:#A80036;stroke-width:1.5;" x1="676.5" x2="758.5" y1="434.9688" y2="434.9688"/><line style="stroke:#A80036;stroke-width:1.5;" x1="676.5" x2="758.5" y1="442.9688" y2="442.9688"/><!--MD5=[317fa42ee935da44eb3b0db0eaef8bbc]
class OtherDetail--><rect codeLine="96" fill="#FEFECE" filter="url(#fl1p8fidn7ew4)" height="39.9688" id="OtherDetail" style="stroke:#A80036;stroke-width:1.5;" width="74" x="1504.5" y="255.5"/><text fill="#000000" font-family="sans-serif" font-size="12" lengthAdjust="spacing" textLength="68" x="1507.5" y="271.6387">OtherDetail</text><line style="stroke:#A80036;stroke-width:1.5;" x1="1505.5" x2="1577.5" y1="279.4688" y2="279.4688"/><line style="stroke:#A80036;stroke-width:1.5;" x1="1505.5" x2="1577.5" y1="287.4688" y2="287.4688"/><!--MD5=[e65e6d38455b41cf3bfbebe5b46c38ff]
class Trailer--><rect codeLine="98" fill="#FEFECE" filter="url(#fl1p8fidn7ew4)" height="39.9688" id="Trailer" style="stroke:#A80036;stroke-width:1.5;" width="44" x="1288.5" y="411"/><text fill="#000000" font-family="sans-serif" font-size="12" lengthAdjust="spacing" textLength="38" x="1291.5" y="427.1387">Trailer</text><line style="stroke:#A80036;stroke-width:1.5;" x1="1289.5" x2="1331.5" y1="434.9688" y2="434.9688"/><line style="stroke:#A80036;stroke-width:1.5;" x1="1289.5" x2="1331.5" y1="442.9688" y2="442.9688"/><!--MD5=[110d3e1b3848a9f83035e0cf17801c91]
class Applicant--><rect codeLine="100" fill="#FEFECE" filter="url(#fl1p8fidn7ew4)" height="39.9688" id="Applicant" style="stroke:#A80036;stroke-width:1.5;" width="61" x="7" y="411"/><text fill="#000000" font-family="sans-serif" font-size="12" lengthAdjust="spacing" textLength="55" x="10" y="427.1387">Applicant</text><line style="stroke:#A80036;stroke-width:1.5;" x1="8" x2="67" y1="434.9688" y2="434.9688"/><line style="stroke:#A80036;stroke-width:1.5;" x1="8" x2="67" y1="442.9688" y2="442.9688"/><!--MD5=[cbaac4eed5b318c44b2ea50495fa77ea]
class News--><rect codeLine="102" fill="#FEFECE" filter="url(#fl1p8fidn7ew4)" height="39.9688" id="News" style="stroke:#A80036;stroke-width:1.5;" width="39" x="1368" y="411"/><text fill="#000000" font-family="sans-serif" font-size="12" lengthAdjust="spacing" textLength="33" x="1371" y="427.1387">News</text><line style="stroke:#A80036;stroke-width:1.5;" x1="1369" x2="1406" y1="434.9688" y2="434.9688"/><line style="stroke:#A80036;stroke-width:1.5;" x1="1369" x2="1406" y1="442.9688" y2="442.9688"/><!--MD5=[c408ada0d97f8f71dbced7e302a17305]
class VYMACommunity--><rect codeLine="104" fill="#FEFECE" filter="url(#fl1p8fidn7ew4)" height="39.9688" id="VYMACommunity" style="stroke:#A80036;stroke-width:1.5;" width="105" x="2348" y="255.5"/><text fill="#000000" font-family="sans-serif" font-size="12" lengthAdjust="spacing" textLength="99" x="2351" y="271.6387">VYMACommunity</text><line style="stroke:#A80036;stroke-width:1.5;" x1="2349" x2="2452" y1="279.4688" y2="279.4688"/><line style="stroke:#A80036;stroke-width:1.5;" x1="2349" x2="2452" y1="287.4688" y2="287.4688"/><!--MD5=[d189332174d53557e6def82bbd003869]
class Link--><rect codeLine="106" fill="#FEFECE" filter="url(#fl1p8fidn7ew4)" height="39.9688" id="Link" style="stroke:#A80036;stroke-width:1.5;" width="29" x="103" y="411"/><text fill="#000000" font-family="sans-serif" font-size="12" lengthAdjust="spacing" textLength="23" x="106" y="427.1387">Link</text><line style="stroke:#A80036;stroke-width:1.5;" x1="104" x2="131" y1="434.9688" y2="434.9688"/><line style="stroke:#A80036;stroke-width:1.5;" x1="104" x2="131" y1="442.9688" y2="442.9688"/><!--MD5=[93b867cf5e7a1e913dd5047074c12207]
class Mail--><rect codeLine="108" fill="#FEFECE" filter="url(#fl1p8fidn7ew4)" height="39.9688" id="Mail" style="stroke:#A80036;stroke-width:1.5;" width="29" x="795" y="411"/><text fill="#000000" font-family="sans-serif" font-size="12" lengthAdjust="spacing" textLength="23" x="798" y="427.1387">Mail</text><line style="stroke:#A80036;stroke-width:1.5;" x1="796" x2="823" y1="434.9688" y2="434.9688"/><line style="stroke:#A80036;stroke-width:1.5;" x1="796" x2="823" y1="442.9688" y2="442.9688"/><!--MD5=[00d2bb81b7543d7f0bb90dde0ee060bf]
class Endeavor--><rect codeLine="110" fill="#FEFECE" filter="url(#fl1p8fidn7ew4)" height="39.9688" id="Endeavor" style="stroke:#A80036;stroke-width:1.5;" width="63" x="2488" y="255.5"/><text fill="#000000" font-family="sans-serif" font-size="12" lengthAdjust="spacing" textLength="57" x="2491" y="271.6387">Endeavor</text><line style="stroke:#A80036;stroke-width:1.5;" x1="2489" x2="2550" y1="279.4688" y2="279.4688"/><line style="stroke:#A80036;stroke-width:1.5;" x1="2489" x2="2550" y1="287.4688" y2="287.4688"/><!--MD5=[76979a5a2f694f0473fc60cce7bc6a1d]
link User to Trailer--><path codeLine="112" d="M1228.51,322.12 C1239.25,335.533 1250.93,350.287 1261.5,364 C1272.3,378.0138 1284.13,393.9344 1293.47,406.6278 " fill="none" id="User-to-Trailer" style="stroke:#A80036;stroke-width:1.0;"/><polygon fill="#A80036" points="1296.53,410.8013,1294.4267,401.1797,1293.5704,406.7713,1287.9787,405.915,1296.53,410.8013" style="stroke:#A80036;stroke-width:1.0;"/><text fill="#000000" font-family="sans-serif" font-size="13" lengthAdjust="spacing" textLength="30" x="1275.5" y="377.0669">view</text><!--MD5=[bdd58364f90171701dcb0a5373671f68]
link Parent to Password--><path codeLine="113" d="M1587.98,140.173 C1604.14,177.921 1623.64,223.439 1635.27,250.619 " fill="none" id="Parent-to-Password" style="stroke:#A80036;stroke-width:1.0;"/><polygon fill="#A80036" points="1637.35,255.475,1637.4754,245.6269,1635.3776,250.8805,1630.1241,248.7827,1637.35,255.475" style="stroke:#A80036;stroke-width:1.0;"/><text fill="#000000" font-family="sans-serif" font-size="13" lengthAdjust="spacing" textLength="30" x="1607.5" y="183.0669">view</text><!--MD5=[d872e0dcd31d61b1d96c7124f0efa0db]
link Parent to Online--><path codeLine="114" d="M1599.75,88.396 C1696.76,119.164 1942.45,197.918 1976.5,217 C1993.27,226.395 2009.88,240.072 2022.61,251.729 " fill="none" id="Parent-to-Online" style="stroke:#A80036;stroke-width:1.0;"/><polygon fill="#A80036" points="2026.43,255.275,2022.5533,246.2212,2022.7648,251.8741,2017.1119,252.0856,2026.43,255.275" style="stroke:#A80036;stroke-width:1.0;"/><text fill="#000000" font-family="sans-serif" font-size="13" lengthAdjust="spacing" textLength="49" x="1899.5" y="183.0669">register</text><!--MD5=[a421cc73cfb01b18772ccf80ff98e661]
link User to Update--><path codeLine="115" d="M1169.78,334.014 C1166.42,343.936 1163.18,354.2079 1160.5,364 C1156.77,377.6003 1153.67,393.0544 1151.43,405.5877 " fill="none" id="User-to-Update" style="stroke:#A80036;stroke-width:1.0;"/><polygon fill="#A80036" points="1150.52,410.7664,1156.0101,402.5896,1151.381,405.8411,1148.1296,401.212,1150.52,410.7664" style="stroke:#A80036;stroke-width:1.0;"/><text fill="#000000" font-family="sans-serif" font-size="13" lengthAdjust="spacing" textLength="47" x="1161.5" y="377.0669">receive</text><!--MD5=[59a9940f35054a42f16b92827aad867d]
link Parent to Payment--><path codeLine="116" d="M1521.38,88.231 C1485.31,101.83 1433.94,127.65 1410.5,170 C1396.6,195.113 1406.31,228.397 1416.02,250.585 " fill="none" id="Parent-to-Payment" style="stroke:#A80036;stroke-width:1.0;"/><polygon fill="#A80036" points="1418.09,255.144,1418.0226,245.2954,1416.0281,250.5889,1410.7345,248.5944,1418.09,255.144" style="stroke:#A80036;stroke-width:1.0;"/><text fill="#000000" font-family="sans-serif" font-size="13" lengthAdjust="spacing" textLength="20" x="1411.5" y="183.0669">set</text><!--MD5=[59a9940f35054a42f16b92827aad867d]
link Parent to Payment--><path codeLine="128" d="M1521.45,134.125 C1513.51,145.984 1505.23,158.387 1497.5,170 C1479.06,197.714 1458,229.658 1444.04,250.858 " fill="none" id="Parent-to-Payment-1" style="stroke:#A80036;stroke-width:1.0;"/><polygon fill="#A80036" points="1441.18,255.214,1449.4636,249.8865,1443.9245,251.0345,1442.7765,245.4954,1441.18,255.214" style="stroke:#A80036;stroke-width:1.0;"/><text fill="#000000" font-family="sans-serif" font-size="13" lengthAdjust="spacing" textLength="43" x="1498.5" y="183.0669">set_up</text><!--MD5=[9dde8456f86da1148e2d89cfc2431869]
link Client to Applicant--><path codeLine="117" d="M170.406,304.988 C149.368,321.596 122.86,343.292 100.5,364 C85.7546,377.6561 70.1506,393.9874 58.161,406.9878 " fill="none" id="Client-to-Applicant" style="stroke:#A80036;stroke-width:1.0;"/><polygon fill="#A80036" points="54.561,410.9089,63.5942,406.9845,57.9425,407.2258,57.7013,401.5741,54.561,410.9089" style="stroke:#A80036;stroke-width:1.0;"/><text fill="#000000" font-family="sans-serif" font-size="13" lengthAdjust="spacing" textLength="37" x="101.5" y="377.0669">check</text><!--MD5=[7223bdcc6016c1bd7dc79be91e312048]
link Student to Page--><path codeLine="118" d="M2009.18,114.243 C1995.43,130.419 1980.66,150.104 1970.5,170 C1957.34,195.77 1949.53,228.259 1945.39,250.113 " fill="none" id="Student-to-Page" style="stroke:#A80036;stroke-width:1.0;"/><polygon fill="#A80036" points="1944.46,255.155,1950.0227,247.0275,1945.3649,250.2376,1942.1548,245.5797,1944.46,255.155" style="stroke:#A80036;stroke-width:1.0;"/><text fill="#000000" font-family="sans-serif" font-size="13" lengthAdjust="spacing" textLength="62" x="1971.5" y="183.0669">download</text><!--MD5=[9902fbc8647ea0197a4a2845c1380e94]
link User to News--><path codeLine="119" d="M1228.63,320.037 C1233.99,325.094 1239.68,329.9 1245.5,334 C1272.84,353.2511 1286.39,345.882 1314.5,364 C1333.4,376.1849 1352.16,393.2876 1365.93,407.0299 " fill="none" id="User-to-News" style="stroke:#A80036;stroke-width:1.0;"/><polygon fill="#A80036" points="1369.68,410.8099,1366.1739,401.6063,1366.1558,407.2631,1360.499,407.245,1369.68,410.8099" style="stroke:#A80036;stroke-width:1.0;"/><text fill="#000000" font-family="sans-serif" font-size="13" lengthAdjust="spacing" textLength="47" x="1337.5" y="377.0669">receive</text><!--MD5=[3b7b96b0272a46b6ffbb7ab804208dcc]
link Student to Online--><path codeLine="120" d="M2043.64,114.012 C2042.8,135.444 2042.08,162.713 2042.5,187 C2042.87,208.348 2043.73,232.613 2044.44,250.166 " fill="none" id="Student-to-Online" style="stroke:#A80036;stroke-width:1.0;"/><polygon fill="#A80036" points="2044.66,255.387,2048.2893,246.2312,2044.4559,250.3912,2040.2959,246.5578,2044.66,255.387" style="stroke:#A80036;stroke-width:1.0;"/><text fill="#000000" font-family="sans-serif" font-size="13" lengthAdjust="spacing" textLength="49" x="2043.5" y="183.0669">register</text><!--MD5=[b6c512f390388889d5acc03899939f69]
link Client to Googledrive--><path codeLine="121" d="M207.5,314.839 C207.5,343.238 207.5,381.0911 207.5,405.5073 " fill="none" id="Client-to-Googledrive" style="stroke:#A80036;stroke-width:1.0;"/><polygon fill="#A80036" points="207.5,410.8066,211.5,401.8066,207.5,405.8066,203.5,401.8066,207.5,410.8066" style="stroke:#A80036;stroke-width:1.0;"/><text fill="#000000" font-family="sans-serif" font-size="13" lengthAdjust="spacing" textLength="37" x="208.5" y="377.0669">check</text><!--MD5=[c8071ca05e538686920fd5a4b9253ce6]
link Client to Information--><path codeLine="122" d="M244.558,299.813 C291.311,329.225 371.103,379.4221 416.741,408.1329 " fill="none" id="Client-to-Information" style="stroke:#A80036;stroke-width:1.0;"/><polygon fill="#A80036" points="421.048,410.8429,415.5605,402.6644,416.816,408.1802,411.3002,409.4357,421.048,410.8429" style="stroke:#A80036;stroke-width:1.0;"/><text fill="#000000" font-family="sans-serif" font-size="13" lengthAdjust="spacing" textLength="37" x="374.5" y="377.0669">check</text><!--MD5=[2ed9462148c463f4d66fa1aae48c4e08]
link Donor to VYMACommunity--><path codeLine="123" d="M2400.5,108.334 C2400.5,148.123 2400.5,214.77 2400.5,250.366 " fill="none" id="Donor-to-VYMACommunity" style="stroke:#A80036;stroke-width:1.0;"/><polygon fill="#A80036" points="2400.5,255.385,2404.5,246.385,2400.5,250.385,2396.5,246.385,2400.5,255.385" style="stroke:#A80036;stroke-width:1.0;"/><text fill="#000000" font-family="sans-serif" font-size="13" lengthAdjust="spacing" textLength="49" x="2401.5" y="183.0669">support</text><!--MD5=[a689dc2d092e14c52b8a00e842f82f67]
link Donor to Online--><path codeLine="124" d="M2363.67,108.114 C2332.81,133.334 2286.52,167.365 2240.5,187 C2178.77,213.337 2149.97,182.334 2092.5,217 C2078.83,225.244 2067.39,238.961 2059.22,250.93 " fill="none" id="Donor-to-Online" style="stroke:#A80036;stroke-width:1.0;"/><polygon fill="#A80036" points="2056.36,255.247,2064.6633,249.9504,2059.12,251.0778,2057.9926,245.5344,2056.36,255.247" style="stroke:#A80036;stroke-width:1.0;"/><text fill="#000000" font-family="sans-serif" font-size="13" lengthAdjust="spacing" textLength="36" x="2275.5" y="183.0669">make</text><!--MD5=[af7d5779a0233c06cce177a3cc4403c0]
link Student to Concert--><path codeLine="125" d="M2068.32,114.208 C2077.92,131.024 2088.85,151.194 2097.5,170 C2109.86,196.872 2121.36,228.882 2128.62,250.331 " fill="none" id="Student-to-Concert" style="stroke:#A80036;stroke-width:1.0;"/><polygon fill="#A80036" points="2130.28,255.277,2131.2039,245.4716,2128.6869,250.5376,2123.6209,248.0206,2130.28,255.277" style="stroke:#A80036;stroke-width:1.0;"/><text fill="#000000" font-family="sans-serif" font-size="13" lengthAdjust="spacing" textLength="51" x="2106.5" y="183.0669">practice</text><!--MD5=[e99c33e2de4541fd4e2e9c87ce7c280a]
link Client to Link--><path codeLine="126" d="M185.021,314.839 C168.16,343.596 145.616,382.0469 131.323,406.4241 " fill="none" id="Client-to-Link" style="stroke:#A80036;stroke-width:1.0;"/><polygon fill="#A80036" points="128.753,410.8066,136.756,405.0663,131.2822,406.4934,129.855,401.0196,128.753,410.8066" style="stroke:#A80036;stroke-width:1.0;"/><text fill="#000000" font-family="sans-serif" font-size="13" lengthAdjust="spacing" textLength="24" x="155.5" y="377.0669">add</text><!--MD5=[03ace3d29766901fa70c1cf7f24a30cc]
reverse link Client to Email--><path codeLine="127" d="M237.802,325.983 C255.491,354.8679 276.806,389.6759 289.746,410.8066 " fill="none" id="Client-backto-Email" style="stroke:#A80036;stroke-width:1.0;"/><polygon fill="#FFFFFF" points="230.978,314.839,230.7002,322.0447,237.2448,325.0726,237.5226,317.8669,230.978,314.839" style="stroke:#A80036;stroke-width:1.0;"/><text fill="#000000" font-family="sans-serif" font-size="13" lengthAdjust="spacing" textLength="37" x="272.5" y="377.0669">check</text><!--MD5=[690f8d9a7d18c3648ce468d9ea3c2b44]
link User to Newsletter--><path codeLine="129" d="M1154.04,303.145 C1132.81,319.318 1106.56,341.193 1086.5,364 C1075.24,376.8068 1064.92,392.9307 1057.33,406.0356 " fill="none" id="User-to-Newsletter" style="stroke:#A80036;stroke-width:1.0;"/><polygon fill="#A80036" points="1054.66,410.7154,1062.5944,404.8806,1057.1378,406.3726,1055.6459,400.916,1054.66,410.7154" style="stroke:#A80036;stroke-width:1.0;"/><text fill="#000000" font-family="sans-serif" font-size="13" lengthAdjust="spacing" textLength="61" x="1087.5" y="377.0669">subscribe</text><!--MD5=[a0ef8329b23cdf62601a8e926f63eb24]
link Admin to Detail--><path codeLine="130" d="M791.59,305.733 C821.924,335.203 868.119,380.0822 895.903,407.0747 " fill="none" id="Admin-to-Detail" style="stroke:#A80036;stroke-width:1.0;"/><polygon fill="#A80036" points="899.53,410.5992,895.8622,401.4588,895.9438,407.115,890.2876,407.1966,899.53,410.5992" style="stroke:#A80036;stroke-width:1.0;"/><text fill="#000000" font-family="sans-serif" font-size="13" lengthAdjust="spacing" textLength="45" x="869.5" y="377.0669">update</text><!--MD5=[55d81670b58c2d77e1de0682157566cf]
reverse link Admin to Mail--><path codeLine="131" d="M777.455,327.522 C786.39,356.0957 797.007,390.0499 803.498,410.8066 " fill="none" id="Admin-backto-Mail" style="stroke:#A80036;stroke-width:1.0;"/><polygon fill="#FFFFFF" points="773.489,314.839,771.4621,321.7594,777.0706,326.292,779.0975,319.3716,773.489,314.839" style="stroke:#A80036;stroke-width:1.0;"/><text fill="#000000" font-family="sans-serif" font-size="13" lengthAdjust="spacing" textLength="37" x="795.5" y="377.0669">check</text><!--MD5=[a6cdac3819e349292b93f4d37cb58ec8]
link Student to Rehearsal--><path codeLine="132" d="M2089.26,104.17 C2113.78,121.309 2143.88,144.725 2166.5,170 C2188.75,194.866 2207.76,228.489 2219.15,250.804 " fill="none" id="Student-to-Rehearsal" style="stroke:#A80036;stroke-width:1.0;"/><polygon fill="#A80036" points="2221.46,255.387,2220.97,245.5503,2219.2045,250.9246,2213.8302,249.1591,2221.46,255.387" style="stroke:#A80036;stroke-width:1.0;"/><text fill="#000000" font-family="sans-serif" font-size="13" lengthAdjust="spacing" textLength="51" x="2180.5" y="183.0669">practice</text><!--MD5=[5cd4dcc4576a93bb284e429ea190e2f2]
link User to Place--><path codeLine="133" d="M1207.63,334.094 C1214.56,358.8221 1222.28,386.3839 1227.66,405.5919 " fill="none" id="User-to-Place" style="stroke:#A80036;stroke-width:1.0;"/><polygon fill="#A80036" points="1229.12,410.7788,1230.5436,401.0334,1227.7711,405.9642,1222.8402,403.1917,1229.12,410.7788" style="stroke:#A80036;stroke-width:1.0;"/><text fill="#000000" font-family="sans-serif" font-size="13" lengthAdjust="spacing" textLength="30" x="1222.5" y="377.0669">view</text><!--MD5=[ab6705ae1d838306f93c194866fefee0]
link Feedback to User--><path codeLine="134" d="M1250.75,101.544 C1241.24,129.302 1225.69,174.683 1212.91,211.995 " fill="none" id="Feedback-to-User" style="stroke:#A80036;stroke-width:1.0;"/><polygon fill="#A80036" points="1211.21,216.97,1217.911,209.7522,1212.8305,212.2399,1210.3429,207.1594,1211.21,216.97" style="stroke:#A80036;stroke-width:1.0;"/><text fill="#000000" font-family="sans-serif" font-size="13" lengthAdjust="spacing" textLength="48" x="1226.5" y="183.0669">provide</text><!--MD5=[e716c58f1ea66883fc627c4f1e4f8742]
link Parent to OtherDetail--><path codeLine="135" d="M1554.36,140.173 C1550.76,177.765 1546.42,223.061 1543.82,250.28 " fill="none" id="Parent-to-OtherDetail" style="stroke:#A80036;stroke-width:1.0;"/><polygon fill="#A80036" points="1543.32,255.475,1548.1591,246.8969,1543.7963,250.4977,1540.1955,246.1349,1543.32,255.475" style="stroke:#A80036;stroke-width:1.0;"/><text fill="#000000" font-family="sans-serif" font-size="13" lengthAdjust="spacing" textLength="30" x="1552.5" y="183.0669">view</text><!--MD5=[763dac2b4360ce04d37305d47b03599a]
link Member to Information--><path codeLine="136" d="M495.238,302.2 C477.723,317.907 457.961,339.631 448.5,364 C443.369,377.2154 443.892,393.0539 445.805,405.9024 " fill="none" id="Member-to-Information" style="stroke:#A80036;stroke-width:1.0;"/><polygon fill="#A80036" points="446.63,410.8478,449.0934,401.312,445.8067,405.9161,441.2026,402.6293,446.63,410.8478" style="stroke:#A80036;stroke-width:1.0;"/><text fill="#000000" font-family="sans-serif" font-size="13" lengthAdjust="spacing" textLength="30" x="449.5" y="377.0669">view</text><!--MD5=[59f91736e59221c6c6508432483b38c7]
link Donor to Endeavor--><path codeLine="137" d="M2421.02,108.001 C2432.51,126.091 2447,149.188 2459.5,170 C2476.09,197.626 2494.44,229.843 2506.42,251.122 " fill="none" id="Donor-to-Endeavor" style="stroke:#A80036;stroke-width:1.0;"/><polygon fill="#A80036" points="2508.88,255.492,2507.953,245.6869,2506.4283,251.1344,2500.9808,249.6096,2508.88,255.492" style="stroke:#A80036;stroke-width:1.0;"/><text fill="#000000" font-family="sans-serif" font-size="13" lengthAdjust="spacing" textLength="49" x="2470.5" y="183.0669">support</text><!--MD5=[15cf7303f49a00c1075ea0c722950319]
link Member to Calendar--><path codeLine="138" d="M542.225,302.192 C557.654,331.076 582.516,377.6149 597.599,405.8507 " fill="none" id="Member-to-Calendar" style="stroke:#A80036;stroke-width:1.0;"/><polygon fill="#A80036" points="600.115,410.5603,599.4024,400.7373,597.7591,406.1501,592.3462,404.5068,600.115,410.5603" style="stroke:#A80036;stroke-width:1.0;"/><text fill="#000000" font-family="sans-serif" font-size="13" lengthAdjust="spacing" textLength="30" x="585.5" y="377.0669">view</text><!--MD5=[02ad04e18c569503c135d4c822c16d51]
link Admin to Information--><path codeLine="139" d="M731.31,286.802 C671.25,307.405 540.959,352.6843 522.5,364 C503.483,375.6577 485.126,392.9353 471.843,406.8888 " fill="none" id="Admin-to-Information" style="stroke:#A80036;stroke-width:1.0;"/><polygon fill="#A80036" points="468.235,410.7288,477.3135,406.9102,471.6593,407.0854,471.4841,401.4313,468.235,410.7288" style="stroke:#A80036;stroke-width:1.0;"/><text fill="#000000" font-family="sans-serif" font-size="13" lengthAdjust="spacing" textLength="45" x="523.5" y="377.0669">update</text><!--MD5=[273ffdedf463e8c64c8beee01ffe88bd]
link Student to MusicNote--><path codeLine="140" d="M2001.8,83.145 C1925.8,96.558 1774.42,127.988 1743.5,170 C1726.5,193.102 1731.63,227.509 1738.05,250.457 " fill="none" id="Student-to-MusicNote" style="stroke:#A80036;stroke-width:1.0;"/><polygon fill="#A80036" points="1739.52,255.457,1740.8213,245.6945,1738.1108,250.6597,1733.1456,247.9492,1739.52,255.457" style="stroke:#A80036;stroke-width:1.0;"/><text fill="#000000" font-family="sans-serif" font-size="13" lengthAdjust="spacing" textLength="62" x="1744.5" y="183.0669">download</text><!--MD5=[df6cfb45122f4a557e40741c87f94efa]
link Admin to NewsSection--><path codeLine="141" d="M736.928,314.58 C728.733,329.395 720.64,346.899 716.5,364 C713.221,377.5465 713.283,393.1186 714.252,405.7338 " fill="none" id="Admin-to-NewsSection" style="stroke:#A80036;stroke-width:1.0;"/><polygon fill="#A80036" points="714.716,410.9448,717.9025,401.6257,714.2728,405.9645,709.934,402.3348,714.716,410.9448" style="stroke:#A80036;stroke-width:1.0;"/><text fill="#000000" font-family="sans-serif" font-size="13" lengthAdjust="spacing" textLength="45" x="717.5" y="377.0669">update</text><!--MD5=[18530227f43f618fc384a1f1c00225e0]
link Feedback to ContactUsPage--><path codeLine="142" d="M1266.19,101.544 C1276.3,140.125 1295.32,212.749 1305.2,250.437 " fill="none" id="Feedback-to-ContactUsPage" style="stroke:#A80036;stroke-width:1.0;"/><polygon fill="#A80036" points="1306.47,255.296,1308.0545,245.5754,1305.2008,250.4598,1300.3165,247.6061,1306.47,255.296" style="stroke:#A80036;stroke-width:1.0;"/><text fill="#000000" font-family="sans-serif" font-size="13" lengthAdjust="spacing" textLength="48" x="1288.5" y="183.0669">provide</text><!--MD5=[570ec5c4e8a1dd44e7fcb71a8cfc57a6]
link User to Detail--><path codeLine="143" d="M1154.36,296.81 C1122.27,314.418 1074.7,340.668 1033.5,364 C1002.531,381.538 967.085,402.1435 944.051,415.6058 " fill="none" id="User-to-Detail" style="stroke:#A80036;stroke-width:1.0;"/><polygon fill="#A80036" points="939.614,418.2,949.4023,417.1092,943.93,415.6758,945.3635,410.2035,939.614,418.2" style="stroke:#A80036;stroke-width:1.0;"/><text fill="#000000" font-family="sans-serif" font-size="13" lengthAdjust="spacing" textLength="30" x="1034.5" y="377.0669">view</text><!--MD5=[a4775e23a7143da716e8652fdf53d40d]
@startuml
hide circle
class User<actor> {
}
class Parent<actor> {
	detail
	tuition
}
class Client<actor> {
	email
}
class Member<actor> {
}
class Student<actor> {
}
class Donor<actor> {
}
class Child {
	tuition
}
class Admin {
	mail
	update()
	check()
}
class VYMA {
	newsletter
}
class Information {
}
class User {
	have()
	receive()
	search()
	view()
	purchase()
	subscribe()
}
class Detail {
}
class Parent {
	set_up()
	register()
	view()
	pay()
	set()
}
class Password {
}
class Payment {
}
class Client {
	add()
	check()
}
class Googledrive {
}
class Student {
	download()
	practice()
	register()
}
class Concert {
}
class Newsletter {
}
class Rehearsal {
}
class Member {
	view()
}
class Feedback {
	provide()
}
class ContactUsPage {
}
class MusicNote {
}
class Update {
}
class Page {
}
class Donor {
	support()
	make()
}
class Online {
}
class Email {
}
class Place {
}
class Calendar {
}
class NewsSection {
}
class OtherDetail {
}
class Trailer {
}
class Applicant {
}
class News {
}
class VYMACommunity {
}
class Link {
}
class Mail {
}
class Endeavor {
}
User - -> Trailer : view
Parent - -> Password : view
Parent - -> Online : register
User - -> Update : receive
Parent - -> Payment : set
Client - -> Applicant : check
Student - -> Page : download
User - -> News : receive
Student - -> Online : register
Client - -> Googledrive : check
Client - -> Information : check
Donor - -> VYMACommunity : support
Donor - -> Online : make
Student - -> Concert : practice
Client - -> Link : add
Client o- - Email : check
Parent - -> Payment : set_up
User - -> Newsletter : subscribe
Admin - -> Detail : update
Admin o- - Mail : check
Student - -> Rehearsal : practice
User - -> Place : view
Feedback - -> User : provide
Parent - -> OtherDetail : view
Member - -> Information : view
Donor - -> Endeavor : support
Member - -> Calendar : view
Admin - -> Information : update
Student - -> MusicNote : download
Admin - -> NewsSection : update
Feedback - -> ContactUsPage : provide
User - -> Detail : view
@enduml

PlantUML version 1.2021.9beta2(Unknown compile time)
(GPL source distribution)
Java Runtime: Java(TM) SE Runtime Environment
JVM: Java HotSpot(TM) 64-Bit Server VM
Default Encoding: UTF-8
Language: en
Country: US
--></g></svg>