<?xml version="1.0" encoding="UTF-8" standalone="no"?><svg xmlns="http://www.w3.org/2000/svg" xmlns:xlink="http://www.w3.org/1999/xlink" contentScriptType="application/ecmascript" contentStyleType="text/css" height="450px" preserveAspectRatio="none" style="width:1984px;height:450px;background:#FFFFFF;" version="1.1" viewBox="0 0 1984 450" width="1984px" zoomAndPan="magnify"><defs><filter height="300%" id="f5r004ll7z3rg" width="300%" x="-1" y="-1"><feGaussianBlur result="blurOut" stdDeviation="2.0"/><feColorMatrix in="blurOut" result="blurOut2" type="matrix" values="0 0 0 0 0 0 0 0 0 0 0 0 0 0 0 0 0 0 .4 0"/><feOffset dx="4.0" dy="4.0" in="blurOut2" result="blurOut3"/><feBlend in="SourceGraphic" in2="blurOut3" mode="normal"/></filter></defs><g><!--MD5=[dc30b613f1e19857666fe974d6d5a9b4]
class Youth--><rect codeLine="27" fill="#FEFECE" filter="url(#f5r004ll7z3rg)" height="91.1875" id="Youth" style="stroke:#A80036;stroke-width:1.5;" width="74" x="992.1624" y="10"/><text fill="#000000" font-family="sans-serif" font-size="12" lengthAdjust="spacing" textLength="33" x="995.1624" y="26.1387">Youth</text><rect fill="#FFFFFF" height="15.9688" style="stroke:#000000;stroke-width:1.0;stroke-dasharray:2.0,2.0;" width="33" x="1036.1624" y="7"/><text fill="#000000" font-family="sans-serif" font-size="12" font-style="italic" lengthAdjust="spacing" textLength="31" x="1037.1624" y="19.1387">actor</text><line style="stroke:#A80036;stroke-width:1.5;" x1="993.1624" x2="1065.1624" y1="33.9688" y2="33.9688"/><line style="stroke:#A80036;stroke-width:1.5;" x1="993.1624" x2="1065.1624" y1="41.9688" y2="41.9688"/><text fill="#000000" font-family="sans-serif" font-size="11" lengthAdjust="spacing" textLength="33" x="998.1624" y="56.1792">take()</text><text fill="#000000" font-family="sans-serif" font-size="11" lengthAdjust="spacing" textLength="51" x="998.1624" y="68.9839">provide()</text><text fill="#000000" font-family="sans-serif" font-size="11" lengthAdjust="spacing" textLength="35" x="998.1624" y="81.7886">view()</text><text fill="#000000" font-family="sans-serif" font-size="11" lengthAdjust="spacing" textLength="49" x="998.1624" y="94.5933">contact()</text><!--MD5=[70aa74288b4705a51315db4e0d6b3cbb]
class CaseManager--><rect codeLine="33" fill="#FEFECE" filter="url(#f5r004ll7z3rg)" height="142.4063" id="CaseManager" style="stroke:#A80036;stroke-width:1.5;" width="123" x="967.6624" y="178"/><text fill="#000000" font-family="sans-serif" font-size="12" lengthAdjust="spacing" textLength="82" x="970.6624" y="194.1387">CaseManager</text><rect fill="#FFFFFF" height="15.9688" style="stroke:#000000;stroke-width:1.0;stroke-dasharray:2.0,2.0;" width="33" x="1060.6624" y="175"/><text fill="#000000" font-family="sans-serif" font-size="12" font-style="italic" lengthAdjust="spacing" textLength="31" x="1061.6624" y="187.1387">actor</text><line style="stroke:#A80036;stroke-width:1.5;" x1="968.6624" x2="1089.6624" y1="201.9688" y2="201.9688"/><line style="stroke:#A80036;stroke-width:1.5;" x1="968.6624" x2="1089.6624" y1="209.9688" y2="209.9688"/><text fill="#000000" font-family="sans-serif" font-size="11" lengthAdjust="spacing" textLength="46" x="973.6624" y="224.1792">delete()</text><text fill="#000000" font-family="sans-serif" font-size="11" lengthAdjust="spacing" textLength="54" x="973.6624" y="236.9839">activate()</text><text fill="#000000" font-family="sans-serif" font-size="11" lengthAdjust="spacing" textLength="47" x="973.6624" y="249.7886">review()</text><text fill="#000000" font-family="sans-serif" font-size="11" lengthAdjust="spacing" textLength="45" x="973.6624" y="262.5933">export()</text><text fill="#000000" font-family="sans-serif" font-size="11" lengthAdjust="spacing" textLength="36" x="973.6624" y="275.3979">send()</text><text fill="#000000" font-family="sans-serif" font-size="11" lengthAdjust="spacing" textLength="29" x="973.6624" y="288.2026">add()</text><text fill="#000000" font-family="sans-serif" font-size="11" lengthAdjust="spacing" textLength="30" x="973.6624" y="301.0073">see()</text><text fill="#000000" font-family="sans-serif" font-size="11" lengthAdjust="spacing" textLength="35" x="973.6624" y="313.812">view()</text><!--MD5=[da547346deef918ea16944ba046651ef]
class Administrator--><rect codeLine="12" fill="#FEFECE" filter="url(#f5r004ll7z3rg)" height="103.9922" id="Administrator" style="stroke:#A80036;stroke-width:1.5;" width="121" x="224.6624" y="197"/><text fill="#000000" font-family="sans-serif" font-size="12" lengthAdjust="spacing" textLength="80" x="227.6624" y="213.1387">Administrator</text><rect fill="#FFFFFF" height="15.9688" style="stroke:#000000;stroke-width:1.0;stroke-dasharray:2.0,2.0;" width="33" x="315.6624" y="194"/><text fill="#000000" font-family="sans-serif" font-size="12" font-style="italic" lengthAdjust="spacing" textLength="31" x="316.6624" y="206.1387">actor</text><line style="stroke:#A80036;stroke-width:1.5;" x1="225.6624" x2="344.6624" y1="220.9688" y2="220.9688"/><line style="stroke:#A80036;stroke-width:1.5;" x1="225.6624" x2="344.6624" y1="228.9688" y2="228.9688"/><text fill="#000000" font-family="sans-serif" font-size="11" lengthAdjust="spacing" textLength="46" x="230.6624" y="243.1792">delete()</text><text fill="#000000" font-family="sans-serif" font-size="11" lengthAdjust="spacing" textLength="52" x="230.6624" y="255.9839">transfer()</text><text fill="#000000" font-family="sans-serif" font-size="11" lengthAdjust="spacing" textLength="45" x="230.6624" y="268.7886">create()</text><text fill="#000000" font-family="sans-serif" font-size="11" lengthAdjust="spacing" textLength="47" x="230.6624" y="281.5933">modify()</text><text fill="#000000" font-family="sans-serif" font-size="11" lengthAdjust="spacing" textLength="35" x="230.6624" y="294.3979">view()</text><!--MD5=[3fd616f346a44cd59a91eb10b19e157c]
class User--><rect codeLine="21" fill="#FEFECE" filter="url(#f5r004ll7z3rg)" height="65.5781" id="User" style="stroke:#A80036;stroke-width:1.5;" width="70" x="1810.1594" y="22.5"/><text fill="#000000" font-family="sans-serif" font-size="12" lengthAdjust="spacing" textLength="29" x="1813.1594" y="38.6387">User</text><rect fill="#FFFFFF" height="15.9688" style="stroke:#000000;stroke-width:1.0;stroke-dasharray:2.0,2.0;" width="33" x="1850.1594" y="19.5"/><text fill="#000000" font-family="sans-serif" font-size="12" font-style="italic" lengthAdjust="spacing" textLength="31" x="1851.1594" y="31.6387">actor</text><line style="stroke:#A80036;stroke-width:1.5;" x1="1811.1594" x2="1879.1594" y1="46.4688" y2="46.4688"/><line style="stroke:#A80036;stroke-width:1.5;" x1="1811.1594" x2="1879.1594" y1="54.4688" y2="54.4688"/><text fill="#000000" font-family="sans-serif" font-size="11" lengthAdjust="spacing" textLength="45" x="1816.1594" y="68.6792">create()</text><text fill="#000000" font-family="sans-serif" font-size="11" lengthAdjust="spacing" textLength="52" x="1816.1594" y="81.4839">recover()</text><!--MD5=[6081a303407aa0c0464c8b50c38f5612]
class Staff--><rect codeLine="69" fill="#FEFECE" filter="url(#f5r004ll7z3rg)" height="52.7734" id="Staff" style="stroke:#A80036;stroke-width:1.5;" width="68" x="1535.1594" y="222.5"/><text fill="#000000" font-family="sans-serif" font-size="12" lengthAdjust="spacing" textLength="27" x="1538.1594" y="238.6387">Staff</text><rect fill="#FFFFFF" height="15.9688" style="stroke:#000000;stroke-width:1.0;stroke-dasharray:2.0,2.0;" width="33" x="1573.1594" y="219.5"/><text fill="#000000" font-family="sans-serif" font-size="12" font-style="italic" lengthAdjust="spacing" textLength="31" x="1574.1594" y="231.6387">actor</text><line style="stroke:#A80036;stroke-width:1.5;" x1="1536.1594" x2="1602.1594" y1="246.4688" y2="246.4688"/><line style="stroke:#A80036;stroke-width:1.5;" x1="1536.1594" x2="1602.1594" y1="254.4688" y2="254.4688"/><text fill="#000000" font-family="sans-serif" font-size="11" lengthAdjust="spacing" textLength="35" x="1541.1594" y="268.6792">view()</text><!--MD5=[7b57f7066b803747d2119f99dd1555d4]
class Profile--><rect codeLine="19" fill="#FEFECE" filter="url(#f5r004ll7z3rg)" height="39.9688" id="Profile" style="stroke:#A80036;stroke-width:1.5;" width="43" x="29.6627" y="397"/><text fill="#000000" font-family="sans-serif" font-size="12" lengthAdjust="spacing" textLength="37" x="32.6627" y="413.1387">Profile</text><line style="stroke:#A80036;stroke-width:1.5;" x1="30.6627" x2="71.6627" y1="420.9688" y2="420.9688"/><line style="stroke:#A80036;stroke-width:1.5;" x1="30.6627" x2="71.6627" y1="428.9688" y2="428.9688"/><!--MD5=[c238f5c780b4770aca76cc1e6fa299b9]
class LoginInformation--><rect codeLine="25" fill="#FEFECE" filter="url(#f5r004ll7z3rg)" height="39.9688" id="LoginInformation" style="stroke:#A80036;stroke-width:1.5;" width="105" x="1721.6594" y="229"/><text fill="#000000" font-family="sans-serif" font-size="12" lengthAdjust="spacing" textLength="99" x="1724.6594" y="245.1387">LoginInformation</text><line style="stroke:#A80036;stroke-width:1.5;" x1="1722.6594" x2="1825.6594" y1="252.9688" y2="252.9688"/><line style="stroke:#A80036;stroke-width:1.5;" x1="1722.6594" x2="1825.6594" y1="260.9688" y2="260.9688"/><!--MD5=[2741598bdf59a7d7e0d5c97658fd3022]
class Result--><rect codeLine="43" fill="#FEFECE" filter="url(#f5r004ll7z3rg)" height="39.9688" id="Result" style="stroke:#A80036;stroke-width:1.5;" width="42" x="953.1624" y="397"/><text fill="#000000" font-family="sans-serif" font-size="12" lengthAdjust="spacing" textLength="36" x="956.1624" y="413.1387">Result</text><line style="stroke:#A80036;stroke-width:1.5;" x1="954.1624" x2="994.1624" y1="420.9688" y2="420.9688"/><line style="stroke:#A80036;stroke-width:1.5;" x1="954.1624" x2="994.1624" y1="428.9688" y2="428.9688"/><!--MD5=[58a810081d5936703dfd7fe90a18b4f0]
class LogRecord--><rect codeLine="45" fill="#FEFECE" filter="url(#f5r004ll7z3rg)" height="39.9688" id="LogRecord" style="stroke:#A80036;stroke-width:1.5;" width="71" x="190.6624" y="397"/><text fill="#000000" font-family="sans-serif" font-size="12" lengthAdjust="spacing" textLength="65" x="193.6624" y="413.1387">LogRecord</text><line style="stroke:#A80036;stroke-width:1.5;" x1="191.6624" x2="260.6624" y1="420.9688" y2="420.9688"/><line style="stroke:#A80036;stroke-width:1.5;" x1="191.6624" x2="260.6624" y1="428.9688" y2="428.9688"/><!--MD5=[e8dcfdde5c6ce5239f59acd294696d72]
class Case--><rect codeLine="47" fill="#FEFECE" filter="url(#f5r004ll7z3rg)" height="39.9688" id="Case" style="stroke:#A80036;stroke-width:1.5;" width="36" x="633.1624" y="397"/><text fill="#000000" font-family="sans-serif" font-size="12" lengthAdjust="spacing" textLength="30" x="636.1624" y="413.1387">Case</text><line style="stroke:#A80036;stroke-width:1.5;" x1="634.1624" x2="668.1624" y1="420.9688" y2="420.9688"/><line style="stroke:#A80036;stroke-width:1.5;" x1="634.1624" x2="668.1624" y1="428.9688" y2="428.9688"/><!--MD5=[63dd87716ef75a5caca5dce59428e94a]
class File--><rect codeLine="49" fill="#FEFECE" filter="url(#f5r004ll7z3rg)" height="39.9688" id="File" style="stroke:#A80036;stroke-width:1.5;" width="27" x="838.6624" y="397"/><text fill="#000000" font-family="sans-serif" font-size="12" lengthAdjust="spacing" textLength="21" x="841.6624" y="413.1387">File</text><line style="stroke:#A80036;stroke-width:1.5;" x1="839.6624" x2="864.6624" y1="420.9688" y2="420.9688"/><line style="stroke:#A80036;stroke-width:1.5;" x1="839.6624" x2="864.6624" y1="428.9688" y2="428.9688"/><!--MD5=[c881b25adf3665c6568c9693d41a70f3]
class Activity--><rect codeLine="51" fill="#FEFECE" filter="url(#f5r004ll7z3rg)" height="39.9688" id="Activity" style="stroke:#A80036;stroke-width:1.5;" width="49" x="296.6624" y="397"/><text fill="#000000" font-family="sans-serif" font-size="12" lengthAdjust="spacing" textLength="43" x="299.6624" y="413.1387">Activity</text><line style="stroke:#A80036;stroke-width:1.5;" x1="297.6624" x2="344.6624" y1="420.9688" y2="420.9688"/><line style="stroke:#A80036;stroke-width:1.5;" x1="297.6624" x2="344.6624" y1="428.9688" y2="428.9688"/><!--MD5=[c464c8bffcc82a69bc478b3e0176a656]
class SecurityQuestion--><rect codeLine="53" fill="#FEFECE" filter="url(#f5r004ll7z3rg)" height="39.9688" id="SecurityQuestion" style="stroke:#A80036;stroke-width:1.5;" width="109" x="1861.6594" y="229"/><text fill="#000000" font-family="sans-serif" font-size="12" lengthAdjust="spacing" textLength="103" x="1864.6594" y="245.1387">SecurityQuestion</text><line style="stroke:#A80036;stroke-width:1.5;" x1="1862.6594" x2="1969.6594" y1="252.9688" y2="252.9688"/><line style="stroke:#A80036;stroke-width:1.5;" x1="1862.6594" x2="1969.6594" y1="260.9688" y2="260.9688"/><!--MD5=[1a502b0dbedafd291c48f46ef8646183]
class Feedback--><rect codeLine="55" fill="#FEFECE" filter="url(#f5r004ll7z3rg)" height="39.9688" id="Feedback" style="stroke:#A80036;stroke-width:1.5;" width="66" x="1378.1594" y="397"/><text fill="#000000" font-family="sans-serif" font-size="12" lengthAdjust="spacing" textLength="60" x="1381.1594" y="413.1387">Feedback</text><line style="stroke:#A80036;stroke-width:1.5;" x1="1379.1594" x2="1443.1594" y1="420.9688" y2="420.9688"/><line style="stroke:#A80036;stroke-width:1.5;" x1="1379.1594" x2="1443.1594" y1="428.9688" y2="428.9688"/><!--MD5=[78bec0fde86ad92ec1dc3fb343b83709]
class Email--><rect codeLine="57" fill="#FEFECE" filter="url(#f5r004ll7z3rg)" height="39.9688" id="Email" style="stroke:#A80036;stroke-width:1.5;" width="37" x="1030.6594" y="397"/><text fill="#000000" font-family="sans-serif" font-size="12" lengthAdjust="spacing" textLength="31" x="1033.6594" y="413.1387">Email</text><line style="stroke:#A80036;stroke-width:1.5;" x1="1031.6594" x2="1066.6594" y1="420.9688" y2="420.9688"/><line style="stroke:#A80036;stroke-width:1.5;" x1="1031.6594" x2="1066.6594" y1="428.9688" y2="428.9688"/><!--MD5=[d9c8e455cd415e38a798934a9126d923]
class YouthAccount--><rect codeLine="59" fill="#FEFECE" filter="url(#f5r004ll7z3rg)" height="39.9688" id="YouthAccount" style="stroke:#A80036;stroke-width:1.5;" width="87" x="1102.6594" y="397"/><text fill="#000000" font-family="sans-serif" font-size="12" lengthAdjust="spacing" textLength="81" x="1105.6594" y="413.1387">YouthAccount</text><line style="stroke:#A80036;stroke-width:1.5;" x1="1103.6594" x2="1188.6594" y1="420.9688" y2="420.9688"/><line style="stroke:#A80036;stroke-width:1.5;" x1="1103.6594" x2="1188.6594" y1="428.9688" y2="428.9688"/><!--MD5=[3145b4be7c5005b24cda6f18a1d594b0]
class Survey--><rect codeLine="61" fill="#FEFECE" filter="url(#f5r004ll7z3rg)" height="39.9688" id="Survey" style="stroke:#A80036;stroke-width:1.5;" width="48" x="1638.1594" y="229"/><text fill="#000000" font-family="sans-serif" font-size="12" lengthAdjust="spacing" textLength="42" x="1641.1594" y="245.1387">Survey</text><line style="stroke:#A80036;stroke-width:1.5;" x1="1639.1594" x2="1685.1594" y1="252.9688" y2="252.9688"/><line style="stroke:#A80036;stroke-width:1.5;" x1="1639.1594" x2="1685.1594" y1="260.9688" y2="260.9688"/><!--MD5=[59b530d44ae785dc18db921986a9c15c]
class Document--><rect codeLine="63" fill="#FEFECE" filter="url(#f5r004ll7z3rg)" height="39.9688" id="Document" style="stroke:#A80036;stroke-width:1.5;" width="67" x="1224.6594" y="397"/><text fill="#000000" font-family="sans-serif" font-size="12" lengthAdjust="spacing" textLength="61" x="1227.6594" y="413.1387">Document</text><line style="stroke:#A80036;stroke-width:1.5;" x1="1225.6594" x2="1290.6594" y1="420.9688" y2="420.9688"/><line style="stroke:#A80036;stroke-width:1.5;" x1="1225.6594" x2="1290.6594" y1="428.9688" y2="428.9688"/><!--MD5=[30fd7b95ab383a5e7c83ea23d4ea0fbf]
class Information--><rect codeLine="65" fill="#FEFECE" filter="url(#f5r004ll7z3rg)" height="39.9688" id="Information" style="stroke:#A80036;stroke-width:1.5;" width="73" x="1511.6594" y="397"/><text fill="#000000" font-family="sans-serif" font-size="12" lengthAdjust="spacing" textLength="67" x="1514.6594" y="413.1387">Information</text><line style="stroke:#A80036;stroke-width:1.5;" x1="1512.6594" x2="1583.6594" y1="420.9688" y2="420.9688"/><line style="stroke:#A80036;stroke-width:1.5;" x1="1512.6594" x2="1583.6594" y1="428.9688" y2="428.9688"/><!--MD5=[5c85d133e2c913f4b8608c8db253c015]
class Record--><rect codeLine="67" fill="#FEFECE" filter="url(#f5r004ll7z3rg)" height="39.9688" id="Record" style="stroke:#A80036;stroke-width:1.5;" width="49" x="380.6624" y="397"/><text fill="#000000" font-family="sans-serif" font-size="12" lengthAdjust="spacing" textLength="43" x="383.6624" y="413.1387">Record</text><line style="stroke:#A80036;stroke-width:1.5;" x1="381.6624" x2="428.6624" y1="420.9688" y2="420.9688"/><line style="stroke:#A80036;stroke-width:1.5;" x1="381.6624" x2="428.6624" y1="428.9688" y2="428.9688"/><!--MD5=[d6118590edd30f794fbae4f24c8d53e2]
link CaseManager to Case--><path codeLine="72" d="M967.5694,272.794 C903.2914,296.773 806.9724,333.303 771.1624,350 C736.4144,366.2021 697.8304,388.179 674.0294,402.2276 " fill="none" id="CaseManager-to-Case" style="stroke:#A80036;stroke-width:1.0;"/><polygon fill="#A80036" points="669.4724,404.9275,679.2543,403.7816,673.7741,402.379,675.1767,396.8988,669.4724,404.9275" style="stroke:#A80036;stroke-width:1.0;"/><text fill="#000000" font-family="sans-serif" font-size="13" lengthAdjust="spacing" textLength="42" x="772.1624" y="363.0669">export</text><!--MD5=[d6118590edd30f794fbae4f24c8d53e2]
link CaseManager to Case--><path codeLine="90" d="M967.6054,289.138 C926.7004,313.916 871.1434,345.2643 819.1624,367 C769.1424,387.916 707.2234,403.4819 674.3004,410.9931 " fill="none" id="CaseManager-to-Case-1" style="stroke:#A80036;stroke-width:1.0;"/><polygon fill="#A80036" points="669.2714,412.129,678.9314,414.0482,674.1486,411.0276,677.1691,406.2447,669.2714,412.129" style="stroke:#A80036;stroke-width:1.0;"/><text fill="#000000" font-family="sans-serif" font-size="13" lengthAdjust="spacing" textLength="30" x="856.1624" y="363.0669">view</text><!--MD5=[d6118590edd30f794fbae4f24c8d53e2]
link CaseManager to Case--><path codeLine="91" d="M967.4204,275.716 C930.8894,290.21 883.4384,307.8 840.1624,320 C773.8874,338.6841 743.9094,309.58 688.1624,350 C674.0214,360.2531 664.5884,377.661 658.7874,392.025 " fill="none" id="CaseManager-to-Case-2" style="stroke:#A80036;stroke-width:1.0;"/><polygon fill="#A80036" points="656.9584,396.7648,663.9312,389.8092,658.759,392.1003,656.468,386.9282,656.9584,396.7648" style="stroke:#A80036;stroke-width:1.0;"/><text fill="#000000" font-family="sans-serif" font-size="13" lengthAdjust="spacing" textLength="40" x="689.1624" y="363.0669">delete</text><!--MD5=[36e9ca9bcf5e53967931ce528a066fe6]
link User to LoginInformation--><path codeLine="73" d="M1833.2794,88.553 C1819.0894,126.812 1795.6994,189.904 1783.0094,224.129 " fill="none" id="User-to-LoginInformation" style="stroke:#A80036;stroke-width:1.0;"/><polygon fill="#A80036" points="1781.2194,228.962,1788.0984,221.9137,1782.9574,224.2738,1780.5973,219.1328,1781.2194,228.962" style="stroke:#A80036;stroke-width:1.0;"/><text fill="#000000" font-family="sans-serif" font-size="13" lengthAdjust="spacing" textLength="49" x="1817.1594" y="144.0669">recover</text><!--MD5=[2372c70ad42d704e831bbeed4e438186]
link User to SecurityQuestion--><path codeLine="74" d="M1858.4794,88.644 C1863.8094,101.731 1869.9094,117.037 1875.1594,131 C1887.1994,162.971 1900.0694,200.27 1908.1094,224.002 " fill="none" id="User-to-SecurityQuestion" style="stroke:#A80036;stroke-width:1.0;"/><polygon fill="#A80036" points="1909.7494,228.854,1910.6574,219.0471,1908.1486,224.1172,1903.0785,221.6084,1909.7494,228.854" style="stroke:#A80036;stroke-width:1.0;"/><text fill="#000000" font-family="sans-serif" font-size="13" lengthAdjust="spacing" textLength="41" x="1882.1594" y="144.0669">create</text><!--MD5=[b674b5cb846c3fb875e79998f2a39766]
link CaseManager to File--><path codeLine="75" d="M967.2564,308.059 C932.7654,340.4067 892.3324,378.3265 869.7384,399.5165 " fill="none" id="CaseManager-to-File" style="stroke:#A80036;stroke-width:1.0;"/><polygon fill="#A80036" points="866.0004,403.0218,875.3009,399.7814,869.647,399.6009,869.8275,393.9469,866.0004,403.0218" style="stroke:#A80036;stroke-width:1.0;"/><text fill="#000000" font-family="sans-serif" font-size="13" lengthAdjust="spacing" textLength="24" x="921.1624" y="363.0669">add</text><!--MD5=[c1c25c3037c2f5f6f57e18b43636217a]
link Youth to Survey--><path codeLine="76" d="M1066.3394,60.775 C1143.4694,70.064 1326.1994,94.251 1476.1594,131 C1541.5494,147.024 1567.5194,136.039 1620.1594,178 C1635.2294,190.008 1646.1394,209.001 1653.0594,224.175 " fill="none" id="Youth-to-Survey" style="stroke:#A80036;stroke-width:1.0;"/><polygon fill="#A80036" points="1655.0694,228.75,1655.1045,218.9012,1653.055,224.1737,1647.7824,222.1243,1655.0694,228.75" style="stroke:#A80036;stroke-width:1.0;"/><text fill="#000000" font-family="sans-serif" font-size="13" lengthAdjust="spacing" textLength="28" x="1567.1594" y="144.0669">take</text><!--MD5=[701b09fd52131508d42b729d9753da76]
link Administrator to Case--><path codeLine="77" d="M345.8864,272.607 C395.9674,291.768 468.5384,320.729 530.1624,350 C565.2184,366.651 604.4224,388.6947 628.4474,402.6147 " fill="none" id="Administrator-to-Case" style="stroke:#A80036;stroke-width:1.0;"/><polygon fill="#A80036" points="633.0444,405.2864,627.2736,397.3053,628.7216,402.7737,623.2532,404.2217,633.0444,405.2864" style="stroke:#A80036;stroke-width:1.0;"/><text fill="#000000" font-family="sans-serif" font-size="13" lengthAdjust="spacing" textLength="40" x="565.1624" y="363.0669">delete</text><!--MD5=[701b09fd52131508d42b729d9753da76]
link Administrator to Case--><path codeLine="92" d="M345.9594,295.291 C380.6104,319.366 425.6804,347.8586 469.1624,367 C523.6834,391.0009 592.6984,405.6457 628.0224,412.1039 " fill="none" id="Administrator-to-Case-1" style="stroke:#A80036;stroke-width:1.0;"/><polygon fill="#A80036" points="632.9844,412.9975,624.8353,407.4665,628.0635,412.1118,623.4181,415.3399,632.9844,412.9975" style="stroke:#A80036;stroke-width:1.0;"/><text fill="#000000" font-family="sans-serif" font-size="13" lengthAdjust="spacing" textLength="51" x="470.1624" y="363.0669">transfer</text><!--MD5=[980fab80485dadf6847dc7732d54677b]
link CaseManager to Document--><path codeLine="78" d="M1090.7794,291.254 C1116.7794,308.976 1147.1994,330.141 1174.1594,350 C1193.2994,364.0944 1214.3194,380.6152 1230.5494,393.602 " fill="none" id="CaseManager-to-Document" style="stroke:#A80036;stroke-width:1.0;"/><polygon fill="#A80036" points="1234.5694,396.8239,1230.051,388.0727,1230.6688,393.6957,1225.0458,394.3136,1234.5694,396.8239" style="stroke:#A80036;stroke-width:1.0;"/><text fill="#000000" font-family="sans-serif" font-size="13" lengthAdjust="spacing" textLength="40" x="1197.1594" y="363.0669">delete</text><!--MD5=[cbddc718061307e65a474aaef2fd0ea4]
link Youth to Profile--><path codeLine="79" d="M991.9314,58.547 C847.0274,67.006 321.5234,102.399 175.1624,178 C81.5902,226.334 51.1559,252.166 12.1627,350 C6,365.4621 15.1662,381.5683 26.155,393.9991 " fill="none" id="Youth-to-Profile" style="stroke:#A80036;stroke-width:1.0;"/><polygon fill="#A80036" points="29.6088,397.7342,26.4351,388.4107,26.2141,394.0632,20.5616,393.8422,29.6088,397.7342" style="stroke:#A80036;stroke-width:1.0;"/><text fill="#000000" font-family="sans-serif" font-size="13" lengthAdjust="spacing" textLength="30" x="176.1624" y="253.5669">view</text><!--MD5=[1372aa35bfcce2b6adff38e2db533a7c]
link CaseManager to Information--><path codeLine="80" d="M1090.9294,268.629 C1156.0394,288.383 1261.5294,320.716 1352.1594,350 C1405.4594,367.2211 1466.5794,387.9616 1506.1994,401.5378 " fill="none" id="CaseManager-to-Information" style="stroke:#A80036;stroke-width:1.0;"/><polygon fill="#A80036" points="1511.4094,403.3221,1504.1839,396.6294,1506.6774,401.707,1501.5998,404.2006,1511.4094,403.3221" style="stroke:#A80036;stroke-width:1.0;"/><text fill="#000000" font-family="sans-serif" font-size="13" lengthAdjust="spacing" textLength="30" x="1402.1594" y="363.0669">view</text><!--MD5=[e2eebf3660961923d6f9b7302030dba3]
link CaseManager to Result--><path codeLine="81" d="M1005.8374,320.399 C997.3814,345.9229 988.3854,373.0745 982.1494,391.894 " fill="none" id="CaseManager-to-Result" style="stroke:#A80036;stroke-width:1.0;"/><polygon fill="#A80036" points="980.4664,396.9729,987.0943,389.6879,982.0391,392.2267,979.5003,387.1715,980.4664,396.9729" style="stroke:#A80036;stroke-width:1.0;"/><text fill="#000000" font-family="sans-serif" font-size="13" lengthAdjust="spacing" textLength="23" x="996.1624" y="363.0669">see</text><!--MD5=[4cbfec2eefdac66ca0a7460db6afb337]
link Administrator to Record--><path codeLine="82" d="M325.7154,301.062 C337.7094,316.588 350.6924,333.824 362.1624,350 C371.9554,363.8103 382.3324,379.698 390.4394,392.4243 " fill="none" id="Administrator-to-Record" style="stroke:#A80036;stroke-width:1.0;"/><polygon fill="#A80036" points="393.3174,396.9602,391.8735,387.2178,390.6388,392.7382,385.1183,391.5035,393.3174,396.9602" style="stroke:#A80036;stroke-width:1.0;"/><text fill="#000000" font-family="sans-serif" font-size="13" lengthAdjust="spacing" textLength="30" x="375.1624" y="363.0669">view</text><!--MD5=[130866f198908c2e23afd12da33e8ef4]
link Administrator to LogRecord--><path codeLine="83" d="M266.9794,301.16 C256.2314,331.399 243.1224,368.2829 234.7104,391.9504 " fill="none" id="Administrator-to-LogRecord" style="stroke:#A80036;stroke-width:1.0;"/><polygon fill="#A80036" points="232.9894,396.793,239.7725,389.6523,234.6639,392.0817,232.2345,386.9731,232.9894,396.793" style="stroke:#A80036;stroke-width:1.0;"/><text fill="#000000" font-family="sans-serif" font-size="13" lengthAdjust="spacing" textLength="30" x="250.1624" y="363.0669">view</text><!--MD5=[0400bcc117a8e26b903c2e6b4894c00e]
link Youth to File--><path codeLine="84" d="M991.8744,90.869 C940.2724,141.528 850.2664,241.984 822.1624,350 C817.8914,366.4158 826.4314,383.8384 835.4774,396.6587 " fill="none" id="Youth-to-File" style="stroke:#A80036;stroke-width:1.0;"/><polygon fill="#A80036" points="838.5464,400.8218,836.4249,391.2041,835.5792,396.7974,829.9859,395.9517,838.5464,400.8218" style="stroke:#A80036;stroke-width:1.0;"/><text fill="#000000" font-family="sans-serif" font-size="13" lengthAdjust="spacing" textLength="30" x="914.1624" y="253.5669">view</text><!--MD5=[ad1d421b774c2d63bd1c43c8f4162c1c]
link Administrator to Activity--><path codeLine="85" d="M296.2574,301.16 C302.7884,331.272 310.7474,367.9744 315.8824,391.6526 " fill="none" id="Administrator-to-Activity" style="stroke:#A80036;stroke-width:1.0;"/><polygon fill="#A80036" points="316.9974,396.793,318.9985,387.1496,315.9374,391.9067,311.1803,388.8456,316.9974,396.793" style="stroke:#A80036;stroke-width:1.0;"/><text fill="#000000" font-family="sans-serif" font-size="13" lengthAdjust="spacing" textLength="41" x="312.1624" y="363.0669">create</text><!--MD5=[d9b25bd4036a68fd256b246c703d6f20]
link Youth to Feedback--><path codeLine="86" d="M1066.3194,70.209 C1149.6694,103.255 1350.3394,196.146 1428.1594,350 C1434.8194,363.1651 1430.9594,379.1628 1425.2494,392.1108 " fill="none" id="Youth-to-Feedback" style="stroke:#A80036;stroke-width:1.0;"/><polygon fill="#A80036" points="1423.0794,396.7322,1430.5261,390.2865,1425.205,392.2065,1423.285,386.8855,1423.0794,396.7322" style="stroke:#A80036;stroke-width:1.0;"/><text fill="#000000" font-family="sans-serif" font-size="13" lengthAdjust="spacing" textLength="48" x="1411.1594" y="253.5669">provide</text><!--MD5=[a5b8cb98c49b390b66dd028ec3db86f8]
link Administrator to Profile--><path codeLine="87" d="M224.3154,271.612 C183.4884,288.34 130.3914,314.636 92.1627,350 C79.3517,361.8509 69.018,378.5799 61.9295,392.2299 " fill="none" id="Administrator-to-Profile" style="stroke:#A80036;stroke-width:1.0;"/><polygon fill="#A80036" points="59.6511,396.7295,67.2854,390.5072,61.9098,392.2688,60.1482,386.8932,59.6511,396.7295" style="stroke:#A80036;stroke-width:1.0;"/><text fill="#000000" font-family="sans-serif" font-size="13" lengthAdjust="spacing" textLength="40" x="93.1627" y="363.0669">delete</text><!--MD5=[a5b8cb98c49b390b66dd028ec3db86f8]
link Administrator to Profile--><path codeLine="95" d="M225.3014,301.205 C199.2504,322.541 167.9244,346.9609 138.1624,367 C118.5784,380.1862 95.2083,393.2108 77.6233,402.5135 " fill="none" id="Administrator-to-Profile-1" style="stroke:#A80036;stroke-width:1.0;"/><polygon fill="#A80036" points="72.8248,405.0357,82.6524,404.3888,77.2506,402.7093,78.9301,397.3075,72.8248,405.0357" style="stroke:#A80036;stroke-width:1.0;"/><text fill="#000000" font-family="sans-serif" font-size="13" lengthAdjust="spacing" textLength="30" x="160.1624" y="363.0669">view</text><!--MD5=[a5b8cb98c49b390b66dd028ec3db86f8]
link Administrator to Profile--><path codeLine="97" d="M224.5994,254.201 C162.5394,262.109 68.9831,284.83 24.1627,350 C15.2756,362.922 21.7954,379.2167 30.6503,392.3819 " fill="none" id="Administrator-to-Profile-2" style="stroke:#A80036;stroke-width:1.0;"/><polygon fill="#A80036" points="33.7239,396.7173,31.7816,387.0619,30.832,392.6384,25.2554,391.6888,33.7239,396.7173" style="stroke:#A80036;stroke-width:1.0;"/><text fill="#000000" font-family="sans-serif" font-size="13" lengthAdjust="spacing" textLength="45" x="25.1627" y="363.0669">modify</text><!--MD5=[ab7871be49aa3e77cd10bc497f2b277d]
link Youth to CaseManager--><path codeLine="88" d="M1029.1594,101.398 C1029.1594,122.659 1029.1594,148.633 1029.1594,172.778 " fill="none" id="Youth-to-CaseManager" style="stroke:#A80036;stroke-width:1.0;"/><polygon fill="#A80036" points="1029.1594,177.901,1033.1594,168.901,1029.1594,172.901,1025.1594,168.901,1029.1594,177.901" style="stroke:#A80036;stroke-width:1.0;"/><text fill="#000000" font-family="sans-serif" font-size="13" lengthAdjust="spacing" textLength="48" x="1030.1594" y="144.0669">contact</text><!--MD5=[4f054581cc7d8453f3cc806565a67c51]
link Staff to Information--><path codeLine="89" d="M1565.9294,275.574 C1561.9294,307.212 1555.1594,360.684 1551.2394,391.7149 " fill="none" id="Staff-to-Information" style="stroke:#A80036;stroke-width:1.0;"/><polygon fill="#A80036" points="1550.5794,396.8665,1555.6781,388.4402,1551.2074,391.9061,1547.7414,387.4354,1550.5794,396.8665" style="stroke:#A80036;stroke-width:1.0;"/><text fill="#000000" font-family="sans-serif" font-size="13" lengthAdjust="spacing" textLength="30" x="1558.1594" y="363.0669">view</text><!--MD5=[eb48c85a57cd2eb5159072362b202d83]
link CaseManager to Feedback--><path codeLine="93" d="M1090.9594,276.855 C1170.7694,311.534 1307.2194,370.8311 1373.2094,399.5075 " fill="none" id="CaseManager-to-Feedback" style="stroke:#A80036;stroke-width:1.0;"/><polygon fill="#A80036" points="1377.8394,401.5186,1371.1699,394.2717,1373.2511,399.5318,1367.991,401.6129,1377.8394,401.5186" style="stroke:#A80036;stroke-width:1.0;"/><text fill="#000000" font-family="sans-serif" font-size="13" lengthAdjust="spacing" textLength="43" x="1300.1594" y="363.0669">review</text><!--MD5=[c7e07b1fb2ea818be98569478acd9a93]
link CaseManager to Email--><path codeLine="94" d="M1037.6494,320.399 C1040.7194,345.9229 1043.9894,373.0745 1046.2594,391.894 " fill="none" id="CaseManager-to-Email" style="stroke:#A80036;stroke-width:1.0;"/><polygon fill="#A80036" points="1046.8694,396.9729,1049.7624,387.5585,1046.2704,392.0089,1041.82,388.5169,1046.8694,396.9729" style="stroke:#A80036;stroke-width:1.0;"/><text fill="#000000" font-family="sans-serif" font-size="13" lengthAdjust="spacing" textLength="31" x="1045.1594" y="363.0669">send</text><!--MD5=[8907ef86f9cc8777cbc101856ffe5de4]
link CaseManager to YouthAccount--><path codeLine="96" d="M1078.7794,320.399 C1097.0794,346.3592 1116.5594,374.0033 1129.8494,392.8518 " fill="none" id="CaseManager-to-YouthAccount" style="stroke:#A80036;stroke-width:1.0;"/><polygon fill="#A80036" points="1132.7494,396.9729,1130.8326,387.3124,1129.8683,392.8864,1124.2942,391.9221,1132.7494,396.9729" style="stroke:#A80036;stroke-width:1.0;"/><text fill="#000000" font-family="sans-serif" font-size="13" lengthAdjust="spacing" textLength="52" x="1113.1594" y="363.0669">activate</text><!--MD5=[996a3fc525ffb76f8b25f2e073fb68b1]
@startuml
hide circle
class Youth<actor> {
}
class CaseManager<actor> {
}
class Administrator<actor> {
}
class User<actor> {
}
class Staff<actor> {
}
class Administrator {
	delete()
	transfer()
	create()
	modify()
	view()
}
class Profile {
}
class User {
	create()
	recover()
}
class LoginInformation {
}
class Youth {
	take()
	provide()
	view()
	contact()
}
class CaseManager {
	delete()
	activate()
	review()
	export()
	send()
	add()
	see()
	view()
}
class Result {
}
class LogRecord {
}
class Case {
}
class File {
}
class Activity {
}
class SecurityQuestion {
}
class Feedback {
}
class Email {
}
class YouthAccount {
}
class Survey {
}
class Document {
}
class Information {
}
class Record {
}
class Staff {
	view()
}
CaseManager - -> Case : export
User - -> LoginInformation : recover
User - -> SecurityQuestion : create
CaseManager - -> File : add
Youth - -> Survey : take
Administrator - -> Case : delete
CaseManager - -> Document : delete
Youth - -> Profile : view
CaseManager - -> Information : view
CaseManager - -> Result : see
Administrator - -> Record : view
Administrator - -> LogRecord : view
Youth - -> File : view
Administrator - -> Activity : create
Youth - -> Feedback : provide
Administrator - -> Profile : delete
Youth - -> CaseManager : contact
Staff - -> Information : view
CaseManager - -> Case : view
CaseManager - -> Case : delete
Administrator - -> Case : transfer
CaseManager - -> Feedback : review
CaseManager - -> Email : send
Administrator - -> Profile : view
CaseManager - -> YouthAccount : activate
Administrator - -> Profile : modify
@enduml

PlantUML version 1.2021.6beta6(Unknown compile time)
(GPL source distribution)
Java Runtime: Java(TM) SE Runtime Environment
JVM: Java HotSpot(TM) 64-Bit Server VM
Default Encoding: UTF-8
Language: en
Country: US
--></g></svg>