<?xml version="1.0" encoding="UTF-8" standalone="no"?><svg xmlns="http://www.w3.org/2000/svg" xmlns:xlink="http://www.w3.org/1999/xlink" contentScriptType="application/ecmascript" contentStyleType="text/css" height="374px" preserveAspectRatio="none" style="width:632px;height:374px;background:#FFFFFF;" version="1.1" viewBox="0 0 632 374" width="632px" zoomAndPan="magnify"><defs><filter height="300%" id="ffox3bzb7finf" width="300%" x="-1" y="-1"><feGaussianBlur result="blurOut" stdDeviation="2.0"/><feColorMatrix in="blurOut" result="blurOut2" type="matrix" values="0 0 0 0 0 0 0 0 0 0 0 0 0 0 0 0 0 0 .4 0"/><feOffset dx="4.0" dy="4.0" in="blurOut2" result="blurOut3"/><feBlend in="SourceGraphic" in2="blurOut3" mode="normal"/></filter></defs><g><!--MD5=[3cab58e622330109321580dbb0b85605]
class Input--><rect codeLine="2" fill="#FEFECE" filter="url(#ffox3bzb7finf)" height="39.9688" id="Input" style="stroke:#A80036;stroke-width:1.5;" width="70" x="7" y="42"/><text fill="#000000" font-family="sans-serif" font-size="12" lengthAdjust="spacing" textLength="29" x="10" y="58.1387">Input</text><rect fill="#FFFFFF" height="15.9688" style="stroke:#000000;stroke-width:1.0;stroke-dasharray:2.0,2.0;" width="33" x="47" y="39"/><text fill="#000000" font-family="sans-serif" font-size="12" font-style="italic" lengthAdjust="spacing" textLength="31" x="48" y="51.1387">actor</text><line style="stroke:#A80036;stroke-width:1.5;" x1="8" x2="76" y1="65.9688" y2="65.9688"/><line style="stroke:#A80036;stroke-width:1.5;" x1="8" x2="76" y1="73.9688" y2="73.9688"/><!--MD5=[3fd616f346a44cd59a91eb10b19e157c]
class User--><rect codeLine="23" fill="#FEFECE" filter="url(#ffox3bzb7finf)" height="103.9922" id="User" style="stroke:#A80036;stroke-width:1.5;" width="70" x="112" y="10"/><text fill="#000000" font-family="sans-serif" font-size="12" lengthAdjust="spacing" textLength="29" x="115" y="26.1387">User</text><rect fill="#FFFFFF" height="15.9688" style="stroke:#000000;stroke-width:1.0;stroke-dasharray:2.0,2.0;" width="33" x="152" y="7"/><text fill="#000000" font-family="sans-serif" font-size="12" font-style="italic" lengthAdjust="spacing" textLength="31" x="153" y="19.1387">actor</text><line style="stroke:#A80036;stroke-width:1.5;" x1="113" x2="181" y1="33.9688" y2="33.9688"/><text fill="#000000" font-family="sans-serif" font-size="11" lengthAdjust="spacing" textLength="36" x="118" y="48.1792">image</text><line style="stroke:#A80036;stroke-width:1.5;" x1="113" x2="181" y1="54.7734" y2="54.7734"/><text fill="#000000" font-family="sans-serif" font-size="11" lengthAdjust="spacing" textLength="35" x="118" y="68.9839">want()</text><text fill="#000000" font-family="sans-serif" font-size="11" lengthAdjust="spacing" textLength="35" x="118" y="81.7886">view()</text><text fill="#000000" font-family="sans-serif" font-size="11" lengthAdjust="spacing" textLength="49" x="118" y="94.5933">choose()</text><text fill="#000000" font-family="sans-serif" font-size="11" lengthAdjust="spacing" textLength="46" x="118" y="107.3979">upload()</text><!--MD5=[ed6624c6556d5e7b1bd23032162d20b7]
class Client--><rect codeLine="10" fill="#FEFECE" filter="url(#ffox3bzb7finf)" height="103.9922" id="Client" style="stroke:#A80036;stroke-width:1.5;" width="74" x="441" y="10"/><text fill="#000000" font-family="sans-serif" font-size="12" lengthAdjust="spacing" textLength="33" x="444" y="26.1387">Client</text><rect fill="#FFFFFF" height="15.9688" style="stroke:#000000;stroke-width:1.0;stroke-dasharray:2.0,2.0;" width="33" x="485" y="7"/><text fill="#000000" font-family="sans-serif" font-size="12" font-style="italic" lengthAdjust="spacing" textLength="31" x="486" y="19.1387">actor</text><line style="stroke:#A80036;stroke-width:1.5;" x1="442" x2="514" y1="33.9688" y2="33.9688"/><text fill="#000000" font-family="sans-serif" font-size="11" lengthAdjust="spacing" textLength="37" x="447" y="48.1792">server</text><line style="stroke:#A80036;stroke-width:1.5;" x1="442" x2="514" y1="54.7734" y2="54.7734"/><text fill="#000000" font-family="sans-serif" font-size="11" lengthAdjust="spacing" textLength="48" x="447" y="68.9839">extract()</text><text fill="#000000" font-family="sans-serif" font-size="11" lengthAdjust="spacing" textLength="30" x="447" y="81.7886">see()</text><text fill="#000000" font-family="sans-serif" font-size="11" lengthAdjust="spacing" textLength="46" x="447" y="94.5933">upload()</text><text fill="#000000" font-family="sans-serif" font-size="11" lengthAdjust="spacing" textLength="51" x="447" y="107.3979">replace()</text><!--MD5=[8900b8126f988052b90f9f1b0582e804]
class Algorithm--><rect codeLine="16" fill="#FEFECE" filter="url(#ffox3bzb7finf)" height="39.9688" id="Algorithm" style="stroke:#A80036;stroke-width:1.5;" width="63" x="401.5" y="197.5"/><text fill="#000000" font-family="sans-serif" font-size="12" lengthAdjust="spacing" textLength="57" x="404.5" y="213.6387">Algorithm</text><line style="stroke:#A80036;stroke-width:1.5;" x1="402.5" x2="463.5" y1="221.4688" y2="221.4688"/><line style="stroke:#A80036;stroke-width:1.5;" x1="402.5" x2="463.5" y1="229.4688" y2="229.4688"/><!--MD5=[39d6d2ea03de602dbf4d534e70c872a9]
class Tag--><rect codeLine="18" fill="#FEFECE" filter="url(#ffox3bzb7finf)" height="52.7734" id="Tag" style="stroke:#A80036;stroke-width:1.5;" width="57" x="37.5" y="191"/><text fill="#000000" font-family="sans-serif" font-size="12" lengthAdjust="spacing" textLength="22" x="55" y="207.1387">Tag</text><line style="stroke:#A80036;stroke-width:1.5;" x1="38.5" x2="93.5" y1="214.9688" y2="214.9688"/><line style="stroke:#A80036;stroke-width:1.5;" x1="38.5" x2="93.5" y1="222.9688" y2="222.9688"/><text fill="#000000" font-family="sans-serif" font-size="11" lengthAdjust="spacing" textLength="45" x="43.5" y="237.1792">detect()</text><!--MD5=[964f074a2dd77d134c21b891bb53e381]
class Image--><rect codeLine="21" fill="#FEFECE" filter="url(#ffox3bzb7finf)" height="39.9688" id="Image" style="stroke:#A80036;stroke-width:1.5;" width="43" x="241.5" y="197.5"/><text fill="#000000" font-family="sans-serif" font-size="12" lengthAdjust="spacing" textLength="37" x="244.5" y="213.6387">Image</text><line style="stroke:#A80036;stroke-width:1.5;" x1="242.5" x2="283.5" y1="221.4688" y2="221.4688"/><line style="stroke:#A80036;stroke-width:1.5;" x1="242.5" x2="283.5" y1="229.4688" y2="229.4688"/><!--MD5=[7e20e022571e30ec1001cf6eabd7f3e2]
class Model--><rect codeLine="29" fill="#FEFECE" filter="url(#ffox3bzb7finf)" height="39.9688" id="Model" style="stroke:#A80036;stroke-width:1.5;" width="43" x="544.5" y="197.5"/><text fill="#000000" font-family="sans-serif" font-size="12" lengthAdjust="spacing" textLength="37" x="547.5" y="213.6387">Model</text><line style="stroke:#A80036;stroke-width:1.5;" x1="545.5" x2="586.5" y1="221.4688" y2="221.4688"/><line style="stroke:#A80036;stroke-width:1.5;" x1="545.5" x2="586.5" y1="229.4688" y2="229.4688"/><!--MD5=[56c17820b5ec61b985b118caeb6340b1]
class Ui--><rect codeLine="31" fill="#FEFECE" filter="url(#ffox3bzb7finf)" height="52.7734" id="Ui" style="stroke:#A80036;stroke-width:1.5;" width="47" x="550.5" y="35.5"/><text fill="#000000" font-family="sans-serif" font-size="12" lengthAdjust="spacing" textLength="12" x="568" y="51.6387">Ui</text><line style="stroke:#A80036;stroke-width:1.5;" x1="551.5" x2="596.5" y1="59.4688" y2="59.4688"/><line style="stroke:#A80036;stroke-width:1.5;" x1="551.5" x2="596.5" y1="67.4688" y2="67.4688"/><text fill="#000000" font-family="sans-serif" font-size="11" lengthAdjust="spacing" textLength="35" x="556.5" y="81.6792">view()</text><!--MD5=[5d7f87ad7be124bcf8ad2c9ead1692a4]
class Pipeline--><rect codeLine="34" fill="#FEFECE" filter="url(#ffox3bzb7finf)" height="39.9688" id="Pipeline" style="stroke:#A80036;stroke-width:1.5;" width="52" x="237" y="321"/><text fill="#000000" font-family="sans-serif" font-size="12" lengthAdjust="spacing" textLength="46" x="240" y="337.1387">Pipeline</text><line style="stroke:#A80036;stroke-width:1.5;" x1="238" x2="288" y1="344.9688" y2="344.9688"/><line style="stroke:#A80036;stroke-width:1.5;" x1="238" x2="288" y1="352.9688" y2="352.9688"/><!--MD5=[a27555979845385991c022b1bcd3d809]
link Client to Model--><path codeLine="36" d="M495.908,114.059 C502.267,129.622 510.091,146.451 519,161 C525.981,172.4 535.227,183.864 543.67,193.388 " fill="none" id="Client-to-Model" style="stroke:#A80036;stroke-width:1.0;"/><polygon fill="#A80036" points="547.23,197.346,544.1841,187.98,543.8858,193.629,538.2368,193.3307,547.23,197.346" style="stroke:#A80036;stroke-width:1.0;"/><text fill="#000000" font-family="sans-serif" font-size="13" lengthAdjust="spacing" textLength="46" x="520" y="157.0669">extract</text><!--MD5=[a27555979845385991c022b1bcd3d809]
link Client to Model--><path codeLine="38" d="M515.214,98.246 C521.096,103.602 527.163,109.004 533,114 C549.346,127.993 561.616,124.636 571,144 C578.203,158.865 576.731,177.487 573.573,192.136 " fill="none" id="Client-to-Model-1" style="stroke:#A80036;stroke-width:1.0;"/><polygon fill="#A80036" points="572.346,197.339,578.3045,189.497,573.4933,192.4724,570.518,187.6613,572.346,197.339" style="stroke:#A80036;stroke-width:1.0;"/><text fill="#000000" font-family="sans-serif" font-size="13" lengthAdjust="spacing" textLength="47" x="577" y="157.0669">replace</text><!--MD5=[f79da127e1b4d6a6e5d53da9189c090a]
link Client to Image--><path codeLine="37" d="M440.55,89.738 C397.196,120.69 326.918,170.865 289.091,197.872 " fill="none" id="Client-to-Image" style="stroke:#A80036;stroke-width:1.0;"/><polygon fill="#A80036" points="284.643,201.048,294.292,199.074,288.7123,198.1428,289.6436,192.5631,284.643,201.048" style="stroke:#A80036;stroke-width:1.0;"/><text fill="#000000" font-family="sans-serif" font-size="13" lengthAdjust="spacing" textLength="43" x="366" y="157.0669">upload</text><!--MD5=[c25fea705d972bc4c982367c77334ae5]
reverse link User to Image--><path codeLine="39" d="M167.571,126.295 C173.121,138.483 179.892,150.659 188,161 C202.593,179.61 224.935,195.045 241.441,204.873 " fill="none" id="User-backto-Image" style="stroke:#A80036;stroke-width:1.0;"/><polygon fill="#FFFFFF" points="162.424,114.17,161.0865,121.256,167.113,125.216,168.4505,118.13,162.424,114.17" style="stroke:#A80036;stroke-width:1.0;"/><text fill="#000000" font-family="sans-serif" font-size="13" lengthAdjust="spacing" textLength="30" x="189" y="157.0669">view</text><!--MD5=[c25fea705d972bc4c982367c77334ae5]
reverse link User to Image--><path codeLine="40" d="M191.473,105.526 C202.76,117.423 214.397,130.741 224,144 C236.24,160.9 247.204,182.105 254.366,197.207 " fill="none" id="User-backto-Image-1" style="stroke:#A80036;stroke-width:1.0;"/><polygon fill="#FFFFFF" points="182.126,95.898,183.4357,102.9892,190.4851,104.5076,189.1754,97.4165,182.126,95.898" style="stroke:#A80036;stroke-width:1.0;"/><text fill="#000000" font-family="sans-serif" font-size="13" lengthAdjust="spacing" textLength="43" x="237" y="157.0669">upload</text><!--MD5=[c46fed5bc1945f75698189506bfecef0]
link Client to Algorithm--><path codeLine="41" d="M442.166,114.318 C437.147,123.803 432.765,133.91 430,144 C425.7,159.69 426.502,178 428.352,192.293 " fill="none" id="Client-to-Algorithm" style="stroke:#A80036;stroke-width:1.0;"/><polygon fill="#A80036" points="429.074,197.365,431.7664,187.8913,428.3697,192.4149,423.8461,189.0182,429.074,197.365" style="stroke:#A80036;stroke-width:1.0;"/><text fill="#000000" font-family="sans-serif" font-size="13" lengthAdjust="spacing" textLength="47" x="431" y="157.0669">replace</text><!--MD5=[2ee27a3c226c8efddfe3344676e0d9e8]
link User to Tag--><path codeLine="42" d="M111.967,99.929 C106.2351,105 100.1508,109.874 94,114 C66.5671,132.401 44.0378,116.327 26,144 C17.1076,157.642 23.9175,173.407 34.2742,186.745 " fill="none" id="User-to-Tag" style="stroke:#A80036;stroke-width:1.0;"/><polygon fill="#A80036" points="37.5888,190.802,34.9906,181.302,34.4247,186.9305,28.7962,186.3646,37.5888,190.802" style="stroke:#A80036;stroke-width:1.0;"/><text fill="#000000" font-family="sans-serif" font-size="13" lengthAdjust="spacing" textLength="32" x="27" y="157.0669">want</text><!--MD5=[2ee27a3c226c8efddfe3344676e0d9e8]
link User to Tag--><path codeLine="43" d="M116.481,114.043 C110.845,123.898 105.1263,134.205 100,144 C92.8811,157.603 85.5768,172.962 79.572,186.03 " fill="none" id="User-to-Tag-1" style="stroke:#A80036;stroke-width:1.0;"/><polygon fill="#A80036" points="77.4212,190.734,84.8008,184.2116,79.4999,186.1866,77.5249,180.8857,77.4212,190.734" style="stroke:#A80036;stroke-width:1.0;"/><text fill="#000000" font-family="sans-serif" font-size="13" lengthAdjust="spacing" textLength="46" x="101" y="157.0669">choose</text><!--MD5=[b6fd4978b752e4aa75944367f4046ffd]
link Image to Pipeline--><path codeLine="44" d="M263,237.752 C263,258.903 263,292.9094 263,315.8366 " fill="none" id="Image-to-Pipeline" style="stroke:#A80036;stroke-width:1.0;"/><polygon fill="#A80036" points="263,320.838,267,311.838,263,315.838,259,311.838,263,320.838" style="stroke:#A80036;stroke-width:1.0;"/><text fill="#000000" font-family="sans-serif" font-size="13" lengthAdjust="spacing" textLength="13" x="264" y="287.0669">to</text><!--MD5=[4d30c61ddd28c8cee3ce33c5adcc67dd]
@startuml
hide circle
class Input<actor> {
}
class User<actor> {
	image
}
class Client<actor> {
	server
}
class Client {
	extract()
	see()
	upload()
	replace()
}
class Algorithm {
}
class Tag {
	detect()
}
class Image {
}
class User {
	want()
	view()
	choose()
	upload()
}
class Model {
}
class Ui {
	view()
}
class Pipeline {
}
Client - -> Model : extract
Client - -> Image : upload
Client - -> Model : replace
User o- - Image : view
User o- - Image : upload
Client - -> Algorithm : replace
User - -> Tag : want
User - -> Tag : choose
Image - -> Pipeline : to
@enduml

PlantUML version 1.2021.10beta2(Unknown compile time)
(GPL source distribution)
Java Runtime: Java(TM) SE Runtime Environment
JVM: Java HotSpot(TM) 64-Bit Server VM
Default Encoding: UTF-8
Language: en
Country: US
--></g></svg>