<?xml version="1.0" encoding="UTF-8" standalone="no"?><svg xmlns="http://www.w3.org/2000/svg" xmlns:xlink="http://www.w3.org/1999/xlink" contentScriptType="application/ecmascript" contentStyleType="text/css" height="550px" preserveAspectRatio="none" style="width:2430px;height:550px;background:#FFFFFF;" version="1.1" viewBox="0 0 2430 550" width="2430px" zoomAndPan="magnify"><defs><filter height="300%" id="f13xcfxuf8k22g" width="300%" x="-1" y="-1"><feGaussianBlur result="blurOut" stdDeviation="2.0"/><feColorMatrix in="blurOut" result="blurOut2" type="matrix" values="0 0 0 0 0 0 0 0 0 0 0 0 0 0 0 0 0 0 .4 0"/><feOffset dx="4.0" dy="4.0" in="blurOut2" result="blurOut3"/><feBlend in="SourceGraphic" in2="blurOut3" mode="normal"/></filter></defs><g><!--MD5=[3fd616f346a44cd59a91eb10b19e157c]
class User--><rect codeLine="31" fill="#FEFECE" filter="url(#f13xcfxuf8k22g)" height="308.8672" id="User" style="stroke:#A80036;stroke-width:1.5;" width="70" x="1258" y="10"/><text fill="#000000" font-family="sans-serif" font-size="12" lengthAdjust="spacing" textLength="29" x="1261" y="26.1387">User</text><rect fill="#FFFFFF" height="15.9688" style="stroke:#000000;stroke-width:1.0;stroke-dasharray:2.0,2.0;" width="33" x="1298" y="7"/><text fill="#000000" font-family="sans-serif" font-size="12" font-style="italic" lengthAdjust="spacing" textLength="31" x="1299" y="19.1387">actor</text><line style="stroke:#A80036;stroke-width:1.5;" x1="1259" x2="1327" y1="33.9688" y2="33.9688"/><text fill="#000000" font-family="sans-serif" font-size="11" lengthAdjust="spacing" textLength="44" x="1264" y="48.1792">account</text><text fill="#000000" font-family="sans-serif" font-size="11" lengthAdjust="spacing" textLength="52" x="1264" y="60.9839">schedule</text><text fill="#000000" font-family="sans-serif" font-size="11" lengthAdjust="spacing" textLength="38" x="1264" y="73.7886">weight</text><text fill="#000000" font-family="sans-serif" font-size="11" lengthAdjust="spacing" textLength="44" x="1264" y="86.5933">location</text><line style="stroke:#A80036;stroke-width:1.5;" x1="1259" x2="1327" y1="93.1875" y2="93.1875"/><text fill="#000000" font-family="sans-serif" font-size="11" lengthAdjust="spacing" textLength="31" x="1264" y="107.3979">feel()</text><text fill="#000000" font-family="sans-serif" font-size="11" lengthAdjust="spacing" textLength="41" x="1264" y="120.2026">watch()</text><text fill="#000000" font-family="sans-serif" font-size="11" lengthAdjust="spacing" textLength="36" x="1264" y="133.0073">wear()</text><text fill="#000000" font-family="sans-serif" font-size="11" lengthAdjust="spacing" textLength="26" x="1264" y="145.812">opt()</text><text fill="#000000" font-family="sans-serif" font-size="11" lengthAdjust="spacing" textLength="49" x="1264" y="158.6167">disable()</text><text fill="#000000" font-family="sans-serif" font-size="11" lengthAdjust="spacing" textLength="44" x="1264" y="171.4214">toggle()</text><text fill="#000000" font-family="sans-serif" font-size="11" lengthAdjust="spacing" textLength="51" x="1264" y="184.2261">identify()</text><text fill="#000000" font-family="sans-serif" font-size="11" lengthAdjust="spacing" textLength="50" x="1264" y="197.0308">change()</text><text fill="#000000" font-family="sans-serif" font-size="11" lengthAdjust="spacing" textLength="47" x="1264" y="209.8354">access()</text><text fill="#000000" font-family="sans-serif" font-size="11" lengthAdjust="spacing" textLength="33" x="1264" y="222.6401">user()</text><text fill="#000000" font-family="sans-serif" font-size="11" lengthAdjust="spacing" textLength="37" x="1264" y="235.4448">know()</text><text fill="#000000" font-family="sans-serif" font-size="11" lengthAdjust="spacing" textLength="40" x="1264" y="248.2495">share()</text><text fill="#000000" font-family="sans-serif" font-size="11" lengthAdjust="spacing" textLength="45" x="1264" y="261.0542">create()</text><text fill="#000000" font-family="sans-serif" font-size="11" lengthAdjust="spacing" textLength="47" x="1264" y="273.8589">modify()</text><text fill="#000000" font-family="sans-serif" font-size="11" lengthAdjust="spacing" textLength="35" x="1264" y="286.6636">view()</text><text fill="#000000" font-family="sans-serif" font-size="11" lengthAdjust="spacing" textLength="52" x="1264" y="299.4683">receive()</text><text fill="#000000" font-family="sans-serif" font-size="11" lengthAdjust="spacing" textLength="22" x="1264" y="312.2729">do()</text><!--MD5=[db6d18d8099558415abc41d00477ab92]
class Admin--><rect codeLine="19" fill="#FEFECE" filter="url(#f13xcfxuf8k22g)" height="129.6016" id="Admin" style="stroke:#A80036;stroke-width:1.5;" width="78" x="272" y="99.5"/><text fill="#000000" font-family="sans-serif" font-size="12" lengthAdjust="spacing" textLength="37" x="275" y="115.6387">Admin</text><rect fill="#FFFFFF" height="15.9688" style="stroke:#000000;stroke-width:1.0;stroke-dasharray:2.0,2.0;" width="33" x="320" y="96.5"/><text fill="#000000" font-family="sans-serif" font-size="12" font-style="italic" lengthAdjust="spacing" textLength="31" x="321" y="108.6387">actor</text><line style="stroke:#A80036;stroke-width:1.5;" x1="273" x2="349" y1="123.4688" y2="123.4688"/><line style="stroke:#A80036;stroke-width:1.5;" x1="273" x2="349" y1="131.4688" y2="131.4688"/><text fill="#000000" font-family="sans-serif" font-size="11" lengthAdjust="spacing" textLength="46" x="278" y="145.6792">upload()</text><text fill="#000000" font-family="sans-serif" font-size="11" lengthAdjust="spacing" textLength="45" x="278" y="158.4839">define()</text><text fill="#000000" font-family="sans-serif" font-size="11" lengthAdjust="spacing" textLength="47" x="278" y="171.2886">access()</text><text fill="#000000" font-family="sans-serif" font-size="11" lengthAdjust="spacing" textLength="46" x="278" y="184.0933">delete()</text><text fill="#000000" font-family="sans-serif" font-size="11" lengthAdjust="spacing" textLength="29" x="278" y="196.8979">add()</text><text fill="#000000" font-family="sans-serif" font-size="11" lengthAdjust="spacing" textLength="45" x="278" y="209.7026">create()</text><text fill="#000000" font-family="sans-serif" font-size="11" lengthAdjust="spacing" textLength="30" x="278" y="222.5073">see()</text><!--MD5=[32f29d0a8b98848dec61f11fa636792c]
class FarmManager--><rect codeLine="28" fill="#FEFECE" filter="url(#f13xcfxuf8k22g)" height="52.7734" id="FarmManager" style="stroke:#A80036;stroke-width:1.5;" width="123" x="2183.5" y="138"/><text fill="#000000" font-family="sans-serif" font-size="12" lengthAdjust="spacing" textLength="82" x="2186.5" y="154.1387">FarmManager</text><rect fill="#FFFFFF" height="15.9688" style="stroke:#000000;stroke-width:1.0;stroke-dasharray:2.0,2.0;" width="33" x="2276.5" y="135"/><text fill="#000000" font-family="sans-serif" font-size="12" font-style="italic" lengthAdjust="spacing" textLength="31" x="2277.5" y="147.1387">actor</text><line style="stroke:#A80036;stroke-width:1.5;" x1="2184.5" x2="2305.5" y1="161.9688" y2="161.9688"/><line style="stroke:#A80036;stroke-width:1.5;" x1="2184.5" x2="2305.5" y1="169.9688" y2="169.9688"/><text fill="#000000" font-family="sans-serif" font-size="11" lengthAdjust="spacing" textLength="46" x="2189.5" y="184.1792">search()</text><!--MD5=[51459b575c2b6935d6ab8ee57e43f094]
class Tommorow--><rect codeLine="12" fill="#FEFECE" filter="url(#f13xcfxuf8k22g)" height="52.7734" id="Tommorow" style="stroke:#A80036;stroke-width:1.5;" width="74" x="2342" y="138"/><text fill="#000000" font-family="sans-serif" font-size="12" lengthAdjust="spacing" textLength="68" x="2345" y="154.1387">Tommorow</text><line style="stroke:#A80036;stroke-width:1.5;" x1="2343" x2="2415" y1="161.9688" y2="161.9688"/><text fill="#000000" font-family="sans-serif" font-size="11" lengthAdjust="spacing" textLength="47" x="2348" y="176.1792">weather</text><line style="stroke:#A80036;stroke-width:1.5;" x1="2343" x2="2415" y1="182.7734" y2="182.7734"/><!--MD5=[ca71139d222feb1a17fd1a311ff658d0]
class Tone--><rect codeLine="15" fill="#FEFECE" filter="url(#f13xcfxuf8k22g)" height="39.9688" id="Tone" style="stroke:#A80036;stroke-width:1.5;" width="36" x="1770" y="497"/><text fill="#000000" font-family="sans-serif" font-size="12" lengthAdjust="spacing" textLength="30" x="1773" y="513.1387">Tone</text><line style="stroke:#A80036;stroke-width:1.5;" x1="1771" x2="1805" y1="520.9688" y2="520.9688"/><line style="stroke:#A80036;stroke-width:1.5;" x1="1771" x2="1805" y1="528.9688" y2="528.9688"/><!--MD5=[60c9ed31c535bee25c55ce21b5b01399]
class Data--><rect codeLine="17" fill="#FEFECE" filter="url(#f13xcfxuf8k22g)" height="39.9688" id="Data" style="stroke:#A80036;stroke-width:1.5;" width="33" x="640.5" y="497"/><text fill="#000000" font-family="sans-serif" font-size="12" lengthAdjust="spacing" textLength="27" x="643.5" y="513.1387">Data</text><line style="stroke:#A80036;stroke-width:1.5;" x1="641.5" x2="672.5" y1="520.9688" y2="520.9688"/><line style="stroke:#A80036;stroke-width:1.5;" x1="641.5" x2="672.5" y1="528.9688" y2="528.9688"/><!--MD5=[0c3b512350d460f5340b50da7a0b4194]
class Checklist--><rect codeLine="50" fill="#FEFECE" filter="url(#f13xcfxuf8k22g)" height="39.9688" id="Checklist" style="stroke:#A80036;stroke-width:1.5;" width="60" x="1196" y="396"/><text fill="#000000" font-family="sans-serif" font-size="12" lengthAdjust="spacing" textLength="54" x="1199" y="412.1387">Checklist</text><line style="stroke:#A80036;stroke-width:1.5;" x1="1197" x2="1255" y1="419.9688" y2="419.9688"/><line style="stroke:#A80036;stroke-width:1.5;" x1="1197" x2="1255" y1="427.9688" y2="427.9688"/><!--MD5=[260c1e5e41e593ef0e92b4cae546ad19]
class EmergencyContactList--><rect codeLine="52" fill="#FEFECE" filter="url(#f13xcfxuf8k22g)" height="39.9688" id="EmergencyContactList" style="stroke:#A80036;stroke-width:1.5;" width="139" x="1291.5" y="396"/><text fill="#000000" font-family="sans-serif" font-size="12" lengthAdjust="spacing" textLength="133" x="1294.5" y="412.1387">EmergencyContactList</text><line style="stroke:#A80036;stroke-width:1.5;" x1="1292.5" x2="1429.5" y1="419.9688" y2="419.9688"/><line style="stroke:#A80036;stroke-width:1.5;" x1="1292.5" x2="1429.5" y1="427.9688" y2="427.9688"/><!--MD5=[a3638c1e5b65d287ecad7f06f5c0f212]
class Role--><rect codeLine="54" fill="#FEFECE" filter="url(#f13xcfxuf8k22g)" height="39.9688" id="Role" style="stroke:#A80036;stroke-width:1.5;" width="32" x="295" y="396"/><text fill="#000000" font-family="sans-serif" font-size="12" lengthAdjust="spacing" textLength="26" x="298" y="412.1387">Role</text><line style="stroke:#A80036;stroke-width:1.5;" x1="296" x2="326" y1="419.9688" y2="419.9688"/><line style="stroke:#A80036;stroke-width:1.5;" x1="296" x2="326" y1="427.9688" y2="427.9688"/><!--MD5=[82c53a10f238a1092cf5f0b044477708]
class Feature--><rect codeLine="56" fill="#FEFECE" filter="url(#f13xcfxuf8k22g)" height="39.9688" id="Feature" style="stroke:#A80036;stroke-width:1.5;" width="52" x="1466" y="396"/><text fill="#000000" font-family="sans-serif" font-size="12" lengthAdjust="spacing" textLength="46" x="1469" y="412.1387">Feature</text><line style="stroke:#A80036;stroke-width:1.5;" x1="1467" x2="1517" y1="419.9688" y2="419.9688"/><line style="stroke:#A80036;stroke-width:1.5;" x1="1467" x2="1517" y1="427.9688" y2="427.9688"/><!--MD5=[76b5e19c9337179d2d7ae334371d68c8]
class Notification--><rect codeLine="58" fill="#FEFECE" filter="url(#f13xcfxuf8k22g)" height="39.9688" id="Notification" style="stroke:#A80036;stroke-width:1.5;" width="72" x="1553" y="396"/><text fill="#000000" font-family="sans-serif" font-size="12" lengthAdjust="spacing" textLength="66" x="1556" y="412.1387">Notification</text><line style="stroke:#A80036;stroke-width:1.5;" x1="1554" x2="1624" y1="419.9688" y2="419.9688"/><line style="stroke:#A80036;stroke-width:1.5;" x1="1554" x2="1624" y1="427.9688" y2="427.9688"/><!--MD5=[166247bf81aba95c770c3b8fd8e3cb19]
class Video--><rect codeLine="60" fill="#FEFECE" filter="url(#f13xcfxuf8k22g)" height="39.9688" id="Video" style="stroke:#A80036;stroke-width:1.5;" width="41" x="508.5" y="396"/><text fill="#000000" font-family="sans-serif" font-size="12" lengthAdjust="spacing" textLength="35" x="511.5" y="412.1387">Video</text><line style="stroke:#A80036;stroke-width:1.5;" x1="509.5" x2="548.5" y1="419.9688" y2="419.9688"/><line style="stroke:#A80036;stroke-width:1.5;" x1="509.5" x2="548.5" y1="427.9688" y2="427.9688"/><!--MD5=[4f1f3706c1a355a8488e154afcaed5df]
class Location--><rect codeLine="62" fill="#FEFECE" filter="url(#f13xcfxuf8k22g)" height="39.9688" id="Location" style="stroke:#A80036;stroke-width:1.5;" width="56" x="1660" y="396"/><text fill="#000000" font-family="sans-serif" font-size="12" lengthAdjust="spacing" textLength="50" x="1663" y="412.1387">Location</text><line style="stroke:#A80036;stroke-width:1.5;" x1="1661" x2="1715" y1="419.9688" y2="419.9688"/><line style="stroke:#A80036;stroke-width:1.5;" x1="1661" x2="1715" y1="427.9688" y2="427.9688"/><!--MD5=[b8ca79fd367f79be7dbbd127290f5300]
class Weight--><rect codeLine="64" fill="#FEFECE" filter="url(#f13xcfxuf8k22g)" height="39.9688" id="Weight" style="stroke:#A80036;stroke-width:1.5;" width="48" x="1751" y="396"/><text fill="#000000" font-family="sans-serif" font-size="12" lengthAdjust="spacing" textLength="42" x="1754" y="412.1387">Weight</text><line style="stroke:#A80036;stroke-width:1.5;" x1="1752" x2="1798" y1="419.9688" y2="419.9688"/><line style="stroke:#A80036;stroke-width:1.5;" x1="1752" x2="1798" y1="427.9688" y2="427.9688"/><!--MD5=[3c2cbbee24bda6f963becc0a442377df]
class Temperature--><rect codeLine="66" fill="#FEFECE" filter="url(#f13xcfxuf8k22g)" height="39.9688" id="Temperature" style="stroke:#A80036;stroke-width:1.5;" width="84" x="371" y="396"/><text fill="#000000" font-family="sans-serif" font-size="12" lengthAdjust="spacing" textLength="78" x="374" y="412.1387">Temperature</text><line style="stroke:#A80036;stroke-width:1.5;" x1="372" x2="454" y1="419.9688" y2="419.9688"/><line style="stroke:#A80036;stroke-width:1.5;" x1="372" x2="454" y1="427.9688" y2="427.9688"/><!--MD5=[30fd7b95ab383a5e7c83ea23d4ea0fbf]
class Information--><rect codeLine="68" fill="#FEFECE" filter="url(#f13xcfxuf8k22g)" height="39.9688" id="Information" style="stroke:#A80036;stroke-width:1.5;" width="73" x="2067.5" y="396"/><text fill="#000000" font-family="sans-serif" font-size="12" lengthAdjust="spacing" textLength="67" x="2070.5" y="412.1387">Information</text><line style="stroke:#A80036;stroke-width:1.5;" x1="2068.5" x2="2139.5" y1="419.9688" y2="419.9688"/><line style="stroke:#A80036;stroke-width:1.5;" x1="2068.5" x2="2139.5" y1="427.9688" y2="427.9688"/><!--MD5=[32cd4433c115ed96a993c633522ecf21]
class Contents--><rect codeLine="70" fill="#FEFECE" filter="url(#f13xcfxuf8k22g)" height="39.9688" id="Contents" style="stroke:#A80036;stroke-width:1.5;" width="59" x="200.5" y="396"/><text fill="#000000" font-family="sans-serif" font-size="12" lengthAdjust="spacing" textLength="53" x="203.5" y="412.1387">Contents</text><line style="stroke:#A80036;stroke-width:1.5;" x1="201.5" x2="258.5" y1="419.9688" y2="419.9688"/><line style="stroke:#A80036;stroke-width:1.5;" x1="201.5" x2="258.5" y1="427.9688" y2="427.9688"/><!--MD5=[f9a29335b499db729be669fd1bd54958]
class Account--><rect codeLine="72" fill="#FEFECE" filter="url(#f13xcfxuf8k22g)" height="39.9688" id="Account" style="stroke:#A80036;stroke-width:1.5;" width="54" x="1953" y="396"/><text fill="#000000" font-family="sans-serif" font-size="12" lengthAdjust="spacing" textLength="48" x="1956" y="412.1387">Account</text><line style="stroke:#A80036;stroke-width:1.5;" x1="1954" x2="2006" y1="419.9688" y2="419.9688"/><line style="stroke:#A80036;stroke-width:1.5;" x1="1954" x2="2006" y1="427.9688" y2="427.9688"/><!--MD5=[67f5bdafb709b09f80738cdb2228938c]
class Quiz--><rect codeLine="74" fill="#FEFECE" filter="url(#f13xcfxuf8k22g)" height="39.9688" id="Quiz" style="stroke:#A80036;stroke-width:1.5;" width="33" x="621.5" y="396"/><text fill="#000000" font-family="sans-serif" font-size="12" lengthAdjust="spacing" textLength="27" x="624.5" y="412.1387">Quiz</text><line style="stroke:#A80036;stroke-width:1.5;" x1="622.5" x2="653.5" y1="419.9688" y2="419.9688"/><line style="stroke:#A80036;stroke-width:1.5;" x1="622.5" x2="653.5" y1="427.9688" y2="427.9688"/><!--MD5=[fd7366e9f96236d9aa60dcc04f2b83e5]
class Content--><rect codeLine="76" fill="#FEFECE" filter="url(#f13xcfxuf8k22g)" height="39.9688" id="Content" style="stroke:#A80036;stroke-width:1.5;" width="52" x="7" y="396"/><text fill="#000000" font-family="sans-serif" font-size="12" lengthAdjust="spacing" textLength="46" x="10" y="412.1387">Content</text><line style="stroke:#A80036;stroke-width:1.5;" x1="8" x2="58" y1="419.9688" y2="419.9688"/><line style="stroke:#A80036;stroke-width:1.5;" x1="8" x2="58" y1="427.9688" y2="427.9688"/><!--MD5=[335f4d9be48430461c68bf6d6fdba145]
class App--><rect codeLine="78" fill="#FEFECE" filter="url(#f13xcfxuf8k22g)" height="52.7734" id="App" style="stroke:#A80036;stroke-width:1.5;" width="39" x="2109.5" y="138"/><text fill="#000000" font-family="sans-serif" font-size="12" lengthAdjust="spacing" textLength="24" x="2117" y="154.1387">App</text><line style="stroke:#A80036;stroke-width:1.5;" x1="2110.5" x2="2147.5" y1="161.9688" y2="161.9688"/><line style="stroke:#A80036;stroke-width:1.5;" x1="2110.5" x2="2147.5" y1="169.9688" y2="169.9688"/><text fill="#000000" font-family="sans-serif" font-size="11" lengthAdjust="spacing" textLength="27" x="2115.5" y="184.1792">get()</text><!--MD5=[30fa7e59e0dcc6ea44bfee28316cb738]
class HealthData--><rect codeLine="81" fill="#FEFECE" filter="url(#f13xcfxuf8k22g)" height="39.9688" id="HealthData" style="stroke:#A80036;stroke-width:1.5;" width="71" x="94.5" y="396"/><text fill="#000000" font-family="sans-serif" font-size="12" lengthAdjust="spacing" textLength="65" x="97.5" y="412.1387">HealthData</text><line style="stroke:#A80036;stroke-width:1.5;" x1="95.5" x2="164.5" y1="419.9688" y2="419.9688"/><line style="stroke:#A80036;stroke-width:1.5;" x1="95.5" x2="164.5" y1="427.9688" y2="427.9688"/><!--MD5=[292033ffe4750640675b59034298e578]
class Display--><rect codeLine="83" fill="#FEFECE" filter="url(#f13xcfxuf8k22g)" height="39.9688" id="Display" style="stroke:#A80036;stroke-width:1.5;" width="50" x="819" y="396"/><text fill="#000000" font-family="sans-serif" font-size="12" lengthAdjust="spacing" textLength="44" x="822" y="412.1387">Display</text><line style="stroke:#A80036;stroke-width:1.5;" x1="820" x2="868" y1="419.9688" y2="419.9688"/><line style="stroke:#A80036;stroke-width:1.5;" x1="820" x2="868" y1="427.9688" y2="427.9688"/><!--MD5=[ac7934929da5e0be69bf27d15ca10a9c]
class VibrationLevel--><rect codeLine="85" fill="#FEFECE" filter="url(#f13xcfxuf8k22g)" height="39.9688" id="VibrationLevel" style="stroke:#A80036;stroke-width:1.5;" width="91" x="904.5" y="396"/><text fill="#000000" font-family="sans-serif" font-size="12" lengthAdjust="spacing" textLength="85" x="907.5" y="412.1387">VibrationLevel</text><line style="stroke:#A80036;stroke-width:1.5;" x1="905.5" x2="994.5" y1="419.9688" y2="419.9688"/><line style="stroke:#A80036;stroke-width:1.5;" x1="905.5" x2="994.5" y1="427.9688" y2="427.9688"/><!--MD5=[90d32ccc189f11441a6ce7cbb63ad387]
class Material--><rect codeLine="87" fill="#FEFECE" filter="url(#f13xcfxuf8k22g)" height="39.9688" id="Material" style="stroke:#A80036;stroke-width:1.5;" width="53" x="1030.5" y="396"/><text fill="#000000" font-family="sans-serif" font-size="12" lengthAdjust="spacing" textLength="47" x="1033.5" y="412.1387">Material</text><line style="stroke:#A80036;stroke-width:1.5;" x1="1031.5" x2="1082.5" y1="419.9688" y2="419.9688"/><line style="stroke:#A80036;stroke-width:1.5;" x1="1031.5" x2="1082.5" y1="427.9688" y2="427.9688"/><!--MD5=[cf4d6237fcae255cd2e1656cf84a30e2]
class Order--><rect codeLine="89" fill="#FEFECE" filter="url(#f13xcfxuf8k22g)" height="39.9688" id="Order" style="stroke:#A80036;stroke-width:1.5;" width="42" x="1119" y="396"/><text fill="#000000" font-family="sans-serif" font-size="12" lengthAdjust="spacing" textLength="36" x="1122" y="412.1387">Order</text><line style="stroke:#A80036;stroke-width:1.5;" x1="1120" x2="1160" y1="419.9688" y2="419.9688"/><line style="stroke:#A80036;stroke-width:1.5;" x1="1120" x2="1160" y1="427.9688" y2="427.9688"/><!--MD5=[74bee6345d88bc124496cf141542b1c7]
link Admin to Role--><path codeLine="91" d="M308.556,229.622 C307.424,268.983 306.606,320.416 308,366 C308.246,374.029 308.717,382.788 309.215,390.651 " fill="none" id="Admin-to-Role" style="stroke:#A80036;stroke-width:1.0;"/><polygon fill="#A80036" points="309.561,395.931,312.9637,386.6886,309.2339,390.9417,304.9808,387.212,309.561,395.931" style="stroke:#A80036;stroke-width:1.0;"/><text fill="#000000" font-family="sans-serif" font-size="13" lengthAdjust="spacing" textLength="40" x="309" y="362.0669">define</text><!--MD5=[0c31447fbdec0f53dcb5dd40b38613df]
link User to Feature--><path codeLine="92" d="M1328.12,209.531 C1370.51,262.685 1440.24,350.1 1473.38,391.655 " fill="none" id="User-to-Feature" style="stroke:#A80036;stroke-width:1.0;"/><polygon fill="#A80036" points="1476.66,395.771,1474.1655,386.2433,1473.5383,391.8653,1467.9163,391.2381,1476.66,395.771" style="stroke:#A80036;stroke-width:1.0;"/><text fill="#000000" font-family="sans-serif" font-size="13" lengthAdjust="spacing" textLength="28" x="1451" y="362.0669">user</text><!--MD5=[6b4d7518e221b0e4117d7b9d8c1511bb]
link User to Checklist--><path codeLine="93" d="M1257.93,296.096 C1248.16,332.488 1238.56,368.214 1232.48,390.853 " fill="none" id="User-to-Checklist" style="stroke:#A80036;stroke-width:1.0;"/><polygon fill="#A80036" points="1231.17,395.759,1237.368,388.1049,1232.4672,390.9302,1229.6419,386.0294,1231.17,395.759" style="stroke:#A80036;stroke-width:1.0;"/><text fill="#000000" font-family="sans-serif" font-size="13" lengthAdjust="spacing" textLength="41" x="1244" y="362.0669">create</text><!--MD5=[21c8f8291af381f45b2a12cafe8892a3]
link App to Information--><path codeLine="94" d="M2126.42,191.261 C2121.58,239.575 2111.2,343.173 2106.45,390.504 " fill="none" id="App-to-Information" style="stroke:#A80036;stroke-width:1.0;"/><polygon fill="#A80036" points="2105.93,395.719,2110.8081,387.1631,2106.4289,390.744,2102.848,386.3648,2105.93,395.719" style="stroke:#A80036;stroke-width:1.0;"/><text fill="#000000" font-family="sans-serif" font-size="13" lengthAdjust="spacing" textLength="21" x="2111" y="362.0669">get</text><!--MD5=[94d8ec925dc05aae8ddd8357ad83aa96]
link User to EmergencyContactList--><path codeLine="95" d="M1328.1,294.27 C1338.18,331.269 1348.13,367.796 1354.41,390.815 " fill="none" id="User-to-EmergencyContactList" style="stroke:#A80036;stroke-width:1.0;"/><polygon fill="#A80036" points="1355.77,395.8,1357.2659,386.0654,1354.4568,390.9755,1349.5467,388.1665,1355.77,395.8" style="stroke:#A80036;stroke-width:1.0;"/><text fill="#000000" font-family="sans-serif" font-size="13" lengthAdjust="spacing" textLength="41" x="1348" y="362.0669">create</text><!--MD5=[2e2e530a658308b38e0151c4d25adf6b]
link User to Notification--><path codeLine="96" d="M1328.12,195.101 C1387.97,245.548 1508.45,347.106 1562.13,392.354 " fill="none" id="User-to-Notification" style="stroke:#A80036;stroke-width:1.0;"/><polygon fill="#A80036" points="1566.19,395.774,1561.895,386.911,1562.37,392.5479,1556.7332,393.0229,1566.19,395.774" style="stroke:#A80036;stroke-width:1.0;"/><text fill="#000000" font-family="sans-serif" font-size="13" lengthAdjust="spacing" textLength="47" x="1527" y="362.0669">receive</text><!--MD5=[d18a4d054d286cfcd5e9dc39bb2838cd]
link User to Video--><path codeLine="97" d="M1257.66,172.758 C1159.23,193.569 874.541,257.857 651,349 C616.153,363.208 578.388,384.664 554.253,399.225 " fill="none" id="User-to-Video" style="stroke:#A80036;stroke-width:1.0;"/><polygon fill="#A80036" points="549.909,401.86,559.6787,400.6135,554.1843,399.2674,555.5305,393.773,549.909,401.86" style="stroke:#A80036;stroke-width:1.0;"/><text fill="#000000" font-family="sans-serif" font-size="13" lengthAdjust="spacing" textLength="39" x="652" y="362.0669">watch</text><!--MD5=[6228c31002e3ca9da35c89a172d882b3]
link User to Data--><path codeLine="98" d="M1257.71,175.548 C1169.49,201.777 934.549,278.527 769,396 C730.173,423.551 694.325,466.2479 674.102,492.5891 " fill="none" id="User-to-Data" style="stroke:#A80036;stroke-width:1.0;"/><polygon fill="#A80036" points="670.993,496.6715,679.6287,491.9361,674.0229,492.6941,673.2649,487.0883,670.993,496.6715" style="stroke:#A80036;stroke-width:1.0;"/><text fill="#000000" font-family="sans-serif" font-size="13" lengthAdjust="spacing" textLength="30" x="770" y="420.5669">view</text><!--MD5=[59f6618a3dc158c28d1239d81943c795]
link Admin to Video--><path codeLine="99" d="M350.196,216.961 C382.534,258.452 430.356,317.647 476,366 C484.882,375.409 495.22,385.199 504.396,393.532 " fill="none" id="Admin-to-Video" style="stroke:#A80036;stroke-width:1.0;"/><polygon fill="#A80036" points="508.25,397.009,504.2456,388.011,504.537,393.6603,498.8877,393.9517,508.25,397.009" style="stroke:#A80036;stroke-width:1.0;"/><text fill="#000000" font-family="sans-serif" font-size="13" lengthAdjust="spacing" textLength="43" x="477" y="362.0669">upload</text><!--MD5=[78551f519915f91eacb1373215d48a8d]
link Admin to HealthData--><path codeLine="100" d="M271.949,219.331 C233.044,272.959 175.144,352.771 146.825,391.807 " fill="none" id="Admin-to-HealthData" style="stroke:#A80036;stroke-width:1.0;"/><polygon fill="#A80036" points="143.85,395.909,152.3724,390.9725,146.7858,391.8617,145.8967,386.2751,143.85,395.909" style="stroke:#A80036;stroke-width:1.0;"/><text fill="#000000" font-family="sans-serif" font-size="13" lengthAdjust="spacing" textLength="44" x="175" y="362.0669">access</text><!--MD5=[f8e62fce92094be4a82b4c889b78a008]
reverse link User to Location--><path codeLine="101" d="M1339.1,194.618 C1421.66,246.77 1592.43,354.635 1659.79,397.184 " fill="none" id="User-backto-Location" style="stroke:#A80036;stroke-width:1.0;"/><polygon fill="#FFFFFF" points="1328.05,187.641,1330.9866,194.2271,1338.1955,194.0495,1335.2589,187.4634,1328.05,187.641" style="stroke:#A80036;stroke-width:1.0;"/><text fill="#000000" font-family="sans-serif" font-size="13" lengthAdjust="spacing" textLength="36" x="1604" y="362.0669">share</text><!--MD5=[949878349d057c0f9b0bc699490e2385]
link User to Display--><path codeLine="102" d="M1257.77,185.078 C1172.03,232.722 953.696,354.044 873.839,398.419 " fill="none" id="User-to-Display" style="stroke:#A80036;stroke-width:1.0;"/><polygon fill="#A80036" points="869.234,400.978,879.0439,400.1025,873.6044,398.5492,875.1578,393.1098,869.234,400.978" style="stroke:#A80036;stroke-width:1.0;"/><text fill="#000000" font-family="sans-serif" font-size="13" lengthAdjust="spacing" textLength="40" x="954" y="362.0669">toggle</text><!--MD5=[552385275cc74c32a9251f1f94479a39]
link User to Quiz--><path codeLine="103" d="M1257.79,172.538 C1166.12,191.76 914.05,250.401 725,349 C700.516,361.77 675.729,381.374 658.91,395.902 " fill="none" id="User-to-Quiz" style="stroke:#A80036;stroke-width:1.0;"/><polygon fill="#A80036" points="654.811,399.479,664.2216,396.5736,658.5777,396.1908,658.9605,390.5469,654.811,399.479" style="stroke:#A80036;stroke-width:1.0;"/><text fill="#000000" font-family="sans-serif" font-size="13" lengthAdjust="spacing" textLength="16" x="726" y="362.0669">do</text><!--MD5=[5cf835fe52ad1e4f2e6371f35e0fbb1c]
reverse link User to Weight--><path codeLine="104" d="M1339.73,189.463 C1407.82,224.408 1538.26,291.459 1649,349 C1684.5,367.446 1725.53,388.976 1750.87,402.3 " fill="none" id="User-backto-Weight" style="stroke:#A80036;stroke-width:1.0;"/><polygon fill="#FFFFFF" points="1328.16,183.525,1331.6747,189.8216,1338.8388,188.9989,1335.324,182.7024,1328.16,183.525" style="stroke:#A80036;stroke-width:1.0;"/><text fill="#000000" font-family="sans-serif" font-size="13" lengthAdjust="spacing" textLength="41" x="1682" y="362.0669">create</text><!--MD5=[8d0e38c9b7e7757be201a562fa9d77ce]
link User to Tone--><path codeLine="105" d="M1328.09,167.803 C1427.54,176.486 1710.85,216.676 1816,396 C1833.73,426.229 1817.3,466.9041 1803.18,492.2806 " fill="none" id="User-to-Tone" style="stroke:#A80036;stroke-width:1.0;"/><polygon fill="#A80036" points="1800.57,496.835,1808.5073,491.0041,1803.05,492.4934,1801.5607,487.0361,1800.57,496.835" style="stroke:#A80036;stroke-width:1.0;"/><text fill="#000000" font-family="sans-serif" font-size="13" lengthAdjust="spacing" textLength="47" x="1825" y="420.5669">change</text><!--MD5=[00b85d6dc3621b72a7c88552e7d035b6]
link Admin to Temperature--><path codeLine="106" d="M335.058,229.583 C350.208,269.154 370.52,320.822 390,366 C393.513,374.147 397.563,382.949 401.276,390.814 " fill="none" id="Admin-to-Temperature" style="stroke:#A80036;stroke-width:1.0;"/><polygon fill="#A80036" points="403.536,395.577,403.2926,385.7312,401.393,391.0595,396.0646,389.16,403.536,395.577" style="stroke:#A80036;stroke-width:1.0;"/><text fill="#000000" font-family="sans-serif" font-size="13" lengthAdjust="spacing" textLength="44" x="391" y="362.0669">access</text><!--MD5=[3a528f818948185628c866cc79abcb85]
link User to VibrationLevel--><path codeLine="107" d="M1257.9,191.028 C1190.57,240.005 1044.31,346.399 980.64,392.712 " fill="none" id="User-to-VibrationLevel" style="stroke:#A80036;stroke-width:1.0;"/><polygon fill="#A80036" points="976.568,395.675,986.1997,393.6184,980.6123,392.735,981.4957,387.1475,976.568,395.675" style="stroke:#A80036;stroke-width:1.0;"/><text fill="#000000" font-family="sans-serif" font-size="13" lengthAdjust="spacing" textLength="47" x="1034" y="362.0669">change</text><!--MD5=[9d661380b54d9bff4ee137bc0bb1b8a2]
link User to Information--><path codeLine="108" d="M1328.24,172.247 C1430.46,192.395 1735.02,256.509 1975,349 C2007.04,361.35 2041.59,379.295 2066.86,393.356 " fill="none" id="User-to-Information" style="stroke:#A80036;stroke-width:1.0;"/><polygon fill="#A80036" points="2071.47,395.934,2065.5714,388.0469,2067.1073,393.4912,2061.663,395.0272,2071.47,395.934" style="stroke:#A80036;stroke-width:1.0;"/><text fill="#000000" font-family="sans-serif" font-size="13" lengthAdjust="spacing" textLength="47" x="2012" y="362.0669">receive</text><!--MD5=[4cdcf10824a5a72470989197280b3f5e]
link User to Material--><path codeLine="109" d="M1257.92,202.583 C1208.44,254.896 1119.62,348.798 1078.71,392.047 " fill="none" id="User-to-Material" style="stroke:#A80036;stroke-width:1.0;"/><polygon fill="#A80036" points="1075.14,395.822,1084.2333,392.0388,1078.5785,392.192,1078.4253,386.5372,1075.14,395.822" style="stroke:#A80036;stroke-width:1.0;"/><text fill="#000000" font-family="sans-serif" font-size="13" lengthAdjust="spacing" textLength="44" x="1116" y="362.0669">access</text><!--MD5=[13b90b1d6f0853b38835fcd7521c36a6]
reverse link Temperature to Data--><path codeLine="110" d="M467.293,439.0287 C522.695,461.5074 605.358,495.047 640.373,509.2539 " fill="none" id="Temperature-backto-Data" style="stroke:#A80036;stroke-width:1.0;"/><polygon fill="#FFFFFF" points="455.223,434.131,459.2791,440.0932,466.3427,438.6423,462.2866,432.6801,455.223,434.131" style="stroke:#A80036;stroke-width:1.0;"/><!--MD5=[63575b7639e7bb215994c7c107a504cd]
link Admin to Contents--><path codeLine="111" d="M290.14,229.752 C273.074,282.322 249.867,353.803 237.884,390.715 " fill="none" id="Admin-to-Contents" style="stroke:#A80036;stroke-width:1.0;"/><polygon fill="#A80036" points="236.199,395.904,242.7831,388.5794,237.7432,391.1484,235.1742,386.1086,236.199,395.904" style="stroke:#A80036;stroke-width:1.0;"/><text fill="#000000" font-family="sans-serif" font-size="13" lengthAdjust="spacing" textLength="40" x="251" y="362.0669">delete</text><!--MD5=[5b2a2bdb39cc116e4a78ea074bb38160]
link User to Order--><path codeLine="112" d="M1257.9,222.74 C1225.17,276.105 1177.99,353.054 1154.47,391.408 " fill="none" id="User-to-Order" style="stroke:#A80036;stroke-width:1.0;"/><polygon fill="#A80036" points="1151.72,395.89,1159.8383,390.3139,1154.3365,391.6293,1153.0211,386.1275,1151.72,395.89" style="stroke:#A80036;stroke-width:1.0;"/><text fill="#000000" font-family="sans-serif" font-size="13" lengthAdjust="spacing" textLength="24" x="1178" y="362.0669">feel</text><!--MD5=[ffbfde574bb7ae168ad208d635d3b889]
link Admin to Content--><path codeLine="113" d="M271.759,200.718 C213.819,252.718 107.003,348.583 58.3431,392.255 " fill="none" id="Admin-to-Content" style="stroke:#A80036;stroke-width:1.0;"/><polygon fill="#A80036" points="54.3795,395.812,63.7493,392.7778,58.1007,392.4725,58.4061,386.8239,54.3795,395.812" style="stroke:#A80036;stroke-width:1.0;"/><text fill="#000000" font-family="sans-serif" font-size="13" lengthAdjust="spacing" textLength="41" x="102" y="362.0669">create</text><!--MD5=[c8ecc96e049822d047e1e20cd7f62a56]
reverse link User to Account--><path codeLine="114" d="M1341.25,173.999 C1446.43,193.826 1702.38,249.199 1895,349 C1919.22,361.549 1943.46,381.251 1959.82,395.866 " fill="none" id="User-backto-Account" style="stroke:#A80036;stroke-width:1.0;"/><polygon fill="#FFFFFF" points="1328.3,171.595,1333.4696,176.6224,1340.0986,173.7841,1334.929,168.7567,1328.3,171.595" style="stroke:#A80036;stroke-width:1.0;"/><text fill="#000000" font-family="sans-serif" font-size="13" lengthAdjust="spacing" textLength="45" x="1921" y="362.0669">disable</text><!--MD5=[179b77aecdc449dcdd690e2ebd7591f4]
reverse link Notification to Tone--><path codeLine="115" d="M1636.87,440.8126 C1679.63,462.0861 1739.99,492.1156 1769.84,506.9633 " fill="none" id="Notification-backto-Tone" style="stroke:#A80036;stroke-width:1.0;"/><polygon fill="#FFFFFF" points="1625.04,434.928,1628.6323,441.1807,1635.7856,440.2696,1632.1933,434.0169,1625.04,434.928" style="stroke:#A80036;stroke-width:1.0;"/><!--MD5=[ad8b54e37159f501f86126b68a5588a9]
link Admin to Quiz--><path codeLine="116" d="M350.221,199.177 C398.585,240.177 483.869,310.779 561,366 C579.331,379.124 601.071,392.796 616.768,402.352 " fill="none" id="Admin-to-Quiz" style="stroke:#A80036;stroke-width:1.0;"/><polygon fill="#A80036" points="621.435,405.181,615.8115,397.0954,617.159,402.5894,611.665,403.9369,621.435,405.181" style="stroke:#A80036;stroke-width:1.0;"/><text fill="#000000" font-family="sans-serif" font-size="13" lengthAdjust="spacing" textLength="41" x="562" y="362.0669">create</text><!--MD5=[9aa6c68b08c26097ca0552c8af1195f7]
@startuml
hide circle
class User<actor> {
	account
	schedule
	weight
	location
}
class Admin<actor> {
}
class FarmManager<actor> {
}
class Tommorow {
	weather
}
class Tone {
}
class Data {
}
class Admin {
	upload()
	define()
	access()
	delete()
	add()
	create()
	see()
}
class FarmManager {
	search()
}
class User {
	feel()
	watch()
	wear()
	opt()
	disable()
	toggle()
	identify()
	change()
	access()
	user()
	know()
	share()
	create()
	modify()
	view()
	receive()
	do()
}
class Checklist {
}
class EmergencyContactList {
}
class Role {
}
class Feature {
}
class Notification {
}
class Video {
}
class Location {
}
class Weight {
}
class Temperature {
}
class Information {
}
class Contents {
}
class Account {
}
class Quiz {
}
class Content {
}
class App {
	get()
}
class HealthData {
}
class Display {
}
class VibrationLevel {
}
class Material {
}
class Order {
}
Admin - -> Role : define
User - -> Feature : user
User - -> Checklist : create
App - -> Information : get
User - -> EmergencyContactList : create
User - -> Notification : receive
User - -> Video : watch
User - -> Data : view
Admin - -> Video : upload
Admin - -> HealthData : access
User o- - Location : share
User - -> Display : toggle
User - -> Quiz : do
User o- - Weight : create
User - -> Tone : change
Admin - -> Temperature : access
User - -> VibrationLevel : change
User - -> Information : receive
User - -> Material : access
Temperature o- - Data
Admin - -> Contents : delete
User - -> Order : feel
Admin - -> Content : create
User o- - Account : disable
Notification o- - Tone
Admin - -> Quiz : create
@enduml

PlantUML version 1.2021.10beta2(Unknown compile time)
(GPL source distribution)
Java Runtime: Java(TM) SE Runtime Environment
JVM: Java HotSpot(TM) 64-Bit Server VM
Default Encoding: UTF-8
Language: en
Country: US
--></g></svg>