<?xml version="1.0" encoding="UTF-8" standalone="no"?><svg xmlns="http://www.w3.org/2000/svg" xmlns:xlink="http://www.w3.org/1999/xlink" contentScriptType="application/ecmascript" contentStyleType="text/css" height="502px" preserveAspectRatio="none" style="width:1134px;height:502px;background:#FFFFFF;" version="1.1" viewBox="0 0 1134 502" width="1134px" zoomAndPan="magnify"><defs><filter height="300%" id="f5y6utn0iyf1y" width="300%" x="-1" y="-1"><feGaussianBlur result="blurOut" stdDeviation="2.0"/><feColorMatrix in="blurOut" result="blurOut2" type="matrix" values="0 0 0 0 0 0 0 0 0 0 0 0 0 0 0 0 0 0 .4 0"/><feOffset dx="4.0" dy="4.0" in="blurOut2" result="blurOut3"/><feBlend in="SourceGraphic" in2="blurOut3" mode="normal"/></filter></defs><g><!--MD5=[3fd616f346a44cd59a91eb10b19e157c]
class User--><rect codeLine="6" fill="#FEFECE" filter="url(#f5y6utn0iyf1y)" height="232.0391" id="User" style="stroke:#A80036;stroke-width:1.5;" width="72" x="590.7303" y="10"/><text fill="#000000" font-family="sans-serif" font-size="12" lengthAdjust="spacing" textLength="29" x="594.7303" y="26.1387">User</text><rect fill="#FFFFFF" height="15.9688" style="stroke:#000000;stroke-width:1.0;stroke-dasharray:2.0,2.0;" width="33" x="632.7303" y="7"/><text fill="#000000" font-family="sans-serif" font-size="12" font-style="italic" lengthAdjust="spacing" textLength="31" x="633.7303" y="19.1387">actor</text><line style="stroke:#A80036;stroke-width:1.5;" x1="591.7303" x2="661.7303" y1="33.9688" y2="33.9688"/><line style="stroke:#A80036;stroke-width:1.5;" x1="591.7303" x2="661.7303" y1="41.9688" y2="41.9688"/><text fill="#000000" font-family="sans-serif" font-size="11" lengthAdjust="spacing" textLength="32" x="596.7303" y="56.1792">play()</text><text fill="#000000" font-family="sans-serif" font-size="11" lengthAdjust="spacing" textLength="30" x="596.7303" y="68.9839">pick()</text><text fill="#000000" font-family="sans-serif" font-size="11" lengthAdjust="spacing" textLength="32" x="596.7303" y="81.7886">click()</text><text fill="#000000" font-family="sans-serif" font-size="11" lengthAdjust="spacing" textLength="29" x="596.7303" y="94.5933">fast()</text><text fill="#000000" font-family="sans-serif" font-size="11" lengthAdjust="spacing" textLength="40" x="596.7303" y="107.3979">share()</text><text fill="#000000" font-family="sans-serif" font-size="11" lengthAdjust="spacing" textLength="47" x="596.7303" y="120.2026">assess()</text><text fill="#000000" font-family="sans-serif" font-size="11" lengthAdjust="spacing" textLength="26" x="596.7303" y="133.0073">run()</text><text fill="#000000" font-family="sans-serif" font-size="11" lengthAdjust="spacing" textLength="47" x="596.7303" y="145.812">access()</text><text fill="#000000" font-family="sans-serif" font-size="11" lengthAdjust="spacing" textLength="37" x="596.7303" y="158.6167">have()</text><text fill="#000000" font-family="sans-serif" font-size="11" lengthAdjust="spacing" textLength="35" x="596.7303" y="171.4214">view()</text><text fill="#000000" font-family="sans-serif" font-size="11" lengthAdjust="spacing" textLength="60" x="596.7303" y="184.2261">consume()</text><text fill="#000000" font-family="sans-serif" font-size="11" lengthAdjust="spacing" textLength="43" x="596.7303" y="197.0308">pause()</text><text fill="#000000" font-family="sans-serif" font-size="11" lengthAdjust="spacing" textLength="30" x="596.7303" y="209.8354">see()</text><text fill="#000000" font-family="sans-serif" font-size="11" lengthAdjust="spacing" textLength="42" x="596.7303" y="222.6401">return()</text><text fill="#000000" font-family="sans-serif" font-size="11" lengthAdjust="spacing" textLength="22" x="596.7303" y="235.4448">go()</text><!--MD5=[dba2f6bf05a831d2e711bf6380686799]
class Inline--><rect codeLine="4" fill="#FEFECE" filter="url(#f5y6utn0iyf1y)" height="39.9688" id="Inline" style="stroke:#A80036;stroke-width:1.5;" width="37" x="449.2303" y="449"/><text fill="#000000" font-family="sans-serif" font-size="12" lengthAdjust="spacing" textLength="31" x="452.2303" y="465.1387">Inline</text><line style="stroke:#A80036;stroke-width:1.5;" x1="450.2303" x2="485.2303" y1="472.9688" y2="472.9688"/><line style="stroke:#A80036;stroke-width:1.5;" x1="450.2303" x2="485.2303" y1="480.9688" y2="480.9688"/><!--MD5=[3d4177ac58b4411586d067f34e84928f]
class List--><rect codeLine="23" fill="#FEFECE" filter="url(#f5y6utn0iyf1y)" height="39.9688" id="List" style="stroke:#A80036;stroke-width:1.5;" width="26" x="171.7307" y="325.5"/><text fill="#000000" font-family="sans-serif" font-size="12" lengthAdjust="spacing" textLength="20" x="174.7307" y="341.6387">List</text><line style="stroke:#A80036;stroke-width:1.5;" x1="172.7307" x2="196.7307" y1="349.4688" y2="349.4688"/><line style="stroke:#A80036;stroke-width:1.5;" x1="172.7307" x2="196.7307" y1="357.4688" y2="357.4688"/><!--MD5=[90d32ccc189f11441a6ce7cbb63ad387]
class Material--><rect codeLine="25" fill="#FEFECE" filter="url(#f5y6utn0iyf1y)" height="39.9688" id="Material" style="stroke:#A80036;stroke-width:1.5;" width="53" x="233.2303" y="325.5"/><text fill="#000000" font-family="sans-serif" font-size="12" lengthAdjust="spacing" textLength="47" x="236.2303" y="341.6387">Material</text><line style="stroke:#A80036;stroke-width:1.5;" x1="234.2303" x2="285.2303" y1="349.4688" y2="349.4688"/><line style="stroke:#A80036;stroke-width:1.5;" x1="234.2303" x2="285.2303" y1="357.4688" y2="357.4688"/><!--MD5=[4e8cc7bbb60dc5d148cf8b942067baf3]
class Audio--><rect codeLine="27" fill="#FEFECE" filter="url(#f5y6utn0iyf1y)" height="39.9688" id="Audio" style="stroke:#A80036;stroke-width:1.5;" width="40" x="339.7303" y="325.5"/><text fill="#000000" font-family="sans-serif" font-size="12" lengthAdjust="spacing" textLength="34" x="342.7303" y="341.6387">Audio</text><line style="stroke:#A80036;stroke-width:1.5;" x1="340.7303" x2="378.7303" y1="349.4688" y2="349.4688"/><line style="stroke:#A80036;stroke-width:1.5;" x1="340.7303" x2="378.7303" y1="357.4688" y2="357.4688"/><!--MD5=[abcce420e1f59bdadbddcfae9041ca61]
class TextContent--><rect codeLine="29" fill="#FEFECE" filter="url(#f5y6utn0iyf1y)" height="39.9688" id="TextContent" style="stroke:#A80036;stroke-width:1.5;" width="78" x="432.7303" y="325.5"/><text fill="#000000" font-family="sans-serif" font-size="12" lengthAdjust="spacing" textLength="72" x="435.7303" y="341.6387">TextContent</text><line style="stroke:#A80036;stroke-width:1.5;" x1="433.7303" x2="509.7303" y1="349.4688" y2="349.4688"/><line style="stroke:#A80036;stroke-width:1.5;" x1="433.7303" x2="509.7303" y1="357.4688" y2="357.4688"/><!--MD5=[335f4d9be48430461c68bf6d6fdba145]
class App--><rect codeLine="31" fill="#FEFECE" filter="url(#f5y6utn0iyf1y)" height="52.7734" id="App" style="stroke:#A80036;stroke-width:1.5;" width="38" x="558.7303" y="319"/><text fill="#000000" font-family="sans-serif" font-size="12" lengthAdjust="spacing" textLength="24" x="565.7303" y="335.1387">App</text><line style="stroke:#A80036;stroke-width:1.5;" x1="559.7303" x2="595.7303" y1="342.9688" y2="342.9688"/><line style="stroke:#A80036;stroke-width:1.5;" x1="559.7303" x2="595.7303" y1="350.9688" y2="350.9688"/><text fill="#000000" font-family="sans-serif" font-size="11" lengthAdjust="spacing" textLength="26" x="564.7303" y="365.1792">run()</text><!--MD5=[0d3c241707d14c1973f29088d8637089]
class YoutubeVideo--><rect codeLine="34" fill="#FEFECE" filter="url(#f5y6utn0iyf1y)" height="39.9688" id="YoutubeVideo" style="stroke:#A80036;stroke-width:1.5;" width="90" x="644.7303" y="325.5"/><text fill="#000000" font-family="sans-serif" font-size="12" lengthAdjust="spacing" textLength="84" x="647.7303" y="341.6387">YoutubeVideo</text><line style="stroke:#A80036;stroke-width:1.5;" x1="645.7303" x2="733.7303" y1="349.4688" y2="349.4688"/><line style="stroke:#A80036;stroke-width:1.5;" x1="645.7303" x2="733.7303" y1="357.4688" y2="357.4688"/><!--MD5=[74dd7696bc3d7daafda827804fd2eb18]
class GirlBill--><rect codeLine="36" fill="#FEFECE" filter="url(#f5y6utn0iyf1y)" height="39.9688" id="GirlBill" style="stroke:#A80036;stroke-width:1.5;" width="43" x="771.2303" y="325.5"/><text fill="#000000" font-family="sans-serif" font-size="12" lengthAdjust="spacing" textLength="37" x="774.2303" y="341.6387">GirlBill</text><line style="stroke:#A80036;stroke-width:1.5;" x1="772.2303" x2="813.2303" y1="349.4688" y2="349.4688"/><line style="stroke:#A80036;stroke-width:1.5;" x1="772.2303" x2="813.2303" y1="357.4688" y2="357.4688"/><!--MD5=[166247bf81aba95c770c3b8fd8e3cb19]
class Video--><rect codeLine="38" fill="#FEFECE" filter="url(#f5y6utn0iyf1y)" height="39.9688" id="Video" style="stroke:#A80036;stroke-width:1.5;" width="41" x="851.2303" y="325.5"/><text fill="#000000" font-family="sans-serif" font-size="12" lengthAdjust="spacing" textLength="35" x="854.2303" y="341.6387">Video</text><line style="stroke:#A80036;stroke-width:1.5;" x1="852.2303" x2="891.2303" y1="349.4688" y2="349.4688"/><line style="stroke:#A80036;stroke-width:1.5;" x1="852.2303" x2="891.2303" y1="357.4688" y2="357.4688"/><!--MD5=[f9fadfa5a66b7e5a67b370cd443ffe52]
class Answer--><rect codeLine="40" fill="#FEFECE" filter="url(#f5y6utn0iyf1y)" height="39.9688" id="Answer" style="stroke:#A80036;stroke-width:1.5;" width="51" x="930.2303" y="325.5"/><text fill="#000000" font-family="sans-serif" font-size="12" lengthAdjust="spacing" textLength="45" x="933.2303" y="341.6387">Answer</text><line style="stroke:#A80036;stroke-width:1.5;" x1="931.2303" x2="980.2303" y1="349.4688" y2="349.4688"/><line style="stroke:#A80036;stroke-width:1.5;" x1="931.2303" x2="980.2303" y1="357.4688" y2="357.4688"/><!--MD5=[6a494c20d032ff54e1efa92c1369bc7b]
class Page--><rect codeLine="42" fill="#FEFECE" filter="url(#f5y6utn0iyf1y)" height="39.9688" id="Page" style="stroke:#A80036;stroke-width:1.5;" width="35" x="1016.2303" y="325.5"/><text fill="#000000" font-family="sans-serif" font-size="12" lengthAdjust="spacing" textLength="29" x="1019.2303" y="341.6387">Page</text><line style="stroke:#A80036;stroke-width:1.5;" x1="1017.2303" x2="1050.2303" y1="349.4688" y2="349.4688"/><line style="stroke:#A80036;stroke-width:1.5;" x1="1017.2303" x2="1050.2303" y1="357.4688" y2="357.4688"/><!--MD5=[1f3313e11f52906bc19153de0f738949]
class Hint--><rect codeLine="44" fill="#FEFECE" filter="url(#f5y6utn0iyf1y)" height="39.9688" id="Hint" style="stroke:#A80036;stroke-width:1.5;" width="29" x="1091.2263" y="325.5"/><text fill="#000000" font-family="sans-serif" font-size="12" lengthAdjust="spacing" textLength="23" x="1094.2263" y="341.6387">Hint</text><line style="stroke:#A80036;stroke-width:1.5;" x1="1092.2263" x2="1119.2263" y1="349.4688" y2="349.4688"/><line style="stroke:#A80036;stroke-width:1.5;" x1="1092.2263" x2="1119.2263" y1="357.4688" y2="357.4688"/><!--MD5=[070ecda42bce6f05277955ee83848409]
class QuizQuestion--><rect codeLine="46" fill="#FEFECE" filter="url(#f5y6utn0iyf1y)" height="39.9688" id="QuizQuestion" style="stroke:#A80036;stroke-width:1.5;" width="87" x="912.2303" y="449"/><text fill="#000000" font-family="sans-serif" font-size="12" lengthAdjust="spacing" textLength="81" x="915.2303" y="465.1387">QuizQuestion</text><line style="stroke:#A80036;stroke-width:1.5;" x1="913.2303" x2="998.2303" y1="472.9688" y2="472.9688"/><line style="stroke:#A80036;stroke-width:1.5;" x1="913.2303" x2="998.2303" y1="480.9688" y2="480.9688"/><!--MD5=[0214f9738810ef8e203a2a515b7b8642]
link User to App--><path codeLine="48" d="M590.6503,184.279 C576.4703,210.05 561.8883,241.49 554.7303,272 C551.4263,286.083 555.1623,301.389 560.5173,314.293 " fill="none" id="User-to-App" style="stroke:#A80036;stroke-width:1.0;"/><polygon fill="#A80036" points="562.5533,318.931,562.6007,309.0823,560.5446,314.3522,555.2747,312.2961,562.5533,318.931" style="stroke:#A80036;stroke-width:1.0;"/><text fill="#000000" font-family="sans-serif" font-size="13" lengthAdjust="spacing" textLength="27" x="555.7303" y="285.0669">click</text><!--MD5=[0214f9738810ef8e203a2a515b7b8642]
link User to App--><path codeLine="51" d="M600.7963,242.119 C594.8363,268.571 588.9913,294.518 584.6753,313.673 " fill="none" id="User-to-App-1" style="stroke:#A80036;stroke-width:1.0;"/><polygon fill="#A80036" points="583.5003,318.89,589.3802,310.989,584.599,314.0122,581.5758,309.231,583.5003,318.89" style="stroke:#A80036;stroke-width:1.0;"/><text fill="#000000" font-family="sans-serif" font-size="13" lengthAdjust="spacing" textLength="21" x="594.7303" y="285.0669">run</text><!--MD5=[d18a4d054d286cfcd5e9dc39bb2838cd]
link User to Video--><path codeLine="49" d="M663.0883,145.964 C707.2643,170.405 782.0373,216.435 831.7303,272 C844.5593,286.344 854.9093,305.512 861.8643,320.535 " fill="none" id="User-to-Video" style="stroke:#A80036;stroke-width:1.0;"/><polygon fill="#A80036" points="864.0923,325.458,864.0289,315.6093,862.0322,320.9021,856.7395,318.9055,864.0923,325.458" style="stroke:#A80036;stroke-width:1.0;"/><text fill="#000000" font-family="sans-serif" font-size="13" lengthAdjust="spacing" textLength="25" x="845.7303" y="285.0669">fast</text><!--MD5=[e64ddcac8d3f91e961556df822a93408]
link User to Inline--><path codeLine="50" d="M590.6423,126.795 C490.3153,128.439 207.9033,148.617 92.7307,319 C6,447.3076 348.7123,465.1272 443.8483,467.6013 " fill="none" id="User-to-Inline" style="stroke:#A80036;stroke-width:1.0;"/><polygon fill="#A80036" points="448.9733,467.7258,440.0743,463.5059,443.9748,467.6029,439.8777,471.5035,448.9733,467.7258" style="stroke:#A80036;stroke-width:1.0;"/><text fill="#000000" font-family="sans-serif" font-size="13" lengthAdjust="spacing" textLength="59" x="93.7307" y="350.0669">consume</text><!--MD5=[114a8f93752252f8bc59a69343581589]
link User to GirlBill--><path codeLine="52" d="M662.7503,174.194 C697.3863,219.576 748.2983,286.283 774.9593,321.216 " fill="none" id="User-to-GirlBill" style="stroke:#A80036;stroke-width:1.0;"/><polygon fill="#A80036" points="778.0883,325.315,775.8061,315.7342,775.0541,321.3409,769.4475,320.5889,778.0883,325.315" style="stroke:#A80036;stroke-width:1.0;"/><text fill="#000000" font-family="sans-serif" font-size="13" lengthAdjust="spacing" textLength="27" x="749.7303" y="285.0669">click</text><!--MD5=[114a8f93752252f8bc59a69343581589]
link User to GirlBill--><path codeLine="61" d="M662.9553,148.49 C700.7753,173.108 758.3203,217.205 785.7303,272 C793.1373,286.806 794.7993,305.43 794.6553,320.095 " fill="none" id="User-to-GirlBill-1" style="stroke:#A80036;stroke-width:1.0;"/><polygon fill="#A80036" points="794.5273,325.304,798.7472,316.405,794.6502,320.3055,790.7496,316.2084,794.5273,325.304" style="stroke:#A80036;stroke-width:1.0;"/><text fill="#000000" font-family="sans-serif" font-size="13" lengthAdjust="spacing" textLength="30" x="792.7303" y="285.0669">view</text><!--MD5=[1d45fc73ae1cfdb8a3164d474df586e1]
link User to Audio--><path codeLine="53" d="M590.5963,132.443 C525.5363,144.408 390.1303,179.689 332.7303,272 C323.2823,287.195 330.9793,306.209 340.5353,320.952 " fill="none" id="User-to-Audio" style="stroke:#A80036;stroke-width:1.0;"/><polygon fill="#A80036" points="343.5443,325.381,341.7972,315.6883,340.7353,321.2446,335.179,320.1828,343.5443,325.381" style="stroke:#A80036;stroke-width:1.0;"/><text fill="#000000" font-family="sans-serif" font-size="13" lengthAdjust="spacing" textLength="27" x="333.7303" y="285.0669">play</text><!--MD5=[1d45fc73ae1cfdb8a3164d474df586e1]
link User to Audio--><path codeLine="63" d="M590.7223,156.333 C535.4533,201.356 431.1653,286.309 383.9933,324.736 " fill="none" id="User-to-Audio-1" style="stroke:#A80036;stroke-width:1.0;"/><polygon fill="#A80036" points="379.8813,328.085,389.3849,325.5,383.7572,324.9263,384.3309,319.2986,379.8813,328.085" style="stroke:#A80036;stroke-width:1.0;"/><text fill="#000000" font-family="sans-serif" font-size="13" lengthAdjust="spacing" textLength="25" x="447.7303" y="285.0669">fast</text><!--MD5=[3068b3f11807461732f325506ddc6ba5]
link User to YoutubeVideo--><path codeLine="54" d="M660.0753,242.119 C668.6543,271.737 677.0503,300.724 682.7063,320.25 " fill="none" id="User-to-YoutubeVideo" style="stroke:#A80036;stroke-width:1.0;"/><polygon fill="#A80036" points="684.2273,325.499,685.5641,315.7413,682.8356,320.6966,677.8803,317.968,684.2273,325.499" style="stroke:#A80036;stroke-width:1.0;"/><text fill="#000000" font-family="sans-serif" font-size="13" lengthAdjust="spacing" textLength="27" x="674.7303" y="285.0669">play</text><!--MD5=[303c9b9d3701436fb42aa14a6cb527a8]
link User to Hint--><path codeLine="55" d="M662.8723,137.773 C731.2373,158.837 883.2563,208.978 1001.7303,272 C1033.2963,288.791 1066.6783,313.465 1086.8563,329.257 " fill="none" id="User-to-Hint" style="stroke:#A80036;stroke-width:1.0;"/><polygon fill="#A80036" points="1090.9663,332.486,1086.3789,323.7708,1087.0412,329.3887,1081.4232,330.051,1090.9663,332.486" style="stroke:#A80036;stroke-width:1.0;"/><text fill="#000000" font-family="sans-serif" font-size="13" lengthAdjust="spacing" textLength="23" x="1029.7303" y="285.0669">see</text><!--MD5=[c8c314011fafa3762ec5b219138322f9]
link User to Answer--><path codeLine="56" d="M662.7663,144.17 C713.4063,169.055 807.5113,218.103 879.7303,272 C899.6693,286.88 919.9433,306.493 934.5303,321.567 " fill="none" id="User-to-Answer" style="stroke:#A80036;stroke-width:1.0;"/><polygon fill="#A80036" points="938.1133,325.295,934.7605,316.0344,934.6485,321.6901,928.9927,321.5781,938.1133,325.295" style="stroke:#A80036;stroke-width:1.0;"/><text fill="#000000" font-family="sans-serif" font-size="13" lengthAdjust="spacing" textLength="25" x="901.7303" y="285.0669">pick</text><!--MD5=[a575d74337a11a313f60f24f067f60bf]
link User to List--><path codeLine="57" d="M590.5713,132.668 C516.6803,145.776 345.9023,184.048 233.7303,272 C217.2623,284.912 204.3293,304.92 195.8953,320.649 " fill="none" id="User-to-List" style="stroke:#A80036;stroke-width:1.0;"/><polygon fill="#A80036" points="193.4233,325.38,201.1367,319.256,195.739,320.9486,194.0464,315.5509,193.4233,325.38" style="stroke:#A80036;stroke-width:1.0;"/><text fill="#000000" font-family="sans-serif" font-size="13" lengthAdjust="spacing" textLength="23" x="234.7303" y="285.0669">see</text><!--MD5=[226bb0da6ac2944676f83a317cf34e45]
reverse link Video to Inline--><path codeLine="58" d="M839.3553,368.285 C836.8233,369.633 834.2653,370.89 831.7303,372 C706.0073,427.0474 541.6093,456.3823 486.5873,465.1471 " fill="none" id="Video-backto-Inline" style="stroke:#A80036;stroke-width:1.0;"/><polygon fill="#FFFFFF" points="850.8233,361.542,843.6237,361.1352,840.4791,367.6246,847.6787,368.0313,850.8233,361.542" style="stroke:#A80036;stroke-width:1.0;"/><!--MD5=[e04705d2d18537eb0dffa3fbe04c5f41]
link User to TextContent--><path codeLine="59" d="M590.5423,161.152 C562.7673,188.91 525.0153,230.194 499.7303,272 C490.5083,287.248 483.3493,306.059 478.5793,320.699 " fill="none" id="User-to-TextContent" style="stroke:#A80036;stroke-width:1.0;"/><polygon fill="#A80036" points="477.0543,325.493,483.5959,318.1305,478.571,320.7286,475.9729,315.7037,477.0543,325.493" style="stroke:#A80036;stroke-width:1.0;"/><text fill="#000000" font-family="sans-serif" font-size="13" lengthAdjust="spacing" textLength="44" x="500.7303" y="285.0669">access</text><!--MD5=[4429bdb04493a1f6c7314da01c432524]
link Answer to QuizQuestion--><path codeLine="60" d="M955.7303,365.752 C955.7303,386.903 955.7303,420.9094 955.7303,443.8366 " fill="none" id="Answer-to-QuizQuestion" style="stroke:#A80036;stroke-width:1.0;"/><polygon fill="#A80036" points="955.7303,448.838,959.7303,439.838,955.7303,443.838,951.7303,439.838,955.7303,448.838" style="stroke:#A80036;stroke-width:1.0;"/><text fill="#000000" font-family="sans-serif" font-size="13" lengthAdjust="spacing" textLength="13" x="956.7303" y="415.0669">to</text><!--MD5=[970cac591fccbf7a9f15ccd0a38b4219]
link User to Page--><path codeLine="62" d="M663.1253,141.314 C722.1373,165.124 841.5803,215.839 935.7303,272 C963.2743,288.43 992.5483,310.813 1011.8533,326.344 " fill="none" id="User-to-Page" style="stroke:#A80036;stroke-width:1.0;"/><polygon fill="#A80036" points="1016.0573,329.744,1011.5755,320.9739,1012.1699,326.5995,1006.5443,327.1938,1016.0573,329.744" style="stroke:#A80036;stroke-width:1.0;"/><text fill="#000000" font-family="sans-serif" font-size="13" lengthAdjust="spacing" textLength="30" x="962.7303" y="285.0669">view</text><!--MD5=[4cdcf10824a5a72470989197280b3f5e]
link User to Material--><path codeLine="64" d="M590.5833,130.835 C518.5723,140.496 357.0753,172.641 274.7303,272 C263.6043,285.426 260.0573,304.983 259.1823,320.402 " fill="none" id="User-to-Material" style="stroke:#A80036;stroke-width:1.0;"/><polygon fill="#A80036" points="258.9803,325.457,263.3371,316.6242,259.1803,320.461,255.3435,316.3042,258.9803,325.457" style="stroke:#A80036;stroke-width:1.0;"/><text fill="#000000" font-family="sans-serif" font-size="13" lengthAdjust="spacing" textLength="44" x="275.7303" y="285.0669">access</text><!--MD5=[6a16ba21a61c5411813acd8548c75298]
@startuml
hide circle
class User<actor> {
}
class Inline {
}
class User {
	play()
	pick()
	click()
	fast()
	share()
	assess()
	run()
	access()
	have()
	view()
	consume()
	pause()
	see()
	return()
	go()
}
class List {
}
class Material {
}
class Audio {
}
class TextContent {
}
class App {
	run()
}
class YoutubeVideo {
}
class GirlBill {
}
class Video {
}
class Answer {
}
class Page {
}
class Hint {
}
class QuizQuestion {
}
User - -> App : click
User - -> Video : fast
User - -> Inline : consume
User - -> App : run
User - -> GirlBill : click
User - -> Audio : play
User - -> YoutubeVideo : play
User - -> Hint : see
User - -> Answer : pick
User - -> List : see
Video o- - Inline
User - -> TextContent : access
Answer - -> QuizQuestion : to
User - -> GirlBill : view
User - -> Page : view
User - -> Audio : fast
User - -> Material : access
@enduml

PlantUML version 1.2021.10beta5(Unknown compile time)
(GPL source distribution)
Java Runtime: Java(TM) SE Runtime Environment
JVM: Java HotSpot(TM) 64-Bit Server VM
Default Encoding: UTF-8
Language: en
Country: US
--></g></svg>