<?xml version="1.0" encoding="UTF-8" standalone="no"?><svg xmlns="http://www.w3.org/2000/svg" xmlns:xlink="http://www.w3.org/1999/xlink" contentScriptType="application/ecmascript" contentStyleType="text/css" height="218px" preserveAspectRatio="none" style="width:1670px;height:218px;background:#FFFFFF;" version="1.1" viewBox="0 0 1670 218" width="1670px" zoomAndPan="magnify"><defs><filter height="300%" id="f1h9dztx5xmmrk" width="300%" x="-1" y="-1"><feGaussianBlur result="blurOut" stdDeviation="2.0"/><feColorMatrix in="blurOut" result="blurOut2" type="matrix" values="0 0 0 0 0 0 0 0 0 0 0 0 0 0 0 0 0 0 .4 0"/><feOffset dx="4.0" dy="4.0" in="blurOut2" result="blurOut3"/><feBlend in="SourceGraphic" in2="blurOut3" mode="normal"/></filter></defs><g><!--MD5=[3fd616f346a44cd59a91eb10b19e157c]
class User--><rect codeLine="22" fill="#FEFECE" filter="url(#f1h9dztx5xmmrk)" height="78.3828" id="User" style="stroke:#A80036;stroke-width:1.5;" width="72" x="485.5" y="10"/><text fill="#000000" font-family="sans-serif" font-size="12" lengthAdjust="spacing" textLength="29" x="489.5" y="26.1387">User</text><rect fill="#FFFFFF" height="15.9688" style="stroke:#000000;stroke-width:1.0;stroke-dasharray:2.0,2.0;" width="33" x="527.5" y="7"/><text fill="#000000" font-family="sans-serif" font-size="12" font-style="italic" lengthAdjust="spacing" textLength="31" x="528.5" y="19.1387">actor</text><line style="stroke:#A80036;stroke-width:1.5;" x1="486.5" x2="556.5" y1="33.9688" y2="33.9688"/><line style="stroke:#A80036;stroke-width:1.5;" x1="486.5" x2="556.5" y1="41.9688" y2="41.9688"/><text fill="#000000" font-family="sans-serif" font-size="11" lengthAdjust="spacing" textLength="60" x="491.5" y="56.1792">purchase()</text><text fill="#000000" font-family="sans-serif" font-size="11" lengthAdjust="spacing" textLength="52" x="491.5" y="68.9839">receive()</text><text fill="#000000" font-family="sans-serif" font-size="11" lengthAdjust="spacing" textLength="35" x="491.5" y="81.7886">view()</text><!--MD5=[cf9bc73d4b319b8f5d50999aecc13d13]
class Parent--><rect codeLine="4" fill="#FEFECE" filter="url(#f1h9dztx5xmmrk)" height="39.9688" id="Parent" style="stroke:#A80036;stroke-width:1.5;" width="78" x="649.5" y="29"/><text fill="#000000" font-family="sans-serif" font-size="12" lengthAdjust="spacing" textLength="37" x="652.5" y="45.1387">Parent</text><rect fill="#FFFFFF" height="15.9688" style="stroke:#000000;stroke-width:1.0;stroke-dasharray:2.0,2.0;" width="33" x="697.5" y="26"/><text fill="#000000" font-family="sans-serif" font-size="12" font-style="italic" lengthAdjust="spacing" textLength="31" x="698.5" y="38.1387">actor</text><line style="stroke:#A80036;stroke-width:1.5;" x1="650.5" x2="726.5" y1="52.9688" y2="52.9688"/><line style="stroke:#A80036;stroke-width:1.5;" x1="650.5" x2="726.5" y1="60.9688" y2="60.9688"/><!--MD5=[ed6624c6556d5e7b1bd23032162d20b7]
class Client--><rect codeLine="55" fill="#FEFECE" filter="url(#f1h9dztx5xmmrk)" height="65.5781" id="Client" style="stroke:#A80036;stroke-width:1.5;" width="74" x="819.5" y="16"/><text fill="#000000" font-family="sans-serif" font-size="12" lengthAdjust="spacing" textLength="33" x="822.5" y="32.1387">Client</text><rect fill="#FFFFFF" height="15.9688" style="stroke:#000000;stroke-width:1.0;stroke-dasharray:2.0,2.0;" width="33" x="863.5" y="13"/><text fill="#000000" font-family="sans-serif" font-size="12" font-style="italic" lengthAdjust="spacing" textLength="31" x="864.5" y="25.1387">actor</text><line style="stroke:#A80036;stroke-width:1.5;" x1="820.5" x2="892.5" y1="39.9688" y2="39.9688"/><line style="stroke:#A80036;stroke-width:1.5;" x1="820.5" x2="892.5" y1="47.9688" y2="47.9688"/><text fill="#000000" font-family="sans-serif" font-size="11" lengthAdjust="spacing" textLength="41" x="825.5" y="62.1792">check()</text><text fill="#000000" font-family="sans-serif" font-size="11" lengthAdjust="spacing" textLength="29" x="825.5" y="74.9839">add()</text><!--MD5=[db6d18d8099558415abc41d00477ab92]
class Admin--><rect codeLine="16" fill="#FEFECE" filter="url(#f1h9dztx5xmmrk)" height="65.5781" id="Admin" style="stroke:#A80036;stroke-width:1.5;" width="78" x="155.5" y="16"/><text fill="#000000" font-family="sans-serif" font-size="12" lengthAdjust="spacing" textLength="37" x="158.5" y="32.1387">Admin</text><rect fill="#FFFFFF" height="15.9688" style="stroke:#000000;stroke-width:1.0;stroke-dasharray:2.0,2.0;" width="33" x="203.5" y="13"/><text fill="#000000" font-family="sans-serif" font-size="12" font-style="italic" lengthAdjust="spacing" textLength="31" x="204.5" y="25.1387">actor</text><line style="stroke:#A80036;stroke-width:1.5;" x1="156.5" x2="232.5" y1="39.9688" y2="39.9688"/><line style="stroke:#A80036;stroke-width:1.5;" x1="156.5" x2="232.5" y1="47.9688" y2="47.9688"/><text fill="#000000" font-family="sans-serif" font-size="11" lengthAdjust="spacing" textLength="48" x="161.5" y="62.1792">update()</text><text fill="#000000" font-family="sans-serif" font-size="11" lengthAdjust="spacing" textLength="41" x="161.5" y="74.9839">check()</text><!--MD5=[f58fd777f29c17413488bea9e7cfcca3]
class Member--><rect codeLine="10" fill="#FEFECE" filter="url(#f1h9dztx5xmmrk)" height="39.9688" id="Member" style="stroke:#A80036;stroke-width:1.5;" width="91" x="942" y="29"/><text fill="#000000" font-family="sans-serif" font-size="12" lengthAdjust="spacing" textLength="50" x="945" y="45.1387">Member</text><rect fill="#FFFFFF" height="15.9688" style="stroke:#000000;stroke-width:1.0;stroke-dasharray:2.0,2.0;" width="33" x="1003" y="26"/><text fill="#000000" font-family="sans-serif" font-size="12" font-style="italic" lengthAdjust="spacing" textLength="31" x="1004" y="38.1387">actor</text><line style="stroke:#A80036;stroke-width:1.5;" x1="943" x2="1032" y1="52.9688" y2="52.9688"/><line style="stroke:#A80036;stroke-width:1.5;" x1="943" x2="1032" y1="60.9688" y2="60.9688"/><!--MD5=[d6181cb537bdc20c0a3007a98a56832d]
class Student--><rect codeLine="33" fill="#FEFECE" filter="url(#f1h9dztx5xmmrk)" height="52.7734" id="Student" style="stroke:#A80036;stroke-width:1.5;" width="87" x="1081" y="22.5"/><text fill="#000000" font-family="sans-serif" font-size="12" lengthAdjust="spacing" textLength="46" x="1084" y="38.6387">Student</text><rect fill="#FFFFFF" height="15.9688" style="stroke:#000000;stroke-width:1.0;stroke-dasharray:2.0,2.0;" width="33" x="1138" y="19.5"/><text fill="#000000" font-family="sans-serif" font-size="12" font-style="italic" lengthAdjust="spacing" textLength="31" x="1139" y="31.6387">actor</text><line style="stroke:#A80036;stroke-width:1.5;" x1="1082" x2="1167" y1="46.4688" y2="46.4688"/><line style="stroke:#A80036;stroke-width:1.5;" x1="1082" x2="1167" y1="54.4688" y2="54.4688"/><text fill="#000000" font-family="sans-serif" font-size="11" lengthAdjust="spacing" textLength="62" x="1087" y="68.6792">download()</text><!--MD5=[08385c368f5d303c28b24e93c0141e57]
class Donor--><rect codeLine="38" fill="#FEFECE" filter="url(#f1h9dztx5xmmrk)" height="65.5781" id="Donor" style="stroke:#A80036;stroke-width:1.5;" width="78" x="1296.5" y="16"/><text fill="#000000" font-family="sans-serif" font-size="12" lengthAdjust="spacing" textLength="37" x="1299.5" y="32.1387">Donor</text><rect fill="#FFFFFF" height="15.9688" style="stroke:#000000;stroke-width:1.0;stroke-dasharray:2.0,2.0;" width="33" x="1344.5" y="13"/><text fill="#000000" font-family="sans-serif" font-size="12" font-style="italic" lengthAdjust="spacing" textLength="31" x="1345.5" y="25.1387">actor</text><line style="stroke:#A80036;stroke-width:1.5;" x1="1297.5" x2="1373.5" y1="39.9688" y2="39.9688"/><line style="stroke:#A80036;stroke-width:1.5;" x1="1297.5" x2="1373.5" y1="47.9688" y2="47.9688"/><text fill="#000000" font-family="sans-serif" font-size="11" lengthAdjust="spacing" textLength="40" x="1302.5" y="62.1792">make()</text><text fill="#000000" font-family="sans-serif" font-size="11" lengthAdjust="spacing" textLength="50" x="1302.5" y="74.9839">support()</text><!--MD5=[30fd7b95ab383a5e7c83ea23d4ea0fbf]
class Information--><rect codeLine="20" fill="#FEFECE" filter="url(#f1h9dztx5xmmrk)" height="39.9688" id="Information" style="stroke:#A80036;stroke-width:1.5;" width="73" x="35" y="165"/><text fill="#000000" font-family="sans-serif" font-size="12" lengthAdjust="spacing" textLength="67" x="38" y="181.1387">Information</text><line style="stroke:#A80036;stroke-width:1.5;" x1="36" x2="107" y1="188.9688" y2="188.9688"/><line style="stroke:#A80036;stroke-width:1.5;" x1="36" x2="107" y1="196.9688" y2="196.9688"/><!--MD5=[e65e6d38455b41cf3bfbebe5b46c38ff]
class Trailer--><rect codeLine="27" fill="#FEFECE" filter="url(#f1h9dztx5xmmrk)" height="39.9688" id="Trailer" style="stroke:#A80036;stroke-width:1.5;" width="44" x="496.5" y="165"/><text fill="#000000" font-family="sans-serif" font-size="12" lengthAdjust="spacing" textLength="38" x="499.5" y="181.1387">Trailer</text><line style="stroke:#A80036;stroke-width:1.5;" x1="497.5" x2="539.5" y1="188.9688" y2="188.9688"/><line style="stroke:#A80036;stroke-width:1.5;" x1="497.5" x2="539.5" y1="196.9688" y2="196.9688"/><!--MD5=[028fba31e0312914fa4880b63f0540b8]
class Detail--><rect codeLine="29" fill="#FEFECE" filter="url(#f1h9dztx5xmmrk)" height="39.9688" id="Detail" style="stroke:#A80036;stroke-width:1.5;" width="40" x="295.5" y="165"/><text fill="#000000" font-family="sans-serif" font-size="12" lengthAdjust="spacing" textLength="34" x="298.5" y="181.1387">Detail</text><line style="stroke:#A80036;stroke-width:1.5;" x1="296.5" x2="334.5" y1="188.9688" y2="188.9688"/><line style="stroke:#A80036;stroke-width:1.5;" x1="296.5" x2="334.5" y1="196.9688" y2="196.9688"/><!--MD5=[93b867cf5e7a1e913dd5047074c12207]
class Mail--><rect codeLine="31" fill="#FEFECE" filter="url(#f1h9dztx5xmmrk)" height="39.9688" id="Mail" style="stroke:#A80036;stroke-width:1.5;" width="29" x="180" y="165"/><text fill="#000000" font-family="sans-serif" font-size="12" lengthAdjust="spacing" textLength="23" x="183" y="181.1387">Mail</text><line style="stroke:#A80036;stroke-width:1.5;" x1="181" x2="208" y1="188.9688" y2="188.9688"/><line style="stroke:#A80036;stroke-width:1.5;" x1="181" x2="208" y1="196.9688" y2="196.9688"/><!--MD5=[6a494c20d032ff54e1efa92c1369bc7b]
class Page--><rect codeLine="36" fill="#FEFECE" filter="url(#f1h9dztx5xmmrk)" height="39.9688" id="Page" style="stroke:#A80036;stroke-width:1.5;" width="35" x="1028" y="165"/><text fill="#000000" font-family="sans-serif" font-size="12" lengthAdjust="spacing" textLength="29" x="1031" y="181.1387">Page</text><line style="stroke:#A80036;stroke-width:1.5;" x1="1029" x2="1062" y1="188.9688" y2="188.9688"/><line style="stroke:#A80036;stroke-width:1.5;" x1="1029" x2="1062" y1="196.9688" y2="196.9688"/><!--MD5=[f9926150cf8ad13074e68df35ec75c8f]
class DonationOnline--><rect codeLine="42" fill="#FEFECE" filter="url(#f1h9dztx5xmmrk)" height="39.9688" id="DonationOnline" style="stroke:#A80036;stroke-width:1.5;" width="97" x="1219" y="165"/><text fill="#000000" font-family="sans-serif" font-size="12" lengthAdjust="spacing" textLength="91" x="1222" y="181.1387">DonationOnline</text><line style="stroke:#A80036;stroke-width:1.5;" x1="1220" x2="1315" y1="188.9688" y2="188.9688"/><line style="stroke:#A80036;stroke-width:1.5;" x1="1220" x2="1315" y1="196.9688" y2="196.9688"/><!--MD5=[7a61594029303f9a476eb599fbfc6915]
class MusicNote--><rect codeLine="44" fill="#FEFECE" filter="url(#f1h9dztx5xmmrk)" height="39.9688" id="MusicNote" style="stroke:#A80036;stroke-width:1.5;" width="68" x="1115.5" y="165"/><text fill="#000000" font-family="sans-serif" font-size="12" lengthAdjust="spacing" textLength="62" x="1118.5" y="181.1387">MusicNote</text><line style="stroke:#A80036;stroke-width:1.5;" x1="1116.5" x2="1182.5" y1="188.9688" y2="188.9688"/><line style="stroke:#A80036;stroke-width:1.5;" x1="1116.5" x2="1182.5" y1="196.9688" y2="196.9688"/><!--MD5=[c408ada0d97f8f71dbced7e302a17305]
class VYMACommunity--><rect codeLine="46" fill="#FEFECE" filter="url(#f1h9dztx5xmmrk)" height="39.9688" id="VYMACommunity" style="stroke:#A80036;stroke-width:1.5;" width="105" x="1351" y="165"/><text fill="#000000" font-family="sans-serif" font-size="12" lengthAdjust="spacing" textLength="99" x="1354" y="181.1387">VYMACommunity</text><line style="stroke:#A80036;stroke-width:1.5;" x1="1352" x2="1455" y1="188.9688" y2="188.9688"/><line style="stroke:#A80036;stroke-width:1.5;" x1="1352" x2="1455" y1="196.9688" y2="196.9688"/><!--MD5=[e2d3da46aad6ad2235ed97afaf326e98]
class Update--><rect codeLine="48" fill="#FEFECE" filter="url(#f1h9dztx5xmmrk)" height="39.9688" id="Update" style="stroke:#A80036;stroke-width:1.5;" width="50" x="575.5" y="165"/><text fill="#000000" font-family="sans-serif" font-size="12" lengthAdjust="spacing" textLength="44" x="578.5" y="181.1387">Update</text><line style="stroke:#A80036;stroke-width:1.5;" x1="576.5" x2="624.5" y1="188.9688" y2="188.9688"/><line style="stroke:#A80036;stroke-width:1.5;" x1="576.5" x2="624.5" y1="196.9688" y2="196.9688"/><!--MD5=[6b6c49f70bd5bcb14bd85ea56d545741]
class parents--><rect codeLine="50" fill="#FEFECE" filter="url(#f1h9dztx5xmmrk)" height="52.7734" id="parents" style="stroke:#A80036;stroke-width:1.5;" width="52" x="1502.5" y="22.5"/><text fill="#000000" font-family="sans-serif" font-size="12" lengthAdjust="spacing" textLength="46" x="1505.5" y="38.6387">parents</text><line style="stroke:#A80036;stroke-width:1.5;" x1="1503.5" x2="1553.5" y1="46.4688" y2="46.4688"/><line style="stroke:#A80036;stroke-width:1.5;" x1="1503.5" x2="1553.5" y1="54.4688" y2="54.4688"/><text fill="#000000" font-family="sans-serif" font-size="11" lengthAdjust="spacing" textLength="35" x="1508.5" y="68.6792">view()</text><!--MD5=[317fa42ee935da44eb3b0db0eaef8bbc]
class OtherDetail--><rect codeLine="53" fill="#FEFECE" filter="url(#f1h9dztx5xmmrk)" height="39.9688" id="OtherDetail" style="stroke:#A80036;stroke-width:1.5;" width="74" x="1491.5" y="165"/><text fill="#000000" font-family="sans-serif" font-size="12" lengthAdjust="spacing" textLength="68" x="1494.5" y="181.1387">OtherDetail</text><line style="stroke:#A80036;stroke-width:1.5;" x1="1492.5" x2="1564.5" y1="188.9688" y2="188.9688"/><line style="stroke:#A80036;stroke-width:1.5;" x1="1492.5" x2="1564.5" y1="196.9688" y2="196.9688"/><!--MD5=[d189332174d53557e6def82bbd003869]
class Link--><rect codeLine="59" fill="#FEFECE" filter="url(#f1h9dztx5xmmrk)" height="39.9688" id="Link" style="stroke:#A80036;stroke-width:1.5;" width="29" x="774" y="165"/><text fill="#000000" font-family="sans-serif" font-size="12" lengthAdjust="spacing" textLength="23" x="777" y="181.1387">Link</text><line style="stroke:#A80036;stroke-width:1.5;" x1="775" x2="802" y1="188.9688" y2="188.9688"/><line style="stroke:#A80036;stroke-width:1.5;" x1="775" x2="802" y1="196.9688" y2="196.9688"/><!--MD5=[483f2b7e0d769c0752c08834feba6229]
class Dvd--><rect codeLine="61" fill="#FEFECE" filter="url(#f1h9dztx5xmmrk)" height="39.9688" id="Dvd" style="stroke:#A80036;stroke-width:1.5;" width="30" x="672.5" y="165"/><text fill="#000000" font-family="sans-serif" font-size="12" lengthAdjust="spacing" textLength="24" x="675.5" y="181.1387">Dvd</text><line style="stroke:#A80036;stroke-width:1.5;" x1="673.5" x2="701.5" y1="188.9688" y2="188.9688"/><line style="stroke:#A80036;stroke-width:1.5;" x1="673.5" x2="701.5" y1="196.9688" y2="196.9688"/><!--MD5=[cbaac4eed5b318c44b2ea50495fa77ea]
class News--><rect codeLine="63" fill="#FEFECE" filter="url(#f1h9dztx5xmmrk)" height="39.9688" id="News" style="stroke:#A80036;stroke-width:1.5;" width="39" x="413" y="165"/><text fill="#000000" font-family="sans-serif" font-size="12" lengthAdjust="spacing" textLength="33" x="416" y="181.1387">News</text><line style="stroke:#A80036;stroke-width:1.5;" x1="414" x2="451" y1="188.9688" y2="188.9688"/><line style="stroke:#A80036;stroke-width:1.5;" x1="414" x2="451" y1="196.9688" y2="196.9688"/><!--MD5=[2c987cbfcba91e56c1bc3dde7ea5e5d7]
class parent--><rect codeLine="65" fill="#FEFECE" filter="url(#f1h9dztx5xmmrk)" height="52.7734" id="parent" style="stroke:#A80036;stroke-width:1.5;" width="45" x="1606" y="22.5"/><text fill="#000000" font-family="sans-serif" font-size="12" lengthAdjust="spacing" textLength="39" x="1609" y="38.6387">parent</text><line style="stroke:#A80036;stroke-width:1.5;" x1="1607" x2="1650" y1="46.4688" y2="46.4688"/><line style="stroke:#A80036;stroke-width:1.5;" x1="1607" x2="1650" y1="54.4688" y2="54.4688"/><text fill="#000000" font-family="sans-serif" font-size="11" lengthAdjust="spacing" textLength="26" x="1612" y="68.6792">set()</text><!--MD5=[764fca796ce7f635542948d8fc39db5e]
class Payment--><rect codeLine="68" fill="#FEFECE" filter="url(#f1h9dztx5xmmrk)" height="39.9688" id="Payment" style="stroke:#A80036;stroke-width:1.5;" width="56" x="1600.5" y="165"/><text fill="#000000" font-family="sans-serif" font-size="12" lengthAdjust="spacing" textLength="50" x="1603.5" y="181.1387">Payment</text><line style="stroke:#A80036;stroke-width:1.5;" x1="1601.5" x2="1655.5" y1="188.9688" y2="188.9688"/><line style="stroke:#A80036;stroke-width:1.5;" x1="1601.5" x2="1655.5" y1="196.9688" y2="196.9688"/><!--MD5=[78bec0fde86ad92ec1dc3fb343b83709]
class Email--><rect codeLine="70" fill="#FEFECE" filter="url(#f1h9dztx5xmmrk)" height="39.9688" id="Email" style="stroke:#A80036;stroke-width:1.5;" width="37" x="838" y="165"/><text fill="#000000" font-family="sans-serif" font-size="12" lengthAdjust="spacing" textLength="31" x="841" y="181.1387">Email</text><line style="stroke:#A80036;stroke-width:1.5;" x1="839" x2="874" y1="188.9688" y2="188.9688"/><line style="stroke:#A80036;stroke-width:1.5;" x1="839" x2="874" y1="196.9688" y2="196.9688"/><!--MD5=[79161bd9717dde76825e47f640a803e7]
class GoogleDrive--><rect codeLine="72" fill="#FEFECE" filter="url(#f1h9dztx5xmmrk)" height="39.9688" id="GoogleDrive" style="stroke:#A80036;stroke-width:1.5;" width="82" x="910.5" y="165"/><text fill="#000000" font-family="sans-serif" font-size="12" lengthAdjust="spacing" textLength="76" x="913.5" y="181.1387">GoogleDrive</text><line style="stroke:#A80036;stroke-width:1.5;" x1="911.5" x2="991.5" y1="188.9688" y2="188.9688"/><line style="stroke:#A80036;stroke-width:1.5;" x1="911.5" x2="991.5" y1="196.9688" y2="196.9688"/><!--MD5=[c1ab94e7e41838408b6a4d073da94126]
class member--><rect codeLine="74" fill="#FEFECE" filter="url(#f1h9dztx5xmmrk)" height="52.7734" id="member" style="stroke:#A80036;stroke-width:1.5;" width="57" x="7" y="22.5"/><text fill="#000000" font-family="sans-serif" font-size="12" lengthAdjust="spacing" textLength="51" x="10" y="38.6387">member</text><line style="stroke:#A80036;stroke-width:1.5;" x1="8" x2="63" y1="46.4688" y2="46.4688"/><line style="stroke:#A80036;stroke-width:1.5;" x1="8" x2="63" y1="54.4688" y2="54.4688"/><text fill="#000000" font-family="sans-serif" font-size="11" lengthAdjust="spacing" textLength="35" x="13" y="68.6792">view()</text><!--MD5=[1c246032dd732cd19fac1b2046c034a3]
link member to Information--><path codeLine="77" d="M29.8327,75.645 C27.156,92.902 25.8277,115.9024 32.5,135 C35.7678,144.3532 41.6508,153.2563 47.873,160.8446 " fill="none" id="member-to-Information" style="stroke:#A80036;stroke-width:1.0;"/><polygon fill="#A80036" points="51.3503,164.9196,48.5512,155.4769,48.1048,161.1161,42.4656,160.6697,51.3503,164.9196" style="stroke:#A80036;stroke-width:1.0;"/><text fill="#000000" font-family="sans-serif" font-size="13" lengthAdjust="spacing" textLength="30" x="33.5" y="131.0669">view</text><!--MD5=[e99c33e2de4541fd4e2e9c87ce7c280a]
link Client to Link--><path codeLine="78" d="M840.212,82.096 C827.96,106.2397 811.451,138.7724 800.415,160.5208 " fill="none" id="Client-to-Link" style="stroke:#A80036;stroke-width:1.0;"/><polygon fill="#A80036" points="798.146,164.9911,805.7851,158.7747,800.4082,160.5321,798.6508,155.1552,798.146,164.9911" style="stroke:#A80036;stroke-width:1.0;"/><text fill="#000000" font-family="sans-serif" font-size="13" lengthAdjust="spacing" textLength="24" x="821.5" y="131.0669">add</text><!--MD5=[8c07ac0a04d97996dcaa81bfb763e738]
link Admin to Mail--><path codeLine="79" d="M192.36,82.288 C191.563,98.164 190.967,117.5841 191.5,135 C191.746,143.0291 192.217,151.7878 192.715,159.6506 " fill="none" id="Admin-to-Mail" style="stroke:#A80036;stroke-width:1.0;"/><polygon fill="#A80036" points="193.061,164.931,196.4634,155.6885,192.7338,159.9417,188.4805,156.2121,193.061,164.931" style="stroke:#A80036;stroke-width:1.0;"/><text fill="#000000" font-family="sans-serif" font-size="13" lengthAdjust="spacing" textLength="37" x="192.5" y="131.0669">check</text><!--MD5=[3d4318aa56b2322dc15876394339f951]
link Client to Email--><path codeLine="80" d="M856.5,82.096 C856.5,106.0377 856.5,138.2285 856.5,159.9726 " fill="none" id="Client-to-Email" style="stroke:#A80036;stroke-width:1.0;"/><polygon fill="#A80036" points="856.5,164.9911,860.5,155.9911,856.5,159.9911,852.5,155.9911,856.5,164.9911" style="stroke:#A80036;stroke-width:1.0;"/><text fill="#000000" font-family="sans-serif" font-size="13" lengthAdjust="spacing" textLength="37" x="857.5" y="131.0669">check</text><!--MD5=[55b8830551f9e3090f371bb176b620c5]
link Donor to DonationOnline--><path codeLine="81" d="M1319.21,82.096 C1306.96,106.2397 1290.45,138.7724 1279.41,160.5208 " fill="none" id="Donor-to-DonationOnline" style="stroke:#A80036;stroke-width:1.0;"/><polygon fill="#A80036" points="1277.15,164.9911,1284.7907,158.7767,1279.4133,160.5327,1277.6573,155.1553,1277.15,164.9911" style="stroke:#A80036;stroke-width:1.0;"/><text fill="#000000" font-family="sans-serif" font-size="13" lengthAdjust="spacing" textLength="36" x="1300.5" y="131.0669">make</text><!--MD5=[dad04662e252554200d64624f282ae3b]
link parents to OtherDetail--><path codeLine="82" d="M1528.5,75.52 C1528.5,99.664 1528.5,135.6554 1528.5,159.4691 " fill="none" id="parents-to-OtherDetail" style="stroke:#A80036;stroke-width:1.0;"/><polygon fill="#A80036" points="1528.5,164.6528,1532.5,155.6528,1528.5,159.6528,1524.5,155.6528,1528.5,164.6528" style="stroke:#A80036;stroke-width:1.0;"/><text fill="#000000" font-family="sans-serif" font-size="13" lengthAdjust="spacing" textLength="30" x="1529.5" y="131.0669">view</text><!--MD5=[76979a5a2f694f0473fc60cce7bc6a1d]
link User to Trailer--><path codeLine="83" d="M520.648,88.041 C520.133,111.0538 519.492,139.7114 519.044,159.69 " fill="none" id="User-to-Trailer" style="stroke:#A80036;stroke-width:1.0;"/><polygon fill="#A80036" points="518.929,164.8278,523.1296,155.9197,519.041,159.8291,515.1316,155.7405,518.929,164.8278" style="stroke:#A80036;stroke-width:1.0;"/><text fill="#000000" font-family="sans-serif" font-size="13" lengthAdjust="spacing" textLength="30" x="521.5" y="131.0669">view</text><!--MD5=[e7be74c6895fc15c3c0e6cdd9b7c2955]
link User to Dvd--><path codeLine="84" d="M557.974,70.16 C579.211,82.669 605.959,99.794 627.5,118 C642.72,130.8635 657.8,147.4722 669.034,160.8101 " fill="none" id="User-to-Dvd" style="stroke:#A80036;stroke-width:1.0;"/><polygon fill="#A80036" points="672.393,164.8368,669.6983,155.3637,669.1897,160.9977,663.5557,160.489,672.393,164.8368" style="stroke:#A80036;stroke-width:1.0;"/><text fill="#000000" font-family="sans-serif" font-size="13" lengthAdjust="spacing" textLength="59" x="646.5" y="131.0669">purchase</text><!--MD5=[dbf32f210f2fcc2c01e9b3ac7c0aecb0]
link Client to GoogleDrive--><path codeLine="85" d="M879.255,82.096 C896.443,106.3407 919.629,139.0448 935.047,160.7932 " fill="none" id="Client-to-GoogleDrive" style="stroke:#A80036;stroke-width:1.0;"/><polygon fill="#A80036" points="938.024,164.9911,936.0814,155.3357,935.132,160.9123,929.5554,159.9629,938.024,164.9911" style="stroke:#A80036;stroke-width:1.0;"/><text fill="#000000" font-family="sans-serif" font-size="13" lengthAdjust="spacing" textLength="37" x="916.5" y="131.0669">check</text><!--MD5=[ce14622e16d0a416c60e50c2290b3572]
link parent to Payment--><path codeLine="86" d="M1628.5,75.52 C1628.5,99.664 1628.5,135.6554 1628.5,159.4691 " fill="none" id="parent-to-Payment" style="stroke:#A80036;stroke-width:1.0;"/><polygon fill="#A80036" points="1628.5,164.6528,1632.5,155.6528,1628.5,159.6528,1624.5,155.6528,1628.5,164.6528" style="stroke:#A80036;stroke-width:1.0;"/><text fill="#000000" font-family="sans-serif" font-size="13" lengthAdjust="spacing" textLength="20" x="1629.5" y="131.0669">set</text><!--MD5=[273ffdedf463e8c64c8beee01ffe88bd]
link Student to MusicNote--><path codeLine="87" d="M1129.26,75.52 C1133.77,99.664 1140.48,135.6554 1144.92,159.4691 " fill="none" id="Student-to-MusicNote" style="stroke:#A80036;stroke-width:1.0;"/><polygon fill="#A80036" points="1145.89,164.6528,1148.171,155.0717,1144.9727,159.7377,1140.3067,156.5394,1145.89,164.6528" style="stroke:#A80036;stroke-width:1.0;"/><text fill="#000000" font-family="sans-serif" font-size="13" lengthAdjust="spacing" textLength="62" x="1141.5" y="131.0669">download</text><!--MD5=[2ed9462148c463f4d66fa1aae48c4e08]
link Donor to VYMACommunity--><path codeLine="88" d="M1351.79,82.096 C1364.04,106.2397 1380.55,138.7724 1391.59,160.5208 " fill="none" id="Donor-to-VYMACommunity" style="stroke:#A80036;stroke-width:1.0;"/><polygon fill="#A80036" points="1393.85,164.9911,1393.3427,155.1553,1391.5867,160.5327,1386.2093,158.7767,1393.85,164.9911" style="stroke:#A80036;stroke-width:1.0;"/><text fill="#000000" font-family="sans-serif" font-size="13" lengthAdjust="spacing" textLength="49" x="1379.5" y="131.0669">support</text><!--MD5=[7223bdcc6016c1bd7dc79be91e312048]
link Student to Page--><path codeLine="89" d="M1098.4,75.602 C1087.31,87.628 1075.02,102.673 1066.5,118 C1059.23,131.0838 1054.07,147.048 1050.68,159.9983 " fill="none" id="Student-to-Page" style="stroke:#A80036;stroke-width:1.0;"/><polygon fill="#A80036" points="1049.42,164.9823,1055.5006,157.2346,1050.6434,160.1343,1047.7438,155.2771,1049.42,164.9823" style="stroke:#A80036;stroke-width:1.0;"/><text fill="#000000" font-family="sans-serif" font-size="13" lengthAdjust="spacing" textLength="62" x="1067.5" y="131.0669">download</text><!--MD5=[a0ef8329b23cdf62601a8e926f63eb24]
link Admin to Detail--><path codeLine="90" d="M223.27,82.381 C237.442,98.279 254.815,117.6908 270.5,135 C278.231,143.532 286.765,152.8494 294.304,161.0467 " fill="none" id="Admin-to-Detail" style="stroke:#A80036;stroke-width:1.0;"/><polygon fill="#A80036" points="297.917,164.9725,294.7667,155.6411,294.5315,161.293,288.8795,161.0579,297.917,164.9725" style="stroke:#A80036;stroke-width:1.0;"/><text fill="#000000" font-family="sans-serif" font-size="13" lengthAdjust="spacing" textLength="45" x="271.5" y="131.0669">update</text><!--MD5=[a421cc73cfb01b18772ccf80ff98e661]
link User to Update--><path codeLine="91" d="M543.927,88.041 C557.668,111.3475 574.821,140.444 586.617,160.4508 " fill="none" id="User-to-Update" style="stroke:#A80036;stroke-width:1.0;"/><polygon fill="#A80036" points="589.197,164.8278,588.0717,155.0434,586.6576,160.5207,581.1803,159.1065,589.197,164.8278" style="stroke:#A80036;stroke-width:1.0;"/><text fill="#000000" font-family="sans-serif" font-size="13" lengthAdjust="spacing" textLength="47" x="571.5" y="131.0669">receive</text><!--MD5=[02ad04e18c569503c135d4c822c16d51]
link Admin to Information--><path codeLine="92" d="M165.038,82.096 C142.692,106.4417 112.515,139.3175 92.5527,161.0645 " fill="none" id="Admin-to-Information" style="stroke:#A80036;stroke-width:1.0;"/><polygon fill="#A80036" points="88.9485,164.9911,97.9813,161.0658,92.3297,161.3077,92.0878,155.656,88.9485,164.9911" style="stroke:#A80036;stroke-width:1.0;"/><text fill="#000000" font-family="sans-serif" font-size="13" lengthAdjust="spacing" textLength="45" x="130.5" y="131.0669">update</text><!--MD5=[9902fbc8647ea0197a4a2845c1380e94]
link User to News--><path codeLine="93" d="M485.884,88.155 C478.004,97.542 470.058,107.8279 463.5,118 C454.947,131.2664 447.371,147.2668 441.85,160.1907 " fill="none" id="User-to-News" style="stroke:#A80036;stroke-width:1.0;"/><polygon fill="#A80036" points="439.911,164.8022,447.0864,158.0559,441.8488,160.193,439.7117,154.9554,439.911,164.8022" style="stroke:#A80036;stroke-width:1.0;"/><text fill="#000000" font-family="sans-serif" font-size="13" lengthAdjust="spacing" textLength="47" x="464.5" y="131.0669">receive</text><!--MD5=[570ec5c4e8a1dd44e7fcb71a8cfc57a6]
link User to Detail--><path codeLine="94" d="M485.219,72.781 C464.443,85.895 437.927,102.75 414.5,118 C388.91,134.6588 359.864,154.0848 339.885,167.528 " fill="none" id="User-to-Detail" style="stroke:#A80036;stroke-width:1.0;"/><polygon fill="#A80036" points="335.514,170.4717,345.2139,168.765,339.662,167.68,340.7471,162.1281,335.514,170.4717" style="stroke:#A80036;stroke-width:1.0;"/><text fill="#000000" font-family="sans-serif" font-size="13" lengthAdjust="spacing" textLength="30" x="415.5" y="131.0669">view</text><!--MD5=[7d1250cbe5837fcdc2ad4720f32a9d17]
@startuml
hide circle
class User<actor> {
}
class Parent<actor> {
}
class Client<actor> {
}
class Admin<actor> {
}
class Member<actor> {
}
class Student<actor> {
}
class Donor<actor> {
}
class Admin {
	update()
	check()
}
class Information {
}
class User {
	purchase()
	receive()
	view()
}
class Trailer {
}
class Detail {
}
class Mail {
}
class Student {
	download()
}
class Page {
}
class Donor {
	make()
	support()
}
class DonationOnline {
}
class MusicNote {
}
class VYMACommunity {
}
class Update {
}
class parents {
	view()
}
class OtherDetail {
}
class Client {
	check()
	add()
}
class Link {
}
class Dvd {
}
class News {
}
class parent {
	set()
}
class Payment {
}
class Email {
}
class GoogleDrive {
}
class member {
	view()
}
member - -> Information : view
Client - -> Link : add
Admin - -> Mail : check
Client - -> Email : check
Donor - -> DonationOnline : make
parents - -> OtherDetail : view
User - -> Trailer : view
User - -> Dvd : purchase
Client - -> GoogleDrive : check
parent - -> Payment : set
Student - -> MusicNote : download
Donor - -> VYMACommunity : support
Student - -> Page : download
Admin - -> Detail : update
User - -> Update : receive
Admin - -> Information : update
User - -> News : receive
User - -> Detail : view
@enduml

PlantUML version 1.2021.6beta6(Unknown compile time)
(GPL source distribution)
Java Runtime: Java(TM) SE Runtime Environment
JVM: Java HotSpot(TM) 64-Bit Server VM
Default Encoding: UTF-8
Language: en
Country: US
--></g></svg>