<?xml version="1.0" encoding="UTF-8" standalone="no"?><svg xmlns="http://www.w3.org/2000/svg" xmlns:xlink="http://www.w3.org/1999/xlink" contentScriptType="application/ecmascript" contentStyleType="text/css" height="334px" preserveAspectRatio="none" style="width:1963px;height:334px;background:#FFFFFF;" version="1.1" viewBox="0 0 1963 334" width="1963px" zoomAndPan="magnify"><defs><filter height="300%" id="f1u386qxyw6in3" width="300%" x="-1" y="-1"><feGaussianBlur result="blurOut" stdDeviation="2.0"/><feColorMatrix in="blurOut" result="blurOut2" type="matrix" values="0 0 0 0 0 0 0 0 0 0 0 0 0 0 0 0 0 0 .4 0"/><feOffset dx="4.0" dy="4.0" in="blurOut2" result="blurOut3"/><feBlend in="SourceGraphic" in2="blurOut3" mode="normal"/></filter></defs><g><!--MD5=[3fd616f346a44cd59a91eb10b19e157c]
class User--><rect codeLine="10" fill="#FEFECE" filter="url(#f1u386qxyw6in3)" height="193.625" id="User" style="stroke:#A80036;stroke-width:1.5;" width="70" x="1137.5" y="10"/><text fill="#000000" font-family="sans-serif" font-size="12" lengthAdjust="spacing" textLength="29" x="1140.5" y="26.1387">User</text><rect fill="#FFFFFF" height="15.9688" style="stroke:#000000;stroke-width:1.0;stroke-dasharray:2.0,2.0;" width="33" x="1177.5" y="7"/><text fill="#000000" font-family="sans-serif" font-size="12" font-style="italic" lengthAdjust="spacing" textLength="31" x="1178.5" y="19.1387">actor</text><line style="stroke:#A80036;stroke-width:1.5;" x1="1138.5" x2="1206.5" y1="33.9688" y2="33.9688"/><line style="stroke:#A80036;stroke-width:1.5;" x1="1138.5" x2="1206.5" y1="41.9688" y2="41.9688"/><text fill="#000000" font-family="sans-serif" font-size="11" lengthAdjust="spacing" textLength="52" x="1143.5" y="56.1792">receive()</text><text fill="#000000" font-family="sans-serif" font-size="11" lengthAdjust="spacing" textLength="44" x="1143.5" y="68.9839">toggle()</text><text fill="#000000" font-family="sans-serif" font-size="11" lengthAdjust="spacing" textLength="22" x="1143.5" y="81.7886">do()</text><text fill="#000000" font-family="sans-serif" font-size="11" lengthAdjust="spacing" textLength="40" x="1143.5" y="94.5933">share()</text><text fill="#000000" font-family="sans-serif" font-size="11" lengthAdjust="spacing" textLength="47" x="1143.5" y="107.3979">access()</text><text fill="#000000" font-family="sans-serif" font-size="11" lengthAdjust="spacing" textLength="27" x="1143.5" y="120.2026">get()</text><text fill="#000000" font-family="sans-serif" font-size="11" lengthAdjust="spacing" textLength="35" x="1143.5" y="133.0073">view()</text><text fill="#000000" font-family="sans-serif" font-size="11" lengthAdjust="spacing" textLength="45" x="1143.5" y="145.812">create()</text><text fill="#000000" font-family="sans-serif" font-size="11" lengthAdjust="spacing" textLength="49" x="1143.5" y="158.6167">disable()</text><text fill="#000000" font-family="sans-serif" font-size="11" lengthAdjust="spacing" textLength="41" x="1143.5" y="171.4214">watch()</text><text fill="#000000" font-family="sans-serif" font-size="11" lengthAdjust="spacing" textLength="51" x="1143.5" y="184.2261">identify()</text><text fill="#000000" font-family="sans-serif" font-size="11" lengthAdjust="spacing" textLength="50" x="1143.5" y="197.0308">change()</text><!--MD5=[db6d18d8099558415abc41d00477ab92]
class Admin--><rect codeLine="30" fill="#FEFECE" filter="url(#f1u386qxyw6in3)" height="91.1875" id="Admin" style="stroke:#A80036;stroke-width:1.5;" width="78" x="161.5" y="61.5"/><text fill="#000000" font-family="sans-serif" font-size="12" lengthAdjust="spacing" textLength="37" x="164.5" y="77.6387">Admin</text><rect fill="#FFFFFF" height="15.9688" style="stroke:#000000;stroke-width:1.0;stroke-dasharray:2.0,2.0;" width="33" x="209.5" y="58.5"/><text fill="#000000" font-family="sans-serif" font-size="12" font-style="italic" lengthAdjust="spacing" textLength="31" x="210.5" y="70.6387">actor</text><line style="stroke:#A80036;stroke-width:1.5;" x1="162.5" x2="238.5" y1="85.4688" y2="85.4688"/><line style="stroke:#A80036;stroke-width:1.5;" x1="162.5" x2="238.5" y1="93.4688" y2="93.4688"/><text fill="#000000" font-family="sans-serif" font-size="11" lengthAdjust="spacing" textLength="46" x="167.5" y="107.6792">upload()</text><text fill="#000000" font-family="sans-serif" font-size="11" lengthAdjust="spacing" textLength="45" x="167.5" y="120.4839">define()</text><text fill="#000000" font-family="sans-serif" font-size="11" lengthAdjust="spacing" textLength="46" x="167.5" y="133.2886">delete()</text><text fill="#000000" font-family="sans-serif" font-size="11" lengthAdjust="spacing" textLength="45" x="167.5" y="146.0933">create()</text><!--MD5=[32f29d0a8b98848dec61f11fa636792c]
class FarmManager--><rect codeLine="6" fill="#FEFECE" filter="url(#f1u386qxyw6in3)" height="39.9688" id="FarmManager" style="stroke:#A80036;stroke-width:1.5;" width="123" x="1314" y="87"/><text fill="#000000" font-family="sans-serif" font-size="12" lengthAdjust="spacing" textLength="82" x="1317" y="103.1387">FarmManager</text><rect fill="#FFFFFF" height="15.9688" style="stroke:#000000;stroke-width:1.0;stroke-dasharray:2.0,2.0;" width="33" x="1407" y="84"/><text fill="#000000" font-family="sans-serif" font-size="12" font-style="italic" lengthAdjust="spacing" textLength="31" x="1408" y="96.1387">actor</text><line style="stroke:#A80036;stroke-width:1.5;" x1="1315" x2="1436" y1="110.9688" y2="110.9688"/><line style="stroke:#A80036;stroke-width:1.5;" x1="1315" x2="1436" y1="118.9688" y2="118.9688"/><!--MD5=[847e87e7264efe5893507b2587467ebf]
class FarmContractor--><rect codeLine="8" fill="#FEFECE" filter="url(#f1u386qxyw6in3)" height="39.9688" id="FarmContractor" style="stroke:#A80036;stroke-width:1.5;" width="134" x="1472.5" y="87"/><text fill="#000000" font-family="sans-serif" font-size="12" lengthAdjust="spacing" textLength="93" x="1475.5" y="103.1387">FarmContractor</text><rect fill="#FFFFFF" height="15.9688" style="stroke:#000000;stroke-width:1.0;stroke-dasharray:2.0,2.0;" width="33" x="1576.5" y="84"/><text fill="#000000" font-family="sans-serif" font-size="12" font-style="italic" lengthAdjust="spacing" textLength="31" x="1577.5" y="96.1387">actor</text><line style="stroke:#A80036;stroke-width:1.5;" x1="1473.5" x2="1605.5" y1="110.9688" y2="110.9688"/><line style="stroke:#A80036;stroke-width:1.5;" x1="1473.5" x2="1605.5" y1="118.9688" y2="118.9688"/><!--MD5=[7b57f7066b803747d2119f99dd1555d4]
class Profile--><rect codeLine="24" fill="#FEFECE" filter="url(#f1u386qxyw6in3)" height="39.9688" id="Profile" style="stroke:#A80036;stroke-width:1.5;" width="43" x="1188" y="281"/><text fill="#000000" font-family="sans-serif" font-size="12" lengthAdjust="spacing" textLength="37" x="1191" y="297.1387">Profile</text><line style="stroke:#A80036;stroke-width:1.5;" x1="1189" x2="1230" y1="304.9688" y2="304.9688"/><line style="stroke:#A80036;stroke-width:1.5;" x1="1189" x2="1230" y1="312.9688" y2="312.9688"/><!--MD5=[166247bf81aba95c770c3b8fd8e3cb19]
class Video--><rect codeLine="26" fill="#FEFECE" filter="url(#f1u386qxyw6in3)" height="39.9688" id="Video" style="stroke:#A80036;stroke-width:1.5;" width="41" x="289" y="281"/><text fill="#000000" font-family="sans-serif" font-size="12" lengthAdjust="spacing" textLength="35" x="292" y="297.1387">Video</text><line style="stroke:#A80036;stroke-width:1.5;" x1="290" x2="329" y1="304.9688" y2="304.9688"/><line style="stroke:#A80036;stroke-width:1.5;" x1="290" x2="329" y1="312.9688" y2="312.9688"/><!--MD5=[30fd7b95ab383a5e7c83ea23d4ea0fbf]
class Information--><rect codeLine="28" fill="#FEFECE" filter="url(#f1u386qxyw6in3)" height="39.9688" id="Information" style="stroke:#A80036;stroke-width:1.5;" width="73" x="1266" y="281"/><text fill="#000000" font-family="sans-serif" font-size="12" lengthAdjust="spacing" textLength="67" x="1269" y="297.1387">Information</text><line style="stroke:#A80036;stroke-width:1.5;" x1="1267" x2="1338" y1="304.9688" y2="304.9688"/><line style="stroke:#A80036;stroke-width:1.5;" x1="1267" x2="1338" y1="312.9688" y2="312.9688"/><!--MD5=[f9a29335b499db729be669fd1bd54958]
class Account--><rect codeLine="36" fill="#FEFECE" filter="url(#f1u386qxyw6in3)" height="39.9688" id="Account" style="stroke:#A80036;stroke-width:1.5;" width="54" x="1374.5" y="281"/><text fill="#000000" font-family="sans-serif" font-size="12" lengthAdjust="spacing" textLength="48" x="1377.5" y="297.1387">Account</text><line style="stroke:#A80036;stroke-width:1.5;" x1="1375.5" x2="1427.5" y1="304.9688" y2="304.9688"/><line style="stroke:#A80036;stroke-width:1.5;" x1="1375.5" x2="1427.5" y1="312.9688" y2="312.9688"/><!--MD5=[0c3b512350d460f5340b50da7a0b4194]
class Checklist--><rect codeLine="38" fill="#FEFECE" filter="url(#f1u386qxyw6in3)" height="39.9688" id="Checklist" style="stroke:#A80036;stroke-width:1.5;" width="60" x="1463.5" y="281"/><text fill="#000000" font-family="sans-serif" font-size="12" lengthAdjust="spacing" textLength="54" x="1466.5" y="297.1387">Checklist</text><line style="stroke:#A80036;stroke-width:1.5;" x1="1464.5" x2="1522.5" y1="304.9688" y2="304.9688"/><line style="stroke:#A80036;stroke-width:1.5;" x1="1464.5" x2="1522.5" y1="312.9688" y2="312.9688"/><!--MD5=[67d55cb799d9640d9c582a8cc2c589ce]
class Metric--><rect codeLine="40" fill="#FEFECE" filter="url(#f1u386qxyw6in3)" height="39.9688" id="Metric" style="stroke:#A80036;stroke-width:1.5;" width="43" x="1559" y="281"/><text fill="#000000" font-family="sans-serif" font-size="12" lengthAdjust="spacing" textLength="37" x="1562" y="297.1387">Metric</text><line style="stroke:#A80036;stroke-width:1.5;" x1="1560" x2="1601" y1="304.9688" y2="304.9688"/><line style="stroke:#A80036;stroke-width:1.5;" x1="1560" x2="1601" y1="312.9688" y2="312.9688"/><!--MD5=[3c2cbbee24bda6f963becc0a442377df]
class Temperature--><rect codeLine="42" fill="#FEFECE" filter="url(#f1u386qxyw6in3)" height="39.9688" id="Temperature" style="stroke:#A80036;stroke-width:1.5;" width="84" x="1637.5" y="281"/><text fill="#000000" font-family="sans-serif" font-size="12" lengthAdjust="spacing" textLength="78" x="1640.5" y="297.1387">Temperature</text><line style="stroke:#A80036;stroke-width:1.5;" x1="1638.5" x2="1720.5" y1="304.9688" y2="304.9688"/><line style="stroke:#A80036;stroke-width:1.5;" x1="1638.5" x2="1720.5" y1="312.9688" y2="312.9688"/><!--MD5=[32cd4433c115ed96a993c633522ecf21]
class Contents--><rect codeLine="44" fill="#FEFECE" filter="url(#f1u386qxyw6in3)" height="39.9688" id="Contents" style="stroke:#A80036;stroke-width:1.5;" width="59" x="7" y="281"/><text fill="#000000" font-family="sans-serif" font-size="12" lengthAdjust="spacing" textLength="53" x="10" y="297.1387">Contents</text><line style="stroke:#A80036;stroke-width:1.5;" x1="8" x2="65" y1="304.9688" y2="304.9688"/><line style="stroke:#A80036;stroke-width:1.5;" x1="8" x2="65" y1="312.9688" y2="312.9688"/><!--MD5=[67f5bdafb709b09f80738cdb2228938c]
class Quiz--><rect codeLine="46" fill="#FEFECE" filter="url(#f1u386qxyw6in3)" height="39.9688" id="Quiz" style="stroke:#A80036;stroke-width:1.5;" width="33" x="392" y="281"/><text fill="#000000" font-family="sans-serif" font-size="12" lengthAdjust="spacing" textLength="27" x="395" y="297.1387">Quiz</text><line style="stroke:#A80036;stroke-width:1.5;" x1="393" x2="424" y1="304.9688" y2="304.9688"/><line style="stroke:#A80036;stroke-width:1.5;" x1="393" x2="424" y1="312.9688" y2="312.9688"/><!--MD5=[4f1f3706c1a355a8488e154afcaed5df]
class Location--><rect codeLine="48" fill="#FEFECE" filter="url(#f1u386qxyw6in3)" height="39.9688" id="Location" style="stroke:#A80036;stroke-width:1.5;" width="56" x="1756.5" y="281"/><text fill="#000000" font-family="sans-serif" font-size="12" lengthAdjust="spacing" textLength="50" x="1759.5" y="297.1387">Location</text><line style="stroke:#A80036;stroke-width:1.5;" x1="1757.5" x2="1811.5" y1="304.9688" y2="304.9688"/><line style="stroke:#A80036;stroke-width:1.5;" x1="1757.5" x2="1811.5" y1="312.9688" y2="312.9688"/><!--MD5=[6e9505041a277afbc8ca71b93440885d]
class NotificationTone--><rect codeLine="50" fill="#FEFECE" filter="url(#f1u386qxyw6in3)" height="39.9688" id="NotificationTone" style="stroke:#A80036;stroke-width:1.5;" width="102" x="1847.5" y="281"/><text fill="#000000" font-family="sans-serif" font-size="12" lengthAdjust="spacing" textLength="96" x="1850.5" y="297.1387">NotificationTone</text><line style="stroke:#A80036;stroke-width:1.5;" x1="1848.5" x2="1948.5" y1="304.9688" y2="304.9688"/><line style="stroke:#A80036;stroke-width:1.5;" x1="1848.5" x2="1948.5" y1="312.9688" y2="312.9688"/><!--MD5=[90d32ccc189f11441a6ce7cbb63ad387]
class Material--><rect codeLine="52" fill="#FEFECE" filter="url(#f1u386qxyw6in3)" height="39.9688" id="Material" style="stroke:#A80036;stroke-width:1.5;" width="53" x="500" y="281"/><text fill="#000000" font-family="sans-serif" font-size="12" lengthAdjust="spacing" textLength="47" x="503" y="297.1387">Material</text><line style="stroke:#A80036;stroke-width:1.5;" x1="501" x2="552" y1="304.9688" y2="304.9688"/><line style="stroke:#A80036;stroke-width:1.5;" x1="501" x2="552" y1="312.9688" y2="312.9688"/><!--MD5=[260c1e5e41e593ef0e92b4cae546ad19]
class EmergencyContactList--><rect codeLine="54" fill="#FEFECE" filter="url(#f1u386qxyw6in3)" height="39.9688" id="EmergencyContactList" style="stroke:#A80036;stroke-width:1.5;" width="139" x="588" y="281"/><text fill="#000000" font-family="sans-serif" font-size="12" lengthAdjust="spacing" textLength="133" x="591" y="297.1387">EmergencyContactList</text><line style="stroke:#A80036;stroke-width:1.5;" x1="589" x2="726" y1="304.9688" y2="304.9688"/><line style="stroke:#A80036;stroke-width:1.5;" x1="589" x2="726" y1="312.9688" y2="312.9688"/><!--MD5=[837837ccbd8621d7d3ffae7a6bc88f3a]
class Sign--><rect codeLine="56" fill="#FEFECE" filter="url(#f1u386qxyw6in3)" height="39.9688" id="Sign" style="stroke:#A80036;stroke-width:1.5;" width="32" x="762.5" y="281"/><text fill="#000000" font-family="sans-serif" font-size="12" lengthAdjust="spacing" textLength="26" x="765.5" y="297.1387">Sign</text><line style="stroke:#A80036;stroke-width:1.5;" x1="763.5" x2="793.5" y1="304.9688" y2="304.9688"/><line style="stroke:#A80036;stroke-width:1.5;" x1="763.5" x2="793.5" y1="312.9688" y2="312.9688"/><!--MD5=[c3a3f3b5ca588e3d37ad602d97aee482]
class TemperatureData--><rect codeLine="58" fill="#FEFECE" filter="url(#f1u386qxyw6in3)" height="39.9688" id="TemperatureData" style="stroke:#A80036;stroke-width:1.5;" width="111" x="830" y="281"/><text fill="#000000" font-family="sans-serif" font-size="12" lengthAdjust="spacing" textLength="105" x="833" y="297.1387">TemperatureData</text><line style="stroke:#A80036;stroke-width:1.5;" x1="831" x2="940" y1="304.9688" y2="304.9688"/><line style="stroke:#A80036;stroke-width:1.5;" x1="831" x2="940" y1="312.9688" y2="312.9688"/><!--MD5=[292033ffe4750640675b59034298e578]
class Display--><rect codeLine="60" fill="#FEFECE" filter="url(#f1u386qxyw6in3)" height="39.9688" id="Display" style="stroke:#A80036;stroke-width:1.5;" width="50" x="976.5" y="281"/><text fill="#000000" font-family="sans-serif" font-size="12" lengthAdjust="spacing" textLength="44" x="979.5" y="297.1387">Display</text><line style="stroke:#A80036;stroke-width:1.5;" x1="977.5" x2="1025.5" y1="304.9688" y2="304.9688"/><line style="stroke:#A80036;stroke-width:1.5;" x1="977.5" x2="1025.5" y1="312.9688" y2="312.9688"/><!--MD5=[a3638c1e5b65d287ecad7f06f5c0f212]
class Role--><rect codeLine="62" fill="#FEFECE" filter="url(#f1u386qxyw6in3)" height="39.9688" id="Role" style="stroke:#A80036;stroke-width:1.5;" width="32" x="102.5" y="281"/><text fill="#000000" font-family="sans-serif" font-size="12" lengthAdjust="spacing" textLength="26" x="105.5" y="297.1387">Role</text><line style="stroke:#A80036;stroke-width:1.5;" x1="103.5" x2="133.5" y1="304.9688" y2="304.9688"/><line style="stroke:#A80036;stroke-width:1.5;" x1="103.5" x2="133.5" y1="312.9688" y2="312.9688"/><!--MD5=[ac7934929da5e0be69bf27d15ca10a9c]
class VibrationLevel--><rect codeLine="64" fill="#FEFECE" filter="url(#f1u386qxyw6in3)" height="39.9688" id="VibrationLevel" style="stroke:#A80036;stroke-width:1.5;" width="91" x="1062" y="281"/><text fill="#000000" font-family="sans-serif" font-size="12" lengthAdjust="spacing" textLength="85" x="1065" y="297.1387">VibrationLevel</text><line style="stroke:#A80036;stroke-width:1.5;" x1="1063" x2="1152" y1="304.9688" y2="304.9688"/><line style="stroke:#A80036;stroke-width:1.5;" x1="1063" x2="1152" y1="312.9688" y2="312.9688"/><!--MD5=[fd7366e9f96236d9aa60dcc04f2b83e5]
class Content--><rect codeLine="66" fill="#FEFECE" filter="url(#f1u386qxyw6in3)" height="39.9688" id="Content" style="stroke:#A80036;stroke-width:1.5;" width="52" x="174.5" y="281"/><text fill="#000000" font-family="sans-serif" font-size="12" lengthAdjust="spacing" textLength="46" x="177.5" y="297.1387">Content</text><line style="stroke:#A80036;stroke-width:1.5;" x1="175.5" x2="225.5" y1="304.9688" y2="304.9688"/><line style="stroke:#A80036;stroke-width:1.5;" x1="175.5" x2="225.5" y1="312.9688" y2="312.9688"/><!--MD5=[9d661380b54d9bff4ee137bc0bb1b8a2]
link User to Information--><path codeLine="68" d="M1207.55,179.964 C1220.36,203.506 1235.83,229.1924 1252.5,251 C1259.54,260.2101 1268.28,269.3599 1276.47,277.2155 " fill="none" id="User-to-Information" style="stroke:#A80036;stroke-width:1.0;"/><polygon fill="#A80036" points="1280.44,280.9626,1276.6376,271.8773,1276.8028,277.5318,1271.1483,277.6969,1280.44,280.9626" style="stroke:#A80036;stroke-width:1.0;"/><text fill="#000000" font-family="sans-serif" font-size="13" lengthAdjust="spacing" textLength="21" x="1253.5" y="247.0669">get</text><!--MD5=[9d661380b54d9bff4ee137bc0bb1b8a2]
link User to Information--><path codeLine="85" d="M1207.71,142.245 C1230.7,166.188 1259.98,199.874 1279.5,234 C1286.95,247.0171 1292.56,262.8488 1296.38,275.7433 " fill="none" id="User-to-Information-1" style="stroke:#A80036;stroke-width:1.0;"/><polygon fill="#A80036" points="1297.81,280.7095,1299.168,270.9547,1296.4287,275.9041,1291.4794,273.1648,1297.81,280.7095" style="stroke:#A80036;stroke-width:1.0;"/><text fill="#000000" font-family="sans-serif" font-size="13" lengthAdjust="spacing" textLength="47" x="1288.5" y="247.0669">receive</text><!--MD5=[44a4cd0d3a8972ac4bf5ff6c7c7a09c9]
link User to TemperatureData--><path codeLine="69" d="M1137.31,131.543 C1081.4,168.944 973.06,241.4232 918.536,277.899 " fill="none" id="User-to-TemperatureData" style="stroke:#A80036;stroke-width:1.0;"/><polygon fill="#A80036" points="914.068,280.8884,923.7726,279.2091,918.2239,278.1084,919.3246,272.5596,914.068,280.8884" style="stroke:#A80036;stroke-width:1.0;"/><text fill="#000000" font-family="sans-serif" font-size="13" lengthAdjust="spacing" textLength="30" x="979.5" y="247.0669">view</text><!--MD5=[94d8ec925dc05aae8ddd8357ad83aa96]
link User to EmergencyContactList--><path codeLine="70" d="M1137.35,120.046 C1073.81,141.941 935.735,190.067 820.5,234 C782.57,248.4609 740.07,265.7042 707.979,278.9388 " fill="none" id="User-to-EmergencyContactList" style="stroke:#A80036;stroke-width:1.0;"/><polygon fill="#A80036" points="703.321,280.8615,713.1664,281.1234,707.9424,278.953,710.1128,273.7291,703.321,280.8615" style="stroke:#A80036;stroke-width:1.0;"/><text fill="#000000" font-family="sans-serif" font-size="13" lengthAdjust="spacing" textLength="41" x="821.5" y="247.0669">create</text><!--MD5=[949878349d057c0f9b0bc699490e2385]
link User to Display--><path codeLine="71" d="M1137.5,145.051 C1114.22,169.924 1083.15,203.583 1056.5,234 C1044.31,247.9101 1031.03,263.8274 1020.57,276.545 " fill="none" id="User-to-Display" style="stroke:#A80036;stroke-width:1.0;"/><polygon fill="#A80036" points="1017.14,280.7277,1025.9461,276.3173,1020.316,276.8659,1019.7673,271.2357,1017.14,280.7277" style="stroke:#A80036;stroke-width:1.0;"/><text fill="#000000" font-family="sans-serif" font-size="13" lengthAdjust="spacing" textLength="40" x="1057.5" y="247.0669">toggle</text><!--MD5=[59f6618a3dc158c28d1239d81943c795]
link Admin to Video--><path codeLine="72" d="M225.087,152.603 C240.772,180.891 261.627,218.208 280.5,251 C285.326,259.3855 290.701,268.5215 295.499,276.6083 " fill="none" id="Admin-to-Video" style="stroke:#A80036;stroke-width:1.0;"/><polygon fill="#A80036" points="298.099,280.9817,296.938,271.2015,295.5439,276.6839,290.0615,275.2897,298.099,280.9817" style="stroke:#A80036;stroke-width:1.0;"/><text fill="#000000" font-family="sans-serif" font-size="13" lengthAdjust="spacing" textLength="43" x="281.5" y="247.0669">upload</text><!--MD5=[87e802f94dff5db0b14b612664619da8]
link User to Account--><path codeLine="73" d="M1207.6,136.693 C1232.05,156.299 1265.68,182.517 1296.5,204 C1317.14,218.385 1325.4,217.63 1344.5,234 C1359.29,246.678 1373.62,263.2876 1384.21,276.6725 " fill="none" id="User-to-Account" style="stroke:#A80036;stroke-width:1.0;"/><polygon fill="#A80036" points="1387.37,280.715,1384.9808,271.1603,1384.2916,276.7751,1378.6768,276.0858,1387.37,280.715" style="stroke:#A80036;stroke-width:1.0;"/><text fill="#000000" font-family="sans-serif" font-size="13" lengthAdjust="spacing" textLength="45" x="1363.5" y="247.0669">disable</text><!--MD5=[74bee6345d88bc124496cf141542b1c7]
link Admin to Role--><path codeLine="74" d="M181.481,152.531 C165.045,191.017 141.916,245.1722 128.745,276.0121 " fill="none" id="Admin-to-Role" style="stroke:#A80036;stroke-width:1.0;"/><polygon fill="#A80036" points="126.719,280.7556,133.9323,274.0497,128.6827,276.1574,126.5751,270.9078,126.719,280.7556" style="stroke:#A80036;stroke-width:1.0;"/><text fill="#000000" font-family="sans-serif" font-size="13" lengthAdjust="spacing" textLength="40" x="146.5" y="247.0669">define</text><!--MD5=[6b4d7518e221b0e4117d7b9d8c1511bb]
link User to Checklist--><path codeLine="75" d="M1207.51,141.563 C1230.99,162.353 1263.54,188.042 1296.5,204 C1346.37,228.1456 1368.33,208.461 1417.5,234 C1438.34,244.8235 1458.24,262.4675 1472.45,276.7904 " fill="none" id="User-to-Checklist" style="stroke:#A80036;stroke-width:1.0;"/><polygon fill="#A80036" points="1476.3,280.7337,1472.884,271.4962,1472.8106,277.1526,1467.1543,277.0792,1476.3,280.7337" style="stroke:#A80036;stroke-width:1.0;"/><text fill="#000000" font-family="sans-serif" font-size="13" lengthAdjust="spacing" textLength="41" x="1444.5" y="247.0669">create</text><!--MD5=[3a528f818948185628c866cc79abcb85]
link User to VibrationLevel--><path codeLine="76" d="M1137.41,163.558 C1125.89,184.769 1114.51,209.707 1108.5,234 C1105.15,247.5298 1104.76,263.101 1105.27,275.72 " fill="none" id="User-to-VibrationLevel" style="stroke:#A80036;stroke-width:1.0;"/><polygon fill="#A80036" points="1105.54,280.9328,1109.073,271.7394,1105.2835,275.9394,1101.0835,272.1499,1105.54,280.9328" style="stroke:#A80036;stroke-width:1.0;"/><text fill="#000000" font-family="sans-serif" font-size="13" lengthAdjust="spacing" textLength="47" x="1109.5" y="247.0669">change</text><!--MD5=[993a1ed30139d6bc9fd462e29443e622]
link User to User--><path codeLine="77" d="M1207.8,82.758 C1226.05,79.029 1242.5,87.109 1242.5,107 C1242.5,125.026 1228.99,133.352 1212.87,131.979 " fill="none" id="User-to-User" style="stroke:#A80036;stroke-width:1.0;"/><polygon fill="#A80036" points="1207.8,131.242,1216.1214,136.5103,1212.7467,131.9703,1217.2866,128.5956,1207.8,131.242" style="stroke:#A80036;stroke-width:1.0;"/><text fill="#000000" font-family="sans-serif" font-size="13" lengthAdjust="spacing" textLength="41" x="1248.5" y="111.5669">create</text><!--MD5=[ffbfde574bb7ae168ad208d635d3b889]
link Admin to Content--><path codeLine="78" d="M198.377,152.77 C197.333,180.961 196.494,218.113 197.5,251 C197.746,259.0291 198.217,267.7878 198.715,275.6506 " fill="none" id="Admin-to-Content" style="stroke:#A80036;stroke-width:1.0;"/><polygon fill="#A80036" points="199.061,280.931,202.4634,271.6885,198.7338,275.9417,194.4805,272.2121,199.061,280.931" style="stroke:#A80036;stroke-width:1.0;"/><text fill="#000000" font-family="sans-serif" font-size="13" lengthAdjust="spacing" textLength="41" x="198.5" y="247.0669">create</text><!--MD5=[eeedc2769e727758086088bd4c43e33e]
link User to Metric--><path codeLine="79" d="M1207.55,143.08 C1230.8,164.201 1263.09,189.693 1296.5,204 C1378.32,239.0357 1412.61,199.138 1494.5,234 C1518.29,244.126 1541.31,262.3868 1557.53,277.1375 " fill="none" id="User-to-Metric" style="stroke:#A80036;stroke-width:1.0;"/><polygon fill="#A80036" points="1561.51,280.8049,1557.6009,271.765,1557.8326,277.4171,1552.1805,277.6488,1561.51,280.8049" style="stroke:#A80036;stroke-width:1.0;"/><text fill="#000000" font-family="sans-serif" font-size="13" lengthAdjust="spacing" textLength="41" x="1524.5" y="247.0669">create</text><!--MD5=[1add203e6c1b91e831b9ab0773d963e7]
link User to NotificationTone--><path codeLine="80" d="M1207.68,144.546 C1230.73,165.951 1262.77,191.219 1296.5,204 C1486.84,276.1197 1556.1,184.362 1753.5,234 C1791.95,243.6677 1832.8,263.1992 1861.3,278.5186 " fill="none" id="User-to-NotificationTone" style="stroke:#A80036;stroke-width:1.0;"/><polygon fill="#A80036" points="1865.77,280.939,1859.7675,273.1306,1861.3754,278.5542,1855.9518,280.162,1865.77,280.939" style="stroke:#A80036;stroke-width:1.0;"/><text fill="#000000" font-family="sans-serif" font-size="13" lengthAdjust="spacing" textLength="47" x="1804.5" y="247.0669">change</text><!--MD5=[4f3c7f0e6e2871a6123e94f2fc1d67c2]
link User to Temperature--><path codeLine="81" d="M1207.61,143.814 C1230.76,165.08 1262.92,190.463 1296.5,204 C1411.76,250.4589 1457.11,193.221 1574.5,234 C1602.98,243.894 1631.72,262.7132 1651.92,277.7323 " fill="none" id="User-to-Temperature" style="stroke:#A80036;stroke-width:1.0;"/><polygon fill="#A80036" points="1656.09,280.8749,1651.295,272.2721,1652.0918,277.8726,1646.4913,278.6693,1656.09,280.8749" style="stroke:#A80036;stroke-width:1.0;"/><text fill="#000000" font-family="sans-serif" font-size="13" lengthAdjust="spacing" textLength="47" x="1609.5" y="247.0669">receive</text><!--MD5=[4cdcf10824a5a72470989197280b3f5e]
link User to Material--><path codeLine="82" d="M1137.46,117.678 C1062.13,138.529 879.239,189.42 726.5,234 C656.989,254.2885 638.518,256.1612 570.5,281 C566.455,282.477 562.248,284.1333 558.109,285.836 " fill="none" id="User-to-Material" style="stroke:#A80036;stroke-width:1.0;"/><polygon fill="#A80036" points="553.295,287.8482,563.1414,288.0673,557.9081,285.9196,560.0557,280.6863,553.295,287.8482" style="stroke:#A80036;stroke-width:1.0;"/><text fill="#000000" font-family="sans-serif" font-size="13" lengthAdjust="spacing" textLength="44" x="727.5" y="247.0669">access</text><!--MD5=[63575b7639e7bb215994c7c107a504cd]
link Admin to Contents--><path codeLine="83" d="M161.462,152.018 C140.278,176.078 113.744,206.5 90.5,234 C78.6508,248.0189 65.6129,263.9397 55.3169,276.6318 " fill="none" id="Admin-to-Contents" style="stroke:#A80036;stroke-width:1.0;"/><polygon fill="#A80036" points="51.9361,280.8049,60.7096,276.3298,55.0836,276.9199,54.4935,271.2939,51.9361,280.8049" style="stroke:#A80036;stroke-width:1.0;"/><text fill="#000000" font-family="sans-serif" font-size="13" lengthAdjust="spacing" textLength="40" x="91.5" y="247.0669">delete</text><!--MD5=[552385275cc74c32a9251f1f94479a39]
link User to Quiz--><path codeLine="84" d="M1137.26,115.809 C1051.91,134.846 827.412,185.636 641.5,234 C563.265,254.3525 471.112,281.3642 430.081,293.5507 " fill="none" id="User-to-Quiz" style="stroke:#A80036;stroke-width:1.0;"/><polygon fill="#A80036" points="425.102,295.0313,434.8689,296.299,429.8944,293.6056,432.5878,288.6311,425.102,295.0313" style="stroke:#A80036;stroke-width:1.0;"/><text fill="#000000" font-family="sans-serif" font-size="13" lengthAdjust="spacing" textLength="16" x="642.5" y="247.0669">do</text><!--MD5=[3b3a110f6aeec0a0bf442c01daca6c1c]
link User to Profile--><path codeLine="86" d="M1161,204.154 C1161.76,220.12 1164.25,236.2636 1169.5,251 C1172.8,260.2518 1178.67,269.0198 1184.92,276.5128 " fill="none" id="User-to-Profile" style="stroke:#A80036;stroke-width:1.0;"/><polygon fill="#A80036" points="1188.42,280.5394,1185.5343,271.1228,1185.1397,276.7658,1179.4966,276.3712,1188.42,280.5394" style="stroke:#A80036;stroke-width:1.0;"/><text fill="#000000" font-family="sans-serif" font-size="13" lengthAdjust="spacing" textLength="41" x="1170.5" y="247.0669">create</text><!--MD5=[9b9d7c946b7ba98c15f6bc532b353531]
link User to Sign--><path codeLine="87" d="M1137.21,124.145 C1085.78,147.77 987.362,193.369 904.5,234 C863.274,254.2151 852.992,259.3525 812.5,281 C808.208,283.2944 803.643,285.8003 799.296,288.2176 " fill="none" id="User-to-Sign" style="stroke:#A80036;stroke-width:1.0;"/><polygon fill="#A80036" points="794.689,290.7916,804.4969,289.8942,799.054,288.353,800.5952,282.9101,794.689,290.7916" style="stroke:#A80036;stroke-width:1.0;"/><text fill="#000000" font-family="sans-serif" font-size="13" lengthAdjust="spacing" textLength="48" x="905.5" y="247.0669">identify</text><!--MD5=[d18a4d054d286cfcd5e9dc39bb2838cd]
link User to Video--><path codeLine="88" d="M1137.39,113.816 C1040.77,130.064 763.009,178.407 535.5,234 C462.05,251.9477 376.748,278.4181 335.071,291.7237 " fill="none" id="User-to-Video" style="stroke:#A80036;stroke-width:1.0;"/><polygon fill="#A80036" points="330.209,293.2796,340,294.3456,334.971,291.7554,337.5612,286.7264,330.209,293.2796" style="stroke:#A80036;stroke-width:1.0;"/><text fill="#000000" font-family="sans-serif" font-size="13" lengthAdjust="spacing" textLength="39" x="536.5" y="247.0669">watch</text><!--MD5=[81d29a4c66039ff4d8db2e85a0c433a3]
link User to Location--><path codeLine="89" d="M1207.75,144.363 C1230.83,165.698 1262.87,190.956 1296.5,204 C1449.91,263.4951 1508.01,186.358 1665.5,234 C1697.43,243.6594 1730.34,262.7442 1753.44,277.9171 " fill="none" id="User-to-Location" style="stroke:#A80036;stroke-width:1.0;"/><polygon fill="#A80036" points="1757.63,280.7015,1752.3522,272.3862,1753.467,277.9321,1747.9211,279.0469,1757.63,280.7015" style="stroke:#A80036;stroke-width:1.0;"/><text fill="#000000" font-family="sans-serif" font-size="13" lengthAdjust="spacing" textLength="36" x="1708.5" y="247.0669">share</text><!--MD5=[ad8b54e37159f501f86126b68a5588a9]
link Admin to Quiz--><path codeLine="90" d="M239.623,144.114 C283.613,184.72 353.386,249.1254 387.846,280.9351 " fill="none" id="Admin-to-Quiz" style="stroke:#A80036;stroke-width:1.0;"/><polygon fill="#A80036" points="391.87,284.649,387.9698,275.6053,388.1959,281.2576,382.5436,281.4838,391.87,284.649" style="stroke:#A80036;stroke-width:1.0;"/><text fill="#000000" font-family="sans-serif" font-size="13" lengthAdjust="spacing" textLength="41" x="354.5" y="247.0669">create</text><!--MD5=[b05550a2684873da44e003058428a5a5]
@startuml
hide circle
class User<actor> {
}
class Admin<actor> {
}
class FarmManager<actor> {
}
class FarmContractor<actor> {
}
class User {
	receive()
	toggle()
	do()
	share()
	access()
	get()
	view()
	create()
	disable()
	watch()
	identify()
	change()
}
class Profile {
}
class Video {
}
class Information {
}
class Admin {
	upload()
	define()
	delete()
	create()
}
class Account {
}
class Checklist {
}
class Metric {
}
class Temperature {
}
class Contents {
}
class Quiz {
}
class Location {
}
class NotificationTone {
}
class Material {
}
class EmergencyContactList {
}
class Sign {
}
class TemperatureData {
}
class Display {
}
class Role {
}
class VibrationLevel {
}
class Content {
}
User - -> Information : get
User - -> TemperatureData : view
User - -> EmergencyContactList : create
User - -> Display : toggle
Admin - -> Video : upload
User - -> Account : disable
Admin - -> Role : define
User - -> Checklist : create
User - -> VibrationLevel : change
User - -> User : create
Admin - -> Content : create
User - -> Metric : create
User - -> NotificationTone : change
User - -> Temperature : receive
User - -> Material : access
Admin - -> Contents : delete
User - -> Quiz : do
User - -> Information : receive
User - -> Profile : create
User - -> Sign : identify
User - -> Video : watch
User - -> Location : share
Admin - -> Quiz : create
@enduml

PlantUML version 1.2021.6beta6(Unknown compile time)
(GPL source distribution)
Java Runtime: Java(TM) SE Runtime Environment
JVM: Java HotSpot(TM) 64-Bit Server VM
Default Encoding: UTF-8
Language: en
Country: US
--></g></svg>