<?xml version="1.0" encoding="UTF-8" standalone="no"?><svg xmlns="http://www.w3.org/2000/svg" xmlns:xlink="http://www.w3.org/1999/xlink" contentScriptType="application/ecmascript" contentStyleType="text/css" height="295px" preserveAspectRatio="none" style="width:1114px;height:295px;background:#FFFFFF;" version="1.1" viewBox="0 0 1114 295" width="1114px" zoomAndPan="magnify"><defs><filter height="300%" id="f1czvlirs2bnuz" width="300%" x="-1" y="-1"><feGaussianBlur result="blurOut" stdDeviation="2.0"/><feColorMatrix in="blurOut" result="blurOut2" type="matrix" values="0 0 0 0 0 0 0 0 0 0 0 0 0 0 0 0 0 0 .4 0"/><feOffset dx="4.0" dy="4.0" in="blurOut2" result="blurOut3"/><feBlend in="SourceGraphic" in2="blurOut3" mode="normal"/></filter></defs><g><!--MD5=[3fd616f346a44cd59a91eb10b19e157c]
class User--><rect codeLine="4" fill="#FEFECE" filter="url(#f1czvlirs2bnuz)" height="155.2109" id="User" style="stroke:#A80036;stroke-width:1.5;" width="83" x="481.6571" y="10"/><text fill="#000000" font-family="sans-serif" font-size="12" lengthAdjust="spacing" textLength="29" x="491.1571" y="26.1387">User</text><rect fill="#FFFFFF" height="15.9688" style="stroke:#000000;stroke-width:1.0;stroke-dasharray:2.0,2.0;" width="33" x="534.6571" y="7"/><text fill="#000000" font-family="sans-serif" font-size="12" font-style="italic" lengthAdjust="spacing" textLength="31" x="535.6571" y="19.1387">actor</text><line style="stroke:#A80036;stroke-width:1.5;" x1="482.6571" x2="563.6571" y1="33.9688" y2="33.9688"/><line style="stroke:#A80036;stroke-width:1.5;" x1="482.6571" x2="563.6571" y1="41.9688" y2="41.9688"/><text fill="#000000" font-family="sans-serif" font-size="11" lengthAdjust="spacing" textLength="47" x="487.6571" y="56.1792">access()</text><text fill="#000000" font-family="sans-serif" font-size="11" lengthAdjust="spacing" textLength="71" x="487.6571" y="68.9839">fastforward()</text><text fill="#000000" font-family="sans-serif" font-size="11" lengthAdjust="spacing" textLength="32" x="487.6571" y="81.7886">click()</text><text fill="#000000" font-family="sans-serif" font-size="11" lengthAdjust="spacing" textLength="26" x="487.6571" y="94.5933">run()</text><text fill="#000000" font-family="sans-serif" font-size="11" lengthAdjust="spacing" textLength="30" x="487.6571" y="107.3979">see()</text><text fill="#000000" font-family="sans-serif" font-size="11" lengthAdjust="spacing" textLength="60" x="487.6571" y="120.2026">consume()</text><text fill="#000000" font-family="sans-serif" font-size="11" lengthAdjust="spacing" textLength="30" x="487.6571" y="133.0073">pick()</text><text fill="#000000" font-family="sans-serif" font-size="11" lengthAdjust="spacing" textLength="35" x="487.6571" y="145.812">view()</text><text fill="#000000" font-family="sans-serif" font-size="11" lengthAdjust="spacing" textLength="32" x="487.6571" y="158.6167">play()</text><!--MD5=[f9fadfa5a66b7e5a67b370cd443ffe52]
class Answer--><rect codeLine="15" fill="#FEFECE" filter="url(#f1czvlirs2bnuz)" height="39.9688" id="Answer" style="stroke:#A80036;stroke-width:1.5;" width="51" x="15.6576" y="242"/><text fill="#000000" font-family="sans-serif" font-size="12" lengthAdjust="spacing" textLength="45" x="18.6576" y="258.1387">Answer</text><line style="stroke:#A80036;stroke-width:1.5;" x1="16.6576" x2="65.6576" y1="265.9688" y2="265.9688"/><line style="stroke:#A80036;stroke-width:1.5;" x1="16.6576" x2="65.6576" y1="273.9688" y2="273.9688"/><!--MD5=[90d32ccc189f11441a6ce7cbb63ad387]
class Material--><rect codeLine="17" fill="#FEFECE" filter="url(#f1czvlirs2bnuz)" height="39.9688" id="Material" style="stroke:#A80036;stroke-width:1.5;" width="53" x="124.6571" y="242"/><text fill="#000000" font-family="sans-serif" font-size="12" lengthAdjust="spacing" textLength="47" x="127.6571" y="258.1387">Material</text><line style="stroke:#A80036;stroke-width:1.5;" x1="125.6571" x2="176.6571" y1="265.9688" y2="265.9688"/><line style="stroke:#A80036;stroke-width:1.5;" x1="125.6571" x2="176.6571" y1="273.9688" y2="273.9688"/><!--MD5=[166247bf81aba95c770c3b8fd8e3cb19]
class Video--><rect codeLine="19" fill="#FEFECE" filter="url(#f1czvlirs2bnuz)" height="39.9688" id="Video" style="stroke:#A80036;stroke-width:1.5;" width="41" x="273.6571" y="242"/><text fill="#000000" font-family="sans-serif" font-size="12" lengthAdjust="spacing" textLength="35" x="276.6571" y="258.1387">Video</text><line style="stroke:#A80036;stroke-width:1.5;" x1="274.6571" x2="313.6571" y1="265.9688" y2="265.9688"/><line style="stroke:#A80036;stroke-width:1.5;" x1="274.6571" x2="313.6571" y1="273.9688" y2="273.9688"/><!--MD5=[335f4d9be48430461c68bf6d6fdba145]
class App--><rect codeLine="21" fill="#FEFECE" filter="url(#f1czvlirs2bnuz)" height="39.9688" id="App" style="stroke:#A80036;stroke-width:1.5;" width="30" x="439.1571" y="242"/><text fill="#000000" font-family="sans-serif" font-size="12" lengthAdjust="spacing" textLength="24" x="442.1571" y="258.1387">App</text><line style="stroke:#A80036;stroke-width:1.5;" x1="440.1571" x2="468.1571" y1="265.9688" y2="265.9688"/><line style="stroke:#A80036;stroke-width:1.5;" x1="440.1571" x2="468.1571" y1="273.9688" y2="273.9688"/><!--MD5=[4e8cc7bbb60dc5d148cf8b942067baf3]
class Audio--><rect codeLine="23" fill="#FEFECE" filter="url(#f1czvlirs2bnuz)" height="39.9688" id="Audio" style="stroke:#A80036;stroke-width:1.5;" width="40" x="586.1571" y="242"/><text fill="#000000" font-family="sans-serif" font-size="12" lengthAdjust="spacing" textLength="34" x="589.1571" y="258.1387">Audio</text><line style="stroke:#A80036;stroke-width:1.5;" x1="587.1571" x2="625.1571" y1="265.9688" y2="265.9688"/><line style="stroke:#A80036;stroke-width:1.5;" x1="587.1571" x2="625.1571" y1="273.9688" y2="273.9688"/><!--MD5=[74dd7696bc3d7daafda827804fd2eb18]
class GirlBill--><rect codeLine="25" fill="#FEFECE" filter="url(#f1czvlirs2bnuz)" height="39.9688" id="GirlBill" style="stroke:#A80036;stroke-width:1.5;" width="43" x="716.6571" y="242"/><text fill="#000000" font-family="sans-serif" font-size="12" lengthAdjust="spacing" textLength="37" x="719.6571" y="258.1387">GirlBill</text><line style="stroke:#A80036;stroke-width:1.5;" x1="717.6571" x2="758.6571" y1="265.9688" y2="265.9688"/><line style="stroke:#A80036;stroke-width:1.5;" x1="717.6571" x2="758.6571" y1="273.9688" y2="273.9688"/><!--MD5=[fe44d2de35484da81c87c3358934bea0]
class inline--><rect codeLine="27" fill="#FEFECE" filter="url(#f1czvlirs2bnuz)" height="39.9688" id="inline" style="stroke:#A80036;stroke-width:1.5;" width="37" x="794.6571" y="242"/><text fill="#000000" font-family="sans-serif" font-size="12" lengthAdjust="spacing" textLength="31" x="797.6571" y="258.1387">inline</text><line style="stroke:#A80036;stroke-width:1.5;" x1="795.6571" x2="830.6571" y1="265.9688" y2="265.9688"/><line style="stroke:#A80036;stroke-width:1.5;" x1="795.6571" x2="830.6571" y1="273.9688" y2="273.9688"/><!--MD5=[6a494c20d032ff54e1efa92c1369bc7b]
class Page--><rect codeLine="29" fill="#FEFECE" filter="url(#f1czvlirs2bnuz)" height="39.9688" id="Page" style="stroke:#A80036;stroke-width:1.5;" width="35" x="881.6571" y="242"/><text fill="#000000" font-family="sans-serif" font-size="12" lengthAdjust="spacing" textLength="29" x="884.6571" y="258.1387">Page</text><line style="stroke:#A80036;stroke-width:1.5;" x1="882.6571" x2="915.6571" y1="265.9688" y2="265.9688"/><line style="stroke:#A80036;stroke-width:1.5;" x1="882.6571" x2="915.6571" y1="273.9688" y2="273.9688"/><!--MD5=[176ddbab19d1d342850731f834e9f12e]
class TextContents--><rect codeLine="31" fill="#FEFECE" filter="url(#f1czvlirs2bnuz)" height="39.9688" id="TextContents" style="stroke:#A80036;stroke-width:1.5;" width="85" x="951.6571" y="242"/><text fill="#000000" font-family="sans-serif" font-size="12" lengthAdjust="spacing" textLength="79" x="954.6571" y="258.1387">TextContents</text><line style="stroke:#A80036;stroke-width:1.5;" x1="952.6571" x2="1035.6571" y1="265.9688" y2="265.9688"/><line style="stroke:#A80036;stroke-width:1.5;" x1="952.6571" x2="1035.6571" y1="273.9688" y2="273.9688"/><!--MD5=[1f3313e11f52906bc19153de0f738949]
class Hint--><rect codeLine="33" fill="#FEFECE" filter="url(#f1czvlirs2bnuz)" height="39.9688" id="Hint" style="stroke:#A80036;stroke-width:1.5;" width="29" x="1071.6541" y="242"/><text fill="#000000" font-family="sans-serif" font-size="12" lengthAdjust="spacing" textLength="23" x="1074.6541" y="258.1387">Hint</text><line style="stroke:#A80036;stroke-width:1.5;" x1="1072.6541" x2="1099.6541" y1="265.9688" y2="265.9688"/><line style="stroke:#A80036;stroke-width:1.5;" x1="1072.6541" x2="1099.6541" y1="273.9688" y2="273.9688"/><!--MD5=[0214f9738810ef8e203a2a515b7b8642]
link User to App--><path codeLine="35" d="M481.4471,118.414 C458.6561,137.437 432.5991,164.239 420.1571,195 C413.3691,211.7846 424.2671,230.0208 435.4861,243.062 " fill="none" id="User-to-App" style="stroke:#A80036;stroke-width:1.0;"/><polygon fill="#A80036" points="438.9591,246.9352,435.9291,237.564,435.6212,243.2125,429.9728,242.9046,438.9591,246.9352" style="stroke:#A80036;stroke-width:1.0;"/><text fill="#000000" font-family="sans-serif" font-size="13" lengthAdjust="spacing" textLength="27" x="421.1571" y="208.0669">click</text><!--MD5=[0214f9738810ef8e203a2a515b7b8642]
link User to App--><path codeLine="38" d="M492.4911,165.166 C482.1611,190.9917 471.3661,217.9784 463.8741,236.7087 " fill="none" id="User-to-App-1" style="stroke:#A80036;stroke-width:1.0;"/><polygon fill="#A80036" points="461.8521,241.7649,468.9091,234.8947,463.7094,237.1227,461.4815,231.923,461.8521,241.7649" style="stroke:#A80036;stroke-width:1.0;"/><text fill="#000000" font-family="sans-serif" font-size="13" lengthAdjust="spacing" textLength="21" x="482.1571" y="208.0669">run</text><!--MD5=[c8c314011fafa3762ec5b219138322f9]
link User to Answer--><path codeLine="36" d="M481.3931,90.743 C370.8191,97.64 74.8982,122.638 16.1576,195 C6.2362,207.222 12.5698,223.7996 21.3417,237.2826 " fill="none" id="User-to-Answer" style="stroke:#A80036;stroke-width:1.0;"/><polygon fill="#A80036" points="24.39,241.7258,22.5967,232.0416,21.5613,237.6029,16,236.5675,24.39,241.7258" style="stroke:#A80036;stroke-width:1.0;"/><text fill="#000000" font-family="sans-serif" font-size="13" lengthAdjust="spacing" textLength="23" x="17.1576" y="208.0669">see</text><!--MD5=[c8c314011fafa3762ec5b219138322f9]
link User to Answer--><path codeLine="41" d="M481.4881,94.544 C407.7111,106.367 250.5411,136.646 130.1571,195 C106.8595,206.2934 83.4582,223.9554 66.5024,238.1676 " fill="none" id="User-to-Answer-1" style="stroke:#A80036;stroke-width:1.0;"/><polygon fill="#A80036" points="62.3344,241.7005,71.7863,238.9324,66.1485,238.4675,66.6135,232.8298,62.3344,241.7005" style="stroke:#A80036;stroke-width:1.0;"/><text fill="#000000" font-family="sans-serif" font-size="13" lengthAdjust="spacing" textLength="25" x="131.1571" y="208.0669">pick</text><!--MD5=[1d45fc73ae1cfdb8a3164d474df586e1]
link User to Audio--><path codeLine="37" d="M533.5771,165.066 C537.8151,181.274 543.7751,197.7671 552.1571,212 C559.5871,224.6149 571.3251,235.8321 581.9611,244.34 " fill="none" id="User-to-Audio" style="stroke:#A80036;stroke-width:1.0;"/><polygon fill="#A80036" points="586.1261,247.5818,581.4792,238.8981,582.1799,244.5114,576.5666,245.2121,586.1261,247.5818" style="stroke:#A80036;stroke-width:1.0;"/><text fill="#000000" font-family="sans-serif" font-size="13" lengthAdjust="spacing" textLength="75" x="553.1571" y="208.0669">fastforward</text><!--MD5=[1d45fc73ae1cfdb8a3164d474df586e1]
link User to Audio--><path codeLine="43" d="M564.8251,115.663 C589.7741,134.561 619.2611,162.204 633.1571,195 C639.0941,209.0101 633.1071,224.7805 625.2771,237.3917 " fill="none" id="User-to-Audio-1" style="stroke:#A80036;stroke-width:1.0;"/><polygon fill="#A80036" points="622.3271,241.8859,630.6086,236.5552,625.0699,237.7054,623.9198,232.1667,622.3271,241.8859" style="stroke:#A80036;stroke-width:1.0;"/><text fill="#000000" font-family="sans-serif" font-size="13" lengthAdjust="spacing" textLength="27" x="637.1571" y="208.0669">play</text><!--MD5=[4cdcf10824a5a72470989197280b3f5e]
link User to Material--><path codeLine="39" d="M481.5241,90.037 C410.2011,94.858 263.9651,114.606 177.1571,195 C165.3281,205.9557 158.7981,222.9675 155.2411,236.9757 " fill="none" id="User-to-Material" style="stroke:#A80036;stroke-width:1.0;"/><polygon fill="#A80036" points="154.0601,241.9839,160.0179,234.1414,155.207,237.1172,152.2312,232.3064,154.0601,241.9839" style="stroke:#A80036;stroke-width:1.0;"/><text fill="#000000" font-family="sans-serif" font-size="13" lengthAdjust="spacing" textLength="44" x="178.1571" y="208.0669">access</text><!--MD5=[0c7374fe5beb2c38ea2e997a106d5d1c]
link User to TextContents--><path codeLine="40" d="M564.8221,97.067 C633.4661,111.986 773.8151,145.905 885.1571,195 C912.5591,207.0824 941.4601,224.8417 962.6121,238.8956 " fill="none" id="User-to-TextContents" style="stroke:#A80036;stroke-width:1.0;"/><polygon fill="#A80036" points="967.0051,241.8349,961.7508,233.5047,962.85,239.0538,957.3009,240.153,967.0051,241.8349" style="stroke:#A80036;stroke-width:1.0;"/><text fill="#000000" font-family="sans-serif" font-size="13" lengthAdjust="spacing" textLength="44" x="918.1571" y="208.0669">access</text><!--MD5=[78cc9034904310e033e380ab4ab9e2eb]
link User to inline--><path codeLine="42" d="M564.9691,107.693 C607.0511,127.613 673.2661,160.62 727.1571,195 C749.5371,209.277 773.3621,227.8569 790.2471,241.6642 " fill="none" id="User-to-inline" style="stroke:#A80036;stroke-width:1.0;"/><polygon fill="#A80036" points="794.3841,245.0661,789.9728,236.2604,790.522,241.8905,784.8919,242.4398,794.3841,245.0661" style="stroke:#A80036;stroke-width:1.0;"/><text fill="#000000" font-family="sans-serif" font-size="13" lengthAdjust="spacing" textLength="59" x="753.1571" y="208.0669">consume</text><!--MD5=[d18a4d054d286cfcd5e9dc39bb2838cd]
link User to Video--><path codeLine="44" d="M481.5891,89.825 C416.1261,94.424 290.6591,113.963 234.1571,195 C220.1011,215.1606 246.5351,235.691 268.6571,248.3838 " fill="none" id="User-to-Video" style="stroke:#A80036;stroke-width:1.0;"/><polygon fill="#A80036" points="273.2961,250.9704,267.3844,243.0931,268.9294,248.5349,263.4876,250.0799,273.2961,250.9704" style="stroke:#A80036;stroke-width:1.0;"/><text fill="#000000" font-family="sans-serif" font-size="13" lengthAdjust="spacing" textLength="75" x="235.1571" y="208.0669">fastforward</text><!--MD5=[d18a4d054d286cfcd5e9dc39bb2838cd]
link User to Video--><path codeLine="45" d="M481.4821,119.663 C453.1601,140.863 414.8621,169.577 381.1571,195 C360.2281,210.7873 336.5251,228.7763 319.1511,241.9822 " fill="none" id="User-to-Video-1" style="stroke:#A80036;stroke-width:1.0;"/><polygon fill="#A80036" points="314.8761,245.2323,324.4616,242.9701,318.8566,242.2064,319.6203,236.6014,314.8761,245.2323" style="stroke:#A80036;stroke-width:1.0;"/><text fill="#000000" font-family="sans-serif" font-size="13" lengthAdjust="spacing" textLength="27" x="382.1571" y="208.0669">play</text><!--MD5=[970cac591fccbf7a9f15ccd0a38b4219]
link User to Page--><path codeLine="46" d="M564.6921,98.283 C624.2041,113.395 735.9471,145.901 821.1571,195 C842.1281,207.0834 862.9011,225.0339 877.7311,239.1654 " fill="none" id="User-to-Page" style="stroke:#A80036;stroke-width:1.0;"/><polygon fill="#A80036" points="881.3691,242.67,877.6615,233.5457,877.7678,239.2015,872.1119,239.3078,881.3691,242.67" style="stroke:#A80036;stroke-width:1.0;"/><text fill="#000000" font-family="sans-serif" font-size="13" lengthAdjust="spacing" textLength="30" x="846.1571" y="208.0669">view</text><!--MD5=[114a8f93752252f8bc59a69343581589]
link User to GirlBill--><path codeLine="47" d="M564.7061,115.128 C595.6521,135.634 638.3801,165.396 673.1571,195 C688.8061,208.3206 705.0271,224.787 717.3511,237.94 " fill="none" id="User-to-GirlBill" style="stroke:#A80036;stroke-width:1.0;"/><polygon fill="#A80036" points="721.0451,241.9085,717.8407,232.5955,717.6383,238.2487,711.9851,238.0464,721.0451,241.9085" style="stroke:#A80036;stroke-width:1.0;"/><text fill="#000000" font-family="sans-serif" font-size="13" lengthAdjust="spacing" textLength="27" x="691.1571" y="208.0669">click</text><!--MD5=[303c9b9d3701436fb42aa14a6cb527a8]
link User to Hint--><path codeLine="48" d="M564.7941,94.377 C645.3711,106.618 827.3611,138.511 971.1571,195 C1007.1131,209.1246 1045.3441,233.0917 1067.4241,247.9282 " fill="none" id="User-to-Hint" style="stroke:#A80036;stroke-width:1.0;"/><polygon fill="#A80036" points="1071.6141,250.7681,1066.3998,242.4128,1067.4724,247.967,1061.9181,249.0395,1071.6141,250.7681" style="stroke:#A80036;stroke-width:1.0;"/><text fill="#000000" font-family="sans-serif" font-size="13" lengthAdjust="spacing" textLength="23" x="1009.1571" y="208.0669">see</text><!--MD5=[676b12a6b5f02ba8dafc9ae1be8df430]
@startuml
hide circle
class User<actor> {
}
class User {
	access()
	fastforward()
	click()
	run()
	see()
	consume()
	pick()
	view()
	play()
}
class Answer {
}
class Material {
}
class Video {
}
class App {
}
class Audio {
}
class GirlBill {
}
class inline {
}
class Page {
}
class TextContents {
}
class Hint {
}
User - -> App : click
User - -> Answer : see
User - -> Audio : fastforward
User - -> App : run
User - -> Material : access
User - -> TextContents : access
User - -> Answer : pick
User - -> inline : consume
User - -> Audio : play
User - -> Video : fastforward
User - -> Video : play
User - -> Page : view
User - -> GirlBill : click
User - -> Hint : see
@enduml

PlantUML version 1.2021.6beta6(Unknown compile time)
(GPL source distribution)
Java Runtime: Java(TM) SE Runtime Environment
JVM: Java HotSpot(TM) 64-Bit Server VM
Default Encoding: UTF-8
Language: en
Country: US
--></g></svg>