<?xml version="1.0" encoding="UTF-8" standalone="no"?><svg xmlns="http://www.w3.org/2000/svg" xmlns:xlink="http://www.w3.org/1999/xlink" contentScriptType="application/ecmascript" contentStyleType="text/css" height="566px" preserveAspectRatio="none" style="width:2931px;height:566px;background:#FFFFFF;" version="1.1" viewBox="0 0 2931 566" width="2931px" zoomAndPan="magnify"><defs><filter height="300%" id="f61v0pgxr4eqe" width="300%" x="-1" y="-1"><feGaussianBlur result="blurOut" stdDeviation="2.0"/><feColorMatrix in="blurOut" result="blurOut2" type="matrix" values="0 0 0 0 0 0 0 0 0 0 0 0 0 0 0 0 0 0 .4 0"/><feOffset dx="4.0" dy="4.0" in="blurOut2" result="blurOut3"/><feBlend in="SourceGraphic" in2="blurOut3" mode="normal"/></filter></defs><g><!--MD5=[dc30b613f1e19857666fe974d6d5a9b4]
class Youth--><rect codeLine="51" fill="#FEFECE" filter="url(#f61v0pgxr4eqe)" height="155.2109" id="Youth" style="stroke:#A80036;stroke-width:1.5;" width="88" x="291.5" y="10"/><text fill="#000000" font-family="sans-serif" font-size="12" lengthAdjust="spacing" textLength="33" x="301.5" y="26.1387">Youth</text><rect fill="#FFFFFF" height="15.9688" style="stroke:#000000;stroke-width:1.0;stroke-dasharray:2.0,2.0;" width="33" x="349.5" y="7"/><text fill="#000000" font-family="sans-serif" font-size="12" font-style="italic" lengthAdjust="spacing" textLength="31" x="350.5" y="19.1387">actor</text><line style="stroke:#A80036;stroke-width:1.5;" x1="292.5" x2="378.5" y1="33.9688" y2="33.9688"/><text fill="#000000" font-family="sans-serif" font-size="11" lengthAdjust="spacing" textLength="36" x="297.5" y="48.1792">profile</text><text fill="#000000" font-family="sans-serif" font-size="11" lengthAdjust="spacing" textLength="76" x="297.5" y="60.9839">caseManager</text><text fill="#000000" font-family="sans-serif" font-size="11" lengthAdjust="spacing" textLength="53" x="297.5" y="73.7886">feedback</text><text fill="#000000" font-family="sans-serif" font-size="11" lengthAdjust="spacing" textLength="27" x="297.5" y="86.5933">case</text><text fill="#000000" font-family="sans-serif" font-size="11" lengthAdjust="spacing" textLength="39" x="297.5" y="99.3979">survey</text><line style="stroke:#A80036;stroke-width:1.5;" x1="292.5" x2="378.5" y1="105.9922" y2="105.9922"/><text fill="#000000" font-family="sans-serif" font-size="11" lengthAdjust="spacing" textLength="33" x="297.5" y="120.2026">take()</text><text fill="#000000" font-family="sans-serif" font-size="11" lengthAdjust="spacing" textLength="49" x="297.5" y="133.0073">contact()</text><text fill="#000000" font-family="sans-serif" font-size="11" lengthAdjust="spacing" textLength="51" x="297.5" y="145.812">provide()</text><text fill="#000000" font-family="sans-serif" font-size="11" lengthAdjust="spacing" textLength="35" x="297.5" y="158.6167">view()</text><!--MD5=[70aa74288b4705a51315db4e0d6b3cbb]
class CaseManager--><rect codeLine="92" fill="#FEFECE" filter="url(#f61v0pgxr4eqe)" height="65.5781" id="CaseManager" style="stroke:#A80036;stroke-width:1.5;" width="123" x="2281" y="54.5"/><text fill="#000000" font-family="sans-serif" font-size="12" lengthAdjust="spacing" textLength="82" x="2284" y="70.6387">CaseManager</text><rect fill="#FFFFFF" height="15.9688" style="stroke:#000000;stroke-width:1.0;stroke-dasharray:2.0,2.0;" width="33" x="2374" y="51.5"/><text fill="#000000" font-family="sans-serif" font-size="12" font-style="italic" lengthAdjust="spacing" textLength="31" x="2375" y="63.6387">actor</text><line style="stroke:#A80036;stroke-width:1.5;" x1="2282" x2="2403" y1="78.4688" y2="78.4688"/><text fill="#000000" font-family="sans-serif" font-size="11" lengthAdjust="spacing" textLength="32" x="2287" y="92.6792">youth</text><text fill="#000000" font-family="sans-serif" font-size="11" lengthAdjust="spacing" textLength="27" x="2287" y="105.4839">case</text><line style="stroke:#A80036;stroke-width:1.5;" x1="2282" x2="2403" y1="112.0781" y2="112.0781"/><!--MD5=[da547346deef918ea16944ba046651ef]
class Administrator--><rect codeLine="38" fill="#FEFECE" filter="url(#f61v0pgxr4eqe)" height="180.8203" id="Administrator" style="stroke:#A80036;stroke-width:1.5;" width="121" x="1807" y="242"/><text fill="#000000" font-family="sans-serif" font-size="12" lengthAdjust="spacing" textLength="80" x="1810" y="258.1387">Administrator</text><rect fill="#FFFFFF" height="15.9688" style="stroke:#000000;stroke-width:1.0;stroke-dasharray:2.0,2.0;" width="33" x="1898" y="239"/><text fill="#000000" font-family="sans-serif" font-size="12" font-style="italic" lengthAdjust="spacing" textLength="31" x="1899" y="251.1387">actor</text><line style="stroke:#A80036;stroke-width:1.5;" x1="1808" x2="1927" y1="265.9688" y2="265.9688"/><line style="stroke:#A80036;stroke-width:1.5;" x1="1808" x2="1927" y1="273.9688" y2="273.9688"/><text fill="#000000" font-family="sans-serif" font-size="11" lengthAdjust="spacing" textLength="52" x="1813" y="288.1792">transfer()</text><text fill="#000000" font-family="sans-serif" font-size="11" lengthAdjust="spacing" textLength="55" x="1813" y="300.9839">manage()</text><text fill="#000000" font-family="sans-serif" font-size="11" lengthAdjust="spacing" textLength="60" x="1813" y="313.7886">send_out()</text><text fill="#000000" font-family="sans-serif" font-size="11" lengthAdjust="spacing" textLength="30" x="1813" y="326.5933">see()</text><text fill="#000000" font-family="sans-serif" font-size="11" lengthAdjust="spacing" textLength="45" x="1813" y="339.3979">create()</text><text fill="#000000" font-family="sans-serif" font-size="11" lengthAdjust="spacing" textLength="45" x="1813" y="352.2026">export()</text><text fill="#000000" font-family="sans-serif" font-size="11" lengthAdjust="spacing" textLength="46" x="1813" y="365.0073">delete()</text><text fill="#000000" font-family="sans-serif" font-size="11" lengthAdjust="spacing" textLength="35" x="1813" y="377.812">view()</text><text fill="#000000" font-family="sans-serif" font-size="11" lengthAdjust="spacing" textLength="47" x="1813" y="390.6167">modify()</text><text fill="#000000" font-family="sans-serif" font-size="11" lengthAdjust="spacing" textLength="29" x="1813" y="403.4214">add()</text><text fill="#000000" font-family="sans-serif" font-size="11" lengthAdjust="spacing" textLength="40" x="1813" y="416.2261">make()</text><!--MD5=[3fd616f346a44cd59a91eb10b19e157c]
class User--><rect codeLine="78" fill="#FEFECE" filter="url(#f61v0pgxr4eqe)" height="103.9922" id="User" style="stroke:#A80036;stroke-width:1.5;" width="103" x="2741" y="35.5"/><text fill="#000000" font-family="sans-serif" font-size="12" lengthAdjust="spacing" textLength="29" x="2760.5" y="51.6387">User</text><rect fill="#FFFFFF" height="15.9688" style="stroke:#000000;stroke-width:1.0;stroke-dasharray:2.0,2.0;" width="33" x="2814" y="32.5"/><text fill="#000000" font-family="sans-serif" font-size="12" font-style="italic" lengthAdjust="spacing" textLength="31" x="2815" y="44.6387">actor</text><line style="stroke:#A80036;stroke-width:1.5;" x1="2742" x2="2843" y1="59.4688" y2="59.4688"/><text fill="#000000" font-family="sans-serif" font-size="11" lengthAdjust="spacing" textLength="36" x="2747" y="73.6792">record</text><text fill="#000000" font-family="sans-serif" font-size="11" lengthAdjust="spacing" textLength="91" x="2747" y="86.4839">loginInformation</text><line style="stroke:#A80036;stroke-width:1.5;" x1="2742" x2="2843" y1="93.0781" y2="93.0781"/><text fill="#000000" font-family="sans-serif" font-size="11" lengthAdjust="spacing" textLength="45" x="2747" y="107.2886">create()</text><text fill="#000000" font-family="sans-serif" font-size="11" lengthAdjust="spacing" textLength="52" x="2747" y="120.0933">recover()</text><text fill="#000000" font-family="sans-serif" font-size="11" lengthAdjust="spacing" textLength="49" x="2747" y="132.8979">answer()</text><!--MD5=[6081a303407aa0c0464c8b50c38f5612]
class Staff--><rect codeLine="89" fill="#FEFECE" filter="url(#f61v0pgxr4eqe)" height="52.7734" id="Staff" style="stroke:#A80036;stroke-width:1.5;" width="68" x="2545.5" y="306"/><text fill="#000000" font-family="sans-serif" font-size="12" lengthAdjust="spacing" textLength="27" x="2548.5" y="322.1387">Staff</text><rect fill="#FFFFFF" height="15.9688" style="stroke:#000000;stroke-width:1.0;stroke-dasharray:2.0,2.0;" width="33" x="2583.5" y="303"/><text fill="#000000" font-family="sans-serif" font-size="12" font-style="italic" lengthAdjust="spacing" textLength="31" x="2584.5" y="315.1387">actor</text><line style="stroke:#A80036;stroke-width:1.5;" x1="2546.5" x2="2612.5" y1="329.9688" y2="329.9688"/><line style="stroke:#A80036;stroke-width:1.5;" x1="2546.5" x2="2612.5" y1="337.9688" y2="337.9688"/><text fill="#000000" font-family="sans-serif" font-size="11" lengthAdjust="spacing" textLength="35" x="2551.5" y="352.1792">view()</text><!--MD5=[f9a29335b499db729be669fd1bd54958]
class Account--><rect codeLine="21" fill="#FEFECE" filter="url(#f61v0pgxr4eqe)" height="39.9688" id="Account" style="stroke:#A80036;stroke-width:1.5;" width="54" x="424.5" y="506.5"/><text fill="#000000" font-family="sans-serif" font-size="12" lengthAdjust="spacing" textLength="48" x="427.5" y="522.6387">Account</text><line style="stroke:#A80036;stroke-width:1.5;" x1="425.5" x2="477.5" y1="530.4688" y2="530.4688"/><line style="stroke:#A80036;stroke-width:1.5;" x1="425.5" x2="477.5" y1="538.4688" y2="538.4688"/><!--MD5=[b24ed8d4ae84bae9290d9aab401637c7]
class Manager--><rect codeLine="23" fill="#FEFECE" filter="url(#f61v0pgxr4eqe)" height="180.8203" id="Manager" style="stroke:#A80036;stroke-width:1.5;" width="81" x="699" y="242"/><text fill="#000000" font-family="sans-serif" font-size="12" lengthAdjust="spacing" textLength="52" x="713.5" y="258.1387">Manager</text><line style="stroke:#A80036;stroke-width:1.5;" x1="700" x2="779" y1="265.9688" y2="265.9688"/><line style="stroke:#A80036;stroke-width:1.5;" x1="700" x2="779" y1="273.9688" y2="273.9688"/><text fill="#000000" font-family="sans-serif" font-size="11" lengthAdjust="spacing" textLength="54" x="705" y="288.1792">activate()</text><text fill="#000000" font-family="sans-serif" font-size="11" lengthAdjust="spacing" textLength="55" x="705" y="300.9839">manage()</text><text fill="#000000" font-family="sans-serif" font-size="11" lengthAdjust="spacing" textLength="47" x="705" y="313.7886">review()</text><text fill="#000000" font-family="sans-serif" font-size="11" lengthAdjust="spacing" textLength="60" x="705" y="326.5933">send_out()</text><text fill="#000000" font-family="sans-serif" font-size="11" lengthAdjust="spacing" textLength="30" x="705" y="339.3979">see()</text><text fill="#000000" font-family="sans-serif" font-size="11" lengthAdjust="spacing" textLength="45" x="705" y="352.2026">create()</text><text fill="#000000" font-family="sans-serif" font-size="11" lengthAdjust="spacing" textLength="45" x="705" y="365.0073">export()</text><text fill="#000000" font-family="sans-serif" font-size="11" lengthAdjust="spacing" textLength="46" x="705" y="377.812">delete()</text><text fill="#000000" font-family="sans-serif" font-size="11" lengthAdjust="spacing" textLength="35" x="705" y="390.6167">view()</text><text fill="#000000" font-family="sans-serif" font-size="11" lengthAdjust="spacing" textLength="69" x="705" y="403.4214">deactivate()</text><text fill="#000000" font-family="sans-serif" font-size="11" lengthAdjust="spacing" textLength="29" x="705" y="416.2261">add()</text><!--MD5=[c881b25adf3665c6568c9693d41a70f3]
class Activity--><rect codeLine="36" fill="#FEFECE" filter="url(#f61v0pgxr4eqe)" height="39.9688" id="Activity" style="stroke:#A80036;stroke-width:1.5;" width="49" x="1573" y="506.5"/><text fill="#000000" font-family="sans-serif" font-size="12" lengthAdjust="spacing" textLength="43" x="1576" y="522.6387">Activity</text><line style="stroke:#A80036;stroke-width:1.5;" x1="1574" x2="1621" y1="530.4688" y2="530.4688"/><line style="stroke:#A80036;stroke-width:1.5;" x1="1574" x2="1621" y1="538.4688" y2="538.4688"/><!--MD5=[7b57f7066b803747d2119f99dd1555d4]
class Profile--><rect codeLine="57" fill="#FEFECE" filter="url(#f61v0pgxr4eqe)" height="39.9688" id="Profile" style="stroke:#A80036;stroke-width:1.5;" width="43" x="2000" y="506.5"/><text fill="#000000" font-family="sans-serif" font-size="12" lengthAdjust="spacing" textLength="37" x="2003" y="522.6387">Profile</text><line style="stroke:#A80036;stroke-width:1.5;" x1="2001" x2="2042" y1="530.4688" y2="530.4688"/><line style="stroke:#A80036;stroke-width:1.5;" x1="2001" x2="2042" y1="538.4688" y2="538.4688"/><!--MD5=[e8dcfdde5c6ce5239f59acd294696d72]
class Case--><rect codeLine="59" fill="#FEFECE" filter="url(#f61v0pgxr4eqe)" height="39.9688" id="Case" style="stroke:#A80036;stroke-width:1.5;" width="36" x="883.5" y="506.5"/><text fill="#000000" font-family="sans-serif" font-size="12" lengthAdjust="spacing" textLength="30" x="886.5" y="522.6387">Case</text><line style="stroke:#A80036;stroke-width:1.5;" x1="884.5" x2="918.5" y1="530.4688" y2="530.4688"/><line style="stroke:#A80036;stroke-width:1.5;" x1="884.5" x2="918.5" y1="538.4688" y2="538.4688"/><!--MD5=[63dd87716ef75a5caca5dce59428e94a]
class File--><rect codeLine="61" fill="#FEFECE" filter="url(#f61v0pgxr4eqe)" height="52.7734" id="File" style="stroke:#A80036;stroke-width:1.5;" width="59" x="7" y="500"/><text fill="#000000" font-family="sans-serif" font-size="12" lengthAdjust="spacing" textLength="21" x="26" y="516.1387">File</text><line style="stroke:#A80036;stroke-width:1.5;" x1="8" x2="65" y1="523.9688" y2="523.9688"/><line style="stroke:#A80036;stroke-width:1.5;" x1="8" x2="65" y1="531.9688" y2="531.9688"/><text fill="#000000" font-family="sans-serif" font-size="11" lengthAdjust="spacing" textLength="47" x="13" y="546.1792">belong()</text><!--MD5=[58a810081d5936703dfd7fe90a18b4f0]
class LogRecord--><rect codeLine="64" fill="#FEFECE" filter="url(#f61v0pgxr4eqe)" height="39.9688" id="LogRecord" style="stroke:#A80036;stroke-width:1.5;" width="71" x="2139" y="506.5"/><text fill="#000000" font-family="sans-serif" font-size="12" lengthAdjust="spacing" textLength="65" x="2142" y="522.6387">LogRecord</text><line style="stroke:#A80036;stroke-width:1.5;" x1="2140" x2="2209" y1="530.4688" y2="530.4688"/><line style="stroke:#A80036;stroke-width:1.5;" x1="2140" x2="2209" y1="538.4688" y2="538.4688"/><!--MD5=[1a502b0dbedafd291c48f46ef8646183]
class Feedback--><rect codeLine="66" fill="#FEFECE" filter="url(#f61v0pgxr4eqe)" height="39.9688" id="Feedback" style="stroke:#A80036;stroke-width:1.5;" width="66" x="134.5" y="506.5"/><text fill="#000000" font-family="sans-serif" font-size="12" lengthAdjust="spacing" textLength="60" x="137.5" y="522.6387">Feedback</text><line style="stroke:#A80036;stroke-width:1.5;" x1="135.5" x2="199.5" y1="530.4688" y2="530.4688"/><line style="stroke:#A80036;stroke-width:1.5;" x1="135.5" x2="199.5" y1="538.4688" y2="538.4688"/><!--MD5=[5c85d133e2c913f4b8608c8db253c015]
class Record--><rect codeLine="68" fill="#FEFECE" filter="url(#f61v0pgxr4eqe)" height="39.9688" id="Record" style="stroke:#A80036;stroke-width:1.5;" width="49" x="2407" y="506.5"/><text fill="#000000" font-family="sans-serif" font-size="12" lengthAdjust="spacing" textLength="43" x="2410" y="522.6387">Record</text><line style="stroke:#A80036;stroke-width:1.5;" x1="2408" x2="2455" y1="530.4688" y2="530.4688"/><line style="stroke:#A80036;stroke-width:1.5;" x1="2408" x2="2455" y1="538.4688" y2="538.4688"/><!--MD5=[59b530d44ae785dc18db921986a9c15c]
class Document--><rect codeLine="70" fill="#FEFECE" filter="url(#f61v0pgxr4eqe)" height="39.9688" id="Document" style="stroke:#A80036;stroke-width:1.5;" width="67" x="322" y="506.5"/><text fill="#000000" font-family="sans-serif" font-size="12" lengthAdjust="spacing" textLength="61" x="325" y="522.6387">Document</text><line style="stroke:#A80036;stroke-width:1.5;" x1="323" x2="388" y1="530.4688" y2="530.4688"/><line style="stroke:#A80036;stroke-width:1.5;" x1="323" x2="388" y1="538.4688" y2="538.4688"/><!--MD5=[3145b4be7c5005b24cda6f18a1d594b0]
class Survey--><rect codeLine="72" fill="#FEFECE" filter="url(#f61v0pgxr4eqe)" height="39.9688" id="Survey" style="stroke:#A80036;stroke-width:1.5;" width="48" x="350.5" y="312.5"/><text fill="#000000" font-family="sans-serif" font-size="12" lengthAdjust="spacing" textLength="42" x="353.5" y="328.6387">Survey</text><line style="stroke:#A80036;stroke-width:1.5;" x1="351.5" x2="397.5" y1="336.4688" y2="336.4688"/><line style="stroke:#A80036;stroke-width:1.5;" x1="351.5" x2="397.5" y1="344.4688" y2="344.4688"/><!--MD5=[2741598bdf59a7d7e0d5c97658fd3022]
class Result--><rect codeLine="74" fill="#FEFECE" filter="url(#f61v0pgxr4eqe)" height="39.9688" id="Result" style="stroke:#A80036;stroke-width:1.5;" width="42" x="713.5" y="506.5"/><text fill="#000000" font-family="sans-serif" font-size="12" lengthAdjust="spacing" textLength="36" x="716.5" y="522.6387">Result</text><line style="stroke:#A80036;stroke-width:1.5;" x1="714.5" x2="754.5" y1="530.4688" y2="530.4688"/><line style="stroke:#A80036;stroke-width:1.5;" x1="714.5" x2="754.5" y1="538.4688" y2="538.4688"/><!--MD5=[30fd7b95ab383a5e7c83ea23d4ea0fbf]
class Information--><rect codeLine="76" fill="#FEFECE" filter="url(#f61v0pgxr4eqe)" height="39.9688" id="Information" style="stroke:#A80036;stroke-width:1.5;" width="73" x="2517" y="506.5"/><text fill="#000000" font-family="sans-serif" font-size="12" lengthAdjust="spacing" textLength="67" x="2520" y="522.6387">Information</text><line style="stroke:#A80036;stroke-width:1.5;" x1="2518" x2="2589" y1="530.4688" y2="530.4688"/><line style="stroke:#A80036;stroke-width:1.5;" x1="2518" x2="2589" y1="538.4688" y2="538.4688"/><!--MD5=[c238f5c780b4770aca76cc1e6fa299b9]
class LoginInformation--><rect codeLine="83" fill="#FEFECE" filter="url(#f61v0pgxr4eqe)" height="39.9688" id="LoginInformation" style="stroke:#A80036;stroke-width:1.5;" width="105" x="2649" y="312.5"/><text fill="#000000" font-family="sans-serif" font-size="12" lengthAdjust="spacing" textLength="99" x="2652" y="328.6387">LoginInformation</text><line style="stroke:#A80036;stroke-width:1.5;" x1="2650" x2="2753" y1="336.4688" y2="336.4688"/><line style="stroke:#A80036;stroke-width:1.5;" x1="2650" x2="2753" y1="344.4688" y2="344.4688"/><!--MD5=[c464c8bffcc82a69bc478b3e0176a656]
class SecurityQuestion--><rect codeLine="85" fill="#FEFECE" filter="url(#f61v0pgxr4eqe)" height="39.9688" id="SecurityQuestion" style="stroke:#A80036;stroke-width:1.5;" width="109" x="2808" y="312.5"/><text fill="#000000" font-family="sans-serif" font-size="12" lengthAdjust="spacing" textLength="103" x="2811" y="328.6387">SecurityQuestion</text><line style="stroke:#A80036;stroke-width:1.5;" x1="2809" x2="2916" y1="336.4688" y2="336.4688"/><line style="stroke:#A80036;stroke-width:1.5;" x1="2809" x2="2916" y1="344.4688" y2="344.4688"/><!--MD5=[93b867cf5e7a1e913dd5047074c12207]
class Mail--><rect codeLine="87" fill="#FEFECE" filter="url(#f61v0pgxr4eqe)" height="39.9688" id="Mail" style="stroke:#A80036;stroke-width:1.5;" width="29" x="1355" y="506.5"/><text fill="#000000" font-family="sans-serif" font-size="12" lengthAdjust="spacing" textLength="23" x="1358" y="522.6387">Mail</text><line style="stroke:#A80036;stroke-width:1.5;" x1="1356" x2="1383" y1="530.4688" y2="530.4688"/><line style="stroke:#A80036;stroke-width:1.5;" x1="1356" x2="1383" y1="538.4688" y2="538.4688"/><!--MD5=[f6a2c872e8d3dbac80eeb5d0b058c8fd]
link Manager to Activity--><path codeLine="94" d="M780.317,337.579 C882.156,348.53 1154.84,382.635 1371.5,453 C1388.33,458.4656 1390.96,463.7223 1407.5,470 C1463,491.0613 1530.11,508.9699 1567.89,518.3907 " fill="none" id="Manager-to-Activity" style="stroke:#A80036;stroke-width:1.0;"/><polygon fill="#A80036" points="1572.8,519.6078,1565.0233,513.5644,1567.9462,518.4076,1563.103,521.3305,1572.8,519.6078" style="stroke:#A80036;stroke-width:1.0;"/><text fill="#000000" font-family="sans-serif" font-size="13" lengthAdjust="spacing" textLength="53" x="1408.5" y="466.0669">manage</text><!--MD5=[f6a2c872e8d3dbac80eeb5d0b058c8fd]
link Manager to Activity--><path codeLine="96" d="M780.084,335.324 C892.317,341.386 1215.17,365.733 1466.5,453 C1471.9,454.8742 1531.69,488.3833 1568.61,509.1817 " fill="none" id="Manager-to-Activity-1" style="stroke:#A80036;stroke-width:1.0;"/><polygon fill="#A80036" points="1572.99,511.6521,1567.1166,503.7462,1568.6351,509.1954,1563.1859,510.714,1572.99,511.6521" style="stroke:#A80036;stroke-width:1.0;"/><text fill="#000000" font-family="sans-serif" font-size="13" lengthAdjust="spacing" textLength="41" x="1499.5" y="466.0669">create</text><!--MD5=[f366424ef49a2683057f1a9feb136ec9]
link Manager to Mail--><path codeLine="95" d="M780.095,342.074 C858.315,359.141 1034.8,400.299 1177.5,453 C1194.1,459.1298 1197.14,463.2484 1213.5,470 C1261.73,489.9081 1319.98,509.4847 1349.81,519.1929 " fill="none" id="Manager-to-Mail" style="stroke:#A80036;stroke-width:1.0;"/><polygon fill="#A80036" points="1354.69,520.7768,1347.3635,514.1948,1349.934,519.2339,1344.8949,521.8045,1354.69,520.7768" style="stroke:#A80036;stroke-width:1.0;"/><text fill="#000000" font-family="sans-serif" font-size="13" lengthAdjust="spacing" textLength="59" x="1214.5" y="466.0669">send_out</text><!--MD5=[2f9ae04bd9fbe22ade3024c92f1374bf]
link Manager to Case--><path codeLine="97" d="M780.042,407.919 C793.375,429.142 809.249,451.504 826.5,470 C842.052,486.6746 863.178,501.7922 879.045,512.0234 " fill="none" id="Manager-to-Case" style="stroke:#A80036;stroke-width:1.0;"/><polygon fill="#A80036" points="883.372,514.7768,877.9263,506.5704,879.1536,512.0925,873.6315,513.3198,883.372,514.7768" style="stroke:#A80036;stroke-width:1.0;"/><text fill="#000000" font-family="sans-serif" font-size="13" lengthAdjust="spacing" textLength="30" x="827.5" y="466.0669">view</text><!--MD5=[2f9ae04bd9fbe22ade3024c92f1374bf]
link Manager to Case--><path codeLine="99" d="M780.014,367.106 C805.645,389.678 838.372,421.041 862.5,453 C873.874,468.0647 883.892,486.8817 890.926,501.5699 " fill="none" id="Manager-to-Case-1" style="stroke:#A80036;stroke-width:1.0;"/><polygon fill="#A80036" points="893.195,506.3814,892.9747,496.535,891.0626,501.8589,885.7387,499.9468,893.195,506.3814" style="stroke:#A80036;stroke-width:1.0;"/><text fill="#000000" font-family="sans-serif" font-size="13" lengthAdjust="spacing" textLength="42" x="875.5" y="466.0669">export</text><!--MD5=[16eabf39af29deb74e27fa65311fa276]
reverse link Case to Manager--><path codeLine="111" d="M871.157,513.8993 C850.231,504.6377 822.964,489.9095 804.5,470 C791.917,456.4322 781.335,439.985 772.606,423.274 " fill="none" id="Case-backto-Manager" style="stroke:#A80036;stroke-width:1.0;"/><polygon fill="#FFFFFF" points="883.231,518.957,879.2418,512.9498,872.1624,514.3217,876.1516,520.3289,883.231,518.957" style="stroke:#A80036;stroke-width:1.0;"/><!--MD5=[2f9ae04bd9fbe22ade3024c92f1374bf]
link Manager to Case--><path codeLine="122" d="M726.467,423.352 C728.035,440.057 732.675,456.4819 742.5,470 C774.12,513.5069 842.395,523.1453 878.321,525.1245 " fill="none" id="Manager-to-Case-2" style="stroke:#A80036;stroke-width:1.0;"/><polygon fill="#A80036" points="883.379,525.3641,874.5788,520.9417,878.3846,525.127,874.1994,528.9327,883.379,525.3641" style="stroke:#A80036;stroke-width:1.0;"/><text fill="#000000" font-family="sans-serif" font-size="13" lengthAdjust="spacing" textLength="40" x="743.5" y="466.0669">delete</text><!--MD5=[949e9432d490f0632687767209539a51]
link Administrator to Mail--><path codeLine="98" d="M1806.72,361.883 C1743.29,390.959 1640.57,436.522 1549.5,470 C1492.1,491.099 1422.52,510.987 1389.17,520.1756 " fill="none" id="Administrator-to-Mail" style="stroke:#A80036;stroke-width:1.0;"/><polygon fill="#A80036" points="1384.14,521.557,1393.8792,523.0225,1388.9604,520.2288,1391.7541,515.31,1384.14,521.557" style="stroke:#A80036;stroke-width:1.0;"/><text fill="#000000" font-family="sans-serif" font-size="13" lengthAdjust="spacing" textLength="59" x="1594.5" y="466.0669">send_out</text><!--MD5=[c435cb0b1b128aa1ae93533b9034c56d]
link Youth to Manager--><path codeLine="100" d="M379.504,114.968 C456.802,161.461 616.162,257.314 694.299,304.312 " fill="none" id="Youth-to-Manager" style="stroke:#A80036;stroke-width:1.0;"/><polygon fill="#A80036" points="698.87,307.062,693.2216,298.9938,694.5861,304.4836,689.0962,305.8481,698.87,307.062" style="stroke:#A80036;stroke-width:1.0;"/><text fill="#000000" font-family="sans-serif" font-size="13" lengthAdjust="spacing" textLength="48" x="538.5" y="208.0669">contact</text><!--MD5=[701b09fd52131508d42b729d9753da76]
link Administrator to Case--><path codeLine="101" d="M1806.75,336.546 C1677.99,344.446 1369.48,371.062 1125.5,453 C1110.23,458.1272 1108.43,463.9538 1093.5,470 C1034.49,493.901 961.444,512.0506 924.79,520.4157 " fill="none" id="Administrator-to-Case" style="stroke:#A80036;stroke-width:1.0;"/><polygon fill="#A80036" points="919.652,521.5784,929.3126,523.4947,924.5288,520.4755,927.548,515.6917,919.652,521.5784" style="stroke:#A80036;stroke-width:1.0;"/><text fill="#000000" font-family="sans-serif" font-size="13" lengthAdjust="spacing" textLength="42" x="1126.5" y="466.0669">export</text><!--MD5=[701b09fd52131508d42b729d9753da76]
link Administrator to Case--><path codeLine="110" d="M1806.62,340.937 C1702.53,354.881 1484.71,389.441 1310.5,453 C1295.37,458.5198 1293.8,464.9761 1278.5,470 C1149.46,512.3704 984.922,522.4764 924.816,524.8173 " fill="none" id="Administrator-to-Case-1" style="stroke:#A80036;stroke-width:1.0;"/><polygon fill="#A80036" points="919.663,525.0088,928.8054,528.6718,924.6595,524.8231,928.5082,520.6773,919.663,525.0088" style="stroke:#A80036;stroke-width:1.0;"/><text fill="#000000" font-family="sans-serif" font-size="13" lengthAdjust="spacing" textLength="51" x="1311.5" y="466.0669">transfer</text><!--MD5=[701b09fd52131508d42b729d9753da76]
link Administrator to Case--><path codeLine="124" d="M1806.95,335.208 C1668.39,340.623 1318.96,362.883 1043.5,453 C1028.19,458.0075 1025.8,462.5946 1011.5,470 C981.531,485.5189 946.719,502.9902 924.418,514.1125 " fill="none" id="Administrator-to-Case-2" style="stroke:#A80036;stroke-width:1.0;"/><polygon fill="#A80036" points="919.856,516.3865,929.6953,515.9525,924.3311,514.1564,926.1272,508.7923,919.856,516.3865" style="stroke:#A80036;stroke-width:1.0;"/><text fill="#000000" font-family="sans-serif" font-size="13" lengthAdjust="spacing" textLength="40" x="1044.5" y="466.0669">delete</text><!--MD5=[9094504a78a8a624dc0e3735af7308d8]
link Manager to File--><path codeLine="102" d="M698.854,345.866 C637.737,364.201 518.364,399.006 415.5,423 C346.317,439.137 327.292,435.271 258.5,453 C191.207,470.3428 114.511,496.9609 71.1658,512.6607 " fill="none" id="Manager-to-File" style="stroke:#A80036;stroke-width:1.0;"/><polygon fill="#A80036" points="66.3054,514.4261,76.1303,515.1132,71.005,512.7191,73.3991,507.5938,66.3054,514.4261" style="stroke:#A80036;stroke-width:1.0;"/><text fill="#000000" font-family="sans-serif" font-size="13" lengthAdjust="spacing" textLength="24" x="259.5" y="466.0669">add</text><!--MD5=[4f054581cc7d8453f3cc806565a67c51]
link Staff to Information--><path codeLine="103" d="M2575.99,359.394 C2570.95,396.662 2561.7,464.9246 2556.78,501.2537 " fill="none" id="Staff-to-Information" style="stroke:#A80036;stroke-width:1.0;"/><polygon fill="#A80036" points="2556.09,506.3746,2561.2611,497.9925,2556.7607,501.4198,2553.3334,496.9194,2556.09,506.3746" style="stroke:#A80036;stroke-width:1.0;"/><text fill="#000000" font-family="sans-serif" font-size="13" lengthAdjust="spacing" textLength="30" x="2564.5" y="466.0669">view</text><!--MD5=[ad1d421b774c2d63bd1c43c8f4162c1c]
link Administrator to Activity--><path codeLine="104" d="M1806.96,371.318 C1771.3,394.124 1725.65,424.243 1686.5,453 C1664.7,469.0144 1641,488.4283 1623.54,503.1348 " fill="none" id="Administrator-to-Activity" style="stroke:#A80036;stroke-width:1.0;"/><polygon fill="#A80036" points="1619.69,506.3872,1629.1458,503.6325,1623.5087,503.1596,1623.9816,497.5225,1619.69,506.3872" style="stroke:#A80036;stroke-width:1.0;"/><text fill="#000000" font-family="sans-serif" font-size="13" lengthAdjust="spacing" textLength="41" x="1687.5" y="466.0669">create</text><!--MD5=[ad1d421b774c2d63bd1c43c8f4162c1c]
link Administrator to Activity--><path codeLine="131" d="M1806.92,405.993 C1785.43,428.599 1759.97,452.235 1733.5,470 C1699.87,492.5677 1655.63,508.4942 1626.88,517.3343 " fill="none" id="Administrator-to-Activity-1" style="stroke:#A80036;stroke-width:1.0;"/><polygon fill="#A80036" points="1622.05,518.7973,1631.8216,520.0288,1626.8371,517.3538,1629.512,512.3694,1622.05,518.7973" style="stroke:#A80036;stroke-width:1.0;"/><text fill="#000000" font-family="sans-serif" font-size="13" lengthAdjust="spacing" textLength="53" x="1755.5" y="466.0669">manage</text><!--MD5=[d898aa69dea030ca287f48f331dab8e3]
link Manager to Account--><path codeLine="105" d="M698.847,360.602 C640.784,399.311 535.34,469.6064 482.883,504.5777 " fill="none" id="Manager-to-Account" style="stroke:#A80036;stroke-width:1.0;"/><polygon fill="#A80036" points="478.587,507.4418,488.2944,505.7788,482.7476,504.6688,483.8576,499.1219,478.587,507.4418" style="stroke:#A80036;stroke-width:1.0;"/><text fill="#000000" font-family="sans-serif" font-size="13" lengthAdjust="spacing" textLength="52" x="554.5" y="466.0669">activate</text><!--MD5=[d898aa69dea030ca287f48f331dab8e3]
link Manager to Account--><path codeLine="114" d="M698.759,338.088 C636.11,347.495 517.315,375.131 459.5,453 C449.327,466.702 447.648,486.0694 448.339,501.3402 " fill="none" id="Manager-to-Account-1" style="stroke:#A80036;stroke-width:1.0;"/><polygon fill="#A80036" points="448.655,506.3479,452.0793,497.1135,448.3396,501.3579,444.0952,497.6182,448.655,506.3479" style="stroke:#A80036;stroke-width:1.0;"/><text fill="#000000" font-family="sans-serif" font-size="13" lengthAdjust="spacing" textLength="68" x="460.5" y="466.0669">deactivate</text><!--MD5=[ddbc765706297d8d97cc35434fd3e71d]
reverse link Youth to Account--><path codeLine="106" d="M316.44,178.104 C305.908,247.563 300.61,344.824 332.5,423 C341.357,444.713 392.031,483.519 424.332,506.648 " fill="none" id="Youth-backto-Account" style="stroke:#A80036;stroke-width:1.0;"/><polygon fill="#FFFFFF" points="318.533,165.034,313.6345,170.3259,316.6353,176.883,321.5338,171.5911,318.533,165.034" style="stroke:#A80036;stroke-width:1.0;"/><!--MD5=[f4da411f92095118d26502e401646de0]
reverse link CaseManager to Manager--><path codeLine="107" d="M2260.5,100.93 C1969.47,145.048 992.25,293.185 780.284,325.318 " fill="none" id="CaseManager-backto-Manager" style="stroke:#A80036;stroke-width:1.0;"/><polygon fill="none" points="2259.82,93.954,2280.64,97.877,2261.92,107.796,2259.82,93.954" style="stroke:#A80036;stroke-width:1.0;"/><!--MD5=[130866f198908c2e23afd12da33e8ef4]
link Administrator to LogRecord--><path codeLine="108" d="M1928.19,362.396 C1973.45,384.904 2036.07,418.101 2087.5,453 C2109.7,468.0617 2132.95,487.6621 2149.82,502.6852 " fill="none" id="Administrator-to-LogRecord" style="stroke:#A80036;stroke-width:1.0;"/><polygon fill="#A80036" points="2153.97,506.4004,2149.9247,497.4207,2150.2418,503.0686,2144.5939,503.3857,2153.97,506.4004" style="stroke:#A80036;stroke-width:1.0;"/><text fill="#000000" font-family="sans-serif" font-size="13" lengthAdjust="spacing" textLength="30" x="2111.5" y="466.0669">view</text><!--MD5=[4cbfec2eefdac66ca0a7460db6afb337]
link Administrator to Record--><path codeLine="109" d="M1928.11,349.101 C2004.68,368.409 2140.69,401.378 2258.5,423 C2306.16,431.748 2442.68,416.452 2474.5,453 C2487.61,468.0583 2474.53,487.6589 2459.46,502.6829 " fill="none" id="Administrator-to-Record" style="stroke:#A80036;stroke-width:1.0;"/><polygon fill="#A80036" points="2455.6,506.3985,2464.8634,503.0534,2459.2077,502.9367,2459.3245,497.281,2455.6,506.3985" style="stroke:#A80036;stroke-width:1.0;"/><text fill="#000000" font-family="sans-serif" font-size="13" lengthAdjust="spacing" textLength="24" x="2481.5" y="466.0669">add</text><!--MD5=[4cbfec2eefdac66ca0a7460db6afb337]
link Administrator to Record--><path codeLine="116" d="M1928.33,347.085 C2010.9,366.371 2162.41,404.766 2286.5,453 C2328.08,469.1642 2373.77,493.1088 2402.53,509.0004 " fill="none" id="Administrator-to-Record-1" style="stroke:#A80036;stroke-width:1.0;"/><polygon fill="#A80036" points="2406.99,511.4793,2401.0646,503.6123,2402.619,509.0514,2397.18,510.6058,2406.99,511.4793" style="stroke:#A80036;stroke-width:1.0;"/><text fill="#000000" font-family="sans-serif" font-size="13" lengthAdjust="spacing" textLength="30" x="2324.5" y="466.0669">view</text><!--MD5=[4cbfec2eefdac66ca0a7460db6afb337]
link Administrator to Record--><path codeLine="119" d="M1928.45,347.205 C2056.76,376.188 2344.5,441.948 2363.5,453 C2384.54,465.24 2403.04,486.0007 2415.41,502.1772 " fill="none" id="Administrator-to-Record-2" style="stroke:#A80036;stroke-width:1.0;"/><polygon fill="#A80036" points="2418.42,506.1831,2416.2139,496.5845,2415.4174,502.185,2409.8169,501.3886,2418.42,506.1831" style="stroke:#A80036;stroke-width:1.0;"/><text fill="#000000" font-family="sans-serif" font-size="13" lengthAdjust="spacing" textLength="40" x="2386.5" y="466.0669">delete</text><!--MD5=[5a0660834d65989fb8f692b7a4c59369]
reverse link User to LoginInformation--><path codeLine="112" d="M2749.21,151.092 C2741.01,165.067 2733.22,180.158 2727.5,195 C2712.05,235.064 2705.51,285.406 2702.97,312.364 " fill="none" id="User-backto-LoginInformation" style="stroke:#A80036;stroke-width:1.0;"/><polygon fill="#FFFFFF" points="2756.16,139.645,2749.6277,142.6994,2749.9347,149.904,2756.467,146.8496,2756.16,139.645" style="stroke:#A80036;stroke-width:1.0;"/><text fill="#000000" font-family="sans-serif" font-size="13" lengthAdjust="spacing" textLength="49" x="2728.5" y="208.0669">recover</text><!--MD5=[beee76c4932d3c66ef9562fe38562a95]
reverse link Youth to Feedback--><path codeLine="113" d="M285.05,171.723 C272.728,194.061 260.289,218.538 250.5,242 C210.413,338.081 181.711,460.0481 171.545,506.432 " fill="none" id="Youth-backto-Feedback" style="stroke:#A80036;stroke-width:1.0;"/><polygon fill="#FFFFFF" points="291.468,160.254,285.0476,163.5371,285.6087,170.7263,292.0291,167.4432,291.468,160.254" style="stroke:#A80036;stroke-width:1.0;"/><text fill="#000000" font-family="sans-serif" font-size="13" lengthAdjust="spacing" textLength="48" x="251.5" y="337.0669">provide</text><!--MD5=[0400bcc117a8e26b903c2e6b4894c00e]
link Youth to File--><path codeLine="115" d="M291.397,116.286 C250.637,143.889 190.766,189.585 152.5,242 C92.9612,323.554 57.9285,440.089 43.803,494.8503 " fill="none" id="Youth-to-File" style="stroke:#A80036;stroke-width:1.0;"/><polygon fill="#A80036" points="42.5011,499.9537,48.6015,492.2216,43.737,495.1088,40.8498,490.2443,42.5011,499.9537" style="stroke:#A80036;stroke-width:1.0;"/><text fill="#000000" font-family="sans-serif" font-size="13" lengthAdjust="spacing" textLength="30" x="153.5" y="337.0669">view</text><!--MD5=[2372c70ad42d704e831bbeed4e438186]
link User to SecurityQuestion--><path codeLine="117" d="M2784.57,139.517 C2782.76,162.11 2782.97,188.773 2789.5,212 C2799.85,248.793 2825.02,285.464 2842.9,308.287 " fill="none" id="User-to-SecurityQuestion" style="stroke:#A80036;stroke-width:1.0;"/><polygon fill="#A80036" points="2846.15,312.384,2843.7043,302.8436,2843.0483,308.4623,2837.4296,307.8063,2846.15,312.384" style="stroke:#A80036;stroke-width:1.0;"/><text fill="#000000" font-family="sans-serif" font-size="13" lengthAdjust="spacing" textLength="47" x="2790.5" y="208.0669">answer</text><!--MD5=[2372c70ad42d704e831bbeed4e438186]
link User to SecurityQuestion--><path codeLine="130" d="M2820.19,139.568 C2828.5,156.756 2836.88,176.32 2842.5,195 C2853.95,233.059 2858.96,279.13 2861.07,306.835 " fill="none" id="User-to-SecurityQuestion-1" style="stroke:#A80036;stroke-width:1.0;"/><polygon fill="#A80036" points="2861.45,312.124,2864.7862,302.8574,2861.0871,307.1372,2856.8073,303.4381,2861.45,312.124" style="stroke:#A80036;stroke-width:1.0;"/><text fill="#000000" font-family="sans-serif" font-size="13" lengthAdjust="spacing" textLength="41" x="2847.5" y="208.0669">create</text><!--MD5=[c587a1797c16b191946eea7a945b96f9]
link Manager to Document--><path codeLine="118" d="M698.838,339.235 C631.068,350.548 493.496,381.174 402.5,453 C386.281,465.8022 373.908,485.8184 365.938,501.5784 " fill="none" id="Manager-to-Document" style="stroke:#A80036;stroke-width:1.0;"/><polygon fill="#A80036" points="363.607,506.3201,371.1675,500.0083,365.8131,501.8331,363.9883,496.4786,363.607,506.3201" style="stroke:#A80036;stroke-width:1.0;"/><text fill="#000000" font-family="sans-serif" font-size="13" lengthAdjust="spacing" textLength="40" x="403.5" y="466.0669">delete</text><!--MD5=[a5b8cb98c49b390b66dd028ec3db86f8]
link Administrator to Profile--><path codeLine="120" d="M1849.86,423.153 C1850.74,439.874 1854.85,456.3557 1864.5,470 C1894.17,511.9588 1958.33,522.4071 1994.78,524.8743 " fill="none" id="Administrator-to-Profile" style="stroke:#A80036;stroke-width:1.0;"/><polygon fill="#A80036" points="1999.95,525.1832,1991.1933,520.6754,1994.9582,524.8974,1990.7361,528.6623,1999.95,525.1832" style="stroke:#A80036;stroke-width:1.0;"/><text fill="#000000" font-family="sans-serif" font-size="13" lengthAdjust="spacing" textLength="40" x="1865.5" y="466.0669">delete</text><!--MD5=[a5b8cb98c49b390b66dd028ec3db86f8]
link Administrator to Profile--><path codeLine="123" d="M1912.23,423.044 C1922.37,439.501 1933.91,455.9115 1946.5,470 C1960.71,485.8994 1980.13,500.1211 1995.65,510.1872 " fill="none" id="Administrator-to-Profile-1" style="stroke:#A80036;stroke-width:1.0;"/><polygon fill="#A80036" points="1999.92,512.9141,1994.5007,504.6903,1995.7103,510.2163,1990.1842,511.4258,1999.92,512.9141" style="stroke:#A80036;stroke-width:1.0;"/><text fill="#000000" font-family="sans-serif" font-size="13" lengthAdjust="spacing" textLength="30" x="1947.5" y="466.0669">view</text><!--MD5=[a5b8cb98c49b390b66dd028ec3db86f8]
link Administrator to Profile--><path codeLine="126" d="M1928.22,390.221 C1946.82,409.207 1966.56,431.128 1982.5,453 C1993.62,468.2538 2003.65,487.0647 2010.75,501.7028 " fill="none" id="Administrator-to-Profile-2" style="stroke:#A80036;stroke-width:1.0;"/><polygon fill="#A80036" points="2013.04,506.4959,2012.7667,496.6508,2010.8833,501.9849,2005.5492,500.1015,2013.04,506.4959" style="stroke:#A80036;stroke-width:1.0;"/><text fill="#000000" font-family="sans-serif" font-size="13" lengthAdjust="spacing" textLength="45" x="1995.5" y="466.0669">modify</text><!--MD5=[a5b8cb98c49b390b66dd028ec3db86f8]
link Administrator to Profile--><path codeLine="127" d="M1928.02,355.188 C1970.42,373.941 2023.92,405.599 2049.5,453 C2057.98,468.7107 2050.21,487.5483 2040.73,502.0837 " fill="none" id="Administrator-to-Profile-3" style="stroke:#A80036;stroke-width:1.0;"/><polygon fill="#A80036" points="2037.75,506.4484,2046.1299,501.2737,2040.5706,502.32,2039.5244,496.7607,2037.75,506.4484" style="stroke:#A80036;stroke-width:1.0;"/><text fill="#000000" font-family="sans-serif" font-size="13" lengthAdjust="spacing" textLength="24" x="2054.5" y="466.0669">add</text><!--MD5=[a57d982990350d4e677d475f11edcb3f]
link Manager to Feedback--><path codeLine="121" d="M698.907,343.639 C625.207,362.446 464.86,405.196 333.5,453 C288.715,469.298 238.78,491.7067 205.488,507.2799 " fill="none" id="Manager-to-Feedback" style="stroke:#A80036;stroke-width:1.0;"/><polygon fill="#A80036" points="200.699,509.5264,210.5458,509.3241,205.2254,507.4023,207.1472,502.0819,200.699,509.5264" style="stroke:#A80036;stroke-width:1.0;"/><text fill="#000000" font-family="sans-serif" font-size="13" lengthAdjust="spacing" textLength="43" x="334.5" y="466.0669">review</text><!--MD5=[a6ea00cc16b722cd5930c4d1b6eccb80]
reverse link Youth to Survey--><path codeLine="125" d="M349.862,177.984 C357.725,226.98 366.789,283.455 371.423,312.326 " fill="none" id="Youth-backto-Survey" style="stroke:#A80036;stroke-width:1.0;"/><polygon fill="#FFFFFF" points="347.786,165.053,344.7873,171.611,349.6875,176.9014,352.6862,170.3433,347.786,165.053" style="stroke:#A80036;stroke-width:1.0;"/><text fill="#000000" font-family="sans-serif" font-size="13" lengthAdjust="spacing" textLength="28" x="356.5" y="208.0669">take</text><!--MD5=[f51c46761aa5b51b59eed1460891c3af]
link Manager to Result--><path codeLine="128" d="M698.744,368.001 C676.294,389.773 650.59,419.966 638.5,453 C625.895,487.4419 675.755,508.7465 708.314,518.7308 " fill="none" id="Manager-to-Result" style="stroke:#A80036;stroke-width:1.0;"/><polygon fill="#A80036" points="713.379,520.2363,705.8931,513.8362,708.5866,518.8107,703.6121,521.5041,713.379,520.2363" style="stroke:#A80036;stroke-width:1.0;"/><text fill="#000000" font-family="sans-serif" font-size="13" lengthAdjust="spacing" textLength="23" x="639.5" y="466.0669">see</text><!--MD5=[777d37820e8f126ade9097ace60e83dd]
link Administrator to Result--><path codeLine="129" d="M1806.99,337.807 C1662.31,348.931 1285.54,382.793 978.5,453 C954.797,458.4199 949.738,462.8451 926.5,470 C867.552,488.1495 797.895,507.8532 760.823,518.2021 " fill="none" id="Administrator-to-Result" style="stroke:#A80036;stroke-width:1.0;"/><polygon fill="#A80036" points="755.595,519.6598,765.3386,521.0958,760.4113,518.317,763.1901,513.3897,755.595,519.6598" style="stroke:#A80036;stroke-width:1.0;"/><text fill="#000000" font-family="sans-serif" font-size="13" lengthAdjust="spacing" textLength="23" x="979.5" y="466.0669">see</text><!--MD5=[72ecda8f2e749e44dcef65e4355a247a]
reverse link Youth to Profile--><path codeLine="132" d="M392.771,90.402 C643.941,99.282 1648.73,140.599 1945.5,242 C2111.65,298.771 2194.75,299.221 2279.5,453 C2326.09,537.5367 2344.14,450.527 2121.5,500 C2094.39,506.0241 2063.45,514.1015 2043.26,519.5374 " fill="none" id="Youth-backto-Profile" style="stroke:#A80036;stroke-width:1.0;"/><polygon fill="#FFFFFF" points="379.682,89.944,385.5386,94.1512,391.6747,90.3633,385.8181,86.1561,379.682,89.944" style="stroke:#A80036;stroke-width:1.0;"/><text fill="#000000" font-family="sans-serif" font-size="13" lengthAdjust="spacing" textLength="30" x="2261.5" y="337.0669">view</text><!--MD5=[bedb91481dcb33dcc126b3381107f57a]
link Manager to Information--><path codeLine="133" d="M780.037,336.986 C920.036,349.021 1396.17,389.893 1789.5,423 C1949.93,436.503 1990.84,432.275 2150.5,453 C2193.47,458.578 2203.68,463.3821 2246.5,470 C2347.07,485.5429 2374.19,477.7933 2473.5,500 C2486.18,502.8363 2499.74,506.7903 2512.02,510.7393 " fill="none" id="Manager-to-Information" style="stroke:#A80036;stroke-width:1.0;"/><polygon fill="#A80036" points="2516.83,512.309,2509.5043,505.7261,2512.0742,510.7656,2507.0348,513.3354,2516.83,512.309" style="stroke:#A80036;stroke-width:1.0;"/><text fill="#000000" font-family="sans-serif" font-size="13" lengthAdjust="spacing" textLength="30" x="2247.5" y="466.0669">view</text><!--MD5=[4bf52db2c409bcd6c3b504e22ae879b8]
@startuml
hide circle
class Youth<actor> {
	profile
	caseManager
	feedback
	case
	survey
}
class CaseManager<actor> {
	youth
	case
}
class Administrator<actor> {
}
class User<actor> {
	record
	loginInformation
}
class Staff<actor> {
}
class Account {
}
class Manager {
	activate()
	manage()
	review()
	send_out()
	see()
	create()
	export()
	delete()
	view()
	deactivate()
	add()
}
class Activity {
}
class Administrator {
	transfer()
	manage()
	send_out()
	see()
	create()
	export()
	delete()
	view()
	modify()
	add()
	make()
}
class Youth {
	take()
	contact()
	provide()
	view()
}
class Profile {
}
class Case {
}
class File {
	belong()
}
class LogRecord {
}
class Feedback {
}
class Record {
}
class Document {
}
class Survey {
}
class Result {
}
class Information {
}
class User {
	create()
	recover()
	answer()
}
class LoginInformation {
}
class SecurityQuestion {
}
class Mail {
}
class Staff {
	view()
}
class CaseManager {
}
Manager - -> Activity : manage
Manager - -> Mail : send_out
Manager - -> Activity : create
Manager - -> Case : view
Administrator - -> Mail : send_out
Manager - -> Case : export
Youth - -> Manager : contact
Administrator - -> Case : export
Manager - -> File : add
Staff - -> Information : view
Administrator - -> Activity : create
Manager - -> Account : activate
Youth o- - Account
CaseManager <|- - Manager
Administrator - -> LogRecord : view
Administrator - -> Record : add
Administrator - -> Case : transfer
Case o- - Manager
User o- - LoginInformation : recover
Youth o- - Feedback : provide
Manager - -> Account : deactivate
Youth - -> File : view
Administrator - -> Record : view
User - -> SecurityQuestion : answer
Manager - -> Document : delete
Administrator - -> Record : delete
Administrator - -> Profile : delete
Manager - -> Feedback : review
Manager - -> Case : delete
Administrator - -> Profile : view
Administrator - -> Case : delete
Youth o- - Survey : take
Administrator - -> Profile : modify
Administrator - -> Profile : add
Manager - -> Result : see
Administrator - -> Result : see
User - -> SecurityQuestion : create
Administrator - -> Activity : manage
Youth o- - Profile : view
Manager - -> Information : view
@enduml

PlantUML version 1.2021.10beta2(Unknown compile time)
(GPL source distribution)
Java Runtime: Java(TM) SE Runtime Environment
JVM: Java HotSpot(TM) 64-Bit Server VM
Default Encoding: UTF-8
Language: en
Country: US
--></g></svg>