<?xml version="1.0" encoding="UTF-8" standalone="no"?><svg xmlns="http://www.w3.org/2000/svg" xmlns:xlink="http://www.w3.org/1999/xlink" contentScriptType="application/ecmascript" contentStyleType="text/css" height="295px" preserveAspectRatio="none" style="width:1271px;height:295px;background:#FFFFFF;" version="1.1" viewBox="0 0 1271 295" width="1271px" zoomAndPan="magnify"><defs><filter height="300%" id="fiq56golzrka8" width="300%" x="-1" y="-1"><feGaussianBlur result="blurOut" stdDeviation="2.0"/><feColorMatrix in="blurOut" result="blurOut2" type="matrix" values="0 0 0 0 0 0 0 0 0 0 0 0 0 0 0 0 0 0 .4 0"/><feOffset dx="4.0" dy="4.0" in="blurOut2" result="blurOut3"/><feBlend in="SourceGraphic" in2="blurOut3" mode="normal"/></filter></defs><g><!--MD5=[3cab58e622330109321580dbb0b85605]
class Input--><rect codeLine="2" fill="#FEFECE" filter="url(#fiq56golzrka8)" height="39.9688" id="Input" style="stroke:#A80036;stroke-width:1.5;" width="70" x="7" y="67.5"/><text fill="#000000" font-family="sans-serif" font-size="12" lengthAdjust="spacing" textLength="29" x="10" y="83.6387">Input</text><rect fill="#FFFFFF" height="15.9688" style="stroke:#000000;stroke-width:1.0;stroke-dasharray:2.0,2.0;" width="33" x="47" y="64.5"/><text fill="#000000" font-family="sans-serif" font-size="12" font-style="italic" lengthAdjust="spacing" textLength="31" x="48" y="76.6387">actor</text><line style="stroke:#A80036;stroke-width:1.5;" x1="8" x2="76" y1="91.4688" y2="91.4688"/><line style="stroke:#A80036;stroke-width:1.5;" x1="8" x2="76" y1="99.4688" y2="99.4688"/><!--MD5=[3fd616f346a44cd59a91eb10b19e157c]
class User--><rect codeLine="10" fill="#FEFECE" filter="url(#fiq56golzrka8)" height="103.9922" id="User" style="stroke:#A80036;stroke-width:1.5;" width="70" x="112" y="35.5"/><text fill="#000000" font-family="sans-serif" font-size="12" lengthAdjust="spacing" textLength="29" x="115" y="51.6387">User</text><rect fill="#FFFFFF" height="15.9688" style="stroke:#000000;stroke-width:1.0;stroke-dasharray:2.0,2.0;" width="33" x="152" y="32.5"/><text fill="#000000" font-family="sans-serif" font-size="12" font-style="italic" lengthAdjust="spacing" textLength="31" x="153" y="44.6387">actor</text><line style="stroke:#A80036;stroke-width:1.5;" x1="113" x2="181" y1="59.4688" y2="59.4688"/><text fill="#000000" font-family="sans-serif" font-size="11" lengthAdjust="spacing" textLength="36" x="118" y="73.6792">image</text><line style="stroke:#A80036;stroke-width:1.5;" x1="113" x2="181" y1="80.2734" y2="80.2734"/><text fill="#000000" font-family="sans-serif" font-size="11" lengthAdjust="spacing" textLength="49" x="118" y="94.4839">choose()</text><text fill="#000000" font-family="sans-serif" font-size="11" lengthAdjust="spacing" textLength="45" x="118" y="107.2886">detect()</text><text fill="#000000" font-family="sans-serif" font-size="11" lengthAdjust="spacing" textLength="46" x="118" y="120.0933">upload()</text><text fill="#000000" font-family="sans-serif" font-size="11" lengthAdjust="spacing" textLength="35" x="118" y="132.8979">want()</text><!--MD5=[ed6624c6556d5e7b1bd23032162d20b7]
class Client--><rect codeLine="18" fill="#FEFECE" filter="url(#fiq56golzrka8)" height="155.2109" id="Client" style="stroke:#A80036;stroke-width:1.5;" width="79" x="764.5" y="10"/><text fill="#000000" font-family="sans-serif" font-size="12" lengthAdjust="spacing" textLength="33" x="770" y="26.1387">Client</text><rect fill="#FFFFFF" height="15.9688" style="stroke:#000000;stroke-width:1.0;stroke-dasharray:2.0,2.0;" width="33" x="813.5" y="7"/><text fill="#000000" font-family="sans-serif" font-size="12" font-style="italic" lengthAdjust="spacing" textLength="31" x="814.5" y="19.1387">actor</text><line style="stroke:#A80036;stroke-width:1.5;" x1="765.5" x2="842.5" y1="33.9688" y2="33.9688"/><text fill="#000000" font-family="sans-serif" font-size="11" lengthAdjust="spacing" textLength="24" x="770.5" y="48.1792">unix</text><line style="stroke:#A80036;stroke-width:1.5;" x1="765.5" x2="842.5" y1="54.7734" y2="54.7734"/><text fill="#000000" font-family="sans-serif" font-size="11" lengthAdjust="spacing" textLength="48" x="770.5" y="68.9839">extract()</text><text fill="#000000" font-family="sans-serif" font-size="11" lengthAdjust="spacing" textLength="26" x="770.5" y="81.7886">run()</text><text fill="#000000" font-family="sans-serif" font-size="11" lengthAdjust="spacing" textLength="51" x="770.5" y="94.5933">replace()</text><text fill="#000000" font-family="sans-serif" font-size="11" lengthAdjust="spacing" textLength="33" x="770.5" y="107.3979">train()</text><text fill="#000000" font-family="sans-serif" font-size="11" lengthAdjust="spacing" textLength="33" x="770.5" y="120.2026">give()</text><text fill="#000000" font-family="sans-serif" font-size="11" lengthAdjust="spacing" textLength="67" x="770.5" y="133.0073">see_along()</text><text fill="#000000" font-family="sans-serif" font-size="11" lengthAdjust="spacing" textLength="46" x="770.5" y="145.812">upload()</text><text fill="#000000" font-family="sans-serif" font-size="11" lengthAdjust="spacing" textLength="30" x="770.5" y="158.6167">see()</text><!--MD5=[39d6d2ea03de602dbf4d534e70c872a9]
class Tag--><rect codeLine="16" fill="#FEFECE" filter="url(#fiq56golzrka8)" height="39.9688" id="Tag" style="stroke:#A80036;stroke-width:1.5;" width="28" x="45" y="242"/><text fill="#000000" font-family="sans-serif" font-size="12" lengthAdjust="spacing" textLength="22" x="48" y="258.1387">Tag</text><line style="stroke:#A80036;stroke-width:1.5;" x1="46" x2="72" y1="265.9688" y2="265.9688"/><line style="stroke:#A80036;stroke-width:1.5;" x1="46" x2="72" y1="273.9688" y2="273.9688"/><!--MD5=[5d7f87ad7be124bcf8ad2c9ead1692a4]
class Pipeline--><rect codeLine="28" fill="#FEFECE" filter="url(#fiq56golzrka8)" height="39.9688" id="Pipeline" style="stroke:#A80036;stroke-width:1.5;" width="52" x="1128" y="242"/><text fill="#000000" font-family="sans-serif" font-size="12" lengthAdjust="spacing" textLength="46" x="1131" y="258.1387">Pipeline</text><line style="stroke:#A80036;stroke-width:1.5;" x1="1129" x2="1179" y1="265.9688" y2="265.9688"/><line style="stroke:#A80036;stroke-width:1.5;" x1="1129" x2="1179" y1="273.9688" y2="273.9688"/><!--MD5=[d6af37587da3454ecb81878c403a8a6b]
class Unix--><rect codeLine="30" fill="#FEFECE" filter="url(#fiq56golzrka8)" height="39.9688" id="Unix" style="stroke:#A80036;stroke-width:1.5;" width="32" x="1225" y="242"/><text fill="#000000" font-family="sans-serif" font-size="12" lengthAdjust="spacing" textLength="26" x="1228" y="258.1387">Unix</text><line style="stroke:#A80036;stroke-width:1.5;" x1="1226" x2="1256" y1="265.9688" y2="265.9688"/><line style="stroke:#A80036;stroke-width:1.5;" x1="1226" x2="1256" y1="273.9688" y2="273.9688"/><!--MD5=[9c239722e256878d27dcbb07783cc14f]
class Classification--><rect codeLine="32" fill="#FEFECE" filter="url(#fiq56golzrka8)" height="39.9688" id="Classification" style="stroke:#A80036;stroke-width:1.5;" width="84" x="573" y="242"/><text fill="#000000" font-family="sans-serif" font-size="12" lengthAdjust="spacing" textLength="78" x="576" y="258.1387">Classification</text><line style="stroke:#A80036;stroke-width:1.5;" x1="574" x2="656" y1="265.9688" y2="265.9688"/><line style="stroke:#A80036;stroke-width:1.5;" x1="574" x2="656" y1="273.9688" y2="273.9688"/><!--MD5=[964f074a2dd77d134c21b891bb53e381]
class Image--><rect codeLine="34" fill="#FEFECE" filter="url(#fiq56golzrka8)" height="39.9688" id="Image" style="stroke:#A80036;stroke-width:1.5;" width="43" x="327.5" y="242"/><text fill="#000000" font-family="sans-serif" font-size="12" lengthAdjust="spacing" textLength="37" x="330.5" y="258.1387">Image</text><line style="stroke:#A80036;stroke-width:1.5;" x1="328.5" x2="369.5" y1="265.9688" y2="265.9688"/><line style="stroke:#A80036;stroke-width:1.5;" x1="328.5" x2="369.5" y1="273.9688" y2="273.9688"/><!--MD5=[73145e46247802284b2f7aaef1fa1797]
class Set--><rect codeLine="36" fill="#FEFECE" filter="url(#fiq56golzrka8)" height="39.9688" id="Set" style="stroke:#A80036;stroke-width:1.5;" width="26" x="711" y="242"/><text fill="#000000" font-family="sans-serif" font-size="12" lengthAdjust="spacing" textLength="20" x="714" y="258.1387">Set</text><line style="stroke:#A80036;stroke-width:1.5;" x1="712" x2="736" y1="265.9688" y2="265.9688"/><line style="stroke:#A80036;stroke-width:1.5;" x1="712" x2="736" y1="273.9688" y2="273.9688"/><!--MD5=[7e20e022571e30ec1001cf6eabd7f3e2]
class Model--><rect codeLine="38" fill="#FEFECE" filter="url(#fiq56golzrka8)" height="39.9688" id="Model" style="stroke:#A80036;stroke-width:1.5;" width="43" x="772.5" y="242"/><text fill="#000000" font-family="sans-serif" font-size="12" lengthAdjust="spacing" textLength="37" x="775.5" y="258.1387">Model</text><line style="stroke:#A80036;stroke-width:1.5;" x1="773.5" x2="814.5" y1="265.9688" y2="265.9688"/><line style="stroke:#A80036;stroke-width:1.5;" x1="773.5" x2="814.5" y1="273.9688" y2="273.9688"/><!--MD5=[ecc1e2920a2f6997199fb84eb93903d2]
class MachineLearningAlgorithm--><rect codeLine="40" fill="#FEFECE" filter="url(#fiq56golzrka8)" height="39.9688" id="MachineLearningAlgorithm" style="stroke:#A80036;stroke-width:1.5;" width="163" x="850.5" y="242"/><text fill="#000000" font-family="sans-serif" font-size="12" lengthAdjust="spacing" textLength="157" x="853.5" y="258.1387">MachineLearningAlgorithm</text><line style="stroke:#A80036;stroke-width:1.5;" x1="851.5" x2="1012.5" y1="265.9688" y2="265.9688"/><line style="stroke:#A80036;stroke-width:1.5;" x1="851.5" x2="1012.5" y1="273.9688" y2="273.9688"/><!--MD5=[2e42295458bb0bec21c9622a623eb29e]
class Time--><rect codeLine="42" fill="#FEFECE" filter="url(#fiq56golzrka8)" height="39.9688" id="Time" style="stroke:#A80036;stroke-width:1.5;" width="35" x="129.5" y="242"/><text fill="#000000" font-family="sans-serif" font-size="12" lengthAdjust="spacing" textLength="29" x="132.5" y="258.1387">Time</text><line style="stroke:#A80036;stroke-width:1.5;" x1="130.5" x2="163.5" y1="265.9688" y2="265.9688"/><line style="stroke:#A80036;stroke-width:1.5;" x1="130.5" x2="163.5" y1="273.9688" y2="273.9688"/><!--MD5=[1d7f89d46fe5890de77e49145f8259d3]
class Topic--><rect codeLine="44" fill="#FEFECE" filter="url(#fiq56golzrka8)" height="39.9688" id="Topic" style="stroke:#A80036;stroke-width:1.5;" width="39" x="1048.5" y="242"/><text fill="#000000" font-family="sans-serif" font-size="12" lengthAdjust="spacing" textLength="33" x="1051.5" y="258.1387">Topic</text><line style="stroke:#A80036;stroke-width:1.5;" x1="1049.5" x2="1086.5" y1="265.9688" y2="265.9688"/><line style="stroke:#A80036;stroke-width:1.5;" x1="1049.5" x2="1086.5" y1="273.9688" y2="273.9688"/><!--MD5=[2794f2df70e99ff86b97638e3a1dd89e]
link Client to Classification--><path codeLine="46" d="M764.192,95.722 C714.38,107.128 631.115,134.562 594,195 C586.098,207.8674 591.002,223.9924 598.049,237.0827 " fill="none" id="Client-to-Classification" style="stroke:#A80036;stroke-width:1.0;"/><polygon fill="#A80036" points="600.723,241.7565,599.7261,231.9582,598.2403,237.4165,592.782,235.9306,600.723,241.7565" style="stroke:#A80036;stroke-width:1.0;"/><text fill="#000000" font-family="sans-serif" font-size="13" lengthAdjust="spacing" textLength="23" x="595" y="208.0669">see</text><!--MD5=[2794f2df70e99ff86b97638e3a1dd89e]
link Client to Classification--><path codeLine="48" d="M764.445,117.869 C737.676,138.404 702.039,167.054 673,195 C659.055,208.42 644.686,224.7492 633.739,237.8077 " fill="none" id="Client-to-Classification-1" style="stroke:#A80036;stroke-width:1.0;"/><polygon fill="#A80036" points="630.456,241.7485,639.2901,237.3944,633.6566,237.9071,633.1439,232.2735,630.456,241.7485" style="stroke:#A80036;stroke-width:1.0;"/><text fill="#000000" font-family="sans-serif" font-size="13" lengthAdjust="spacing" textLength="65" x="674" y="208.0669">see_along</text><!--MD5=[f79da127e1b4d6a6e5d53da9189c090a]
link Client to Image--><path codeLine="47" d="M764.39,90.92 C658.091,98.322 370.748,124.593 314,195 C303.526,207.995 312.427,224.6029 323.87,237.9077 " fill="none" id="Client-to-Image" style="stroke:#A80036;stroke-width:1.0;"/><polygon fill="#A80036" points="327.484,241.9231,324.4369,232.5575,324.1393,238.2065,318.4903,237.9089,327.484,241.9231" style="stroke:#A80036;stroke-width:1.0;"/><text fill="#000000" font-family="sans-serif" font-size="13" lengthAdjust="spacing" textLength="23" x="315" y="208.0669">see</text><!--MD5=[f79da127e1b4d6a6e5d53da9189c090a]
link Client to Image--><path codeLine="52" d="M764.404,87.576 C682.771,87.767 493.815,99.299 379,195 C366.342,205.5507 358.785,222.5717 354.421,236.6856 " fill="none" id="Client-to-Image-1" style="stroke:#A80036;stroke-width:1.0;"/><polygon fill="#A80036" points="352.955,241.7366,359.3059,234.2089,354.3492,236.9349,351.6232,231.9782,352.955,241.7366" style="stroke:#A80036;stroke-width:1.0;"/><text fill="#000000" font-family="sans-serif" font-size="13" lengthAdjust="spacing" textLength="43" x="380" y="208.0669">upload</text><!--MD5=[f79da127e1b4d6a6e5d53da9189c090a]
link Client to Image--><path codeLine="57" d="M764.119,100.656 C704.322,119.208 588.18,156.509 492,195 C450.724,211.5183 404.195,233.6779 375.735,247.6495 " fill="none" id="Client-to-Image-2" style="stroke:#A80036;stroke-width:1.0;"/><polygon fill="#A80036" points="370.982,249.9895,380.8233,249.6029,375.4678,247.781,377.2897,242.4256,370.982,249.9895" style="stroke:#A80036;stroke-width:1.0;"/><text fill="#000000" font-family="sans-serif" font-size="13" lengthAdjust="spacing" textLength="88" x="493" y="208.0669">supported_by</text><!--MD5=[46a4a2db07a35a5e99365725b7b211bf]
link Client to Topic--><path codeLine="49" d="M843.523,114.325 C899.123,150.654 998.712,215.7264 1044.18,245.4374 " fill="none" id="Client-to-Topic" style="stroke:#A80036;stroke-width:1.0;"/><polygon fill="#A80036" points="1048.41,248.2001,1043.0549,239.9344,1044.2214,245.4696,1038.6861,246.6362,1048.41,248.2001" style="stroke:#A80036;stroke-width:1.0;"/><text fill="#000000" font-family="sans-serif" font-size="13" lengthAdjust="spacing" textLength="27" x="990" y="208.0669">give</text><!--MD5=[993a1ed30139d6bc9fd462e29443e622]
link User to User--><path codeLine="50" d="M182.297,66.515 C200.548,63.286 217,70.281 217,87.5 C217,103.104 203.488,110.312 187.371,109.124 " fill="none" id="User-to-User" style="stroke:#A80036;stroke-width:1.0;"/><polygon fill="#A80036" points="182.297,108.485,190.7272,113.5773,187.2579,109.1092,191.726,105.6399,182.297,108.485" style="stroke:#A80036;stroke-width:1.0;"/><text fill="#000000" font-family="sans-serif" font-size="13" lengthAdjust="spacing" textLength="46" x="223" y="92.0669">choose</text><!--MD5=[a66cf45e9b16d3819df4923c26f08b9d]
link Client to Pipeline--><path codeLine="51" d="M843.869,107.203 C888.434,128.207 962.66,163.485 1026,195 C1059.3,211.5662 1097.11,231.1625 1122.95,244.6753 " fill="none" id="Client-to-Pipeline" style="stroke:#A80036;stroke-width:1.0;"/><polygon fill="#A80036" points="1127.64,247.1255,1121.515,239.4129,1123.2083,244.8104,1117.8108,246.5037,1127.64,247.1255" style="stroke:#A80036;stroke-width:1.0;"/><text fill="#000000" font-family="sans-serif" font-size="13" lengthAdjust="spacing" textLength="43" x="1058" y="208.0669">upload</text><!--MD5=[a66cf45e9b16d3819df4923c26f08b9d]
link Client to Pipeline--><path codeLine="55" d="M843.579,93.997 C905.886,104.339 1028.16,131.635 1110,195 C1124.28,206.059 1135.48,223.1129 1143.01,237.1147 " fill="none" id="Client-to-Pipeline-1" style="stroke:#A80036;stroke-width:1.0;"/><polygon fill="#A80036" points="1145.42,241.733,1144.7985,231.9038,1143.105,237.3012,1137.7076,235.6077,1145.42,241.733" style="stroke:#A80036;stroke-width:1.0;"/><text fill="#000000" font-family="sans-serif" font-size="13" lengthAdjust="spacing" textLength="29" x="1127" y="208.0669">train</text><!--MD5=[87c463e55ba9a05eb2c54f7e7fed640e]
link User to Time--><path codeLine="53" d="M144.503,139.578 C143.74,161.826 143.272,188.2046 144,212 C144.246,220.0291 144.717,228.7878 145.215,236.6506 " fill="none" id="User-to-Time" style="stroke:#A80036;stroke-width:1.0;"/><polygon fill="#A80036" points="145.561,241.931,148.9634,232.6885,145.2338,236.9417,140.9805,233.2121,145.561,241.931" style="stroke:#A80036;stroke-width:1.0;"/><text fill="#000000" font-family="sans-serif" font-size="13" lengthAdjust="spacing" textLength="43" x="145" y="208.0669">upload</text><!--MD5=[a27555979845385991c022b1bcd3d809]
link Client to Model--><path codeLine="54" d="M801.621,165.291 C800.936,180.765 800.074,196.9099 799,212 C798.428,220.0391 797.599,228.8005 796.78,236.6626 " fill="none" id="Client-to-Model" style="stroke:#A80036;stroke-width:1.0;"/><polygon fill="#A80036" points="796.219,241.9421,801.1493,233.4161,796.7483,236.9702,793.1943,232.5692,796.219,241.9421" style="stroke:#A80036;stroke-width:1.0;"/><text fill="#000000" font-family="sans-serif" font-size="13" lengthAdjust="spacing" textLength="47" x="802" y="208.0669">replace</text><!--MD5=[c25d1ca48072495f4a27fd53b8edb585]
reverse link Client to Unix--><path codeLine="56" d="M856.373,96.696 C929.128,109.652 1063.29,139.307 1165,195 C1188.14,207.6737 1210.43,228.3589 1224.81,243.195 " fill="none" id="Client-backto-Unix" style="stroke:#A80036;stroke-width:1.0;"/><polygon fill="#FFFFFF" points="843.525,94.469,848.7538,99.4349,855.3487,96.5183,850.12,91.5524,843.525,94.469" style="stroke:#A80036;stroke-width:1.0;"/><text fill="#000000" font-family="sans-serif" font-size="13" lengthAdjust="spacing" textLength="21" x="1191" y="208.0669">run</text><!--MD5=[2ee27a3c226c8efddfe3344676e0d9e8]
link User to Tag--><path codeLine="58" d="M117.375,139.724 C107.666,157.091 97.0545,176.722 88,195 C81.2315,208.663 74.3375,224.269 68.9702,236.8743 " fill="none" id="User-to-Tag" style="stroke:#A80036;stroke-width:1.0;"/><polygon fill="#A80036" points="66.9174,241.724,74.1093,234.9953,68.8665,237.1195,66.7422,231.8767,66.9174,241.724" style="stroke:#A80036;stroke-width:1.0;"/><text fill="#000000" font-family="sans-serif" font-size="13" lengthAdjust="spacing" textLength="46" x="89" y="208.0669">choose</text><!--MD5=[64e5e7ea485feb6702a004bda04f5280]
link Client to MachineLearningAlgorithm--><path codeLine="59" d="M843.798,142.135 C867.663,174.296 896.793,213.5535 914.873,237.9193 " fill="none" id="Client-to-MachineLearningAlgorithm" style="stroke:#A80036;stroke-width:1.0;"/><polygon fill="#A80036" points="917.897,241.9943,915.7467,232.383,914.9177,237.9788,909.322,237.1498,917.897,241.9943" style="stroke:#A80036;stroke-width:1.0;"/><text fill="#000000" font-family="sans-serif" font-size="13" lengthAdjust="spacing" textLength="47" x="896" y="208.0669">replace</text><!--MD5=[bde531d6ee4fd18eea2470b74b3fd1a6]
link Client to Set--><path codeLine="60" d="M768.445,165.166 C756.365,191.2124 743.738,218.4398 735.044,237.1872 " fill="none" id="Client-to-Set" style="stroke:#A80036;stroke-width:1.0;"/><polygon fill="#A80036" points="732.921,241.7649,740.3365,235.2834,735.0248,237.229,733.0791,231.9173,732.921,241.7649" style="stroke:#A80036;stroke-width:1.0;"/><text fill="#000000" font-family="sans-serif" font-size="13" lengthAdjust="spacing" textLength="27" x="756" y="208.0669">give</text><!--MD5=[c25fea705d972bc4c982367c77334ae5]
reverse link User to Image--><path codeLine="61" d="M178.547,151.198 C191.784,172.701 208.83,195.4826 229,212 C258.598,236.2378 301.803,249.8927 327.492,256.3318 " fill="none" id="User-backto-Image" style="stroke:#A80036;stroke-width:1.0;"/><polygon fill="#FFFFFF" points="171.783,139.772,171.3975,146.9728,177.8961,150.0982,178.2816,142.8974,171.783,139.772" style="stroke:#A80036;stroke-width:1.0;"/><text fill="#000000" font-family="sans-serif" font-size="13" lengthAdjust="spacing" textLength="43" x="230" y="208.0669">upload</text><!--MD5=[c7f7a72ac6d5cd509e502e0c79ccf805]
@startuml
hide circle
class Input<actor> {
}
class User<actor> {
	image
}
class Client<actor> {
	unix
}
class User {
	choose()
	detect()
	upload()
	want()
}
class Tag {
}
class Client {
	extract()
	run()
	replace()
	train()
	give()
	see_along()
	upload()
	see()
}
class Pipeline {
}
class Unix {
}
class Classification {
}
class Image {
}
class Set {
}
class Model {
}
class MachineLearningAlgorithm {
}
class Time {
}
class Topic {
}
Client - -> Classification : see
Client - -> Image : see
Client - -> Classification : see_along
Client - -> Topic : give
User - -> User : choose
Client - -> Pipeline : upload
Client - -> Image : upload
User - -> Time : upload
Client - -> Model : replace
Client - -> Pipeline : train
Client o- - Unix : run
Client - -> Image : supported_by
User - -> Tag : choose
Client - -> MachineLearningAlgorithm : replace
Client - -> Set : give
User o- - Image : upload
@enduml

PlantUML version 1.2021.9beta2(Unknown compile time)
(GPL source distribution)
Java Runtime: Java(TM) SE Runtime Environment
JVM: Java HotSpot(TM) 64-Bit Server VM
Default Encoding: UTF-8
Language: en
Country: US
--></g></svg>