<?xml version="1.0" encoding="UTF-8" standalone="no"?><svg xmlns="http://www.w3.org/2000/svg" xmlns:xlink="http://www.w3.org/1999/xlink" contentScriptType="application/ecmascript" contentStyleType="text/css" height="334px" preserveAspectRatio="none" style="width:1506px;height:334px;background:#FFFFFF;" version="1.1" viewBox="0 0 1506 334" width="1506px" zoomAndPan="magnify"><defs><filter height="300%" id="fz1sqn7q3zt1z" width="300%" x="-1" y="-1"><feGaussianBlur result="blurOut" stdDeviation="2.0"/><feColorMatrix in="blurOut" result="blurOut2" type="matrix" values="0 0 0 0 0 0 0 0 0 0 0 0 0 0 0 0 0 0 .4 0"/><feOffset dx="4.0" dy="4.0" in="blurOut2" result="blurOut3"/><feBlend in="SourceGraphic" in2="blurOut3" mode="normal"/></filter></defs><g><!--MD5=[3fd616f346a44cd59a91eb10b19e157c]
class User--><rect codeLine="6" fill="#FEFECE" filter="url(#fz1sqn7q3zt1z)" height="193.625" id="User" style="stroke:#A80036;stroke-width:1.5;" width="73" x="716.5" y="10"/><text fill="#000000" font-family="sans-serif" font-size="12" lengthAdjust="spacing" textLength="29" x="721" y="26.1387">User</text><rect fill="#FFFFFF" height="15.9688" style="stroke:#000000;stroke-width:1.0;stroke-dasharray:2.0,2.0;" width="33" x="759.5" y="7"/><text fill="#000000" font-family="sans-serif" font-size="12" font-style="italic" lengthAdjust="spacing" textLength="31" x="760.5" y="19.1387">actor</text><line style="stroke:#A80036;stroke-width:1.5;" x1="717.5" x2="788.5" y1="33.9688" y2="33.9688"/><line style="stroke:#A80036;stroke-width:1.5;" x1="717.5" x2="788.5" y1="41.9688" y2="41.9688"/><text fill="#000000" font-family="sans-serif" font-size="11" lengthAdjust="spacing" textLength="42" x="722.5" y="56.1792">waste()</text><text fill="#000000" font-family="sans-serif" font-size="11" lengthAdjust="spacing" textLength="29" x="722.5" y="68.9839">buy()</text><text fill="#000000" font-family="sans-serif" font-size="11" lengthAdjust="spacing" textLength="61" x="722.5" y="81.7886">minimize()</text><text fill="#000000" font-family="sans-serif" font-size="11" lengthAdjust="spacing" textLength="35" x="722.5" y="94.5933">view()</text><text fill="#000000" font-family="sans-serif" font-size="11" lengthAdjust="spacing" textLength="41" x="722.5" y="107.3979">follow()</text><text fill="#000000" font-family="sans-serif" font-size="11" lengthAdjust="spacing" textLength="29" x="722.5" y="120.2026">sort()</text><text fill="#000000" font-family="sans-serif" font-size="11" lengthAdjust="spacing" textLength="52" x="722.5" y="133.0073">viewing()</text><text fill="#000000" font-family="sans-serif" font-size="11" lengthAdjust="spacing" textLength="35" x="722.5" y="145.812">shop()</text><text fill="#000000" font-family="sans-serif" font-size="11" lengthAdjust="spacing" textLength="27" x="722.5" y="158.6167">get()</text><text fill="#000000" font-family="sans-serif" font-size="11" lengthAdjust="spacing" textLength="35" x="722.5" y="171.4214">slide()</text><text fill="#000000" font-family="sans-serif" font-size="11" lengthAdjust="spacing" textLength="30" x="722.5" y="184.2261">see()</text><text fill="#000000" font-family="sans-serif" font-size="11" lengthAdjust="spacing" textLength="55" x="722.5" y="197.0308">collapse()</text><!--MD5=[3a082f03ada48a9c9760bc64ea0753c5]
class Retailer--><rect codeLine="4" fill="#FEFECE" filter="url(#fz1sqn7q3zt1z)" height="39.9688" id="Retailer" style="stroke:#A80036;stroke-width:1.5;" width="86" x="825" y="87"/><text fill="#000000" font-family="sans-serif" font-size="12" lengthAdjust="spacing" textLength="45" x="828" y="103.1387">Retailer</text><rect fill="#FFFFFF" height="15.9688" style="stroke:#000000;stroke-width:1.0;stroke-dasharray:2.0,2.0;" width="33" x="881" y="84"/><text fill="#000000" font-family="sans-serif" font-size="12" font-style="italic" lengthAdjust="spacing" textLength="31" x="882" y="96.1387">actor</text><line style="stroke:#A80036;stroke-width:1.5;" x1="826" x2="910" y1="110.9688" y2="110.9688"/><line style="stroke:#A80036;stroke-width:1.5;" x1="826" x2="910" y1="118.9688" y2="118.9688"/><!--MD5=[028fba31e0312914fa4880b63f0540b8]
class Detail--><rect codeLine="20" fill="#FEFECE" filter="url(#fz1sqn7q3zt1z)" height="39.9688" id="Detail" style="stroke:#A80036;stroke-width:1.5;" width="40" x="7" y="281"/><text fill="#000000" font-family="sans-serif" font-size="12" lengthAdjust="spacing" textLength="34" x="10" y="297.1387">Detail</text><line style="stroke:#A80036;stroke-width:1.5;" x1="8" x2="46" y1="304.9688" y2="304.9688"/><line style="stroke:#A80036;stroke-width:1.5;" x1="8" x2="46" y1="312.9688" y2="312.9688"/><!--MD5=[26b1154f4b01dec99cfe7f1f8bee6bbb]
class Cluster--><rect codeLine="22" fill="#FEFECE" filter="url(#fz1sqn7q3zt1z)" height="39.9688" id="Cluster" style="stroke:#A80036;stroke-width:1.5;" width="48" x="82" y="281"/><text fill="#000000" font-family="sans-serif" font-size="12" lengthAdjust="spacing" textLength="42" x="85" y="297.1387">Cluster</text><line style="stroke:#A80036;stroke-width:1.5;" x1="83" x2="129" y1="304.9688" y2="304.9688"/><line style="stroke:#A80036;stroke-width:1.5;" x1="83" x2="129" y1="312.9688" y2="312.9688"/><!--MD5=[a7f9118cae7621dd25d25149752faef0]
class Circle--><rect codeLine="24" fill="#FEFECE" filter="url(#fz1sqn7q3zt1z)" height="39.9688" id="Circle" style="stroke:#A80036;stroke-width:1.5;" width="40" x="165" y="281"/><text fill="#000000" font-family="sans-serif" font-size="12" lengthAdjust="spacing" textLength="34" x="168" y="297.1387">Circle</text><line style="stroke:#A80036;stroke-width:1.5;" x1="166" x2="204" y1="304.9688" y2="304.9688"/><line style="stroke:#A80036;stroke-width:1.5;" x1="166" x2="204" y1="312.9688" y2="312.9688"/><!--MD5=[1e9a764d87e7c58eda8681113f5d03cd]
class Sort--><rect codeLine="26" fill="#FEFECE" filter="url(#fz1sqn7q3zt1z)" height="39.9688" id="Sort" style="stroke:#A80036;stroke-width:1.5;" width="31" x="240.5" y="281"/><text fill="#000000" font-family="sans-serif" font-size="12" lengthAdjust="spacing" textLength="25" x="243.5" y="297.1387">Sort</text><line style="stroke:#A80036;stroke-width:1.5;" x1="241.5" x2="270.5" y1="304.9688" y2="304.9688"/><line style="stroke:#A80036;stroke-width:1.5;" x1="241.5" x2="270.5" y1="312.9688" y2="312.9688"/><!--MD5=[6e17115284426477538ba7ec818be746]
class Clothing--><rect codeLine="28" fill="#FEFECE" filter="url(#fz1sqn7q3zt1z)" height="39.9688" id="Clothing" style="stroke:#A80036;stroke-width:1.5;" width="54" x="307" y="281"/><text fill="#000000" font-family="sans-serif" font-size="12" lengthAdjust="spacing" textLength="48" x="310" y="297.1387">Clothing</text><line style="stroke:#A80036;stroke-width:1.5;" x1="308" x2="360" y1="304.9688" y2="304.9688"/><line style="stroke:#A80036;stroke-width:1.5;" x1="308" x2="360" y1="312.9688" y2="312.9688"/><!--MD5=[20501083678ae92fda0ac4d93d5e569d]
class LoaderAnimation--><rect codeLine="30" fill="#FEFECE" filter="url(#fz1sqn7q3zt1z)" height="39.9688" id="LoaderAnimation" style="stroke:#A80036;stroke-width:1.5;" width="106" x="396" y="281"/><text fill="#000000" font-family="sans-serif" font-size="12" lengthAdjust="spacing" textLength="100" x="399" y="297.1387">LoaderAnimation</text><line style="stroke:#A80036;stroke-width:1.5;" x1="397" x2="501" y1="304.9688" y2="304.9688"/><line style="stroke:#A80036;stroke-width:1.5;" x1="397" x2="501" y1="312.9688" y2="312.9688"/><!--MD5=[44a1b4afaef76c16e6c9ec4990ad0c8d]
class Item--><rect codeLine="32" fill="#FEFECE" filter="url(#fz1sqn7q3zt1z)" height="39.9688" id="Item" style="stroke:#A80036;stroke-width:1.5;" width="32" x="537" y="281"/><text fill="#000000" font-family="sans-serif" font-size="12" lengthAdjust="spacing" textLength="26" x="540" y="297.1387">Item</text><line style="stroke:#A80036;stroke-width:1.5;" x1="538" x2="568" y1="304.9688" y2="304.9688"/><line style="stroke:#A80036;stroke-width:1.5;" x1="538" x2="568" y1="312.9688" y2="312.9688"/><!--MD5=[c160724f8e3bb89ca8141a12554ac2e3]
class Collection--><rect codeLine="34" fill="#FEFECE" filter="url(#fz1sqn7q3zt1z)" height="39.9688" id="Collection" style="stroke:#A80036;stroke-width:1.5;" width="65" x="604.5" y="281"/><text fill="#000000" font-family="sans-serif" font-size="12" lengthAdjust="spacing" textLength="59" x="607.5" y="297.1387">Collection</text><line style="stroke:#A80036;stroke-width:1.5;" x1="605.5" x2="668.5" y1="304.9688" y2="304.9688"/><line style="stroke:#A80036;stroke-width:1.5;" x1="605.5" x2="668.5" y1="312.9688" y2="312.9688"/><!--MD5=[346efc73a349de30375584d1828eefb1]
class UserExperience--><rect codeLine="36" fill="#FEFECE" filter="url(#fz1sqn7q3zt1z)" height="39.9688" id="UserExperience" style="stroke:#A80036;stroke-width:1.5;" width="103" x="704.5" y="281"/><text fill="#000000" font-family="sans-serif" font-size="12" lengthAdjust="spacing" textLength="97" x="707.5" y="297.1387">UserExperience</text><line style="stroke:#A80036;stroke-width:1.5;" x1="705.5" x2="806.5" y1="304.9688" y2="304.9688"/><line style="stroke:#A80036;stroke-width:1.5;" x1="705.5" x2="806.5" y1="312.9688" y2="312.9688"/><!--MD5=[6a494c20d032ff54e1efa92c1369bc7b]
class Page--><rect codeLine="38" fill="#FEFECE" filter="url(#fz1sqn7q3zt1z)" height="39.9688" id="Page" style="stroke:#A80036;stroke-width:1.5;" width="35" x="842.5" y="281"/><text fill="#000000" font-family="sans-serif" font-size="12" lengthAdjust="spacing" textLength="29" x="845.5" y="297.1387">Page</text><line style="stroke:#A80036;stroke-width:1.5;" x1="843.5" x2="876.5" y1="304.9688" y2="304.9688"/><line style="stroke:#A80036;stroke-width:1.5;" x1="843.5" x2="876.5" y1="312.9688" y2="312.9688"/><!--MD5=[a7998728ec5159d0ecbc950d0709be7b]
class Trend--><rect codeLine="40" fill="#FEFECE" filter="url(#fz1sqn7q3zt1z)" height="39.9688" id="Trend" style="stroke:#A80036;stroke-width:1.5;" width="41" x="912.5" y="281"/><text fill="#000000" font-family="sans-serif" font-size="12" lengthAdjust="spacing" textLength="35" x="915.5" y="297.1387">Trend</text><line style="stroke:#A80036;stroke-width:1.5;" x1="913.5" x2="952.5" y1="304.9688" y2="304.9688"/><line style="stroke:#A80036;stroke-width:1.5;" x1="913.5" x2="952.5" y1="312.9688" y2="312.9688"/><!--MD5=[72136138052d025cffdce3c22fbd185f]
class Product--><rect codeLine="42" fill="#FEFECE" filter="url(#fz1sqn7q3zt1z)" height="39.9688" id="Product" style="stroke:#A80036;stroke-width:1.5;" width="51" x="1070.5" y="281"/><text fill="#000000" font-family="sans-serif" font-size="12" lengthAdjust="spacing" textLength="45" x="1073.5" y="297.1387">Product</text><line style="stroke:#A80036;stroke-width:1.5;" x1="1071.5" x2="1120.5" y1="304.9688" y2="304.9688"/><line style="stroke:#A80036;stroke-width:1.5;" x1="1071.5" x2="1120.5" y1="312.9688" y2="312.9688"/><!--MD5=[b875eb2a6d4ff9e6a3852fd4edc20d45]
class Cost--><rect codeLine="44" fill="#FEFECE" filter="url(#fz1sqn7q3zt1z)" height="39.9688" id="Cost" style="stroke:#A80036;stroke-width:1.5;" width="33" x="1279.5" y="281"/><text fill="#000000" font-family="sans-serif" font-size="12" lengthAdjust="spacing" textLength="27" x="1282.5" y="297.1387">Cost</text><line style="stroke:#A80036;stroke-width:1.5;" x1="1280.5" x2="1311.5" y1="304.9688" y2="304.9688"/><line style="stroke:#A80036;stroke-width:1.5;" x1="1280.5" x2="1311.5" y1="312.9688" y2="312.9688"/><!--MD5=[1db584ee1b8127ea75535273dec2b4f2]
class Version--><rect codeLine="46" fill="#FEFECE" filter="url(#fz1sqn7q3zt1z)" height="39.9688" id="Version" style="stroke:#A80036;stroke-width:1.5;" width="52" x="1370" y="281"/><text fill="#000000" font-family="sans-serif" font-size="12" lengthAdjust="spacing" textLength="46" x="1373" y="297.1387">Version</text><line style="stroke:#A80036;stroke-width:1.5;" x1="1371" x2="1421" y1="304.9688" y2="304.9688"/><line style="stroke:#A80036;stroke-width:1.5;" x1="1371" x2="1421" y1="312.9688" y2="312.9688"/><!--MD5=[2e42295458bb0bec21c9622a623eb29e]
class Time--><rect codeLine="48" fill="#FEFECE" filter="url(#fz1sqn7q3zt1z)" height="39.9688" id="Time" style="stroke:#A80036;stroke-width:1.5;" width="35" x="1457.5" y="281"/><text fill="#000000" font-family="sans-serif" font-size="12" lengthAdjust="spacing" textLength="29" x="1460.5" y="297.1387">Time</text><line style="stroke:#A80036;stroke-width:1.5;" x1="1458.5" x2="1491.5" y1="304.9688" y2="304.9688"/><line style="stroke:#A80036;stroke-width:1.5;" x1="1458.5" x2="1491.5" y1="312.9688" y2="312.9688"/><!--MD5=[f3621b0d77da419b440109b0a780c1d5]
link User to Sort--><path codeLine="50" d="M716.309,114.558 C642.19,128.789 470.64,166.753 341,234 C316.538,246.6891 292.046,266.6663 275.681,281.3207 " fill="none" id="User-to-Sort" style="stroke:#A80036;stroke-width:1.0;"/><polygon fill="#A80036" points="271.7,284.9241,281.0566,281.8494,275.4067,281.5685,275.6876,275.9186,271.7,284.9241" style="stroke:#A80036;stroke-width:1.0;"/><text fill="#000000" font-family="sans-serif" font-size="13" lengthAdjust="spacing" textLength="52" x="342" y="247.0669">collapse</text><!--MD5=[9d9c6880ca964776b77e2c7082356ba0]
link User to Version--><path codeLine="51" d="M789.614,189.027 C794.744,194.802 800.518,199.938 807,204 C899.442,261.928 1193.6,199.21 1297,234 C1324.48,243.2478 1351.6,262.2001 1370.48,277.4326 " fill="none" id="User-to-Version" style="stroke:#A80036;stroke-width:1.0;"/><polygon fill="#A80036" points="1374.62,280.819,1370.1942,272.0206,1370.7527,277.6498,1365.1235,278.2082,1374.62,280.819" style="stroke:#A80036;stroke-width:1.0;"/><text fill="#000000" font-family="sans-serif" font-size="13" lengthAdjust="spacing" textLength="30" x="1334" y="247.0669">view</text><!--MD5=[5831214aaa856d067eb0074bfe664020]
link User to Clothing--><path codeLine="52" d="M716.442,119.199 C655.291,138.597 529.201,181.455 430,234 C406.072,246.674 380.917,264.1417 362.362,277.9234 " fill="none" id="User-to-Clothing" style="stroke:#A80036;stroke-width:1.0;"/><polygon fill="#A80036" points="358.268,280.9834,367.8712,278.7976,362.2724,277.9893,363.0807,272.3905,358.268,280.9834" style="stroke:#A80036;stroke-width:1.0;"/><text fill="#000000" font-family="sans-serif" font-size="13" lengthAdjust="spacing" textLength="24" x="431" y="247.0669">buy</text><!--MD5=[da5ae37bbfff862f49498a429f77c897]
link User to LoaderAnimation--><path codeLine="53" d="M716.299,115.307 C657.652,128.794 542.554,162.961 475,234 C464.04,245.525 457.522,262.2177 453.752,275.9315 " fill="none" id="User-to-LoaderAnimation" style="stroke:#A80036;stroke-width:1.0;"/><polygon fill="#A80036" points="452.485,280.8341,458.6103,273.1217,453.7364,275.9932,450.8649,271.1194,452.485,280.8341" style="stroke:#A80036;stroke-width:1.0;"/><text fill="#000000" font-family="sans-serif" font-size="13" lengthAdjust="spacing" textLength="23" x="476" y="247.0669">see</text><!--MD5=[057ee07bb7b2e2aedbcccdbc42ce2201]
link User to Product--><path codeLine="54" d="M789.623,186.095 C794.805,192.727 800.587,198.853 807,204 C842.856,232.7776 862.367,219.509 906,234 C927.081,241.0012 932.048,243.6217 953,251 C991.727,264.6376 1036.53,279.907 1065.51,289.7204 " fill="none" id="User-to-Product" style="stroke:#A80036;stroke-width:1.0;"/><polygon fill="#A80036" points="1070.38,291.3674,1063.1517,284.6778,1065.6473,289.7544,1060.5708,292.25,1070.38,291.3674" style="stroke:#A80036;stroke-width:1.0;"/><text fill="#000000" font-family="sans-serif" font-size="13" lengthAdjust="spacing" textLength="31" x="954" y="247.0669">shop</text><!--MD5=[057ee07bb7b2e2aedbcccdbc42ce2201]
link User to Product--><path codeLine="59" d="M789.695,187.892 C794.824,193.989 800.576,199.506 807,204 C874.533,251.2454 912.855,204.989 990,234 C1018.04,244.5433 1046.69,262.9321 1067.12,277.626 " fill="none" id="User-to-Product-1" style="stroke:#A80036;stroke-width:1.0;"/><polygon fill="#A80036" points="1071.36,280.7013,1066.4354,272.1721,1067.3168,277.7598,1061.729,278.6412,1071.36,280.7013" style="stroke:#A80036;stroke-width:1.0;"/><text fill="#000000" font-family="sans-serif" font-size="13" lengthAdjust="spacing" textLength="25" x="1025" y="247.0669">sort</text><!--MD5=[057ee07bb7b2e2aedbcccdbc42ce2201]
link User to Product--><path codeLine="64" d="M789.873,188.627 C794.948,194.487 800.64,199.751 807,204 C900.056,266.1607 963.286,172.835 1057,234 C1071.92,243.7381 1081.9,261.339 1088.03,275.9167 " fill="none" id="User-to-Product-2" style="stroke:#A80036;stroke-width:1.0;"/><polygon fill="#A80036" points="1089.96,280.7288,1090.3212,270.8866,1088.0982,276.0883,1082.8965,273.8654,1089.96,280.7288" style="stroke:#A80036;stroke-width:1.0;"/><text fill="#000000" font-family="sans-serif" font-size="13" lengthAdjust="spacing" textLength="21" x="1075" y="247.0669">get</text><!--MD5=[057ee07bb7b2e2aedbcccdbc42ce2201]
link User to Product--><path codeLine="66" d="M789.787,188.757 C794.88,194.589 800.599,199.812 807,204 C862.695,240.4397 1060.36,184.636 1105,234 C1115.09,245.1528 1112.6,262.0036 1107.72,275.8867 " fill="none" id="User-to-Product-3" style="stroke:#A80036;stroke-width:1.0;"/><polygon fill="#A80036" points="1105.83,280.8512,1112.7706,273.8635,1107.6091,276.1784,1105.2941,271.0169,1105.83,280.8512" style="stroke:#A80036;stroke-width:1.0;"/><text fill="#000000" font-family="sans-serif" font-size="13" lengthAdjust="spacing" textLength="23" x="1113" y="247.0669">see</text><!--MD5=[057ee07bb7b2e2aedbcccdbc42ce2201]
link User to Product--><path codeLine="69" d="M789.734,188.838 C794.839,194.653 800.575,199.85 807,204 C870.343,244.9115 1094.09,178.373 1145,234 C1158.32,248.5579 1142.96,266.6457 1126.01,280.2023 " fill="none" id="User-to-Product-4" style="stroke:#A80036;stroke-width:1.0;"/><polygon fill="#A80036" points="1121.68,283.5464,1131.2473,281.2083,1125.6364,280.4891,1126.3556,274.8781,1121.68,283.5464" style="stroke:#A80036;stroke-width:1.0;"/><text fill="#000000" font-family="sans-serif" font-size="13" lengthAdjust="spacing" textLength="30" x="1152" y="247.0669">view</text><!--MD5=[53a588df3f5f0f7f452d1b4562b14650]
link User to Item--><path codeLine="55" d="M716.158,114.816 C660.307,127.349 555.966,159.892 511,234 C500.218,251.7691 517.335,271.8786 532.849,285.1808 " fill="none" id="User-to-Item" style="stroke:#A80036;stroke-width:1.0;"/><polygon fill="#A80036" points="536.74,288.4105,532.3685,279.585,532.8923,285.2175,527.2597,285.7413,536.74,288.4105" style="stroke:#A80036;stroke-width:1.0;"/><text fill="#000000" font-family="sans-serif" font-size="13" lengthAdjust="spacing" textLength="23" x="512" y="247.0669">see</text><!--MD5=[53a588df3f5f0f7f452d1b4562b14650]
link User to Item--><path codeLine="57" d="M716.317,143.216 C674.271,183.58 606.856,248.2979 573.317,280.4957 " fill="none" id="User-to-Item-1" style="stroke:#A80036;stroke-width:1.0;"/><polygon fill="#A80036" points="569.399,284.2573,578.6615,280.9099,573.0059,280.7946,573.1212,275.1389,569.399,284.2573" style="stroke:#A80036;stroke-width:1.0;"/><text fill="#000000" font-family="sans-serif" font-size="13" lengthAdjust="spacing" textLength="30" x="619" y="247.0669">view</text><!--MD5=[83407b90fd95681fb135dfbc460c56b2]
link User to Collection--><path codeLine="56" d="M716.456,168.486 C694.358,205.062 667.423,249.6445 651.272,276.3777 " fill="none" id="User-to-Collection" style="stroke:#A80036;stroke-width:1.0;"/><polygon fill="#A80036" points="648.58,280.8331,656.6584,275.1994,651.1661,276.5539,649.8116,271.0616,648.58,280.8331" style="stroke:#A80036;stroke-width:1.0;"/><text fill="#000000" font-family="sans-serif" font-size="13" lengthAdjust="spacing" textLength="29" x="676" y="247.0669">slide</text><!--MD5=[9af2583e6ee458e40490fedf806b8a74]
link User to UserExperience--><path codeLine="58" d="M716.441,196.809 C713.295,214.909 713.202,233.7 719,251 C722.087,260.2102 727.664,269.0721 733.568,276.6667 " fill="none" id="User-to-UserExperience" style="stroke:#A80036;stroke-width:1.0;"/><polygon fill="#A80036" points="736.868,280.7497,734.3219,271.2357,733.7251,276.8609,728.0998,276.2642,736.868,280.7497" style="stroke:#A80036;stroke-width:1.0;"/><text fill="#000000" font-family="sans-serif" font-size="13" lengthAdjust="spacing" textLength="21" x="720" y="247.0669">get</text><!--MD5=[87c463e55ba9a05eb2c54f7e7fed640e]
link User to Time--><path codeLine="60" d="M789.579,189.083 C794.716,194.847 800.502,199.965 807,204 C914.003,270.4436 1253.19,195.141 1373,234 C1403.4,243.861 1433.55,265.1742 1453.1,280.9261 " fill="none" id="User-to-Time" style="stroke:#A80036;stroke-width:1.0;"/><polygon fill="#A80036" points="1457.34,284.3972,1452.8929,275.6095,1453.465,281.2374,1447.8372,281.8095,1457.34,284.3972" style="stroke:#A80036;stroke-width:1.0;"/><text fill="#000000" font-family="sans-serif" font-size="13" lengthAdjust="spacing" textLength="39" x="1411" y="247.0669">waste</text><!--MD5=[970cac591fccbf7a9f15ccd0a38b4219]
link User to Page--><path codeLine="61" d="M761.396,204.289 C765.859,220.838 772.419,237.1443 782,251 C785.694,256.3418 816.107,274.6345 837.843,287.2911 " fill="none" id="User-to-Page" style="stroke:#A80036;stroke-width:1.0;"/><polygon fill="#A80036" points="842.336,289.8996,836.5622,281.9207,838.0123,287.3885,832.5445,288.8386,842.336,289.8996" style="stroke:#A80036;stroke-width:1.0;"/><text fill="#000000" font-family="sans-serif" font-size="13" lengthAdjust="spacing" textLength="49" x="783" y="247.0669">viewing</text><!--MD5=[0a4221e411748d8d90e6808bfd758b5b]
link User to Trend--><path codeLine="62" d="M789.758,180.93 C795.075,189.051 800.849,196.931 807,204 C836.693,238.125 880.245,268.0297 907.59,285.0496 " fill="none" id="User-to-Trend" style="stroke:#A80036;stroke-width:1.0;"/><polygon fill="#A80036" points="912.167,287.8724,906.6058,279.7439,907.9111,285.2481,902.4069,286.5534,912.167,287.8724" style="stroke:#A80036;stroke-width:1.0;"/><text fill="#000000" font-family="sans-serif" font-size="13" lengthAdjust="spacing" textLength="38" x="859" y="247.0669">follow</text><!--MD5=[570ec5c4e8a1dd44e7fcb71a8cfc57a6]
link User to Detail--><path codeLine="63" d="M716.178,111.291 C618.954,120.877 348.456,153.373 139,234 C106.8134,246.3898 73.145,267.505 51.2326,282.5142 " fill="none" id="User-to-Detail" style="stroke:#A80036;stroke-width:1.0;"/><polygon fill="#A80036" points="47.0108,285.4302,56.6893,283.6066,51.1248,282.5886,52.1428,277.0241,47.0108,285.4302" style="stroke:#A80036;stroke-width:1.0;"/><text fill="#000000" font-family="sans-serif" font-size="13" lengthAdjust="spacing" textLength="30" x="140" y="247.0669">view</text><!--MD5=[dfad3907d3db9e5bc41e9d8f642803f1]
link User to Cluster--><path codeLine="65" d="M716.292,112.329 C627.065,123.739 392.854,159.053 212,234 C183.954,245.6222 154.873,264.2789 134.281,278.7961 " fill="none" id="User-to-Cluster" style="stroke:#A80036;stroke-width:1.0;"/><polygon fill="#A80036" points="130.019,281.827,139.6718,279.8718,134.094,278.9297,135.0361,273.3518,130.019,281.827" style="stroke:#A80036;stroke-width:1.0;"/><text fill="#000000" font-family="sans-serif" font-size="13" lengthAdjust="spacing" textLength="30" x="213" y="247.0669">view</text><!--MD5=[bb84d9f49c56e3fb2d2271475c9b14ae]
link User to Cost--><path codeLine="67" d="M789.687,188.911 C794.802,194.711 800.553,199.884 807,204 C879.145,250.0582 1109.74,207.111 1191,234 C1223.06,244.6091 1255.25,266.9926 1275.37,282.7405 " fill="none" id="User-to-Cost" style="stroke:#A80036;stroke-width:1.0;"/><polygon fill="#A80036" points="1279.48,285.9936,1274.9023,277.2732,1275.5583,282.8919,1269.9396,283.5479,1279.48,285.9936" style="stroke:#A80036;stroke-width:1.0;"/><text fill="#000000" font-family="sans-serif" font-size="13" lengthAdjust="spacing" textLength="58" x="1230" y="247.0669">minimize</text><!--MD5=[94684fa9b6f8a362b98c679d792a65fa]
link User to Circle--><path codeLine="68" d="M716.229,113.596 C635.135,126.838 435.996,164.33 283,234 C256.099,246.25 228.431,265.6213 209.384,280.2154 " fill="none" id="User-to-Circle" style="stroke:#A80036;stroke-width:1.0;"/><polygon fill="#A80036" points="205.214,283.4395,214.7806,281.0984,209.1694,280.3809,209.8869,274.7698,205.214,283.4395" style="stroke:#A80036;stroke-width:1.0;"/><text fill="#000000" font-family="sans-serif" font-size="13" lengthAdjust="spacing" textLength="23" x="284" y="247.0669">see</text><!--MD5=[0ed9d82645dbf1b1798cbc88b751723a]
@startuml
hide circle
class User<actor> {
}
class Retailer<actor> {
}
class User {
	waste()
	buy()
	minimize()
	view()
	follow()
	sort()
	viewing()
	shop()
	get()
	slide()
	see()
	collapse()
}
class Detail {
}
class Cluster {
}
class Circle {
}
class Sort {
}
class Clothing {
}
class LoaderAnimation {
}
class Item {
}
class Collection {
}
class UserExperience {
}
class Page {
}
class Trend {
}
class Product {
}
class Cost {
}
class Version {
}
class Time {
}
User - -> Sort : collapse
User - -> Version : view
User - -> Clothing : buy
User - -> LoaderAnimation : see
User - -> Product : shop
User - -> Item : see
User - -> Collection : slide
User - -> Item : view
User - -> UserExperience : get
User - -> Product : sort
User - -> Time : waste
User - -> Page : viewing
User - -> Trend : follow
User - -> Detail : view
User - -> Product : get
User - -> Cluster : view
User - -> Product : see
User - -> Cost : minimize
User - -> Circle : see
User - -> Product : view
@enduml

PlantUML version 1.2021.6beta6(Unknown compile time)
(GPL source distribution)
Java Runtime: Java(TM) SE Runtime Environment
JVM: Java HotSpot(TM) 64-Bit Server VM
Default Encoding: UTF-8
Language: en
Country: US
--></g></svg>