<?xml version="1.0" encoding="UTF-8" standalone="no"?><svg xmlns="http://www.w3.org/2000/svg" xmlns:xlink="http://www.w3.org/1999/xlink" contentScriptType="application/ecmascript" contentStyleType="text/css" height="835px" preserveAspectRatio="none" style="width:3048px;height:835px;background:#FFFFFF;" version="1.1" viewBox="0 0 3048 835" width="3048px" zoomAndPan="magnify"><defs><filter height="300%" id="f1sqxp4suy30ko" width="300%" x="-1" y="-1"><feGaussianBlur result="blurOut" stdDeviation="2.0"/><feColorMatrix in="blurOut" result="blurOut2" type="matrix" values="0 0 0 0 0 0 0 0 0 0 0 0 0 0 0 0 0 0 .4 0"/><feOffset dx="4.0" dy="4.0" in="blurOut2" result="blurOut3"/><feBlend in="SourceGraphic" in2="blurOut3" mode="normal"/></filter></defs><g><!--MD5=[3fd616f346a44cd59a91eb10b19e157c]
class User--><rect codeLine="13" fill="#FEFECE" filter="url(#f1sqxp4suy30ko)" height="564.9609" id="User" style="stroke:#A80036;stroke-width:1.5;" width="74" x="1357.5143" y="10"/><text fill="#000000" font-family="sans-serif" font-size="12" lengthAdjust="spacing" textLength="29" x="1362.5143" y="26.1387">User</text><rect fill="#FFFFFF" height="15.9688" style="stroke:#000000;stroke-width:1.0;stroke-dasharray:2.0,2.0;" width="33" x="1401.5143" y="7"/><text fill="#000000" font-family="sans-serif" font-size="12" font-style="italic" lengthAdjust="spacing" textLength="31" x="1402.5143" y="19.1387">actor</text><line style="stroke:#A80036;stroke-width:1.5;" x1="1358.5143" x2="1430.5143" y1="33.9688" y2="33.9688"/><text fill="#000000" font-family="sans-serif" font-size="11" lengthAdjust="spacing" textLength="35" x="1363.5143" y="48.1792">felling</text><text fill="#000000" font-family="sans-serif" font-size="11" lengthAdjust="spacing" textLength="34" x="1363.5143" y="60.9839">event</text><text fill="#000000" font-family="sans-serif" font-size="11" lengthAdjust="spacing" textLength="54" x="1363.5143" y="73.7886">computer</text><text fill="#000000" font-family="sans-serif" font-size="11" lengthAdjust="spacing" textLength="41" x="1363.5143" y="86.5933">privacy</text><text fill="#000000" font-family="sans-serif" font-size="11" lengthAdjust="spacing" textLength="53" x="1363.5143" y="99.3979">password</text><text fill="#000000" font-family="sans-serif" font-size="11" lengthAdjust="spacing" textLength="43" x="1363.5143" y="112.2026">storage</text><text fill="#000000" font-family="sans-serif" font-size="11" lengthAdjust="spacing" textLength="55" x="1363.5143" y="125.0073">eventExit</text><text fill="#000000" font-family="sans-serif" font-size="11" lengthAdjust="spacing" textLength="36" x="1363.5143" y="137.812">record</text><text fill="#000000" font-family="sans-serif" font-size="11" lengthAdjust="spacing" textLength="36" x="1363.5143" y="150.6167">phone</text><line style="stroke:#A80036;stroke-width:1.5;" x1="1358.5143" x2="1430.5143" y1="157.2109" y2="157.2109"/><text fill="#000000" font-family="sans-serif" font-size="11" lengthAdjust="spacing" textLength="37" x="1363.5143" y="171.4214">allow()</text><text fill="#000000" font-family="sans-serif" font-size="11" lengthAdjust="spacing" textLength="40" x="1363.5143" y="184.2261">make()</text><text fill="#000000" font-family="sans-serif" font-size="11" lengthAdjust="spacing" textLength="46" x="1363.5143" y="197.0308">upload()</text><text fill="#000000" font-family="sans-serif" font-size="11" lengthAdjust="spacing" textLength="45" x="1363.5143" y="209.8354">create()</text><text fill="#000000" font-family="sans-serif" font-size="11" lengthAdjust="spacing" textLength="47" x="1363.5143" y="222.6401">review()</text><text fill="#000000" font-family="sans-serif" font-size="11" lengthAdjust="spacing" textLength="62" x="1363.5143" y="235.4448">download()</text><text fill="#000000" font-family="sans-serif" font-size="11" lengthAdjust="spacing" textLength="31" x="1363.5143" y="248.2495">look()</text><text fill="#000000" font-family="sans-serif" font-size="11" lengthAdjust="spacing" textLength="35" x="1363.5143" y="261.0542">login()</text><text fill="#000000" font-family="sans-serif" font-size="11" lengthAdjust="spacing" textLength="38" x="1363.5143" y="273.8589">need()</text><text fill="#000000" font-family="sans-serif" font-size="11" lengthAdjust="spacing" textLength="30" x="1363.5143" y="286.6636">see()</text><text fill="#000000" font-family="sans-serif" font-size="11" lengthAdjust="spacing" textLength="49" x="1363.5143" y="299.4683">choose()</text><text fill="#000000" font-family="sans-serif" font-size="11" lengthAdjust="spacing" textLength="54" x="1363.5143" y="312.2729">express()</text><text fill="#000000" font-family="sans-serif" font-size="11" lengthAdjust="spacing" textLength="36" x="1363.5143" y="325.0776">save()</text><text fill="#000000" font-family="sans-serif" font-size="11" lengthAdjust="spacing" textLength="46" x="1363.5143" y="337.8823">delete()</text><text fill="#000000" font-family="sans-serif" font-size="11" lengthAdjust="spacing" textLength="38" x="1363.5143" y="350.687">reset()</text><text fill="#000000" font-family="sans-serif" font-size="11" lengthAdjust="spacing" textLength="46" x="1363.5143" y="363.4917">search()</text><text fill="#000000" font-family="sans-serif" font-size="11" lengthAdjust="spacing" textLength="23" x="1363.5143" y="376.2964">let()</text><text fill="#000000" font-family="sans-serif" font-size="11" lengthAdjust="spacing" textLength="42" x="1363.5143" y="389.1011">forget()</text><text fill="#000000" font-family="sans-serif" font-size="11" lengthAdjust="spacing" textLength="50" x="1363.5143" y="401.9058">change()</text><text fill="#000000" font-family="sans-serif" font-size="11" lengthAdjust="spacing" textLength="49" x="1363.5143" y="414.7104">extend()</text><text fill="#000000" font-family="sans-serif" font-size="11" lengthAdjust="spacing" textLength="28" x="1363.5143" y="427.5151">like()</text><text fill="#000000" font-family="sans-serif" font-size="11" lengthAdjust="spacing" textLength="62" x="1363.5143" y="440.3198">comment()</text><text fill="#000000" font-family="sans-serif" font-size="11" lengthAdjust="spacing" textLength="47" x="1363.5143" y="453.1245">picture()</text><text fill="#000000" font-family="sans-serif" font-size="11" lengthAdjust="spacing" textLength="39" x="1363.5143" y="465.9292">enter()</text><text fill="#000000" font-family="sans-serif" font-size="11" lengthAdjust="spacing" textLength="32" x="1363.5143" y="478.7339">free()</text><text fill="#000000" font-family="sans-serif" font-size="11" lengthAdjust="spacing" textLength="41" x="1363.5143" y="491.5386">log_in()</text><text fill="#000000" font-family="sans-serif" font-size="11" lengthAdjust="spacing" textLength="57" x="1363.5143" y="504.3433">maintain()</text><text fill="#000000" font-family="sans-serif" font-size="11" lengthAdjust="spacing" textLength="42" x="1363.5143" y="517.1479">report()</text><text fill="#000000" font-family="sans-serif" font-size="11" lengthAdjust="spacing" textLength="29" x="1363.5143" y="529.9526">use()</text><text fill="#000000" font-family="sans-serif" font-size="11" lengthAdjust="spacing" textLength="37" x="1363.5143" y="542.7573">keep()</text><text fill="#000000" font-family="sans-serif" font-size="11" lengthAdjust="spacing" textLength="29" x="1363.5143" y="555.562">find()</text><text fill="#000000" font-family="sans-serif" font-size="11" lengthAdjust="spacing" textLength="35" x="1363.5143" y="568.3667">want()</text><!--MD5=[2f01b1126ff33a0669651ec2488a5ef9]
class Password--><rect codeLine="47" fill="#FEFECE" filter="url(#f1sqxp4suy30ko)" height="39.9688" id="Password" style="stroke:#A80036;stroke-width:1.5;" width="64" x="70.5105" y="658.5"/><text fill="#000000" font-family="sans-serif" font-size="12" lengthAdjust="spacing" textLength="58" x="73.5105" y="674.6387">Password</text><line style="stroke:#A80036;stroke-width:1.5;" x1="71.5105" x2="133.5105" y1="682.4688" y2="682.4688"/><line style="stroke:#A80036;stroke-width:1.5;" x1="71.5105" x2="133.5105" y1="690.4688" y2="690.4688"/><!--MD5=[2e42295458bb0bec21c9622a623eb29e]
class Time--><rect codeLine="49" fill="#FEFECE" filter="url(#f1sqxp4suy30ko)" height="39.9688" id="Time" style="stroke:#A80036;stroke-width:1.5;" width="35" x="307.0103" y="658.5"/><text fill="#000000" font-family="sans-serif" font-size="12" lengthAdjust="spacing" textLength="29" x="310.0103" y="674.6387">Time</text><line style="stroke:#A80036;stroke-width:1.5;" x1="308.0103" x2="341.0103" y1="682.4688" y2="682.4688"/><line style="stroke:#A80036;stroke-width:1.5;" x1="308.0103" x2="341.0103" y1="690.4688" y2="690.4688"/><!--MD5=[18b89e0834131a909517048318a5909c]
class Picture--><rect codeLine="51" fill="#FEFECE" filter="url(#f1sqxp4suy30ko)" height="39.9688" id="Picture" style="stroke:#A80036;stroke-width:1.5;" width="46" x="709.5103" y="658.5"/><text fill="#000000" font-family="sans-serif" font-size="12" lengthAdjust="spacing" textLength="40" x="712.5103" y="674.6387">Picture</text><line style="stroke:#A80036;stroke-width:1.5;" x1="710.5103" x2="754.5103" y1="682.4688" y2="682.4688"/><line style="stroke:#A80036;stroke-width:1.5;" x1="710.5103" x2="754.5103" y1="690.4688" y2="690.4688"/><!--MD5=[ac13618b1a974308c1f12eb6c57723dc]
class Event--><rect codeLine="53" fill="#FEFECE" filter="url(#f1sqxp4suy30ko)" height="39.9688" id="Event" style="stroke:#A80036;stroke-width:1.5;" width="39" x="1047.0143" y="782"/><text fill="#000000" font-family="sans-serif" font-size="12" lengthAdjust="spacing" textLength="33" x="1050.0143" y="798.1387">Event</text><line style="stroke:#A80036;stroke-width:1.5;" x1="1048.0143" x2="1085.0143" y1="805.9688" y2="805.9688"/><line style="stroke:#A80036;stroke-width:1.5;" x1="1048.0143" x2="1085.0143" y1="813.9688" y2="813.9688"/><!--MD5=[8a8146ff89b20cc2efd6e16e3c0a6394]
class Register--><rect codeLine="55" fill="#FEFECE" filter="url(#f1sqxp4suy30ko)" height="39.9688" id="Register" style="stroke:#A80036;stroke-width:1.5;" width="56" x="1471.5143" y="658.5"/><text fill="#000000" font-family="sans-serif" font-size="12" lengthAdjust="spacing" textLength="50" x="1474.5143" y="674.6387">Register</text><line style="stroke:#A80036;stroke-width:1.5;" x1="1472.5143" x2="1526.5143" y1="682.4688" y2="682.4688"/><line style="stroke:#A80036;stroke-width:1.5;" x1="1472.5143" x2="1526.5143" y1="690.4688" y2="690.4688"/><!--MD5=[5c85d133e2c913f4b8608c8db253c015]
class Record--><rect codeLine="57" fill="#FEFECE" filter="url(#f1sqxp4suy30ko)" height="39.9688" id="Record" style="stroke:#A80036;stroke-width:1.5;" width="49" x="1563.0143" y="658.5"/><text fill="#000000" font-family="sans-serif" font-size="12" lengthAdjust="spacing" textLength="43" x="1566.0143" y="674.6387">Record</text><line style="stroke:#A80036;stroke-width:1.5;" x1="1564.0143" x2="1611.0143" y1="682.4688" y2="682.4688"/><line style="stroke:#A80036;stroke-width:1.5;" x1="1564.0143" x2="1611.0143" y1="690.4688" y2="690.4688"/><!--MD5=[db25027423b3b96a5b12184dc6d389a4]
class Computer--><rect codeLine="59" fill="#FEFECE" filter="url(#f1sqxp4suy30ko)" height="39.9688" id="Computer" style="stroke:#A80036;stroke-width:1.5;" width="65" x="1647.0143" y="658.5"/><text fill="#000000" font-family="sans-serif" font-size="12" lengthAdjust="spacing" textLength="59" x="1650.0143" y="674.6387">Computer</text><line style="stroke:#A80036;stroke-width:1.5;" x1="1648.0143" x2="1711.0143" y1="682.4688" y2="682.4688"/><line style="stroke:#A80036;stroke-width:1.5;" x1="1648.0143" x2="1711.0143" y1="690.4688" y2="690.4688"/><!--MD5=[3f04f889cbbdb3bce32c55a080e41562]
class Browser--><rect codeLine="61" fill="#FEFECE" filter="url(#f1sqxp4suy30ko)" height="52.7734" id="Browser" style="stroke:#A80036;stroke-width:1.5;" width="57" x="1747.0143" y="652"/><text fill="#000000" font-family="sans-serif" font-size="12" lengthAdjust="spacing" textLength="51" x="1750.0143" y="668.1387">Browser</text><line style="stroke:#A80036;stroke-width:1.5;" x1="1748.0143" x2="1803.0143" y1="675.9688" y2="675.9688"/><line style="stroke:#A80036;stroke-width:1.5;" x1="1748.0143" x2="1803.0143" y1="683.9688" y2="683.9688"/><text fill="#000000" font-family="sans-serif" font-size="11" lengthAdjust="spacing" textLength="31" x="1753.0143" y="698.1792">visit()</text><!--MD5=[cc418a9e5ea6d55840a09e7ee261e5d7]
class SharewebWebsite--><rect codeLine="64" fill="#FEFECE" filter="url(#f1sqxp4suy30ko)" height="39.9688" id="SharewebWebsite" style="stroke:#A80036;stroke-width:1.5;" width="117" x="1717.0143" y="782"/><text fill="#000000" font-family="sans-serif" font-size="12" lengthAdjust="spacing" textLength="111" x="1720.0143" y="798.1387">SharewebWebsite</text><line style="stroke:#A80036;stroke-width:1.5;" x1="1718.0143" x2="1833.0143" y1="805.9688" y2="805.9688"/><line style="stroke:#A80036;stroke-width:1.5;" x1="1718.0143" x2="1833.0143" y1="813.9688" y2="813.9688"/><!--MD5=[042fa140da40c49659127f611bcff931]
class Comment--><rect codeLine="66" fill="#FEFECE" filter="url(#f1sqxp4suy30ko)" height="39.9688" id="Comment" style="stroke:#A80036;stroke-width:1.5;" width="63" x="1839.0143" y="658.5"/><text fill="#000000" font-family="sans-serif" font-size="12" lengthAdjust="spacing" textLength="57" x="1842.0143" y="674.6387">Comment</text><line style="stroke:#A80036;stroke-width:1.5;" x1="1840.0143" x2="1901.0143" y1="682.4688" y2="682.4688"/><line style="stroke:#A80036;stroke-width:1.5;" x1="1840.0143" x2="1901.0143" y1="690.4688" y2="690.4688"/><!--MD5=[e09c41c2f9238e7adb85a94dde2227e7]
class Size--><rect codeLine="68" fill="#FEFECE" filter="url(#f1sqxp4suy30ko)" height="39.9688" id="Size" style="stroke:#A80036;stroke-width:1.5;" width="32" x="1937.5143" y="658.5"/><text fill="#000000" font-family="sans-serif" font-size="12" lengthAdjust="spacing" textLength="26" x="1940.5143" y="674.6387">Size</text><line style="stroke:#A80036;stroke-width:1.5;" x1="1938.5143" x2="1968.5143" y1="682.4688" y2="682.4688"/><line style="stroke:#A80036;stroke-width:1.5;" x1="1938.5143" x2="1968.5143" y1="690.4688" y2="690.4688"/><!--MD5=[a3908a0ec113a75f17921675d1421845]
class Felling--><rect codeLine="70" fill="#FEFECE" filter="url(#f1sqxp4suy30ko)" height="39.9688" id="Felling" style="stroke:#A80036;stroke-width:1.5;" width="45" x="2005.0143" y="658.5"/><text fill="#000000" font-family="sans-serif" font-size="12" lengthAdjust="spacing" textLength="39" x="2008.0143" y="674.6387">Felling</text><line style="stroke:#A80036;stroke-width:1.5;" x1="2006.0143" x2="2049.0143" y1="682.4688" y2="682.4688"/><line style="stroke:#A80036;stroke-width:1.5;" x1="2006.0143" x2="2049.0143" y1="690.4688" y2="690.4688"/><!--MD5=[767cfbea05c90a78f48d55055ddf8984]
class ResolutionPicture--><rect codeLine="72" fill="#FEFECE" filter="url(#f1sqxp4suy30ko)" height="39.9688" id="ResolutionPicture" style="stroke:#A80036;stroke-width:1.5;" width="108" x="2085.5143" y="658.5"/><text fill="#000000" font-family="sans-serif" font-size="12" lengthAdjust="spacing" textLength="102" x="2088.5143" y="674.6387">ResolutionPicture</text><line style="stroke:#A80036;stroke-width:1.5;" x1="2086.5143" x2="2192.5143" y1="682.4688" y2="682.4688"/><line style="stroke:#A80036;stroke-width:1.5;" x1="2086.5143" x2="2192.5143" y1="690.4688" y2="690.4688"/><!--MD5=[d7f7c8380fcc5e5c5c99c9ab3ec38441]
class Upload--><rect codeLine="74" fill="#FEFECE" filter="url(#f1sqxp4suy30ko)" height="39.9688" id="Upload" style="stroke:#A80036;stroke-width:1.5;" width="49" x="2229.0143" y="658.5"/><text fill="#000000" font-family="sans-serif" font-size="12" lengthAdjust="spacing" textLength="43" x="2232.0143" y="674.6387">Upload</text><line style="stroke:#A80036;stroke-width:1.5;" x1="2230.0143" x2="2277.0143" y1="682.4688" y2="682.4688"/><line style="stroke:#A80036;stroke-width:1.5;" x1="2230.0143" x2="2277.0143" y1="690.4688" y2="690.4688"/><!--MD5=[f8e092794d52bf9a252466252ae7bd1c]
class System--><rect codeLine="76" fill="#FEFECE" filter="url(#f1sqxp4suy30ko)" height="39.9688" id="System" style="stroke:#A80036;stroke-width:1.5;" width="51" x="2313.0143" y="658.5"/><text fill="#000000" font-family="sans-serif" font-size="12" lengthAdjust="spacing" textLength="45" x="2316.0143" y="674.6387">System</text><line style="stroke:#A80036;stroke-width:1.5;" x1="2314.0143" x2="2363.0143" y1="682.4688" y2="682.4688"/><line style="stroke:#A80036;stroke-width:1.5;" x1="2314.0143" x2="2363.0143" y1="690.4688" y2="690.4688"/><!--MD5=[11b747870319a085bc745183e08c5f76]
class Storage--><rect codeLine="78" fill="#FEFECE" filter="url(#f1sqxp4suy30ko)" height="39.9688" id="Storage" style="stroke:#A80036;stroke-width:1.5;" width="54" x="2399.5143" y="658.5"/><text fill="#000000" font-family="sans-serif" font-size="12" lengthAdjust="spacing" textLength="48" x="2402.5143" y="674.6387">Storage</text><line style="stroke:#A80036;stroke-width:1.5;" x1="2400.5143" x2="2452.5143" y1="682.4688" y2="682.4688"/><line style="stroke:#A80036;stroke-width:1.5;" x1="2400.5143" x2="2452.5143" y1="690.4688" y2="690.4688"/><!--MD5=[65eaf00a50d35493392163fa377b2455]
class Privacy--><rect codeLine="80" fill="#FEFECE" filter="url(#f1sqxp4suy30ko)" height="39.9688" id="Privacy" style="stroke:#A80036;stroke-width:1.5;" width="48" x="2488.5143" y="658.5"/><text fill="#000000" font-family="sans-serif" font-size="12" lengthAdjust="spacing" textLength="42" x="2491.5143" y="674.6387">Privacy</text><line style="stroke:#A80036;stroke-width:1.5;" x1="2489.5143" x2="2535.5143" y1="682.4688" y2="682.4688"/><line style="stroke:#A80036;stroke-width:1.5;" x1="2489.5143" x2="2535.5143" y1="690.4688" y2="690.4688"/><!--MD5=[ee22b46a919b1a1497ef2e7518f7277f]
class QualityPicture--><rect codeLine="82" fill="#FEFECE" filter="url(#f1sqxp4suy30ko)" height="39.9688" id="QualityPicture" style="stroke:#A80036;stroke-width:1.5;" width="87" x="2572.0143" y="658.5"/><text fill="#000000" font-family="sans-serif" font-size="12" lengthAdjust="spacing" textLength="81" x="2575.0143" y="674.6387">QualityPicture</text><line style="stroke:#A80036;stroke-width:1.5;" x1="2573.0143" x2="2658.0143" y1="682.4688" y2="682.4688"/><line style="stroke:#A80036;stroke-width:1.5;" x1="2573.0143" x2="2658.0143" y1="690.4688" y2="690.4688"/><!--MD5=[4296a1ab0576a383a1a509d52c22ebf0]
class Type--><rect codeLine="84" fill="#FEFECE" filter="url(#f1sqxp4suy30ko)" height="39.9688" id="Type" style="stroke:#A80036;stroke-width:1.5;" width="36" x="2694.5143" y="658.5"/><text fill="#000000" font-family="sans-serif" font-size="12" lengthAdjust="spacing" textLength="30" x="2697.5143" y="674.6387">Type</text><line style="stroke:#A80036;stroke-width:1.5;" x1="2695.5143" x2="2729.5143" y1="682.4688" y2="682.4688"/><line style="stroke:#A80036;stroke-width:1.5;" x1="2695.5143" x2="2729.5143" y1="690.4688" y2="690.4688"/><!--MD5=[791ceb0e5f1f4f7768a59043084da501]
class Lot--><rect codeLine="86" fill="#FEFECE" filter="url(#f1sqxp4suy30ko)" height="39.9688" id="Lot" style="stroke:#A80036;stroke-width:1.5;" width="24" x="2765.5143" y="658.5"/><text fill="#000000" font-family="sans-serif" font-size="12" lengthAdjust="spacing" textLength="18" x="2768.5143" y="674.6387">Lot</text><line style="stroke:#A80036;stroke-width:1.5;" x1="2766.5143" x2="2788.5143" y1="682.4688" y2="682.4688"/><line style="stroke:#A80036;stroke-width:1.5;" x1="2766.5143" x2="2788.5143" y1="690.4688" y2="690.4688"/><!--MD5=[b8a8351f4de83c8eb85722e96e223bf9]
class Charge--><rect codeLine="88" fill="#FEFECE" filter="url(#f1sqxp4suy30ko)" height="39.9688" id="Charge" style="stroke:#A80036;stroke-width:1.5;" width="49" x="2825.0143" y="658.5"/><text fill="#000000" font-family="sans-serif" font-size="12" lengthAdjust="spacing" textLength="43" x="2828.0143" y="674.6387">Charge</text><line style="stroke:#A80036;stroke-width:1.5;" x1="2826.0143" x2="2873.0143" y1="682.4688" y2="682.4688"/><line style="stroke:#A80036;stroke-width:1.5;" x1="2826.0143" x2="2873.0143" y1="690.4688" y2="690.4688"/><!--MD5=[4b19b23db4754680288ddfe7449a87e7]
class FacebookAccount--><rect codeLine="90" fill="#FEFECE" filter="url(#f1sqxp4suy30ko)" height="39.9688" id="FacebookAccount" style="stroke:#A80036;stroke-width:1.5;" width="114" x="2920.5143" y="658.5"/><text fill="#000000" font-family="sans-serif" font-size="12" lengthAdjust="spacing" textLength="108" x="2923.5143" y="674.6387">FacebookAccount</text><line style="stroke:#A80036;stroke-width:1.5;" x1="2921.5143" x2="3033.5143" y1="682.4688" y2="682.4688"/><line style="stroke:#A80036;stroke-width:1.5;" x1="2921.5143" x2="3033.5143" y1="690.4688" y2="690.4688"/><!--MD5=[9d049782a8d404ed70739ae076a2757a]
reverse link User to Record--><path codeLine="92" d="M1437.6143,379.252 C1483.4543,470.46 1552.7543,608.357 1577.9443,658.457 " fill="none" id="User-backto-Record" style="stroke:#A80036;stroke-width:1.0;"/><polygon fill="#FFFFFF" points="1431.7243,367.539,1430.8453,374.6963,1437.1141,378.2605,1437.993,371.1032,1431.7243,367.539" style="stroke:#A80036;stroke-width:1.0;"/><text fill="#000000" font-family="sans-serif" font-size="13" lengthAdjust="spacing" textLength="31" x="1560.5143" y="618.0669">keep</text><!--MD5=[337e5993595d124d721fe55725397ce0]
link User to Lot--><path codeLine="93" d="M1431.7543,299.179 C1586.4043,323.477 2191.7043,425.708 2659.5143,605 C2700.9143,620.868 2710.8543,627.055 2747.5143,652 C2752.2743,655.239 2757.1443,659.106 2761.5443,662.839 " fill="none" id="User-to-Lot" style="stroke:#A80036;stroke-width:1.0;"/><polygon fill="#A80036" points="2765.4343,666.206,2761.2467,657.2918,2761.6536,662.934,2756.0114,663.3409,2765.4343,666.206" style="stroke:#A80036;stroke-width:1.0;"/><text fill="#000000" font-family="sans-serif" font-size="13" lengthAdjust="spacing" textLength="26" x="2700.5143" y="618.0669">free</text><!--MD5=[6c5455115fa83b9f5673c5990b04b3c1]
link Picture to Event--><path codeLine="94" d="M741.0743,698.819 C749.5913,715.662 764.3043,739.3227 784.5103,752 C827.4133,778.9171 980.7963,794.0361 1041.5143,799.0791 " fill="none" id="Picture-to-Event" style="stroke:#A80036;stroke-width:1.0;"/><polygon fill="#A80036" points="1046.7443,799.5082,1038.0932,794.8009,1041.7603,799.1081,1037.4531,802.7753,1046.7443,799.5082" style="stroke:#A80036;stroke-width:1.0;"/><text fill="#000000" font-family="sans-serif" font-size="13" lengthAdjust="spacing" textLength="13" x="785.5103" y="748.0669">to</text><!--MD5=[4404c8c6464c50685a1ca567a7961ccf]
link User to Charge--><path codeLine="95" d="M1431.6543,297.473 C1592.7143,315.645 2244.5943,398.978 2735.5143,605 C2766.5343,618.019 2798.5843,639.209 2820.7643,655.327 " fill="none" id="User-to-Charge" style="stroke:#A80036;stroke-width:1.0;"/><polygon fill="#A80036" points="2825.0643,658.479,2820.1506,649.9435,2821.0248,655.5324,2815.4359,656.4066,2825.0643,658.479" style="stroke:#A80036;stroke-width:1.0;"/><text fill="#000000" font-family="sans-serif" font-size="13" lengthAdjust="spacing" textLength="88" x="2770.5143" y="618.0669">supported_by</text><!--MD5=[6149ca76d5a0a66a18c1d035a9055653]
reverse link User to Event--><path codeLine="96" d="M1350.1043,367.51 C1299.1443,445.146 1207.9543,563.804 1095.5143,622 C1047.1843,647.01 888.5503,611.237 852.5103,652 C788.0393,724.9196 982.8023,780.4523 1046.8443,796.3698 " fill="none" id="User-backto-Event" style="stroke:#A80036;stroke-width:1.0;"/><polygon fill="#FFFFFF" points="1357.3243,356.366,1350.7048,359.2265,1350.7993,366.4369,1357.4188,363.5765,1357.3243,356.366" style="stroke:#A80036;stroke-width:1.0;"/><text fill="#000000" font-family="sans-serif" font-size="13" lengthAdjust="spacing" textLength="56" x="853.5103" y="683.0669">maintain</text><!--MD5=[6149ca76d5a0a66a18c1d035a9055653]
reverse link User to Event--><path codeLine="110" d="M1350.9743,378.467 C1307.3143,454.683 1232.8043,563.292 1136.5143,622 C1076.2243,658.754 1025.4743,597.565 980.5103,652 C943.7993,696.443 1011.3223,758.5623 1046.7743,786.4449 " fill="none" id="User-backto-Event-1" style="stroke:#A80036;stroke-width:1.0;"/><polygon fill="#FFFFFF" points="1357.4543,366.997,1351.0219,370.2566,1351.5568,377.4478,1357.9891,374.1882,1357.4543,366.997" style="stroke:#A80036;stroke-width:1.0;"/><text fill="#000000" font-family="sans-serif" font-size="13" lengthAdjust="spacing" textLength="41" x="981.5103" y="683.0669">create</text><!--MD5=[6149ca76d5a0a66a18c1d035a9055653]
reverse link User to Event--><path codeLine="113" d="M1351.4143,387.638 C1313.7443,460.576 1252.6943,559.433 1173.5143,622 C1143.7143,645.542 1117.8443,622.85 1093.5143,652 C1062.2543,689.435 1062.1243,750.8524 1064.4143,781.8407 " fill="none" id="User-backto-Event-2" style="stroke:#A80036;stroke-width:1.0;"/><polygon fill="#FFFFFF" points="1357.4943,375.708,1351.2078,379.2407,1352.0509,386.4023,1358.3374,382.8697,1357.4943,375.708" style="stroke:#A80036;stroke-width:1.0;"/><text fill="#000000" font-family="sans-serif" font-size="13" lengthAdjust="spacing" textLength="45" x="1094.5143" y="683.0669">extend</text><!--MD5=[6149ca76d5a0a66a18c1d035a9055653]
reverse link User to Event--><path codeLine="116" d="M1351.2843,378.35 C1315.7843,445.943 1262.8243,542.144 1209.5143,622 C1183.4943,660.969 1173.7243,668.372 1144.5143,705 C1123.0843,731.86 1097.9743,762.645 1082.1543,781.9566 " fill="none" id="User-backto-Event-3" style="stroke:#A80036;stroke-width:1.0;"/><polygon fill="#FFFFFF" points="1357.4943,366.494,1351.1679,369.9548,1351.9292,377.1256,1358.2556,373.6648,1357.4943,366.494" style="stroke:#A80036;stroke-width:1.0;"/><text fill="#000000" font-family="sans-serif" font-size="13" lengthAdjust="spacing" textLength="44" x="1189.5143" y="683.0669">picture</text><!--MD5=[6149ca76d5a0a66a18c1d035a9055653]
reverse link User to Event--><path codeLine="121" d="M1353.6243,488.379 C1330.5743,562.518 1295.4043,643.786 1242.5143,705 C1198.9343,755.4317 1122.0643,784.132 1086.0943,795.3928 " fill="none" id="User-backto-Event-4" style="stroke:#A80036;stroke-width:1.0;"/><polygon fill="#FFFFFF" points="1357.5043,475.589,1351.9354,480.1702,1354.0223,487.0727,1359.5912,482.4915,1357.5043,475.589" style="stroke:#A80036;stroke-width:1.0;"/><text fill="#000000" font-family="sans-serif" font-size="13" lengthAdjust="spacing" textLength="23" x="1282.5143" y="683.0669">see</text><!--MD5=[6149ca76d5a0a66a18c1d035a9055653]
reverse link User to Event--><path codeLine="129" d="M1371.1543,587.528 C1358.5043,629.634 1340.3443,670.352 1314.5143,705 C1258.2043,780.5014 1134.1543,796.6334 1086.0843,800.0718 " fill="none" id="User-backto-Event-5" style="stroke:#A80036;stroke-width:1.0;"/><polygon fill="#FFFFFF" points="1374.7343,575.022,1369.234,579.6854,1371.4232,586.5561,1376.9235,581.8928,1374.7343,575.022" style="stroke:#A80036;stroke-width:1.0;"/><text fill="#000000" font-family="sans-serif" font-size="13" lengthAdjust="spacing" textLength="40" x="1345.5143" y="683.0669">delete</text><!--MD5=[7b2cc10021c78df6ad31ab9f1eb0cd12]
reverse link User to Computer--><path codeLine="97" d="M1439.4143,355.384 C1487.6643,421.668 1566.8343,529.782 1636.5143,622 C1645.6943,634.157 1656.1643,647.674 1664.4743,658.324 " fill="none" id="User-backto-Computer" style="stroke:#A80036;stroke-width:1.0;"/><polygon fill="#FFFFFF" points="1431.6443,344.713,1431.9392,351.9181,1438.7035,354.417,1438.4086,347.212,1431.6443,344.713" style="stroke:#A80036;stroke-width:1.0;"/><text fill="#000000" font-family="sans-serif" font-size="13" lengthAdjust="spacing" textLength="62" x="1637.5143" y="618.0669">download</text><!--MD5=[e0ebca121273885364fa8679885dc51a]
link User to Register--><path codeLine="98" d="M1431.5343,428.884 C1454.1043,511.427 1480.8643,609.302 1492.9743,653.602 " fill="none" id="User-to-Register" style="stroke:#A80036;stroke-width:1.0;"/><polygon fill="#A80036" points="1494.3143,658.481,1495.7921,648.7436,1492.9922,653.659,1488.0769,650.859,1494.3143,658.481" style="stroke:#A80036;stroke-width:1.0;"/><text fill="#000000" font-family="sans-serif" font-size="13" lengthAdjust="spacing" textLength="32" x="1485.5143" y="618.0669">need</text><!--MD5=[fb15c8ffe2d453a42af6a630d0178531]
link User to ResolutionPicture--><path codeLine="99" d="M1431.7843,312.196 C1527.3043,360.185 1788.5643,491.895 2004.5143,605 C2036.7043,621.861 2072.9743,641.37 2099.8143,655.901 " fill="none" id="User-to-ResolutionPicture" style="stroke:#A80036;stroke-width:1.0;"/><polygon fill="#A80036" points="2104.3743,658.371,2098.3526,650.5774,2099.9738,655.997,2094.5543,657.6182,2104.3743,658.371" style="stroke:#A80036;stroke-width:1.0;"/><text fill="#000000" font-family="sans-serif" font-size="13" lengthAdjust="spacing" textLength="43" x="2035.5143" y="618.0669">upload</text><!--MD5=[fb15c8ffe2d453a42af6a630d0178531]
link User to ResolutionPicture--><path codeLine="126" d="M1431.6443,302.761 C1541.7743,331.672 1872.3143,429.009 2087.5143,605 C2103.9143,618.419 2117.6443,638.208 2126.8643,653.722 " fill="none" id="User-to-ResolutionPicture-1" style="stroke:#A80036;stroke-width:1.0;"/><polygon fill="#A80036" points="2129.5843,658.388,2128.5086,648.5981,2127.0667,654.0681,2121.5967,652.6262,2129.5843,658.388" style="stroke:#A80036;stroke-width:1.0;"/><text fill="#000000" font-family="sans-serif" font-size="13" lengthAdjust="spacing" textLength="62" x="2104.5143" y="618.0669">download</text><!--MD5=[6f3304a8bbf6f49207b94ef31783336e]
link User to FacebookAccount--><path codeLine="100" d="M1431.6143,296.24 C1602.2543,309.873 2326.3143,379.008 2867.5143,605 C2897.7843,617.642 2928.6643,638.878 2949.9743,655.108 " fill="none" id="User-to-FacebookAccount" style="stroke:#A80036;stroke-width:1.0;"/><polygon fill="#A80036" points="2954.1043,658.284,2949.4005,649.631,2950.138,655.2396,2944.5294,655.9771,2954.1043,658.284" style="stroke:#A80036;stroke-width:1.0;"/><text fill="#000000" font-family="sans-serif" font-size="13" lengthAdjust="spacing" textLength="88" x="2901.5143" y="618.0669">supported_by</text><!--MD5=[ec4c93e45963a154c97e3947d19a9663]
link User to Browser--><path codeLine="101" d="M1431.8243,330.804 C1490.1543,389.156 1606.4243,505.639 1704.5143,605 C1718.5343,619.21 1734.0643,635.049 1747.0043,648.289 " fill="none" id="User-to-Browser" style="stroke:#A80036;stroke-width:1.0;"/><polygon fill="#A80036" points="1750.5843,651.951,1747.1474,642.7213,1747.0868,648.3778,1741.4303,648.3172,1750.5843,651.951" style="stroke:#A80036;stroke-width:1.0;"/><text fill="#000000" font-family="sans-serif" font-size="13" lengthAdjust="spacing" textLength="23" x="1721.5143" y="618.0669">use</text><!--MD5=[fd9da72820cc813c9a6ad90e9e0dac2a]
link User to Upload--><path codeLine="102" d="M1431.7943,303.058 C1548.2943,333.996 1913.3843,439.125 2175.5143,605 C2197.2543,618.762 2218.4143,638.994 2233.1943,654.591 " fill="none" id="User-to-Upload" style="stroke:#A80036;stroke-width:1.0;"/><polygon fill="#A80036" points="2236.8143,658.449,2233.5886,649.1434,2233.3992,654.797,2227.7455,654.6076,2236.8143,658.449" style="stroke:#A80036;stroke-width:1.0;"/><text fill="#000000" font-family="sans-serif" font-size="13" lengthAdjust="spacing" textLength="40" x="2198.5143" y="618.0669">delete</text><!--MD5=[c0646aff05db046bf03bd07f9451b561]
link User to Picture--><path codeLine="103" d="M1357.4643,299.979 C1197.7543,328.735 571.0703,450.245 459.5103,605 C455.0923,611.129 454.7293,616.149 459.5103,622 C490.2453,659.611 640.8033,672.368 704.2423,676.119 " fill="none" id="User-to-Picture" style="stroke:#A80036;stroke-width:1.0;"/><polygon fill="#A80036" points="709.3813,676.415,700.6259,671.9047,704.3896,676.1278,700.1664,679.8915,709.3813,676.415" style="stroke:#A80036;stroke-width:1.0;"/><text fill="#000000" font-family="sans-serif" font-size="13" lengthAdjust="spacing" textLength="62" x="460.5103" y="618.0669">download</text><!--MD5=[c0646aff05db046bf03bd07f9451b561]
link User to Picture--><path codeLine="106" d="M1357.1943,293.817 C1221.8443,297.232 754.6253,329.26 563.5103,605 C527.6573,656.729 647.2443,671.781 704.1313,675.968 " fill="none" id="User-to-Picture-1" style="stroke:#A80036;stroke-width:1.0;"/><polygon fill="#A80036" points="709.4333,676.34,700.7354,671.7197,704.4456,675.99,700.1753,679.7001,709.4333,676.34" style="stroke:#A80036;stroke-width:1.0;"/><text fill="#000000" font-family="sans-serif" font-size="13" lengthAdjust="spacing" textLength="43" x="564.5103" y="618.0669">upload</text><!--MD5=[c0646aff05db046bf03bd07f9451b561]
link User to Picture--><path codeLine="115" d="M1357.4343,295.49 C1231.1543,304.505 816.3823,352.985 648.5103,605 C630.3143,632.317 673.5493,655.388 704.5033,667.763 " fill="none" id="User-to-Picture-2" style="stroke:#A80036;stroke-width:1.0;"/><polygon fill="#A80036" points="709.3553,669.657,702.426,662.658,704.6976,667.8388,699.5169,670.1103,709.3553,669.657" style="stroke:#A80036;stroke-width:1.0;"/><text fill="#000000" font-family="sans-serif" font-size="13" lengthAdjust="spacing" textLength="39" x="649.5103" y="618.0669">report</text><!--MD5=[c0646aff05db046bf03bd07f9451b561]
link User to Picture--><path codeLine="117" d="M1357.2743,297.465 C1239.6743,312.226 875.3883,375.579 729.5103,605 C720.4623,619.231 721.6973,638.403 724.9353,653.458 " fill="none" id="User-to-Picture-3" style="stroke:#A80036;stroke-width:1.0;"/><polygon fill="#A80036" points="726.0983,658.392,727.927,648.7144,724.9513,653.5253,720.1403,650.5496,726.0983,658.392" style="stroke:#A80036;stroke-width:1.0;"/><text fill="#000000" font-family="sans-serif" font-size="13" lengthAdjust="spacing" textLength="43" x="730.5103" y="618.0669">review</text><!--MD5=[c0646aff05db046bf03bd07f9451b561]
link User to Picture--><path codeLine="123" d="M1357.1743,309.872 C1262.4143,352.18 1006.5393,471.237 814.5103,605 C793.2363,619.819 771.3473,639.435 755.5413,654.526 " fill="none" id="User-to-Picture-4" style="stroke:#A80036;stroke-width:1.0;"/><polygon fill="#A80036" points="751.6573,658.26,760.9172,654.9053,755.2614,654.7944,755.3723,649.1387,751.6573,658.26" style="stroke:#A80036;stroke-width:1.0;"/><text fill="#000000" font-family="sans-serif" font-size="13" lengthAdjust="spacing" textLength="56" x="815.5103" y="618.0669">maintain</text><!--MD5=[c0646aff05db046bf03bd07f9451b561]
link User to Picture--><path codeLine="124" d="M1357.4643,321.764 C1275.0143,383.557 1068.5043,532.303 876.5103,622 C836.7783,640.562 823.0663,635.316 782.5103,652 C775.1883,655.012 767.4783,658.681 760.3623,662.286 " fill="none" id="User-to-Picture-5" style="stroke:#A80036;stroke-width:1.0;"/><polygon fill="#A80036" points="755.5433,664.763,765.3764,664.2064,759.9903,662.4774,761.7194,657.0912,755.5433,664.763" style="stroke:#A80036;stroke-width:1.0;"/><text fill="#000000" font-family="sans-serif" font-size="13" lengthAdjust="spacing" textLength="23" x="907.5103" y="618.0669">see</text><!--MD5=[c0646aff05db046bf03bd07f9451b561]
link User to Picture--><path codeLine="127" d="M1357.3443,329.333 C1283.9943,397.875 1112.6343,547.36 939.5103,622 C874.2753,650.126 849.7123,628.966 782.5103,652 C775.0963,654.541 767.4043,658.003 760.3423,661.556 " fill="none" id="User-to-Picture-6" style="stroke:#A80036;stroke-width:1.0;"/><polygon fill="#A80036" points="755.5643,664.02,765.3967,663.4509,760.0084,661.7287,761.7306,656.3404,755.5643,664.02" style="stroke:#A80036;stroke-width:1.0;"/><text fill="#000000" font-family="sans-serif" font-size="13" lengthAdjust="spacing" textLength="21" x="968.5103" y="618.0669">like</text><!--MD5=[c0646aff05db046bf03bd07f9451b561]
link User to Picture--><path codeLine="128" d="M1357.2843,337.251 C1292.5743,410.006 1151.5543,554.523 998.5103,622 C909.8263,661.1 874.9643,622.913 782.5103,652 C775.1093,654.329 767.4753,657.676 760.4683,661.182 " fill="none" id="User-to-Picture-7" style="stroke:#A80036;stroke-width:1.0;"/><polygon fill="#A80036" points="755.7293,663.625,765.5618,663.0584,760.174,661.3348,761.8975,655.9469,755.7293,663.625" style="stroke:#A80036;stroke-width:1.0;"/><text fill="#000000" font-family="sans-serif" font-size="13" lengthAdjust="spacing" textLength="62" x="1024.5143" y="618.0669">comment</text><!--MD5=[87c463e55ba9a05eb2c54f7e7fed640e]
link User to Time--><path codeLine="104" d="M1357.3743,297.714 C1177.1943,318.989 397.0013,420.885 256.5103,605 C238.3773,628.764 275.9163,653.562 302.0893,667.115 " fill="none" id="User-to-Time" style="stroke:#A80036;stroke-width:1.0;"/><polygon fill="#A80036" points="306.8283,669.512,300.6014,661.8814,302.3662,667.256,296.9917,669.0208,306.8283,669.512" style="stroke:#A80036;stroke-width:1.0;"/><text fill="#000000" font-family="sans-serif" font-size="13" lengthAdjust="spacing" textLength="88" x="257.5103" y="618.0669">supported_by</text><!--MD5=[87c463e55ba9a05eb2c54f7e7fed640e]
link User to Time--><path codeLine="131" d="M1357.5043,300.207 C1224.0443,325.417 757.3353,422.504 415.5103,605 C389.5013,618.886 363.5683,640.506 346.0803,656.527 " fill="none" id="User-to-Time-1" style="stroke:#A80036;stroke-width:1.0;"/><polygon fill="#A80036" points="342.2603,660.06,351.5836,656.8857,345.931,656.665,346.1516,651.0125,342.2603,660.06" style="stroke:#A80036;stroke-width:1.0;"/><text fill="#000000" font-family="sans-serif" font-size="13" lengthAdjust="spacing" textLength="31" x="416.5103" y="618.0669">save</text><!--MD5=[a1781934604b9be321909f3b36cd5bf0]
link Browser to SharewebWebsite--><path codeLine="105" d="M1775.5143,705.267 C1775.5143,726.3301 1775.5143,755.9042 1775.5143,776.5902 " fill="none" id="Browser-to-SharewebWebsite" style="stroke:#A80036;stroke-width:1.0;"/><polygon fill="#A80036" points="1775.5143,781.6472,1779.5143,772.6472,1775.5143,776.6472,1771.5143,772.6472,1775.5143,781.6472" style="stroke:#A80036;stroke-width:1.0;"/><text fill="#000000" font-family="sans-serif" font-size="13" lengthAdjust="spacing" textLength="26" x="1776.5143" y="748.0669">visit</text><!--MD5=[2dd21c5e4d24a00e804d12dd0c7b0d9f]
link User to Comment--><path codeLine="107" d="M1431.8643,323.632 C1524.1243,398.061 1761.2043,589.32 1842.5943,654.977 " fill="none" id="User-to-Comment" style="stroke:#A80036;stroke-width:1.0;"/><polygon fill="#A80036" points="1846.8043,658.379,1842.3159,649.6124,1842.9145,655.2374,1837.2894,655.8361,1846.8043,658.379" style="stroke:#A80036;stroke-width:1.0;"/><text fill="#000000" font-family="sans-serif" font-size="13" lengthAdjust="spacing" textLength="36" x="1802.5143" y="618.0669">make</text><!--MD5=[4a0bbcdd6df460060db454e8e2c30a96]
link User to System--><path codeLine="108" d="M1431.6743,302.462 C1553.9743,332.896 1952.9543,439.683 2247.5143,605 C2272.2343,618.879 2297.2143,639.337 2314.7243,654.986 " fill="none" id="User-to-System" style="stroke:#A80036;stroke-width:1.0;"/><polygon fill="#A80036" points="2318.5643,658.449,2314.5505,649.4551,2314.8478,655.1042,2309.1988,655.4015,2318.5643,658.449" style="stroke:#A80036;stroke-width:1.0;"/><text fill="#000000" font-family="sans-serif" font-size="13" lengthAdjust="spacing" textLength="23" x="2273.5143" y="618.0669">use</text><!--MD5=[bf6920a7c0d430d525e3e458e95f72ca]
reverse link User to Password--><path codeLine="109" d="M1344.5243,296.813 C1118.4343,312.924 195.1523,391.204 24.5105,605 C6,628.192 41.3594,650.801 70.3168,664.442 " fill="none" id="User-backto-Password" style="stroke:#A80036;stroke-width:1.0;"/><polygon fill="#FFFFFF" points="1357.4943,295.903,1351.2278,292.3349,1345.524,296.747,1351.7905,300.3151,1357.4943,295.903" style="stroke:#A80036;stroke-width:1.0;"/><text fill="#000000" font-family="sans-serif" font-size="13" lengthAdjust="spacing" textLength="33" x="25.5105" y="618.0669">reset</text><!--MD5=[bf6920a7c0d430d525e3e458e95f72ca]
reverse link User to Password--><path codeLine="114" d="M1344.0843,297.545 C1124.9543,316.257 259.2403,402.292 99.5105,605 C87.7372,619.941 90.8964,642.48 95.4686,658.456 " fill="none" id="User-backto-Password-1" style="stroke:#A80036;stroke-width:1.0;"/><polygon fill="#FFFFFF" points="1357.2743,296.433,1350.9612,292.9481,1345.3162,297.4352,1351.6293,300.9201,1357.2743,296.433" style="stroke:#A80036;stroke-width:1.0;"/><text fill="#000000" font-family="sans-serif" font-size="13" lengthAdjust="spacing" textLength="34" x="100.5105" y="618.0669">enter</text><!--MD5=[bf6920a7c0d430d525e3e458e95f72ca]
reverse link User to Password--><path codeLine="125" d="M1344.2343,299.932 C1175.8643,322.845 619.0653,409.771 203.5103,605 C173.8153,618.951 143.7773,641.894 124.2713,658.233 " fill="none" id="User-backto-Password-2" style="stroke:#A80036;stroke-width:1.0;"/><polygon fill="#FFFFFF" points="1357.2743,298.181,1350.7957,295.0143,1345.3809,299.7766,1351.8595,302.9433,1357.2743,298.181" style="stroke:#A80036;stroke-width:1.0;"/><text fill="#000000" font-family="sans-serif" font-size="13" lengthAdjust="spacing" textLength="39" x="204.5103" y="618.0669">forget</text><!--MD5=[993a1ed30139d6bc9fd462e29443e622]
link User to User--><path codeLine="111" d="M1431.5543,234.272 C1450.0343,226.216 1466.5143,245.625 1466.5143,292.5 C1466.5143,334.98 1452.9743,354.904 1436.6843,352.269 " fill="none" id="User-to-User" style="stroke:#A80036;stroke-width:1.0;"/><polygon fill="#A80036" points="1431.5543,350.728,1439.0352,357.134,1436.3456,352.1574,1441.3222,349.4678,1431.5543,350.728" style="stroke:#A80036;stroke-width:1.0;"/><text fill="#000000" font-family="sans-serif" font-size="13" lengthAdjust="spacing" textLength="40" x="1472.5143" y="297.0669">delete</text><!--MD5=[6fea909be8e544bd2185a06b3c5377ba]
reverse link User to Storage--><path codeLine="112" d="M1444.2643,306.523 C1583.8143,343.887 1989.3743,458.232 2305.5143,605 C2339.0543,620.571 2375.1243,642.997 2399.0643,658.774 " fill="none" id="User-backto-Storage" style="stroke:#A80036;stroke-width:1.0;"/><polygon fill="#FFFFFF" points="1431.6043,303.149,1436.3738,308.5575,1443.2007,306.235,1438.4312,300.8266,1431.6043,303.149" style="stroke:#A80036;stroke-width:1.0;"/><text fill="#000000" font-family="sans-serif" font-size="13" lengthAdjust="spacing" textLength="31" x="2337.5143" y="618.0669">save</text><!--MD5=[a36eca77d1d238c04c5e1c39abdc6b68]
reverse link User to Privacy--><path codeLine="118" d="M1444.7143,306.33 C1591.1743,344.407 2029.5143,463.007 2377.5143,605 C2417.9043,621.483 2461.9543,646.601 2488.3843,662.526 " fill="none" id="User-backto-Privacy" style="stroke:#A80036;stroke-width:1.0;"/><polygon fill="#FFFFFF" points="1431.8643,303.001,1436.6706,308.3768,1443.4815,306.0078,1438.6752,300.632,1431.8643,303.001" style="stroke:#A80036;stroke-width:1.0;"/><text fill="#000000" font-family="sans-serif" font-size="13" lengthAdjust="spacing" textLength="31" x="2413.5143" y="618.0669">keep</text><!--MD5=[99bb670aff7d8cd7d90f0c6cca3407ea]
link User to Size--><path codeLine="119" d="M1431.8143,318.151 C1518.3543,375.508 1739.1243,522.865 1919.5143,652 C1924.0143,655.223 1928.7943,658.747 1933.3043,662.119 " fill="none" id="User-to-Size" style="stroke:#A80036;stroke-width:1.0;"/><polygon fill="#A80036" points="1937.3643,665.16,1932.5643,656.56,1933.3643,662.16,1927.7643,662.96,1937.3643,665.16" style="stroke:#A80036;stroke-width:1.0;"/><text fill="#000000" font-family="sans-serif" font-size="13" lengthAdjust="spacing" textLength="46" x="1864.5143" y="618.0669">choose</text><!--MD5=[8aac999e40186a57f7e3ffafa98d6bfb]
link User to QualityPicture--><path codeLine="120" d="M1431.6743,302.494 C1569.2043,336.184 2061.5543,460.395 2453.5143,605 C2494.5643,620.146 2539.9243,640.799 2572.1743,656.188 " fill="none" id="User-to-QualityPicture" style="stroke:#A80036;stroke-width:1.0;"/><polygon fill="#A80036" points="2576.8443,658.419,2570.4512,650.9271,2572.3337,656.2616,2566.9993,658.1441,2576.8443,658.419" style="stroke:#A80036;stroke-width:1.0;"/><text fill="#000000" font-family="sans-serif" font-size="13" lengthAdjust="spacing" textLength="43" x="2495.5143" y="618.0669">review</text><!--MD5=[ab617967845c95780f2f718173343d1e]
reverse link User to Felling--><path codeLine="122" d="M1442.8343,320.968 C1536.0043,374.194 1746.5743,495.771 1919.5143,605 C1949.4843,623.934 1983.3143,646.912 2004.9943,661.853 " fill="none" id="User-backto-Felling" style="stroke:#A80036;stroke-width:1.0;"/><polygon fill="#FFFFFF" points="1431.5343,314.52,1434.7629,320.968,1441.9566,320.4677,1438.728,314.0197,1431.5343,314.52" style="stroke:#A80036;stroke-width:1.0;"/><text fill="#000000" font-family="sans-serif" font-size="13" lengthAdjust="spacing" textLength="51" x="1944.5143" y="618.0669">express</text><!--MD5=[2a296c1e9d906f8978635dc9d2f5be85]
link User to Type--><path codeLine="130" d="M1431.6843,302.313 C1576.1243,336.819 2113.6043,467.619 2547.5143,605 C2605.6843,623.419 2622.4643,623.668 2676.5143,652 C2681.0943,654.4 2685.7543,657.308 2690.1443,660.288 " fill="none" id="User-to-Type" style="stroke:#A80036;stroke-width:1.0;"/><polygon fill="#A80036" points="2694.4343,663.276,2689.357,654.8367,2690.3388,660.4077,2684.7678,661.3895,2694.4343,663.276" style="stroke:#A80036;stroke-width:1.0;"/><text fill="#000000" font-family="sans-serif" font-size="13" lengthAdjust="spacing" textLength="47" x="2603.5143" y="618.0669">change</text><!--MD5=[db141b5fff25f6023b02e0dbea376d09]
@startuml
hide circle
class User<actor> {
	felling
	event
	computer
	privacy
	password
	storage
	eventExit
	record
	phone
}
class User {
	allow()
	make()
	upload()
	create()
	review()
	download()
	look()
	login()
	need()
	see()
	choose()
	express()
	save()
	delete()
	reset()
	search()
	let()
	forget()
	change()
	extend()
	like()
	comment()
	picture()
	enter()
	free()
	log_in()
	maintain()
	report()
	use()
	keep()
	find()
	want()
}
class Password {
}
class Time {
}
class Picture {
}
class Event {
}
class Register {
}
class Record {
}
class Computer {
}
class Browser {
	visit()
}
class SharewebWebsite {
}
class Comment {
}
class Size {
}
class Felling {
}
class ResolutionPicture {
}
class Upload {
}
class System {
}
class Storage {
}
class Privacy {
}
class QualityPicture {
}
class Type {
}
class Lot {
}
class Charge {
}
class FacebookAccount {
}
User o- - Record : keep
User - -> Lot : free
Picture - -> Event : to
User - -> Charge : supported_by
User o- - Event : maintain
User o- - Computer : download
User - -> Register : need
User - -> ResolutionPicture : upload
User - -> FacebookAccount : supported_by
User - -> Browser : use
User - -> Upload : delete
User - -> Picture : download
User - -> Time : supported_by
Browser - -> SharewebWebsite : visit
User - -> Picture : upload
User - -> Comment : make
User - -> System : use
User o- - Password : reset
User o- - Event : create
User - -> User : delete
User o- - Storage : save
User o- - Event : extend
User o- - Password : enter
User - -> Picture : report
User o- - Event : picture
User - -> Picture : review
User o- - Privacy : keep
User - -> Size : choose
User - -> QualityPicture : review
User o- - Event : see
User o- - Felling : express
User - -> Picture : maintain
User - -> Picture : see
User o- - Password : forget
User - -> ResolutionPicture : download
User - -> Picture : like
User - -> Picture : comment
User o- - Event : delete
User - -> Type : change
User - -> Time : save
@enduml

PlantUML version 1.2021.10beta2(Unknown compile time)
(GPL source distribution)
Java Runtime: Java(TM) SE Runtime Environment
JVM: Java HotSpot(TM) 64-Bit Server VM
Default Encoding: UTF-8
Language: en
Country: US
--></g></svg>