<?xml version="1.0" encoding="UTF-8" standalone="no"?><svg xmlns="http://www.w3.org/2000/svg" xmlns:xlink="http://www.w3.org/1999/xlink" contentScriptType="application/ecmascript" contentStyleType="text/css" height="1145px" preserveAspectRatio="none" style="width:2207px;height:1145px;background:#FFFFFF;" version="1.1" viewBox="0 0 2207 1145" width="2207px" zoomAndPan="magnify"><defs><filter height="300%" id="flnv3uynhkenv" width="300%" x="-1" y="-1"><feGaussianBlur result="blurOut" stdDeviation="2.0"/><feColorMatrix in="blurOut" result="blurOut2" type="matrix" values="0 0 0 0 0 0 0 0 0 0 0 0 0 0 0 0 0 0 .4 0"/><feOffset dx="4.0" dy="4.0" in="blurOut2" result="blurOut3"/><feBlend in="SourceGraphic" in2="blurOut3" mode="normal"/></filter></defs><g><!--MD5=[3fd616f346a44cd59a91eb10b19e157c]
class User--><rect codeLine="25" fill="#FEFECE" filter="url(#flnv3uynhkenv)" height="334.4766" id="User" style="stroke:#A80036;stroke-width:1.5;" width="101" x="1171.5" y="10"/><text fill="#000000" font-family="sans-serif" font-size="12" lengthAdjust="spacing" textLength="29" x="1190" y="26.1387">User</text><rect fill="#FFFFFF" height="15.9688" style="stroke:#000000;stroke-width:1.0;stroke-dasharray:2.0,2.0;" width="33" x="1242.5" y="7"/><text fill="#000000" font-family="sans-serif" font-size="12" font-style="italic" lengthAdjust="spacing" textLength="31" x="1243.5" y="19.1387">actor</text><line style="stroke:#A80036;stroke-width:1.5;" x1="1172.5" x2="1271.5" y1="33.9688" y2="33.9688"/><text fill="#000000" font-family="sans-serif" font-size="11" lengthAdjust="spacing" textLength="32" x="1177.5" y="48.1792">photo</text><text fill="#000000" font-family="sans-serif" font-size="11" lengthAdjust="spacing" textLength="24" x="1177.5" y="60.9839">rank</text><text fill="#000000" font-family="sans-serif" font-size="11" lengthAdjust="spacing" textLength="56" x="1177.5" y="73.7886">challenge</text><text fill="#000000" font-family="sans-serif" font-size="11" lengthAdjust="spacing" textLength="82" x="1177.5" y="86.5933">challengeTask</text><text fill="#000000" font-family="sans-serif" font-size="11" lengthAdjust="spacing" textLength="33" x="1177.5" y="99.3979">friend</text><text fill="#000000" font-family="sans-serif" font-size="11" lengthAdjust="spacing" textLength="89" x="1177.5" y="112.2026">challengeScore</text><line style="stroke:#A80036;stroke-width:1.5;" x1="1172.5" x2="1271.5" y1="118.7969" y2="118.7969"/><text fill="#000000" font-family="sans-serif" font-size="11" lengthAdjust="spacing" textLength="40" x="1177.5" y="133.0073">invite()</text><text fill="#000000" font-family="sans-serif" font-size="11" lengthAdjust="spacing" textLength="29" x="1177.5" y="145.812">add()</text><text fill="#000000" font-family="sans-serif" font-size="11" lengthAdjust="spacing" textLength="33" x="1177.5" y="158.6167">give()</text><text fill="#000000" font-family="sans-serif" font-size="11" lengthAdjust="spacing" textLength="30" x="1177.5" y="171.4214">see()</text><text fill="#000000" font-family="sans-serif" font-size="11" lengthAdjust="spacing" textLength="27" x="1177.5" y="184.2261">get()</text><text fill="#000000" font-family="sans-serif" font-size="11" lengthAdjust="spacing" textLength="38" x="1177.5" y="197.0308">finish()</text><text fill="#000000" font-family="sans-serif" font-size="11" lengthAdjust="spacing" textLength="29" x="1177.5" y="209.8354">use()</text><text fill="#000000" font-family="sans-serif" font-size="11" lengthAdjust="spacing" textLength="46" x="1177.5" y="222.6401">submit()</text><text fill="#000000" font-family="sans-serif" font-size="11" lengthAdjust="spacing" textLength="41" x="1177.5" y="235.4448">check()</text><text fill="#000000" font-family="sans-serif" font-size="11" lengthAdjust="spacing" textLength="32" x="1177.5" y="248.2495">play()</text><text fill="#000000" font-family="sans-serif" font-size="11" lengthAdjust="spacing" textLength="36" x="1177.5" y="261.0542">send()</text><text fill="#000000" font-family="sans-serif" font-size="11" lengthAdjust="spacing" textLength="37" x="1177.5" y="273.8589">know()</text><text fill="#000000" font-family="sans-serif" font-size="11" lengthAdjust="spacing" textLength="30" x="1177.5" y="286.6636">pick()</text><text fill="#000000" font-family="sans-serif" font-size="11" lengthAdjust="spacing" textLength="22" x="1177.5" y="299.4683">do()</text><text fill="#000000" font-family="sans-serif" font-size="11" lengthAdjust="spacing" textLength="41" x="1177.5" y="312.2729">verify()</text><text fill="#000000" font-family="sans-serif" font-size="11" lengthAdjust="spacing" textLength="52" x="1177.5" y="325.0776">receive()</text><text fill="#000000" font-family="sans-serif" font-size="11" lengthAdjust="spacing" textLength="22" x="1177.5" y="337.8823">go()</text><!--MD5=[d6181cb537bdc20c0a3007a98a56832d]
class Student--><rect codeLine="59" fill="#FEFECE" filter="url(#flnv3uynhkenv)" height="103.9922" id="Student" style="stroke:#A80036;stroke-width:1.5;" width="91" x="262.5" y="587"/><text fill="#000000" font-family="sans-serif" font-size="12" lengthAdjust="spacing" textLength="46" x="267.5" y="603.1387">Student</text><rect fill="#FFFFFF" height="15.9688" style="stroke:#000000;stroke-width:1.0;stroke-dasharray:2.0,2.0;" width="33" x="323.5" y="584"/><text fill="#000000" font-family="sans-serif" font-size="12" font-style="italic" lengthAdjust="spacing" textLength="31" x="324.5" y="596.1387">actor</text><line style="stroke:#A80036;stroke-width:1.5;" x1="263.5" x2="352.5" y1="610.9688" y2="610.9688"/><text fill="#000000" font-family="sans-serif" font-size="11" lengthAdjust="spacing" textLength="79" x="268.5" y="625.1792">challengerList</text><line style="stroke:#A80036;stroke-width:1.5;" x1="263.5" x2="352.5" y1="631.7734" y2="631.7734"/><text fill="#000000" font-family="sans-serif" font-size="11" lengthAdjust="spacing" textLength="59" x="268.5" y="645.9839">compete()</text><text fill="#000000" font-family="sans-serif" font-size="11" lengthAdjust="spacing" textLength="30" x="268.5" y="658.7886">see()</text><text fill="#000000" font-family="sans-serif" font-size="11" lengthAdjust="spacing" textLength="53" x="268.5" y="671.5933">prepare()</text><text fill="#000000" font-family="sans-serif" font-size="11" lengthAdjust="spacing" textLength="43" x="268.5" y="684.3979">select()</text><!--MD5=[89bc1b85bee2919638794409a9ffdf85]
class Competitor--><rect codeLine="46" fill="#FEFECE" filter="url(#flnv3uynhkenv)" height="116.7969" id="Competitor" style="stroke:#A80036;stroke-width:1.5;" width="108" x="170" y="768"/><text fill="#000000" font-family="sans-serif" font-size="12" lengthAdjust="spacing" textLength="67" x="173" y="784.1387">Competitor</text><rect fill="#FFFFFF" height="15.9688" style="stroke:#000000;stroke-width:1.0;stroke-dasharray:2.0,2.0;" width="33" x="248" y="765"/><text fill="#000000" font-family="sans-serif" font-size="12" font-style="italic" lengthAdjust="spacing" textLength="31" x="249" y="777.1387">actor</text><line style="stroke:#A80036;stroke-width:1.5;" x1="171" x2="277" y1="791.9688" y2="791.9688"/><text fill="#000000" font-family="sans-serif" font-size="11" lengthAdjust="spacing" textLength="77" x="176" y="806.1792">opponentPost</text><text fill="#000000" font-family="sans-serif" font-size="11" lengthAdjust="spacing" textLength="24" x="176" y="818.9839">post</text><text fill="#000000" font-family="sans-serif" font-size="11" lengthAdjust="spacing" textLength="79" x="176" y="831.7886">challengePost</text><line style="stroke:#A80036;stroke-width:1.5;" x1="171" x2="277" y1="838.3828" y2="838.3828"/><text fill="#000000" font-family="sans-serif" font-size="11" lengthAdjust="spacing" textLength="41" x="176" y="852.5933">verify()</text><text fill="#000000" font-family="sans-serif" font-size="11" lengthAdjust="spacing" textLength="32" x="176" y="865.3979">post()</text><text fill="#000000" font-family="sans-serif" font-size="11" lengthAdjust="spacing" textLength="35" x="176" y="878.2026">view()</text><!--MD5=[b34797a66dc35cbf1d65f7e3ca75530e]
class Task--><rect codeLine="18" fill="#FEFECE" filter="url(#flnv3uynhkenv)" height="39.9688" id="Task" style="stroke:#A80036;stroke-width:1.5;" width="34" x="557" y="968.5"/><text fill="#000000" font-family="sans-serif" font-size="12" lengthAdjust="spacing" textLength="28" x="560" y="984.6387">Task</text><line style="stroke:#A80036;stroke-width:1.5;" x1="558" x2="590" y1="992.4688" y2="992.4688"/><line style="stroke:#A80036;stroke-width:1.5;" x1="558" x2="590" y1="1000.4688" y2="1000.4688"/><!--MD5=[0851f84a889f989e7bb0bebc385d0f09]
class Request--><rect codeLine="20" fill="#FEFECE" filter="url(#flnv3uynhkenv)" height="39.9688" id="Request" style="stroke:#A80036;stroke-width:1.5;" width="55" x="661.5" y="427.5"/><text fill="#000000" font-family="sans-serif" font-size="12" lengthAdjust="spacing" textLength="49" x="664.5" y="443.6387">Request</text><line style="stroke:#A80036;stroke-width:1.5;" x1="662.5" x2="715.5" y1="451.4688" y2="451.4688"/><line style="stroke:#A80036;stroke-width:1.5;" x1="662.5" x2="715.5" y1="459.4688" y2="459.4688"/><!--MD5=[107af66394bf1ebaa045812c9c475148]
class Score--><rect codeLine="22" fill="#FEFECE" filter="url(#flnv3uynhkenv)" height="52.7734" id="Score" style="stroke:#A80036;stroke-width:1.5;" width="42" x="930" y="962"/><text fill="#000000" font-family="sans-serif" font-size="12" lengthAdjust="spacing" textLength="36" x="933" y="978.1387">Score</text><line style="stroke:#A80036;stroke-width:1.5;" x1="931" x2="971" y1="985.9688" y2="985.9688"/><line style="stroke:#A80036;stroke-width:1.5;" x1="931" x2="971" y1="993.9688" y2="993.9688"/><text fill="#000000" font-family="sans-serif" font-size="11" lengthAdjust="spacing" textLength="29" x="936" y="1008.1792">buy()</text><!--MD5=[3c3e9f00051ae1eb1eeb1a251da19bc6]
class Idea--><rect codeLine="44" fill="#FEFECE" filter="url(#flnv3uynhkenv)" height="39.9688" id="Idea" style="stroke:#A80036;stroke-width:1.5;" width="32" x="1560" y="427.5"/><text fill="#000000" font-family="sans-serif" font-size="12" lengthAdjust="spacing" textLength="26" x="1563" y="443.6387">Idea</text><line style="stroke:#A80036;stroke-width:1.5;" x1="1561" x2="1591" y1="451.4688" y2="451.4688"/><line style="stroke:#A80036;stroke-width:1.5;" x1="1561" x2="1591" y1="459.4688" y2="459.4688"/><!--MD5=[9bb0bdd047fba1a3c8d48282c35b4537]
class Post--><rect codeLine="51" fill="#FEFECE" filter="url(#flnv3uynhkenv)" height="39.9688" id="Post" style="stroke:#A80036;stroke-width:1.5;" width="31" x="320.5" y="968.5"/><text fill="#000000" font-family="sans-serif" font-size="12" lengthAdjust="spacing" textLength="25" x="323.5" y="984.6387">Post</text><line style="stroke:#A80036;stroke-width:1.5;" x1="321.5" x2="350.5" y1="992.4688" y2="992.4688"/><line style="stroke:#A80036;stroke-width:1.5;" x1="321.5" x2="350.5" y1="1000.4688" y2="1000.4688"/><!--MD5=[0f690a215a17a0cf4b9f948ca5dd1b3e]
class Rank--><rect codeLine="53" fill="#FEFECE" filter="url(#flnv3uynhkenv)" height="39.9688" id="Rank" style="stroke:#A80036;stroke-width:1.5;" width="34" x="1627" y="427.5"/><text fill="#000000" font-family="sans-serif" font-size="12" lengthAdjust="spacing" textLength="28" x="1630" y="443.6387">Rank</text><line style="stroke:#A80036;stroke-width:1.5;" x1="1628" x2="1660" y1="451.4688" y2="451.4688"/><line style="stroke:#A80036;stroke-width:1.5;" x1="1628" x2="1660" y1="459.4688" y2="459.4688"/><!--MD5=[f275f3fa57eca013602c3f6cd77e86fd]
class Challenge--><rect codeLine="55" fill="#FEFECE" filter="url(#flnv3uynhkenv)" height="65.5781" id="Challenge" style="stroke:#A80036;stroke-width:1.5;" width="65" x="744.5" y="793.5"/><text fill="#000000" font-family="sans-serif" font-size="12" lengthAdjust="spacing" textLength="59" x="747.5" y="809.6387">Challenge</text><line style="stroke:#A80036;stroke-width:1.5;" x1="745.5" x2="808.5" y1="817.4688" y2="817.4688"/><line style="stroke:#A80036;stroke-width:1.5;" x1="745.5" x2="808.5" y1="825.4688" y2="825.4688"/><text fill="#000000" font-family="sans-serif" font-size="11" lengthAdjust="spacing" textLength="37" x="750.5" y="839.6792">have()</text><text fill="#000000" font-family="sans-serif" font-size="11" lengthAdjust="spacing" textLength="41" x="750.5" y="852.4839">verify()</text><!--MD5=[cff4d1dfabf1e80e04b31c5c669534b5]
class Day--><rect codeLine="65" fill="#FEFECE" filter="url(#flnv3uynhkenv)" height="39.9688" id="Day" style="stroke:#A80036;stroke-width:1.5;" width="29" x="350.5" y="806.5"/><text fill="#000000" font-family="sans-serif" font-size="12" lengthAdjust="spacing" textLength="23" x="353.5" y="822.6387">Day</text><line style="stroke:#A80036;stroke-width:1.5;" x1="351.5" x2="378.5" y1="830.4688" y2="830.4688"/><line style="stroke:#A80036;stroke-width:1.5;" x1="351.5" x2="378.5" y1="838.4688" y2="838.4688"/><!--MD5=[b76c921dec148580e221480ea486da2a]
class Friend--><rect codeLine="67" fill="#FEFECE" filter="url(#flnv3uynhkenv)" height="52.7734" id="Friend" style="stroke:#A80036;stroke-width:1.5;" width="80" x="737" y="612.5"/><text fill="#000000" font-family="sans-serif" font-size="12" lengthAdjust="spacing" textLength="38" x="758" y="628.6387">Friend</text><line style="stroke:#A80036;stroke-width:1.5;" x1="738" x2="816" y1="636.4688" y2="636.4688"/><line style="stroke:#A80036;stroke-width:1.5;" x1="738" x2="816" y1="644.4688" y2="644.4688"/><text fill="#000000" font-family="sans-serif" font-size="11" lengthAdjust="spacing" textLength="68" x="743" y="658.6792">participate()</text><!--MD5=[16b0a2e83c9cca5ec7224c048ee6a926]
class Challenger--><rect codeLine="70" fill="#FEFECE" filter="url(#flnv3uynhkenv)" height="52.7734" id="Challenger" style="stroke:#A80036;stroke-width:1.5;" width="76" x="7" y="150.5"/><text fill="#000000" font-family="sans-serif" font-size="12" lengthAdjust="spacing" textLength="64" x="13" y="166.6387">Challenger</text><line style="stroke:#A80036;stroke-width:1.5;" x1="8" x2="82" y1="174.4688" y2="174.4688"/><line style="stroke:#A80036;stroke-width:1.5;" x1="8" x2="82" y1="182.4688" y2="182.4688"/><text fill="#000000" font-family="sans-serif" font-size="11" lengthAdjust="spacing" textLength="64" x="13" y="196.6792">challenge()</text><!--MD5=[4c122067c55db3bfdcadf29dc88875c9]
class Reward--><rect codeLine="73" fill="#FEFECE" filter="url(#flnv3uynhkenv)" height="39.9688" id="Reward" style="stroke:#A80036;stroke-width:1.5;" width="51" x="1696.5" y="427.5"/><text fill="#000000" font-family="sans-serif" font-size="12" lengthAdjust="spacing" textLength="45" x="1699.5" y="443.6387">Reward</text><line style="stroke:#A80036;stroke-width:1.5;" x1="1697.5" x2="1746.5" y1="451.4688" y2="451.4688"/><line style="stroke:#A80036;stroke-width:1.5;" x1="1697.5" x2="1746.5" y1="459.4688" y2="459.4688"/><!--MD5=[0b4e4b4980470ea387cc45de9bd14b5b]
class Application--><rect codeLine="75" fill="#FEFECE" filter="url(#flnv3uynhkenv)" height="52.7734" id="Application" style="stroke:#A80036;stroke-width:1.5;" width="72" x="118" y="150.5"/><text fill="#000000" font-family="sans-serif" font-size="12" lengthAdjust="spacing" textLength="66" x="121" y="166.6387">Application</text><line style="stroke:#A80036;stroke-width:1.5;" x1="119" x2="189" y1="174.4688" y2="174.4688"/><line style="stroke:#A80036;stroke-width:1.5;" x1="119" x2="189" y1="182.4688" y2="182.4688"/><text fill="#000000" font-family="sans-serif" font-size="11" lengthAdjust="spacing" textLength="55" x="124" y="196.6792">improve()</text><!--MD5=[5d4a571d632f45af65b163b23000bf12]
class Suggestion--><rect codeLine="78" fill="#FEFECE" filter="url(#flnv3uynhkenv)" height="39.9688" id="Suggestion" style="stroke:#A80036;stroke-width:1.5;" width="74" x="1783" y="427.5"/><text fill="#000000" font-family="sans-serif" font-size="12" lengthAdjust="spacing" textLength="68" x="1786" y="443.6387">Suggestion</text><line style="stroke:#A80036;stroke-width:1.5;" x1="1784" x2="1856" y1="451.4688" y2="451.4688"/><line style="stroke:#A80036;stroke-width:1.5;" x1="1784" x2="1856" y1="459.4688" y2="459.4688"/><!--MD5=[90c85028ff258272658352a87657e23d]
class IPhoneModel--><rect codeLine="80" fill="#FEFECE" filter="url(#flnv3uynhkenv)" height="52.7734" id="IPhoneModel" style="stroke:#A80036;stroke-width:1.5;" width="82" x="1141" y="504"/><text fill="#000000" font-family="sans-serif" font-size="12" lengthAdjust="spacing" textLength="76" x="1144" y="520.1387">IPhoneModel</text><line style="stroke:#A80036;stroke-width:1.5;" x1="1142" x2="1222" y1="527.9688" y2="527.9688"/><line style="stroke:#A80036;stroke-width:1.5;" x1="1142" x2="1222" y1="535.9688" y2="535.9688"/><text fill="#000000" font-family="sans-serif" font-size="11" lengthAdjust="spacing" textLength="32" x="1147" y="550.1792">play()</text><!--MD5=[b6dcce5e5ef3c84b0b048d11301373dd]
class Game--><rect codeLine="83" fill="#FEFECE" filter="url(#flnv3uynhkenv)" height="39.9688" id="Game" style="stroke:#A80036;stroke-width:1.5;" width="41" x="1201.5" y="968.5"/><text fill="#000000" font-family="sans-serif" font-size="12" lengthAdjust="spacing" textLength="35" x="1204.5" y="984.6387">Game</text><line style="stroke:#A80036;stroke-width:1.5;" x1="1202.5" x2="1241.5" y1="992.4688" y2="992.4688"/><line style="stroke:#A80036;stroke-width:1.5;" x1="1202.5" x2="1241.5" y1="1000.4688" y2="1000.4688"/><!--MD5=[a194c26bde8fcf6a0b1b97ae1dcc4770]
class OpponentPost--><rect codeLine="85" fill="#FEFECE" filter="url(#flnv3uynhkenv)" height="39.9688" id="OpponentPost" style="stroke:#A80036;stroke-width:1.5;" width="91" x="139.5" y="968.5"/><text fill="#000000" font-family="sans-serif" font-size="12" lengthAdjust="spacing" textLength="85" x="142.5" y="984.6387">OpponentPost</text><line style="stroke:#A80036;stroke-width:1.5;" x1="140.5" x2="229.5" y1="992.4688" y2="992.4688"/><line style="stroke:#A80036;stroke-width:1.5;" x1="140.5" x2="229.5" y1="1000.4688" y2="1000.4688"/><!--MD5=[a805b40f8193e3b705560a3818c5c109]
class Photo--><rect codeLine="87" fill="#FEFECE" filter="url(#flnv3uynhkenv)" height="39.9688" id="Photo" style="stroke:#A80036;stroke-width:1.5;" width="39" x="1892.5" y="427.5"/><text fill="#000000" font-family="sans-serif" font-size="12" lengthAdjust="spacing" textLength="33" x="1895.5" y="443.6387">Photo</text><line style="stroke:#A80036;stroke-width:1.5;" x1="1893.5" x2="1930.5" y1="451.4688" y2="451.4688"/><line style="stroke:#A80036;stroke-width:1.5;" x1="1893.5" x2="1930.5" y1="459.4688" y2="459.4688"/><!--MD5=[76b5e19c9337179d2d7ae334371d68c8]
class Notification--><rect codeLine="89" fill="#FEFECE" filter="url(#flnv3uynhkenv)" height="39.9688" id="Notification" style="stroke:#A80036;stroke-width:1.5;" width="72" x="1424" y="968.5"/><text fill="#000000" font-family="sans-serif" font-size="12" lengthAdjust="spacing" textLength="66" x="1427" y="984.6387">Notification</text><line style="stroke:#A80036;stroke-width:1.5;" x1="1425" x2="1495" y1="992.4688" y2="992.4688"/><line style="stroke:#A80036;stroke-width:1.5;" x1="1425" x2="1495" y1="1000.4688" y2="1000.4688"/><!--MD5=[fa3465b439325c4c1dc90e30518f132c]
class Sth--><rect codeLine="91" fill="#FEFECE" filter="url(#flnv3uynhkenv)" height="39.9688" id="Sth" style="stroke:#A80036;stroke-width:1.5;" width="25" x="938.5" y="1092"/><text fill="#000000" font-family="sans-serif" font-size="12" lengthAdjust="spacing" textLength="19" x="941.5" y="1108.1387">Sth</text><line style="stroke:#A80036;stroke-width:1.5;" x1="939.5" x2="962.5" y1="1115.9688" y2="1115.9688"/><line style="stroke:#A80036;stroke-width:1.5;" x1="939.5" x2="962.5" y1="1123.9688" y2="1123.9688"/><!--MD5=[2e42295458bb0bec21c9622a623eb29e]
class Time--><rect codeLine="93" fill="#FEFECE" filter="url(#flnv3uynhkenv)" height="52.7734" id="Time" style="stroke:#A80036;stroke-width:1.5;" width="60" x="15" y="421"/><text fill="#000000" font-family="sans-serif" font-size="12" lengthAdjust="spacing" textLength="29" x="30.5" y="437.1387">Time</text><line style="stroke:#A80036;stroke-width:1.5;" x1="16" x2="74" y1="444.9688" y2="444.9688"/><line style="stroke:#A80036;stroke-width:1.5;" x1="16" x2="74" y1="452.9688" y2="452.9688"/><text fill="#000000" font-family="sans-serif" font-size="11" lengthAdjust="spacing" textLength="48" x="21" y="467.1792">remain()</text><!--MD5=[2e4b1ce3760bf079ed339232a30b7581]
class FinishTime--><rect codeLine="96" fill="#FEFECE" filter="url(#flnv3uynhkenv)" height="39.9688" id="FinishTime" style="stroke:#A80036;stroke-width:1.5;" width="69" x="1966.5" y="427.5"/><text fill="#000000" font-family="sans-serif" font-size="12" lengthAdjust="spacing" textLength="63" x="1969.5" y="443.6387">FinishTime</text><line style="stroke:#A80036;stroke-width:1.5;" x1="1967.5" x2="2034.5" y1="451.4688" y2="451.4688"/><line style="stroke:#A80036;stroke-width:1.5;" x1="1967.5" x2="2034.5" y1="459.4688" y2="459.4688"/><!--MD5=[6c1718406714b1aba44ecc3de22ac927]
class Chance--><rect codeLine="98" fill="#FEFECE" filter="url(#flnv3uynhkenv)" height="52.7734" id="Chance" style="stroke:#A80036;stroke-width:1.5;" width="50" x="2143" y="150.5"/><text fill="#000000" font-family="sans-serif" font-size="12" lengthAdjust="spacing" textLength="44" x="2146" y="166.6387">Chance</text><line style="stroke:#A80036;stroke-width:1.5;" x1="2144" x2="2192" y1="174.4688" y2="174.4688"/><line style="stroke:#A80036;stroke-width:1.5;" x1="2144" x2="2192" y1="182.4688" y2="182.4688"/><text fill="#000000" font-family="sans-serif" font-size="11" lengthAdjust="spacing" textLength="32" x="2149" y="196.6792">click()</text><!--MD5=[90ba54f54370e77ef24813dec6818fa3]
class Button--><rect codeLine="101" fill="#FEFECE" filter="url(#flnv3uynhkenv)" height="39.9688" id="Button" style="stroke:#A80036;stroke-width:1.5;" width="44" x="2146" y="427.5"/><text fill="#000000" font-family="sans-serif" font-size="12" lengthAdjust="spacing" textLength="38" x="2149" y="443.6387">Button</text><line style="stroke:#A80036;stroke-width:1.5;" x1="2147" x2="2189" y1="451.4688" y2="451.4688"/><line style="stroke:#A80036;stroke-width:1.5;" x1="2147" x2="2189" y1="459.4688" y2="459.4688"/><!--MD5=[028fba31e0312914fa4880b63f0540b8]
class Detail--><rect codeLine="103" fill="#FEFECE" filter="url(#flnv3uynhkenv)" height="39.9688" id="Detail" style="stroke:#A80036;stroke-width:1.5;" width="40" x="2071" y="427.5"/><text fill="#000000" font-family="sans-serif" font-size="12" lengthAdjust="spacing" textLength="34" x="2074" y="443.6387">Detail</text><line style="stroke:#A80036;stroke-width:1.5;" x1="2072" x2="2110" y1="451.4688" y2="451.4688"/><line style="stroke:#A80036;stroke-width:1.5;" x1="2072" x2="2110" y1="459.4688" y2="459.4688"/><!--MD5=[bec43d67277193a86863b6703a526bb0]
link User to Request--><path codeLine="105" d="M1171.14,186.253 C1074.24,204.314 860.996,255.58 728,374 C713.296,387.092 703.124,407.086 696.865,422.764 " fill="none" id="User-to-Request" style="stroke:#A80036;stroke-width:1.0;"/><polygon fill="#A80036" points="695.047,427.479,702.0172,420.5208,696.8459,422.8138,694.5529,417.6425,695.047,427.479" style="stroke:#A80036;stroke-width:1.0;"/><text fill="#000000" font-family="sans-serif" font-size="13" lengthAdjust="spacing" textLength="31" x="729" y="387.0669">send</text><!--MD5=[b9139870dffe1c76bfd4ebb089e8d3b0]
link Friend to Challenge--><path codeLine="106" d="M775.812,665.53 C775.131,681.473 774.344,702.428 774,721 C773.587,743.322 774.263,768.319 775.078,788.268 " fill="none" id="Friend-to-Challenge" style="stroke:#A80036;stroke-width:1.0;"/><polygon fill="#A80036" points="775.299,793.489,778.9149,784.3279,775.0876,788.4935,770.922,784.6662,775.299,793.489" style="stroke:#A80036;stroke-width:1.0;"/><text fill="#000000" font-family="sans-serif" font-size="13" lengthAdjust="spacing" textLength="68" x="775" y="734.0669">participate</text><!--MD5=[1adbafd5adc2ed4963c26ec3d1b6b5d4]
reverse link User to Rank--><path codeLine="107" d="M1284.8,199.957 C1363.9,229.925 1500.84,289.71 1595,374 C1611.98,389.199 1625.88,411.477 1634.49,427.321 " fill="none" id="User-backto-Rank" style="stroke:#A80036;stroke-width:1.0;"/><polygon fill="#FFFFFF" points="1272.62,195.404,1276.8374,201.2532,1283.8588,199.61,1279.6414,193.7607,1272.62,195.404" style="stroke:#A80036;stroke-width:1.0;"/><text fill="#000000" font-family="sans-serif" font-size="13" lengthAdjust="spacing" textLength="23" x="1611" y="387.0669">see</text><!--MD5=[314a4adac3b7ff2c5ddec8808382945e]
reverse link User to Challenge--><path codeLine="108" d="M1159.27,204.487 C1091.98,235.839 986.15,294.063 922,374 C818.674,502.754 911.382,585.565 848,738 C839.287,758.954 823.893,778.884 809.66,794.416 " fill="none" id="User-backto-Challenge" style="stroke:#A80036;stroke-width:1.0;"/><polygon fill="#FFFFFF" points="1171.37,198.947,1164.2492,197.8094,1160.4603,203.9449,1167.5811,205.0825,1171.37,198.947" style="stroke:#A80036;stroke-width:1.0;"/><text fill="#000000" font-family="sans-serif" font-size="13" lengthAdjust="spacing" textLength="23" x="872" y="535.0669">see</text><!--MD5=[314a4adac3b7ff2c5ddec8808382945e]
reverse link User to Challenge--><path codeLine="109" d="M1160.47,218.87 C1110.23,254.814 1040.22,311.104 994,374 C906.597,492.939 938.038,549.814 895,691 C888.478,712.396 889.793,719.651 877,738 C858.793,764.114 831.156,787.501 809.547,803.512 " fill="none" id="User-backto-Challenge-1" style="stroke:#A80036;stroke-width:1.0;"/><polygon fill="#FFFFFF" points="1171.2,211.293,1163.9917,211.4942,1161.405,218.2254,1168.6133,218.0242,1171.2,211.293" style="stroke:#A80036;stroke-width:1.0;"/><text fill="#000000" font-family="sans-serif" font-size="13" lengthAdjust="spacing" textLength="37" x="933" y="535.0669">check</text><!--MD5=[314a4adac3b7ff2c5ddec8808382945e]
reverse link User to Challenge--><path codeLine="114" d="M1162.84,248.14 C1133.95,284.34 1099.91,330.037 1074,374 C983.708,527.175 1027.29,606.143 908,738 C879.836,769.133 838.348,794.39 809.64,809.624 " fill="none" id="User-backto-Challenge-2" style="stroke:#A80036;stroke-width:1.0;"/><polygon fill="#FFFFFF" points="1171.24,237.708,1164.3622,239.875,1163.7172,247.0572,1170.595,244.8902,1171.24,237.708" style="stroke:#A80036;stroke-width:1.0;"/><text fill="#000000" font-family="sans-serif" font-size="13" lengthAdjust="spacing" textLength="31" x="1019" y="535.0669">send</text><!--MD5=[314a4adac3b7ff2c5ddec8808382945e]
reverse link User to Challenge--><path codeLine="121" d="M1157.96,179.893 C1031.57,187.018 747.961,220.3 582,374 C463.294,483.936 480.36,616.324 587,738 C628.769,785.658 701.875,809 744.19,819.032 " fill="none" id="User-backto-Challenge-3" style="stroke:#A80036;stroke-width:1.0;"/><polygon fill="#FFFFFF" points="1171.13,179.214,1164.9355,175.5224,1159.1453,179.8206,1165.3399,183.5122,1171.13,179.214" style="stroke:#A80036;stroke-width:1.0;"/><text fill="#000000" font-family="sans-serif" font-size="13" lengthAdjust="spacing" textLength="37" x="505" y="535.0669">verify</text><!--MD5=[314a4adac3b7ff2c5ddec8808382945e]
reverse link User to Challenge--><path codeLine="124" d="M1158.35,180.228 C1028.91,188.765 739.188,229.394 644,421 C578.714,552.416 694.636,723.232 750.004,793.336 " fill="none" id="User-backto-Challenge-4" style="stroke:#A80036;stroke-width:1.0;"/><polygon fill="#FFFFFF" points="1171.48,179.437,1165.2492,175.807,1159.5019,180.1623,1165.7327,183.7923,1171.48,179.437" style="stroke:#A80036;stroke-width:1.0;"/><text fill="#000000" font-family="sans-serif" font-size="13" lengthAdjust="spacing" textLength="34" x="630" y="535.0669">finish</text><!--MD5=[ffc5bd74a469f331363af1211d2d6db7]
link Chance to Button--><path codeLine="110" d="M2168,203.745 C2168,255.542 2168,371.702 2168,422.241 " fill="none" id="Chance-to-Button" style="stroke:#A80036;stroke-width:1.0;"/><polygon fill="#A80036" points="2168,427.498,2172,418.498,2168,422.498,2164,418.498,2168,427.498" style="stroke:#A80036;stroke-width:1.0;"/><text fill="#000000" font-family="sans-serif" font-size="13" lengthAdjust="spacing" textLength="27" x="2169" y="387.0669">click</text><!--MD5=[1d2e365c7e3c6fbe42c4b19d2d43a0d6]
link User to Competitor--><path codeLine="111" d="M1171.3,180.519 C1040.47,189.056 684.449,225.355 437,374 C270.191,474.204 219.11,532.706 170,721 C166.305,735.167 168.915,749.596 174.588,763.027 " fill="none" id="User-to-Competitor" style="stroke:#A80036;stroke-width:1.0;"/><polygon fill="#A80036" points="176.811,767.928,176.7362,758.0794,174.7456,763.3745,169.4506,761.384,176.811,767.928" style="stroke:#A80036;stroke-width:1.0;"/><text fill="#000000" font-family="sans-serif" font-size="13" lengthAdjust="spacing" textLength="25" x="268" y="535.0669">pick</text><!--MD5=[e8e179fb925fdfeb6b153d421b5ce45a]
reverse link Student to Challenge--><path codeLine="112" d="M365.125,676.236 C398.557,696.35 442.115,720.72 483,738 C574.729,776.769 689.322,805.588 744.43,818.306 " fill="none" id="Student-backto-Challenge" style="stroke:#A80036;stroke-width:1.0;"/><polygon fill="#FFFFFF" points="353.743,669.318,356.7922,675.8527,363.997,675.5514,360.9478,669.0167,353.743,669.318" style="stroke:#A80036;stroke-width:1.0;"/><text fill="#000000" font-family="sans-serif" font-size="13" lengthAdjust="spacing" textLength="23" x="484" y="734.0669">see</text><!--MD5=[7ce62e6be194a4eb1cd79b7464013187]
link User to Game--><path codeLine="113" d="M1257.83,344.171 C1262.66,377.876 1266,413.198 1266,446.5 C1266,446.5 1266,446.5 1266,827.5 C1266,877.27 1245.96,932.731 1232.93,963.537 " fill="none" id="User-to-Game" style="stroke:#A80036;stroke-width:1.0;"/><polygon fill="#A80036" points="1230.9,968.265,1238.1276,961.5746,1232.8736,963.671,1230.7772,958.4169,1230.9,968.265" style="stroke:#A80036;stroke-width:1.0;"/><text fill="#000000" font-family="sans-serif" font-size="13" lengthAdjust="spacing" textLength="27" x="1267" y="643.5669">play</text><!--MD5=[7ce62e6be194a4eb1cd79b7464013187]
link User to Game--><path codeLine="141" d="M1272.62,233.925 C1313.75,285.309 1365,365.563 1365,446.5 C1365,446.5 1365,446.5 1365,827.5 C1365,897.272 1288.47,950.589 1247.38,974.185 " fill="none" id="User-to-Game-1" style="stroke:#A80036;stroke-width:1.0;"/><polygon fill="#A80036" points="1242.79,976.78,1252.5913,975.8134,1247.1377,974.3107,1248.6404,968.8571,1242.79,976.78" style="stroke:#A80036;stroke-width:1.0;"/><text fill="#000000" font-family="sans-serif" font-size="13" lengthAdjust="spacing" textLength="23" x="1366" y="643.5669">see</text><!--MD5=[570ec5c4e8a1dd44e7fcb71a8cfc57a6]
link User to Detail--><path codeLine="115" d="M1272.88,191.266 C1388.13,221.555 1677.75,298.992 1917,374 C1978.02,393.132 1995.75,392.501 2053,421 C2057.48,423.231 2062.06,425.908 2066.41,428.676 " fill="none" id="User-to-Detail" style="stroke:#A80036;stroke-width:1.0;"/><polygon fill="#A80036" points="2070.68,431.462,2065.3236,423.1971,2066.491,428.7322,2060.9559,429.8996,2070.68,431.462" style="stroke:#A80036;stroke-width:1.0;"/><text fill="#000000" font-family="sans-serif" font-size="13" lengthAdjust="spacing" textLength="21" x="1976" y="387.0669">get</text><!--MD5=[205d5db780bb7a4b7e16d4f85749d9ca]
link Request to Friend--><path codeLine="116" d="M697.922,467.713 C713.248,500.716 744.686,568.415 762.969,607.786 " fill="none" id="Request-to-Friend" style="stroke:#A80036;stroke-width:1.0;"/><polygon fill="#A80036" points="765.132,612.442,764.9678,602.5945,763.0254,607.9074,757.7125,605.9651,765.132,612.442" style="stroke:#A80036;stroke-width:1.0;"/><text fill="#000000" font-family="sans-serif" font-size="13" lengthAdjust="spacing" textLength="13" x="740" y="535.0669">to</text><!--MD5=[8fe840362677aba5550a90a6fd257d97]
link Student to Day--><path codeLine="117" d="M323.726,691.18 C334.77,727.12 349.04,773.561 357.581,801.356 " fill="none" id="Student-to-Day" style="stroke:#A80036;stroke-width:1.0;"/><polygon fill="#A80036" points="359.107,806.323,360.2866,796.545,357.6382,801.5436,352.6396,798.8952,359.107,806.323" style="stroke:#A80036;stroke-width:1.0;"/><text fill="#000000" font-family="sans-serif" font-size="13" lengthAdjust="spacing" textLength="23" x="338" y="734.0669">see</text><!--MD5=[da290f5b81abb66526600482bc697c25]
reverse link Challenge to Task--><path codeLine="118" d="M733.896,861.474 C689.497,896.468 622.505,949.27 591.227,973.922 " fill="none" id="Challenge-backto-Task" style="stroke:#A80036;stroke-width:1.0;"/><polygon fill="#FFFFFF" points="744.385,853.207,737.1967,853.7795,734.9604,860.6351,742.1487,860.0626,744.385,853.207" style="stroke:#A80036;stroke-width:1.0;"/><!--MD5=[1bd665d77327fe1ad6e36295f9725dc9]
reverse link User to Photo--><path codeLine="119" d="M1285,199.348 C1386.68,234.112 1592.96,305.931 1765,374 C1814.06,393.409 1827.68,395.75 1874,421 C1880.14,424.346 1886.55,428.405 1892.31,432.291 " fill="none" id="User-backto-Photo" style="stroke:#A80036;stroke-width:1.0;"/><polygon fill="#FFFFFF" points="1272.54,195.094,1276.9259,200.818,1283.8965,198.9709,1279.5105,193.247,1272.54,195.094" style="stroke:#A80036;stroke-width:1.0;"/><text fill="#000000" font-family="sans-serif" font-size="13" lengthAdjust="spacing" textLength="24" x="1811" y="387.0669">add</text><!--MD5=[3aa410d8409ec5fd8a6027700bc1c744]
reverse link Challenge to Post--><path codeLine="120" d="M731.73,843.925 C635.22,878.94 413.052,959.544 351.857,981.747 " fill="none" id="Challenge-backto-Post" style="stroke:#A80036;stroke-width:1.0;"/><polygon fill="#FFFFFF" points="744.214,839.395,737.2094,837.6815,732.9337,843.4883,739.9383,845.2017,744.214,839.395" style="stroke:#A80036;stroke-width:1.0;"/><!--MD5=[f9f733986f7d9c1f35e0b86acaa26406]
reverse link User to Friend--><path codeLine="122" d="M1158.72,201.843 C1080.78,233.256 946.931,294.021 851,374 C778.793,434.2 773.955,558.643 775.515,612.374 " fill="none" id="User-backto-Friend" style="stroke:#A80036;stroke-width:1.0;"/><polygon fill="#FFFFFF" points="1171.21,196.871,1164.1553,195.3771,1160.063,201.3145,1167.1177,202.8084,1171.21,196.871" style="stroke:#A80036;stroke-width:1.0;"/><text fill="#000000" font-family="sans-serif" font-size="13" lengthAdjust="spacing" textLength="35" x="813" y="452.0669">invite</text><!--MD5=[5604b80ae26dc98f27132114e9ecaf59]
reverse link Challenge to Request--><path codeLine="123" d="M754.161,781.318 C741.845,755.611 727.474,722.213 719,691 C696.992,609.94 691.082,509.205 689.533,467.72 " fill="none" id="Challenge-backto-Request" style="stroke:#A80036;stroke-width:1.0;"/><polygon fill="#FFFFFF" points="760.007,793.276,760.9661,786.129,754.7377,782.4948,753.7786,789.6418,760.007,793.276" style="stroke:#A80036;stroke-width:1.0;"/><!--MD5=[d66589156bf1fbee75a163b3798d8a52]
reverse link Challenge to Notification--><path codeLine="125" d="M822.975,838.27 C950.779,868.21 1308.47,952.002 1423.72,979.001 " fill="none" id="Challenge-backto-Notification" style="stroke:#A80036;stroke-width:1.0;"/><polygon fill="#FFFFFF" points="809.943,835.217,814.8722,840.4803,821.6266,837.9546,816.6973,832.6913,809.943,835.217" style="stroke:#A80036;stroke-width:1.0;"/><!--MD5=[3289a1d9f35bfb30cfe6dc503503cb28]
reverse link Competitor to Post--><path codeLine="126" d="M283.09,895.709 C287.962,902.107 292.67,908.595 297,915 C308.686,932.288 319.728,953.438 327.059,968.422 " fill="none" id="Competitor-backto-Post" style="stroke:#A80036;stroke-width:1.0;"/><polygon fill="#FFFFFF" points="274.777,885.06,275.3163,892.2509,282.1615,894.5188,281.6222,887.3279,274.777,885.06" style="stroke:#A80036;stroke-width:1.0;"/><text fill="#000000" font-family="sans-serif" font-size="13" lengthAdjust="spacing" textLength="28" x="308" y="928.0669">post</text><!--MD5=[3289a1d9f35bfb30cfe6dc503503cb28]
reverse link Competitor to Post--><path codeLine="142" d="M239.203,897.771 C243.719,909.864 249.533,921.804 257,932 C273.638,954.718 302.461,971.521 320.311,980.388 " fill="none" id="Competitor-backto-Post-1" style="stroke:#A80036;stroke-width:1.0;"/><polygon fill="#FFFFFF" points="234.952,885.18,233.0815,892.1443,238.7906,896.5495,240.6611,889.5852,234.952,885.18" style="stroke:#A80036;stroke-width:1.0;"/><text fill="#000000" font-family="sans-serif" font-size="13" lengthAdjust="spacing" textLength="30" x="258" y="928.0669">view</text><!--MD5=[cb1b5aed113374fc4edc17fbf169393a]
reverse link Challenge to Game--><path codeLine="127" d="M820.2,863.388 C850.097,886.409 891.781,915.058 933,932 C1028.22,971.137 1152.59,983.048 1201.23,986.346 " fill="none" id="Challenge-backto-Game" style="stroke:#A80036;stroke-width:1.0;"/><polygon fill="#FFFFFF" points="809.741,855.194,811.9965,862.0433,819.1865,862.5956,816.9309,855.7463,809.741,855.194" style="stroke:#A80036;stroke-width:1.0;"/><!--MD5=[e38a3bde52c7ecfcc01cfe2c1b1a0001]
link User to Reward--><path codeLine="128" d="M1272.57,195.742 C1354.35,225.674 1518.99,291.127 1643,374 C1664.4,388.303 1685.73,408.308 1700.83,423.681 " fill="none" id="User-to-Reward" style="stroke:#A80036;stroke-width:1.0;"/><polygon fill="#A80036" points="1704.52,427.484,1701.1129,418.2432,1701.0341,423.8995,1695.3778,423.8207,1704.52,427.484" style="stroke:#A80036;stroke-width:1.0;"/><text fill="#000000" font-family="sans-serif" font-size="13" lengthAdjust="spacing" textLength="21" x="1666" y="387.0669">get</text><!--MD5=[95fb20112a635c1b88cee5650c0a8174]
link User to IPhoneModel--><path codeLine="129" d="M1203.08,344.229 C1196.36,403.306 1189.47,463.822 1185.47,498.971 " fill="none" id="User-to-IPhoneModel" style="stroke:#A80036;stroke-width:1.0;"/><polygon fill="#A80036" points="1184.91,503.969,1189.9019,495.479,1185.4753,499.0011,1181.9532,494.5745,1184.91,503.969" style="stroke:#A80036;stroke-width:1.0;"/><text fill="#000000" font-family="sans-serif" font-size="13" lengthAdjust="spacing" textLength="23" x="1201" y="387.0669">use</text><!--MD5=[9f96755251a779e0d686bbb8dbc97124]
reverse link Challenge to Score--><path codeLine="130" d="M797.383,871.501 C808.417,891.802 823.58,915.091 842,932 C867.968,955.838 906.09,972.097 929.685,980.583 " fill="none" id="Challenge-backto-Score" style="stroke:#A80036;stroke-width:1.0;"/><polygon fill="#FFFFFF" points="791.37,859.964,790.5963,867.1335,796.9167,870.6051,797.6904,863.4357,791.37,859.964" style="stroke:#A80036;stroke-width:1.0;"/><!--MD5=[645d4c81136d54efa1374cc3d7bd6c35]
link Student to Competitor--><path codeLine="131" d="M262.424,656.34 C234.025,669.172 199.796,690.101 183,721 C175.808,734.23 176.693,748.993 181.433,763.159 " fill="none" id="Student-to-Competitor" style="stroke:#A80036;stroke-width:1.0;"/><polygon fill="#A80036" points="183.183,767.937,183.8461,758.1105,181.4645,763.2416,176.3334,760.86,183.183,767.937" style="stroke:#A80036;stroke-width:1.0;"/><text fill="#000000" font-family="sans-serif" font-size="13" lengthAdjust="spacing" textLength="57" x="184" y="734.0669">compete</text><!--MD5=[645d4c81136d54efa1374cc3d7bd6c35]
link Student to Competitor--><path codeLine="138" d="M284.824,691.18 C274.717,713.499 262.777,739.868 252.163,763.306 " fill="none" id="Student-to-Competitor-1" style="stroke:#A80036;stroke-width:1.0;"/><polygon fill="#A80036" points="250.059,767.952,257.4143,761.4023,252.1208,763.3969,250.1262,758.1034,250.059,767.952" style="stroke:#A80036;stroke-width:1.0;"/><text fill="#000000" font-family="sans-serif" font-size="13" lengthAdjust="spacing" textLength="38" x="273" y="734.0669">select</text><!--MD5=[2e2e530a658308b38e0151c4d25adf6b]
link User to Notification--><path codeLine="132" d="M1272.85,225.974 C1308.94,262.98 1355.51,317.285 1382,374 C1480.34,584.584 1468.14,877.691 1462.03,963.194 " fill="none" id="User-to-Notification" style="stroke:#A80036;stroke-width:1.0;"/><polygon fill="#A80036" points="1461.65,968.289,1466.3002,959.6071,1462.0172,963.3025,1458.3218,959.0195,1461.65,968.289" style="stroke:#A80036;stroke-width:1.0;"/><text fill="#000000" font-family="sans-serif" font-size="13" lengthAdjust="spacing" textLength="47" x="1460" y="643.5669">receive</text><!--MD5=[2e2e530a658308b38e0151c4d25adf6b]
link User to Notification--><path codeLine="136" d="M1272.87,222.943 C1313.66,260.649 1370.71,317.298 1412,374 C1446.34,421.156 1502.46,527.024 1516,587 C1534.5,668.916 1495.99,916.215 1491,932 C1487.51,943.032 1481.68,954.337 1476.01,963.841 " fill="none" id="User-to-Notification-1" style="stroke:#A80036;stroke-width:1.0;"/><polygon fill="#A80036" points="1473.25,968.352,1481.3628,962.7679,1475.8623,964.0887,1474.5416,958.5882,1473.25,968.352" style="stroke:#A80036;stroke-width:1.0;"/><text fill="#000000" font-family="sans-serif" font-size="13" lengthAdjust="spacing" textLength="21" x="1522" y="643.5669">get</text><!--MD5=[bf480d92daa0e8cd9b65544ba07b597b]
link User to Idea--><path codeLine="133" d="M1272.55,202.604 C1336.59,235.459 1448,298.385 1526,374 C1540.82,388.37 1553.92,407.752 1562.99,422.86 " fill="none" id="User-to-Idea" style="stroke:#A80036;stroke-width:1.0;"/><polygon fill="#A80036" points="1565.67,427.401,1564.5319,417.6181,1563.1249,423.0972,1557.6458,421.6903,1565.67,427.401" style="stroke:#A80036;stroke-width:1.0;"/><text fill="#000000" font-family="sans-serif" font-size="13" lengthAdjust="spacing" textLength="44" x="1542" y="387.0669">submit</text><!--MD5=[ef96654907a4dde35176b100a35cc06b]
link User to Suggestion--><path codeLine="134" d="M1272.82,196.39 C1360.7,228.765 1546.03,299.59 1696,374 C1727.12,389.443 1761.1,409.551 1785.6,424.673 " fill="none" id="User-to-Suggestion" style="stroke:#A80036;stroke-width:1.0;"/><polygon fill="#A80036" points="1790.07,427.436,1784.5395,419.2865,1785.824,424.7956,1780.3149,426.0801,1790.07,427.436" style="stroke:#A80036;stroke-width:1.0;"/><text fill="#000000" font-family="sans-serif" font-size="13" lengthAdjust="spacing" textLength="27" x="1729" y="387.0669">give</text><!--MD5=[7eb1748cad2ebd41667e979590b4af94]
link Score to Sth--><path codeLine="135" d="M951,1015.267 C951,1036.3301 951,1065.9042 951,1086.5902 " fill="none" id="Score-to-Sth" style="stroke:#A80036;stroke-width:1.0;"/><polygon fill="#A80036" points="951,1091.6472,955,1082.6472,951,1086.6472,947,1082.6472,951,1091.6472" style="stroke:#A80036;stroke-width:1.0;"/><text fill="#000000" font-family="sans-serif" font-size="13" lengthAdjust="spacing" textLength="24" x="952" y="1058.0669">buy</text><!--MD5=[7e3d42a85d9a262d8d54950a2f129287]
link User to Task--><path codeLine="137" d="M1171.44,186.308 C1019.35,212.541 572.362,299.141 505,421 C401.608,608.039 521.437,882.075 561.724,963.712 " fill="none" id="User-to-Task" style="stroke:#A80036;stroke-width:1.0;"/><polygon fill="#A80036" points="564.034,968.36,563.6094,958.5203,561.8082,963.8827,556.4458,962.0815,564.034,968.36" style="stroke:#A80036;stroke-width:1.0;"/><text fill="#000000" font-family="sans-serif" font-size="13" lengthAdjust="spacing" textLength="16" x="473" y="643.5669">do</text><!--MD5=[a654de48d4bf1588b9fb1dcf6440abd6]
link User to Score--><path codeLine="139" d="M1171.5,246.236 C1137.93,298.347 1100,373.411 1100,446.5 C1100,446.5 1100,446.5 1100,827.5 C1100,899.098 1019.11,952.051 976.528,974.964 " fill="none" id="User-to-Score" style="stroke:#A80036;stroke-width:1.0;"/><polygon fill="#A80036" points="972.032,977.349,981.8571,976.6656,976.4491,975.0061,978.1086,969.5982,972.032,977.349" style="stroke:#A80036;stroke-width:1.0;"/><text fill="#000000" font-family="sans-serif" font-size="13" lengthAdjust="spacing" textLength="23" x="1101" y="643.5669">use</text><!--MD5=[3a82763b2cfc67c2c3b288149015b147]
reverse link Competitor to OpponentPost--><path codeLine="140" d="M187.112,897.553 C185.071,903.347 183.319,909.206 182,915 C177.947,932.811 179.447,953.705 181.511,968.475 " fill="none" id="Competitor-backto-OpponentPost" style="stroke:#A80036;stroke-width:1.0;"/><polygon fill="#FFFFFF" points="191.988,885.018,186.085,889.1597,187.6377,896.2017,193.5407,892.0599,191.988,885.018" style="stroke:#A80036;stroke-width:1.0;"/><text fill="#000000" font-family="sans-serif" font-size="13" lengthAdjust="spacing" textLength="37" x="183" y="928.0669">verify</text><!--MD5=[191f0d90fbf56cbf866481df882d4d02]
link IPhoneModel to Game--><path codeLine="143" d="M1184.27,557.323 C1191.33,637.911 1212.93,884.081 1219.84,962.928 " fill="none" id="IPhoneModel-to-Game" style="stroke:#A80036;stroke-width:1.0;"/><polygon fill="#A80036" points="1220.32,968.311,1223.5163,958.9952,1219.882,963.3302,1215.547,959.696,1220.32,968.311" style="stroke:#A80036;stroke-width:1.0;"/><text fill="#000000" font-family="sans-serif" font-size="13" lengthAdjust="spacing" textLength="27" x="1201" y="734.0669">play</text><!--MD5=[91e8d4f35d34fae884e5f732d694685c]
link User to FinishTime--><path codeLine="144" d="M1272.66,191.811 C1379.56,221.421 1635.5,294.787 1844,374 C1885.06,389.6 1930.47,411.048 1961.84,426.566 " fill="none" id="User-to-FinishTime" style="stroke:#A80036;stroke-width:1.0;"/><polygon fill="#A80036" points="1966.37,428.811,1960.0945,421.2204,1961.8936,426.5835,1956.5305,428.3826,1966.37,428.811" style="stroke:#A80036;stroke-width:1.0;"/><text fill="#000000" font-family="sans-serif" font-size="13" lengthAdjust="spacing" textLength="23" x="1885" y="387.0669">see</text><!--MD5=[a052e207da5ffcd1ec67dee0a3ee6b34]
link Challenger to Application--><!--MD5=[86ba7134a810395ad7826dbb05410a55]
link Challenger to Time--><!--MD5=[d8cb366cfb17a9509a2bbff5071e9d51]
@startuml
hide circle
class User<actor> {
	photo
	rank
	challenge
	challengeTask
	friend
	challengeScore
}
class Student<actor> {
	challengerList
}
class Competitor<actor> {
	opponentPost
	post
	challengePost
}
class Task {
}
class Request {
}
class Score {
	buy()
}
class User {
	invite()
	add()
	give()
	see()
	get()
	finish()
	use()
	submit()
	check()
	play()
	send()
	know()
	pick()
	do()
	verify()
	receive()
	go()
}
class Idea {
}
class Competitor {
	verify()
	post()
	view()
}
class Post {
}
class Rank {
}
class Challenge {
	have()
	verify()
}
class Student {
	compete()
	see()
	prepare()
	select()
}
class Day {
}
class Friend {
	participate()
}
class Challenger {
	challenge()
}
class Reward {
}
class Application {
	improve()
}
class Suggestion {
}
class IPhoneModel {
	play()
}
class Game {
}
class OpponentPost {
}
class Photo {
}
class Notification {
}
class Sth {
}
class Time {
	remain()
}
class FinishTime {
}
class Chance {
	click()
}
class Button {
}
class Detail {
}
User - -> Request : send
Friend - -> Challenge : participate
User o- - Rank : see
User o- - Challenge : see
User o- - Challenge : check
Chance - -> Button : click
User - -> Competitor : pick
Student o- - Challenge : see
User - -> Game : play
User o- - Challenge : send
User - -> Detail : get
Request - -> Friend : to
Student - -> Day : see
Challenge o- - Task
User o- - Photo : add
Challenge o- - Post
User o- - Challenge : verify
User o- - Friend : invite
Challenge o- - Request
User o- - Challenge : finish
Challenge o- - Notification
Competitor o- - Post : post
Challenge o- - Game
User - -> Reward : get
User - -> IPhoneModel : use
Challenge o- - Score
Student - -> Competitor : compete
User - -> Notification : receive
User - -> Idea : submit
User - -> Suggestion : give
Score - -> Sth : buy
User - -> Notification : get
User - -> Task : do
Student - -> Competitor : select
User - -> Score : use
Competitor o- - OpponentPost : verify
User - -> Game : see
Competitor o- - Post : view
IPhoneModel - -> Game : play
User - -> FinishTime : see
@enduml

PlantUML version 1.2021.10beta5(Unknown compile time)
(GPL source distribution)
Java Runtime: Java(TM) SE Runtime Environment
JVM: Java HotSpot(TM) 64-Bit Server VM
Default Encoding: UTF-8
Language: en
Country: US
--></g></svg>