<?xml version="1.0" encoding="UTF-8" standalone="no"?><svg xmlns="http://www.w3.org/2000/svg" xmlns:xlink="http://www.w3.org/1999/xlink" contentScriptType="application/ecmascript" contentStyleType="text/css" height="594px" preserveAspectRatio="none" style="width:2474px;height:594px;background:#FFFFFF;" version="1.1" viewBox="0 0 2474 594" width="2474px" zoomAndPan="magnify"><defs><filter height="300%" id="f1mdocndqccqya" width="300%" x="-1" y="-1"><feGaussianBlur result="blurOut" stdDeviation="2.0"/><feColorMatrix in="blurOut" result="blurOut2" type="matrix" values="0 0 0 0 0 0 0 0 0 0 0 0 0 0 0 0 0 0 .4 0"/><feOffset dx="4.0" dy="4.0" in="blurOut2" result="blurOut3"/><feBlend in="SourceGraphic" in2="blurOut3" mode="normal"/></filter></defs><g><!--MD5=[3fd616f346a44cd59a91eb10b19e157c]
class User--><rect codeLine="72" fill="#FEFECE" filter="url(#f1mdocndqccqya)" height="103.9922" id="User" style="stroke:#A80036;stroke-width:1.5;" width="76" x="522.5" y="230"/><text fill="#000000" font-family="sans-serif" font-size="12" lengthAdjust="spacing" textLength="29" x="528.5" y="246.1387">User</text><rect fill="#FFFFFF" height="15.9688" style="stroke:#000000;stroke-width:1.0;stroke-dasharray:2.0,2.0;" width="33" x="568.5" y="227"/><text fill="#000000" font-family="sans-serif" font-size="12" font-style="italic" lengthAdjust="spacing" textLength="31" x="569.5" y="239.1387">actor</text><line style="stroke:#A80036;stroke-width:1.5;" x1="523.5" x2="597.5" y1="253.9688" y2="253.9688"/><text fill="#000000" font-family="sans-serif" font-size="11" lengthAdjust="spacing" textLength="52" x="528.5" y="268.1792">swimmer</text><text fill="#000000" font-family="sans-serif" font-size="11" lengthAdjust="spacing" textLength="64" x="528.5" y="280.9839">information</text><text fill="#000000" font-family="sans-serif" font-size="11" lengthAdjust="spacing" textLength="16" x="528.5" y="293.7886">kid</text><line style="stroke:#A80036;stroke-width:1.5;" x1="523.5" x2="597.5" y1="300.3828" y2="300.3828"/><text fill="#000000" font-family="sans-serif" font-size="11" lengthAdjust="spacing" textLength="30" x="528.5" y="314.5933">see()</text><text fill="#000000" font-family="sans-serif" font-size="11" lengthAdjust="spacing" textLength="48" x="528.5" y="327.3979">expect()</text><!--MD5=[fd8f06804651a767af6d5ee4693cdfe7]
class Coach--><rect codeLine="56" fill="#FEFECE" filter="url(#f1mdocndqccqya)" height="129.6016" id="Coach" style="stroke:#A80036;stroke-width:1.5;" width="78" x="860.5" y="10"/><text fill="#000000" font-family="sans-serif" font-size="12" lengthAdjust="spacing" textLength="37" x="863.5" y="26.1387">Coach</text><rect fill="#FFFFFF" height="15.9688" style="stroke:#000000;stroke-width:1.0;stroke-dasharray:2.0,2.0;" width="33" x="908.5" y="7"/><text fill="#000000" font-family="sans-serif" font-size="12" font-style="italic" lengthAdjust="spacing" textLength="31" x="909.5" y="19.1387">actor</text><line style="stroke:#A80036;stroke-width:1.5;" x1="861.5" x2="937.5" y1="33.9688" y2="33.9688"/><line style="stroke:#A80036;stroke-width:1.5;" x1="861.5" x2="937.5" y1="41.9688" y2="41.9688"/><text fill="#000000" font-family="sans-serif" font-size="11" lengthAdjust="spacing" textLength="62" x="866.5" y="56.1792">overwrite()</text><text fill="#000000" font-family="sans-serif" font-size="11" lengthAdjust="spacing" textLength="30" x="866.5" y="68.9839">edit()</text><text fill="#000000" font-family="sans-serif" font-size="11" lengthAdjust="spacing" textLength="48" x="866.5" y="81.7886">extract()</text><text fill="#000000" font-family="sans-serif" font-size="11" lengthAdjust="spacing" textLength="47" x="866.5" y="94.5933">review()</text><text fill="#000000" font-family="sans-serif" font-size="11" lengthAdjust="spacing" textLength="61" x="866.5" y="107.3979">generate()</text><text fill="#000000" font-family="sans-serif" font-size="11" lengthAdjust="spacing" textLength="47" x="866.5" y="120.2026">modify()</text><text fill="#000000" font-family="sans-serif" font-size="11" lengthAdjust="spacing" textLength="48" x="866.5" y="133.0073">expect()</text><!--MD5=[d342058c8fb6f80e9d50d673c6908241]
class Developer--><rect codeLine="65" fill="#FEFECE" filter="url(#f1mdocndqccqya)" height="52.7734" id="Developer" style="stroke:#A80036;stroke-width:1.5;" width="105" x="1488" y="255.5"/><text fill="#000000" font-family="sans-serif" font-size="12" lengthAdjust="spacing" textLength="64" x="1491" y="271.6387">Developer</text><rect fill="#FFFFFF" height="15.9688" style="stroke:#000000;stroke-width:1.0;stroke-dasharray:2.0,2.0;" width="33" x="1563" y="252.5"/><text fill="#000000" font-family="sans-serif" font-size="12" font-style="italic" lengthAdjust="spacing" textLength="31" x="1564" y="264.6387">actor</text><line style="stroke:#A80036;stroke-width:1.5;" x1="1489" x2="1592" y1="279.4688" y2="279.4688"/><line style="stroke:#A80036;stroke-width:1.5;" x1="1489" x2="1592" y1="287.4688" y2="287.4688"/><text fill="#000000" font-family="sans-serif" font-size="11" lengthAdjust="spacing" textLength="37" x="1494" y="301.6792">have()</text><!--MD5=[cf9bc73d4b319b8f5d50999aecc13d13]
class Parent--><rect codeLine="43" fill="#FEFECE" filter="url(#f1mdocndqccqya)" height="129.6016" id="Parent" style="stroke:#A80036;stroke-width:1.5;" width="78" x="215.5" y="217"/><text fill="#000000" font-family="sans-serif" font-size="12" lengthAdjust="spacing" textLength="37" x="218.5" y="233.1387">Parent</text><rect fill="#FFFFFF" height="15.9688" style="stroke:#000000;stroke-width:1.0;stroke-dasharray:2.0,2.0;" width="33" x="263.5" y="214"/><text fill="#000000" font-family="sans-serif" font-size="12" font-style="italic" lengthAdjust="spacing" textLength="31" x="264.5" y="226.1387">actor</text><line style="stroke:#A80036;stroke-width:1.5;" x1="216.5" x2="292.5" y1="240.9688" y2="240.9688"/><text fill="#000000" font-family="sans-serif" font-size="11" lengthAdjust="spacing" textLength="44" x="221.5" y="255.1792">account</text><text fill="#000000" font-family="sans-serif" font-size="11" lengthAdjust="spacing" textLength="16" x="221.5" y="267.9839">kid</text><line style="stroke:#A80036;stroke-width:1.5;" x1="216.5" x2="292.5" y1="274.5781" y2="274.5781"/><text fill="#000000" font-family="sans-serif" font-size="11" lengthAdjust="spacing" textLength="30" x="221.5" y="288.7886">edit()</text><text fill="#000000" font-family="sans-serif" font-size="11" lengthAdjust="spacing" textLength="31" x="221.5" y="301.5933">sign()</text><text fill="#000000" font-family="sans-serif" font-size="11" lengthAdjust="spacing" textLength="30" x="221.5" y="314.3979">see()</text><text fill="#000000" font-family="sans-serif" font-size="11" lengthAdjust="spacing" textLength="35" x="221.5" y="327.2026">view()</text><text fill="#000000" font-family="sans-serif" font-size="11" lengthAdjust="spacing" textLength="35" x="221.5" y="340.0073">login()</text><!--MD5=[c3ac0beb173c135b247cb6ed26f9fd5b]
class Treasurer--><rect codeLine="78" fill="#FEFECE" filter="url(#f1mdocndqccqya)" height="52.7734" id="Treasurer" style="stroke:#A80036;stroke-width:1.5;" width="100" x="2063.5" y="48.5"/><text fill="#000000" font-family="sans-serif" font-size="12" lengthAdjust="spacing" textLength="59" x="2066.5" y="64.6387">Treasurer</text><rect fill="#FFFFFF" height="15.9688" style="stroke:#000000;stroke-width:1.0;stroke-dasharray:2.0,2.0;" width="33" x="2133.5" y="45.5"/><text fill="#000000" font-family="sans-serif" font-size="12" font-style="italic" lengthAdjust="spacing" textLength="31" x="2134.5" y="57.6387">actor</text><line style="stroke:#A80036;stroke-width:1.5;" x1="2064.5" x2="2162.5" y1="72.4688" y2="72.4688"/><line style="stroke:#A80036;stroke-width:1.5;" x1="2064.5" x2="2162.5" y1="80.4688" y2="80.4688"/><text fill="#000000" font-family="sans-serif" font-size="11" lengthAdjust="spacing" textLength="30" x="2069.5" y="94.6792">see()</text><!--MD5=[15c6922f6693225acd2805a9f7199676]
class Maintainer--><rect codeLine="32" fill="#FEFECE" filter="url(#f1mdocndqccqya)" height="116.7969" id="Maintainer" style="stroke:#A80036;stroke-width:1.5;" width="102" x="1792.5" y="223.5"/><text fill="#000000" font-family="sans-serif" font-size="12" lengthAdjust="spacing" textLength="61" x="1795.5" y="239.6387">Maintainer</text><rect fill="#FFFFFF" height="15.9688" style="stroke:#000000;stroke-width:1.0;stroke-dasharray:2.0,2.0;" width="33" x="1864.5" y="220.5"/><text fill="#000000" font-family="sans-serif" font-size="12" font-style="italic" lengthAdjust="spacing" textLength="31" x="1865.5" y="232.6387">actor</text><line style="stroke:#A80036;stroke-width:1.5;" x1="1793.5" x2="1893.5" y1="247.4688" y2="247.4688"/><line style="stroke:#A80036;stroke-width:1.5;" x1="1793.5" x2="1893.5" y1="255.4688" y2="255.4688"/><text fill="#000000" font-family="sans-serif" font-size="11" lengthAdjust="spacing" textLength="30" x="1798.5" y="269.6792">see()</text><text fill="#000000" font-family="sans-serif" font-size="11" lengthAdjust="spacing" textLength="37" x="1798.5" y="282.4839">have()</text><text fill="#000000" font-family="sans-serif" font-size="11" lengthAdjust="spacing" textLength="47" x="1798.5" y="295.2886">modify()</text><text fill="#000000" font-family="sans-serif" font-size="11" lengthAdjust="spacing" textLength="40" x="1798.5" y="308.0933">insert()</text><text fill="#000000" font-family="sans-serif" font-size="11" lengthAdjust="spacing" textLength="46" x="1798.5" y="320.8979">delete()</text><text fill="#000000" font-family="sans-serif" font-size="11" lengthAdjust="spacing" textLength="47" x="1798.5" y="333.7026">access()</text><!--MD5=[4741ae9b66e8c8909830097dcbdef570]
class Head--><rect codeLine="19" fill="#FEFECE" filter="url(#f1mdocndqccqya)" height="39.9688" id="Head" style="stroke:#A80036;stroke-width:1.5;" width="73" x="2199" y="55"/><text fill="#000000" font-family="sans-serif" font-size="12" lengthAdjust="spacing" textLength="32" x="2202" y="71.1387">Head</text><rect fill="#FFFFFF" height="15.9688" style="stroke:#000000;stroke-width:1.0;stroke-dasharray:2.0,2.0;" width="33" x="2242" y="52"/><text fill="#000000" font-family="sans-serif" font-size="12" font-style="italic" lengthAdjust="spacing" textLength="31" x="2243" y="64.1387">actor</text><line style="stroke:#A80036;stroke-width:1.5;" x1="2200" x2="2271" y1="78.9688" y2="78.9688"/><line style="stroke:#A80036;stroke-width:1.5;" x1="2200" x2="2271" y1="86.9688" y2="86.9688"/><!--MD5=[3ec2cd5dff9098f19300dc116133bc22]
class Kid--><rect codeLine="21" fill="#FEFECE" filter="url(#f1mdocndqccqya)" height="78.3828" id="Kid" style="stroke:#A80036;stroke-width:1.5;" width="56" x="2307.5" y="36"/><text fill="#000000" font-family="sans-serif" font-size="12" lengthAdjust="spacing" textLength="19" x="2326" y="52.1387">Kid</text><line style="stroke:#A80036;stroke-width:1.5;" x1="2308.5" x2="2362.5" y1="59.9688" y2="59.9688"/><text fill="#000000" font-family="sans-serif" font-size="11" lengthAdjust="spacing" textLength="44" x="2313.5" y="74.1792">account</text><line style="stroke:#A80036;stroke-width:1.5;" x1="2308.5" x2="2362.5" y1="80.7734" y2="80.7734"/><text fill="#000000" font-family="sans-serif" font-size="11" lengthAdjust="spacing" textLength="31" x="2313.5" y="94.9839">sign()</text><text fill="#000000" font-family="sans-serif" font-size="11" lengthAdjust="spacing" textLength="32" x="2313.5" y="107.7886">post()</text><!--MD5=[104166f47aa431428e733414bdee001c]
class Pdf--><rect codeLine="26" fill="#FEFECE" filter="url(#f1mdocndqccqya)" height="39.9688" id="Pdf" style="stroke:#A80036;stroke-width:1.5;" width="24" x="1401.5" y="55"/><text fill="#000000" font-family="sans-serif" font-size="12" lengthAdjust="spacing" textLength="18" x="1404.5" y="71.1387">Pdf</text><line style="stroke:#A80036;stroke-width:1.5;" x1="1402.5" x2="1424.5" y1="78.9688" y2="78.9688"/><line style="stroke:#A80036;stroke-width:1.5;" x1="1402.5" x2="1424.5" y1="86.9688" y2="86.9688"/><!--MD5=[f00dbe8c0302c6aec2cb26b3c659c8fc]
class Report--><rect codeLine="28" fill="#FEFECE" filter="url(#f1mdocndqccqya)" height="39.9688" id="Report" style="stroke:#A80036;stroke-width:1.5;" width="46" x="1335.5" y="262"/><text fill="#000000" font-family="sans-serif" font-size="12" lengthAdjust="spacing" textLength="40" x="1338.5" y="278.1387">Report</text><line style="stroke:#A80036;stroke-width:1.5;" x1="1336.5" x2="1380.5" y1="285.9688" y2="285.9688"/><line style="stroke:#A80036;stroke-width:1.5;" x1="1336.5" x2="1380.5" y1="293.9688" y2="293.9688"/><!--MD5=[028fba31e0312914fa4880b63f0540b8]
class Detail--><rect codeLine="30" fill="#FEFECE" filter="url(#f1mdocndqccqya)" height="39.9688" id="Detail" style="stroke:#A80036;stroke-width:1.5;" width="40" x="2091.5" y="424"/><text fill="#000000" font-family="sans-serif" font-size="12" lengthAdjust="spacing" textLength="34" x="2094.5" y="440.1387">Detail</text><line style="stroke:#A80036;stroke-width:1.5;" x1="2092.5" x2="2130.5" y1="447.9688" y2="447.9688"/><line style="stroke:#A80036;stroke-width:1.5;" x1="2092.5" x2="2130.5" y1="455.9688" y2="455.9688"/><!--MD5=[2770d511fa22a6a61bb54ccdb4cbf396]
class Amount--><rect codeLine="40" fill="#FEFECE" filter="url(#f1mdocndqccqya)" height="52.7734" id="Amount" style="stroke:#A80036;stroke-width:1.5;" width="57" x="2085" y="255.5"/><text fill="#000000" font-family="sans-serif" font-size="12" lengthAdjust="spacing" textLength="45" x="2091" y="271.6387">Amount</text><line style="stroke:#A80036;stroke-width:1.5;" x1="2086" x2="2141" y1="279.4688" y2="279.4688"/><line style="stroke:#A80036;stroke-width:1.5;" x1="2086" x2="2141" y1="287.4688" y2="287.4688"/><text fill="#000000" font-family="sans-serif" font-size="11" lengthAdjust="spacing" textLength="45" x="2091" y="301.6792">collect()</text><!--MD5=[ac13618b1a974308c1f12eb6c57723dc]
class Event--><rect codeLine="50" fill="#FEFECE" filter="url(#f1mdocndqccqya)" height="39.9688" id="Event" style="stroke:#A80036;stroke-width:1.5;" width="39" x="378" y="424"/><text fill="#000000" font-family="sans-serif" font-size="12" lengthAdjust="spacing" textLength="33" x="381" y="440.1387">Event</text><line style="stroke:#A80036;stroke-width:1.5;" x1="379" x2="416" y1="447.9688" y2="447.9688"/><line style="stroke:#A80036;stroke-width:1.5;" x1="379" x2="416" y1="455.9688" y2="455.9688"/><!--MD5=[007886e900a243ece686dc981ec5213f]
class Deadline--><rect codeLine="52" fill="#FEFECE" filter="url(#f1mdocndqccqya)" height="39.9688" id="Deadline" style="stroke:#A80036;stroke-width:1.5;" width="59" x="2306" y="262"/><text fill="#000000" font-family="sans-serif" font-size="12" lengthAdjust="spacing" textLength="53" x="2309" y="278.1387">Deadline</text><line style="stroke:#A80036;stroke-width:1.5;" x1="2307" x2="2364" y1="285.9688" y2="285.9688"/><line style="stroke:#A80036;stroke-width:1.5;" x1="2307" x2="2364" y1="293.9688" y2="293.9688"/><!--MD5=[ed3afe56f065d25b4329669e73deaf58]
class Database--><rect codeLine="54" fill="#FEFECE" filter="url(#f1mdocndqccqya)" height="39.9688" id="Database" style="stroke:#A80036;stroke-width:1.5;" width="63" x="1756" y="541"/><text fill="#000000" font-family="sans-serif" font-size="12" lengthAdjust="spacing" textLength="57" x="1759" y="557.1387">Database</text><line style="stroke:#A80036;stroke-width:1.5;" x1="1757" x2="1818" y1="564.9688" y2="564.9688"/><line style="stroke:#A80036;stroke-width:1.5;" x1="1757" x2="1818" y1="572.9688" y2="572.9688"/><!--MD5=[dab16d122782a892ddb6ee0eadcd68f0]
class Access--><rect codeLine="68" fill="#FEFECE" filter="url(#f1mdocndqccqya)" height="39.9688" id="Access" style="stroke:#A80036;stroke-width:1.5;" width="50" x="1551.5" y="424"/><text fill="#000000" font-family="sans-serif" font-size="12" lengthAdjust="spacing" textLength="44" x="1554.5" y="440.1387">Access</text><line style="stroke:#A80036;stroke-width:1.5;" x1="1552.5" x2="1600.5" y1="447.9688" y2="447.9688"/><line style="stroke:#A80036;stroke-width:1.5;" x1="1552.5" x2="1600.5" y1="455.9688" y2="455.9688"/><!--MD5=[17c90f3db3a6d0dcb3017decb56e93df]
class CSVFile--><rect codeLine="70" fill="#FEFECE" filter="url(#f1mdocndqccqya)" height="39.9688" id="CSVFile" style="stroke:#A80036;stroke-width:1.5;" width="51" x="436" y="262"/><text fill="#000000" font-family="sans-serif" font-size="12" lengthAdjust="spacing" textLength="45" x="439" y="278.1387">CSVFile</text><line style="stroke:#A80036;stroke-width:1.5;" x1="437" x2="486" y1="285.9688" y2="285.9688"/><line style="stroke:#A80036;stroke-width:1.5;" x1="437" x2="486" y1="293.9688" y2="293.9688"/><!--MD5=[30fd7b95ab383a5e7c83ea23d4ea0fbf]
class Information--><rect codeLine="76" fill="#FEFECE" filter="url(#f1mdocndqccqya)" height="39.9688" id="Information" style="stroke:#A80036;stroke-width:1.5;" width="73" x="924" y="424"/><text fill="#000000" font-family="sans-serif" font-size="12" lengthAdjust="spacing" textLength="67" x="927" y="440.1387">Information</text><line style="stroke:#A80036;stroke-width:1.5;" x1="925" x2="996" y1="447.9688" y2="447.9688"/><line style="stroke:#A80036;stroke-width:1.5;" x1="925" x2="996" y1="455.9688" y2="455.9688"/><!--MD5=[83d119058829b29a891015d9970ea593]
class Something--><rect codeLine="81" fill="#FEFECE" filter="url(#f1mdocndqccqya)" height="39.9688" id="Something" style="stroke:#A80036;stroke-width:1.5;" width="70" x="748.5" y="262"/><text fill="#000000" font-family="sans-serif" font-size="12" lengthAdjust="spacing" textLength="64" x="751.5" y="278.1387">Something</text><line style="stroke:#A80036;stroke-width:1.5;" x1="749.5" x2="817.5" y1="285.9688" y2="285.9688"/><line style="stroke:#A80036;stroke-width:1.5;" x1="749.5" x2="817.5" y1="293.9688" y2="293.9688"/><!--MD5=[fe9e4bf3c3890c470165de9d5ecb172d]
class Signup--><rect codeLine="83" fill="#FEFECE" filter="url(#f1mdocndqccqya)" height="52.7734" id="Signup" style="stroke:#A80036;stroke-width:1.5;" width="50" x="853.5" y="255.5"/><text fill="#000000" font-family="sans-serif" font-size="12" lengthAdjust="spacing" textLength="41" x="858" y="271.6387">Signup</text><line style="stroke:#A80036;stroke-width:1.5;" x1="854.5" x2="902.5" y1="279.4688" y2="279.4688"/><line style="stroke:#A80036;stroke-width:1.5;" x1="854.5" x2="902.5" y1="287.4688" y2="287.4688"/><text fill="#000000" font-family="sans-serif" font-size="11" lengthAdjust="spacing" textLength="38" x="859.5" y="301.6792">close()</text><!--MD5=[7199abd8bdeaafc59146fcd5ddebdbba]
class PayeeInformation--><rect codeLine="86" fill="#FEFECE" filter="url(#f1mdocndqccqya)" height="39.9688" id="PayeeInformation" style="stroke:#A80036;stroke-width:1.5;" width="109" x="7" y="424"/><text fill="#000000" font-family="sans-serif" font-size="12" lengthAdjust="spacing" textLength="103" x="10" y="440.1387">PayeeInformation</text><line style="stroke:#A80036;stroke-width:1.5;" x1="8" x2="115" y1="447.9688" y2="447.9688"/><line style="stroke:#A80036;stroke-width:1.5;" x1="8" x2="115" y1="455.9688" y2="455.9688"/><!--MD5=[e2e9c2d6464ab1040ab91da7e0e2efc9]
class Swimmer--><rect codeLine="88" fill="#FEFECE" filter="url(#f1mdocndqccqya)" height="52.7734" id="Swimmer" style="stroke:#A80036;stroke-width:1.5;" width="62" x="2398.5" y="48.5"/><text fill="#000000" font-family="sans-serif" font-size="12" lengthAdjust="spacing" textLength="56" x="2401.5" y="64.6387">Swimmer</text><line style="stroke:#A80036;stroke-width:1.5;" x1="2399.5" x2="2459.5" y1="72.4688" y2="72.4688"/><line style="stroke:#A80036;stroke-width:1.5;" x1="2399.5" x2="2459.5" y1="80.4688" y2="80.4688"/><text fill="#000000" font-family="sans-serif" font-size="11" lengthAdjust="spacing" textLength="31" x="2404.5" y="94.6792">sign()</text><!--MD5=[2741598bdf59a7d7e0d5c97658fd3022]
class Result--><rect codeLine="91" fill="#FEFECE" filter="url(#f1mdocndqccqya)" height="39.9688" id="Result" style="stroke:#A80036;stroke-width:1.5;" width="42" x="954.5" y="262"/><text fill="#000000" font-family="sans-serif" font-size="12" lengthAdjust="spacing" textLength="36" x="957.5" y="278.1387">Result</text><line style="stroke:#A80036;stroke-width:1.5;" x1="955.5" x2="995.5" y1="285.9688" y2="285.9688"/><line style="stroke:#A80036;stroke-width:1.5;" x1="955.5" x2="995.5" y1="293.9688" y2="293.9688"/><!--MD5=[b07065dfc0d0e09965ec10bfc328bb3e]
class Option--><rect codeLine="93" fill="#FEFECE" filter="url(#f1mdocndqccqya)" height="39.9688" id="Option" style="stroke:#A80036;stroke-width:1.5;" width="46" x="511.5" y="424"/><text fill="#000000" font-family="sans-serif" font-size="12" lengthAdjust="spacing" textLength="40" x="514.5" y="440.1387">Option</text><line style="stroke:#A80036;stroke-width:1.5;" x1="512.5" x2="556.5" y1="447.9688" y2="447.9688"/><line style="stroke:#A80036;stroke-width:1.5;" x1="512.5" x2="556.5" y1="455.9688" y2="455.9688"/><!--MD5=[bbae0660d3f764e0c1bcc4df40d1fa0c]
class UploadEvent--><rect codeLine="95" fill="#FEFECE" filter="url(#f1mdocndqccqya)" height="39.9688" id="UploadEvent" style="stroke:#A80036;stroke-width:1.5;" width="82" x="1039.5" y="262"/><text fill="#000000" font-family="sans-serif" font-size="12" lengthAdjust="spacing" textLength="76" x="1042.5" y="278.1387">UploadEvent</text><line style="stroke:#A80036;stroke-width:1.5;" x1="1040.5" x2="1120.5" y1="285.9688" y2="285.9688"/><line style="stroke:#A80036;stroke-width:1.5;" x1="1040.5" x2="1120.5" y1="293.9688" y2="293.9688"/><!--MD5=[3d4177ac58b4411586d067f34e84928f]
class List--><rect codeLine="97" fill="#FEFECE" filter="url(#f1mdocndqccqya)" height="39.9688" id="List" style="stroke:#A80036;stroke-width:1.5;" width="26" x="1156.5" y="262"/><text fill="#000000" font-family="sans-serif" font-size="12" lengthAdjust="spacing" textLength="20" x="1159.5" y="278.1387">List</text><line style="stroke:#A80036;stroke-width:1.5;" x1="1157.5" x2="1181.5" y1="285.9688" y2="285.9688"/><line style="stroke:#A80036;stroke-width:1.5;" x1="1157.5" x2="1181.5" y1="293.9688" y2="293.9688"/><!--MD5=[dd430f8ffb90486aebcb09d1b4424d44]
class SourceCode--><rect codeLine="99" fill="#FEFECE" filter="url(#f1mdocndqccqya)" height="39.9688" id="SourceCode" style="stroke:#A80036;stroke-width:1.5;" width="81" x="1536" y="541"/><text fill="#000000" font-family="sans-serif" font-size="12" lengthAdjust="spacing" textLength="75" x="1539" y="557.1387">SourceCode</text><line style="stroke:#A80036;stroke-width:1.5;" x1="1537" x2="1616" y1="564.9688" y2="564.9688"/><line style="stroke:#A80036;stroke-width:1.5;" x1="1537" x2="1616" y1="572.9688" y2="572.9688"/><!--MD5=[c1d5b66b75d9f9155c77100190525e5e]
class RegistrationKey--><rect codeLine="101" fill="#FEFECE" filter="url(#f1mdocndqccqya)" height="39.9688" id="RegistrationKey" style="stroke:#A80036;stroke-width:1.5;" width="100" x="151.5" y="424"/><text fill="#000000" font-family="sans-serif" font-size="12" lengthAdjust="spacing" textLength="94" x="154.5" y="440.1387">RegistrationKey</text><line style="stroke:#A80036;stroke-width:1.5;" x1="152.5" x2="250.5" y1="447.9688" y2="447.9688"/><line style="stroke:#A80036;stroke-width:1.5;" x1="152.5" x2="250.5" y1="455.9688" y2="455.9688"/><!--MD5=[2470d439e336eeeed736cf589393d082]
class Documentation--><rect codeLine="103" fill="#FEFECE" filter="url(#f1mdocndqccqya)" height="39.9688" id="Documentation" style="stroke:#A80036;stroke-width:1.5;" width="96" x="1404.5" y="541"/><text fill="#000000" font-family="sans-serif" font-size="12" lengthAdjust="spacing" textLength="90" x="1407.5" y="557.1387">Documentation</text><line style="stroke:#A80036;stroke-width:1.5;" x1="1405.5" x2="1499.5" y1="564.9688" y2="564.9688"/><line style="stroke:#A80036;stroke-width:1.5;" x1="1405.5" x2="1499.5" y1="572.9688" y2="572.9688"/><!--MD5=[ef8902237974c6412685fef6c4f6d564]
link Coach to UploadEvent--><path codeLine="105" d="M938.686,99.118 C965.125,116.179 999.446,141.342 1023.5,170 C1045.73,196.49 1062.4,233.108 1071.8,256.92 " fill="none" id="Coach-to-UploadEvent" style="stroke:#A80036;stroke-width:1.0;"/><polygon fill="#A80036" points="1073.7,261.799,1074.168,251.9613,1071.8887,257.1386,1066.7114,254.8593,1073.7,261.799" style="stroke:#A80036;stroke-width:1.0;"/><text fill="#000000" font-family="sans-serif" font-size="13" lengthAdjust="spacing" textLength="46" x="1037.5" y="183.0669">extract</text><!--MD5=[7ad539e097214a1b341b38a5573035d8]
link Parent to Event--><path codeLine="106" d="M291.473,347.087 C302.322,363.293 314.948,380.042 328.5,394 C341.856,407.756 359.526,420.221 373.64,429.136 " fill="none" id="Parent-to-Event" style="stroke:#A80036;stroke-width:1.0;"/><polygon fill="#A80036" points="377.898,431.786,372.3724,423.6332,373.6536,429.1431,368.1437,430.4242,377.898,431.786" style="stroke:#A80036;stroke-width:1.0;"/><text fill="#000000" font-family="sans-serif" font-size="13" lengthAdjust="spacing" textLength="24" x="329.5" y="390.0669">edit</text><!--MD5=[7ad539e097214a1b341b38a5573035d8]
link Parent to Event--><path codeLine="123" d="M293.712,313.558 C314.415,330.84 339.412,353.625 358.5,377 C369.071,389.946 378.656,406.072 385.678,419.144 " fill="none" id="Parent-to-Event-1" style="stroke:#A80036;stroke-width:1.0;"/><polygon fill="#A80036" points="388.146,423.81,387.4751,413.984,385.8088,419.3899,380.4029,417.7235,388.146,423.81" style="stroke:#A80036;stroke-width:1.0;"/><text fill="#000000" font-family="sans-serif" font-size="13" lengthAdjust="spacing" textLength="30" x="372.5" y="390.0669">view</text><!--MD5=[70528e57268fa72302a83420812e0ce2]
link Coach to Information--><path codeLine="107" d="M860.357,87.562 C808.144,105.454 718.46,145.478 685.5,217 C661.318,269.474 652.048,299.891 685.5,347 C738.895,422.194 855.777,438.973 918.593,442.405 " fill="none" id="Coach-to-Information" style="stroke:#A80036;stroke-width:1.0;"/><polygon fill="#A80036" points="923.76,442.663,914.9712,438.2181,918.7663,442.413,914.5713,446.208,923.76,442.663" style="stroke:#A80036;stroke-width:1.0;"/><text fill="#000000" font-family="sans-serif" font-size="13" lengthAdjust="spacing" textLength="43" x="686.5" y="286.5669">review</text><!--MD5=[70528e57268fa72302a83420812e0ce2]
link Coach to Information--><path codeLine="134" d="M938.518,79.16 C1009.09,87.346 1154.77,116.279 1199.5,217 C1222.95,269.805 1231.86,299.133 1199.5,347 C1155.35,412.315 1058.65,433.199 1002.722,439.871 " fill="none" id="Coach-to-Information-1" style="stroke:#A80036;stroke-width:1.0;"/><polygon fill="#A80036" points="997.441,440.474,1006.8366,443.4275,1002.4087,439.907,1005.9293,435.4791,997.441,440.474" style="stroke:#A80036;stroke-width:1.0;"/><text fill="#000000" font-family="sans-serif" font-size="13" lengthAdjust="spacing" textLength="46" x="1222.5" y="286.5669">extract</text><!--MD5=[68b727e90dc450bd3703a6c2977b7229]
link Coach to List--><path codeLine="108" d="M938.646,90.431 C979.247,106.426 1043.53,134.689 1092.5,170 C1116.21,187.094 1121.69,193.091 1138.5,217 C1147.21,229.393 1154.7,244.61 1160.13,257.096 " fill="none" id="Coach-to-List" style="stroke:#A80036;stroke-width:1.0;"/><polygon fill="#A80036" points="1162.18,261.911,1162.3294,252.0633,1160.2189,257.3117,1154.9705,255.2011,1162.18,261.911" style="stroke:#A80036;stroke-width:1.0;"/><text fill="#000000" font-family="sans-serif" font-size="13" lengthAdjust="spacing" textLength="24" x="1114.5" y="183.0669">edit</text><!--MD5=[e7e307efb6759edae2f8b445f58375f5]
link Access to SourceCode--><path codeLine="109" d="M1575.54,464.076 C1575.13,473.139 1574.7,484.1258 1574.5,494 C1574.22,507.8394 1574.65,523.3071 1575.18,535.788 " fill="none" id="Access-to-SourceCode" style="stroke:#A80036;stroke-width:1.0;"/><polygon fill="#A80036" points="1575.41,540.9406,1578.9991,531.769,1575.184,535.9457,1571.0073,532.1306,1575.41,540.9406" style="stroke:#A80036;stroke-width:1.0;"/><text fill="#000000" font-family="sans-serif" font-size="13" lengthAdjust="spacing" textLength="13" x="1575.5" y="507.0669">to</text><!--MD5=[022ef1b79267921c3fabef61ab19b494]
link Kid to Deadline--><path codeLine="110" d="M2335.5,114.078 C2335.5,155.734 2335.5,221.262 2335.5,256.549 " fill="none" id="Kid-to-Deadline" style="stroke:#A80036;stroke-width:1.0;"/><polygon fill="#A80036" points="2335.5,261.945,2339.5,252.945,2335.5,256.945,2331.5,252.945,2335.5,261.945" style="stroke:#A80036;stroke-width:1.0;"/><text fill="#000000" font-family="sans-serif" font-size="13" lengthAdjust="spacing" textLength="28" x="2336.5" y="183.0669">post</text><!--MD5=[48aa2310ddd8461e4146c9f6ce0dc0f9]
link Parent to RegistrationKey--><path codeLine="111" d="M215.49,337.428 C208.484,349.875 202.231,363.447 198.5,377 C194.797,390.45 195.29,406.017 196.827,418.654 " fill="none" id="Parent-to-RegistrationKey" style="stroke:#A80036;stroke-width:1.0;"/><polygon fill="#A80036" points="197.541,423.876,200.2854,414.4172,196.8639,418.9221,192.3591,415.5006,197.541,423.876" style="stroke:#A80036;stroke-width:1.0;"/><text fill="#000000" font-family="sans-serif" font-size="13" lengthAdjust="spacing" textLength="88" x="199.5" y="390.0669">supported_by</text><!--MD5=[b9edcce955a9b6d76b95eb1ba2520770]
link Maintainer to Database--><path codeLine="112" d="M1792.22,316.261 C1758.61,341.334 1717.49,379.04 1698.5,424 C1680.22,467.285 1723.38,511.8032 1755.78,537.635 " fill="none" id="Maintainer-to-Database" style="stroke:#A80036;stroke-width:1.0;"/><polygon fill="#A80036" points="1760.07,540.9996,1755.4557,532.2986,1756.1353,537.9145,1750.5194,538.5941,1760.07,540.9996" style="stroke:#A80036;stroke-width:1.0;"/><text fill="#000000" font-family="sans-serif" font-size="13" lengthAdjust="spacing" textLength="44" x="1699.5" y="448.5669">access</text><!--MD5=[b9edcce955a9b6d76b95eb1ba2520770]
link Maintainer to Database--><path codeLine="114" d="M1894.51,335.629 C1905.56,348.553 1916.59,362.778 1925.5,377 C1946.57,410.619 1953.43,425.125 1945.5,464 C1940.96,486.2437 1942.04,495.4457 1925.5,511 C1897.67,537.1823 1854.95,549.5112 1824.41,555.2285 " fill="none" id="Maintainer-to-Database-1" style="stroke:#A80036;stroke-width:1.0;"/><polygon fill="#A80036" points="1819.24,556.1558,1828.8062,558.4984,1824.1609,555.2702,1827.3892,550.6249,1819.24,556.1558" style="stroke:#A80036;stroke-width:1.0;"/><text fill="#000000" font-family="sans-serif" font-size="13" lengthAdjust="spacing" textLength="45" x="1950.5" y="448.5669">modify</text><!--MD5=[b9edcce955a9b6d76b95eb1ba2520770]
link Maintainer to Database--><path codeLine="120" d="M1831.56,340.607 C1826.29,366.146 1820.04,396.564 1814.5,424 C1806.63,462.932 1797.69,508.1751 1792.33,535.4211 " fill="none" id="Maintainer-to-Database-2" style="stroke:#A80036;stroke-width:1.0;"/><polygon fill="#A80036" points="1791.3,540.6231,1796.9599,532.563,1792.2638,535.7169,1789.1099,531.0208,1791.3,540.6231" style="stroke:#A80036;stroke-width:1.0;"/><text fill="#000000" font-family="sans-serif" font-size="13" lengthAdjust="spacing" textLength="40" x="1815.5" y="448.5669">delete</text><!--MD5=[b9edcce955a9b6d76b95eb1ba2520770]
link Maintainer to Database--><path codeLine="131" d="M1860.65,340.605 C1868.6,376.856 1873.71,424.154 1860.5,464 C1851.13,492.2703 1829.64,518.7627 1812.38,536.7251 " fill="none" id="Maintainer-to-Database-3" style="stroke:#A80036;stroke-width:1.0;"/><polygon fill="#A80036" points="1808.55,540.6513,1817.7029,537.0147,1812.0464,537.077,1811.984,531.4205,1808.55,540.6513" style="stroke:#A80036;stroke-width:1.0;"/><text fill="#000000" font-family="sans-serif" font-size="13" lengthAdjust="spacing" textLength="36" x="1869.5" y="448.5669">insert</text><!--MD5=[2c270355e0f703b742f775700c5ed821]
link Coach to Signup--><path codeLine="113" d="M860.213,105.365 C841.334,121.986 820.645,144.528 810.5,170 C807.704,177.019 807.928,179.896 810.5,187 C816.408,203.319 825.091,203.112 835.5,217 C843.65,227.875 852.099,240.19 859.327,251.092 " fill="none" id="Coach-to-Signup" style="stroke:#A80036;stroke-width:1.0;"/><polygon fill="#A80036" points="862.138,255.352,860.5209,245.6368,859.3846,251.1784,853.8431,250.0422,862.138,255.352" style="stroke:#A80036;stroke-width:1.0;"/><text fill="#000000" font-family="sans-serif" font-size="13" lengthAdjust="spacing" textLength="44" x="811.5" y="183.0669">expect</text><!--MD5=[757f4a3842766097e771b234c7cf3718]
link Parent to PayeeInformation--><path codeLine="115" d="M215.444,315.378 C177.657,346.704 121.396,393.346 88.3803,420.716 " fill="none" id="Parent-to-PayeeInformation" style="stroke:#A80036;stroke-width:1.0;"/><polygon fill="#A80036" points="84.4721,423.956,93.9539,421.2923,88.3216,420.7652,88.8487,415.133,84.4721,423.956" style="stroke:#A80036;stroke-width:1.0;"/><text fill="#000000" font-family="sans-serif" font-size="13" lengthAdjust="spacing" textLength="30" x="142.5" y="390.0669">view</text><!--MD5=[1888ef3d999ca7f75ec7017ef8e346d1]
reverse link Pdf to Report--><path codeLine="116" d="M1404.89,108.08 C1393.31,151.262 1373.06,226.721 1363.62,261.915 " fill="none" id="Pdf-backto-Report" style="stroke:#A80036;stroke-width:1.0;"/><polygon fill="#FFFFFF" points="1408.33,95.286,1402.912,100.0447,1405.2208,106.8762,1410.6388,102.1175,1408.33,95.286" style="stroke:#A80036;stroke-width:1.0;"/><!--MD5=[29793cb2e6ce1def3d6fecaef4efbf08]
link User to Event--><path codeLine="117" d="M522.312,328.04 C516.47,334.518 510.414,341.012 504.5,347 C477.094,374.749 443.275,404.393 421.085,423.278 " fill="none" id="User-to-Event" style="stroke:#A80036;stroke-width:1.0;"/><polygon fill="#A80036" points="417.081,426.676,426.5307,423.9007,420.8927,423.4401,421.3533,417.802,417.081,426.676" style="stroke:#A80036;stroke-width:1.0;"/><text fill="#000000" font-family="sans-serif" font-size="13" lengthAdjust="spacing" textLength="23" x="474.5" y="390.0669">see</text><!--MD5=[abae23d96a0853e69062204dc0fdc884]
link Access to Documentation--><path codeLine="118" d="M1555.75,464.248 C1534.11,484.3158 1500.2,515.7592 1477.2,537.0921 " fill="none" id="Access-to-Documentation" style="stroke:#A80036;stroke-width:1.0;"/><polygon fill="#A80036" points="1473.32,540.6888,1482.6389,537.5018,1476.9861,537.2888,1477.199,531.636,1473.32,540.6888" style="stroke:#A80036;stroke-width:1.0;"/><text fill="#000000" font-family="sans-serif" font-size="13" lengthAdjust="spacing" textLength="13" x="1523.5" y="507.0669">to</text><!--MD5=[0d6360b542ad5af83d2942dda55fbbbe]
link Maintainer to Access--><path codeLine="119" d="M1792.35,292.976 C1741.33,305.189 1663.29,330.274 1611.5,377 C1598.98,388.298 1590.15,405.146 1584.49,418.992 " fill="none" id="Maintainer-to-Access" style="stroke:#A80036;stroke-width:1.0;"/><polygon fill="#A80036" points="1582.55,423.941,1589.5589,417.0218,1584.3749,419.2859,1582.1108,414.1019,1582.55,423.941" style="stroke:#A80036;stroke-width:1.0;"/><text fill="#000000" font-family="sans-serif" font-size="13" lengthAdjust="spacing" textLength="32" x="1612.5" y="390.0669">have</text><!--MD5=[425dc0b778281341be66d257182d8d3c]
link Access to Database--><path codeLine="121" d="M1587.72,464.084 C1597.33,478.869 1612.46,498.8233 1630.5,511 C1667.23,535.7944 1717.13,548.5349 1750.73,554.724 " fill="none" id="Access-to-Database" style="stroke:#A80036;stroke-width:1.0;"/><polygon fill="#A80036" points="1755.98,555.6619,1747.8152,550.1541,1751.0566,554.7902,1746.4205,558.0316,1755.98,555.6619" style="stroke:#A80036;stroke-width:1.0;"/><text fill="#000000" font-family="sans-serif" font-size="13" lengthAdjust="spacing" textLength="13" x="1631.5" y="507.0669">to</text><!--MD5=[fdfd39a9d6d1a2526fc5718c3a3a0733]
link Developer to Access--><path codeLine="122" d="M1534.71,308.924 C1530.74,331.945 1527.77,366.155 1537.5,394 C1540.77,403.353 1546.65,412.256 1552.87,419.845 " fill="none" id="Developer-to-Access" style="stroke:#A80036;stroke-width:1.0;"/><polygon fill="#A80036" points="1556.35,423.92,1553.5638,414.4735,1553.1097,420.1121,1547.4711,419.658,1556.35,423.92" style="stroke:#A80036;stroke-width:1.0;"/><text fill="#000000" font-family="sans-serif" font-size="13" lengthAdjust="spacing" textLength="32" x="1538.5" y="390.0669">have</text><!--MD5=[804ec953b581dab3d9d34740c155a64c]
reverse link Pdf to Information--><path codeLine="124" d="M1423.02,108.22 C1437.4,164.245 1457.18,280.019 1398.5,347 C1345.47,407.53 1092.41,432.905 997.007,440.429 " fill="none" id="Pdf-backto-Information" style="stroke:#A80036;stroke-width:1.0;"/><polygon fill="#FFFFFF" points="1419.53,95.33,1417.235,102.1661,1422.6625,106.9139,1424.9576,100.0778,1419.53,95.33" style="stroke:#A80036;stroke-width:1.0;"/><!--MD5=[8128ff01d6e77007886a3e001ed5f514]
link Parent to Parent--><path codeLine="125" d="M293.711,263.296 C312.233,261.123 328.5,267.357 328.5,282 C328.5,295.27 315.14,301.634 298.85,301.093 " fill="none" id="Parent-to-Parent" style="stroke:#A80036;stroke-width:1.0;"/><polygon fill="#A80036" points="293.711,300.704,302.3836,305.3715,298.6968,301.0811,302.9871,297.3943,293.711,300.704" style="stroke:#A80036;stroke-width:1.0;"/><text fill="#000000" font-family="sans-serif" font-size="13" lengthAdjust="spacing" textLength="23" x="334.5" y="286.5669">see</text><!--MD5=[ac01ebd869ff7834bbc2ad120230ff74]
link Coach to CSVFile--><path codeLine="126" d="M860.218,75.359 C785.374,76.162 620.621,87.896 517.5,170 C489.797,192.057 474.602,231.432 467.261,256.869 " fill="none" id="Coach-to-CSVFile" style="stroke:#A80036;stroke-width:1.0;"/><polygon fill="#A80036" points="465.896,261.761,472.1685,254.1679,467.2403,256.9451,464.4631,252.0169,465.896,261.761" style="stroke:#A80036;stroke-width:1.0;"/><text fill="#000000" font-family="sans-serif" font-size="13" lengthAdjust="spacing" textLength="58" x="518.5" y="183.0669">generate</text><!--MD5=[ba2759c70f4e4900e1ad013881ae84ef]
link Coach to Result--><path codeLine="127" d="M889.716,140.127 C889.491,155.829 891.154,172.329 896.5,187 C897.283,189.148 932.497,230.634 955.642,257.768 " fill="none" id="Coach-to-Result" style="stroke:#A80036;stroke-width:1.0;"/><polygon fill="#A80036" points="958.963,261.661,956.1645,252.2181,955.7178,257.8573,950.0786,257.4105,958.963,261.661" style="stroke:#A80036;stroke-width:1.0;"/><text fill="#000000" font-family="sans-serif" font-size="13" lengthAdjust="spacing" textLength="61" x="897.5" y="183.0669">overwrite</text><!--MD5=[ba2759c70f4e4900e1ad013881ae84ef]
link Coach to Result--><path codeLine="133" d="M938.591,123.736 C948.274,137.862 957.566,153.881 963.5,170 C974.021,198.579 976.147,233.889 976.221,256.903 " fill="none" id="Coach-to-Result-1" style="stroke:#A80036;stroke-width:1.0;"/><polygon fill="#A80036" points="976.205,261.905,980.2333,252.9176,976.2207,256.905,972.2333,252.8925,976.205,261.905" style="stroke:#A80036;stroke-width:1.0;"/><text fill="#000000" font-family="sans-serif" font-size="13" lengthAdjust="spacing" textLength="45" x="969.5" y="183.0669">modify</text><!--MD5=[2d3d24ce923cffcb9d23da37a39a64b9]
link User to Option--><path codeLine="128" d="M541.714,334.069 C537.496,347.817 533.638,362.814 531.5,377 C530.374,384.471 531.269,386.448 531.5,394 C531.746,402.029 532.217,410.788 532.715,418.651 " fill="none" id="User-to-Option" style="stroke:#A80036;stroke-width:1.0;"/><polygon fill="#A80036" points="533.061,423.931,536.4637,414.6886,532.7339,418.9417,528.4808,415.212,533.061,423.931" style="stroke:#A80036;stroke-width:1.0;"/><text fill="#000000" font-family="sans-serif" font-size="13" lengthAdjust="spacing" textLength="23" x="532.5" y="390.0669">see</text><!--MD5=[78a52406a36f6cf04aed5519faebdc07]
link Coach to User--><path codeLine="129" d="M860.277,77.097 C796.319,81.017 669.401,98.026 596.5,170 C581.681,184.63 572.959,205.407 567.826,225.036 " fill="none" id="Coach-to-User" style="stroke:#A80036;stroke-width:1.0;"/><polygon fill="#A80036" points="566.597,229.997,572.6448,222.2237,567.7999,225.1439,564.8798,220.299,566.597,229.997" style="stroke:#A80036;stroke-width:1.0;"/><text fill="#000000" font-family="sans-serif" font-size="13" lengthAdjust="spacing" textLength="44" x="597.5" y="183.0669">expect</text><!--MD5=[87124c9ddd046e983f03a9e038c77925]
reverse link User to Information--><path codeLine="130" d="M568.391,346.98 C573.643,364.619 582.295,382.144 596.5,394 C645.638,435.011 841.547,441.834 923.821,442.869 " fill="none" id="User-backto-Information" style="stroke:#A80036;stroke-width:1.0;"/><polygon fill="#FFFFFF" points="565.136,334.195,562.74,340.9964,568.0967,345.824,570.4927,339.0226,565.136,334.195" style="stroke:#A80036;stroke-width:1.0;"/><text fill="#000000" font-family="sans-serif" font-size="13" lengthAdjust="spacing" textLength="44" x="597.5" y="390.0669">expect</text><!--MD5=[78e90f6e87aca7987f8893985a2ae297]
link Coach to Report--><path codeLine="132" d="M938.627,77.706 C1010.23,82.5 1164.78,100.733 1271.5,170 C1305.34,191.961 1331.65,231.626 1346.12,257.114 " fill="none" id="Coach-to-Report" style="stroke:#A80036;stroke-width:1.0;"/><polygon fill="#A80036" points="1348.68,261.701,1347.7887,251.8926,1346.2442,257.3345,1340.8022,255.7899,1348.68,261.701" style="stroke:#A80036;stroke-width:1.0;"/><text fill="#000000" font-family="sans-serif" font-size="13" lengthAdjust="spacing" textLength="58" x="1293.5" y="183.0669">generate</text><!--MD5=[f714b4ba3e4614497761132c9b42334b]
reverse link Amount to Detail--><path codeLine="135" d="M2113.02,321.71 C2112.61,354.039 2112.05,398.761 2111.74,423.884 " fill="none" id="Amount-backto-Detail" style="stroke:#A80036;stroke-width:1.0;"/><polygon fill="#FFFFFF" points="2113.18,308.707,2109.1052,314.6564,2113.0297,320.7061,2117.1045,314.7566,2113.18,308.707" style="stroke:#A80036;stroke-width:1.0;"/><!--MD5=[ea3332a70ab11c1c90b7cc0973226790]
link Treasurer to Amount--><path codeLine="136" d="M2113.5,101.549 C2113.5,139.247 2113.5,209.672 2113.5,250.182 " fill="none" id="Treasurer-to-Amount" style="stroke:#A80036;stroke-width:1.0;"/><polygon fill="#A80036" points="2113.5,255.452,2117.5,246.452,2113.5,250.452,2109.5,246.452,2113.5,255.452" style="stroke:#A80036;stroke-width:1.0;"/><text fill="#000000" font-family="sans-serif" font-size="13" lengthAdjust="spacing" textLength="23" x="2114.5" y="183.0669">see</text><!--MD5=[cadfa5746845296d6faf1ef2189e10e8]
link Coach to Something--><path codeLine="137" d="M860.38,88.925 C825.31,102.84 776.021,128.715 753.5,170 C738.264,197.93 753.626,234.105 767.393,257.434 " fill="none" id="Coach-to-Something" style="stroke:#A80036;stroke-width:1.0;"/><polygon fill="#A80036" points="770.116,261.922,768.8695,252.1523,767.5234,257.6467,762.029,256.3005,770.116,261.922" style="stroke:#A80036;stroke-width:1.0;"/><text fill="#000000" font-family="sans-serif" font-size="13" lengthAdjust="spacing" textLength="45" x="754.5" y="183.0669">modify</text><!--MD5=[3ce573af109d62397667c5235c20ebbd]
link Maintainer to Detail--><path codeLine="138" d="M1894.6,306.104 C1932.1,323.803 1983.73,349.743 2026.5,377 C2048,390.699 2070.72,408.543 2087.26,422.223 " fill="none" id="Maintainer-to-Detail" style="stroke:#A80036;stroke-width:1.0;"/><polygon fill="#A80036" points="2091.33,425.606,2086.9719,416.7738,2087.4871,422.4072,2081.8538,422.9224,2091.33,425.606" style="stroke:#A80036;stroke-width:1.0;"/><text fill="#000000" font-family="sans-serif" font-size="13" lengthAdjust="spacing" textLength="23" x="2052.5" y="390.0669">see</text><!--MD5=[1f923521d61b9bd49b7e53b1000b1b21]
@startuml
hide circle
class User<actor> {
	swimmer
	information
	kid
}
class Coach<actor> {
}
class Developer<actor> {
}
class Parent<actor> {
	account
	kid
}
class Treasurer<actor> {
}
class Maintainer<actor> {
}
class Head<actor> {
}
class Kid {
	account
	sign()
	post()
}
class Pdf {
}
class Report {
}
class Detail {
}
class Maintainer {
	see()
	have()
	modify()
	insert()
	delete()
	access()
}
class Amount {
	collect()
}
class Parent {
	edit()
	sign()
	see()
	view()
	login()
}
class Event {
}
class Deadline {
}
class Database {
}
class Coach {
	overwrite()
	edit()
	extract()
	review()
	generate()
	modify()
	expect()
}
class Developer {
	have()
}
class Access {
}
class CSVFile {
}
class User {
	see()
	expect()
}
class Information {
}
class Treasurer {
	see()
}
class Something {
}
class Signup {
	close()
}
class PayeeInformation {
}
class Swimmer {
	sign()
}
class Result {
}
class Option {
}
class UploadEvent {
}
class List {
}
class SourceCode {
}
class RegistrationKey {
}
class Documentation {
}
Coach - -> UploadEvent : extract
Parent - -> Event : edit
Coach - -> Information : review
Coach - -> List : edit
Access - -> SourceCode : to
Kid - -> Deadline : post
Parent - -> RegistrationKey : supported_by
Maintainer - -> Database : access
Coach - -> Signup : expect
Maintainer - -> Database : modify
Parent - -> PayeeInformation : view
Pdf o- - Report
User - -> Event : see
Access - -> Documentation : to
Maintainer - -> Access : have
Maintainer - -> Database : delete
Access - -> Database : to
Developer - -> Access : have
Parent - -> Event : view
Pdf o- - Information
Parent - -> Parent : see
Coach - -> CSVFile : generate
Coach - -> Result : overwrite
User - -> Option : see
Coach - -> User : expect
User o- - Information : expect
Maintainer - -> Database : insert
Coach - -> Report : generate
Coach - -> Result : modify
Coach - -> Information : extract
Amount o- - Detail
Treasurer - -> Amount : see
Coach - -> Something : modify
Maintainer - -> Detail : see
@enduml

PlantUML version 1.2021.10beta2(Unknown compile time)
(GPL source distribution)
Java Runtime: Java(TM) SE Runtime Environment
JVM: Java HotSpot(TM) 64-Bit Server VM
Default Encoding: UTF-8
Language: en
Country: US
--></g></svg>