<?xml version="1.0" encoding="UTF-8" standalone="no"?><svg xmlns="http://www.w3.org/2000/svg" xmlns:xlink="http://www.w3.org/1999/xlink" contentScriptType="application/ecmascript" contentStyleType="text/css" height="412px" preserveAspectRatio="none" style="width:1301px;height:412px;background:#FFFFFF;" version="1.1" viewBox="0 0 1301 412" width="1301px" zoomAndPan="magnify"><defs><filter height="300%" id="f1hm7qitqce997" width="300%" x="-1" y="-1"><feGaussianBlur result="blurOut" stdDeviation="2.0"/><feColorMatrix in="blurOut" result="blurOut2" type="matrix" values="0 0 0 0 0 0 0 0 0 0 0 0 0 0 0 0 0 0 .4 0"/><feOffset dx="4.0" dy="4.0" in="blurOut2" result="blurOut3"/><feBlend in="SourceGraphic" in2="blurOut3" mode="normal"/></filter></defs><g><!--MD5=[3b3e4d82bd72d9beea30453587036ffc]
class Scriptwriter--><rect codeLine="15" fill="#FEFECE" filter="url(#f1hm7qitqce997)" height="65.5781" id="Scriptwriter" style="stroke:#A80036;stroke-width:1.5;" width="111" x="7" y="48"/><text fill="#000000" font-family="sans-serif" font-size="12" lengthAdjust="spacing" textLength="70" x="10" y="64.1387">Scriptwriter</text><rect fill="#FFFFFF" height="15.9688" style="stroke:#000000;stroke-width:1.0;stroke-dasharray:2.0,2.0;" width="33" x="88" y="45"/><text fill="#000000" font-family="sans-serif" font-size="12" font-style="italic" lengthAdjust="spacing" textLength="31" x="89" y="57.1387">actor</text><line style="stroke:#A80036;stroke-width:1.5;" x1="8" x2="117" y1="71.9688" y2="71.9688"/><line style="stroke:#A80036;stroke-width:1.5;" x1="8" x2="117" y1="79.9688" y2="79.9688"/><text fill="#000000" font-family="sans-serif" font-size="11" lengthAdjust="spacing" textLength="27" x="13" y="94.1792">get()</text><text fill="#000000" font-family="sans-serif" font-size="11" lengthAdjust="spacing" textLength="51" x="13" y="106.9839">interact()</text><!--MD5=[3fd616f346a44cd59a91eb10b19e157c]
class User--><rect codeLine="19" fill="#FEFECE" filter="url(#f1hm7qitqce997)" height="142.4063" id="User" style="stroke:#A80036;stroke-width:1.5;" width="74" x="930.5" y="10"/><text fill="#000000" font-family="sans-serif" font-size="12" lengthAdjust="spacing" textLength="29" x="935.5" y="26.1387">User</text><rect fill="#FFFFFF" height="15.9688" style="stroke:#000000;stroke-width:1.0;stroke-dasharray:2.0,2.0;" width="33" x="974.5" y="7"/><text fill="#000000" font-family="sans-serif" font-size="12" font-style="italic" lengthAdjust="spacing" textLength="31" x="975.5" y="19.1387">actor</text><line style="stroke:#A80036;stroke-width:1.5;" x1="931.5" x2="1003.5" y1="33.9688" y2="33.9688"/><line style="stroke:#A80036;stroke-width:1.5;" x1="931.5" x2="1003.5" y1="41.9688" y2="41.9688"/><text fill="#000000" font-family="sans-serif" font-size="11" lengthAdjust="spacing" textLength="35" x="936.5" y="56.1792">view()</text><text fill="#000000" font-family="sans-serif" font-size="11" lengthAdjust="spacing" textLength="38" x="936.5" y="68.9839">trend()</text><text fill="#000000" font-family="sans-serif" font-size="11" lengthAdjust="spacing" textLength="40" x="936.5" y="81.7886">share()</text><text fill="#000000" font-family="sans-serif" font-size="11" lengthAdjust="spacing" textLength="41" x="936.5" y="94.5933">log_in()</text><text fill="#000000" font-family="sans-serif" font-size="11" lengthAdjust="spacing" textLength="28" x="936.5" y="107.3979">like()</text><text fill="#000000" font-family="sans-serif" font-size="11" lengthAdjust="spacing" textLength="42" x="936.5" y="120.2026">relate()</text><text fill="#000000" font-family="sans-serif" font-size="11" lengthAdjust="spacing" textLength="46" x="936.5" y="133.0073">search()</text><text fill="#000000" font-family="sans-serif" font-size="11" lengthAdjust="spacing" textLength="62" x="936.5" y="145.812">comment()</text><!--MD5=[db6d18d8099558415abc41d00477ab92]
class Admin--><rect codeLine="33" fill="#FEFECE" filter="url(#f1hm7qitqce997)" height="91.1875" id="Admin" style="stroke:#A80036;stroke-width:1.5;" width="78" x="377.5" y="35.5"/><text fill="#000000" font-family="sans-serif" font-size="12" lengthAdjust="spacing" textLength="37" x="380.5" y="51.6387">Admin</text><rect fill="#FFFFFF" height="15.9688" style="stroke:#000000;stroke-width:1.0;stroke-dasharray:2.0,2.0;" width="33" x="425.5" y="32.5"/><text fill="#000000" font-family="sans-serif" font-size="12" font-style="italic" lengthAdjust="spacing" textLength="31" x="426.5" y="44.6387">actor</text><line style="stroke:#A80036;stroke-width:1.5;" x1="378.5" x2="454.5" y1="59.4688" y2="59.4688"/><line style="stroke:#A80036;stroke-width:1.5;" x1="378.5" x2="454.5" y1="67.4688" y2="67.4688"/><text fill="#000000" font-family="sans-serif" font-size="11" lengthAdjust="spacing" textLength="30" x="383.5" y="81.6792">edit()</text><text fill="#000000" font-family="sans-serif" font-size="11" lengthAdjust="spacing" textLength="29" x="383.5" y="94.4839">add()</text><text fill="#000000" font-family="sans-serif" font-size="11" lengthAdjust="spacing" textLength="46" x="383.5" y="107.2886">delete()</text><text fill="#000000" font-family="sans-serif" font-size="11" lengthAdjust="spacing" textLength="36" x="383.5" y="120.0933">save()</text><!--MD5=[6f29f313cd4199edbf91b9ce3a4faa98]
class Form--><rect codeLine="8" fill="#FEFECE" filter="url(#f1hm7qitqce997)" height="39.9688" id="Form" style="stroke:#A80036;stroke-width:1.5;" width="37" x="103" y="359"/><text fill="#000000" font-family="sans-serif" font-size="12" lengthAdjust="spacing" textLength="31" x="106" y="375.1387">Form</text><line style="stroke:#A80036;stroke-width:1.5;" x1="104" x2="139" y1="382.9688" y2="382.9688"/><line style="stroke:#A80036;stroke-width:1.5;" x1="104" x2="139" y1="390.9688" y2="390.9688"/><!--MD5=[042fa140da40c49659127f611bcff931]
class Comment--><rect codeLine="10" fill="#FEFECE" filter="url(#f1hm7qitqce997)" height="39.9688" id="Comment" style="stroke:#A80036;stroke-width:1.5;" width="63" x="484" y="235.5"/><text fill="#000000" font-family="sans-serif" font-size="12" lengthAdjust="spacing" textLength="57" x="487" y="251.6387">Comment</text><line style="stroke:#A80036;stroke-width:1.5;" x1="485" x2="546" y1="259.4688" y2="259.4688"/><line style="stroke:#A80036;stroke-width:1.5;" x1="485" x2="546" y1="267.4688" y2="267.4688"/><!--MD5=[09e3160644ea82bed9dc2bfdc7bfe5c8]
class Producer--><rect codeLine="12" fill="#FEFECE" filter="url(#f1hm7qitqce997)" height="52.7734" id="Producer" style="stroke:#A80036;stroke-width:1.5;" width="60" x="130.5" y="229"/><text fill="#000000" font-family="sans-serif" font-size="12" lengthAdjust="spacing" textLength="54" x="133.5" y="245.1387">Producer</text><line style="stroke:#A80036;stroke-width:1.5;" x1="131.5" x2="189.5" y1="252.9688" y2="252.9688"/><line style="stroke:#A80036;stroke-width:1.5;" x1="131.5" x2="189.5" y1="260.9688" y2="260.9688"/><text fill="#000000" font-family="sans-serif" font-size="11" lengthAdjust="spacing" textLength="29" x="136.5" y="275.1792">use()</text><!--MD5=[b54c7d21fd8318e5d779f63d9f32272f]
class BlogPost--><rect codeLine="29" fill="#FEFECE" filter="url(#f1hm7qitqce997)" height="39.9688" id="BlogPost" style="stroke:#A80036;stroke-width:1.5;" width="58" x="1037.5" y="235.5"/><text fill="#000000" font-family="sans-serif" font-size="12" lengthAdjust="spacing" textLength="52" x="1040.5" y="251.6387">BlogPost</text><line style="stroke:#A80036;stroke-width:1.5;" x1="1038.5" x2="1094.5" y1="259.4688" y2="259.4688"/><line style="stroke:#A80036;stroke-width:1.5;" x1="1038.5" x2="1094.5" y1="267.4688" y2="267.4688"/><!--MD5=[9bb0bdd047fba1a3c8d48282c35b4537]
class Post--><rect codeLine="31" fill="#FEFECE" filter="url(#f1hm7qitqce997)" height="39.9688" id="Post" style="stroke:#A80036;stroke-width:1.5;" width="31" x="705" y="235.5"/><text fill="#000000" font-family="sans-serif" font-size="12" lengthAdjust="spacing" textLength="25" x="708" y="251.6387">Post</text><line style="stroke:#A80036;stroke-width:1.5;" x1="706" x2="735" y1="259.4688" y2="259.4688"/><line style="stroke:#A80036;stroke-width:1.5;" x1="706" x2="735" y1="267.4688" y2="267.4688"/><!--MD5=[39d6d2ea03de602dbf4d534e70c872a9]
class Tag--><rect codeLine="39" fill="#FEFECE" filter="url(#f1hm7qitqce997)" height="39.9688" id="Tag" style="stroke:#A80036;stroke-width:1.5;" width="28" x="225.5" y="235.5"/><text fill="#000000" font-family="sans-serif" font-size="12" lengthAdjust="spacing" textLength="22" x="228.5" y="251.6387">Tag</text><line style="stroke:#A80036;stroke-width:1.5;" x1="226.5" x2="252.5" y1="259.4688" y2="259.4688"/><line style="stroke:#A80036;stroke-width:1.5;" x1="226.5" x2="252.5" y1="267.4688" y2="267.4688"/><!--MD5=[1a502b0dbedafd291c48f46ef8646183]
class Feedback--><rect codeLine="41" fill="#FEFECE" filter="url(#f1hm7qitqce997)" height="39.9688" id="Feedback" style="stroke:#A80036;stroke-width:1.5;" width="66" x="29.5" y="235.5"/><text fill="#000000" font-family="sans-serif" font-size="12" lengthAdjust="spacing" textLength="60" x="32.5" y="251.6387">Feedback</text><line style="stroke:#A80036;stroke-width:1.5;" x1="30.5" x2="94.5" y1="259.4688" y2="259.4688"/><line style="stroke:#A80036;stroke-width:1.5;" x1="30.5" x2="94.5" y1="267.4688" y2="267.4688"/><!--MD5=[bacc514d65bdcc3de351036b6d5092bb]
class MediaPlatform--><rect codeLine="43" fill="#FEFECE" filter="url(#f1hm7qitqce997)" height="39.9688" id="MediaPlatform" style="stroke:#A80036;stroke-width:1.5;" width="90" x="1197.5" y="235.5"/><text fill="#000000" font-family="sans-serif" font-size="12" lengthAdjust="spacing" textLength="84" x="1200.5" y="251.6387">MediaPlatform</text><line style="stroke:#A80036;stroke-width:1.5;" x1="1198.5" x2="1286.5" y1="259.4688" y2="259.4688"/><line style="stroke:#A80036;stroke-width:1.5;" x1="1198.5" x2="1286.5" y1="267.4688" y2="267.4688"/><!--MD5=[a96594a83e2ecdc78cbf17c2ddf01934]
class Category--><rect codeLine="45" fill="#FEFECE" filter="url(#f1hm7qitqce997)" height="39.9688" id="Category" style="stroke:#A80036;stroke-width:1.5;" width="61" x="299" y="235.5"/><text fill="#000000" font-family="sans-serif" font-size="12" lengthAdjust="spacing" textLength="55" x="302" y="251.6387">Category</text><line style="stroke:#A80036;stroke-width:1.5;" x1="300" x2="359" y1="259.4688" y2="259.4688"/><line style="stroke:#A80036;stroke-width:1.5;" x1="300" x2="359" y1="267.4688" y2="267.4688"/><!--MD5=[c11074d9803ad55e3f44fa03d5770e47]
link Producer to Form--><path codeLine="47" d="M152.229,282.267 C145.439,303.4193 135.895,333.155 129.251,353.8527 " fill="none" id="Producer-to-Form" style="stroke:#A80036;stroke-width:1.0;"/><polygon fill="#A80036" points="127.712,358.6472,134.2718,351.3008,129.2405,353.8866,126.6548,348.8553,127.712,358.6472" style="stroke:#A80036;stroke-width:1.0;"/><text fill="#000000" font-family="sans-serif" font-size="13" lengthAdjust="spacing" textLength="23" x="143.5" y="325.0669">use</text><!--MD5=[9da91db269cc3cd4bc9947f7b37d540e]
link Admin to Comment--><path codeLine="48" d="M421.118,126.649 C425.123,149.686 432.59,177.404 446.5,199 C454.951,212.121 467.551,223.564 479.68,232.596 " fill="none" id="Admin-to-Comment" style="stroke:#A80036;stroke-width:1.0;"/><polygon fill="#A80036" points="483.769,235.566,478.8379,227.0405,479.7235,232.6276,474.1364,233.5133,483.769,235.566" style="stroke:#A80036;stroke-width:1.0;"/><text fill="#000000" font-family="sans-serif" font-size="13" lengthAdjust="spacing" textLength="40" x="447.5" y="195.0669">delete</text><!--MD5=[ec63968621bc9d04d6621c1d3c27da9b]
link User to BlogPost--><path codeLine="49" d="M979.952,152.056 C984.769,168.279 991.4,184.904 1000.5,199 C1008.96,212.108 1021.47,223.742 1033.33,232.929 " fill="none" id="User-to-BlogPost" style="stroke:#A80036;stroke-width:1.0;"/><polygon fill="#A80036" points="1037.32,235.95,1032.5545,227.3309,1033.332,232.934,1027.7289,233.7116,1037.32,235.95" style="stroke:#A80036;stroke-width:1.0;"/><text fill="#000000" font-family="sans-serif" font-size="13" lengthAdjust="spacing" textLength="21" x="1001.5" y="195.0669">like</text><!--MD5=[ec63968621bc9d04d6621c1d3c27da9b]
link User to BlogPost--><path codeLine="51" d="M1004.606,142.813 C1012.29,155.686 1020.25,169.24 1027.5,182 C1036.64,198.074 1046.5,216.418 1054.02,230.632 " fill="none" id="User-to-BlogPost-1" style="stroke:#A80036;stroke-width:1.0;"/><polygon fill="#A80036" points="1056.48,235.285,1055.8088,225.459,1054.1427,230.8649,1048.7368,229.1988,1056.48,235.285" style="stroke:#A80036;stroke-width:1.0;"/><text fill="#000000" font-family="sans-serif" font-size="13" lengthAdjust="spacing" textLength="62" x="1037.5" y="195.0669">comment</text><!--MD5=[ec63968621bc9d04d6621c1d3c27da9b]
link User to BlogPost--><path codeLine="52" d="M1004.747,96.519 C1038.74,112.014 1086.87,140.142 1108.5,182 C1117.23,198.892 1106.09,217.435 1093.11,231.539 " fill="none" id="User-to-BlogPost-2" style="stroke:#A80036;stroke-width:1.0;"/><polygon fill="#A80036" points="1089.41,235.395,1098.5313,231.6798,1092.8755,231.7908,1092.7645,226.135,1089.41,235.395" style="stroke:#A80036;stroke-width:1.0;"/><text fill="#000000" font-family="sans-serif" font-size="13" lengthAdjust="spacing" textLength="30" x="1113.5" y="195.0669">view</text><!--MD5=[9d419e28e6a453de17836b09fd865dae]
link Admin to Post--><path codeLine="50" d="M455.62,110.449 C490.924,135.452 544.797,171.963 594.5,199 C630.524,218.596 674.853,236.853 700.177,246.765 " fill="none" id="Admin-to-Post" style="stroke:#A80036;stroke-width:1.0;"/><polygon fill="#A80036" points="704.98,248.634,698.0426,241.6431,700.3202,246.8212,695.1421,249.0988,704.98,248.634" style="stroke:#A80036;stroke-width:1.0;"/><text fill="#000000" font-family="sans-serif" font-size="13" lengthAdjust="spacing" textLength="24" x="595.5" y="195.0669">edit</text><!--MD5=[9d419e28e6a453de17836b09fd865dae]
link Admin to Post--><path codeLine="56" d="M455.653,98.044 C498.386,116.183 568.222,147.69 624.5,182 C652.353,198.98 681.953,222.228 700.801,237.775 " fill="none" id="Admin-to-Post-1" style="stroke:#A80036;stroke-width:1.0;"/><polygon fill="#A80036" points="704.888,241.164,700.5134,232.34,701.0392,237.9724,695.4068,238.4981,704.888,241.164" style="stroke:#A80036;stroke-width:1.0;"/><text fill="#000000" font-family="sans-serif" font-size="13" lengthAdjust="spacing" textLength="31" x="650.5" y="195.0669">save</text><!--MD5=[9d419e28e6a453de17836b09fd865dae]
link Admin to Post--><path codeLine="64" d="M452.317,126.626 C474.064,151.097 503.706,180.192 535.5,199 C589.828,231.138 664.288,246.021 699.898,251.648 " fill="none" id="Admin-to-Post-2" style="stroke:#A80036;stroke-width:1.0;"/><polygon fill="#A80036" points="704.863,252.412,696.5757,247.0904,699.9211,251.6519,695.3595,254.9974,704.863,252.412" style="stroke:#A80036;stroke-width:1.0;"/><text fill="#000000" font-family="sans-serif" font-size="13" lengthAdjust="spacing" textLength="24" x="536.5" y="195.0669">add</text><!--MD5=[77c575690b0287b9077f2f97ff7c450d]
link User to Post--><path codeLine="53" d="M930.411,95.348 C889.217,111.431 822.238,141.436 774.5,182 C758.242,195.815 744.024,215.401 734.264,230.733 " fill="none" id="User-to-Post" style="stroke:#A80036;stroke-width:1.0;"/><polygon fill="#A80036" points="731.38,235.344,739.5442,229.8352,734.0317,231.1051,732.7618,225.5926,731.38,235.344" style="stroke:#A80036;stroke-width:1.0;"/><text fill="#000000" font-family="sans-serif" font-size="13" lengthAdjust="spacing" textLength="36" x="775.5" y="195.0669">share</text><!--MD5=[77c575690b0287b9077f2f97ff7c450d]
link User to Post--><path codeLine="54" d="M930.388,113.032 C900.448,137.501 856.825,171.901 816.5,199 C791.204,215.999 760.483,233.198 740.719,243.848 " fill="none" id="User-to-Post-1" style="stroke:#A80036;stroke-width:1.0;"/><polygon fill="#A80036" points="736.186,246.28,746.0077,245.5489,740.5917,243.9157,742.2248,238.4997,736.186,246.28" style="stroke:#A80036;stroke-width:1.0;"/><text fill="#000000" font-family="sans-serif" font-size="13" lengthAdjust="spacing" textLength="34" x="839.5" y="195.0669">trend</text><!--MD5=[77c575690b0287b9077f2f97ff7c450d]
link User to Post--><path codeLine="59" d="M930.417,147.63 C917.281,166.304 901.078,185.275 882.5,199 C838.467,231.531 773.958,245.979 741.215,251.526 " fill="none" id="User-to-Post-2" style="stroke:#A80036;stroke-width:1.0;"/><polygon fill="#A80036" points="736.241,252.341,745.7695,254.8325,741.1752,251.5322,744.4754,246.9379,736.241,252.341" style="stroke:#A80036;stroke-width:1.0;"/><text fill="#000000" font-family="sans-serif" font-size="13" lengthAdjust="spacing" textLength="30" x="901.5" y="195.0669">view</text><!--MD5=[d53d37b3aa2ec70df3b748f86ef4db62]
link Admin to Tag--><path codeLine="55" d="M377.093,85.851 C322.571,93.534 225.946,116.187 182.5,182 C178.337,188.306 179.562,192.039 182.5,199 C186.599,208.712 206.076,226.575 221.135,239.415 " fill="none" id="Admin-to-Tag" style="stroke:#A80036;stroke-width:1.0;"/><polygon fill="#A80036" points="225.248,242.893,220.9579,234.0276,221.4298,239.6648,215.7927,240.1367,225.248,242.893" style="stroke:#A80036;stroke-width:1.0;"/><text fill="#000000" font-family="sans-serif" font-size="13" lengthAdjust="spacing" textLength="24" x="183.5" y="195.0669">add</text><!--MD5=[d53d37b3aa2ec70df3b748f86ef4db62]
link Admin to Tag--><path codeLine="57" d="M377.324,103.369 C347.164,121.309 305.955,149.226 277.5,182 C265.028,196.365 255.209,215.531 248.679,230.55 " fill="none" id="Admin-to-Tag-1" style="stroke:#A80036;stroke-width:1.0;"/><polygon fill="#A80036" points="246.591,235.471,253.7884,228.7481,248.5439,230.8681,246.4239,225.6236,246.591,235.471" style="stroke:#A80036;stroke-width:1.0;"/><text fill="#000000" font-family="sans-serif" font-size="13" lengthAdjust="spacing" textLength="24" x="278.5" y="195.0669">edit</text><!--MD5=[e1157d990c71223888f6eba0861fc13e]
link Admin to Category--><path codeLine="58" d="M377.332,108.012 C354.305,125.787 327.273,151.591 314.5,182 C307.971,197.544 312.071,216.194 317.622,230.685 " fill="none" id="Admin-to-Category" style="stroke:#A80036;stroke-width:1.0;"/><polygon fill="#A80036" points="319.546,235.429,319.8683,225.5854,317.6659,230.7959,312.4554,228.5936,319.546,235.429" style="stroke:#A80036;stroke-width:1.0;"/><text fill="#000000" font-family="sans-serif" font-size="13" lengthAdjust="spacing" textLength="24" x="315.5" y="195.0669">edit</text><!--MD5=[e1157d990c71223888f6eba0861fc13e]
link Admin to Category--><path codeLine="61" d="M393.869,126.872 C377.185,159.952 355.134,203.674 341.652,230.406 " fill="none" id="Admin-to-Category-1" style="stroke:#A80036;stroke-width:1.0;"/><polygon fill="#A80036" points="339.237,235.193,346.8612,228.9583,341.4885,230.7286,339.7182,225.3559,339.237,235.193" style="stroke:#A80036;stroke-width:1.0;"/><text fill="#000000" font-family="sans-serif" font-size="13" lengthAdjust="spacing" textLength="24" x="366.5" y="195.0669">add</text><!--MD5=[ccca762faec1b4d973e8ccd7e1b7e031]
link User to MediaPlatform--><path codeLine="60" d="M1004.8,99.646 C1043,118.29 1103.55,149.451 1152.5,182 C1175.49,197.287 1199.76,217.085 1217.3,232.129 " fill="none" id="User-to-MediaPlatform" style="stroke:#A80036;stroke-width:1.0;"/><polygon fill="#A80036" points="1221.16,235.456,1216.964,226.5457,1217.3762,232.1875,1211.7344,232.5997,1221.16,235.456" style="stroke:#A80036;stroke-width:1.0;"/><text fill="#000000" font-family="sans-serif" font-size="13" lengthAdjust="spacing" textLength="36" x="1177.5" y="195.0669">share</text><!--MD5=[7a699040b46f02537c9f82741ab46683]
reverse link Feedback to Form--><path codeLine="62" d="M77.6531,287.705 C88.5628,310.1716 102.9328,339.7641 112.195,358.838 " fill="none" id="Feedback-backto-Form" style="stroke:#A80036;stroke-width:1.0;"/><polygon fill="#FFFFFF" points="71.8487,275.752,70.8714,282.8966,77.0905,286.5466,78.0678,279.4021,71.8487,275.752" style="stroke:#A80036;stroke-width:1.0;"/><!--MD5=[83136e22e0601e877495ee6902e2e456]
reverse link User to Comment--><path codeLine="63" d="M918.151,104.48 C863.177,129.137 771.381,169.166 690.5,199 C641.009,217.255 582.369,235.103 547.093,245.44 " fill="none" id="User-backto-Comment" style="stroke:#A80036;stroke-width:1.0;"/><polygon fill="#FFFFFF" points="930.305,99.01,923.192,97.8248,919.3622,103.9349,926.4752,105.12,930.305,99.01" style="stroke:#A80036;stroke-width:1.0;"/><!--MD5=[3ee005b10afe37ab00bc601fe8c9dd91]
link Scriptwriter to Feedback--><path codeLine="65" d="M62.5,114.042 C62.5,147.752 62.5,200.042 62.5,230.407 " fill="none" id="Scriptwriter-to-Feedback" style="stroke:#A80036;stroke-width:1.0;"/><polygon fill="#A80036" points="62.5,235.449,66.5,226.449,62.5,230.449,58.5,226.449,62.5,235.449" style="stroke:#A80036;stroke-width:1.0;"/><text fill="#000000" font-family="sans-serif" font-size="13" lengthAdjust="spacing" textLength="21" x="63.5" y="195.0669">get</text><!--MD5=[b28633d75b2a84e620800809063a3eb1]
@startuml
hide circle
class Scriptwriter<actor> {
}
class User<actor> {
}
class Admin<actor> {
}
class Form {
}
class Comment {
}
class Producer {
	use()
}
class Scriptwriter {
	get()
	interact()
}
class User {
	view()
	trend()
	share()
	log_in()
	like()
	relate()
	search()
	comment()
}
class BlogPost {
}
class Post {
}
class Admin {
	edit()
	add()
	delete()
	save()
}
class Tag {
}
class Feedback {
}
class MediaPlatform {
}
class Category {
}
Producer - -> Form : use
Admin - -> Comment : delete
User - -> BlogPost : like
Admin - -> Post : edit
User - -> BlogPost : comment
User - -> BlogPost : view
User - -> Post : share
User - -> Post : trend
Admin - -> Tag : add
Admin - -> Post : save
Admin - -> Tag : edit
Admin - -> Category : edit
User - -> Post : view
User - -> MediaPlatform : share
Admin - -> Category : add
Feedback o- - Form
User o- - Comment
Admin - -> Post : add
Scriptwriter - -> Feedback : get
@enduml

PlantUML version 1.2021.10beta2(Unknown compile time)
(GPL source distribution)
Java Runtime: Java(TM) SE Runtime Environment
JVM: Java HotSpot(TM) 64-Bit Server VM
Default Encoding: UTF-8
Language: en
Country: US
--></g></svg>