<?xml version="1.0" encoding="UTF-8" standalone="no"?><svg xmlns="http://www.w3.org/2000/svg" xmlns:xlink="http://www.w3.org/1999/xlink" contentScriptType="application/ecmascript" contentStyleType="text/css" height="504px" preserveAspectRatio="none" style="width:1189px;height:504px;background:#FFFFFF;" version="1.1" viewBox="0 0 1189 504" width="1189px" zoomAndPan="magnify"><defs><filter height="300%" id="fkijj2m7ko4k0" width="300%" x="-1" y="-1"><feGaussianBlur result="blurOut" stdDeviation="2.0"/><feColorMatrix in="blurOut" result="blurOut2" type="matrix" values="0 0 0 0 0 0 0 0 0 0 0 0 0 0 0 0 0 0 .4 0"/><feOffset dx="4.0" dy="4.0" in="blurOut2" result="blurOut3"/><feBlend in="SourceGraphic" in2="blurOut3" mode="normal"/></filter></defs><g><!--MD5=[d342058c8fb6f80e9d50d673c6908241]
class Developer--><rect codeLine="56" fill="#FEFECE" filter="url(#fkijj2m7ko4k0)" height="52.7734" id="Developer" style="stroke:#A80036;stroke-width:1.5;" width="105" x="514.5" y="16.5"/><text fill="#000000" font-family="sans-serif" font-size="12" lengthAdjust="spacing" textLength="64" x="517.5" y="32.6387">Developer</text><rect fill="#FFFFFF" height="15.9688" style="stroke:#000000;stroke-width:1.0;stroke-dasharray:2.0,2.0;" width="33" x="589.5" y="13.5"/><text fill="#000000" font-family="sans-serif" font-size="12" font-style="italic" lengthAdjust="spacing" textLength="31" x="590.5" y="25.6387">actor</text><line style="stroke:#A80036;stroke-width:1.5;" x1="515.5" x2="618.5" y1="40.4688" y2="40.4688"/><line style="stroke:#A80036;stroke-width:1.5;" x1="515.5" x2="618.5" y1="48.4688" y2="48.4688"/><text fill="#000000" font-family="sans-serif" font-size="11" lengthAdjust="spacing" textLength="44" x="520.5" y="62.6792">import()</text><!--MD5=[db6d18d8099558415abc41d00477ab92]
class Admin--><rect codeLine="40" fill="#FEFECE" filter="url(#fkijj2m7ko4k0)" height="91.1875" id="Admin" style="stroke:#A80036;stroke-width:1.5;" width="78" x="467" y="283"/><text fill="#000000" font-family="sans-serif" font-size="12" lengthAdjust="spacing" textLength="37" x="470" y="299.1387">Admin</text><rect fill="#FFFFFF" height="15.9688" style="stroke:#000000;stroke-width:1.0;stroke-dasharray:2.0,2.0;" width="33" x="515" y="280"/><text fill="#000000" font-family="sans-serif" font-size="12" font-style="italic" lengthAdjust="spacing" textLength="31" x="516" y="292.1387">actor</text><line style="stroke:#A80036;stroke-width:1.5;" x1="468" x2="544" y1="306.9688" y2="306.9688"/><line style="stroke:#A80036;stroke-width:1.5;" x1="468" x2="544" y1="314.9688" y2="314.9688"/><text fill="#000000" font-family="sans-serif" font-size="11" lengthAdjust="spacing" textLength="34" x="473" y="329.1792">read()</text><text fill="#000000" font-family="sans-serif" font-size="11" lengthAdjust="spacing" textLength="29" x="473" y="341.9839">add()</text><text fill="#000000" font-family="sans-serif" font-size="11" lengthAdjust="spacing" textLength="53" x="473" y="354.7886">reserve()</text><text fill="#000000" font-family="sans-serif" font-size="11" lengthAdjust="spacing" textLength="50" x="473" y="367.5933">change()</text><!--MD5=[d20e61c3df8b8f47d0b4e5ec2b6a1cdb]
class Volunteer--><rect codeLine="48" fill="#FEFECE" filter="url(#fkijj2m7ko4k0)" height="65.5781" id="Volunteer" style="stroke:#A80036;stroke-width:1.5;" width="99" x="855.5" y="10"/><text fill="#000000" font-family="sans-serif" font-size="12" lengthAdjust="spacing" textLength="58" x="858.5" y="26.1387">Volunteer</text><rect fill="#FFFFFF" height="15.9688" style="stroke:#000000;stroke-width:1.0;stroke-dasharray:2.0,2.0;" width="33" x="924.5" y="7"/><text fill="#000000" font-family="sans-serif" font-size="12" font-style="italic" lengthAdjust="spacing" textLength="31" x="925.5" y="19.1387">actor</text><line style="stroke:#A80036;stroke-width:1.5;" x1="856.5" x2="953.5" y1="33.9688" y2="33.9688"/><line style="stroke:#A80036;stroke-width:1.5;" x1="856.5" x2="953.5" y1="41.9688" y2="41.9688"/><text fill="#000000" font-family="sans-serif" font-size="11" lengthAdjust="spacing" textLength="41" x="861.5" y="56.1792">check()</text><text fill="#000000" font-family="sans-serif" font-size="11" lengthAdjust="spacing" textLength="35" x="861.5" y="68.9839">view()</text><!--MD5=[b24ed8d4ae84bae9290d9aab401637c7]
class Manager--><rect codeLine="37" fill="#FEFECE" filter="url(#fkijj2m7ko4k0)" height="52.7734" id="Manager" style="stroke:#A80036;stroke-width:1.5;" width="93" x="654.5" y="16.5"/><text fill="#000000" font-family="sans-serif" font-size="12" lengthAdjust="spacing" textLength="52" x="657.5" y="32.6387">Manager</text><rect fill="#FFFFFF" height="15.9688" style="stroke:#000000;stroke-width:1.0;stroke-dasharray:2.0,2.0;" width="33" x="717.5" y="13.5"/><text fill="#000000" font-family="sans-serif" font-size="12" font-style="italic" lengthAdjust="spacing" textLength="31" x="718.5" y="25.6387">actor</text><line style="stroke:#A80036;stroke-width:1.5;" x1="655.5" x2="746.5" y1="40.4688" y2="40.4688"/><line style="stroke:#A80036;stroke-width:1.5;" x1="655.5" x2="746.5" y1="48.4688" y2="48.4688"/><text fill="#000000" font-family="sans-serif" font-size="11" lengthAdjust="spacing" textLength="32" x="660.5" y="62.6792">click()</text><!--MD5=[3fd616f346a44cd59a91eb10b19e157c]
class User--><rect codeLine="20" fill="#FEFECE" filter="url(#fkijj2m7ko4k0)" height="91.1875" id="User" style="stroke:#A80036;stroke-width:1.5;" width="71" x="125.5" y="283"/><text fill="#000000" font-family="sans-serif" font-size="12" lengthAdjust="spacing" textLength="29" x="129" y="299.1387">User</text><rect fill="#FFFFFF" height="15.9688" style="stroke:#000000;stroke-width:1.0;stroke-dasharray:2.0,2.0;" width="33" x="166.5" y="280"/><text fill="#000000" font-family="sans-serif" font-size="12" font-style="italic" lengthAdjust="spacing" textLength="31" x="167.5" y="292.1387">actor</text><line style="stroke:#A80036;stroke-width:1.5;" x1="126.5" x2="195.5" y1="306.9688" y2="306.9688"/><line style="stroke:#A80036;stroke-width:1.5;" x1="126.5" x2="195.5" y1="314.9688" y2="314.9688"/><text fill="#000000" font-family="sans-serif" font-size="11" lengthAdjust="spacing" textLength="59" x="131.5" y="329.1792">checkout()</text><text fill="#000000" font-family="sans-serif" font-size="11" lengthAdjust="spacing" textLength="52" x="131.5" y="341.9839">request()</text><text fill="#000000" font-family="sans-serif" font-size="11" lengthAdjust="spacing" textLength="35" x="131.5" y="354.7886">view()</text><text fill="#000000" font-family="sans-serif" font-size="11" lengthAdjust="spacing" textLength="48" x="131.5" y="367.5933">update()</text><!--MD5=[b5b9fe6137fa780f712b03145b11f121]
class AdminUser--><rect codeLine="32" fill="#FEFECE" filter="url(#fkijj2m7ko4k0)" height="52.7734" id="AdminUser" style="stroke:#A80036;stroke-width:1.5;" width="107" x="1068.5" y="16.5"/><text fill="#000000" font-family="sans-serif" font-size="12" lengthAdjust="spacing" textLength="66" x="1071.5" y="32.6387">AdminUser</text><rect fill="#FFFFFF" height="15.9688" style="stroke:#000000;stroke-width:1.0;stroke-dasharray:2.0,2.0;" width="33" x="1145.5" y="13.5"/><text fill="#000000" font-family="sans-serif" font-size="12" font-style="italic" lengthAdjust="spacing" textLength="31" x="1146.5" y="25.6387">actor</text><line style="stroke:#A80036;stroke-width:1.5;" x1="1069.5" x2="1174.5" y1="40.4688" y2="40.4688"/><line style="stroke:#A80036;stroke-width:1.5;" x1="1069.5" x2="1174.5" y1="48.4688" y2="48.4688"/><text fill="#000000" font-family="sans-serif" font-size="11" lengthAdjust="spacing" textLength="27" x="1074.5" y="62.6792">get()</text><!--MD5=[90ba54f54370e77ef24813dec6818fa3]
class Button--><rect codeLine="14" fill="#FEFECE" filter="url(#fkijj2m7ko4k0)" height="52.7734" id="Button" style="stroke:#A80036;stroke-width:1.5;" width="52" x="675" y="153"/><text fill="#000000" font-family="sans-serif" font-size="12" lengthAdjust="spacing" textLength="38" x="682" y="169.1387">Button</text><line style="stroke:#A80036;stroke-width:1.5;" x1="676" x2="726" y1="176.9688" y2="176.9688"/><line style="stroke:#A80036;stroke-width:1.5;" x1="676" x2="726" y1="184.9688" y2="184.9688"/><text fill="#000000" font-family="sans-serif" font-size="11" lengthAdjust="spacing" textLength="40" x="681" y="199.1792">email()</text><!--MD5=[3813445e07f7ee5d583a428701b0add1]
class Darin--><rect codeLine="17" fill="#FEFECE" filter="url(#fkijj2m7ko4k0)" height="52.7734" id="Darin" style="stroke:#A80036;stroke-width:1.5;" width="62" x="670" y="302"/><text fill="#000000" font-family="sans-serif" font-size="12" lengthAdjust="spacing" textLength="31" x="685.5" y="318.1387">Darin</text><line style="stroke:#A80036;stroke-width:1.5;" x1="671" x2="731" y1="325.9688" y2="325.9688"/><line style="stroke:#A80036;stroke-width:1.5;" x1="671" x2="731" y1="333.9688" y2="333.9688"/><text fill="#000000" font-family="sans-serif" font-size="11" lengthAdjust="spacing" textLength="50" x="676" y="348.1792">reorder()</text><!--MD5=[f9a29335b499db729be669fd1bd54958]
class Account--><rect codeLine="26" fill="#FEFECE" filter="url(#fkijj2m7ko4k0)" height="39.9688" id="Account" style="stroke:#A80036;stroke-width:1.5;" width="54" x="7" y="451"/><text fill="#000000" font-family="sans-serif" font-size="12" lengthAdjust="spacing" textLength="48" x="10" y="467.1387">Account</text><line style="stroke:#A80036;stroke-width:1.5;" x1="8" x2="60" y1="474.9688" y2="474.9688"/><line style="stroke:#A80036;stroke-width:1.5;" x1="8" x2="60" y1="482.9688" y2="482.9688"/><!--MD5=[028fba31e0312914fa4880b63f0540b8]
class Detail--><rect codeLine="28" fill="#FEFECE" filter="url(#fkijj2m7ko4k0)" height="39.9688" id="Detail" style="stroke:#A80036;stroke-width:1.5;" width="40" x="105" y="451"/><text fill="#000000" font-family="sans-serif" font-size="12" lengthAdjust="spacing" textLength="34" x="108" y="467.1387">Detail</text><line style="stroke:#A80036;stroke-width:1.5;" x1="106" x2="144" y1="474.9688" y2="474.9688"/><line style="stroke:#A80036;stroke-width:1.5;" x1="106" x2="144" y1="482.9688" y2="482.9688"/><!--MD5=[e3d83ec5fd90ea9f3f2bfe265cb53458]
class Status--><rect codeLine="30" fill="#FEFECE" filter="url(#fkijj2m7ko4k0)" height="39.9688" id="Status" style="stroke:#A80036;stroke-width:1.5;" width="43" x="271.5" y="451"/><text fill="#000000" font-family="sans-serif" font-size="12" lengthAdjust="spacing" textLength="37" x="274.5" y="467.1387">Status</text><line style="stroke:#A80036;stroke-width:1.5;" x1="272.5" x2="313.5" y1="474.9688" y2="474.9688"/><line style="stroke:#A80036;stroke-width:1.5;" x1="272.5" x2="313.5" y1="482.9688" y2="482.9688"/><!--MD5=[7e2bc2f128e759c5889ccd6a2666d576]
class EmailNotification--><rect codeLine="35" fill="#FEFECE" filter="url(#fkijj2m7ko4k0)" height="39.9688" id="EmailNotification" style="stroke:#A80036;stroke-width:1.5;" width="103" x="1070.5" y="159.5"/><text fill="#000000" font-family="sans-serif" font-size="12" lengthAdjust="spacing" textLength="97" x="1073.5" y="175.6387">EmailNotification</text><line style="stroke:#A80036;stroke-width:1.5;" x1="1071.5" x2="1172.5" y1="183.4688" y2="183.4688"/><line style="stroke:#A80036;stroke-width:1.5;" x1="1071.5" x2="1172.5" y1="191.4688" y2="191.4688"/><!--MD5=[bed676bd0837f909e4d32ec2dc9dc1c5]
class logs--><rect codeLine="46" fill="#FEFECE" filter="url(#fkijj2m7ko4k0)" height="39.9688" id="logs" style="stroke:#A80036;stroke-width:1.5;" width="32" x="614" y="451"/><text fill="#000000" font-family="sans-serif" font-size="12" lengthAdjust="spacing" textLength="26" x="617" y="467.1387">logs</text><line style="stroke:#A80036;stroke-width:1.5;" x1="615" x2="645" y1="474.9688" y2="474.9688"/><line style="stroke:#A80036;stroke-width:1.5;" x1="615" x2="645" y1="482.9688" y2="482.9688"/><!--MD5=[2449a07004f88a39a49d8d677dad46f0]
class Availability--><rect codeLine="52" fill="#FEFECE" filter="url(#fkijj2m7ko4k0)" height="39.9688" id="Availability" style="stroke:#A80036;stroke-width:1.5;" width="69" x="762.5" y="159.5"/><text fill="#000000" font-family="sans-serif" font-size="12" lengthAdjust="spacing" textLength="63" x="765.5" y="175.6387">Availability</text><line style="stroke:#A80036;stroke-width:1.5;" x1="763.5" x2="830.5" y1="183.4688" y2="183.4688"/><line style="stroke:#A80036;stroke-width:1.5;" x1="763.5" x2="830.5" y1="191.4688" y2="191.4688"/><!--MD5=[44a1b4afaef76c16e6c9ec4990ad0c8d]
class Item--><rect codeLine="54" fill="#FEFECE" filter="url(#fkijj2m7ko4k0)" height="39.9688" id="Item" style="stroke:#A80036;stroke-width:1.5;" width="32" x="490" y="451"/><text fill="#000000" font-family="sans-serif" font-size="12" lengthAdjust="spacing" textLength="26" x="493" y="467.1387">Item</text><line style="stroke:#A80036;stroke-width:1.5;" x1="491" x2="521" y1="474.9688" y2="474.9688"/><line style="stroke:#A80036;stroke-width:1.5;" x1="491" x2="521" y1="482.9688" y2="482.9688"/><!--MD5=[3784c6daf2f1e07ecf082a66dd892343]
class Spreadsheet--><rect codeLine="59" fill="#FEFECE" filter="url(#fkijj2m7ko4k0)" height="39.9688" id="Spreadsheet" style="stroke:#A80036;stroke-width:1.5;" width="84" x="525" y="159.5"/><text fill="#000000" font-family="sans-serif" font-size="12" lengthAdjust="spacing" textLength="78" x="528" y="175.6387">Spreadsheet</text><line style="stroke:#A80036;stroke-width:1.5;" x1="526" x2="608" y1="183.4688" y2="183.4688"/><line style="stroke:#A80036;stroke-width:1.5;" x1="526" x2="608" y1="191.4688" y2="191.4688"/><!--MD5=[9c46470aa33a0c75e6d1dfdefc2f9c22]
class Reservation--><rect codeLine="61" fill="#FEFECE" filter="url(#fkijj2m7ko4k0)" height="39.9688" id="Reservation" style="stroke:#A80036;stroke-width:1.5;" width="77" x="866.5" y="159.5"/><text fill="#000000" font-family="sans-serif" font-size="12" lengthAdjust="spacing" textLength="71" x="869.5" y="175.6387">Reservation</text><line style="stroke:#A80036;stroke-width:1.5;" x1="867.5" x2="942.5" y1="183.4688" y2="183.4688"/><line style="stroke:#A80036;stroke-width:1.5;" x1="867.5" x2="942.5" y1="191.4688" y2="191.4688"/><!--MD5=[4f1f3706c1a355a8488e154afcaed5df]
class Location--><rect codeLine="63" fill="#FEFECE" filter="url(#fkijj2m7ko4k0)" height="39.9688" id="Location" style="stroke:#A80036;stroke-width:1.5;" width="56" x="979" y="159.5"/><text fill="#000000" font-family="sans-serif" font-size="12" lengthAdjust="spacing" textLength="50" x="982" y="175.6387">Location</text><line style="stroke:#A80036;stroke-width:1.5;" x1="980" x2="1034" y1="183.4688" y2="183.4688"/><line style="stroke:#A80036;stroke-width:1.5;" x1="980" x2="1034" y1="191.4688" y2="191.4688"/><!--MD5=[9acc32825fcbd67eb847476300da9d21]
link User to Status--><path codeLine="65" d="M169.718,374.109 C174.667,390.339 182.306,407.8973 194,421 C213.233,442.5487 244.101,455.7022 266.258,462.8802 " fill="none" id="User-to-Status" style="stroke:#A80036;stroke-width:1.0;"/><polygon fill="#A80036" points="271.126,464.4073,263.7348,457.898,266.355,462.9115,261.3415,465.5317,271.126,464.4073" style="stroke:#A80036;stroke-width:1.0;"/><text fill="#000000" font-family="sans-serif" font-size="13" lengthAdjust="spacing" textLength="45" x="195" y="417.0669">update</text><!--MD5=[0c33994447a5a115d17347b31ff58a4b]
link Admin to Item--><path codeLine="66" d="M475.198,374.265 C468.603,389.016 464.948,405.5899 470,421 C473.391,431.3442 479.892,441.3058 486.447,449.5146 " fill="none" id="Admin-to-Item" style="stroke:#A80036;stroke-width:1.0;"/><polygon fill="#A80036" points="489.656,453.3975,487.0062,443.9118,486.4709,449.5433,480.8394,449.008,489.656,453.3975" style="stroke:#A80036;stroke-width:1.0;"/><text fill="#000000" font-family="sans-serif" font-size="13" lengthAdjust="spacing" textLength="24" x="471" y="417.0669">add</text><!--MD5=[0c33994447a5a115d17347b31ff58a4b]
link Admin to Item--><path codeLine="75" d="M506,374.341 C506,398.0796 506,426.2914 506,445.8996 " fill="none" id="Admin-to-Item-1" style="stroke:#A80036;stroke-width:1.0;"/><polygon fill="#A80036" points="506,450.9408,510,441.9408,506,445.9408,502,441.9408,506,450.9408" style="stroke:#A80036;stroke-width:1.0;"/><text fill="#000000" font-family="sans-serif" font-size="13" lengthAdjust="spacing" textLength="49" x="507" y="417.0669">reserve</text><!--MD5=[8e80922e33f05c5fc9e20570b2b387e8]
link Manager to Button--><path codeLine="67" d="M701,69.615 C701,91.865 701,124.139 701,147.774 " fill="none" id="Manager-to-Button" style="stroke:#A80036;stroke-width:1.0;"/><polygon fill="#A80036" points="701,152.98,705,143.98,701,147.98,697,143.98,701,152.98" style="stroke:#A80036;stroke-width:1.0;"/><text fill="#000000" font-family="sans-serif" font-size="13" lengthAdjust="spacing" textLength="27" x="702" y="119.0669">click</text><!--MD5=[fbdffb236416bd2d42dd13dbb3b60295]
link Developer to Spreadsheet--><path codeLine="68" d="M567,69.615 C567,93.991 567,130.398 567,154.296 " fill="none" id="Developer-to-Spreadsheet" style="stroke:#A80036;stroke-width:1.0;"/><polygon fill="#A80036" points="567,159.492,571,150.492,567,154.492,563,150.492,567,159.492" style="stroke:#A80036;stroke-width:1.0;"/><text fill="#000000" font-family="sans-serif" font-size="13" lengthAdjust="spacing" textLength="42" x="568" y="119.0669">import</text><!--MD5=[87e802f94dff5db0b14b612664619da8]
link User to Account--><path codeLine="69" d="M125.185,349.408 C104.1536,362.602 78.3752,381.585 61,404 C51.425,416.3523 44.7276,432.5719 40.3982,445.8407 " fill="none" id="User-to-Account" style="stroke:#A80036;stroke-width:1.0;"/><polygon fill="#A80036" points="38.7981,450.9528,45.3041,443.5588,40.2918,446.1811,37.6694,441.1688,38.7981,450.9528" style="stroke:#A80036;stroke-width:1.0;"/><text fill="#000000" font-family="sans-serif" font-size="13" lengthAdjust="spacing" textLength="49" x="62" y="417.0669">request</text><!--MD5=[b5993653948353ed090904e21ea229e1]
link Volunteer to Availability--><path codeLine="70" d="M879.131,76.216 C859.51,100.652 833.013,133.651 815.485,155.479 " fill="none" id="Volunteer-to-Availability" style="stroke:#A80036;stroke-width:1.0;"/><polygon fill="#A80036" points="812.321,159.42,821.0746,154.9062,815.4513,155.5211,814.8364,149.8978,812.321,159.42" style="stroke:#A80036;stroke-width:1.0;"/><text fill="#000000" font-family="sans-serif" font-size="13" lengthAdjust="spacing" textLength="37" x="856" y="119.0669">check</text><!--MD5=[b1a786bad21caa5949445ef60c77957d]
link Volunteer to Location--><path codeLine="71" d="M929.432,76.216 C947.886,100.551 972.78,133.377 989.335,155.207 " fill="none" id="Volunteer-to-Location" style="stroke:#A80036;stroke-width:1.0;"/><polygon fill="#A80036" points="992.531,159.42,990.28,149.8318,989.5098,155.436,983.9056,154.6658,992.531,159.42" style="stroke:#A80036;stroke-width:1.0;"/><text fill="#000000" font-family="sans-serif" font-size="13" lengthAdjust="spacing" textLength="37" x="963" y="119.0669">check</text><!--MD5=[b59ec05fccf4ecb7c4fb4d6d1f74254f]
link Admin to Status--><path codeLine="72" d="M466.933,355.27 C423.885,383.665 355.868,428.5308 318.938,452.8904 " fill="none" id="Admin-to-Status" style="stroke:#A80036;stroke-width:1.0;"/><polygon fill="#A80036" points="314.593,455.757,324.3083,454.1408,318.7669,453.004,319.9036,447.4626,314.593,455.757" style="stroke:#A80036;stroke-width:1.0;"/><text fill="#000000" font-family="sans-serif" font-size="13" lengthAdjust="spacing" textLength="47" x="388" y="417.0669">change</text><!--MD5=[53a588df3f5f0f7f452d1b4562b14650]
link User to Item--><path codeLine="73" d="M196.739,358.094 C223.691,378.355 262.34,404.7279 300,421 C364.007,448.6559 446.25,462.2291 484.57,467.406 " fill="none" id="User-to-Item" style="stroke:#A80036;stroke-width:1.0;"/><polygon fill="#A80036" points="489.898,468.1096,481.4988,462.9663,484.941,467.4553,480.452,470.8975,489.898,468.1096" style="stroke:#A80036;stroke-width:1.0;"/><text fill="#000000" font-family="sans-serif" font-size="13" lengthAdjust="spacing" textLength="58" x="301" y="417.0669">checkout</text><!--MD5=[a777dffcb385430073f09624734375ef]
link AdminUser to EmailNotification--><path codeLine="74" d="M1122,69.615 C1122,93.991 1122,130.398 1122,154.296 " fill="none" id="AdminUser-to-EmailNotification" style="stroke:#A80036;stroke-width:1.0;"/><polygon fill="#A80036" points="1122,159.492,1126,150.492,1122,154.492,1118,150.492,1122,159.492" style="stroke:#A80036;stroke-width:1.0;"/><text fill="#000000" font-family="sans-serif" font-size="13" lengthAdjust="spacing" textLength="21" x="1123" y="119.0669">get</text><!--MD5=[570ec5c4e8a1dd44e7fcb71a8cfc57a6]
link User to Detail--><path codeLine="76" d="M133.214,374.218 C128.577,383.722 124.475,393.9345 122,404 C118.669,417.547 119.18,433.1191 120.634,445.7342 " fill="none" id="User-to-Detail" style="stroke:#A80036;stroke-width:1.0;"/><polygon fill="#A80036" points="121.307,450.9451,124.1215,441.507,120.6667,445.9863,116.1874,442.5315,121.307,450.9451" style="stroke:#A80036;stroke-width:1.0;"/><text fill="#000000" font-family="sans-serif" font-size="13" lengthAdjust="spacing" textLength="30" x="123" y="417.0669">view</text><!--MD5=[985973f9e03e409a5b242353e3e71768]
link Volunteer to Reservation--><path codeLine="77" d="M905,76.216 C905,100.247 905,132.558 905,154.383 " fill="none" id="Volunteer-to-Reservation" style="stroke:#A80036;stroke-width:1.0;"/><polygon fill="#A80036" points="905,159.42,909,150.42,905,154.42,901,150.42,905,159.42" style="stroke:#A80036;stroke-width:1.0;"/><text fill="#000000" font-family="sans-serif" font-size="13" lengthAdjust="spacing" textLength="30" x="906" y="119.0669">view</text><!--MD5=[10d3a138017e4345618480df327ed029]
link Button to Darin--><path codeLine="78" d="M701,206.105 C701,231.246 701,269.627 701,296.484 " fill="none" id="Button-to-Darin" style="stroke:#A80036;stroke-width:1.0;"/><polygon fill="#A80036" points="701,301.695,705,292.695,701,296.695,697,292.695,701,301.695" style="stroke:#A80036;stroke-width:1.0;"/><text fill="#000000" font-family="sans-serif" font-size="13" lengthAdjust="spacing" textLength="35" x="702" y="249.0669">email</text><!--MD5=[76e854a6bdf5913485f419192f52b332]
link Admin to logs--><path codeLine="79" d="M545.234,373.955 C566.919,398.5257 592.919,427.9853 610.356,447.7422 " fill="none" id="Admin-to-logs" style="stroke:#A80036;stroke-width:1.0;"/><polygon fill="#A80036" points="613.725,451.5599,610.7683,442.1653,610.4163,447.8112,604.7704,447.4592,613.725,451.5599" style="stroke:#A80036;stroke-width:1.0;"/><text fill="#000000" font-family="sans-serif" font-size="13" lengthAdjust="spacing" textLength="29" x="588" y="417.0669">read</text><!--MD5=[64e0f86e94d6dfda4e58f555418d177b]
link Darin to Item--><path codeLine="80" d="M685,355.385 C671.415,375.559 650.292,403.0674 626,421 C595.238,443.7092 552.447,457.8591 527.147,464.8077 " fill="none" id="Darin-to-Item" style="stroke:#A80036;stroke-width:1.0;"/><polygon fill="#A80036" points="522.024,466.1816,531.7531,467.7127,526.8532,464.8859,529.68,459.986,522.024,466.1816" style="stroke:#A80036;stroke-width:1.0;"/><text fill="#000000" font-family="sans-serif" font-size="13" lengthAdjust="spacing" textLength="47" x="647" y="417.0669">reorder</text><!--MD5=[7bdee5e655cb99b3d6834f08a56cb632]
@startuml
hide circle
class Developer<actor> {
}
class Admin<actor> {
}
class Volunteer<actor> {
}
class Manager<actor> {
}
class User<actor> {
}
class AdminUser<actor> {
}
class Button {
	email()
}
class Darin {
	reorder()
}
class User {
	checkout()
	request()
	view()
	update()
}
class Account {
}
class Detail {
}
class Status {
}
class AdminUser {
	get()
}
class EmailNotification {
}
class Manager {
	click()
}
class Admin {
	read()
	add()
	reserve()
	change()
}
class logs {
}
class Volunteer {
	check()
	view()
}
class Availability {
}
class Item {
}
class Developer {
	import()
}
class Spreadsheet {
}
class Reservation {
}
class Location {
}
User - -> Status : update
Admin - -> Item : add
Manager - -> Button : click
Developer - -> Spreadsheet : import
User - -> Account : request
Volunteer - -> Availability : check
Volunteer - -> Location : check
Admin - -> Status : change
User - -> Item : checkout
AdminUser - -> EmailNotification : get
Admin - -> Item : reserve
User - -> Detail : view
Volunteer - -> Reservation : view
Button - -> Darin : email
Admin - -> logs : read
Darin - -> Item : reorder
@enduml

PlantUML version 1.2021.6beta6(Unknown compile time)
(GPL source distribution)
Java Runtime: Java(TM) SE Runtime Environment
JVM: Java HotSpot(TM) 64-Bit Server VM
Default Encoding: UTF-8
Language: en
Country: US
--></g></svg>