<?xml version="1.0" encoding="UTF-8" standalone="no"?><svg xmlns="http://www.w3.org/2000/svg" xmlns:xlink="http://www.w3.org/1999/xlink" contentScriptType="application/ecmascript" contentStyleType="text/css" height="594px" preserveAspectRatio="none" style="width:2285px;height:594px;background:#FFFFFF;" version="1.1" viewBox="0 0 2285 594" width="2285px" zoomAndPan="magnify"><defs><filter height="300%" id="f1tur4du8wnudu" width="300%" x="-1" y="-1"><feGaussianBlur result="blurOut" stdDeviation="2.0"/><feColorMatrix in="blurOut" result="blurOut2" type="matrix" values="0 0 0 0 0 0 0 0 0 0 0 0 0 0 0 0 0 0 .4 0"/><feOffset dx="4.0" dy="4.0" in="blurOut2" result="blurOut3"/><feBlend in="SourceGraphic" in2="blurOut3" mode="normal"/></filter></defs><g><!--MD5=[3fd616f346a44cd59a91eb10b19e157c]
class User--><rect codeLine="32" fill="#FEFECE" filter="url(#f1tur4du8wnudu)" height="103.9922" id="User" style="stroke:#A80036;stroke-width:1.5;" width="76" x="798.8036" y="230"/><text fill="#000000" font-family="sans-serif" font-size="12" lengthAdjust="spacing" textLength="29" x="804.8036" y="246.1387">User</text><rect fill="#FFFFFF" height="15.9688" style="stroke:#000000;stroke-width:1.0;stroke-dasharray:2.0,2.0;" width="33" x="844.8036" y="227"/><text fill="#000000" font-family="sans-serif" font-size="12" font-style="italic" lengthAdjust="spacing" textLength="31" x="845.8036" y="239.1387">actor</text><line style="stroke:#A80036;stroke-width:1.5;" x1="799.8036" x2="873.8036" y1="253.9688" y2="253.9688"/><text fill="#000000" font-family="sans-serif" font-size="11" lengthAdjust="spacing" textLength="64" x="804.8036" y="268.1792">information</text><text fill="#000000" font-family="sans-serif" font-size="11" lengthAdjust="spacing" textLength="16" x="804.8036" y="280.9839">kid</text><text fill="#000000" font-family="sans-serif" font-size="11" lengthAdjust="spacing" textLength="52" x="804.8036" y="293.7886">swimmer</text><line style="stroke:#A80036;stroke-width:1.5;" x1="799.8036" x2="873.8036" y1="300.3828" y2="300.3828"/><text fill="#000000" font-family="sans-serif" font-size="11" lengthAdjust="spacing" textLength="48" x="804.8036" y="314.5933">expect()</text><text fill="#000000" font-family="sans-serif" font-size="11" lengthAdjust="spacing" textLength="30" x="804.8036" y="327.3979">see()</text><!--MD5=[fd8f06804651a767af6d5ee4693cdfe7]
class Coach--><rect codeLine="62" fill="#FEFECE" filter="url(#f1tur4du8wnudu)" height="129.6016" id="Coach" style="stroke:#A80036;stroke-width:1.5;" width="78" x="518.8036" y="10"/><text fill="#000000" font-family="sans-serif" font-size="12" lengthAdjust="spacing" textLength="37" x="521.8036" y="26.1387">Coach</text><rect fill="#FFFFFF" height="15.9688" style="stroke:#000000;stroke-width:1.0;stroke-dasharray:2.0,2.0;" width="33" x="566.8036" y="7"/><text fill="#000000" font-family="sans-serif" font-size="12" font-style="italic" lengthAdjust="spacing" textLength="31" x="567.8036" y="19.1387">actor</text><line style="stroke:#A80036;stroke-width:1.5;" x1="519.8036" x2="595.8036" y1="33.9688" y2="33.9688"/><line style="stroke:#A80036;stroke-width:1.5;" x1="519.8036" x2="595.8036" y1="41.9688" y2="41.9688"/><text fill="#000000" font-family="sans-serif" font-size="11" lengthAdjust="spacing" textLength="62" x="524.8036" y="56.1792">overwrite()</text><text fill="#000000" font-family="sans-serif" font-size="11" lengthAdjust="spacing" textLength="61" x="524.8036" y="68.9839">generate()</text><text fill="#000000" font-family="sans-serif" font-size="11" lengthAdjust="spacing" textLength="48" x="524.8036" y="81.7886">expect()</text><text fill="#000000" font-family="sans-serif" font-size="11" lengthAdjust="spacing" textLength="47" x="524.8036" y="94.5933">review()</text><text fill="#000000" font-family="sans-serif" font-size="11" lengthAdjust="spacing" textLength="48" x="524.8036" y="107.3979">extract()</text><text fill="#000000" font-family="sans-serif" font-size="11" lengthAdjust="spacing" textLength="47" x="524.8036" y="120.2026">modify()</text><text fill="#000000" font-family="sans-serif" font-size="11" lengthAdjust="spacing" textLength="30" x="524.8036" y="133.0073">edit()</text><!--MD5=[d342058c8fb6f80e9d50d673c6908241]
class Developer--><rect codeLine="77" fill="#FEFECE" filter="url(#f1tur4du8wnudu)" height="52.7734" id="Developer" style="stroke:#A80036;stroke-width:1.5;" width="105" x="1294.3056" y="255.5"/><text fill="#000000" font-family="sans-serif" font-size="12" lengthAdjust="spacing" textLength="64" x="1297.3056" y="271.6387">Developer</text><rect fill="#FFFFFF" height="15.9688" style="stroke:#000000;stroke-width:1.0;stroke-dasharray:2.0,2.0;" width="33" x="1369.3056" y="252.5"/><text fill="#000000" font-family="sans-serif" font-size="12" font-style="italic" lengthAdjust="spacing" textLength="31" x="1370.3056" y="264.6387">actor</text><line style="stroke:#A80036;stroke-width:1.5;" x1="1295.3056" x2="1398.3056" y1="279.4688" y2="279.4688"/><line style="stroke:#A80036;stroke-width:1.5;" x1="1295.3056" x2="1398.3056" y1="287.4688" y2="287.4688"/><text fill="#000000" font-family="sans-serif" font-size="11" lengthAdjust="spacing" textLength="37" x="1300.3056" y="301.6792">have()</text><!--MD5=[cf9bc73d4b319b8f5d50999aecc13d13]
class Parent--><rect codeLine="51" fill="#FEFECE" filter="url(#f1tur4du8wnudu)" height="129.6016" id="Parent" style="stroke:#A80036;stroke-width:1.5;" width="78" x="1127.8056" y="217"/><text fill="#000000" font-family="sans-serif" font-size="12" lengthAdjust="spacing" textLength="37" x="1130.8056" y="233.1387">Parent</text><rect fill="#FFFFFF" height="15.9688" style="stroke:#000000;stroke-width:1.0;stroke-dasharray:2.0,2.0;" width="33" x="1175.8056" y="214"/><text fill="#000000" font-family="sans-serif" font-size="12" font-style="italic" lengthAdjust="spacing" textLength="31" x="1176.8056" y="226.1387">actor</text><line style="stroke:#A80036;stroke-width:1.5;" x1="1128.8056" x2="1204.8056" y1="240.9688" y2="240.9688"/><text fill="#000000" font-family="sans-serif" font-size="11" lengthAdjust="spacing" textLength="44" x="1133.8056" y="255.1792">account</text><text fill="#000000" font-family="sans-serif" font-size="11" lengthAdjust="spacing" textLength="16" x="1133.8056" y="267.9839">kid</text><line style="stroke:#A80036;stroke-width:1.5;" x1="1128.8056" x2="1204.8056" y1="274.5781" y2="274.5781"/><text fill="#000000" font-family="sans-serif" font-size="11" lengthAdjust="spacing" textLength="31" x="1133.8056" y="288.7886">sign()</text><text fill="#000000" font-family="sans-serif" font-size="11" lengthAdjust="spacing" textLength="35" x="1133.8056" y="301.5933">login()</text><text fill="#000000" font-family="sans-serif" font-size="11" lengthAdjust="spacing" textLength="30" x="1133.8056" y="314.3979">see()</text><text fill="#000000" font-family="sans-serif" font-size="11" lengthAdjust="spacing" textLength="30" x="1133.8056" y="327.2026">edit()</text><text fill="#000000" font-family="sans-serif" font-size="11" lengthAdjust="spacing" textLength="35" x="1133.8056" y="340.0073">view()</text><!--MD5=[c3ac0beb173c135b247cb6ed26f9fd5b]
class Treasurer--><rect codeLine="83" fill="#FEFECE" filter="url(#f1tur4du8wnudu)" height="52.7734" id="Treasurer" style="stroke:#A80036;stroke-width:1.5;" width="100" x="1874.8056" y="48.5"/><text fill="#000000" font-family="sans-serif" font-size="12" lengthAdjust="spacing" textLength="59" x="1877.8056" y="64.6387">Treasurer</text><rect fill="#FFFFFF" height="15.9688" style="stroke:#000000;stroke-width:1.0;stroke-dasharray:2.0,2.0;" width="33" x="1944.8056" y="45.5"/><text fill="#000000" font-family="sans-serif" font-size="12" font-style="italic" lengthAdjust="spacing" textLength="31" x="1945.8056" y="57.6387">actor</text><line style="stroke:#A80036;stroke-width:1.5;" x1="1875.8056" x2="1973.8056" y1="72.4688" y2="72.4688"/><line style="stroke:#A80036;stroke-width:1.5;" x1="1875.8056" x2="1973.8056" y1="80.4688" y2="80.4688"/><text fill="#000000" font-family="sans-serif" font-size="11" lengthAdjust="spacing" textLength="30" x="1880.8056" y="94.6792">see()</text><!--MD5=[15c6922f6693225acd2805a9f7199676]
class Maintainer--><rect codeLine="38" fill="#FEFECE" filter="url(#f1tur4du8wnudu)" height="116.7969" id="Maintainer" style="stroke:#A80036;stroke-width:1.5;" width="102" x="1592.8056" y="223.5"/><text fill="#000000" font-family="sans-serif" font-size="12" lengthAdjust="spacing" textLength="61" x="1595.8056" y="239.6387">Maintainer</text><rect fill="#FFFFFF" height="15.9688" style="stroke:#000000;stroke-width:1.0;stroke-dasharray:2.0,2.0;" width="33" x="1664.8056" y="220.5"/><text fill="#000000" font-family="sans-serif" font-size="12" font-style="italic" lengthAdjust="spacing" textLength="31" x="1665.8056" y="232.6387">actor</text><line style="stroke:#A80036;stroke-width:1.5;" x1="1593.8056" x2="1693.8056" y1="247.4688" y2="247.4688"/><line style="stroke:#A80036;stroke-width:1.5;" x1="1593.8056" x2="1693.8056" y1="255.4688" y2="255.4688"/><text fill="#000000" font-family="sans-serif" font-size="11" lengthAdjust="spacing" textLength="30" x="1598.8056" y="269.6792">see()</text><text fill="#000000" font-family="sans-serif" font-size="11" lengthAdjust="spacing" textLength="47" x="1598.8056" y="282.4839">access()</text><text fill="#000000" font-family="sans-serif" font-size="11" lengthAdjust="spacing" textLength="40" x="1598.8056" y="295.2886">insert()</text><text fill="#000000" font-family="sans-serif" font-size="11" lengthAdjust="spacing" textLength="46" x="1598.8056" y="308.0933">delete()</text><text fill="#000000" font-family="sans-serif" font-size="11" lengthAdjust="spacing" textLength="47" x="1598.8056" y="320.8979">modify()</text><text fill="#000000" font-family="sans-serif" font-size="11" lengthAdjust="spacing" textLength="37" x="1598.8056" y="333.7026">have()</text><!--MD5=[4741ae9b66e8c8909830097dcbdef570]
class Head--><rect codeLine="19" fill="#FEFECE" filter="url(#f1tur4du8wnudu)" height="39.9688" id="Head" style="stroke:#A80036;stroke-width:1.5;" width="73" x="2010.3056" y="55"/><text fill="#000000" font-family="sans-serif" font-size="12" lengthAdjust="spacing" textLength="32" x="2013.3056" y="71.1387">Head</text><rect fill="#FFFFFF" height="15.9688" style="stroke:#000000;stroke-width:1.0;stroke-dasharray:2.0,2.0;" width="33" x="2053.3056" y="52"/><text fill="#000000" font-family="sans-serif" font-size="12" font-style="italic" lengthAdjust="spacing" textLength="31" x="2054.3056" y="64.1387">actor</text><line style="stroke:#A80036;stroke-width:1.5;" x1="2011.3056" x2="2082.3056" y1="78.9688" y2="78.9688"/><line style="stroke:#A80036;stroke-width:1.5;" x1="2011.3056" x2="2082.3056" y1="86.9688" y2="86.9688"/><!--MD5=[3ec2cd5dff9098f19300dc116133bc22]
class Kid--><rect codeLine="21" fill="#FEFECE" filter="url(#f1tur4du8wnudu)" height="78.3828" id="Kid" style="stroke:#A80036;stroke-width:1.5;" width="56" x="2118.8056" y="36"/><text fill="#000000" font-family="sans-serif" font-size="12" lengthAdjust="spacing" textLength="19" x="2137.3056" y="52.1387">Kid</text><line style="stroke:#A80036;stroke-width:1.5;" x1="2119.8056" x2="2173.8056" y1="59.9688" y2="59.9688"/><text fill="#000000" font-family="sans-serif" font-size="11" lengthAdjust="spacing" textLength="44" x="2124.8056" y="74.1792">account</text><line style="stroke:#A80036;stroke-width:1.5;" x1="2119.8056" x2="2173.8056" y1="80.7734" y2="80.7734"/><text fill="#000000" font-family="sans-serif" font-size="11" lengthAdjust="spacing" textLength="31" x="2124.8056" y="94.9839">sign()</text><text fill="#000000" font-family="sans-serif" font-size="11" lengthAdjust="spacing" textLength="32" x="2124.8056" y="107.7886">post()</text><!--MD5=[104166f47aa431428e733414bdee001c]
class Pdf--><rect codeLine="26" fill="#FEFECE" filter="url(#f1tur4du8wnudu)" height="39.9688" id="Pdf" style="stroke:#A80036;stroke-width:1.5;" width="24" x="28.8036" y="55"/><text fill="#000000" font-family="sans-serif" font-size="12" lengthAdjust="spacing" textLength="18" x="31.8036" y="71.1387">Pdf</text><line style="stroke:#A80036;stroke-width:1.5;" x1="29.8036" x2="51.8036" y1="78.9688" y2="78.9688"/><line style="stroke:#A80036;stroke-width:1.5;" x1="29.8036" x2="51.8036" y1="86.9688" y2="86.9688"/><!--MD5=[f00dbe8c0302c6aec2cb26b3c659c8fc]
class Report--><rect codeLine="28" fill="#FEFECE" filter="url(#f1tur4du8wnudu)" height="39.9688" id="Report" style="stroke:#A80036;stroke-width:1.5;" width="46" x="83.8036" y="262"/><text fill="#000000" font-family="sans-serif" font-size="12" lengthAdjust="spacing" textLength="40" x="86.8036" y="278.1387">Report</text><line style="stroke:#A80036;stroke-width:1.5;" x1="84.8036" x2="128.8036" y1="285.9688" y2="285.9688"/><line style="stroke:#A80036;stroke-width:1.5;" x1="84.8036" x2="128.8036" y1="293.9688" y2="293.9688"/><!--MD5=[028fba31e0312914fa4880b63f0540b8]
class Detail--><rect codeLine="30" fill="#FEFECE" filter="url(#f1tur4du8wnudu)" height="39.9688" id="Detail" style="stroke:#A80036;stroke-width:1.5;" width="40" x="1899.8056" y="424"/><text fill="#000000" font-family="sans-serif" font-size="12" lengthAdjust="spacing" textLength="34" x="1902.8056" y="440.1387">Detail</text><line style="stroke:#A80036;stroke-width:1.5;" x1="1900.8056" x2="1938.8056" y1="447.9688" y2="447.9688"/><line style="stroke:#A80036;stroke-width:1.5;" x1="1900.8056" x2="1938.8056" y1="455.9688" y2="455.9688"/><!--MD5=[30fd7b95ab383a5e7c83ea23d4ea0fbf]
class Information--><rect codeLine="36" fill="#FEFECE" filter="url(#f1tur4du8wnudu)" height="39.9688" id="Information" style="stroke:#A80036;stroke-width:1.5;" width="73" x="504.3036" y="424"/><text fill="#000000" font-family="sans-serif" font-size="12" lengthAdjust="spacing" textLength="67" x="507.3036" y="440.1387">Information</text><line style="stroke:#A80036;stroke-width:1.5;" x1="505.3036" x2="576.3036" y1="447.9688" y2="447.9688"/><line style="stroke:#A80036;stroke-width:1.5;" x1="505.3036" x2="576.3036" y1="455.9688" y2="455.9688"/><!--MD5=[e2e9c2d6464ab1040ab91da7e0e2efc9]
class Swimmer--><rect codeLine="46" fill="#FEFECE" filter="url(#f1tur4du8wnudu)" height="52.7734" id="Swimmer" style="stroke:#A80036;stroke-width:1.5;" width="62" x="2209.8056" y="48.5"/><text fill="#000000" font-family="sans-serif" font-size="12" lengthAdjust="spacing" textLength="56" x="2212.8056" y="64.6387">Swimmer</text><line style="stroke:#A80036;stroke-width:1.5;" x1="2210.8056" x2="2270.8056" y1="72.4688" y2="72.4688"/><line style="stroke:#A80036;stroke-width:1.5;" x1="2210.8056" x2="2270.8056" y1="80.4688" y2="80.4688"/><text fill="#000000" font-family="sans-serif" font-size="11" lengthAdjust="spacing" textLength="31" x="2215.8056" y="94.6792">sign()</text><!--MD5=[ed3afe56f065d25b4329669e73deaf58]
class Database--><rect codeLine="49" fill="#FEFECE" filter="url(#f1tur4du8wnudu)" height="39.9688" id="Database" style="stroke:#A80036;stroke-width:1.5;" width="63" x="1554.3056" y="541"/><text fill="#000000" font-family="sans-serif" font-size="12" lengthAdjust="spacing" textLength="57" x="1557.3056" y="557.1387">Database</text><line style="stroke:#A80036;stroke-width:1.5;" x1="1555.3056" x2="1616.3056" y1="564.9688" y2="564.9688"/><line style="stroke:#A80036;stroke-width:1.5;" x1="1555.3056" x2="1616.3056" y1="572.9688" y2="572.9688"/><!--MD5=[ac13618b1a974308c1f12eb6c57723dc]
class Event--><rect codeLine="58" fill="#FEFECE" filter="url(#f1tur4du8wnudu)" height="39.9688" id="Event" style="stroke:#A80036;stroke-width:1.5;" width="39" x="1161.3056" y="424"/><text fill="#000000" font-family="sans-serif" font-size="12" lengthAdjust="spacing" textLength="33" x="1164.3056" y="440.1387">Event</text><line style="stroke:#A80036;stroke-width:1.5;" x1="1162.3056" x2="1199.3056" y1="447.9688" y2="447.9688"/><line style="stroke:#A80036;stroke-width:1.5;" x1="1162.3056" x2="1199.3056" y1="455.9688" y2="455.9688"/><!--MD5=[dab16d122782a892ddb6ee0eadcd68f0]
class Access--><rect codeLine="60" fill="#FEFECE" filter="url(#f1tur4du8wnudu)" height="39.9688" id="Access" style="stroke:#A80036;stroke-width:1.5;" width="50" x="1357.8056" y="424"/><text fill="#000000" font-family="sans-serif" font-size="12" lengthAdjust="spacing" textLength="44" x="1360.8056" y="440.1387">Access</text><line style="stroke:#A80036;stroke-width:1.5;" x1="1358.8056" x2="1406.8056" y1="447.9688" y2="447.9688"/><line style="stroke:#A80036;stroke-width:1.5;" x1="1358.8056" x2="1406.8056" y1="455.9688" y2="455.9688"/><!--MD5=[bbae0660d3f764e0c1bcc4df40d1fa0c]
class UploadEvent--><rect codeLine="71" fill="#FEFECE" filter="url(#f1tur4du8wnudu)" height="39.9688" id="UploadEvent" style="stroke:#A80036;stroke-width:1.5;" width="82" x="681.8036" y="262"/><text fill="#000000" font-family="sans-serif" font-size="12" lengthAdjust="spacing" textLength="76" x="684.8036" y="278.1387">UploadEvent</text><line style="stroke:#A80036;stroke-width:1.5;" x1="682.8036" x2="762.8036" y1="285.9688" y2="285.9688"/><line style="stroke:#A80036;stroke-width:1.5;" x1="682.8036" x2="762.8036" y1="293.9688" y2="293.9688"/><!--MD5=[2741598bdf59a7d7e0d5c97658fd3022]
class Result--><rect codeLine="73" fill="#FEFECE" filter="url(#f1tur4du8wnudu)" height="39.9688" id="Result" style="stroke:#A80036;stroke-width:1.5;" width="42" x="369.8036" y="262"/><text fill="#000000" font-family="sans-serif" font-size="12" lengthAdjust="spacing" textLength="36" x="372.8036" y="278.1387">Result</text><line style="stroke:#A80036;stroke-width:1.5;" x1="370.8036" x2="410.8036" y1="285.9688" y2="285.9688"/><line style="stroke:#A80036;stroke-width:1.5;" x1="370.8036" x2="410.8036" y1="293.9688" y2="293.9688"/><!--MD5=[7199abd8bdeaafc59146fcd5ddebdbba]
class PayeeInformation--><rect codeLine="75" fill="#FEFECE" filter="url(#f1tur4du8wnudu)" height="39.9688" id="PayeeInformation" style="stroke:#A80036;stroke-width:1.5;" width="109" x="869.3036" y="424"/><text fill="#000000" font-family="sans-serif" font-size="12" lengthAdjust="spacing" textLength="103" x="872.3036" y="440.1387">PayeeInformation</text><line style="stroke:#A80036;stroke-width:1.5;" x1="870.3036" x2="977.3036" y1="447.9688" y2="447.9688"/><line style="stroke:#A80036;stroke-width:1.5;" x1="870.3036" x2="977.3036" y1="455.9688" y2="455.9688"/><!--MD5=[fe9e4bf3c3890c470165de9d5ecb172d]
class Signup--><rect codeLine="80" fill="#FEFECE" filter="url(#f1tur4du8wnudu)" height="52.7734" id="Signup" style="stroke:#A80036;stroke-width:1.5;" width="50" x="909.8036" y="255.5"/><text fill="#000000" font-family="sans-serif" font-size="12" lengthAdjust="spacing" textLength="41" x="914.3036" y="271.6387">Signup</text><line style="stroke:#A80036;stroke-width:1.5;" x1="910.8036" x2="958.8036" y1="279.4688" y2="279.4688"/><line style="stroke:#A80036;stroke-width:1.5;" x1="910.8036" x2="958.8036" y1="287.4688" y2="287.4688"/><text fill="#000000" font-family="sans-serif" font-size="11" lengthAdjust="spacing" textLength="38" x="915.8036" y="301.6792">close()</text><!--MD5=[2770d511fa22a6a61bb54ccdb4cbf396]
class Amount--><rect codeLine="86" fill="#FEFECE" filter="url(#f1tur4du8wnudu)" height="52.7734" id="Amount" style="stroke:#A80036;stroke-width:1.5;" width="57" x="1896.3056" y="255.5"/><text fill="#000000" font-family="sans-serif" font-size="12" lengthAdjust="spacing" textLength="45" x="1902.3056" y="271.6387">Amount</text><line style="stroke:#A80036;stroke-width:1.5;" x1="1897.3056" x2="1952.3056" y1="279.4688" y2="279.4688"/><line style="stroke:#A80036;stroke-width:1.5;" x1="1897.3056" x2="1952.3056" y1="287.4688" y2="287.4688"/><text fill="#000000" font-family="sans-serif" font-size="11" lengthAdjust="spacing" textLength="45" x="1902.3056" y="301.6792">collect()</text><!--MD5=[83d119058829b29a891015d9970ea593]
class Something--><rect codeLine="89" fill="#FEFECE" filter="url(#f1tur4du8wnudu)" height="39.9688" id="Something" style="stroke:#A80036;stroke-width:1.5;" width="70" x="994.8036" y="262"/><text fill="#000000" font-family="sans-serif" font-size="12" lengthAdjust="spacing" textLength="64" x="997.8036" y="278.1387">Something</text><line style="stroke:#A80036;stroke-width:1.5;" x1="995.8036" x2="1063.8036" y1="285.9688" y2="285.9688"/><line style="stroke:#A80036;stroke-width:1.5;" x1="995.8036" x2="1063.8036" y1="293.9688" y2="293.9688"/><!--MD5=[b07065dfc0d0e09965ec10bfc328bb3e]
class Option--><rect codeLine="91" fill="#FEFECE" filter="url(#f1tur4du8wnudu)" height="39.9688" id="Option" style="stroke:#A80036;stroke-width:1.5;" width="46" x="779.8036" y="424"/><text fill="#000000" font-family="sans-serif" font-size="12" lengthAdjust="spacing" textLength="40" x="782.8036" y="440.1387">Option</text><line style="stroke:#A80036;stroke-width:1.5;" x1="780.8036" x2="824.8036" y1="447.9688" y2="447.9688"/><line style="stroke:#A80036;stroke-width:1.5;" x1="780.8036" x2="824.8036" y1="455.9688" y2="455.9688"/><!--MD5=[17c90f3db3a6d0dcb3017decb56e93df]
class CSVFile--><rect codeLine="93" fill="#FEFECE" filter="url(#f1tur4du8wnudu)" height="39.9688" id="CSVFile" style="stroke:#A80036;stroke-width:1.5;" width="51" x="193.3036" y="262"/><text fill="#000000" font-family="sans-serif" font-size="12" lengthAdjust="spacing" textLength="45" x="196.3036" y="278.1387">CSVFile</text><line style="stroke:#A80036;stroke-width:1.5;" x1="194.3036" x2="243.3036" y1="285.9688" y2="285.9688"/><line style="stroke:#A80036;stroke-width:1.5;" x1="194.3036" x2="243.3036" y1="293.9688" y2="293.9688"/><!--MD5=[007886e900a243ece686dc981ec5213f]
class Deadline--><rect codeLine="95" fill="#FEFECE" filter="url(#f1tur4du8wnudu)" height="39.9688" id="Deadline" style="stroke:#A80036;stroke-width:1.5;" width="59" x="2117.3056" y="262"/><text fill="#000000" font-family="sans-serif" font-size="12" lengthAdjust="spacing" textLength="53" x="2120.3056" y="278.1387">Deadline</text><line style="stroke:#A80036;stroke-width:1.5;" x1="2118.3056" x2="2175.3056" y1="285.9688" y2="285.9688"/><line style="stroke:#A80036;stroke-width:1.5;" x1="2118.3056" x2="2175.3056" y1="293.9688" y2="293.9688"/><!--MD5=[3d4177ac58b4411586d067f34e84928f]
class List--><rect codeLine="97" fill="#FEFECE" filter="url(#f1tur4du8wnudu)" height="39.9688" id="List" style="stroke:#A80036;stroke-width:1.5;" width="26" x="305.8036" y="262"/><text fill="#000000" font-family="sans-serif" font-size="12" lengthAdjust="spacing" textLength="20" x="308.8036" y="278.1387">List</text><line style="stroke:#A80036;stroke-width:1.5;" x1="306.8036" x2="330.8036" y1="285.9688" y2="285.9688"/><line style="stroke:#A80036;stroke-width:1.5;" x1="306.8036" x2="330.8036" y1="293.9688" y2="293.9688"/><!--MD5=[2470d439e336eeeed736cf589393d082]
class Documentation--><rect codeLine="99" fill="#FEFECE" filter="url(#f1tur4du8wnudu)" height="39.9688" id="Documentation" style="stroke:#A80036;stroke-width:1.5;" width="96" x="1334.8056" y="541"/><text fill="#000000" font-family="sans-serif" font-size="12" lengthAdjust="spacing" textLength="90" x="1337.8056" y="557.1387">Documentation</text><line style="stroke:#A80036;stroke-width:1.5;" x1="1335.8056" x2="1429.8056" y1="564.9688" y2="564.9688"/><line style="stroke:#A80036;stroke-width:1.5;" x1="1335.8056" x2="1429.8056" y1="572.9688" y2="572.9688"/><!--MD5=[c1d5b66b75d9f9155c77100190525e5e]
class RegistrationKey--><rect codeLine="101" fill="#FEFECE" filter="url(#f1tur4du8wnudu)" height="39.9688" id="RegistrationKey" style="stroke:#A80036;stroke-width:1.5;" width="100" x="1013.8036" y="424"/><text fill="#000000" font-family="sans-serif" font-size="12" lengthAdjust="spacing" textLength="94" x="1016.8036" y="440.1387">RegistrationKey</text><line style="stroke:#A80036;stroke-width:1.5;" x1="1014.8036" x2="1112.8036" y1="447.9688" y2="447.9688"/><line style="stroke:#A80036;stroke-width:1.5;" x1="1014.8036" x2="1112.8036" y1="455.9688" y2="455.9688"/><!--MD5=[dd430f8ffb90486aebcb09d1b4424d44]
class SourceCode--><rect codeLine="103" fill="#FEFECE" filter="url(#f1tur4du8wnudu)" height="39.9688" id="SourceCode" style="stroke:#A80036;stroke-width:1.5;" width="81" x="1218.3056" y="541"/><text fill="#000000" font-family="sans-serif" font-size="12" lengthAdjust="spacing" textLength="75" x="1221.3056" y="557.1387">SourceCode</text><line style="stroke:#A80036;stroke-width:1.5;" x1="1219.3056" x2="1298.3056" y1="564.9688" y2="564.9688"/><line style="stroke:#A80036;stroke-width:1.5;" x1="1219.3056" x2="1298.3056" y1="572.9688" y2="572.9688"/><!--MD5=[78e90f6e87aca7987f8893985a2ae297]
link Coach to Report--><path codeLine="105" d="M518.5706,78.64 C449.4016,84.88 303.3896,105.283 200.8036,170 C165.4716,192.289 136.5506,232.124 120.5084,257.52 " fill="none" id="Coach-to-Report" style="stroke:#A80036;stroke-width:1.0;"/><polygon fill="#A80036" points="117.8549,261.776,126.0107,256.2549,120.5001,257.533,119.222,252.0225,117.8549,261.776" style="stroke:#A80036;stroke-width:1.0;"/><text fill="#000000" font-family="sans-serif" font-size="13" lengthAdjust="spacing" textLength="58" x="201.8036" y="183.0669">generate</text><!--MD5=[29793cb2e6ce1def3d6fecaef4efbf08]
link User to Event--><path codeLine="106" d="M875.0696,331.206 C880.4176,336.812 886.0566,342.225 891.8036,347 C923.8156,373.6 933.8026,379.466 972.8036,394 C1039.7856,418.959 1062.0156,404.564 1130.8056,424 C1139.2356,426.384 1148.2556,429.593 1156.2756,432.695 " fill="none" id="User-to-Event" style="stroke:#A80036;stroke-width:1.0;"/><polygon fill="#A80036" points="1161.1256,434.605,1154.213,427.5895,1156.4723,432.7757,1151.2861,435.0349,1161.1256,434.605" style="stroke:#A80036;stroke-width:1.0;"/><text fill="#000000" font-family="sans-serif" font-size="13" lengthAdjust="spacing" textLength="23" x="973.8036" y="390.0669">see</text><!--MD5=[68b727e90dc450bd3703a6c2977b7229]
link Coach to List--><path codeLine="107" d="M518.7266,85.411 C474.9726,97.833 404.6056,123.74 361.8036,170 C339.1346,194.5 327.9536,232.268 322.7886,256.811 " fill="none" id="Coach-to-List" style="stroke:#A80036;stroke-width:1.0;"/><polygon fill="#A80036" points="321.7756,261.837,327.476,253.8055,322.7641,256.9357,319.6339,252.2238,321.7756,261.837" style="stroke:#A80036;stroke-width:1.0;"/><text fill="#000000" font-family="sans-serif" font-size="13" lengthAdjust="spacing" textLength="24" x="362.8036" y="183.0669">edit</text><!--MD5=[abae23d96a0853e69062204dc0fdc884]
link Access to Documentation--><path codeLine="108" d="M1381.7156,464.059 C1381.0856,477.24 1380.4856,495.1835 1380.8056,511 C1380.9656,519.0228 1381.2856,527.7799 1381.6156,535.6431 " fill="none" id="Access-to-Documentation" style="stroke:#A80036;stroke-width:1.0;"/><polygon fill="#A80036" points="1381.8456,540.9241,1385.449,531.7581,1381.6274,535.9289,1377.4566,532.1073,1381.8456,540.9241" style="stroke:#A80036;stroke-width:1.0;"/><text fill="#000000" font-family="sans-serif" font-size="13" lengthAdjust="spacing" textLength="13" x="1381.8056" y="507.0669">to</text><!--MD5=[b9edcce955a9b6d76b95eb1ba2520770]
link Maintainer to Database--><path codeLine="109" d="M1592.5056,318.387 C1560.6556,343.656 1522.5356,380.746 1504.8056,424 C1487.3956,466.464 1527.1656,511.4014 1556.9256,537.5143 " fill="none" id="Maintainer-to-Database" style="stroke:#A80036;stroke-width:1.0;"/><polygon fill="#A80036" points="1560.8656,540.9157,1556.6524,532.0135,1557.0755,537.6545,1551.4345,538.0777,1560.8656,540.9157" style="stroke:#A80036;stroke-width:1.0;"/><text fill="#000000" font-family="sans-serif" font-size="13" lengthAdjust="spacing" textLength="36" x="1505.8056" y="448.5669">insert</text><!--MD5=[b9edcce955a9b6d76b95eb1ba2520770]
link Maintainer to Database--><path codeLine="111" d="M1694.9356,324.238 C1731.3156,358.904 1771.3556,411.14 1756.8056,464 C1750.3456,487.4427 1747.6856,495.6767 1728.8056,511 C1698.0856,535.9366 1653.9456,548.4968 1622.8456,554.6091 " fill="none" id="Maintainer-to-Database-1" style="stroke:#A80036;stroke-width:1.0;"/><polygon fill="#A80036" points="1617.5856,555.6063,1627.1719,557.8651,1622.4986,554.6776,1625.6861,550.0043,1617.5856,555.6063" style="stroke:#A80036;stroke-width:1.0;"/><text fill="#000000" font-family="sans-serif" font-size="13" lengthAdjust="spacing" textLength="40" x="1761.8056" y="448.5669">delete</text><!--MD5=[b9edcce955a9b6d76b95eb1ba2520770]
link Maintainer to Database--><path codeLine="113" d="M1630.8656,340.568 C1625.2056,366.1 1618.5556,396.523 1612.8056,424 C1604.6756,462.877 1595.8056,508.1365 1590.5256,535.4005 " fill="none" id="Maintainer-to-Database-2" style="stroke:#A80036;stroke-width:1.0;"/><polygon fill="#A80036" points="1589.5256,540.6062,1595.1591,532.5276,1590.4734,535.6968,1587.3041,531.0112,1589.5256,540.6062" style="stroke:#A80036;stroke-width:1.0;"/><text fill="#000000" font-family="sans-serif" font-size="13" lengthAdjust="spacing" textLength="45" x="1613.8056" y="448.5669">modify</text><!--MD5=[b9edcce955a9b6d76b95eb1ba2520770]
link Maintainer to Database--><path codeLine="119" d="M1662.9656,340.758 C1671.9256,377.069 1677.8756,424.376 1663.8056,464 C1653.5856,492.7854 1630.6356,519.2205 1612.2656,537.0302 " fill="none" id="Maintainer-to-Database-3" style="stroke:#A80036;stroke-width:1.0;"/><polygon fill="#A80036" points="1608.1856,540.9203,1617.4568,537.597,1611.8015,537.467,1611.9315,531.8116,1608.1856,540.9203" style="stroke:#A80036;stroke-width:1.0;"/><text fill="#000000" font-family="sans-serif" font-size="13" lengthAdjust="spacing" textLength="44" x="1672.8056" y="448.5669">access</text><!--MD5=[3ce573af109d62397667c5235c20ebbd]
link Maintainer to Detail--><path codeLine="110" d="M1694.9056,303.96 C1735.0256,321.306 1791.6356,347.769 1837.8056,377 C1858.4456,390.068 1879.8856,407.483 1895.6656,421.144 " fill="none" id="Maintainer-to-Detail" style="stroke:#A80036;stroke-width:1.0;"/><polygon fill="#A80036" points="1899.5456,424.531,1895.3906,415.6015,1895.7769,421.2452,1890.1332,421.6315,1899.5456,424.531" style="stroke:#A80036;stroke-width:1.0;"/><text fill="#000000" font-family="sans-serif" font-size="13" lengthAdjust="spacing" textLength="23" x="1862.8056" y="390.0669">see</text><!--MD5=[48aa2310ddd8461e4146c9f6ce0dc0f9]
link Parent to RegistrationKey--><path codeLine="112" d="M1127.3956,315.454 C1109.6656,332.085 1090.0256,353.72 1077.8056,377 C1071.0256,389.909 1067.5256,405.868 1065.7256,418.86 " fill="none" id="Parent-to-RegistrationKey" style="stroke:#A80036;stroke-width:1.0;"/><polygon fill="#A80036" points="1065.0956,423.862,1070.1936,415.4352,1065.7232,418.9015,1062.2568,414.4311,1065.0956,423.862" style="stroke:#A80036;stroke-width:1.0;"/><text fill="#000000" font-family="sans-serif" font-size="13" lengthAdjust="spacing" textLength="88" x="1078.8056" y="390.0669">supported_by</text><!--MD5=[2c270355e0f703b742f775700c5ed821]
link Coach to Signup--><path codeLine="114" d="M596.8386,84.035 C663.9326,99.533 802.5086,139.118 891.8036,217 C902.5796,226.399 911.8496,239.097 918.9936,250.705 " fill="none" id="Coach-to-Signup" style="stroke:#A80036;stroke-width:1.0;"/><polygon fill="#A80036" points="921.7256,255.26,920.528,245.4842,919.1544,250.9718,913.6668,249.5982,921.7256,255.26" style="stroke:#A80036;stroke-width:1.0;"/><text fill="#000000" font-family="sans-serif" font-size="13" lengthAdjust="spacing" textLength="44" x="845.8036" y="183.0669">expect</text><!--MD5=[f714b4ba3e4614497761132c9b42334b]
reverse link Amount to Detail--><path codeLine="115" d="M1923.5956,321.71 C1922.5856,354.039 1921.1856,398.761 1920.4056,423.884 " fill="none" id="Amount-backto-Detail" style="stroke:#A80036;stroke-width:1.0;"/><polygon fill="#FFFFFF" points="1923.9956,308.707,1919.8097,314.5788,1923.62,320.7011,1927.8058,314.8293,1923.9956,308.707" style="stroke:#A80036;stroke-width:1.0;"/><!--MD5=[7ad539e097214a1b341b38a5573035d8]
link Parent to Event--><path codeLine="116" d="M1172.4156,347.156 C1174.6156,372.268 1177.0056,399.55 1178.6656,418.561 " fill="none" id="Parent-to-Event" style="stroke:#A80036;stroke-width:1.0;"/><polygon fill="#A80036" points="1179.1156,423.695,1182.3169,414.3809,1178.6803,418.714,1174.3472,415.0774,1179.1156,423.695" style="stroke:#A80036;stroke-width:1.0;"/><text fill="#000000" font-family="sans-serif" font-size="13" lengthAdjust="spacing" textLength="24" x="1177.8056" y="390.0669">edit</text><!--MD5=[7ad539e097214a1b341b38a5573035d8]
link Parent to Event--><path codeLine="122" d="M1198.8556,347.086 C1202.5456,356.895 1205.7356,367.065 1207.8056,377 C1210.8656,391.679 1204.9856,407.243 1197.9356,419.568 " fill="none" id="Parent-to-Event-1" style="stroke:#A80036;stroke-width:1.0;"/><polygon fill="#A80036" points="1195.3056,423.954,1203.3688,418.2985,1197.8802,419.6678,1196.5109,414.1792,1195.3056,423.954" style="stroke:#A80036;stroke-width:1.0;"/><text fill="#000000" font-family="sans-serif" font-size="13" lengthAdjust="spacing" textLength="30" x="1209.8056" y="390.0669">view</text><!--MD5=[ea3332a70ab11c1c90b7cc0973226790]
link Treasurer to Amount--><path codeLine="117" d="M1924.8056,101.549 C1924.8056,139.247 1924.8056,209.672 1924.8056,250.182 " fill="none" id="Treasurer-to-Amount" style="stroke:#A80036;stroke-width:1.0;"/><polygon fill="#A80036" points="1924.8056,255.452,1928.8056,246.452,1924.8056,250.452,1920.8056,246.452,1924.8056,255.452" style="stroke:#A80036;stroke-width:1.0;"/><text fill="#000000" font-family="sans-serif" font-size="13" lengthAdjust="spacing" textLength="23" x="1925.8056" y="183.0669">see</text><!--MD5=[425dc0b778281341be66d257182d8d3c]
link Access to Database--><path codeLine="118" d="M1394.0756,464.009 C1403.7156,478.752 1418.8556,498.6866 1436.8056,511 C1471.0156,534.4726 1517.2756,547.3613 1549.1256,553.9503 " fill="none" id="Access-to-Database" style="stroke:#A80036;stroke-width:1.0;"/><polygon fill="#A80036" points="1554.1156,554.9544,1546.0809,549.2585,1549.2137,553.9686,1544.5036,557.1014,1554.1156,554.9544" style="stroke:#A80036;stroke-width:1.0;"/><text fill="#000000" font-family="sans-serif" font-size="13" lengthAdjust="spacing" textLength="13" x="1437.8056" y="507.0669">to</text><!--MD5=[e7e307efb6759edae2f8b445f58375f5]
link Access to SourceCode--><path codeLine="120" d="M1362.0456,464.248 C1340.4156,484.3158 1306.5056,515.7592 1283.5056,537.0921 " fill="none" id="Access-to-SourceCode" style="stroke:#A80036;stroke-width:1.0;"/><polygon fill="#A80036" points="1279.6256,540.6888,1288.9445,537.5018,1283.2917,537.2888,1283.5046,531.636,1279.6256,540.6888" style="stroke:#A80036;stroke-width:1.0;"/><text fill="#000000" font-family="sans-serif" font-size="13" lengthAdjust="spacing" textLength="13" x="1329.8056" y="507.0669">to</text><!--MD5=[0d6360b542ad5af83d2942dda55fbbbe]
link Maintainer to Access--><path codeLine="121" d="M1592.5656,293.665 C1542.8456,306.263 1467.7556,331.507 1417.8056,377 C1405.3356,388.355 1396.5056,405.203 1390.8256,419.034 " fill="none" id="Maintainer-to-Access" style="stroke:#A80036;stroke-width:1.0;"/><polygon fill="#A80036" points="1388.8856,423.977,1395.9037,417.0671,1390.7167,419.3244,1388.4594,414.1374,1388.8856,423.977" style="stroke:#A80036;stroke-width:1.0;"/><text fill="#000000" font-family="sans-serif" font-size="13" lengthAdjust="spacing" textLength="32" x="1418.8056" y="390.0669">have</text><!--MD5=[70528e57268fa72302a83420812e0ce2]
link Coach to Information--><path codeLine="123" d="M550.6846,140.27 C547.4336,156.05 542.6986,172.549 535.8036,187 C528.3296,202.664 516.7116,200.681 510.8036,217 C491.1346,271.327 502.0866,289.884 510.8036,347 C514.6646,372.302 523.9396,400.102 531.1626,419.244 " fill="none" id="Coach-to-Information" style="stroke:#A80036;stroke-width:1.0;"/><polygon fill="#A80036" points="532.9506,423.918,533.4723,414.083,531.1648,419.2478,526,416.9402,532.9506,423.918" style="stroke:#A80036;stroke-width:1.0;"/><text fill="#000000" font-family="sans-serif" font-size="13" lengthAdjust="spacing" textLength="43" x="511.8036" y="286.5669">review</text><!--MD5=[70528e57268fa72302a83420812e0ce2]
link Coach to Information--><path codeLine="128" d="M563.9966,140.171 C564.7476,150.148 565.3936,160.345 565.8036,170 C569.1436,248.641 568.9476,268.821 559.8036,347 C556.9346,371.525 551.1996,399.145 546.7776,418.441 " fill="none" id="Coach-to-Information-1" style="stroke:#A80036;stroke-width:1.0;"/><polygon fill="#A80036" points="545.5686,423.653,551.4993,415.79,546.6987,418.7824,543.7064,413.9818,545.5686,423.653" style="stroke:#A80036;stroke-width:1.0;"/><text fill="#000000" font-family="sans-serif" font-size="13" lengthAdjust="spacing" textLength="46" x="568.8036" y="286.5669">extract</text><!--MD5=[78a52406a36f6cf04aed5519faebdc07]
link Coach to User--><path codeLine="124" d="M597.1866,96.345 C643.6456,121.339 721.9926,166.665 780.8036,217 C785.6306,221.131 790.4166,225.682 795.0396,230.394 " fill="none" id="Coach-to-User" style="stroke:#A80036;stroke-width:1.0;"/><polygon fill="#A80036" points="798.5416,234.025,795.1738,224.7698,795.0709,230.4258,789.415,230.3229,798.5416,234.025" style="stroke:#A80036;stroke-width:1.0;"/><text fill="#000000" font-family="sans-serif" font-size="13" lengthAdjust="spacing" textLength="44" x="742.8036" y="183.0669">expect</text><!--MD5=[804ec953b581dab3d9d34740c155a64c]
reverse link Pdf to Information--><path codeLine="125" d="M32.868,107.922 C21.0174,163.963 6,280.4 65.8036,347 C124.4736,412.338 403.3006,434.952 504.2286,441.074 " fill="none" id="Pdf-backto-Information" style="stroke:#A80036;stroke-width:1.0;"/><polygon fill="#FFFFFF" points="35.7651,95.042,30.5459,100.0179,33.1317,106.7495,38.3509,101.7735,35.7651,95.042" style="stroke:#A80036;stroke-width:1.0;"/><!--MD5=[ba2759c70f4e4900e1ad013881ae84ef]
link Coach to Result--><path codeLine="126" d="M518.3616,115.084 C502.4056,131.542 484.1656,151.208 468.8036,170 C445.1856,198.891 420.9246,234.538 405.8636,257.512 " fill="none" id="Coach-to-Result" style="stroke:#A80036;stroke-width:1.0;"/><polygon fill="#A80036" points="402.9776,261.932,411.2485,256.5848,405.7121,257.746,404.5509,252.2096,402.9776,261.932" style="stroke:#A80036;stroke-width:1.0;"/><text fill="#000000" font-family="sans-serif" font-size="13" lengthAdjust="spacing" textLength="61" x="469.8036" y="183.0669">overwrite</text><!--MD5=[ba2759c70f4e4900e1ad013881ae84ef]
link Coach to Result--><path codeLine="132" d="M518.7866,88.335 C482.2836,102.073 429.4976,128.047 402.8036,170 C386.2616,195.998 385.6376,232.513 387.5396,256.457 " fill="none" id="Coach-to-Result-1" style="stroke:#A80036;stroke-width:1.0;"/><polygon fill="#A80036" points="388.0096,261.664,391.1861,252.3414,387.561,256.6842,383.2183,253.0591,388.0096,261.664" style="stroke:#A80036;stroke-width:1.0;"/><text fill="#000000" font-family="sans-serif" font-size="13" lengthAdjust="spacing" textLength="45" x="403.8036" y="183.0669">modify</text><!--MD5=[8128ff01d6e77007886a3e001ed5f514]
link Parent to Parent--><path codeLine="127" d="M1206.0156,263.296 C1224.5356,261.123 1240.8056,267.357 1240.8056,282 C1240.8056,295.27 1227.4456,301.634 1211.1556,301.093 " fill="none" id="Parent-to-Parent" style="stroke:#A80036;stroke-width:1.0;"/><polygon fill="#A80036" points="1206.0156,300.704,1214.6803,305.3863,1211.0007,301.0897,1215.2973,297.4101,1206.0156,300.704" style="stroke:#A80036;stroke-width:1.0;"/><text fill="#000000" font-family="sans-serif" font-size="13" lengthAdjust="spacing" textLength="23" x="1246.8056" y="286.5669">see</text><!--MD5=[cadfa5746845296d6faf1ef2189e10e8]
link Coach to Something--><path codeLine="129" d="M596.8066,83.131 C661.3966,95.729 793.8506,124.927 898.8036,170 C935.9926,185.971 946.1286,190.596 976.8036,217 C990.6546,228.923 1003.7756,244.717 1013.4966,257.632 " fill="none" id="Coach-to-Something" style="stroke:#A80036;stroke-width:1.0;"/><polygon fill="#A80036" points="1016.6596,261.892,1014.5046,252.2818,1013.6784,257.878,1008.0822,257.0518,1016.6596,261.892" style="stroke:#A80036;stroke-width:1.0;"/><text fill="#000000" font-family="sans-serif" font-size="13" lengthAdjust="spacing" textLength="45" x="936.8036" y="183.0669">modify</text><!--MD5=[ef8902237974c6412685fef6c4f6d564]
link Coach to UploadEvent--><path codeLine="130" d="M596.9066,124.582 C630.7426,166.621 678.1946,225.577 704.1056,257.769 " fill="none" id="Coach-to-UploadEvent" style="stroke:#A80036;stroke-width:1.0;"/><polygon fill="#A80036" points="707.4626,261.94,704.9337,252.4214,704.3268,258.0456,698.7026,257.4387,707.4626,261.94" style="stroke:#A80036;stroke-width:1.0;"/><text fill="#000000" font-family="sans-serif" font-size="13" lengthAdjust="spacing" textLength="46" x="646.8036" y="183.0669">extract</text><!--MD5=[2d3d24ce923cffcb9d23da37a39a64b9]
link User to Option--><path codeLine="131" d="M812.6666,334.17 C807.3606,347.789 802.5166,362.698 799.8036,377 C798.3956,384.423 799.5726,386.448 799.8036,394 C800.0496,402.029 800.5206,410.788 801.0186,418.651 " fill="none" id="User-to-Option" style="stroke:#A80036;stroke-width:1.0;"/><polygon fill="#A80036" points="801.3646,423.931,804.7673,414.6886,801.0375,418.9417,796.7844,415.212,801.3646,423.931" style="stroke:#A80036;stroke-width:1.0;"/><text fill="#000000" font-family="sans-serif" font-size="13" lengthAdjust="spacing" textLength="23" x="800.8036" y="390.0669">see</text><!--MD5=[ac01ebd869ff7834bbc2ad120230ff74]
link Coach to CSVFile--><path codeLine="133" d="M518.5036,80.605 C460.9946,89.135 353.1246,112.13 282.8036,170 C254.7846,193.058 236.4876,231.8 226.8986,256.876 " fill="none" id="Coach-to-CSVFile" style="stroke:#A80036;stroke-width:1.0;"/><polygon fill="#A80036" points="225.0976,261.7,231.995,254.6697,226.8479,257.0164,224.5012,251.8692,225.0976,261.7" style="stroke:#A80036;stroke-width:1.0;"/><text fill="#000000" font-family="sans-serif" font-size="13" lengthAdjust="spacing" textLength="58" x="283.8036" y="183.0669">generate</text><!--MD5=[757f4a3842766097e771b234c7cf3718]
link Parent to PayeeInformation--><path codeLine="134" d="M1127.6456,313.834 C1113.4456,324.655 1097.1256,336.678 1081.8056,347 C1060.3156,361.481 1053.9756,363.576 1031.8056,377 C1007.5866,391.664 980.3916,408.285 959.3486,421.178 " fill="none" id="Parent-to-PayeeInformation" style="stroke:#A80036;stroke-width:1.0;"/><polygon fill="#A80036" points="954.9546,423.871,964.7182,422.5781,959.2175,421.2581,960.5376,415.7574,954.9546,423.871" style="stroke:#A80036;stroke-width:1.0;"/><text fill="#000000" font-family="sans-serif" font-size="13" lengthAdjust="spacing" textLength="30" x="1032.8056" y="390.0669">view</text><!--MD5=[022ef1b79267921c3fabef61ab19b494]
link Kid to Deadline--><path codeLine="135" d="M2146.8056,114.078 C2146.8056,155.734 2146.8056,221.262 2146.8056,256.549 " fill="none" id="Kid-to-Deadline" style="stroke:#A80036;stroke-width:1.0;"/><polygon fill="#A80036" points="2146.8056,261.945,2150.8056,252.945,2146.8056,256.945,2142.8056,252.945,2146.8056,261.945" style="stroke:#A80036;stroke-width:1.0;"/><text fill="#000000" font-family="sans-serif" font-size="13" lengthAdjust="spacing" textLength="28" x="2147.8056" y="183.0669">post</text><!--MD5=[87124c9ddd046e983f03a9e038c77925]
reverse link User to Information--><path codeLine="136" d="M789.1606,340.501 C786.4336,342.807 783.6426,344.989 780.8036,347 C716.3496,392.649 627.0826,420.906 577.5846,434.108 " fill="none" id="User-backto-Information" style="stroke:#A80036;stroke-width:1.0;"/><polygon fill="#FFFFFF" points="798.7316,331.698,791.6076,332.8154,789.899,339.8211,797.023,338.7038,798.7316,331.698" style="stroke:#A80036;stroke-width:1.0;"/><text fill="#000000" font-family="sans-serif" font-size="13" lengthAdjust="spacing" textLength="44" x="727.8036" y="390.0669">expect</text><!--MD5=[fdfd39a9d6d1a2526fc5718c3a3a0733]
link Developer to Access--><path codeLine="137" d="M1341.0156,308.924 C1337.0456,331.945 1334.0756,366.155 1343.8056,394 C1347.0756,403.353 1352.9556,412.256 1359.1756,419.845 " fill="none" id="Developer-to-Access" style="stroke:#A80036;stroke-width:1.0;"/><polygon fill="#A80036" points="1362.6556,423.92,1359.8519,414.4786,1359.4082,420.1181,1353.7688,419.6744,1362.6556,423.92" style="stroke:#A80036;stroke-width:1.0;"/><text fill="#000000" font-family="sans-serif" font-size="13" lengthAdjust="spacing" textLength="32" x="1344.8056" y="390.0669">have</text><!--MD5=[1888ef3d999ca7f75ec7017ef8e346d1]
reverse link Pdf to Report--><path codeLine="138" d="M51.0416,107.8 C64.929,150.935 89.304,226.645 100.6591,261.915 " fill="none" id="Pdf-backto-Report" style="stroke:#A80036;stroke-width:1.0;"/><polygon fill="#FFFFFF" points="47.0127,95.286,45.0441,102.2232,50.6905,106.7085,52.6591,99.7713,47.0127,95.286" style="stroke:#A80036;stroke-width:1.0;"/><!--MD5=[9cc4329b9f2584b84ca5752ece0467f7]
@startuml
hide circle
class User<actor> {
	information
	kid
	swimmer
}
class Coach<actor> {
}
class Developer<actor> {
}
class Parent<actor> {
	account
	kid
}
class Treasurer<actor> {
}
class Maintainer<actor> {
}
class Head<actor> {
}
class Kid {
	account
	sign()
	post()
}
class Pdf {
}
class Report {
}
class Detail {
}
class User {
	expect()
	see()
}
class Information {
}
class Maintainer {
	see()
	access()
	insert()
	delete()
	modify()
	have()
}
class Swimmer {
	sign()
}
class Database {
}
class Parent {
	sign()
	login()
	see()
	edit()
	view()
}
class Event {
}
class Access {
}
class Coach {
	overwrite()
	generate()
	expect()
	review()
	extract()
	modify()
	edit()
}
class UploadEvent {
}
class Result {
}
class PayeeInformation {
}
class Developer {
	have()
}
class Signup {
	close()
}
class Treasurer {
	see()
}
class Amount {
	collect()
}
class Something {
}
class Option {
}
class CSVFile {
}
class Deadline {
}
class List {
}
class Documentation {
}
class RegistrationKey {
}
class SourceCode {
}
Coach - -> Report : generate
User - -> Event : see
Coach - -> List : edit
Access - -> Documentation : to
Maintainer - -> Database : insert
Maintainer - -> Detail : see
Maintainer - -> Database : delete
Parent - -> RegistrationKey : supported_by
Maintainer - -> Database : modify
Coach - -> Signup : expect
Amount o- - Detail
Parent - -> Event : edit
Treasurer - -> Amount : see
Access - -> Database : to
Maintainer - -> Database : access
Access - -> SourceCode : to
Maintainer - -> Access : have
Parent - -> Event : view
Coach - -> Information : review
Coach - -> User : expect
Pdf o- - Information
Coach - -> Result : overwrite
Parent - -> Parent : see
Coach - -> Information : extract
Coach - -> Something : modify
Coach - -> UploadEvent : extract
User - -> Option : see
Coach - -> Result : modify
Coach - -> CSVFile : generate
Parent - -> PayeeInformation : view
Kid - -> Deadline : post
User o- - Information : expect
Developer - -> Access : have
Pdf o- - Report
@enduml

PlantUML version 1.2021.10beta5(Unknown compile time)
(GPL source distribution)
Java Runtime: Java(TM) SE Runtime Environment
JVM: Java HotSpot(TM) 64-Bit Server VM
Default Encoding: UTF-8
Language: en
Country: US
--></g></svg>