<?xml version="1.0" encoding="UTF-8" standalone="no"?><svg xmlns="http://www.w3.org/2000/svg" xmlns:xlink="http://www.w3.org/1999/xlink" contentScriptType="application/ecmascript" contentStyleType="text/css" height="551px" preserveAspectRatio="none" style="width:1356px;height:551px;background:#FFFFFF;" version="1.1" viewBox="0 0 1356 551" width="1356px" zoomAndPan="magnify"><defs><filter height="300%" id="fzixk0d4mnlfr" width="300%" x="-1" y="-1"><feGaussianBlur result="blurOut" stdDeviation="2.0"/><feColorMatrix in="blurOut" result="blurOut2" type="matrix" values="0 0 0 0 0 0 0 0 0 0 0 0 0 0 0 0 0 0 .4 0"/><feOffset dx="4.0" dy="4.0" in="blurOut2" result="blurOut3"/><feBlend in="SourceGraphic" in2="blurOut3" mode="normal"/></filter></defs><g><!--MD5=[d342058c8fb6f80e9d50d673c6908241]
class Developer--><rect codeLine="55" fill="#FEFECE" filter="url(#fzixk0d4mnlfr)" height="52.7734" id="Developer" style="stroke:#A80036;stroke-width:1.5;" width="105" x="7" y="29"/><text fill="#000000" font-family="sans-serif" font-size="12" lengthAdjust="spacing" textLength="64" x="10" y="45.1387">Developer</text><rect fill="#FFFFFF" height="15.9688" style="stroke:#000000;stroke-width:1.0;stroke-dasharray:2.0,2.0;" width="33" x="82" y="26"/><text fill="#000000" font-family="sans-serif" font-size="12" font-style="italic" lengthAdjust="spacing" textLength="31" x="83" y="38.1387">actor</text><line style="stroke:#A80036;stroke-width:1.5;" x1="8" x2="111" y1="52.9688" y2="52.9688"/><line style="stroke:#A80036;stroke-width:1.5;" x1="8" x2="111" y1="60.9688" y2="60.9688"/><text fill="#000000" font-family="sans-serif" font-size="11" lengthAdjust="spacing" textLength="44" x="13" y="75.1792">import()</text><!--MD5=[db6d18d8099558415abc41d00477ab92]
class Admin--><rect codeLine="40" fill="#FEFECE" filter="url(#fzixk0d4mnlfr)" height="91.1875" id="Admin" style="stroke:#A80036;stroke-width:1.5;" width="78" x="324.5" y="10"/><text fill="#000000" font-family="sans-serif" font-size="12" lengthAdjust="spacing" textLength="37" x="327.5" y="26.1387">Admin</text><rect fill="#FFFFFF" height="15.9688" style="stroke:#000000;stroke-width:1.0;stroke-dasharray:2.0,2.0;" width="33" x="372.5" y="7"/><text fill="#000000" font-family="sans-serif" font-size="12" font-style="italic" lengthAdjust="spacing" textLength="31" x="373.5" y="19.1387">actor</text><line style="stroke:#A80036;stroke-width:1.5;" x1="325.5" x2="401.5" y1="33.9688" y2="33.9688"/><line style="stroke:#A80036;stroke-width:1.5;" x1="325.5" x2="401.5" y1="41.9688" y2="41.9688"/><text fill="#000000" font-family="sans-serif" font-size="11" lengthAdjust="spacing" textLength="29" x="330.5" y="56.1792">add()</text><text fill="#000000" font-family="sans-serif" font-size="11" lengthAdjust="spacing" textLength="50" x="330.5" y="68.9839">change()</text><text fill="#000000" font-family="sans-serif" font-size="11" lengthAdjust="spacing" textLength="34" x="330.5" y="81.7886">read()</text><text fill="#000000" font-family="sans-serif" font-size="11" lengthAdjust="spacing" textLength="53" x="330.5" y="94.5933">reserve()</text><!--MD5=[d20e61c3df8b8f47d0b4e5ec2b6a1cdb]
class Volunteer--><rect codeLine="48" fill="#FEFECE" filter="url(#fzixk0d4mnlfr)" height="78.3828" id="Volunteer" style="stroke:#A80036;stroke-width:1.5;" width="99" x="1011" y="16.5"/><text fill="#000000" font-family="sans-serif" font-size="12" lengthAdjust="spacing" textLength="58" x="1014" y="32.6387">Volunteer</text><rect fill="#FFFFFF" height="15.9688" style="stroke:#000000;stroke-width:1.0;stroke-dasharray:2.0,2.0;" width="33" x="1080" y="13.5"/><text fill="#000000" font-family="sans-serif" font-size="12" font-style="italic" lengthAdjust="spacing" textLength="31" x="1081" y="25.6387">actor</text><line style="stroke:#A80036;stroke-width:1.5;" x1="1012" x2="1109" y1="40.4688" y2="40.4688"/><line style="stroke:#A80036;stroke-width:1.5;" x1="1012" x2="1109" y1="48.4688" y2="48.4688"/><text fill="#000000" font-family="sans-serif" font-size="11" lengthAdjust="spacing" textLength="41" x="1017" y="62.6792">check()</text><text fill="#000000" font-family="sans-serif" font-size="11" lengthAdjust="spacing" textLength="35" x="1017" y="75.4839">view()</text><text fill="#000000" font-family="sans-serif" font-size="11" lengthAdjust="spacing" textLength="59" x="1017" y="88.2886">manager()</text><!--MD5=[b24ed8d4ae84bae9290d9aab401637c7]
class Manager--><rect codeLine="28" fill="#FEFECE" filter="url(#fzixk0d4mnlfr)" height="65.5781" id="Manager" style="stroke:#A80036;stroke-width:1.5;" width="93" x="1239" y="22.5"/><text fill="#000000" font-family="sans-serif" font-size="12" lengthAdjust="spacing" textLength="52" x="1242" y="38.6387">Manager</text><rect fill="#FFFFFF" height="15.9688" style="stroke:#000000;stroke-width:1.0;stroke-dasharray:2.0,2.0;" width="33" x="1302" y="19.5"/><text fill="#000000" font-family="sans-serif" font-size="12" font-style="italic" lengthAdjust="spacing" textLength="31" x="1303" y="31.6387">actor</text><line style="stroke:#A80036;stroke-width:1.5;" x1="1240" x2="1331" y1="46.4688" y2="46.4688"/><line style="stroke:#A80036;stroke-width:1.5;" x1="1240" x2="1331" y1="54.4688" y2="54.4688"/><text fill="#000000" font-family="sans-serif" font-size="11" lengthAdjust="spacing" textLength="32" x="1245" y="68.6792">click()</text><text fill="#000000" font-family="sans-serif" font-size="11" lengthAdjust="spacing" textLength="40" x="1245" y="81.4839">email()</text><!--MD5=[3fd616f346a44cd59a91eb10b19e157c]
class User--><rect codeLine="16" fill="#FEFECE" filter="url(#fzixk0d4mnlfr)" height="142.4063" id="User" style="stroke:#A80036;stroke-width:1.5;" width="70" x="525.5" y="178"/><text fill="#000000" font-family="sans-serif" font-size="12" lengthAdjust="spacing" textLength="29" x="528.5" y="194.1387">User</text><rect fill="#FFFFFF" height="15.9688" style="stroke:#000000;stroke-width:1.0;stroke-dasharray:2.0,2.0;" width="33" x="565.5" y="175"/><text fill="#000000" font-family="sans-serif" font-size="12" font-style="italic" lengthAdjust="spacing" textLength="31" x="566.5" y="187.1387">actor</text><line style="stroke:#A80036;stroke-width:1.5;" x1="526.5" x2="594.5" y1="201.9688" y2="201.9688"/><line style="stroke:#A80036;stroke-width:1.5;" x1="526.5" x2="594.5" y1="209.9688" y2="209.9688"/><text fill="#000000" font-family="sans-serif" font-size="11" lengthAdjust="spacing" textLength="49" x="531.5" y="224.1792">browse()</text><text fill="#000000" font-family="sans-serif" font-size="11" lengthAdjust="spacing" textLength="32" x="531.5" y="236.9839">click()</text><text fill="#000000" font-family="sans-serif" font-size="11" lengthAdjust="spacing" textLength="27" x="531.5" y="249.7886">get()</text><text fill="#000000" font-family="sans-serif" font-size="11" lengthAdjust="spacing" textLength="52" x="531.5" y="262.5933">request()</text><text fill="#000000" font-family="sans-serif" font-size="11" lengthAdjust="spacing" textLength="46" x="531.5" y="275.3979">search()</text><text fill="#000000" font-family="sans-serif" font-size="11" lengthAdjust="spacing" textLength="48" x="531.5" y="288.2026">update()</text><text fill="#000000" font-family="sans-serif" font-size="11" lengthAdjust="spacing" textLength="35" x="531.5" y="301.0073">view()</text><text fill="#000000" font-family="sans-serif" font-size="11" lengthAdjust="spacing" textLength="42" x="531.5" y="313.812">return()</text><!--MD5=[b5b9fe6137fa780f712b03145b11f121]
class AdminUser--><rect codeLine="68" fill="#FEFECE" filter="url(#fzixk0d4mnlfr)" height="39.9688" id="AdminUser" style="stroke:#A80036;stroke-width:1.5;" width="107" x="821" y="35.5"/><text fill="#000000" font-family="sans-serif" font-size="12" lengthAdjust="spacing" textLength="66" x="824" y="51.6387">AdminUser</text><rect fill="#FFFFFF" height="15.9688" style="stroke:#000000;stroke-width:1.0;stroke-dasharray:2.0,2.0;" width="33" x="898" y="32.5"/><text fill="#000000" font-family="sans-serif" font-size="12" font-style="italic" lengthAdjust="spacing" textLength="31" x="899" y="44.6387">actor</text><line style="stroke:#A80036;stroke-width:1.5;" x1="822" x2="927" y1="59.4688" y2="59.4688"/><line style="stroke:#A80036;stroke-width:1.5;" x1="822" x2="927" y1="67.4688" y2="67.4688"/><!--MD5=[063d74e43144aaa0d0cf3aecd3794497]
class Log--><rect codeLine="14" fill="#FEFECE" filter="url(#fzixk0d4mnlfr)" height="39.9688" id="Log" style="stroke:#A80036;stroke-width:1.5;" width="28" x="178.5" y="498"/><text fill="#000000" font-family="sans-serif" font-size="12" lengthAdjust="spacing" textLength="22" x="181.5" y="514.1387">Log</text><line style="stroke:#A80036;stroke-width:1.5;" x1="179.5" x2="205.5" y1="521.9688" y2="521.9688"/><line style="stroke:#A80036;stroke-width:1.5;" x1="179.5" x2="205.5" y1="529.9688" y2="529.9688"/><!--MD5=[028fba31e0312914fa4880b63f0540b8]
class Detail--><rect codeLine="26" fill="#FEFECE" filter="url(#fzixk0d4mnlfr)" height="39.9688" id="Detail" style="stroke:#A80036;stroke-width:1.5;" width="40" x="671.5" y="397"/><text fill="#000000" font-family="sans-serif" font-size="12" lengthAdjust="spacing" textLength="34" x="674.5" y="413.1387">Detail</text><line style="stroke:#A80036;stroke-width:1.5;" x1="672.5" x2="710.5" y1="420.9688" y2="420.9688"/><line style="stroke:#A80036;stroke-width:1.5;" x1="672.5" x2="710.5" y1="428.9688" y2="428.9688"/><!--MD5=[90ba54f54370e77ef24813dec6818fa3]
class Button--><rect codeLine="32" fill="#FEFECE" filter="url(#fzixk0d4mnlfr)" height="39.9688" id="Button" style="stroke:#A80036;stroke-width:1.5;" width="44" x="1225.5" y="229"/><text fill="#000000" font-family="sans-serif" font-size="12" lengthAdjust="spacing" textLength="38" x="1228.5" y="245.1387">Button</text><line style="stroke:#A80036;stroke-width:1.5;" x1="1226.5" x2="1268.5" y1="252.9688" y2="252.9688"/><line style="stroke:#A80036;stroke-width:1.5;" x1="1226.5" x2="1268.5" y1="260.9688" y2="260.9688"/><!--MD5=[ee084734eb3a5ffad99a0de9980f769b]
class Inventory--><rect codeLine="34" fill="#FEFECE" filter="url(#fzixk0d4mnlfr)" height="39.9688" id="Inventory" style="stroke:#A80036;stroke-width:1.5;" width="62" x="482.5" y="397"/><text fill="#000000" font-family="sans-serif" font-size="12" lengthAdjust="spacing" textLength="56" x="485.5" y="413.1387">Inventory</text><line style="stroke:#A80036;stroke-width:1.5;" x1="483.5" x2="543.5" y1="420.9688" y2="420.9688"/><line style="stroke:#A80036;stroke-width:1.5;" x1="483.5" x2="543.5" y1="428.9688" y2="428.9688"/><!--MD5=[44a1b4afaef76c16e6c9ec4990ad0c8d]
class Item--><rect codeLine="36" fill="#FEFECE" filter="url(#fzixk0d4mnlfr)" height="39.9688" id="Item" style="stroke:#A80036;stroke-width:1.5;" width="32" x="251.5" y="397"/><text fill="#000000" font-family="sans-serif" font-size="12" lengthAdjust="spacing" textLength="26" x="254.5" y="413.1387">Item</text><line style="stroke:#A80036;stroke-width:1.5;" x1="252.5" x2="282.5" y1="420.9688" y2="420.9688"/><line style="stroke:#A80036;stroke-width:1.5;" x1="252.5" x2="282.5" y1="428.9688" y2="428.9688"/><!--MD5=[7e2bc2f128e759c5889ccd6a2666d576]
class EmailNotification--><rect codeLine="38" fill="#FEFECE" filter="url(#fzixk0d4mnlfr)" height="39.9688" id="EmailNotification" style="stroke:#A80036;stroke-width:1.5;" width="103" x="344" y="397"/><text fill="#000000" font-family="sans-serif" font-size="12" lengthAdjust="spacing" textLength="97" x="347" y="413.1387">EmailNotification</text><line style="stroke:#A80036;stroke-width:1.5;" x1="345" x2="446" y1="420.9688" y2="420.9688"/><line style="stroke:#A80036;stroke-width:1.5;" x1="345" x2="446" y1="428.9688" y2="428.9688"/><!--MD5=[e3d83ec5fd90ea9f3f2bfe265cb53458]
class Status--><rect codeLine="46" fill="#FEFECE" filter="url(#fzixk0d4mnlfr)" height="39.9688" id="Status" style="stroke:#A80036;stroke-width:1.5;" width="43" x="779" y="397"/><text fill="#000000" font-family="sans-serif" font-size="12" lengthAdjust="spacing" textLength="37" x="782" y="413.1387">Status</text><line style="stroke:#A80036;stroke-width:1.5;" x1="780" x2="821" y1="420.9688" y2="420.9688"/><line style="stroke:#A80036;stroke-width:1.5;" x1="780" x2="821" y1="428.9688" y2="428.9688"/><!--MD5=[2449a07004f88a39a49d8d677dad46f0]
class Availability--><rect codeLine="53" fill="#FEFECE" filter="url(#fzixk0d4mnlfr)" height="39.9688" id="Availability" style="stroke:#A80036;stroke-width:1.5;" width="69" x="918" y="229"/><text fill="#000000" font-family="sans-serif" font-size="12" lengthAdjust="spacing" textLength="63" x="921" y="245.1387">Availability</text><line style="stroke:#A80036;stroke-width:1.5;" x1="919" x2="986" y1="252.9688" y2="252.9688"/><line style="stroke:#A80036;stroke-width:1.5;" x1="919" x2="986" y1="260.9688" y2="260.9688"/><!--MD5=[3784c6daf2f1e07ecf082a66dd892343]
class Spreadsheet--><rect codeLine="58" fill="#FEFECE" filter="url(#fzixk0d4mnlfr)" height="39.9688" id="Spreadsheet" style="stroke:#A80036;stroke-width:1.5;" width="84" x="17.5" y="229"/><text fill="#000000" font-family="sans-serif" font-size="12" lengthAdjust="spacing" textLength="78" x="20.5" y="245.1387">Spreadsheet</text><line style="stroke:#A80036;stroke-width:1.5;" x1="18.5" x2="100.5" y1="252.9688" y2="252.9688"/><line style="stroke:#A80036;stroke-width:1.5;" x1="18.5" x2="100.5" y1="260.9688" y2="260.9688"/><!--MD5=[3813445e07f7ee5d583a428701b0add1]
class Darin--><rect codeLine="60" fill="#FEFECE" filter="url(#fzixk0d4mnlfr)" height="39.9688" id="Darin" style="stroke:#A80036;stroke-width:1.5;" width="37" x="1305" y="229"/><text fill="#000000" font-family="sans-serif" font-size="12" lengthAdjust="spacing" textLength="31" x="1308" y="245.1387">Darin</text><line style="stroke:#A80036;stroke-width:1.5;" x1="1306" x2="1341" y1="252.9688" y2="252.9688"/><line style="stroke:#A80036;stroke-width:1.5;" x1="1306" x2="1341" y1="260.9688" y2="260.9688"/><!--MD5=[9c46470aa33a0c75e6d1dfdefc2f9c22]
class Reservation--><rect codeLine="62" fill="#FEFECE" filter="url(#fzixk0d4mnlfr)" height="39.9688" id="Reservation" style="stroke:#A80036;stroke-width:1.5;" width="77" x="1022" y="229"/><text fill="#000000" font-family="sans-serif" font-size="12" lengthAdjust="spacing" textLength="71" x="1025" y="245.1387">Reservation</text><line style="stroke:#A80036;stroke-width:1.5;" x1="1023" x2="1098" y1="252.9688" y2="252.9688"/><line style="stroke:#A80036;stroke-width:1.5;" x1="1023" x2="1098" y1="260.9688" y2="260.9688"/><!--MD5=[f9a29335b499db729be669fd1bd54958]
class Account--><rect codeLine="64" fill="#FEFECE" filter="url(#fzixk0d4mnlfr)" height="39.9688" id="Account" style="stroke:#A80036;stroke-width:1.5;" width="54" x="579.5" y="397"/><text fill="#000000" font-family="sans-serif" font-size="12" lengthAdjust="spacing" textLength="48" x="582.5" y="413.1387">Account</text><line style="stroke:#A80036;stroke-width:1.5;" x1="580.5" x2="632.5" y1="420.9688" y2="420.9688"/><line style="stroke:#A80036;stroke-width:1.5;" x1="580.5" x2="632.5" y1="428.9688" y2="428.9688"/><!--MD5=[4f1f3706c1a355a8488e154afcaed5df]
class Location--><rect codeLine="66" fill="#FEFECE" filter="url(#fzixk0d4mnlfr)" height="39.9688" id="Location" style="stroke:#A80036;stroke-width:1.5;" width="56" x="1134.5" y="229"/><text fill="#000000" font-family="sans-serif" font-size="12" lengthAdjust="spacing" textLength="50" x="1137.5" y="245.1387">Location</text><line style="stroke:#A80036;stroke-width:1.5;" x1="1135.5" x2="1189.5" y1="252.9688" y2="252.9688"/><line style="stroke:#A80036;stroke-width:1.5;" x1="1135.5" x2="1189.5" y1="260.9688" y2="260.9688"/><!--MD5=[42403f8cb00a1816f7bb5566a73f0503]
link User to EmailNotification--><path codeLine="70" d="M525.103,285.611 C492.66,318.251 445.602,365.595 418.016,393.347 " fill="none" id="User-to-EmailNotification" style="stroke:#A80036;stroke-width:1.0;"/><polygon fill="#A80036" points="414.421,396.964,423.6026,393.4006,417.9458,393.4178,417.9287,387.7609,414.421,396.964" style="stroke:#A80036;stroke-width:1.0;"/><text fill="#000000" font-family="sans-serif" font-size="13" lengthAdjust="spacing" textLength="21" x="459.5" y="363.0669">get</text><!--MD5=[b59ec05fccf4ecb7c4fb4d6d1f74254f]
link Admin to Status--><path codeLine="71" d="M402.555,57.264 C479.152,60.957 649.61,80.37 741.5,178 C798.109,238.145 802.8,343.833 801.754,391.481 " fill="none" id="Admin-to-Status" style="stroke:#A80036;stroke-width:1.0;"/><polygon fill="#A80036" points="801.61,396.726,805.8553,387.8391,801.7471,391.7279,797.8583,387.6197,801.61,396.726" style="stroke:#A80036;stroke-width:1.0;"/><text fill="#000000" font-family="sans-serif" font-size="13" lengthAdjust="spacing" textLength="47" x="799.5" y="253.5669">change</text><!--MD5=[570ec5c4e8a1dd44e7fcb71a8cfc57a6]
link User to Detail--><path codeLine="72" d="M595.629,284.52 C613.643,303.099 635.342,326.893 652.5,350 C662.394,363.323 671.902,379.325 679.052,392.236 " fill="none" id="User-to-Detail" style="stroke:#A80036;stroke-width:1.0;"/><polygon fill="#A80036" points="681.577,396.842,680.7592,387.0272,679.1739,392.4573,673.7438,390.8721,681.577,396.842" style="stroke:#A80036;stroke-width:1.0;"/><text fill="#000000" font-family="sans-serif" font-size="13" lengthAdjust="spacing" textLength="30" x="664.5" y="363.0669">view</text><!--MD5=[9acc32825fcbd67eb847476300da9d21]
link User to Status--><path codeLine="73" d="M595.655,274.316 C644.369,308.01 731.277,368.12 774.543,398.046 " fill="none" id="User-to-Status" style="stroke:#A80036;stroke-width:1.0;"/><polygon fill="#A80036" points="778.843,401.02,773.7172,392.6101,774.7311,398.1754,769.1658,399.1892,778.843,401.02" style="stroke:#A80036;stroke-width:1.0;"/><text fill="#000000" font-family="sans-serif" font-size="13" lengthAdjust="spacing" textLength="45" x="731.5" y="363.0669">update</text><!--MD5=[87e802f94dff5db0b14b612664619da8]
link User to Account--><path codeLine="74" d="M580.008,320.399 C587.081,345.923 594.605,373.075 599.82,391.894 " fill="none" id="User-to-Account" style="stroke:#A80036;stroke-width:1.0;"/><polygon fill="#A80036" points="601.227,396.973,602.6775,387.2315,599.8914,392.1547,594.9682,389.3686,601.227,396.973" style="stroke:#A80036;stroke-width:1.0;"/><text fill="#000000" font-family="sans-serif" font-size="13" lengthAdjust="spacing" textLength="49" x="594.5" y="363.0669">request</text><!--MD5=[9c11a8c901c387ea880f1377c3f0f309]
link Admin to Log--><path codeLine="75" d="M324.414,74.999 C288.496,94.652 238.356,129.587 221.5,178 C182.365,290.406 186.87,435.885 190.562,492.7325 " fill="none" id="Admin-to-Log" style="stroke:#A80036;stroke-width:1.0;"/><polygon fill="#A80036" points="190.916,497.9531,194.2992,488.7036,190.5784,492.9645,186.3175,489.2437,190.916,497.9531" style="stroke:#A80036;stroke-width:1.0;"/><text fill="#000000" font-family="sans-serif" font-size="13" lengthAdjust="spacing" textLength="29" x="191.5" y="363.0669">read</text><!--MD5=[b1a786bad21caa5949445ef60c77957d]
link Volunteer to Location--><path codeLine="76" d="M1081.09,94.762 C1087.34,106.392 1094.21,119.213 1100.5,131 C1117.74,163.326 1137.55,200.749 1150.04,224.394 " fill="none" id="Volunteer-to-Location" style="stroke:#A80036;stroke-width:1.0;"/><polygon fill="#A80036" points="1152.44,228.934,1151.7795,219.1073,1150.1074,224.5114,1144.7033,222.8394,1152.44,228.934" style="stroke:#A80036;stroke-width:1.0;"/><text fill="#000000" font-family="sans-serif" font-size="13" lengthAdjust="spacing" textLength="37" x="1110.5" y="144.0669">check</text><!--MD5=[8e80922e33f05c5fc9e20570b2b387e8]
link Manager to Button--><path codeLine="77" d="M1267.54,88.515 C1261.25,101.325 1254.92,116.469 1251.5,131 C1244.14,162.268 1244.34,199.522 1245.58,223.453 " fill="none" id="Manager-to-Button" style="stroke:#A80036;stroke-width:1.0;"/><polygon fill="#A80036" points="1245.87,228.646,1249.3538,219.4339,1245.5868,223.654,1241.3666,219.887,1245.87,228.646" style="stroke:#A80036;stroke-width:1.0;"/><text fill="#000000" font-family="sans-serif" font-size="13" lengthAdjust="spacing" textLength="27" x="1252.5" y="144.0669">click</text><!--MD5=[7d60add0fc534d13377f64d2ee042d79]
reverse link AdminUser to User--><path codeLine="78" d="M825.851,86.17 C762.213,124.981 652.215,192.066 595.924,226.396 " fill="none" id="AdminUser-backto-User" style="stroke:#A80036;stroke-width:1.0;"/><polygon fill="none" points="822.525,79.999,843.245,75.562,829.814,91.952,822.525,79.999" style="stroke:#A80036;stroke-width:1.0;"/><!--MD5=[e4fce08c0700eb7718c603a02b774243]
link User to Inventory--><path codeLine="79" d="M540.568,320.399 C533.341,345.923 525.654,373.075 520.325,391.894 " fill="none" id="User-to-Inventory" style="stroke:#A80036;stroke-width:1.0;"/><polygon fill="#A80036" points="518.887,396.973,525.189,389.4043,520.25,392.1624,517.492,387.2234,518.887,396.973" style="stroke:#A80036;stroke-width:1.0;"/><text fill="#000000" font-family="sans-serif" font-size="13" lengthAdjust="spacing" textLength="45" x="532.5" y="363.0669">update</text><!--MD5=[c315df02818a4a8f5b64eb2f4ea98962]
reverse link Admin to User--><path codeLine="80" d="M412.472,104.104 C447.579,138.231 494.033,183.389 525.467,213.946 " fill="none" id="Admin-backto-User" style="stroke:#A80036;stroke-width:1.0;"/><polygon fill="#FFFFFF" points="402.892,94.793,404.4066,101.8432,411.4971,103.1568,409.9825,96.1065,402.892,94.793" style="stroke:#A80036;stroke-width:1.0;"/><!--MD5=[3d60f4c331af53784c92e629bdfab05e]
reverse link Item to Log--><path codeLine="81" d="M244.933,447.7882 C232.498,464.2029 217.444,484.0742 206.662,498.3061 " fill="none" id="Item-backto-Log" style="stroke:#A80036;stroke-width:1.0;"/><polygon fill="#FFFFFF" points="253.039,437.088,246.2275,439.4553,245.7929,446.6533,252.6044,444.286,253.039,437.088" style="stroke:#A80036;stroke-width:1.0;"/><!--MD5=[b5993653948353ed090904e21ea229e1]
link Volunteer to Availability--><path codeLine="82" d="M1035.49,94.799 C1028.2,106.317 1020.36,119.067 1013.5,131 C995.306,162.652 976.123,200.24 964.234,224.106 " fill="none" id="Volunteer-to-Availability" style="stroke:#A80036;stroke-width:1.0;"/><polygon fill="#A80036" points="961.956,228.69,969.5418,222.4086,964.1801,224.2119,962.3768,218.8501,961.956,228.69" style="stroke:#A80036;stroke-width:1.0;"/><text fill="#000000" font-family="sans-serif" font-size="13" lengthAdjust="spacing" textLength="37" x="1014.5" y="144.0669">check</text><!--MD5=[993a1ed30139d6bc9fd462e29443e622]
link User to User--><path codeLine="83" d="M595.797,239.231 C614.048,237.728 630.5,240.984 630.5,249 C630.5,256.264 616.988,259.62 600.871,259.066 " fill="none" id="User-to-User" style="stroke:#A80036;stroke-width:1.0;"/><polygon fill="#A80036" points="595.797,258.769,604.5473,263.2893,600.7884,259.0619,605.0158,255.303,595.797,258.769" style="stroke:#A80036;stroke-width:1.0;"/><text fill="#000000" font-family="sans-serif" font-size="13" lengthAdjust="spacing" textLength="30" x="636.5" y="253.5669">view</text><!--MD5=[993a1ed30139d6bc9fd462e29443e622]
link User to User--><path codeLine="84" d="M595.624,233.052 C631.414,223.961 672.5,229.277 672.5,249 C672.5,267.798 635.176,273.509 600.687,266.131 " fill="none" id="User-to-User-1" style="stroke:#A80036;stroke-width:1.0;"/><polygon fill="#A80036" points="595.624,264.948,603.4783,270.8902,600.493,266.0852,605.2979,263.0999,595.624,264.948" style="stroke:#A80036;stroke-width:1.0;"/><text fill="#000000" font-family="sans-serif" font-size="13" lengthAdjust="spacing" textLength="39" x="678.5" y="253.5669">return</text><!--MD5=[fbdffb236416bd2d42dd13dbb3b60295]
link Developer to Spreadsheet--><path codeLine="85" d="M59.5,82.327 C59.5,119.498 59.5,187.582 59.5,223.817 " fill="none" id="Developer-to-Spreadsheet" style="stroke:#A80036;stroke-width:1.0;"/><polygon fill="#A80036" points="59.5,228.924,63.5,219.924,59.5,223.924,55.5,219.924,59.5,228.924" style="stroke:#A80036;stroke-width:1.0;"/><text fill="#000000" font-family="sans-serif" font-size="13" lengthAdjust="spacing" textLength="42" x="60.5" y="144.0669">import</text><!--MD5=[7a01020003b753457e5f7ff6f9aa4355]
link Manager to Darin--><path codeLine="86" d="M1291.86,88.553 C1299.42,126.656 1311.87,189.387 1318.68,223.706 " fill="none" id="Manager-to-Darin" style="stroke:#A80036;stroke-width:1.0;"/><polygon fill="#A80036" points="1319.72,228.962,1321.8934,219.3559,1318.7476,224.0575,1314.0461,220.9117,1319.72,228.962" style="stroke:#A80036;stroke-width:1.0;"/><text fill="#000000" font-family="sans-serif" font-size="13" lengthAdjust="spacing" textLength="35" x="1304.5" y="144.0669">email</text><!--MD5=[53a588df3f5f0f7f452d1b4562b14650]
link User to Item--><path codeLine="87" d="M525.448,269.859 C463.792,304.79 337.773,376.186 288.195,404.275 " fill="none" id="User-to-Item" style="stroke:#A80036;stroke-width:1.0;"/><polygon fill="#A80036" points="283.64,406.856,293.4424,405.9002,287.9904,404.3915,289.4991,398.9395,283.64,406.856" style="stroke:#A80036;stroke-width:1.0;"/><text fill="#000000" font-family="sans-serif" font-size="13" lengthAdjust="spacing" textLength="27" x="380.5" y="363.0669">click</text><!--MD5=[985973f9e03e409a5b242353e3e71768]
link Volunteer to Reservation--><path codeLine="88" d="M1060.5,94.793 C1060.5,133.073 1060.5,190.795 1060.5,223.364 " fill="none" id="Volunteer-to-Reservation" style="stroke:#A80036;stroke-width:1.0;"/><polygon fill="#A80036" points="1060.5,228.755,1064.5,219.755,1060.5,223.755,1056.5,219.755,1060.5,228.755" style="stroke:#A80036;stroke-width:1.0;"/><text fill="#000000" font-family="sans-serif" font-size="13" lengthAdjust="spacing" textLength="30" x="1061.5" y="144.0669">view</text><!--MD5=[0c33994447a5a115d17347b31ff58a4b]
link Admin to Item--><path codeLine="89" d="M354.545,101.179 C343.618,153.906 323.82,244.023 301.5,320 C294.195,344.866 284.109,372.729 276.821,392.005 " fill="none" id="Admin-to-Item" style="stroke:#A80036;stroke-width:1.0;"/><polygon fill="#A80036" points="275.032,396.714,281.9674,389.7212,276.8076,392.0399,274.4889,386.8801,275.032,396.714" style="stroke:#A80036;stroke-width:1.0;"/><text fill="#000000" font-family="sans-serif" font-size="13" lengthAdjust="spacing" textLength="24" x="338.5" y="253.5669">add</text><!--MD5=[0c33994447a5a115d17347b31ff58a4b]
link Admin to Item--><path codeLine="90" d="M324.276,82.716 C295.608,104.422 258.978,138.103 242.5,178 C212.187,251.396 241.074,347.865 257.66,392.039 " fill="none" id="Admin-to-Item-1" style="stroke:#A80036;stroke-width:1.0;"/><polygon fill="#A80036" points="259.518,396.909,260.046,387.0743,257.7352,392.2376,252.5718,389.9268,259.518,396.909" style="stroke:#A80036;stroke-width:1.0;"/><text fill="#000000" font-family="sans-serif" font-size="13" lengthAdjust="spacing" textLength="49" x="243.5" y="253.5669">reserve</text><!--MD5=[eb57b1bc6b0b853c5789016a6bc92c2d]
@startuml
hide circle
class Developer<actor> {
}
class Admin<actor> {
}
class Volunteer<actor> {
}
class Manager<actor> {
}
class User<actor> {
}
class AdminUser<actor> {
}
class Log {
}
class User {
	browse()
	click()
	get()
	request()
	search()
	update()
	view()
	return()
}
class Detail {
}
class Manager {
	click()
	email()
}
class Button {
}
class Inventory {
}
class Item {
}
class EmailNotification {
}
class Admin {
	add()
	change()
	read()
	reserve()
}
class Status {
}
class Volunteer {
	check()
	view()
	manager()
}
class Availability {
}
class Developer {
	import()
}
class Spreadsheet {
}
class Darin {
}
class Reservation {
}
class Account {
}
class Location {
}
class AdminUser {
}
User - -> EmailNotification : get
Admin - -> Status : change
User - -> Detail : view
User - -> Status : update
User - -> Account : request
Admin - -> Log : read
Volunteer - -> Location : check
Manager - -> Button : click
AdminUser <|- - User
User - -> Inventory : update
Admin o- - User
Item o- - Log
Volunteer - -> Availability : check
User - -> User : view
User - -> User : return
Developer - -> Spreadsheet : import
Manager - -> Darin : email
User - -> Item : click
Volunteer - -> Reservation : view
Admin - -> Item : add
Admin - -> Item : reserve
@enduml

PlantUML version 1.2021.10beta2(Unknown compile time)
(GPL source distribution)
Java Runtime: Java(TM) SE Runtime Environment
JVM: Java HotSpot(TM) 64-Bit Server VM
Default Encoding: UTF-8
Language: en
Country: US
--></g></svg>