<?xml version="1.0" encoding="UTF-8" standalone="no"?><svg xmlns="http://www.w3.org/2000/svg" xmlns:xlink="http://www.w3.org/1999/xlink" contentScriptType="application/ecmascript" contentStyleType="text/css" height="295px" preserveAspectRatio="none" style="width:879px;height:295px;background:#FFFFFF;" version="1.1" viewBox="0 0 879 295" width="879px" zoomAndPan="magnify"><defs><filter height="300%" id="f1obvj4vjjfie3" width="300%" x="-1" y="-1"><feGaussianBlur result="blurOut" stdDeviation="2.0"/><feColorMatrix in="blurOut" result="blurOut2" type="matrix" values="0 0 0 0 0 0 0 0 0 0 0 0 0 0 0 0 0 0 .4 0"/><feOffset dx="4.0" dy="4.0" in="blurOut2" result="blurOut3"/><feBlend in="SourceGraphic" in2="blurOut3" mode="normal"/></filter></defs><g><!--MD5=[3fd616f346a44cd59a91eb10b19e157c]
class User--><rect codeLine="4" fill="#FEFECE" filter="url(#f1obvj4vjjfie3)" height="155.2109" id="User" style="stroke:#A80036;stroke-width:1.5;" width="74" x="351.5683" y="10"/><text fill="#000000" font-family="sans-serif" font-size="12" lengthAdjust="spacing" textLength="29" x="356.5683" y="26.1387">User</text><rect fill="#FFFFFF" height="15.9688" style="stroke:#000000;stroke-width:1.0;stroke-dasharray:2.0,2.0;" width="33" x="395.5683" y="7"/><text fill="#000000" font-family="sans-serif" font-size="12" font-style="italic" lengthAdjust="spacing" textLength="31" x="396.5683" y="19.1387">actor</text><line style="stroke:#A80036;stroke-width:1.5;" x1="352.5683" x2="424.5683" y1="33.9688" y2="33.9688"/><line style="stroke:#A80036;stroke-width:1.5;" x1="352.5683" x2="424.5683" y1="41.9688" y2="41.9688"/><text fill="#000000" font-family="sans-serif" font-size="11" lengthAdjust="spacing" textLength="29" x="357.5683" y="56.1792">use()</text><text fill="#000000" font-family="sans-serif" font-size="11" lengthAdjust="spacing" textLength="36" x="357.5683" y="68.9839">input()</text><text fill="#000000" font-family="sans-serif" font-size="11" lengthAdjust="spacing" textLength="53" x="357.5683" y="81.7886">connect()</text><text fill="#000000" font-family="sans-serif" font-size="11" lengthAdjust="spacing" textLength="30" x="357.5683" y="94.5933">see()</text><text fill="#000000" font-family="sans-serif" font-size="11" lengthAdjust="spacing" textLength="62" x="357.5683" y="107.3979">download()</text><text fill="#000000" font-family="sans-serif" font-size="11" lengthAdjust="spacing" textLength="45" x="357.5683" y="120.2026">create()</text><text fill="#000000" font-family="sans-serif" font-size="11" lengthAdjust="spacing" textLength="26" x="357.5683" y="133.0073">set()</text><text fill="#000000" font-family="sans-serif" font-size="11" lengthAdjust="spacing" textLength="35" x="357.5683" y="145.812">want()</text><text fill="#000000" font-family="sans-serif" font-size="11" lengthAdjust="spacing" textLength="35" x="357.5683" y="158.6167">view()</text><!--MD5=[30fd7b95ab383a5e7c83ea23d4ea0fbf]
class Information--><rect codeLine="15" fill="#FEFECE" filter="url(#f1obvj4vjjfie3)" height="39.9688" id="Information" style="stroke:#A80036;stroke-width:1.5;" width="73" x="59.0687" y="242"/><text fill="#000000" font-family="sans-serif" font-size="12" lengthAdjust="spacing" textLength="67" x="62.0687" y="258.1387">Information</text><line style="stroke:#A80036;stroke-width:1.5;" x1="60.0687" x2="131.0687" y1="265.9688" y2="265.9688"/><line style="stroke:#A80036;stroke-width:1.5;" x1="60.0687" x2="131.0687" y1="273.9688" y2="273.9688"/><!--MD5=[0b4e4b4980470ea387cc45de9bd14b5b]
class Application--><rect codeLine="17" fill="#FEFECE" filter="url(#f1obvj4vjjfie3)" height="39.9688" id="Application" style="stroke:#A80036;stroke-width:1.5;" width="72" x="216.5683" y="242"/><text fill="#000000" font-family="sans-serif" font-size="12" lengthAdjust="spacing" textLength="66" x="219.5683" y="258.1387">Application</text><line style="stroke:#A80036;stroke-width:1.5;" x1="217.5683" x2="287.5683" y1="265.9688" y2="265.9688"/><line style="stroke:#A80036;stroke-width:1.5;" x1="217.5683" x2="287.5683" y1="273.9688" y2="273.9688"/><!--MD5=[a7998728ec5159d0ecbc950d0709be7b]
class Trend--><rect codeLine="19" fill="#FEFECE" filter="url(#f1obvj4vjjfie3)" height="39.9688" id="Trend" style="stroke:#A80036;stroke-width:1.5;" width="41" x="325.0683" y="242"/><text fill="#000000" font-family="sans-serif" font-size="12" lengthAdjust="spacing" textLength="35" x="328.0683" y="258.1387">Trend</text><line style="stroke:#A80036;stroke-width:1.5;" x1="326.0683" x2="365.0683" y1="265.9688" y2="265.9688"/><line style="stroke:#A80036;stroke-width:1.5;" x1="326.0683" x2="365.0683" y1="273.9688" y2="273.9688"/><!--MD5=[eedde156c9dded963040b22578af45fa]
class Level--><rect codeLine="21" fill="#FEFECE" filter="url(#f1obvj4vjjfie3)" height="39.9688" id="Level" style="stroke:#A80036;stroke-width:1.5;" width="38" x="401.5683" y="242"/><text fill="#000000" font-family="sans-serif" font-size="12" lengthAdjust="spacing" textLength="32" x="404.5683" y="258.1387">Level</text><line style="stroke:#A80036;stroke-width:1.5;" x1="402.5683" x2="438.5683" y1="265.9688" y2="265.9688"/><line style="stroke:#A80036;stroke-width:1.5;" x1="402.5683" x2="438.5683" y1="273.9688" y2="273.9688"/><!--MD5=[17860b448baa28c9c681e1cca68137e5]
class InsulinLevel--><rect codeLine="23" fill="#FEFECE" filter="url(#f1obvj4vjjfie3)" height="39.9688" id="InsulinLevel" style="stroke:#A80036;stroke-width:1.5;" width="75" x="475.0683" y="242"/><text fill="#000000" font-family="sans-serif" font-size="12" lengthAdjust="spacing" textLength="69" x="478.0683" y="258.1387">InsulinLevel</text><line style="stroke:#A80036;stroke-width:1.5;" x1="476.0683" x2="549.0683" y1="265.9688" y2="265.9688"/><line style="stroke:#A80036;stroke-width:1.5;" x1="476.0683" x2="549.0683" y1="273.9688" y2="273.9688"/><!--MD5=[35cd7d935612d06e478b32bcb8fd56aa]
class Cgm--><rect codeLine="25" fill="#FEFECE" filter="url(#f1obvj4vjjfie3)" height="39.9688" id="Cgm" style="stroke:#A80036;stroke-width:1.5;" width="33" x="585.0683" y="242"/><text fill="#000000" font-family="sans-serif" font-size="12" lengthAdjust="spacing" textLength="27" x="588.0683" y="258.1387">Cgm</text><line style="stroke:#A80036;stroke-width:1.5;" x1="586.0683" x2="617.0683" y1="265.9688" y2="265.9688"/><line style="stroke:#A80036;stroke-width:1.5;" x1="586.0683" x2="617.0683" y1="273.9688" y2="273.9688"/><!--MD5=[eb7615ce44b85c9c693fe4d7b6ac1bf3]
class InsulinRecommendation--><rect codeLine="27" fill="#FEFECE" filter="url(#f1obvj4vjjfie3)" height="39.9688" id="InsulinRecommendation" style="stroke:#A80036;stroke-width:1.5;" width="147" x="653.0683" y="242"/><text fill="#000000" font-family="sans-serif" font-size="12" lengthAdjust="spacing" textLength="141" x="656.0683" y="258.1387">InsulinRecommendation</text><line style="stroke:#A80036;stroke-width:1.5;" x1="654.0683" x2="799.0683" y1="265.9688" y2="265.9688"/><line style="stroke:#A80036;stroke-width:1.5;" x1="654.0683" x2="799.0683" y1="273.9688" y2="273.9688"/><!--MD5=[335f4d9be48430461c68bf6d6fdba145]
class App--><rect codeLine="29" fill="#FEFECE" filter="url(#f1obvj4vjjfie3)" height="39.9688" id="App" style="stroke:#A80036;stroke-width:1.5;" width="30" x="835.5683" y="242"/><text fill="#000000" font-family="sans-serif" font-size="12" lengthAdjust="spacing" textLength="24" x="838.5683" y="258.1387">App</text><line style="stroke:#A80036;stroke-width:1.5;" x1="836.5683" x2="864.5683" y1="265.9688" y2="265.9688"/><line style="stroke:#A80036;stroke-width:1.5;" x1="836.5683" x2="864.5683" y1="273.9688" y2="273.9688"/><!--MD5=[4981c864524f50ab1b82211e3369f909]
link User to Application--><path codeLine="31" d="M351.3573,122.212 C330.7053,142.115 305.4543,168.533 286.5683,195 C277.1673,208.1759 268.8083,224.3067 262.7303,237.323 " fill="none" id="User-to-Application" style="stroke:#A80036;stroke-width:1.0;"/><polygon fill="#A80036" points="260.5973,241.9662,267.9891,235.4576,262.6846,237.4227,260.7195,232.1181,260.5973,241.9662" style="stroke:#A80036;stroke-width:1.0;"/><text fill="#000000" font-family="sans-serif" font-size="13" lengthAdjust="spacing" textLength="62" x="287.5683" y="208.0669">download</text><!--MD5=[ad3a3fb4b35ea0921dac4f10f34d41ed]
link User to InsulinRecommendation--><path codeLine="32" d="M425.8123,106.971 C468.2263,128.061 539.5513,163.696 600.5683,195 C629.2163,209.6972 661.3673,226.544 686.0213,239.5381 " fill="none" id="User-to-InsulinRecommendation" style="stroke:#A80036;stroke-width:1.0;"/><polygon fill="#A80036" points="690.5353,241.9182,684.4411,234.1813,686.1129,239.5855,680.7087,241.2573,690.5353,241.9182" style="stroke:#A80036;stroke-width:1.0;"/><text fill="#000000" font-family="sans-serif" font-size="13" lengthAdjust="spacing" textLength="32" x="633.5683" y="208.0669">want</text><!--MD5=[9d661380b54d9bff4ee137bc0bb1b8a2]
link User to Information--><path codeLine="33" d="M351.4263,93.596 C266.2113,106.124 60.8803,141.368 20.5688,195 C6,214.3828 29.7089,232.2783 54.2341,244.5305 " fill="none" id="User-to-Information" style="stroke:#A80036;stroke-width:1.0;"/><polygon fill="#A80036" points="58.8139,246.7517,52.4615,239.2253,54.3151,244.5699,48.9706,246.4234,58.8139,246.7517" style="stroke:#A80036;stroke-width:1.0;"/><text fill="#000000" font-family="sans-serif" font-size="13" lengthAdjust="spacing" textLength="30" x="21.5688" y="208.0669">view</text><!--MD5=[9d661380b54d9bff4ee137bc0bb1b8a2]
link User to Information--><path codeLine="34" d="M351.3323,89.172 C286.0353,92.61 152.1653,110.221 92.5687,195 C84.1831,206.929 84.8656,223.2857 87.6779,236.7311 " fill="none" id="User-to-Information-1" style="stroke:#A80036;stroke-width:1.0;"/><polygon fill="#A80036" points="88.8942,241.9144,90.7324,232.2386,87.752,237.0466,82.9439,234.0662,88.8942,241.9144" style="stroke:#A80036;stroke-width:1.0;"/><text fill="#000000" font-family="sans-serif" font-size="13" lengthAdjust="spacing" textLength="32" x="93.5687" y="208.0669">want</text><!--MD5=[9d661380b54d9bff4ee137bc0bb1b8a2]
link User to Information--><path codeLine="40" d="M351.4603,110.347 C295.1433,143.503 188.7203,206.1583 132.5053,239.2538 " fill="none" id="User-to-Information-2" style="stroke:#A80036;stroke-width:1.0;"/><polygon fill="#A80036" points="127.8863,241.9736,137.6716,240.8562,132.1955,239.4376,133.614,233.9615,127.8863,241.9736" style="stroke:#A80036;stroke-width:1.0;"/><text fill="#000000" font-family="sans-serif" font-size="13" lengthAdjust="spacing" textLength="41" x="208.5683" y="208.0669">create</text><!--MD5=[7d3768d70d730e278c2b46aad89340d2]
link User to InsulinLevel--><path codeLine="35" d="M425.7733,140.256 C449.1063,172.715 478.0483,212.978 495.9113,237.8279 " fill="none" id="User-to-InsulinLevel" style="stroke:#A80036;stroke-width:1.0;"/><polygon fill="#A80036" points="498.8973,241.9814,496.8922,232.3388,495.979,237.9215,490.3963,237.0082,498.8973,241.9814" style="stroke:#A80036;stroke-width:1.0;"/><text fill="#000000" font-family="sans-serif" font-size="13" lengthAdjust="spacing" textLength="32" x="477.5683" y="208.0669">input</text><!--MD5=[0a4221e411748d8d90e6808bfd758b5b]
link User to Trend--><path codeLine="36" d="M369.4583,165.166 C363.0203,190.9917 356.2933,217.9784 351.6243,236.7087 " fill="none" id="User-to-Trend" style="stroke:#A80036;stroke-width:1.0;"/><polygon fill="#A80036" points="350.3633,241.7649,356.4216,233.9997,351.5728,236.9134,348.6591,232.0646,350.3633,241.7649" style="stroke:#A80036;stroke-width:1.0;"/><text fill="#000000" font-family="sans-serif" font-size="13" lengthAdjust="spacing" textLength="23" x="363.5683" y="208.0669">see</text><!--MD5=[0214f9738810ef8e203a2a515b7b8642]
link User to App--><path codeLine="37" d="M425.6043,99.295 C501.0293,121.809 677.1943,177.11 817.5683,242 C821.9753,244.0371 826.5693,246.469 830.8813,248.9016 " fill="none" id="User-to-App" style="stroke:#A80036;stroke-width:1.0;"/><polygon fill="#A80036" points="835.4263,251.5228,829.6292,243.5608,831.0953,249.0244,825.6317,250.4905,835.4263,251.5228" style="stroke:#A80036;stroke-width:1.0;"/><text fill="#000000" font-family="sans-serif" font-size="13" lengthAdjust="spacing" textLength="23" x="739.5683" y="208.0669">use</text><!--MD5=[a605240c0b2d5e7f595ec2b99311cce8]
link User to Cgm--><path codeLine="38" d="M425.6703,118.547 C470.5683,154.908 544.6123,214.8732 580.6133,244.029 " fill="none" id="User-to-Cgm" style="stroke:#A80036;stroke-width:1.0;"/><polygon fill="#A80036" points="584.8103,247.4282,580.3342,238.6553,580.9249,244.2812,575.299,244.8719,584.8103,247.4282" style="stroke:#A80036;stroke-width:1.0;"/><text fill="#000000" font-family="sans-serif" font-size="13" lengthAdjust="spacing" textLength="51" x="540.5683" y="208.0669">connect</text><!--MD5=[594bfbd9f471216885001b4108416bf1]
link User to Level--><path codeLine="39" d="M402.7903,165.166 C407.5813,190.9917 412.5883,217.9784 416.0623,236.7087 " fill="none" id="User-to-Level" style="stroke:#A80036;stroke-width:1.0;"/><polygon fill="#A80036" points="417.0003,241.7649,419.2917,232.1863,416.0884,236.8488,411.4259,233.6454,417.0003,241.7649" style="stroke:#A80036;stroke-width:1.0;"/><text fill="#000000" font-family="sans-serif" font-size="13" lengthAdjust="spacing" textLength="20" x="412.5683" y="208.0669">set</text><!--MD5=[6f952127b7bbb4f13faee0100f005a99]
@startuml
hide circle
class User<actor> {
}
class User {
	use()
	input()
	connect()
	see()
	download()
	create()
	set()
	want()
	view()
}
class Information {
}
class Application {
}
class Trend {
}
class Level {
}
class InsulinLevel {
}
class Cgm {
}
class InsulinRecommendation {
}
class App {
}
User - -> Application : download
User - -> InsulinRecommendation : want
User - -> Information : view
User - -> Information : want
User - -> InsulinLevel : input
User - -> Trend : see
User - -> App : use
User - -> Cgm : connect
User - -> Level : set
User - -> Information : create
@enduml

PlantUML version 1.2021.6beta6(Unknown compile time)
(GPL source distribution)
Java Runtime: Java(TM) SE Runtime Environment
JVM: Java HotSpot(TM) 64-Bit Server VM
Default Encoding: UTF-8
Language: en
Country: US
--></g></svg>