<?xml version="1.0" encoding="UTF-8" standalone="no"?><svg xmlns="http://www.w3.org/2000/svg" xmlns:xlink="http://www.w3.org/1999/xlink" contentScriptType="application/ecmascript" contentStyleType="text/css" height="504px" preserveAspectRatio="none" style="width:745px;height:504px;background:#FFFFFF;" version="1.1" viewBox="0 0 745 504" width="745px" zoomAndPan="magnify"><defs><filter height="300%" id="ftg3ulu4zz9ri" width="300%" x="-1" y="-1"><feGaussianBlur result="blurOut" stdDeviation="2.0"/><feColorMatrix in="blurOut" result="blurOut2" type="matrix" values="0 0 0 0 0 0 0 0 0 0 0 0 0 0 0 0 0 0 .4 0"/><feOffset dx="4.0" dy="4.0" in="blurOut2" result="blurOut3"/><feBlend in="SourceGraphic" in2="blurOut3" mode="normal"/></filter></defs><g><!--MD5=[d342058c8fb6f80e9d50d673c6908241]
class Developer--><rect codeLine="14" fill="#FEFECE" filter="url(#ftg3ulu4zz9ri)" height="52.7734" id="Developer" style="stroke:#A80036;stroke-width:1.5;" width="105" x="68.7993" y="16.5"/><text fill="#000000" font-family="sans-serif" font-size="12" lengthAdjust="spacing" textLength="64" x="71.7993" y="32.6387">Developer</text><rect fill="#FFFFFF" height="15.9688" style="stroke:#000000;stroke-width:1.0;stroke-dasharray:2.0,2.0;" width="33" x="143.7993" y="13.5"/><text fill="#000000" font-family="sans-serif" font-size="12" font-style="italic" lengthAdjust="spacing" textLength="31" x="144.7993" y="25.6387">actor</text><line style="stroke:#A80036;stroke-width:1.5;" x1="69.7993" x2="172.7993" y1="40.4688" y2="40.4688"/><line style="stroke:#A80036;stroke-width:1.5;" x1="69.7993" x2="172.7993" y1="48.4688" y2="48.4688"/><text fill="#000000" font-family="sans-serif" font-size="11" lengthAdjust="spacing" textLength="44" x="74.7993" y="62.6792">import()</text><!--MD5=[db6d18d8099558415abc41d00477ab92]
class Admin--><rect codeLine="25" fill="#FEFECE" filter="url(#ftg3ulu4zz9ri)" height="91.1875" id="Admin" style="stroke:#A80036;stroke-width:1.5;" width="78" x="85.2993" y="283"/><text fill="#000000" font-family="sans-serif" font-size="12" lengthAdjust="spacing" textLength="37" x="88.2993" y="299.1387">Admin</text><rect fill="#FFFFFF" height="15.9688" style="stroke:#000000;stroke-width:1.0;stroke-dasharray:2.0,2.0;" width="33" x="133.2993" y="280"/><text fill="#000000" font-family="sans-serif" font-size="12" font-style="italic" lengthAdjust="spacing" textLength="31" x="134.2993" y="292.1387">actor</text><line style="stroke:#A80036;stroke-width:1.5;" x1="86.2993" x2="162.2993" y1="306.9688" y2="306.9688"/><line style="stroke:#A80036;stroke-width:1.5;" x1="86.2993" x2="162.2993" y1="314.9688" y2="314.9688"/><text fill="#000000" font-family="sans-serif" font-size="11" lengthAdjust="spacing" textLength="53" x="91.2993" y="329.1792">reserve()</text><text fill="#000000" font-family="sans-serif" font-size="11" lengthAdjust="spacing" textLength="34" x="91.2993" y="341.9839">read()</text><text fill="#000000" font-family="sans-serif" font-size="11" lengthAdjust="spacing" textLength="50" x="91.2993" y="354.7886">change()</text><text fill="#000000" font-family="sans-serif" font-size="11" lengthAdjust="spacing" textLength="29" x="91.2993" y="367.5933">add()</text><!--MD5=[d20e61c3df8b8f47d0b4e5ec2b6a1cdb]
class Volunteer--><rect codeLine="19" fill="#FEFECE" filter="url(#ftg3ulu4zz9ri)" height="65.5781" id="Volunteer" style="stroke:#A80036;stroke-width:1.5;" width="99" x="409.7993" y="10"/><text fill="#000000" font-family="sans-serif" font-size="12" lengthAdjust="spacing" textLength="58" x="412.7993" y="26.1387">Volunteer</text><rect fill="#FFFFFF" height="15.9688" style="stroke:#000000;stroke-width:1.0;stroke-dasharray:2.0,2.0;" width="33" x="478.7993" y="7"/><text fill="#000000" font-family="sans-serif" font-size="12" font-style="italic" lengthAdjust="spacing" textLength="31" x="479.7993" y="19.1387">actor</text><line style="stroke:#A80036;stroke-width:1.5;" x1="410.7993" x2="507.7993" y1="33.9688" y2="33.9688"/><line style="stroke:#A80036;stroke-width:1.5;" x1="410.7993" x2="507.7993" y1="41.9688" y2="41.9688"/><text fill="#000000" font-family="sans-serif" font-size="11" lengthAdjust="spacing" textLength="41" x="415.7993" y="56.1792">check()</text><text fill="#000000" font-family="sans-serif" font-size="11" lengthAdjust="spacing" textLength="35" x="415.7993" y="68.9839">view()</text><!--MD5=[b24ed8d4ae84bae9290d9aab401637c7]
class Manager--><rect codeLine="38" fill="#FEFECE" filter="url(#ftg3ulu4zz9ri)" height="52.7734" id="Manager" style="stroke:#A80036;stroke-width:1.5;" width="93" x="208.7993" y="16.5"/><text fill="#000000" font-family="sans-serif" font-size="12" lengthAdjust="spacing" textLength="52" x="211.7993" y="32.6387">Manager</text><rect fill="#FFFFFF" height="15.9688" style="stroke:#000000;stroke-width:1.0;stroke-dasharray:2.0,2.0;" width="33" x="271.7993" y="13.5"/><text fill="#000000" font-family="sans-serif" font-size="12" font-style="italic" lengthAdjust="spacing" textLength="31" x="272.7993" y="25.6387">actor</text><line style="stroke:#A80036;stroke-width:1.5;" x1="209.7993" x2="300.7993" y1="40.4688" y2="40.4688"/><line style="stroke:#A80036;stroke-width:1.5;" x1="209.7993" x2="300.7993" y1="48.4688" y2="48.4688"/><text fill="#000000" font-family="sans-serif" font-size="11" lengthAdjust="spacing" textLength="32" x="214.7993" y="62.6792">click()</text><!--MD5=[3fd616f346a44cd59a91eb10b19e157c]
class User--><rect codeLine="44" fill="#FEFECE" filter="url(#ftg3ulu4zz9ri)" height="91.1875" id="User" style="stroke:#A80036;stroke-width:1.5;" width="71" x="540.7993" y="283"/><text fill="#000000" font-family="sans-serif" font-size="12" lengthAdjust="spacing" textLength="29" x="544.2993" y="299.1387">User</text><rect fill="#FFFFFF" height="15.9688" style="stroke:#000000;stroke-width:1.0;stroke-dasharray:2.0,2.0;" width="33" x="581.7993" y="280"/><text fill="#000000" font-family="sans-serif" font-size="12" font-style="italic" lengthAdjust="spacing" textLength="31" x="582.7993" y="292.1387">actor</text><line style="stroke:#A80036;stroke-width:1.5;" x1="541.7993" x2="610.7993" y1="306.9688" y2="306.9688"/><line style="stroke:#A80036;stroke-width:1.5;" x1="541.7993" x2="610.7993" y1="314.9688" y2="314.9688"/><text fill="#000000" font-family="sans-serif" font-size="11" lengthAdjust="spacing" textLength="48" x="546.7993" y="329.1792">update()</text><text fill="#000000" font-family="sans-serif" font-size="11" lengthAdjust="spacing" textLength="35" x="546.7993" y="341.9839">view()</text><text fill="#000000" font-family="sans-serif" font-size="11" lengthAdjust="spacing" textLength="59" x="546.7993" y="354.7886">checkout()</text><text fill="#000000" font-family="sans-serif" font-size="11" lengthAdjust="spacing" textLength="52" x="546.7993" y="367.5933">request()</text><!--MD5=[b5b9fe6137fa780f712b03145b11f121]
class AdminUser--><rect codeLine="50" fill="#FEFECE" filter="url(#ftg3ulu4zz9ri)" height="52.7734" id="AdminUser" style="stroke:#A80036;stroke-width:1.5;" width="107" x="622.7993" y="16.5"/><text fill="#000000" font-family="sans-serif" font-size="12" lengthAdjust="spacing" textLength="66" x="625.7993" y="32.6387">AdminUser</text><rect fill="#FFFFFF" height="15.9688" style="stroke:#000000;stroke-width:1.0;stroke-dasharray:2.0,2.0;" width="33" x="699.7993" y="13.5"/><text fill="#000000" font-family="sans-serif" font-size="12" font-style="italic" lengthAdjust="spacing" textLength="31" x="700.7993" y="25.6387">actor</text><line style="stroke:#A80036;stroke-width:1.5;" x1="623.7993" x2="728.7993" y1="40.4688" y2="40.4688"/><line style="stroke:#A80036;stroke-width:1.5;" x1="623.7993" x2="728.7993" y1="48.4688" y2="48.4688"/><text fill="#000000" font-family="sans-serif" font-size="11" lengthAdjust="spacing" textLength="27" x="628.7993" y="62.6792">get()</text><!--MD5=[3784c6daf2f1e07ecf082a66dd892343]
class Spreadsheet--><rect codeLine="17" fill="#FEFECE" filter="url(#ftg3ulu4zz9ri)" height="39.9688" id="Spreadsheet" style="stroke:#A80036;stroke-width:1.5;" width="84" x="79.2993" y="159.5"/><text fill="#000000" font-family="sans-serif" font-size="12" lengthAdjust="spacing" textLength="78" x="82.2993" y="175.6387">Spreadsheet</text><line style="stroke:#A80036;stroke-width:1.5;" x1="80.2993" x2="162.2993" y1="183.4688" y2="183.4688"/><line style="stroke:#A80036;stroke-width:1.5;" x1="80.2993" x2="162.2993" y1="191.4688" y2="191.4688"/><!--MD5=[2449a07004f88a39a49d8d677dad46f0]
class Availability--><rect codeLine="23" fill="#FEFECE" filter="url(#ftg3ulu4zz9ri)" height="39.9688" id="Availability" style="stroke:#A80036;stroke-width:1.5;" width="69" x="316.7993" y="159.5"/><text fill="#000000" font-family="sans-serif" font-size="12" lengthAdjust="spacing" textLength="63" x="319.7993" y="175.6387">Availability</text><line style="stroke:#A80036;stroke-width:1.5;" x1="317.7993" x2="384.7993" y1="183.4688" y2="183.4688"/><line style="stroke:#A80036;stroke-width:1.5;" x1="317.7993" x2="384.7993" y1="191.4688" y2="191.4688"/><!--MD5=[e3d83ec5fd90ea9f3f2bfe265cb53458]
class Status--><rect codeLine="31" fill="#FEFECE" filter="url(#ftg3ulu4zz9ri)" height="39.9688" id="Status" style="stroke:#A80036;stroke-width:1.5;" width="43" x="416.7993" y="451"/><text fill="#000000" font-family="sans-serif" font-size="12" lengthAdjust="spacing" textLength="37" x="419.7993" y="467.1387">Status</text><line style="stroke:#A80036;stroke-width:1.5;" x1="417.7993" x2="458.7993" y1="474.9688" y2="474.9688"/><line style="stroke:#A80036;stroke-width:1.5;" x1="417.7993" x2="458.7993" y1="482.9688" y2="482.9688"/><!--MD5=[3813445e07f7ee5d583a428701b0add1]
class Darin--><rect codeLine="33" fill="#FEFECE" filter="url(#ftg3ulu4zz9ri)" height="52.7734" id="Darin" style="stroke:#A80036;stroke-width:1.5;" width="62" x="224.2993" y="302"/><text fill="#000000" font-family="sans-serif" font-size="12" lengthAdjust="spacing" textLength="31" x="239.7993" y="318.1387">Darin</text><line style="stroke:#A80036;stroke-width:1.5;" x1="225.2993" x2="285.2993" y1="325.9688" y2="325.9688"/><line style="stroke:#A80036;stroke-width:1.5;" x1="225.2993" x2="285.2993" y1="333.9688" y2="333.9688"/><text fill="#000000" font-family="sans-serif" font-size="11" lengthAdjust="spacing" textLength="50" x="230.2993" y="348.1792">reorder()</text><!--MD5=[44a1b4afaef76c16e6c9ec4990ad0c8d]
class Item--><rect codeLine="36" fill="#FEFECE" filter="url(#ftg3ulu4zz9ri)" height="39.9688" id="Item" style="stroke:#A80036;stroke-width:1.5;" width="32" x="206.2993" y="451"/><text fill="#000000" font-family="sans-serif" font-size="12" lengthAdjust="spacing" textLength="26" x="209.2993" y="467.1387">Item</text><line style="stroke:#A80036;stroke-width:1.5;" x1="207.2993" x2="237.2993" y1="474.9688" y2="474.9688"/><line style="stroke:#A80036;stroke-width:1.5;" x1="207.2993" x2="237.2993" y1="482.9688" y2="482.9688"/><!--MD5=[90ba54f54370e77ef24813dec6818fa3]
class Button--><rect codeLine="41" fill="#FEFECE" filter="url(#ftg3ulu4zz9ri)" height="52.7734" id="Button" style="stroke:#A80036;stroke-width:1.5;" width="52" x="229.2993" y="153"/><text fill="#000000" font-family="sans-serif" font-size="12" lengthAdjust="spacing" textLength="38" x="236.2993" y="169.1387">Button</text><line style="stroke:#A80036;stroke-width:1.5;" x1="230.2993" x2="280.2993" y1="176.9688" y2="176.9688"/><line style="stroke:#A80036;stroke-width:1.5;" x1="230.2993" x2="280.2993" y1="184.9688" y2="184.9688"/><text fill="#000000" font-family="sans-serif" font-size="11" lengthAdjust="spacing" textLength="40" x="235.2993" y="199.1792">email()</text><!--MD5=[7e2bc2f128e759c5889ccd6a2666d576]
class EmailNotification--><rect codeLine="53" fill="#FEFECE" filter="url(#ftg3ulu4zz9ri)" height="39.9688" id="EmailNotification" style="stroke:#A80036;stroke-width:1.5;" width="103" x="624.7993" y="159.5"/><text fill="#000000" font-family="sans-serif" font-size="12" lengthAdjust="spacing" textLength="97" x="627.7993" y="175.6387">EmailNotification</text><line style="stroke:#A80036;stroke-width:1.5;" x1="625.7993" x2="726.7993" y1="183.4688" y2="183.4688"/><line style="stroke:#A80036;stroke-width:1.5;" x1="625.7993" x2="726.7993" y1="191.4688" y2="191.4688"/><!--MD5=[f9a29335b499db729be669fd1bd54958]
class Account--><rect codeLine="55" fill="#FEFECE" filter="url(#ftg3ulu4zz9ri)" height="39.9688" id="Account" style="stroke:#A80036;stroke-width:1.5;" width="54" x="593.2993" y="451"/><text fill="#000000" font-family="sans-serif" font-size="12" lengthAdjust="spacing" textLength="48" x="596.2993" y="467.1387">Account</text><line style="stroke:#A80036;stroke-width:1.5;" x1="594.2993" x2="646.2993" y1="474.9688" y2="474.9688"/><line style="stroke:#A80036;stroke-width:1.5;" x1="594.2993" x2="646.2993" y1="482.9688" y2="482.9688"/><!--MD5=[9c46470aa33a0c75e6d1dfdefc2f9c22]
class Reservation--><rect codeLine="57" fill="#FEFECE" filter="url(#ftg3ulu4zz9ri)" height="39.9688" id="Reservation" style="stroke:#A80036;stroke-width:1.5;" width="77" x="420.7993" y="159.5"/><text fill="#000000" font-family="sans-serif" font-size="12" lengthAdjust="spacing" textLength="71" x="423.7993" y="175.6387">Reservation</text><line style="stroke:#A80036;stroke-width:1.5;" x1="421.7993" x2="496.7993" y1="183.4688" y2="183.4688"/><line style="stroke:#A80036;stroke-width:1.5;" x1="421.7993" x2="496.7993" y1="191.4688" y2="191.4688"/><!--MD5=[4f1f3706c1a355a8488e154afcaed5df]
class Location--><rect codeLine="59" fill="#FEFECE" filter="url(#ftg3ulu4zz9ri)" height="39.9688" id="Location" style="stroke:#A80036;stroke-width:1.5;" width="56" x="533.2993" y="159.5"/><text fill="#000000" font-family="sans-serif" font-size="12" lengthAdjust="spacing" textLength="50" x="536.2993" y="175.6387">Location</text><line style="stroke:#A80036;stroke-width:1.5;" x1="534.2993" x2="588.2993" y1="183.4688" y2="183.4688"/><line style="stroke:#A80036;stroke-width:1.5;" x1="534.2993" x2="588.2993" y1="191.4688" y2="191.4688"/><!--MD5=[028fba31e0312914fa4880b63f0540b8]
class Detail--><rect codeLine="61" fill="#FEFECE" filter="url(#ftg3ulu4zz9ri)" height="39.9688" id="Detail" style="stroke:#A80036;stroke-width:1.5;" width="40" x="691.2993" y="451"/><text fill="#000000" font-family="sans-serif" font-size="12" lengthAdjust="spacing" textLength="34" x="694.2993" y="467.1387">Detail</text><line style="stroke:#A80036;stroke-width:1.5;" x1="692.2993" x2="730.2993" y1="474.9688" y2="474.9688"/><line style="stroke:#A80036;stroke-width:1.5;" x1="692.2993" x2="730.2993" y1="482.9688" y2="482.9688"/><!--MD5=[bed676bd0837f909e4d32ec2dc9dc1c5]
class logs--><rect codeLine="63" fill="#FEFECE" filter="url(#ftg3ulu4zz9ri)" height="39.9688" id="logs" style="stroke:#A80036;stroke-width:1.5;" width="32" x="11.2993" y="451"/><text fill="#000000" font-family="sans-serif" font-size="12" lengthAdjust="spacing" textLength="26" x="14.2993" y="467.1387">logs</text><line style="stroke:#A80036;stroke-width:1.5;" x1="12.2993" x2="42.2993" y1="474.9688" y2="474.9688"/><line style="stroke:#A80036;stroke-width:1.5;" x1="12.2993" x2="42.2993" y1="482.9688" y2="482.9688"/><!--MD5=[a777dffcb385430073f09624734375ef]
link AdminUser to EmailNotification--><path codeLine="65" d="M676.2993,69.615 C676.2993,93.991 676.2993,130.398 676.2993,154.296 " fill="none" id="AdminUser-to-EmailNotification" style="stroke:#A80036;stroke-width:1.0;"/><polygon fill="#A80036" points="676.2993,159.492,680.2993,150.492,676.2993,154.492,672.2993,150.492,676.2993,159.492" style="stroke:#A80036;stroke-width:1.0;"/><text fill="#000000" font-family="sans-serif" font-size="13" lengthAdjust="spacing" textLength="21" x="677.2993" y="119.0669">get</text><!--MD5=[76e854a6bdf5913485f419192f52b332]
link Admin to logs--><path codeLine="66" d="M85.1577,347.312 C62.9107,359.74 37.0233,378.654 24.2993,404 C17.8937,416.7601 18.4266,432.7154 20.665,445.7419 " fill="none" id="Admin-to-logs" style="stroke:#A80036;stroke-width:1.0;"/><polygon fill="#A80036" points="21.6343,450.7603,23.8548,441.165,20.686,445.851,16,442.6823,21.6343,450.7603" style="stroke:#A80036;stroke-width:1.0;"/><text fill="#000000" font-family="sans-serif" font-size="13" lengthAdjust="spacing" textLength="29" x="25.2993" y="417.0669">read</text><!--MD5=[b5993653948353ed090904e21ea229e1]
link Volunteer to Availability--><path codeLine="67" d="M433.4303,76.216 C413.8093,100.652 387.3123,133.651 369.7843,155.479 " fill="none" id="Volunteer-to-Availability" style="stroke:#A80036;stroke-width:1.0;"/><polygon fill="#A80036" points="366.6203,159.42,375.3739,154.9062,369.7506,155.5211,369.1357,149.8978,366.6203,159.42" style="stroke:#A80036;stroke-width:1.0;"/><text fill="#000000" font-family="sans-serif" font-size="13" lengthAdjust="spacing" textLength="37" x="410.2993" y="119.0669">check</text><!--MD5=[985973f9e03e409a5b242353e3e71768]
link Volunteer to Reservation--><path codeLine="68" d="M459.2993,76.216 C459.2993,100.247 459.2993,132.558 459.2993,154.383 " fill="none" id="Volunteer-to-Reservation" style="stroke:#A80036;stroke-width:1.0;"/><polygon fill="#A80036" points="459.2993,159.42,463.2993,150.42,459.2993,154.42,455.2993,150.42,459.2993,159.42" style="stroke:#A80036;stroke-width:1.0;"/><text fill="#000000" font-family="sans-serif" font-size="13" lengthAdjust="spacing" textLength="30" x="460.2993" y="119.0669">view</text><!--MD5=[64e0f86e94d6dfda4e58f555418d177b]
link Darin to Item--><path codeLine="69" d="M249.2463,355.27 C243.2013,381.008 233.9773,420.2786 228.0433,445.5439 " fill="none" id="Darin-to-Item" style="stroke:#A80036;stroke-width:1.0;"/><polygon fill="#A80036" points="226.8293,450.7128,232.7816,442.8661,227.9728,445.8453,224.9936,441.0365,226.8293,450.7128" style="stroke:#A80036;stroke-width:1.0;"/><text fill="#000000" font-family="sans-serif" font-size="13" lengthAdjust="spacing" textLength="47" x="238.2993" y="417.0669">reorder</text><!--MD5=[9acc32825fcbd67eb847476300da9d21]
link User to Status--><path codeLine="70" d="M540.5923,371.475 C526.5703,387.382 510.0783,405.4067 494.2993,421 C484.6463,430.5394 473.4853,440.5012 463.6793,448.9323 " fill="none" id="User-to-Status" style="stroke:#A80036;stroke-width:1.0;"/><polygon fill="#A80036" points="459.8523,452.2043,469.2919,449.3946,463.6522,448.9545,464.0922,443.3148,459.8523,452.2043" style="stroke:#A80036;stroke-width:1.0;"/><text fill="#000000" font-family="sans-serif" font-size="13" lengthAdjust="spacing" textLength="45" x="512.2993" y="417.0669">update</text><!--MD5=[87e802f94dff5db0b14b612664619da8]
link User to Account--><path codeLine="71" d="M590.3423,374.341 C597.8083,398.1806 606.6863,426.5316 612.8303,446.1494 " fill="none" id="User-to-Account" style="stroke:#A80036;stroke-width:1.0;"/><polygon fill="#A80036" points="614.3303,450.9408,615.4577,441.1567,612.836,446.1693,607.8234,443.5476,614.3303,450.9408" style="stroke:#A80036;stroke-width:1.0;"/><text fill="#000000" font-family="sans-serif" font-size="13" lengthAdjust="spacing" textLength="49" x="606.2993" y="417.0669">request</text><!--MD5=[10d3a138017e4345618480df327ed029]
link Button to Darin--><path codeLine="72" d="M255.2993,206.105 C255.2993,231.246 255.2993,269.627 255.2993,296.484 " fill="none" id="Button-to-Darin" style="stroke:#A80036;stroke-width:1.0;"/><polygon fill="#A80036" points="255.2993,301.695,259.2993,292.695,255.2993,296.695,251.2993,292.695,255.2993,301.695" style="stroke:#A80036;stroke-width:1.0;"/><text fill="#000000" font-family="sans-serif" font-size="13" lengthAdjust="spacing" textLength="35" x="256.2993" y="249.0669">email</text><!--MD5=[0c33994447a5a115d17347b31ff58a4b]
link Admin to Item--><path codeLine="73" d="M94.8082,374.247 C88.2837,389.951 85.7781,407.1211 95.2993,421 C119.0863,455.6739 171.1563,465.8193 200.7043,468.7824 " fill="none" id="Admin-to-Item" style="stroke:#A80036;stroke-width:1.0;"/><polygon fill="#A80036" points="205.9473,469.2564,197.3438,464.4626,200.9676,468.8064,196.6238,472.4302,205.9473,469.2564" style="stroke:#A80036;stroke-width:1.0;"/><text fill="#000000" font-family="sans-serif" font-size="13" lengthAdjust="spacing" textLength="49" x="96.2993" y="417.0669">reserve</text><!--MD5=[0c33994447a5a115d17347b31ff58a4b]
link Admin to Item--><path codeLine="77" d="M155.5763,374.341 C172.3453,398.3827 192.3153,427.0124 206.0103,446.6463 " fill="none" id="Admin-to-Item-1" style="stroke:#A80036;stroke-width:1.0;"/><polygon fill="#A80036" points="209.0053,450.9408,207.1376,441.2707,206.145,446.8397,200.5759,445.8472,209.0053,450.9408" style="stroke:#A80036;stroke-width:1.0;"/><text fill="#000000" font-family="sans-serif" font-size="13" lengthAdjust="spacing" textLength="24" x="189.2993" y="417.0669">add</text><!--MD5=[570ec5c4e8a1dd44e7fcb71a8cfc57a6]
link User to Detail--><path codeLine="74" d="M611.9353,356.293 C628.7023,369.718 648.4463,386.761 664.2993,404 C676.3613,417.1166 687.9953,433.4133 696.6703,446.5309 " fill="none" id="User-to-Detail" style="stroke:#A80036;stroke-width:1.0;"/><polygon fill="#A80036" points="699.4953,450.8484,697.9134,441.1274,696.7571,446.6648,691.2197,445.5085,699.4953,450.8484" style="stroke:#A80036;stroke-width:1.0;"/><text fill="#000000" font-family="sans-serif" font-size="13" lengthAdjust="spacing" textLength="30" x="677.2993" y="417.0669">view</text><!--MD5=[fbdffb236416bd2d42dd13dbb3b60295]
link Developer to Spreadsheet--><path codeLine="75" d="M121.2993,69.615 C121.2993,93.991 121.2993,130.398 121.2993,154.296 " fill="none" id="Developer-to-Spreadsheet" style="stroke:#A80036;stroke-width:1.0;"/><polygon fill="#A80036" points="121.2993,159.492,125.2993,150.492,121.2993,154.492,117.2993,150.492,121.2993,159.492" style="stroke:#A80036;stroke-width:1.0;"/><text fill="#000000" font-family="sans-serif" font-size="13" lengthAdjust="spacing" textLength="42" x="122.2993" y="119.0669">import</text><!--MD5=[53a588df3f5f0f7f452d1b4562b14650]
link User to Item--><path codeLine="76" d="M540.5233,347.235 C510.1253,362.313 465.3363,384.547 426.2993,404 C411.1783,411.5354 408.0373,414.8569 392.2993,421 C340.1523,441.3544 276.0943,457.5619 243.5133,465.2109 " fill="none" id="User-to-Item" style="stroke:#A80036;stroke-width:1.0;"/><polygon fill="#A80036" points="238.5613,466.3644,248.2341,468.2184,243.4309,465.2301,246.4192,460.4269,238.5613,466.3644" style="stroke:#A80036;stroke-width:1.0;"/><text fill="#000000" font-family="sans-serif" font-size="13" lengthAdjust="spacing" textLength="58" x="427.2993" y="417.0669">checkout</text><!--MD5=[b1a786bad21caa5949445ef60c77957d]
link Volunteer to Location--><path codeLine="78" d="M483.7313,76.216 C502.1853,100.551 527.0793,133.377 543.6343,155.207 " fill="none" id="Volunteer-to-Location" style="stroke:#A80036;stroke-width:1.0;"/><polygon fill="#A80036" points="546.8303,159.42,544.5793,149.8318,543.8091,155.436,538.2049,154.6658,546.8303,159.42" style="stroke:#A80036;stroke-width:1.0;"/><text fill="#000000" font-family="sans-serif" font-size="13" lengthAdjust="spacing" textLength="37" x="518.2993" y="119.0669">check</text><!--MD5=[b59ec05fccf4ecb7c4fb4d6d1f74254f]
link Admin to Status--><path codeLine="79" d="M163.6633,352.608 C176.9643,359.943 192.0563,367.761 206.2993,374 C244.1483,390.58 255.9123,388.705 294.2993,404 C336.0793,420.6468 383.2453,442.9592 411.8653,456.9051 " fill="none" id="Admin-to-Status" style="stroke:#A80036;stroke-width:1.0;"/><polygon fill="#A80036" points="416.6413,459.2387,410.3099,451.6946,412.1486,457.0443,406.7989,458.883,416.6413,459.2387" style="stroke:#A80036;stroke-width:1.0;"/><text fill="#000000" font-family="sans-serif" font-size="13" lengthAdjust="spacing" textLength="47" x="336.2993" y="417.0669">change</text><!--MD5=[8e80922e33f05c5fc9e20570b2b387e8]
link Manager to Button--><path codeLine="80" d="M255.2993,69.615 C255.2993,91.865 255.2993,124.139 255.2993,147.774 " fill="none" id="Manager-to-Button" style="stroke:#A80036;stroke-width:1.0;"/><polygon fill="#A80036" points="255.2993,152.98,259.2993,143.98,255.2993,147.98,251.2993,143.98,255.2993,152.98" style="stroke:#A80036;stroke-width:1.0;"/><text fill="#000000" font-family="sans-serif" font-size="13" lengthAdjust="spacing" textLength="27" x="256.2993" y="119.0669">click</text><!--MD5=[8ede389557c22486aa551ee99bc2cd33]
@startuml
hide circle
class Developer<actor> {
}
class Admin<actor> {
}
class Volunteer<actor> {
}
class Manager<actor> {
}
class User<actor> {
}
class AdminUser<actor> {
}
class Developer {
	import()
}
class Spreadsheet {
}
class Volunteer {
	check()
	view()
}
class Availability {
}
class Admin {
	reserve()
	read()
	change()
	add()
}
class Status {
}
class Darin {
	reorder()
}
class Item {
}
class Manager {
	click()
}
class Button {
	email()
}
class User {
	update()
	view()
	checkout()
	request()
}
class AdminUser {
	get()
}
class EmailNotification {
}
class Account {
}
class Reservation {
}
class Location {
}
class Detail {
}
class logs {
}
AdminUser - -> EmailNotification : get
Admin - -> logs : read
Volunteer - -> Availability : check
Volunteer - -> Reservation : view
Darin - -> Item : reorder
User - -> Status : update
User - -> Account : request
Button - -> Darin : email
Admin - -> Item : reserve
User - -> Detail : view
Developer - -> Spreadsheet : import
User - -> Item : checkout
Admin - -> Item : add
Volunteer - -> Location : check
Admin - -> Status : change
Manager - -> Button : click
@enduml

PlantUML version 1.2021.6beta6(Unknown compile time)
(GPL source distribution)
Java Runtime: Java(TM) SE Runtime Environment
JVM: Java HotSpot(TM) 64-Bit Server VM
Default Encoding: UTF-8
Language: en
Country: US
--></g></svg>