<?xml version="1.0" encoding="UTF-8" standalone="no"?><svg xmlns="http://www.w3.org/2000/svg" xmlns:xlink="http://www.w3.org/1999/xlink" contentScriptType="application/ecmascript" contentStyleType="text/css" height="707px" preserveAspectRatio="none" style="width:2212px;height:707px;background:#FFFFFF;" version="1.1" viewBox="0 0 2212 707" width="2212px" zoomAndPan="magnify"><defs><filter height="300%" id="f1x3ffx3x4ad8l" width="300%" x="-1" y="-1"><feGaussianBlur result="blurOut" stdDeviation="2.0"/><feColorMatrix in="blurOut" result="blurOut2" type="matrix" values="0 0 0 0 0 0 0 0 0 0 0 0 0 0 0 0 0 0 .4 0"/><feOffset dx="4.0" dy="4.0" in="blurOut2" result="blurOut3"/><feBlend in="SourceGraphic" in2="blurOut3" mode="normal"/></filter></defs><g><!--MD5=[3fd616f346a44cd59a91eb10b19e157c]
class User--><rect codeLine="24" fill="#FEFECE" filter="url(#f1x3ffx3x4ad8l)" height="372.8906" id="User" style="stroke:#A80036;stroke-width:1.5;" width="101" x="991.5" y="10"/><text fill="#000000" font-family="sans-serif" font-size="12" lengthAdjust="spacing" textLength="29" x="1010" y="26.1387">User</text><rect fill="#FFFFFF" height="15.9688" style="stroke:#000000;stroke-width:1.0;stroke-dasharray:2.0,2.0;" width="33" x="1062.5" y="7"/><text fill="#000000" font-family="sans-serif" font-size="12" font-style="italic" lengthAdjust="spacing" textLength="31" x="1063.5" y="19.1387">actor</text><line style="stroke:#A80036;stroke-width:1.5;" x1="992.5" x2="1091.5" y1="33.9688" y2="33.9688"/><text fill="#000000" font-family="sans-serif" font-size="11" lengthAdjust="spacing" textLength="32" x="997.5" y="48.1792">photo</text><text fill="#000000" font-family="sans-serif" font-size="11" lengthAdjust="spacing" textLength="24" x="997.5" y="60.9839">rank</text><text fill="#000000" font-family="sans-serif" font-size="11" lengthAdjust="spacing" textLength="33" x="997.5" y="73.7886">friend</text><text fill="#000000" font-family="sans-serif" font-size="11" lengthAdjust="spacing" textLength="82" x="997.5" y="86.5933">challengeTask</text><text fill="#000000" font-family="sans-serif" font-size="11" lengthAdjust="spacing" textLength="56" x="997.5" y="99.3979">challenge</text><text fill="#000000" font-family="sans-serif" font-size="11" lengthAdjust="spacing" textLength="89" x="997.5" y="112.2026">challengeScore</text><line style="stroke:#A80036;stroke-width:1.5;" x1="992.5" x2="1091.5" y1="118.7969" y2="118.7969"/><text fill="#000000" font-family="sans-serif" font-size="11" lengthAdjust="spacing" textLength="37" x="997.5" y="133.0073">know()</text><text fill="#000000" font-family="sans-serif" font-size="11" lengthAdjust="spacing" textLength="52" x="997.5" y="145.812">receive()</text><text fill="#000000" font-family="sans-serif" font-size="11" lengthAdjust="spacing" textLength="22" x="997.5" y="158.6167">do()</text><text fill="#000000" font-family="sans-serif" font-size="11" lengthAdjust="spacing" textLength="30" x="997.5" y="171.4214">pick()</text><text fill="#000000" font-family="sans-serif" font-size="11" lengthAdjust="spacing" textLength="38" x="997.5" y="184.2261">finish()</text><text fill="#000000" font-family="sans-serif" font-size="11" lengthAdjust="spacing" textLength="46" x="997.5" y="197.0308">submit()</text><text fill="#000000" font-family="sans-serif" font-size="11" lengthAdjust="spacing" textLength="27" x="997.5" y="209.8354">get()</text><text fill="#000000" font-family="sans-serif" font-size="11" lengthAdjust="spacing" textLength="32" x="997.5" y="222.6401">play()</text><text fill="#000000" font-family="sans-serif" font-size="11" lengthAdjust="spacing" textLength="41" x="997.5" y="235.4448">check()</text><text fill="#000000" font-family="sans-serif" font-size="11" lengthAdjust="spacing" textLength="40" x="997.5" y="248.2495">invite()</text><text fill="#000000" font-family="sans-serif" font-size="11" lengthAdjust="spacing" textLength="36" x="997.5" y="261.0542">send()</text><text fill="#000000" font-family="sans-serif" font-size="11" lengthAdjust="spacing" textLength="33" x="997.5" y="273.8589">user()</text><text fill="#000000" font-family="sans-serif" font-size="11" lengthAdjust="spacing" textLength="37" x="997.5" y="286.6636">have()</text><text fill="#000000" font-family="sans-serif" font-size="11" lengthAdjust="spacing" textLength="41" x="997.5" y="299.4683">verify()</text><text fill="#000000" font-family="sans-serif" font-size="11" lengthAdjust="spacing" textLength="33" x="997.5" y="312.2729">give()</text><text fill="#000000" font-family="sans-serif" font-size="11" lengthAdjust="spacing" textLength="30" x="997.5" y="325.0776">see()</text><text fill="#000000" font-family="sans-serif" font-size="11" lengthAdjust="spacing" textLength="29" x="997.5" y="337.8823">add()</text><text fill="#000000" font-family="sans-serif" font-size="11" lengthAdjust="spacing" textLength="29" x="997.5" y="350.687">buy()</text><text fill="#000000" font-family="sans-serif" font-size="11" lengthAdjust="spacing" textLength="68" x="997.5" y="363.4917">participate()</text><text fill="#000000" font-family="sans-serif" font-size="11" lengthAdjust="spacing" textLength="22" x="997.5" y="376.2964">go()</text><!--MD5=[d6181cb537bdc20c0a3007a98a56832d]
class Student--><rect codeLine="48" fill="#FEFECE" filter="url(#f1x3ffx3x4ad8l)" height="103.9922" id="Student" style="stroke:#A80036;stroke-width:1.5;" width="91" x="1975.5" y="144.5"/><text fill="#000000" font-family="sans-serif" font-size="12" lengthAdjust="spacing" textLength="46" x="1980.5" y="160.6387">Student</text><rect fill="#FFFFFF" height="15.9688" style="stroke:#000000;stroke-width:1.0;stroke-dasharray:2.0,2.0;" width="33" x="2036.5" y="141.5"/><text fill="#000000" font-family="sans-serif" font-size="12" font-style="italic" lengthAdjust="spacing" textLength="31" x="2037.5" y="153.6387">actor</text><line style="stroke:#A80036;stroke-width:1.5;" x1="1976.5" x2="2065.5" y1="168.4688" y2="168.4688"/><text fill="#000000" font-family="sans-serif" font-size="11" lengthAdjust="spacing" textLength="79" x="1981.5" y="182.6792">challengerList</text><line style="stroke:#A80036;stroke-width:1.5;" x1="1976.5" x2="2065.5" y1="189.2734" y2="189.2734"/><text fill="#000000" font-family="sans-serif" font-size="11" lengthAdjust="spacing" textLength="30" x="1981.5" y="203.4839">see()</text><text fill="#000000" font-family="sans-serif" font-size="11" lengthAdjust="spacing" textLength="53" x="1981.5" y="216.2886">prepare()</text><text fill="#000000" font-family="sans-serif" font-size="11" lengthAdjust="spacing" textLength="59" x="1981.5" y="229.0933">compete()</text><text fill="#000000" font-family="sans-serif" font-size="11" lengthAdjust="spacing" textLength="43" x="1981.5" y="241.8979">select()</text><!--MD5=[89bc1b85bee2919638794409a9ffdf85]
class Competitor--><rect codeLine="67" fill="#FEFECE" filter="url(#f1x3ffx3x4ad8l)" height="116.7969" id="Competitor" style="stroke:#A80036;stroke-width:1.5;" width="108" x="1907" y="460"/><text fill="#000000" font-family="sans-serif" font-size="12" lengthAdjust="spacing" textLength="67" x="1910" y="476.1387">Competitor</text><rect fill="#FFFFFF" height="15.9688" style="stroke:#000000;stroke-width:1.0;stroke-dasharray:2.0,2.0;" width="33" x="1985" y="457"/><text fill="#000000" font-family="sans-serif" font-size="12" font-style="italic" lengthAdjust="spacing" textLength="31" x="1986" y="469.1387">actor</text><line style="stroke:#A80036;stroke-width:1.5;" x1="1908" x2="2014" y1="483.9688" y2="483.9688"/><text fill="#000000" font-family="sans-serif" font-size="11" lengthAdjust="spacing" textLength="24" x="1913" y="498.1792">post</text><text fill="#000000" font-family="sans-serif" font-size="11" lengthAdjust="spacing" textLength="79" x="1913" y="510.9839">challengePost</text><text fill="#000000" font-family="sans-serif" font-size="11" lengthAdjust="spacing" textLength="77" x="1913" y="523.7886">opponentPost</text><line style="stroke:#A80036;stroke-width:1.5;" x1="1908" x2="2014" y1="530.3828" y2="530.3828"/><text fill="#000000" font-family="sans-serif" font-size="11" lengthAdjust="spacing" textLength="32" x="1913" y="544.5933">post()</text><text fill="#000000" font-family="sans-serif" font-size="11" lengthAdjust="spacing" textLength="41" x="1913" y="557.3979">verify()</text><text fill="#000000" font-family="sans-serif" font-size="11" lengthAdjust="spacing" textLength="35" x="1913" y="570.2026">view()</text><!--MD5=[b34797a66dc35cbf1d65f7e3ca75530e]
class Task--><rect codeLine="18" fill="#FEFECE" filter="url(#f1x3ffx3x4ad8l)" height="39.9688" id="Task" style="stroke:#A80036;stroke-width:1.5;" width="34" x="828" y="654"/><text fill="#000000" font-family="sans-serif" font-size="12" lengthAdjust="spacing" textLength="28" x="831" y="670.1387">Task</text><line style="stroke:#A80036;stroke-width:1.5;" x1="829" x2="861" y1="677.9688" y2="677.9688"/><line style="stroke:#A80036;stroke-width:1.5;" x1="829" x2="861" y1="685.9688" y2="685.9688"/><!--MD5=[107af66394bf1ebaa045812c9c475148]
class Score--><rect codeLine="20" fill="#FEFECE" filter="url(#f1x3ffx3x4ad8l)" height="39.9688" id="Score" style="stroke:#A80036;stroke-width:1.5;" width="42" x="1684" y="654"/><text fill="#000000" font-family="sans-serif" font-size="12" lengthAdjust="spacing" textLength="36" x="1687" y="670.1387">Score</text><line style="stroke:#A80036;stroke-width:1.5;" x1="1685" x2="1725" y1="677.9688" y2="677.9688"/><line style="stroke:#A80036;stroke-width:1.5;" x1="1685" x2="1725" y1="685.9688" y2="685.9688"/><!--MD5=[0851f84a889f989e7bb0bebc385d0f09]
class Request--><rect codeLine="22" fill="#FEFECE" filter="url(#f1x3ffx3x4ad8l)" height="39.9688" id="Request" style="stroke:#A80036;stroke-width:1.5;" width="55" x="359.5" y="654"/><text fill="#000000" font-family="sans-serif" font-size="12" lengthAdjust="spacing" textLength="49" x="362.5" y="670.1387">Request</text><line style="stroke:#A80036;stroke-width:1.5;" x1="360.5" x2="413.5" y1="677.9688" y2="677.9688"/><line style="stroke:#A80036;stroke-width:1.5;" x1="360.5" x2="413.5" y1="685.9688" y2="685.9688"/><!--MD5=[2f84bf3c086cd2876da2813356eb9179]
class Iphonemodel--><rect codeLine="46" fill="#FEFECE" filter="url(#f1x3ffx3x4ad8l)" height="39.9688" id="Iphonemodel" style="stroke:#A80036;stroke-width:1.5;" width="85" x="221.5" y="498.5"/><text fill="#000000" font-family="sans-serif" font-size="12" lengthAdjust="spacing" textLength="79" x="224.5" y="514.6387">Iphonemodel</text><line style="stroke:#A80036;stroke-width:1.5;" x1="222.5" x2="305.5" y1="522.4688" y2="522.4688"/><line style="stroke:#A80036;stroke-width:1.5;" x1="222.5" x2="305.5" y1="530.4688" y2="530.4688"/><!--MD5=[a805b40f8193e3b705560a3818c5c109]
class Photo--><rect codeLine="54" fill="#FEFECE" filter="url(#f1x3ffx3x4ad8l)" height="39.9688" id="Photo" style="stroke:#A80036;stroke-width:1.5;" width="39" x="341.5" y="498.5"/><text fill="#000000" font-family="sans-serif" font-size="12" lengthAdjust="spacing" textLength="33" x="344.5" y="514.6387">Photo</text><line style="stroke:#A80036;stroke-width:1.5;" x1="342.5" x2="379.5" y1="522.4688" y2="522.4688"/><line style="stroke:#A80036;stroke-width:1.5;" x1="342.5" x2="379.5" y1="530.4688" y2="530.4688"/><!--MD5=[4c122067c55db3bfdcadf29dc88875c9]
class Reward--><rect codeLine="56" fill="#FEFECE" filter="url(#f1x3ffx3x4ad8l)" height="39.9688" id="Reward" style="stroke:#A80036;stroke-width:1.5;" width="51" x="415.5" y="498.5"/><text fill="#000000" font-family="sans-serif" font-size="12" lengthAdjust="spacing" textLength="45" x="418.5" y="514.6387">Reward</text><line style="stroke:#A80036;stroke-width:1.5;" x1="416.5" x2="465.5" y1="522.4688" y2="522.4688"/><line style="stroke:#A80036;stroke-width:1.5;" x1="416.5" x2="465.5" y1="530.4688" y2="530.4688"/><!--MD5=[2e4b1ce3760bf079ed339232a30b7581]
class FinishTime--><rect codeLine="58" fill="#FEFECE" filter="url(#f1x3ffx3x4ad8l)" height="39.9688" id="FinishTime" style="stroke:#A80036;stroke-width:1.5;" width="69" x="501.5" y="498.5"/><text fill="#000000" font-family="sans-serif" font-size="12" lengthAdjust="spacing" textLength="63" x="504.5" y="514.6387">FinishTime</text><line style="stroke:#A80036;stroke-width:1.5;" x1="502.5" x2="569.5" y1="522.4688" y2="522.4688"/><line style="stroke:#A80036;stroke-width:1.5;" x1="502.5" x2="569.5" y1="530.4688" y2="530.4688"/><!--MD5=[fa3465b439325c4c1dc90e30518f132c]
class Sth--><rect codeLine="60" fill="#FEFECE" filter="url(#f1x3ffx3x4ad8l)" height="39.9688" id="Sth" style="stroke:#A80036;stroke-width:1.5;" width="25" x="605.5" y="498.5"/><text fill="#000000" font-family="sans-serif" font-size="12" lengthAdjust="spacing" textLength="19" x="608.5" y="514.6387">Sth</text><line style="stroke:#A80036;stroke-width:1.5;" x1="606.5" x2="629.5" y1="522.4688" y2="522.4688"/><line style="stroke:#A80036;stroke-width:1.5;" x1="606.5" x2="629.5" y1="530.4688" y2="530.4688"/><!--MD5=[6c1718406714b1aba44ecc3de22ac927]
class Chance--><rect codeLine="62" fill="#FEFECE" filter="url(#f1x3ffx3x4ad8l)" height="52.7734" id="Chance" style="stroke:#A80036;stroke-width:1.5;" width="50" x="2148" y="170"/><text fill="#000000" font-family="sans-serif" font-size="12" lengthAdjust="spacing" textLength="44" x="2151" y="186.1387">Chance</text><line style="stroke:#A80036;stroke-width:1.5;" x1="2149" x2="2197" y1="193.9688" y2="193.9688"/><line style="stroke:#A80036;stroke-width:1.5;" x1="2149" x2="2197" y1="201.9688" y2="201.9688"/><text fill="#000000" font-family="sans-serif" font-size="11" lengthAdjust="spacing" textLength="32" x="2154" y="216.1792">click()</text><!--MD5=[90ba54f54370e77ef24813dec6818fa3]
class Button--><rect codeLine="65" fill="#FEFECE" filter="url(#f1x3ffx3x4ad8l)" height="39.9688" id="Button" style="stroke:#A80036;stroke-width:1.5;" width="44" x="2151" y="498.5"/><text fill="#000000" font-family="sans-serif" font-size="12" lengthAdjust="spacing" textLength="38" x="2154" y="514.6387">Button</text><line style="stroke:#A80036;stroke-width:1.5;" x1="2152" x2="2194" y1="522.4688" y2="522.4688"/><line style="stroke:#A80036;stroke-width:1.5;" x1="2152" x2="2194" y1="530.4688" y2="530.4688"/><!--MD5=[9bb0bdd047fba1a3c8d48282c35b4537]
class Post--><rect codeLine="72" fill="#FEFECE" filter="url(#f1x3ffx3x4ad8l)" height="39.9688" id="Post" style="stroke:#A80036;stroke-width:1.5;" width="31" x="1873.5" y="654"/><text fill="#000000" font-family="sans-serif" font-size="12" lengthAdjust="spacing" textLength="25" x="1876.5" y="670.1387">Post</text><line style="stroke:#A80036;stroke-width:1.5;" x1="1874.5" x2="1903.5" y1="677.9688" y2="677.9688"/><line style="stroke:#A80036;stroke-width:1.5;" x1="1874.5" x2="1903.5" y1="685.9688" y2="685.9688"/><!--MD5=[f275f3fa57eca013602c3f6cd77e86fd]
class Challenge--><rect codeLine="74" fill="#FEFECE" filter="url(#f1x3ffx3x4ad8l)" height="52.7734" id="Challenge" style="stroke:#A80036;stroke-width:1.5;" width="65" x="1202.5" y="492"/><text fill="#000000" font-family="sans-serif" font-size="12" lengthAdjust="spacing" textLength="59" x="1205.5" y="508.1387">Challenge</text><line style="stroke:#A80036;stroke-width:1.5;" x1="1203.5" x2="1266.5" y1="515.9688" y2="515.9688"/><line style="stroke:#A80036;stroke-width:1.5;" x1="1203.5" x2="1266.5" y1="523.9688" y2="523.9688"/><text fill="#000000" font-family="sans-serif" font-size="11" lengthAdjust="spacing" textLength="37" x="1208.5" y="538.1792">have()</text><!--MD5=[0f690a215a17a0cf4b9f948ca5dd1b3e]
class Rank--><rect codeLine="77" fill="#FEFECE" filter="url(#f1x3ffx3x4ad8l)" height="39.9688" id="Rank" style="stroke:#A80036;stroke-width:1.5;" width="34" x="754" y="498.5"/><text fill="#000000" font-family="sans-serif" font-size="12" lengthAdjust="spacing" textLength="28" x="757" y="514.6387">Rank</text><line style="stroke:#A80036;stroke-width:1.5;" x1="755" x2="787" y1="522.4688" y2="522.4688"/><line style="stroke:#A80036;stroke-width:1.5;" x1="755" x2="787" y1="530.4688" y2="530.4688"/><!--MD5=[2e42295458bb0bec21c9622a623eb29e]
class Time--><rect codeLine="79" fill="#FEFECE" filter="url(#f1x3ffx3x4ad8l)" height="52.7734" id="Time" style="stroke:#A80036;stroke-width:1.5;" width="60" x="15" y="170"/><text fill="#000000" font-family="sans-serif" font-size="12" lengthAdjust="spacing" textLength="29" x="30.5" y="186.1387">Time</text><line style="stroke:#A80036;stroke-width:1.5;" x1="16" x2="74" y1="193.9688" y2="193.9688"/><line style="stroke:#A80036;stroke-width:1.5;" x1="16" x2="74" y1="201.9688" y2="201.9688"/><text fill="#000000" font-family="sans-serif" font-size="11" lengthAdjust="spacing" textLength="48" x="21" y="216.1792">remain()</text><!--MD5=[5d4a571d632f45af65b163b23000bf12]
class Suggestion--><rect codeLine="82" fill="#FEFECE" filter="url(#f1x3ffx3x4ad8l)" height="39.9688" id="Suggestion" style="stroke:#A80036;stroke-width:1.5;" width="74" x="823" y="498.5"/><text fill="#000000" font-family="sans-serif" font-size="12" lengthAdjust="spacing" textLength="68" x="826" y="514.6387">Suggestion</text><line style="stroke:#A80036;stroke-width:1.5;" x1="824" x2="896" y1="522.4688" y2="522.4688"/><line style="stroke:#A80036;stroke-width:1.5;" x1="824" x2="896" y1="530.4688" y2="530.4688"/><!--MD5=[b6dcce5e5ef3c84b0b048d11301373dd]
class Game--><rect codeLine="84" fill="#FEFECE" filter="url(#f1x3ffx3x4ad8l)" height="39.9688" id="Game" style="stroke:#A80036;stroke-width:1.5;" width="41" x="1041.5" y="654"/><text fill="#000000" font-family="sans-serif" font-size="12" lengthAdjust="spacing" textLength="35" x="1044.5" y="670.1387">Game</text><line style="stroke:#A80036;stroke-width:1.5;" x1="1042.5" x2="1081.5" y1="677.9688" y2="677.9688"/><line style="stroke:#A80036;stroke-width:1.5;" x1="1042.5" x2="1081.5" y1="685.9688" y2="685.9688"/><!--MD5=[76b5e19c9337179d2d7ae334371d68c8]
class Notification--><rect codeLine="86" fill="#FEFECE" filter="url(#f1x3ffx3x4ad8l)" height="39.9688" id="Notification" style="stroke:#A80036;stroke-width:1.5;" width="72" x="1362" y="654"/><text fill="#000000" font-family="sans-serif" font-size="12" lengthAdjust="spacing" textLength="66" x="1365" y="670.1387">Notification</text><line style="stroke:#A80036;stroke-width:1.5;" x1="1363" x2="1433" y1="677.9688" y2="677.9688"/><line style="stroke:#A80036;stroke-width:1.5;" x1="1363" x2="1433" y1="685.9688" y2="685.9688"/><!--MD5=[028fba31e0312914fa4880b63f0540b8]
class Detail--><rect codeLine="88" fill="#FEFECE" filter="url(#f1x3ffx3x4ad8l)" height="39.9688" id="Detail" style="stroke:#A80036;stroke-width:1.5;" width="40" x="1482" y="498.5"/><text fill="#000000" font-family="sans-serif" font-size="12" lengthAdjust="spacing" textLength="34" x="1485" y="514.6387">Detail</text><line style="stroke:#A80036;stroke-width:1.5;" x1="1483" x2="1521" y1="522.4688" y2="522.4688"/><line style="stroke:#A80036;stroke-width:1.5;" x1="1483" x2="1521" y1="530.4688" y2="530.4688"/><!--MD5=[3c3e9f00051ae1eb1eeb1a251da19bc6]
class Idea--><rect codeLine="90" fill="#FEFECE" filter="url(#f1x3ffx3x4ad8l)" height="39.9688" id="Idea" style="stroke:#A80036;stroke-width:1.5;" width="32" x="1557" y="498.5"/><text fill="#000000" font-family="sans-serif" font-size="12" lengthAdjust="spacing" textLength="26" x="1560" y="514.6387">Idea</text><line style="stroke:#A80036;stroke-width:1.5;" x1="1558" x2="1588" y1="522.4688" y2="522.4688"/><line style="stroke:#A80036;stroke-width:1.5;" x1="1558" x2="1588" y1="530.4688" y2="530.4688"/><!--MD5=[0b4e4b4980470ea387cc45de9bd14b5b]
class Application--><rect codeLine="92" fill="#FEFECE" filter="url(#f1x3ffx3x4ad8l)" height="52.7734" id="Application" style="stroke:#A80036;stroke-width:1.5;" width="72" x="110" y="170"/><text fill="#000000" font-family="sans-serif" font-size="12" lengthAdjust="spacing" textLength="66" x="113" y="186.1387">Application</text><line style="stroke:#A80036;stroke-width:1.5;" x1="111" x2="181" y1="193.9688" y2="193.9688"/><line style="stroke:#A80036;stroke-width:1.5;" x1="111" x2="181" y1="201.9688" y2="201.9688"/><text fill="#000000" font-family="sans-serif" font-size="11" lengthAdjust="spacing" textLength="55" x="116" y="216.1792">improve()</text><!--MD5=[a194c26bde8fcf6a0b1b97ae1dcc4770]
class OpponentPost--><rect codeLine="95" fill="#FEFECE" filter="url(#f1x3ffx3x4ad8l)" height="39.9688" id="OpponentPost" style="stroke:#A80036;stroke-width:1.5;" width="91" x="1985.5" y="654"/><text fill="#000000" font-family="sans-serif" font-size="12" lengthAdjust="spacing" textLength="85" x="1988.5" y="670.1387">OpponentPost</text><line style="stroke:#A80036;stroke-width:1.5;" x1="1986.5" x2="2075.5" y1="677.9688" y2="677.9688"/><line style="stroke:#A80036;stroke-width:1.5;" x1="1986.5" x2="2075.5" y1="685.9688" y2="685.9688"/><!--MD5=[cff4d1dfabf1e80e04b31c5c669534b5]
class Day--><rect codeLine="97" fill="#FEFECE" filter="url(#f1x3ffx3x4ad8l)" height="39.9688" id="Day" style="stroke:#A80036;stroke-width:1.5;" width="29" x="2086.5" y="498.5"/><text fill="#000000" font-family="sans-serif" font-size="12" lengthAdjust="spacing" textLength="23" x="2089.5" y="514.6387">Day</text><line style="stroke:#A80036;stroke-width:1.5;" x1="2087.5" x2="2114.5" y1="522.4688" y2="522.4688"/><line style="stroke:#A80036;stroke-width:1.5;" x1="2087.5" x2="2114.5" y1="530.4688" y2="530.4688"/><!--MD5=[b76c921dec148580e221480ea486da2a]
class Friend--><rect codeLine="99" fill="#FEFECE" filter="url(#f1x3ffx3x4ad8l)" height="39.9688" id="Friend" style="stroke:#A80036;stroke-width:1.5;" width="44" x="1624" y="498.5"/><text fill="#000000" font-family="sans-serif" font-size="12" lengthAdjust="spacing" textLength="38" x="1627" y="514.6387">Friend</text><line style="stroke:#A80036;stroke-width:1.5;" x1="1625" x2="1667" y1="522.4688" y2="522.4688"/><line style="stroke:#A80036;stroke-width:1.5;" x1="1625" x2="1667" y1="530.4688" y2="530.4688"/><!--MD5=[16b0a2e83c9cca5ec7224c048ee6a926]
class Challenger--><rect codeLine="101" fill="#FEFECE" filter="url(#f1x3ffx3x4ad8l)" height="52.7734" id="Challenger" style="stroke:#A80036;stroke-width:1.5;" width="76" x="7" y="492"/><text fill="#000000" font-family="sans-serif" font-size="12" lengthAdjust="spacing" textLength="64" x="13" y="508.1387">Challenger</text><line style="stroke:#A80036;stroke-width:1.5;" x1="8" x2="82" y1="515.9688" y2="515.9688"/><line style="stroke:#A80036;stroke-width:1.5;" x1="8" x2="82" y1="523.9688" y2="523.9688"/><text fill="#000000" font-family="sans-serif" font-size="11" lengthAdjust="spacing" textLength="64" x="13" y="538.1792">challenge()</text><!--MD5=[91e8d4f35d34fae884e5f732d694685c]
link User to FinishTime--><path codeLine="104" d="M991.164,213.112 C904.573,241.646 726.276,309.02 607,413 C580.65,435.971 559.591,470.842 547.447,493.894 " fill="none" id="User-to-FinishTime" style="stroke:#A80036;stroke-width:1.0;"/><polygon fill="#A80036" points="545.139,498.339,552.8383,492.1973,547.4445,493.9023,545.7395,488.5085,545.139,498.339" style="stroke:#A80036;stroke-width:1.0;"/><text fill="#000000" font-family="sans-serif" font-size="13" lengthAdjust="spacing" textLength="23" x="608" y="426.0669">see</text><!--MD5=[a654de48d4bf1588b9fb1dcf6440abd6]
link User to Score--><path codeLine="105" d="M1092.63,205.289 C1207.26,224.751 1492.21,283.533 1692,413 C1755.24,453.978 1746.37,502.51 1735,577 C1731.14,602.3018 1721.86,630.1019 1714.64,649.2444 " fill="none" id="User-to-Score" style="stroke:#A80036;stroke-width:1.0;"/><polygon fill="#A80036" points="1712.85,653.9178,1719.808,646.9474,1714.6407,649.2495,1712.3386,644.0822,1712.85,653.9178" style="stroke:#A80036;stroke-width:1.0;"/><text fill="#000000" font-family="sans-serif" font-size="13" lengthAdjust="spacing" textLength="28" x="1745" y="523.0669">user</text><!--MD5=[f9f733986f7d9c1f35e0b86acaa26406]
reverse link User to Friend--><path codeLine="106" d="M1105.5,209.177 C1213.91,231.85 1436.99,290.734 1582,413 C1609.81,436.45 1629.03,475.198 1638.72,498.344 " fill="none" id="User-backto-Friend" style="stroke:#A80036;stroke-width:1.0;"/><polygon fill="#FFFFFF" points="1092.55,206.527,1097.6286,211.6463,1104.3075,208.9273,1099.2288,203.808,1092.55,206.527" style="stroke:#A80036;stroke-width:1.0;"/><text fill="#000000" font-family="sans-serif" font-size="13" lengthAdjust="spacing" textLength="35" x="1600" y="426.0669">invite</text><!--MD5=[2f04671772c50566740ace290062fd93]
link User to Sth--><path codeLine="107" d="M991.315,211.447 C907.5,237.129 740.239,299.896 649,413 C630.332,436.142 622.902,470.24 619.947,493.129 " fill="none" id="User-to-Sth" style="stroke:#A80036;stroke-width:1.0;"/><polygon fill="#A80036" points="619.35,498.12,624.3914,489.6593,619.9443,493.1554,616.4481,488.7084,619.35,498.12" style="stroke:#A80036;stroke-width:1.0;"/><text fill="#000000" font-family="sans-serif" font-size="13" lengthAdjust="spacing" textLength="24" x="650" y="426.0669">buy</text><!--MD5=[2e2e530a658308b38e0151c4d25adf6b]
link User to Notification--><path codeLine="108" d="M1092.54,196.963 C1228.39,198.708 1597.07,225.443 1685,460 C1703.25,508.691 1715.38,534.8 1685,577 C1628.34,655.6946 1504.21,670.8174 1439.34,673.1295 " fill="none" id="User-to-Notification" style="stroke:#A80036;stroke-width:1.0;"/><polygon fill="#A80036" points="1434.01,673.2952,1443.1313,677.0104,1439.0075,673.1381,1442.8798,669.0143,1434.01,673.2952" style="stroke:#A80036;stroke-width:1.0;"/><text fill="#000000" font-family="sans-serif" font-size="13" lengthAdjust="spacing" textLength="21" x="1705" y="523.0669">get</text><!--MD5=[2e2e530a658308b38e0151c4d25adf6b]
link User to Notification--><path codeLine="131" d="M1092.51,210.349 C1174.92,234.348 1335.8,294.616 1403,413 C1425.51,452.652 1409.39,591.589 1401.58,648.4548 " fill="none" id="User-to-Notification-1" style="stroke:#A80036;stroke-width:1.0;"/><polygon fill="#A80036" points="1400.85,653.6956,1406.0523,645.3328,1401.5392,648.7433,1398.1287,644.2302,1400.85,653.6956" style="stroke:#A80036;stroke-width:1.0;"/><text fill="#000000" font-family="sans-serif" font-size="13" lengthAdjust="spacing" textLength="47" x="1416" y="523.0669">receive</text><!--MD5=[314a4adac3b7ff2c5ddec8808382945e]
reverse link User to Challenge--><path codeLine="109" d="M1104.95,220.404 C1179.3,251.276 1299.38,314.06 1351,413 C1373.19,455.535 1309.24,489.208 1267.66,505.939 " fill="none" id="User-backto-Challenge" style="stroke:#A80036;stroke-width:1.0;"/><polygon fill="#FFFFFF" points="1092.53,215.365,1096.5869,221.3267,1103.6503,219.8748,1099.5934,213.9131,1092.53,215.365" style="stroke:#A80036;stroke-width:1.0;"/><text fill="#000000" font-family="sans-serif" font-size="13" lengthAdjust="spacing" textLength="37" x="1357" y="426.0669">verify</text><!--MD5=[314a4adac3b7ff2c5ddec8808382945e]
reverse link User to Challenge--><path codeLine="121" d="M985.754,288.247 C964.8,334.631 952.822,389.646 984,430 C1016.29,471.8 1048.99,443.004 1099,460 C1135.04,472.249 1175.03,489.635 1202.26,502.077 " fill="none" id="User-backto-Challenge-1" style="stroke:#A80036;stroke-width:1.0;"/><polygon fill="#FFFFFF" points="991.407,276.345,985.2194,280.0481,986.2578,287.1841,992.4454,283.4809,991.407,276.345" style="stroke:#A80036;stroke-width:1.0;"/><text fill="#000000" font-family="sans-serif" font-size="13" lengthAdjust="spacing" textLength="68" x="985" y="426.0669">participate</text><!--MD5=[314a4adac3b7ff2c5ddec8808382945e]
reverse link User to Challenge--><path codeLine="124" d="M1074.05,394.989 C1079.69,407.333 1086.28,419.14 1094,430 C1120.86,467.812 1169.71,492.672 1202.26,505.915 " fill="none" id="User-backto-Challenge-2" style="stroke:#A80036;stroke-width:1.0;"/><polygon fill="#FFFFFF" points="1068.93,383.002,1067.6068,390.0907,1073.6413,394.0385,1074.9645,386.9498,1068.93,383.002" style="stroke:#A80036;stroke-width:1.0;"/><text fill="#000000" font-family="sans-serif" font-size="13" lengthAdjust="spacing" textLength="23" x="1095" y="426.0669">see</text><!--MD5=[314a4adac3b7ff2c5ddec8808382945e]
reverse link User to Challenge--><path codeLine="125" d="M1098.39,323.742 C1116.09,359.139 1136.84,396.956 1159,430 C1173.9,452.226 1193.84,474.976 1209.55,491.705 " fill="none" id="User-backto-Challenge-3" style="stroke:#A80036;stroke-width:1.0;"/><polygon fill="#FFFFFF" points="1092.51,311.84,1091.5853,318.9916,1097.8311,322.5957,1098.7558,315.4442,1092.51,311.84" style="stroke:#A80036;stroke-width:1.0;"/><text fill="#000000" font-family="sans-serif" font-size="13" lengthAdjust="spacing" textLength="31" x="1160" y="426.0669">send</text><!--MD5=[314a4adac3b7ff2c5ddec8808382945e]
reverse link User to Challenge--><path codeLine="126" d="M1100.76,269.512 C1131.87,309.978 1169.08,362.394 1196,413 C1209.64,438.645 1220.69,470.115 1227.49,491.778 " fill="none" id="User-backto-Challenge-4" style="stroke:#A80036;stroke-width:1.0;"/><polygon fill="#FFFFFF" points="1092.79,259.225,1093.3055,266.4177,1100.1431,268.7082,1099.6276,261.5156,1092.79,259.225" style="stroke:#A80036;stroke-width:1.0;"/><text fill="#000000" font-family="sans-serif" font-size="13" lengthAdjust="spacing" textLength="37" x="1206" y="426.0669">check</text><!--MD5=[314a4adac3b7ff2c5ddec8808382945e]
reverse link User to Challenge--><path codeLine="128" d="M1103.3,239.103 C1153.93,277.503 1222.15,339.586 1252,413 C1262.39,438.54 1254.76,470.028 1246.67,491.724 " fill="none" id="User-backto-Challenge-5" style="stroke:#A80036;stroke-width:1.0;"/><polygon fill="#FFFFFF" points="1092.78,231.273,1095.2064,238.0636,1102.4079,238.4356,1099.9815,231.645,1092.78,231.273" style="stroke:#A80036;stroke-width:1.0;"/><text fill="#000000" font-family="sans-serif" font-size="13" lengthAdjust="spacing" textLength="34" x="1258" y="426.0669">finish</text><!--MD5=[7e3d42a85d9a262d8d54950a2f129287]
link User to Task--><path codeLine="110" d="M991.275,220.498 C915.314,258.115 774.865,340.744 718,460 C695.619,506.937 694.833,530.446 718,577 C739.975,621.1572 793.025,650.4007 823.149,664.0656 " fill="none" id="User-to-Task" style="stroke:#A80036;stroke-width:1.0;"/><polygon fill="#A80036" points="827.779,666.1248,821.1806,658.8131,823.2103,664.0933,817.9301,666.123,827.779,666.1248" style="stroke:#A80036;stroke-width:1.0;"/><text fill="#000000" font-family="sans-serif" font-size="13" lengthAdjust="spacing" textLength="16" x="719" y="523.0669">do</text><!--MD5=[e8e179fb925fdfeb6b153d421b5ce45a]
reverse link Student to Challenge--><path codeLine="111" d="M2011.1,261.64 C1998.99,316.239 1972.73,391.728 1917,430 C1865.45,465.4 1415.59,444.524 1355,460 C1323.78,467.976 1290.95,484.333 1267.54,497.569 " fill="none" id="Student-backto-Challenge" style="stroke:#A80036;stroke-width:1.0;"/><polygon fill="#FFFFFF" points="2013.82,248.593,2008.681,253.6518,2011.3741,260.3411,2016.5131,255.2823,2013.82,248.593" style="stroke:#A80036;stroke-width:1.0;"/><text fill="#000000" font-family="sans-serif" font-size="13" lengthAdjust="spacing" textLength="23" x="1934" y="426.0669">see</text><!--MD5=[cb1b5aed113374fc4edc17fbf169393a]
reverse link Challenge to Game--><path codeLine="112" d="M1211.62,555.874 C1196.47,577.505 1175.26,604.4481 1152,624 C1130.76,641.8595 1101.98,656.1483 1082.75,664.5863 " fill="none" id="Challenge-backto-Game" style="stroke:#A80036;stroke-width:1.0;"/><polygon fill="#FFFFFF" points="1218.98,545.114,1212.2917,547.8098,1212.2078,555.0204,1218.896,552.3246,1218.98,545.114" style="stroke:#A80036;stroke-width:1.0;"/><!--MD5=[bec43d67277193a86863b6703a526bb0]
link User to Request--><path codeLine="113" d="M991.416,204.83 C820.959,230.66 272.554,323.328 171,460 C139.986,501.739 142.664,533.398 171,577 C211.885,639.9129 304.55,661.929 354.176,669.3744 " fill="none" id="User-to-Request" style="stroke:#A80036;stroke-width:1.0;"/><polygon fill="#A80036" points="359.425,670.1316,351.0887,664.8869,354.4763,669.4173,349.9459,672.8049,359.425,670.1316" style="stroke:#A80036;stroke-width:1.0;"/><text fill="#000000" font-family="sans-serif" font-size="13" lengthAdjust="spacing" textLength="31" x="172" y="523.0669">send</text><!--MD5=[9f96755251a779e0d686bbb8dbc97124]
reverse link Challenge to Score--><path codeLine="114" d="M1279.44,543.146 C1301.72,554.385 1329.34,567.423 1355,577 C1476.31,622.2824 1628.39,656.726 1683.68,668.553 " fill="none" id="Challenge-backto-Score" style="stroke:#A80036;stroke-width:1.0;"/><polygon fill="#FFFFFF" points="1267.67,537.12,1271.1863,543.4157,1278.3501,542.5912,1274.8338,536.2956,1267.67,537.12" style="stroke:#A80036;stroke-width:1.0;"/><!--MD5=[570ec5c4e8a1dd44e7fcb71a8cfc57a6]
link User to Detail--><path codeLine="115" d="M1092.57,208.869 C1182.28,231.674 1369.36,291.556 1471,413 C1490.2,435.936 1497.5,470.382 1500.29,493.384 " fill="none" id="User-to-Detail" style="stroke:#A80036;stroke-width:1.0;"/><polygon fill="#A80036" points="1500.85,498.396,1503.8334,489.0099,1500.2988,493.4265,1495.8822,489.8918,1500.85,498.396" style="stroke:#A80036;stroke-width:1.0;"/><text fill="#000000" font-family="sans-serif" font-size="13" lengthAdjust="spacing" textLength="21" x="1482" y="426.0669">get</text><!--MD5=[5604b80ae26dc98f27132114e9ecaf59]
reverse link Challenge to Request--><path codeLine="116" d="M1190.59,541.824 C1164.53,554.02 1130.59,568.358 1099,577 C839.131,648.0856 510.908,667.558 414.683,671.9076 " fill="none" id="Challenge-backto-Request" style="stroke:#A80036;stroke-width:1.0;"/><polygon fill="#FFFFFF" points="1202.35,536.222,1195.2123,535.1959,1191.5198,541.3899,1198.6575,542.416,1202.35,536.222" style="stroke:#A80036;stroke-width:1.0;"/><!--MD5=[ffc5bd74a469f331363af1211d2d6db7]
link Chance to Button--><path codeLine="117" d="M2173,223.146 C2173,283.611 2173,434.421 2173,493.357 " fill="none" id="Chance-to-Button" style="stroke:#A80036;stroke-width:1.0;"/><polygon fill="#A80036" points="2173,498.437,2177,489.437,2173,493.437,2169,489.437,2173,498.437" style="stroke:#A80036;stroke-width:1.0;"/><text fill="#000000" font-family="sans-serif" font-size="13" lengthAdjust="spacing" textLength="27" x="2174" y="426.0669">click</text><!--MD5=[3aa410d8409ec5fd8a6027700bc1c744]
reverse link Challenge to Post--><path codeLine="118" d="M1279.33,544.273 C1301.48,555.725 1329.03,568.614 1355,577 C1406.15,593.518 1790.59,656.8965 1873.34,670.4427 " fill="none" id="Challenge-backto-Post" style="stroke:#A80036;stroke-width:1.0;"/><polygon fill="#FFFFFF" points="1267.63,538.097,1271.0678,544.4359,1278.2413,543.7006,1274.8035,537.3617,1267.63,538.097" style="stroke:#A80036;stroke-width:1.0;"/><!--MD5=[da290f5b81abb66526600482bc697c25]
reverse link Challenge to Task--><path codeLine="119" d="M1190.5,538.825 C1164.03,550.195 1129.72,564.708 1099,577 C1010.37,612.469 903.027,651.8927 862.031,666.8215 " fill="none" id="Challenge-backto-Task" style="stroke:#A80036;stroke-width:1.0;"/><polygon fill="#FFFFFF" points="1202.45,533.681,1195.3571,532.3808,1191.4289,538.4281,1198.5218,539.7282,1202.45,533.681" style="stroke:#A80036;stroke-width:1.0;"/><!--MD5=[bf480d92daa0e8cd9b65544ba07b597b]
link User to Idea--><path codeLine="120" d="M1092.58,209.762 C1185.33,234.415 1384.78,297.727 1512,413 C1536.71,435.387 1554.22,470.181 1563.97,493.393 " fill="none" id="User-to-Idea" style="stroke:#A80036;stroke-width:1.0;"/><polygon fill="#A80036" points="1565.93,498.162,1566.2075,488.3171,1564.0288,493.5375,1558.8083,491.3589,1565.93,498.162" style="stroke:#A80036;stroke-width:1.0;"/><text fill="#000000" font-family="sans-serif" font-size="13" lengthAdjust="spacing" textLength="44" x="1529" y="426.0669">submit</text><!--MD5=[3289a1d9f35bfb30cfe6dc503503cb28]
reverse link Competitor to Post--><path codeLine="122" d="M1937.54,589.375 C1932.85,601.1405 1927.62,613.0719 1922,624 C1916.75,634.2156 1909.77,644.8715 1903.59,653.627 " fill="none" id="Competitor-backto-Post" style="stroke:#A80036;stroke-width:1.0;"/><polygon fill="#FFFFFF" points="1942.22,577.223,1936.3299,581.3832,1937.9047,588.4202,1943.7947,584.2601,1942.22,577.223" style="stroke:#A80036;stroke-width:1.0;"/><text fill="#000000" font-family="sans-serif" font-size="13" lengthAdjust="spacing" textLength="28" x="1931" y="620.0669">post</text><!--MD5=[3289a1d9f35bfb30cfe6dc503503cb28]
reverse link Competitor to Post--><path codeLine="133" d="M1898.44,577.743 C1891.76,586.862 1885.96,596.7028 1882,607 C1876.21,622.0563 1878.85,640.3835 1882.42,653.9012 " fill="none" id="Competitor-backto-Post-1" style="stroke:#A80036;stroke-width:1.0;"/><polygon fill="#FFFFFF" points="1906.63,567.385,1899.7708,569.6103,1899.1868,576.7977,1906.046,574.5724,1906.63,567.385" style="stroke:#A80036;stroke-width:1.0;"/><text fill="#000000" font-family="sans-serif" font-size="13" lengthAdjust="spacing" textLength="30" x="1883" y="620.0669">view</text><!--MD5=[7ce62e6be194a4eb1cd79b7464013187]
link User to Game--><path codeLine="123" d="M991.349,241.622 C946.565,286.257 891.057,358.67 910,430 C934.065,520.62 1005.048,609.4833 1040.85,650.0846 " fill="none" id="User-to-Game" style="stroke:#A80036;stroke-width:1.0;"/><polygon fill="#A80036" points="1044.2,653.8615,1041.222,644.4737,1040.8828,650.1204,1035.2361,649.7812,1044.2,653.8615" style="stroke:#A80036;stroke-width:1.0;"/><text fill="#000000" font-family="sans-serif" font-size="13" lengthAdjust="spacing" textLength="23" x="984" y="523.0669">see</text><!--MD5=[7ce62e6be194a4eb1cd79b7464013187]
link User to Game--><path codeLine="138" d="M991.499,319.846 C981.355,349.808 972.216,382.143 967,413 C965.741,420.45 963.307,423.409 967,430 C979.482,452.277 1001.224,439.174 1016,460 C1057.36,518.291 1062.72,606.5475 1062.7,648.7971 " fill="none" id="User-to-Game-1" style="stroke:#A80036;stroke-width:1.0;"/><polygon fill="#A80036" points="1062.67,653.9597,1066.7234,644.9836,1062.6997,648.9598,1058.7236,644.9361,1062.67,653.9597" style="stroke:#A80036;stroke-width:1.0;"/><text fill="#000000" font-family="sans-serif" font-size="13" lengthAdjust="spacing" textLength="27" x="1059" y="523.0669">play</text><!--MD5=[9f0b390a121560ca463138bb54409a96]
link User to Iphonemodel--><path codeLine="127" d="M991.437,211.65 C882.965,242.676 620.743,321.288 411,413 C370.733,430.607 359.519,434.118 324,460 C310.067,470.153 296.068,483.355 285.101,494.548 " fill="none" id="User-to-Iphonemodel" style="stroke:#A80036;stroke-width:1.0;"/><polygon fill="#A80036" points="281.503,498.26,290.6393,494.5819,284.9831,494.6699,284.8951,489.0137,281.503,498.26" style="stroke:#A80036;stroke-width:1.0;"/><text fill="#000000" font-family="sans-serif" font-size="13" lengthAdjust="spacing" textLength="28" x="412" y="426.0669">user</text><!--MD5=[645d4c81136d54efa1374cc3d7bd6c35]
link Student to Competitor--><path codeLine="129" d="M2013.42,248.943 C2006.21,296.181 1994.62,368.037 1982,430 C1980.37,437.987 1978.54,446.352 1976.65,454.61 " fill="none" id="Student-to-Competitor" style="stroke:#A80036;stroke-width:1.0;"/><polygon fill="#A80036" points="1975.46,459.734,1981.3837,451.8657,1976.5858,454.8624,1973.5891,450.0645,1975.46,459.734" style="stroke:#A80036;stroke-width:1.0;"/><text fill="#000000" font-family="sans-serif" font-size="13" lengthAdjust="spacing" textLength="38" x="1986" y="426.0669">select</text><!--MD5=[1d2e365c7e3c6fbe42c4b19d2d43a0d6]
link User to Competitor--><path codeLine="130" d="M1092.52,202.304 C1224.73,216.637 1588.69,267.536 1850,413 C1870.32,424.31 1889.76,440.164 1906.54,456.113 " fill="none" id="User-to-Competitor" style="stroke:#A80036;stroke-width:1.0;"/><polygon fill="#A80036" points="1910.3,459.731,1906.5755,450.6135,1906.6923,456.2692,1901.0366,456.3859,1910.3,459.731" style="stroke:#A80036;stroke-width:1.0;"/><text fill="#000000" font-family="sans-serif" font-size="13" lengthAdjust="spacing" textLength="25" x="1876" y="426.0669">pick</text><!--MD5=[1adbafd5adc2ed4963c26ec3d1b6b5d4]
reverse link User to Rank--><path codeLine="132" d="M980.436,235.66 C924.205,273.73 843.031,337.347 797,413 C780.674,439.832 774.579,476.451 772.317,498.457 " fill="none" id="User-backto-Rank" style="stroke:#A80036;stroke-width:1.0;"/><polygon fill="#FFFFFF" points="991.332,228.391,984.1209,228.3939,981.35,235.0514,988.5611,235.0485,991.332,228.391" style="stroke:#A80036;stroke-width:1.0;"/><text fill="#000000" font-family="sans-serif" font-size="13" lengthAdjust="spacing" textLength="23" x="798" y="426.0669">see</text><!--MD5=[3a82763b2cfc67c2c3b288149015b147]
reverse link Competitor to OpponentPost--><path codeLine="134" d="M1992.69,588.993 C2003.51,612.7122 2014.75,637.3646 2022.23,653.7788 " fill="none" id="Competitor-backto-OpponentPost" style="stroke:#A80036;stroke-width:1.0;"/><polygon fill="#FFFFFF" points="1987.26,577.094,1986.1102,584.2128,1992.2391,588.0122,1993.389,580.8934,1987.26,577.094" style="stroke:#A80036;stroke-width:1.0;"/><text fill="#000000" font-family="sans-serif" font-size="13" lengthAdjust="spacing" textLength="37" x="2010" y="620.0669">verify</text><!--MD5=[1bd665d77327fe1ad6e36295f9725dc9]
reverse link User to Photo--><path codeLine="135" d="M978.918,220.419 C876.259,258.136 667.106,336.737 494,413 C450.526,432.153 433.49,428.421 398,460 C386.028,470.653 376.393,486.061 369.96,498.246 " fill="none" id="User-backto-Photo" style="stroke:#A80036;stroke-width:1.0;"/><polygon fill="#FFFFFF" points="991.197,215.916,984.1866,214.2264,979.9307,220.0477,986.9411,221.7373,991.197,215.916" style="stroke:#A80036;stroke-width:1.0;"/><text fill="#000000" font-family="sans-serif" font-size="13" lengthAdjust="spacing" textLength="24" x="495" y="426.0669">add</text><!--MD5=[ef96654907a4dde35176b100a35cc06b]
link User to Suggestion--><path codeLine="136" d="M991.456,231.331 C940.448,268.834 864.81,334.509 833,413 C822.158,439.751 834.14,472.146 845.404,493.706 " fill="none" id="User-to-Suggestion" style="stroke:#A80036;stroke-width:1.0;"/><polygon fill="#A80036" points="847.788,498.136,847.0443,488.3153,845.4181,493.7333,840,492.1071,847.788,498.136" style="stroke:#A80036;stroke-width:1.0;"/><text fill="#000000" font-family="sans-serif" font-size="13" lengthAdjust="spacing" textLength="27" x="834" y="426.0669">give</text><!--MD5=[8fe840362677aba5550a90a6fd257d97]
link Student to Day--><path codeLine="137" d="M2033.76,248.559 C2051.25,318.503 2081.96,441.343 2094.94,493.253 " fill="none" id="Student-to-Day" style="stroke:#A80036;stroke-width:1.0;"/><polygon fill="#A80036" points="2096.21,498.345,2097.9104,488.644,2094.9987,493.494,2090.1488,490.5822,2096.21,498.345" style="stroke:#A80036;stroke-width:1.0;"/><text fill="#000000" font-family="sans-serif" font-size="13" lengthAdjust="spacing" textLength="23" x="2079" y="426.0669">see</text><!--MD5=[e38a3bde52c7ecfcc01cfe2c1b1a0001]
link User to Reward--><path codeLine="139" d="M991.304,217.894 C902.697,254.057 714.559,333.16 562,413 C526.14,431.767 514.011,432.844 484,460 C473.066,469.894 463.055,482.922 455.449,494.075 " fill="none" id="User-to-Reward" style="stroke:#A80036;stroke-width:1.0;"/><polygon fill="#A80036" points="452.551,498.406,460.8811,493.1515,455.3321,494.2508,454.2328,488.7018,452.551,498.406" style="stroke:#A80036;stroke-width:1.0;"/><text fill="#000000" font-family="sans-serif" font-size="13" lengthAdjust="spacing" textLength="21" x="563" y="426.0669">get</text><!--MD5=[d66589156bf1fbee75a163b3798d8a52]
reverse link Challenge to Notification--><path codeLine="140" d="M1271.92,554.272 C1304.53,584.98 1350.89,628.637 1377.36,653.5603 " fill="none" id="Challenge-backto-Notification" style="stroke:#A80036;stroke-width:1.0;"/><polygon fill="#FFFFFF" points="1262.28,545.192,1263.9046,552.2177,1271.0147,553.4203,1269.3901,546.3946,1262.28,545.192" style="stroke:#A80036;stroke-width:1.0;"/><!--MD5=[1020f594bac69ac6ec72d0bc57516ae7]
link Time to Application--><!--MD5=[65a78088c2d12d3db0f4f4f19468f5c1]
link Time to Challenger--><!--MD5=[cc5ce13da9318c1fcc63cfe09862012b]
@startuml
hide circle
class User<actor> {
	photo
	rank
	friend
	challengeTask
	challenge
	challengeScore
}
class Student<actor> {
	challengerList
}
class Competitor<actor> {
	post
	challengePost
	opponentPost
}
class Task {
}
class Score {
}
class Request {
}
class User {
	know()
	receive()
	do()
	pick()
	finish()
	submit()
	get()
	play()
	check()
	invite()
	send()
	user()
	have()
	verify()
	give()
	see()
	add()
	buy()
	participate()
	go()
}
class Iphonemodel {
}
class Student {
	see()
	prepare()
	compete()
	select()
}
class Photo {
}
class Reward {
}
class FinishTime {
}
class Sth {
}
class Chance {
	click()
}
class Button {
}
class Competitor {
	post()
	verify()
	view()
}
class Post {
}
class Challenge {
	have()
}
class Rank {
}
class Time {
	remain()
}
class Suggestion {
}
class Game {
}
class Notification {
}
class Detail {
}
class Idea {
}
class Application {
	improve()
}
class OpponentPost {
}
class Day {
}
class Friend {
}
class Challenger {
	challenge()
}
User - -> FinishTime : see
User - -> Score : user
User o- - Friend : invite
User - -> Sth : buy
User - -> Notification : get
User o- - Challenge : verify
User - -> Task : do
Student o- - Challenge : see
Challenge o- - Game
User - -> Request : send
Challenge o- - Score
User - -> Detail : get
Challenge o- - Request
Chance - -> Button : click
Challenge o- - Post
Challenge o- - Task
User - -> Idea : submit
User o- - Challenge : participate
Competitor o- - Post : post
User - -> Game : see
User o- - Challenge : see
User o- - Challenge : send
User o- - Challenge : check
User - -> Iphonemodel : user
User o- - Challenge : finish
Student - -> Competitor : select
User - -> Competitor : pick
User - -> Notification : receive
User o- - Rank : see
Competitor o- - Post : view
Competitor o- - OpponentPost : verify
User o- - Photo : add
User - -> Suggestion : give
Student - -> Day : see
User - -> Game : play
User - -> Reward : get
Challenge o- - Notification
@enduml

PlantUML version 1.2021.10beta2(Unknown compile time)
(GPL source distribution)
Java Runtime: Java(TM) SE Runtime Environment
JVM: Java HotSpot(TM) 64-Bit Server VM
Default Encoding: UTF-8
Language: en
Country: US
--></g></svg>