<?xml version="1.0" encoding="UTF-8" standalone="no"?><svg xmlns="http://www.w3.org/2000/svg" xmlns:xlink="http://www.w3.org/1999/xlink" contentScriptType="application/ecmascript" contentStyleType="text/css" height="797px" preserveAspectRatio="none" style="width:1283px;height:797px;background:#FFFFFF;" version="1.1" viewBox="0 0 1283 797" width="1283px" zoomAndPan="magnify"><defs><filter height="300%" id="f12nxvxo3ul5gt" width="300%" x="-1" y="-1"><feGaussianBlur result="blurOut" stdDeviation="2.0"/><feColorMatrix in="blurOut" result="blurOut2" type="matrix" values="0 0 0 0 0 0 0 0 0 0 0 0 0 0 0 0 0 0 .4 0"/><feOffset dx="4.0" dy="4.0" in="blurOut2" result="blurOut3"/><feBlend in="SourceGraphic" in2="blurOut3" mode="normal"/></filter></defs><g><!--MD5=[db6d18d8099558415abc41d00477ab92]
class Admin--><rect codeLine="15" fill="#FEFECE" filter="url(#f12nxvxo3ul5gt)" height="142.4063" id="Admin" style="stroke:#A80036;stroke-width:1.5;" width="78" x="214.1973" y="229"/><text fill="#000000" font-family="sans-serif" font-size="12" lengthAdjust="spacing" textLength="37" x="217.1973" y="245.1387">Admin</text><rect fill="#FFFFFF" height="15.9688" style="stroke:#000000;stroke-width:1.0;stroke-dasharray:2.0,2.0;" width="33" x="262.1973" y="226"/><text fill="#000000" font-family="sans-serif" font-size="12" font-style="italic" lengthAdjust="spacing" textLength="31" x="263.1973" y="238.1387">actor</text><line style="stroke:#A80036;stroke-width:1.5;" x1="215.1973" x2="291.1973" y1="252.9688" y2="252.9688"/><line style="stroke:#A80036;stroke-width:1.5;" x1="215.1973" x2="291.1973" y1="260.9688" y2="260.9688"/><text fill="#000000" font-family="sans-serif" font-size="11" lengthAdjust="spacing" textLength="38" x="220.1973" y="275.1792">reset()</text><text fill="#000000" font-family="sans-serif" font-size="11" lengthAdjust="spacing" textLength="55" x="220.1973" y="287.9839">manage()</text><text fill="#000000" font-family="sans-serif" font-size="11" lengthAdjust="spacing" textLength="47" x="220.1973" y="300.7886">restrict()</text><text fill="#000000" font-family="sans-serif" font-size="11" lengthAdjust="spacing" textLength="37" x="220.1973" y="313.5933">have()</text><text fill="#000000" font-family="sans-serif" font-size="11" lengthAdjust="spacing" textLength="33" x="220.1973" y="326.3979">give()</text><text fill="#000000" font-family="sans-serif" font-size="11" lengthAdjust="spacing" textLength="37" x="220.1973" y="339.2026">block()</text><text fill="#000000" font-family="sans-serif" font-size="11" lengthAdjust="spacing" textLength="64" x="220.1973" y="352.0073">terminate()</text><text fill="#000000" font-family="sans-serif" font-size="11" lengthAdjust="spacing" textLength="62" x="220.1973" y="364.812">associate()</text><!--MD5=[3fd616f346a44cd59a91eb10b19e157c]
class User--><rect codeLine="25" fill="#FEFECE" filter="url(#f12nxvxo3ul5gt)" height="219.2344" id="User" style="stroke:#A80036;stroke-width:1.5;" width="76" x="527.1973" y="448"/><text fill="#000000" font-family="sans-serif" font-size="12" lengthAdjust="spacing" textLength="29" x="533.1973" y="464.1387">User</text><rect fill="#FFFFFF" height="15.9688" style="stroke:#000000;stroke-width:1.0;stroke-dasharray:2.0,2.0;" width="33" x="573.1973" y="445"/><text fill="#000000" font-family="sans-serif" font-size="12" font-style="italic" lengthAdjust="spacing" textLength="31" x="574.1973" y="457.1387">actor</text><line style="stroke:#A80036;stroke-width:1.5;" x1="528.1973" x2="602.1973" y1="471.9688" y2="471.9688"/><text fill="#000000" font-family="sans-serif" font-size="11" lengthAdjust="spacing" textLength="64" x="533.1973" y="486.1792">registration</text><text fill="#000000" font-family="sans-serif" font-size="11" lengthAdjust="spacing" textLength="32" x="533.1973" y="498.9839">email</text><text fill="#000000" font-family="sans-serif" font-size="11" lengthAdjust="spacing" textLength="39" x="533.1973" y="511.7886">project</text><text fill="#000000" font-family="sans-serif" font-size="11" lengthAdjust="spacing" textLength="53" x="533.1973" y="524.5933">password</text><line style="stroke:#A80036;stroke-width:1.5;" x1="528.1973" x2="602.1973" y1="531.1875" y2="531.1875"/><text fill="#000000" font-family="sans-serif" font-size="11" lengthAdjust="spacing" textLength="52" x="533.1973" y="545.3979">request()</text><text fill="#000000" font-family="sans-serif" font-size="11" lengthAdjust="spacing" textLength="38" x="533.1973" y="558.2026">reset()</text><text fill="#000000" font-family="sans-serif" font-size="11" lengthAdjust="spacing" textLength="35" x="533.1973" y="571.0073">view()</text><text fill="#000000" font-family="sans-serif" font-size="11" lengthAdjust="spacing" textLength="45" x="533.1973" y="583.812">export()</text><text fill="#000000" font-family="sans-serif" font-size="11" lengthAdjust="spacing" textLength="50" x="533.1973" y="596.6167">confirm()</text><text fill="#000000" font-family="sans-serif" font-size="11" lengthAdjust="spacing" textLength="30" x="533.1973" y="609.4214">see()</text><text fill="#000000" font-family="sans-serif" font-size="11" lengthAdjust="spacing" textLength="52" x="533.1973" y="622.2261">receive()</text><text fill="#000000" font-family="sans-serif" font-size="11" lengthAdjust="spacing" textLength="44" x="533.1973" y="635.0308">assign()</text><text fill="#000000" font-family="sans-serif" font-size="11" lengthAdjust="spacing" textLength="53" x="533.1973" y="647.8354">perform()</text><text fill="#000000" font-family="sans-serif" font-size="11" lengthAdjust="spacing" textLength="51" x="533.1973" y="660.6401">expose()</text><!--MD5=[1a95835255177050dd8028a7da1b3a6a]
class Contributor--><rect codeLine="39" fill="#FEFECE" filter="url(#f12nxvxo3ul5gt)" height="142.4063" id="Contributor" style="stroke:#A80036;stroke-width:1.5;" width="108" x="287.1973" y="10"/><text fill="#000000" font-family="sans-serif" font-size="12" lengthAdjust="spacing" textLength="67" x="290.1973" y="26.1387">Contributor</text><rect fill="#FFFFFF" height="15.9688" style="stroke:#000000;stroke-width:1.0;stroke-dasharray:2.0,2.0;" width="33" x="365.1973" y="7"/><text fill="#000000" font-family="sans-serif" font-size="12" font-style="italic" lengthAdjust="spacing" textLength="31" x="366.1973" y="19.1387">actor</text><line style="stroke:#A80036;stroke-width:1.5;" x1="288.1973" x2="394.1973" y1="33.9688" y2="33.9688"/><text fill="#000000" font-family="sans-serif" font-size="11" lengthAdjust="spacing" textLength="38" x="293.1973" y="48.1792">impact</text><line style="stroke:#A80036;stroke-width:1.5;" x1="288.1973" x2="394.1973" y1="54.7734" y2="54.7734"/><text fill="#000000" font-family="sans-serif" font-size="11" lengthAdjust="spacing" textLength="27" x="293.1973" y="68.9839">ask()</text><text fill="#000000" font-family="sans-serif" font-size="11" lengthAdjust="spacing" textLength="34" x="293.1973" y="81.7886">work()</text><text fill="#000000" font-family="sans-serif" font-size="11" lengthAdjust="spacing" textLength="65" x="293.1973" y="94.5933">contribute()</text><text fill="#000000" font-family="sans-serif" font-size="11" lengthAdjust="spacing" textLength="54" x="293.1973" y="107.3979">analyze()</text><text fill="#000000" font-family="sans-serif" font-size="11" lengthAdjust="spacing" textLength="33" x="293.1973" y="120.2026">give()</text><text fill="#000000" font-family="sans-serif" font-size="11" lengthAdjust="spacing" textLength="30" x="293.1973" y="133.0073">see()</text><text fill="#000000" font-family="sans-serif" font-size="11" lengthAdjust="spacing" textLength="47" x="293.1973" y="145.812">access()</text><!--MD5=[03da7ad6344b0b2c818a169ad3cc63fd]
class Permission--><rect codeLine="13" fill="#FEFECE" filter="url(#f12nxvxo3ul5gt)" height="39.9688" id="Permission" style="stroke:#A80036;stroke-width:1.5;" width="71" x="1104.6983" y="744"/><text fill="#000000" font-family="sans-serif" font-size="12" lengthAdjust="spacing" textLength="65" x="1107.6983" y="760.1387">Permission</text><line style="stroke:#A80036;stroke-width:1.5;" x1="1105.6983" x2="1174.6983" y1="767.9688" y2="767.9688"/><line style="stroke:#A80036;stroke-width:1.5;" x1="1105.6983" x2="1174.6983" y1="775.9688" y2="775.9688"/><!--MD5=[45b0c8674d9af61d6b3fd8cd3c470f27]
class SoftwareQualityMetric--><rect codeLine="37" fill="#FEFECE" filter="url(#f12nxvxo3ul5gt)" height="39.9688" id="SoftwareQualityMetric" style="stroke:#A80036;stroke-width:1.5;" width="138" x="859.1973" y="744"/><text fill="#000000" font-family="sans-serif" font-size="12" lengthAdjust="spacing" textLength="132" x="862.1973" y="760.1387">SoftwareQualityMetric</text><line style="stroke:#A80036;stroke-width:1.5;" x1="860.1973" x2="996.1973" y1="767.9688" y2="767.9688"/><line style="stroke:#A80036;stroke-width:1.5;" x1="860.1973" x2="996.1973" y1="775.9688" y2="775.9688"/><!--MD5=[0e25faa1fcd99a17261c68cab7355ee4]
class Impact--><rect codeLine="48" fill="#FEFECE" filter="url(#f12nxvxo3ul5gt)" height="39.9688" id="Impact" style="stroke:#A80036;stroke-width:1.5;" width="46" x="327.1973" y="280"/><text fill="#000000" font-family="sans-serif" font-size="12" lengthAdjust="spacing" textLength="40" x="330.1973" y="296.1387">Impact</text><line style="stroke:#A80036;stroke-width:1.5;" x1="328.1973" x2="372.1973" y1="303.9688" y2="303.9688"/><line style="stroke:#A80036;stroke-width:1.5;" x1="328.1973" x2="372.1973" y1="311.9688" y2="311.9688"/><!--MD5=[40d2668bbcd459976779c45dfe17221f]
class Statistics--><rect codeLine="50" fill="#FEFECE" filter="url(#f12nxvxo3ul5gt)" height="39.9688" id="Statistics" style="stroke:#A80036;stroke-width:1.5;" width="60" x="764.1973" y="744"/><text fill="#000000" font-family="sans-serif" font-size="12" lengthAdjust="spacing" textLength="54" x="767.1973" y="760.1387">Statistics</text><line style="stroke:#A80036;stroke-width:1.5;" x1="765.1973" x2="823.1973" y1="767.9688" y2="767.9688"/><line style="stroke:#A80036;stroke-width:1.5;" x1="765.1973" x2="823.1973" y1="775.9688" y2="775.9688"/><!--MD5=[78bec0fde86ad92ec1dc3fb343b83709]
class Email--><rect codeLine="52" fill="#FEFECE" filter="url(#f12nxvxo3ul5gt)" height="39.9688" id="Email" style="stroke:#A80036;stroke-width:1.5;" width="37" x="1032.6983" y="744"/><text fill="#000000" font-family="sans-serif" font-size="12" lengthAdjust="spacing" textLength="31" x="1035.6983" y="760.1387">Email</text><line style="stroke:#A80036;stroke-width:1.5;" x1="1033.6983" x2="1068.6983" y1="767.9688" y2="767.9688"/><line style="stroke:#A80036;stroke-width:1.5;" x1="1033.6983" x2="1068.6983" y1="775.9688" y2="775.9688"/><!--MD5=[79d378210367c0c6ec62ef762ddfbd1b]
class Project--><rect codeLine="54" fill="#FEFECE" filter="url(#f12nxvxo3ul5gt)" height="39.9688" id="Project" style="stroke:#A80036;stroke-width:1.5;" width="47" x="1222.6983" y="537.5"/><text fill="#000000" font-family="sans-serif" font-size="12" lengthAdjust="spacing" textLength="41" x="1225.6983" y="553.6387">Project</text><line style="stroke:#A80036;stroke-width:1.5;" x1="1223.6983" x2="1268.6983" y1="561.4688" y2="561.4688"/><line style="stroke:#A80036;stroke-width:1.5;" x1="1223.6983" x2="1268.6983" y1="569.4688" y2="569.4688"/><!--MD5=[dab16d122782a892ddb6ee0eadcd68f0]
class Access--><rect codeLine="56" fill="#FEFECE" filter="url(#f12nxvxo3ul5gt)" height="39.9688" id="Access" style="stroke:#A80036;stroke-width:1.5;" width="50" x="15.197" y="537.5"/><text fill="#000000" font-family="sans-serif" font-size="12" lengthAdjust="spacing" textLength="44" x="18.197" y="553.6387">Access</text><line style="stroke:#A80036;stroke-width:1.5;" x1="16.197" x2="64.197" y1="561.4688" y2="561.4688"/><line style="stroke:#A80036;stroke-width:1.5;" x1="16.197" x2="64.197" y1="569.4688" y2="569.4688"/><!--MD5=[2f01b1126ff33a0669651ec2488a5ef9]
class Password--><rect codeLine="58" fill="#FEFECE" filter="url(#f12nxvxo3ul5gt)" height="39.9688" id="Password" style="stroke:#A80036;stroke-width:1.5;" width="64" x="145.1973" y="744"/><text fill="#000000" font-family="sans-serif" font-size="12" lengthAdjust="spacing" textLength="58" x="148.1973" y="760.1387">Password</text><line style="stroke:#A80036;stroke-width:1.5;" x1="146.1973" x2="208.1973" y1="767.9688" y2="767.9688"/><line style="stroke:#A80036;stroke-width:1.5;" x1="146.1973" x2="208.1973" y1="775.9688" y2="775.9688"/><!--MD5=[05d04b564e9d963c5556604ff8f07e7e]
class Analysis--><rect codeLine="60" fill="#FEFECE" filter="url(#f12nxvxo3ul5gt)" height="39.9688" id="Analysis" style="stroke:#A80036;stroke-width:1.5;" width="55" x="244.6973" y="744"/><text fill="#000000" font-family="sans-serif" font-size="12" lengthAdjust="spacing" textLength="49" x="247.6973" y="760.1387">Analysis</text><line style="stroke:#A80036;stroke-width:1.5;" x1="245.6973" x2="298.6973" y1="767.9688" y2="767.9688"/><line style="stroke:#A80036;stroke-width:1.5;" x1="245.6973" x2="298.6973" y1="775.9688" y2="775.9688"/><!--MD5=[bffffc91ea6363a28ee965dd72c463ae]
class Ability--><rect codeLine="62" fill="#FEFECE" filter="url(#f12nxvxo3ul5gt)" height="39.9688" id="Ability" style="stroke:#A80036;stroke-width:1.5;" width="42" x="232.1973" y="537.5"/><text fill="#000000" font-family="sans-serif" font-size="12" lengthAdjust="spacing" textLength="36" x="235.1973" y="553.6387">Ability</text><line style="stroke:#A80036;stroke-width:1.5;" x1="233.1973" x2="273.1973" y1="561.4688" y2="561.4688"/><line style="stroke:#A80036;stroke-width:1.5;" x1="233.1973" x2="273.1973" y1="569.4688" y2="569.4688"/><!--MD5=[3d4177ac58b4411586d067f34e84928f]
class List--><rect codeLine="64" fill="#FEFECE" filter="url(#f12nxvxo3ul5gt)" height="52.7734" id="List" style="stroke:#A80036;stroke-width:1.5;" width="45" x="450.6973" y="273.5"/><text fill="#000000" font-family="sans-serif" font-size="12" lengthAdjust="spacing" textLength="20" x="463.1973" y="289.6387">List</text><line style="stroke:#A80036;stroke-width:1.5;" x1="451.6973" x2="494.6973" y1="297.4688" y2="297.4688"/><line style="stroke:#A80036;stroke-width:1.5;" x1="451.6973" x2="494.6973" y1="305.4688" y2="305.4688"/><text fill="#000000" font-family="sans-serif" font-size="11" lengthAdjust="spacing" textLength="33" x="456.6973" y="319.6792">give()</text><!--MD5=[1537e7b3e760210491ed7d5f83b83174]
class Registration--><rect codeLine="67" fill="#FEFECE" filter="url(#f12nxvxo3ul5gt)" height="39.9688" id="Registration" style="stroke:#A80036;stroke-width:1.5;" width="77" x="334.6973" y="744"/><text fill="#000000" font-family="sans-serif" font-size="12" lengthAdjust="spacing" textLength="71" x="337.6973" y="760.1387">Registration</text><line style="stroke:#A80036;stroke-width:1.5;" x1="335.6973" x2="410.6973" y1="767.9688" y2="767.9688"/><line style="stroke:#A80036;stroke-width:1.5;" x1="335.6973" x2="410.6973" y1="775.9688" y2="775.9688"/><!--MD5=[065375cb6effaea8208de5d8db931f1f]
class VerificationEmail--><rect codeLine="69" fill="#FEFECE" filter="url(#f12nxvxo3ul5gt)" height="39.9688" id="VerificationEmail" style="stroke:#A80036;stroke-width:1.5;" width="104" x="447.1973" y="744"/><text fill="#000000" font-family="sans-serif" font-size="12" lengthAdjust="spacing" textLength="98" x="450.1973" y="760.1387">VerificationEmail</text><line style="stroke:#A80036;stroke-width:1.5;" x1="448.1973" x2="550.1973" y1="767.9688" y2="767.9688"/><line style="stroke:#A80036;stroke-width:1.5;" x1="448.1973" x2="550.1973" y1="775.9688" y2="775.9688"/><!--MD5=[fe9e4bf3c3890c470165de9d5ecb172d]
class Signup--><rect codeLine="71" fill="#FEFECE" filter="url(#f12nxvxo3ul5gt)" height="39.9688" id="Signup" style="stroke:#A80036;stroke-width:1.5;" width="47" x="586.6973" y="744"/><text fill="#000000" font-family="sans-serif" font-size="12" lengthAdjust="spacing" textLength="41" x="589.6973" y="760.1387">Signup</text><line style="stroke:#A80036;stroke-width:1.5;" x1="587.6973" x2="632.6973" y1="767.9688" y2="767.9688"/><line style="stroke:#A80036;stroke-width:1.5;" x1="587.6973" x2="632.6973" y1="775.9688" y2="775.9688"/><!--MD5=[f9a29335b499db729be669fd1bd54958]
class Account--><rect codeLine="73" fill="#FEFECE" filter="url(#f12nxvxo3ul5gt)" height="39.9688" id="Account" style="stroke:#A80036;stroke-width:1.5;" width="54" x="309.1973" y="537.5"/><text fill="#000000" font-family="sans-serif" font-size="12" lengthAdjust="spacing" textLength="48" x="312.1973" y="553.6387">Account</text><line style="stroke:#A80036;stroke-width:1.5;" x1="310.1973" x2="362.1973" y1="561.4688" y2="561.4688"/><line style="stroke:#A80036;stroke-width:1.5;" x1="310.1973" x2="362.1973" y1="569.4688" y2="569.4688"/><!--MD5=[94664d27f287a690f0ce0cde12babd12]
class Evolution--><rect codeLine="75" fill="#FEFECE" filter="url(#f12nxvxo3ul5gt)" height="39.9688" id="Evolution" style="stroke:#A80036;stroke-width:1.5;" width="60" x="669.1973" y="744"/><text fill="#000000" font-family="sans-serif" font-size="12" lengthAdjust="spacing" textLength="54" x="672.1973" y="760.1387">Evolution</text><line style="stroke:#A80036;stroke-width:1.5;" x1="670.1973" x2="728.1973" y1="767.9688" y2="767.9688"/><line style="stroke:#A80036;stroke-width:1.5;" x1="670.1973" x2="728.1973" y1="775.9688" y2="775.9688"/><!--MD5=[fa9b01b0c1e831278d20b2e9b04fd24c]
link User to SoftwareQualityMetric--><path codeLine="77" d="M603.3583,579.999 C673.0023,619.233 819.9533,702.0195 889.7833,741.3593 " fill="none" id="User-to-SoftwareQualityMetric" style="stroke:#A80036;stroke-width:1.0;"/><polygon fill="#A80036" points="894.2703,743.8867,888.3925,735.9841,889.914,741.4325,884.4657,742.954,894.2703,743.8867" style="stroke:#A80036;stroke-width:1.0;"/><text fill="#000000" font-family="sans-serif" font-size="13" lengthAdjust="spacing" textLength="42" x="842.1973" y="710.0669">export</text><!--MD5=[bfb2ff5f2366892d2d30bc17b72f60ad]
link Admin to Access--><path codeLine="78" d="M214.1393,306.317 C163.2713,315.569 76.2479,339.888 37.1971,401 C11.5274,441.171 22.6917,499.895 32.0932,532.474 " fill="none" id="Admin-to-Access" style="stroke:#A80036;stroke-width:1.0;"/><polygon fill="#A80036" points="33.581,537.472,34.8458,527.7047,32.1539,532.68,27.1786,529.9881,33.581,537.472" style="stroke:#A80036;stroke-width:1.0;"/><text fill="#000000" font-family="sans-serif" font-size="13" lengthAdjust="spacing" textLength="45" x="38.1971" y="414.0669">restrict</text><!--MD5=[bfb2ff5f2366892d2d30bc17b72f60ad]
link Admin to Access--><path codeLine="81" d="M214.1333,324.961 C186.5473,343.285 150.0383,370.526 124.1973,401 C89.2543,442.207 62.6404,500.293 49.429,532.545 " fill="none" id="Admin-to-Access-1" style="stroke:#A80036;stroke-width:1.0;"/><polygon fill="#A80036" points="47.4245,537.493,54.5108,530.6531,49.3016,532.8588,47.096,527.6496,47.4245,537.493" style="stroke:#A80036;stroke-width:1.0;"/><text fill="#000000" font-family="sans-serif" font-size="13" lengthAdjust="spacing" textLength="27" x="125.1973" y="414.0669">give</text><!--MD5=[bf6920a7c0d430d525e3e458e95f72ca]
reverse link User to Password--><path codeLine="79" d="M515.7583,591.07 C479.2913,614.198 427.9253,644.936 380.1973,667 C343.4523,683.987 331.0833,680.323 294.1973,697 C263.8093,710.7393 230.8633,729.723 207.6983,743.8051 " fill="none" id="User-backto-Password" style="stroke:#A80036;stroke-width:1.0;"/><polygon fill="#FFFFFF" points="527.0513,583.849,519.8415,583.7116,516.9417,590.314,524.1515,590.4514,527.0513,583.849" style="stroke:#A80036;stroke-width:1.0;"/><text fill="#000000" font-family="sans-serif" font-size="13" lengthAdjust="spacing" textLength="33" x="295.1973" y="710.0669">reset</text><!--MD5=[bf6920a7c0d430d525e3e458e95f72ca]
reverse link User to Password--><path codeLine="80" d="M515.7143,593.038 C479.6033,616.838 428.6923,647.563 380.1973,667 C326.3623,688.577 304.8133,670.551 253.1973,697 C230.1793,708.7945 208.3743,729.0107 194.0733,743.969 " fill="none" id="User-backto-Password-1" style="stroke:#A80036;stroke-width:1.0;"/><polygon fill="#FFFFFF" points="526.8963,585.577,519.6852,585.5792,516.9137,592.2364,524.1248,592.2342,526.8963,585.577" style="stroke:#A80036;stroke-width:1.0;"/><!--MD5=[906ced831d110bfc5563fb564a6c6b9e]
link Admin to Permission--><path codeLine="82" d="M292.3813,357.918 C297.5723,362.889 303.1943,367.392 309.1973,371 C370.8313,408.052 398.3993,383.683 468.1973,401 C747.9363,470.402 802.3243,541.812 1045.1983,697 C1067.2283,711.0741 1091.4083,727.8976 1109.8683,741.0367 " fill="none" id="Admin-to-Permission" style="stroke:#A80036;stroke-width:1.0;"/><polygon fill="#A80036" points="1113.9483,743.9519,1108.9396,735.4717,1109.8762,741.0505,1104.2974,741.9871,1113.9483,743.9519" style="stroke:#A80036;stroke-width:1.0;"/><text fill="#000000" font-family="sans-serif" font-size="13" lengthAdjust="spacing" textLength="53" x="993.1973" y="562.0669">manage</text><!--MD5=[4321addb604efe2612059507adc34ab6]
link Contributor to Admin--><path codeLine="83" d="M312.7473,152.154 C303.4653,175.044 293.1233,200.546 283.6963,223.792 " fill="none" id="Contributor-to-Admin" style="stroke:#A80036;stroke-width:1.0;"/><polygon fill="#A80036" points="281.6993,228.716,288.7873,221.8779,283.5776,224.0822,281.3733,218.8725,281.6993,228.716" style="stroke:#A80036;stroke-width:1.0;"/><text fill="#000000" font-family="sans-serif" font-size="13" lengthAdjust="spacing" textLength="22" x="301.1973" y="195.0669">ask</text><!--MD5=[5e8a3de0704fa8ab0489a41d9ba2d6bb]
link Admin to Project--><path codeLine="84" d="M292.2143,359.181 C297.4093,363.839 303.0783,367.925 309.1973,371 C477.8783,455.771 989.8493,315.569 1158.1983,401 C1208.8183,426.689 1232.0383,495.111 1241.1583,532.045 " fill="none" id="Admin-to-Project" style="stroke:#A80036;stroke-width:1.0;"/><polygon fill="#A80036" points="1242.4083,537.257,1244.212,527.5747,1241.2487,532.3933,1236.4301,529.43,1242.4083,537.257" style="stroke:#A80036;stroke-width:1.0;"/><text fill="#000000" font-family="sans-serif" font-size="13" lengthAdjust="spacing" textLength="61" x="1182.1983" y="414.0669">associate</text><!--MD5=[e8c610b9d8935eb1e02dc05d9ed1d384]
link Admin to Password--><path codeLine="85" d="M214.0563,362.936 C200.1953,388.292 186.2893,418.556 179.1973,448 C153.7543,553.633 166.5983,685.0314 173.6263,738.5803 " fill="none" id="Admin-to-Password" style="stroke:#A80036;stroke-width:1.0;"/><polygon fill="#A80036" points="174.3273,743.8178,177.0966,734.3663,173.6633,738.8621,169.1675,735.4287,174.3273,743.8178" style="stroke:#A80036;stroke-width:1.0;"/><text fill="#000000" font-family="sans-serif" font-size="13" lengthAdjust="spacing" textLength="33" x="180.1973" y="562.0669">reset</text><!--MD5=[33ae7c9fddac52a75b546961b7f24f14]
link Admin to Account--><path codeLine="86" d="M284.0493,371.002 C288.0233,380.987 291.8633,391.195 295.1973,401 C310.6583,446.478 323.8563,501.062 330.8493,531.971 " fill="none" id="Admin-to-Account" style="stroke:#A80036;stroke-width:1.0;"/><polygon fill="#A80036" points="332.0003,537.092,333.9308,527.4342,330.9046,532.2135,326.1252,529.1873,332.0003,537.092" style="stroke:#A80036;stroke-width:1.0;"/><text fill="#000000" font-family="sans-serif" font-size="13" lengthAdjust="spacing" textLength="63" x="302.1973" y="414.0669">terminate</text><!--MD5=[199a544b9a231c71e612af6b8af2af2f]
link Contributor to Access--><path codeLine="87" d="M286.9813,114.223 C209.3933,164.089 70.7014,268.21 22.1971,401 C6,445.342 20.0713,501.104 30.7917,532.371 " fill="none" id="Contributor-to-Access" style="stroke:#A80036;stroke-width:1.0;"/><polygon fill="#A80036" points="32.4783,537.174,33.2694,527.357,30.8212,532.4566,25.7216,530.0083,32.4783,537.174" style="stroke:#A80036;stroke-width:1.0;"/><text fill="#000000" font-family="sans-serif" font-size="13" lengthAdjust="spacing" textLength="27" x="142.1973" y="304.5669">give</text><!--MD5=[478425156ee10c55cac736d5b0b47b37]
link Admin to User--><path codeLine="88" d="M292.3803,355.42 C297.6703,361.056 303.3153,366.395 309.1973,371 C334.2493,390.614 347.2033,384.157 374.1973,401 C429.1493,435.288 485.9443,483.444 523.1603,517.051 " fill="none" id="Admin-to-User" style="stroke:#A80036;stroke-width:1.0;"/><polygon fill="#A80036" points="527.1503,520.665,523.1659,511.6581,523.4447,517.308,517.7948,517.5869,527.1503,520.665" style="stroke:#A80036;stroke-width:1.0;"/><text fill="#000000" font-family="sans-serif" font-size="13" lengthAdjust="spacing" textLength="61" x="398.1973" y="414.0669">associate</text><!--MD5=[fea790008077303b0f3720e23992bb13]
link User to Evolution--><path codeLine="89" d="M603.2723,615.274 C619.9373,640.264 639.6513,670.016 657.1973,697 C666.2963,710.9945 676.3393,726.7643 684.3233,739.379 " fill="none" id="User-to-Evolution" style="stroke:#A80036;stroke-width:1.0;"/><polygon fill="#A80036" points="687.1653,743.8747,685.7361,734.1301,684.4931,739.6487,678.9745,738.4056,687.1653,743.8747" style="stroke:#A80036;stroke-width:1.0;"/><text fill="#000000" font-family="sans-serif" font-size="13" lengthAdjust="spacing" textLength="23" x="669.1973" y="710.0669">see</text><!--MD5=[30c50e7fb5211c4573ede036583df2ee]
reverse link User to Permission--><path codeLine="90" d="M615.8283,572.358 C697.5703,595.242 863.2013,643.728 999.1973,697 C1035.8183,711.3436 1076.3583,730.7027 1104.5283,744.7427 " fill="none" id="User-backto-Permission" style="stroke:#A80036;stroke-width:1.0;"/><polygon fill="#FFFFFF" points="603.2113,568.843,607.9177,574.3064,614.7711,572.0633,610.0646,566.5999,603.2113,568.843" style="stroke:#A80036;stroke-width:1.0;"/><!--MD5=[706eb293ceb28ed7a1df10090c6e0eaa]
link User to Analysis--><path codeLine="91" d="M526.9203,583.046 C484.9883,610.181 416.0003,655.549 358.1973,697 C338.5983,711.0543 317.0733,727.5752 300.4593,740.572 " fill="none" id="User-to-Analysis" style="stroke:#A80036;stroke-width:1.0;"/><polygon fill="#A80036" points="296.3463,743.7967,305.8973,741.393,300.2815,740.7123,300.9623,735.0966,296.3463,743.7967" style="stroke:#A80036;stroke-width:1.0;"/><text fill="#000000" font-family="sans-serif" font-size="13" lengthAdjust="spacing" textLength="52" x="359.1973" y="710.0669">perform</text><!--MD5=[4d951c88de8fa929186119782ab636d2]
reverse link Contributor to Impact--><path codeLine="92" d="M337.3173,165.407 C337.3013,176.703 337.5473,188.139 338.1973,199 C339.8873,227.276 344.2443,259.811 347.2153,279.891 " fill="none" id="Contributor-backto-Impact" style="stroke:#A80036;stroke-width:1.0;"/><polygon fill="#FFFFFF" points="337.4493,152.254,333.3895,158.2137,337.3293,164.2534,341.3891,158.2937,337.4493,152.254" style="stroke:#A80036;stroke-width:1.0;"/><text fill="#000000" font-family="sans-serif" font-size="13" lengthAdjust="spacing" textLength="50" x="339.1973" y="195.0669">analyze</text><!--MD5=[6c9a9adb3c954f2ded6db225113cfcc7]
link Contributor to List--><path codeLine="93" d="M395.4963,99.953 C432.5433,115.37 478.8073,141.603 501.1973,182 C516.2573,209.172 504.3643,244.267 491.7543,268.905 " fill="none" id="Contributor-to-List" style="stroke:#A80036;stroke-width:1.0;"/><polygon fill="#A80036" points="489.3983,273.379,497.132,267.2807,491.7287,268.9553,490.0541,263.552,489.3983,273.379" style="stroke:#A80036;stroke-width:1.0;"/><text fill="#000000" font-family="sans-serif" font-size="13" lengthAdjust="spacing" textLength="23" x="508.1973" y="195.0669">see</text><!--MD5=[6c9a9adb3c954f2ded6db225113cfcc7]
link Contributor to List--><path codeLine="96" d="M383.8713,152.154 C407.9223,191.692 436.7153,239.026 454.9823,269.056 " fill="none" id="Contributor-to-List-1" style="stroke:#A80036;stroke-width:1.0;"/><polygon fill="#A80036" points="457.5993,273.358,456.3389,263.5901,455.0006,269.0864,449.5043,267.748,457.5993,273.358" style="stroke:#A80036;stroke-width:1.0;"/><text fill="#000000" font-family="sans-serif" font-size="13" lengthAdjust="spacing" textLength="65" x="412.1973" y="195.0669">contribute</text><!--MD5=[fcd7b7f726ed3582e75e139995d62671]
link Admin to Ability--><path codeLine="94" d="M253.1973,371.154 C253.1973,424.801 253.1973,495.587 253.1973,532.213 " fill="none" id="Admin-to-Ability" style="stroke:#A80036;stroke-width:1.0;"/><polygon fill="#A80036" points="253.1973,537.363,257.1973,528.363,253.1973,532.363,249.1973,528.363,253.1973,537.363" style="stroke:#A80036;stroke-width:1.0;"/><text fill="#000000" font-family="sans-serif" font-size="13" lengthAdjust="spacing" textLength="32" x="254.1973" y="414.0669">have</text><!--MD5=[20322139b3bdefa1b37e548cee49e0a9]
link User to Statistics--><path codeLine="95" d="M603.2693,592.499 C650.3343,634.528 729.1063,704.8731 769.1643,740.6452 " fill="none" id="User-to-Statistics" style="stroke:#A80036;stroke-width:1.0;"/><polygon fill="#A80036" points="772.9173,743.997,768.8681,735.019,769.1876,740.6668,763.5398,740.9864,772.9173,743.997" style="stroke:#A80036;stroke-width:1.0;"/><text fill="#000000" font-family="sans-serif" font-size="13" lengthAdjust="spacing" textLength="30" x="740.1973" y="710.0669">view</text><!--MD5=[e90891b402e04e957df240bfc0c5f920]
link User to Signup--><path codeLine="97" d="M589.0803,667.037 C595.0413,694.1255 600.8723,720.6231 604.8913,738.8869 " fill="none" id="User-to-Signup" style="stroke:#A80036;stroke-width:1.0;"/><polygon fill="#A80036" points="605.9753,743.8136,607.9474,734.1642,604.9006,738.9304,600.1344,735.8836,605.9753,743.8136" style="stroke:#A80036;stroke-width:1.0;"/><text fill="#000000" font-family="sans-serif" font-size="13" lengthAdjust="spacing" textLength="47" x="601.1973" y="710.0669">receive</text><!--MD5=[37ada22106c24e54211ad5669879dfc6]
reverse link User to Registration--><path codeLine="98" d="M517.8113,608.97 C476.8813,652.565 419.9333,713.2207 391.2433,743.7784 " fill="none" id="User-backto-Registration" style="stroke:#A80036;stroke-width:1.0;"/><polygon fill="#FFFFFF" points="526.8043,599.392,519.7812,601.028,518.5902,608.1401,525.6133,606.5041,526.8043,599.392" style="stroke:#A80036;stroke-width:1.0;"/><text fill="#000000" font-family="sans-serif" font-size="13" lengthAdjust="spacing" textLength="49" x="431.1973" y="710.0669">confirm</text><!--MD5=[38be58f05b4c724e9e7e747cf0ee4c8b]
link User to VerificationEmail--><path codeLine="99" d="M530.1683,667.037 C521.4253,694.1255 512.8733,720.6231 506.9793,738.8869 " fill="none" id="User-to-VerificationEmail" style="stroke:#A80036;stroke-width:1.0;"/><polygon fill="#A80036" points="505.3893,743.8136,511.9603,736.4773,506.925,739.0553,504.347,734.02,505.3893,743.8136" style="stroke:#A80036;stroke-width:1.0;"/><text fill="#000000" font-family="sans-serif" font-size="13" lengthAdjust="spacing" textLength="47" x="520.1973" y="710.0669">receive</text><!--MD5=[ca42d6455c2e17d4cd6884263dc1d392]
reverse link User to Email--><path codeLine="100" d="M615.3523,577.656 C698.9463,609.93 871.6583,678.095 1014.1973,744 C1020.2283,746.7881 1026.6983,750.0261 1032.5183,753.0306 " fill="none" id="User-backto-Email" style="stroke:#A80036;stroke-width:1.0;"/><polygon fill="#FFFFFF" points="603.1993,572.975,607.3603,578.8645,614.3971,577.2888,610.2361,571.3993,603.1993,572.975" style="stroke:#A80036;stroke-width:1.0;"/><text fill="#000000" font-family="sans-serif" font-size="13" lengthAdjust="spacing" textLength="47" x="943.1973" y="710.0669">receive</text><!--MD5=[803c7cc87e5038d147c9e006fd5e4d7d]
@startuml
hide circle
class Admin<actor> {
}
class User<actor> {
	registration
	email
	project
	password
}
class Contributor<actor> {
	impact
}
class Permission {
}
class Admin {
	reset()
	manage()
	restrict()
	have()
	give()
	block()
	terminate()
	associate()
}
class User {
	request()
	reset()
	view()
	export()
	confirm()
	see()
	receive()
	assign()
	perform()
	expose()
}
class SoftwareQualityMetric {
}
class Contributor {
	ask()
	work()
	contribute()
	analyze()
	give()
	see()
	access()
}
class Impact {
}
class Statistics {
}
class Email {
}
class Project {
}
class Access {
}
class Password {
}
class Analysis {
}
class Ability {
}
class List {
	give()
}
class Registration {
}
class VerificationEmail {
}
class Signup {
}
class Account {
}
class Evolution {
}
User - -> SoftwareQualityMetric : export
Admin - -> Access : restrict
User o- - Password : reset
User o- - Password
Admin - -> Access : give
Admin - -> Permission : manage
Contributor - -> Admin : ask
Admin - -> Project : associate
Admin - -> Password : reset
Admin - -> Account : terminate
Contributor - -> Access : give
Admin - -> User : associate
User - -> Evolution : see
User o- - Permission
User - -> Analysis : perform
Contributor o- - Impact : analyze
Contributor - -> List : see
Admin - -> Ability : have
User - -> Statistics : view
Contributor - -> List : contribute
User - -> Signup : receive
User o- - Registration : confirm
User - -> VerificationEmail : receive
User o- - Email : receive
@enduml

PlantUML version 1.2021.10beta2(Unknown compile time)
(GPL source distribution)
Java Runtime: Java(TM) SE Runtime Environment
JVM: Java HotSpot(TM) 64-Bit Server VM
Default Encoding: UTF-8
Language: en
Country: US
--></g></svg>