<?xml version="1.0" encoding="UTF-8" standalone="no"?><svg xmlns="http://www.w3.org/2000/svg" xmlns:xlink="http://www.w3.org/1999/xlink" contentScriptType="application/ecmascript" contentStyleType="text/css" height="425px" preserveAspectRatio="none" style="width:1177px;height:425px;background:#FFFFFF;" version="1.1" viewBox="0 0 1177 425" width="1177px" zoomAndPan="magnify"><defs><filter height="300%" id="f1aiddubmjbvpf" width="300%" x="-1" y="-1"><feGaussianBlur result="blurOut" stdDeviation="2.0"/><feColorMatrix in="blurOut" result="blurOut2" type="matrix" values="0 0 0 0 0 0 0 0 0 0 0 0 0 0 0 0 0 0 .4 0"/><feOffset dx="4.0" dy="4.0" in="blurOut2" result="blurOut3"/><feBlend in="SourceGraphic" in2="blurOut3" mode="normal"/></filter></defs><g><!--MD5=[da547346deef918ea16944ba046651ef]
class Administrator--><rect codeLine="17" fill="#FEFECE" filter="url(#f1aiddubmjbvpf)" height="116.7969" id="Administrator" style="stroke:#A80036;stroke-width:1.5;" width="121" x="261.5" y="165"/><text fill="#000000" font-family="sans-serif" font-size="12" lengthAdjust="spacing" textLength="80" x="264.5" y="181.1387">Administrator</text><rect fill="#FFFFFF" height="15.9688" style="stroke:#000000;stroke-width:1.0;stroke-dasharray:2.0,2.0;" width="33" x="352.5" y="162"/><text fill="#000000" font-family="sans-serif" font-size="12" font-style="italic" lengthAdjust="spacing" textLength="31" x="353.5" y="174.1387">actor</text><line style="stroke:#A80036;stroke-width:1.5;" x1="262.5" x2="381.5" y1="188.9688" y2="188.9688"/><line style="stroke:#A80036;stroke-width:1.5;" x1="262.5" x2="381.5" y1="196.9688" y2="196.9688"/><text fill="#000000" font-family="sans-serif" font-size="11" lengthAdjust="spacing" textLength="39" x="267.5" y="211.1792">enter()</text><text fill="#000000" font-family="sans-serif" font-size="11" lengthAdjust="spacing" textLength="29" x="267.5" y="223.9839">add()</text><text fill="#000000" font-family="sans-serif" font-size="11" lengthAdjust="spacing" textLength="30" x="267.5" y="236.7886">lock()</text><text fill="#000000" font-family="sans-serif" font-size="11" lengthAdjust="spacing" textLength="30" x="267.5" y="249.5933">see()</text><text fill="#000000" font-family="sans-serif" font-size="11" lengthAdjust="spacing" textLength="44" x="267.5" y="262.3979">assign()</text><text fill="#000000" font-family="sans-serif" font-size="11" lengthAdjust="spacing" textLength="45" x="267.5" y="275.2026">create()</text><!--MD5=[8efdeb80806bcb4484b32c9018cd5511]
class HouseManager--><rect codeLine="34" fill="#FEFECE" filter="url(#f1aiddubmjbvpf)" height="78.3828" id="HouseManager" style="stroke:#A80036;stroke-width:1.5;" width="132" x="774" y="10"/><text fill="#000000" font-family="sans-serif" font-size="12" lengthAdjust="spacing" textLength="91" x="777" y="26.1387">HouseManager</text><rect fill="#FFFFFF" height="15.9688" style="stroke:#000000;stroke-width:1.0;stroke-dasharray:2.0,2.0;" width="33" x="876" y="7"/><text fill="#000000" font-family="sans-serif" font-size="12" font-style="italic" lengthAdjust="spacing" textLength="31" x="877" y="19.1387">actor</text><line style="stroke:#A80036;stroke-width:1.5;" x1="775" x2="905" y1="33.9688" y2="33.9688"/><line style="stroke:#A80036;stroke-width:1.5;" x1="775" x2="905" y1="41.9688" y2="41.9688"/><text fill="#000000" font-family="sans-serif" font-size="11" lengthAdjust="spacing" textLength="43" x="780" y="56.1792">select()</text><text fill="#000000" font-family="sans-serif" font-size="11" lengthAdjust="spacing" textLength="29" x="780" y="68.9839">add()</text><text fill="#000000" font-family="sans-serif" font-size="11" lengthAdjust="spacing" textLength="46" x="780" y="81.7886">delete()</text><!--MD5=[5005bba8c6d1dda988b0bcc8eba409f6]
class House--><rect codeLine="6" fill="#FEFECE" filter="url(#f1aiddubmjbvpf)" height="39.9688" id="House" style="stroke:#A80036;stroke-width:1.5;" width="80" x="941" y="29"/><text fill="#000000" font-family="sans-serif" font-size="12" lengthAdjust="spacing" textLength="39" x="944" y="45.1387">House</text><rect fill="#FFFFFF" height="15.9688" style="stroke:#000000;stroke-width:1.0;stroke-dasharray:2.0,2.0;" width="33" x="991" y="26"/><text fill="#000000" font-family="sans-serif" font-size="12" font-style="italic" lengthAdjust="spacing" textLength="31" x="992" y="38.1387">actor</text><line style="stroke:#A80036;stroke-width:1.5;" x1="942" x2="1020" y1="52.9688" y2="52.9688"/><line style="stroke:#A80036;stroke-width:1.5;" x1="942" x2="1020" y1="60.9688" y2="60.9688"/><!--MD5=[9190320e8679ef06bbaf802ee6dd1bb7]
class HouseStaff--><rect codeLine="8" fill="#FEFECE" filter="url(#f1aiddubmjbvpf)" height="39.9688" id="HouseStaff" style="stroke:#A80036;stroke-width:1.5;" width="107" x="1056.5" y="29"/><text fill="#000000" font-family="sans-serif" font-size="12" lengthAdjust="spacing" textLength="66" x="1059.5" y="45.1387">HouseStaff</text><rect fill="#FFFFFF" height="15.9688" style="stroke:#000000;stroke-width:1.0;stroke-dasharray:2.0,2.0;" width="33" x="1133.5" y="26"/><text fill="#000000" font-family="sans-serif" font-size="12" font-style="italic" lengthAdjust="spacing" textLength="31" x="1134.5" y="38.1387">actor</text><line style="stroke:#A80036;stroke-width:1.5;" x1="1057.5" x2="1162.5" y1="52.9688" y2="52.9688"/><line style="stroke:#A80036;stroke-width:1.5;" x1="1057.5" x2="1162.5" y1="60.9688" y2="60.9688"/><!--MD5=[05bef9715505055a435a5b60deea392b]
class Lock--><rect codeLine="10" fill="#FEFECE" filter="url(#f1aiddubmjbvpf)" height="65.5781" id="Lock" style="stroke:#A80036;stroke-width:1.5;" width="79" x="632.5" y="190.5"/><text fill="#000000" font-family="sans-serif" font-size="12" lengthAdjust="spacing" textLength="28" x="658" y="206.6387">Lock</text><line style="stroke:#A80036;stroke-width:1.5;" x1="633.5" x2="710.5" y1="214.4688" y2="214.4688"/><line style="stroke:#A80036;stroke-width:1.5;" x1="633.5" x2="710.5" y1="222.4688" y2="222.4688"/><text fill="#000000" font-family="sans-serif" font-size="11" lengthAdjust="spacing" textLength="67" x="638.5" y="236.6792">adddelete()</text><text fill="#000000" font-family="sans-serif" font-size="11" lengthAdjust="spacing" textLength="29" x="638.5" y="249.4839">add()</text><!--MD5=[ba580110b1777f63e0f1dfe3fcefdac0]
class Code--><rect codeLine="14" fill="#FEFECE" filter="url(#f1aiddubmjbvpf)" height="52.7734" id="Code" style="stroke:#A80036;stroke-width:1.5;" width="42" x="700" y="359"/><text fill="#000000" font-family="sans-serif" font-size="12" lengthAdjust="spacing" textLength="32" x="705" y="375.1387">Code</text><line style="stroke:#A80036;stroke-width:1.5;" x1="701" x2="741" y1="382.9688" y2="382.9688"/><line style="stroke:#A80036;stroke-width:1.5;" x1="701" x2="741" y1="390.9688" y2="390.9688"/><text fill="#000000" font-family="sans-serif" font-size="11" lengthAdjust="spacing" textLength="30" x="706" y="405.1792">edit()</text><!--MD5=[b24ed8d4ae84bae9290d9aab401637c7]
class Manager--><rect codeLine="25" fill="#FEFECE" filter="url(#f1aiddubmjbvpf)" height="39.9688" id="Manager" style="stroke:#A80036;stroke-width:1.5;" width="58" x="7" y="365.5"/><text fill="#000000" font-family="sans-serif" font-size="12" lengthAdjust="spacing" textLength="52" x="10" y="381.6387">Manager</text><line style="stroke:#A80036;stroke-width:1.5;" x1="8" x2="64" y1="389.4688" y2="389.4688"/><line style="stroke:#A80036;stroke-width:1.5;" x1="8" x2="64" y1="397.4688" y2="397.4688"/><!--MD5=[5a5a8b3a661705821451d8f0afdb3b5f]
class Secret--><rect codeLine="27" fill="#FEFECE" filter="url(#f1aiddubmjbvpf)" height="39.9688" id="Secret" style="stroke:#A80036;stroke-width:1.5;" width="46" x="100" y="365.5"/><text fill="#000000" font-family="sans-serif" font-size="12" lengthAdjust="spacing" textLength="40" x="103" y="381.6387">Secret</text><line style="stroke:#A80036;stroke-width:1.5;" x1="101" x2="145" y1="389.4688" y2="389.4688"/><line style="stroke:#A80036;stroke-width:1.5;" x1="101" x2="145" y1="397.4688" y2="397.4688"/><!--MD5=[070a5cd582cb551161794c772ee9c1f2]
class locks--><rect codeLine="29" fill="#FEFECE" filter="url(#f1aiddubmjbvpf)" height="52.7734" id="locks" style="stroke:#A80036;stroke-width:1.5;" width="79" x="800.5" y="197"/><text fill="#000000" font-family="sans-serif" font-size="12" lengthAdjust="spacing" textLength="32" x="824" y="213.1387">locks</text><line style="stroke:#A80036;stroke-width:1.5;" x1="801.5" x2="878.5" y1="220.9688" y2="220.9688"/><line style="stroke:#A80036;stroke-width:1.5;" x1="801.5" x2="878.5" y1="228.9688" y2="228.9688"/><text fill="#000000" font-family="sans-serif" font-size="11" lengthAdjust="spacing" textLength="67" x="806.5" y="243.1792">adddelete()</text><!--MD5=[e3d83ec5fd90ea9f3f2bfe265cb53458]
class Status--><rect codeLine="32" fill="#FEFECE" filter="url(#f1aiddubmjbvpf)" height="39.9688" id="Status" style="stroke:#A80036;stroke-width:1.5;" width="43" x="181.5" y="365.5"/><text fill="#000000" font-family="sans-serif" font-size="12" lengthAdjust="spacing" textLength="37" x="184.5" y="381.6387">Status</text><line style="stroke:#A80036;stroke-width:1.5;" x1="182.5" x2="223.5" y1="389.4688" y2="389.4688"/><line style="stroke:#A80036;stroke-width:1.5;" x1="182.5" x2="223.5" y1="397.4688" y2="397.4688"/><!--MD5=[e95eab5e4529425f30cd75fab835797b]
class Other--><rect codeLine="39" fill="#FEFECE" filter="url(#f1aiddubmjbvpf)" height="39.9688" id="Other" style="stroke:#A80036;stroke-width:1.5;" width="40" x="915" y="203.5"/><text fill="#000000" font-family="sans-serif" font-size="12" lengthAdjust="spacing" textLength="34" x="918" y="219.6387">Other</text><line style="stroke:#A80036;stroke-width:1.5;" x1="916" x2="954" y1="227.4688" y2="227.4688"/><line style="stroke:#A80036;stroke-width:1.5;" x1="916" x2="954" y1="235.4688" y2="235.4688"/><!--MD5=[02aa40bb5c87b8142412beed1297aa29]
class SmartThingsClientId--><rect codeLine="41" fill="#FEFECE" filter="url(#f1aiddubmjbvpf)" height="39.9688" id="SmartThingsClientId" style="stroke:#A80036;stroke-width:1.5;" width="124" x="260" y="365.5"/><text fill="#000000" font-family="sans-serif" font-size="12" lengthAdjust="spacing" textLength="118" x="263" y="381.6387">SmartThingsClientId</text><line style="stroke:#A80036;stroke-width:1.5;" x1="261" x2="383" y1="389.4688" y2="389.4688"/><line style="stroke:#A80036;stroke-width:1.5;" x1="261" x2="383" y1="397.4688" y2="397.4688"/><!--MD5=[70a93e40820e09fe6c82aea962bef208]
class Hub--><rect codeLine="43" fill="#FEFECE" filter="url(#f1aiddubmjbvpf)" height="39.9688" id="Hub" style="stroke:#A80036;stroke-width:1.5;" width="30" x="419" y="365.5"/><text fill="#000000" font-family="sans-serif" font-size="12" lengthAdjust="spacing" textLength="24" x="422" y="381.6387">Hub</text><line style="stroke:#A80036;stroke-width:1.5;" x1="420" x2="448" y1="389.4688" y2="389.4688"/><line style="stroke:#A80036;stroke-width:1.5;" x1="420" x2="448" y1="397.4688" y2="397.4688"/><!--MD5=[41314a0efc36828092cff9ebad2fcafd]
class Group--><rect codeLine="45" fill="#FEFECE" filter="url(#f1aiddubmjbvpf)" height="39.9688" id="Group" style="stroke:#A80036;stroke-width:1.5;" width="43" x="484.5" y="365.5"/><text fill="#000000" font-family="sans-serif" font-size="12" lengthAdjust="spacing" textLength="37" x="487.5" y="381.6387">Group</text><line style="stroke:#A80036;stroke-width:1.5;" x1="485.5" x2="526.5" y1="389.4688" y2="389.4688"/><line style="stroke:#A80036;stroke-width:1.5;" x1="485.5" x2="526.5" y1="397.4688" y2="397.4688"/><!--MD5=[db6a50a2d811e4385806fa904a620d61]
link locks to Code--><path codeLine="47" d="M824.57,250.145 C811.214,271.763 790.954,303.207 771,329 C763.223,339.0526 754.073,349.5419 745.741,358.6605 " fill="none" id="locks-to-Code" style="stroke:#A80036;stroke-width:1.0;"/><polygon fill="#A80036" points="742.227,362.4792,751.2652,358.5663,745.6132,358.8004,745.3791,353.1484,742.227,362.4792" style="stroke:#A80036;stroke-width:1.0;"/><text fill="#000000" font-family="sans-serif" font-size="13" lengthAdjust="spacing" textLength="64" x="784" y="325.0669">adddelete</text><!--MD5=[64d713fdb760e3b6b59069371d93ba85]
link Administrator to Manager--><path codeLine="48" d="M261.151,253.681 C227.9,270.068 186.228,291.328 150,312 C122.116,327.9107 91.4602,347.5331 68.9678,362.3497 " fill="none" id="Administrator-to-Manager" style="stroke:#A80036;stroke-width:1.0;"/><polygon fill="#A80036" points="64.5814,365.2464,74.2958,363.6246,68.7537,362.4911,69.8873,356.9489,64.5814,365.2464" style="stroke:#A80036;stroke-width:1.0;"/><text fill="#000000" font-family="sans-serif" font-size="13" lengthAdjust="spacing" textLength="24" x="151" y="325.0669">add</text><!--MD5=[5674770d1130ff0f4c69ca145fbb4d93]
link Administrator to Hub--><path codeLine="49" d="M362.435,282.264 C381.505,309.507 403.191,340.487 417.644,361.1349 " fill="none" id="Administrator-to-Hub" style="stroke:#A80036;stroke-width:1.0;"/><polygon fill="#A80036" points="420.615,365.379,418.7319,355.7118,417.7482,361.2825,412.1775,360.2988,420.615,365.379" style="stroke:#A80036;stroke-width:1.0;"/><text fill="#000000" font-family="sans-serif" font-size="13" lengthAdjust="spacing" textLength="23" x="396" y="325.0669">see</text><!--MD5=[f4448d3343ebd66d0ec8ea5a421f335b]
link HouseManager to Lock--><path codeLine="50" d="M802.715,88.283 C774.128,117.636 734.957,157.857 706.965,186.599 " fill="none" id="HouseManager-to-Lock" style="stroke:#A80036;stroke-width:1.0;"/><polygon fill="#A80036" points="703.264,190.398,712.4092,186.742,706.7528,186.8163,706.6785,181.16,703.264,190.398" style="stroke:#A80036;stroke-width:1.0;"/><text fill="#000000" font-family="sans-serif" font-size="13" lengthAdjust="spacing" textLength="38" x="772" y="131.0669">select</text><!--MD5=[9523404766bc26aad34fb557a77aecdd]
link Code to Code--><path codeLine="51" d="M742.26,375.1875 C759.354,371.0625 777,374.5 777,385.5 C777,395.3828 762.756,399.1613 747.466,396.8353 " fill="none" id="Code-to-Code" style="stroke:#A80036;stroke-width:1.0;"/><polygon fill="#A80036" points="742.26,395.8125,750.3212,401.4708,747.1664,396.7754,751.8618,393.6206,742.26,395.8125" style="stroke:#A80036;stroke-width:1.0;"/><text fill="#000000" font-family="sans-serif" font-size="13" lengthAdjust="spacing" textLength="24" x="783" y="390.0669">edit</text><!--MD5=[82ea8288550ae9bf3dfaa74a7cb9e82a]
link Administrator to Status--><path codeLine="52" d="M279.038,282.264 C258.776,309.507 235.735,340.487 220.378,361.1349 " fill="none" id="Administrator-to-Status" style="stroke:#A80036;stroke-width:1.0;"/><polygon fill="#A80036" points="217.221,365.379,225.8021,360.5452,220.2052,361.3672,219.3832,355.7704,217.221,365.379" style="stroke:#A80036;stroke-width:1.0;"/><text fill="#000000" font-family="sans-serif" font-size="13" lengthAdjust="spacing" textLength="25" x="257" y="325.0669">lock</text><!--MD5=[4ff5c959c9ec39df38db2f53da54cf67]
link Lock to Code--><path codeLine="53" d="M662.556,256.812 C658.056,278.109 655.485,306.175 665,329 C671.34,344.2106 684.102,357.3891 695.844,367.083 " fill="none" id="Lock-to-Code" style="stroke:#A80036;stroke-width:1.0;"/><polygon fill="#A80036" points="699.776,370.2348,695.2552,361.4848,695.8746,367.1077,690.2517,367.7271,699.776,370.2348" style="stroke:#A80036;stroke-width:1.0;"/><text fill="#000000" font-family="sans-serif" font-size="13" lengthAdjust="spacing" textLength="64" x="666" y="325.0669">adddelete</text><!--MD5=[4ff5c959c9ec39df38db2f53da54cf67]
link Lock to Code--><path codeLine="59" d="M702.601,256.653 C715.24,272.118 728.449,291.691 735,312 C739.343,325.4633 737.34,340.7911 733.655,353.8743 " fill="none" id="Lock-to-Code-1" style="stroke:#A80036;stroke-width:1.0;"/><polygon fill="#A80036" points="732.11,358.9561,738.5558,351.5095,733.5649,354.1725,730.902,349.1816,732.11,358.9561" style="stroke:#A80036;stroke-width:1.0;"/><text fill="#000000" font-family="sans-serif" font-size="13" lengthAdjust="spacing" textLength="24" x="738" y="325.0669">add</text><!--MD5=[4a975ec18d4cd3a03a08d214eac2ddbe]
link Administrator to Code--><path codeLine="54" d="M382.6,248.801 C471.2,284.329 632.361,348.9556 695.064,374.0998 " fill="none" id="Administrator-to-Code" style="stroke:#A80036;stroke-width:1.0;"/><polygon fill="#A80036" points="699.762,375.9834,692.8961,368.9222,695.1209,374.1232,689.9199,376.348,699.762,375.9834" style="stroke:#A80036;stroke-width:1.0;"/><text fill="#000000" font-family="sans-serif" font-size="13" lengthAdjust="spacing" textLength="41" x="582" y="325.0669">assign</text><!--MD5=[f244739aa2a508a11197a1f777a0dfc8]
link Administrator to Secret--><path codeLine="55" d="M261.207,266.25 C241.604,280.292 220.034,296.371 201,312 C181.769,327.7909 161.199,347.0179 146.013,361.703 " fill="none" id="Administrator-to-Secret" style="stroke:#A80036;stroke-width:1.0;"/><polygon fill="#A80036" points="142.273,365.3338,151.5169,361.9351,145.8606,361.8512,145.9446,356.1949,142.273,365.3338" style="stroke:#A80036;stroke-width:1.0;"/><text fill="#000000" font-family="sans-serif" font-size="13" lengthAdjust="spacing" textLength="34" x="202" y="325.0669">enter</text><!--MD5=[cc5c532db1925b50be75e52ee7971c1e]
link Lock to Lock--><path codeLine="56" d="M711.856,205.856 C730.346,203.931 746.5,209.812 746.5,223.5 C746.5,235.904 733.233,241.897 716.984,241.48 " fill="none" id="Lock-to-Lock" style="stroke:#A80036;stroke-width:1.0;"/><polygon fill="#A80036" points="711.856,241.144,720.575,245.7242,716.8453,241.4711,721.0984,237.7413,711.856,241.144" style="stroke:#A80036;stroke-width:1.0;"/><text fill="#000000" font-family="sans-serif" font-size="13" lengthAdjust="spacing" textLength="24" x="752.5" y="228.0669">add</text><!--MD5=[75be889360c87e7ff3ea9e9256855b1e]
link HouseManager to locks--><path codeLine="57" d="M840,88.283 C840,119.399 840,162.728 840,191.649 " fill="none" id="HouseManager-to-locks" style="stroke:#A80036;stroke-width:1.0;"/><polygon fill="#A80036" points="840,196.876,844,187.876,840,191.876,836,187.876,840,196.876" style="stroke:#A80036;stroke-width:1.0;"/><text fill="#000000" font-family="sans-serif" font-size="13" lengthAdjust="spacing" textLength="40" x="841" y="131.0669">delete</text><!--MD5=[bc393ba6385e62778a0f601524087b7d]
link Administrator to Group--><path codeLine="58" d="M382.777,273.637 C397.708,285.991 413.552,299.341 428,312 C446.588,328.2857 467.031,347.331 482.323,361.8137 " fill="none" id="Administrator-to-Group" style="stroke:#A80036;stroke-width:1.0;"/><polygon fill="#A80036" points="486.096,365.393,482.3201,356.2967,482.4688,361.9516,476.8139,362.1003,486.096,365.393" style="stroke:#A80036;stroke-width:1.0;"/><text fill="#000000" font-family="sans-serif" font-size="13" lengthAdjust="spacing" textLength="41" x="447" y="325.0669">create</text><!--MD5=[fe9394be1525cdb3f526abafa2dbaa12]
link Administrator to SmartThingsClientId--><path codeLine="60" d="M322,282.264 C322,309.165 322,339.7098 322,360.3525 " fill="none" id="Administrator-to-SmartThingsClientId" style="stroke:#A80036;stroke-width:1.0;"/><polygon fill="#A80036" points="322,365.379,326,356.379,322,360.379,318,356.379,322,365.379" style="stroke:#A80036;stroke-width:1.0;"/><text fill="#000000" font-family="sans-serif" font-size="13" lengthAdjust="spacing" textLength="34" x="323" y="325.0669">enter</text><!--MD5=[350e9556c2a62c82681a8426143e09ba]
link HouseManager to Other--><path codeLine="61" d="M870.4,88.165 C877.28,97.635 884.245,107.956 890,118 C905.156,144.45 918.392,176.987 926.516,198.66 " fill="none" id="HouseManager-to-Other" style="stroke:#A80036;stroke-width:1.0;"/><polygon fill="#A80036" points="928.27,203.383,928.8878,193.5535,926.5299,198.6956,921.3879,196.3377,928.27,203.383" style="stroke:#A80036;stroke-width:1.0;"/><text fill="#000000" font-family="sans-serif" font-size="13" lengthAdjust="spacing" textLength="24" x="899" y="131.0669">add</text><!--MD5=[e3500470f037d57108beebbffa6bd9ff]
@startuml
hide circle
class Administrator<actor> {
}
class HouseManager<actor> {
}
class House<actor> {
}
class HouseStaff<actor> {
}
class Lock {
	adddelete()
	add()
}
class Code {
	edit()
}
class Administrator {
	enter()
	add()
	lock()
	see()
	assign()
	create()
}
class Manager {
}
class Secret {
}
class locks {
	adddelete()
}
class Status {
}
class HouseManager {
	select()
	add()
	delete()
}
class Other {
}
class SmartThingsClientId {
}
class Hub {
}
class Group {
}
locks - -> Code : adddelete
Administrator - -> Manager : add
Administrator - -> Hub : see
HouseManager - -> Lock : select
Code - -> Code : edit
Administrator - -> Status : lock
Lock - -> Code : adddelete
Administrator - -> Code : assign
Administrator - -> Secret : enter
Lock - -> Lock : add
HouseManager - -> locks : delete
Administrator - -> Group : create
Lock - -> Code : add
Administrator - -> SmartThingsClientId : enter
HouseManager - -> Other : add
@enduml

PlantUML version 1.2021.6beta6(Unknown compile time)
(GPL source distribution)
Java Runtime: Java(TM) SE Runtime Environment
JVM: Java HotSpot(TM) 64-Bit Server VM
Default Encoding: UTF-8
Language: en
Country: US
--></g></svg>