<?xml version="1.0" encoding="UTF-8" standalone="no"?><svg xmlns="http://www.w3.org/2000/svg" xmlns:xlink="http://www.w3.org/1999/xlink" contentScriptType="application/ecmascript" contentStyleType="text/css" height="270px" preserveAspectRatio="none" style="width:1369px;height:270px;background:#FFFFFF;" version="1.1" viewBox="0 0 1369 270" width="1369px" zoomAndPan="magnify"><defs><filter height="300%" id="f1k26has4nhecd" width="300%" x="-1" y="-1"><feGaussianBlur result="blurOut" stdDeviation="2.0"/><feColorMatrix in="blurOut" result="blurOut2" type="matrix" values="0 0 0 0 0 0 0 0 0 0 0 0 0 0 0 0 0 0 .4 0"/><feOffset dx="4.0" dy="4.0" in="blurOut2" result="blurOut3"/><feBlend in="SourceGraphic" in2="blurOut3" mode="normal"/></filter></defs><g><!--MD5=[3b3e4d82bd72d9beea30453587036ffc]
class Scriptwriter--><rect codeLine="31" fill="#FEFECE" filter="url(#f1k26has4nhecd)" height="65.5781" id="Scriptwriter" style="stroke:#A80036;stroke-width:1.5;" width="111" x="7" y="42"/><text fill="#000000" font-family="sans-serif" font-size="12" lengthAdjust="spacing" textLength="70" x="10" y="58.1387">Scriptwriter</text><rect fill="#FFFFFF" height="15.9688" style="stroke:#000000;stroke-width:1.0;stroke-dasharray:2.0,2.0;" width="33" x="88" y="39"/><text fill="#000000" font-family="sans-serif" font-size="12" font-style="italic" lengthAdjust="spacing" textLength="31" x="89" y="51.1387">actor</text><line style="stroke:#A80036;stroke-width:1.5;" x1="8" x2="117" y1="65.9688" y2="65.9688"/><line style="stroke:#A80036;stroke-width:1.5;" x1="8" x2="117" y1="73.9688" y2="73.9688"/><text fill="#000000" font-family="sans-serif" font-size="11" lengthAdjust="spacing" textLength="27" x="13" y="88.1792">get()</text><text fill="#000000" font-family="sans-serif" font-size="11" lengthAdjust="spacing" textLength="51" x="13" y="100.9839">interact()</text><!--MD5=[3fd616f346a44cd59a91eb10b19e157c]
class User--><rect codeLine="8" fill="#FEFECE" filter="url(#f1k26has4nhecd)" height="129.6016" id="User" style="stroke:#A80036;stroke-width:1.5;" width="74" x="547.5" y="10"/><text fill="#000000" font-family="sans-serif" font-size="12" lengthAdjust="spacing" textLength="29" x="552.5" y="26.1387">User</text><rect fill="#FFFFFF" height="15.9688" style="stroke:#000000;stroke-width:1.0;stroke-dasharray:2.0,2.0;" width="33" x="591.5" y="7"/><text fill="#000000" font-family="sans-serif" font-size="12" font-style="italic" lengthAdjust="spacing" textLength="31" x="592.5" y="19.1387">actor</text><line style="stroke:#A80036;stroke-width:1.5;" x1="548.5" x2="620.5" y1="33.9688" y2="33.9688"/><line style="stroke:#A80036;stroke-width:1.5;" x1="548.5" x2="620.5" y1="41.9688" y2="41.9688"/><text fill="#000000" font-family="sans-serif" font-size="11" lengthAdjust="spacing" textLength="62" x="553.5" y="56.1792">comment()</text><text fill="#000000" font-family="sans-serif" font-size="11" lengthAdjust="spacing" textLength="28" x="553.5" y="68.9839">like()</text><text fill="#000000" font-family="sans-serif" font-size="11" lengthAdjust="spacing" textLength="25" x="553.5" y="81.7886">log()</text><text fill="#000000" font-family="sans-serif" font-size="11" lengthAdjust="spacing" textLength="40" x="553.5" y="94.5933">share()</text><text fill="#000000" font-family="sans-serif" font-size="11" lengthAdjust="spacing" textLength="35" x="553.5" y="107.3979">view()</text><text fill="#000000" font-family="sans-serif" font-size="11" lengthAdjust="spacing" textLength="38" x="553.5" y="120.2026">trend()</text><text fill="#000000" font-family="sans-serif" font-size="11" lengthAdjust="spacing" textLength="46" x="553.5" y="133.0073">search()</text><!--MD5=[db6d18d8099558415abc41d00477ab92]
class Admin--><rect codeLine="19" fill="#FEFECE" filter="url(#f1k26has4nhecd)" height="91.1875" id="Admin" style="stroke:#A80036;stroke-width:1.5;" width="78" x="1134.5" y="29.5"/><text fill="#000000" font-family="sans-serif" font-size="12" lengthAdjust="spacing" textLength="37" x="1137.5" y="45.6387">Admin</text><rect fill="#FFFFFF" height="15.9688" style="stroke:#000000;stroke-width:1.0;stroke-dasharray:2.0,2.0;" width="33" x="1182.5" y="26.5"/><text fill="#000000" font-family="sans-serif" font-size="12" font-style="italic" lengthAdjust="spacing" textLength="31" x="1183.5" y="38.6387">actor</text><line style="stroke:#A80036;stroke-width:1.5;" x1="1135.5" x2="1211.5" y1="53.4688" y2="53.4688"/><line style="stroke:#A80036;stroke-width:1.5;" x1="1135.5" x2="1211.5" y1="61.4688" y2="61.4688"/><text fill="#000000" font-family="sans-serif" font-size="11" lengthAdjust="spacing" textLength="36" x="1140.5" y="75.6792">save()</text><text fill="#000000" font-family="sans-serif" font-size="11" lengthAdjust="spacing" textLength="30" x="1140.5" y="88.4839">edit()</text><text fill="#000000" font-family="sans-serif" font-size="11" lengthAdjust="spacing" textLength="46" x="1140.5" y="101.2886">delete()</text><text fill="#000000" font-family="sans-serif" font-size="11" lengthAdjust="spacing" textLength="29" x="1140.5" y="114.0933">add()</text><!--MD5=[b54c7d21fd8318e5d779f63d9f32272f]
class BlogPost--><rect codeLine="17" fill="#FEFECE" filter="url(#f1k26has4nhecd)" height="39.9688" id="BlogPost" style="stroke:#A80036;stroke-width:1.5;" width="58" x="598.5" y="217"/><text fill="#000000" font-family="sans-serif" font-size="12" lengthAdjust="spacing" textLength="52" x="601.5" y="233.1387">BlogPost</text><line style="stroke:#A80036;stroke-width:1.5;" x1="599.5" x2="655.5" y1="240.9688" y2="240.9688"/><line style="stroke:#A80036;stroke-width:1.5;" x1="599.5" x2="655.5" y1="248.9688" y2="248.9688"/><!--MD5=[9fce796000a30cfb9f92e73bb002c25c]
class Draft--><rect codeLine="25" fill="#FEFECE" filter="url(#f1k26has4nhecd)" height="39.9688" id="Draft" style="stroke:#A80036;stroke-width:1.5;" width="35" x="1193" y="217"/><text fill="#000000" font-family="sans-serif" font-size="12" lengthAdjust="spacing" textLength="29" x="1196" y="233.1387">Draft</text><line style="stroke:#A80036;stroke-width:1.5;" x1="1194" x2="1227" y1="240.9688" y2="240.9688"/><line style="stroke:#A80036;stroke-width:1.5;" x1="1194" x2="1227" y1="248.9688" y2="248.9688"/><!--MD5=[9bb0bdd047fba1a3c8d48282c35b4537]
class Post--><rect codeLine="27" fill="#FEFECE" filter="url(#f1k26has4nhecd)" height="39.9688" id="Post" style="stroke:#A80036;stroke-width:1.5;" width="31" x="978" y="217"/><text fill="#000000" font-family="sans-serif" font-size="12" lengthAdjust="spacing" textLength="25" x="981" y="233.1387">Post</text><line style="stroke:#A80036;stroke-width:1.5;" x1="979" x2="1008" y1="240.9688" y2="240.9688"/><line style="stroke:#A80036;stroke-width:1.5;" x1="979" x2="1008" y1="248.9688" y2="248.9688"/><!--MD5=[a96594a83e2ecdc78cbf17c2ddf01934]
class Category--><rect codeLine="29" fill="#FEFECE" filter="url(#f1k26has4nhecd)" height="39.9688" id="Category" style="stroke:#A80036;stroke-width:1.5;" width="61" x="131" y="217"/><text fill="#000000" font-family="sans-serif" font-size="12" lengthAdjust="spacing" textLength="55" x="134" y="233.1387">Category</text><line style="stroke:#A80036;stroke-width:1.5;" x1="132" x2="191" y1="240.9688" y2="240.9688"/><line style="stroke:#A80036;stroke-width:1.5;" x1="132" x2="191" y1="248.9688" y2="248.9688"/><!--MD5=[3d94cde1b8dd8013fe18c9cc29f27ec9]
class Mediaplatform--><rect codeLine="35" fill="#FEFECE" filter="url(#f1k26has4nhecd)" height="39.9688" id="Mediaplatform" style="stroke:#A80036;stroke-width:1.5;" width="92" x="227.5" y="217"/><text fill="#000000" font-family="sans-serif" font-size="12" lengthAdjust="spacing" textLength="86" x="230.5" y="233.1387">Mediaplatform</text><line style="stroke:#A80036;stroke-width:1.5;" x1="228.5" x2="318.5" y1="240.9688" y2="240.9688"/><line style="stroke:#A80036;stroke-width:1.5;" x1="228.5" x2="318.5" y1="248.9688" y2="248.9688"/><!--MD5=[c3f280b58e8dd0683e81b8ec31306a35]
class Author--><rect codeLine="37" fill="#FEFECE" filter="url(#f1k26has4nhecd)" height="39.9688" id="Author" style="stroke:#A80036;stroke-width:1.5;" width="45" x="355" y="217"/><text fill="#000000" font-family="sans-serif" font-size="12" lengthAdjust="spacing" textLength="39" x="358" y="233.1387">Author</text><line style="stroke:#A80036;stroke-width:1.5;" x1="356" x2="399" y1="240.9688" y2="240.9688"/><line style="stroke:#A80036;stroke-width:1.5;" x1="356" x2="399" y1="248.9688" y2="248.9688"/><!--MD5=[29c783a7b47949fafcc2621bf440c783]
class Blogpost--><rect codeLine="39" fill="#FEFECE" filter="url(#f1k26has4nhecd)" height="39.9688" id="Blogpost" style="stroke:#A80036;stroke-width:1.5;" width="60" x="435.5" y="217"/><text fill="#000000" font-family="sans-serif" font-size="12" lengthAdjust="spacing" textLength="54" x="438.5" y="233.1387">Blogpost</text><line style="stroke:#A80036;stroke-width:1.5;" x1="436.5" x2="494.5" y1="240.9688" y2="240.9688"/><line style="stroke:#A80036;stroke-width:1.5;" x1="436.5" x2="494.5" y1="248.9688" y2="248.9688"/><!--MD5=[1a502b0dbedafd291c48f46ef8646183]
class Feedback--><rect codeLine="41" fill="#FEFECE" filter="url(#f1k26has4nhecd)" height="39.9688" id="Feedback" style="stroke:#A80036;stroke-width:1.5;" width="66" x="29.5" y="217"/><text fill="#000000" font-family="sans-serif" font-size="12" lengthAdjust="spacing" textLength="60" x="32.5" y="233.1387">Feedback</text><line style="stroke:#A80036;stroke-width:1.5;" x1="30.5" x2="94.5" y1="240.9688" y2="240.9688"/><line style="stroke:#A80036;stroke-width:1.5;" x1="30.5" x2="94.5" y1="248.9688" y2="248.9688"/><!--MD5=[dcee833d056c5d7af3e761670f78721f]
class UserComment--><rect codeLine="43" fill="#FEFECE" filter="url(#f1k26has4nhecd)" height="39.9688" id="UserComment" style="stroke:#A80036;stroke-width:1.5;" width="92" x="1263.5" y="217"/><text fill="#000000" font-family="sans-serif" font-size="12" lengthAdjust="spacing" textLength="86" x="1266.5" y="233.1387">UserComment</text><line style="stroke:#A80036;stroke-width:1.5;" x1="1264.5" x2="1354.5" y1="240.9688" y2="240.9688"/><line style="stroke:#A80036;stroke-width:1.5;" x1="1264.5" x2="1354.5" y1="248.9688" y2="248.9688"/><!--MD5=[0004528d1fd0f0ebdf90658bcc01e426]
link User to Category--><path codeLine="45" d="M547.397,88.443 C495.933,105.866 400.11,138.894 319.5,170 C277.115,186.3557 229.028,206.7043 197.152,220.4498 " fill="none" id="User-to-Category" style="stroke:#A80036;stroke-width:1.0;"/><polygon fill="#A80036" points="192.179,222.5975,202.0273,222.7005,196.769,220.6147,198.8548,215.3564,192.179,222.5975" style="stroke:#A80036;stroke-width:1.0;"/><text fill="#000000" font-family="sans-serif" font-size="13" lengthAdjust="spacing" textLength="30" x="320.5" y="183.0669">view</text><!--MD5=[ec63968621bc9d04d6621c1d3c27da9b]
link User to BlogPost--><path codeLine="46" d="M574.158,140.05 C573.921,155.834 575.717,172.3914 581.5,187 C585.338,196.6964 592.103,205.5947 599.283,213.0704 " fill="none" id="User-to-BlogPost" style="stroke:#A80036;stroke-width:1.0;"/><polygon fill="#A80036" points="602.831,216.6233,599.3031,207.428,599.2984,213.0848,593.6415,213.0802,602.831,216.6233" style="stroke:#A80036;stroke-width:1.0;"/><text fill="#000000" font-family="sans-serif" font-size="13" lengthAdjust="spacing" textLength="43" x="582.5" y="183.0669">search</text><!--MD5=[ec63968621bc9d04d6621c1d3c27da9b]
link User to BlogPost--><path codeLine="48" d="M620.548,140.065 C624.65,149.834 628.184,159.9993 630.5,170 C633.647,183.591 633.127,199.1652 631.713,211.7706 " fill="none" id="User-to-BlogPost-1" style="stroke:#A80036;stroke-width:1.0;"/><polygon fill="#A80036" points="631.061,216.9766,636.149,208.5438,631.6827,212.0154,628.2111,207.5491,631.061,216.9766" style="stroke:#A80036;stroke-width:1.0;"/><text fill="#000000" font-family="sans-serif" font-size="13" lengthAdjust="spacing" textLength="30" x="634.5" y="183.0669">view</text><!--MD5=[ec63968621bc9d04d6621c1d3c27da9b]
link User to BlogPost--><path codeLine="57" d="M621.937,103.75 C641.298,120.511 663.022,143.693 673.5,170 C679.729,185.6394 669.896,201.1826 657.744,213.2533 " fill="none" id="User-to-BlogPost-2" style="stroke:#A80036;stroke-width:1.0;"/><polygon fill="#A80036" points="653.913,216.8842,663.1965,213.5954,657.5417,213.4444,657.6928,207.7895,653.913,216.8842" style="stroke:#A80036;stroke-width:1.0;"/><text fill="#000000" font-family="sans-serif" font-size="13" lengthAdjust="spacing" textLength="62" x="676.5" y="183.0669">comment</text><!--MD5=[ec63968621bc9d04d6621c1d3c27da9b]
link User to BlogPost--><path codeLine="58" d="M547.386,131.634 C539.87,149.892 536.847,169.8779 546.5,187 C556.608,204.9283 576.209,217.0417 593.597,224.7391 " fill="none" id="User-to-BlogPost-3" style="stroke:#A80036;stroke-width:1.0;"/><polygon fill="#A80036" points="598.433,226.7942,591.7146,219.5926,593.8313,224.8385,588.5855,226.9553,598.433,226.7942" style="stroke:#A80036;stroke-width:1.0;"/><text fill="#000000" font-family="sans-serif" font-size="13" lengthAdjust="spacing" textLength="21" x="547.5" y="183.0669">like</text><!--MD5=[9d419e28e6a453de17836b09fd865dae]
link Admin to Post--><path codeLine="47" d="M1134.44,110.718 C1097.04,143.966 1042.13,192.7748 1013.12,218.5567 " fill="none" id="Admin-to-Post" style="stroke:#A80036;stroke-width:1.0;"/><polygon fill="#A80036" points="1009.38,221.8866,1018.7611,218.8874,1013.1137,218.561,1013.4401,212.9136,1009.38,221.8866" style="stroke:#A80036;stroke-width:1.0;"/><text fill="#000000" font-family="sans-serif" font-size="13" lengthAdjust="spacing" textLength="24" x="1067.5" y="183.0669">edit</text><!--MD5=[9d419e28e6a453de17836b09fd865dae]
link Admin to Post--><path codeLine="55" d="M1150.94,120.531 C1137.98,142.719 1119.99,168.6535 1098.5,187 C1073.18,208.6134 1036.72,222.7593 1014.1,230.0606 " fill="none" id="Admin-to-Post-1" style="stroke:#A80036;stroke-width:1.0;"/><polygon fill="#A80036" points="1009.22,231.6,1019.0055,232.7151,1013.9896,230.0997,1016.605,225.0837,1009.22,231.6" style="stroke:#A80036;stroke-width:1.0;"/><text fill="#000000" font-family="sans-serif" font-size="13" lengthAdjust="spacing" textLength="31" x="1114.5" y="183.0669">save</text><!--MD5=[77c575690b0287b9077f2f97ff7c450d]
link User to Post--><path codeLine="49" d="M621.625,85.16 C678.311,99.744 789.259,130.656 878.5,170 C913.255,185.3224 950.982,208.311 973.412,222.7184 " fill="none" id="User-to-Post" style="stroke:#A80036;stroke-width:1.0;"/><polygon fill="#A80036" points="977.688,225.4806,972.2981,217.2375,973.4879,222.7678,967.9576,223.9576,977.688,225.4806" style="stroke:#A80036;stroke-width:1.0;"/><text fill="#000000" font-family="sans-serif" font-size="13" lengthAdjust="spacing" textLength="34" x="911.5" y="183.0669">trend</text><!--MD5=[77c575690b0287b9077f2f97ff7c450d]
link User to Post--><path codeLine="54" d="M621.539,76.324 C692.993,78.752 851.86,93.11 954.5,170 C968.664,180.6104 978.636,198.0044 984.949,212.2725 " fill="none" id="User-to-Post-1" style="stroke:#A80036;stroke-width:1.0;"/><polygon fill="#A80036" points="986.951,216.9771,987.1077,207.1295,984.9932,212.3763,979.7464,210.2619,986.951,216.9771" style="stroke:#A80036;stroke-width:1.0;"/><text fill="#000000" font-family="sans-serif" font-size="13" lengthAdjust="spacing" textLength="36" x="970.5" y="183.0669">share</text><!--MD5=[77c575690b0287b9077f2f97ff7c450d]
link User to Post--><path codeLine="56" d="M621.856,93.812 C670.937,116.869 760.105,157.5731 838.5,187 C885.957,204.8137 943.12,221.7511 973.009,230.2731 " fill="none" id="User-to-Post-2" style="stroke:#A80036;stroke-width:1.0;"/><polygon fill="#A80036" points="977.915,231.6662,970.3498,225.36,973.1051,230.3005,968.1647,233.0558,977.915,231.6662" style="stroke:#A80036;stroke-width:1.0;"/><text fill="#000000" font-family="sans-serif" font-size="13" lengthAdjust="spacing" textLength="30" x="839.5" y="183.0669">view</text><!--MD5=[e8fc98514b668b02c2a4e20e8fd0b547]
link Admin to Draft--><path codeLine="50" d="M1183.81,120.569 C1190.63,150.092 1199.33,187.6836 1204.9,211.7989 " fill="none" id="Admin-to-Draft" style="stroke:#A80036;stroke-width:1.0;"/><polygon fill="#A80036" points="1206.04,216.7326,1207.9093,207.0628,1204.9134,211.8612,1200.115,208.8653,1206.04,216.7326" style="stroke:#A80036;stroke-width:1.0;"/><text fill="#000000" font-family="sans-serif" font-size="13" lengthAdjust="spacing" textLength="31" x="1199.5" y="183.0669">save</text><!--MD5=[a83e61acaefd7edf9b7418f062ec8667]
link Admin to UserComment--><path codeLine="51" d="M1211.38,120.569 C1236.79,150.463 1269.23,188.6286 1289.7,212.7006 " fill="none" id="Admin-to-UserComment" style="stroke:#A80036;stroke-width:1.0;"/><polygon fill="#A80036" points="1293.12,216.7326,1290.3445,207.2829,1289.884,212.921,1284.2459,212.4605,1293.12,216.7326" style="stroke:#A80036;stroke-width:1.0;"/><text fill="#000000" font-family="sans-serif" font-size="13" lengthAdjust="spacing" textLength="40" x="1266.5" y="183.0669">delete</text><!--MD5=[38ca8bec187d350c91b1c245cf05c770]
link User to Blogpost--><path codeLine="52" d="M547.301,114.166 C532.189,130.642 515.12,150.568 501.5,170 C492.159,183.3267 483.377,199.3286 476.826,212.2383 " fill="none" id="User-to-Blogpost" style="stroke:#A80036;stroke-width:1.0;"/><polygon fill="#A80036" points="474.516,216.8439,482.126,210.5919,476.7573,212.3744,474.9748,207.0057,474.516,216.8439" style="stroke:#A80036;stroke-width:1.0;"/><text fill="#000000" font-family="sans-serif" font-size="13" lengthAdjust="spacing" textLength="30" x="502.5" y="183.0669">view</text><!--MD5=[b1c2a8ebfe81506b1144419eccf18d85]
link User to Mediaplatform--><path codeLine="53" d="M547.396,92.635 C507.468,110.783 442.313,141.114 387.5,170 C360.946,183.9937 331.654,200.9869 309.412,214.2256 " fill="none" id="User-to-Mediaplatform" style="stroke:#A80036;stroke-width:1.0;"/><polygon fill="#A80036" points="305.061,216.8213,314.8395,215.6461,309.3551,214.2599,310.7412,208.7755,305.061,216.8213" style="stroke:#A80036;stroke-width:1.0;"/><text fill="#000000" font-family="sans-serif" font-size="13" lengthAdjust="spacing" textLength="36" x="388.5" y="183.0669">share</text><!--MD5=[3ee005b10afe37ab00bc601fe8c9dd91]
link Scriptwriter to Feedback--><path codeLine="59" d="M62.5,108.378 C62.5,138.854 62.5,183.8268 62.5,211.4469 " fill="none" id="Scriptwriter-to-Feedback" style="stroke:#A80036;stroke-width:1.0;"/><polygon fill="#A80036" points="62.5,216.7301,66.5,207.7301,62.5,211.7301,58.5,207.7301,62.5,216.7301" style="stroke:#A80036;stroke-width:1.0;"/><text fill="#000000" font-family="sans-serif" font-size="13" lengthAdjust="spacing" textLength="21" x="63.5" y="183.0669">get</text><!--MD5=[80870ddabf6599a91af89f508b53a6bc]
link User to Author--><path codeLine="60" d="M547.275,100.648 C520.146,119.007 482.816,145.099 451.5,170 C434.257,183.7107 415.762,200.206 401.575,213.276 " fill="none" id="User-to-Author" style="stroke:#A80036;stroke-width:1.0;"/><polygon fill="#A80036" points="397.693,216.8664,407.016,213.6914,401.3635,213.4712,401.5837,207.8186,397.693,216.8664" style="stroke:#A80036;stroke-width:1.0;"/><text fill="#000000" font-family="sans-serif" font-size="13" lengthAdjust="spacing" textLength="30" x="452.5" y="183.0669">view</text><!--MD5=[2cbbbb7c18312b56cc1443e3eb4fa5a1]
@startuml
hide circle
class Scriptwriter<actor> {
}
class User<actor> {
}
class Admin<actor> {
}
class User {
	comment()
	like()
	log()
	share()
	view()
	trend()
	search()
}
class BlogPost {
}
class Admin {
	save()
	edit()
	delete()
	add()
}
class Draft {
}
class Post {
}
class Category {
}
class Scriptwriter {
	get()
	interact()
}
class Mediaplatform {
}
class Author {
}
class Blogpost {
}
class Feedback {
}
class UserComment {
}
User - -> Category : view
User - -> BlogPost : search
Admin - -> Post : edit
User - -> BlogPost : view
User - -> Post : trend
Admin - -> Draft : save
Admin - -> UserComment : delete
User - -> Blogpost : view
User - -> Mediaplatform : share
User - -> Post : share
Admin - -> Post : save
User - -> Post : view
User - -> BlogPost : comment
User - -> BlogPost : like
Scriptwriter - -> Feedback : get
User - -> Author : view
@enduml

PlantUML version 1.2021.9beta2(Unknown compile time)
(GPL source distribution)
Java Runtime: Java(TM) SE Runtime Environment
JVM: Java HotSpot(TM) 64-Bit Server VM
Default Encoding: UTF-8
Language: en
Country: US
--></g></svg>