<?xml version="1.0" encoding="UTF-8" standalone="no"?><svg xmlns="http://www.w3.org/2000/svg" xmlns:xlink="http://www.w3.org/1999/xlink" contentScriptType="application/ecmascript" contentStyleType="text/css" height="413px" preserveAspectRatio="none" style="width:921px;height:413px;background:#FFFFFF;" version="1.1" viewBox="0 0 921 413" width="921px" zoomAndPan="magnify"><defs><filter height="300%" id="f1dn202j6bb2bp" width="300%" x="-1" y="-1"><feGaussianBlur result="blurOut" stdDeviation="2.0"/><feColorMatrix in="blurOut" result="blurOut2" type="matrix" values="0 0 0 0 0 0 0 0 0 0 0 0 0 0 0 0 0 0 .4 0"/><feOffset dx="4.0" dy="4.0" in="blurOut2" result="blurOut3"/><feBlend in="SourceGraphic" in2="blurOut3" mode="normal"/></filter></defs><g><!--MD5=[da547346deef918ea16944ba046651ef]
class Administrator--><rect codeLine="14" fill="#FEFECE" filter="url(#f1dn202j6bb2bp)" height="129.6016" id="Administrator" style="stroke:#A80036;stroke-width:1.5;" width="124" x="198" y="10"/><text fill="#000000" font-family="sans-serif" font-size="12" lengthAdjust="spacing" textLength="80" x="202.5" y="26.1387">Administrator</text><rect fill="#FFFFFF" height="15.9688" style="stroke:#000000;stroke-width:1.0;stroke-dasharray:2.0,2.0;" width="33" x="292" y="7"/><text fill="#000000" font-family="sans-serif" font-size="12" font-style="italic" lengthAdjust="spacing" textLength="31" x="293" y="19.1387">actor</text><line style="stroke:#A80036;stroke-width:1.5;" x1="199" x2="321" y1="33.9688" y2="33.9688"/><text fill="#000000" font-family="sans-serif" font-size="11" lengthAdjust="spacing" textLength="112" x="204" y="48.1792">smartThingsClientId</text><line style="stroke:#A80036;stroke-width:1.5;" x1="199" x2="321" y1="54.7734" y2="54.7734"/><text fill="#000000" font-family="sans-serif" font-size="11" lengthAdjust="spacing" textLength="33" x="204" y="68.9839">help()</text><text fill="#000000" font-family="sans-serif" font-size="11" lengthAdjust="spacing" textLength="39" x="204" y="81.7886">enter()</text><text fill="#000000" font-family="sans-serif" font-size="11" lengthAdjust="spacing" textLength="37" x="204" y="94.5933">allow()</text><text fill="#000000" font-family="sans-serif" font-size="11" lengthAdjust="spacing" textLength="29" x="204" y="107.3979">add()</text><text fill="#000000" font-family="sans-serif" font-size="11" lengthAdjust="spacing" textLength="45" x="204" y="120.2026">create()</text><text fill="#000000" font-family="sans-serif" font-size="11" lengthAdjust="spacing" textLength="46" x="204" y="133.0073">delete()</text><!--MD5=[8efdeb80806bcb4484b32c9018cd5511]
class HouseManager--><rect codeLine="39" fill="#FEFECE" filter="url(#f1dn202j6bb2bp)" height="39.9688" id="HouseManager" style="stroke:#A80036;stroke-width:1.5;" width="132" x="425" y="55"/><text fill="#000000" font-family="sans-serif" font-size="12" lengthAdjust="spacing" textLength="91" x="428" y="71.1387">HouseManager</text><rect fill="#FFFFFF" height="15.9688" style="stroke:#000000;stroke-width:1.0;stroke-dasharray:2.0,2.0;" width="33" x="527" y="52"/><text fill="#000000" font-family="sans-serif" font-size="12" font-style="italic" lengthAdjust="spacing" textLength="31" x="528" y="64.1387">actor</text><line style="stroke:#A80036;stroke-width:1.5;" x1="426" x2="556" y1="78.9688" y2="78.9688"/><line style="stroke:#A80036;stroke-width:1.5;" x1="426" x2="556" y1="86.9688" y2="86.9688"/><!--MD5=[9190320e8679ef06bbaf802ee6dd1bb7]
class HouseStaff--><rect codeLine="41" fill="#FEFECE" filter="url(#f1dn202j6bb2bp)" height="39.9688" id="HouseStaff" style="stroke:#A80036;stroke-width:1.5;" width="107" x="672.5" y="55"/><text fill="#000000" font-family="sans-serif" font-size="12" lengthAdjust="spacing" textLength="66" x="675.5" y="71.1387">HouseStaff</text><rect fill="#FFFFFF" height="15.9688" style="stroke:#000000;stroke-width:1.0;stroke-dasharray:2.0,2.0;" width="33" x="749.5" y="52"/><text fill="#000000" font-family="sans-serif" font-size="12" font-style="italic" lengthAdjust="spacing" textLength="31" x="750.5" y="64.1387">actor</text><line style="stroke:#A80036;stroke-width:1.5;" x1="673.5" x2="778.5" y1="78.9688" y2="78.9688"/><line style="stroke:#A80036;stroke-width:1.5;" x1="673.5" x2="778.5" y1="86.9688" y2="86.9688"/><!--MD5=[5005bba8c6d1dda988b0bcc8eba409f6]
class House--><rect codeLine="9" fill="#FEFECE" filter="url(#f1dn202j6bb2bp)" height="39.9688" id="House" style="stroke:#A80036;stroke-width:1.5;" width="45" x="592.5" y="55"/><text fill="#000000" font-family="sans-serif" font-size="12" lengthAdjust="spacing" textLength="39" x="595.5" y="71.1387">House</text><line style="stroke:#A80036;stroke-width:1.5;" x1="593.5" x2="636.5" y1="78.9688" y2="78.9688"/><line style="stroke:#A80036;stroke-width:1.5;" x1="593.5" x2="636.5" y1="86.9688" y2="86.9688"/><!--MD5=[6081a303407aa0c0464c8b50c38f5612]
class Staff--><rect codeLine="11" fill="#FEFECE" filter="url(#f1dn202j6bb2bp)" height="52.7734" id="Staff" style="stroke:#A80036;stroke-width:1.5;" width="42" x="677" y="223.5"/><text fill="#000000" font-family="sans-serif" font-size="12" lengthAdjust="spacing" textLength="27" x="684.5" y="239.6387">Staff</text><line style="stroke:#A80036;stroke-width:1.5;" x1="678" x2="718" y1="247.4688" y2="247.4688"/><line style="stroke:#A80036;stroke-width:1.5;" x1="678" x2="718" y1="255.4688" y2="255.4688"/><text fill="#000000" font-family="sans-serif" font-size="11" lengthAdjust="spacing" textLength="30" x="683" y="269.6792">see()</text><!--MD5=[5a5a8b3a661705821451d8f0afdb3b5f]
class Secret--><rect codeLine="22" fill="#FEFECE" filter="url(#f1dn202j6bb2bp)" height="52.7734" id="Secret" style="stroke:#A80036;stroke-width:1.5;" width="74" x="815" y="48.5"/><text fill="#000000" font-family="sans-serif" font-size="12" lengthAdjust="spacing" textLength="40" x="832" y="64.6387">Secret</text><line style="stroke:#A80036;stroke-width:1.5;" x1="816" x2="888" y1="72.4688" y2="72.4688"/><line style="stroke:#A80036;stroke-width:1.5;" x1="816" x2="888" y1="80.4688" y2="80.4688"/><text fill="#000000" font-family="sans-serif" font-size="11" lengthAdjust="spacing" textLength="62" x="821" y="94.6792">authorize()</text><!--MD5=[dab16d122782a892ddb6ee0eadcd68f0]
class Access--><rect codeLine="25" fill="#FEFECE" filter="url(#f1dn202j6bb2bp)" height="39.9688" id="Access" style="stroke:#A80036;stroke-width:1.5;" width="50" x="827" y="230"/><text fill="#000000" font-family="sans-serif" font-size="12" lengthAdjust="spacing" textLength="44" x="830" y="246.1387">Access</text><line style="stroke:#A80036;stroke-width:1.5;" x1="828" x2="876" y1="253.9688" y2="253.9688"/><line style="stroke:#A80036;stroke-width:1.5;" x1="828" x2="876" y1="261.9688" y2="261.9688"/><!--MD5=[b24ed8d4ae84bae9290d9aab401637c7]
class Manager--><rect codeLine="27" fill="#FEFECE" filter="url(#f1dn202j6bb2bp)" height="65.5781" id="Manager" style="stroke:#A80036;stroke-width:1.5;" width="58" x="452" y="217"/><text fill="#000000" font-family="sans-serif" font-size="12" lengthAdjust="spacing" textLength="52" x="455" y="233.1387">Manager</text><line style="stroke:#A80036;stroke-width:1.5;" x1="453" x2="509" y1="240.9688" y2="240.9688"/><line style="stroke:#A80036;stroke-width:1.5;" x1="453" x2="509" y1="248.9688" y2="248.9688"/><text fill="#000000" font-family="sans-serif" font-size="11" lengthAdjust="spacing" textLength="29" x="458" y="263.1792">add()</text><text fill="#000000" font-family="sans-serif" font-size="11" lengthAdjust="spacing" textLength="43" x="458" y="275.9839">select()</text><!--MD5=[05bef9715505055a435a5b60deea392b]
class Lock--><rect codeLine="31" fill="#FEFECE" filter="url(#f1dn202j6bb2bp)" height="39.9688" id="Lock" style="stroke:#A80036;stroke-width:1.5;" width="34" x="337" y="360"/><text fill="#000000" font-family="sans-serif" font-size="12" lengthAdjust="spacing" textLength="28" x="340" y="376.1387">Lock</text><line style="stroke:#A80036;stroke-width:1.5;" x1="338" x2="370" y1="383.9688" y2="383.9688"/><line style="stroke:#A80036;stroke-width:1.5;" x1="338" x2="370" y1="391.9688" y2="391.9688"/><!--MD5=[ba580110b1777f63e0f1dfe3fcefdac0]
class Code--><rect codeLine="33" fill="#FEFECE" filter="url(#f1dn202j6bb2bp)" height="39.9688" id="Code" style="stroke:#A80036;stroke-width:1.5;" width="38" x="370" y="230"/><text fill="#000000" font-family="sans-serif" font-size="12" lengthAdjust="spacing" textLength="32" x="373" y="246.1387">Code</text><line style="stroke:#A80036;stroke-width:1.5;" x1="371" x2="407" y1="253.9688" y2="253.9688"/><line style="stroke:#A80036;stroke-width:1.5;" x1="371" x2="407" y1="261.9688" y2="261.9688"/><!--MD5=[41314a0efc36828092cff9ebad2fcafd]
class Group--><rect codeLine="35" fill="#FEFECE" filter="url(#f1dn202j6bb2bp)" height="39.9688" id="Group" style="stroke:#A80036;stroke-width:1.5;" width="43" x="172.5" y="230"/><text fill="#000000" font-family="sans-serif" font-size="12" lengthAdjust="spacing" textLength="37" x="175.5" y="246.1387">Group</text><line style="stroke:#A80036;stroke-width:1.5;" x1="173.5" x2="214.5" y1="253.9688" y2="253.9688"/><line style="stroke:#A80036;stroke-width:1.5;" x1="173.5" x2="214.5" y1="261.9688" y2="261.9688"/><!--MD5=[02aa40bb5c87b8142412beed1297aa29]
class SmartThingsClientId--><rect codeLine="37" fill="#FEFECE" filter="url(#f1dn202j6bb2bp)" height="39.9688" id="SmartThingsClientId" style="stroke:#A80036;stroke-width:1.5;" width="124" x="7" y="230"/><text fill="#000000" font-family="sans-serif" font-size="12" lengthAdjust="spacing" textLength="118" x="10" y="246.1387">SmartThingsClientId</text><line style="stroke:#A80036;stroke-width:1.5;" x1="8" x2="130" y1="253.9688" y2="253.9688"/><line style="stroke:#A80036;stroke-width:1.5;" x1="8" x2="130" y1="261.9688" y2="261.9688"/><!--MD5=[bc393ba6385e62778a0f601524087b7d]
link Administrator to Group--><path codeLine="43" d="M235.424,140.419 C224.18,169.892 211.538,203.03 203.21,224.859 " fill="none" id="Administrator-to-Group" style="stroke:#A80036;stroke-width:1.0;"/><polygon fill="#A80036" points="201.397,229.611,208.3413,222.627,203.1786,224.9392,200.8664,219.7764,201.397,229.611" style="stroke:#A80036;stroke-width:1.0;"/><text fill="#000000" font-family="sans-serif" font-size="13" lengthAdjust="spacing" textLength="40" x="225" y="183.0669">delete</text><!--MD5=[bc393ba6385e62778a0f601524087b7d]
link Administrator to Group--><path codeLine="51" d="M197.905,126.332 C186.128,139.213 175.477,153.998 169,170 C161.663,188.127 169.167,209.278 177.82,225.131 " fill="none" id="Administrator-to-Group-1" style="stroke:#A80036;stroke-width:1.0;"/><polygon fill="#A80036" points="180.527,229.871,179.5385,220.0719,178.048,225.5288,172.5911,224.0383,180.527,229.871" style="stroke:#A80036;stroke-width:1.0;"/><text fill="#000000" font-family="sans-serif" font-size="13" lengthAdjust="spacing" textLength="41" x="170" y="183.0669">create</text><!--MD5=[096486b83a3524d50835d5f55f9e2aa7]
link Administrator to Lock--><path codeLine="44" d="M272.198,140.332 C280.849,181.666 293.788,236.187 310,283 C318.794,308.3938 331.943,336.1805 341.576,355.2948 " fill="none" id="Administrator-to-Lock" style="stroke:#A80036;stroke-width:1.0;"/><polygon fill="#A80036" points="343.945,359.9608,343.438,350.125,341.6818,355.5023,336.3044,353.7462,343.945,359.9608" style="stroke:#A80036;stroke-width:1.0;"/><text fill="#000000" font-family="sans-serif" font-size="13" lengthAdjust="spacing" textLength="40" x="311" y="254.5669">delete</text><!--MD5=[64d713fdb760e3b6b59069371d93ba85]
link Administrator to Manager--><path codeLine="45" d="M322.184,123.027 C341.73,137.941 363.339,154.567 383,170 C404.735,187.061 428.906,206.54 447.804,221.887 " fill="none" id="Administrator-to-Manager" style="stroke:#A80036;stroke-width:1.0;"/><polygon fill="#A80036" points="451.999,225.295,447.5368,216.515,448.1186,222.1418,442.4917,222.7236,451.999,225.295" style="stroke:#A80036;stroke-width:1.0;"/><text fill="#000000" font-family="sans-serif" font-size="13" lengthAdjust="spacing" textLength="40" x="403" y="183.0669">delete</text><!--MD5=[862d097795bcbb71a890de29c38deb54]
link Secret to Access--><path codeLine="46" d="M852,101.527 C852,134.579 852,191.797 852,224.393 " fill="none" id="Secret-to-Access" style="stroke:#A80036;stroke-width:1.0;"/><polygon fill="#A80036" points="852,229.794,856,220.794,852,224.794,848,220.794,852,229.794" style="stroke:#A80036;stroke-width:1.0;"/><text fill="#000000" font-family="sans-serif" font-size="13" lengthAdjust="spacing" textLength="60" x="853" y="183.0669">authorize</text><!--MD5=[b84176fe31666ae92de69a04e3eb5d36]
reverse link Administrator to SmartThingsClientId--><path codeLine="47" d="M187.026,118.792 C165.124,133.486 141.915,151.052 123,170 C104.9251,188.107 89.0551,213.017 79.2783,229.993 " fill="none" id="Administrator-backto-SmartThingsClientId" style="stroke:#A80036;stroke-width:1.0;"/><polygon fill="#FFFFFF" points="197.988,111.598,190.7771,111.5466,187.9562,118.183,195.1671,118.2345,197.988,111.598" style="stroke:#A80036;stroke-width:1.0;"/><text fill="#000000" font-family="sans-serif" font-size="13" lengthAdjust="spacing" textLength="34" x="124" y="183.0669">enter</text><!--MD5=[4a975ec18d4cd3a03a08d214eac2ddbe]
link Administrator to Code--><path codeLine="48" d="M308.035,140.419 C330.197,170.14 355.138,203.588 371.408,225.407 " fill="none" id="Administrator-to-Code" style="stroke:#A80036;stroke-width:1.0;"/><polygon fill="#A80036" points="374.543,229.611,372.3704,220.0048,371.5544,225.6024,365.9567,224.7864,374.543,229.611" style="stroke:#A80036;stroke-width:1.0;"/><text fill="#000000" font-family="sans-serif" font-size="13" lengthAdjust="spacing" textLength="33" x="341" y="183.0669">allow</text><!--MD5=[e119789132ef2375bca3365278cef9f3]
reverse link HouseManager to Manager--><path codeLine="49" d="M488.712,115.587 C486.939,146.249 484.515,188.186 482.861,216.805 " fill="none" id="HouseManager-backto-Manager" style="stroke:#A80036;stroke-width:1.0;"/><polygon fill="none" points="481.749,114.738,489.892,95.175,495.726,115.546,481.749,114.738" style="stroke:#A80036;stroke-width:1.0;"/><!--MD5=[a82433830ddbdff5e11774983504ce2f]
reverse link House to Staff--><path codeLine="50" d="M630.029,107.324 C645.964,140.538 670.836,192.382 685.664,223.288 " fill="none" id="House-backto-Staff" style="stroke:#A80036;stroke-width:1.0;"/><polygon fill="#FFFFFF" points="624.2,95.175,623.1889,102.3149,629.3907,105.9943,630.4018,98.8544,624.2,95.175" style="stroke:#A80036;stroke-width:1.0;"/><!--MD5=[5f85c352d7816d202e9373ff0fcdc1d6]
reverse link HouseStaff to Staff--><path codeLine="52" d="M719.669,115.119 C714.311,148.219 706.787,194.707 702.161,223.288 " fill="none" id="HouseStaff-backto-Staff" style="stroke:#A80036;stroke-width:1.0;"/><polygon fill="none" points="712.791,113.8,722.897,95.175,726.611,116.037,712.791,113.8" style="stroke:#A80036;stroke-width:1.0;"/><!--MD5=[a0a89227041f401e81e6dd78e7ec71a1]
link Manager to Lock--><path codeLine="53" d="M451.864,280.366 C428.424,303.9903 396.044,336.6248 375.063,357.7712 " fill="none" id="Manager-to-Lock" style="stroke:#A80036;stroke-width:1.0;"/><polygon fill="#A80036" points="371.283,361.5812,380.4612,358.0089,374.8044,358.0316,374.7817,352.3747,371.283,361.5812" style="stroke:#A80036;stroke-width:1.0;"/><text fill="#000000" font-family="sans-serif" font-size="13" lengthAdjust="spacing" textLength="38" x="419" y="326.0669">select</text><!--MD5=[f87abe0939b41e8a9ebb88a695b3ae98]
reverse link House to Manager--><path codeLine="54" d="M596.761,106.327 C589.932,117.169 581.908,129.336 574,140 C553.997,166.975 529.229,195.812 510.283,217.045 " fill="none" id="House-backto-Manager" style="stroke:#A80036;stroke-width:1.0;"/><polygon fill="#FFFFFF" points="603.639,95.217,597.0799,98.2133,597.3229,105.4203,603.8821,102.424,603.639,95.217" style="stroke:#A80036;stroke-width:1.0;"/><!--MD5=[cea1c34027eb51f97bdbc88cc56ebc2f]
@startuml
hide circle
class Administrator<actor> {
	smartThingsClientId
}
class HouseManager<actor> {
}
class HouseStaff<actor> {
}
class House {
}
class Staff {
	see()
}
class Administrator {
	help()
	enter()
	allow()
	add()
	create()
	delete()
}
class Secret {
	authorize()
}
class Access {
}
class Manager {
	add()
	select()
}
class Lock {
}
class Code {
}
class Group {
}
class SmartThingsClientId {
}
class HouseManager {
}
class HouseStaff {
}
Administrator - -> Group : delete
Administrator - -> Lock : delete
Administrator - -> Manager : delete
Secret - -> Access : authorize
Administrator o- - SmartThingsClientId : enter
Administrator - -> Code : allow
HouseManager <|- - Manager
House o- - Staff
Administrator - -> Group : create
HouseStaff <|- - Staff
Manager - -> Lock : select
House o- - Manager
@enduml

PlantUML version 1.2021.10beta2(Unknown compile time)
(GPL source distribution)
Java Runtime: Java(TM) SE Runtime Environment
JVM: Java HotSpot(TM) 64-Bit Server VM
Default Encoding: UTF-8
Language: en
Country: US
--></g></svg>