<?xml version="1.0" encoding="UTF-8" standalone="no"?><svg xmlns="http://www.w3.org/2000/svg" xmlns:xlink="http://www.w3.org/1999/xlink" contentScriptType="application/ecmascript" contentStyleType="text/css" height="524px" preserveAspectRatio="none" style="width:2186px;height:524px;background:#FFFFFF;" version="1.1" viewBox="0 0 2186 524" width="2186px" zoomAndPan="magnify"><defs><filter height="300%" id="fdavsq0e2ool8" width="300%" x="-1" y="-1"><feGaussianBlur result="blurOut" stdDeviation="2.0"/><feColorMatrix in="blurOut" result="blurOut2" type="matrix" values="0 0 0 0 0 0 0 0 0 0 0 0 0 0 0 0 0 0 .4 0"/><feOffset dx="4.0" dy="4.0" in="blurOut2" result="blurOut3"/><feBlend in="SourceGraphic" in2="blurOut3" mode="normal"/></filter></defs><g><!--MD5=[3fd616f346a44cd59a91eb10b19e157c]
class User--><rect codeLine="26" fill="#FEFECE" filter="url(#fdavsq0e2ool8)" height="103.9922" id="User" style="stroke:#A80036;stroke-width:1.5;" width="76" x="18" y="258"/><text fill="#000000" font-family="sans-serif" font-size="12" lengthAdjust="spacing" textLength="29" x="24" y="274.1387">User</text><rect fill="#FFFFFF" height="15.9688" style="stroke:#000000;stroke-width:1.0;stroke-dasharray:2.0,2.0;" width="33" x="64" y="255"/><text fill="#000000" font-family="sans-serif" font-size="12" font-style="italic" lengthAdjust="spacing" textLength="31" x="65" y="267.1387">actor</text><line style="stroke:#A80036;stroke-width:1.5;" x1="19" x2="93" y1="281.9688" y2="281.9688"/><text fill="#000000" font-family="sans-serif" font-size="11" lengthAdjust="spacing" textLength="16" x="24" y="296.1792">kid</text><text fill="#000000" font-family="sans-serif" font-size="11" lengthAdjust="spacing" textLength="52" x="24" y="308.9839">swimmer</text><text fill="#000000" font-family="sans-serif" font-size="11" lengthAdjust="spacing" textLength="64" x="24" y="321.7886">information</text><line style="stroke:#A80036;stroke-width:1.5;" x1="19" x2="93" y1="328.3828" y2="328.3828"/><text fill="#000000" font-family="sans-serif" font-size="11" lengthAdjust="spacing" textLength="48" x="24" y="342.5933">expect()</text><text fill="#000000" font-family="sans-serif" font-size="11" lengthAdjust="spacing" textLength="30" x="24" y="355.3979">see()</text><!--MD5=[d342058c8fb6f80e9d50d673c6908241]
class Developer--><rect codeLine="65" fill="#FEFECE" filter="url(#fdavsq0e2ool8)" height="52.7734" id="Developer" style="stroke:#A80036;stroke-width:1.5;" width="105" x="1714.5" y="283.5"/><text fill="#000000" font-family="sans-serif" font-size="12" lengthAdjust="spacing" textLength="64" x="1717.5" y="299.6387">Developer</text><rect fill="#FFFFFF" height="15.9688" style="stroke:#000000;stroke-width:1.0;stroke-dasharray:2.0,2.0;" width="33" x="1789.5" y="280.5"/><text fill="#000000" font-family="sans-serif" font-size="12" font-style="italic" lengthAdjust="spacing" textLength="31" x="1790.5" y="292.6387">actor</text><line style="stroke:#A80036;stroke-width:1.5;" x1="1715.5" x2="1818.5" y1="307.4688" y2="307.4688"/><line style="stroke:#A80036;stroke-width:1.5;" x1="1715.5" x2="1818.5" y1="315.4688" y2="315.4688"/><text fill="#000000" font-family="sans-serif" font-size="11" lengthAdjust="spacing" textLength="37" x="1720.5" y="329.6792">have()</text><!--MD5=[cf9bc73d4b319b8f5d50999aecc13d13]
class Parent--><rect codeLine="32" fill="#FEFECE" filter="url(#fdavsq0e2ool8)" height="142.4063" id="Parent" style="stroke:#A80036;stroke-width:1.5;" width="78" x="522" y="239"/><text fill="#000000" font-family="sans-serif" font-size="12" lengthAdjust="spacing" textLength="37" x="525" y="255.1387">Parent</text><rect fill="#FFFFFF" height="15.9688" style="stroke:#000000;stroke-width:1.0;stroke-dasharray:2.0,2.0;" width="33" x="570" y="236"/><text fill="#000000" font-family="sans-serif" font-size="12" font-style="italic" lengthAdjust="spacing" textLength="31" x="571" y="248.1387">actor</text><line style="stroke:#A80036;stroke-width:1.5;" x1="523" x2="599" y1="262.9688" y2="262.9688"/><text fill="#000000" font-family="sans-serif" font-size="11" lengthAdjust="spacing" textLength="16" x="528" y="277.1792">kid</text><text fill="#000000" font-family="sans-serif" font-size="11" lengthAdjust="spacing" textLength="44" x="528" y="289.9839">account</text><text fill="#000000" font-family="sans-serif" font-size="11" lengthAdjust="spacing" textLength="61" x="528" y="302.7886">kidAccount</text><line style="stroke:#A80036;stroke-width:1.5;" x1="523" x2="599" y1="309.3828" y2="309.3828"/><text fill="#000000" font-family="sans-serif" font-size="11" lengthAdjust="spacing" textLength="30" x="528" y="323.5933">see()</text><text fill="#000000" font-family="sans-serif" font-size="11" lengthAdjust="spacing" textLength="30" x="528" y="336.3979">edit()</text><text fill="#000000" font-family="sans-serif" font-size="11" lengthAdjust="spacing" textLength="31" x="528" y="349.2026">sign()</text><text fill="#000000" font-family="sans-serif" font-size="11" lengthAdjust="spacing" textLength="35" x="528" y="362.0073">login()</text><text fill="#000000" font-family="sans-serif" font-size="11" lengthAdjust="spacing" textLength="35" x="528" y="374.812">view()</text><!--MD5=[c3ac0beb173c135b247cb6ed26f9fd5b]
class Treasurer--><rect codeLine="23" fill="#FEFECE" filter="url(#fdavsq0e2ool8)" height="52.7734" id="Treasurer" style="stroke:#A80036;stroke-width:1.5;" width="100" x="1833" y="58"/><text fill="#000000" font-family="sans-serif" font-size="12" lengthAdjust="spacing" textLength="59" x="1836" y="74.1387">Treasurer</text><rect fill="#FFFFFF" height="15.9688" style="stroke:#000000;stroke-width:1.0;stroke-dasharray:2.0,2.0;" width="33" x="1903" y="55"/><text fill="#000000" font-family="sans-serif" font-size="12" font-style="italic" lengthAdjust="spacing" textLength="31" x="1904" y="67.1387">actor</text><line style="stroke:#A80036;stroke-width:1.5;" x1="1834" x2="1932" y1="81.9688" y2="81.9688"/><line style="stroke:#A80036;stroke-width:1.5;" x1="1834" x2="1932" y1="89.9688" y2="89.9688"/><text fill="#000000" font-family="sans-serif" font-size="11" lengthAdjust="spacing" textLength="30" x="1839" y="104.1792">see()</text><!--MD5=[15c6922f6693225acd2805a9f7199676]
class Maintainer--><rect codeLine="52" fill="#FEFECE" filter="url(#fdavsq0e2ool8)" height="116.7969" id="Maintainer" style="stroke:#A80036;stroke-width:1.5;" width="102" x="970" y="251.5"/><text fill="#000000" font-family="sans-serif" font-size="12" lengthAdjust="spacing" textLength="61" x="973" y="267.6387">Maintainer</text><rect fill="#FFFFFF" height="15.9688" style="stroke:#000000;stroke-width:1.0;stroke-dasharray:2.0,2.0;" width="33" x="1042" y="248.5"/><text fill="#000000" font-family="sans-serif" font-size="12" font-style="italic" lengthAdjust="spacing" textLength="31" x="1043" y="260.6387">actor</text><line style="stroke:#A80036;stroke-width:1.5;" x1="971" x2="1071" y1="275.4688" y2="275.4688"/><line style="stroke:#A80036;stroke-width:1.5;" x1="971" x2="1071" y1="283.4688" y2="283.4688"/><text fill="#000000" font-family="sans-serif" font-size="11" lengthAdjust="spacing" textLength="30" x="976" y="297.6792">see()</text><text fill="#000000" font-family="sans-serif" font-size="11" lengthAdjust="spacing" textLength="47" x="976" y="310.4839">modify()</text><text fill="#000000" font-family="sans-serif" font-size="11" lengthAdjust="spacing" textLength="46" x="976" y="323.2886">delete()</text><text fill="#000000" font-family="sans-serif" font-size="11" lengthAdjust="spacing" textLength="37" x="976" y="336.0933">have()</text><text fill="#000000" font-family="sans-serif" font-size="11" lengthAdjust="spacing" textLength="47" x="976" y="348.8979">access()</text><text fill="#000000" font-family="sans-serif" font-size="11" lengthAdjust="spacing" textLength="40" x="976" y="361.7026">insert()</text><!--MD5=[4741ae9b66e8c8909830097dcbdef570]
class Head--><rect codeLine="79" fill="#FEFECE" filter="url(#fdavsq0e2ool8)" height="52.7734" id="Head" style="stroke:#A80036;stroke-width:1.5;" width="73" x="2001.5" y="58"/><text fill="#000000" font-family="sans-serif" font-size="12" lengthAdjust="spacing" textLength="32" x="2004.5" y="74.1387">Head</text><rect fill="#FFFFFF" height="15.9688" style="stroke:#000000;stroke-width:1.0;stroke-dasharray:2.0,2.0;" width="33" x="2044.5" y="55"/><text fill="#000000" font-family="sans-serif" font-size="12" font-style="italic" lengthAdjust="spacing" textLength="31" x="2045.5" y="67.1387">actor</text><line style="stroke:#A80036;stroke-width:1.5;" x1="2002.5" x2="2073.5" y1="81.9688" y2="81.9688"/><line style="stroke:#A80036;stroke-width:1.5;" x1="2002.5" x2="2073.5" y1="89.9688" y2="89.9688"/><text fill="#000000" font-family="sans-serif" font-size="11" lengthAdjust="spacing" textLength="61" x="2007.5" y="104.1792">generate()</text><!--MD5=[3ec2cd5dff9098f19300dc116133bc22]
class Kid--><rect codeLine="20" fill="#FEFECE" filter="url(#fdavsq0e2ool8)" height="52.7734" id="Kid" style="stroke:#A80036;stroke-width:1.5;" width="56" x="924" y="458"/><text fill="#000000" font-family="sans-serif" font-size="12" lengthAdjust="spacing" textLength="19" x="942.5" y="474.1387">Kid</text><line style="stroke:#A80036;stroke-width:1.5;" x1="925" x2="979" y1="481.9688" y2="481.9688"/><text fill="#000000" font-family="sans-serif" font-size="11" lengthAdjust="spacing" textLength="44" x="930" y="496.1792">account</text><line style="stroke:#A80036;stroke-width:1.5;" x1="925" x2="979" y1="502.7734" y2="502.7734"/><!--MD5=[30fd7b95ab383a5e7c83ea23d4ea0fbf]
class Information--><rect codeLine="30" fill="#FEFECE" filter="url(#fdavsq0e2ool8)" height="39.9688" id="Information" style="stroke:#A80036;stroke-width:1.5;" width="73" x="127.5" y="464.5"/><text fill="#000000" font-family="sans-serif" font-size="12" lengthAdjust="spacing" textLength="67" x="130.5" y="480.6387">Information</text><line style="stroke:#A80036;stroke-width:1.5;" x1="128.5" x2="199.5" y1="488.4688" y2="488.4688"/><line style="stroke:#A80036;stroke-width:1.5;" x1="128.5" x2="199.5" y1="496.4688" y2="496.4688"/><!--MD5=[ac13618b1a974308c1f12eb6c57723dc]
class Event--><rect codeLine="39" fill="#FEFECE" filter="url(#fdavsq0e2ool8)" height="39.9688" id="Event" style="stroke:#A80036;stroke-width:1.5;" width="39" x="685.5" y="464.5"/><text fill="#000000" font-family="sans-serif" font-size="12" lengthAdjust="spacing" textLength="33" x="688.5" y="480.6387">Event</text><line style="stroke:#A80036;stroke-width:1.5;" x1="686.5" x2="723.5" y1="488.4688" y2="488.4688"/><line style="stroke:#A80036;stroke-width:1.5;" x1="686.5" x2="723.5" y1="496.4688" y2="496.4688"/><!--MD5=[fd8f06804651a767af6d5ee4693cdfe7]
class Coach--><rect codeLine="41" fill="#FEFECE" filter="url(#fdavsq0e2ool8)" height="155.2109" id="Coach" style="stroke:#A80036;stroke-width:1.5;" width="74" x="1231" y="7"/><text fill="#000000" font-family="sans-serif" font-size="12" lengthAdjust="spacing" textLength="37" x="1249.5" y="23.1387">Coach</text><line style="stroke:#A80036;stroke-width:1.5;" x1="1232" x2="1304" y1="30.9688" y2="30.9688"/><line style="stroke:#A80036;stroke-width:1.5;" x1="1232" x2="1304" y1="38.9688" y2="38.9688"/><text fill="#000000" font-family="sans-serif" font-size="11" lengthAdjust="spacing" textLength="62" x="1237" y="53.1792">overwrite()</text><text fill="#000000" font-family="sans-serif" font-size="11" lengthAdjust="spacing" textLength="47" x="1237" y="65.9839">review()</text><text fill="#000000" font-family="sans-serif" font-size="11" lengthAdjust="spacing" textLength="48" x="1237" y="78.7886">extract()</text><text fill="#000000" font-family="sans-serif" font-size="11" lengthAdjust="spacing" textLength="26" x="1237" y="91.5933">set()</text><text fill="#000000" font-family="sans-serif" font-size="11" lengthAdjust="spacing" textLength="30" x="1237" y="104.3979">edit()</text><text fill="#000000" font-family="sans-serif" font-size="11" lengthAdjust="spacing" textLength="47" x="1237" y="117.2026">modify()</text><text fill="#000000" font-family="sans-serif" font-size="11" lengthAdjust="spacing" textLength="38" x="1237" y="130.0073">close()</text><text fill="#000000" font-family="sans-serif" font-size="11" lengthAdjust="spacing" textLength="48" x="1237" y="142.812">expect()</text><text fill="#000000" font-family="sans-serif" font-size="11" lengthAdjust="spacing" textLength="46" x="1237" y="155.6167">upload()</text><!--MD5=[ed3afe56f065d25b4329669e73deaf58]
class Database--><rect codeLine="60" fill="#FEFECE" filter="url(#fdavsq0e2ool8)" height="39.9688" id="Database" style="stroke:#A80036;stroke-width:1.5;" width="63" x="1472.5" y="464.5"/><text fill="#000000" font-family="sans-serif" font-size="12" lengthAdjust="spacing" textLength="57" x="1475.5" y="480.6387">Database</text><line style="stroke:#A80036;stroke-width:1.5;" x1="1473.5" x2="1534.5" y1="488.4688" y2="488.4688"/><line style="stroke:#A80036;stroke-width:1.5;" x1="1473.5" x2="1534.5" y1="496.4688" y2="496.4688"/><!--MD5=[2770d511fa22a6a61bb54ccdb4cbf396]
class Amount--><rect codeLine="62" fill="#FEFECE" filter="url(#fdavsq0e2ool8)" height="52.7734" id="Amount" style="stroke:#A80036;stroke-width:1.5;" width="57" x="1854.5" y="283.5"/><text fill="#000000" font-family="sans-serif" font-size="12" lengthAdjust="spacing" textLength="45" x="1860.5" y="299.6387">Amount</text><line style="stroke:#A80036;stroke-width:1.5;" x1="1855.5" x2="1910.5" y1="307.4688" y2="307.4688"/><line style="stroke:#A80036;stroke-width:1.5;" x1="1855.5" x2="1910.5" y1="315.4688" y2="315.4688"/><text fill="#000000" font-family="sans-serif" font-size="11" lengthAdjust="spacing" textLength="45" x="1860.5" y="329.6792">collect()</text><!--MD5=[7829b64950ce38e0487c4015ea331f97]
class Date--><rect codeLine="68" fill="#FEFECE" filter="url(#fdavsq0e2ool8)" height="39.9688" id="Date" style="stroke:#A80036;stroke-width:1.5;" width="34" x="1750" y="464.5"/><text fill="#000000" font-family="sans-serif" font-size="12" lengthAdjust="spacing" textLength="28" x="1753" y="480.6387">Date</text><line style="stroke:#A80036;stroke-width:1.5;" x1="1751" x2="1783" y1="488.4688" y2="488.4688"/><line style="stroke:#A80036;stroke-width:1.5;" x1="1751" x2="1783" y1="496.4688" y2="496.4688"/><!--MD5=[dab16d122782a892ddb6ee0eadcd68f0]
class Access--><rect codeLine="70" fill="#FEFECE" filter="url(#fdavsq0e2ool8)" height="39.9688" id="Access" style="stroke:#A80036;stroke-width:1.5;" width="50" x="1386" y="464.5"/><text fill="#000000" font-family="sans-serif" font-size="12" lengthAdjust="spacing" textLength="44" x="1389" y="480.6387">Access</text><line style="stroke:#A80036;stroke-width:1.5;" x1="1387" x2="1435" y1="488.4688" y2="488.4688"/><line style="stroke:#A80036;stroke-width:1.5;" x1="1387" x2="1435" y1="496.4688" y2="496.4688"/><!--MD5=[83d119058829b29a891015d9970ea593]
class Something--><rect codeLine="72" fill="#FEFECE" filter="url(#fdavsq0e2ool8)" height="39.9688" id="Something" style="stroke:#A80036;stroke-width:1.5;" width="70" x="1107" y="290"/><text fill="#000000" font-family="sans-serif" font-size="12" lengthAdjust="spacing" textLength="64" x="1110" y="306.1387">Something</text><line style="stroke:#A80036;stroke-width:1.5;" x1="1108" x2="1176" y1="313.9688" y2="313.9688"/><line style="stroke:#A80036;stroke-width:1.5;" x1="1108" x2="1176" y1="321.9688" y2="321.9688"/><!--MD5=[678ba86161b65c93147b2a3a8cf02be2]
class Frame--><rect codeLine="74" fill="#FEFECE" filter="url(#fdavsq0e2ool8)" height="39.9688" id="Frame" style="stroke:#A80036;stroke-width:1.5;" width="44" x="1212" y="290"/><text fill="#000000" font-family="sans-serif" font-size="12" lengthAdjust="spacing" textLength="38" x="1215" y="306.1387">Frame</text><line style="stroke:#A80036;stroke-width:1.5;" x1="1213" x2="1255" y1="313.9688" y2="313.9688"/><line style="stroke:#A80036;stroke-width:1.5;" x1="1213" x2="1255" y1="321.9688" y2="321.9688"/><!--MD5=[e2e9c2d6464ab1040ab91da7e0e2efc9]
class Swimmer--><rect codeLine="76" fill="#FEFECE" filter="url(#fdavsq0e2ool8)" height="52.7734" id="Swimmer" style="stroke:#A80036;stroke-width:1.5;" width="62" x="2110" y="58"/><text fill="#000000" font-family="sans-serif" font-size="12" lengthAdjust="spacing" textLength="56" x="2113" y="74.1387">Swimmer</text><line style="stroke:#A80036;stroke-width:1.5;" x1="2111" x2="2171" y1="81.9688" y2="81.9688"/><line style="stroke:#A80036;stroke-width:1.5;" x1="2111" x2="2171" y1="89.9688" y2="89.9688"/><text fill="#000000" font-family="sans-serif" font-size="11" lengthAdjust="spacing" textLength="31" x="2116" y="104.1792">sign()</text><!--MD5=[17c90f3db3a6d0dcb3017decb56e93df]
class CSVFile--><rect codeLine="82" fill="#FEFECE" filter="url(#fdavsq0e2ool8)" height="39.9688" id="CSVFile" style="stroke:#A80036;stroke-width:1.5;" width="51" x="1979.5" y="290"/><text fill="#000000" font-family="sans-serif" font-size="12" lengthAdjust="spacing" textLength="45" x="1982.5" y="306.1387">CSVFile</text><line style="stroke:#A80036;stroke-width:1.5;" x1="1980.5" x2="2029.5" y1="313.9688" y2="313.9688"/><line style="stroke:#A80036;stroke-width:1.5;" x1="1980.5" x2="2029.5" y1="321.9688" y2="321.9688"/><!--MD5=[3d4177ac58b4411586d067f34e84928f]
class List--><rect codeLine="84" fill="#FEFECE" filter="url(#fdavsq0e2ool8)" height="39.9688" id="List" style="stroke:#A80036;stroke-width:1.5;" width="26" x="1291" y="290"/><text fill="#000000" font-family="sans-serif" font-size="12" lengthAdjust="spacing" textLength="20" x="1294" y="306.1387">List</text><line style="stroke:#A80036;stroke-width:1.5;" x1="1292" x2="1316" y1="313.9688" y2="313.9688"/><line style="stroke:#A80036;stroke-width:1.5;" x1="1292" x2="1316" y1="321.9688" y2="321.9688"/><!--MD5=[6accee1e3af458a52348266fcaa9138e]
class PdfInformation--><rect codeLine="86" fill="#FEFECE" filter="url(#fdavsq0e2ool8)" height="39.9688" id="PdfInformation" style="stroke:#A80036;stroke-width:1.5;" width="91" x="1352.5" y="290"/><text fill="#000000" font-family="sans-serif" font-size="12" lengthAdjust="spacing" textLength="85" x="1355.5" y="306.1387">PdfInformation</text><line style="stroke:#A80036;stroke-width:1.5;" x1="1353.5" x2="1442.5" y1="313.9688" y2="313.9688"/><line style="stroke:#A80036;stroke-width:1.5;" x1="1353.5" x2="1442.5" y1="321.9688" y2="321.9688"/><!--MD5=[948c0814a6ec018750289a189941a986]
class Week--><rect codeLine="88" fill="#FEFECE" filter="url(#fdavsq0e2ool8)" height="39.9688" id="Week" style="stroke:#A80036;stroke-width:1.5;" width="41" x="1478.5" y="290"/><text fill="#000000" font-family="sans-serif" font-size="12" lengthAdjust="spacing" textLength="35" x="1481.5" y="306.1387">Week</text><line style="stroke:#A80036;stroke-width:1.5;" x1="1479.5" x2="1518.5" y1="313.9688" y2="313.9688"/><line style="stroke:#A80036;stroke-width:1.5;" x1="1479.5" x2="1518.5" y1="321.9688" y2="321.9688"/><!--MD5=[dd430f8ffb90486aebcb09d1b4424d44]
class SourceCode--><rect codeLine="90" fill="#FEFECE" filter="url(#fdavsq0e2ool8)" height="39.9688" id="SourceCode" style="stroke:#A80036;stroke-width:1.5;" width="81" x="1015.5" y="464.5"/><text fill="#000000" font-family="sans-serif" font-size="12" lengthAdjust="spacing" textLength="75" x="1018.5" y="480.6387">SourceCode</text><line style="stroke:#A80036;stroke-width:1.5;" x1="1016.5" x2="1095.5" y1="488.4688" y2="488.4688"/><line style="stroke:#A80036;stroke-width:1.5;" x1="1016.5" x2="1095.5" y1="496.4688" y2="496.4688"/><!--MD5=[2470d439e336eeeed736cf589393d082]
class Documentation--><rect codeLine="92" fill="#FEFECE" filter="url(#fdavsq0e2ool8)" height="39.9688" id="Documentation" style="stroke:#A80036;stroke-width:1.5;" width="96" x="1132" y="464.5"/><text fill="#000000" font-family="sans-serif" font-size="12" lengthAdjust="spacing" textLength="90" x="1135" y="480.6387">Documentation</text><line style="stroke:#A80036;stroke-width:1.5;" x1="1133" x2="1227" y1="488.4688" y2="488.4688"/><line style="stroke:#A80036;stroke-width:1.5;" x1="1133" x2="1227" y1="496.4688" y2="496.4688"/><!--MD5=[c1d5b66b75d9f9155c77100190525e5e]
class RegistrationKey--><rect codeLine="94" fill="#FEFECE" filter="url(#fdavsq0e2ool8)" height="39.9688" id="RegistrationKey" style="stroke:#A80036;stroke-width:1.5;" width="100" x="309" y="464.5"/><text fill="#000000" font-family="sans-serif" font-size="12" lengthAdjust="spacing" textLength="94" x="312" y="480.6387">RegistrationKey</text><line style="stroke:#A80036;stroke-width:1.5;" x1="310" x2="408" y1="488.4688" y2="488.4688"/><line style="stroke:#A80036;stroke-width:1.5;" x1="310" x2="408" y1="496.4688" y2="496.4688"/><!--MD5=[5e8199f92a005e35382be655ea5d2e7d]
class PdfReport--><rect codeLine="96" fill="#FEFECE" filter="url(#fdavsq0e2ool8)" height="39.9688" id="PdfReport" style="stroke:#A80036;stroke-width:1.5;" width="64" x="2073" y="290"/><text fill="#000000" font-family="sans-serif" font-size="12" lengthAdjust="spacing" textLength="58" x="2076" y="306.1387">PdfReport</text><line style="stroke:#A80036;stroke-width:1.5;" x1="2074" x2="2136" y1="313.9688" y2="313.9688"/><line style="stroke:#A80036;stroke-width:1.5;" x1="2074" x2="2136" y1="321.9688" y2="321.9688"/><!--MD5=[5063315cc73ac988372f791ce425a62d]
class AmountDetail--><rect codeLine="98" fill="#FEFECE" filter="url(#fdavsq0e2ool8)" height="39.9688" id="AmountDetail" style="stroke:#A80036;stroke-width:1.5;" width="85" x="1263.5" y="464.5"/><text fill="#000000" font-family="sans-serif" font-size="12" lengthAdjust="spacing" textLength="79" x="1266.5" y="480.6387">AmountDetail</text><line style="stroke:#A80036;stroke-width:1.5;" x1="1264.5" x2="1347.5" y1="488.4688" y2="488.4688"/><line style="stroke:#A80036;stroke-width:1.5;" x1="1264.5" x2="1347.5" y1="496.4688" y2="496.4688"/><!--MD5=[6d13b3358742df51d5a1e8d01664c276]
class KidAccount--><rect codeLine="100" fill="#FEFECE" filter="url(#fdavsq0e2ool8)" height="39.9688" id="KidAccount" style="stroke:#A80036;stroke-width:1.5;" width="73" x="524.5" y="464.5"/><text fill="#000000" font-family="sans-serif" font-size="12" lengthAdjust="spacing" textLength="67" x="527.5" y="480.6387">KidAccount</text><line style="stroke:#A80036;stroke-width:1.5;" x1="525.5" x2="596.5" y1="488.4688" y2="488.4688"/><line style="stroke:#A80036;stroke-width:1.5;" x1="525.5" x2="596.5" y1="496.4688" y2="496.4688"/><!--MD5=[fe9e4bf3c3890c470165de9d5ecb172d]
class Signup--><rect codeLine="102" fill="#FEFECE" filter="url(#fdavsq0e2ool8)" height="39.9688" id="Signup" style="stroke:#A80036;stroke-width:1.5;" width="47" x="1554.5" y="290"/><text fill="#000000" font-family="sans-serif" font-size="12" lengthAdjust="spacing" textLength="41" x="1557.5" y="306.1387">Signup</text><line style="stroke:#A80036;stroke-width:1.5;" x1="1555.5" x2="1600.5" y1="313.9688" y2="313.9688"/><line style="stroke:#A80036;stroke-width:1.5;" x1="1555.5" x2="1600.5" y1="321.9688" y2="321.9688"/><!--MD5=[b07065dfc0d0e09965ec10bfc328bb3e]
class Option--><rect codeLine="104" fill="#FEFECE" filter="url(#fdavsq0e2ool8)" height="39.9688" id="Option" style="stroke:#A80036;stroke-width:1.5;" width="46" x="7" y="464.5"/><text fill="#000000" font-family="sans-serif" font-size="12" lengthAdjust="spacing" textLength="40" x="10" y="480.6387">Option</text><line style="stroke:#A80036;stroke-width:1.5;" x1="8" x2="52" y1="488.4688" y2="488.4688"/><line style="stroke:#A80036;stroke-width:1.5;" x1="8" x2="52" y1="496.4688" y2="496.4688"/><!--MD5=[2741598bdf59a7d7e0d5c97658fd3022]
class Result--><rect codeLine="106" fill="#FEFECE" filter="url(#fdavsq0e2ool8)" height="39.9688" id="Result" style="stroke:#A80036;stroke-width:1.5;" width="42" x="1637" y="290"/><text fill="#000000" font-family="sans-serif" font-size="12" lengthAdjust="spacing" textLength="36" x="1640" y="306.1387">Result</text><line style="stroke:#A80036;stroke-width:1.5;" x1="1638" x2="1678" y1="313.9688" y2="313.9688"/><line style="stroke:#A80036;stroke-width:1.5;" x1="1638" x2="1678" y1="321.9688" y2="321.9688"/><!--MD5=[7ad539e097214a1b341b38a5573035d8]
link Parent to Event--><path codeLine="108" d="M600.1,342.882 C621.23,361.358 646.839,385.881 666,411 C677.448,426.0079 687.464,444.8267 694.479,459.53 " fill="none" id="Parent-to-Event" style="stroke:#A80036;stroke-width:1.0;"/><polygon fill="#A80036" points="696.74,464.347,696.5358,454.5003,694.615,459.821,689.2943,457.9002,696.74,464.347" style="stroke:#A80036;stroke-width:1.0;"/><text fill="#000000" font-family="sans-serif" font-size="13" lengthAdjust="spacing" textLength="24" x="679" y="424.0669">edit</text><!--MD5=[7ad539e097214a1b341b38a5573035d8]
link Parent to Event--><path codeLine="130" d="M593.293,381.27 C602.555,397.574 613.565,414.1817 626,428 C641.68,445.425 663.805,460.375 680.653,470.3538 " fill="none" id="Parent-to-Event-1" style="stroke:#A80036;stroke-width:1.0;"/><polygon fill="#A80036" points="685.256,473.0344,679.4911,465.049,680.9351,470.5185,675.4656,471.9625,685.256,473.0344" style="stroke:#A80036;stroke-width:1.0;"/><text fill="#000000" font-family="sans-serif" font-size="13" lengthAdjust="spacing" textLength="30" x="627" y="424.0669">view</text><!--MD5=[48aa2310ddd8461e4146c9f6ce0dc0f9]
link Parent to RegistrationKey--><path codeLine="109" d="M521.961,335.185 C492.764,354.128 452.601,382.042 421,411 C404.593,426.0344 388.329,445.2596 376.578,460.1345 " fill="none" id="Parent-to-RegistrationKey" style="stroke:#A80036;stroke-width:1.0;"/><polygon fill="#A80036" points="373.386,464.2075,382.0854,459.5901,376.4698,460.2717,375.7882,454.6561,373.386,464.2075" style="stroke:#A80036;stroke-width:1.0;"/><text fill="#000000" font-family="sans-serif" font-size="13" lengthAdjust="spacing" textLength="30" x="422" y="424.0669">login</text><!--MD5=[48aa2310ddd8461e4146c9f6ce0dc0f9]
link Parent to RegistrationKey--><path codeLine="113" d="M521.769,313.366 C463.448,319.241 355.55,339.709 307,411 C295.506,427.8777 309.639,446.5982 326.054,460.7881 " fill="none" id="Parent-to-RegistrationKey-1" style="stroke:#A80036;stroke-width:1.0;"/><polygon fill="#A80036" points="330.262,464.2942,325.9071,455.4605,326.4203,461.094,320.7868,461.6072,330.262,464.2942" style="stroke:#A80036;stroke-width:1.0;"/><text fill="#000000" font-family="sans-serif" font-size="13" lengthAdjust="spacing" textLength="88" x="308" y="424.0669">supported_by</text><!--MD5=[d833add5741b256c3fd7c8bf770851bd]
link Coach to Event--><path codeLine="110" d="M1230.97,94.893 C1162.07,113.673 1011.65,160.89 907,239 C820.652,303.447 748.282,412.2318 718.975,459.9129 " fill="none" id="Coach-to-Event" style="stroke:#A80036;stroke-width:1.0;"/><polygon fill="#A80036" points="716.274,464.3329,724.3803,458.7394,718.8814,460.0666,717.5542,454.5676,716.274,464.3329" style="stroke:#A80036;stroke-width:1.0;"/><text fill="#000000" font-family="sans-serif" font-size="13" lengthAdjust="spacing" textLength="43" x="908" y="314.5669">upload</text><!--MD5=[888d5483bea7360d8fe030083bd95567]
link Head to PdfReport--><path codeLine="111" d="M2045.69,111.138 C2058.73,154.66 2085.03,242.396 2097.77,284.871 " fill="none" id="Head-to-PdfReport" style="stroke:#A80036;stroke-width:1.0;"/><polygon fill="#A80036" points="2099.25,289.821,2100.4952,280.0512,2097.8133,285.0319,2092.8326,282.35,2099.25,289.821" style="stroke:#A80036;stroke-width:1.0;"/><text fill="#000000" font-family="sans-serif" font-size="13" lengthAdjust="spacing" textLength="58" x="2075" y="205.0669">generate</text><!--MD5=[0d6360b542ad5af83d2942dda55fbbbe]
link Maintainer to Access--><path codeLine="112" d="M1070.6,368.503 C1076.43,373.227 1082.6,377.516 1089,381 C1148.71,413.5137 1173.58,392.478 1239,411 C1296.91,427.3967 1311.42,432.6372 1366,458 C1370.99,460.3178 1376.16,462.9862 1381.16,465.7048 " fill="none" id="Maintainer-to-Access" style="stroke:#A80036;stroke-width:1.0;"/><polygon fill="#A80036" points="1385.67,468.2069,1379.743,460.3411,1381.2985,465.7799,1375.8598,467.3355,1385.67,468.2069" style="stroke:#A80036;stroke-width:1.0;"/><text fill="#000000" font-family="sans-serif" font-size="13" lengthAdjust="spacing" textLength="32" x="1295" y="424.0669">have</text><!--MD5=[eec57ad6ffb079deb682237c6b265851]
link Head to CSVFile--><path codeLine="114" d="M2026.69,111.152 C2017.99,132.355 2006.69,163.497 2002,192 C1996.79,223.688 1999.16,260.844 2001.73,284.638 " fill="none" id="Head-to-CSVFile" style="stroke:#A80036;stroke-width:1.0;"/><polygon fill="#A80036" points="2002.31,289.799,2005.2721,280.4061,2001.7475,284.8307,1997.3229,281.3061,2002.31,289.799" style="stroke:#A80036;stroke-width:1.0;"/><text fill="#000000" font-family="sans-serif" font-size="13" lengthAdjust="spacing" textLength="58" x="2003" y="205.0669">generate</text><!--MD5=[b9edcce955a9b6d76b95eb1ba2520770]
link Maintainer to Database--><path codeLine="115" d="M1069.92,368.693 C1075.93,373.446 1082.32,377.688 1089,381 C1188.07,430.1312 1228.89,383.489 1336,411 C1383.21,423.1274 1434.19,446.7659 1467.45,463.7579 " fill="none" id="Maintainer-to-Database" style="stroke:#A80036;stroke-width:1.0;"/><polygon fill="#A80036" points="1472.23,466.2146,1466.0545,458.5424,1467.7832,463.9286,1462.3969,465.6573,1472.23,466.2146" style="stroke:#A80036;stroke-width:1.0;"/><text fill="#000000" font-family="sans-serif" font-size="13" lengthAdjust="spacing" textLength="36" x="1385" y="424.0669">insert</text><!--MD5=[b9edcce955a9b6d76b95eb1ba2520770]
link Maintainer to Database--><path codeLine="142" d="M1069.4,368.6 C1075.55,373.44 1082.11,377.726 1089,381 C1226.4,446.3282 1291.8,347.376 1430,411 C1453.5,421.8167 1473.95,443.3602 1487.36,460.165 " fill="none" id="Maintainer-to-Database-1" style="stroke:#A80036;stroke-width:1.0;"/><polygon fill="#A80036" points="1490.61,464.3259,1488.2199,454.7715,1487.5312,460.3862,1481.9164,459.6975,1490.61,464.3259" style="stroke:#A80036;stroke-width:1.0;"/><text fill="#000000" font-family="sans-serif" font-size="13" lengthAdjust="spacing" textLength="44" x="1457" y="424.0669">access</text><!--MD5=[be4d14d5f7d3aa138ba48e05b233099d]
link Maintainer to AmountDetail--><path codeLine="116" d="M1072.39,368.532 C1077.74,373.069 1083.31,377.313 1089,381 C1121.56,402.115 1135.59,395.113 1171,411 C1205.07,426.2888 1242.37,446.6105 1269.11,461.8482 " fill="none" id="Maintainer-to-AmountDetail" style="stroke:#A80036;stroke-width:1.0;"/><polygon fill="#A80036" points="1273.64,464.4398,1267.7981,456.5106,1269.295,461.9658,1263.8397,463.4627,1273.64,464.4398" style="stroke:#A80036;stroke-width:1.0;"/><text fill="#000000" font-family="sans-serif" font-size="13" lengthAdjust="spacing" textLength="23" x="1207" y="424.0669">see</text><!--MD5=[e16b6f17148fd533bd93b7380d216272]
link Developer to Database--><path codeLine="117" d="M1746.43,336.969 C1724.63,363.024 1688.02,402.805 1649,428 C1615.18,449.8386 1571.46,465.0864 1540.91,474.0002 " fill="none" id="Developer-to-Database" style="stroke:#A80036;stroke-width:1.0;"/><polygon fill="#A80036" points="1535.75,475.4837,1545.5059,476.8337,1540.5543,474.0984,1543.2895,469.1468,1535.75,475.4837" style="stroke:#A80036;stroke-width:1.0;"/><text fill="#000000" font-family="sans-serif" font-size="13" lengthAdjust="spacing" textLength="32" x="1672" y="424.0669">have</text><!--MD5=[8a78962a1b59b5a9099399f6adc9ccb6]
reverse link Parent to KidAccount--><path codeLine="118" d="M557.788,394.378 C557.667,405.678 557.706,417.1237 558,428 C558.326,440.0575 559.049,453.5723 559.703,464.2465 " fill="none" id="Parent-backto-KidAccount" style="stroke:#A80036;stroke-width:1.0;"/><polygon fill="#FFFFFF" points="557.998,381.222,553.9023,387.1571,557.8055,393.2205,561.9012,387.2854,557.998,381.222" style="stroke:#A80036;stroke-width:1.0;"/><text fill="#000000" font-family="sans-serif" font-size="13" lengthAdjust="spacing" textLength="30" x="559" y="424.0669">login</text><!--MD5=[70528e57268fa72302a83420812e0ce2]
link Coach to Information--><path codeLine="119" d="M1230.78,86.651 C1112.67,91.51 737.675,116.282 459,239 C337.908,292.324 226.896,410.39 183.404,460.3991 " fill="none" id="Coach-to-Information" style="stroke:#A80036;stroke-width:1.0;"/><polygon fill="#A80036" points="179.898,464.4524,188.8115,460.2631,183.1693,460.6711,182.7613,455.029,179.898,464.4524" style="stroke:#A80036;stroke-width:1.0;"/><text fill="#000000" font-family="sans-serif" font-size="13" lengthAdjust="spacing" textLength="43" x="460" y="314.5669">review</text><!--MD5=[ea3332a70ab11c1c90b7cc0973226790]
link Treasurer to Amount--><path codeLine="120" d="M1883,111.138 C1883,152.456 1883,233.625 1883,278.083 " fill="none" id="Treasurer-to-Amount" style="stroke:#A80036;stroke-width:1.0;"/><polygon fill="#A80036" points="1883,283.317,1887,274.317,1883,278.317,1879,274.317,1883,283.317" style="stroke:#A80036;stroke-width:1.0;"/><text fill="#000000" font-family="sans-serif" font-size="13" lengthAdjust="spacing" textLength="23" x="1884" y="205.0669">see</text><!--MD5=[dec46f8f38b34430f4ecfa5d00e36fb6]
link Developer to Date--><path codeLine="121" d="M1767,336.825 C1767,369.876 1767,426.718 1767,459.0788 " fill="none" id="Developer-to-Date" style="stroke:#A80036;stroke-width:1.0;"/><polygon fill="#A80036" points="1767,464.44,1771,455.44,1767,459.44,1763,455.44,1767,464.44" style="stroke:#A80036;stroke-width:1.0;"/><text fill="#000000" font-family="sans-serif" font-size="13" lengthAdjust="spacing" textLength="32" x="1768" y="424.0669">have</text><!--MD5=[2c270355e0f703b742f775700c5ed821]
link Coach to Signup--><path codeLine="122" d="M1305.01,98.057 C1361.81,119.018 1470.85,166.157 1537,239 C1549.42,252.676 1559.88,270.715 1567.12,285.056 " fill="none" id="Coach-to-Signup" style="stroke:#A80036;stroke-width:1.0;"/><polygon fill="#A80036" points="1569.45,289.766,1569.033,279.926,1567.2277,285.287,1561.8666,283.4817,1569.45,289.766" style="stroke:#A80036;stroke-width:1.0;"/><text fill="#000000" font-family="sans-serif" font-size="13" lengthAdjust="spacing" textLength="44" x="1502" y="205.0669">expect</text><!--MD5=[68b727e90dc450bd3703a6c2977b7229]
link Coach to List--><path codeLine="123" d="M1280.34,162.103 C1287.24,204.929 1295.37,255.422 1300.08,284.668 " fill="none" id="Coach-to-List" style="stroke:#A80036;stroke-width:1.0;"/><polygon fill="#A80036" points="1300.92,289.875,1303.4344,280.3525,1300.1231,284.9389,1295.5367,281.6276,1300.92,289.875" style="stroke:#A80036;stroke-width:1.0;"/><text fill="#000000" font-family="sans-serif" font-size="13" lengthAdjust="spacing" textLength="24" x="1289" y="205.0669">edit</text><!--MD5=[d2ac580e74bf8e11a69785f7bedd0473]
reverse link Parent to Kid--><path codeLine="124" d="M612.085,337.082 C661.049,361.7 737.303,399.054 805,428 C845.759,445.4281 894.003,463.0932 923.807,473.6721 " fill="none" id="Parent-backto-Kid" style="stroke:#A80036;stroke-width:1.0;"/><polygon fill="#FFFFFF" points="600.246,331.11,603.8018,337.3834,610.9603,336.514,607.4045,330.2405,600.246,331.11" style="stroke:#A80036;stroke-width:1.0;"/><text fill="#000000" font-family="sans-serif" font-size="13" lengthAdjust="spacing" textLength="26" x="806" y="424.0669">sign</text><!--MD5=[a834e46a7ab6a0e890d292d23a55f0b1]
link Maintainer to Kid--><path codeLine="125" d="M1005.454,368.746 C999.578,387.928 992.282,409.184 984,428 C980.257,436.5033 975.55,445.3664 970.906,453.4492 " fill="none" id="Maintainer-to-Kid" style="stroke:#A80036;stroke-width:1.0;"/><polygon fill="#A80036" points="968.339,457.8521,976.3281,452.0924,970.8577,453.5328,969.4172,448.0624,968.339,457.8521" style="stroke:#A80036;stroke-width:1.0;"/><text fill="#000000" font-family="sans-serif" font-size="13" lengthAdjust="spacing" textLength="36" x="992" y="424.0669">insert</text><!--MD5=[a834e46a7ab6a0e890d292d23a55f0b1]
link Maintainer to Kid--><path codeLine="126" d="M971.96,368.625 C963.341,381.774 955.651,396.246 951,411 C946.824,424.2484 946.434,439.5466 947.342,452.6656 " fill="none" id="Maintainer-to-Kid-1" style="stroke:#A80036;stroke-width:1.0;"/><polygon fill="#A80036" points="947.766,457.7649,951.0055,448.4641,947.3512,452.7821,943.0331,449.1278,947.766,457.7649" style="stroke:#A80036;stroke-width:1.0;"/><text fill="#000000" font-family="sans-serif" font-size="13" lengthAdjust="spacing" textLength="23" x="952" y="424.0669">see</text><!--MD5=[2d3d24ce923cffcb9d23da37a39a64b9]
link User to Option--><path codeLine="127" d="M38.1954,362.036 C33.5995,377.561 29.3011,394.803 27,411 C25.9372,418.4804 26.796,420.4472 27,428 C27.2748,438.1735 27.8323,449.3845 28.393,459.0513 " fill="none" id="User-to-Option" style="stroke:#A80036;stroke-width:1.0;"/><polygon fill="#A80036" points="28.7031,464.2465,32.1596,455.0241,28.4051,459.2554,24.1738,455.5009,28.7031,464.2465" style="stroke:#A80036;stroke-width:1.0;"/><text fill="#000000" font-family="sans-serif" font-size="13" lengthAdjust="spacing" textLength="23" x="28" y="424.0669">see</text><!--MD5=[64f23338ab87c305697b520aaa530790]
link Coach to PdfInformation--><path codeLine="128" d="M1305.08,149.247 C1331.54,194.748 1365.64,253.359 1384.29,285.433 " fill="none" id="Coach-to-PdfInformation" style="stroke:#A80036;stroke-width:1.0;"/><polygon fill="#A80036" points="1386.93,289.968,1385.8684,280.1765,1384.4186,285.6445,1378.9507,284.1947,1386.93,289.968" style="stroke:#A80036;stroke-width:1.0;"/><text fill="#000000" font-family="sans-serif" font-size="13" lengthAdjust="spacing" textLength="46" x="1338" y="205.0669">extract</text><!--MD5=[78a52406a36f6cf04aed5519faebdc07]
link Coach to User--><path codeLine="129" d="M1230.84,86.42 C1040.64,91.451 181.356,118.155 91,192 C72.914,206.781 63.9126,230.508 59.5262,252.744 " fill="none" id="Coach-to-User" style="stroke:#A80036;stroke-width:1.0;"/><polygon fill="#A80036" points="58.6082,257.759,64.1629,249.626,59.5082,252.8407,56.2935,248.186,58.6082,257.759" style="stroke:#A80036;stroke-width:1.0;"/><text fill="#000000" font-family="sans-serif" font-size="13" lengthAdjust="spacing" textLength="45" x="92" y="205.0669">modify</text><!--MD5=[ba2759c70f4e4900e1ad013881ae84ef]
link Coach to Result--><path codeLine="131" d="M1305.2,95.68 C1361.32,111.828 1470.09,146.231 1555,192 C1586.07,208.745 1595.65,212.534 1619,239 C1631.07,252.685 1641.01,270.724 1647.84,285.062 " fill="none" id="Coach-to-Result" style="stroke:#A80036;stroke-width:1.0;"/><polygon fill="#A80036" points="1650.03,289.771,1649.8547,279.9237,1647.9183,285.2388,1642.6032,283.3024,1650.03,289.771" style="stroke:#A80036;stroke-width:1.0;"/><text fill="#000000" font-family="sans-serif" font-size="13" lengthAdjust="spacing" textLength="61" x="1587" y="205.0669">overwrite</text><!--MD5=[fdfd39a9d6d1a2526fc5718c3a3a0733]
link Developer to Access--><path codeLine="132" d="M1746.26,336.608 C1733.17,351.338 1715.16,369.205 1696,381 C1660.45,402.879 1646.5,397.492 1607,411 C1585.19,418.4594 1579.96,420.9969 1558,428 C1512.57,442.4854 1498.84,439.2424 1455,458 C1450.25,460.0319 1445.38,462.4668 1440.68,465.0143 " fill="none" id="Developer-to-Access" style="stroke:#A80036;stroke-width:1.0;"/><polygon fill="#A80036" points="1436.05,467.5887,1445.8598,466.7124,1440.4202,465.1595,1441.9731,459.72,1436.05,467.5887" style="stroke:#A80036;stroke-width:1.0;"/><text fill="#000000" font-family="sans-serif" font-size="13" lengthAdjust="spacing" textLength="32" x="1608" y="424.0669">have</text><!--MD5=[91aff78b77f4f7d421c659b9a1182f3e]
link Coach to Week--><path codeLine="133" d="M1305.1,108.399 C1346.91,135.595 1415.04,184.23 1461,239 C1472.66,252.895 1482.35,270.929 1489.02,285.212 " fill="none" id="Coach-to-Week" style="stroke:#A80036;stroke-width:1.0;"/><polygon fill="#A80036" points="1491.17,289.9,1491.0576,280.0518,1489.0873,285.3544,1483.7847,283.3841,1491.17,289.9" style="stroke:#A80036;stroke-width:1.0;"/><text fill="#000000" font-family="sans-serif" font-size="13" lengthAdjust="spacing" textLength="33" x="1430" y="205.0669">close</text><!--MD5=[29793cb2e6ce1def3d6fecaef4efbf08]
link User to Event--><path codeLine="134" d="M94.0248,361.48 C102.0905,369.196 111.172,376.183 121,381 C188.313,413.9931 383.339,397.083 457,411 C500.875,419.2894 626.486,458.5298 680.177,475.5703 " fill="none" id="User-to-Event" style="stroke:#A80036;stroke-width:1.0;"/><polygon fill="#A80036" points="685.143,477.1483,677.7771,470.6105,680.3778,475.634,675.3543,478.2348,685.143,477.1483" style="stroke:#A80036;stroke-width:1.0;"/><text fill="#000000" font-family="sans-serif" font-size="13" lengthAdjust="spacing" textLength="23" x="524" y="424.0669">see</text><!--MD5=[1dfee5a599468a1a3b63608968d2ad83]
link Maintainer to SourceCode--><path codeLine="135" d="M1049.01,368.51 C1054.38,382.13 1059.21,396.825 1062,411 C1065.13,426.8922 1063.62,445.057 1061.33,459.2288 " fill="none" id="Maintainer-to-SourceCode" style="stroke:#A80036;stroke-width:1.0;"/><polygon fill="#A80036" points="1060.46,464.2578,1065.9372,456.0724,1061.3132,459.3311,1058.0545,454.7072,1060.46,464.2578" style="stroke:#A80036;stroke-width:1.0;"/><text fill="#000000" font-family="sans-serif" font-size="13" lengthAdjust="spacing" textLength="32" x="1065" y="424.0669">have</text><!--MD5=[cadfa5746845296d6faf1ef2189e10e8]
link Coach to Something--><path codeLine="136" d="M1230.82,117.576 C1210.34,137.143 1186.09,163.768 1171,192 C1155.16,221.637 1147.78,260.128 1144.48,284.704 " fill="none" id="Coach-to-Something" style="stroke:#A80036;stroke-width:1.0;"/><polygon fill="#A80036" points="1143.84,289.729,1148.9499,281.3095,1144.4746,284.7694,1141.0146,280.2941,1143.84,289.729" style="stroke:#A80036;stroke-width:1.0;"/><text fill="#000000" font-family="sans-serif" font-size="13" lengthAdjust="spacing" textLength="45" x="1172" y="205.0669">modify</text><!--MD5=[87124c9ddd046e983f03a9e038c77925]
reverse link User to Information--><path codeLine="137" d="M68.0034,374.863 C73.3887,393.088 81.0817,412.2544 92,428 C102.0726,442.5259 117.113,454.9647 130.846,464.3623 " fill="none" id="User-backto-Information" style="stroke:#A80036;stroke-width:1.0;"/><polygon fill="#FFFFFF" points="64.5549,362.136,62.2634,368.9733,67.6933,373.7183,69.9849,366.881,64.5549,362.136" style="stroke:#A80036;stroke-width:1.0;"/><text fill="#000000" font-family="sans-serif" font-size="13" lengthAdjust="spacing" textLength="44" x="93" y="424.0669">expect</text><!--MD5=[8936b686be5225b64a54b9f65a98558e]
link Parent to Information--><path codeLine="138" d="M521.838,320.022 C463.359,334.391 350.707,365.57 263,411 C236.445,424.7551 209.243,445.2259 190.09,460.9107 " fill="none" id="Parent-to-Information" style="stroke:#A80036;stroke-width:1.0;"/><polygon fill="#A80036" points="185.886,464.3824,195.3724,461.7351,189.7411,461.1983,190.2778,455.567,185.886,464.3824" style="stroke:#A80036;stroke-width:1.0;"/><text fill="#000000" font-family="sans-serif" font-size="13" lengthAdjust="spacing" textLength="30" x="264" y="424.0669">view</text><!--MD5=[31d0f82e83e1a3228906b303fa097525]
link Maintainer to Documentation--><path codeLine="139" d="M1072.18,366.53 C1101.48,398.316 1136.68,436.5056 1158.7,460.3964 " fill="none" id="Maintainer-to-Documentation" style="stroke:#A80036;stroke-width:1.0;"/><polygon fill="#A80036" points="1162.12,464.1048,1158.9549,454.7784,1158.7287,460.4307,1153.0764,460.2045,1162.12,464.1048" style="stroke:#A80036;stroke-width:1.0;"/><text fill="#000000" font-family="sans-serif" font-size="13" lengthAdjust="spacing" textLength="32" x="1130" y="424.0669">have</text><!--MD5=[7fcdbbd364f0038bd4c6978d6e395c02]
link Coach to Frame--><path codeLine="140" d="M1235.5,162.231 C1232.42,172.1 1229.78,182.186 1228,192 C1222.26,223.628 1225.89,260.798 1229.51,284.612 " fill="none" id="Coach-to-Frame" style="stroke:#A80036;stroke-width:1.0;"/><polygon fill="#A80036" points="1230.33,289.778,1232.8729,280.2631,1229.5478,284.8396,1224.9714,281.5145,1230.33,289.778" style="stroke:#A80036;stroke-width:1.0;"/><text fill="#000000" font-family="sans-serif" font-size="13" lengthAdjust="spacing" textLength="33" x="1229" y="205.0669">close</text><!--MD5=[00013583ff5de2cfdeaafb0ac2d35ee9]
link Maintainer to Event--><path codeLine="141" d="M969.807,347.999 C934.616,372.49 886.246,404.334 841,428 C803.559,447.5833 757.614,465.0657 729.857,474.9634 " fill="none" id="Maintainer-to-Event" style="stroke:#A80036;stroke-width:1.0;"/><polygon fill="#A80036" points="724.891,476.7221,734.7102,477.4865,729.6039,475.0521,732.0382,469.9459,724.891,476.7221" style="stroke:#A80036;stroke-width:1.0;"/><text fill="#000000" font-family="sans-serif" font-size="13" lengthAdjust="spacing" textLength="36" x="873" y="424.0669">insert</text><!--MD5=[a031af6b4f68bc981f7dd745414a54d0]
@startuml
hide circle
class User<actor> {
	kid
	swimmer
	information
}
class Developer<actor> {
}
class Parent<actor> {
	kid
	account
	kidAccount
}
class Treasurer<actor> {
}
class Maintainer<actor> {
}
class Head<actor> {
}
class Kid {
	account
}
class Treasurer {
	see()
}
class User {
	expect()
	see()
}
class Information {
}
class Parent {
	see()
	edit()
	sign()
	login()
	view()
}
class Event {
}
class Coach {
	overwrite()
	review()
	extract()
	set()
	edit()
	modify()
	close()
	expect()
	upload()
}
class Maintainer {
	see()
	modify()
	delete()
	have()
	access()
	insert()
}
class Database {
}
class Amount {
	collect()
}
class Developer {
	have()
}
class Date {
}
class Access {
}
class Something {
}
class Frame {
}
class Swimmer {
	sign()
}
class Head {
	generate()
}
class CSVFile {
}
class List {
}
class PdfInformation {
}
class Week {
}
class SourceCode {
}
class Documentation {
}
class RegistrationKey {
}
class PdfReport {
}
class AmountDetail {
}
class KidAccount {
}
class Signup {
}
class Option {
}
class Result {
}
Parent - -> Event : edit
Parent - -> RegistrationKey : login
Coach - -> Event : upload
Head - -> PdfReport : generate
Maintainer - -> Access : have
Parent - -> RegistrationKey : supported_by
Head - -> CSVFile : generate
Maintainer - -> Database : insert
Maintainer - -> AmountDetail : see
Developer - -> Database : have
Parent o- - KidAccount : login
Coach - -> Information : review
Treasurer - -> Amount : see
Developer - -> Date : have
Coach - -> Signup : expect
Coach - -> List : edit
Parent o- - Kid : sign
Maintainer - -> Kid : insert
Maintainer - -> Kid : see
User - -> Option : see
Coach - -> PdfInformation : extract
Coach - -> User : modify
Parent - -> Event : view
Coach - -> Result : overwrite
Developer - -> Access : have
Coach - -> Week : close
User - -> Event : see
Maintainer - -> SourceCode : have
Coach - -> Something : modify
User o- - Information : expect
Parent - -> Information : view
Maintainer - -> Documentation : have
Coach - -> Frame : close
Maintainer - -> Event : insert
Maintainer - -> Database : access
@enduml

PlantUML version 1.2021.9beta2(Unknown compile time)
(GPL source distribution)
Java Runtime: Java(TM) SE Runtime Environment
JVM: Java HotSpot(TM) 64-Bit Server VM
Default Encoding: UTF-8
Language: en
Country: US
--></g></svg>