<?xml version="1.0" encoding="UTF-8" standalone="no"?><svg xmlns="http://www.w3.org/2000/svg" xmlns:xlink="http://www.w3.org/1999/xlink" contentScriptType="application/ecmascript" contentStyleType="text/css" height="464px" preserveAspectRatio="none" style="width:1349px;height:464px;background:#FFFFFF;" version="1.1" viewBox="0 0 1349 464" width="1349px" zoomAndPan="magnify"><defs><filter height="300%" id="fhpjtu8glypiu" width="300%" x="-1" y="-1"><feGaussianBlur result="blurOut" stdDeviation="2.0"/><feColorMatrix in="blurOut" result="blurOut2" type="matrix" values="0 0 0 0 0 0 0 0 0 0 0 0 0 0 0 0 0 0 .4 0"/><feOffset dx="4.0" dy="4.0" in="blurOut2" result="blurOut3"/><feBlend in="SourceGraphic" in2="blurOut3" mode="normal"/></filter></defs><g><!--MD5=[db6d18d8099558415abc41d00477ab92]
class Admin--><rect codeLine="21" fill="#FEFECE" filter="url(#fhpjtu8glypiu)" height="116.7969" id="Admin" style="stroke:#A80036;stroke-width:1.5;" width="78" x="219" y="217"/><text fill="#000000" font-family="sans-serif" font-size="12" lengthAdjust="spacing" textLength="37" x="222" y="233.1387">Admin</text><rect fill="#FFFFFF" height="15.9688" style="stroke:#000000;stroke-width:1.0;stroke-dasharray:2.0,2.0;" width="33" x="267" y="214"/><text fill="#000000" font-family="sans-serif" font-size="12" font-style="italic" lengthAdjust="spacing" textLength="31" x="268" y="226.1387">actor</text><line style="stroke:#A80036;stroke-width:1.5;" x1="220" x2="296" y1="240.9688" y2="240.9688"/><line style="stroke:#A80036;stroke-width:1.5;" x1="220" x2="296" y1="248.9688" y2="248.9688"/><text fill="#000000" font-family="sans-serif" font-size="11" lengthAdjust="spacing" textLength="33" x="225" y="263.1792">give()</text><text fill="#000000" font-family="sans-serif" font-size="11" lengthAdjust="spacing" textLength="64" x="225" y="275.9839">terminate()</text><text fill="#000000" font-family="sans-serif" font-size="11" lengthAdjust="spacing" textLength="38" x="225" y="288.7886">reset()</text><text fill="#000000" font-family="sans-serif" font-size="11" lengthAdjust="spacing" textLength="55" x="225" y="301.5933">manage()</text><text fill="#000000" font-family="sans-serif" font-size="11" lengthAdjust="spacing" textLength="47" x="225" y="314.3979">restrict()</text><text fill="#000000" font-family="sans-serif" font-size="11" lengthAdjust="spacing" textLength="37" x="225" y="327.2026">have()</text><!--MD5=[3fd616f346a44cd59a91eb10b19e157c]
class User--><rect codeLine="8" fill="#FEFECE" filter="url(#fhpjtu8glypiu)" height="129.6016" id="User" style="stroke:#A80036;stroke-width:1.5;" width="70" x="945" y="10"/><text fill="#000000" font-family="sans-serif" font-size="12" lengthAdjust="spacing" textLength="29" x="948" y="26.1387">User</text><rect fill="#FFFFFF" height="15.9688" style="stroke:#000000;stroke-width:1.0;stroke-dasharray:2.0,2.0;" width="33" x="985" y="7"/><text fill="#000000" font-family="sans-serif" font-size="12" font-style="italic" lengthAdjust="spacing" textLength="31" x="986" y="19.1387">actor</text><line style="stroke:#A80036;stroke-width:1.5;" x1="946" x2="1014" y1="33.9688" y2="33.9688"/><line style="stroke:#A80036;stroke-width:1.5;" x1="946" x2="1014" y1="41.9688" y2="41.9688"/><text fill="#000000" font-family="sans-serif" font-size="11" lengthAdjust="spacing" textLength="53" x="951" y="56.1792">perform()</text><text fill="#000000" font-family="sans-serif" font-size="11" lengthAdjust="spacing" textLength="35" x="951" y="68.9839">view()</text><text fill="#000000" font-family="sans-serif" font-size="11" lengthAdjust="spacing" textLength="38" x="951" y="81.7886">reset()</text><text fill="#000000" font-family="sans-serif" font-size="11" lengthAdjust="spacing" textLength="50" x="951" y="94.5933">confirm()</text><text fill="#000000" font-family="sans-serif" font-size="11" lengthAdjust="spacing" textLength="52" x="951" y="107.3979">receive()</text><text fill="#000000" font-family="sans-serif" font-size="11" lengthAdjust="spacing" textLength="30" x="951" y="120.2026">see()</text><text fill="#000000" font-family="sans-serif" font-size="11" lengthAdjust="spacing" textLength="45" x="951" y="133.0073">export()</text><!--MD5=[1a95835255177050dd8028a7da1b3a6a]
class Contributor--><rect codeLine="39" fill="#FEFECE" filter="url(#fhpjtu8glypiu)" height="78.3828" id="Contributor" style="stroke:#A80036;stroke-width:1.5;" width="108" x="301" y="36"/><text fill="#000000" font-family="sans-serif" font-size="12" lengthAdjust="spacing" textLength="67" x="304" y="52.1387">Contributor</text><rect fill="#FFFFFF" height="15.9688" style="stroke:#000000;stroke-width:1.0;stroke-dasharray:2.0,2.0;" width="33" x="379" y="33"/><text fill="#000000" font-family="sans-serif" font-size="12" font-style="italic" lengthAdjust="spacing" textLength="31" x="380" y="45.1387">actor</text><line style="stroke:#A80036;stroke-width:1.5;" x1="302" x2="408" y1="59.9688" y2="59.9688"/><line style="stroke:#A80036;stroke-width:1.5;" x1="302" x2="408" y1="67.9688" y2="67.9688"/><text fill="#000000" font-family="sans-serif" font-size="11" lengthAdjust="spacing" textLength="54" x="307" y="82.1792">analyze()</text><text fill="#000000" font-family="sans-serif" font-size="11" lengthAdjust="spacing" textLength="27" x="307" y="94.9839">ask()</text><text fill="#000000" font-family="sans-serif" font-size="11" lengthAdjust="spacing" textLength="30" x="307" y="107.7886">see()</text><!--MD5=[45b0c8674d9af61d6b3fd8cd3c470f27]
class SoftwareQualityMetric--><rect codeLine="17" fill="#FEFECE" filter="url(#fhpjtu8glypiu)" height="39.9688" id="SoftwareQualityMetric" style="stroke:#A80036;stroke-width:1.5;" width="138" x="495" y="255.5"/><text fill="#000000" font-family="sans-serif" font-size="12" lengthAdjust="spacing" textLength="132" x="498" y="271.6387">SoftwareQualityMetric</text><line style="stroke:#A80036;stroke-width:1.5;" x1="496" x2="632" y1="279.4688" y2="279.4688"/><line style="stroke:#A80036;stroke-width:1.5;" x1="496" x2="632" y1="287.4688" y2="287.4688"/><!--MD5=[065375cb6effaea8208de5d8db931f1f]
class VerificationEmail--><rect codeLine="19" fill="#FEFECE" filter="url(#fhpjtu8glypiu)" height="39.9688" id="VerificationEmail" style="stroke:#A80036;stroke-width:1.5;" width="104" x="668" y="255.5"/><text fill="#000000" font-family="sans-serif" font-size="12" lengthAdjust="spacing" textLength="98" x="671" y="271.6387">VerificationEmail</text><line style="stroke:#A80036;stroke-width:1.5;" x1="669" x2="771" y1="279.4688" y2="279.4688"/><line style="stroke:#A80036;stroke-width:1.5;" x1="669" x2="771" y1="287.4688" y2="287.4688"/><!--MD5=[bffffc91ea6363a28ee965dd72c463ae]
class Ability--><rect codeLine="29" fill="#FEFECE" filter="url(#fhpjtu8glypiu)" height="39.9688" id="Ability" style="stroke:#A80036;stroke-width:1.5;" width="42" x="7" y="411"/><text fill="#000000" font-family="sans-serif" font-size="12" lengthAdjust="spacing" textLength="36" x="10" y="427.1387">Ability</text><line style="stroke:#A80036;stroke-width:1.5;" x1="8" x2="48" y1="434.9688" y2="434.9688"/><line style="stroke:#A80036;stroke-width:1.5;" x1="8" x2="48" y1="442.9688" y2="442.9688"/><!--MD5=[dab16d122782a892ddb6ee0eadcd68f0]
class Access--><rect codeLine="31" fill="#FEFECE" filter="url(#fhpjtu8glypiu)" height="39.9688" id="Access" style="stroke:#A80036;stroke-width:1.5;" width="50" x="164" y="411"/><text fill="#000000" font-family="sans-serif" font-size="12" lengthAdjust="spacing" textLength="44" x="167" y="427.1387">Access</text><line style="stroke:#A80036;stroke-width:1.5;" x1="165" x2="213" y1="434.9688" y2="434.9688"/><line style="stroke:#A80036;stroke-width:1.5;" x1="165" x2="213" y1="442.9688" y2="442.9688"/><!--MD5=[40d2668bbcd459976779c45dfe17221f]
class Statistics--><rect codeLine="33" fill="#FEFECE" filter="url(#fhpjtu8glypiu)" height="39.9688" id="Statistics" style="stroke:#A80036;stroke-width:1.5;" width="60" x="807" y="255.5"/><text fill="#000000" font-family="sans-serif" font-size="12" lengthAdjust="spacing" textLength="54" x="810" y="271.6387">Statistics</text><line style="stroke:#A80036;stroke-width:1.5;" x1="808" x2="866" y1="279.4688" y2="279.4688"/><line style="stroke:#A80036;stroke-width:1.5;" x1="808" x2="866" y1="287.4688" y2="287.4688"/><!--MD5=[94664d27f287a690f0ce0cde12babd12]
class Evolution--><rect codeLine="35" fill="#FEFECE" filter="url(#fhpjtu8glypiu)" height="39.9688" id="Evolution" style="stroke:#A80036;stroke-width:1.5;" width="60" x="902" y="255.5"/><text fill="#000000" font-family="sans-serif" font-size="12" lengthAdjust="spacing" textLength="54" x="905" y="271.6387">Evolution</text><line style="stroke:#A80036;stroke-width:1.5;" x1="903" x2="961" y1="279.4688" y2="279.4688"/><line style="stroke:#A80036;stroke-width:1.5;" x1="903" x2="961" y1="287.4688" y2="287.4688"/><!--MD5=[88967cc527ac608118ac16caae449e3f]
class UserPassword--><rect codeLine="37" fill="#FEFECE" filter="url(#fhpjtu8glypiu)" height="39.9688" id="UserPassword" style="stroke:#A80036;stroke-width:1.5;" width="93" x="267.5" y="411"/><text fill="#000000" font-family="sans-serif" font-size="12" lengthAdjust="spacing" textLength="87" x="270.5" y="427.1387">UserPassword</text><line style="stroke:#A80036;stroke-width:1.5;" x1="268.5" x2="359.5" y1="434.9688" y2="434.9688"/><line style="stroke:#A80036;stroke-width:1.5;" x1="268.5" x2="359.5" y1="442.9688" y2="442.9688"/><!--MD5=[0e25faa1fcd99a17261c68cab7355ee4]
class Impact--><rect codeLine="44" fill="#FEFECE" filter="url(#fhpjtu8glypiu)" height="39.9688" id="Impact" style="stroke:#A80036;stroke-width:1.5;" width="46" x="332" y="255.5"/><text fill="#000000" font-family="sans-serif" font-size="12" lengthAdjust="spacing" textLength="40" x="335" y="271.6387">Impact</text><line style="stroke:#A80036;stroke-width:1.5;" x1="333" x2="377" y1="279.4688" y2="279.4688"/><line style="stroke:#A80036;stroke-width:1.5;" x1="333" x2="377" y1="287.4688" y2="287.4688"/><!--MD5=[a7e0804515709e556f13ed1297f351ac]
class UserPermission--><rect codeLine="46" fill="#FEFECE" filter="url(#fhpjtu8glypiu)" height="39.9688" id="UserPermission" style="stroke:#A80036;stroke-width:1.5;" width="100" x="396" y="411"/><text fill="#000000" font-family="sans-serif" font-size="12" lengthAdjust="spacing" textLength="94" x="399" y="427.1387">UserPermission</text><line style="stroke:#A80036;stroke-width:1.5;" x1="397" x2="495" y1="434.9688" y2="434.9688"/><line style="stroke:#A80036;stroke-width:1.5;" x1="397" x2="495" y1="442.9688" y2="442.9688"/><!--MD5=[3d4177ac58b4411586d067f34e84928f]
class List--><rect codeLine="48" fill="#FEFECE" filter="url(#fhpjtu8glypiu)" height="39.9688" id="List" style="stroke:#A80036;stroke-width:1.5;" width="26" x="434" y="255.5"/><text fill="#000000" font-family="sans-serif" font-size="12" lengthAdjust="spacing" textLength="20" x="437" y="271.6387">List</text><line style="stroke:#A80036;stroke-width:1.5;" x1="435" x2="459" y1="279.4688" y2="279.4688"/><line style="stroke:#A80036;stroke-width:1.5;" x1="435" x2="459" y1="287.4688" y2="287.4688"/><!--MD5=[2f01b1126ff33a0669651ec2488a5ef9]
class Password--><rect codeLine="50" fill="#FEFECE" filter="url(#fhpjtu8glypiu)" height="39.9688" id="Password" style="stroke:#A80036;stroke-width:1.5;" width="64" x="997" y="255.5"/><text fill="#000000" font-family="sans-serif" font-size="12" lengthAdjust="spacing" textLength="58" x="1000" y="271.6387">Password</text><line style="stroke:#A80036;stroke-width:1.5;" x1="998" x2="1060" y1="279.4688" y2="279.4688"/><line style="stroke:#A80036;stroke-width:1.5;" x1="998" x2="1060" y1="287.4688" y2="287.4688"/><!--MD5=[05d04b564e9d963c5556604ff8f07e7e]
class Analysis--><rect codeLine="52" fill="#FEFECE" filter="url(#fhpjtu8glypiu)" height="39.9688" id="Analysis" style="stroke:#A80036;stroke-width:1.5;" width="55" x="1096.5" y="255.5"/><text fill="#000000" font-family="sans-serif" font-size="12" lengthAdjust="spacing" textLength="49" x="1099.5" y="271.6387">Analysis</text><line style="stroke:#A80036;stroke-width:1.5;" x1="1097.5" x2="1150.5" y1="279.4688" y2="279.4688"/><line style="stroke:#A80036;stroke-width:1.5;" x1="1097.5" x2="1150.5" y1="287.4688" y2="287.4688"/><!--MD5=[78bec0fde86ad92ec1dc3fb343b83709]
class Email--><rect codeLine="54" fill="#FEFECE" filter="url(#fhpjtu8glypiu)" height="39.9688" id="Email" style="stroke:#A80036;stroke-width:1.5;" width="37" x="1186.5" y="255.5"/><text fill="#000000" font-family="sans-serif" font-size="12" lengthAdjust="spacing" textLength="31" x="1189.5" y="271.6387">Email</text><line style="stroke:#A80036;stroke-width:1.5;" x1="1187.5" x2="1222.5" y1="279.4688" y2="279.4688"/><line style="stroke:#A80036;stroke-width:1.5;" x1="1187.5" x2="1222.5" y1="287.4688" y2="287.4688"/><!--MD5=[1537e7b3e760210491ed7d5f83b83174]
class Registration--><rect codeLine="56" fill="#FEFECE" filter="url(#fhpjtu8glypiu)" height="39.9688" id="Registration" style="stroke:#A80036;stroke-width:1.5;" width="77" x="1258.5" y="255.5"/><text fill="#000000" font-family="sans-serif" font-size="12" lengthAdjust="spacing" textLength="71" x="1261.5" y="271.6387">Registration</text><line style="stroke:#A80036;stroke-width:1.5;" x1="1259.5" x2="1334.5" y1="279.4688" y2="279.4688"/><line style="stroke:#A80036;stroke-width:1.5;" x1="1259.5" x2="1334.5" y1="287.4688" y2="287.4688"/><!--MD5=[f9a29335b499db729be669fd1bd54958]
class Account--><rect codeLine="58" fill="#FEFECE" filter="url(#fhpjtu8glypiu)" height="39.9688" id="Account" style="stroke:#A80036;stroke-width:1.5;" width="54" x="531" y="411"/><text fill="#000000" font-family="sans-serif" font-size="12" lengthAdjust="spacing" textLength="48" x="534" y="427.1387">Account</text><line style="stroke:#A80036;stroke-width:1.5;" x1="532" x2="584" y1="434.9688" y2="434.9688"/><line style="stroke:#A80036;stroke-width:1.5;" x1="532" x2="584" y1="442.9688" y2="442.9688"/><!--MD5=[fcd7b7f726ed3582e75e139995d62671]
link Admin to Ability--><path codeLine="60" d="M218.645,283.847 C173.294,294.238 99.224,317.402 54,364 C42.9235,375.4129 36.4059,392.1066 32.6663,405.8489 " fill="none" id="Admin-to-Ability" style="stroke:#A80036;stroke-width:1.0;"/><polygon fill="#A80036" points="31.4109,410.7631,37.5141,403.0332,32.6485,405.9187,29.763,401.0531,31.4109,410.7631" style="stroke:#A80036;stroke-width:1.0;"/><text fill="#000000" font-family="sans-serif" font-size="13" lengthAdjust="spacing" textLength="32" x="55" y="377.0669">have</text><!--MD5=[fa9b01b0c1e831278d20b2e9b04fd24c]
link User to SoftwareQualityMetric--><path codeLine="61" d="M944.807,88.569 C883.37,111.048 753.256,161.05 650,217 C630.803,227.402 610.444,240.892 594.356,252.191 " fill="none" id="User-to-SoftwareQualityMetric" style="stroke:#A80036;stroke-width:1.0;"/><polygon fill="#A80036" points="589.937,255.315,599.5948,253.3846,594.0194,252.4282,594.9759,246.8528,589.937,255.315" style="stroke:#A80036;stroke-width:1.0;"/><text fill="#000000" font-family="sans-serif" font-size="13" lengthAdjust="spacing" textLength="42" x="740" y="183.0669">export</text><!--MD5=[cc482350476d19046b9b75eaa813740d]
link Contributor to Impact--><path codeLine="62" d="M353.143,114.012 C352.304,135.444 351.584,162.713 352,187 C352.366,208.348 353.233,232.613 353.942,250.166 " fill="none" id="Contributor-to-Impact" style="stroke:#A80036;stroke-width:1.0;"/><polygon fill="#A80036" points="354.156,255.387,357.7849,246.2311,353.9517,250.3912,349.7916,246.5579,354.156,255.387" style="stroke:#A80036;stroke-width:1.0;"/><text fill="#000000" font-family="sans-serif" font-size="13" lengthAdjust="spacing" textLength="50" x="353" y="183.0669">analyze</text><!--MD5=[fea790008077303b0f3720e23992bb13]
link User to Evolution--><path codeLine="63" d="M964.482,140.173 C955.392,177.765 944.439,223.061 937.857,250.28 " fill="none" id="User-to-Evolution" style="stroke:#A80036;stroke-width:1.0;"/><polygon fill="#A80036" points="936.601,255.475,942.6051,247.6679,937.7767,250.6152,934.8294,245.7868,936.601,255.475" style="stroke:#A80036;stroke-width:1.0;"/><text fill="#000000" font-family="sans-serif" font-size="13" lengthAdjust="spacing" textLength="23" x="957" y="183.0669">see</text><!--MD5=[5ab1f46e477a8163e64d30b24bef4255]
link User to Password--><path codeLine="64" d="M995.841,140.173 C1005.159,177.921 1016.4,223.439 1023.1,250.619 " fill="none" id="User-to-Password" style="stroke:#A80036;stroke-width:1.0;"/><polygon fill="#A80036" points="1024.3,255.475,1026.0207,245.7776,1023.0988,250.6214,1018.255,247.6996,1024.3,255.475" style="stroke:#A80036;stroke-width:1.0;"/><text fill="#000000" font-family="sans-serif" font-size="13" lengthAdjust="spacing" textLength="33" x="1007" y="183.0669">reset</text><!--MD5=[706eb293ceb28ed7a1df10090c6e0eaa]
link User to Analysis--><path codeLine="65" d="M1015.2,123.748 C1026.07,138.548 1038.06,154.927 1049,170 C1069.17,197.786 1092.16,229.89 1107.32,251.103 " fill="none" id="User-to-Analysis" style="stroke:#A80036;stroke-width:1.0;"/><polygon fill="#A80036" points="1110.24,255.195,1108.2676,245.5457,1107.3354,251.1252,1101.7559,250.193,1110.24,255.195" style="stroke:#A80036;stroke-width:1.0;"/><text fill="#000000" font-family="sans-serif" font-size="13" lengthAdjust="spacing" textLength="52" x="1061" y="183.0669">perform</text><!--MD5=[bfb2ff5f2366892d2d30bc17b72f60ad]
link Admin to Access--><path codeLine="66" d="M218.871,285.771 C180.697,297.126 124.733,320.466 99,364 C82.3878,392.1035 126.627,411.803 158.814,421.9873 " fill="none" id="Admin-to-Access" style="stroke:#A80036;stroke-width:1.0;"/><polygon fill="#A80036" points="163.865,423.54,156.4369,417.0729,159.0855,422.0714,154.0871,424.72,163.865,423.54" style="stroke:#A80036;stroke-width:1.0;"/><text fill="#000000" font-family="sans-serif" font-size="13" lengthAdjust="spacing" textLength="45" x="100" y="377.0669">restrict</text><!--MD5=[bfb2ff5f2366892d2d30bc17b72f60ad]
link Admin to Access--><path codeLine="67" d="M218.916,312.465 C205.83,327.036 192.839,344.926 186,364 C181.258,377.2265 181.741,392.9073 183.534,405.665 " fill="none" id="Admin-to-Access-1" style="stroke:#A80036;stroke-width:1.0;"/><polygon fill="#A80036" points="184.372,410.938,186.9109,401.422,183.5878,405.9999,179.0099,402.6768,184.372,410.938" style="stroke:#A80036;stroke-width:1.0;"/><text fill="#000000" font-family="sans-serif" font-size="13" lengthAdjust="spacing" textLength="27" x="187" y="377.0669">give</text><!--MD5=[bfb2ff5f2366892d2d30bc17b72f60ad]
link Admin to Access--><path codeLine="68" d="M238.794,334.009 C233.008,349.517 226.251,366.1152 219,381 C214.798,389.6255 209.519,398.6868 204.565,406.6387 " fill="none" id="Admin-to-Access-2" style="stroke:#A80036;stroke-width:1.0;"/><polygon fill="#A80036" points="201.855,410.9325,210.0411,405.4564,204.5236,406.7042,203.2757,401.1867,201.855,410.9325" style="stroke:#A80036;stroke-width:1.0;"/><text fill="#000000" font-family="sans-serif" font-size="13" lengthAdjust="spacing" textLength="32" x="228" y="377.0669">have</text><!--MD5=[38be58f05b4c724e9e7e747cf0ee4c8b]
link User to VerificationEmail--><path codeLine="69" d="M944.89,100.234 C918.077,118.925 880.355,145.62 848,170 C821.225,190.175 814.99,195.823 789,217 C774.868,228.515 759.253,241.504 746.458,252.22 " fill="none" id="User-to-VerificationEmail" style="stroke:#A80036;stroke-width:1.0;"/><polygon fill="#A80036" points="742.582,255.468,752.0495,252.7539,746.4145,252.2568,746.9116,246.6219,742.582,255.468" style="stroke:#A80036;stroke-width:1.0;"/><text fill="#000000" font-family="sans-serif" font-size="13" lengthAdjust="spacing" textLength="47" x="849" y="183.0669">receive</text><!--MD5=[347deceecc2698494ef4536f516d463f]
link Admin to UserPermission--><path codeLine="70" d="M297.261,318.507 C302.746,323.868 308.417,329.165 314,334 C345.821,361.5567 385.16,389.458 412.577,408.0248 " fill="none" id="Admin-to-UserPermission" style="stroke:#A80036;stroke-width:1.0;"/><polygon fill="#A80036" points="416.871,410.9231,411.6486,402.5728,412.7266,408.126,407.1733,409.204,416.871,410.9231" style="stroke:#A80036;stroke-width:1.0;"/><text fill="#000000" font-family="sans-serif" font-size="13" lengthAdjust="spacing" textLength="53" x="375" y="377.0669">manage</text><!--MD5=[bb44486857d7ad321d20ffd0511c12a6]
link Admin to UserPassword--><path codeLine="71" d="M281.752,334.166 C285.635,344.071 289.521,354.2973 293,364 C297.944,377.7894 302.939,393.4015 306.816,405.9785 " fill="none" id="Admin-to-UserPassword" style="stroke:#A80036;stroke-width:1.0;"/><polygon fill="#A80036" points="308.298,410.8153,309.4854,401.0383,306.833,406.0347,301.8365,403.3823,308.298,410.8153" style="stroke:#A80036;stroke-width:1.0;"/><text fill="#000000" font-family="sans-serif" font-size="13" lengthAdjust="spacing" textLength="33" x="300" y="377.0669">reset</text><!--MD5=[4321addb604efe2612059507adc34ab6]
link Contributor to Admin--><path codeLine="72" d="M336.297,114.273 C322.76,141.977 304.165,180.029 288.493,212.099 " fill="none" id="Contributor-to-Admin" style="stroke:#A80036;stroke-width:1.0;"/><polygon fill="#A80036" points="286.203,216.786,293.7485,210.4563,288.3984,212.2938,286.561,206.9436,286.203,216.786" style="stroke:#A80036;stroke-width:1.0;"/><text fill="#000000" font-family="sans-serif" font-size="13" lengthAdjust="spacing" textLength="22" x="308" y="183.0669">ask</text><!--MD5=[33ae7c9fddac52a75b546961b7f24f14]
link Admin to Account--><path codeLine="73" d="M297.001,321.845 C302.36,326.417 308.071,330.614 314,334 C362.862,361.9064 384.524,343.689 437,364 C468.722,376.2779 502.524,395.2708 526.314,409.7354 " fill="none" id="Admin-to-Account" style="stroke:#A80036;stroke-width:1.0;"/><polygon fill="#A80036" points="530.637,412.3809,525.0485,404.2711,526.3723,409.7709,520.8725,411.0947,530.637,412.3809" style="stroke:#A80036;stroke-width:1.0;"/><text fill="#000000" font-family="sans-serif" font-size="13" lengthAdjust="spacing" textLength="63" x="473" y="377.0669">terminate</text><!--MD5=[dbc364445409b51c9b407d19a07b4adf]
link User to Email--><path codeLine="74" d="M1015.35,94.822 C1056.94,118.502 1125.78,162.714 1169,217 C1177.41,227.562 1185.5,240.193 1191.88,250.923 " fill="none" id="User-to-Email" style="stroke:#A80036;stroke-width:1.0;"/><polygon fill="#A80036" points="1194.51,255.394,1193.3911,245.6089,1191.9734,251.0852,1186.4971,249.6675,1194.51,255.394" style="stroke:#A80036;stroke-width:1.0;"/><text fill="#000000" font-family="sans-serif" font-size="13" lengthAdjust="spacing" textLength="47" x="1140" y="183.0669">receive</text><!--MD5=[20322139b3bdefa1b37e548cee49e0a9]
link User to Statistics--><path codeLine="75" d="M944.835,124.813 C915.987,164.858 876.39,219.822 854.084,250.786 " fill="none" id="User-to-Statistics" style="stroke:#A80036;stroke-width:1.0;"/><polygon fill="#A80036" points="850.921,255.176,859.4273,250.2118,853.8437,251.1191,852.9363,245.5355,850.921,255.176" style="stroke:#A80036;stroke-width:1.0;"/><text fill="#000000" font-family="sans-serif" font-size="13" lengthAdjust="spacing" textLength="30" x="910" y="183.0669">view</text><!--MD5=[5cd4afcb0a4262e9740353a82c03aacb]
link User to Registration--><path codeLine="76" d="M1015.06,86.519 C1059.66,100.924 1137.86,129.675 1196,170 C1229.18,193.014 1260.35,228.094 1279.05,251.159 " fill="none" id="User-to-Registration" style="stroke:#A80036;stroke-width:1.0;"/><polygon fill="#A80036" points="1282.4,255.321,1279.8821,245.7994,1279.2687,251.4229,1273.6452,250.8095,1282.4,255.321" style="stroke:#A80036;stroke-width:1.0;"/><text fill="#000000" font-family="sans-serif" font-size="13" lengthAdjust="spacing" textLength="49" x="1216" y="183.0669">confirm</text><!--MD5=[6c9a9adb3c954f2ded6db225113cfcc7]
link Contributor to List--><path codeLine="77" d="M378.308,114.16 C388.102,130.967 399.231,151.144 408,170 C420.473,196.822 431.947,228.841 439.173,250.306 " fill="none" id="Contributor-to-List" style="stroke:#A80036;stroke-width:1.0;"/><polygon fill="#A80036" points="440.827,255.257,441.7686,245.4533,439.2424,250.5147,434.181,247.9886,440.827,255.257" style="stroke:#A80036;stroke-width:1.0;"/><text fill="#000000" font-family="sans-serif" font-size="13" lengthAdjust="spacing" textLength="23" x="417" y="183.0669">see</text><!--MD5=[b1409ab68f9fcb1a9106d40ad03e88d6]
@startuml
hide circle
class Admin<actor> {
}
class User<actor> {
}
class Contributor<actor> {
}
class User {
	perform()
	view()
	reset()
	confirm()
	receive()
	see()
	export()
}
class SoftwareQualityMetric {
}
class VerificationEmail {
}
class Admin {
	give()
	terminate()
	reset()
	manage()
	restrict()
	have()
}
class Ability {
}
class Access {
}
class Statistics {
}
class Evolution {
}
class UserPassword {
}
class Contributor {
	analyze()
	ask()
	see()
}
class Impact {
}
class UserPermission {
}
class List {
}
class Password {
}
class Analysis {
}
class Email {
}
class Registration {
}
class Account {
}
Admin - -> Ability : have
User - -> SoftwareQualityMetric : export
Contributor - -> Impact : analyze
User - -> Evolution : see
User - -> Password : reset
User - -> Analysis : perform
Admin - -> Access : restrict
Admin - -> Access : give
Admin - -> Access : have
User - -> VerificationEmail : receive
Admin - -> UserPermission : manage
Admin - -> UserPassword : reset
Contributor - -> Admin : ask
Admin - -> Account : terminate
User - -> Email : receive
User - -> Statistics : view
User - -> Registration : confirm
Contributor - -> List : see
@enduml

PlantUML version 1.2021.6beta6(Unknown compile time)
(GPL source distribution)
Java Runtime: Java(TM) SE Runtime Environment
JVM: Java HotSpot(TM) 64-Bit Server VM
Default Encoding: UTF-8
Language: en
Country: US
--></g></svg>