<?xml version="1.0" encoding="UTF-8" standalone="no"?><svg xmlns="http://www.w3.org/2000/svg" xmlns:xlink="http://www.w3.org/1999/xlink" contentScriptType="application/ecmascript" contentStyleType="text/css" height="321px" preserveAspectRatio="none" style="width:1778px;height:321px;background:#FFFFFF;" version="1.1" viewBox="0 0 1778 321" width="1778px" zoomAndPan="magnify"><defs><filter height="300%" id="fjv3z45lbhfnv" width="300%" x="-1" y="-1"><feGaussianBlur result="blurOut" stdDeviation="2.0"/><feColorMatrix in="blurOut" result="blurOut2" type="matrix" values="0 0 0 0 0 0 0 0 0 0 0 0 0 0 0 0 0 0 .4 0"/><feOffset dx="4.0" dy="4.0" in="blurOut2" result="blurOut3"/><feBlend in="SourceGraphic" in2="blurOut3" mode="normal"/></filter></defs><g><!--MD5=[d342058c8fb6f80e9d50d673c6908241]
class Developer--><rect codeLine="52" fill="#FEFECE" filter="url(#fjv3z45lbhfnv)" height="52.7734" id="Developer" style="stroke:#A80036;stroke-width:1.5;" width="105" x="74" y="67.5"/><text fill="#000000" font-family="sans-serif" font-size="12" lengthAdjust="spacing" textLength="64" x="77" y="83.6387">Developer</text><rect fill="#FFFFFF" height="15.9688" style="stroke:#000000;stroke-width:1.0;stroke-dasharray:2.0,2.0;" width="33" x="149" y="64.5"/><text fill="#000000" font-family="sans-serif" font-size="12" font-style="italic" lengthAdjust="spacing" textLength="31" x="150" y="76.6387">actor</text><line style="stroke:#A80036;stroke-width:1.5;" x1="75" x2="178" y1="91.4688" y2="91.4688"/><line style="stroke:#A80036;stroke-width:1.5;" x1="75" x2="178" y1="99.4688" y2="99.4688"/><text fill="#000000" font-family="sans-serif" font-size="11" lengthAdjust="spacing" textLength="44" x="80" y="113.6792">import()</text><!--MD5=[d20e61c3df8b8f47d0b4e5ec2b6a1cdb]
class Volunteer--><rect codeLine="35" fill="#FEFECE" filter="url(#fjv3z45lbhfnv)" height="78.3828" id="Volunteer" style="stroke:#A80036;stroke-width:1.5;" width="99" x="362" y="55"/><text fill="#000000" font-family="sans-serif" font-size="12" lengthAdjust="spacing" textLength="58" x="365" y="71.1387">Volunteer</text><rect fill="#FFFFFF" height="15.9688" style="stroke:#000000;stroke-width:1.0;stroke-dasharray:2.0,2.0;" width="33" x="431" y="52"/><text fill="#000000" font-family="sans-serif" font-size="12" font-style="italic" lengthAdjust="spacing" textLength="31" x="432" y="64.1387">actor</text><line style="stroke:#A80036;stroke-width:1.5;" x1="363" x2="460" y1="78.9688" y2="78.9688"/><line style="stroke:#A80036;stroke-width:1.5;" x1="363" x2="460" y1="86.9688" y2="86.9688"/><text fill="#000000" font-family="sans-serif" font-size="11" lengthAdjust="spacing" textLength="35" x="368" y="101.1792">view()</text><text fill="#000000" font-family="sans-serif" font-size="11" lengthAdjust="spacing" textLength="55" x="368" y="113.9839">manage()</text><text fill="#000000" font-family="sans-serif" font-size="11" lengthAdjust="spacing" textLength="41" x="368" y="126.7886">check()</text><!--MD5=[b24ed8d4ae84bae9290d9aab401637c7]
class Manager--><rect codeLine="46" fill="#FEFECE" filter="url(#fjv3z45lbhfnv)" height="52.7734" id="Manager" style="stroke:#A80036;stroke-width:1.5;" width="93" x="556" y="67.5"/><text fill="#000000" font-family="sans-serif" font-size="12" lengthAdjust="spacing" textLength="52" x="559" y="83.6387">Manager</text><rect fill="#FFFFFF" height="15.9688" style="stroke:#000000;stroke-width:1.0;stroke-dasharray:2.0,2.0;" width="33" x="619" y="64.5"/><text fill="#000000" font-family="sans-serif" font-size="12" font-style="italic" lengthAdjust="spacing" textLength="31" x="620" y="76.6387">actor</text><line style="stroke:#A80036;stroke-width:1.5;" x1="557" x2="648" y1="91.4688" y2="91.4688"/><line style="stroke:#A80036;stroke-width:1.5;" x1="557" x2="648" y1="99.4688" y2="99.4688"/><text fill="#000000" font-family="sans-serif" font-size="11" lengthAdjust="spacing" textLength="32" x="562" y="113.6792">click()</text><!--MD5=[3fd616f346a44cd59a91eb10b19e157c]
class User--><rect codeLine="12" fill="#FEFECE" filter="url(#fjv3z45lbhfnv)" height="168.0156" id="User" style="stroke:#A80036;stroke-width:1.5;" width="77" x="1042" y="10"/><text fill="#000000" font-family="sans-serif" font-size="12" lengthAdjust="spacing" textLength="29" x="1048.5" y="26.1387">User</text><rect fill="#FFFFFF" height="15.9688" style="stroke:#000000;stroke-width:1.0;stroke-dasharray:2.0,2.0;" width="33" x="1089" y="7"/><text fill="#000000" font-family="sans-serif" font-size="12" font-style="italic" lengthAdjust="spacing" textLength="31" x="1090" y="19.1387">actor</text><line style="stroke:#A80036;stroke-width:1.5;" x1="1043" x2="1118" y1="33.9688" y2="33.9688"/><line style="stroke:#A80036;stroke-width:1.5;" x1="1043" x2="1118" y1="41.9688" y2="41.9688"/><text fill="#000000" font-family="sans-serif" font-size="11" lengthAdjust="spacing" textLength="46" x="1048" y="56.1792">search()</text><text fill="#000000" font-family="sans-serif" font-size="11" lengthAdjust="spacing" textLength="52" x="1048" y="68.9839">request()</text><text fill="#000000" font-family="sans-serif" font-size="11" lengthAdjust="spacing" textLength="27" x="1048" y="81.7886">get()</text><text fill="#000000" font-family="sans-serif" font-size="11" lengthAdjust="spacing" textLength="48" x="1048" y="94.5933">update()</text><text fill="#000000" font-family="sans-serif" font-size="11" lengthAdjust="spacing" textLength="42" x="1048" y="107.3979">return()</text><text fill="#000000" font-family="sans-serif" font-size="11" lengthAdjust="spacing" textLength="32" x="1048" y="120.2026">click()</text><text fill="#000000" font-family="sans-serif" font-size="11" lengthAdjust="spacing" textLength="35" x="1048" y="133.0073">view()</text><text fill="#000000" font-family="sans-serif" font-size="11" lengthAdjust="spacing" textLength="65" x="1048" y="145.812">check_out()</text><text fill="#000000" font-family="sans-serif" font-size="11" lengthAdjust="spacing" textLength="41" x="1048" y="158.6167">check()</text><text fill="#000000" font-family="sans-serif" font-size="11" lengthAdjust="spacing" textLength="49" x="1048" y="171.4214">browse()</text><!--MD5=[db6d18d8099558415abc41d00477ab92]
class Admin--><rect codeLine="26" fill="#FEFECE" filter="url(#fjv3z45lbhfnv)" height="91.1875" id="Admin" style="stroke:#A80036;stroke-width:1.5;" width="78" x="1574.5" y="48.5"/><text fill="#000000" font-family="sans-serif" font-size="12" lengthAdjust="spacing" textLength="37" x="1577.5" y="64.6387">Admin</text><rect fill="#FFFFFF" height="15.9688" style="stroke:#000000;stroke-width:1.0;stroke-dasharray:2.0,2.0;" width="33" x="1622.5" y="45.5"/><text fill="#000000" font-family="sans-serif" font-size="12" font-style="italic" lengthAdjust="spacing" textLength="31" x="1623.5" y="57.6387">actor</text><line style="stroke:#A80036;stroke-width:1.5;" x1="1575.5" x2="1651.5" y1="72.4688" y2="72.4688"/><line style="stroke:#A80036;stroke-width:1.5;" x1="1575.5" x2="1651.5" y1="80.4688" y2="80.4688"/><text fill="#000000" font-family="sans-serif" font-size="11" lengthAdjust="spacing" textLength="34" x="1580.5" y="94.6792">read()</text><text fill="#000000" font-family="sans-serif" font-size="11" lengthAdjust="spacing" textLength="29" x="1580.5" y="107.4839">add()</text><text fill="#000000" font-family="sans-serif" font-size="11" lengthAdjust="spacing" textLength="53" x="1580.5" y="120.2886">reserve()</text><text fill="#000000" font-family="sans-serif" font-size="11" lengthAdjust="spacing" textLength="50" x="1580.5" y="133.0933">change()</text><!--MD5=[088e4e9320e89326f9a23d710f3d105a]
class STEMInventory--><rect codeLine="24" fill="#FEFECE" filter="url(#fjv3z45lbhfnv)" height="39.9688" id="STEMInventory" style="stroke:#A80036;stroke-width:1.5;" width="94" x="1063.5" y="261.5"/><text fill="#000000" font-family="sans-serif" font-size="12" lengthAdjust="spacing" textLength="88" x="1066.5" y="277.6387">STEMInventory</text><line style="stroke:#A80036;stroke-width:1.5;" x1="1064.5" x2="1156.5" y1="285.4688" y2="285.4688"/><line style="stroke:#A80036;stroke-width:1.5;" x1="1064.5" x2="1156.5" y1="293.4688" y2="293.4688"/><!--MD5=[44a1b4afaef76c16e6c9ec4990ad0c8d]
class Item--><rect codeLine="32" fill="#FEFECE" filter="url(#fjv3z45lbhfnv)" height="52.7734" id="Item" style="stroke:#A80036;stroke-width:1.5;" width="35" x="1405" y="255"/><text fill="#000000" font-family="sans-serif" font-size="12" lengthAdjust="spacing" textLength="26" x="1409.5" y="271.1387">Item</text><line style="stroke:#A80036;stroke-width:1.5;" x1="1406" x2="1439" y1="278.9688" y2="278.9688"/><line style="stroke:#A80036;stroke-width:1.5;" x1="1406" x2="1439" y1="286.9688" y2="286.9688"/><text fill="#000000" font-family="sans-serif" font-size="11" lengthAdjust="spacing" textLength="23" x="1411" y="301.1792">be()</text><!--MD5=[2449a07004f88a39a49d8d677dad46f0]
class Availability--><rect codeLine="40" fill="#FEFECE" filter="url(#fjv3z45lbhfnv)" height="39.9688" id="Availability" style="stroke:#A80036;stroke-width:1.5;" width="69" x="269" y="261.5"/><text fill="#000000" font-family="sans-serif" font-size="12" lengthAdjust="spacing" textLength="63" x="272" y="277.6387">Availability</text><line style="stroke:#A80036;stroke-width:1.5;" x1="270" x2="337" y1="285.4688" y2="285.4688"/><line style="stroke:#A80036;stroke-width:1.5;" x1="270" x2="337" y1="293.4688" y2="293.4688"/><!--MD5=[9c46470aa33a0c75e6d1dfdefc2f9c22]
class Reservation--><rect codeLine="42" fill="#FEFECE" filter="url(#fjv3z45lbhfnv)" height="39.9688" id="Reservation" style="stroke:#A80036;stroke-width:1.5;" width="77" x="373" y="261.5"/><text fill="#000000" font-family="sans-serif" font-size="12" lengthAdjust="spacing" textLength="71" x="376" y="277.6387">Reservation</text><line style="stroke:#A80036;stroke-width:1.5;" x1="374" x2="449" y1="285.4688" y2="285.4688"/><line style="stroke:#A80036;stroke-width:1.5;" x1="374" x2="449" y1="293.4688" y2="293.4688"/><!--MD5=[24aa3ebe10184b1b924fd9e3c3b8a49f]
class ItemLog--><rect codeLine="44" fill="#FEFECE" filter="url(#fjv3z45lbhfnv)" height="39.9688" id="ItemLog" style="stroke:#A80036;stroke-width:1.5;" width="54" x="1710.5" y="261.5"/><text fill="#000000" font-family="sans-serif" font-size="12" lengthAdjust="spacing" textLength="48" x="1713.5" y="277.6387">ItemLog</text><line style="stroke:#A80036;stroke-width:1.5;" x1="1711.5" x2="1763.5" y1="285.4688" y2="285.4688"/><line style="stroke:#A80036;stroke-width:1.5;" x1="1711.5" x2="1763.5" y1="293.4688" y2="293.4688"/><!--MD5=[90ba54f54370e77ef24813dec6818fa3]
class Button--><rect codeLine="49" fill="#FEFECE" filter="url(#fjv3z45lbhfnv)" height="52.7734" id="Button" style="stroke:#A80036;stroke-width:1.5;" width="52" x="576.5" y="255"/><text fill="#000000" font-family="sans-serif" font-size="12" lengthAdjust="spacing" textLength="38" x="583.5" y="271.1387">Button</text><line style="stroke:#A80036;stroke-width:1.5;" x1="577.5" x2="627.5" y1="278.9688" y2="278.9688"/><line style="stroke:#A80036;stroke-width:1.5;" x1="577.5" x2="627.5" y1="286.9688" y2="286.9688"/><text fill="#000000" font-family="sans-serif" font-size="11" lengthAdjust="spacing" textLength="40" x="582.5" y="301.1792">email()</text><!--MD5=[418116f1606e0f248c8a6b420038ceb8]
class InventorySystem--><rect codeLine="55" fill="#FEFECE" filter="url(#fjv3z45lbhfnv)" height="39.9688" id="InventorySystem" style="stroke:#A80036;stroke-width:1.5;" width="107" x="7" y="261.5"/><text fill="#000000" font-family="sans-serif" font-size="12" lengthAdjust="spacing" textLength="101" x="10" y="277.6387">InventorySystem</text><line style="stroke:#A80036;stroke-width:1.5;" x1="8" x2="113" y1="285.4688" y2="285.4688"/><line style="stroke:#A80036;stroke-width:1.5;" x1="8" x2="113" y1="293.4688" y2="293.4688"/><!--MD5=[4f1f3706c1a355a8488e154afcaed5df]
class Location--><rect codeLine="57" fill="#FEFECE" filter="url(#fjv3z45lbhfnv)" height="39.9688" id="Location" style="stroke:#A80036;stroke-width:1.5;" width="56" x="485.5" y="261.5"/><text fill="#000000" font-family="sans-serif" font-size="12" lengthAdjust="spacing" textLength="50" x="488.5" y="277.6387">Location</text><line style="stroke:#A80036;stroke-width:1.5;" x1="486.5" x2="540.5" y1="285.4688" y2="285.4688"/><line style="stroke:#A80036;stroke-width:1.5;" x1="486.5" x2="540.5" y1="293.4688" y2="293.4688"/><!--MD5=[e3d83ec5fd90ea9f3f2bfe265cb53458]
class Status--><rect codeLine="59" fill="#FEFECE" filter="url(#fjv3z45lbhfnv)" height="39.9688" id="Status" style="stroke:#A80036;stroke-width:1.5;" width="43" x="1260" y="261.5"/><text fill="#000000" font-family="sans-serif" font-size="12" lengthAdjust="spacing" textLength="37" x="1263" y="277.6387">Status</text><line style="stroke:#A80036;stroke-width:1.5;" x1="1261" x2="1302" y1="285.4688" y2="285.4688"/><line style="stroke:#A80036;stroke-width:1.5;" x1="1261" x2="1302" y1="293.4688" y2="293.4688"/><!--MD5=[f9a29335b499db729be669fd1bd54958]
class Account--><rect codeLine="61" fill="#FEFECE" filter="url(#fjv3z45lbhfnv)" height="39.9688" id="Account" style="stroke:#A80036;stroke-width:1.5;" width="54" x="663.5" y="261.5"/><text fill="#000000" font-family="sans-serif" font-size="12" lengthAdjust="spacing" textLength="48" x="666.5" y="277.6387">Account</text><line style="stroke:#A80036;stroke-width:1.5;" x1="664.5" x2="716.5" y1="285.4688" y2="285.4688"/><line style="stroke:#A80036;stroke-width:1.5;" x1="664.5" x2="716.5" y1="293.4688" y2="293.4688"/><!--MD5=[3784c6daf2f1e07ecf082a66dd892343]
class Spreadsheet--><rect codeLine="63" fill="#FEFECE" filter="url(#fjv3z45lbhfnv)" height="39.9688" id="Spreadsheet" style="stroke:#A80036;stroke-width:1.5;" width="84" x="149.5" y="261.5"/><text fill="#000000" font-family="sans-serif" font-size="12" lengthAdjust="spacing" textLength="78" x="152.5" y="277.6387">Spreadsheet</text><line style="stroke:#A80036;stroke-width:1.5;" x1="150.5" x2="232.5" y1="285.4688" y2="285.4688"/><line style="stroke:#A80036;stroke-width:1.5;" x1="150.5" x2="232.5" y1="293.4688" y2="293.4688"/><!--MD5=[7e2bc2f128e759c5889ccd6a2666d576]
class EmailNotification--><rect codeLine="65" fill="#FEFECE" filter="url(#fjv3z45lbhfnv)" height="39.9688" id="EmailNotification" style="stroke:#A80036;stroke-width:1.5;" width="103" x="753" y="261.5"/><text fill="#000000" font-family="sans-serif" font-size="12" lengthAdjust="spacing" textLength="97" x="756" y="277.6387">EmailNotification</text><line style="stroke:#A80036;stroke-width:1.5;" x1="754" x2="855" y1="285.4688" y2="285.4688"/><line style="stroke:#A80036;stroke-width:1.5;" x1="754" x2="855" y1="293.4688" y2="293.4688"/><!--MD5=[3813445e07f7ee5d583a428701b0add1]
class Darin--><rect codeLine="67" fill="#FEFECE" filter="url(#fjv3z45lbhfnv)" height="52.7734" id="Darin" style="stroke:#A80036;stroke-width:1.5;" width="62" x="1687.5" y="67.5"/><text fill="#000000" font-family="sans-serif" font-size="12" lengthAdjust="spacing" textLength="31" x="1703" y="83.6387">Darin</text><line style="stroke:#A80036;stroke-width:1.5;" x1="1688.5" x2="1748.5" y1="91.4688" y2="91.4688"/><line style="stroke:#A80036;stroke-width:1.5;" x1="1688.5" x2="1748.5" y1="99.4688" y2="99.4688"/><text fill="#000000" font-family="sans-serif" font-size="11" lengthAdjust="spacing" textLength="50" x="1693.5" y="113.6792">reorder()</text><!--MD5=[ee084734eb3a5ffad99a0de9980f769b]
class Inventory--><rect codeLine="70" fill="#FEFECE" filter="url(#fjv3z45lbhfnv)" height="39.9688" id="Inventory" style="stroke:#A80036;stroke-width:1.5;" width="62" x="891.5" y="261.5"/><text fill="#000000" font-family="sans-serif" font-size="12" lengthAdjust="spacing" textLength="56" x="894.5" y="277.6387">Inventory</text><line style="stroke:#A80036;stroke-width:1.5;" x1="892.5" x2="952.5" y1="285.4688" y2="285.4688"/><line style="stroke:#A80036;stroke-width:1.5;" x1="892.5" x2="952.5" y1="293.4688" y2="293.4688"/><!--MD5=[028fba31e0312914fa4880b63f0540b8]
class Detail--><rect codeLine="72" fill="#FEFECE" filter="url(#fjv3z45lbhfnv)" height="39.9688" id="Detail" style="stroke:#A80036;stroke-width:1.5;" width="40" x="988.5" y="261.5"/><text fill="#000000" font-family="sans-serif" font-size="12" lengthAdjust="spacing" textLength="34" x="991.5" y="277.6387">Detail</text><line style="stroke:#A80036;stroke-width:1.5;" x1="989.5" x2="1027.5" y1="285.4688" y2="285.4688"/><line style="stroke:#A80036;stroke-width:1.5;" x1="989.5" x2="1027.5" y1="293.4688" y2="293.4688"/><!--MD5=[b91b34db93f8df6d7033da484763bb71]
link User to STEMInventory--><path codeLine="74" d="M1071.43,178.061 C1071.71,193.85 1073.4,210.0887 1077.5,225 C1080.62,236.3421 1086.72,247.7105 1092.84,257.1782 " fill="none" id="User-to-STEMInventory" style="stroke:#A80036;stroke-width:1.0;"/><polygon fill="#A80036" points="1095.65,261.3875,1093.9864,251.6802,1092.8767,257.2271,1087.3297,256.1175,1095.65,261.3875" style="stroke:#A80036;stroke-width:1.0;"/><text fill="#000000" font-family="sans-serif" font-size="13" lengthAdjust="spacing" textLength="47" x="1078.5" y="221.0669">browse</text><!--MD5=[cdb110ae26fa47a61557b7039637b8eb]
link Admin to ItemLog--><path codeLine="75" d="M1642.48,139.821 C1651.13,152.447 1660.87,166.004 1670.5,178 C1681.92,192.223 1687.87,193.18 1698.5,208 C1709.43,223.2339 1719.4,241.8908 1726.52,256.4634 " fill="none" id="Admin-to-ItemLog" style="stroke:#A80036;stroke-width:1.0;"/><polygon fill="#A80036" points="1728.82,261.2379,1728.5206,251.3936,1726.6514,256.7327,1721.3123,254.8634,1728.82,261.2379" style="stroke:#A80036;stroke-width:1.0;"/><text fill="#000000" font-family="sans-serif" font-size="13" lengthAdjust="spacing" textLength="29" x="1710.5" y="221.0669">read</text><!--MD5=[b59ec05fccf4ecb7c4fb4d6d1f74254f]
link Admin to Status--><path codeLine="76" d="M1574.45,133.427 C1543.56,162.038 1498.14,200.269 1452.5,225 C1404.63,250.9353 1342.61,267.2934 1307.94,275.0853 " fill="none" id="Admin-to-Status" style="stroke:#A80036;stroke-width:1.0;"/><polygon fill="#A80036" points="1303.03,276.1729,1312.6783,278.1505,1307.9138,275.101,1310.9633,270.3365,1303.03,276.1729" style="stroke:#A80036;stroke-width:1.0;"/><text fill="#000000" font-family="sans-serif" font-size="13" lengthAdjust="spacing" textLength="47" x="1478.5" y="221.0669">change</text><!--MD5=[e4fce08c0700eb7718c603a02b774243]
link User to Inventory--><path codeLine="77" d="M1041.91,133.593 C1021.21,154.912 995.675,182.23 974.5,208 C961.578,223.7263 948.221,242.4103 938.28,256.872 " fill="none" id="User-to-Inventory" style="stroke:#A80036;stroke-width:1.0;"/><polygon fill="#A80036" points="935.309,261.2166,943.6913,256.0458,938.1316,257.0895,937.0879,251.5297,935.309,261.2166" style="stroke:#A80036;stroke-width:1.0;"/><text fill="#000000" font-family="sans-serif" font-size="13" lengthAdjust="spacing" textLength="45" x="975.5" y="221.0669">update</text><!--MD5=[8e80922e33f05c5fc9e20570b2b387e8]
link Manager to Button--><path codeLine="78" d="M602.5,120.793 C602.5,154.572 602.5,213.7219 602.5,249.7794 " fill="none" id="Manager-to-Button" style="stroke:#A80036;stroke-width:1.0;"/><polygon fill="#A80036" points="602.5,254.9261,606.5,245.9261,602.5,249.9261,598.5,245.9261,602.5,254.9261" style="stroke:#A80036;stroke-width:1.0;"/><text fill="#000000" font-family="sans-serif" font-size="13" lengthAdjust="spacing" textLength="27" x="603.5" y="221.0669">click</text><!--MD5=[570ec5c4e8a1dd44e7fcb71a8cfc57a6]
link User to Detail--><path codeLine="79" d="M1046.19,178.152 C1042.18,188.184 1038.21,198.307 1034.5,208 C1028.37,224.0167 1021.86,242.1812 1016.88,256.3218 " fill="none" id="User-to-Detail" style="stroke:#A80036;stroke-width:1.0;"/><polygon fill="#A80036" points="1015.12,261.338,1021.8754,254.1711,1016.7762,256.6203,1014.327,251.5211,1015.12,261.338" style="stroke:#A80036;stroke-width:1.0;"/><text fill="#000000" font-family="sans-serif" font-size="13" lengthAdjust="spacing" textLength="30" x="1035.5" y="221.0669">view</text><!--MD5=[0c33994447a5a115d17347b31ff58a4b]
link Admin to Item--><path codeLine="80" d="M1623.48,139.788 C1626.89,167.148 1625.99,201.312 1607.5,225 C1568.31,275.2168 1485.41,281.4669 1445.25,281.3502 " fill="none" id="Admin-to-Item" style="stroke:#A80036;stroke-width:1.0;"/><polygon fill="#A80036" points="1440.11,281.2994,1449.0637,285.402,1445.1097,281.3565,1449.1551,277.4025,1440.11,281.2994" style="stroke:#A80036;stroke-width:1.0;"/><text fill="#000000" font-family="sans-serif" font-size="13" lengthAdjust="spacing" textLength="49" x="1616.5" y="221.0669">reserve</text><!--MD5=[0c33994447a5a115d17347b31ff58a4b]
link Admin to Item--><path codeLine="86" d="M1597.12,139.674 C1585.18,167.161 1566.68,201.505 1541.5,225 C1513.53,251.0956 1471.09,266.8275 1445.18,274.5695 " fill="none" id="Admin-to-Item-1" style="stroke:#A80036;stroke-width:1.0;"/><polygon fill="#A80036" points="1440.22,276.0121,1449.98,277.3324,1445.02,274.6123,1447.7402,269.6523,1440.22,276.0121" style="stroke:#A80036;stroke-width:1.0;"/><text fill="#000000" font-family="sans-serif" font-size="13" lengthAdjust="spacing" textLength="24" x="1556.5" y="221.0669">add</text><!--MD5=[b5993653948353ed090904e21ea229e1]
link Volunteer to Availability--><path codeLine="81" d="M389.122,133.436 C367.451,170.658 335.289,225.8993 317.18,257.003 " fill="none" id="Volunteer-to-Availability" style="stroke:#A80036;stroke-width:1.0;"/><polygon fill="#A80036" points="314.613,261.4119,322.5987,255.6475,317.1292,257.0911,315.6855,251.6216,314.613,261.4119" style="stroke:#A80036;stroke-width:1.0;"/><text fill="#000000" font-family="sans-serif" font-size="13" lengthAdjust="spacing" textLength="37" x="346.5" y="221.0669">check</text><!--MD5=[77cfcb1ce686d639604f9167002585b9]
link Developer to InventorySystem--><path codeLine="82" d="M117.323,120.793 C104.5281,156.754 81.5023,221.4708 69.0512,256.4659 " fill="none" id="Developer-to-InventorySystem" style="stroke:#A80036;stroke-width:1.0;"/><polygon fill="#A80036" points="67.2934,261.4065,74.079,254.2682,68.9695,256.6958,66.5419,251.5864,67.2934,261.4065" style="stroke:#A80036;stroke-width:1.0;"/><text fill="#000000" font-family="sans-serif" font-size="13" lengthAdjust="spacing" textLength="42" x="87.5" y="221.0669">import</text><!--MD5=[53a588df3f5f0f7f452d1b4562b14650]
link User to Item--><path codeLine="83" d="M1119.22,130 C1152.73,158.782 1203.54,198.934 1253.5,225 C1302.88,250.762 1366.56,267.7711 1399.89,275.5739 " fill="none" id="User-to-Item" style="stroke:#A80036;stroke-width:1.0;"/><polygon fill="#A80036" points="1404.97,276.7471,1397.1049,270.8192,1400.099,275.6187,1395.2995,278.6128,1404.97,276.7471" style="stroke:#A80036;stroke-width:1.0;"/><text fill="#000000" font-family="sans-serif" font-size="13" lengthAdjust="spacing" textLength="39" x="1254.5" y="221.0669">return</text><!--MD5=[53a588df3f5f0f7f452d1b4562b14650]
link User to Item--><path codeLine="85" d="M1119.01,114.217 C1162.82,136.248 1236.34,173.744 1298.5,208 C1334.48,227.8278 1375.51,252.161 1400.18,266.9893 " fill="none" id="User-to-Item-1" style="stroke:#A80036;stroke-width:1.0;"/><polygon fill="#A80036" points="1404.59,269.6442,1398.9319,261.5829,1400.303,267.071,1394.8148,268.4421,1404.59,269.6442" style="stroke:#A80036;stroke-width:1.0;"/><text fill="#000000" font-family="sans-serif" font-size="13" lengthAdjust="spacing" textLength="43" x="1327.5" y="221.0669">search</text><!--MD5=[53a588df3f5f0f7f452d1b4562b14650]
link User to Item--><path codeLine="89" d="M1119.09,101.114 C1180.39,112.533 1301.09,142.167 1379.5,208 C1392.79,219.1592 1403,235.5383 1410.12,249.9061 " fill="none" id="User-to-Item-2" style="stroke:#A80036;stroke-width:1.0;"/><polygon fill="#A80036" points="1412.42,254.6911,1412.1226,244.8467,1410.2523,250.1854,1404.9136,248.3151,1412.42,254.6911" style="stroke:#A80036;stroke-width:1.0;"/><text fill="#000000" font-family="sans-serif" font-size="13" lengthAdjust="spacing" textLength="27" x="1396.5" y="221.0669">click</text><!--MD5=[b1a786bad21caa5949445ef60c77957d]
link Volunteer to Location--><path codeLine="84" d="M432.634,133.436 C453.102,170.658 483.477,225.8993 500.58,257.003 " fill="none" id="Volunteer-to-Location" style="stroke:#A80036;stroke-width:1.0;"/><polygon fill="#A80036" points="503.004,261.4119,502.1725,251.5982,500.5948,257.0306,495.1624,255.4529,503.004,261.4119" style="stroke:#A80036;stroke-width:1.0;"/><text fill="#000000" font-family="sans-serif" font-size="13" lengthAdjust="spacing" textLength="37" x="482.5" y="221.0669">check</text><!--MD5=[9acc32825fcbd67eb847476300da9d21]
link User to Status--><path codeLine="87" d="M1119.17,168.222 C1132.26,188.384 1148.26,209.0665 1166.5,225 C1192.64,247.8335 1229.82,263.4965 1254.76,272.2193 " fill="none" id="User-to-Status" style="stroke:#A80036;stroke-width:1.0;"/><polygon fill="#A80036" points="1259.58,273.8714,1252.3545,267.1787,1254.848,272.2563,1249.7704,274.7499,1259.58,273.8714" style="stroke:#A80036;stroke-width:1.0;"/><text fill="#000000" font-family="sans-serif" font-size="13" lengthAdjust="spacing" textLength="45" x="1167.5" y="221.0669">update</text><!--MD5=[42403f8cb00a1816f7bb5566a73f0503]
link User to EmailNotification--><path codeLine="88" d="M1041.83,120.988 C987.143,157.746 888.175,224.2622 837.039,258.6305 " fill="none" id="User-to-EmailNotification" style="stroke:#A80036;stroke-width:1.0;"/><polygon fill="#A80036" points="832.842,261.4515,842.5427,259.7496,836.9914,258.6618,838.0792,253.1105,832.842,261.4515" style="stroke:#A80036;stroke-width:1.0;"/><text fill="#000000" font-family="sans-serif" font-size="13" lengthAdjust="spacing" textLength="21" x="911.5" y="221.0669">get</text><!--MD5=[87e802f94dff5db0b14b612664619da8]
link User to Account--><path codeLine="90" d="M1041.95,111.576 C977.628,139.518 844.717,198.493 735.5,255 C731.193,257.2282 726.701,259.651 722.294,262.0872 " fill="none" id="User-to-Account" style="stroke:#A80036;stroke-width:1.0;"/><polygon fill="#A80036" points="717.924,264.5211,727.733,263.6363,722.2922,262.0882,723.8403,256.6473,717.924,264.5211" style="stroke:#A80036;stroke-width:1.0;"/><text fill="#000000" font-family="sans-serif" font-size="13" lengthAdjust="spacing" textLength="49" x="830.5" y="221.0669">request</text><!--MD5=[fbdffb236416bd2d42dd13dbb3b60295]
link Developer to Spreadsheet--><path codeLine="91" d="M135.538,120.793 C148.139,156.754 170.816,221.4708 183.078,256.4659 " fill="none" id="Developer-to-Spreadsheet" style="stroke:#A80036;stroke-width:1.0;"/><polygon fill="#A80036" points="184.81,261.4065,185.6096,251.5902,183.157,256.6877,178.0595,254.235,184.81,261.4065" style="stroke:#A80036;stroke-width:1.0;"/><text fill="#000000" font-family="sans-serif" font-size="13" lengthAdjust="spacing" textLength="42" x="171.5" y="221.0669">import</text><!--MD5=[985973f9e03e409a5b242353e3e71768]
link Volunteer to Reservation--><path codeLine="92" d="M411.5,133.436 C411.5,170.353 411.5,224.9949 411.5,256.2333 " fill="none" id="Volunteer-to-Reservation" style="stroke:#A80036;stroke-width:1.0;"/><polygon fill="#A80036" points="411.5,261.4119,415.5,252.4119,411.5,256.4119,407.5,252.4119,411.5,261.4119" style="stroke:#A80036;stroke-width:1.0;"/><text fill="#000000" font-family="sans-serif" font-size="13" lengthAdjust="spacing" textLength="30" x="412.5" y="221.0669">view</text><!--MD5=[47e0b17d96ac8671f6fe57bdfd9e029c]
@startuml
hide circle
class Developer<actor> {
}
class Volunteer<actor> {
}
class Manager<actor> {
}
class User<actor> {
}
class Admin<actor> {
}
class User {
	search()
	request()
	get()
	update()
	return()
	click()
	view()
	check_out()
	check()
	browse()
}
class STEMInventory {
}
class Admin {
	read()
	add()
	reserve()
	change()
}
class Item {
	be()
}
class Volunteer {
	view()
	manage()
	check()
}
class Availability {
}
class Reservation {
}
class ItemLog {
}
class Manager {
	click()
}
class Button {
	email()
}
class Developer {
	import()
}
class InventorySystem {
}
class Location {
}
class Status {
}
class Account {
}
class Spreadsheet {
}
class EmailNotification {
}
class Darin {
	reorder()
}
class Inventory {
}
class Detail {
}
User - -> STEMInventory : browse
Admin - -> ItemLog : read
Admin - -> Status : change
User - -> Inventory : update
Manager - -> Button : click
User - -> Detail : view
Admin - -> Item : reserve
Volunteer - -> Availability : check
Developer - -> InventorySystem : import
User - -> Item : return
Volunteer - -> Location : check
User - -> Item : search
Admin - -> Item : add
User - -> Status : update
User - -> EmailNotification : get
User - -> Item : click
User - -> Account : request
Developer - -> Spreadsheet : import
Volunteer - -> Reservation : view
@enduml

PlantUML version 1.2021.9beta2(Unknown compile time)
(GPL source distribution)
Java Runtime: Java(TM) SE Runtime Environment
JVM: Java HotSpot(TM) 64-Bit Server VM
Default Encoding: UTF-8
Language: en
Country: US
--></g></svg>