<?xml version="1.0" encoding="UTF-8" standalone="no"?><svg xmlns="http://www.w3.org/2000/svg" xmlns:xlink="http://www.w3.org/1999/xlink" contentScriptType="application/ecmascript" contentStyleType="text/css" height="425px" preserveAspectRatio="none" style="width:1151px;height:425px;background:#FFFFFF;" version="1.1" viewBox="0 0 1151 425" width="1151px" zoomAndPan="magnify"><defs><filter height="300%" id="fv58nr7xwx0ih" width="300%" x="-1" y="-1"><feGaussianBlur result="blurOut" stdDeviation="2.0"/><feColorMatrix in="blurOut" result="blurOut2" type="matrix" values="0 0 0 0 0 0 0 0 0 0 0 0 0 0 0 0 0 0 .4 0"/><feOffset dx="4.0" dy="4.0" in="blurOut2" result="blurOut3"/><feBlend in="SourceGraphic" in2="blurOut3" mode="normal"/></filter></defs><g><!--MD5=[da547346deef918ea16944ba046651ef]
class Administrator--><rect codeLine="10" fill="#FEFECE" filter="url(#fv58nr7xwx0ih)" height="116.7969" id="Administrator" style="stroke:#A80036;stroke-width:1.5;" width="121" x="280.5" y="165"/><text fill="#000000" font-family="sans-serif" font-size="12" lengthAdjust="spacing" textLength="80" x="283.5" y="181.1387">Administrator</text><rect fill="#FFFFFF" height="15.9688" style="stroke:#000000;stroke-width:1.0;stroke-dasharray:2.0,2.0;" width="33" x="371.5" y="162"/><text fill="#000000" font-family="sans-serif" font-size="12" font-style="italic" lengthAdjust="spacing" textLength="31" x="372.5" y="174.1387">actor</text><line style="stroke:#A80036;stroke-width:1.5;" x1="281.5" x2="400.5" y1="188.9688" y2="188.9688"/><line style="stroke:#A80036;stroke-width:1.5;" x1="281.5" x2="400.5" y1="196.9688" y2="196.9688"/><text fill="#000000" font-family="sans-serif" font-size="11" lengthAdjust="spacing" textLength="45" x="286.5" y="211.1792">create()</text><text fill="#000000" font-family="sans-serif" font-size="11" lengthAdjust="spacing" textLength="30" x="286.5" y="223.9839">see()</text><text fill="#000000" font-family="sans-serif" font-size="11" lengthAdjust="spacing" textLength="39" x="286.5" y="236.7886">enter()</text><text fill="#000000" font-family="sans-serif" font-size="11" lengthAdjust="spacing" textLength="30" x="286.5" y="249.5933">lock()</text><text fill="#000000" font-family="sans-serif" font-size="11" lengthAdjust="spacing" textLength="29" x="286.5" y="262.3979">add()</text><text fill="#000000" font-family="sans-serif" font-size="11" lengthAdjust="spacing" textLength="44" x="286.5" y="275.2026">assign()</text><!--MD5=[8efdeb80806bcb4484b32c9018cd5511]
class HouseManager--><rect codeLine="23" fill="#FEFECE" filter="url(#fv58nr7xwx0ih)" height="78.3828" id="HouseManager" style="stroke:#A80036;stroke-width:1.5;" width="132" x="748" y="10"/><text fill="#000000" font-family="sans-serif" font-size="12" lengthAdjust="spacing" textLength="91" x="751" y="26.1387">HouseManager</text><rect fill="#FFFFFF" height="15.9688" style="stroke:#000000;stroke-width:1.0;stroke-dasharray:2.0,2.0;" width="33" x="850" y="7"/><text fill="#000000" font-family="sans-serif" font-size="12" font-style="italic" lengthAdjust="spacing" textLength="31" x="851" y="19.1387">actor</text><line style="stroke:#A80036;stroke-width:1.5;" x1="749" x2="879" y1="33.9688" y2="33.9688"/><line style="stroke:#A80036;stroke-width:1.5;" x1="749" x2="879" y1="41.9688" y2="41.9688"/><text fill="#000000" font-family="sans-serif" font-size="11" lengthAdjust="spacing" textLength="43" x="754" y="56.1792">select()</text><text fill="#000000" font-family="sans-serif" font-size="11" lengthAdjust="spacing" textLength="29" x="754" y="68.9839">add()</text><text fill="#000000" font-family="sans-serif" font-size="11" lengthAdjust="spacing" textLength="46" x="754" y="81.7886">delete()</text><!--MD5=[5005bba8c6d1dda988b0bcc8eba409f6]
class House--><rect codeLine="6" fill="#FEFECE" filter="url(#fv58nr7xwx0ih)" height="39.9688" id="House" style="stroke:#A80036;stroke-width:1.5;" width="80" x="915" y="29"/><text fill="#000000" font-family="sans-serif" font-size="12" lengthAdjust="spacing" textLength="39" x="918" y="45.1387">House</text><rect fill="#FFFFFF" height="15.9688" style="stroke:#000000;stroke-width:1.0;stroke-dasharray:2.0,2.0;" width="33" x="965" y="26"/><text fill="#000000" font-family="sans-serif" font-size="12" font-style="italic" lengthAdjust="spacing" textLength="31" x="966" y="38.1387">actor</text><line style="stroke:#A80036;stroke-width:1.5;" x1="916" x2="994" y1="52.9688" y2="52.9688"/><line style="stroke:#A80036;stroke-width:1.5;" x1="916" x2="994" y1="60.9688" y2="60.9688"/><!--MD5=[9190320e8679ef06bbaf802ee6dd1bb7]
class HouseStaff--><rect codeLine="8" fill="#FEFECE" filter="url(#fv58nr7xwx0ih)" height="39.9688" id="HouseStaff" style="stroke:#A80036;stroke-width:1.5;" width="107" x="1030.5" y="29"/><text fill="#000000" font-family="sans-serif" font-size="12" lengthAdjust="spacing" textLength="66" x="1033.5" y="45.1387">HouseStaff</text><rect fill="#FFFFFF" height="15.9688" style="stroke:#000000;stroke-width:1.0;stroke-dasharray:2.0,2.0;" width="33" x="1107.5" y="26"/><text fill="#000000" font-family="sans-serif" font-size="12" font-style="italic" lengthAdjust="spacing" textLength="31" x="1108.5" y="38.1387">actor</text><line style="stroke:#A80036;stroke-width:1.5;" x1="1031.5" x2="1136.5" y1="52.9688" y2="52.9688"/><line style="stroke:#A80036;stroke-width:1.5;" x1="1031.5" x2="1136.5" y1="60.9688" y2="60.9688"/><!--MD5=[70a93e40820e09fe6c82aea962bef208]
class Hub--><rect codeLine="18" fill="#FEFECE" filter="url(#fv58nr7xwx0ih)" height="39.9688" id="Hub" style="stroke:#A80036;stroke-width:1.5;" width="30" x="7" y="365.5"/><text fill="#000000" font-family="sans-serif" font-size="12" lengthAdjust="spacing" textLength="24" x="10" y="381.6387">Hub</text><line style="stroke:#A80036;stroke-width:1.5;" x1="8" x2="36" y1="389.4688" y2="389.4688"/><line style="stroke:#A80036;stroke-width:1.5;" x1="8" x2="36" y1="397.4688" y2="397.4688"/><!--MD5=[ba580110b1777f63e0f1dfe3fcefdac0]
class Code--><rect codeLine="20" fill="#FEFECE" filter="url(#fv58nr7xwx0ih)" height="52.7734" id="Code" style="stroke:#A80036;stroke-width:1.5;" width="42" x="697" y="359"/><text fill="#000000" font-family="sans-serif" font-size="12" lengthAdjust="spacing" textLength="32" x="702" y="375.1387">Code</text><line style="stroke:#A80036;stroke-width:1.5;" x1="698" x2="738" y1="382.9688" y2="382.9688"/><line style="stroke:#A80036;stroke-width:1.5;" x1="698" x2="738" y1="390.9688" y2="390.9688"/><text fill="#000000" font-family="sans-serif" font-size="11" lengthAdjust="spacing" textLength="30" x="703" y="405.1792">edit()</text><!--MD5=[05bef9715505055a435a5b60deea392b]
class Lock--><rect codeLine="28" fill="#FEFECE" filter="url(#fv58nr7xwx0ih)" height="65.5781" id="Lock" style="stroke:#A80036;stroke-width:1.5;" width="79" x="625.5" y="190.5"/><text fill="#000000" font-family="sans-serif" font-size="12" lengthAdjust="spacing" textLength="28" x="651" y="206.6387">Lock</text><line style="stroke:#A80036;stroke-width:1.5;" x1="626.5" x2="703.5" y1="214.4688" y2="214.4688"/><line style="stroke:#A80036;stroke-width:1.5;" x1="626.5" x2="703.5" y1="222.4688" y2="222.4688"/><text fill="#000000" font-family="sans-serif" font-size="11" lengthAdjust="spacing" textLength="67" x="631.5" y="236.6792">adddelete()</text><text fill="#000000" font-family="sans-serif" font-size="11" lengthAdjust="spacing" textLength="29" x="631.5" y="249.4839">add()</text><!--MD5=[02aa40bb5c87b8142412beed1297aa29]
class SmartThingsClientId--><rect codeLine="32" fill="#FEFECE" filter="url(#fv58nr7xwx0ih)" height="39.9688" id="SmartThingsClientId" style="stroke:#A80036;stroke-width:1.5;" width="124" x="72" y="365.5"/><text fill="#000000" font-family="sans-serif" font-size="12" lengthAdjust="spacing" textLength="118" x="75" y="381.6387">SmartThingsClientId</text><line style="stroke:#A80036;stroke-width:1.5;" x1="73" x2="195" y1="389.4688" y2="389.4688"/><line style="stroke:#A80036;stroke-width:1.5;" x1="73" x2="195" y1="397.4688" y2="397.4688"/><!--MD5=[5a5a8b3a661705821451d8f0afdb3b5f]
class Secret--><rect codeLine="34" fill="#FEFECE" filter="url(#fv58nr7xwx0ih)" height="39.9688" id="Secret" style="stroke:#A80036;stroke-width:1.5;" width="46" x="231" y="365.5"/><text fill="#000000" font-family="sans-serif" font-size="12" lengthAdjust="spacing" textLength="40" x="234" y="381.6387">Secret</text><line style="stroke:#A80036;stroke-width:1.5;" x1="232" x2="276" y1="389.4688" y2="389.4688"/><line style="stroke:#A80036;stroke-width:1.5;" x1="232" x2="276" y1="397.4688" y2="397.4688"/><!--MD5=[e95eab5e4529425f30cd75fab835797b]
class Other--><rect codeLine="36" fill="#FEFECE" filter="url(#fv58nr7xwx0ih)" height="39.9688" id="Other" style="stroke:#A80036;stroke-width:1.5;" width="40" x="794" y="203.5"/><text fill="#000000" font-family="sans-serif" font-size="12" lengthAdjust="spacing" textLength="34" x="797" y="219.6387">Other</text><line style="stroke:#A80036;stroke-width:1.5;" x1="795" x2="833" y1="227.4688" y2="227.4688"/><line style="stroke:#A80036;stroke-width:1.5;" x1="795" x2="833" y1="235.4688" y2="235.4688"/><!--MD5=[070a5cd582cb551161794c772ee9c1f2]
class locks--><rect codeLine="38" fill="#FEFECE" filter="url(#fv58nr7xwx0ih)" height="52.7734" id="locks" style="stroke:#A80036;stroke-width:1.5;" width="79" x="869.5" y="197"/><text fill="#000000" font-family="sans-serif" font-size="12" lengthAdjust="spacing" textLength="32" x="893" y="213.1387">locks</text><line style="stroke:#A80036;stroke-width:1.5;" x1="870.5" x2="947.5" y1="220.9688" y2="220.9688"/><line style="stroke:#A80036;stroke-width:1.5;" x1="870.5" x2="947.5" y1="228.9688" y2="228.9688"/><text fill="#000000" font-family="sans-serif" font-size="11" lengthAdjust="spacing" textLength="67" x="875.5" y="243.1792">adddelete()</text><!--MD5=[b24ed8d4ae84bae9290d9aab401637c7]
class Manager--><rect codeLine="41" fill="#FEFECE" filter="url(#fv58nr7xwx0ih)" height="39.9688" id="Manager" style="stroke:#A80036;stroke-width:1.5;" width="58" x="312" y="365.5"/><text fill="#000000" font-family="sans-serif" font-size="12" lengthAdjust="spacing" textLength="52" x="315" y="381.6387">Manager</text><line style="stroke:#A80036;stroke-width:1.5;" x1="313" x2="369" y1="389.4688" y2="389.4688"/><line style="stroke:#A80036;stroke-width:1.5;" x1="313" x2="369" y1="397.4688" y2="397.4688"/><!--MD5=[e3d83ec5fd90ea9f3f2bfe265cb53458]
class Status--><rect codeLine="43" fill="#FEFECE" filter="url(#fv58nr7xwx0ih)" height="39.9688" id="Status" style="stroke:#A80036;stroke-width:1.5;" width="43" x="405.5" y="365.5"/><text fill="#000000" font-family="sans-serif" font-size="12" lengthAdjust="spacing" textLength="37" x="408.5" y="381.6387">Status</text><line style="stroke:#A80036;stroke-width:1.5;" x1="406.5" x2="447.5" y1="389.4688" y2="389.4688"/><line style="stroke:#A80036;stroke-width:1.5;" x1="406.5" x2="447.5" y1="397.4688" y2="397.4688"/><!--MD5=[41314a0efc36828092cff9ebad2fcafd]
class Group--><rect codeLine="45" fill="#FEFECE" filter="url(#fv58nr7xwx0ih)" height="39.9688" id="Group" style="stroke:#A80036;stroke-width:1.5;" width="43" x="483.5" y="365.5"/><text fill="#000000" font-family="sans-serif" font-size="12" lengthAdjust="spacing" textLength="37" x="486.5" y="381.6387">Group</text><line style="stroke:#A80036;stroke-width:1.5;" x1="484.5" x2="525.5" y1="389.4688" y2="389.4688"/><line style="stroke:#A80036;stroke-width:1.5;" x1="484.5" x2="525.5" y1="397.4688" y2="397.4688"/><!--MD5=[4ff5c959c9ec39df38db2f53da54cf67]
link Lock to Code--><path codeLine="47" d="M657.38,256.839 C653.943,278.148 652.503,306.216 662,329 C668.34,344.2106 681.102,357.3891 692.844,367.083 " fill="none" id="Lock-to-Code" style="stroke:#A80036;stroke-width:1.0;"/><polygon fill="#A80036" points="696.776,370.2348,692.2552,361.4848,692.8746,367.1077,687.2517,367.7271,696.776,370.2348" style="stroke:#A80036;stroke-width:1.0;"/><text fill="#000000" font-family="sans-serif" font-size="13" lengthAdjust="spacing" textLength="64" x="663" y="325.0669">adddelete</text><!--MD5=[4ff5c959c9ec39df38db2f53da54cf67]
link Lock to Code--><path codeLine="58" d="M697.866,256.738 C711.193,272.076 725.061,291.524 732,312 C736.54,325.3979 734.565,340.7166 730.848,353.8107 " fill="none" id="Lock-to-Code-1" style="stroke:#A80036;stroke-width:1.0;"/><polygon fill="#A80036" points="729.286,358.8979,735.7505,351.4676,730.753,354.1179,728.1026,349.1204,729.286,358.8979" style="stroke:#A80036;stroke-width:1.0;"/><text fill="#000000" font-family="sans-serif" font-size="13" lengthAdjust="spacing" textLength="24" x="735" y="325.0669">add</text><!--MD5=[db6a50a2d811e4385806fa904a620d61]
link locks to Code--><path codeLine="48" d="M885.027,250.167 C875.104,260.392 863.294,272.067 852,282 C815.883,313.7646 770.964,346.9538 743.396,366.6696 " fill="none" id="locks-to-Code" style="stroke:#A80036;stroke-width:1.0;"/><polygon fill="#A80036" points="739.125,369.7159,748.7751,367.7472,743.1959,366.8129,744.1303,361.2337,739.125,369.7159" style="stroke:#A80036;stroke-width:1.0;"/><text fill="#000000" font-family="sans-serif" font-size="13" lengthAdjust="spacing" textLength="64" x="813" y="325.0669">adddelete</text><!--MD5=[cc5c532db1925b50be75e52ee7971c1e]
link Lock to Lock--><path codeLine="49" d="M704.856,205.856 C723.346,203.931 739.5,209.812 739.5,223.5 C739.5,235.904 726.233,241.897 709.984,241.48 " fill="none" id="Lock-to-Lock" style="stroke:#A80036;stroke-width:1.0;"/><polygon fill="#A80036" points="704.856,241.144,713.575,245.7242,709.8453,241.4711,714.0984,237.7413,704.856,241.144" style="stroke:#A80036;stroke-width:1.0;"/><text fill="#000000" font-family="sans-serif" font-size="13" lengthAdjust="spacing" textLength="24" x="745.5" y="228.0669">add</text><!--MD5=[f244739aa2a508a11197a1f777a0dfc8]
link Administrator to Secret--><path codeLine="50" d="M309.591,282.264 C294.84,309.393 278.073,340.2278 266.846,360.8751 " fill="none" id="Administrator-to-Secret" style="stroke:#A80036;stroke-width:1.0;"/><polygon fill="#A80036" points="264.397,365.379,272.2103,359.383,266.7855,360.9864,265.1821,355.5615,264.397,365.379" style="stroke:#A80036;stroke-width:1.0;"/><text fill="#000000" font-family="sans-serif" font-size="13" lengthAdjust="spacing" textLength="34" x="294" y="325.0669">enter</text><!--MD5=[f4448d3343ebd66d0ec8ea5a421f335b]
link HouseManager to Lock--><path codeLine="51" d="M780.932,88.283 C755.578,117.636 720.837,157.857 696.011,186.599 " fill="none" id="HouseManager-to-Lock" style="stroke:#A80036;stroke-width:1.0;"/><polygon fill="#A80036" points="692.728,190.398,701.6372,186.1996,695.9955,186.6133,695.5817,180.9716,692.728,190.398" style="stroke:#A80036;stroke-width:1.0;"/><text fill="#000000" font-family="sans-serif" font-size="13" lengthAdjust="spacing" textLength="38" x="753" y="131.0669">select</text><!--MD5=[bc393ba6385e62778a0f601524087b7d]
link Administrator to Group--><path codeLine="52" d="M401.34,282.255 C411.599,292.15 422.125,302.35 432,312 C448.959,328.5724 467.959,347.4526 482.323,361.7908 " fill="none" id="Administrator-to-Group" style="stroke:#A80036;stroke-width:1.0;"/><polygon fill="#A80036" points="485.871,365.3341,482.3288,356.1443,482.3329,361.8011,476.676,361.8053,485.871,365.3341" style="stroke:#A80036;stroke-width:1.0;"/><text fill="#000000" font-family="sans-serif" font-size="13" lengthAdjust="spacing" textLength="41" x="450" y="325.0669">create</text><!--MD5=[5674770d1130ff0f4c69ca145fbb4d93]
link Administrator to Hub--><path codeLine="53" d="M280.347,248.037 C220.753,272.275 128.218,312.929 54,359 C49.6545,361.6975 45.2221,364.8948 41.0954,368.0973 " fill="none" id="Administrator-to-Hub" style="stroke:#A80036;stroke-width:1.0;"/><polygon fill="#A80036" points="37.0851,371.2832,46.6202,368.817,41.0001,368.1731,41.644,362.553,37.0851,371.2832" style="stroke:#A80036;stroke-width:1.0;"/><text fill="#000000" font-family="sans-serif" font-size="13" lengthAdjust="spacing" textLength="23" x="139" y="325.0669">see</text><!--MD5=[9523404766bc26aad34fb557a77aecdd]
link Code to Code--><path codeLine="54" d="M739.26,375.1875 C756.354,371.0625 774,374.5 774,385.5 C774,395.3828 759.756,399.1613 744.466,396.8353 " fill="none" id="Code-to-Code" style="stroke:#A80036;stroke-width:1.0;"/><polygon fill="#A80036" points="739.26,395.8125,747.3212,401.4708,744.1664,396.7754,748.8618,393.6206,739.26,395.8125" style="stroke:#A80036;stroke-width:1.0;"/><text fill="#000000" font-family="sans-serif" font-size="13" lengthAdjust="spacing" textLength="24" x="780" y="390.0669">edit</text><!--MD5=[64d713fdb760e3b6b59069371d93ba85]
link Administrator to Manager--><path codeLine="55" d="M341,282.264 C341,309.165 341,339.7098 341,360.3525 " fill="none" id="Administrator-to-Manager" style="stroke:#A80036;stroke-width:1.0;"/><polygon fill="#A80036" points="341,365.379,345,356.379,341,360.379,337,356.379,341,365.379" style="stroke:#A80036;stroke-width:1.0;"/><text fill="#000000" font-family="sans-serif" font-size="13" lengthAdjust="spacing" textLength="24" x="342" y="325.0669">add</text><!--MD5=[350e9556c2a62c82681a8426143e09ba]
link HouseManager to Other--><path codeLine="56" d="M814,88.283 C814,121.922 814,169.835 814,198.386 " fill="none" id="HouseManager-to-Other" style="stroke:#A80036;stroke-width:1.0;"/><polygon fill="#A80036" points="814,203.484,818,194.484,814,198.484,810,194.484,814,203.484" style="stroke:#A80036;stroke-width:1.0;"/><text fill="#000000" font-family="sans-serif" font-size="13" lengthAdjust="spacing" textLength="24" x="815" y="131.0669">add</text><!--MD5=[fe9394be1525cdb3f526abafa2dbaa12]
link Administrator to SmartThingsClientId--><path codeLine="57" d="M280.292,271.424 C241.474,301.428 192.909,338.9665 162.665,362.3438 " fill="none" id="Administrator-to-SmartThingsClientId" style="stroke:#A80036;stroke-width:1.0;"/><polygon fill="#A80036" points="158.704,365.405,168.2713,363.0668,162.6603,362.3476,163.3795,356.7367,158.704,365.405" style="stroke:#A80036;stroke-width:1.0;"/><text fill="#000000" font-family="sans-serif" font-size="13" lengthAdjust="spacing" textLength="34" x="227" y="325.0669">enter</text><!--MD5=[4a975ec18d4cd3a03a08d214eac2ddbe]
link Administrator to Code--><path codeLine="59" d="M401.572,250.207 C485.184,285.692 632.379,348.1622 691.915,373.4296 " fill="none" id="Administrator-to-Code" style="stroke:#A80036;stroke-width:1.0;"/><polygon fill="#A80036" points="696.725,375.4709,690.0023,368.2733,692.1222,373.5179,686.8776,375.6378,696.725,375.4709" style="stroke:#A80036;stroke-width:1.0;"/><text fill="#000000" font-family="sans-serif" font-size="13" lengthAdjust="spacing" textLength="41" x="587" y="325.0669">assign</text><!--MD5=[75be889360c87e7ff3ea9e9256855b1e]
link HouseManager to locks--><path codeLine="60" d="M835.084,88.283 C852.362,119.658 876.479,163.448 892.405,192.366 " fill="none" id="HouseManager-to-locks" style="stroke:#A80036;stroke-width:1.0;"/><polygon fill="#A80036" points="894.888,196.876,894.0514,187.0627,892.4765,192.4959,887.0433,190.9211,894.888,196.876" style="stroke:#A80036;stroke-width:1.0;"/><text fill="#000000" font-family="sans-serif" font-size="13" lengthAdjust="spacing" textLength="40" x="859" y="131.0669">delete</text><!--MD5=[82ea8288550ae9bf3dfaa74a7cb9e82a]
link Administrator to Status--><path codeLine="61" d="M372.048,282.264 C386.63,309.393 403.204,340.2278 414.302,360.8751 " fill="none" id="Administrator-to-Status" style="stroke:#A80036;stroke-width:1.0;"/><polygon fill="#A80036" points="416.722,365.379,415.9843,355.5578,414.3548,360.9749,408.9377,359.3453,416.722,365.379" style="stroke:#A80036;stroke-width:1.0;"/><text fill="#000000" font-family="sans-serif" font-size="13" lengthAdjust="spacing" textLength="25" x="398" y="325.0669">lock</text><!--MD5=[2e0f22d2a8d48f5a308309b25c744969]
@startuml
hide circle
class Administrator<actor> {
}
class HouseManager<actor> {
}
class House<actor> {
}
class HouseStaff<actor> {
}
class Administrator {
	create()
	see()
	enter()
	lock()
	add()
	assign()
}
class Hub {
}
class Code {
	edit()
}
class HouseManager {
	select()
	add()
	delete()
}
class Lock {
	adddelete()
	add()
}
class SmartThingsClientId {
}
class Secret {
}
class Other {
}
class locks {
	adddelete()
}
class Manager {
}
class Status {
}
class Group {
}
Lock - -> Code : adddelete
locks - -> Code : adddelete
Lock - -> Lock : add
Administrator - -> Secret : enter
HouseManager - -> Lock : select
Administrator - -> Group : create
Administrator - -> Hub : see
Code - -> Code : edit
Administrator - -> Manager : add
HouseManager - -> Other : add
Administrator - -> SmartThingsClientId : enter
Lock - -> Code : add
Administrator - -> Code : assign
HouseManager - -> locks : delete
Administrator - -> Status : lock
@enduml

PlantUML version 1.2021.6beta6(Unknown compile time)
(GPL source distribution)
Java Runtime: Java(TM) SE Runtime Environment
JVM: Java HotSpot(TM) 64-Bit Server VM
Default Encoding: UTF-8
Language: en
Country: US
--></g></svg>