<?xml version="1.0" encoding="UTF-8" standalone="no"?><svg xmlns="http://www.w3.org/2000/svg" xmlns:xlink="http://www.w3.org/1999/xlink" contentScriptType="application/ecmascript" contentStyleType="text/css" height="412px" preserveAspectRatio="none" style="width:1339px;height:412px;background:#FFFFFF;" version="1.1" viewBox="0 0 1339 412" width="1339px" zoomAndPan="magnify"><defs><filter height="300%" id="fivu2o6qg270b" width="300%" x="-1" y="-1"><feGaussianBlur result="blurOut" stdDeviation="2.0"/><feColorMatrix in="blurOut" result="blurOut2" type="matrix" values="0 0 0 0 0 0 0 0 0 0 0 0 0 0 0 0 0 0 .4 0"/><feOffset dx="4.0" dy="4.0" in="blurOut2" result="blurOut3"/><feBlend in="SourceGraphic" in2="blurOut3" mode="normal"/></filter></defs><g><!--MD5=[3b3e4d82bd72d9beea30453587036ffc]
class Scriptwriter--><rect codeLine="38" fill="#FEFECE" filter="url(#fivu2o6qg270b)" height="65.5781" id="Scriptwriter" style="stroke:#A80036;stroke-width:1.5;" width="111" x="7" y="48"/><text fill="#000000" font-family="sans-serif" font-size="12" lengthAdjust="spacing" textLength="70" x="10" y="64.1387">Scriptwriter</text><rect fill="#FFFFFF" height="15.9688" style="stroke:#000000;stroke-width:1.0;stroke-dasharray:2.0,2.0;" width="33" x="88" y="45"/><text fill="#000000" font-family="sans-serif" font-size="12" font-style="italic" lengthAdjust="spacing" textLength="31" x="89" y="57.1387">actor</text><line style="stroke:#A80036;stroke-width:1.5;" x1="8" x2="117" y1="71.9688" y2="71.9688"/><line style="stroke:#A80036;stroke-width:1.5;" x1="8" x2="117" y1="79.9688" y2="79.9688"/><text fill="#000000" font-family="sans-serif" font-size="11" lengthAdjust="spacing" textLength="51" x="13" y="94.1792">interact()</text><text fill="#000000" font-family="sans-serif" font-size="11" lengthAdjust="spacing" textLength="27" x="13" y="106.9839">get()</text><!--MD5=[3fd616f346a44cd59a91eb10b19e157c]
class User--><rect codeLine="22" fill="#FEFECE" filter="url(#fivu2o6qg270b)" height="142.4063" id="User" style="stroke:#A80036;stroke-width:1.5;" width="74" x="968.5" y="10"/><text fill="#000000" font-family="sans-serif" font-size="12" lengthAdjust="spacing" textLength="29" x="973.5" y="26.1387">User</text><rect fill="#FFFFFF" height="15.9688" style="stroke:#000000;stroke-width:1.0;stroke-dasharray:2.0,2.0;" width="33" x="1012.5" y="7"/><text fill="#000000" font-family="sans-serif" font-size="12" font-style="italic" lengthAdjust="spacing" textLength="31" x="1013.5" y="19.1387">actor</text><line style="stroke:#A80036;stroke-width:1.5;" x1="969.5" x2="1041.5" y1="33.9688" y2="33.9688"/><line style="stroke:#A80036;stroke-width:1.5;" x1="969.5" x2="1041.5" y1="41.9688" y2="41.9688"/><text fill="#000000" font-family="sans-serif" font-size="11" lengthAdjust="spacing" textLength="28" x="974.5" y="56.1792">like()</text><text fill="#000000" font-family="sans-serif" font-size="11" lengthAdjust="spacing" textLength="40" x="974.5" y="68.9839">share()</text><text fill="#000000" font-family="sans-serif" font-size="11" lengthAdjust="spacing" textLength="42" x="974.5" y="81.7886">relate()</text><text fill="#000000" font-family="sans-serif" font-size="11" lengthAdjust="spacing" textLength="46" x="974.5" y="94.5933">search()</text><text fill="#000000" font-family="sans-serif" font-size="11" lengthAdjust="spacing" textLength="38" x="974.5" y="107.3979">trend()</text><text fill="#000000" font-family="sans-serif" font-size="11" lengthAdjust="spacing" textLength="62" x="974.5" y="120.2026">comment()</text><text fill="#000000" font-family="sans-serif" font-size="11" lengthAdjust="spacing" textLength="35" x="974.5" y="133.0073">view()</text><text fill="#000000" font-family="sans-serif" font-size="11" lengthAdjust="spacing" textLength="41" x="974.5" y="145.812">log_in()</text><!--MD5=[db6d18d8099558415abc41d00477ab92]
class Admin--><rect codeLine="12" fill="#FEFECE" filter="url(#fivu2o6qg270b)" height="91.1875" id="Admin" style="stroke:#A80036;stroke-width:1.5;" width="78" x="415.5" y="35.5"/><text fill="#000000" font-family="sans-serif" font-size="12" lengthAdjust="spacing" textLength="37" x="418.5" y="51.6387">Admin</text><rect fill="#FFFFFF" height="15.9688" style="stroke:#000000;stroke-width:1.0;stroke-dasharray:2.0,2.0;" width="33" x="463.5" y="32.5"/><text fill="#000000" font-family="sans-serif" font-size="12" font-style="italic" lengthAdjust="spacing" textLength="31" x="464.5" y="44.6387">actor</text><line style="stroke:#A80036;stroke-width:1.5;" x1="416.5" x2="492.5" y1="59.4688" y2="59.4688"/><line style="stroke:#A80036;stroke-width:1.5;" x1="416.5" x2="492.5" y1="67.4688" y2="67.4688"/><text fill="#000000" font-family="sans-serif" font-size="11" lengthAdjust="spacing" textLength="29" x="421.5" y="81.6792">add()</text><text fill="#000000" font-family="sans-serif" font-size="11" lengthAdjust="spacing" textLength="46" x="421.5" y="94.4839">delete()</text><text fill="#000000" font-family="sans-serif" font-size="11" lengthAdjust="spacing" textLength="30" x="421.5" y="107.2886">edit()</text><text fill="#000000" font-family="sans-serif" font-size="11" lengthAdjust="spacing" textLength="36" x="421.5" y="120.0933">save()</text><!--MD5=[042fa140da40c49659127f611bcff931]
class Comment--><rect codeLine="8" fill="#FEFECE" filter="url(#fivu2o6qg270b)" height="39.9688" id="Comment" style="stroke:#A80036;stroke-width:1.5;" width="63" x="507" y="235.5"/><text fill="#000000" font-family="sans-serif" font-size="12" lengthAdjust="spacing" textLength="57" x="510" y="251.6387">Comment</text><line style="stroke:#A80036;stroke-width:1.5;" x1="508" x2="569" y1="259.4688" y2="259.4688"/><line style="stroke:#A80036;stroke-width:1.5;" x1="508" x2="569" y1="267.4688" y2="267.4688"/><!--MD5=[6f29f313cd4199edbf91b9ce3a4faa98]
class Form--><rect codeLine="10" fill="#FEFECE" filter="url(#fivu2o6qg270b)" height="39.9688" id="Form" style="stroke:#A80036;stroke-width:1.5;" width="37" x="103" y="359"/><text fill="#000000" font-family="sans-serif" font-size="12" lengthAdjust="spacing" textLength="31" x="106" y="375.1387">Form</text><line style="stroke:#A80036;stroke-width:1.5;" x1="104" x2="139" y1="382.9688" y2="382.9688"/><line style="stroke:#A80036;stroke-width:1.5;" x1="104" x2="139" y1="390.9688" y2="390.9688"/><!--MD5=[9bb0bdd047fba1a3c8d48282c35b4537]
class Post--><rect codeLine="18" fill="#FEFECE" filter="url(#fivu2o6qg270b)" height="39.9688" id="Post" style="stroke:#A80036;stroke-width:1.5;" width="31" x="746" y="235.5"/><text fill="#000000" font-family="sans-serif" font-size="12" lengthAdjust="spacing" textLength="25" x="749" y="251.6387">Post</text><line style="stroke:#A80036;stroke-width:1.5;" x1="747" x2="776" y1="259.4688" y2="259.4688"/><line style="stroke:#A80036;stroke-width:1.5;" x1="747" x2="776" y1="267.4688" y2="267.4688"/><!--MD5=[a96594a83e2ecdc78cbf17c2ddf01934]
class Category--><rect codeLine="20" fill="#FEFECE" filter="url(#fivu2o6qg270b)" height="39.9688" id="Category" style="stroke:#A80036;stroke-width:1.5;" width="61" x="226" y="235.5"/><text fill="#000000" font-family="sans-serif" font-size="12" lengthAdjust="spacing" textLength="55" x="229" y="251.6387">Category</text><line style="stroke:#A80036;stroke-width:1.5;" x1="227" x2="286" y1="259.4688" y2="259.4688"/><line style="stroke:#A80036;stroke-width:1.5;" x1="227" x2="286" y1="267.4688" y2="267.4688"/><!--MD5=[b54c7d21fd8318e5d779f63d9f32272f]
class BlogPost--><rect codeLine="32" fill="#FEFECE" filter="url(#fivu2o6qg270b)" height="39.9688" id="BlogPost" style="stroke:#A80036;stroke-width:1.5;" width="58" x="1075.5" y="235.5"/><text fill="#000000" font-family="sans-serif" font-size="12" lengthAdjust="spacing" textLength="52" x="1078.5" y="251.6387">BlogPost</text><line style="stroke:#A80036;stroke-width:1.5;" x1="1076.5" x2="1132.5" y1="259.4688" y2="259.4688"/><line style="stroke:#A80036;stroke-width:1.5;" x1="1076.5" x2="1132.5" y1="267.4688" y2="267.4688"/><!--MD5=[bacc514d65bdcc3de351036b6d5092bb]
class MediaPlatform--><rect codeLine="34" fill="#FEFECE" filter="url(#fivu2o6qg270b)" height="39.9688" id="MediaPlatform" style="stroke:#A80036;stroke-width:1.5;" width="90" x="1235.5" y="235.5"/><text fill="#000000" font-family="sans-serif" font-size="12" lengthAdjust="spacing" textLength="84" x="1238.5" y="251.6387">MediaPlatform</text><line style="stroke:#A80036;stroke-width:1.5;" x1="1236.5" x2="1324.5" y1="259.4688" y2="259.4688"/><line style="stroke:#A80036;stroke-width:1.5;" x1="1236.5" x2="1324.5" y1="267.4688" y2="267.4688"/><!--MD5=[39d6d2ea03de602dbf4d534e70c872a9]
class Tag--><rect codeLine="36" fill="#FEFECE" filter="url(#fivu2o6qg270b)" height="39.9688" id="Tag" style="stroke:#A80036;stroke-width:1.5;" width="28" x="381.5" y="235.5"/><text fill="#000000" font-family="sans-serif" font-size="12" lengthAdjust="spacing" textLength="22" x="384.5" y="251.6387">Tag</text><line style="stroke:#A80036;stroke-width:1.5;" x1="382.5" x2="408.5" y1="259.4688" y2="259.4688"/><line style="stroke:#A80036;stroke-width:1.5;" x1="382.5" x2="408.5" y1="267.4688" y2="267.4688"/><!--MD5=[1a502b0dbedafd291c48f46ef8646183]
class Feedback--><rect codeLine="42" fill="#FEFECE" filter="url(#fivu2o6qg270b)" height="39.9688" id="Feedback" style="stroke:#A80036;stroke-width:1.5;" width="66" x="29.5" y="235.5"/><text fill="#000000" font-family="sans-serif" font-size="12" lengthAdjust="spacing" textLength="60" x="32.5" y="251.6387">Feedback</text><line style="stroke:#A80036;stroke-width:1.5;" x1="30.5" x2="94.5" y1="259.4688" y2="259.4688"/><line style="stroke:#A80036;stroke-width:1.5;" x1="30.5" x2="94.5" y1="267.4688" y2="267.4688"/><!--MD5=[09e3160644ea82bed9dc2bfdc7bfe5c8]
class Producer--><rect codeLine="44" fill="#FEFECE" filter="url(#fivu2o6qg270b)" height="52.7734" id="Producer" style="stroke:#A80036;stroke-width:1.5;" width="60" x="130.5" y="229"/><text fill="#000000" font-family="sans-serif" font-size="12" lengthAdjust="spacing" textLength="54" x="133.5" y="245.1387">Producer</text><line style="stroke:#A80036;stroke-width:1.5;" x1="131.5" x2="189.5" y1="252.9688" y2="252.9688"/><line style="stroke:#A80036;stroke-width:1.5;" x1="131.5" x2="189.5" y1="260.9688" y2="260.9688"/><text fill="#000000" font-family="sans-serif" font-size="11" lengthAdjust="spacing" textLength="29" x="136.5" y="275.1792">use()</text><!--MD5=[9d419e28e6a453de17836b09fd865dae]
link Admin to Post--><path codeLine="47" d="M493.563,110.553 C528.831,135.625 582.681,172.178 632.5,199 C669.329,218.829 714.732,237.007 740.676,246.841 " fill="none" id="Admin-to-Post" style="stroke:#A80036;stroke-width:1.0;"/><polygon fill="#A80036" points="745.597,248.695,738.5847,241.7792,740.9179,246.9325,735.7647,249.2657,745.597,248.695" style="stroke:#A80036;stroke-width:1.0;"/><text fill="#000000" font-family="sans-serif" font-size="13" lengthAdjust="spacing" textLength="31" x="633.5" y="195.0669">save</text><!--MD5=[9d419e28e6a453de17836b09fd865dae]
link Admin to Post--><path codeLine="58" d="M493.553,96.955 C537.73,114.593 611.116,146.093 669.5,182 C696.072,198.342 723.832,221.131 741.816,236.773 " fill="none" id="Admin-to-Post-1" style="stroke:#A80036;stroke-width:1.0;"/><polygon fill="#A80036" points="745.724,240.193,741.5853,231.2559,741.9613,236.9003,736.3169,237.2763,745.724,240.193" style="stroke:#A80036;stroke-width:1.0;"/><text fill="#000000" font-family="sans-serif" font-size="13" lengthAdjust="spacing" textLength="24" x="694.5" y="195.0669">add</text><!--MD5=[9d419e28e6a453de17836b09fd865dae]
link Admin to Post--><path codeLine="59" d="M490.285,126.679 C512.023,151.167 541.665,180.262 573.5,199 C628.848,231.578 704.759,246.285 740.838,251.765 " fill="none" id="Admin-to-Post-2" style="stroke:#A80036;stroke-width:1.0;"/><polygon fill="#A80036" points="745.865,252.508,737.547,247.2343,740.9188,251.7765,736.3766,255.1483,745.865,252.508" style="stroke:#A80036;stroke-width:1.0;"/><text fill="#000000" font-family="sans-serif" font-size="13" lengthAdjust="spacing" textLength="24" x="574.5" y="195.0669">edit</text><!--MD5=[e1157d990c71223888f6eba0861fc13e]
link Admin to Category--><path codeLine="48" d="M415.093,85.851 C360.571,93.534 263.946,116.187 220.5,182 C210.168,197.652 220.391,216.687 232.547,231.325 " fill="none" id="Admin-to-Category" style="stroke:#A80036;stroke-width:1.0;"/><polygon fill="#A80036" points="236.011,235.33,233.1515,225.9054,232.7412,231.5474,227.0992,231.1371,236.011,235.33" style="stroke:#A80036;stroke-width:1.0;"/><text fill="#000000" font-family="sans-serif" font-size="13" lengthAdjust="spacing" textLength="24" x="221.5" y="195.0669">edit</text><!--MD5=[e1157d990c71223888f6eba0861fc13e]
link Admin to Category--><path codeLine="49" d="M415.311,106.533 C386.531,125.442 347.255,153.16 316.5,182 C300.486,197.016 284.753,216.243 273.418,231.122 " fill="none" id="Admin-to-Category-1" style="stroke:#A80036;stroke-width:1.0;"/><polygon fill="#A80036" points="270.341,235.197,278.9566,230.425,273.354,231.2068,272.5723,225.6042,270.341,235.197" style="stroke:#A80036;stroke-width:1.0;"/><text fill="#000000" font-family="sans-serif" font-size="13" lengthAdjust="spacing" textLength="24" x="317.5" y="195.0669">add</text><!--MD5=[3ee005b10afe37ab00bc601fe8c9dd91]
link Scriptwriter to Feedback--><path codeLine="50" d="M62.5,114.042 C62.5,147.752 62.5,200.042 62.5,230.407 " fill="none" id="Scriptwriter-to-Feedback" style="stroke:#A80036;stroke-width:1.0;"/><polygon fill="#A80036" points="62.5,235.449,66.5,226.449,62.5,230.449,58.5,226.449,62.5,235.449" style="stroke:#A80036;stroke-width:1.0;"/><text fill="#000000" font-family="sans-serif" font-size="13" lengthAdjust="spacing" textLength="21" x="63.5" y="195.0669">get</text><!--MD5=[ec63968621bc9d04d6621c1d3c27da9b]
link User to BlogPost--><path codeLine="51" d="M1017.95,152.056 C1022.77,168.279 1029.4,184.904 1038.5,199 C1046.96,212.108 1059.47,223.742 1071.33,232.929 " fill="none" id="User-to-BlogPost" style="stroke:#A80036;stroke-width:1.0;"/><polygon fill="#A80036" points="1075.32,235.95,1070.5545,227.3309,1071.332,232.934,1065.7289,233.7116,1075.32,235.95" style="stroke:#A80036;stroke-width:1.0;"/><text fill="#000000" font-family="sans-serif" font-size="13" lengthAdjust="spacing" textLength="21" x="1039.5" y="195.0669">like</text><!--MD5=[ec63968621bc9d04d6621c1d3c27da9b]
link User to BlogPost--><path codeLine="53" d="M1042.61,142.813 C1050.29,155.686 1058.25,169.24 1065.5,182 C1074.64,198.074 1084.5,216.418 1092.02,230.632 " fill="none" id="User-to-BlogPost-1" style="stroke:#A80036;stroke-width:1.0;"/><polygon fill="#A80036" points="1094.48,235.285,1093.8088,225.459,1092.1427,230.8649,1086.7368,229.1988,1094.48,235.285" style="stroke:#A80036;stroke-width:1.0;"/><text fill="#000000" font-family="sans-serif" font-size="13" lengthAdjust="spacing" textLength="30" x="1075.5" y="195.0669">view</text><!--MD5=[ec63968621bc9d04d6621c1d3c27da9b]
link User to BlogPost--><path codeLine="56" d="M1042.63,104.155 C1068.12,121.691 1099.87,148.735 1114.5,182 C1121.21,197.257 1118.42,215.914 1114.1,230.48 " fill="none" id="User-to-BlogPost-2" style="stroke:#A80036;stroke-width:1.0;"/><polygon fill="#A80036" points="1112.59,235.252,1119.1191,227.8783,1114.0986,230.485,1111.4919,225.4646,1112.59,235.252" style="stroke:#A80036;stroke-width:1.0;"/><text fill="#000000" font-family="sans-serif" font-size="13" lengthAdjust="spacing" textLength="62" x="1119.5" y="195.0669">comment</text><!--MD5=[9da91db269cc3cd4bc9947f7b37d540e]
link Admin to Comment--><path codeLine="52" d="M460.317,126.553 C464.641,149.298 472.032,176.781 484.5,199 C491.295,211.11 501.398,222.482 511.032,231.741 " fill="none" id="Admin-to-Comment" style="stroke:#A80036;stroke-width:1.0;"/><polygon fill="#A80036" points="514.836,235.314,511.0143,226.2368,511.1915,231.8909,505.5374,232.0681,514.836,235.314" style="stroke:#A80036;stroke-width:1.0;"/><text fill="#000000" font-family="sans-serif" font-size="13" lengthAdjust="spacing" textLength="40" x="485.5" y="195.0669">delete</text><!--MD5=[77c575690b0287b9077f2f97ff7c450d]
link User to Post--><path codeLine="54" d="M968.205,95.109 C926.826,110.979 859.683,140.792 812.5,182 C796.744,195.761 783.34,215.35 774.234,230.698 " fill="none" id="User-to-Post" style="stroke:#A80036;stroke-width:1.0;"/><polygon fill="#A80036" points="771.548,235.314,779.5314,229.5464,774.0625,230.9923,772.6166,225.5233,771.548,235.314" style="stroke:#A80036;stroke-width:1.0;"/><text fill="#000000" font-family="sans-serif" font-size="13" lengthAdjust="spacing" textLength="36" x="813.5" y="195.0669">share</text><!--MD5=[77c575690b0287b9077f2f97ff7c450d]
link User to Post--><path codeLine="55" d="M968.284,112.879 C938.286,137.263 894.637,171.622 854.5,199 C830.3,215.507 801.111,232.478 781.968,243.234 " fill="none" id="User-to-Post-1" style="stroke:#A80036;stroke-width:1.0;"/><polygon fill="#A80036" points="777.327,245.831,787.1342,244.9266,781.6903,243.3893,783.2276,237.9454,777.327,245.831" style="stroke:#A80036;stroke-width:1.0;"/><text fill="#000000" font-family="sans-serif" font-size="13" lengthAdjust="spacing" textLength="34" x="877.5" y="195.0669">trend</text><!--MD5=[77c575690b0287b9077f2f97ff7c450d]
link User to Post--><path codeLine="62" d="M968.368,147.564 C955.23,166.235 939.039,185.221 920.5,199 C877.688,230.82 815.141,245.474 782.733,251.268 " fill="none" id="User-to-Post-2" style="stroke:#A80036;stroke-width:1.0;"/><polygon fill="#A80036" points="777.42,252.187,786.9697,254.5961,782.347,251.3356,785.6074,246.7129,777.42,252.187" style="stroke:#A80036;stroke-width:1.0;"/><text fill="#000000" font-family="sans-serif" font-size="13" lengthAdjust="spacing" textLength="30" x="939.5" y="195.0669">view</text><!--MD5=[ccca762faec1b4d973e8ccd7e1b7e031]
link User to MediaPlatform--><path codeLine="57" d="M1042.8,99.646 C1081,118.29 1141.55,149.451 1190.5,182 C1213.49,197.287 1237.76,217.085 1255.3,232.129 " fill="none" id="User-to-MediaPlatform" style="stroke:#A80036;stroke-width:1.0;"/><polygon fill="#A80036" points="1259.16,235.456,1254.964,226.5457,1255.3762,232.1875,1249.7344,232.5997,1259.16,235.456" style="stroke:#A80036;stroke-width:1.0;"/><text fill="#000000" font-family="sans-serif" font-size="13" lengthAdjust="spacing" textLength="36" x="1215.5" y="195.0669">share</text><!--MD5=[d53d37b3aa2ec70df3b748f86ef4db62]
link Admin to Tag--><path codeLine="60" d="M415.332,108.012 C392.305,125.787 365.273,151.591 352.5,182 C343.566,203.269 361.94,225.835 377.378,240.036 " fill="none" id="Admin-to-Tag" style="stroke:#A80036;stroke-width:1.0;"/><polygon fill="#A80036" points="381.221,243.46,377.1603,234.4872,377.4871,240.1346,371.8397,240.4615,381.221,243.46" style="stroke:#A80036;stroke-width:1.0;"/><text fill="#000000" font-family="sans-serif" font-size="13" lengthAdjust="spacing" textLength="24" x="353.5" y="195.0669">edit</text><!--MD5=[d53d37b3aa2ec70df3b748f86ef4db62]
link Admin to Tag--><path codeLine="65" d="M438.004,126.674 C431.748,143.911 424.653,163.823 418.5,182 C413.07,198.041 407.308,216.206 402.91,230.34 " fill="none" id="Admin-to-Tag-1" style="stroke:#A80036;stroke-width:1.0;"/><polygon fill="#A80036" points="401.354,235.354,407.8415,227.9437,402.8358,230.5786,400.2009,225.5729,401.354,235.354" style="stroke:#A80036;stroke-width:1.0;"/><text fill="#000000" font-family="sans-serif" font-size="13" lengthAdjust="spacing" textLength="24" x="419.5" y="195.0669">add</text><!--MD5=[c11074d9803ad55e3f44fa03d5770e47]
link Producer to Form--><path codeLine="61" d="M152.229,282.267 C145.439,303.4193 135.895,333.155 129.251,353.8527 " fill="none" id="Producer-to-Form" style="stroke:#A80036;stroke-width:1.0;"/><polygon fill="#A80036" points="127.712,358.6472,134.2718,351.3008,129.2405,353.8866,126.6548,348.8553,127.712,358.6472" style="stroke:#A80036;stroke-width:1.0;"/><text fill="#000000" font-family="sans-serif" font-size="13" lengthAdjust="spacing" textLength="23" x="143.5" y="325.0669">use</text><!--MD5=[83136e22e0601e877495ee6902e2e456]
reverse link User to Comment--><path codeLine="63" d="M956.083,104.795 C901.008,129.729 808.965,170 727.5,199 C673.052,218.382 608.125,236.361 570.283,246.343 " fill="none" id="User-backto-Comment" style="stroke:#A80036;stroke-width:1.0;"/><polygon fill="#FFFFFF" points="968.258,99.26,961.1405,98.1017,957.3339,104.2262,964.4513,105.3845,968.258,99.26" style="stroke:#A80036;stroke-width:1.0;"/><!--MD5=[7a699040b46f02537c9f82741ab46683]
reverse link Feedback to Form--><path codeLine="64" d="M77.6531,287.705 C88.5628,310.1716 102.9328,339.7641 112.195,358.838 " fill="none" id="Feedback-backto-Form" style="stroke:#A80036;stroke-width:1.0;"/><polygon fill="#FFFFFF" points="71.8487,275.752,70.8714,282.8966,77.0905,286.5466,78.0678,279.4021,71.8487,275.752" style="stroke:#A80036;stroke-width:1.0;"/><!--MD5=[dbec1e2a9cd2506c1c0c8d45ae164b8d]
@startuml
hide circle
class Scriptwriter<actor> {
}
class User<actor> {
}
class Admin<actor> {
}
class Comment {
}
class Form {
}
class Admin {
	add()
	delete()
	edit()
	save()
}
class Post {
}
class Category {
}
class User {
	like()
	share()
	relate()
	search()
	trend()
	comment()
	view()
	log_in()
}
class BlogPost {
}
class MediaPlatform {
}
class Tag {
}
class Scriptwriter {
	interact()
	get()
}
class Feedback {
}
class Producer {
	use()
}
Admin - -> Post : save
Admin - -> Category : edit
Admin - -> Category : add
Scriptwriter - -> Feedback : get
User - -> BlogPost : like
Admin - -> Comment : delete
User - -> BlogPost : view
User - -> Post : share
User - -> Post : trend
User - -> BlogPost : comment
User - -> MediaPlatform : share
Admin - -> Post : add
Admin - -> Post : edit
Admin - -> Tag : edit
Producer - -> Form : use
User - -> Post : view
User o- - Comment
Feedback o- - Form
Admin - -> Tag : add
@enduml

PlantUML version 1.2021.10beta5(Unknown compile time)
(GPL source distribution)
Java Runtime: Java(TM) SE Runtime Environment
JVM: Java HotSpot(TM) 64-Bit Server VM
Default Encoding: UTF-8
Language: en
Country: US
--></g></svg>