<?xml version="1.0" encoding="UTF-8" standalone="no"?><svg xmlns="http://www.w3.org/2000/svg" xmlns:xlink="http://www.w3.org/1999/xlink" contentScriptType="application/ecmascript" contentStyleType="text/css" height="706px" preserveAspectRatio="none" style="width:1529px;height:706px;background:#FFFFFF;" version="1.1" viewBox="0 0 1529 706" width="1529px" zoomAndPan="magnify"><defs><filter height="300%" id="f1w33bclx2cjan" width="300%" x="-1" y="-1"><feGaussianBlur result="blurOut" stdDeviation="2.0"/><feColorMatrix in="blurOut" result="blurOut2" type="matrix" values="0 0 0 0 0 0 0 0 0 0 0 0 0 0 0 0 0 0 .4 0"/><feOffset dx="4.0" dy="4.0" in="blurOut2" result="blurOut3"/><feBlend in="SourceGraphic" in2="blurOut3" mode="normal"/></filter></defs><g><!--MD5=[d342058c8fb6f80e9d50d673c6908241]
class Developer--><rect codeLine="56" fill="#FEFECE" filter="url(#f1w33bclx2cjan)" height="52.7734" id="Developer" style="stroke:#A80036;stroke-width:1.5;" width="105" x="7" y="22.5"/><text fill="#000000" font-family="sans-serif" font-size="12" lengthAdjust="spacing" textLength="64" x="10" y="38.6387">Developer</text><rect fill="#FFFFFF" height="15.9688" style="stroke:#000000;stroke-width:1.0;stroke-dasharray:2.0,2.0;" width="33" x="82" y="19.5"/><text fill="#000000" font-family="sans-serif" font-size="12" font-style="italic" lengthAdjust="spacing" textLength="31" x="83" y="31.6387">actor</text><line style="stroke:#A80036;stroke-width:1.5;" x1="8" x2="111" y1="46.4688" y2="46.4688"/><line style="stroke:#A80036;stroke-width:1.5;" x1="8" x2="111" y1="54.4688" y2="54.4688"/><text fill="#000000" font-family="sans-serif" font-size="11" lengthAdjust="spacing" textLength="44" x="13" y="68.6792">import()</text><!--MD5=[db6d18d8099558415abc41d00477ab92]
class Admin--><rect codeLine="28" fill="#FEFECE" filter="url(#f1w33bclx2cjan)" height="91.1875" id="Admin" style="stroke:#A80036;stroke-width:1.5;" width="78" x="707.5" y="165"/><text fill="#000000" font-family="sans-serif" font-size="12" lengthAdjust="spacing" textLength="37" x="710.5" y="181.1387">Admin</text><rect fill="#FFFFFF" height="15.9688" style="stroke:#000000;stroke-width:1.0;stroke-dasharray:2.0,2.0;" width="33" x="755.5" y="162"/><text fill="#000000" font-family="sans-serif" font-size="12" font-style="italic" lengthAdjust="spacing" textLength="31" x="756.5" y="174.1387">actor</text><line style="stroke:#A80036;stroke-width:1.5;" x1="708.5" x2="784.5" y1="188.9688" y2="188.9688"/><line style="stroke:#A80036;stroke-width:1.5;" x1="708.5" x2="784.5" y1="196.9688" y2="196.9688"/><text fill="#000000" font-family="sans-serif" font-size="11" lengthAdjust="spacing" textLength="29" x="713.5" y="211.1792">add()</text><text fill="#000000" font-family="sans-serif" font-size="11" lengthAdjust="spacing" textLength="53" x="713.5" y="223.9839">reserve()</text><text fill="#000000" font-family="sans-serif" font-size="11" lengthAdjust="spacing" textLength="34" x="713.5" y="236.7886">read()</text><text fill="#000000" font-family="sans-serif" font-size="11" lengthAdjust="spacing" textLength="50" x="713.5" y="249.5933">change()</text><!--MD5=[d20e61c3df8b8f47d0b4e5ec2b6a1cdb]
class Volunteer--><rect codeLine="36" fill="#FEFECE" filter="url(#f1w33bclx2cjan)" height="78.3828" id="Volunteer" style="stroke:#A80036;stroke-width:1.5;" width="99" x="1304" y="10"/><text fill="#000000" font-family="sans-serif" font-size="12" lengthAdjust="spacing" textLength="58" x="1307" y="26.1387">Volunteer</text><rect fill="#FFFFFF" height="15.9688" style="stroke:#000000;stroke-width:1.0;stroke-dasharray:2.0,2.0;" width="33" x="1373" y="7"/><text fill="#000000" font-family="sans-serif" font-size="12" font-style="italic" lengthAdjust="spacing" textLength="31" x="1374" y="19.1387">actor</text><line style="stroke:#A80036;stroke-width:1.5;" x1="1305" x2="1402" y1="33.9688" y2="33.9688"/><line style="stroke:#A80036;stroke-width:1.5;" x1="1305" x2="1402" y1="41.9688" y2="41.9688"/><text fill="#000000" font-family="sans-serif" font-size="11" lengthAdjust="spacing" textLength="35" x="1310" y="56.1792">view()</text><text fill="#000000" font-family="sans-serif" font-size="11" lengthAdjust="spacing" textLength="55" x="1310" y="68.9839">manage()</text><text fill="#000000" font-family="sans-serif" font-size="11" lengthAdjust="spacing" textLength="41" x="1310" y="81.7886">check()</text><!--MD5=[b24ed8d4ae84bae9290d9aab401637c7]
class Manager--><rect codeLine="63" fill="#FEFECE" filter="url(#f1w33bclx2cjan)" height="52.7734" id="Manager" style="stroke:#A80036;stroke-width:1.5;" width="93" x="1107" y="22.5"/><text fill="#000000" font-family="sans-serif" font-size="12" lengthAdjust="spacing" textLength="52" x="1110" y="38.6387">Manager</text><rect fill="#FFFFFF" height="15.9688" style="stroke:#000000;stroke-width:1.0;stroke-dasharray:2.0,2.0;" width="33" x="1170" y="19.5"/><text fill="#000000" font-family="sans-serif" font-size="12" font-style="italic" lengthAdjust="spacing" textLength="31" x="1171" y="31.6387">actor</text><line style="stroke:#A80036;stroke-width:1.5;" x1="1108" x2="1199" y1="46.4688" y2="46.4688"/><line style="stroke:#A80036;stroke-width:1.5;" x1="1108" x2="1199" y1="54.4688" y2="54.4688"/><text fill="#000000" font-family="sans-serif" font-size="11" lengthAdjust="spacing" textLength="32" x="1113" y="68.6792">click()</text><!--MD5=[3fd616f346a44cd59a91eb10b19e157c]
class User--><rect codeLine="16" fill="#FEFECE" filter="url(#f1w33bclx2cjan)" height="142.4063" id="User" style="stroke:#A80036;stroke-width:1.5;" width="70" x="466.5" y="333"/><text fill="#000000" font-family="sans-serif" font-size="12" lengthAdjust="spacing" textLength="29" x="469.5" y="349.1387">User</text><rect fill="#FFFFFF" height="15.9688" style="stroke:#000000;stroke-width:1.0;stroke-dasharray:2.0,2.0;" width="33" x="506.5" y="330"/><text fill="#000000" font-family="sans-serif" font-size="12" font-style="italic" lengthAdjust="spacing" textLength="31" x="507.5" y="342.1387">actor</text><line style="stroke:#A80036;stroke-width:1.5;" x1="467.5" x2="535.5" y1="356.9688" y2="356.9688"/><line style="stroke:#A80036;stroke-width:1.5;" x1="467.5" x2="535.5" y1="364.9688" y2="364.9688"/><text fill="#000000" font-family="sans-serif" font-size="11" lengthAdjust="spacing" textLength="35" x="472.5" y="379.1792">view()</text><text fill="#000000" font-family="sans-serif" font-size="11" lengthAdjust="spacing" textLength="46" x="472.5" y="391.9839">search()</text><text fill="#000000" font-family="sans-serif" font-size="11" lengthAdjust="spacing" textLength="42" x="472.5" y="404.7886">return()</text><text fill="#000000" font-family="sans-serif" font-size="11" lengthAdjust="spacing" textLength="48" x="472.5" y="417.5933">update()</text><text fill="#000000" font-family="sans-serif" font-size="11" lengthAdjust="spacing" textLength="52" x="472.5" y="430.3979">request()</text><text fill="#000000" font-family="sans-serif" font-size="11" lengthAdjust="spacing" textLength="49" x="472.5" y="443.2026">browse()</text><text fill="#000000" font-family="sans-serif" font-size="11" lengthAdjust="spacing" textLength="27" x="472.5" y="456.0073">get()</text><text fill="#000000" font-family="sans-serif" font-size="11" lengthAdjust="spacing" textLength="32" x="472.5" y="468.812">click()</text><!--MD5=[b5b9fe6137fa780f712b03145b11f121]
class AdminUser--><rect codeLine="69" fill="#FEFECE" filter="url(#f1w33bclx2cjan)" height="39.9688" id="AdminUser" style="stroke:#A80036;stroke-width:1.5;" width="107" x="137" y="190.5"/><text fill="#000000" font-family="sans-serif" font-size="12" lengthAdjust="spacing" textLength="66" x="140" y="206.6387">AdminUser</text><rect fill="#FFFFFF" height="15.9688" style="stroke:#000000;stroke-width:1.0;stroke-dasharray:2.0,2.0;" width="33" x="214" y="187.5"/><text fill="#000000" font-family="sans-serif" font-size="12" font-style="italic" lengthAdjust="spacing" textLength="31" x="215" y="199.6387">actor</text><line style="stroke:#A80036;stroke-width:1.5;" x1="138" x2="243" y1="214.4688" y2="214.4688"/><line style="stroke:#A80036;stroke-width:1.5;" x1="138" x2="243" y1="222.4688" y2="222.4688"/><!--MD5=[063d74e43144aaa0d0cf3aecd3794497]
class Log--><rect codeLine="14" fill="#FEFECE" filter="url(#f1w33bclx2cjan)" height="39.9688" id="Log" style="stroke:#A80036;stroke-width:1.5;" width="28" x="391.5" y="653"/><text fill="#000000" font-family="sans-serif" font-size="12" lengthAdjust="spacing" textLength="22" x="394.5" y="669.1387">Log</text><line style="stroke:#A80036;stroke-width:1.5;" x1="392.5" x2="418.5" y1="676.9688" y2="676.9688"/><line style="stroke:#A80036;stroke-width:1.5;" x1="392.5" x2="418.5" y1="684.9688" y2="684.9688"/><!--MD5=[f9a29335b499db729be669fd1bd54958]
class Account--><rect codeLine="26" fill="#FEFECE" filter="url(#f1w33bclx2cjan)" height="39.9688" id="Account" style="stroke:#A80036;stroke-width:1.5;" width="54" x="595.5" y="552"/><text fill="#000000" font-family="sans-serif" font-size="12" lengthAdjust="spacing" textLength="48" x="598.5" y="568.1387">Account</text><line style="stroke:#A80036;stroke-width:1.5;" x1="596.5" x2="648.5" y1="575.9688" y2="575.9688"/><line style="stroke:#A80036;stroke-width:1.5;" x1="596.5" x2="648.5" y1="583.9688" y2="583.9688"/><!--MD5=[44a1b4afaef76c16e6c9ec4990ad0c8d]
class Item--><rect codeLine="34" fill="#FEFECE" filter="url(#f1w33bclx2cjan)" height="39.9688" id="Item" style="stroke:#A80036;stroke-width:1.5;" width="32" x="873.5" y="552"/><text fill="#000000" font-family="sans-serif" font-size="12" lengthAdjust="spacing" textLength="26" x="876.5" y="568.1387">Item</text><line style="stroke:#A80036;stroke-width:1.5;" x1="874.5" x2="904.5" y1="575.9688" y2="575.9688"/><line style="stroke:#A80036;stroke-width:1.5;" x1="874.5" x2="904.5" y1="583.9688" y2="583.9688"/><!--MD5=[9c46470aa33a0c75e6d1dfdefc2f9c22]
class Reservation--><rect codeLine="41" fill="#FEFECE" filter="url(#f1w33bclx2cjan)" height="39.9688" id="Reservation" style="stroke:#A80036;stroke-width:1.5;" width="77" x="1229" y="190.5"/><text fill="#000000" font-family="sans-serif" font-size="12" lengthAdjust="spacing" textLength="71" x="1232" y="206.6387">Reservation</text><line style="stroke:#A80036;stroke-width:1.5;" x1="1230" x2="1305" y1="214.4688" y2="214.4688"/><line style="stroke:#A80036;stroke-width:1.5;" x1="1230" x2="1305" y1="222.4688" y2="222.4688"/><!--MD5=[2449a07004f88a39a49d8d677dad46f0]
class Availability--><rect codeLine="43" fill="#FEFECE" filter="url(#f1w33bclx2cjan)" height="39.9688" id="Availability" style="stroke:#A80036;stroke-width:1.5;" width="69" x="1355" y="190.5"/><text fill="#000000" font-family="sans-serif" font-size="12" lengthAdjust="spacing" textLength="63" x="1358" y="206.6387">Availability</text><line style="stroke:#A80036;stroke-width:1.5;" x1="1356" x2="1423" y1="214.4688" y2="214.4688"/><line style="stroke:#A80036;stroke-width:1.5;" x1="1356" x2="1423" y1="222.4688" y2="222.4688"/><!--MD5=[3813445e07f7ee5d583a428701b0add1]
class Darin--><rect codeLine="45" fill="#FEFECE" filter="url(#f1w33bclx2cjan)" height="52.7734" id="Darin" style="stroke:#A80036;stroke-width:1.5;" width="62" x="1122.5" y="377.5"/><text fill="#000000" font-family="sans-serif" font-size="12" lengthAdjust="spacing" textLength="31" x="1138" y="393.6387">Darin</text><line style="stroke:#A80036;stroke-width:1.5;" x1="1123.5" x2="1183.5" y1="401.4688" y2="401.4688"/><line style="stroke:#A80036;stroke-width:1.5;" x1="1123.5" x2="1183.5" y1="409.4688" y2="409.4688"/><text fill="#000000" font-family="sans-serif" font-size="11" lengthAdjust="spacing" textLength="50" x="1128.5" y="423.6792">reorder()</text><!--MD5=[e3d83ec5fd90ea9f3f2bfe265cb53458]
class Status--><rect codeLine="48" fill="#FEFECE" filter="url(#f1w33bclx2cjan)" height="39.9688" id="Status" style="stroke:#A80036;stroke-width:1.5;" width="43" x="752" y="552"/><text fill="#000000" font-family="sans-serif" font-size="12" lengthAdjust="spacing" textLength="37" x="755" y="568.1387">Status</text><line style="stroke:#A80036;stroke-width:1.5;" x1="753" x2="794" y1="575.9688" y2="575.9688"/><line style="stroke:#A80036;stroke-width:1.5;" x1="753" x2="794" y1="583.9688" y2="583.9688"/><!--MD5=[ee084734eb3a5ffad99a0de9980f769b]
class Inventory--><rect codeLine="50" fill="#FEFECE" filter="url(#f1w33bclx2cjan)" height="39.9688" id="Inventory" style="stroke:#A80036;stroke-width:1.5;" width="62" x="284.5" y="552"/><text fill="#000000" font-family="sans-serif" font-size="12" lengthAdjust="spacing" textLength="56" x="287.5" y="568.1387">Inventory</text><line style="stroke:#A80036;stroke-width:1.5;" x1="285.5" x2="345.5" y1="575.9688" y2="575.9688"/><line style="stroke:#A80036;stroke-width:1.5;" x1="285.5" x2="345.5" y1="583.9688" y2="583.9688"/><!--MD5=[4f1f3706c1a355a8488e154afcaed5df]
class Location--><rect codeLine="52" fill="#FEFECE" filter="url(#f1w33bclx2cjan)" height="39.9688" id="Location" style="stroke:#A80036;stroke-width:1.5;" width="56" x="1459.5" y="190.5"/><text fill="#000000" font-family="sans-serif" font-size="12" lengthAdjust="spacing" textLength="50" x="1462.5" y="206.6387">Location</text><line style="stroke:#A80036;stroke-width:1.5;" x1="1460.5" x2="1514.5" y1="214.4688" y2="214.4688"/><line style="stroke:#A80036;stroke-width:1.5;" x1="1460.5" x2="1514.5" y1="222.4688" y2="222.4688"/><!--MD5=[7e2bc2f128e759c5889ccd6a2666d576]
class EmailNotification--><rect codeLine="54" fill="#FEFECE" filter="url(#f1w33bclx2cjan)" height="39.9688" id="EmailNotification" style="stroke:#A80036;stroke-width:1.5;" width="103" x="382" y="552"/><text fill="#000000" font-family="sans-serif" font-size="12" lengthAdjust="spacing" textLength="97" x="385" y="568.1387">EmailNotification</text><line style="stroke:#A80036;stroke-width:1.5;" x1="383" x2="484" y1="575.9688" y2="575.9688"/><line style="stroke:#A80036;stroke-width:1.5;" x1="383" x2="484" y1="583.9688" y2="583.9688"/><!--MD5=[3784c6daf2f1e07ecf082a66dd892343]
class Spreadsheet--><rect codeLine="59" fill="#FEFECE" filter="url(#f1w33bclx2cjan)" height="39.9688" id="Spreadsheet" style="stroke:#A80036;stroke-width:1.5;" width="84" x="17.5" y="190.5"/><text fill="#000000" font-family="sans-serif" font-size="12" lengthAdjust="spacing" textLength="78" x="20.5" y="206.6387">Spreadsheet</text><line style="stroke:#A80036;stroke-width:1.5;" x1="18.5" x2="100.5" y1="214.4688" y2="214.4688"/><line style="stroke:#A80036;stroke-width:1.5;" x1="18.5" x2="100.5" y1="222.4688" y2="222.4688"/><!--MD5=[028fba31e0312914fa4880b63f0540b8]
class Detail--><rect codeLine="61" fill="#FEFECE" filter="url(#f1w33bclx2cjan)" height="39.9688" id="Detail" style="stroke:#A80036;stroke-width:1.5;" width="40" x="520.5" y="552"/><text fill="#000000" font-family="sans-serif" font-size="12" lengthAdjust="spacing" textLength="34" x="523.5" y="568.1387">Detail</text><line style="stroke:#A80036;stroke-width:1.5;" x1="521.5" x2="559.5" y1="575.9688" y2="575.9688"/><line style="stroke:#A80036;stroke-width:1.5;" x1="521.5" x2="559.5" y1="583.9688" y2="583.9688"/><!--MD5=[90ba54f54370e77ef24813dec6818fa3]
class Button--><rect codeLine="66" fill="#FEFECE" filter="url(#f1w33bclx2cjan)" height="52.7734" id="Button" style="stroke:#A80036;stroke-width:1.5;" width="52" x="1127.5" y="184"/><text fill="#000000" font-family="sans-serif" font-size="12" lengthAdjust="spacing" textLength="38" x="1134.5" y="200.1387">Button</text><line style="stroke:#A80036;stroke-width:1.5;" x1="1128.5" x2="1178.5" y1="207.9688" y2="207.9688"/><line style="stroke:#A80036;stroke-width:1.5;" x1="1128.5" x2="1178.5" y1="215.9688" y2="215.9688"/><text fill="#000000" font-family="sans-serif" font-size="11" lengthAdjust="spacing" textLength="40" x="1133.5" y="230.1792">email()</text><!--MD5=[a4cb0f987c11031dc931233a0e7767af]
class Stock--><rect codeLine="71" fill="#FEFECE" filter="url(#f1w33bclx2cjan)" height="39.9688" id="Stock" style="stroke:#A80036;stroke-width:1.5;" width="40" x="951.5" y="384"/><text fill="#000000" font-family="sans-serif" font-size="12" lengthAdjust="spacing" textLength="34" x="954.5" y="400.1387">Stock</text><line style="stroke:#A80036;stroke-width:1.5;" x1="952.5" x2="990.5" y1="407.9688" y2="407.9688"/><line style="stroke:#A80036;stroke-width:1.5;" x1="952.5" x2="990.5" y1="415.9688" y2="415.9688"/><!--MD5=[53a588df3f5f0f7f452d1b4562b14650]
link User to Item--><path codeLine="73" d="M536.617,420.024 C615.702,453.86 805.769,535.177 868.799,562.144 " fill="none" id="User-to-Item" style="stroke:#A80036;stroke-width:1.0;"/><polygon fill="#A80036" points="873.463,564.139,866.7623,556.9209,868.8662,562.172,863.6151,564.2758,873.463,564.139" style="stroke:#A80036;stroke-width:1.0;"/><text fill="#000000" font-family="sans-serif" font-size="13" lengthAdjust="spacing" textLength="27" x="776.5" y="518.0669">click</text><!--MD5=[64e0f86e94d6dfda4e58f555418d177b]
link Darin to Item--><path codeLine="74" d="M1145.85,430.504 C1136.47,457.349 1117.95,498.856 1087.5,522 C1033.76,562.847 950.266,570.031 911.128,571.037 " fill="none" id="Darin-to-Item" style="stroke:#A80036;stroke-width:1.0;"/><polygon fill="#A80036" points="905.684,571.144,914.7611,574.9658,910.683,571.0454,914.6034,566.9673,905.684,571.144" style="stroke:#A80036;stroke-width:1.0;"/><text fill="#000000" font-family="sans-serif" font-size="13" lengthAdjust="spacing" textLength="47" x="1104.5" y="518.0669">reorder</text><!--MD5=[87e802f94dff5db0b14b612664619da8]
link User to Account--><path codeLine="75" d="M534.47,475.065 C543.489,491.201 553.99,507.785 565.5,522 C573.26,531.584 583.058,540.769 592.332,548.544 " fill="none" id="User-to-Account" style="stroke:#A80036;stroke-width:1.0;"/><polygon fill="#A80036" points="596.267,551.787,591.8657,542.9763,592.4085,548.6071,586.7778,549.1499,596.267,551.787" style="stroke:#A80036;stroke-width:1.0;"/><text fill="#000000" font-family="sans-serif" font-size="13" lengthAdjust="spacing" textLength="49" x="566.5" y="518.0669">request</text><!--MD5=[0c33994447a5a115d17347b31ff58a4b]
link Admin to Item--><path codeLine="76" d="M785.724,216.557 C845.839,226.652 958.984,255.456 1008.5,333 C1042.47,386.192 1035.72,418.062 1008.5,475 C988.152,517.56 938.705,547.294 910.368,561.499 " fill="none" id="Admin-to-Item" style="stroke:#A80036;stroke-width:1.0;"/><polygon fill="#A80036" points="905.672,563.808,915.5135,563.4274,910.1592,561.6023,911.9843,556.2479,905.672,563.808" style="stroke:#A80036;stroke-width:1.0;"/><text fill="#000000" font-family="sans-serif" font-size="13" lengthAdjust="spacing" textLength="24" x="1033.5" y="408.5669">add</text><!--MD5=[0c33994447a5a115d17347b31ff58a4b]
link Admin to Item--><path codeLine="79" d="M780.974,256.204 C796.69,278.329 814.437,306.025 826.5,333 C859.7,407.239 878.35,502.593 885.739,546.667 " fill="none" id="Admin-to-Item-1" style="stroke:#A80036;stroke-width:1.0;"/><polygon fill="#A80036" points="886.584,551.783,889.0621,542.251,885.7683,546.85,881.1693,543.5562,886.584,551.783" style="stroke:#A80036;stroke-width:1.0;"/><text fill="#000000" font-family="sans-serif" font-size="13" lengthAdjust="spacing" textLength="49" x="872.5" y="408.5669">reserve</text><!--MD5=[985973f9e03e409a5b242353e3e71768]
link Volunteer to Reservation--><path codeLine="77" d="M1303.67,61.313 C1273.65,70.974 1237.79,88.209 1219.5,118 C1205.6,140.645 1223.85,167.718 1241.71,186.513 " fill="none" id="Volunteer-to-Reservation" style="stroke:#A80036;stroke-width:1.0;"/><polygon fill="#A80036" points="1245.26,190.159,1241.8288,180.9272,1241.7647,186.5836,1236.1082,186.5196,1245.26,190.159" style="stroke:#A80036;stroke-width:1.0;"/><text fill="#000000" font-family="sans-serif" font-size="13" lengthAdjust="spacing" textLength="53" x="1220.5" y="131.0669">manage</text><!--MD5=[985973f9e03e409a5b242353e3e71768]
link Volunteer to Reservation--><path codeLine="96" d="M1332.9,88.204 C1316.53,118.571 1294.14,160.087 1280.26,185.826 " fill="none" id="Volunteer-to-Reservation-1" style="stroke:#A80036;stroke-width:1.0;"/><polygon fill="#A80036" points="1277.78,190.442,1285.5726,184.4191,1280.1533,186.0412,1278.5313,180.6218,1277.78,190.442" style="stroke:#A80036;stroke-width:1.0;"/><text fill="#000000" font-family="sans-serif" font-size="13" lengthAdjust="spacing" textLength="30" x="1317.5" y="131.0669">view</text><!--MD5=[c315df02818a4a8f5b64eb2f4ea98962]
reverse link Admin to User--><path codeLine="78" d="M697.05,250.151 C649.556,287.275 578.981,342.439 536.874,375.351 " fill="none" id="Admin-backto-User" style="stroke:#A80036;stroke-width:1.0;"/><polygon fill="#FFFFFF" points="707.408,242.055,700.2174,242.5983,697.9533,249.4447,705.1439,248.9014,707.408,242.055" style="stroke:#A80036;stroke-width:1.0;"/><!--MD5=[b59ec05fccf4ecb7c4fb4d6d1f74254f]
link Admin to Status--><path codeLine="80" d="M751.075,256.114 C759.454,337.853 776.421,503.459 776.5,505 C777.205,518.832 776.578,534.3 775.718,546.782 " fill="none" id="Admin-to-Status" style="stroke:#A80036;stroke-width:1.0;"/><polygon fill="#A80036" points="775.338,551.935,779.988,543.253,775.7051,546.9485,772.0096,542.6656,775.338,551.935" style="stroke:#A80036;stroke-width:1.0;"/><text fill="#000000" font-family="sans-serif" font-size="13" lengthAdjust="spacing" textLength="47" x="774.5" y="408.5669">change</text><!--MD5=[8e80922e33f05c5fc9e20570b2b387e8]
link Manager to Button--><path codeLine="81" d="M1152.11,75.501 C1151.48,88.259 1150.81,103.941 1150.5,118 C1150.06,138.161 1150.79,160.812 1151.64,178.534 " fill="none" id="Manager-to-Button" style="stroke:#A80036;stroke-width:1.0;"/><polygon fill="#A80036" points="1151.91,183.868,1155.4556,174.6795,1151.6603,178.8742,1147.4656,175.079,1151.91,183.868" style="stroke:#A80036;stroke-width:1.0;"/><text fill="#000000" font-family="sans-serif" font-size="13" lengthAdjust="spacing" textLength="27" x="1151.5" y="131.0669">click</text><!--MD5=[993a1ed30139d6bc9fd462e29443e622]
link User to User--><path codeLine="82" d="M536.797,394.231 C555.048,392.728 571.5,395.984 571.5,404 C571.5,411.264 557.988,414.62 541.871,414.066 " fill="none" id="User-to-User" style="stroke:#A80036;stroke-width:1.0;"/><polygon fill="#A80036" points="536.797,413.769,545.5473,418.2893,541.7884,414.0619,546.0158,410.303,536.797,413.769" style="stroke:#A80036;stroke-width:1.0;"/><text fill="#000000" font-family="sans-serif" font-size="13" lengthAdjust="spacing" textLength="39" x="577.5" y="408.5669">return</text><!--MD5=[993a1ed30139d6bc9fd462e29443e622]
link User to User--><path codeLine="93" d="M536.698,388.425 C575.377,378.822 622.5,384.014 622.5,404 C622.5,423.128 579.339,428.705 541.726,420.731 " fill="none" id="User-to-User-1" style="stroke:#A80036;stroke-width:1.0;"/><polygon fill="#A80036" points="536.698,419.575,544.5733,425.4894,541.5709,420.695,546.3653,417.6927,536.698,419.575" style="stroke:#A80036;stroke-width:1.0;"/><text fill="#000000" font-family="sans-serif" font-size="13" lengthAdjust="spacing" textLength="30" x="628.5" y="408.5669">view</text><!--MD5=[10d3a138017e4345618480df327ed029]
link Button to Darin--><path codeLine="83" d="M1153.5,237.327 C1153.5,272.26 1153.5,334.496 1153.5,371.939 " fill="none" id="Button-to-Darin" style="stroke:#A80036;stroke-width:1.0;"/><polygon fill="#A80036" points="1153.5,377.278,1157.5,368.278,1153.5,372.278,1149.5,368.278,1153.5,377.278" style="stroke:#A80036;stroke-width:1.0;"/><text fill="#000000" font-family="sans-serif" font-size="13" lengthAdjust="spacing" textLength="35" x="1154.5" y="299.0669">email</text><!--MD5=[7d60add0fc534d13377f64d2ee042d79]
reverse link AdminUser to User--><path codeLine="84" d="M238.685,241.17 C301.714,279.981 410.661,347.066 466.415,381.396 " fill="none" id="AdminUser-backto-User" style="stroke:#A80036;stroke-width:1.0;"/><polygon fill="none" points="234.817,247.009,221.457,230.562,242.158,235.088,234.817,247.009" style="stroke:#A80036;stroke-width:1.0;"/><!--MD5=[9acc32825fcbd67eb847476300da9d21]
link User to Status--><path codeLine="85" d="M536.663,435.606 C566.973,460.963 612.652,496.801 656.5,522 C685.912,538.903 722.291,553.206 746.603,561.917 " fill="none" id="User-to-Status" style="stroke:#A80036;stroke-width:1.0;"/><polygon fill="#A80036" points="751.601,563.69,744.4557,556.9118,746.8886,562.0187,741.7816,564.4516,751.601,563.69" style="stroke:#A80036;stroke-width:1.0;"/><text fill="#000000" font-family="sans-serif" font-size="13" lengthAdjust="spacing" textLength="45" x="657.5" y="518.0669">update</text><!--MD5=[9c11a8c901c387ea880f1377c3f0f309]
link Admin to Log--><path codeLine="86" d="M707.252,220.894 C647.179,236.65 530.753,272.741 448.5,333 C346.408,407.793 309.503,432.973 266.5,552 C260.459,568.72 257.601,576.61 266.5,592 C292.456,636.8873 354.205,658.8027 385.936,667.4144 " fill="none" id="Admin-to-Log" style="stroke:#A80036;stroke-width:1.0;"/><polygon fill="#A80036" points="391.129,668.7773,383.4384,662.6247,386.2926,667.5087,381.4086,670.3629,391.129,668.7773" style="stroke:#A80036;stroke-width:1.0;"/><text fill="#000000" font-family="sans-serif" font-size="13" lengthAdjust="spacing" textLength="29" x="286.5" y="518.0669">read</text><!--MD5=[e4fce08c0700eb7718c603a02b774243]
link User to Inventory--><path codeLine="87" d="M466.077,436.614 C429.412,469.337 373.062,519.628 340.7,548.51 " fill="none" id="User-to-Inventory" style="stroke:#A80036;stroke-width:1.0;"/><polygon fill="#A80036" points="336.875,551.924,346.2527,548.9141,340.6049,548.5941,340.9249,542.9463,336.875,551.924" style="stroke:#A80036;stroke-width:1.0;"/><text fill="#000000" font-family="sans-serif" font-size="13" lengthAdjust="spacing" textLength="45" x="387.5" y="518.0669">update</text><!--MD5=[3d60f4c331af53784c92e629bdfab05e]
reverse link Item to Log--><path codeLine="88" d="M860.682,580.458 C846.253,584.103 828.494,588.457 812.5,592 C659.23,625.953 471.858,660.0925 419.61,669.4795 " fill="none" id="Item-backto-Log" style="stroke:#A80036;stroke-width:1.0;"/><polygon fill="#FFFFFF" points="873.329,577.229,866.526,574.8375,861.7019,580.1974,868.5049,582.5889,873.329,577.229" style="stroke:#A80036;stroke-width:1.0;"/><!--MD5=[97f1edcfec5337e6fb82723724f888ee]
reverse link Stock to Item--><path codeLine="89" d="M953.19,442.066 C936.372,476.112 912.119,525.21 898.923,551.925 " fill="none" id="Stock-backto-Item" style="stroke:#A80036;stroke-width:1.0;"/><polygon fill="none" points="946.96,438.874,962.094,424.042,959.512,445.074,946.96,438.874" style="stroke:#A80036;stroke-width:1.0;"/><!--MD5=[b1a786bad21caa5949445ef60c77957d]
link Volunteer to Location--><path codeLine="90" d="M1393.13,88.269 C1402.39,97.736 1412.02,108.028 1420.5,118 C1439.36,140.166 1458.78,167.241 1471.82,186.166 " fill="none" id="Volunteer-to-Location" style="stroke:#A80036;stroke-width:1.0;"/><polygon fill="#A80036" points="1474.67,190.314,1472.8651,180.6319,1471.8364,186.1945,1466.2739,185.1657,1474.67,190.314" style="stroke:#A80036;stroke-width:1.0;"/><text fill="#000000" font-family="sans-serif" font-size="13" lengthAdjust="spacing" textLength="37" x="1435.5" y="131.0669">check</text><!--MD5=[b5993653948353ed090904e21ea229e1]
link Volunteer to Availability--><path codeLine="91" d="M1362.12,88.204 C1368.95,118.445 1378.27,159.743 1384.08,185.505 " fill="none" id="Volunteer-to-Availability" style="stroke:#A80036;stroke-width:1.0;"/><polygon fill="#A80036" points="1385.2,190.442,1387.1194,180.782,1384.0987,185.5648,1379.3159,182.5441,1385.2,190.442" style="stroke:#A80036;stroke-width:1.0;"/><text fill="#000000" font-family="sans-serif" font-size="13" lengthAdjust="spacing" textLength="37" x="1374.5" y="131.0669">check</text><!--MD5=[42403f8cb00a1816f7bb5566a73f0503]
link User to EmailNotification--><path codeLine="92" d="M470.919,475.043 C466.677,485.068 462.43,495.276 458.5,505 C452.906,518.84 446.975,534.454 442.294,547.02 " fill="none" id="User-to-EmailNotification" style="stroke:#A80036;stroke-width:1.0;"/><polygon fill="#A80036" points="440.5,551.852,447.384,544.8086,442.2414,547.165,439.8849,542.0224,440.5,551.852" style="stroke:#A80036;stroke-width:1.0;"/><text fill="#000000" font-family="sans-serif" font-size="13" lengthAdjust="spacing" textLength="21" x="459.5" y="518.0669">get</text><!--MD5=[fbdffb236416bd2d42dd13dbb3b60295]
link Developer to Spreadsheet--><path codeLine="94" d="M59.5,75.626 C59.5,105.802 59.5,155.553 59.5,185.159 " fill="none" id="Developer-to-Spreadsheet" style="stroke:#A80036;stroke-width:1.0;"/><polygon fill="#A80036" points="59.5,190.444,63.5,181.444,59.5,185.444,55.5,181.444,59.5,190.444" style="stroke:#A80036;stroke-width:1.0;"/><text fill="#000000" font-family="sans-serif" font-size="13" lengthAdjust="spacing" textLength="42" x="60.5" y="131.0669">import</text><!--MD5=[570ec5c4e8a1dd44e7fcb71a8cfc57a6]
link User to Detail--><path codeLine="95" d="M486.658,475.279 C486.045,491.074 487.652,507.455 493.5,522 C498.271,533.866 507.441,544.476 516.423,552.763 " fill="none" id="User-to-Detail" style="stroke:#A80036;stroke-width:1.0;"/><polygon fill="#A80036" points="520.248,556.169,516.189,547.1955,516.5147,552.8429,510.8673,553.1687,520.248,556.169" style="stroke:#A80036;stroke-width:1.0;"/><text fill="#000000" font-family="sans-serif" font-size="13" lengthAdjust="spacing" textLength="30" x="494.5" y="518.0669">view</text><!--MD5=[37cfcf4422e5d0f952975164d2c11cac]
@startuml
hide circle
class Developer<actor> {
}
class Admin<actor> {
}
class Volunteer<actor> {
}
class Manager<actor> {
}
class User<actor> {
}
class AdminUser<actor> {
}
class Log {
}
class User {
	view()
	search()
	return()
	update()
	request()
	browse()
	get()
	click()
}
class Account {
}
class Admin {
	add()
	reserve()
	read()
	change()
}
class Item {
}
class Volunteer {
	view()
	manage()
	check()
}
class Reservation {
}
class Availability {
}
class Darin {
	reorder()
}
class Status {
}
class Inventory {
}
class Location {
}
class EmailNotification {
}
class Developer {
	import()
}
class Spreadsheet {
}
class Detail {
}
class Manager {
	click()
}
class Button {
	email()
}
class AdminUser {
}
class Stock {
}
User - -> Item : click
Darin - -> Item : reorder
User - -> Account : request
Admin - -> Item : add
Volunteer - -> Reservation : manage
Admin o- - User
Admin - -> Item : reserve
Admin - -> Status : change
Manager - -> Button : click
User - -> User : return
Button - -> Darin : email
AdminUser <|- - User
User - -> Status : update
Admin - -> Log : read
User - -> Inventory : update
Item o- - Log
Stock <|- - Item
Volunteer - -> Location : check
Volunteer - -> Availability : check
User - -> EmailNotification : get
User - -> User : view
Developer - -> Spreadsheet : import
User - -> Detail : view
Volunteer - -> Reservation : view
@enduml

PlantUML version 1.2021.10beta2(Unknown compile time)
(GPL source distribution)
Java Runtime: Java(TM) SE Runtime Environment
JVM: Java HotSpot(TM) 64-Bit Server VM
Default Encoding: UTF-8
Language: en
Country: US
--></g></svg>