<?xml version="1.0" encoding="UTF-8" standalone="no"?><svg xmlns="http://www.w3.org/2000/svg" xmlns:xlink="http://www.w3.org/1999/xlink" contentScriptType="application/ecmascript" contentStyleType="text/css" height="400px" preserveAspectRatio="none" style="width:1938px;height:400px;background:#FFFFFF;" version="1.1" viewBox="0 0 1938 400" width="1938px" zoomAndPan="magnify"><defs><filter height="300%" id="fnzqn2bse0ben" width="300%" x="-1" y="-1"><feGaussianBlur result="blurOut" stdDeviation="2.0"/><feColorMatrix in="blurOut" result="blurOut2" type="matrix" values="0 0 0 0 0 0 0 0 0 0 0 0 0 0 0 0 0 0 .4 0"/><feOffset dx="4.0" dy="4.0" in="blurOut2" result="blurOut3"/><feBlend in="SourceGraphic" in2="blurOut3" mode="normal"/></filter></defs><g><!--MD5=[3fd616f346a44cd59a91eb10b19e157c]
class User--><rect codeLine="75" fill="#FEFECE" filter="url(#fnzqn2bse0ben)" height="52.7734" id="User" style="stroke:#A80036;stroke-width:1.5;" width="70" x="28" y="48.5"/><text fill="#000000" font-family="sans-serif" font-size="12" lengthAdjust="spacing" textLength="29" x="31" y="64.6387">User</text><rect fill="#FFFFFF" height="15.9688" style="stroke:#000000;stroke-width:1.0;stroke-dasharray:2.0,2.0;" width="33" x="68" y="45.5"/><text fill="#000000" font-family="sans-serif" font-size="12" font-style="italic" lengthAdjust="spacing" textLength="31" x="69" y="57.6387">actor</text><line style="stroke:#A80036;stroke-width:1.5;" x1="29" x2="97" y1="72.4688" y2="72.4688"/><line style="stroke:#A80036;stroke-width:1.5;" x1="29" x2="97" y1="80.4688" y2="80.4688"/><text fill="#000000" font-family="sans-serif" font-size="11" lengthAdjust="spacing" textLength="30" x="34" y="94.6792">see()</text><!--MD5=[fd8f06804651a767af6d5ee4693cdfe7]
class Coach--><rect codeLine="32" fill="#FEFECE" filter="url(#fnzqn2bse0ben)" height="129.6016" id="Coach" style="stroke:#A80036;stroke-width:1.5;" width="78" x="754" y="10"/><text fill="#000000" font-family="sans-serif" font-size="12" lengthAdjust="spacing" textLength="37" x="757" y="26.1387">Coach</text><rect fill="#FFFFFF" height="15.9688" style="stroke:#000000;stroke-width:1.0;stroke-dasharray:2.0,2.0;" width="33" x="802" y="7"/><text fill="#000000" font-family="sans-serif" font-size="12" font-style="italic" lengthAdjust="spacing" textLength="31" x="803" y="19.1387">actor</text><line style="stroke:#A80036;stroke-width:1.5;" x1="755" x2="831" y1="33.9688" y2="33.9688"/><line style="stroke:#A80036;stroke-width:1.5;" x1="755" x2="831" y1="41.9688" y2="41.9688"/><text fill="#000000" font-family="sans-serif" font-size="11" lengthAdjust="spacing" textLength="30" x="760" y="56.1792">edit()</text><text fill="#000000" font-family="sans-serif" font-size="11" lengthAdjust="spacing" textLength="47" x="760" y="68.9839">review()</text><text fill="#000000" font-family="sans-serif" font-size="11" lengthAdjust="spacing" textLength="47" x="760" y="81.7886">modify()</text><text fill="#000000" font-family="sans-serif" font-size="11" lengthAdjust="spacing" textLength="58" x="760" y="94.5933">modified()</text><text fill="#000000" font-family="sans-serif" font-size="11" lengthAdjust="spacing" textLength="48" x="760" y="107.3979">expect()</text><text fill="#000000" font-family="sans-serif" font-size="11" lengthAdjust="spacing" textLength="48" x="760" y="120.2026">extract()</text><text fill="#000000" font-family="sans-serif" font-size="11" lengthAdjust="spacing" textLength="62" x="760" y="133.0073">overwrite()</text><!--MD5=[d342058c8fb6f80e9d50d673c6908241]
class Developer--><rect codeLine="52" fill="#FEFECE" filter="url(#fnzqn2bse0ben)" height="52.7734" id="Developer" style="stroke:#A80036;stroke-width:1.5;" width="105" x="1126.5" y="48.5"/><text fill="#000000" font-family="sans-serif" font-size="12" lengthAdjust="spacing" textLength="64" x="1129.5" y="64.6387">Developer</text><rect fill="#FFFFFF" height="15.9688" style="stroke:#000000;stroke-width:1.0;stroke-dasharray:2.0,2.0;" width="33" x="1201.5" y="45.5"/><text fill="#000000" font-family="sans-serif" font-size="12" font-style="italic" lengthAdjust="spacing" textLength="31" x="1202.5" y="57.6387">actor</text><line style="stroke:#A80036;stroke-width:1.5;" x1="1127.5" x2="1230.5" y1="72.4688" y2="72.4688"/><line style="stroke:#A80036;stroke-width:1.5;" x1="1127.5" x2="1230.5" y1="80.4688" y2="80.4688"/><text fill="#000000" font-family="sans-serif" font-size="11" lengthAdjust="spacing" textLength="37" x="1132.5" y="94.6792">have()</text><!--MD5=[cf9bc73d4b319b8f5d50999aecc13d13]
class Parent--><rect codeLine="8" fill="#FEFECE" filter="url(#fnzqn2bse0ben)" height="39.9688" id="Parent" style="stroke:#A80036;stroke-width:1.5;" width="78" x="1505" y="55"/><text fill="#000000" font-family="sans-serif" font-size="12" lengthAdjust="spacing" textLength="37" x="1508" y="71.1387">Parent</text><rect fill="#FFFFFF" height="15.9688" style="stroke:#000000;stroke-width:1.0;stroke-dasharray:2.0,2.0;" width="33" x="1553" y="52"/><text fill="#000000" font-family="sans-serif" font-size="12" font-style="italic" lengthAdjust="spacing" textLength="31" x="1554" y="64.1387">actor</text><line style="stroke:#A80036;stroke-width:1.5;" x1="1506" x2="1582" y1="78.9688" y2="78.9688"/><line style="stroke:#A80036;stroke-width:1.5;" x1="1506" x2="1582" y1="86.9688" y2="86.9688"/><!--MD5=[c3ac0beb173c135b247cb6ed26f9fd5b]
class Treasurer--><rect codeLine="57" fill="#FEFECE" filter="url(#fnzqn2bse0ben)" height="52.7734" id="Treasurer" style="stroke:#A80036;stroke-width:1.5;" width="100" x="1631" y="48.5"/><text fill="#000000" font-family="sans-serif" font-size="12" lengthAdjust="spacing" textLength="59" x="1634" y="64.6387">Treasurer</text><rect fill="#FFFFFF" height="15.9688" style="stroke:#000000;stroke-width:1.0;stroke-dasharray:2.0,2.0;" width="33" x="1701" y="45.5"/><text fill="#000000" font-family="sans-serif" font-size="12" font-style="italic" lengthAdjust="spacing" textLength="31" x="1702" y="57.6387">actor</text><line style="stroke:#A80036;stroke-width:1.5;" x1="1632" x2="1730" y1="72.4688" y2="72.4688"/><line style="stroke:#A80036;stroke-width:1.5;" x1="1632" x2="1730" y1="80.4688" y2="80.4688"/><text fill="#000000" font-family="sans-serif" font-size="11" lengthAdjust="spacing" textLength="30" x="1637" y="94.6792">see()</text><!--MD5=[15c6922f6693225acd2805a9f7199676]
class Maintainer--><rect codeLine="23" fill="#FEFECE" filter="url(#fnzqn2bse0ben)" height="103.9922" id="Maintainer" style="stroke:#A80036;stroke-width:1.5;" width="102" x="1354" y="23"/><text fill="#000000" font-family="sans-serif" font-size="12" lengthAdjust="spacing" textLength="61" x="1357" y="39.1387">Maintainer</text><rect fill="#FFFFFF" height="15.9688" style="stroke:#000000;stroke-width:1.0;stroke-dasharray:2.0,2.0;" width="33" x="1426" y="20"/><text fill="#000000" font-family="sans-serif" font-size="12" font-style="italic" lengthAdjust="spacing" textLength="31" x="1427" y="32.1387">actor</text><line style="stroke:#A80036;stroke-width:1.5;" x1="1355" x2="1455" y1="46.9688" y2="46.9688"/><line style="stroke:#A80036;stroke-width:1.5;" x1="1355" x2="1455" y1="54.9688" y2="54.9688"/><text fill="#000000" font-family="sans-serif" font-size="11" lengthAdjust="spacing" textLength="30" x="1360" y="69.1792">see()</text><text fill="#000000" font-family="sans-serif" font-size="11" lengthAdjust="spacing" textLength="40" x="1360" y="81.9839">insert()</text><text fill="#000000" font-family="sans-serif" font-size="11" lengthAdjust="spacing" textLength="47" x="1360" y="94.7886">modify()</text><text fill="#000000" font-family="sans-serif" font-size="11" lengthAdjust="spacing" textLength="37" x="1360" y="107.5933">have()</text><text fill="#000000" font-family="sans-serif" font-size="11" lengthAdjust="spacing" textLength="47" x="1360" y="120.3979">access()</text><!--MD5=[cb0d66c280b3915a0860a00d9569864a]
class Headcoach--><rect codeLine="70" fill="#FEFECE" filter="url(#fnzqn2bse0ben)" height="52.7734" id="Headcoach" style="stroke:#A80036;stroke-width:1.5;" width="109" x="1766.5" y="48.5"/><text fill="#000000" font-family="sans-serif" font-size="12" lengthAdjust="spacing" textLength="68" x="1769.5" y="64.6387">Headcoach</text><rect fill="#FFFFFF" height="15.9688" style="stroke:#000000;stroke-width:1.0;stroke-dasharray:2.0,2.0;" width="33" x="1845.5" y="45.5"/><text fill="#000000" font-family="sans-serif" font-size="12" font-style="italic" lengthAdjust="spacing" textLength="31" x="1846.5" y="57.6387">actor</text><line style="stroke:#A80036;stroke-width:1.5;" x1="1767.5" x2="1874.5" y1="72.4688" y2="72.4688"/><line style="stroke:#A80036;stroke-width:1.5;" x1="1767.5" x2="1874.5" y1="80.4688" y2="80.4688"/><text fill="#000000" font-family="sans-serif" font-size="11" lengthAdjust="spacing" textLength="61" x="1772.5" y="94.6792">generate()</text><!--MD5=[2c987cbfcba91e56c1bc3dde7ea5e5d7]
class parent--><rect codeLine="16" fill="#FEFECE" filter="url(#fnzqn2bse0ben)" height="78.3828" id="parent" style="stroke:#A80036;stroke-width:1.5;" width="47" x="238.5" y="36"/><text fill="#000000" font-family="sans-serif" font-size="12" lengthAdjust="spacing" textLength="39" x="242.5" y="52.1387">parent</text><line style="stroke:#A80036;stroke-width:1.5;" x1="239.5" x2="284.5" y1="59.9688" y2="59.9688"/><line style="stroke:#A80036;stroke-width:1.5;" x1="239.5" x2="284.5" y1="67.9688" y2="67.9688"/><text fill="#000000" font-family="sans-serif" font-size="11" lengthAdjust="spacing" textLength="31" x="244.5" y="82.1792">sign()</text><text fill="#000000" font-family="sans-serif" font-size="11" lengthAdjust="spacing" textLength="35" x="244.5" y="94.9839">view()</text><text fill="#000000" font-family="sans-serif" font-size="11" lengthAdjust="spacing" textLength="30" x="244.5" y="107.7886">edit()</text><!--MD5=[3ec2cd5dff9098f19300dc116133bc22]
class Kid--><rect codeLine="21" fill="#FEFECE" filter="url(#fnzqn2bse0ben)" height="39.9688" id="Kid" style="stroke:#A80036;stroke-width:1.5;" width="25" x="285.5" y="223.5"/><text fill="#000000" font-family="sans-serif" font-size="12" lengthAdjust="spacing" textLength="19" x="288.5" y="239.6387">Kid</text><line style="stroke:#A80036;stroke-width:1.5;" x1="286.5" x2="309.5" y1="247.4688" y2="247.4688"/><line style="stroke:#A80036;stroke-width:1.5;" x1="286.5" x2="309.5" y1="255.4688" y2="255.4688"/><!--MD5=[ed3afe56f065d25b4329669e73deaf58]
class Database--><rect codeLine="30" fill="#FEFECE" filter="url(#fnzqn2bse0ben)" height="39.9688" id="Database" style="stroke:#A80036;stroke-width:1.5;" width="63" x="1373.5" y="223.5"/><text fill="#000000" font-family="sans-serif" font-size="12" lengthAdjust="spacing" textLength="57" x="1376.5" y="239.6387">Database</text><line style="stroke:#A80036;stroke-width:1.5;" x1="1374.5" x2="1435.5" y1="247.4688" y2="247.4688"/><line style="stroke:#A80036;stroke-width:1.5;" x1="1374.5" x2="1435.5" y1="255.4688" y2="255.4688"/><!--MD5=[6accee1e3af458a52348266fcaa9138e]
class PdfInformation--><rect codeLine="41" fill="#FEFECE" filter="url(#fnzqn2bse0ben)" height="39.9688" id="PdfInformation" style="stroke:#A80036;stroke-width:1.5;" width="91" x="703.5" y="223.5"/><text fill="#000000" font-family="sans-serif" font-size="12" lengthAdjust="spacing" textLength="85" x="706.5" y="239.6387">PdfInformation</text><line style="stroke:#A80036;stroke-width:1.5;" x1="704.5" x2="793.5" y1="247.4688" y2="247.4688"/><line style="stroke:#A80036;stroke-width:1.5;" x1="704.5" x2="793.5" y1="255.4688" y2="255.4688"/><!--MD5=[3d4177ac58b4411586d067f34e84928f]
class List--><rect codeLine="43" fill="#FEFECE" filter="url(#fnzqn2bse0ben)" height="39.9688" id="List" style="stroke:#A80036;stroke-width:1.5;" width="26" x="830" y="223.5"/><text fill="#000000" font-family="sans-serif" font-size="12" lengthAdjust="spacing" textLength="20" x="833" y="239.6387">List</text><line style="stroke:#A80036;stroke-width:1.5;" x1="831" x2="855" y1="247.4688" y2="247.4688"/><line style="stroke:#A80036;stroke-width:1.5;" x1="831" x2="855" y1="255.4688" y2="255.4688"/><!--MD5=[2741598bdf59a7d7e0d5c97658fd3022]
class Result--><rect codeLine="45" fill="#FEFECE" filter="url(#fnzqn2bse0ben)" height="39.9688" id="Result" style="stroke:#A80036;stroke-width:1.5;" width="42" x="938" y="223.5"/><text fill="#000000" font-family="sans-serif" font-size="12" lengthAdjust="spacing" textLength="36" x="941" y="239.6387">Result</text><line style="stroke:#A80036;stroke-width:1.5;" x1="939" x2="979" y1="247.4688" y2="247.4688"/><line style="stroke:#A80036;stroke-width:1.5;" x1="939" x2="979" y1="255.4688" y2="255.4688"/><!--MD5=[fe9e4bf3c3890c470165de9d5ecb172d]
class Signup--><rect codeLine="47" fill="#FEFECE" filter="url(#fnzqn2bse0ben)" height="52.7734" id="Signup" style="stroke:#A80036;stroke-width:1.5;" width="50" x="1068" y="217"/><text fill="#000000" font-family="sans-serif" font-size="12" lengthAdjust="spacing" textLength="41" x="1072.5" y="233.1387">Signup</text><line style="stroke:#A80036;stroke-width:1.5;" x1="1069" x2="1117" y1="240.9688" y2="240.9688"/><line style="stroke:#A80036;stroke-width:1.5;" x1="1069" x2="1117" y1="248.9688" y2="248.9688"/><text fill="#000000" font-family="sans-serif" font-size="11" lengthAdjust="spacing" textLength="38" x="1074" y="263.1792">close()</text><!--MD5=[7e4b98bc19037f240052b6c46d2b0b16]
class Timeframe--><rect codeLine="50" fill="#FEFECE" filter="url(#fnzqn2bse0ben)" height="39.9688" id="Timeframe" style="stroke:#A80036;stroke-width:1.5;" width="70" x="1013" y="347"/><text fill="#000000" font-family="sans-serif" font-size="12" lengthAdjust="spacing" textLength="64" x="1016" y="363.1387">Timeframe</text><line style="stroke:#A80036;stroke-width:1.5;" x1="1014" x2="1082" y1="370.9688" y2="370.9688"/><line style="stroke:#A80036;stroke-width:1.5;" x1="1014" x2="1082" y1="378.9688" y2="378.9688"/><!--MD5=[dab16d122782a892ddb6ee0eadcd68f0]
class Access--><rect codeLine="55" fill="#FEFECE" filter="url(#fnzqn2bse0ben)" height="39.9688" id="Access" style="stroke:#A80036;stroke-width:1.5;" width="50" x="1191" y="223.5"/><text fill="#000000" font-family="sans-serif" font-size="12" lengthAdjust="spacing" textLength="44" x="1194" y="239.6387">Access</text><line style="stroke:#A80036;stroke-width:1.5;" x1="1192" x2="1240" y1="247.4688" y2="247.4688"/><line style="stroke:#A80036;stroke-width:1.5;" x1="1192" x2="1240" y1="255.4688" y2="255.4688"/><!--MD5=[2770d511fa22a6a61bb54ccdb4cbf396]
class Amount--><rect codeLine="60" fill="#FEFECE" filter="url(#fnzqn2bse0ben)" height="39.9688" id="Amount" style="stroke:#A80036;stroke-width:1.5;" width="51" x="1655.5" y="223.5"/><text fill="#000000" font-family="sans-serif" font-size="12" lengthAdjust="spacing" textLength="45" x="1658.5" y="239.6387">Amount</text><line style="stroke:#A80036;stroke-width:1.5;" x1="1656.5" x2="1705.5" y1="247.4688" y2="247.4688"/><line style="stroke:#A80036;stroke-width:1.5;" x1="1656.5" x2="1705.5" y1="255.4688" y2="255.4688"/><!--MD5=[30fd7b95ab383a5e7c83ea23d4ea0fbf]
class Information--><rect codeLine="62" fill="#FEFECE" filter="url(#fnzqn2bse0ben)" height="39.9688" id="Information" style="stroke:#A80036;stroke-width:1.5;" width="73" x="355.5" y="223.5"/><text fill="#000000" font-family="sans-serif" font-size="12" lengthAdjust="spacing" textLength="67" x="358.5" y="239.6387">Information</text><line style="stroke:#A80036;stroke-width:1.5;" x1="356.5" x2="427.5" y1="247.4688" y2="247.4688"/><line style="stroke:#A80036;stroke-width:1.5;" x1="356.5" x2="427.5" y1="255.4688" y2="255.4688"/><!--MD5=[ac13618b1a974308c1f12eb6c57723dc]
class Event--><rect codeLine="64" fill="#FEFECE" filter="url(#fnzqn2bse0ben)" height="39.9688" id="Event" style="stroke:#A80036;stroke-width:1.5;" width="39" x="140.5" y="223.5"/><text fill="#000000" font-family="sans-serif" font-size="12" lengthAdjust="spacing" textLength="33" x="143.5" y="239.6387">Event</text><line style="stroke:#A80036;stroke-width:1.5;" x1="141.5" x2="178.5" y1="247.4688" y2="247.4688"/><line style="stroke:#A80036;stroke-width:1.5;" x1="141.5" x2="178.5" y1="255.4688" y2="255.4688"/><!--MD5=[83d119058829b29a891015d9970ea593]
class Something--><rect codeLine="66" fill="#FEFECE" filter="url(#fnzqn2bse0ben)" height="39.9688" id="Something" style="stroke:#A80036;stroke-width:1.5;" width="70" x="481" y="223.5"/><text fill="#000000" font-family="sans-serif" font-size="12" lengthAdjust="spacing" textLength="64" x="484" y="239.6387">Something</text><line style="stroke:#A80036;stroke-width:1.5;" x1="482" x2="550" y1="247.4688" y2="247.4688"/><line style="stroke:#A80036;stroke-width:1.5;" x1="482" x2="550" y1="255.4688" y2="255.4688"/><!--MD5=[948c0814a6ec018750289a189941a986]
class Week--><rect codeLine="68" fill="#FEFECE" filter="url(#fnzqn2bse0ben)" height="39.9688" id="Week" style="stroke:#A80036;stroke-width:1.5;" width="41" x="1118.5" y="347"/><text fill="#000000" font-family="sans-serif" font-size="12" lengthAdjust="spacing" textLength="35" x="1121.5" y="363.1387">Week</text><line style="stroke:#A80036;stroke-width:1.5;" x1="1119.5" x2="1158.5" y1="370.9688" y2="370.9688"/><line style="stroke:#A80036;stroke-width:1.5;" x1="1119.5" x2="1158.5" y1="378.9688" y2="378.9688"/><!--MD5=[5e8199f92a005e35382be655ea5d2e7d]
class PdfReport--><rect codeLine="73" fill="#FEFECE" filter="url(#fnzqn2bse0ben)" height="39.9688" id="PdfReport" style="stroke:#A80036;stroke-width:1.5;" width="64" x="1766" y="223.5"/><text fill="#000000" font-family="sans-serif" font-size="12" lengthAdjust="spacing" textLength="58" x="1769" y="239.6387">PdfReport</text><line style="stroke:#A80036;stroke-width:1.5;" x1="1767" x2="1829" y1="247.4688" y2="247.4688"/><line style="stroke:#A80036;stroke-width:1.5;" x1="1767" x2="1829" y1="255.4688" y2="255.4688"/><!--MD5=[b07065dfc0d0e09965ec10bfc328bb3e]
class Option--><rect codeLine="78" fill="#FEFECE" filter="url(#fnzqn2bse0ben)" height="39.9688" id="Option" style="stroke:#A80036;stroke-width:1.5;" width="46" x="7" y="223.5"/><text fill="#000000" font-family="sans-serif" font-size="12" lengthAdjust="spacing" textLength="40" x="10" y="239.6387">Option</text><line style="stroke:#A80036;stroke-width:1.5;" x1="8" x2="52" y1="247.4688" y2="247.4688"/><line style="stroke:#A80036;stroke-width:1.5;" x1="8" x2="52" y1="255.4688" y2="255.4688"/><!--MD5=[bbae0660d3f764e0c1bcc4df40d1fa0c]
class UploadEvent--><rect codeLine="80" fill="#FEFECE" filter="url(#fnzqn2bse0ben)" height="39.9688" id="UploadEvent" style="stroke:#A80036;stroke-width:1.5;" width="82" x="586" y="223.5"/><text fill="#000000" font-family="sans-serif" font-size="12" lengthAdjust="spacing" textLength="76" x="589" y="239.6387">UploadEvent</text><line style="stroke:#A80036;stroke-width:1.5;" x1="587" x2="667" y1="247.4688" y2="247.4688"/><line style="stroke:#A80036;stroke-width:1.5;" x1="587" x2="667" y1="255.4688" y2="255.4688"/><!--MD5=[5063315cc73ac988372f791ce425a62d]
class AmountDetail--><rect codeLine="82" fill="#FEFECE" filter="url(#fnzqn2bse0ben)" height="39.9688" id="AmountDetail" style="stroke:#A80036;stroke-width:1.5;" width="85" x="1535.5" y="223.5"/><text fill="#000000" font-family="sans-serif" font-size="12" lengthAdjust="spacing" textLength="79" x="1538.5" y="239.6387">AmountDetail</text><line style="stroke:#A80036;stroke-width:1.5;" x1="1536.5" x2="1619.5" y1="247.4688" y2="247.4688"/><line style="stroke:#A80036;stroke-width:1.5;" x1="1536.5" x2="1619.5" y1="255.4688" y2="255.4688"/><!--MD5=[17c90f3db3a6d0dcb3017decb56e93df]
class CSVFile--><rect codeLine="84" fill="#FEFECE" filter="url(#fnzqn2bse0ben)" height="39.9688" id="CSVFile" style="stroke:#A80036;stroke-width:1.5;" width="51" x="1872.5" y="223.5"/><text fill="#000000" font-family="sans-serif" font-size="12" lengthAdjust="spacing" textLength="45" x="1875.5" y="239.6387">CSVFile</text><line style="stroke:#A80036;stroke-width:1.5;" x1="1873.5" x2="1922.5" y1="247.4688" y2="247.4688"/><line style="stroke:#A80036;stroke-width:1.5;" x1="1873.5" x2="1922.5" y1="255.4688" y2="255.4688"/><!--MD5=[16982da7ff3af71501b9aeee8568bff5]
link Headcoach to PdfReport--><path codeLine="86" d="M1811.92,101.542 C1805.77,120.229 1798.21,146.343 1795,170 C1793.98,177.487 1794.8,179.447 1795,187 C1795.27,197.173 1795.83,208.384 1796.39,218.051 " fill="none" id="Headcoach-to-PdfReport" style="stroke:#A80036;stroke-width:1.0;"/><polygon fill="#A80036" points="1796.7,223.247,1800.1548,214.024,1796.4011,218.2559,1792.1691,214.5022,1796.7,223.247" style="stroke:#A80036;stroke-width:1.0;"/><text fill="#000000" font-family="sans-serif" font-size="13" lengthAdjust="spacing" textLength="58" x="1796" y="183.0669">generate</text><!--MD5=[fdfd39a9d6d1a2526fc5718c3a3a0733]
link Developer to Access--><path codeLine="87" d="M1173.53,101.816 C1169.78,124.765 1166.94,158.931 1176,187 C1179.77,198.664 1186.99,209.943 1194.28,219.252 " fill="none" id="Developer-to-Access" style="stroke:#A80036;stroke-width:1.0;"/><polygon fill="#A80036" points="1197.62,223.384,1195.0702,213.8709,1194.4757,219.4964,1188.8501,218.9019,1197.62,223.384" style="stroke:#A80036;stroke-width:1.0;"/><text fill="#000000" font-family="sans-serif" font-size="13" lengthAdjust="spacing" textLength="32" x="1177" y="183.0669">have</text><!--MD5=[ea3332a70ab11c1c90b7cc0973226790]
link Treasurer to Amount--><path codeLine="88" d="M1681,101.651 C1681,133.384 1681,187.017 1681,218.142 " fill="none" id="Treasurer-to-Amount" style="stroke:#A80036;stroke-width:1.0;"/><polygon fill="#A80036" points="1681,223.309,1685,214.309,1681,218.309,1677,214.309,1681,223.309" style="stroke:#A80036;stroke-width:1.0;"/><text fill="#000000" font-family="sans-serif" font-size="13" lengthAdjust="spacing" textLength="23" x="1682" y="183.0669">see</text><!--MD5=[b9edcce955a9b6d76b95eb1ba2520770]
link Maintainer to Database--><path codeLine="89" d="M1353.82,122.327 C1341.71,136.326 1330.45,152.633 1324,170 C1314.29,196.149 1342.79,216.27 1368.62,228.608 " fill="none" id="Maintainer-to-Database" style="stroke:#A80036;stroke-width:1.0;"/><polygon fill="#A80036" points="1373.4,230.82,1366.9117,223.4104,1368.8622,228.7204,1363.5523,230.6709,1373.4,230.82" style="stroke:#A80036;stroke-width:1.0;"/><text fill="#000000" font-family="sans-serif" font-size="13" lengthAdjust="spacing" textLength="36" x="1325" y="183.0669">insert</text><!--MD5=[b9edcce955a9b6d76b95eb1ba2520770]
link Maintainer to Database--><path codeLine="94" d="M1402.46,127.116 C1401.83,145.941 1401.47,167.44 1402,187 C1402.27,197.173 1402.83,208.384 1403.39,218.051 " fill="none" id="Maintainer-to-Database-1" style="stroke:#A80036;stroke-width:1.0;"/><polygon fill="#A80036" points="1403.7,223.247,1407.1548,214.024,1403.4011,218.2559,1399.1691,214.5022,1403.7,223.247" style="stroke:#A80036;stroke-width:1.0;"/><text fill="#000000" font-family="sans-serif" font-size="13" lengthAdjust="spacing" textLength="44" x="1403" y="183.0669">access</text><!--MD5=[b9edcce955a9b6d76b95eb1ba2520770]
link Maintainer to Database--><path codeLine="109" d="M1443.97,127.253 C1453.55,145.903 1459.24,167.253 1452,187 C1447.55,199.137 1439.14,210.442 1430.66,219.64 " fill="none" id="Maintainer-to-Database-2" style="stroke:#A80036;stroke-width:1.0;"/><polygon fill="#A80036" points="1427.03,223.449,1436.1377,219.7007,1430.4824,219.8322,1430.3509,214.1769,1427.03,223.449" style="stroke:#A80036;stroke-width:1.0;"/><text fill="#000000" font-family="sans-serif" font-size="13" lengthAdjust="spacing" textLength="45" x="1457" y="183.0669">modify</text><!--MD5=[0d6360b542ad5af83d2942dda55fbbbe]
link Maintainer to Access--><path codeLine="90" d="M1353.78,111.424 C1330.72,128.215 1303.65,149.138 1281,170 C1264.29,185.388 1247.22,204.595 1234.76,219.374 " fill="none" id="Maintainer-to-Access" style="stroke:#A80036;stroke-width:1.0;"/><polygon fill="#A80036" points="1231.38,223.418,1240.2196,219.0751,1234.5854,219.5806,1234.0798,213.9464,1231.38,223.418" style="stroke:#A80036;stroke-width:1.0;"/><text fill="#000000" font-family="sans-serif" font-size="13" lengthAdjust="spacing" textLength="32" x="1282" y="183.0669">have</text><!--MD5=[ba2759c70f4e4900e1ad013881ae84ef]
link Coach to Result--><path codeLine="91" d="M832.162,117.584 C852.211,138.626 877.15,164.427 900,187 C911.138,198.003 923.746,209.932 934.44,219.901 " fill="none" id="Coach-to-Result" style="stroke:#A80036;stroke-width:1.0;"/><polygon fill="#A80036" points="938.287,223.479,934.4214,214.4205,934.6259,220.0736,928.9728,220.2782,938.287,223.479" style="stroke:#A80036;stroke-width:1.0;"/><text fill="#000000" font-family="sans-serif" font-size="13" lengthAdjust="spacing" textLength="61" x="901" y="183.0669">overwrite</text><!--MD5=[ba2759c70f4e4900e1ad013881ae84ef]
link Coach to Result--><path codeLine="99" d="M832.328,84.744 C874.087,96.359 937.983,121.343 967,170 C975.624,184.462 973.131,203.46 968.743,218.38 " fill="none" id="Coach-to-Result-1" style="stroke:#A80036;stroke-width:1.0;"/><polygon fill="#A80036" points="967.196,223.271,973.725,215.8972,968.7045,218.504,966.0977,213.4836,967.196,223.271" style="stroke:#A80036;stroke-width:1.0;"/><text fill="#000000" font-family="sans-serif" font-size="13" lengthAdjust="spacing" textLength="45" x="974" y="183.0669">modify</text><!--MD5=[70528e57268fa72302a83420812e0ce2]
link Coach to Information--><path codeLine="92" d="M753.902,88.288 C702.308,104.908 609.018,136.364 532,170 C496.788,185.378 458.096,205.691 430.329,220.903 " fill="none" id="Coach-to-Information" style="stroke:#A80036;stroke-width:1.0;"/><polygon fill="#A80036" points="425.623,223.49,435.4368,222.6597,430.0046,221.0813,431.5829,215.6491,425.623,223.49" style="stroke:#A80036;stroke-width:1.0;"/><text fill="#000000" font-family="sans-serif" font-size="13" lengthAdjust="spacing" textLength="43" x="533" y="183.0669">review</text><!--MD5=[64f23338ab87c305697b520aaa530790]
link Coach to PdfInformation--><path codeLine="93" d="M756.173,140.006 C751.981,149.784 748.368,159.967 746,170 C742.262,185.833 743.059,204.142 744.766,218.399 " fill="none" id="Coach-to-PdfInformation" style="stroke:#A80036;stroke-width:1.0;"/><polygon fill="#A80036" points="745.43,223.456,748.2263,214.0124,744.7801,218.4984,740.2942,215.0522,745.43,223.456" style="stroke:#A80036;stroke-width:1.0;"/><text fill="#000000" font-family="sans-serif" font-size="13" lengthAdjust="spacing" textLength="46" x="747" y="183.0669">extract</text><!--MD5=[68b727e90dc450bd3703a6c2977b7229]
link Coach to List--><path codeLine="95" d="M812.331,140.373 C820.539,167.706 829.608,197.905 835.74,218.323 " fill="none" id="Coach-to-List" style="stroke:#A80036;stroke-width:1.0;"/><polygon fill="#A80036" points="837.233,223.296,838.4744,213.5257,835.7944,218.5074,830.8127,215.8274,837.233,223.296" style="stroke:#A80036;stroke-width:1.0;"/><text fill="#000000" font-family="sans-serif" font-size="13" lengthAdjust="spacing" textLength="24" x="827" y="183.0669">edit</text><!--MD5=[86e24b2f879a339a33d4b1444efb8773]
link Signup to Timeframe--><path codeLine="96" d="M1075.85,270.164 C1070.41,279.269 1064.83,289.7941 1061,300 C1056.01,313.2997 1052.83,328.8595 1050.86,341.5298 " fill="none" id="Signup-to-Timeframe" style="stroke:#A80036;stroke-width:1.0;"/><polygon fill="#A80036" points="1050.09,346.768,1055.358,338.4465,1050.8181,341.8213,1047.4433,337.2814,1050.09,346.768" style="stroke:#A80036;stroke-width:1.0;"/><text fill="#000000" font-family="sans-serif" font-size="13" lengthAdjust="spacing" textLength="33" x="1062" y="313.0669">close</text><!--MD5=[29793cb2e6ce1def3d6fecaef4efbf08]
link User to Event--><path codeLine="97" d="M65.1318,101.612 C68.1132,125.357 75.209,160.856 92,187 C103.045,204.197 121.182,218.609 135.949,228.433 " fill="none" id="User-to-Event" style="stroke:#A80036;stroke-width:1.0;"/><polygon fill="#A80036" points="140.411,231.333,135.0435,223.0753,136.2183,228.6088,130.6848,229.7836,140.411,231.333" style="stroke:#A80036;stroke-width:1.0;"/><text fill="#000000" font-family="sans-serif" font-size="13" lengthAdjust="spacing" textLength="23" x="93" y="183.0669">see</text><!--MD5=[2d3d24ce923cffcb9d23da37a39a64b9]
link User to Option--><path codeLine="98" d="M50.2644,101.591 C41.7987,120.085 31.4492,145.943 27,170 C25.626,177.43 26.796,179.447 27,187 C27.2748,197.173 27.8323,208.384 28.393,218.051 " fill="none" id="User-to-Option" style="stroke:#A80036;stroke-width:1.0;"/><polygon fill="#A80036" points="28.7031,223.247,32.1585,214.0242,28.4045,218.2559,24.1728,214.5019,28.7031,223.247" style="stroke:#A80036;stroke-width:1.0;"/><text fill="#000000" font-family="sans-serif" font-size="13" lengthAdjust="spacing" textLength="23" x="28" y="183.0669">see</text><!--MD5=[ef8902237974c6412685fef6c4f6d564]
link Coach to UploadEvent--><path codeLine="100" d="M753.892,108.689 C733.601,126.219 708.78,148.572 688,170 C672.718,185.759 656.792,204.79 645.046,219.399 " fill="none" id="Coach-to-UploadEvent" style="stroke:#A80036;stroke-width:1.0;"/><polygon fill="#A80036" points="641.848,223.396,650.5951,218.8697,644.9727,219.4926,644.3498,213.8702,641.848,223.396" style="stroke:#A80036;stroke-width:1.0;"/><text fill="#000000" font-family="sans-serif" font-size="13" lengthAdjust="spacing" textLength="46" x="689" y="183.0669">extract</text><!--MD5=[2aaa1a92290f1e06ec85375617fbfb80]
link parent to Information--><path codeLine="101" d="M285.542,106.152 C310.927,138.664 350.791,189.72 373.855,219.261 " fill="none" id="parent-to-Information" style="stroke:#A80036;stroke-width:1.0;"/><polygon fill="#A80036" points="377.133,223.459,374.7475,213.9034,374.0561,219.5179,368.4416,218.8265,377.133,223.459" style="stroke:#A80036;stroke-width:1.0;"/><text fill="#000000" font-family="sans-serif" font-size="13" lengthAdjust="spacing" textLength="30" x="348" y="183.0669">view</text><!--MD5=[2c270355e0f703b742f775700c5ed821]
link Coach to Signup--><path codeLine="102" d="M832.294,85.731 C881.269,99.145 966.06,126.691 1028,170 C1044.72,181.688 1060.11,198.463 1071.72,212.934 " fill="none" id="Coach-to-Signup" style="stroke:#A80036;stroke-width:1.0;"/><polygon fill="#A80036" points="1074.89,216.949,1072.455,207.4059,1071.7927,213.0239,1066.1748,212.3616,1074.89,216.949" style="stroke:#A80036;stroke-width:1.0;"/><text fill="#000000" font-family="sans-serif" font-size="13" lengthAdjust="spacing" textLength="44" x="1048" y="183.0669">expect</text><!--MD5=[7fad9d87aa8be54f9a0087ae097247f6]
link parent to Event--><path codeLine="103" d="M238.599,114.198 C218.917,146.327 191.387,191.266 174.675,218.545 " fill="none" id="parent-to-Event" style="stroke:#A80036;stroke-width:1.0;"/><polygon fill="#A80036" points="171.887,223.096,180.0006,217.513,174.4999,218.8331,173.1799,213.3324,171.887,223.096" style="stroke:#A80036;stroke-width:1.0;"/><text fill="#000000" font-family="sans-serif" font-size="13" lengthAdjust="spacing" textLength="30" x="203" y="183.0669">view</text><!--MD5=[7fad9d87aa8be54f9a0087ae097247f6]
link parent to Event--><path codeLine="104" d="M238.294,90.175 C214.098,106.148 177.906,134.568 162,170 C155.249,185.039 154.88,203.658 156.131,218.261 " fill="none" id="parent-to-Event-1" style="stroke:#A80036;stroke-width:1.0;"/><polygon fill="#A80036" points="156.656,223.446,159.7278,214.0884,156.1517,218.4715,151.7686,214.8953,156.656,223.446" style="stroke:#A80036;stroke-width:1.0;"/><text fill="#000000" font-family="sans-serif" font-size="13" lengthAdjust="spacing" textLength="24" x="163" y="183.0669">edit</text><!--MD5=[be4d14d5f7d3aa138ba48e05b233099d]
link Maintainer to AmountDetail--><path codeLine="105" d="M1456.08,119.471 C1473.81,135.041 1493.61,152.959 1511,170 C1527.23,185.896 1544.61,204.766 1557.6,219.269 " fill="none" id="Maintainer-to-AmountDetail" style="stroke:#A80036;stroke-width:1.0;"/><polygon fill="#A80036" points="1561.15,223.238,1558.1383,213.8609,1557.8194,219.5088,1552.1716,219.1899,1561.15,223.238" style="stroke:#A80036;stroke-width:1.0;"/><text fill="#000000" font-family="sans-serif" font-size="13" lengthAdjust="spacing" textLength="23" x="1528" y="183.0669">see</text><!--MD5=[cadfa5746845296d6faf1ef2189e10e8]
link Coach to Something--><path codeLine="106" d="M753.872,93.136 C715.565,110.54 656.112,139.246 608,170 C584.424,185.07 559.614,204.884 541.708,219.99 " fill="none" id="Coach-to-Something" style="stroke:#A80036;stroke-width:1.0;"/><polygon fill="#A80036" points="537.767,223.332,547.2179,220.5605,541.58,220.0976,542.0428,214.4597,537.767,223.332" style="stroke:#A80036;stroke-width:1.0;"/><text fill="#000000" font-family="sans-serif" font-size="13" lengthAdjust="spacing" textLength="56" x="609" y="183.0669">modified</text><!--MD5=[fbcb6d9ab2e4ebd6a67d5c07b9f89c44]
link Headcoach to CSVFile--><path codeLine="107" d="M1832.86,101.651 C1847.6,133.515 1872.55,187.461 1886.91,218.526 " fill="none" id="Headcoach-to-CSVFile" style="stroke:#A80036;stroke-width:1.0;"/><polygon fill="#A80036" points="1889.12,223.309,1888.9652,213.4614,1887.0177,218.7724,1881.7066,216.825,1889.12,223.309" style="stroke:#A80036;stroke-width:1.0;"/><text fill="#000000" font-family="sans-serif" font-size="13" lengthAdjust="spacing" textLength="58" x="1872" y="183.0669">generate</text><!--MD5=[791c1b7d26e2b780b8de9b3459f9f87c]
link Signup to Week--><path codeLine="108" d="M1102.76,270.267 C1110.76,291.4193 1122.02,321.155 1129.86,341.8527 " fill="none" id="Signup-to-Week" style="stroke:#A80036;stroke-width:1.0;"/><polygon fill="#A80036" points="1131.67,346.6472,1132.2208,336.8138,1129.898,341.9717,1124.7401,339.6489,1131.67,346.6472" style="stroke:#A80036;stroke-width:1.0;"/><text fill="#000000" font-family="sans-serif" font-size="13" lengthAdjust="spacing" textLength="33" x="1122" y="313.0669">close</text><!--MD5=[80fe76b2ecf9f335415bc01ff7a21832]
link parent to Kid--><path codeLine="110" d="M270.259,114.198 C277.177,146.194 286.842,190.895 292.747,218.206 " fill="none" id="parent-to-Kid" style="stroke:#A80036;stroke-width:1.0;"/><polygon fill="#A80036" points="293.805,223.096,295.8118,213.4538,292.7479,218.209,287.9926,215.1451,293.805,223.096" style="stroke:#A80036;stroke-width:1.0;"/><text fill="#000000" font-family="sans-serif" font-size="13" lengthAdjust="spacing" textLength="26" x="287" y="183.0669">sign</text><!--MD5=[054f8d85f1fbd8259eb717507fd6c0a4]
@startuml
hide circle
class User<actor> {
}
class Coach<actor> {
}
class Developer<actor> {
}
class Parent<actor> {
}
class Treasurer<actor> {
}
class Maintainer<actor> {
}
class Headcoach<actor> {
}
class parent {
	sign()
	view()
	edit()
}
class Kid {
}
class Maintainer {
	see()
	insert()
	modify()
	have()
	access()
}
class Database {
}
class Coach {
	edit()
	review()
	modify()
	modified()
	expect()
	extract()
	overwrite()
}
class PdfInformation {
}
class List {
}
class Result {
}
class Signup {
	close()
}
class Timeframe {
}
class Developer {
	have()
}
class Access {
}
class Treasurer {
	see()
}
class Amount {
}
class Information {
}
class Event {
}
class Something {
}
class Week {
}
class Headcoach {
	generate()
}
class PdfReport {
}
class User {
	see()
}
class Option {
}
class UploadEvent {
}
class AmountDetail {
}
class CSVFile {
}
Headcoach - -> PdfReport : generate
Developer - -> Access : have
Treasurer - -> Amount : see
Maintainer - -> Database : insert
Maintainer - -> Access : have
Coach - -> Result : overwrite
Coach - -> Information : review
Coach - -> PdfInformation : extract
Maintainer - -> Database : access
Coach - -> List : edit
Signup - -> Timeframe : close
User - -> Event : see
User - -> Option : see
Coach - -> Result : modify
Coach - -> UploadEvent : extract
parent - -> Information : view
Coach - -> Signup : expect
parent - -> Event : view
parent - -> Event : edit
Maintainer - -> AmountDetail : see
Coach - -> Something : modified
Headcoach - -> CSVFile : generate
Signup - -> Week : close
Maintainer - -> Database : modify
parent - -> Kid : sign
@enduml

PlantUML version 1.2021.6beta6(Unknown compile time)
(GPL source distribution)
Java Runtime: Java(TM) SE Runtime Environment
JVM: Java HotSpot(TM) 64-Bit Server VM
Default Encoding: UTF-8
Language: en
Country: US
--></g></svg>