<?xml version="1.0" encoding="UTF-8" standalone="no"?><svg xmlns="http://www.w3.org/2000/svg" xmlns:xlink="http://www.w3.org/1999/xlink" contentScriptType="application/ecmascript" contentStyleType="text/css" height="502px" preserveAspectRatio="none" style="width:2352px;height:502px;background:#FFFFFF;" version="1.1" viewBox="0 0 2352 502" width="2352px" zoomAndPan="magnify"><defs><filter height="300%" id="fng6dm1ckdgpc" width="300%" x="-1" y="-1"><feGaussianBlur result="blurOut" stdDeviation="2.0"/><feColorMatrix in="blurOut" result="blurOut2" type="matrix" values="0 0 0 0 0 0 0 0 0 0 0 0 0 0 0 0 0 0 .4 0"/><feOffset dx="4.0" dy="4.0" in="blurOut2" result="blurOut3"/><feBlend in="SourceGraphic" in2="blurOut3" mode="normal"/></filter></defs><g><!--MD5=[3fd616f346a44cd59a91eb10b19e157c]
class User--><rect codeLine="10" fill="#FEFECE" filter="url(#fng6dm1ckdgpc)" height="232.0391" id="User" style="stroke:#A80036;stroke-width:1.5;" width="79" x="694" y="10"/><text fill="#000000" font-family="sans-serif" font-size="12" lengthAdjust="spacing" textLength="29" x="701.5" y="26.1387">User</text><rect fill="#FFFFFF" height="15.9688" style="stroke:#000000;stroke-width:1.0;stroke-dasharray:2.0,2.0;" width="33" x="743" y="7"/><text fill="#000000" font-family="sans-serif" font-size="12" font-style="italic" lengthAdjust="spacing" textLength="31" x="744" y="19.1387">actor</text><line style="stroke:#A80036;stroke-width:1.5;" x1="695" x2="772" y1="33.9688" y2="33.9688"/><line style="stroke:#A80036;stroke-width:1.5;" x1="695" x2="772" y1="41.9688" y2="41.9688"/><text fill="#000000" font-family="sans-serif" font-size="11" lengthAdjust="spacing" textLength="29" x="700" y="56.1792">add()</text><text fill="#000000" font-family="sans-serif" font-size="11" lengthAdjust="spacing" textLength="25" x="700" y="68.9839">log()</text><text fill="#000000" font-family="sans-serif" font-size="11" lengthAdjust="spacing" textLength="40" x="700" y="81.7886">share()</text><text fill="#000000" font-family="sans-serif" font-size="11" lengthAdjust="spacing" textLength="49" x="700" y="94.5933">canuse()</text><text fill="#000000" font-family="sans-serif" font-size="11" lengthAdjust="spacing" textLength="54" x="700" y="107.3979">produce()</text><text fill="#000000" font-family="sans-serif" font-size="11" lengthAdjust="spacing" textLength="36" x="700" y="120.2026">send()</text><text fill="#000000" font-family="sans-serif" font-size="11" lengthAdjust="spacing" textLength="36" x="700" y="133.0073">save()</text><text fill="#000000" font-family="sans-serif" font-size="11" lengthAdjust="spacing" textLength="35" x="700" y="145.812">want()</text><text fill="#000000" font-family="sans-serif" font-size="11" lengthAdjust="spacing" textLength="66" x="700" y="158.6167">customise()</text><text fill="#000000" font-family="sans-serif" font-size="11" lengthAdjust="spacing" textLength="30" x="700" y="171.4214">see()</text><text fill="#000000" font-family="sans-serif" font-size="11" lengthAdjust="spacing" textLength="67" x="700" y="184.2261">customize()</text><text fill="#000000" font-family="sans-serif" font-size="11" lengthAdjust="spacing" textLength="51" x="700" y="197.0308">existed()</text><text fill="#000000" font-family="sans-serif" font-size="11" lengthAdjust="spacing" textLength="35" x="700" y="209.8354">view()</text><text fill="#000000" font-family="sans-serif" font-size="11" lengthAdjust="spacing" textLength="51" x="700" y="222.6401">replace()</text><text fill="#000000" font-family="sans-serif" font-size="11" lengthAdjust="spacing" textLength="46" x="700" y="235.4448">delete()</text><!--MD5=[db6d18d8099558415abc41d00477ab92]
class Admin--><rect codeLine="51" fill="#FEFECE" filter="url(#fng6dm1ckdgpc)" height="52.7734" id="Admin" style="stroke:#A80036;stroke-width:1.5;" width="78" x="1954.5" y="99.5"/><text fill="#000000" font-family="sans-serif" font-size="12" lengthAdjust="spacing" textLength="37" x="1957.5" y="115.6387">Admin</text><rect fill="#FFFFFF" height="15.9688" style="stroke:#000000;stroke-width:1.0;stroke-dasharray:2.0,2.0;" width="33" x="2002.5" y="96.5"/><text fill="#000000" font-family="sans-serif" font-size="12" font-style="italic" lengthAdjust="spacing" textLength="31" x="2003.5" y="108.6387">actor</text><line style="stroke:#A80036;stroke-width:1.5;" x1="1955.5" x2="2031.5" y1="123.4688" y2="123.4688"/><line style="stroke:#A80036;stroke-width:1.5;" x1="1955.5" x2="2031.5" y1="131.4688" y2="131.4688"/><text fill="#000000" font-family="sans-serif" font-size="11" lengthAdjust="spacing" textLength="37" x="1960.5" y="145.6792">have()</text><!--MD5=[6f6af049516bc56aac6e320b3234ce97]
class Supplier--><rect codeLine="62" fill="#FEFECE" filter="url(#fng6dm1ckdgpc)" height="52.7734" id="Supplier" style="stroke:#A80036;stroke-width:1.5;" width="91" x="2068" y="99.5"/><text fill="#000000" font-family="sans-serif" font-size="12" lengthAdjust="spacing" textLength="50" x="2071" y="115.6387">Supplier</text><rect fill="#FFFFFF" height="15.9688" style="stroke:#000000;stroke-width:1.0;stroke-dasharray:2.0,2.0;" width="33" x="2129" y="96.5"/><text fill="#000000" font-family="sans-serif" font-size="12" font-style="italic" lengthAdjust="spacing" textLength="31" x="2130" y="108.6387">actor</text><line style="stroke:#A80036;stroke-width:1.5;" x1="2069" x2="2158" y1="123.4688" y2="123.4688"/><line style="stroke:#A80036;stroke-width:1.5;" x1="2069" x2="2158" y1="131.4688" y2="131.4688"/><text fill="#000000" font-family="sans-serif" font-size="11" lengthAdjust="spacing" textLength="52" x="2074" y="145.6792">receive()</text><!--MD5=[15c6922f6693225acd2805a9f7199676]
class Maintainer--><rect codeLine="43" fill="#FEFECE" filter="url(#fng6dm1ckdgpc)" height="65.5781" id="Maintainer" style="stroke:#A80036;stroke-width:1.5;" width="102" x="2224.5" y="93"/><text fill="#000000" font-family="sans-serif" font-size="12" lengthAdjust="spacing" textLength="61" x="2227.5" y="109.1387">Maintainer</text><rect fill="#FFFFFF" height="15.9688" style="stroke:#000000;stroke-width:1.0;stroke-dasharray:2.0,2.0;" width="33" x="2296.5" y="90"/><text fill="#000000" font-family="sans-serif" font-size="12" font-style="italic" lengthAdjust="spacing" textLength="31" x="2297.5" y="102.1387">actor</text><line style="stroke:#A80036;stroke-width:1.5;" x1="2225.5" x2="2325.5" y1="116.9688" y2="116.9688"/><line style="stroke:#A80036;stroke-width:1.5;" x1="2225.5" x2="2325.5" y1="124.9688" y2="124.9688"/><text fill="#000000" font-family="sans-serif" font-size="11" lengthAdjust="spacing" textLength="48" x="2230.5" y="139.1792">update()</text><text fill="#000000" font-family="sans-serif" font-size="11" lengthAdjust="spacing" textLength="35" x="2230.5" y="151.9839">track()</text><!--MD5=[bbad56bc7779fe6d833d77eae0c25c05]
class Theme--><rect codeLine="27" fill="#FEFECE" filter="url(#fng6dm1ckdgpc)" height="39.9688" id="Theme" style="stroke:#A80036;stroke-width:1.5;" width="47" x="7" y="325.5"/><text fill="#000000" font-family="sans-serif" font-size="12" lengthAdjust="spacing" textLength="41" x="10" y="341.6387">Theme</text><line style="stroke:#A80036;stroke-width:1.5;" x1="8" x2="53" y1="349.4688" y2="349.4688"/><line style="stroke:#A80036;stroke-width:1.5;" x1="8" x2="53" y1="357.4688" y2="357.4688"/><!--MD5=[18b89e0834131a909517048318a5909c]
class Picture--><rect codeLine="29" fill="#FEFECE" filter="url(#fng6dm1ckdgpc)" height="39.9688" id="Picture" style="stroke:#A80036;stroke-width:1.5;" width="46" x="115.5" y="325.5"/><text fill="#000000" font-family="sans-serif" font-size="12" lengthAdjust="spacing" textLength="40" x="118.5" y="341.6387">Picture</text><line style="stroke:#A80036;stroke-width:1.5;" x1="116.5" x2="160.5" y1="349.4688" y2="349.4688"/><line style="stroke:#A80036;stroke-width:1.5;" x1="116.5" x2="160.5" y1="357.4688" y2="357.4688"/><!--MD5=[cd869b34d688661372d713ff53dbac1f]
class account--><rect codeLine="31" fill="#FEFECE" filter="url(#fng6dm1ckdgpc)" height="39.9688" id="account" style="stroke:#A80036;stroke-width:1.5;" width="53" x="1762" y="325.5"/><text fill="#000000" font-family="sans-serif" font-size="12" lengthAdjust="spacing" textLength="47" x="1765" y="341.6387">account</text><line style="stroke:#A80036;stroke-width:1.5;" x1="1763" x2="1814" y1="349.4688" y2="349.4688"/><line style="stroke:#A80036;stroke-width:1.5;" x1="1763" x2="1814" y1="357.4688" y2="357.4688"/><!--MD5=[20418cb98520644da1e87dc0310aa74a]
class Recipe--><rect codeLine="33" fill="#FEFECE" filter="url(#fng6dm1ckdgpc)" height="52.7734" id="Recipe" style="stroke:#A80036;stroke-width:1.5;" width="67" x="259" y="319"/><text fill="#000000" font-family="sans-serif" font-size="12" lengthAdjust="spacing" textLength="41" x="272" y="335.1387">Recipe</text><line style="stroke:#A80036;stroke-width:1.5;" x1="260" x2="325" y1="342.9688" y2="342.9688"/><line style="stroke:#A80036;stroke-width:1.5;" x1="260" x2="325" y1="350.9688" y2="350.9688"/><text fill="#000000" font-family="sans-serif" font-size="11" lengthAdjust="spacing" textLength="55" x="265" y="365.1792">contains()</text><!--MD5=[ad932b6f5864965112044123d6bad487]
class Someone--><rect codeLine="36" fill="#FEFECE" filter="url(#fng6dm1ckdgpc)" height="39.9688" id="Someone" style="stroke:#A80036;stroke-width:1.5;" width="64" x="367.5" y="325.5"/><text fill="#000000" font-family="sans-serif" font-size="12" lengthAdjust="spacing" textLength="58" x="370.5" y="341.6387">Someone</text><line style="stroke:#A80036;stroke-width:1.5;" x1="368.5" x2="430.5" y1="349.4688" y2="349.4688"/><line style="stroke:#A80036;stroke-width:1.5;" x1="368.5" x2="430.5" y1="357.4688" y2="357.4688"/><!--MD5=[73dda7005de60a227966661ed5e41803]
class Paypal--><rect codeLine="38" fill="#FEFECE" filter="url(#fng6dm1ckdgpc)" height="52.7734" id="Paypal" style="stroke:#A80036;stroke-width:1.5;" width="72" x="466.5" y="319"/><text fill="#000000" font-family="sans-serif" font-size="12" lengthAdjust="spacing" textLength="38" x="483.5" y="335.1387">Paypal</text><line style="stroke:#A80036;stroke-width:1.5;" x1="467.5" x2="537.5" y1="342.9688" y2="342.9688"/><line style="stroke:#A80036;stroke-width:1.5;" x1="467.5" x2="537.5" y1="350.9688" y2="350.9688"/><text fill="#000000" font-family="sans-serif" font-size="11" lengthAdjust="spacing" textLength="60" x="472.5" y="365.1792">purchase()</text><!--MD5=[5058daa74c102caaad8e356ac17ac60f]
class OrderHistory--><rect codeLine="41" fill="#FEFECE" filter="url(#fng6dm1ckdgpc)" height="39.9688" id="OrderHistory" style="stroke:#A80036;stroke-width:1.5;" width="85" x="574" y="325.5"/><text fill="#000000" font-family="sans-serif" font-size="12" lengthAdjust="spacing" textLength="79" x="577" y="341.6387">OrderHistory</text><line style="stroke:#A80036;stroke-width:1.5;" x1="575" x2="658" y1="349.4688" y2="349.4688"/><line style="stroke:#A80036;stroke-width:1.5;" x1="575" x2="658" y1="357.4688" y2="357.4688"/><!--MD5=[bfae69cc07df8cd4d6d77ba5fc314eec]
class Kiosk--><rect codeLine="47" fill="#FEFECE" filter="url(#fng6dm1ckdgpc)" height="39.9688" id="Kiosk" style="stroke:#A80036;stroke-width:1.5;" width="39" x="2204" y="325.5"/><text fill="#000000" font-family="sans-serif" font-size="12" lengthAdjust="spacing" textLength="33" x="2207" y="341.6387">Kiosk</text><line style="stroke:#A80036;stroke-width:1.5;" x1="2205" x2="2242" y1="349.4688" y2="349.4688"/><line style="stroke:#A80036;stroke-width:1.5;" x1="2205" x2="2242" y1="357.4688" y2="357.4688"/><!--MD5=[9536a87e044ce6588050cb9af3778782]
class Coffee--><rect codeLine="49" fill="#FEFECE" filter="url(#fng6dm1ckdgpc)" height="39.9688" id="Coffee" style="stroke:#A80036;stroke-width:1.5;" width="46" x="706.5" y="449"/><text fill="#000000" font-family="sans-serif" font-size="12" lengthAdjust="spacing" textLength="40" x="709.5" y="465.1387">Coffee</text><line style="stroke:#A80036;stroke-width:1.5;" x1="707.5" x2="751.5" y1="472.9688" y2="472.9688"/><line style="stroke:#A80036;stroke-width:1.5;" x1="707.5" x2="751.5" y1="480.9688" y2="480.9688"/><!--MD5=[f5ea1f64bc04260f09f32845b6b2c213]
class Portal--><rect codeLine="54" fill="#FEFECE" filter="url(#fng6dm1ckdgpc)" height="39.9688" id="Portal" style="stroke:#A80036;stroke-width:1.5;" width="39" x="1974" y="325.5"/><text fill="#000000" font-family="sans-serif" font-size="12" lengthAdjust="spacing" textLength="33" x="1977" y="341.6387">Portal</text><line style="stroke:#A80036;stroke-width:1.5;" x1="1975" x2="2012" y1="349.4688" y2="349.4688"/><line style="stroke:#A80036;stroke-width:1.5;" x1="1975" x2="2012" y1="357.4688" y2="357.4688"/><!--MD5=[18eee71c88ab61f27581b8cbdd3ef5ee]
class Color--><rect codeLine="56" fill="#FEFECE" filter="url(#fng6dm1ckdgpc)" height="39.9688" id="Color" style="stroke:#A80036;stroke-width:1.5;" width="38" x="832.5" y="325.5"/><text fill="#000000" font-family="sans-serif" font-size="12" lengthAdjust="spacing" textLength="32" x="835.5" y="341.6387">Color</text><line style="stroke:#A80036;stroke-width:1.5;" x1="833.5" x2="869.5" y1="349.4688" y2="349.4688"/><line style="stroke:#A80036;stroke-width:1.5;" x1="833.5" x2="869.5" y1="357.4688" y2="357.4688"/><!--MD5=[4f1f3706c1a355a8488e154afcaed5df]
class Location--><rect codeLine="58" fill="#FEFECE" filter="url(#fng6dm1ckdgpc)" height="39.9688" id="Location" style="stroke:#A80036;stroke-width:1.5;" width="56" x="2278.5" y="325.5"/><text fill="#000000" font-family="sans-serif" font-size="12" lengthAdjust="spacing" textLength="50" x="2281.5" y="341.6387">Location</text><line style="stroke:#A80036;stroke-width:1.5;" x1="2279.5" x2="2333.5" y1="349.4688" y2="349.4688"/><line style="stroke:#A80036;stroke-width:1.5;" x1="2279.5" x2="2333.5" y1="357.4688" y2="357.4688"/><!--MD5=[777cea8e2e96d6ad11bff111726e5d90]
class DefaultPaymentMethod--><rect codeLine="60" fill="#FEFECE" filter="url(#fng6dm1ckdgpc)" height="39.9688" id="DefaultPaymentMethod" style="stroke:#A80036;stroke-width:1.5;" width="143" x="906" y="325.5"/><text fill="#000000" font-family="sans-serif" font-size="12" lengthAdjust="spacing" textLength="137" x="909" y="341.6387">DefaultPaymentMethod</text><line style="stroke:#A80036;stroke-width:1.5;" x1="907" x2="1048" y1="349.4688" y2="349.4688"/><line style="stroke:#A80036;stroke-width:1.5;" x1="907" x2="1048" y1="357.4688" y2="357.4688"/><!--MD5=[e2d3da46aad6ad2235ed97afaf326e98]
class Update--><rect codeLine="65" fill="#FEFECE" filter="url(#fng6dm1ckdgpc)" height="39.9688" id="Update" style="stroke:#A80036;stroke-width:1.5;" width="50" x="2088.5" y="325.5"/><text fill="#000000" font-family="sans-serif" font-size="12" lengthAdjust="spacing" textLength="44" x="2091.5" y="341.6387">Update</text><line style="stroke:#A80036;stroke-width:1.5;" x1="2089.5" x2="2137.5" y1="349.4688" y2="349.4688"/><line style="stroke:#A80036;stroke-width:1.5;" x1="2089.5" x2="2137.5" y1="357.4688" y2="357.4688"/><!--MD5=[335f4d9be48430461c68bf6d6fdba145]
class App--><rect codeLine="67" fill="#FEFECE" filter="url(#fng6dm1ckdgpc)" height="39.9688" id="App" style="stroke:#A80036;stroke-width:1.5;" width="30" x="1084.5" y="325.5"/><text fill="#000000" font-family="sans-serif" font-size="12" lengthAdjust="spacing" textLength="24" x="1087.5" y="341.6387">App</text><line style="stroke:#A80036;stroke-width:1.5;" x1="1085.5" x2="1113.5" y1="349.4688" y2="349.4688"/><line style="stroke:#A80036;stroke-width:1.5;" x1="1085.5" x2="1113.5" y1="357.4688" y2="357.4688"/><!--MD5=[8b188b3d0d55a8572816ea0427e02899]
class existed--><rect codeLine="69" fill="#FEFECE" filter="url(#fng6dm1ckdgpc)" height="52.7734" id="existed" style="stroke:#A80036;stroke-width:1.5;" width="63" x="1757" y="99.5"/><text fill="#000000" font-family="sans-serif" font-size="12" lengthAdjust="spacing" textLength="45" x="1766" y="115.6387">existed</text><line style="stroke:#A80036;stroke-width:1.5;" x1="1758" x2="1819" y1="123.4688" y2="123.4688"/><line style="stroke:#A80036;stroke-width:1.5;" x1="1758" x2="1819" y1="131.4688" y2="131.4688"/><text fill="#000000" font-family="sans-serif" font-size="11" lengthAdjust="spacing" textLength="51" x="1763" y="145.6792">existed()</text><!--MD5=[2f01b1126ff33a0669651ec2488a5ef9]
class Password--><rect codeLine="72" fill="#FEFECE" filter="url(#fng6dm1ckdgpc)" height="52.7734" id="Password" style="stroke:#A80036;stroke-width:1.5;" width="64" x="1855.5" y="99.5"/><text fill="#000000" font-family="sans-serif" font-size="12" lengthAdjust="spacing" textLength="58" x="1858.5" y="115.6387">Password</text><line style="stroke:#A80036;stroke-width:1.5;" x1="1856.5" x2="1918.5" y1="123.4688" y2="123.4688"/><line style="stroke:#A80036;stroke-width:1.5;" x1="1856.5" x2="1918.5" y1="131.4688" y2="131.4688"/><text fill="#000000" font-family="sans-serif" font-size="11" lengthAdjust="spacing" textLength="51" x="1861.5" y="145.6792">existed()</text><!--MD5=[cf4d6237fcae255cd2e1656cf84a30e2]
class Order--><rect codeLine="75" fill="#FEFECE" filter="url(#fng6dm1ckdgpc)" height="39.9688" id="Order" style="stroke:#A80036;stroke-width:1.5;" width="42" x="1149.5" y="325.5"/><text fill="#000000" font-family="sans-serif" font-size="12" lengthAdjust="spacing" textLength="36" x="1152.5" y="341.6387">Order</text><line style="stroke:#A80036;stroke-width:1.5;" x1="1150.5" x2="1190.5" y1="349.4688" y2="349.4688"/><line style="stroke:#A80036;stroke-width:1.5;" x1="1150.5" x2="1190.5" y1="357.4688" y2="357.4688"/><!--MD5=[6297e4407eab3680b14668dc9d60aa2d]
class ApplePay--><rect codeLine="77" fill="#FEFECE" filter="url(#fng6dm1ckdgpc)" height="52.7734" id="ApplePay" style="stroke:#A80036;stroke-width:1.5;" width="72" x="1226.5" y="319"/><text fill="#000000" font-family="sans-serif" font-size="12" lengthAdjust="spacing" textLength="55" x="1235" y="335.1387">ApplePay</text><line style="stroke:#A80036;stroke-width:1.5;" x1="1227.5" x2="1297.5" y1="342.9688" y2="342.9688"/><line style="stroke:#A80036;stroke-width:1.5;" x1="1227.5" x2="1297.5" y1="350.9688" y2="350.9688"/><text fill="#000000" font-family="sans-serif" font-size="11" lengthAdjust="spacing" textLength="60" x="1232.5" y="365.1792">purchase()</text><!--MD5=[3ea633b366b7e3c88379499281652b08]
class Allergen--><rect codeLine="80" fill="#FEFECE" filter="url(#fng6dm1ckdgpc)" height="39.9688" id="Allergen" style="stroke:#A80036;stroke-width:1.5;" width="56" x="264.5" y="449"/><text fill="#000000" font-family="sans-serif" font-size="12" lengthAdjust="spacing" textLength="50" x="267.5" y="465.1387">Allergen</text><line style="stroke:#A80036;stroke-width:1.5;" x1="265.5" x2="319.5" y1="472.9688" y2="472.9688"/><line style="stroke:#A80036;stroke-width:1.5;" x1="265.5" x2="319.5" y1="480.9688" y2="480.9688"/><!--MD5=[1d1ceadaee0e466327a5726005fb4633]
class CoffeeRecipe--><rect codeLine="82" fill="#FEFECE" filter="url(#fng6dm1ckdgpc)" height="39.9688" id="CoffeeRecipe" style="stroke:#A80036;stroke-width:1.5;" width="87" x="1334" y="325.5"/><text fill="#000000" font-family="sans-serif" font-size="12" lengthAdjust="spacing" textLength="81" x="1337" y="341.6387">CoffeeRecipe</text><line style="stroke:#A80036;stroke-width:1.5;" x1="1335" x2="1420" y1="349.4688" y2="349.4688"/><line style="stroke:#A80036;stroke-width:1.5;" x1="1335" x2="1420" y1="357.4688" y2="357.4688"/><!--MD5=[9c15a27e365caab2c2ad3f8df173ca8e]
class NutritionDetail--><rect codeLine="84" fill="#FEFECE" filter="url(#fng6dm1ckdgpc)" height="39.9688" id="NutritionDetail" style="stroke:#A80036;stroke-width:1.5;" width="89" x="1456" y="325.5"/><text fill="#000000" font-family="sans-serif" font-size="12" lengthAdjust="spacing" textLength="83" x="1459" y="341.6387">NutritionDetail</text><line style="stroke:#A80036;stroke-width:1.5;" x1="1457" x2="1544" y1="349.4688" y2="349.4688"/><line style="stroke:#A80036;stroke-width:1.5;" x1="1457" x2="1544" y1="357.4688" y2="357.4688"/><!--MD5=[fe8d49671e069f579285019ac6cfb5c2]
class BaseRecipe--><rect codeLine="86" fill="#FEFECE" filter="url(#fng6dm1ckdgpc)" height="39.9688" id="BaseRecipe" style="stroke:#A80036;stroke-width:1.5;" width="77" x="1580" y="325.5"/><text fill="#000000" font-family="sans-serif" font-size="12" lengthAdjust="spacing" textLength="71" x="1583" y="341.6387">BaseRecipe</text><line style="stroke:#A80036;stroke-width:1.5;" x1="1581" x2="1656" y1="349.4688" y2="349.4688"/><line style="stroke:#A80036;stroke-width:1.5;" x1="1581" x2="1656" y1="357.4688" y2="357.4688"/><!--MD5=[706865d58552303520bde9e0569d2b44]
link User to account--><path codeLine="88" d="M773.014,132.489 C890.967,149.214 1250.52,202.651 1543.5,272 C1621.17,290.385 1710.7,318.745 1757.04,333.973 " fill="none" id="User-to-account" style="stroke:#A80036;stroke-width:1.0;"/><polygon fill="#A80036" points="1761.93,335.584,1754.6238,328.9795,1757.1788,334.0265,1752.1318,336.5814,1761.93,335.584" style="stroke:#A80036;stroke-width:1.0;"/><text fill="#000000" font-family="sans-serif" font-size="13" lengthAdjust="spacing" textLength="47" x="1606.5" y="285.0669">existed</text><!--MD5=[0214f9738810ef8e203a2a515b7b8642]
link User to App--><path codeLine="89" d="M773.242,147.66 C836.75,181.171 964.361,250.545 1066.5,319 C1071.1,322.086 1075.91,325.607 1080.38,329.027 " fill="none" id="User-to-App" style="stroke:#A80036;stroke-width:1.0;"/><polygon fill="#A80036" points="1084.37,332.124,1079.6994,323.453,1080.4154,329.0644,1074.804,329.7804,1084.37,332.124" style="stroke:#A80036;stroke-width:1.0;"/><text fill="#000000" font-family="sans-serif" font-size="13" lengthAdjust="spacing" textLength="19" x="1015.5" y="285.0669">log</text><!--MD5=[da4058a0077cb8bcbee3648c177fb368]
link User to Recipe--><path codeLine="90" d="M693.766,131.813 C581.894,146.261 268.496,193.188 208.5,272 C190.612,295.498 224.269,316.851 254.153,330.202 " fill="none" id="User-to-Recipe" style="stroke:#A80036;stroke-width:1.0;"/><polygon fill="#A80036" points="258.908,332.276,252.2546,325.0143,254.3241,330.279,249.0594,332.3486,258.908,332.276" style="stroke:#A80036;stroke-width:1.0;"/><text fill="#000000" font-family="sans-serif" font-size="13" lengthAdjust="spacing" textLength="36" x="209.5" y="285.0669">share</text><!--MD5=[da4058a0077cb8bcbee3648c177fb368]
link User to Recipe--><path codeLine="92" d="M693.933,133.785 C593.985,151.813 335.79,204.193 286.5,272 C277.902,283.828 278.308,299.787 281.333,313.721 " fill="none" id="User-to-Recipe-1" style="stroke:#A80036;stroke-width:1.0;"/><polygon fill="#A80036" points="282.554,318.751,284.3196,309.0617,281.3753,313.8919,276.5451,310.9476,282.554,318.751" style="stroke:#A80036;stroke-width:1.0;"/><text fill="#000000" font-family="sans-serif" font-size="13" lengthAdjust="spacing" textLength="40" x="287.5" y="285.0669">delete</text><!--MD5=[da4058a0077cb8bcbee3648c177fb368]
link User to Recipe--><path codeLine="94" d="M693.878,137.307 C624.238,156.566 476.997,202.459 368.5,272 C350.117,283.783 332.303,300.405 318.548,314.761 " fill="none" id="User-to-Recipe-2" style="stroke:#A80036;stroke-width:1.0;"/><polygon fill="#A80036" points="314.779,318.744,323.87,314.9553,318.2153,315.1119,318.0587,309.4573,314.779,318.744" style="stroke:#A80036;stroke-width:1.0;"/><text fill="#000000" font-family="sans-serif" font-size="13" lengthAdjust="spacing" textLength="30" x="369.5" y="285.0669">view</text><!--MD5=[da4058a0077cb8bcbee3648c177fb368]
link User to Recipe--><path codeLine="97" d="M693.976,146.493 C609.922,187.948 414.322,284.418 331.096,325.464 " fill="none" id="User-to-Recipe-3" style="stroke:#A80036;stroke-width:1.0;"/><polygon fill="#A80036" points="326.258,327.851,336.099,327.4579,330.7424,325.6395,332.5607,320.2829,326.258,327.851" style="stroke:#A80036;stroke-width:1.0;"/><text fill="#000000" font-family="sans-serif" font-size="13" lengthAdjust="spacing" textLength="32" x="436.5" y="285.0669">want</text><!--MD5=[46c8de438bfe71dc7eaa5e2247ca5ff3]
link User to Color--><path codeLine="91" d="M773.121,200.029 C795.873,241.967 822.95,291.877 838.589,320.702 " fill="none" id="User-to-Color" style="stroke:#A80036;stroke-width:1.0;"/><polygon fill="#A80036" points="840.998,325.143,840.2216,315.3248,838.6135,320.7482,833.19,319.1401,840.998,325.143" style="stroke:#A80036;stroke-width:1.0;"/><text fill="#000000" font-family="sans-serif" font-size="13" lengthAdjust="spacing" textLength="66" x="821.5" y="285.0669">customize</text><!--MD5=[2d5d3e7df4394a5a393a20ab034661b5]
link existed to account--><path codeLine="93" d="M1788.5,152.804 C1788.5,195.213 1788.5,279.056 1788.5,320.355 " fill="none" id="existed-to-account" style="stroke:#A80036;stroke-width:1.0;"/><polygon fill="#A80036" points="1788.5,325.414,1792.5,316.414,1788.5,320.414,1784.5,316.414,1788.5,325.414" style="stroke:#A80036;stroke-width:1.0;"/><text fill="#000000" font-family="sans-serif" font-size="13" lengthAdjust="spacing" textLength="47" x="1789.5" y="285.0669">existed</text><!--MD5=[2126dce093f5cfa8a27fbaeca5d85891]
link User to Someone--><path codeLine="95" d="M693.874,152.804 C627.556,195.991 495.257,282.143 433.157,322.583 " fill="none" id="User-to-Someone" style="stroke:#A80036;stroke-width:1.0;"/><polygon fill="#A80036" points="428.809,325.414,438.5336,323.8546,432.9989,322.6855,434.168,317.1508,428.809,325.414" style="stroke:#A80036;stroke-width:1.0;"/><text fill="#000000" font-family="sans-serif" font-size="13" lengthAdjust="spacing" textLength="31" x="509.5" y="285.0669">send</text><!--MD5=[c3d70c8fa43478c3bc40b78d5f51564d]
link Password to account--><path codeLine="96" d="M1885.15,152.76 C1881.17,186.154 1870.89,245.284 1845.5,289 C1838.4,301.231 1827.85,312.557 1817.76,321.746 " fill="none" id="Password-to-account" style="stroke:#A80036;stroke-width:1.0;"/><polygon fill="#A80036" points="1813.78,325.289,1823.1612,322.29,1817.5137,321.9635,1817.8403,316.316,1813.78,325.289" style="stroke:#A80036;stroke-width:1.0;"/><text fill="#000000" font-family="sans-serif" font-size="13" lengthAdjust="spacing" textLength="47" x="1855.5" y="285.0669">existed</text><!--MD5=[c2107309aa4b1f7ef58525c62bb0936f]
link User to Paypal--><path codeLine="98" d="M693.79,164.39 C648.427,207.101 575.139,276.106 533.685,315.137 " fill="none" id="User-to-Paypal" style="stroke:#A80036;stroke-width:1.0;"/><polygon fill="#A80036" points="529.775,318.819,539.0703,315.5636,533.416,315.3922,533.5875,309.738,529.775,318.819" style="stroke:#A80036;stroke-width:1.0;"/><text fill="#000000" font-family="sans-serif" font-size="13" lengthAdjust="spacing" textLength="46" x="578.5" y="285.0669">canuse</text><!--MD5=[5b2a2bdb39cc116e4a78ea074bb38160]
link User to Order--><path codeLine="99" d="M773.461,144.872 C832.819,171.604 947.595,224.002 1043.5,272 C1083.15,291.844 1093.35,296.401 1131.5,319 C1135.88,321.598 1140.47,324.461 1144.9,327.302 " fill="none" id="User-to-Order" style="stroke:#A80036;stroke-width:1.0;"/><polygon fill="#A80036" points="1149.26,330.125,1143.8748,321.8788,1145.0615,327.4098,1139.5305,328.5965,1149.26,330.125" style="stroke:#A80036;stroke-width:1.0;"/><text fill="#000000" font-family="sans-serif" font-size="13" lengthAdjust="spacing" textLength="47" x="1077.5" y="285.0669">replace</text><!--MD5=[d81a890eb7aa0270f5b87571bfdf2d7c]
link Paypal to Coffee--><path codeLine="100" d="M538.72,365.886 C583.946,390.0934 660.349,430.9874 701.404,452.9617 " fill="none" id="Paypal-to-Coffee" style="stroke:#A80036;stroke-width:1.0;"/><polygon fill="#A80036" points="706.231,455.5454,700.1824,447.7727,701.8223,453.1866,696.4084,454.8265,706.231,455.5454" style="stroke:#A80036;stroke-width:1.0;"/><text fill="#000000" font-family="sans-serif" font-size="13" lengthAdjust="spacing" textLength="59" x="637.5" y="415.0669">purchase</text><!--MD5=[79aecc8ceb15df7b58f9719ed864d504]
link User to OrderHistory--><path codeLine="101" d="M693.889,200.636 C671.361,242.515 644.646,292.177 629.226,320.842 " fill="none" id="User-to-OrderHistory" style="stroke:#A80036;stroke-width:1.0;"/><polygon fill="#A80036" points="626.851,325.258,634.6366,319.2261,629.2192,320.8544,627.5909,315.437,626.851,325.258" style="stroke:#A80036;stroke-width:1.0;"/><text fill="#000000" font-family="sans-serif" font-size="13" lengthAdjust="spacing" textLength="30" x="655.5" y="285.0669">view</text><!--MD5=[c0a8b8f72cf8cc0d06c961dac8afbd70]
link User to ApplePay--><path codeLine="102" d="M773.249,139.013 C846.13,161.561 1005.42,213.276 1133.5,272 C1163.95,285.96 1196.84,304.507 1221.8,319.347 " fill="none" id="User-to-ApplePay" style="stroke:#A80036;stroke-width:1.0;"/><polygon fill="#A80036" points="1226.36,322.073,1220.6749,314.0306,1222.0644,319.5142,1216.5808,320.9037,1226.36,322.073" style="stroke:#A80036;stroke-width:1.0;"/><text fill="#000000" font-family="sans-serif" font-size="13" lengthAdjust="spacing" textLength="46" x="1167.5" y="285.0669">canuse</text><!--MD5=[56423cb6ef95a107d5e2d8d1f962102a]
link Recipe to Allergen--><path codeLine="103" d="M292.5,372.267 C292.5,393.3301 292.5,422.9042 292.5,443.5902 " fill="none" id="Recipe-to-Allergen" style="stroke:#A80036;stroke-width:1.0;"/><polygon fill="#A80036" points="292.5,448.6472,296.5,439.6472,292.5,443.6472,288.5,439.6472,292.5,448.6472" style="stroke:#A80036;stroke-width:1.0;"/><text fill="#000000" font-family="sans-serif" font-size="13" lengthAdjust="spacing" textLength="54" x="293.5" y="415.0669">contains</text><!--MD5=[b7980b232572675be84c01c8606156ba]
link Maintainer to Kiosk--><path codeLine="104" d="M2267.83,159.093 C2257.31,203.085 2238.65,281.127 2229.25,320.444 " fill="none" id="Maintainer-to-Kiosk" style="stroke:#A80036;stroke-width:1.0;"/><polygon fill="#A80036" points="2228.04,325.499,2234.0204,317.6737,2229.2009,320.6356,2226.239,315.8162,2228.04,325.499" style="stroke:#A80036;stroke-width:1.0;"/><text fill="#000000" font-family="sans-serif" font-size="13" lengthAdjust="spacing" textLength="32" x="2241.5" y="285.0669">track</text><!--MD5=[3331e5322b59e2927d9473ff20587c76]
link Admin to Portal--><path codeLine="105" d="M1993.5,152.804 C1993.5,195.213 1993.5,279.056 1993.5,320.355 " fill="none" id="Admin-to-Portal" style="stroke:#A80036;stroke-width:1.0;"/><polygon fill="#A80036" points="1993.5,325.414,1997.5,316.414,1993.5,320.414,1989.5,316.414,1993.5,325.414" style="stroke:#A80036;stroke-width:1.0;"/><text fill="#000000" font-family="sans-serif" font-size="13" lengthAdjust="spacing" textLength="32" x="1994.5" y="285.0669">have</text><!--MD5=[59df576f27d6d9c9eed3347a8c786c3a]
link User to CoffeeRecipe--><path codeLine="106" d="M773.142,136.609 C857.242,157.458 1059.21,209.999 1222.5,272 C1261.91,286.965 1305.26,307.617 1336.07,323.052 " fill="none" id="User-to-CoffeeRecipe" style="stroke:#A80036;stroke-width:1.0;"/><polygon fill="#A80036" points="1340.9,325.483,1334.6517,317.87,1336.4316,323.2395,1331.0621,325.0194,1340.9,325.483" style="stroke:#A80036;stroke-width:1.0;"/><text fill="#000000" font-family="sans-serif" font-size="13" lengthAdjust="spacing" textLength="52" x="1263.5" y="285.0669">produce</text><!--MD5=[5c6598d20cfe9667f89e2e591a706980]
link Maintainer to Location--><path codeLine="107" d="M2280.07,159.093 C2286.34,203.085 2297.47,281.127 2303.07,320.444 " fill="none" id="Maintainer-to-Location" style="stroke:#A80036;stroke-width:1.0;"/><polygon fill="#A80036" points="2303.79,325.499,2306.4816,316.0251,2303.0853,320.5489,2298.5615,317.1526,2303.79,325.499" style="stroke:#A80036;stroke-width:1.0;"/><text fill="#000000" font-family="sans-serif" font-size="13" lengthAdjust="spacing" textLength="45" x="2299.5" y="285.0669">update</text><!--MD5=[64bc26e1022ef5a0defd1b1ca518dee2]
link User to Coffee--><path codeLine="108" d="M732.146,242.447 C731.296,314.896 730.272,402.2011 729.785,443.7457 " fill="none" id="User-to-Coffee" style="stroke:#A80036;stroke-width:1.0;"/><polygon fill="#A80036" points="729.725,448.8204,733.8304,439.868,729.7837,443.8207,725.831,439.7741,729.725,448.8204" style="stroke:#A80036;stroke-width:1.0;"/><text fill="#000000" font-family="sans-serif" font-size="13" lengthAdjust="spacing" textLength="66" x="732.5" y="350.0669">customise</text><!--MD5=[83bd9f4480df998fb6384a670b0530a6]
link User to DefaultPaymentMethod--><path codeLine="109" d="M773.055,162.126 C806.083,191.471 854.392,234.427 896.5,272 C915.193,288.68 936.281,307.557 952.252,321.866 " fill="none" id="User-to-DefaultPaymentMethod" style="stroke:#A80036;stroke-width:1.0;"/><polygon fill="#A80036" points="956.198,325.401,952.1646,316.4159,952.4742,322.0643,946.8259,322.374,956.198,325.401" style="stroke:#A80036;stroke-width:1.0;"/><text fill="#000000" font-family="sans-serif" font-size="13" lengthAdjust="spacing" textLength="24" x="915.5" y="285.0669">add</text><!--MD5=[fef5e09ca540de9e98146eaaf14b5f90]
link User to NutritionDetail--><path codeLine="110" d="M773.145,134.58 C869.087,153.384 1120.88,205.501 1324.5,272 C1369.6,286.728 1419.46,307.736 1454.56,323.35 " fill="none" id="User-to-NutritionDetail" style="stroke:#A80036;stroke-width:1.0;"/><polygon fill="#A80036" points="1459.2,325.419,1452.6185,318.0921,1454.636,323.3769,1449.3512,325.3944,1459.2,325.419" style="stroke:#A80036;stroke-width:1.0;"/><text fill="#000000" font-family="sans-serif" font-size="13" lengthAdjust="spacing" textLength="23" x="1370.5" y="285.0669">see</text><!--MD5=[3eb9bc51fc2321bc0ae44e2b98954b67]
link User to Theme--><path codeLine="111" d="M693.986,131.642 C567.91,147.066 177.533,199.757 75.5,272 C58.6262,283.947 46.7762,304.416 39.4873,320.563 " fill="none" id="User-to-Theme" style="stroke:#A80036;stroke-width:1.0;"/><polygon fill="#A80036" points="37.3712,325.422,44.6313,318.7668,39.3671,320.8376,37.2963,315.5734,37.3712,325.422" style="stroke:#A80036;stroke-width:1.0;"/><text fill="#000000" font-family="sans-serif" font-size="13" lengthAdjust="spacing" textLength="66" x="76.5" y="285.0669">customize</text><!--MD5=[98a4a8f46cc45c6d77f5230d728b804c]
link User to BaseRecipe--><path codeLine="112" d="M773.322,134.586 C877.34,154.627 1165.56,211.605 1402.5,272 C1474.32,290.306 1493.04,293.133 1562.5,319 C1566.69,320.561 1571.01,322.293 1575.3,324.098 " fill="none" id="User-to-BaseRecipe" style="stroke:#A80036;stroke-width:1.0;"/><polygon fill="#A80036" points="1579.94,326.082,1573.245,318.8586,1575.3447,324.1114,1570.092,326.2111,1579.94,326.082" style="stroke:#A80036;stroke-width:1.0;"/><text fill="#000000" font-family="sans-serif" font-size="13" lengthAdjust="spacing" textLength="66" x="1468.5" y="285.0669">customize</text><!--MD5=[c0646aff05db046bf03bd07f9451b561]
link User to Picture--><path codeLine="113" d="M693.79,132.16 C577.794,147.971 242.673,199.137 163.5,272 C150.033,284.394 143.821,304.381 140.954,320.234 " fill="none" id="User-to-Picture" style="stroke:#A80036;stroke-width:1.0;"/><polygon fill="#A80036" points="140.105,325.434,145.5031,317.1963,140.9108,320.4994,137.6077,315.907,140.105,325.434" style="stroke:#A80036;stroke-width:1.0;"/><text fill="#000000" font-family="sans-serif" font-size="13" lengthAdjust="spacing" textLength="31" x="164.5" y="285.0669">save</text><!--MD5=[5b707910882fd4cdd21b206b1d647b61]
link Supplier to Update--><path codeLine="114" d="M2113.5,152.804 C2113.5,195.213 2113.5,279.056 2113.5,320.355 " fill="none" id="Supplier-to-Update" style="stroke:#A80036;stroke-width:1.0;"/><polygon fill="#A80036" points="2113.5,325.414,2117.5,316.414,2113.5,320.414,2109.5,316.414,2113.5,325.414" style="stroke:#A80036;stroke-width:1.0;"/><text fill="#000000" font-family="sans-serif" font-size="13" lengthAdjust="spacing" textLength="47" x="2114.5" y="285.0669">receive</text><!--MD5=[898d7de36cd24f4f38d7977ec8648f6d]
link ApplePay to Coffee--><path codeLine="115" d="M1226.39,365.019 C1220.51,367.608 1214.41,370.046 1208.5,372 C1042.58,426.8894 833.431,455.6128 758.137,464.7314 " fill="none" id="ApplePay-to-Coffee" style="stroke:#A80036;stroke-width:1.0;"/><polygon fill="#A80036" points="752.949,465.3541,762.3615,468.2533,757.9134,464.7584,761.4083,460.3103,752.949,465.3541" style="stroke:#A80036;stroke-width:1.0;"/><text fill="#000000" font-family="sans-serif" font-size="13" lengthAdjust="spacing" textLength="59" x="1094.5" y="415.0669">purchase</text><!--MD5=[5f91d01aa51028529bfe9db3a6ff5931]
@startuml
hide circle
class User<actor> {
}
class Admin<actor> {
}
class Supplier<actor> {
}
class Maintainer<actor> {
}
class User {
	add()
	log()
	share()
	canuse()
	produce()
	send()
	save()
	want()
	customise()
	see()
	customize()
	existed()
	view()
	replace()
	delete()
}
class Theme {
}
class Picture {
}
class account {
}
class Recipe {
	contains()
}
class Someone {
}
class Paypal {
	purchase()
}
class OrderHistory {
}
class Maintainer {
	update()
	track()
}
class Kiosk {
}
class Coffee {
}
class Admin {
	have()
}
class Portal {
}
class Color {
}
class Location {
}
class DefaultPaymentMethod {
}
class Supplier {
	receive()
}
class Update {
}
class App {
}
class existed {
	existed()
}
class Password {
	existed()
}
class Order {
}
class ApplePay {
	purchase()
}
class Allergen {
}
class CoffeeRecipe {
}
class NutritionDetail {
}
class BaseRecipe {
}
User - -> account : existed
User - -> App : log
User - -> Recipe : share
User - -> Color : customize
User - -> Recipe : delete
existed - -> account : existed
User - -> Recipe : view
User - -> Someone : send
Password - -> account : existed
User - -> Recipe : want
User - -> Paypal : canuse
User - -> Order : replace
Paypal - -> Coffee : purchase
User - -> OrderHistory : view
User - -> ApplePay : canuse
Recipe - -> Allergen : contains
Maintainer - -> Kiosk : track
Admin - -> Portal : have
User - -> CoffeeRecipe : produce
Maintainer - -> Location : update
User - -> Coffee : customise
User - -> DefaultPaymentMethod : add
User - -> NutritionDetail : see
User - -> Theme : customize
User - -> BaseRecipe : customize
User - -> Picture : save
Supplier - -> Update : receive
ApplePay - -> Coffee : purchase
@enduml

PlantUML version 1.2021.6beta6(Unknown compile time)
(GPL source distribution)
Java Runtime: Java(TM) SE Runtime Environment
JVM: Java HotSpot(TM) 64-Bit Server VM
Default Encoding: UTF-8
Language: en
Country: US
--></g></svg>