<?xml version="1.0" encoding="UTF-8" standalone="no"?><svg xmlns="http://www.w3.org/2000/svg" xmlns:xlink="http://www.w3.org/1999/xlink" contentScriptType="application/ecmascript" contentStyleType="text/css" height="604px" preserveAspectRatio="none" style="width:2357px;height:604px;background:#FFFFFF;" version="1.1" viewBox="0 0 2357 604" width="2357px" zoomAndPan="magnify"><defs><filter height="300%" id="fhdip1mhnoyua" width="300%" x="-1" y="-1"><feGaussianBlur result="blurOut" stdDeviation="2.0"/><feColorMatrix in="blurOut" result="blurOut2" type="matrix" values="0 0 0 0 0 0 0 0 0 0 0 0 0 0 0 0 0 0 .4 0"/><feOffset dx="4.0" dy="4.0" in="blurOut2" result="blurOut3"/><feBlend in="SourceGraphic" in2="blurOut3" mode="normal"/></filter></defs><g><!--MD5=[3fd616f346a44cd59a91eb10b19e157c]
class User--><rect codeLine="12" fill="#FEFECE" filter="url(#fhdip1mhnoyua)" height="296.0625" id="User" style="stroke:#A80036;stroke-width:1.5;" width="70" x="1201.5" y="178"/><text fill="#000000" font-family="sans-serif" font-size="12" lengthAdjust="spacing" textLength="29" x="1204.5" y="194.1387">User</text><rect fill="#FFFFFF" height="15.9688" style="stroke:#000000;stroke-width:1.0;stroke-dasharray:2.0,2.0;" width="33" x="1241.5" y="175"/><text fill="#000000" font-family="sans-serif" font-size="12" font-style="italic" lengthAdjust="spacing" textLength="31" x="1242.5" y="187.1387">actor</text><line style="stroke:#A80036;stroke-width:1.5;" x1="1202.5" x2="1270.5" y1="201.9688" y2="201.9688"/><line style="stroke:#A80036;stroke-width:1.5;" x1="1202.5" x2="1270.5" y1="209.9688" y2="209.9688"/><text fill="#000000" font-family="sans-serif" font-size="11" lengthAdjust="spacing" textLength="38" x="1207.5" y="224.1792">reset()</text><text fill="#000000" font-family="sans-serif" font-size="11" lengthAdjust="spacing" textLength="52" x="1207.5" y="236.9839">receive()</text><text fill="#000000" font-family="sans-serif" font-size="11" lengthAdjust="spacing" textLength="29" x="1207.5" y="249.7886">add()</text><text fill="#000000" font-family="sans-serif" font-size="11" lengthAdjust="spacing" textLength="45" x="1207.5" y="262.5933">export()</text><text fill="#000000" font-family="sans-serif" font-size="11" lengthAdjust="spacing" textLength="46" x="1207.5" y="275.3979">search()</text><text fill="#000000" font-family="sans-serif" font-size="11" lengthAdjust="spacing" textLength="45" x="1207.5" y="288.2026">create()</text><text fill="#000000" font-family="sans-serif" font-size="11" lengthAdjust="spacing" textLength="35" x="1207.5" y="301.0073">track()</text><text fill="#000000" font-family="sans-serif" font-size="11" lengthAdjust="spacing" textLength="31" x="1207.5" y="313.812">rate()</text><text fill="#000000" font-family="sans-serif" font-size="11" lengthAdjust="spacing" textLength="34" x="1207.5" y="326.6167">read()</text><text fill="#000000" font-family="sans-serif" font-size="11" lengthAdjust="spacing" textLength="40" x="1207.5" y="339.4214">make()</text><text fill="#000000" font-family="sans-serif" font-size="11" lengthAdjust="spacing" textLength="42" x="1207.5" y="352.2261">adjust()</text><text fill="#000000" font-family="sans-serif" font-size="11" lengthAdjust="spacing" textLength="29" x="1207.5" y="365.0308">find()</text><text fill="#000000" font-family="sans-serif" font-size="11" lengthAdjust="spacing" textLength="41" x="1207.5" y="377.8354">leave()</text><text fill="#000000" font-family="sans-serif" font-size="11" lengthAdjust="spacing" textLength="42" x="1207.5" y="390.6401">report()</text><text fill="#000000" font-family="sans-serif" font-size="11" lengthAdjust="spacing" textLength="37" x="1207.5" y="403.4448">have()</text><text fill="#000000" font-family="sans-serif" font-size="11" lengthAdjust="spacing" textLength="30" x="1207.5" y="416.2495">see()</text><text fill="#000000" font-family="sans-serif" font-size="11" lengthAdjust="spacing" textLength="54" x="1207.5" y="429.0542">activate()</text><text fill="#000000" font-family="sans-serif" font-size="11" lengthAdjust="spacing" textLength="35" x="1207.5" y="441.8589">view()</text><text fill="#000000" font-family="sans-serif" font-size="11" lengthAdjust="spacing" textLength="33" x="1207.5" y="454.6636">start()</text><text fill="#000000" font-family="sans-serif" font-size="11" lengthAdjust="spacing" textLength="55" x="1207.5" y="467.4683">manage()</text><!--MD5=[da547346deef918ea16944ba046651ef]
class Administrator--><rect codeLine="65" fill="#FEFECE" filter="url(#fhdip1mhnoyua)" height="91.1875" id="Administrator" style="stroke:#A80036;stroke-width:1.5;" width="121" x="972" y="10"/><text fill="#000000" font-family="sans-serif" font-size="12" lengthAdjust="spacing" textLength="80" x="975" y="26.1387">Administrator</text><rect fill="#FFFFFF" height="15.9688" style="stroke:#000000;stroke-width:1.0;stroke-dasharray:2.0,2.0;" width="33" x="1063" y="7"/><text fill="#000000" font-family="sans-serif" font-size="12" font-style="italic" lengthAdjust="spacing" textLength="31" x="1064" y="19.1387">actor</text><line style="stroke:#A80036;stroke-width:1.5;" x1="973" x2="1092" y1="33.9688" y2="33.9688"/><line style="stroke:#A80036;stroke-width:1.5;" x1="973" x2="1092" y1="41.9688" y2="41.9688"/><text fill="#000000" font-family="sans-serif" font-size="11" lengthAdjust="spacing" textLength="64" x="978" y="56.1792">moderate()</text><text fill="#000000" font-family="sans-serif" font-size="11" lengthAdjust="spacing" textLength="41" x="978" y="68.9839">verify()</text><text fill="#000000" font-family="sans-serif" font-size="11" lengthAdjust="spacing" textLength="32" x="978" y="81.7886">post()</text><text fill="#000000" font-family="sans-serif" font-size="11" lengthAdjust="spacing" textLength="35" x="978" y="94.5933">view()</text><!--MD5=[428d22d350d9880e10e0ddd45e620f15]
class ServiceProvider--><rect codeLine="36" fill="#FEFECE" filter="url(#fhdip1mhnoyua)" height="39.9688" id="ServiceProvider" style="stroke:#A80036;stroke-width:1.5;" width="137" x="7" y="551"/><text fill="#000000" font-family="sans-serif" font-size="12" lengthAdjust="spacing" textLength="96" x="10" y="567.1387">ServiceProvider</text><rect fill="#FFFFFF" height="15.9688" style="stroke:#000000;stroke-width:1.0;stroke-dasharray:2.0,2.0;" width="33" x="114" y="548"/><text fill="#000000" font-family="sans-serif" font-size="12" font-style="italic" lengthAdjust="spacing" textLength="31" x="115" y="560.1387">actor</text><line style="stroke:#A80036;stroke-width:1.5;" x1="8" x2="143" y1="574.9688" y2="574.9688"/><line style="stroke:#A80036;stroke-width:1.5;" x1="8" x2="143" y1="582.9688" y2="582.9688"/><!--MD5=[db6d18d8099558415abc41d00477ab92]
class Admin--><rect codeLine="91" fill="#FEFECE" filter="url(#fhdip1mhnoyua)" height="52.7734" id="Admin" style="stroke:#A80036;stroke-width:1.5;" width="78" x="1221.5" y="29"/><text fill="#000000" font-family="sans-serif" font-size="12" lengthAdjust="spacing" textLength="37" x="1224.5" y="45.1387">Admin</text><rect fill="#FFFFFF" height="15.9688" style="stroke:#000000;stroke-width:1.0;stroke-dasharray:2.0,2.0;" width="33" x="1269.5" y="26"/><text fill="#000000" font-family="sans-serif" font-size="12" font-style="italic" lengthAdjust="spacing" textLength="31" x="1270.5" y="38.1387">actor</text><line style="stroke:#A80036;stroke-width:1.5;" x1="1222.5" x2="1298.5" y1="52.9688" y2="52.9688"/><line style="stroke:#A80036;stroke-width:1.5;" x1="1222.5" x2="1298.5" y1="60.9688" y2="60.9688"/><text fill="#000000" font-family="sans-serif" font-size="11" lengthAdjust="spacing" textLength="53" x="1227.5" y="75.1792">remove()</text><!--MD5=[5ad970bb37549d990825e929ff20cfcb]
class SiteAdmin--><rect codeLine="10" fill="#FEFECE" filter="url(#fhdip1mhnoyua)" height="39.9688" id="SiteAdmin" style="stroke:#A80036;stroke-width:1.5;" width="101" x="1335" y="35.5"/><text fill="#000000" font-family="sans-serif" font-size="12" lengthAdjust="spacing" textLength="60" x="1338" y="51.6387">SiteAdmin</text><rect fill="#FFFFFF" height="15.9688" style="stroke:#000000;stroke-width:1.0;stroke-dasharray:2.0,2.0;" width="33" x="1406" y="32.5"/><text fill="#000000" font-family="sans-serif" font-size="12" font-style="italic" lengthAdjust="spacing" textLength="31" x="1407" y="44.6387">actor</text><line style="stroke:#A80036;stroke-width:1.5;" x1="1336" x2="1435" y1="59.4688" y2="59.4688"/><line style="stroke:#A80036;stroke-width:1.5;" x1="1336" x2="1435" y1="67.4688" y2="67.4688"/><!--MD5=[dab16d122782a892ddb6ee0eadcd68f0]
class Access--><rect codeLine="34" fill="#FEFECE" filter="url(#fhdip1mhnoyua)" height="39.9688" id="Access" style="stroke:#A80036;stroke-width:1.5;" width="50" x="179.5" y="551"/><text fill="#000000" font-family="sans-serif" font-size="12" lengthAdjust="spacing" textLength="44" x="182.5" y="567.1387">Access</text><line style="stroke:#A80036;stroke-width:1.5;" x1="180.5" x2="228.5" y1="574.9688" y2="574.9688"/><line style="stroke:#A80036;stroke-width:1.5;" x1="180.5" x2="228.5" y1="582.9688" y2="582.9688"/><!--MD5=[8c319644a1a714426c283ba7b12d856b]
class PropertyInformation--><rect codeLine="38" fill="#FEFECE" filter="url(#fhdip1mhnoyua)" height="39.9688" id="PropertyInformation" style="stroke:#A80036;stroke-width:1.5;" width="124" x="264.5" y="551"/><text fill="#000000" font-family="sans-serif" font-size="12" lengthAdjust="spacing" textLength="118" x="267.5" y="567.1387">PropertyInformation</text><line style="stroke:#A80036;stroke-width:1.5;" x1="265.5" x2="387.5" y1="574.9688" y2="574.9688"/><line style="stroke:#A80036;stroke-width:1.5;" x1="265.5" x2="387.5" y1="582.9688" y2="582.9688"/><!--MD5=[76b5e19c9337179d2d7ae334371d68c8]
class Notification--><rect codeLine="40" fill="#FEFECE" filter="url(#fhdip1mhnoyua)" height="39.9688" id="Notification" style="stroke:#A80036;stroke-width:1.5;" width="72" x="423.5" y="551"/><text fill="#000000" font-family="sans-serif" font-size="12" lengthAdjust="spacing" textLength="66" x="426.5" y="567.1387">Notification</text><line style="stroke:#A80036;stroke-width:1.5;" x1="424.5" x2="494.5" y1="574.9688" y2="574.9688"/><line style="stroke:#A80036;stroke-width:1.5;" x1="424.5" x2="494.5" y1="582.9688" y2="582.9688"/><!--MD5=[6a494c20d032ff54e1efa92c1369bc7b]
class Page--><rect codeLine="42" fill="#FEFECE" filter="url(#fhdip1mhnoyua)" height="39.9688" id="Page" style="stroke:#A80036;stroke-width:1.5;" width="35" x="531" y="551"/><text fill="#000000" font-family="sans-serif" font-size="12" lengthAdjust="spacing" textLength="29" x="534" y="567.1387">Page</text><line style="stroke:#A80036;stroke-width:1.5;" x1="532" x2="565" y1="574.9688" y2="574.9688"/><line style="stroke:#A80036;stroke-width:1.5;" x1="532" x2="565" y1="582.9688" y2="582.9688"/><!--MD5=[dc7977202b9bec7e39f9452fb963009e]
class FactorAuthentication--><rect codeLine="44" fill="#FEFECE" filter="url(#fhdip1mhnoyua)" height="39.9688" id="FactorAuthentication" style="stroke:#A80036;stroke-width:1.5;" width="128" x="601.5" y="551"/><text fill="#000000" font-family="sans-serif" font-size="12" lengthAdjust="spacing" textLength="122" x="604.5" y="567.1387">FactorAuthentication</text><line style="stroke:#A80036;stroke-width:1.5;" x1="602.5" x2="728.5" y1="574.9688" y2="574.9688"/><line style="stroke:#A80036;stroke-width:1.5;" x1="602.5" x2="728.5" y1="582.9688" y2="582.9688"/><!--MD5=[f62e03faf71373622fb7ecf49ded62e5]
class EmailNotificationSetting--><rect codeLine="46" fill="#FEFECE" filter="url(#fhdip1mhnoyua)" height="39.9688" id="EmailNotificationSetting" style="stroke:#A80036;stroke-width:1.5;" width="145" x="765" y="551"/><text fill="#000000" font-family="sans-serif" font-size="12" lengthAdjust="spacing" textLength="139" x="768" y="567.1387">EmailNotificationSetting</text><line style="stroke:#A80036;stroke-width:1.5;" x1="766" x2="909" y1="574.9688" y2="574.9688"/><line style="stroke:#A80036;stroke-width:1.5;" x1="766" x2="909" y1="582.9688" y2="582.9688"/><!--MD5=[634d1d8d06fddffff2d79d42b88716f1]
class DiscussionBoard--><rect codeLine="48" fill="#FEFECE" filter="url(#fhdip1mhnoyua)" height="52.7734" id="DiscussionBoard" style="stroke:#A80036;stroke-width:1.5;" width="107" x="1471" y="29"/><text fill="#000000" font-family="sans-serif" font-size="12" lengthAdjust="spacing" textLength="101" x="1474" y="45.1387">DiscussionBoard</text><line style="stroke:#A80036;stroke-width:1.5;" x1="1472" x2="1577" y1="52.9688" y2="52.9688"/><line style="stroke:#A80036;stroke-width:1.5;" x1="1472" x2="1577" y1="60.9688" y2="60.9688"/><text fill="#000000" font-family="sans-serif" font-size="11" lengthAdjust="spacing" textLength="38" x="1477" y="75.1792">using()</text><!--MD5=[fcea0092393042f826e3b3f0c822b801]
class TextInput--><rect codeLine="51" fill="#FEFECE" filter="url(#fhdip1mhnoyua)" height="39.9688" id="TextInput" style="stroke:#A80036;stroke-width:1.5;" width="61" x="1494" y="306"/><text fill="#000000" font-family="sans-serif" font-size="12" lengthAdjust="spacing" textLength="55" x="1497" y="322.1387">TextInput</text><line style="stroke:#A80036;stroke-width:1.5;" x1="1495" x2="1554" y1="329.9688" y2="329.9688"/><line style="stroke:#A80036;stroke-width:1.5;" x1="1495" x2="1554" y1="337.9688" y2="337.9688"/><!--MD5=[6a73440c6ea00faac0df0577589aa0e3]
class TrackingToolData--><rect codeLine="53" fill="#FEFECE" filter="url(#fhdip1mhnoyua)" height="39.9688" id="TrackingToolData" style="stroke:#A80036;stroke-width:1.5;" width="110" x="945.5" y="551"/><text fill="#000000" font-family="sans-serif" font-size="12" lengthAdjust="spacing" textLength="104" x="948.5" y="567.1387">TrackingToolData</text><line style="stroke:#A80036;stroke-width:1.5;" x1="946.5" x2="1054.5" y1="574.9688" y2="574.9688"/><line style="stroke:#A80036;stroke-width:1.5;" x1="946.5" x2="1054.5" y1="582.9688" y2="582.9688"/><!--MD5=[1cc500669c1c4c9e89b2633ce25dab06]
class InvestmentProperty--><rect codeLine="55" fill="#FEFECE" filter="url(#fhdip1mhnoyua)" height="39.9688" id="InvestmentProperty" style="stroke:#A80036;stroke-width:1.5;" width="123" x="1091" y="551"/><text fill="#000000" font-family="sans-serif" font-size="12" lengthAdjust="spacing" textLength="117" x="1094" y="567.1387">InvestmentProperty</text><line style="stroke:#A80036;stroke-width:1.5;" x1="1092" x2="1213" y1="574.9688" y2="574.9688"/><line style="stroke:#A80036;stroke-width:1.5;" x1="1092" x2="1213" y1="582.9688" y2="582.9688"/><!--MD5=[2f01b1126ff33a0669651ec2488a5ef9]
class Password--><rect codeLine="57" fill="#FEFECE" filter="url(#fhdip1mhnoyua)" height="39.9688" id="Password" style="stroke:#A80036;stroke-width:1.5;" width="64" x="1249.5" y="551"/><text fill="#000000" font-family="sans-serif" font-size="12" lengthAdjust="spacing" textLength="58" x="1252.5" y="567.1387">Password</text><line style="stroke:#A80036;stroke-width:1.5;" x1="1250.5" x2="1312.5" y1="574.9688" y2="574.9688"/><line style="stroke:#A80036;stroke-width:1.5;" x1="1250.5" x2="1312.5" y1="582.9688" y2="582.9688"/><!--MD5=[7b57f7066b803747d2119f99dd1555d4]
class Profile--><rect codeLine="59" fill="#FEFECE" filter="url(#fhdip1mhnoyua)" height="39.9688" id="Profile" style="stroke:#A80036;stroke-width:1.5;" width="43" x="1349" y="551"/><text fill="#000000" font-family="sans-serif" font-size="12" lengthAdjust="spacing" textLength="37" x="1352" y="567.1387">Profile</text><line style="stroke:#A80036;stroke-width:1.5;" x1="1350" x2="1391" y1="574.9688" y2="574.9688"/><line style="stroke:#A80036;stroke-width:1.5;" x1="1350" x2="1391" y1="582.9688" y2="582.9688"/><!--MD5=[3d4177ac58b4411586d067f34e84928f]
class List--><rect codeLine="61" fill="#FEFECE" filter="url(#fhdip1mhnoyua)" height="39.9688" id="List" style="stroke:#A80036;stroke-width:1.5;" width="26" x="1427.5" y="551"/><text fill="#000000" font-family="sans-serif" font-size="12" lengthAdjust="spacing" textLength="20" x="1430.5" y="567.1387">List</text><line style="stroke:#A80036;stroke-width:1.5;" x1="1428.5" x2="1452.5" y1="574.9688" y2="574.9688"/><line style="stroke:#A80036;stroke-width:1.5;" x1="1428.5" x2="1452.5" y1="582.9688" y2="582.9688"/><!--MD5=[eb0e8f8ddfdc21c3fdb48447501fec67]
class Review--><rect codeLine="63" fill="#FEFECE" filter="url(#fhdip1mhnoyua)" height="39.9688" id="Review" style="stroke:#A80036;stroke-width:1.5;" width="49" x="1489" y="551"/><text fill="#000000" font-family="sans-serif" font-size="12" lengthAdjust="spacing" textLength="43" x="1492" y="567.1387">Review</text><line style="stroke:#A80036;stroke-width:1.5;" x1="1490" x2="1537" y1="574.9688" y2="574.9688"/><line style="stroke:#A80036;stroke-width:1.5;" x1="1490" x2="1537" y1="582.9688" y2="582.9688"/><!--MD5=[d89522dc17e4c35c83a603e675ef016b]
class Identity--><rect codeLine="71" fill="#FEFECE" filter="url(#fhdip1mhnoyua)" height="39.9688" id="Identity" style="stroke:#A80036;stroke-width:1.5;" width="50" x="810.5" y="306"/><text fill="#000000" font-family="sans-serif" font-size="12" lengthAdjust="spacing" textLength="44" x="813.5" y="322.1387">Identity</text><line style="stroke:#A80036;stroke-width:1.5;" x1="811.5" x2="859.5" y1="329.9688" y2="329.9688"/><line style="stroke:#A80036;stroke-width:1.5;" x1="811.5" x2="859.5" y1="337.9688" y2="337.9688"/><!--MD5=[1032d4f2870c9a77590bd215a4cd5854]
class Investment--><rect codeLine="73" fill="#FEFECE" filter="url(#fhdip1mhnoyua)" height="39.9688" id="Investment" style="stroke:#A80036;stroke-width:1.5;" width="72" x="1573.5" y="551"/><text fill="#000000" font-family="sans-serif" font-size="12" lengthAdjust="spacing" textLength="66" x="1576.5" y="567.1387">Investment</text><line style="stroke:#A80036;stroke-width:1.5;" x1="1574.5" x2="1644.5" y1="574.9688" y2="574.9688"/><line style="stroke:#A80036;stroke-width:1.5;" x1="1574.5" x2="1644.5" y1="582.9688" y2="582.9688"/><!--MD5=[49d42632b649f116d5d2b66ad3e0f715]
class Discussion--><rect codeLine="75" fill="#FEFECE" filter="url(#fhdip1mhnoyua)" height="39.9688" id="Discussion" style="stroke:#A80036;stroke-width:1.5;" width="71" x="1681" y="551"/><text fill="#000000" font-family="sans-serif" font-size="12" lengthAdjust="spacing" textLength="65" x="1684" y="567.1387">Discussion</text><line style="stroke:#A80036;stroke-width:1.5;" x1="1682" x2="1751" y1="574.9688" y2="574.9688"/><line style="stroke:#A80036;stroke-width:1.5;" x1="1682" x2="1751" y1="582.9688" y2="582.9688"/><!--MD5=[f03409201630dc6b3f3d7095fd5d0a14]
class SiteDiscussionBoard--><rect codeLine="77" fill="#FEFECE" filter="url(#fhdip1mhnoyua)" height="39.9688" id="SiteDiscussionBoard" style="stroke:#A80036;stroke-width:1.5;" width="130" x="1787.5" y="551"/><text fill="#000000" font-family="sans-serif" font-size="12" lengthAdjust="spacing" textLength="124" x="1790.5" y="567.1387">SiteDiscussionBoard</text><line style="stroke:#A80036;stroke-width:1.5;" x1="1788.5" x2="1916.5" y1="574.9688" y2="574.9688"/><line style="stroke:#A80036;stroke-width:1.5;" x1="1788.5" x2="1916.5" y1="582.9688" y2="582.9688"/><!--MD5=[0d6549f34bc8f379da1c581a2f40304e]
class SitePermission--><rect codeLine="79" fill="#FEFECE" filter="url(#fhdip1mhnoyua)" height="39.9688" id="SitePermission" style="stroke:#A80036;stroke-width:1.5;" width="94" x="1952.5" y="551"/><text fill="#000000" font-family="sans-serif" font-size="12" lengthAdjust="spacing" textLength="88" x="1955.5" y="567.1387">SitePermission</text><line style="stroke:#A80036;stroke-width:1.5;" x1="1953.5" x2="2045.5" y1="574.9688" y2="574.9688"/><line style="stroke:#A80036;stroke-width:1.5;" x1="1953.5" x2="2045.5" y1="582.9688" y2="582.9688"/><!--MD5=[f9a29335b499db729be669fd1bd54958]
class Account--><rect codeLine="81" fill="#FEFECE" filter="url(#fhdip1mhnoyua)" height="39.9688" id="Account" style="stroke:#A80036;stroke-width:1.5;" width="54" x="2081.5" y="551"/><text fill="#000000" font-family="sans-serif" font-size="12" lengthAdjust="spacing" textLength="48" x="2084.5" y="567.1387">Account</text><line style="stroke:#A80036;stroke-width:1.5;" x1="2082.5" x2="2134.5" y1="574.9688" y2="574.9688"/><line style="stroke:#A80036;stroke-width:1.5;" x1="2082.5" x2="2134.5" y1="582.9688" y2="582.9688"/><!--MD5=[091a328b1a088824111f7cc5833ba4fc]
class WebsiteUtilizationStatistics--><rect codeLine="83" fill="#FEFECE" filter="url(#fhdip1mhnoyua)" height="39.9688" id="WebsiteUtilizationStatistics" style="stroke:#A80036;stroke-width:1.5;" width="168" x="895.5" y="306"/><text fill="#000000" font-family="sans-serif" font-size="12" lengthAdjust="spacing" textLength="162" x="898.5" y="322.1387">WebsiteUtilizationStatistics</text><line style="stroke:#A80036;stroke-width:1.5;" x1="896.5" x2="1062.5" y1="329.9688" y2="329.9688"/><line style="stroke:#A80036;stroke-width:1.5;" x1="896.5" x2="1062.5" y1="337.9688" y2="337.9688"/><!--MD5=[d22815ff63be9cac9a63f8d1ea27d033]
class Article--><rect codeLine="85" fill="#FEFECE" filter="url(#fhdip1mhnoyua)" height="39.9688" id="Article" style="stroke:#A80036;stroke-width:1.5;" width="44" x="1098.5" y="306"/><text fill="#000000" font-family="sans-serif" font-size="12" lengthAdjust="spacing" textLength="38" x="1101.5" y="322.1387">Article</text><line style="stroke:#A80036;stroke-width:1.5;" x1="1099.5" x2="1141.5" y1="329.9688" y2="329.9688"/><line style="stroke:#A80036;stroke-width:1.5;" x1="1099.5" x2="1141.5" y1="337.9688" y2="337.9688"/><!--MD5=[27fa0a8c4ffc10cb265c3cd98e60729a]
class SiteBlog--><rect codeLine="87" fill="#FEFECE" filter="url(#fhdip1mhnoyua)" height="39.9688" id="SiteBlog" style="stroke:#A80036;stroke-width:1.5;" width="56" x="2170.5" y="551"/><text fill="#000000" font-family="sans-serif" font-size="12" lengthAdjust="spacing" textLength="50" x="2173.5" y="567.1387">SiteBlog</text><line style="stroke:#A80036;stroke-width:1.5;" x1="2171.5" x2="2225.5" y1="574.9688" y2="574.9688"/><line style="stroke:#A80036;stroke-width:1.5;" x1="2171.5" x2="2225.5" y1="582.9688" y2="582.9688"/><!--MD5=[53e6cac2272ce2eb99d85cf2b2d574ee]
class Performance--><rect codeLine="89" fill="#FEFECE" filter="url(#fhdip1mhnoyua)" height="39.9688" id="Performance" style="stroke:#A80036;stroke-width:1.5;" width="82" x="2261.5" y="551"/><text fill="#000000" font-family="sans-serif" font-size="12" lengthAdjust="spacing" textLength="76" x="2264.5" y="567.1387">Performance</text><line style="stroke:#A80036;stroke-width:1.5;" x1="2262.5" x2="2342.5" y1="574.9688" y2="574.9688"/><line style="stroke:#A80036;stroke-width:1.5;" x1="2262.5" x2="2342.5" y1="582.9688" y2="582.9688"/><!--MD5=[7d3bd5ffe7a3e735064f8f9dd300b0da]
link User to Performance--><path codeLine="94" d="M1271.5,356.432 C1315.91,391.784 1396.4,449.395 1476.5,474 C1613.66,516.1321 1980.82,475.765 2121.5,504 C2169.05,513.5428 2220.8,533.4471 2256.74,548.915 " fill="none" id="User-to-Performance" style="stroke:#A80036;stroke-width:1.0;"/><polygon fill="#A80036" points="2261.48,550.9703,2254.8283,543.707,2256.8966,548.9722,2251.6314,551.0405,2261.48,550.9703" style="stroke:#A80036;stroke-width:1.0;"/><text fill="#000000" font-family="sans-serif" font-size="13" lengthAdjust="spacing" textLength="23" x="2184.5" y="517.0669">see</text><!--MD5=[edc107c0a572352bcd12c9afaba4390b]
link Administrator to User--><path codeLine="95" d="M1086.76,101.236 C1110.87,122.831 1138.49,150.081 1159.5,178 C1174.22,197.559 1187.64,220.325 1199.02,242.017 " fill="none" id="Administrator-to-User" style="stroke:#A80036;stroke-width:1.0;"/><polygon fill="#A80036" points="1201.42,246.627,1200.8117,236.7969,1199.111,242.1921,1193.7158,240.4914,1201.42,246.627" style="stroke:#A80036;stroke-width:1.0;"/><text fill="#000000" font-family="sans-serif" font-size="13" lengthAdjust="spacing" textLength="63" x="1133.5" y="144.0669">moderate</text><!--MD5=[dc718a785fdd7ec077b0e8d08c350e59]
link User to PropertyInformation--><path codeLine="96" d="M1201.44,428.351 C1190.72,446.32 1176.98,462.834 1159.5,474 C1101.66,510.9479 610.117,492.2144 542.5,504 C486.335,513.7895 424.292,533.7489 381.166,549.1682 " fill="none" id="User-to-PropertyInformation" style="stroke:#A80036;stroke-width:1.0;"/><polygon fill="#A80036" points="376.266,550.9298,386.0885,551.6494,380.9712,549.2383,383.3822,544.121,376.266,550.9298" style="stroke:#A80036;stroke-width:1.0;"/><text fill="#000000" font-family="sans-serif" font-size="13" lengthAdjust="spacing" textLength="24" x="543.5" y="517.0669">add</text><!--MD5=[5ab1f46e477a8163e64d30b24bef4255]
link User to Password--><path codeLine="97" d="M1221.77,474.219 C1223.79,490.359 1227.49,506.2644 1233.5,521 C1237.52,530.8539 1244.59,539.7998 1252.08,547.2706 " fill="none" id="User-to-Password" style="stroke:#A80036;stroke-width:1.0;"/><polygon fill="#A80036" points="1255.78,550.8172,1252.0465,541.7034,1252.1688,547.3589,1246.5133,547.4813,1255.78,550.8172" style="stroke:#A80036;stroke-width:1.0;"/><text fill="#000000" font-family="sans-serif" font-size="13" lengthAdjust="spacing" textLength="33" x="1234.5" y="517.0669">reset</text><!--MD5=[e4fba5274d93292b2b4a6c089fdf9595]
link User to InvestmentProperty--><path codeLine="98" d="M1201.48,428.294 C1186.57,471.448 1170.44,518.1014 1160.92,545.6474 " fill="none" id="User-to-InvestmentProperty" style="stroke:#A80036;stroke-width:1.0;"/><polygon fill="#A80036" points="1159.22,550.5634,1165.9395,543.3629,1160.8527,545.8375,1158.378,540.7506,1159.22,550.5634" style="stroke:#A80036;stroke-width:1.0;"/><text fill="#000000" font-family="sans-serif" font-size="13" lengthAdjust="spacing" textLength="32" x="1176.5" y="517.0669">track</text><!--MD5=[993a1ed30139d6bc9fd462e29443e622]
link User to User--><path codeLine="99" d="M1271.8,292.351 C1290.05,287.174 1306.5,298.391 1306.5,326 C1306.5,351.021 1292.99,362.579 1276.87,360.673 " fill="none" id="User-to-User" style="stroke:#A80036;stroke-width:1.0;"/><polygon fill="#A80036" points="1271.8,359.649,1279.8344,365.3454,1276.7018,360.6351,1281.4121,357.5025,1271.8,359.649" style="stroke:#A80036;stroke-width:1.0;"/><text fill="#000000" font-family="sans-serif" font-size="13" lengthAdjust="spacing" textLength="39" x="1312.5" y="330.5669">report</text><!--MD5=[f9ad8e9d6a467767d7584cf9cb995def]
link User to Investment--><path codeLine="100" d="M1271.75,350.828 C1317.73,381.382 1401.2,435.062 1476.5,474 C1506.57,489.547 1518.69,484.699 1546.5,504 C1563.6,515.8693 1579.74,532.9433 1591.41,546.7515 " fill="none" id="User-to-Investment" style="stroke:#A80036;stroke-width:1.0;"/><polygon fill="#A80036" points="1594.88,550.9225,1592.1961,541.4464,1591.6811,547.0797,1586.0477,546.5647,1594.88,550.9225" style="stroke:#A80036;stroke-width:1.0;"/><text fill="#000000" font-family="sans-serif" font-size="13" lengthAdjust="spacing" textLength="53" x="1567.5" y="517.0669">manage</text><!--MD5=[2e2e530a658308b38e0151c4d25adf6b]
link User to Notification--><path codeLine="101" d="M1201.36,428.235 C1190.65,446.212 1176.93,462.759 1159.5,474 C1110.49,505.6043 692.561,491.9584 635.5,504 C587.524,514.1245 535.235,535.1003 500.224,550.7018 " fill="none" id="User-to-Notification" style="stroke:#A80036;stroke-width:1.0;"/><polygon fill="#A80036" points="495.614,552.7693,505.4628,552.734,500.1758,550.7223,502.1875,545.4352,495.614,552.7693" style="stroke:#A80036;stroke-width:1.0;"/><text fill="#000000" font-family="sans-serif" font-size="13" lengthAdjust="spacing" textLength="47" x="636.5" y="517.0669">receive</text><!--MD5=[478425156ee10c55cac736d5b0b47b37]
link Admin to User--><path codeLine="102" d="M1258.2,82.245 C1256.24,104.138 1253.26,137.53 1250.12,172.606 " fill="none" id="Admin-to-User" style="stroke:#A80036;stroke-width:1.0;"/><polygon fill="#A80036" points="1249.66,177.792,1254.4431,169.1826,1250.1038,172.8117,1246.4746,168.4725,1249.66,177.792" style="stroke:#A80036;stroke-width:1.0;"/><text fill="#000000" font-family="sans-serif" font-size="13" lengthAdjust="spacing" textLength="50" x="1254.5" y="144.0669">remove</text><!--MD5=[4816c64fb8fc9ecb22970fd822d24e69]
link User to Discussion--><path codeLine="103" d="M1271.77,354.238 C1316.77,387.616 1398.19,443.485 1476.5,474 C1541.07,499.1608 1566.26,475.662 1629.5,504 C1653.1,514.5783 1676.26,532.628 1692.74,547.1805 " fill="none" id="User-to-Discussion" style="stroke:#A80036;stroke-width:1.0;"/><polygon fill="#A80036" points="1696.78,550.7982,1692.7523,541.8106,1693.0584,547.4591,1687.4098,547.7652,1696.78,550.7982" style="stroke:#A80036;stroke-width:1.0;"/><text fill="#000000" font-family="sans-serif" font-size="13" lengthAdjust="spacing" textLength="30" x="1659.5" y="517.0669">start</text><!--MD5=[970cac591fccbf7a9f15ccd0a38b4219]
link User to Page--><path codeLine="104" d="M1201.33,427.472 C1190.6,445.622 1176.89,462.429 1159.5,474 C1094.88,517.0001 888.31,492.8119 811.5,504 C709.116,518.9133 680.68,515.4916 583.5,551 C579.208,552.5683 574.799,554.5933 570.62,556.7346 " fill="none" id="User-to-Page" style="stroke:#A80036;stroke-width:1.0;"/><polygon fill="#A80036" points="566.191,559.0877,576.0157,558.3977,570.6066,556.7419,572.2624,551.3328,566.191,559.0877" style="stroke:#A80036;stroke-width:1.0;"/><text fill="#000000" font-family="sans-serif" font-size="13" lengthAdjust="spacing" textLength="36" x="812.5" y="517.0669">make</text><!--MD5=[fa83391b641a878828d461bcf01a433d]
link User to SiteDiscussionBoard--><path codeLine="105" d="M1271.88,355.291 C1316.67,389.478 1397.55,445.901 1476.5,474 C1570.3,507.3852 1602.53,477.481 1698.5,504 C1738.02,514.921 1780.71,533.8255 1811.1,548.6106 " fill="none" id="User-to-SiteDiscussionBoard" style="stroke:#A80036;stroke-width:1.0;"/><polygon fill="#A80036" points="1815.87,550.9463,1809.5478,543.3945,1811.38,548.7464,1806.028,550.5785,1815.87,550.9463" style="stroke:#A80036;stroke-width:1.0;"/><text fill="#000000" font-family="sans-serif" font-size="13" lengthAdjust="spacing" textLength="29" x="1747.5" y="517.0669">read</text><!--MD5=[a534af078d2a9d2e31658a22108d30bf]
link User to FactorAuthentication--><path codeLine="106" d="M1201.37,426.13 C1190.61,444.605 1176.87,461.882 1159.5,474 C1117.41,503.3711 980.927,494.4494 930.5,504 C863.371,516.7137 787.85,536.0267 734.654,550.4812 " fill="none" id="User-to-FactorAuthentication" style="stroke:#A80036;stroke-width:1.0;"/><polygon fill="#A80036" points="729.577,551.8644,739.3119,553.358,734.4012,550.5501,737.2091,545.6393,729.577,551.8644" style="stroke:#A80036;stroke-width:1.0;"/><text fill="#000000" font-family="sans-serif" font-size="13" lengthAdjust="spacing" textLength="52" x="931.5" y="517.0669">activate</text><!--MD5=[a943d1af1cfbcccdca843e5e9cf8f596]
link DiscussionBoard to TextInput--><path codeLine="107" d="M1524.5,82.245 C1524.5,134.042 1524.5,250.202 1524.5,300.741 " fill="none" id="DiscussionBoard-to-TextInput" style="stroke:#A80036;stroke-width:1.0;"/><polygon fill="#A80036" points="1524.5,305.998,1528.5,296.998,1524.5,300.998,1520.5,296.998,1524.5,305.998" style="stroke:#A80036;stroke-width:1.0;"/><text fill="#000000" font-family="sans-serif" font-size="13" lengthAdjust="spacing" textLength="34" x="1525.5" y="144.0669">using</text><!--MD5=[6415063213547b35a52066d7b53eb916]
link User to Review--><path codeLine="108" d="M1271.58,357.776 C1328.19,407.439 1438.36,504.0854 1488.08,547.6982 " fill="none" id="User-to-Review" style="stroke:#A80036;stroke-width:1.0;"/><polygon fill="#A80036" points="1491.84,550.9971,1487.6966,542.0622,1488.0755,547.7064,1482.4314,548.0853,1491.84,550.9971" style="stroke:#A80036;stroke-width:1.0;"/><text fill="#000000" font-family="sans-serif" font-size="13" lengthAdjust="spacing" textLength="35" x="1455.5" y="517.0669">leave</text><!--MD5=[6415063213547b35a52066d7b53eb916]
link User to Review--><path codeLine="118" d="M1271.89,340.432 C1329.34,364.16 1442.23,419.15 1499.5,504 C1507.77,516.2565 1511.29,532.4748 1512.73,545.7669 " fill="none" id="User-to-Review-1" style="stroke:#A80036;stroke-width:1.0;"/><polygon fill="#A80036" points="1513.2,550.8894,1516.3613,541.5617,1512.7433,545.9103,1508.3947,542.2924,1513.2,550.8894" style="stroke:#A80036;stroke-width:1.0;"/><text fill="#000000" font-family="sans-serif" font-size="13" lengthAdjust="spacing" textLength="29" x="1508.5" y="517.0669">read</text><!--MD5=[25e38a5b5577d15957622e6ba38f4623]
link User to EmailNotificationSetting--><path codeLine="109" d="M1201.29,422.668 C1190.43,441.932 1176.67,460.409 1159.5,474 C1117.41,507.3209 1094.07,489.101 1042.5,504 C993.831,518.0603 939.254,535.7254 898.657,549.2409 " fill="none" id="User-to-EmailNotificationSetting" style="stroke:#A80036;stroke-width:1.0;"/><polygon fill="#A80036" points="893.777,550.8681,903.5804,551.8135,898.5199,549.2854,901.048,544.2249,893.777,550.8681" style="stroke:#A80036;stroke-width:1.0;"/><text fill="#000000" font-family="sans-serif" font-size="13" lengthAdjust="spacing" textLength="39" x="1043.5" y="517.0669">adjust</text><!--MD5=[5b923c8b06fb8770a1b9231ca613dea0]
link User to SitePermission--><path codeLine="110" d="M1271.71,355.776 C1316.33,390.459 1397.04,447.388 1476.5,474 C1607.34,517.8188 1650.22,476.862 1785.5,504 C1841.84,515.3023 1904.46,535.5542 1947.33,550.654 " fill="none" id="User-to-SitePermission" style="stroke:#A80036;stroke-width:1.0;"/><polygon fill="#A80036" points="1952.19,552.376,1945.0261,545.6174,1947.473,550.7177,1942.3728,553.1646,1952.19,552.376" style="stroke:#A80036;stroke-width:1.0;"/><text fill="#000000" font-family="sans-serif" font-size="13" lengthAdjust="spacing" textLength="32" x="1852.5" y="517.0669">have</text><!--MD5=[fb1e7399e566a69428d04dad9542b7e9]
link User to ServiceProvider--><path codeLine="111" d="M1201.4,429.017 C1190.7,446.82 1176.98,463.099 1159.5,474 C1107.25,506.5881 94.449,459.872 51.5,504 C40.2483,515.5604 47.0385,532.8015 56.2265,546.763 " fill="none" id="User-to-ServiceProvider" style="stroke:#A80036;stroke-width:1.0;"/><polygon fill="#A80036" points="59.1376,550.9807,57.3171,541.3016,56.2973,546.8657,50.7332,545.846,59.1376,550.9807" style="stroke:#A80036;stroke-width:1.0;"/><text fill="#000000" font-family="sans-serif" font-size="13" lengthAdjust="spacing" textLength="26" x="52.5" y="517.0669">rate</text><!--MD5=[fb1e7399e566a69428d04dad9542b7e9]
link User to ServiceProvider--><path codeLine="113" d="M1201.38,428.993 C1190.69,446.797 1176.97,463.083 1159.5,474 C1061.47,535.266 220.628,447.988 119.5,504 C103.1569,513.0521 91.7787,531.0452 84.693,545.9607 " fill="none" id="User-to-ServiceProvider-1" style="stroke:#A80036;stroke-width:1.0;"/><polygon fill="#A80036" points="82.4536,550.8837,89.8213,544.3478,84.524,546.3325,82.5393,541.0352,82.4536,550.8837" style="stroke:#A80036;stroke-width:1.0;"/><text fill="#000000" font-family="sans-serif" font-size="13" lengthAdjust="spacing" textLength="43" x="120.5" y="517.0669">search</text><!--MD5=[fb1e7399e566a69428d04dad9542b7e9]
link User to ServiceProvider--><path codeLine="123" d="M1201.33,428.908 C1190.64,446.718 1176.93,463.028 1159.5,474 C1079.14,524.5713 399.275,489.128 305.5,504 C245.526,513.5113 179.054,533.679 133.058,549.2326 " fill="none" id="User-to-ServiceProvider-2" style="stroke:#A80036;stroke-width:1.0;"/><polygon fill="#A80036" points="128.113,550.9137,137.9214,551.8055,132.8472,549.3051,135.3476,544.2308,128.113,550.9137" style="stroke:#A80036;stroke-width:1.0;"/><text fill="#000000" font-family="sans-serif" font-size="13" lengthAdjust="spacing" textLength="24" x="306.5" y="517.0669">find</text><!--MD5=[3b3a110f6aeec0a0bf442c01daca6c1c]
link User to Profile--><path codeLine="112" d="M1271.56,452.443 C1281.37,476.43 1293.55,500.4425 1308.5,521 C1318.06,534.1442 1332.04,545.6154 1344.32,554.1476 " fill="none" id="User-to-Profile" style="stroke:#A80036;stroke-width:1.0;"/><polygon fill="#A80036" points="1348.75,557.1557,1343.5385,548.7986,1344.6092,554.3532,1339.0546,555.4239,1348.75,557.1557" style="stroke:#A80036;stroke-width:1.0;"/><text fill="#000000" font-family="sans-serif" font-size="13" lengthAdjust="spacing" textLength="36" x="1309.5" y="517.0669">make</text><!--MD5=[66aaf66c14931cf11d078acea668e127]
link User to TrackingToolData--><path codeLine="114" d="M1201.39,413.039 C1190.08,434.492 1176.09,456.377 1159.5,474 C1141.61,493.0109 1082.74,526.3777 1041.89,548.3353 " fill="none" id="User-to-TrackingToolData" style="stroke:#A80036;stroke-width:1.0;"/><polygon fill="#A80036" points="1037,550.9547,1046.8209,550.2127,1041.4031,548.5855,1043.0302,543.1677,1037,550.9547" style="stroke:#A80036;stroke-width:1.0;"/><text fill="#000000" font-family="sans-serif" font-size="13" lengthAdjust="spacing" textLength="42" x="1118.5" y="517.0669">export</text><!--MD5=[87e802f94dff5db0b14b612664619da8]
link User to Account--><path codeLine="115" d="M1271.6,356.101 C1316.12,391.115 1396.71,448.382 1476.5,474 C1653.42,530.8056 1710.39,472.422 1893.5,504 C1970.75,517.3221 1989.46,525.2556 2063.5,551 C2067.74,552.4726 2072.14,554.1474 2076.47,555.8781 " fill="none" id="User-to-Account" style="stroke:#A80036;stroke-width:1.0;"/><polygon fill="#A80036" points="2081.11,557.7711,2074.2831,550.6722,2076.4792,555.8854,2071.266,558.0815,2081.11,557.7711" style="stroke:#A80036;stroke-width:1.0;"/><text fill="#000000" font-family="sans-serif" font-size="13" lengthAdjust="spacing" textLength="41" x="1972.5" y="517.0669">create</text><!--MD5=[a575d74337a11a313f60f24f067f60bf]
link User to List--><path codeLine="116" d="M1271.53,377.154 C1300.57,417.506 1343.88,474.883 1386.5,521 C1398.13,533.5855 1412.56,546.5626 1423.58,555.9978 " fill="none" id="User-to-List" style="stroke:#A80036;stroke-width:1.0;"/><polygon fill="#A80036" points="1427.47,559.3064,1423.1899,550.4362,1423.6555,556.0739,1418.0178,556.5395,1427.47,559.3064" style="stroke:#A80036;stroke-width:1.0;"/><text fill="#000000" font-family="sans-serif" font-size="13" lengthAdjust="spacing" textLength="30" x="1387.5" y="517.0669">view</text><!--MD5=[212411d2e7b6838baca0acf4aab2b204]
link Administrator to WebsiteUtilizationStatistics--><path codeLine="117" d="M1018.3,101.166 C1015.47,110.936 1012.71,121.267 1010.5,131 C996.816,191.399 986.949,263.712 982.367,300.656 " fill="none" id="Administrator-to-WebsiteUtilizationStatistics" style="stroke:#A80036;stroke-width:1.0;"/><polygon fill="#A80036" points="981.73,305.844,986.7981,297.3992,982.34,300.8813,978.8578,296.4232,981.73,305.844" style="stroke:#A80036;stroke-width:1.0;"/><text fill="#000000" font-family="sans-serif" font-size="13" lengthAdjust="spacing" textLength="30" x="1011.5" y="144.0669">view</text><!--MD5=[6ecc8c964edee2fb1dd17d4d76ec8e53]
link Administrator to Article--><path codeLine="119" d="M1051.48,101.071 C1060.83,123.863 1071.91,152.174 1080.5,178 C1094.7,220.706 1107.69,271.584 1114.81,300.904 " fill="none" id="Administrator-to-Article" style="stroke:#A80036;stroke-width:1.0;"/><polygon fill="#A80036" points="1115.99,305.77,1117.763,296.0821,1114.815,300.91,1109.9871,297.962,1115.99,305.77" style="stroke:#A80036;stroke-width:1.0;"/><text fill="#000000" font-family="sans-serif" font-size="13" lengthAdjust="spacing" textLength="28" x="1071.5" y="144.0669">post</text><!--MD5=[3cd9423b4d7bed705cce44348efe2e61]
link User to Access--><path codeLine="120" d="M1201.28,428.828 C1190.59,446.644 1176.9,462.977 1159.5,474 C1090.83,517.5002 508.915,492.1038 428.5,504 C345.857,516.2257 325.294,523.236 246.5,551 C242.485,552.4146 238.326,554.0616 234.255,555.7833 " fill="none" id="User-to-Access" style="stroke:#A80036;stroke-width:1.0;"/><polygon fill="#A80036" points="229.531,557.8293,239.3794,557.923,234.1192,555.8421,236.2,550.5819,229.531,557.8293" style="stroke:#A80036;stroke-width:1.0;"/><text fill="#000000" font-family="sans-serif" font-size="13" lengthAdjust="spacing" textLength="32" x="429.5" y="517.0669">have</text><!--MD5=[fc8363a811d6843a1fe8d35d15735eb3]
link Administrator to Identity--><path codeLine="121" d="M971.786,91.019 C939.47,112.261 901.545,142.253 877.5,178 C851.873,216.099 841.702,269.833 837.801,300.674 " fill="none" id="Administrator-to-Identity" style="stroke:#A80036;stroke-width:1.0;"/><polygon fill="#A80036" points="837.185,305.789,842.2312,297.3311,837.7821,300.8248,834.2885,296.3757,837.185,305.789" style="stroke:#A80036;stroke-width:1.0;"/><text fill="#000000" font-family="sans-serif" font-size="13" lengthAdjust="spacing" textLength="37" x="917.5" y="144.0669">verify</text><!--MD5=[aa8c183dfab6ebd929f08d9fadd3e6cc]
link User to SiteBlog--><path codeLine="122" d="M1271.54,356.322 C1315.98,391.562 1396.5,449.058 1476.5,474 C1708.52,546.3375 1784.36,455.502 2022.5,504 C2074.16,514.5207 2130.71,538.0474 2165.4,553.9748 " fill="none" id="User-to-SiteBlog" style="stroke:#A80036;stroke-width:1.0;"/><polygon fill="#A80036" points="2170.36,556.2671,2163.8719,548.8574,2165.8223,554.1674,2160.5123,556.1177,2170.36,556.2671" style="stroke:#A80036;stroke-width:1.0;"/><text fill="#000000" font-family="sans-serif" font-size="13" lengthAdjust="spacing" textLength="29" x="2083.5" y="517.0669">read</text><!--MD5=[216cb5e7e83482a781ad94ada5e4a6c6]
@startuml
hide circle
class User<actor> {
}
class Administrator<actor> {
}
class ServiceProvider<actor> {
}
class Admin<actor> {
}
class SiteAdmin<actor> {
}
class User {
	reset()
	receive()
	add()
	export()
	search()
	create()
	track()
	rate()
	read()
	make()
	adjust()
	find()
	leave()
	report()
	have()
	see()
	activate()
	view()
	start()
	manage()
}
class Access {
}
class ServiceProvider {
}
class PropertyInformation {
}
class Notification {
}
class Page {
}
class FactorAuthentication {
}
class EmailNotificationSetting {
}
class DiscussionBoard {
	using()
}
class TextInput {
}
class TrackingToolData {
}
class InvestmentProperty {
}
class Password {
}
class Profile {
}
class List {
}
class Review {
}
class Administrator {
	moderate()
	verify()
	post()
	view()
}
class Identity {
}
class Investment {
}
class Discussion {
}
class SiteDiscussionBoard {
}
class SitePermission {
}
class Account {
}
class WebsiteUtilizationStatistics {
}
class Article {
}
class SiteBlog {
}
class Performance {
}
class Admin {
	remove()
}
User - -> Performance : see
Administrator - -> User : moderate
User - -> PropertyInformation : add
User - -> Password : reset
User - -> InvestmentProperty : track
User - -> User : report
User - -> Investment : manage
User - -> Notification : receive
Admin - -> User : remove
User - -> Discussion : start
User - -> Page : make
User - -> SiteDiscussionBoard : read
User - -> FactorAuthentication : activate
DiscussionBoard - -> TextInput : using
User - -> Review : leave
User - -> EmailNotificationSetting : adjust
User - -> SitePermission : have
User - -> ServiceProvider : rate
User - -> Profile : make
User - -> ServiceProvider : search
User - -> TrackingToolData : export
User - -> Account : create
User - -> List : view
Administrator - -> WebsiteUtilizationStatistics : view
User - -> Review : read
Administrator - -> Article : post
User - -> Access : have
Administrator - -> Identity : verify
User - -> SiteBlog : read
User - -> ServiceProvider : find
@enduml

PlantUML version 1.2021.6beta6(Unknown compile time)
(GPL source distribution)
Java Runtime: Java(TM) SE Runtime Environment
JVM: Java HotSpot(TM) 64-Bit Server VM
Default Encoding: UTF-8
Language: en
Country: US
--></g></svg>