<?xml version="1.0" encoding="UTF-8" standalone="no"?><svg xmlns="http://www.w3.org/2000/svg" xmlns:xlink="http://www.w3.org/1999/xlink" contentScriptType="application/ecmascript" contentStyleType="text/css" height="334px" preserveAspectRatio="none" style="width:2844px;height:334px;background:#FFFFFF;" version="1.1" viewBox="0 0 2844 334" width="2844px" zoomAndPan="magnify"><defs><filter height="300%" id="f18ju7pdqja7zo" width="300%" x="-1" y="-1"><feGaussianBlur result="blurOut" stdDeviation="2.0"/><feColorMatrix in="blurOut" result="blurOut2" type="matrix" values="0 0 0 0 0 0 0 0 0 0 0 0 0 0 0 0 0 0 .4 0"/><feOffset dx="4.0" dy="4.0" in="blurOut2" result="blurOut3"/><feBlend in="SourceGraphic" in2="blurOut3" mode="normal"/></filter></defs><g><!--MD5=[3fd616f346a44cd59a91eb10b19e157c]
class User--><rect codeLine="14" fill="#FEFECE" filter="url(#f18ju7pdqja7zo)" height="193.625" id="User" style="stroke:#A80036;stroke-width:1.5;" width="74" x="1774.5" y="10"/><text fill="#000000" font-family="sans-serif" font-size="12" lengthAdjust="spacing" textLength="29" x="1779.5" y="26.1387">User</text><rect fill="#FFFFFF" height="15.9688" style="stroke:#000000;stroke-width:1.0;stroke-dasharray:2.0,2.0;" width="33" x="1818.5" y="7"/><text fill="#000000" font-family="sans-serif" font-size="12" font-style="italic" lengthAdjust="spacing" textLength="31" x="1819.5" y="19.1387">actor</text><line style="stroke:#A80036;stroke-width:1.5;" x1="1775.5" x2="1847.5" y1="33.9688" y2="33.9688"/><line style="stroke:#A80036;stroke-width:1.5;" x1="1775.5" x2="1847.5" y1="41.9688" y2="41.9688"/><text fill="#000000" font-family="sans-serif" font-size="11" lengthAdjust="spacing" textLength="46" x="1780.5" y="56.1792">delete()</text><text fill="#000000" font-family="sans-serif" font-size="11" lengthAdjust="spacing" textLength="35" x="1780.5" y="68.9839">view()</text><text fill="#000000" font-family="sans-serif" font-size="11" lengthAdjust="spacing" textLength="61" x="1780.5" y="81.7886">generate()</text><text fill="#000000" font-family="sans-serif" font-size="11" lengthAdjust="spacing" textLength="43" x="1780.5" y="94.5933">attach()</text><text fill="#000000" font-family="sans-serif" font-size="11" lengthAdjust="spacing" textLength="55" x="1780.5" y="107.3979">manage()</text><text fill="#000000" font-family="sans-serif" font-size="11" lengthAdjust="spacing" textLength="62" x="1780.5" y="120.2026">download()</text><text fill="#000000" font-family="sans-serif" font-size="11" lengthAdjust="spacing" textLength="47" x="1780.5" y="133.0073">access()</text><text fill="#000000" font-family="sans-serif" font-size="11" lengthAdjust="spacing" textLength="45" x="1780.5" y="145.812">export()</text><text fill="#000000" font-family="sans-serif" font-size="11" lengthAdjust="spacing" textLength="44" x="1780.5" y="158.6167">assign()</text><text fill="#000000" font-family="sans-serif" font-size="11" lengthAdjust="spacing" textLength="29" x="1780.5" y="171.4214">add()</text><text fill="#000000" font-family="sans-serif" font-size="11" lengthAdjust="spacing" textLength="45" x="1780.5" y="184.2261">create()</text><text fill="#000000" font-family="sans-serif" font-size="11" lengthAdjust="spacing" textLength="44" x="1780.5" y="197.0308">import()</text><!--MD5=[b39bf2416e05f940a14e3aa44644fd2d]
class Office--><rect codeLine="4" fill="#FEFECE" filter="url(#f18ju7pdqja7zo)" height="39.9688" id="Office" style="stroke:#A80036;stroke-width:1.5;" width="77" x="2184" y="87"/><text fill="#000000" font-family="sans-serif" font-size="12" lengthAdjust="spacing" textLength="36" x="2187" y="103.1387">Office</text><rect fill="#FFFFFF" height="15.9688" style="stroke:#000000;stroke-width:1.0;stroke-dasharray:2.0,2.0;" width="33" x="2231" y="84"/><text fill="#000000" font-family="sans-serif" font-size="12" font-style="italic" lengthAdjust="spacing" textLength="31" x="2232" y="96.1387">actor</text><line style="stroke:#A80036;stroke-width:1.5;" x1="2185" x2="2260" y1="110.9688" y2="110.9688"/><line style="stroke:#A80036;stroke-width:1.5;" x1="2185" x2="2260" y1="118.9688" y2="118.9688"/><!--MD5=[5a42d898e2a5d299cc26761d1eaa7d84]
class Doctor--><rect codeLine="30" fill="#FEFECE" filter="url(#f18ju7pdqja7zo)" height="129.6016" id="Doctor" style="stroke:#A80036;stroke-width:1.5;" width="89" x="382" y="42"/><text fill="#000000" font-family="sans-serif" font-size="12" lengthAdjust="spacing" textLength="41" x="388.5" y="58.1387">Doctor</text><rect fill="#FFFFFF" height="15.9688" style="stroke:#000000;stroke-width:1.0;stroke-dasharray:2.0,2.0;" width="33" x="441" y="39"/><text fill="#000000" font-family="sans-serif" font-size="12" font-style="italic" lengthAdjust="spacing" textLength="31" x="442" y="51.1387">actor</text><line style="stroke:#A80036;stroke-width:1.5;" x1="383" x2="470" y1="65.9688" y2="65.9688"/><line style="stroke:#A80036;stroke-width:1.5;" x1="383" x2="470" y1="73.9688" y2="73.9688"/><text fill="#000000" font-family="sans-serif" font-size="11" lengthAdjust="spacing" textLength="43" x="388" y="88.1792">match()</text><text fill="#000000" font-family="sans-serif" font-size="11" lengthAdjust="spacing" textLength="35" x="388" y="100.9839">view()</text><text fill="#000000" font-family="sans-serif" font-size="11" lengthAdjust="spacing" textLength="35" x="388" y="113.7886">want()</text><text fill="#000000" font-family="sans-serif" font-size="11" lengthAdjust="spacing" textLength="77" x="388" y="126.5933">recommend()</text><text fill="#000000" font-family="sans-serif" font-size="11" lengthAdjust="spacing" textLength="49" x="388" y="139.3979">choose()</text><text fill="#000000" font-family="sans-serif" font-size="11" lengthAdjust="spacing" textLength="21" x="388" y="152.2026">fill()</text><text fill="#000000" font-family="sans-serif" font-size="11" lengthAdjust="spacing" textLength="30" x="388" y="165.0073">edit()</text><!--MD5=[db6d18d8099558415abc41d00477ab92]
class Admin--><rect codeLine="80" fill="#FEFECE" filter="url(#f18ju7pdqja7zo)" height="52.7734" id="Admin" style="stroke:#A80036;stroke-width:1.5;" width="79" x="2595" y="80.5"/><text fill="#000000" font-family="sans-serif" font-size="12" lengthAdjust="spacing" textLength="37" x="2598.5" y="96.6387">Admin</text><rect fill="#FFFFFF" height="15.9688" style="stroke:#000000;stroke-width:1.0;stroke-dasharray:2.0,2.0;" width="33" x="2644" y="77.5"/><text fill="#000000" font-family="sans-serif" font-size="12" font-style="italic" lengthAdjust="spacing" textLength="31" x="2645" y="89.6387">actor</text><line style="stroke:#A80036;stroke-width:1.5;" x1="2596" x2="2673" y1="104.4688" y2="104.4688"/><line style="stroke:#A80036;stroke-width:1.5;" x1="2596" x2="2673" y1="112.4688" y2="112.4688"/><text fill="#000000" font-family="sans-serif" font-size="11" lengthAdjust="spacing" textLength="67" x="2601" y="126.6792">customize()</text><!--MD5=[da547346deef918ea16944ba046651ef]
class Administrator--><rect codeLine="58" fill="#FEFECE" filter="url(#f18ju7pdqja7zo)" height="52.7734" id="Administrator" style="stroke:#A80036;stroke-width:1.5;" width="121" x="2709" y="80.5"/><text fill="#000000" font-family="sans-serif" font-size="12" lengthAdjust="spacing" textLength="80" x="2712" y="96.6387">Administrator</text><rect fill="#FFFFFF" height="15.9688" style="stroke:#000000;stroke-width:1.0;stroke-dasharray:2.0,2.0;" width="33" x="2800" y="77.5"/><text fill="#000000" font-family="sans-serif" font-size="12" font-style="italic" lengthAdjust="spacing" textLength="31" x="2801" y="89.6387">actor</text><line style="stroke:#A80036;stroke-width:1.5;" x1="2710" x2="2829" y1="104.4688" y2="104.4688"/><line style="stroke:#A80036;stroke-width:1.5;" x1="2710" x2="2829" y1="112.4688" y2="112.4688"/><text fill="#000000" font-family="sans-serif" font-size="11" lengthAdjust="spacing" textLength="36" x="2715" y="126.6792">save()</text><!--MD5=[d342058c8fb6f80e9d50d673c6908241]
class Developer--><rect codeLine="75" fill="#FEFECE" filter="url(#f18ju7pdqja7zo)" height="52.7734" id="Developer" style="stroke:#A80036;stroke-width:1.5;" width="105" x="7" y="80.5"/><text fill="#000000" font-family="sans-serif" font-size="12" lengthAdjust="spacing" textLength="64" x="10" y="96.6387">Developer</text><rect fill="#FFFFFF" height="15.9688" style="stroke:#000000;stroke-width:1.0;stroke-dasharray:2.0,2.0;" width="33" x="82" y="77.5"/><text fill="#000000" font-family="sans-serif" font-size="12" font-style="italic" lengthAdjust="spacing" textLength="31" x="83" y="89.6387">actor</text><line style="stroke:#A80036;stroke-width:1.5;" x1="8" x2="111" y1="104.4688" y2="104.4688"/><line style="stroke:#A80036;stroke-width:1.5;" x1="8" x2="111" y1="112.4688" y2="112.4688"/><text fill="#000000" font-family="sans-serif" font-size="11" lengthAdjust="spacing" textLength="48" x="13" y="126.6792">protect()</text><!--MD5=[894442645724153f40a9f7a43026dbfc]
class Invoice--><rect codeLine="28" fill="#FEFECE" filter="url(#f18ju7pdqja7zo)" height="39.9688" id="Invoice" style="stroke:#A80036;stroke-width:1.5;" width="49" x="2289" y="281"/><text fill="#000000" font-family="sans-serif" font-size="12" lengthAdjust="spacing" textLength="43" x="2292" y="297.1387">Invoice</text><line style="stroke:#A80036;stroke-width:1.5;" x1="2290" x2="2337" y1="304.9688" y2="304.9688"/><line style="stroke:#A80036;stroke-width:1.5;" x1="2290" x2="2337" y1="312.9688" y2="312.9688"/><!--MD5=[f33202a4358b6dc53d5337ad154687fb]
class Progress--><rect codeLine="39" fill="#FEFECE" filter="url(#f18ju7pdqja7zo)" height="39.9688" id="Progress" style="stroke:#A80036;stroke-width:1.5;" width="60" x="376.5" y="281"/><text fill="#000000" font-family="sans-serif" font-size="12" lengthAdjust="spacing" textLength="54" x="379.5" y="297.1387">Progress</text><line style="stroke:#A80036;stroke-width:1.5;" x1="377.5" x2="435.5" y1="304.9688" y2="304.9688"/><line style="stroke:#A80036;stroke-width:1.5;" x1="377.5" x2="435.5" y1="312.9688" y2="312.9688"/><!--MD5=[6f29f313cd4199edbf91b9ce3a4faa98]
class Form--><rect codeLine="41" fill="#FEFECE" filter="url(#f18ju7pdqja7zo)" height="39.9688" id="Form" style="stroke:#A80036;stroke-width:1.5;" width="37" x="2446" y="281"/><text fill="#000000" font-family="sans-serif" font-size="12" lengthAdjust="spacing" textLength="31" x="2449" y="297.1387">Form</text><line style="stroke:#A80036;stroke-width:1.5;" x1="2447" x2="2482" y1="304.9688" y2="304.9688"/><line style="stroke:#A80036;stroke-width:1.5;" x1="2447" x2="2482" y1="312.9688" y2="312.9688"/><!--MD5=[72136138052d025cffdce3c22fbd185f]
class Product--><rect codeLine="43" fill="#FEFECE" filter="url(#f18ju7pdqja7zo)" height="39.9688" id="Product" style="stroke:#A80036;stroke-width:1.5;" width="51" x="660" y="281"/><text fill="#000000" font-family="sans-serif" font-size="12" lengthAdjust="spacing" textLength="45" x="663" y="297.1387">Product</text><line style="stroke:#A80036;stroke-width:1.5;" x1="661" x2="710" y1="304.9688" y2="304.9688"/><line style="stroke:#A80036;stroke-width:1.5;" x1="661" x2="710" y1="312.9688" y2="312.9688"/><!--MD5=[73145e46247802284b2f7aaef1fa1797]
class Set--><rect codeLine="45" fill="#FEFECE" filter="url(#f18ju7pdqja7zo)" height="39.9688" id="Set" style="stroke:#A80036;stroke-width:1.5;" width="26" x="1189.5" y="281"/><text fill="#000000" font-family="sans-serif" font-size="12" lengthAdjust="spacing" textLength="20" x="1192.5" y="297.1387">Set</text><line style="stroke:#A80036;stroke-width:1.5;" x1="1190.5" x2="1214.5" y1="304.9688" y2="304.9688"/><line style="stroke:#A80036;stroke-width:1.5;" x1="1190.5" x2="1214.5" y1="312.9688" y2="312.9688"/><!--MD5=[23825e2d708b9c684d031edb9cf0ebf1]
class Allergy--><rect codeLine="47" fill="#FEFECE" filter="url(#f18ju7pdqja7zo)" height="39.9688" id="Allergy" style="stroke:#A80036;stroke-width:1.5;" width="48" x="1292.5" y="281"/><text fill="#000000" font-family="sans-serif" font-size="12" lengthAdjust="spacing" textLength="42" x="1295.5" y="297.1387">Allergy</text><line style="stroke:#A80036;stroke-width:1.5;" x1="1293.5" x2="1339.5" y1="304.9688" y2="304.9688"/><line style="stroke:#A80036;stroke-width:1.5;" x1="1293.5" x2="1339.5" y1="312.9688" y2="312.9688"/><!--MD5=[0b4e4b4980470ea387cc45de9bd14b5b]
class Application--><rect codeLine="49" fill="#FEFECE" filter="url(#f18ju7pdqja7zo)" height="52.7734" id="Application" style="stroke:#A80036;stroke-width:1.5;" width="72" x="850.5" y="80.5"/><text fill="#000000" font-family="sans-serif" font-size="12" lengthAdjust="spacing" textLength="66" x="853.5" y="96.6387">Application</text><line style="stroke:#A80036;stroke-width:1.5;" x1="851.5" x2="921.5" y1="104.4688" y2="104.4688"/><line style="stroke:#A80036;stroke-width:1.5;" x1="851.5" x2="921.5" y1="112.4688" y2="112.4688"/><text fill="#000000" font-family="sans-serif" font-size="11" lengthAdjust="spacing" textLength="53" x="856.5" y="126.6792">handles()</text><!--MD5=[30fd7b95ab383a5e7c83ea23d4ea0fbf]
class Information--><rect codeLine="52" fill="#FEFECE" filter="url(#f18ju7pdqja7zo)" height="39.9688" id="Information" style="stroke:#A80036;stroke-width:1.5;" width="73" x="834" y="281"/><text fill="#000000" font-family="sans-serif" font-size="12" lengthAdjust="spacing" textLength="67" x="837" y="297.1387">Information</text><line style="stroke:#A80036;stroke-width:1.5;" x1="835" x2="906" y1="304.9688" y2="304.9688"/><line style="stroke:#A80036;stroke-width:1.5;" x1="835" x2="906" y1="312.9688" y2="312.9688"/><!--MD5=[d8a254520e6f8ebce99cc8c9e39e2f6b]
class VendorProductInformation--><rect codeLine="54" fill="#FEFECE" filter="url(#f18ju7pdqja7zo)" height="39.9688" id="VendorProductInformation" style="stroke:#A80036;stroke-width:1.5;" width="162" x="1375.5" y="281"/><text fill="#000000" font-family="sans-serif" font-size="12" lengthAdjust="spacing" textLength="156" x="1378.5" y="297.1387">VendorProductInformation</text><line style="stroke:#A80036;stroke-width:1.5;" x1="1376.5" x2="1536.5" y1="304.9688" y2="304.9688"/><line style="stroke:#A80036;stroke-width:1.5;" x1="1376.5" x2="1536.5" y1="312.9688" y2="312.9688"/><!--MD5=[60c9ed31c535bee25c55ce21b5b01399]
class Data--><rect codeLine="56" fill="#FEFECE" filter="url(#f18ju7pdqja7zo)" height="39.9688" id="Data" style="stroke:#A80036;stroke-width:1.5;" width="33" x="1578" y="281"/><text fill="#000000" font-family="sans-serif" font-size="12" lengthAdjust="spacing" textLength="27" x="1581" y="297.1387">Data</text><line style="stroke:#A80036;stroke-width:1.5;" x1="1579" x2="1610" y1="304.9688" y2="304.9688"/><line style="stroke:#A80036;stroke-width:1.5;" x1="1579" x2="1610" y1="312.9688" y2="312.9688"/><!--MD5=[f36f52d77a34c0dc7d0bf7ff3a23a1d7]
class PatientDocument--><rect codeLine="61" fill="#FEFECE" filter="url(#f18ju7pdqja7zo)" height="39.9688" id="PatientDocument" style="stroke:#A80036;stroke-width:1.5;" width="106" x="2716.5" y="281"/><text fill="#000000" font-family="sans-serif" font-size="12" lengthAdjust="spacing" textLength="100" x="2719.5" y="297.1387">PatientDocument</text><line style="stroke:#A80036;stroke-width:1.5;" x1="2717.5" x2="2821.5" y1="304.9688" y2="304.9688"/><line style="stroke:#A80036;stroke-width:1.5;" x1="2717.5" x2="2821.5" y1="312.9688" y2="312.9688"/><!--MD5=[ee084734eb3a5ffad99a0de9980f769b]
class Inventory--><rect codeLine="63" fill="#FEFECE" filter="url(#f18ju7pdqja7zo)" height="39.9688" id="Inventory" style="stroke:#A80036;stroke-width:1.5;" width="62" x="1654.5" y="281"/><text fill="#000000" font-family="sans-serif" font-size="12" lengthAdjust="spacing" textLength="56" x="1657.5" y="297.1387">Inventory</text><line style="stroke:#A80036;stroke-width:1.5;" x1="1655.5" x2="1715.5" y1="304.9688" y2="304.9688"/><line style="stroke:#A80036;stroke-width:1.5;" x1="1655.5" x2="1715.5" y1="312.9688" y2="312.9688"/><!--MD5=[758026bbf483d330e3dd6c5cac829487]
class VisitDetail--><rect codeLine="65" fill="#FEFECE" filter="url(#f18ju7pdqja7zo)" height="39.9688" id="VisitDetail" style="stroke:#A80036;stroke-width:1.5;" width="65" x="1752" y="281"/><text fill="#000000" font-family="sans-serif" font-size="12" lengthAdjust="spacing" textLength="59" x="1755" y="297.1387">VisitDetail</text><line style="stroke:#A80036;stroke-width:1.5;" x1="1753" x2="1816" y1="304.9688" y2="304.9688"/><line style="stroke:#A80036;stroke-width:1.5;" x1="1753" x2="1816" y1="312.9688" y2="312.9688"/><!--MD5=[18c72f438e956865fbca060d38b7f364]
class ProductInfo--><rect codeLine="67" fill="#FEFECE" filter="url(#f18ju7pdqja7zo)" height="39.9688" id="ProductInfo" style="stroke:#A80036;stroke-width:1.5;" width="73" x="1852" y="281"/><text fill="#000000" font-family="sans-serif" font-size="12" lengthAdjust="spacing" textLength="67" x="1855" y="297.1387">ProductInfo</text><line style="stroke:#A80036;stroke-width:1.5;" x1="1853" x2="1924" y1="304.9688" y2="304.9688"/><line style="stroke:#A80036;stroke-width:1.5;" x1="1853" x2="1924" y1="312.9688" y2="312.9688"/><!--MD5=[f00dbe8c0302c6aec2cb26b3c659c8fc]
class Report--><rect codeLine="69" fill="#FEFECE" filter="url(#f18ju7pdqja7zo)" height="39.9688" id="Report" style="stroke:#A80036;stroke-width:1.5;" width="46" x="186.5" y="281"/><text fill="#000000" font-family="sans-serif" font-size="12" lengthAdjust="spacing" textLength="40" x="189.5" y="297.1387">Report</text><line style="stroke:#A80036;stroke-width:1.5;" x1="187.5" x2="231.5" y1="304.9688" y2="304.9688"/><line style="stroke:#A80036;stroke-width:1.5;" x1="187.5" x2="231.5" y1="312.9688" y2="312.9688"/><!--MD5=[90b4933ae61673e86d54630b91345478]
class OrderForm--><rect codeLine="71" fill="#FEFECE" filter="url(#f18ju7pdqja7zo)" height="39.9688" id="OrderForm" style="stroke:#A80036;stroke-width:1.5;" width="73" x="268" y="281"/><text fill="#000000" font-family="sans-serif" font-size="12" lengthAdjust="spacing" textLength="67" x="271" y="297.1387">OrderForm</text><line style="stroke:#A80036;stroke-width:1.5;" x1="269" x2="340" y1="304.9688" y2="304.9688"/><line style="stroke:#A80036;stroke-width:1.5;" x1="269" x2="340" y1="312.9688" y2="312.9688"/><!--MD5=[5dfc70b90f2ffcece51ccd086e198c1d]
class PatientRecord--><rect codeLine="73" fill="#FEFECE" filter="url(#f18ju7pdqja7zo)" height="39.9688" id="PatientRecord" style="stroke:#A80036;stroke-width:1.5;" width="88" x="1960.5" y="281"/><text fill="#000000" font-family="sans-serif" font-size="12" lengthAdjust="spacing" textLength="82" x="1963.5" y="297.1387">PatientRecord</text><line style="stroke:#A80036;stroke-width:1.5;" x1="1961.5" x2="2047.5" y1="304.9688" y2="304.9688"/><line style="stroke:#A80036;stroke-width:1.5;" x1="1961.5" x2="2047.5" y1="312.9688" y2="312.9688"/><!--MD5=[335f4d9be48430461c68bf6d6fdba145]
class App--><rect codeLine="78" fill="#FEFECE" filter="url(#f18ju7pdqja7zo)" height="39.9688" id="App" style="stroke:#A80036;stroke-width:1.5;" width="30" x="77.5" y="281"/><text fill="#000000" font-family="sans-serif" font-size="12" lengthAdjust="spacing" textLength="24" x="80.5" y="297.1387">App</text><line style="stroke:#A80036;stroke-width:1.5;" x1="78.5" x2="106.5" y1="304.9688" y2="304.9688"/><line style="stroke:#A80036;stroke-width:1.5;" x1="78.5" x2="106.5" y1="312.9688" y2="312.9688"/><!--MD5=[f5ea1f64bc04260f09f32845b6b2c213]
class Portal--><rect codeLine="83" fill="#FEFECE" filter="url(#f18ju7pdqja7zo)" height="39.9688" id="Portal" style="stroke:#A80036;stroke-width:1.5;" width="39" x="2615" y="281"/><text fill="#000000" font-family="sans-serif" font-size="12" lengthAdjust="spacing" textLength="33" x="2618" y="297.1387">Portal</text><line style="stroke:#A80036;stroke-width:1.5;" x1="2616" x2="2653" y1="304.9688" y2="304.9688"/><line style="stroke:#A80036;stroke-width:1.5;" x1="2616" x2="2653" y1="312.9688" y2="312.9688"/><!--MD5=[9dd4eaa2771a2ff8dbee15cc1e732cab]
class Patient--><rect codeLine="85" fill="#FEFECE" filter="url(#f18ju7pdqja7zo)" height="39.9688" id="Patient" style="stroke:#A80036;stroke-width:1.5;" width="45" x="479" y="281"/><text fill="#000000" font-family="sans-serif" font-size="12" lengthAdjust="spacing" textLength="39" x="482" y="297.1387">Patient</text><line style="stroke:#A80036;stroke-width:1.5;" x1="480" x2="523" y1="304.9688" y2="304.9688"/><line style="stroke:#A80036;stroke-width:1.5;" x1="480" x2="523" y1="312.9688" y2="312.9688"/><!--MD5=[17c90f3db3a6d0dcb3017decb56e93df]
class CSVFile--><rect codeLine="87" fill="#FEFECE" filter="url(#f18ju7pdqja7zo)" height="52.7734" id="CSVFile" style="stroke:#A80036;stroke-width:1.5;" width="51" x="764" y="80.5"/><text fill="#000000" font-family="sans-serif" font-size="12" lengthAdjust="spacing" textLength="45" x="767" y="96.6387">CSVFile</text><line style="stroke:#A80036;stroke-width:1.5;" x1="765" x2="814" y1="104.4688" y2="104.4688"/><line style="stroke:#A80036;stroke-width:1.5;" x1="765" x2="814" y1="112.4688" y2="112.4688"/><text fill="#000000" font-family="sans-serif" font-size="11" lengthAdjust="spacing" textLength="28" x="770" y="126.6792">has()</text><!--MD5=[b34797a66dc35cbf1d65f7e3ca75530e]
class Task--><rect codeLine="90" fill="#FEFECE" filter="url(#f18ju7pdqja7zo)" height="39.9688" id="Task" style="stroke:#A80036;stroke-width:1.5;" width="34" x="2093.5" y="281"/><text fill="#000000" font-family="sans-serif" font-size="12" lengthAdjust="spacing" textLength="28" x="2096.5" y="297.1387">Task</text><line style="stroke:#A80036;stroke-width:1.5;" x1="2094.5" x2="2126.5" y1="304.9688" y2="304.9688"/><line style="stroke:#A80036;stroke-width:1.5;" x1="2094.5" x2="2126.5" y1="312.9688" y2="312.9688"/><!--MD5=[0a3f526810f604578599cbebd4e0cfb5]
class Medication--><rect codeLine="92" fill="#FEFECE" filter="url(#f18ju7pdqja7zo)" height="39.9688" id="Medication" style="stroke:#A80036;stroke-width:1.5;" width="71" x="2183" y="281"/><text fill="#000000" font-family="sans-serif" font-size="12" lengthAdjust="spacing" textLength="65" x="2186" y="297.1387">Medication</text><line style="stroke:#A80036;stroke-width:1.5;" x1="2184" x2="2253" y1="304.9688" y2="304.9688"/><line style="stroke:#A80036;stroke-width:1.5;" x1="2184" x2="2253" y1="312.9688" y2="312.9688"/><!--MD5=[ea81175f604d6a35cf7833ef6a6b10c7]
link Doctor to Report--><path codeLine="94" d="M381.801,147.55 C337.389,186.845 270.858,245.7109 234.844,277.5754 " fill="none" id="Doctor-to-Report" style="stroke:#A80036;stroke-width:1.0;"/><polygon fill="#A80036" points="231.032,280.9488,240.4232,277.9813,234.7769,277.6358,235.1224,271.9895,231.032,280.9488" style="stroke:#A80036;stroke-width:1.0;"/><text fill="#000000" font-family="sans-serif" font-size="13" lengthAdjust="spacing" textLength="30" x="281.5" y="247.0669">view</text><!--MD5=[1cc70569cdf477c184fbbd19daebc77d]
link Doctor to Progress--><path codeLine="95" d="M383.384,172.099 C372.794,191.204 362.941,212.738 357.5,234 C355.627,241.3197 354.609,244.0196 357.5,251 C361.615,260.9339 368.829,269.9039 376.477,277.3723 " fill="none" id="Doctor-to-Progress" style="stroke:#A80036;stroke-width:1.0;"/><polygon fill="#A80036" points="380.254,280.9156,376.4272,271.8406,376.6076,277.4946,370.9536,277.6749,380.254,280.9156" style="stroke:#A80036;stroke-width:1.0;"/><text fill="#000000" font-family="sans-serif" font-size="13" lengthAdjust="spacing" textLength="24" x="358.5" y="247.0669">edit</text><!--MD5=[032cc8df84c5d6e756cbbd69a0e81380]
link Doctor to Product--><path codeLine="96" d="M471.104,150.516 C503.807,180.526 550.072,220.634 594.5,251 C613.892,264.2544 637.247,276.7661 655.44,285.8288 " fill="none" id="Doctor-to-Product" style="stroke:#A80036;stroke-width:1.0;"/><polygon fill="#A80036" points="659.949,288.0569,653.6533,280.483,655.4667,285.8413,650.1084,287.6547,659.949,288.0569" style="stroke:#A80036;stroke-width:1.0;"/><text fill="#000000" font-family="sans-serif" font-size="13" lengthAdjust="spacing" textLength="46" x="595.5" y="247.0669">choose</text><!--MD5=[032cc8df84c5d6e756cbbd69a0e81380]
link Doctor to Product--><path codeLine="104" d="M471.407,125.481 C519.277,145.853 595.112,183.305 646.5,234 C658.651,245.9875 668.416,262.5286 675.135,276.0522 " fill="none" id="Doctor-to-Product-1" style="stroke:#A80036;stroke-width:1.0;"/><polygon fill="#A80036" points="677.472,280.884,677.1548,271.0403,675.2952,276.3827,669.9527,274.5231,677.472,280.884" style="stroke:#A80036;stroke-width:1.0;"/><text fill="#000000" font-family="sans-serif" font-size="13" lengthAdjust="spacing" textLength="78" x="661.5" y="247.0669">recommend</text><!--MD5=[c16a8548e4144a4ddc830ced7640af84]
link User to VendorProductInformation--><path codeLine="97" d="M1774.26,112.063 C1706.61,121.376 1562.92,150.337 1480.5,234 C1469.37,245.2939 1463.36,262.1426 1460.13,275.9892 " fill="none" id="User-to-VendorProductInformation" style="stroke:#A80036;stroke-width:1.0;"/><polygon fill="#A80036" points="1459.07,280.9389,1464.8769,272.984,1460.1237,276.0512,1457.0565,271.2981,1459.07,280.9389" style="stroke:#A80036;stroke-width:1.0;"/><text fill="#000000" font-family="sans-serif" font-size="13" lengthAdjust="spacing" textLength="42" x="1481.5" y="247.0669">import</text><!--MD5=[6228c31002e3ca9da35c89a172d882b3]
link User to Data--><path codeLine="98" d="M1774.26,112.391 C1712.14,121.947 1588.9,150.919 1535.5,234 C1521.61,255.6059 1551,277.1283 1573.08,289.4693 " fill="none" id="User-to-Data" style="stroke:#A80036;stroke-width:1.0;"/><polygon fill="#A80036" points="1577.66,291.9601,1571.66,284.1499,1573.2661,289.5739,1567.8421,291.1801,1577.66,291.9601" style="stroke:#A80036;stroke-width:1.0;"/><text fill="#000000" font-family="sans-serif" font-size="13" lengthAdjust="spacing" textLength="53" x="1536.5" y="247.0669">manage</text><!--MD5=[6228c31002e3ca9da35c89a172d882b3]
link User to Data--><path codeLine="109" d="M1774.41,140.572 C1745.51,165.977 1704.4,202.173 1668.5,234 C1650.48,249.9704 1630.07,268.1886 1615.25,281.4325 " fill="none" id="User-to-Data-1" style="stroke:#A80036;stroke-width:1.0;"/><polygon fill="#A80036" points="1611.23,285.0301,1620.6073,282.0192,1614.9595,281.6998,1615.2789,276.052,1611.23,285.0301" style="stroke:#A80036;stroke-width:1.0;"/><text fill="#000000" font-family="sans-serif" font-size="13" lengthAdjust="spacing" textLength="41" x="1669.5" y="247.0669">attach</text><!--MD5=[87c6ac967d920a3b498b55ff69250d5c]
link Doctor to OrderForm--><path codeLine="99" d="M381.858,161.858 C365.143,183.485 346.766,209.147 332.5,234 C324.842,247.3417 318.052,263.1846 313.077,276.0038 " fill="none" id="Doctor-to-OrderForm" style="stroke:#A80036;stroke-width:1.0;"/><polygon fill="#A80036" points="311.194,280.936,318.1411,273.9548,312.9775,276.2649,310.6673,271.1012,311.194,280.936" style="stroke:#A80036;stroke-width:1.0;"/><text fill="#000000" font-family="sans-serif" font-size="13" lengthAdjust="spacing" textLength="14" x="333.5" y="247.0669">fill</text><!--MD5=[8e4327cb97de8c6fcf5b8414e845a3bd]
link User to Form--><path codeLine="100" d="M1848.66,118.668 C1913.12,137.032 2049.93,175.398 2166.5,204 C2226.61,218.75 2243.4,215.59 2302.5,234 C2353.14,249.7761 2410.09,274.7464 2441.16,289.0222 " fill="none" id="User-to-Form" style="stroke:#A80036;stroke-width:1.0;"/><polygon fill="#A80036" points="2445.93,291.2186,2439.4407,283.8099,2441.3919,289.1196,2436.0823,291.0708,2445.93,291.2186" style="stroke:#A80036;stroke-width:1.0;"/><text fill="#000000" font-family="sans-serif" font-size="13" lengthAdjust="spacing" textLength="40" x="2349.5" y="247.0669">delete</text><!--MD5=[8e4327cb97de8c6fcf5b8414e845a3bd]
link User to Form--><path codeLine="102" d="M1848.67,119.845 C1912.87,139.895 2048.93,180.614 2166.5,204 C2268.47,224.2836 2305.2,188.123 2398.5,234 C2418.44,243.8038 2435.95,262.0382 2447.92,276.8603 " fill="none" id="User-to-Form-1" style="stroke:#A80036;stroke-width:1.0;"/><polygon fill="#A80036" points="2451.14,280.9406,2448.7039,271.3978,2448.0423,277.0158,2442.4242,276.3542,2451.14,280.9406" style="stroke:#A80036;stroke-width:1.0;"/><text fill="#000000" font-family="sans-serif" font-size="13" lengthAdjust="spacing" textLength="62" x="2423.5" y="247.0669">download</text><!--MD5=[8e4327cb97de8c6fcf5b8414e845a3bd]
link User to Form--><path codeLine="125" d="M1848.58,120.315 C1912.65,141.069 2048.52,182.816 2166.5,204 C2202.52,210.468 2469.83,206.969 2494.5,234 C2505.73,246.3004 2497.33,263.5165 2486.6,277.2813 " fill="none" id="User-to-Form-2" style="stroke:#A80036;stroke-width:1.0;"/><polygon fill="#A80036" points="2483.22,281.433,2492.0098,276.9901,2486.3817,277.5595,2485.8122,271.9314,2483.22,281.433" style="stroke:#A80036;stroke-width:1.0;"/><text fill="#000000" font-family="sans-serif" font-size="13" lengthAdjust="spacing" textLength="24" x="2501.5" y="247.0669">add</text><!--MD5=[7e3d42a85d9a262d8d54950a2f129287]
link User to Task--><path codeLine="101" d="M1848.55,113.782 C1909.43,125.294 2030.28,156.954 2094.5,234 C2104.16,245.593 2108.16,262.0943 2109.75,275.6967 " fill="none" id="User-to-Task" style="stroke:#A80036;stroke-width:1.0;"/><polygon fill="#A80036" points="2110.26,280.9421,2113.3706,271.5974,2109.7763,275.9655,2105.4081,272.3713,2110.26,280.9421" style="stroke:#A80036;stroke-width:1.0;"/><text fill="#000000" font-family="sans-serif" font-size="13" lengthAdjust="spacing" textLength="58" x="2105.5" y="247.0669">generate</text><!--MD5=[7e3d42a85d9a262d8d54950a2f129287]
link User to Task--><path codeLine="126" d="M1848.76,131.929 C1911.98,172.522 2038.29,253.6312 2088.85,286.096 " fill="none" id="User-to-Task-1" style="stroke:#A80036;stroke-width:1.0;"/><polygon fill="#A80036" points="2093.21,288.9001,2087.7959,280.6728,2089.002,286.1996,2083.4752,287.4057,2093.21,288.9001" style="stroke:#A80036;stroke-width:1.0;"/><text fill="#000000" font-family="sans-serif" font-size="13" lengthAdjust="spacing" textLength="41" x="2031.5" y="247.0669">assign</text><!--MD5=[1c96ed4d67928316e01d2dc431c2a963]
link Doctor to Set--><path codeLine="103" d="M471.19,124.024 C532.489,145.396 646.457,182.975 746.5,204 C852.994,226.3808 884.979,203.717 989.5,234 C1006.495,238.924 1008.91,244.8393 1025.5,251 C1082.01,271.989 1151.59,288.7017 1184.12,296.0067 " fill="none" id="Doctor-to-Set" style="stroke:#A80036;stroke-width:1.0;"/><polygon fill="#A80036" points="1189.38,297.179,1181.4634,291.32,1184.4993,296.0932,1179.7261,299.1291,1189.38,297.179" style="stroke:#A80036;stroke-width:1.0;"/><text fill="#000000" font-family="sans-serif" font-size="13" lengthAdjust="spacing" textLength="46" x="1026.5" y="247.0669">choose</text><!--MD5=[32bebf348452b6b19107e23712561956]
link User to Medication--><path codeLine="105" d="M1848.59,113.201 C1918.27,124.527 2070.82,156.873 2172.5,234 C2187.1,245.0721 2198.81,262.1256 2206.77,276.124 " fill="none" id="User-to-Medication" style="stroke:#A80036;stroke-width:1.0;"/><polygon fill="#A80036" points="2209.32,280.7411,2208.4623,270.9297,2206.8991,276.3663,2201.4625,274.8031,2209.32,280.7411" style="stroke:#A80036;stroke-width:1.0;"/><text fill="#000000" font-family="sans-serif" font-size="13" lengthAdjust="spacing" textLength="24" x="2191.5" y="247.0669">add</text><!--MD5=[94b01ecc66b30bc4c8c423d626a76a7a]
link User to PatientRecord--><path codeLine="106" d="M1848.71,145.02 C1887.97,184.078 1948.61,244.403 1981.46,277.0772 " fill="none" id="User-to-PatientRecord" style="stroke:#A80036;stroke-width:1.0;"/><polygon fill="#A80036" points="1985.32,280.9215,1981.7635,271.7372,1981.7764,277.394,1976.1196,277.407,1985.32,280.9215" style="stroke:#A80036;stroke-width:1.0;"/><text fill="#000000" font-family="sans-serif" font-size="13" lengthAdjust="spacing" textLength="41" x="1954.5" y="247.0669">create</text><!--MD5=[da499284d666767232eead1d63bb2f51]
link User to Set--><path codeLine="107" d="M1774.22,114.92 C1692.37,130.73 1491.47,172.908 1331.5,234 C1290.08,249.8188 1244.55,275.1398 1220.2,289.3809 " fill="none" id="User-to-Set" style="stroke:#A80036;stroke-width:1.0;"/><polygon fill="#A80036" points="1215.62,292.0753,1225.4067,290.9708,1219.9325,289.545,1221.3583,284.0708,1215.62,292.0753" style="stroke:#A80036;stroke-width:1.0;"/><text fill="#000000" font-family="sans-serif" font-size="13" lengthAdjust="spacing" textLength="62" x="1332.5" y="247.0669">download</text><!--MD5=[da499284d666767232eead1d63bb2f51]
link User to Set--><path codeLine="120" d="M1774.47,112.549 C1663.02,126.801 1333.09,173.274 1245.5,234 C1230.56,244.3605 1219.54,261.7642 1212.39,276.0994 " fill="none" id="User-to-Set-1" style="stroke:#A80036;stroke-width:1.0;"/><polygon fill="#A80036" points="1210.12,280.8286,1217.6277,274.4541,1212.2887,276.3234,1210.4194,270.9843,1210.12,280.8286" style="stroke:#A80036;stroke-width:1.0;"/><text fill="#000000" font-family="sans-serif" font-size="13" lengthAdjust="spacing" textLength="40" x="1246.5" y="247.0669">delete</text><!--MD5=[e432dda0b8e0f87774027793e7ab3f0d]
link Doctor to Patient--><path codeLine="108" d="M411.679,172.229 C409.019,198.14 410.466,227.4199 423.5,251 C434.178,270.3181 456.015,283.049 473.875,290.6802 " fill="none" id="Doctor-to-Patient" style="stroke:#A80036;stroke-width:1.0;"/><polygon fill="#A80036" points="478.794,292.6986,471.9867,285.5809,474.1684,290.8001,468.9492,292.9818,478.794,292.6986" style="stroke:#A80036;stroke-width:1.0;"/><text fill="#000000" font-family="sans-serif" font-size="13" lengthAdjust="spacing" textLength="41" x="424.5" y="247.0669">match</text><!--MD5=[e432dda0b8e0f87774027793e7ab3f0d]
link Doctor to Patient--><path codeLine="116" d="M451.578,172.2 C465.471,207.766 481.929,249.8974 492.041,275.7859 " fill="none" id="Doctor-to-Patient-1" style="stroke:#A80036;stroke-width:1.0;"/><polygon fill="#A80036" points="493.977,280.7403,494.428,270.9018,492.1577,276.083,486.9764,273.8127,493.977,280.7403" style="stroke:#A80036;stroke-width:1.0;"/><text fill="#000000" font-family="sans-serif" font-size="13" lengthAdjust="spacing" textLength="46" x="482.5" y="247.0669">choose</text><!--MD5=[5b66dd66451f01e9d7836fb8e284c875]
link Developer to App--><path codeLine="110" d="M53.9798,133.545 C48.7936,162.747 43.5806,211.595 56.5,251 C60.061,261.8614 67.0502,272.301 73.9305,280.7325 " fill="none" id="Developer-to-App" style="stroke:#A80036;stroke-width:1.0;"/><polygon fill="#A80036" points="77.2838,284.7034,74.533,275.2465,74.0578,280.8834,68.4209,280.4082,77.2838,284.7034" style="stroke:#A80036;stroke-width:1.0;"/><text fill="#000000" font-family="sans-serif" font-size="13" lengthAdjust="spacing" textLength="46" x="57.5" y="247.0669">protect</text><!--MD5=[c6864205343dcbeb6fe8688325263b3f]
link Application to Information--><path codeLine="111" d="M880.526,133.704 C874.495,162.23 866.237,209.696 867.5,251 C867.746,259.0291 868.217,267.7878 868.715,275.6506 " fill="none" id="Application-to-Information" style="stroke:#A80036;stroke-width:1.0;"/><polygon fill="#A80036" points="869.061,280.931,872.4634,271.6885,868.7338,275.9417,864.4805,272.2121,869.061,280.931" style="stroke:#A80036;stroke-width:1.0;"/><text fill="#000000" font-family="sans-serif" font-size="13" lengthAdjust="spacing" textLength="50" x="868.5" y="247.0669">handles</text><!--MD5=[894af29ed25ee30eadb01b31ae9177db]
link Administrator to PatientDocument--><path codeLine="112" d="M2769.5,133.894 C2769.5,171.162 2769.5,239.4246 2769.5,275.7537 " fill="none" id="Administrator-to-PatientDocument" style="stroke:#A80036;stroke-width:1.0;"/><polygon fill="#A80036" points="2769.5,280.8746,2773.5,271.8746,2769.5,275.8746,2765.5,271.8746,2769.5,280.8746" style="stroke:#A80036;stroke-width:1.0;"/><text fill="#000000" font-family="sans-serif" font-size="13" lengthAdjust="spacing" textLength="31" x="2770.5" y="247.0669">save</text><!--MD5=[3331e5322b59e2927d9473ff20587c76]
link Admin to Portal--><path codeLine="113" d="M2634.5,133.894 C2634.5,171.162 2634.5,239.4246 2634.5,275.7537 " fill="none" id="Admin-to-Portal" style="stroke:#A80036;stroke-width:1.0;"/><polygon fill="#A80036" points="2634.5,280.8746,2638.5,271.8746,2634.5,275.8746,2630.5,271.8746,2634.5,280.8746" style="stroke:#A80036;stroke-width:1.0;"/><text fill="#000000" font-family="sans-serif" font-size="13" lengthAdjust="spacing" textLength="66" x="2635.5" y="247.0669">customize</text><!--MD5=[fdba0dfc4d8076383874a1386fb8e2ca]
link User to Allergy--><path codeLine="114" d="M1774.48,118.05 C1706.25,137.095 1556.62,181.29 1436.5,234 C1404.11,248.2104 1368.85,268.1885 1344.99,282.4347 " fill="none" id="User-to-Allergy" style="stroke:#A80036;stroke-width:1.0;"/><polygon fill="#A80036" points="1340.67,285.0254,1350.4457,283.8272,1344.9581,282.4539,1346.3313,276.9663,1340.67,285.0254" style="stroke:#A80036;stroke-width:1.0;"/><text fill="#000000" font-family="sans-serif" font-size="13" lengthAdjust="spacing" textLength="24" x="1437.5" y="247.0669">add</text><!--MD5=[e4fce08c0700eb7718c603a02b774243]
link User to Inventory--><path codeLine="115" d="M1774.38,164.568 C1749.85,201.947 1718.98,248.9805 1700.83,276.6418 " fill="none" id="User-to-Inventory" style="stroke:#A80036;stroke-width:1.0;"/><polygon fill="#A80036" points="1698.03,280.9105,1706.3174,275.5889,1700.7774,276.733,1699.6334,271.193,1698.03,280.9105" style="stroke:#A80036;stroke-width:1.0;"/><text fill="#000000" font-family="sans-serif" font-size="13" lengthAdjust="spacing" textLength="53" x="1727.5" y="247.0669">manage</text><!--MD5=[622366146626b0c41a23d98a80b28e06]
link User to VisitDetail--><path codeLine="117" d="M1797.96,204.281 C1794.21,230.9653 1790.46,257.6203 1787.88,275.9997 " fill="none" id="User-to-VisitDetail" style="stroke:#A80036;stroke-width:1.0;"/><polygon fill="#A80036" points="1787.18,280.9574,1792.393,272.6013,1787.8755,276.006,1784.4707,271.4885,1787.18,280.9574" style="stroke:#A80036;stroke-width:1.0;"/><text fill="#000000" font-family="sans-serif" font-size="13" lengthAdjust="spacing" textLength="30" x="1794.5" y="247.0669">view</text><!--MD5=[dd207e33d191d8cd519129103b1899e5]
link Doctor to App--><path codeLine="118" d="M381.802,133.695 C308.296,175.95 164.811,258.4319 112.334,288.5986 " fill="none" id="Doctor-to-App" style="stroke:#A80036;stroke-width:1.0;"/><polygon fill="#A80036" points="107.835,291.1845,117.6312,290.1678,112.17,288.693,113.6448,283.2318,107.835,291.1845" style="stroke:#A80036;stroke-width:1.0;"/><text fill="#000000" font-family="sans-serif" font-size="13" lengthAdjust="spacing" textLength="32" x="202.5" y="247.0669">want</text><!--MD5=[9d661380b54d9bff4ee137bc0bb1b8a2]
link User to Information--><path codeLine="119" d="M1774.18,115.157 C1676.02,134.032 1402.55,186.946 1175.5,234 C1081.26,253.5293 970.951,277.7347 912.248,290.7234 " fill="none" id="User-to-Information" style="stroke:#A80036;stroke-width:1.0;"/><polygon fill="#A80036" points="907.076,291.8683,916.7275,293.8298,911.958,290.7883,914.9995,286.0187,907.076,291.8683" style="stroke:#A80036;stroke-width:1.0;"/><text fill="#000000" font-family="sans-serif" font-size="13" lengthAdjust="spacing" textLength="44" x="1176.5" y="247.0669">access</text><!--MD5=[404a3504e329a04e21de6367a4aeb861]
link User to ProductInfo--><path codeLine="121" d="M1848.53,200.345 C1859.76,228.3305 1871.15,256.7312 1878.88,276.015 " fill="none" id="User-to-ProductInfo" style="stroke:#A80036;stroke-width:1.0;"/><polygon fill="#A80036" points="1880.77,280.7154,1881.1338,270.8733,1878.9095,276.0744,1873.7083,273.8501,1880.77,280.7154" style="stroke:#A80036;stroke-width:1.0;"/><text fill="#000000" font-family="sans-serif" font-size="13" lengthAdjust="spacing" textLength="42" x="1869.5" y="247.0669">export</text><!--MD5=[cd3ea9a7e8e955faddcefde7392fa440]
link CSVFile to Information--><path codeLine="122" d="M794.847,133.513 C801.605,162.898 814.786,212.118 834.5,251 C839.011,259.8972 845.097,268.9027 850.981,276.7243 " fill="none" id="CSVFile-to-Information" style="stroke:#A80036;stroke-width:1.0;"/><polygon fill="#A80036" points="854.218,280.9395,851.911,271.3647,851.1735,276.9732,845.565,276.2358,854.218,280.9395" style="stroke:#A80036;stroke-width:1.0;"/><text fill="#000000" font-family="sans-serif" font-size="13" lengthAdjust="spacing" textLength="23" x="835.5" y="247.0669">has</text><!--MD5=[8dd6c8936a0bb422aa022418a08f1ebe]
link User to Invoice--><path codeLine="123" d="M1848.73,114.897 C1923.11,129.622 2094.15,168.26 2224.5,234 C2247.62,245.6587 2271.03,263.3018 2288.03,277.414 " fill="none" id="User-to-Invoice" style="stroke:#A80036;stroke-width:1.0;"/><polygon fill="#A80036" points="2292.21,280.92,2287.8858,272.0712,2288.3795,277.7065,2282.7442,278.2001,2292.21,280.92" style="stroke:#A80036;stroke-width:1.0;"/><text fill="#000000" font-family="sans-serif" font-size="13" lengthAdjust="spacing" textLength="41" x="2252.5" y="247.0669">create</text><!--MD5=[057ee07bb7b2e2aedbcccdbc42ce2201]
link User to Product--><path codeLine="124" d="M1774.18,108.979 C1652.96,113.097 1260.56,133.841 955.5,234 C940.199,239.0238 938.652,245.543 923.5,251 C851.651,276.8765 762.409,290.6584 716.298,296.5116 " fill="none" id="User-to-Product" style="stroke:#A80036;stroke-width:1.0;"/><polygon fill="#A80036" points="711.162,297.1532,720.5885,300.0063,716.1234,296.5332,719.5965,292.0681,711.162,297.1532" style="stroke:#A80036;stroke-width:1.0;"/><text fill="#000000" font-family="sans-serif" font-size="13" lengthAdjust="spacing" textLength="24" x="956.5" y="247.0669">add</text><!--MD5=[174d717c9c06ad86422421dc19e9c1d1]
@startuml
hide circle
class User<actor> {
}
class Office<actor> {
}
class Doctor<actor> {
}
class Admin<actor> {
}
class Administrator<actor> {
}
class Developer<actor> {
}
class User {
	delete()
	view()
	generate()
	attach()
	manage()
	download()
	access()
	export()
	assign()
	add()
	create()
	import()
}
class Invoice {
}
class Doctor {
	match()
	view()
	want()
	recommend()
	choose()
	fill()
	edit()
}
class Progress {
}
class Form {
}
class Product {
}
class Set {
}
class Allergy {
}
class Application {
	handles()
}
class Information {
}
class VendorProductInformation {
}
class Data {
}
class Administrator {
	save()
}
class PatientDocument {
}
class Inventory {
}
class VisitDetail {
}
class ProductInfo {
}
class Report {
}
class OrderForm {
}
class PatientRecord {
}
class Developer {
	protect()
}
class App {
}
class Admin {
	customize()
}
class Portal {
}
class Patient {
}
class CSVFile {
	has()
}
class Task {
}
class Medication {
}
Doctor - -> Report : view
Doctor - -> Progress : edit
Doctor - -> Product : choose
User - -> VendorProductInformation : import
User - -> Data : manage
Doctor - -> OrderForm : fill
User - -> Form : delete
User - -> Task : generate
User - -> Form : download
Doctor - -> Set : choose
Doctor - -> Product : recommend
User - -> Medication : add
User - -> PatientRecord : create
User - -> Set : download
Doctor - -> Patient : match
User - -> Data : attach
Developer - -> App : protect
Application - -> Information : handles
Administrator - -> PatientDocument : save
Admin - -> Portal : customize
User - -> Allergy : add
User - -> Inventory : manage
Doctor - -> Patient : choose
User - -> VisitDetail : view
Doctor - -> App : want
User - -> Information : access
User - -> Set : delete
User - -> ProductInfo : export
CSVFile - -> Information : has
User - -> Invoice : create
User - -> Product : add
User - -> Form : add
User - -> Task : assign
@enduml

PlantUML version 1.2021.6beta6(Unknown compile time)
(GPL source distribution)
Java Runtime: Java(TM) SE Runtime Environment
JVM: Java HotSpot(TM) 64-Bit Server VM
Default Encoding: UTF-8
Language: en
Country: US
--></g></svg>