<?xml version="1.0" encoding="UTF-8" standalone="no"?><svg xmlns="http://www.w3.org/2000/svg" xmlns:xlink="http://www.w3.org/1999/xlink" contentScriptType="application/ecmascript" contentStyleType="text/css" height="346px" preserveAspectRatio="none" style="width:2334px;height:346px;background:#FFFFFF;" version="1.1" viewBox="0 0 2334 346" width="2334px" zoomAndPan="magnify"><defs><filter height="300%" id="f4mumjchf3mg6" width="300%" x="-1" y="-1"><feGaussianBlur result="blurOut" stdDeviation="2.0"/><feColorMatrix in="blurOut" result="blurOut2" type="matrix" values="0 0 0 0 0 0 0 0 0 0 0 0 0 0 0 0 0 0 .4 0"/><feOffset dx="4.0" dy="4.0" in="blurOut2" result="blurOut3"/><feBlend in="SourceGraphic" in2="blurOut3" mode="normal"/></filter></defs><g><!--MD5=[da547346deef918ea16944ba046651ef]
class Administrator--><rect codeLine="10" fill="#FEFECE" filter="url(#f4mumjchf3mg6)" height="116.7969" id="Administrator" style="stroke:#A80036;stroke-width:1.5;" width="121" x="238.5" y="54.5"/><text fill="#000000" font-family="sans-serif" font-size="12" lengthAdjust="spacing" textLength="80" x="241.5" y="70.6387">Administrator</text><rect fill="#FFFFFF" height="15.9688" style="stroke:#000000;stroke-width:1.0;stroke-dasharray:2.0,2.0;" width="33" x="329.5" y="51.5"/><text fill="#000000" font-family="sans-serif" font-size="12" font-style="italic" lengthAdjust="spacing" textLength="31" x="330.5" y="63.6387">actor</text><line style="stroke:#A80036;stroke-width:1.5;" x1="239.5" x2="358.5" y1="78.4688" y2="78.4688"/><line style="stroke:#A80036;stroke-width:1.5;" x1="239.5" x2="358.5" y1="86.4688" y2="86.4688"/><text fill="#000000" font-family="sans-serif" font-size="11" lengthAdjust="spacing" textLength="30" x="244.5" y="100.6792">edit()</text><text fill="#000000" font-family="sans-serif" font-size="11" lengthAdjust="spacing" textLength="45" x="244.5" y="113.4839">cancel()</text><text fill="#000000" font-family="sans-serif" font-size="11" lengthAdjust="spacing" textLength="38" x="244.5" y="126.2886">close()</text><text fill="#000000" font-family="sans-serif" font-size="11" lengthAdjust="spacing" textLength="30" x="244.5" y="139.0933">see()</text><text fill="#000000" font-family="sans-serif" font-size="11" lengthAdjust="spacing" textLength="37" x="244.5" y="151.8979">block()</text><text fill="#000000" font-family="sans-serif" font-size="11" lengthAdjust="spacing" textLength="29" x="244.5" y="164.7026">add()</text><!--MD5=[15c6922f6693225acd2805a9f7199676]
class Maintainer--><rect codeLine="43" fill="#FEFECE" filter="url(#f4mumjchf3mg6)" height="78.3828" id="Maintainer" style="stroke:#A80036;stroke-width:1.5;" width="102" x="621" y="74"/><text fill="#000000" font-family="sans-serif" font-size="12" lengthAdjust="spacing" textLength="61" x="624" y="90.1387">Maintainer</text><rect fill="#FFFFFF" height="15.9688" style="stroke:#000000;stroke-width:1.0;stroke-dasharray:2.0,2.0;" width="33" x="693" y="71"/><text fill="#000000" font-family="sans-serif" font-size="12" font-style="italic" lengthAdjust="spacing" textLength="31" x="694" y="83.1387">actor</text><line style="stroke:#A80036;stroke-width:1.5;" x1="622" x2="722" y1="97.9688" y2="97.9688"/><line style="stroke:#A80036;stroke-width:1.5;" x1="622" x2="722" y1="105.9688" y2="105.9688"/><text fill="#000000" font-family="sans-serif" font-size="11" lengthAdjust="spacing" textLength="58" x="627" y="120.1792">withdraw()</text><text fill="#000000" font-family="sans-serif" font-size="11" lengthAdjust="spacing" textLength="52" x="627" y="132.9839">process()</text><text fill="#000000" font-family="sans-serif" font-size="11" lengthAdjust="spacing" textLength="30" x="627" y="145.7886">see()</text><!--MD5=[d342058c8fb6f80e9d50d673c6908241]
class Developer--><rect codeLine="6" fill="#FEFECE" filter="url(#f4mumjchf3mg6)" height="39.9688" id="Developer" style="stroke:#A80036;stroke-width:1.5;" width="105" x="1666.5" y="93"/><text fill="#000000" font-family="sans-serif" font-size="12" lengthAdjust="spacing" textLength="64" x="1669.5" y="109.1387">Developer</text><rect fill="#FFFFFF" height="15.9688" style="stroke:#000000;stroke-width:1.0;stroke-dasharray:2.0,2.0;" width="33" x="1741.5" y="90"/><text fill="#000000" font-family="sans-serif" font-size="12" font-style="italic" lengthAdjust="spacing" textLength="31" x="1742.5" y="102.1387">actor</text><line style="stroke:#A80036;stroke-width:1.5;" x1="1667.5" x2="1770.5" y1="116.9688" y2="116.9688"/><line style="stroke:#A80036;stroke-width:1.5;" x1="1667.5" x2="1770.5" y1="124.9688" y2="124.9688"/><!--MD5=[3fd616f346a44cd59a91eb10b19e157c]
class User--><rect codeLine="20" fill="#FEFECE" filter="url(#f4mumjchf3mg6)" height="206.4297" id="User" style="stroke:#A80036;stroke-width:1.5;" width="70" x="1430" y="10"/><text fill="#000000" font-family="sans-serif" font-size="12" lengthAdjust="spacing" textLength="29" x="1433" y="26.1387">User</text><rect fill="#FFFFFF" height="15.9688" style="stroke:#000000;stroke-width:1.0;stroke-dasharray:2.0,2.0;" width="33" x="1470" y="7"/><text fill="#000000" font-family="sans-serif" font-size="12" font-style="italic" lengthAdjust="spacing" textLength="31" x="1471" y="19.1387">actor</text><line style="stroke:#A80036;stroke-width:1.5;" x1="1431" x2="1499" y1="33.9688" y2="33.9688"/><line style="stroke:#A80036;stroke-width:1.5;" x1="1431" x2="1499" y1="41.9688" y2="41.9688"/><text fill="#000000" font-family="sans-serif" font-size="11" lengthAdjust="spacing" textLength="44" x="1436" y="56.1792">import()</text><text fill="#000000" font-family="sans-serif" font-size="11" lengthAdjust="spacing" textLength="41" x="1436" y="68.9839">follow()</text><text fill="#000000" font-family="sans-serif" font-size="11" lengthAdjust="spacing" textLength="54" x="1436" y="81.7886">entered()</text><text fill="#000000" font-family="sans-serif" font-size="11" lengthAdjust="spacing" textLength="48" x="1436" y="94.5933">leaved()</text><text fill="#000000" font-family="sans-serif" font-size="11" lengthAdjust="spacing" textLength="45" x="1436" y="107.3979">create()</text><text fill="#000000" font-family="sans-serif" font-size="11" lengthAdjust="spacing" textLength="28" x="1436" y="120.2026">lost()</text><text fill="#000000" font-family="sans-serif" font-size="11" lengthAdjust="spacing" textLength="52" x="1436" y="133.0073">receive()</text><text fill="#000000" font-family="sans-serif" font-size="11" lengthAdjust="spacing" textLength="37" x="1436" y="145.812">have()</text><text fill="#000000" font-family="sans-serif" font-size="11" lengthAdjust="spacing" textLength="37" x="1436" y="158.6167">block()</text><text fill="#000000" font-family="sans-serif" font-size="11" lengthAdjust="spacing" textLength="46" x="1436" y="171.4214">delete()</text><text fill="#000000" font-family="sans-serif" font-size="11" lengthAdjust="spacing" textLength="27" x="1436" y="184.2261">get()</text><text fill="#000000" font-family="sans-serif" font-size="11" lengthAdjust="spacing" textLength="49" x="1436" y="197.0308">contact()</text><text fill="#000000" font-family="sans-serif" font-size="11" lengthAdjust="spacing" textLength="30" x="1436" y="209.8354">see()</text><!--MD5=[f9a29335b499db729be669fd1bd54958]
class Account--><rect codeLine="18" fill="#FEFECE" filter="url(#f4mumjchf3mg6)" height="39.9688" id="Account" style="stroke:#A80036;stroke-width:1.5;" width="54" x="7" y="293"/><text fill="#000000" font-family="sans-serif" font-size="12" lengthAdjust="spacing" textLength="48" x="10" y="309.1387">Account</text><line style="stroke:#A80036;stroke-width:1.5;" x1="8" x2="60" y1="316.9688" y2="316.9688"/><line style="stroke:#A80036;stroke-width:1.5;" x1="8" x2="60" y1="324.9688" y2="324.9688"/><!--MD5=[a5a134137c0b48c86bc5fc4be22ad3e0]
class Entrance--><rect codeLine="35" fill="#FEFECE" filter="url(#f4mumjchf3mg6)" height="39.9688" id="Entrance" style="stroke:#A80036;stroke-width:1.5;" width="58" x="1078" y="293"/><text fill="#000000" font-family="sans-serif" font-size="12" lengthAdjust="spacing" textLength="52" x="1081" y="309.1387">Entrance</text><line style="stroke:#A80036;stroke-width:1.5;" x1="1079" x2="1135" y1="316.9688" y2="316.9688"/><line style="stroke:#A80036;stroke-width:1.5;" x1="1079" x2="1135" y1="324.9688" y2="324.9688"/><!--MD5=[30fd7b95ab383a5e7c83ea23d4ea0fbf]
class Information--><rect codeLine="37" fill="#FEFECE" filter="url(#f4mumjchf3mg6)" height="39.9688" id="Information" style="stroke:#A80036;stroke-width:1.5;" width="73" x="792.5" y="293"/><text fill="#000000" font-family="sans-serif" font-size="12" lengthAdjust="spacing" textLength="67" x="795.5" y="309.1387">Information</text><line style="stroke:#A80036;stroke-width:1.5;" x1="793.5" x2="864.5" y1="316.9688" y2="316.9688"/><line style="stroke:#A80036;stroke-width:1.5;" x1="793.5" x2="864.5" y1="324.9688" y2="324.9688"/><!--MD5=[aca71430e28427c13af59d9f0b03f18c]
class AccountInformation--><rect codeLine="39" fill="#FEFECE" filter="url(#f4mumjchf3mg6)" height="39.9688" id="AccountInformation" style="stroke:#A80036;stroke-width:1.5;" width="121" x="96.5" y="293"/><text fill="#000000" font-family="sans-serif" font-size="12" lengthAdjust="spacing" textLength="115" x="99.5" y="309.1387">AccountInformation</text><line style="stroke:#A80036;stroke-width:1.5;" x1="97.5" x2="216.5" y1="316.9688" y2="316.9688"/><line style="stroke:#A80036;stroke-width:1.5;" x1="97.5" x2="216.5" y1="324.9688" y2="324.9688"/><!--MD5=[88dbfe8572c16244f15eec58f6037418]
class Info--><rect codeLine="41" fill="#FEFECE" filter="url(#f4mumjchf3mg6)" height="39.9688" id="Info" style="stroke:#A80036;stroke-width:1.5;" width="28" x="1171" y="293"/><text fill="#000000" font-family="sans-serif" font-size="12" lengthAdjust="spacing" textLength="22" x="1174" y="309.1387">Info</text><line style="stroke:#A80036;stroke-width:1.5;" x1="1172" x2="1198" y1="316.9688" y2="316.9688"/><line style="stroke:#A80036;stroke-width:1.5;" x1="1172" x2="1198" y1="324.9688" y2="324.9688"/><!--MD5=[e4460efd977c3af4b4cb6b09b781f305]
class Analytic--><rect codeLine="48" fill="#FEFECE" filter="url(#f4mumjchf3mg6)" height="39.9688" id="Analytic" style="stroke:#A80036;stroke-width:1.5;" width="52" x="646" y="293"/><text fill="#000000" font-family="sans-serif" font-size="12" lengthAdjust="spacing" textLength="46" x="649" y="309.1387">Analytic</text><line style="stroke:#A80036;stroke-width:1.5;" x1="647" x2="697" y1="316.9688" y2="316.9688"/><line style="stroke:#A80036;stroke-width:1.5;" x1="647" x2="697" y1="324.9688" y2="324.9688"/><!--MD5=[bea5b0d46523efab5ea1c1d339f396f0]
class Message--><rect codeLine="50" fill="#FEFECE" filter="url(#f4mumjchf3mg6)" height="39.9688" id="Message" style="stroke:#A80036;stroke-width:1.5;" width="61" x="947.5" y="293"/><text fill="#000000" font-family="sans-serif" font-size="12" lengthAdjust="spacing" textLength="55" x="950.5" y="309.1387">Message</text><line style="stroke:#A80036;stroke-width:1.5;" x1="948.5" x2="1007.5" y1="316.9688" y2="316.9688"/><line style="stroke:#A80036;stroke-width:1.5;" x1="948.5" x2="1007.5" y1="324.9688" y2="324.9688"/><!--MD5=[ac13618b1a974308c1f12eb6c57723dc]
class Event--><rect codeLine="52" fill="#FEFECE" filter="url(#f4mumjchf3mg6)" height="39.9688" id="Event" style="stroke:#A80036;stroke-width:1.5;" width="39" x="264.5" y="293"/><text fill="#000000" font-family="sans-serif" font-size="12" lengthAdjust="spacing" textLength="33" x="267.5" y="309.1387">Event</text><line style="stroke:#A80036;stroke-width:1.5;" x1="265.5" x2="302.5" y1="316.9688" y2="316.9688"/><line style="stroke:#A80036;stroke-width:1.5;" x1="265.5" x2="302.5" y1="324.9688" y2="324.9688"/><!--MD5=[fc7123defb831ecdd44b2d9bcef6cceb]
class Question--><rect codeLine="54" fill="#FEFECE" filter="url(#f4mumjchf3mg6)" height="39.9688" id="Question" style="stroke:#A80036;stroke-width:1.5;" width="60" x="1237" y="293"/><text fill="#000000" font-family="sans-serif" font-size="12" lengthAdjust="spacing" textLength="54" x="1240" y="309.1387">Question</text><line style="stroke:#A80036;stroke-width:1.5;" x1="1238" x2="1296" y1="316.9688" y2="316.9688"/><line style="stroke:#A80036;stroke-width:1.5;" x1="1238" x2="1296" y1="324.9688" y2="324.9688"/><!--MD5=[b76c921dec148580e221480ea486da2a]
class Friend--><rect codeLine="56" fill="#FEFECE" filter="url(#f4mumjchf3mg6)" height="39.9688" id="Friend" style="stroke:#A80036;stroke-width:1.5;" width="44" x="1332" y="293"/><text fill="#000000" font-family="sans-serif" font-size="12" lengthAdjust="spacing" textLength="38" x="1335" y="309.1387">Friend</text><line style="stroke:#A80036;stroke-width:1.5;" x1="1333" x2="1375" y1="316.9688" y2="316.9688"/><line style="stroke:#A80036;stroke-width:1.5;" x1="1333" x2="1375" y1="324.9688" y2="324.9688"/><!--MD5=[b07065dfc0d0e09965ec10bfc328bb3e]
class Option--><rect codeLine="58" fill="#FEFECE" filter="url(#f4mumjchf3mg6)" height="39.9688" id="Option" style="stroke:#A80036;stroke-width:1.5;" width="46" x="1597" y="293"/><text fill="#000000" font-family="sans-serif" font-size="12" lengthAdjust="spacing" textLength="40" x="1600" y="309.1387">Option</text><line style="stroke:#A80036;stroke-width:1.5;" x1="1598" x2="1642" y1="316.9688" y2="316.9688"/><line style="stroke:#A80036;stroke-width:1.5;" x1="1598" x2="1642" y1="324.9688" y2="324.9688"/><!--MD5=[3136c82974d04597cbdda55447e25a1d]
class Venue--><rect codeLine="60" fill="#FEFECE" filter="url(#f4mumjchf3mg6)" height="39.9688" id="Venue" style="stroke:#A80036;stroke-width:1.5;" width="44" x="1453" y="293"/><text fill="#000000" font-family="sans-serif" font-size="12" lengthAdjust="spacing" textLength="38" x="1456" y="309.1387">Venue</text><line style="stroke:#A80036;stroke-width:1.5;" x1="1454" x2="1496" y1="316.9688" y2="316.9688"/><line style="stroke:#A80036;stroke-width:1.5;" x1="1454" x2="1496" y1="324.9688" y2="324.9688"/><!--MD5=[9445d644bbe92584b3fa45e77778917b]
class Policy--><rect codeLine="62" fill="#FEFECE" filter="url(#f4mumjchf3mg6)" height="39.9688" id="Policy" style="stroke:#A80036;stroke-width:1.5;" width="40" x="1678" y="293"/><text fill="#000000" font-family="sans-serif" font-size="12" lengthAdjust="spacing" textLength="34" x="1681" y="309.1387">Policy</text><line style="stroke:#A80036;stroke-width:1.5;" x1="1679" x2="1717" y1="316.9688" y2="316.9688"/><line style="stroke:#A80036;stroke-width:1.5;" x1="1679" x2="1717" y1="324.9688" y2="324.9688"/><!--MD5=[901a10995e74f8499be24535fbd917d6]
class LocationInformation--><rect codeLine="64" fill="#FEFECE" filter="url(#f4mumjchf3mg6)" height="39.9688" id="LocationInformation" style="stroke:#A80036;stroke-width:1.5;" width="123" x="1753.5" y="293"/><text fill="#000000" font-family="sans-serif" font-size="12" lengthAdjust="spacing" textLength="117" x="1756.5" y="309.1387">LocationInformation</text><line style="stroke:#A80036;stroke-width:1.5;" x1="1754.5" x2="1875.5" y1="316.9688" y2="316.9688"/><line style="stroke:#A80036;stroke-width:1.5;" x1="1754.5" x2="1875.5" y1="324.9688" y2="324.9688"/><!--MD5=[fc92a9f5bb5fae84dd7fa4034e6b4444]
class Route--><rect codeLine="66" fill="#FEFECE" filter="url(#f4mumjchf3mg6)" height="39.9688" id="Route" style="stroke:#A80036;stroke-width:1.5;" width="40" x="1912" y="293"/><text fill="#000000" font-family="sans-serif" font-size="12" lengthAdjust="spacing" textLength="34" x="1915" y="309.1387">Route</text><line style="stroke:#A80036;stroke-width:1.5;" x1="1913" x2="1951" y1="316.9688" y2="316.9688"/><line style="stroke:#A80036;stroke-width:1.5;" x1="1913" x2="1951" y1="324.9688" y2="324.9688"/><!--MD5=[83d663719cacb629c6960fa896b4e935]
class Profession--><rect codeLine="68" fill="#FEFECE" filter="url(#f4mumjchf3mg6)" height="39.9688" id="Profession" style="stroke:#A80036;stroke-width:1.5;" width="69" x="1987.5" y="293"/><text fill="#000000" font-family="sans-serif" font-size="12" lengthAdjust="spacing" textLength="63" x="1990.5" y="309.1387">Profession</text><line style="stroke:#A80036;stroke-width:1.5;" x1="1988.5" x2="2055.5" y1="316.9688" y2="316.9688"/><line style="stroke:#A80036;stroke-width:1.5;" x1="1988.5" x2="2055.5" y1="324.9688" y2="324.9688"/><!--MD5=[873670755c6433d3512a8b316aa6820d]
class UserAccount--><rect codeLine="70" fill="#FEFECE" filter="url(#f4mumjchf3mg6)" height="39.9688" id="UserAccount" style="stroke:#A80036;stroke-width:1.5;" width="83" x="2091.5" y="293"/><text fill="#000000" font-family="sans-serif" font-size="12" lengthAdjust="spacing" textLength="77" x="2094.5" y="309.1387">UserAccount</text><line style="stroke:#A80036;stroke-width:1.5;" x1="2092.5" x2="2173.5" y1="316.9688" y2="316.9688"/><line style="stroke:#A80036;stroke-width:1.5;" x1="2092.5" x2="2173.5" y1="324.9688" y2="324.9688"/><!--MD5=[6016c9c5425d34ae3d7a539916a91923]
class Recommendation--><rect codeLine="72" fill="#FEFECE" filter="url(#f4mumjchf3mg6)" height="39.9688" id="Recommendation" style="stroke:#A80036;stroke-width:1.5;" width="110" x="2210" y="293"/><text fill="#000000" font-family="sans-serif" font-size="12" lengthAdjust="spacing" textLength="104" x="2213" y="309.1387">Recommendation</text><line style="stroke:#A80036;stroke-width:1.5;" x1="2211" x2="2319" y1="316.9688" y2="316.9688"/><line style="stroke:#A80036;stroke-width:1.5;" x1="2211" x2="2319" y1="324.9688" y2="324.9688"/><!--MD5=[028fba31e0312914fa4880b63f0540b8]
class Detail--><rect codeLine="74" fill="#FEFECE" filter="url(#f4mumjchf3mg6)" height="39.9688" id="Detail" style="stroke:#A80036;stroke-width:1.5;" width="40" x="345" y="293"/><text fill="#000000" font-family="sans-serif" font-size="12" lengthAdjust="spacing" textLength="34" x="348" y="309.1387">Detail</text><line style="stroke:#A80036;stroke-width:1.5;" x1="346" x2="384" y1="316.9688" y2="316.9688"/><line style="stroke:#A80036;stroke-width:1.5;" x1="346" x2="384" y1="324.9688" y2="324.9688"/><!--MD5=[9d661380b54d9bff4ee137bc0bb1b8a2]
link User to Information--><path codeLine="76" d="M1429.59,115.667 C1306.92,122.252 903.443,150.924 826,246 C816.645,257.4848 817.492,274.1779 820.628,287.9019 " fill="none" id="User-to-Information" style="stroke:#A80036;stroke-width:1.0;"/><polygon fill="#A80036" points="821.873,292.8086,823.5378,283.1015,820.6439,287.962,815.7833,285.0681,821.873,292.8086" style="stroke:#A80036;stroke-width:1.0;"/><text fill="#000000" font-family="sans-serif" font-size="13" lengthAdjust="spacing" textLength="23" x="827" y="259.0669">see</text><!--MD5=[9d661380b54d9bff4ee137bc0bb1b8a2]
link User to Information--><path codeLine="86" d="M1429.7,117.493 C1340.14,127.395 1098.29,160.667 917,246 C893.585,257.0217 870.3,274.8691 853.569,289.2272 " fill="none" id="User-to-Information-1" style="stroke:#A80036;stroke-width:1.0;"/><polygon fill="#A80036" points="849.461,292.7961,858.8788,289.9143,853.2359,289.5174,853.6328,283.8745,849.461,292.7961" style="stroke:#A80036;stroke-width:1.0;"/><text fill="#000000" font-family="sans-serif" font-size="13" lengthAdjust="spacing" textLength="42" x="918" y="259.0669">import</text><!--MD5=[89a729879333f4a514a72f7623177c63]
link User to Question--><path codeLine="77" d="M1429.83,145.02 C1400.7,171.165 1358.61,209.97 1324,246 C1310.79,259.7533 1296.78,275.952 1285.95,288.8595 " fill="none" id="User-to-Question" style="stroke:#A80036;stroke-width:1.0;"/><polygon fill="#A80036" points="1282.7,292.7533,1291.5366,288.4042,1285.9027,288.9137,1285.3932,283.2798,1282.7,292.7533" style="stroke:#A80036;stroke-width:1.0;"/><text fill="#000000" font-family="sans-serif" font-size="13" lengthAdjust="spacing" textLength="23" x="1325" y="259.0669">see</text><!--MD5=[993a1ed30139d6bc9fd462e29443e622]
link User to User--><path codeLine="78" d="M1500.3,100.336 C1518.55,98.388 1535,102.609 1535,113 C1535,122.417 1521.49,126.766 1505.37,126.049 " fill="none" id="User-to-User" style="stroke:#A80036;stroke-width:1.0;"/><polygon fill="#A80036" points="1500.3,125.664,1508.9647,130.3463,1505.2851,126.0497,1509.5817,122.3701,1500.3,125.664" style="stroke:#A80036;stroke-width:1.0;"/><text fill="#000000" font-family="sans-serif" font-size="13" lengthAdjust="spacing" textLength="48" x="1541" y="117.5669">contact</text><!--MD5=[993a1ed30139d6bc9fd462e29443e622]
link User to User--><path codeLine="90" d="M1500.08,93.312 C1541.56,80.188 1595,86.75 1595,113 C1595,138.225 1545.66,145.27 1504.99,134.135 " fill="none" id="User-to-User-1" style="stroke:#A80036;stroke-width:1.0;"/><polygon fill="#A80036" points="1500.08,132.688,1507.581,139.0704,1504.8758,134.1023,1509.8439,131.3971,1500.08,132.688" style="stroke:#A80036;stroke-width:1.0;"/><text fill="#000000" font-family="sans-serif" font-size="13" lengthAdjust="spacing" textLength="23" x="1601" y="117.5669">see</text><!--MD5=[e8a44440e7d883fedaa906df2c0e3d75]
link User to Message--><path codeLine="79" d="M1429.78,118.007 C1327.05,130.489 1031.47,172.309 975,246 C965.991,257.7577 966.834,274.4483 969.883,288.1029 " fill="none" id="User-to-Message" style="stroke:#A80036;stroke-width:1.0;"/><polygon fill="#A80036" points="971.092,292.9814,972.8104,283.2836,969.8897,288.1281,965.0452,285.2073,971.092,292.9814" style="stroke:#A80036;stroke-width:1.0;"/><text fill="#000000" font-family="sans-serif" font-size="13" lengthAdjust="spacing" textLength="23" x="976" y="259.0669">lost</text><!--MD5=[e8a44440e7d883fedaa906df2c0e3d75]
link User to Message--><path codeLine="89" d="M1429.87,127.558 C1369.01,151.132 1240.08,201.427 1132,246 C1091.16,262.8425 1044.58,282.9303 1013.44,296.4849 " fill="none" id="User-to-Message-1" style="stroke:#A80036;stroke-width:1.0;"/><polygon fill="#A80036" points="1008.58,298.6027,1018.4286,298.6699,1013.1628,296.6032,1015.2295,291.3374,1008.58,298.6027" style="stroke:#A80036;stroke-width:1.0;"/><text fill="#000000" font-family="sans-serif" font-size="13" lengthAdjust="spacing" textLength="33" x="1133" y="259.0669">block</text><!--MD5=[7b23ff81b49c0ffb5f57c748cafd84f8]
link Administrator to AccountInformation--><path codeLine="80" d="M238.199,169.398 C216.771,191.512 194.049,218.292 178,246 C170.498,258.9518 165.327,274.9124 161.993,287.8937 " fill="none" id="Administrator-to-AccountInformation" style="stroke:#A80036;stroke-width:1.0;"/><polygon fill="#A80036" points="160.761,292.8918,166.7983,285.1104,161.9574,288.037,159.0307,283.1961,160.761,292.8918" style="stroke:#A80036;stroke-width:1.0;"/><text fill="#000000" font-family="sans-serif" font-size="13" lengthAdjust="spacing" textLength="23" x="179" y="259.0669">see</text><!--MD5=[41ec17af6c1ae71329bd73e68ba63001]
link User to Friend--><path codeLine="81" d="M1429.77,147.443 C1406.06,172.237 1376.4,208.168 1361,246 C1355.68,259.074 1353.85,274.7483 1353.38,287.5407 " fill="none" id="User-to-Friend" style="stroke:#A80036;stroke-width:1.0;"/><polygon fill="#A80036" points="1353.26,292.8307,1357.4649,283.9246,1353.3744,287.832,1349.467,283.7415,1353.26,292.8307" style="stroke:#A80036;stroke-width:1.0;"/><text fill="#000000" font-family="sans-serif" font-size="13" lengthAdjust="spacing" textLength="40" x="1362" y="259.0669">delete</text><!--MD5=[ca103b65d9182c1c85a77129b58a4ad6]
link User to Route--><path codeLine="82" d="M1500.11,136.61 C1536.28,159.137 1594.86,193.523 1649,216 C1693.43,234.4456 1707.06,231.724 1753,246 C1816.08,265.6027 1832.97,267.7213 1894,293 C1898.3,294.7827 1902.8,296.8422 1907.12,298.9334 " fill="none" id="User-to-Route" style="stroke:#A80036;stroke-width:1.0;"/><polygon fill="#A80036" points="1911.74,301.2034,1905.4205,293.6493,1907.2507,299.0019,1901.8981,300.8322,1911.74,301.2034" style="stroke:#A80036;stroke-width:1.0;"/><text fill="#000000" font-family="sans-serif" font-size="13" lengthAdjust="spacing" textLength="23" x="1809" y="259.0669">see</text><!--MD5=[7a8a7114679f060501ffd2780b9242b8]
link User to Info--><path codeLine="83" d="M1429.72,132.888 C1386.37,156.775 1311.4,200.328 1253,246 C1234.64,260.3589 1215.77,279.0396 1202.59,292.8604 " fill="none" id="User-to-Info" style="stroke:#A80036;stroke-width:1.0;"/><polygon fill="#A80036" points="1199.02,296.6221,1208.1142,292.8412,1202.4594,292.993,1202.3076,287.3382,1199.02,296.6221" style="stroke:#A80036;stroke-width:1.0;"/><text fill="#000000" font-family="sans-serif" font-size="13" lengthAdjust="spacing" textLength="47" x="1254" y="259.0669">receive</text><!--MD5=[0f120cf87151f7b1c32a560e874f16be]
link User to Venue--><path codeLine="84" d="M1429.95,163.807 C1413.73,193.324 1401.02,231.078 1416,263 C1422.75,277.3847 1436.03,289.0067 1448.28,297.3156 " fill="none" id="User-to-Venue" style="stroke:#A80036;stroke-width:1.0;"/><polygon fill="#A80036" points="1452.74,300.2258,1447.3849,291.9601,1448.5514,297.4953,1443.0161,298.6619,1452.74,300.2258" style="stroke:#A80036;stroke-width:1.0;"/><text fill="#000000" font-family="sans-serif" font-size="13" lengthAdjust="spacing" textLength="50" x="1417" y="259.0669">entered</text><!--MD5=[0f120cf87151f7b1c32a560e874f16be]
link User to Venue--><path codeLine="92" d="M1470.5,216.325 C1471.02,226.352 1471.53,236.3731 1472,246 C1472.68,259.8335 1473.39,275.3008 1473.94,287.783 " fill="none" id="User-to-Venue-1" style="stroke:#A80036;stroke-width:1.0;"/><polygon fill="#A80036" points="1474.17,292.9362,1477.7676,283.7679,1473.9486,287.9411,1469.7755,284.1221,1474.17,292.9362" style="stroke:#A80036;stroke-width:1.0;"/><text fill="#000000" font-family="sans-serif" font-size="13" lengthAdjust="spacing" textLength="23" x="1474" y="259.0669">see</text><!--MD5=[0f120cf87151f7b1c32a560e874f16be]
link User to Venue--><path codeLine="97" d="M1500.06,182.725 C1508.7,208.006 1513.58,236.844 1506,263 C1503.4,271.9738 1498.61,280.8813 1493.56,288.5912 " fill="none" id="User-to-Venue-2" style="stroke:#A80036;stroke-width:1.0;"/><polygon fill="#A80036" points="1490.74,292.744,1499.1014,287.5395,1493.5459,288.6055,1492.4798,283.05,1490.74,292.744" style="stroke:#A80036;stroke-width:1.0;"/><text fill="#000000" font-family="sans-serif" font-size="13" lengthAdjust="spacing" textLength="43" x="1511" y="259.0669">leaved</text><!--MD5=[6504c221f3acd114f9fc88269cb5eccf]
link Administrator to Information--><path codeLine="85" d="M333.325,171.807 C355.91,204.331 388.56,242.4327 428,263 C484.859,292.6506 651.455,284.3916 715,293 C739.022,296.2542 765.76,300.6685 787.301,304.4232 " fill="none" id="Administrator-to-Information" style="stroke:#A80036;stroke-width:1.0;"/><polygon fill="#A80036" points="792.377,305.3126,784.2039,299.8172,787.4523,304.4484,782.8211,307.6968,792.377,305.3126" style="stroke:#A80036;stroke-width:1.0;"/><text fill="#000000" font-family="sans-serif" font-size="13" lengthAdjust="spacing" textLength="23" x="429" y="259.0669">see</text><!--MD5=[6fc93ce37a31dca4e1dfcd246bfad8b2]
link Maintainer to Analytic--><path codeLine="87" d="M670.162,152.285 C668.976,182.385 667.849,225.372 669,263 C669.246,271.0291 669.717,279.7878 670.215,287.6506 " fill="none" id="Maintainer-to-Analytic" style="stroke:#A80036;stroke-width:1.0;"/><polygon fill="#A80036" points="670.561,292.931,673.9634,283.6885,670.2338,287.9417,665.9805,284.2121,670.561,292.931" style="stroke:#A80036;stroke-width:1.0;"/><text fill="#000000" font-family="sans-serif" font-size="13" lengthAdjust="spacing" textLength="23" x="670" y="259.0669">see</text><!--MD5=[61d196a21c8107c2c60a1c496a3b4f23]
link Maintainer to Account--><path codeLine="88" d="M648.452,152.257 C624.153,187.902 582.709,239.0448 532,263 C440.779,306.0931 177.165,269.7229 79,293 C74.637,294.0346 70.1566,295.4523 65.7934,297.0508 " fill="none" id="Maintainer-to-Account" style="stroke:#A80036;stroke-width:1.0;"/><polygon fill="#A80036" points="61.116,298.8467,70.9517,299.3549,65.7837,297.0545,68.0842,291.8865,61.116,298.8467" style="stroke:#A80036;stroke-width:1.0;"/><text fill="#000000" font-family="sans-serif" font-size="13" lengthAdjust="spacing" textLength="59" x="562" y="259.0669">withdraw</text><!--MD5=[689af8ad89214d1124ca5e0696f67ac4]
link Administrator to Event--><path codeLine="91" d="M251.019,171.776 C235.762,193.645 220.827,219.65 213,246 C210.849,253.2428 209.489,256.31 213,263 C222.714,281.5076 242.939,294.3988 259.326,302.2969 " fill="none" id="Administrator-to-Event" style="stroke:#A80036;stroke-width:1.0;"/><polygon fill="#A80036" points="264.273,304.5884,257.7896,297.1745,259.7366,302.4858,254.4254,304.4328,264.273,304.5884" style="stroke:#A80036;stroke-width:1.0;"/><text fill="#000000" font-family="sans-serif" font-size="13" lengthAdjust="spacing" textLength="41" x="214" y="259.0669">cancel</text><!--MD5=[689af8ad89214d1124ca5e0696f67ac4]
link Administrator to Event--><path codeLine="103" d="M294.641,171.536 C291.726,210.017 288.038,258.6998 285.858,287.4802 " fill="none" id="Administrator-to-Event-1" style="stroke:#A80036;stroke-width:1.0;"/><polygon fill="#A80036" points="285.469,292.6155,290.1375,283.9434,285.8467,287.6298,282.1603,283.339,285.469,292.6155" style="stroke:#A80036;stroke-width:1.0;"/><text fill="#000000" font-family="sans-serif" font-size="13" lengthAdjust="spacing" textLength="24" x="290" y="259.0669">add</text><!--MD5=[3107c33381b87d06a76b19f22e82505f]
link Maintainer to Message--><path codeLine="93" d="M677.593,152.08 C684.684,186.321 700.324,235.3569 734,263 C734.253,263.2077 874.171,291.2251 941.986,304.7954 " fill="none" id="Maintainer-to-Message" style="stroke:#A80036;stroke-width:1.0;"/><polygon fill="#A80036" points="947.136,305.8258,939.0946,300.1393,942.233,304.8458,937.5266,307.9842,947.136,305.8258" style="stroke:#A80036;stroke-width:1.0;"/><text fill="#000000" font-family="sans-serif" font-size="13" lengthAdjust="spacing" textLength="50" x="735" y="259.0669">process</text><!--MD5=[ef9d44819f98ec8a18ed7aea4134e0e0]
link User to Profession--><path codeLine="94" d="M1500.24,138.493 C1536.03,162.149 1593.9,197.09 1649,216 C1730.69,244.0351 1757.36,224.448 1841,246 C1900.09,261.2264 1912.68,272.0847 1970,293 C1974.02,294.4681 1978.22,296.0008 1982.41,297.5311 " fill="none" id="User-to-Profession" style="stroke:#A80036;stroke-width:1.0;"/><polygon fill="#A80036" points="1987.32,299.3225,1980.2371,292.4791,1982.6231,297.6081,1977.4941,299.9941,1987.32,299.3225" style="stroke:#A80036;stroke-width:1.0;"/><text fill="#000000" font-family="sans-serif" font-size="13" lengthAdjust="spacing" textLength="23" x="1894" y="259.0669">see</text><!--MD5=[2d3d24ce923cffcb9d23da37a39a64b9]
link User to Option--><path codeLine="95" d="M1500.17,158.929 C1531.8,199.332 1577,257.0654 1601.86,288.8325 " fill="none" id="User-to-Option" style="stroke:#A80036;stroke-width:1.0;"/><polygon fill="#A80036" points="1605.09,292.9504,1602.6818,283.4005,1602.0037,289.0166,1596.3877,288.3385,1605.09,292.9504" style="stroke:#A80036;stroke-width:1.0;"/><text fill="#000000" font-family="sans-serif" font-size="13" lengthAdjust="spacing" textLength="32" x="1580" y="259.0669">have</text><!--MD5=[378c3c1b132e255188f7374dad2a45ac]
link User to UserAccount--><path codeLine="96" d="M1500.05,139.048 C1535.71,163.131 1593.47,198.393 1649,216 C1767.04,253.4252 1804.83,220.466 1926,246 C1993.53,260.2308 2008.26,271.9779 2074,293 C2078.05,294.2958 2082.26,295.6444 2086.48,296.9987 " fill="none" id="User-to-UserAccount" style="stroke:#A80036;stroke-width:1.0;"/><polygon fill="#A80036" points="2091.43,298.5883,2084.0838,292.0283,2086.6694,297.0597,2081.638,299.6453,2091.43,298.5883" style="stroke:#A80036;stroke-width:1.0;"/><text fill="#000000" font-family="sans-serif" font-size="13" lengthAdjust="spacing" textLength="41" x="1989" y="259.0669">create</text><!--MD5=[230d2250dd088f95bd28c8224becb2ce]
link User to Recommendation--><path codeLine="98" d="M1500.27,139.647 C1535.87,164.006 1593.38,199.312 1649,216 C1815.51,265.9569 1867.98,214.799 2039,246 C2097,256.5818 2161.39,276.1926 2206.56,291.298 " fill="none" id="User-to-Recommendation" style="stroke:#A80036;stroke-width:1.0;"/><polygon fill="#A80036" points="2211.42,292.9306,2204.1541,286.2818,2206.6783,291.3442,2201.6159,293.8685,2211.42,292.9306" style="stroke:#A80036;stroke-width:1.0;"/><text fill="#000000" font-family="sans-serif" font-size="13" lengthAdjust="spacing" textLength="47" x="2109" y="259.0669">receive</text><!--MD5=[8de23a9518bd0a3de017f4a170eb144b]
link Administrator to Venue--><path codeLine="99" d="M359.536,168.279 C403.673,206.503 460.54,252.6402 489,263 C583.437,297.3767 1293.35,279.9288 1393,293 C1411.48,295.4248 1431.91,300.1515 1447.75,304.2836 " fill="none" id="Administrator-to-Venue" style="stroke:#A80036;stroke-width:1.0;"/><polygon fill="#A80036" points="1452.94,305.658,1445.2537,299.5,1448.1045,304.386,1443.2185,307.2368,1452.94,305.658" style="stroke:#A80036;stroke-width:1.0;"/><text fill="#000000" font-family="sans-serif" font-size="13" lengthAdjust="spacing" textLength="33" x="490" y="259.0669">close</text><!--MD5=[8ced16826088b50f43016efebd8d5708]
link Administrator to Detail--><path codeLine="100" d="M318.179,171.536 C331.059,210.177 347.368,259.1039 356.946,287.8374 " fill="none" id="Administrator-to-Detail" style="stroke:#A80036;stroke-width:1.0;"/><polygon fill="#A80036" points="358.539,292.6155,359.4873,282.8124,356.9577,287.8721,351.898,285.3425,358.539,292.6155" style="stroke:#A80036;stroke-width:1.0;"/><text fill="#000000" font-family="sans-serif" font-size="13" lengthAdjust="spacing" textLength="24" x="349" y="259.0669">edit</text><!--MD5=[06b011e000f56fac8c11b4b408d55f67]
link Administrator to Account--><path codeLine="101" d="M238.204,159.425 C183.69,200.156 106.0043,258.2006 63.9037,289.6568 " fill="none" id="Administrator-to-Account" style="stroke:#A80036;stroke-width:1.0;"/><polygon fill="#A80036" points="59.6944,292.8019,69.2984,290.6193,63.6998,289.8092,64.51,284.2106,59.6944,292.8019" style="stroke:#A80036;stroke-width:1.0;"/><text fill="#000000" font-family="sans-serif" font-size="13" lengthAdjust="spacing" textLength="33" x="121" y="259.0669">block</text><!--MD5=[65e0f3d14aa70fd8bb1c4c12e8cc356d]
link User to Policy--><path codeLine="102" d="M1500.06,143.557 C1531.71,170.267 1579.54,210.691 1621,246 C1638.64,261.0259 1658.5,278.0482 1673.63,291.0416 " fill="none" id="User-to-Policy" style="stroke:#A80036;stroke-width:1.0;"/><polygon fill="#A80036" points="1677.76,294.5946,1673.5383,285.6964,1673.9668,291.337,1668.3262,291.7656,1677.76,294.5946" style="stroke:#A80036;stroke-width:1.0;"/><text fill="#000000" font-family="sans-serif" font-size="13" lengthAdjust="spacing" textLength="38" x="1642" y="259.0669">follow</text><!--MD5=[0af55da37f172d066ae0e95c24436f04]
link User to Entrance--><path codeLine="104" d="M1429.96,129.499 C1378.55,152.683 1280.21,198.743 1201,246 C1178.74,259.2794 1154.85,276.089 1136.73,289.4204 " fill="none" id="User-to-Entrance" style="stroke:#A80036;stroke-width:1.0;"/><polygon fill="#A80036" points="1132.25,292.7306,1141.8654,290.5989,1136.2712,289.7591,1137.111,284.1649,1132.25,292.7306" style="stroke:#A80036;stroke-width:1.0;"/><text fill="#000000" font-family="sans-serif" font-size="13" lengthAdjust="spacing" textLength="23" x="1202" y="259.0669">see</text><!--MD5=[071ebfd4254af037737a7bc1fc329019]
link User to LocationInformation--><path codeLine="105" d="M1500.16,133.892 C1566.32,171.316 1708.76,251.9 1777.02,290.5141 " fill="none" id="User-to-LocationInformation" style="stroke:#A80036;stroke-width:1.0;"/><polygon fill="#A80036" points="1781.41,292.996,1775.5591,285.0734,1777.0622,290.5269,1771.6086,292.03,1781.41,292.996" style="stroke:#A80036;stroke-width:1.0;"/><text fill="#000000" font-family="sans-serif" font-size="13" lengthAdjust="spacing" textLength="21" x="1723" y="259.0669">get</text><!--MD5=[25d4f108a504b236e46603fa705ed66b]
@startuml
hide circle
class Administrator<actor> {
}
class Maintainer<actor> {
}
class Developer<actor> {
}
class User<actor> {
}
class Administrator {
	edit()
	cancel()
	close()
	see()
	block()
	add()
}
class Account {
}
class User {
	import()
	follow()
	entered()
	leaved()
	create()
	lost()
	receive()
	have()
	block()
	delete()
	get()
	contact()
	see()
}
class Entrance {
}
class Information {
}
class AccountInformation {
}
class Info {
}
class Maintainer {
	withdraw()
	process()
	see()
}
class Analytic {
}
class Message {
}
class Event {
}
class Question {
}
class Friend {
}
class Option {
}
class Venue {
}
class Policy {
}
class LocationInformation {
}
class Route {
}
class Profession {
}
class UserAccount {
}
class Recommendation {
}
class Detail {
}
User - -> Information : see
User - -> Question : see
User - -> User : contact
User - -> Message : lost
Administrator - -> AccountInformation : see
User - -> Friend : delete
User - -> Route : see
User - -> Info : receive
User - -> Venue : entered
Administrator - -> Information : see
User - -> Information : import
Maintainer - -> Analytic : see
Maintainer - -> Account : withdraw
User - -> Message : block
User - -> User : see
Administrator - -> Event : cancel
User - -> Venue : see
Maintainer - -> Message : process
User - -> Profession : see
User - -> Option : have
User - -> UserAccount : create
User - -> Venue : leaved
User - -> Recommendation : receive
Administrator - -> Venue : close
Administrator - -> Detail : edit
Administrator - -> Account : block
User - -> Policy : follow
Administrator - -> Event : add
User - -> Entrance : see
User - -> LocationInformation : get
@enduml

PlantUML version 1.2021.6beta6(Unknown compile time)
(GPL source distribution)
Java Runtime: Java(TM) SE Runtime Environment
JVM: Java HotSpot(TM) 64-Bit Server VM
Default Encoding: UTF-8
Language: en
Country: US
--></g></svg>