<?xml version="1.0" encoding="UTF-8" standalone="no"?><svg xmlns="http://www.w3.org/2000/svg" xmlns:xlink="http://www.w3.org/1999/xlink" contentScriptType="application/ecmascript" contentStyleType="text/css" height="385px" preserveAspectRatio="none" style="width:3395px;height:385px;background:#FFFFFF;" version="1.1" viewBox="0 0 3395 385" width="3395px" zoomAndPan="magnify"><defs><filter height="300%" id="f158dwvnp6em3f" width="300%" x="-1" y="-1"><feGaussianBlur result="blurOut" stdDeviation="2.0"/><feColorMatrix in="blurOut" result="blurOut2" type="matrix" values="0 0 0 0 0 0 0 0 0 0 0 0 0 0 0 0 0 0 .4 0"/><feOffset dx="4.0" dy="4.0" in="blurOut2" result="blurOut3"/><feBlend in="SourceGraphic" in2="blurOut3" mode="normal"/></filter></defs><g><!--MD5=[d342058c8fb6f80e9d50d673c6908241]
class Developer--><rect codeLine="70" fill="#FEFECE" filter="url(#f158dwvnp6em3f)" height="52.7734" id="Developer" style="stroke:#A80036;stroke-width:1.5;" width="105" x="16.5" y="106"/><text fill="#000000" font-family="sans-serif" font-size="12" lengthAdjust="spacing" textLength="64" x="19.5" y="122.1387">Developer</text><rect fill="#FFFFFF" height="15.9688" style="stroke:#000000;stroke-width:1.0;stroke-dasharray:2.0,2.0;" width="33" x="91.5" y="103"/><text fill="#000000" font-family="sans-serif" font-size="12" font-style="italic" lengthAdjust="spacing" textLength="31" x="92.5" y="115.1387">actor</text><line style="stroke:#A80036;stroke-width:1.5;" x1="17.5" x2="120.5" y1="129.9688" y2="129.9688"/><line style="stroke:#A80036;stroke-width:1.5;" x1="17.5" x2="120.5" y1="137.9688" y2="137.9688"/><text fill="#000000" font-family="sans-serif" font-size="11" lengthAdjust="spacing" textLength="22" x="22.5" y="152.1792">do()</text><!--MD5=[db6d18d8099558415abc41d00477ab92]
class Admin--><rect codeLine="8" fill="#FEFECE" filter="url(#f158dwvnp6em3f)" height="244.8438" id="Admin" style="stroke:#A80036;stroke-width:1.5;" width="78" x="1263" y="10"/><text fill="#000000" font-family="sans-serif" font-size="12" lengthAdjust="spacing" textLength="37" x="1266" y="26.1387">Admin</text><rect fill="#FFFFFF" height="15.9688" style="stroke:#000000;stroke-width:1.0;stroke-dasharray:2.0,2.0;" width="33" x="1311" y="7"/><text fill="#000000" font-family="sans-serif" font-size="12" font-style="italic" lengthAdjust="spacing" textLength="31" x="1312" y="19.1387">actor</text><line style="stroke:#A80036;stroke-width:1.5;" x1="1264" x2="1340" y1="33.9688" y2="33.9688"/><line style="stroke:#A80036;stroke-width:1.5;" x1="1264" x2="1340" y1="41.9688" y2="41.9688"/><text fill="#000000" font-family="sans-serif" font-size="11" lengthAdjust="spacing" textLength="55" x="1269" y="56.1792">approve()</text><text fill="#000000" font-family="sans-serif" font-size="11" lengthAdjust="spacing" textLength="26" x="1269" y="68.9839">set()</text><text fill="#000000" font-family="sans-serif" font-size="11" lengthAdjust="spacing" textLength="41" x="1269" y="81.7886">reject()</text><text fill="#000000" font-family="sans-serif" font-size="11" lengthAdjust="spacing" textLength="30" x="1269" y="94.5933">end()</text><text fill="#000000" font-family="sans-serif" font-size="11" lengthAdjust="spacing" textLength="47" x="1269" y="107.3979">modify()</text><text fill="#000000" font-family="sans-serif" font-size="11" lengthAdjust="spacing" textLength="45" x="1269" y="120.2026">create()</text><text fill="#000000" font-family="sans-serif" font-size="11" lengthAdjust="spacing" textLength="36" x="1269" y="133.0073">send()</text><text fill="#000000" font-family="sans-serif" font-size="11" lengthAdjust="spacing" textLength="30" x="1269" y="145.812">edit()</text><text fill="#000000" font-family="sans-serif" font-size="11" lengthAdjust="spacing" textLength="34" x="1269" y="158.6167">filter()</text><text fill="#000000" font-family="sans-serif" font-size="11" lengthAdjust="spacing" textLength="28" x="1269" y="171.4214">pull()</text><text fill="#000000" font-family="sans-serif" font-size="11" lengthAdjust="spacing" textLength="50" x="1269" y="184.2261">change()</text><text fill="#000000" font-family="sans-serif" font-size="11" lengthAdjust="spacing" textLength="35" x="1269" y="197.0308">view()</text><text fill="#000000" font-family="sans-serif" font-size="11" lengthAdjust="spacing" textLength="46" x="1269" y="209.8354">delete()</text><text fill="#000000" font-family="sans-serif" font-size="11" lengthAdjust="spacing" textLength="41" x="1269" y="222.6401">check()</text><text fill="#000000" font-family="sans-serif" font-size="11" lengthAdjust="spacing" textLength="45" x="1269" y="235.4448">export()</text><text fill="#000000" font-family="sans-serif" font-size="11" lengthAdjust="spacing" textLength="52" x="1269" y="248.2495">receive()</text><!--MD5=[1a95835255177050dd8028a7da1b3a6a]
class Contributor--><rect codeLine="30" fill="#FEFECE" filter="url(#f158dwvnp6em3f)" height="193.625" id="Contributor" style="stroke:#A80036;stroke-width:1.5;" width="108" x="2721" y="35.5"/><text fill="#000000" font-family="sans-serif" font-size="12" lengthAdjust="spacing" textLength="67" x="2724" y="51.6387">Contributor</text><rect fill="#FFFFFF" height="15.9688" style="stroke:#000000;stroke-width:1.0;stroke-dasharray:2.0,2.0;" width="33" x="2799" y="32.5"/><text fill="#000000" font-family="sans-serif" font-size="12" font-style="italic" lengthAdjust="spacing" textLength="31" x="2800" y="44.6387">actor</text><line style="stroke:#A80036;stroke-width:1.5;" x1="2722" x2="2828" y1="59.4688" y2="59.4688"/><line style="stroke:#A80036;stroke-width:1.5;" x1="2722" x2="2828" y1="67.4688" y2="67.4688"/><text fill="#000000" font-family="sans-serif" font-size="11" lengthAdjust="spacing" textLength="35" x="2727" y="81.6792">track()</text><text fill="#000000" font-family="sans-serif" font-size="11" lengthAdjust="spacing" textLength="30" x="2727" y="94.4839">end()</text><text fill="#000000" font-family="sans-serif" font-size="11" lengthAdjust="spacing" textLength="47" x="2727" y="107.2886">modify()</text><text fill="#000000" font-family="sans-serif" font-size="11" lengthAdjust="spacing" textLength="45" x="2727" y="120.0933">create()</text><text fill="#000000" font-family="sans-serif" font-size="11" lengthAdjust="spacing" textLength="36" x="2727" y="132.8979">send()</text><text fill="#000000" font-family="sans-serif" font-size="11" lengthAdjust="spacing" textLength="29" x="2727" y="145.7026">add()</text><text fill="#000000" font-family="sans-serif" font-size="11" lengthAdjust="spacing" textLength="34" x="2727" y="158.5073">filter()</text><text fill="#000000" font-family="sans-serif" font-size="11" lengthAdjust="spacing" textLength="40" x="2727" y="171.312">make()</text><text fill="#000000" font-family="sans-serif" font-size="11" lengthAdjust="spacing" textLength="53" x="2727" y="184.1167">remove()</text><text fill="#000000" font-family="sans-serif" font-size="11" lengthAdjust="spacing" textLength="35" x="2727" y="196.9214">view()</text><text fill="#000000" font-family="sans-serif" font-size="11" lengthAdjust="spacing" textLength="52" x="2727" y="209.7261">receive()</text><text fill="#000000" font-family="sans-serif" font-size="11" lengthAdjust="spacing" textLength="35" x="2727" y="222.5308">pitch()</text><!--MD5=[7b57f7066b803747d2119f99dd1555d4]
class Profile--><rect codeLine="26" fill="#FEFECE" filter="url(#f158dwvnp6em3f)" height="39.9688" id="Profile" style="stroke:#A80036;stroke-width:1.5;" width="43" x="1635.5" y="332"/><text fill="#000000" font-family="sans-serif" font-size="12" lengthAdjust="spacing" textLength="37" x="1638.5" y="348.1387">Profile</text><line style="stroke:#A80036;stroke-width:1.5;" x1="1636.5" x2="1677.5" y1="355.9688" y2="355.9688"/><line style="stroke:#A80036;stroke-width:1.5;" x1="1636.5" x2="1677.5" y1="363.9688" y2="363.9688"/><!--MD5=[2e0e23759092e49f27bb25d68b8a1ea1]
class WeekGoal--><rect codeLine="28" fill="#FEFECE" filter="url(#f158dwvnp6em3f)" height="39.9688" id="WeekGoal" style="stroke:#A80036;stroke-width:1.5;" width="68" x="166" y="332"/><text fill="#000000" font-family="sans-serif" font-size="12" lengthAdjust="spacing" textLength="62" x="169" y="348.1387">WeekGoal</text><line style="stroke:#A80036;stroke-width:1.5;" x1="167" x2="233" y1="355.9688" y2="355.9688"/><line style="stroke:#A80036;stroke-width:1.5;" x1="167" x2="233" y1="363.9688" y2="363.9688"/><!--MD5=[028fba31e0312914fa4880b63f0540b8]
class Detail--><rect codeLine="44" fill="#FEFECE" filter="url(#f158dwvnp6em3f)" height="39.9688" id="Detail" style="stroke:#A80036;stroke-width:1.5;" width="40" x="3023" y="332"/><text fill="#000000" font-family="sans-serif" font-size="12" lengthAdjust="spacing" textLength="34" x="3026" y="348.1387">Detail</text><line style="stroke:#A80036;stroke-width:1.5;" x1="3024" x2="3062" y1="355.9688" y2="355.9688"/><line style="stroke:#A80036;stroke-width:1.5;" x1="3024" x2="3062" y1="363.9688" y2="363.9688"/><!--MD5=[0992d3fdc9d3d7c02b735131bb70871d]
class Goal--><rect codeLine="46" fill="#FEFECE" filter="url(#f158dwvnp6em3f)" height="39.9688" id="Goal" style="stroke:#A80036;stroke-width:1.5;" width="33" x="1858.5" y="332"/><text fill="#000000" font-family="sans-serif" font-size="12" lengthAdjust="spacing" textLength="27" x="1861.5" y="348.1387">Goal</text><line style="stroke:#A80036;stroke-width:1.5;" x1="1859.5" x2="1890.5" y1="355.9688" y2="355.9688"/><line style="stroke:#A80036;stroke-width:1.5;" x1="1859.5" x2="1890.5" y1="363.9688" y2="363.9688"/><!--MD5=[9fce796000a30cfb9f92e73bb002c25c]
class Draft--><rect codeLine="48" fill="#FEFECE" filter="url(#f158dwvnp6em3f)" height="39.9688" id="Draft" style="stroke:#A80036;stroke-width:1.5;" width="35" x="3200.5" y="332"/><text fill="#000000" font-family="sans-serif" font-size="12" lengthAdjust="spacing" textLength="29" x="3203.5" y="348.1387">Draft</text><line style="stroke:#A80036;stroke-width:1.5;" x1="3201.5" x2="3234.5" y1="355.9688" y2="355.9688"/><line style="stroke:#A80036;stroke-width:1.5;" x1="3201.5" x2="3234.5" y1="363.9688" y2="363.9688"/><!--MD5=[bea5b0d46523efab5ea1c1d339f396f0]
class Message--><rect codeLine="50" fill="#FEFECE" filter="url(#f158dwvnp6em3f)" height="39.9688" id="Message" style="stroke:#A80036;stroke-width:1.5;" width="61" x="2251.5" y="332"/><text fill="#000000" font-family="sans-serif" font-size="12" lengthAdjust="spacing" textLength="55" x="2254.5" y="348.1387">Message</text><line style="stroke:#A80036;stroke-width:1.5;" x1="2252.5" x2="2311.5" y1="355.9688" y2="355.9688"/><line style="stroke:#A80036;stroke-width:1.5;" x1="2252.5" x2="2311.5" y1="363.9688" y2="363.9688"/><!--MD5=[fda580685dc20fc9bed6305aba5bd682]
class ContributorAccount--><rect codeLine="52" fill="#FEFECE" filter="url(#f158dwvnp6em3f)" height="39.9688" id="ContributorAccount" style="stroke:#A80036;stroke-width:1.5;" width="121" x="269.5" y="332"/><text fill="#000000" font-family="sans-serif" font-size="12" lengthAdjust="spacing" textLength="115" x="272.5" y="348.1387">ContributorAccount</text><line style="stroke:#A80036;stroke-width:1.5;" x1="270.5" x2="389.5" y1="355.9688" y2="355.9688"/><line style="stroke:#A80036;stroke-width:1.5;" x1="270.5" x2="389.5" y1="363.9688" y2="363.9688"/><!--MD5=[857a356b9e77f83de603e0318f36b735]
class type--><rect codeLine="54" fill="#FEFECE" filter="url(#f158dwvnp6em3f)" height="39.9688" id="type" style="stroke:#A80036;stroke-width:1.5;" width="33" x="425.5" y="332"/><text fill="#000000" font-family="sans-serif" font-size="12" lengthAdjust="spacing" textLength="27" x="428.5" y="348.1387">type</text><line style="stroke:#A80036;stroke-width:1.5;" x1="426.5" x2="457.5" y1="355.9688" y2="355.9688"/><line style="stroke:#A80036;stroke-width:1.5;" x1="426.5" x2="457.5" y1="363.9688" y2="363.9688"/><!--MD5=[298debf66e044c356319b85d809bd817]
class DraftIdea--><rect codeLine="56" fill="#FEFECE" filter="url(#f158dwvnp6em3f)" height="39.9688" id="DraftIdea" style="stroke:#A80036;stroke-width:1.5;" width="61" x="3320.5" y="332"/><text fill="#000000" font-family="sans-serif" font-size="12" lengthAdjust="spacing" textLength="55" x="3323.5" y="348.1387">DraftIdea</text><line style="stroke:#A80036;stroke-width:1.5;" x1="3321.5" x2="3380.5" y1="355.9688" y2="355.9688"/><line style="stroke:#A80036;stroke-width:1.5;" x1="3321.5" x2="3380.5" y1="363.9688" y2="363.9688"/><!--MD5=[2584b75d078fa8e8a3dcf4fc22ad14d8]
class PublishingCalendar--><rect codeLine="58" fill="#FEFECE" filter="url(#f158dwvnp6em3f)" height="39.9688" id="PublishingCalendar" style="stroke:#A80036;stroke-width:1.5;" width="118" x="518" y="332"/><text fill="#000000" font-family="sans-serif" font-size="12" lengthAdjust="spacing" textLength="112" x="521" y="348.1387">PublishingCalendar</text><line style="stroke:#A80036;stroke-width:1.5;" x1="519" x2="635" y1="355.9688" y2="355.9688"/><line style="stroke:#A80036;stroke-width:1.5;" x1="519" x2="635" y1="363.9688" y2="363.9688"/><!--MD5=[4f692b562a60bdce7c0e4f26e86bd587]
class Pitch--><rect codeLine="60" fill="#FEFECE" filter="url(#f158dwvnp6em3f)" height="39.9688" id="Pitch" style="stroke:#A80036;stroke-width:1.5;" width="33" x="910.5" y="332"/><text fill="#000000" font-family="sans-serif" font-size="12" lengthAdjust="spacing" textLength="27" x="913.5" y="348.1387">Pitch</text><line style="stroke:#A80036;stroke-width:1.5;" x1="911.5" x2="942.5" y1="355.9688" y2="355.9688"/><line style="stroke:#A80036;stroke-width:1.5;" x1="911.5" x2="942.5" y1="363.9688" y2="363.9688"/><!--MD5=[f3a269e2ce6a7d6cd4d070adb2a53cf0]
class SuccessRate--><rect codeLine="62" fill="#FEFECE" filter="url(#f158dwvnp6em3f)" height="39.9688" id="SuccessRate" style="stroke:#A80036;stroke-width:1.5;" width="83" x="2604.5" y="332"/><text fill="#000000" font-family="sans-serif" font-size="12" lengthAdjust="spacing" textLength="77" x="2607.5" y="348.1387">SuccessRate</text><line style="stroke:#A80036;stroke-width:1.5;" x1="2605.5" x2="2686.5" y1="355.9688" y2="355.9688"/><line style="stroke:#A80036;stroke-width:1.5;" x1="2605.5" x2="2686.5" y1="363.9688" y2="363.9688"/><!--MD5=[3c3e9f00051ae1eb1eeb1a251da19bc6]
class Idea--><rect codeLine="64" fill="#FEFECE" filter="url(#f158dwvnp6em3f)" height="39.9688" id="Idea" style="stroke:#A80036;stroke-width:1.5;" width="32" x="2723" y="332"/><text fill="#000000" font-family="sans-serif" font-size="12" lengthAdjust="spacing" textLength="26" x="2726" y="348.1387">Idea</text><line style="stroke:#A80036;stroke-width:1.5;" x1="2724" x2="2754" y1="355.9688" y2="355.9688"/><line style="stroke:#A80036;stroke-width:1.5;" x1="2724" x2="2754" y1="363.9688" y2="363.9688"/><!--MD5=[f9a29335b499db729be669fd1bd54958]
class Account--><rect codeLine="66" fill="#FEFECE" filter="url(#f158dwvnp6em3f)" height="39.9688" id="Account" style="stroke:#A80036;stroke-width:1.5;" width="54" x="1504" y="332"/><text fill="#000000" font-family="sans-serif" font-size="12" lengthAdjust="spacing" textLength="48" x="1507" y="348.1387">Account</text><line style="stroke:#A80036;stroke-width:1.5;" x1="1505" x2="1557" y1="355.9688" y2="355.9688"/><line style="stroke:#A80036;stroke-width:1.5;" x1="1505" x2="1557" y1="363.9688" y2="363.9688"/><!--MD5=[371364a6d7b486039f21f31616b5ee45]
class Change--><rect codeLine="68" fill="#FEFECE" filter="url(#f158dwvnp6em3f)" height="39.9688" id="Change" style="stroke:#A80036;stroke-width:1.5;" width="51" x="2790.5" y="332"/><text fill="#000000" font-family="sans-serif" font-size="12" lengthAdjust="spacing" textLength="45" x="2793.5" y="348.1387">Change</text><line style="stroke:#A80036;stroke-width:1.5;" x1="2791.5" x2="2840.5" y1="355.9688" y2="355.9688"/><line style="stroke:#A80036;stroke-width:1.5;" x1="2791.5" x2="2840.5" y1="363.9688" y2="363.9688"/><!--MD5=[a70cfb9e029e13b83ab68f9661f05d99]
class KnowledgeTransfer--><rect codeLine="73" fill="#FEFECE" filter="url(#f158dwvnp6em3f)" height="39.9688" id="KnowledgeTransfer" style="stroke:#A80036;stroke-width:1.5;" width="124" x="7" y="332"/><text fill="#000000" font-family="sans-serif" font-size="12" lengthAdjust="spacing" textLength="118" x="10" y="348.1387">KnowledgeTransfer</text><line style="stroke:#A80036;stroke-width:1.5;" x1="8" x2="130" y1="355.9688" y2="355.9688"/><line style="stroke:#A80036;stroke-width:1.5;" x1="8" x2="130" y1="363.9688" y2="363.9688"/><!--MD5=[b50bd99f9a0545bff7937f11eea90dc3]
class details--><rect codeLine="75" fill="#FEFECE" filter="url(#f158dwvnp6em3f)" height="39.9688" id="details" style="stroke:#A80036;stroke-width:1.5;" width="46" x="1084" y="332"/><text fill="#000000" font-family="sans-serif" font-size="12" lengthAdjust="spacing" textLength="40" x="1087" y="348.1387">details</text><line style="stroke:#A80036;stroke-width:1.5;" x1="1085" x2="1129" y1="355.9688" y2="355.9688"/><line style="stroke:#A80036;stroke-width:1.5;" x1="1085" x2="1129" y1="363.9688" y2="363.9688"/><!--MD5=[e05bacf3ff4416a0580578814d41bbf6]
class Piece--><rect codeLine="77" fill="#FEFECE" filter="url(#f158dwvnp6em3f)" height="39.9688" id="Piece" style="stroke:#A80036;stroke-width:1.5;" width="38" x="2103" y="332"/><text fill="#000000" font-family="sans-serif" font-size="12" lengthAdjust="spacing" textLength="32" x="2106" y="348.1387">Piece</text><line style="stroke:#A80036;stroke-width:1.5;" x1="2104" x2="2140" y1="355.9688" y2="355.9688"/><line style="stroke:#A80036;stroke-width:1.5;" x1="2104" x2="2140" y1="363.9688" y2="363.9688"/><!--MD5=[76b5e19c9337179d2d7ae334371d68c8]
class Notification--><rect codeLine="79" fill="#FEFECE" filter="url(#f158dwvnp6em3f)" height="39.9688" id="Notification" style="stroke:#A80036;stroke-width:1.5;" width="72" x="1165" y="332"/><text fill="#000000" font-family="sans-serif" font-size="12" lengthAdjust="spacing" textLength="66" x="1168" y="348.1387">Notification</text><line style="stroke:#A80036;stroke-width:1.5;" x1="1166" x2="1236" y1="355.9688" y2="355.9688"/><line style="stroke:#A80036;stroke-width:1.5;" x1="1166" x2="1236" y1="363.9688" y2="363.9688"/><!--MD5=[2ca1536628238a7dc78c5d90808014f9]
class Session--><rect codeLine="81" fill="#FEFECE" filter="url(#f158dwvnp6em3f)" height="39.9688" id="Session" style="stroke:#A80036;stroke-width:1.5;" width="54" x="2474" y="332"/><text fill="#000000" font-family="sans-serif" font-size="12" lengthAdjust="spacing" textLength="48" x="2477" y="348.1387">Session</text><line style="stroke:#A80036;stroke-width:1.5;" x1="2475" x2="2527" y1="355.9688" y2="355.9688"/><line style="stroke:#A80036;stroke-width:1.5;" x1="2475" x2="2527" y1="363.9688" y2="363.9688"/><!--MD5=[f33202a4358b6dc53d5337ad154687fb]
class Progress--><rect codeLine="83" fill="#FEFECE" filter="url(#f158dwvnp6em3f)" height="39.9688" id="Progress" style="stroke:#A80036;stroke-width:1.5;" width="60" x="1272" y="332"/><text fill="#000000" font-family="sans-serif" font-size="12" lengthAdjust="spacing" textLength="54" x="1275" y="348.1387">Progress</text><line style="stroke:#A80036;stroke-width:1.5;" x1="1273" x2="1331" y1="355.9688" y2="355.9688"/><line style="stroke:#A80036;stroke-width:1.5;" x1="1273" x2="1331" y1="363.9688" y2="363.9688"/><!--MD5=[9ddfc9bd1e3a4b04466623ab197feef8]
class Vertical--><rect codeLine="85" fill="#FEFECE" filter="url(#f158dwvnp6em3f)" height="39.9688" id="Vertical" style="stroke:#A80036;stroke-width:1.5;" width="51" x="2936.5" y="332"/><text fill="#000000" font-family="sans-serif" font-size="12" lengthAdjust="spacing" textLength="45" x="2939.5" y="348.1387">Vertical</text><line style="stroke:#A80036;stroke-width:1.5;" x1="2937.5" x2="2986.5" y1="355.9688" y2="355.9688"/><line style="stroke:#A80036;stroke-width:1.5;" x1="2937.5" x2="2986.5" y1="363.9688" y2="363.9688"/><!--MD5=[8f4bee0abf5d549e87c392b0b690279e]
class ProjectProgress--><rect codeLine="87" fill="#FEFECE" filter="url(#f158dwvnp6em3f)" height="39.9688" id="ProjectProgress" style="stroke:#A80036;stroke-width:1.5;" width="101" x="1367.5" y="332"/><text fill="#000000" font-family="sans-serif" font-size="12" lengthAdjust="spacing" textLength="95" x="1370.5" y="348.1387">ProjectProgress</text><line style="stroke:#A80036;stroke-width:1.5;" x1="1368.5" x2="1467.5" y1="355.9688" y2="355.9688"/><line style="stroke:#A80036;stroke-width:1.5;" x1="1368.5" x2="1467.5" y1="363.9688" y2="363.9688"/><!--MD5=[7fa917cb1ebe0fdddc22454d2f97c145]
link Contributor to Detail--><path codeLine="89" d="M2829.11,172.563 C2869.59,202.336 2925.84,244.911 2973,285 C2989.29,298.8442 3006.78,315.3395 3020.21,328.3761 " fill="none" id="Contributor-to-Detail" style="stroke:#A80036;stroke-width:1.0;"/><polygon fill="#A80036" points="3023.88,331.9563,3020.2205,322.8126,3020.297,328.4689,3014.6406,328.5454,3023.88,331.9563" style="stroke:#A80036;stroke-width:1.0;"/><text fill="#000000" font-family="sans-serif" font-size="13" lengthAdjust="spacing" textLength="30" x="2991" y="298.0669">view</text><!--MD5=[7fa917cb1ebe0fdddc22454d2f97c145]
link Contributor to Detail--><path codeLine="107" d="M2829.11,150.613 C2888.12,172.193 2980.71,215.161 3030,285 C3038.5,297.0453 3041.78,313.2606 3042.92,326.604 " fill="none" id="Contributor-to-Detail-1" style="stroke:#A80036;stroke-width:1.0;"/><polygon fill="#A80036" points="3043.27,331.7495,3046.6537,322.5001,3042.9327,326.7609,3038.6719,323.0399,3043.27,331.7495" style="stroke:#A80036;stroke-width:1.0;"/><text fill="#000000" font-family="sans-serif" font-size="13" lengthAdjust="spacing" textLength="24" x="3038" y="298.0669">add</text><!--MD5=[b3aa786b111d62339ab51d85979e92c3]
link Admin to Progress--><path codeLine="90" d="M1298.43,255.454 C1298.39,271.119 1298.54,286.9391 1299,302 C1299.25,310.0291 1299.72,318.7878 1300.21,326.6506 " fill="none" id="Admin-to-Progress" style="stroke:#A80036;stroke-width:1.0;"/><polygon fill="#A80036" points="1300.56,331.931,1303.9619,322.6883,1300.2325,326.9417,1295.9791,323.2123,1300.56,331.931" style="stroke:#A80036;stroke-width:1.0;"/><text fill="#000000" font-family="sans-serif" font-size="13" lengthAdjust="spacing" textLength="30" x="1300" y="298.0669">view</text><!--MD5=[a0ef8329b23cdf62601a8e926f63eb24]
link Admin to Detail--><path codeLine="91" d="M1341.34,136.427 C1567.99,153.41 2702.09,240.089 2851,285 C2866.42,289.6501 2867.95,296.2556 2883,302 C2935.16,321.9169 2952.59,312.7285 3005,332 C3009.37,333.6078 3013.9,335.5786 3018.24,337.6356 " fill="none" id="Admin-to-Detail" style="stroke:#A80036;stroke-width:1.0;"/><polygon fill="#A80036" points="3022.86,339.8883,3016.5158,332.355,3018.3636,337.7015,3013.017,339.5493,3022.86,339.8883" style="stroke:#A80036;stroke-width:1.0;"/><text fill="#000000" font-family="sans-serif" font-size="13" lengthAdjust="spacing" textLength="30" x="2884" y="298.0669">view</text><!--MD5=[148a260e6f53951b18b2c9f1bdb7e564]
link Contributor to DraftIdea--><path codeLine="92" d="M2829.24,146.851 C2917.71,169.563 3097.58,219.68 3241,285 C3268.25,297.4098 3297.21,314.9871 3318.58,328.8821 " fill="none" id="Contributor-to-DraftIdea" style="stroke:#A80036;stroke-width:1.0;"/><polygon fill="#A80036" points="3323.02,331.7881,3317.6667,323.5212,3318.832,329.0567,3313.2964,330.222,3323.02,331.7881" style="stroke:#A80036;stroke-width:1.0;"/><text fill="#000000" font-family="sans-serif" font-size="13" lengthAdjust="spacing" textLength="41" x="3273" y="298.0669">create</text><!--MD5=[1cfc543807bd3d7ff5290a2df4ed7466]
link Admin to type--><path codeLine="93" d="M1262.87,134.648 C1111.49,139.929 566.999,166.97 452,285 C441.412,295.8673 439.038,312.8812 439.246,326.9124 " fill="none" id="Admin-to-type" style="stroke:#A80036;stroke-width:1.0;"/><polygon fill="#A80036" points="439.429,331.9299,443.098,322.79,439.2466,326.9332,435.1033,323.0818,439.429,331.9299" style="stroke:#A80036;stroke-width:1.0;"/><text fill="#000000" font-family="sans-serif" font-size="13" lengthAdjust="spacing" textLength="47" x="453" y="298.0669">change</text><!--MD5=[b1d3298945031f3ae5b9da20d2b92837]
link Admin to Goal--><path codeLine="94" d="M1341.02,139.886 C1427.45,155.187 1639.82,199.207 1797,285 C1818.67,296.8306 1839.84,315.3098 1854.64,329.7091 " fill="none" id="Admin-to-Goal" style="stroke:#A80036;stroke-width:1.0;"/><polygon fill="#A80036" points="1858.26,333.2755,1854.6611,324.1077,1854.7001,329.7645,1849.0434,329.8035,1858.26,333.2755" style="stroke:#A80036;stroke-width:1.0;"/><text fill="#000000" font-family="sans-serif" font-size="13" lengthAdjust="spacing" textLength="37" x="1824" y="298.0669">check</text><!--MD5=[b1d3298945031f3ae5b9da20d2b92837]
link Admin to Goal--><path codeLine="103" d="M1341.27,138.114 C1458.34,152.723 1801.06,201.96 1870,285 C1879.4,296.3177 1880.65,312.8191 1879.55,326.4903 " fill="none" id="Admin-to-Goal-1" style="stroke:#A80036;stroke-width:1.0;"/><polygon fill="#A80036" points="1879,331.7662,1883.9067,323.2266,1879.5156,326.7929,1875.9494,322.4017,1879,331.7662" style="stroke:#A80036;stroke-width:1.0;"/><text fill="#000000" font-family="sans-serif" font-size="13" lengthAdjust="spacing" textLength="20" x="1879" y="298.0669">set</text><!--MD5=[b1d3298945031f3ae5b9da20d2b92837]
link Admin to Goal--><path codeLine="106" d="M1341.38,148.45 C1452.94,190.795 1768.49,310.5721 1853.62,342.8833 " fill="none" id="Admin-to-Goal-2" style="stroke:#A80036;stroke-width:1.0;"/><polygon fill="#A80036" points="1858.43,344.7088,1851.4315,337.7791,1853.7545,342.937,1848.5966,345.26,1858.43,344.7088" style="stroke:#A80036;stroke-width:1.0;"/><text fill="#000000" font-family="sans-serif" font-size="13" lengthAdjust="spacing" textLength="30" x="1738" y="298.0669">view</text><!--MD5=[5f62913b428bf0cae5b542b4600fe12a]
link Contributor to Vertical--><path codeLine="95" d="M2829.29,182.911 C2858.82,211.242 2894.94,248.368 2923,285 C2933.09,298.1737 2942.61,314.1717 2949.71,327.1175 " fill="none" id="Contributor-to-Vertical" style="stroke:#A80036;stroke-width:1.0;"/><polygon fill="#A80036" points="2952.21,331.7381,2951.4412,321.9193,2949.8288,327.3415,2944.4066,325.7291,2952.21,331.7381" style="stroke:#A80036;stroke-width:1.0;"/><text fill="#000000" font-family="sans-serif" font-size="13" lengthAdjust="spacing" textLength="30" x="2934" y="298.0669">view</text><!--MD5=[56b7f8eec7afb483706aab55485eff89]
link Developer to KnowledgeTransfer--><path codeLine="96" d="M69,159.304 C69,201.713 69,285.5559 69,326.8552 " fill="none" id="Developer-to-KnowledgeTransfer" style="stroke:#A80036;stroke-width:1.0;"/><polygon fill="#A80036" points="69,331.9142,73,322.9142,69,326.9142,65,322.9142,69,331.9142" style="stroke:#A80036;stroke-width:1.0;"/><text fill="#000000" font-family="sans-serif" font-size="13" lengthAdjust="spacing" textLength="16" x="70" y="298.0669">do</text><!--MD5=[5b6f021ea17cbd6eaf3321dc2fed496b]
link Contributor to Draft--><path codeLine="97" d="M2829.32,160.17 C2927.02,208.136 3128.45,307.035 3195.64,340.021 " fill="none" id="Contributor-to-Draft" style="stroke:#A80036;stroke-width:1.0;"/><polygon fill="#A80036" points="3200.24,342.2805,3193.9192,334.7275,3195.7504,340.0798,3190.3981,341.9109,3200.24,342.2805" style="stroke:#A80036;stroke-width:1.0;"/><text fill="#000000" font-family="sans-serif" font-size="13" lengthAdjust="spacing" textLength="50" x="3111" y="298.0669">remove</text><!--MD5=[5b6f021ea17cbd6eaf3321dc2fed496b]
link Contributor to Draft--><path codeLine="116" d="M2829.01,143.916 C2909.88,161.637 3064.21,203.888 3170,285 C3184.75,296.3081 3196.99,313.3557 3205.41,327.2923 " fill="none" id="Contributor-to-Draft-1" style="stroke:#A80036;stroke-width:1.0;"/><polygon fill="#A80036" points="3208.12,331.8866,3207.0004,322.1016,3205.5831,327.578,3200.1066,326.1607,3208.12,331.8866" style="stroke:#A80036;stroke-width:1.0;"/><text fill="#000000" font-family="sans-serif" font-size="13" lengthAdjust="spacing" textLength="45" x="3187" y="298.0669">modify</text><!--MD5=[aba296ecb9c74f6c3e095b0ddbcea610]
link Contributor to Piece--><path codeLine="98" d="M2720.77,152.037 C2642.22,179.259 2492.54,232.525 2368,285 C2351.69,291.8703 2348.71,296.1792 2332,302 C2266.53,324.8067 2185.89,340.2583 2146.29,347.0615 " fill="none" id="Contributor-to-Piece" style="stroke:#A80036;stroke-width:1.0;"/><polygon fill="#A80036" points="2141.21,347.9255,2150.7554,350.3514,2146.1385,347.0828,2149.4071,342.4658,2141.21,347.9255" style="stroke:#A80036;stroke-width:1.0;"/><text fill="#000000" font-family="sans-serif" font-size="13" lengthAdjust="spacing" textLength="47" x="2369" y="298.0669">receive</text><!--MD5=[aa8e903c1a20350f9a387a200476411f]
link Admin to details--><path codeLine="99" d="M1262.77,177.253 C1221.89,222.854 1159.41,292.5396 1127.43,328.2181 " fill="none" id="Admin-to-details" style="stroke:#A80036;stroke-width:1.0;"/><polygon fill="#A80036" points="1124.05,331.9799,1133.0408,327.9592,1127.392,328.2609,1127.0903,322.6121,1124.05,331.9799" style="stroke:#A80036;stroke-width:1.0;"/><text fill="#000000" font-family="sans-serif" font-size="13" lengthAdjust="spacing" textLength="30" x="1166" y="298.0669">view</text><!--MD5=[1a6b769c9a1c3a58a9bc3a830210a76c]
link Contributor to Goal--><path codeLine="100" d="M2720.8,142.548 C2609.09,162.011 2345.93,212.078 2134,285 C2116.89,290.8881 2114.16,296.2392 2097,302 C2025.56,325.9885 1937.2,341.4507 1896.89,347.7614 " fill="none" id="Contributor-to-Goal" style="stroke:#A80036;stroke-width:1.0;"/><polygon fill="#A80036" points="1891.76,348.556,1901.2693,351.1198,1896.7002,347.7847,1900.0353,343.2156,1891.76,348.556" style="stroke:#A80036;stroke-width:1.0;"/><text fill="#000000" font-family="sans-serif" font-size="13" lengthAdjust="spacing" textLength="30" x="2135" y="298.0669">view</text><!--MD5=[a7543727c9d34b9ae726947857d7c8eb]
link Admin to PublishingCalendar--><path codeLine="101" d="M1262.92,134.719 C1117.37,140.156 610.173,167.393 513,285 C500.24,300.4428 515.375,316.6072 534.12,329.0738 " fill="none" id="Admin-to-PublishingCalendar" style="stroke:#A80036;stroke-width:1.0;"/><polygon fill="#A80036" points="538.424,331.837,533.0115,323.6087,534.2165,329.1357,528.6895,330.3407,538.424,331.837" style="stroke:#A80036;stroke-width:1.0;"/><text fill="#000000" font-family="sans-serif" font-size="13" lengthAdjust="spacing" textLength="42" x="514" y="298.0669">export</text><!--MD5=[a7543727c9d34b9ae726947857d7c8eb]
link Admin to PublishingCalendar--><path codeLine="111" d="M1262.93,133.095 C1153.2,133.759 836.515,148.183 626,285 C609.951,295.4307 597.268,313.0484 588.83,327.4591 " fill="none" id="Admin-to-PublishingCalendar-1" style="stroke:#A80036;stroke-width:1.0;"/><polygon fill="#A80036" points="586.349,331.8169,594.2781,325.9749,588.8229,327.4718,587.326,322.0166,586.349,331.8169" style="stroke:#A80036;stroke-width:1.0;"/><text fill="#000000" font-family="sans-serif" font-size="13" lengthAdjust="spacing" textLength="53" x="627" y="298.0669">approve</text><!--MD5=[c700e77f4461ddbde5e1a82b49437dd1]
link Admin to ProjectProgress--><path codeLine="102" d="M1341.01,245.718 C1349.68,265.136 1359.71,284.6425 1371,302 C1377.08,311.3413 1385.07,320.4653 1392.74,328.2586 " fill="none" id="Admin-to-ProjectProgress" style="stroke:#A80036;stroke-width:1.0;"/><polygon fill="#A80036" points="1396.47,331.9726,1392.9155,322.7875,1392.9272,328.4444,1387.2703,328.456,1396.47,331.9726" style="stroke:#A80036;stroke-width:1.0;"/><text fill="#000000" font-family="sans-serif" font-size="13" lengthAdjust="spacing" textLength="30" x="1372" y="298.0669">view</text><!--MD5=[8f0957829cd0db065d6827ed58ebfd3b]
link Admin to Message--><path codeLine="104" d="M1341.22,135.431 C1499.74,143.888 2091.84,181.947 2243,285 C2257.72,295.036 2267.71,312.6232 2273.89,327.1201 " fill="none" id="Admin-to-Message" style="stroke:#A80036;stroke-width:1.0;"/><polygon fill="#A80036" points="2275.84,331.9026,2276.1427,322.0584,2273.9507,327.2733,2268.7358,325.0813,2275.84,331.9026" style="stroke:#A80036;stroke-width:1.0;"/><text fill="#000000" font-family="sans-serif" font-size="13" lengthAdjust="spacing" textLength="47" x="2261" y="298.0669">receive</text><!--MD5=[8f0957829cd0db065d6827ed58ebfd3b]
link Admin to Message--><path codeLine="115" d="M1341.36,135.362 C1466.38,142.314 1864.22,172.462 2170,285 C2178.18,288.0091 2217.23,311.3984 2246.95,329.4886 " fill="none" id="Admin-to-Message-1" style="stroke:#A80036;stroke-width:1.0;"/><polygon fill="#A80036" points="2251.26,332.1162,2245.6536,324.0188,2246.9895,329.5156,2241.4927,330.8516,2251.26,332.1162" style="stroke:#A80036;stroke-width:1.0;"/><text fill="#000000" font-family="sans-serif" font-size="13" lengthAdjust="spacing" textLength="31" x="2202" y="298.0669">send</text><!--MD5=[30c2525786172f626f3592c62fb2735e]
link Admin to Piece--><path codeLine="105" d="M1341.18,137.483 C1450.22,149.494 1765.26,190.503 2009,285 C2027,291.977 2070.88,318.7665 2098.36,335.9954 " fill="none" id="Admin-to-Piece" style="stroke:#A80036;stroke-width:1.0;"/><polygon fill="#A80036" points="2102.63,338.6739,2097.1334,330.5016,2098.395,336.0159,2092.8806,337.2776,2102.63,338.6739" style="stroke:#A80036;stroke-width:1.0;"/><text fill="#000000" font-family="sans-serif" font-size="13" lengthAdjust="spacing" textLength="47" x="2041" y="298.0669">receive</text><!--MD5=[f3cd1d620060b7f876c247fb4749a5a6]
link Admin to Pitch--><path codeLine="108" d="M1262.81,140.037 C1159.07,158.217 881.672,212.822 829,285 C806.238,316.1912 869.939,337.1973 905.254,346.132 " fill="none" id="Admin-to-Pitch" style="stroke:#A80036;stroke-width:1.0;"/><polygon fill="#A80036" points="910.245,347.3624,902.4628,341.3261,905.3901,346.1666,900.5496,349.094,910.245,347.3624" style="stroke:#A80036;stroke-width:1.0;"/><text fill="#000000" font-family="sans-serif" font-size="13" lengthAdjust="spacing" textLength="53" x="830" y="298.0669">approve</text><!--MD5=[f3cd1d620060b7f876c247fb4749a5a6]
link Admin to Pitch--><path codeLine="110" d="M1262.85,135.6 C1182.89,142.252 1001.846,169.934 924,285 C915.886,296.9933 916.504,313.208 919.215,326.564 " fill="none" id="Admin-to-Pitch-1" style="stroke:#A80036;stroke-width:1.0;"/><polygon fill="#A80036" points="920.39,331.7151,922.2892,322.0511,919.2785,326.8402,914.4893,323.8295,920.39,331.7151" style="stroke:#A80036;stroke-width:1.0;"/><text fill="#000000" font-family="sans-serif" font-size="13" lengthAdjust="spacing" textLength="22" x="925" y="298.0669">pull</text><!--MD5=[f3cd1d620060b7f876c247fb4749a5a6]
link Admin to Pitch--><path codeLine="112" d="M1262.95,146.897 C1200.9,169.333 1077.64,218.656 988,285 C971.633,297.1132 956.101,314.0274 944.806,327.7001 " fill="none" id="Admin-to-Pitch-2" style="stroke:#A80036;stroke-width:1.0;"/><polygon fill="#A80036" points="941.441,331.8304,950.2274,327.3808,944.5997,327.9545,944.026,322.3268,941.441,331.8304" style="stroke:#A80036;stroke-width:1.0;"/><text fill="#000000" font-family="sans-serif" font-size="13" lengthAdjust="spacing" textLength="36" x="989" y="298.0669">reject</text><!--MD5=[f3cd1d620060b7f876c247fb4749a5a6]
link Admin to Pitch--><path codeLine="113" d="M1262.72,159.747 C1210.56,194.156 1115.1,255.584 1030,302 C1002.479,317.0111 969.607,332.1947 948.527,341.5972 " fill="none" id="Admin-to-Pitch-3" style="stroke:#A80036;stroke-width:1.0;"/><polygon fill="#A80036" points="943.693,343.744,953.5419,343.7457,948.2624,341.7141,950.294,336.4346,943.693,343.744" style="stroke:#A80036;stroke-width:1.0;"/><text fill="#000000" font-family="sans-serif" font-size="13" lengthAdjust="spacing" textLength="30" x="1062" y="298.0669">view</text><!--MD5=[f3cd1d620060b7f876c247fb4749a5a6]
link Admin to Pitch--><path codeLine="118" d="M1262.65,137.096 C1139.22,149.264 763.674,193.348 692,285 C687.346,290.9517 687.234,296.1375 692,302 C718.815,334.9833 852.114,346.5147 905.166,349.8386 " fill="none" id="Admin-to-Pitch-4" style="stroke:#A80036;stroke-width:1.0;"/><polygon fill="#A80036" points="910.34,350.1526,901.5988,345.6148,905.3492,349.8497,901.1142,353.6001,910.34,350.1526" style="stroke:#A80036;stroke-width:1.0;"/><text fill="#000000" font-family="sans-serif" font-size="13" lengthAdjust="spacing" textLength="29" x="693" y="298.0669">filter</text><!--MD5=[f3cd1d620060b7f876c247fb4749a5a6]
link Admin to Pitch--><path codeLine="130" d="M1262.89,139.05 C1153.56,155.447 848.915,207.422 791,285 C759.707,326.9176 859.585,343.5713 905.348,348.891 " fill="none" id="Admin-to-Pitch-5" style="stroke:#A80036;stroke-width:1.0;"/><polygon fill="#A80036" points="910.388,349.4563,901.8898,344.4784,905.4191,348.8992,900.9983,352.4285,910.388,349.4563" style="stroke:#A80036;stroke-width:1.0;"/><text fill="#000000" font-family="sans-serif" font-size="13" lengthAdjust="spacing" textLength="24" x="792" y="298.0669">edit</text><!--MD5=[1cc355681d3f8689df4490fe390d81fc]
link Contributor to Message--><path codeLine="109" d="M2720.87,167.757 C2651.35,211.303 2534.03,283.1049 2487,302 C2429.9,324.939 2359.36,338.8849 2317.67,345.7544 " fill="none" id="Contributor-to-Message" style="stroke:#A80036;stroke-width:1.0;"/><polygon fill="#A80036" points="2312.74,346.5572,2322.2641,349.0655,2317.6756,345.7571,2320.984,341.1686,2312.74,346.5572" style="stroke:#A80036;stroke-width:1.0;"/><text fill="#000000" font-family="sans-serif" font-size="13" lengthAdjust="spacing" textLength="31" x="2518" y="298.0669">send</text><!--MD5=[1db930c970318f86e0cdbe9b881c1d73]
link Contributor to Pitch--><path codeLine="114" d="M2720.99,142.099 C2590.98,163.138 2250.6,220.24 1970,285 C1942.16,291.4254 1936.24,297.6845 1908,302 C1537.84,358.5566 1439.08,299.9363 1066,332 C1024.37,335.578 976.108,342.8936 948.802,347.3303 " fill="none" id="Contributor-to-Pitch" style="stroke:#A80036;stroke-width:1.0;"/><polygon fill="#A80036" points="943.629,348.1772,953.1574,350.6692,948.5632,347.3687,951.8637,342.7745,943.629,348.1772" style="stroke:#A80036;stroke-width:1.0;"/><text fill="#000000" font-family="sans-serif" font-size="13" lengthAdjust="spacing" textLength="29" x="1971" y="298.0669">filter</text><!--MD5=[4c36246b84c7997871d5a29c203fc31a]
link Contributor to Session--><path codeLine="117" d="M2720.87,176.471 C2663.19,222.257 2574.11,292.9619 2529.1,328.6957 " fill="none" id="Contributor-to-Session" style="stroke:#A80036;stroke-width:1.0;"/><polygon fill="#A80036" points="2525.14,331.8339,2534.6738,329.3628,2529.0534,328.7218,2529.6944,323.1014,2525.14,331.8339" style="stroke:#A80036;stroke-width:1.0;"/><text fill="#000000" font-family="sans-serif" font-size="13" lengthAdjust="spacing" textLength="24" x="2582" y="298.0669">end</text><!--MD5=[dcb31ce8b7d053f07dbc84f5afd76820]
link Admin to ContributorAccount--><path codeLine="119" d="M1262.82,136.675 C1109.03,149.64 547.556,201.867 392,285 C373.116,295.092 356.777,313.1263 345.619,327.7957 " fill="none" id="Admin-to-ContributorAccount" style="stroke:#A80036;stroke-width:1.0;"/><polygon fill="#A80036" points="342.612,331.8346,351.1955,327.0052,345.5983,327.8244,344.7792,322.2271,342.612,331.8346" style="stroke:#A80036;stroke-width:1.0;"/><text fill="#000000" font-family="sans-serif" font-size="13" lengthAdjust="spacing" textLength="41" x="393" y="298.0669">create</text><!--MD5=[532453c4828605f0ef747ebb191c419d]
link Contributor to SuccessRate--><path codeLine="120" d="M2720.85,224.794 C2698.65,262.223 2674.77,302.4842 2660.11,327.2154 " fill="none" id="Contributor-to-SuccessRate" style="stroke:#A80036;stroke-width:1.0;"/><polygon fill="#A80036" points="2657.48,331.6483,2665.5118,325.9482,2660.0308,327.3479,2658.6311,321.8669,2657.48,331.6483" style="stroke:#A80036;stroke-width:1.0;"/><text fill="#000000" font-family="sans-serif" font-size="13" lengthAdjust="spacing" textLength="32" x="2685" y="298.0669">track</text><!--MD5=[33ae7c9fddac52a75b546961b7f24f14]
link Admin to Account--><path codeLine="121" d="M1341.23,159.204 C1381.68,186.978 1445.01,234.135 1490,285 C1501.3,297.7784 1511.44,314.0388 1518.81,327.2223 " fill="none" id="Admin-to-Account" style="stroke:#A80036;stroke-width:1.0;"/><polygon fill="#A80036" points="1521.4,331.928,1520.5602,322.115,1518.9871,327.5487,1513.5534,325.9756,1521.4,331.928" style="stroke:#A80036;stroke-width:1.0;"/><text fill="#000000" font-family="sans-serif" font-size="13" lengthAdjust="spacing" textLength="40" x="1505" y="298.0669">delete</text><!--MD5=[33ae7c9fddac52a75b546961b7f24f14]
link Admin to Account--><path codeLine="126" d="M1341.11,192.735 C1366.16,227.552 1401.01,270.728 1439,302 C1457.16,316.9506 1480.6,329.3516 1499.27,337.9377 " fill="none" id="Admin-to-Account-1" style="stroke:#A80036;stroke-width:1.0;"/><polygon fill="#A80036" points="1503.91,340.0376,1497.3732,332.6707,1499.3585,337.9678,1494.0615,339.9531,1503.91,340.0376" style="stroke:#A80036;stroke-width:1.0;"/><text fill="#000000" font-family="sans-serif" font-size="13" lengthAdjust="spacing" textLength="41" x="1440" y="298.0669">create</text><!--MD5=[1951850350eec42ca7f024174bc44de5]
link Admin to Notification--><path codeLine="122" d="M1262.95,217.591 C1244.66,256.979 1224.25,300.9217 1212.03,327.2448 " fill="none" id="Admin-to-Notification" style="stroke:#A80036;stroke-width:1.0;"/><polygon fill="#A80036" points="1209.85,331.9498,1217.2641,325.4667,1211.9528,327.4135,1210.006,322.1022,1209.85,331.9498" style="stroke:#A80036;stroke-width:1.0;"/><text fill="#000000" font-family="sans-serif" font-size="13" lengthAdjust="spacing" textLength="47" x="1232" y="298.0669">receive</text><!--MD5=[60f7881373f043d48cdaa9e331a53cbf]
link Contributor to Idea--><path codeLine="123" d="M2746.35,229.781 C2742.05,247.967 2738.29,266.947 2736,285 C2735.05,292.4957 2735.77,294.448 2736,302 C2736.25,310.0291 2736.72,318.7878 2737.21,326.6506 " fill="none" id="Contributor-to-Idea" style="stroke:#A80036;stroke-width:1.0;"/><polygon fill="#A80036" points="2737.56,331.931,2740.9619,322.6883,2737.2325,326.9417,2732.9791,323.2123,2737.56,331.931" style="stroke:#A80036;stroke-width:1.0;"/><text fill="#000000" font-family="sans-serif" font-size="13" lengthAdjust="spacing" textLength="31" x="2737" y="298.0669">pitch</text><!--MD5=[7ce0c4b758ebd1f3408bd95deedd9c67]
link Admin to Profile--><path codeLine="124" d="M1341.06,156.516 C1390.78,185.915 1479.19,238.556 1554,285 C1580.45,301.4189 1610.38,320.6724 1631.13,334.1322 " fill="none" id="Admin-to-Profile" style="stroke:#A80036;stroke-width:1.0;"/><polygon fill="#A80036" points="1635.41,336.9133,1630.0277,328.6652,1631.2124,334.1966,1625.681,335.3813,1635.41,336.9133" style="stroke:#A80036;stroke-width:1.0;"/><text fill="#000000" font-family="sans-serif" font-size="13" lengthAdjust="spacing" textLength="45" x="1581" y="298.0669">modify</text><!--MD5=[7ce0c4b758ebd1f3408bd95deedd9c67]
link Admin to Profile--><path codeLine="131" d="M1341.16,140.689 C1410.32,155.401 1554.38,195.417 1635,285 C1645.34,296.4923 1650.84,312.9936 1653.76,326.6212 " fill="none" id="Admin-to-Profile-1" style="stroke:#A80036;stroke-width:1.0;"/><polygon fill="#A80036" points="1654.79,331.8778,1656.9834,322.2763,1653.8279,326.9712,1649.1329,323.8157,1654.79,331.8778" style="stroke:#A80036;stroke-width:1.0;"/><text fill="#000000" font-family="sans-serif" font-size="13" lengthAdjust="spacing" textLength="24" x="1647" y="298.0669">edit</text><!--MD5=[dcc4a71d2304c217e63b2dc136fa0c0d]
link Admin to Session--><path codeLine="125" d="M1341.23,135.924 C1515.55,147.129 2220.05,197.136 2421,285 C2443.81,294.9745 2465.32,313.4304 2480.28,328.2948 " fill="none" id="Admin-to-Session" style="stroke:#A80036;stroke-width:1.0;"/><polygon fill="#A80036" points="2483.94,331.9891,2480.4365,322.7845,2480.4168,328.4413,2474.76,328.4216,2483.94,331.9891" style="stroke:#A80036;stroke-width:1.0;"/><text fill="#000000" font-family="sans-serif" font-size="13" lengthAdjust="spacing" textLength="24" x="2449" y="298.0669">end</text><!--MD5=[8f34060901e7eaa755ac2c6dde4ec03d]
link Admin to WeekGoal--><path codeLine="127" d="M1262.6,135.258 C1128.79,142.144 680.663,172.709 331,285 C296.963,295.9308 260.864,314.7194 235.199,329.4613 " fill="none" id="Admin-to-WeekGoal" style="stroke:#A80036;stroke-width:1.0;"/><polygon fill="#A80036" points="230.852,331.9769,240.6452,330.9314,235.1797,329.4726,236.6384,324.0071,230.852,331.9769" style="stroke:#A80036;stroke-width:1.0;"/><text fill="#000000" font-family="sans-serif" font-size="13" lengthAdjust="spacing" textLength="30" x="332" y="298.0669">view</text><!--MD5=[59a435b7188c8a36302247710f1ebe6e]
link Admin to Admin--><path codeLine="128" d="M1341.21,103.161 C1359.73,99.752 1376,109.531 1376,132.5 C1376,153.315 1362.64,163.299 1346.35,162.45 " fill="none" id="Admin-to-Admin" style="stroke:#A80036;stroke-width:1.0;"/><polygon fill="#A80036" points="1341.21,161.839,1349.6793,166.866,1346.1756,162.4249,1350.6167,158.9211,1341.21,161.839" style="stroke:#A80036;stroke-width:1.0;"/><text fill="#000000" font-family="sans-serif" font-size="13" lengthAdjust="spacing" textLength="41" x="1382" y="137.0669">create</text><!--MD5=[a588ca95dedc90a718fd5e494c85f299]
link Contributor to Change--><path codeLine="129" d="M2793.1,229.532 C2799.84,265.291 2806.93,302.911 2811.41,326.6377 " fill="none" id="Contributor-to-Change" style="stroke:#A80036;stroke-width:1.0;"/><polygon fill="#A80036" points="2812.38,331.7759,2814.6437,322.1907,2811.4539,326.8624,2806.7822,323.6725,2812.38,331.7759" style="stroke:#A80036;stroke-width:1.0;"/><text fill="#000000" font-family="sans-serif" font-size="13" lengthAdjust="spacing" textLength="36" x="2807" y="298.0669">make</text><!--MD5=[87771ec0a6ad70fef5218d466135d440]
@startuml
hide circle
class Developer<actor> {
}
class Admin<actor> {
}
class Contributor<actor> {
}
class Admin {
	approve()
	set()
	reject()
	end()
	modify()
	create()
	send()
	edit()
	filter()
	pull()
	change()
	view()
	delete()
	check()
	export()
	receive()
}
class Profile {
}
class WeekGoal {
}
class Contributor {
	track()
	end()
	modify()
	create()
	send()
	add()
	filter()
	make()
	remove()
	view()
	receive()
	pitch()
}
class Detail {
}
class Goal {
}
class Draft {
}
class Message {
}
class ContributorAccount {
}
class type {
}
class DraftIdea {
}
class PublishingCalendar {
}
class Pitch {
}
class SuccessRate {
}
class Idea {
}
class Account {
}
class Change {
}
class Developer {
	do()
}
class KnowledgeTransfer {
}
class details {
}
class Piece {
}
class Notification {
}
class Session {
}
class Progress {
}
class Vertical {
}
class ProjectProgress {
}
Contributor - -> Detail : view
Admin - -> Progress : view
Admin - -> Detail : view
Contributor - -> DraftIdea : create
Admin - -> type : change
Admin - -> Goal : check
Contributor - -> Vertical : view
Developer - -> KnowledgeTransfer : do
Contributor - -> Draft : remove
Contributor - -> Piece : receive
Admin - -> details : view
Contributor - -> Goal : view
Admin - -> PublishingCalendar : export
Admin - -> ProjectProgress : view
Admin - -> Goal : set
Admin - -> Message : receive
Admin - -> Piece : receive
Admin - -> Goal : view
Contributor - -> Detail : add
Admin - -> Pitch : approve
Contributor - -> Message : send
Admin - -> Pitch : pull
Admin - -> PublishingCalendar : approve
Admin - -> Pitch : reject
Admin - -> Pitch : view
Contributor - -> Pitch : filter
Admin - -> Message : send
Contributor - -> Draft : modify
Contributor - -> Session : end
Admin - -> Pitch : filter
Admin - -> ContributorAccount : create
Contributor - -> SuccessRate : track
Admin - -> Account : delete
Admin - -> Notification : receive
Contributor - -> Idea : pitch
Admin - -> Profile : modify
Admin - -> Session : end
Admin - -> Account : create
Admin - -> WeekGoal : view
Admin - -> Admin : create
Contributor - -> Change : make
Admin - -> Pitch : edit
Admin - -> Profile : edit
@enduml

PlantUML version 1.2021.6beta6(Unknown compile time)
(GPL source distribution)
Java Runtime: Java(TM) SE Runtime Environment
JVM: Java HotSpot(TM) 64-Bit Server VM
Default Encoding: UTF-8
Language: en
Country: US
--></g></svg>