<?xml version="1.0" encoding="UTF-8" standalone="no"?><svg xmlns="http://www.w3.org/2000/svg" xmlns:xlink="http://www.w3.org/1999/xlink" contentScriptType="application/ecmascript" contentStyleType="text/css" height="604px" preserveAspectRatio="none" style="width:2375px;height:604px;background:#FFFFFF;" version="1.1" viewBox="0 0 2375 604" width="2375px" zoomAndPan="magnify"><defs><filter height="300%" id="f2i17kp6yedd4" width="300%" x="-1" y="-1"><feGaussianBlur result="blurOut" stdDeviation="2.0"/><feColorMatrix in="blurOut" result="blurOut2" type="matrix" values="0 0 0 0 0 0 0 0 0 0 0 0 0 0 0 0 0 0 .4 0"/><feOffset dx="4.0" dy="4.0" in="blurOut2" result="blurOut3"/><feBlend in="SourceGraphic" in2="blurOut3" mode="normal"/></filter></defs><g><!--MD5=[3fd616f346a44cd59a91eb10b19e157c]
class User--><rect codeLine="20" fill="#FEFECE" filter="url(#f2i17kp6yedd4)" height="296.0625" id="User" style="stroke:#A80036;stroke-width:1.5;" width="70" x="982.642" y="178"/><text fill="#000000" font-family="sans-serif" font-size="12" lengthAdjust="spacing" textLength="29" x="985.642" y="194.1387">User</text><rect fill="#FFFFFF" height="15.9688" style="stroke:#000000;stroke-width:1.0;stroke-dasharray:2.0,2.0;" width="33" x="1022.642" y="175"/><text fill="#000000" font-family="sans-serif" font-size="12" font-style="italic" lengthAdjust="spacing" textLength="31" x="1023.642" y="187.1387">actor</text><line style="stroke:#A80036;stroke-width:1.5;" x1="983.642" x2="1051.642" y1="201.9688" y2="201.9688"/><line style="stroke:#A80036;stroke-width:1.5;" x1="983.642" x2="1051.642" y1="209.9688" y2="209.9688"/><text fill="#000000" font-family="sans-serif" font-size="11" lengthAdjust="spacing" textLength="34" x="988.642" y="224.1792">read()</text><text fill="#000000" font-family="sans-serif" font-size="11" lengthAdjust="spacing" textLength="54" x="988.642" y="236.9839">activate()</text><text fill="#000000" font-family="sans-serif" font-size="11" lengthAdjust="spacing" textLength="29" x="988.642" y="249.7886">add()</text><text fill="#000000" font-family="sans-serif" font-size="11" lengthAdjust="spacing" textLength="35" x="988.642" y="262.5933">track()</text><text fill="#000000" font-family="sans-serif" font-size="11" lengthAdjust="spacing" textLength="45" x="988.642" y="275.3979">create()</text><text fill="#000000" font-family="sans-serif" font-size="11" lengthAdjust="spacing" textLength="37" x="988.642" y="288.2026">have()</text><text fill="#000000" font-family="sans-serif" font-size="11" lengthAdjust="spacing" textLength="29" x="988.642" y="301.0073">find()</text><text fill="#000000" font-family="sans-serif" font-size="11" lengthAdjust="spacing" textLength="41" x="988.642" y="313.812">leave()</text><text fill="#000000" font-family="sans-serif" font-size="11" lengthAdjust="spacing" textLength="31" x="988.642" y="326.6167">rate()</text><text fill="#000000" font-family="sans-serif" font-size="11" lengthAdjust="spacing" textLength="40" x="988.642" y="339.4214">make()</text><text fill="#000000" font-family="sans-serif" font-size="11" lengthAdjust="spacing" textLength="30" x="988.642" y="352.2261">see()</text><text fill="#000000" font-family="sans-serif" font-size="11" lengthAdjust="spacing" textLength="46" x="988.642" y="365.0308">search()</text><text fill="#000000" font-family="sans-serif" font-size="11" lengthAdjust="spacing" textLength="33" x="988.642" y="377.8354">start()</text><text fill="#000000" font-family="sans-serif" font-size="11" lengthAdjust="spacing" textLength="42" x="988.642" y="390.6401">adjust()</text><text fill="#000000" font-family="sans-serif" font-size="11" lengthAdjust="spacing" textLength="52" x="988.642" y="403.4448">receive()</text><text fill="#000000" font-family="sans-serif" font-size="11" lengthAdjust="spacing" textLength="38" x="988.642" y="416.2495">reset()</text><text fill="#000000" font-family="sans-serif" font-size="11" lengthAdjust="spacing" textLength="35" x="988.642" y="429.0542">view()</text><text fill="#000000" font-family="sans-serif" font-size="11" lengthAdjust="spacing" textLength="42" x="988.642" y="441.8589">report()</text><text fill="#000000" font-family="sans-serif" font-size="11" lengthAdjust="spacing" textLength="45" x="988.642" y="454.6636">export()</text><text fill="#000000" font-family="sans-serif" font-size="11" lengthAdjust="spacing" textLength="55" x="988.642" y="467.4683">manage()</text><!--MD5=[da547346deef918ea16944ba046651ef]
class Administrator--><rect codeLine="12" fill="#FEFECE" filter="url(#f2i17kp6yedd4)" height="91.1875" id="Administrator" style="stroke:#A80036;stroke-width:1.5;" width="121" x="710.142" y="10"/><text fill="#000000" font-family="sans-serif" font-size="12" lengthAdjust="spacing" textLength="80" x="713.142" y="26.1387">Administrator</text><rect fill="#FFFFFF" height="15.9688" style="stroke:#000000;stroke-width:1.0;stroke-dasharray:2.0,2.0;" width="33" x="801.142" y="7"/><text fill="#000000" font-family="sans-serif" font-size="12" font-style="italic" lengthAdjust="spacing" textLength="31" x="802.142" y="19.1387">actor</text><line style="stroke:#A80036;stroke-width:1.5;" x1="711.142" x2="830.142" y1="33.9688" y2="33.9688"/><line style="stroke:#A80036;stroke-width:1.5;" x1="711.142" x2="830.142" y1="41.9688" y2="41.9688"/><text fill="#000000" font-family="sans-serif" font-size="11" lengthAdjust="spacing" textLength="32" x="716.142" y="56.1792">post()</text><text fill="#000000" font-family="sans-serif" font-size="11" lengthAdjust="spacing" textLength="41" x="716.142" y="68.9839">verify()</text><text fill="#000000" font-family="sans-serif" font-size="11" lengthAdjust="spacing" textLength="35" x="716.142" y="81.7886">view()</text><text fill="#000000" font-family="sans-serif" font-size="11" lengthAdjust="spacing" textLength="64" x="716.142" y="94.5933">moderate()</text><!--MD5=[428d22d350d9880e10e0ddd45e620f15]
class ServiceProvider--><rect codeLine="74" fill="#FEFECE" filter="url(#f2i17kp6yedd4)" height="39.9688" id="ServiceProvider" style="stroke:#A80036;stroke-width:1.5;" width="137" x="21.1417" y="551"/><text fill="#000000" font-family="sans-serif" font-size="12" lengthAdjust="spacing" textLength="96" x="24.1417" y="567.1387">ServiceProvider</text><rect fill="#FFFFFF" height="15.9688" style="stroke:#000000;stroke-width:1.0;stroke-dasharray:2.0,2.0;" width="33" x="128.1417" y="548"/><text fill="#000000" font-family="sans-serif" font-size="12" font-style="italic" lengthAdjust="spacing" textLength="31" x="129.1417" y="560.1387">actor</text><line style="stroke:#A80036;stroke-width:1.5;" x1="22.1417" x2="157.1417" y1="574.9688" y2="574.9688"/><line style="stroke:#A80036;stroke-width:1.5;" x1="22.1417" x2="157.1417" y1="582.9688" y2="582.9688"/><!--MD5=[db6d18d8099558415abc41d00477ab92]
class Admin--><rect codeLine="50" fill="#FEFECE" filter="url(#f2i17kp6yedd4)" height="52.7734" id="Admin" style="stroke:#A80036;stroke-width:1.5;" width="78" x="984.642" y="29"/><text fill="#000000" font-family="sans-serif" font-size="12" lengthAdjust="spacing" textLength="37" x="987.642" y="45.1387">Admin</text><rect fill="#FFFFFF" height="15.9688" style="stroke:#000000;stroke-width:1.0;stroke-dasharray:2.0,2.0;" width="33" x="1032.642" y="26"/><text fill="#000000" font-family="sans-serif" font-size="12" font-style="italic" lengthAdjust="spacing" textLength="31" x="1033.642" y="38.1387">actor</text><line style="stroke:#A80036;stroke-width:1.5;" x1="985.642" x2="1061.642" y1="52.9688" y2="52.9688"/><line style="stroke:#A80036;stroke-width:1.5;" x1="985.642" x2="1061.642" y1="60.9688" y2="60.9688"/><text fill="#000000" font-family="sans-serif" font-size="11" lengthAdjust="spacing" textLength="53" x="990.642" y="75.1792">remove()</text><!--MD5=[5ad970bb37549d990825e929ff20cfcb]
class SiteAdmin--><rect codeLine="10" fill="#FEFECE" filter="url(#f2i17kp6yedd4)" height="39.9688" id="SiteAdmin" style="stroke:#A80036;stroke-width:1.5;" width="101" x="1098.139" y="35.5"/><text fill="#000000" font-family="sans-serif" font-size="12" lengthAdjust="spacing" textLength="60" x="1101.139" y="51.6387">SiteAdmin</text><rect fill="#FFFFFF" height="15.9688" style="stroke:#000000;stroke-width:1.0;stroke-dasharray:2.0,2.0;" width="33" x="1169.139" y="32.5"/><text fill="#000000" font-family="sans-serif" font-size="12" font-style="italic" lengthAdjust="spacing" textLength="31" x="1170.139" y="44.6387">actor</text><line style="stroke:#A80036;stroke-width:1.5;" x1="1099.139" x2="1198.139" y1="59.4688" y2="59.4688"/><line style="stroke:#A80036;stroke-width:1.5;" x1="1099.139" x2="1198.139" y1="67.4688" y2="67.4688"/><!--MD5=[d89522dc17e4c35c83a603e675ef016b]
class Identity--><rect codeLine="18" fill="#FEFECE" filter="url(#f2i17kp6yedd4)" height="39.9688" id="Identity" style="stroke:#A80036;stroke-width:1.5;" width="50" x="604.642" y="306"/><text fill="#000000" font-family="sans-serif" font-size="12" lengthAdjust="spacing" textLength="44" x="607.642" y="322.1387">Identity</text><line style="stroke:#A80036;stroke-width:1.5;" x1="605.642" x2="653.642" y1="329.9688" y2="329.9688"/><line style="stroke:#A80036;stroke-width:1.5;" x1="605.642" x2="653.642" y1="337.9688" y2="337.9688"/><!--MD5=[eb0e8f8ddfdc21c3fdb48447501fec67]
class Review--><rect codeLine="42" fill="#FEFECE" filter="url(#f2i17kp6yedd4)" height="39.9688" id="Review" style="stroke:#A80036;stroke-width:1.5;" width="49" x="198.142" y="551"/><text fill="#000000" font-family="sans-serif" font-size="12" lengthAdjust="spacing" textLength="43" x="201.142" y="567.1387">Review</text><line style="stroke:#A80036;stroke-width:1.5;" x1="199.142" x2="246.142" y1="574.9688" y2="574.9688"/><line style="stroke:#A80036;stroke-width:1.5;" x1="199.142" x2="246.142" y1="582.9688" y2="582.9688"/><!--MD5=[dab16d122782a892ddb6ee0eadcd68f0]
class Access--><rect codeLine="44" fill="#FEFECE" filter="url(#f2i17kp6yedd4)" height="39.9688" id="Access" style="stroke:#A80036;stroke-width:1.5;" width="50" x="282.642" y="551"/><text fill="#000000" font-family="sans-serif" font-size="12" lengthAdjust="spacing" textLength="44" x="285.642" y="567.1387">Access</text><line style="stroke:#A80036;stroke-width:1.5;" x1="283.642" x2="331.642" y1="574.9688" y2="574.9688"/><line style="stroke:#A80036;stroke-width:1.5;" x1="283.642" x2="331.642" y1="582.9688" y2="582.9688"/><!--MD5=[76b5e19c9337179d2d7ae334371d68c8]
class Notification--><rect codeLine="46" fill="#FEFECE" filter="url(#f2i17kp6yedd4)" height="39.9688" id="Notification" style="stroke:#A80036;stroke-width:1.5;" width="72" x="367.642" y="551"/><text fill="#000000" font-family="sans-serif" font-size="12" lengthAdjust="spacing" textLength="66" x="370.642" y="567.1387">Notification</text><line style="stroke:#A80036;stroke-width:1.5;" x1="368.642" x2="438.642" y1="574.9688" y2="574.9688"/><line style="stroke:#A80036;stroke-width:1.5;" x1="368.642" x2="438.642" y1="582.9688" y2="582.9688"/><!--MD5=[f62e03faf71373622fb7ecf49ded62e5]
class EmailNotificationSetting--><rect codeLine="48" fill="#FEFECE" filter="url(#f2i17kp6yedd4)" height="39.9688" id="EmailNotificationSetting" style="stroke:#A80036;stroke-width:1.5;" width="145" x="475.142" y="551"/><text fill="#000000" font-family="sans-serif" font-size="12" lengthAdjust="spacing" textLength="139" x="478.142" y="567.1387">EmailNotificationSetting</text><line style="stroke:#A80036;stroke-width:1.5;" x1="476.142" x2="619.142" y1="574.9688" y2="574.9688"/><line style="stroke:#A80036;stroke-width:1.5;" x1="476.142" x2="619.142" y1="582.9688" y2="582.9688"/><!--MD5=[1032d4f2870c9a77590bd215a4cd5854]
class Investment--><rect codeLine="53" fill="#FEFECE" filter="url(#f2i17kp6yedd4)" height="39.9688" id="Investment" style="stroke:#A80036;stroke-width:1.5;" width="72" x="655.642" y="551"/><text fill="#000000" font-family="sans-serif" font-size="12" lengthAdjust="spacing" textLength="66" x="658.642" y="567.1387">Investment</text><line style="stroke:#A80036;stroke-width:1.5;" x1="656.642" x2="726.642" y1="574.9688" y2="574.9688"/><line style="stroke:#A80036;stroke-width:1.5;" x1="656.642" x2="726.642" y1="582.9688" y2="582.9688"/><!--MD5=[3d4177ac58b4411586d067f34e84928f]
class List--><rect codeLine="55" fill="#FEFECE" filter="url(#f2i17kp6yedd4)" height="39.9688" id="List" style="stroke:#A80036;stroke-width:1.5;" width="26" x="762.642" y="551"/><text fill="#000000" font-family="sans-serif" font-size="12" lengthAdjust="spacing" textLength="20" x="765.642" y="567.1387">List</text><line style="stroke:#A80036;stroke-width:1.5;" x1="763.642" x2="787.642" y1="574.9688" y2="574.9688"/><line style="stroke:#A80036;stroke-width:1.5;" x1="763.642" x2="787.642" y1="582.9688" y2="582.9688"/><!--MD5=[0d6549f34bc8f379da1c581a2f40304e]
class SitePermission--><rect codeLine="57" fill="#FEFECE" filter="url(#f2i17kp6yedd4)" height="39.9688" id="SitePermission" style="stroke:#A80036;stroke-width:1.5;" width="94" x="823.642" y="551"/><text fill="#000000" font-family="sans-serif" font-size="12" lengthAdjust="spacing" textLength="88" x="826.642" y="567.1387">SitePermission</text><line style="stroke:#A80036;stroke-width:1.5;" x1="824.642" x2="916.642" y1="574.9688" y2="574.9688"/><line style="stroke:#A80036;stroke-width:1.5;" x1="824.642" x2="916.642" y1="582.9688" y2="582.9688"/><!--MD5=[d22815ff63be9cac9a63f8d1ea27d033]
class Article--><rect codeLine="59" fill="#FEFECE" filter="url(#f2i17kp6yedd4)" height="39.9688" id="Article" style="stroke:#A80036;stroke-width:1.5;" width="44" x="689.642" y="306"/><text fill="#000000" font-family="sans-serif" font-size="12" lengthAdjust="spacing" textLength="38" x="692.642" y="322.1387">Article</text><line style="stroke:#A80036;stroke-width:1.5;" x1="690.642" x2="732.642" y1="329.9688" y2="329.9688"/><line style="stroke:#A80036;stroke-width:1.5;" x1="690.642" x2="732.642" y1="337.9688" y2="337.9688"/><!--MD5=[f03409201630dc6b3f3d7095fd5d0a14]
class SiteDiscussionBoard--><rect codeLine="61" fill="#FEFECE" filter="url(#f2i17kp6yedd4)" height="39.9688" id="SiteDiscussionBoard" style="stroke:#A80036;stroke-width:1.5;" width="130" x="952.642" y="551"/><text fill="#000000" font-family="sans-serif" font-size="12" lengthAdjust="spacing" textLength="124" x="955.642" y="567.1387">SiteDiscussionBoard</text><line style="stroke:#A80036;stroke-width:1.5;" x1="953.642" x2="1081.642" y1="574.9688" y2="574.9688"/><line style="stroke:#A80036;stroke-width:1.5;" x1="953.642" x2="1081.642" y1="582.9688" y2="582.9688"/><!--MD5=[49d42632b649f116d5d2b66ad3e0f715]
class Discussion--><rect codeLine="63" fill="#FEFECE" filter="url(#f2i17kp6yedd4)" height="39.9688" id="Discussion" style="stroke:#A80036;stroke-width:1.5;" width="71" x="1118.139" y="551"/><text fill="#000000" font-family="sans-serif" font-size="12" lengthAdjust="spacing" textLength="65" x="1121.139" y="567.1387">Discussion</text><line style="stroke:#A80036;stroke-width:1.5;" x1="1119.139" x2="1188.139" y1="574.9688" y2="574.9688"/><line style="stroke:#A80036;stroke-width:1.5;" x1="1119.139" x2="1188.139" y1="582.9688" y2="582.9688"/><!--MD5=[634d1d8d06fddffff2d79d42b88716f1]
class DiscussionBoard--><rect codeLine="65" fill="#FEFECE" filter="url(#f2i17kp6yedd4)" height="52.7734" id="DiscussionBoard" style="stroke:#A80036;stroke-width:1.5;" width="107" x="1234.139" y="29"/><text fill="#000000" font-family="sans-serif" font-size="12" lengthAdjust="spacing" textLength="101" x="1237.139" y="45.1387">DiscussionBoard</text><line style="stroke:#A80036;stroke-width:1.5;" x1="1235.139" x2="1340.139" y1="52.9688" y2="52.9688"/><line style="stroke:#A80036;stroke-width:1.5;" x1="1235.139" x2="1340.139" y1="60.9688" y2="60.9688"/><text fill="#000000" font-family="sans-serif" font-size="11" lengthAdjust="spacing" textLength="38" x="1240.139" y="75.1792">using()</text><!--MD5=[fcea0092393042f826e3b3f0c822b801]
class TextInput--><rect codeLine="68" fill="#FEFECE" filter="url(#f2i17kp6yedd4)" height="39.9688" id="TextInput" style="stroke:#A80036;stroke-width:1.5;" width="61" x="1257.139" y="306"/><text fill="#000000" font-family="sans-serif" font-size="12" lengthAdjust="spacing" textLength="55" x="1260.139" y="322.1387">TextInput</text><line style="stroke:#A80036;stroke-width:1.5;" x1="1258.139" x2="1317.139" y1="329.9688" y2="329.9688"/><line style="stroke:#A80036;stroke-width:1.5;" x1="1258.139" x2="1317.139" y1="337.9688" y2="337.9688"/><!--MD5=[6a73440c6ea00faac0df0577589aa0e3]
class TrackingToolData--><rect codeLine="70" fill="#FEFECE" filter="url(#f2i17kp6yedd4)" height="39.9688" id="TrackingToolData" style="stroke:#A80036;stroke-width:1.5;" width="110" x="1224.639" y="551"/><text fill="#000000" font-family="sans-serif" font-size="12" lengthAdjust="spacing" textLength="104" x="1227.639" y="567.1387">TrackingToolData</text><line style="stroke:#A80036;stroke-width:1.5;" x1="1225.639" x2="1333.639" y1="574.9688" y2="574.9688"/><line style="stroke:#A80036;stroke-width:1.5;" x1="1225.639" x2="1333.639" y1="582.9688" y2="582.9688"/><!--MD5=[7b57f7066b803747d2119f99dd1555d4]
class Profile--><rect codeLine="72" fill="#FEFECE" filter="url(#f2i17kp6yedd4)" height="39.9688" id="Profile" style="stroke:#A80036;stroke-width:1.5;" width="43" x="1370.139" y="551"/><text fill="#000000" font-family="sans-serif" font-size="12" lengthAdjust="spacing" textLength="37" x="1373.139" y="567.1387">Profile</text><line style="stroke:#A80036;stroke-width:1.5;" x1="1371.139" x2="1412.139" y1="574.9688" y2="574.9688"/><line style="stroke:#A80036;stroke-width:1.5;" x1="1371.139" x2="1412.139" y1="582.9688" y2="582.9688"/><!--MD5=[8c319644a1a714426c283ba7b12d856b]
class PropertyInformation--><rect codeLine="76" fill="#FEFECE" filter="url(#f2i17kp6yedd4)" height="39.9688" id="PropertyInformation" style="stroke:#A80036;stroke-width:1.5;" width="124" x="1448.639" y="551"/><text fill="#000000" font-family="sans-serif" font-size="12" lengthAdjust="spacing" textLength="118" x="1451.639" y="567.1387">PropertyInformation</text><line style="stroke:#A80036;stroke-width:1.5;" x1="1449.639" x2="1571.639" y1="574.9688" y2="574.9688"/><line style="stroke:#A80036;stroke-width:1.5;" x1="1449.639" x2="1571.639" y1="582.9688" y2="582.9688"/><!--MD5=[2f01b1126ff33a0669651ec2488a5ef9]
class Password--><rect codeLine="78" fill="#FEFECE" filter="url(#f2i17kp6yedd4)" height="39.9688" id="Password" style="stroke:#A80036;stroke-width:1.5;" width="64" x="1607.639" y="551"/><text fill="#000000" font-family="sans-serif" font-size="12" lengthAdjust="spacing" textLength="58" x="1610.639" y="567.1387">Password</text><line style="stroke:#A80036;stroke-width:1.5;" x1="1608.639" x2="1670.639" y1="574.9688" y2="574.9688"/><line style="stroke:#A80036;stroke-width:1.5;" x1="1608.639" x2="1670.639" y1="582.9688" y2="582.9688"/><!--MD5=[6a494c20d032ff54e1efa92c1369bc7b]
class Page--><rect codeLine="80" fill="#FEFECE" filter="url(#f2i17kp6yedd4)" height="39.9688" id="Page" style="stroke:#A80036;stroke-width:1.5;" width="35" x="1707.139" y="551"/><text fill="#000000" font-family="sans-serif" font-size="12" lengthAdjust="spacing" textLength="29" x="1710.139" y="567.1387">Page</text><line style="stroke:#A80036;stroke-width:1.5;" x1="1708.139" x2="1741.139" y1="574.9688" y2="574.9688"/><line style="stroke:#A80036;stroke-width:1.5;" x1="1708.139" x2="1741.139" y1="582.9688" y2="582.9688"/><!--MD5=[dc7977202b9bec7e39f9452fb963009e]
class FactorAuthentication--><rect codeLine="82" fill="#FEFECE" filter="url(#f2i17kp6yedd4)" height="39.9688" id="FactorAuthentication" style="stroke:#A80036;stroke-width:1.5;" width="128" x="1777.639" y="551"/><text fill="#000000" font-family="sans-serif" font-size="12" lengthAdjust="spacing" textLength="122" x="1780.639" y="567.1387">FactorAuthentication</text><line style="stroke:#A80036;stroke-width:1.5;" x1="1778.639" x2="1904.639" y1="574.9688" y2="574.9688"/><line style="stroke:#A80036;stroke-width:1.5;" x1="1778.639" x2="1904.639" y1="582.9688" y2="582.9688"/><!--MD5=[1cc500669c1c4c9e89b2633ce25dab06]
class InvestmentProperty--><rect codeLine="84" fill="#FEFECE" filter="url(#f2i17kp6yedd4)" height="39.9688" id="InvestmentProperty" style="stroke:#A80036;stroke-width:1.5;" width="123" x="1941.139" y="551"/><text fill="#000000" font-family="sans-serif" font-size="12" lengthAdjust="spacing" textLength="117" x="1944.139" y="567.1387">InvestmentProperty</text><line style="stroke:#A80036;stroke-width:1.5;" x1="1942.139" x2="2063.139" y1="574.9688" y2="574.9688"/><line style="stroke:#A80036;stroke-width:1.5;" x1="1942.139" x2="2063.139" y1="582.9688" y2="582.9688"/><!--MD5=[27fa0a8c4ffc10cb265c3cd98e60729a]
class SiteBlog--><rect codeLine="86" fill="#FEFECE" filter="url(#f2i17kp6yedd4)" height="39.9688" id="SiteBlog" style="stroke:#A80036;stroke-width:1.5;" width="56" x="2099.639" y="551"/><text fill="#000000" font-family="sans-serif" font-size="12" lengthAdjust="spacing" textLength="50" x="2102.639" y="567.1387">SiteBlog</text><line style="stroke:#A80036;stroke-width:1.5;" x1="2100.639" x2="2154.639" y1="574.9688" y2="574.9688"/><line style="stroke:#A80036;stroke-width:1.5;" x1="2100.639" x2="2154.639" y1="582.9688" y2="582.9688"/><!--MD5=[53e6cac2272ce2eb99d85cf2b2d574ee]
class Performance--><rect codeLine="88" fill="#FEFECE" filter="url(#f2i17kp6yedd4)" height="39.9688" id="Performance" style="stroke:#A80036;stroke-width:1.5;" width="82" x="2190.639" y="551"/><text fill="#000000" font-family="sans-serif" font-size="12" lengthAdjust="spacing" textLength="76" x="2193.639" y="567.1387">Performance</text><line style="stroke:#A80036;stroke-width:1.5;" x1="2191.639" x2="2271.639" y1="574.9688" y2="574.9688"/><line style="stroke:#A80036;stroke-width:1.5;" x1="2191.639" x2="2271.639" y1="582.9688" y2="582.9688"/><!--MD5=[091a328b1a088824111f7cc5833ba4fc]
class WebsiteUtilizationStatistics--><rect codeLine="90" fill="#FEFECE" filter="url(#f2i17kp6yedd4)" height="39.9688" id="WebsiteUtilizationStatistics" style="stroke:#A80036;stroke-width:1.5;" width="168" x="768.642" y="306"/><text fill="#000000" font-family="sans-serif" font-size="12" lengthAdjust="spacing" textLength="162" x="771.642" y="322.1387">WebsiteUtilizationStatistics</text><line style="stroke:#A80036;stroke-width:1.5;" x1="769.642" x2="935.642" y1="329.9688" y2="329.9688"/><line style="stroke:#A80036;stroke-width:1.5;" x1="769.642" x2="935.642" y1="337.9688" y2="337.9688"/><!--MD5=[f9a29335b499db729be669fd1bd54958]
class Account--><rect codeLine="92" fill="#FEFECE" filter="url(#f2i17kp6yedd4)" height="39.9688" id="Account" style="stroke:#A80036;stroke-width:1.5;" width="54" x="2307.639" y="551"/><text fill="#000000" font-family="sans-serif" font-size="12" lengthAdjust="spacing" textLength="48" x="2310.639" y="567.1387">Account</text><line style="stroke:#A80036;stroke-width:1.5;" x1="2308.639" x2="2360.639" y1="574.9688" y2="574.9688"/><line style="stroke:#A80036;stroke-width:1.5;" x1="2308.639" x2="2360.639" y1="582.9688" y2="582.9688"/><!--MD5=[6415063213547b35a52066d7b53eb916]
link User to Review--><path codeLine="94" d="M982.541,443.728 C974.744,455.517 965.234,466.051 953.642,474 C888.156,518.9054 301.366,454.05 239.642,504 C227.436,513.8775 223.316,531.2493 222.179,545.6917 " fill="none" id="User-to-Review" style="stroke:#A80036;stroke-width:1.0;"/><polygon fill="#A80036" points="221.886,550.8607,226.3896,542.1019,222.1694,545.8687,218.4025,541.6485,221.886,550.8607" style="stroke:#A80036;stroke-width:1.0;"/><text fill="#000000" font-family="sans-serif" font-size="13" lengthAdjust="spacing" textLength="35" x="240.642" y="517.0669">leave</text><!--MD5=[6415063213547b35a52066d7b53eb916]
link User to Review--><path codeLine="123" d="M982.454,443.602 C974.671,455.412 965.189,465.985 953.642,474 C902.27,509.6566 452.88,491.3383 391.642,504 C340.633,514.5468 285.005,539.0078 252.01,555.0059 " fill="none" id="User-to-Review-1" style="stroke:#A80036;stroke-width:1.0;"/><polygon fill="#A80036" points="247.31,557.3022,257.1524,556.9467,251.8028,555.1079,253.6415,549.7582,247.31,557.3022" style="stroke:#A80036;stroke-width:1.0;"/><text fill="#000000" font-family="sans-serif" font-size="13" lengthAdjust="spacing" textLength="29" x="392.642" y="517.0669">read</text><!--MD5=[212411d2e7b6838baca0acf4aab2b204]
link Administrator to WebsiteUtilizationStatistics--><path codeLine="95" d="M784.274,101.139 C801.771,158.429 831.505,255.79 845.259,300.826 " fill="none" id="Administrator-to-WebsiteUtilizationStatistics" style="stroke:#A80036;stroke-width:1.0;"/><polygon fill="#A80036" points="846.776,305.795,847.9741,296.0193,845.3162,301.0128,840.3226,298.3549,846.776,305.795" style="stroke:#A80036;stroke-width:1.0;"/><text fill="#000000" font-family="sans-serif" font-size="13" lengthAdjust="spacing" textLength="30" x="798.642" y="144.0669">view</text><!--MD5=[3b3a110f6aeec0a0bf442c01daca6c1c]
link User to Profile--><path codeLine="96" d="M1052.859,350.659 C1096.509,379.905 1173.269,431.072 1239.639,474 C1283.609,502.4339 1335.219,534.8247 1365.579,553.7776 " fill="none" id="User-to-Profile" style="stroke:#A80036;stroke-width:1.0;"/><polygon fill="#A80036" points="1369.899,556.4743,1364.3953,548.3067,1365.6617,553.82,1360.1484,555.0864,1369.899,556.4743" style="stroke:#A80036;stroke-width:1.0;"/><text fill="#000000" font-family="sans-serif" font-size="13" lengthAdjust="spacing" textLength="36" x="1311.639" y="517.0669">make</text><!--MD5=[edc107c0a572352bcd12c9afaba4390b]
link Administrator to User--><path codeLine="97" d="M831.18,85.13 C870.393,106.213 920.2,138.107 953.642,178 C963.851,190.179 972.69,204.237 980.262,218.73 " fill="none" id="Administrator-to-User" style="stroke:#A80036;stroke-width:1.0;"/><polygon fill="#A80036" points="982.571,223.241,982.0283,213.4071,980.2916,218.7908,974.9079,217.0541,982.571,223.241" style="stroke:#A80036;stroke-width:1.0;"/><text fill="#000000" font-family="sans-serif" font-size="13" lengthAdjust="spacing" textLength="63" x="921.642" y="144.0669">moderate</text><!--MD5=[3cd9423b4d7bed705cce44348efe2e61]
link User to Access--><path codeLine="98" d="M982.586,443.11 C974.777,455.086 965.253,465.833 953.642,474 C912.201,503.1492 548.436,494.6455 498.642,504 C430.397,516.8207 414.501,526.2013 349.642,551 C345.666,552.5202 341.529,554.2288 337.47,555.982 " fill="none" id="User-to-Access" style="stroke:#A80036;stroke-width:1.0;"/><polygon fill="#A80036" points="332.755,558.0519,342.6037,558.0965,337.3332,556.0419,339.3878,550.7714,332.755,558.0519" style="stroke:#A80036;stroke-width:1.0;"/><text fill="#000000" font-family="sans-serif" font-size="13" lengthAdjust="spacing" textLength="32" x="499.642" y="517.0669">have</text><!--MD5=[87e802f94dff5db0b14b612664619da8]
link User to Account--><path codeLine="99" d="M1052.819,359.426 C1094.039,395.103 1166.109,450.499 1239.639,474 C1427.509,534.0415 1931.849,473.111 2126.639,504 C2201.109,515.8086 2218.569,525.8478 2289.639,551 C2293.869,552.4959 2298.269,554.1843 2302.589,555.9221 " fill="none" id="User-to-Account" style="stroke:#A80036;stroke-width:1.0;"/><polygon fill="#A80036" points="2307.239,557.8202,2300.4133,550.7202,2302.6085,555.9338,2297.395,558.129,2307.239,557.8202" style="stroke:#A80036;stroke-width:1.0;"/><text fill="#000000" font-family="sans-serif" font-size="13" lengthAdjust="spacing" textLength="41" x="2205.639" y="517.0669">create</text><!--MD5=[fb1e7399e566a69428d04dad9542b7e9]
link User to ServiceProvider--><path codeLine="100" d="M982.616,443.839 C974.807,455.609 965.273,466.108 953.642,474 C867.813,532.2355 92.7949,429.49 20.6417,504 C6,519.1201 22.8552,535.4771 43.5659,548.1247 " fill="none" id="User-to-ServiceProvider" style="stroke:#A80036;stroke-width:1.0;"/><polygon fill="#A80036" points="48.0339,550.7655,42.3214,542.7425,43.7296,548.2213,38.2508,549.6295,48.0339,550.7655" style="stroke:#A80036;stroke-width:1.0;"/><text fill="#000000" font-family="sans-serif" font-size="13" lengthAdjust="spacing" textLength="24" x="21.6417" y="517.0669">find</text><!--MD5=[fb1e7399e566a69428d04dad9542b7e9]
link User to ServiceProvider--><path codeLine="113" d="M982.598,443.811 C974.791,455.586 965.264,466.094 953.642,474 C873.944,528.2178 153.612,434.673 86.6417,504 C76.2084,514.8006 77.2312,531.816 80.7212,545.8646 " fill="none" id="User-to-ServiceProvider-1" style="stroke:#A80036;stroke-width:1.0;"/><polygon fill="#A80036" points="82.102,550.8892,83.574,541.151,80.777,546.068,75.86,543.2709,82.102,550.8892" style="stroke:#A80036;stroke-width:1.0;"/><text fill="#000000" font-family="sans-serif" font-size="13" lengthAdjust="spacing" textLength="26" x="87.6417" y="517.0669">rate</text><!--MD5=[fb1e7399e566a69428d04dad9542b7e9]
link User to ServiceProvider--><path codeLine="115" d="M982.568,443.767 C974.766,455.549 965.248,466.071 953.642,474 C882.212,522.8005 257.007,474.616 175.642,504 C150.837,512.9577 127.421,531.8832 111.3043,547.1807 " fill="none" id="User-to-ServiceProvider-2" style="stroke:#A80036;stroke-width:1.0;"/><polygon fill="#A80036" points="107.3678,550.9834,116.6199,547.6074,110.9639,547.5095,111.0618,541.8535,107.3678,550.9834" style="stroke:#A80036;stroke-width:1.0;"/><text fill="#000000" font-family="sans-serif" font-size="13" lengthAdjust="spacing" textLength="43" x="176.642" y="517.0669">search</text><!--MD5=[6ecc8c964edee2fb1dd17d4d76ec8e53]
link Administrator to Article--><path codeLine="101" d="M760.833,101.139 C748.244,158.429 726.85,255.79 716.954,300.826 " fill="none" id="Administrator-to-Article" style="stroke:#A80036;stroke-width:1.0;"/><polygon fill="#A80036" points="715.862,305.795,721.7002,297.8631,716.935,300.9115,713.8866,296.1463,715.862,305.795" style="stroke:#A80036;stroke-width:1.0;"/><text fill="#000000" font-family="sans-serif" font-size="13" lengthAdjust="spacing" textLength="28" x="754.642" y="144.0669">post</text><!--MD5=[2e2e530a658308b38e0151c4d25adf6b]
link User to Notification--><path codeLine="102" d="M982.435,442.897 C974.651,454.908 965.174,465.722 953.642,474 C889.866,519.7804 678.579,488.384 601.642,504 C545.85,515.3243 483.962,537.608 444.474,553.1336 " fill="none" id="User-to-Notification" style="stroke:#A80036;stroke-width:1.0;"/><polygon fill="#A80036" points="439.772,554.9922,449.6122,555.4054,444.4222,553.155,446.6726,547.965,439.772,554.9922" style="stroke:#A80036;stroke-width:1.0;"/><text fill="#000000" font-family="sans-serif" font-size="13" lengthAdjust="spacing" textLength="47" x="602.642" y="517.0669">receive</text><!--MD5=[dc718a785fdd7ec077b0e8d08c350e59]
link User to PropertyInformation--><path codeLine="103" d="M1052.769,355.7 C1094.799,388.704 1168.459,442.386 1239.639,474 C1288.699,495.7885 1305.819,486.709 1356.639,504 C1394.279,516.8066 1435.629,534.7532 1465.999,548.6999 " fill="none" id="User-to-PropertyInformation" style="stroke:#A80036;stroke-width:1.0;"/><polygon fill="#A80036" points="1470.779,550.9025,1464.2894,543.494,1466.2408,548.8036,1460.9312,550.755,1470.779,550.9025" style="stroke:#A80036;stroke-width:1.0;"/><text fill="#000000" font-family="sans-serif" font-size="13" lengthAdjust="spacing" textLength="24" x="1401.639" y="517.0669">add</text><!--MD5=[25e38a5b5577d15957622e6ba38f4623]
link User to EmailNotificationSetting--><path codeLine="104" d="M982.595,441.785 C974.775,454.145 965.245,465.347 953.642,474 C909.494,506.9222 760.915,490.039 707.642,504 C666.362,514.8175 621.643,533.9443 590.004,548.8321 " fill="none" id="User-to-EmailNotificationSetting" style="stroke:#A80036;stroke-width:1.0;"/><polygon fill="#A80036" points="585.433,550.9965,595.279,550.7597,589.9519,548.8565,591.8551,543.5294,585.433,550.9965" style="stroke:#A80036;stroke-width:1.0;"/><text fill="#000000" font-family="sans-serif" font-size="13" lengthAdjust="spacing" textLength="39" x="708.642" y="517.0669">adjust</text><!--MD5=[5ab1f46e477a8163e64d30b24bef4255]
link User to Password--><path codeLine="105" d="M1052.999,357.551 C1094.669,391.772 1167.419,446.09 1239.639,474 C1321.429,505.6076 1349.139,484.562 1434.639,504 C1504.839,519.9575 1521.509,527.7564 1589.639,551 C1593.899,552.4533 1598.339,554.0373 1602.739,555.6506 " fill="none" id="User-to-Password" style="stroke:#A80036;stroke-width:1.0;"/><polygon fill="#A80036" points="1607.479,557.4077,1600.4181,550.5416,1602.7876,555.6783,1597.651,558.0478,1607.479,557.4077" style="stroke:#A80036;stroke-width:1.0;"/><text fill="#000000" font-family="sans-serif" font-size="13" lengthAdjust="spacing" textLength="33" x="1501.639" y="517.0669">reset</text><!--MD5=[a575d74337a11a313f60f24f067f60bf]
link User to List--><path codeLine="106" d="M982.595,434.98 C974.683,449.3 965.128,462.854 953.642,474 C927.876,499.0008 910.565,487.575 878.642,504 C847.214,520.1696 813.121,543.2067 793.108,557.3499 " fill="none" id="User-to-List" style="stroke:#A80036;stroke-width:1.0;"/><polygon fill="#A80036" points="788.816,560.3995,798.4695,558.4478,792.892,557.5037,793.8362,551.9262,788.816,560.3995" style="stroke:#A80036;stroke-width:1.0;"/><text fill="#000000" font-family="sans-serif" font-size="13" lengthAdjust="spacing" textLength="30" x="879.642" y="517.0669">view</text><!--MD5=[970cac591fccbf7a9f15ccd0a38b4219]
link User to Page--><path codeLine="107" d="M1052.739,358.257 C1094.159,393.134 1166.689,448.061 1239.639,474 C1367.559,519.4842 1410.739,476.241 1543.639,504 C1609.959,517.851 1626.229,524.6476 1688.639,551 C1693.229,552.9381 1698.019,555.2496 1702.559,557.582 " fill="none" id="User-to-Page" style="stroke:#A80036;stroke-width:1.0;"/><polygon fill="#A80036" points="1706.989,559.9083,1700.8857,552.1785,1702.5638,557.5807,1697.1616,559.2589,1706.989,559.9083" style="stroke:#A80036;stroke-width:1.0;"/><text fill="#000000" font-family="sans-serif" font-size="13" lengthAdjust="spacing" textLength="36" x="1611.639" y="517.0669">make</text><!--MD5=[478425156ee10c55cac736d5b0b47b37]
link Admin to User--><path codeLine="108" d="M1023.069,82.245 C1022.579,104.138 1021.829,137.53 1021.049,172.606 " fill="none" id="Admin-to-User" style="stroke:#A80036;stroke-width:1.0;"/><polygon fill="#A80036" points="1020.929,177.792,1025.1285,168.8834,1021.0404,172.7932,1017.1305,168.7051,1020.929,177.792" style="stroke:#A80036;stroke-width:1.0;"/><text fill="#000000" font-family="sans-serif" font-size="13" lengthAdjust="spacing" textLength="50" x="1023.639" y="144.0669">remove</text><!--MD5=[f9ad8e9d6a467767d7584cf9cb995def]
link User to Investment--><path codeLine="109" d="M982.566,440.448 C974.739,453.19 965.215,464.851 953.642,474 C894.485,520.7671 856.319,475.158 786.642,504 C761.11,514.5685 735.58,532.8425 717.426,547.4859 " fill="none" id="User-to-Investment" style="stroke:#A80036;stroke-width:1.0;"/><polygon fill="#A80036" points="713.436,550.7411,722.9379,548.1499,717.3098,547.5798,717.8798,541.9518,713.436,550.7411" style="stroke:#A80036;stroke-width:1.0;"/><text fill="#000000" font-family="sans-serif" font-size="13" lengthAdjust="spacing" textLength="53" x="787.642" y="517.0669">manage</text><!--MD5=[a534af078d2a9d2e31658a22108d30bf]
link User to FactorAuthentication--><path codeLine="110" d="M1052.989,358.921 C1094.359,394.135 1166.569,449.106 1239.639,474 C1415.529,533.9207 1474.809,465.765 1656.639,504 C1704.709,514.1067 1757.249,533.7332 1794.019,548.9679 " fill="none" id="User-to-FactorAuthentication" style="stroke:#A80036;stroke-width:1.0;"/><polygon fill="#A80036" points="1798.869,550.9921,1792.1073,543.8311,1794.2556,549.0642,1789.0226,551.2125,1798.869,550.9921" style="stroke:#A80036;stroke-width:1.0;"/><text fill="#000000" font-family="sans-serif" font-size="13" lengthAdjust="spacing" textLength="52" x="1715.639" y="517.0669">activate</text><!--MD5=[993a1ed30139d6bc9fd462e29443e622]
link User to User--><path codeLine="111" d="M1052.939,292.351 C1071.189,287.174 1087.639,298.391 1087.639,326 C1087.639,351.021 1074.129,362.579 1058.009,360.673 " fill="none" id="User-to-User" style="stroke:#A80036;stroke-width:1.0;"/><polygon fill="#A80036" points="1052.939,359.649,1060.9574,365.3679,1057.838,360.6488,1062.5571,357.5294,1052.939,359.649" style="stroke:#A80036;stroke-width:1.0;"/><text fill="#000000" font-family="sans-serif" font-size="13" lengthAdjust="spacing" textLength="39" x="1093.639" y="330.5669">report</text><!--MD5=[fa83391b641a878828d461bcf01a433d]
link User to SiteDiscussionBoard--><path codeLine="112" d="M1017.639,474.309 C1017.639,501.9477 1017.639,527.7185 1017.639,545.5368 " fill="none" id="User-to-SiteDiscussionBoard" style="stroke:#A80036;stroke-width:1.0;"/><polygon fill="#A80036" points="1017.639,550.8046,1021.639,541.8046,1017.639,545.8046,1013.639,541.8046,1017.639,550.8046" style="stroke:#A80036;stroke-width:1.0;"/><text fill="#000000" font-family="sans-serif" font-size="13" lengthAdjust="spacing" textLength="29" x="1018.639" y="517.0669">read</text><!--MD5=[5b923c8b06fb8770a1b9231ca613dea0]
link User to SitePermission--><path codeLine="114" d="M982.526,419.371 C974.05,437.991 964.317,457.039 953.642,474 C936.478,501.2701 911.836,528.7136 893.863,547.2322 " fill="none" id="User-to-SitePermission" style="stroke:#A80036;stroke-width:1.0;"/><polygon fill="#A80036" points="890.361,550.8143,899.5132,547.1761,893.8567,547.2394,893.7934,541.5829,890.361,550.8143" style="stroke:#A80036;stroke-width:1.0;"/><text fill="#000000" font-family="sans-serif" font-size="13" lengthAdjust="spacing" textLength="32" x="932.642" y="517.0669">have</text><!--MD5=[4816c64fb8fc9ecb22970fd822d24e69]
link User to Discussion--><path codeLine="116" d="M1052.669,389.579 C1081.289,440.719 1120.189,510.2363 1140.339,546.2228 " fill="none" id="User-to-Discussion" style="stroke:#A80036;stroke-width:1.0;"/><polygon fill="#A80036" points="1142.929,550.8625,1142.0318,541.0546,1140.4905,546.4974,1135.0477,544.9561,1142.929,550.8625" style="stroke:#A80036;stroke-width:1.0;"/><text fill="#000000" font-family="sans-serif" font-size="13" lengthAdjust="spacing" textLength="30" x="1125.639" y="517.0669">start</text><!--MD5=[e4fba5274d93292b2b4a6c089fdf9595]
link User to InvestmentProperty--><path codeLine="117" d="M1052.919,359.134 C1094.229,394.542 1166.369,449.692 1239.639,474 C1353.079,511.6357 1658.849,483.783 1776.639,504 C1835.139,514.04 1899.989,533.9251 1945.159,549.2563 " fill="none" id="User-to-InvestmentProperty" style="stroke:#A80036;stroke-width:1.0;"/><polygon fill="#A80036" points="1950.019,550.9133,1942.7924,544.2218,1945.2867,549.299,1940.2095,551.7934,1950.019,550.9133" style="stroke:#A80036;stroke-width:1.0;"/><text fill="#000000" font-family="sans-serif" font-size="13" lengthAdjust="spacing" textLength="32" x="1853.639" y="517.0669">track</text><!--MD5=[aa8c183dfab6ebd929f08d9fadd3e6cc]
link User to SiteBlog--><path codeLine="118" d="M1052.869,359.267 C1094.139,394.798 1166.249,450.06 1239.639,474 C1378.169,519.1876 1750.479,482.802 1894.639,504 C1979.429,516.4675 2000.269,524.1269 2081.639,551 C2085.769,552.3632 2090.049,553.9245 2094.269,555.5533 " fill="none" id="User-to-SiteBlog" style="stroke:#A80036;stroke-width:1.0;"/><polygon fill="#A80036" points="2099.179,557.4886,2092.2852,550.4547,2094.5305,555.6469,2089.3384,557.8922,2099.179,557.4886" style="stroke:#A80036;stroke-width:1.0;"/><text fill="#000000" font-family="sans-serif" font-size="13" lengthAdjust="spacing" textLength="29" x="1984.639" y="517.0669">read</text><!--MD5=[a943d1af1cfbcccdca843e5e9cf8f596]
link DiscussionBoard to TextInput--><path codeLine="119" d="M1287.639,82.245 C1287.639,134.042 1287.639,250.202 1287.639,300.741 " fill="none" id="DiscussionBoard-to-TextInput" style="stroke:#A80036;stroke-width:1.0;"/><polygon fill="#A80036" points="1287.639,305.998,1291.639,296.998,1287.639,300.998,1283.639,296.998,1287.639,305.998" style="stroke:#A80036;stroke-width:1.0;"/><text fill="#000000" font-family="sans-serif" font-size="13" lengthAdjust="spacing" textLength="34" x="1288.639" y="144.0669">using</text><!--MD5=[fc8363a811d6843a1fe8d35d15735eb3]
link Administrator to Identity--><path codeLine="120" d="M729.668,101.107 C721.187,110.79 712.461,121.102 704.642,131 C688.821,151.029 682.634,154.965 671.642,178 C652.084,218.987 639.908,270.852 633.983,300.745 " fill="none" id="Administrator-to-Identity" style="stroke:#A80036;stroke-width:1.0;"/><polygon fill="#A80036" points="633.017,305.706,638.6637,297.6367,633.9728,300.7982,630.8113,296.1073,633.017,305.706" style="stroke:#A80036;stroke-width:1.0;"/><text fill="#000000" font-family="sans-serif" font-size="13" lengthAdjust="spacing" textLength="37" x="705.642" y="144.0669">verify</text><!--MD5=[7d3bd5ffe7a3e735064f8f9dd300b0da]
link User to Performance--><path codeLine="121" d="M1052.839,359.367 C1094.079,394.989 1166.159,450.334 1239.639,474 C1405.389,527.3822 1851.049,474.374 2022.639,504 C2080.229,513.9427 2143.939,535.7098 2185.699,551.5352 " fill="none" id="User-to-Performance" style="stroke:#A80036;stroke-width:1.0;"/><polygon fill="#A80036" points="2190.429,553.3375,2183.4316,546.4066,2185.7537,551.5649,2180.5955,553.887,2190.429,553.3375" style="stroke:#A80036;stroke-width:1.0;"/><text fill="#000000" font-family="sans-serif" font-size="13" lengthAdjust="spacing" textLength="23" x="2094.639" y="517.0669">see</text><!--MD5=[66aaf66c14931cf11d078acea668e127]
link User to TrackingToolData--><path codeLine="122" d="M1052.709,359.52 C1106.679,409.585 1208.769,504.2676 1255.359,547.4778 " fill="none" id="User-to-TrackingToolData" style="stroke:#A80036;stroke-width:1.0;"/><polygon fill="#A80036" points="1259.149,550.9979,1255.2702,541.945,1255.483,547.5979,1249.8301,547.8107,1259.149,550.9979" style="stroke:#A80036;stroke-width:1.0;"/><text fill="#000000" font-family="sans-serif" font-size="13" lengthAdjust="spacing" textLength="42" x="1224.639" y="517.0669">export</text><!--MD5=[30488df601a6e3adc590c146c43e47b6]
@startuml
hide circle
class User<actor> {
}
class Administrator<actor> {
}
class ServiceProvider<actor> {
}
class Admin<actor> {
}
class SiteAdmin<actor> {
}
class Administrator {
	post()
	verify()
	view()
	moderate()
}
class Identity {
}
class User {
	read()
	activate()
	add()
	track()
	create()
	have()
	find()
	leave()
	rate()
	make()
	see()
	search()
	start()
	adjust()
	receive()
	reset()
	view()
	report()
	export()
	manage()
}
class Review {
}
class Access {
}
class Notification {
}
class EmailNotificationSetting {
}
class Admin {
	remove()
}
class Investment {
}
class List {
}
class SitePermission {
}
class Article {
}
class SiteDiscussionBoard {
}
class Discussion {
}
class DiscussionBoard {
	using()
}
class TextInput {
}
class TrackingToolData {
}
class Profile {
}
class ServiceProvider {
}
class PropertyInformation {
}
class Password {
}
class Page {
}
class FactorAuthentication {
}
class InvestmentProperty {
}
class SiteBlog {
}
class Performance {
}
class WebsiteUtilizationStatistics {
}
class Account {
}
User - -> Review : leave
Administrator - -> WebsiteUtilizationStatistics : view
User - -> Profile : make
Administrator - -> User : moderate
User - -> Access : have
User - -> Account : create
User - -> ServiceProvider : find
Administrator - -> Article : post
User - -> Notification : receive
User - -> PropertyInformation : add
User - -> EmailNotificationSetting : adjust
User - -> Password : reset
User - -> List : view
User - -> Page : make
Admin - -> User : remove
User - -> Investment : manage
User - -> FactorAuthentication : activate
User - -> User : report
User - -> SiteDiscussionBoard : read
User - -> ServiceProvider : rate
User - -> SitePermission : have
User - -> ServiceProvider : search
User - -> Discussion : start
User - -> InvestmentProperty : track
User - -> SiteBlog : read
DiscussionBoard - -> TextInput : using
Administrator - -> Identity : verify
User - -> Performance : see
User - -> TrackingToolData : export
User - -> Review : read
@enduml

PlantUML version 1.2021.6beta6(Unknown compile time)
(GPL source distribution)
Java Runtime: Java(TM) SE Runtime Environment
JVM: Java HotSpot(TM) 64-Bit Server VM
Default Encoding: UTF-8
Language: en
Country: US
--></g></svg>