<?xml version="1.0" encoding="UTF-8" standalone="no"?><svg xmlns="http://www.w3.org/2000/svg" xmlns:xlink="http://www.w3.org/1999/xlink" contentScriptType="application/ecmascript" contentStyleType="text/css" height="321px" preserveAspectRatio="none" style="width:2827px;height:321px;background:#FFFFFF;" version="1.1" viewBox="0 0 2827 321" width="2827px" zoomAndPan="magnify"><defs><filter height="300%" id="f1ls6y156qc0cw" width="300%" x="-1" y="-1"><feGaussianBlur result="blurOut" stdDeviation="2.0"/><feColorMatrix in="blurOut" result="blurOut2" type="matrix" values="0 0 0 0 0 0 0 0 0 0 0 0 0 0 0 0 0 0 .4 0"/><feOffset dx="4.0" dy="4.0" in="blurOut2" result="blurOut3"/><feBlend in="SourceGraphic" in2="blurOut3" mode="normal"/></filter></defs><g><!--MD5=[3fd616f346a44cd59a91eb10b19e157c]
class User--><rect codeLine="16" fill="#FEFECE" filter="url(#f1ls6y156qc0cw)" height="116.7969" id="User" style="stroke:#A80036;stroke-width:1.5;" width="70" x="354.5" y="42"/><text fill="#000000" font-family="sans-serif" font-size="12" lengthAdjust="spacing" textLength="29" x="357.5" y="58.1387">User</text><rect fill="#FFFFFF" height="15.9688" style="stroke:#000000;stroke-width:1.0;stroke-dasharray:2.0,2.0;" width="33" x="394.5" y="39"/><text fill="#000000" font-family="sans-serif" font-size="12" font-style="italic" lengthAdjust="spacing" textLength="31" x="395.5" y="51.1387">actor</text><line style="stroke:#A80036;stroke-width:1.5;" x1="355.5" x2="423.5" y1="65.9688" y2="65.9688"/><line style="stroke:#A80036;stroke-width:1.5;" x1="355.5" x2="423.5" y1="73.9688" y2="73.9688"/><text fill="#000000" font-family="sans-serif" font-size="11" lengthAdjust="spacing" textLength="55" x="360.5" y="88.1792">manage()</text><text fill="#000000" font-family="sans-serif" font-size="11" lengthAdjust="spacing" textLength="48" x="360.5" y="100.9839">update()</text><text fill="#000000" font-family="sans-serif" font-size="11" lengthAdjust="spacing" textLength="47" x="360.5" y="113.7886">access()</text><text fill="#000000" font-family="sans-serif" font-size="11" lengthAdjust="spacing" textLength="46" x="360.5" y="126.5933">delete()</text><text fill="#000000" font-family="sans-serif" font-size="11" lengthAdjust="spacing" textLength="37" x="360.5" y="139.3979">block()</text><text fill="#000000" font-family="sans-serif" font-size="11" lengthAdjust="spacing" textLength="42" x="360.5" y="152.2026">report()</text><!--MD5=[9dd4eaa2771a2ff8dbee15cc1e732cab]
class Patient--><rect codeLine="26" fill="#FEFECE" filter="url(#f1ls6y156qc0cw)" height="180.8203" id="Patient" style="stroke:#A80036;stroke-width:1.5;" width="80" x="1298.5" y="10"/><text fill="#000000" font-family="sans-serif" font-size="12" lengthAdjust="spacing" textLength="39" x="1301.5" y="26.1387">Patient</text><rect fill="#FFFFFF" height="15.9688" style="stroke:#000000;stroke-width:1.0;stroke-dasharray:2.0,2.0;" width="33" x="1348.5" y="7"/><text fill="#000000" font-family="sans-serif" font-size="12" font-style="italic" lengthAdjust="spacing" textLength="31" x="1349.5" y="19.1387">actor</text><line style="stroke:#A80036;stroke-width:1.5;" x1="1299.5" x2="1377.5" y1="33.9688" y2="33.9688"/><line style="stroke:#A80036;stroke-width:1.5;" x1="1299.5" x2="1377.5" y1="41.9688" y2="41.9688"/><text fill="#000000" font-family="sans-serif" font-size="11" lengthAdjust="spacing" textLength="60" x="1304.5" y="56.1792">attended()</text><text fill="#000000" font-family="sans-serif" font-size="11" lengthAdjust="spacing" textLength="28" x="1304.5" y="68.9839">has()</text><text fill="#000000" font-family="sans-serif" font-size="11" lengthAdjust="spacing" textLength="49" x="1304.5" y="81.7886">contact()</text><text fill="#000000" font-family="sans-serif" font-size="11" lengthAdjust="spacing" textLength="36" x="1304.5" y="94.5933">send()</text><text fill="#000000" font-family="sans-serif" font-size="11" lengthAdjust="spacing" textLength="29" x="1304.5" y="107.3979">add()</text><text fill="#000000" font-family="sans-serif" font-size="11" lengthAdjust="spacing" textLength="37" x="1304.5" y="120.2026">have()</text><text fill="#000000" font-family="sans-serif" font-size="11" lengthAdjust="spacing" textLength="47" x="1304.5" y="133.0073">posted()</text><text fill="#000000" font-family="sans-serif" font-size="11" lengthAdjust="spacing" textLength="28" x="1304.5" y="145.812">pull()</text><text fill="#000000" font-family="sans-serif" font-size="11" lengthAdjust="spacing" textLength="27" x="1304.5" y="158.6167">get()</text><text fill="#000000" font-family="sans-serif" font-size="11" lengthAdjust="spacing" textLength="61" x="1304.5" y="171.4214">message()</text><text fill="#000000" font-family="sans-serif" font-size="11" lengthAdjust="spacing" textLength="40" x="1304.5" y="184.2261">share()</text><!--MD5=[1372b0db8a45810a4635c25f853d4d30]
class Support--><rect codeLine="6" fill="#FEFECE" filter="url(#f1ls6y156qc0cw)" height="39.9688" id="Support" style="stroke:#A80036;stroke-width:1.5;" width="89" x="8" y="80.5"/><text fill="#000000" font-family="sans-serif" font-size="12" lengthAdjust="spacing" textLength="48" x="11" y="96.6387">Support</text><rect fill="#FFFFFF" height="15.9688" style="stroke:#000000;stroke-width:1.0;stroke-dasharray:2.0,2.0;" width="33" x="67" y="77.5"/><text fill="#000000" font-family="sans-serif" font-size="12" font-style="italic" lengthAdjust="spacing" textLength="31" x="68" y="89.6387">actor</text><line style="stroke:#A80036;stroke-width:1.5;" x1="9" x2="96" y1="104.4688" y2="104.4688"/><line style="stroke:#A80036;stroke-width:1.5;" x1="9" x2="96" y1="112.4688" y2="112.4688"/><!--MD5=[da547346deef918ea16944ba046651ef]
class Administrator--><rect codeLine="93" fill="#FEFECE" filter="url(#f1ls6y156qc0cw)" height="52.7734" id="Administrator" style="stroke:#A80036;stroke-width:1.5;" width="121" x="1956" y="74"/><text fill="#000000" font-family="sans-serif" font-size="12" lengthAdjust="spacing" textLength="80" x="1959" y="90.1387">Administrator</text><rect fill="#FFFFFF" height="15.9688" style="stroke:#000000;stroke-width:1.0;stroke-dasharray:2.0,2.0;" width="33" x="2047" y="71"/><text fill="#000000" font-family="sans-serif" font-size="12" font-style="italic" lengthAdjust="spacing" textLength="31" x="2048" y="83.1387">actor</text><line style="stroke:#A80036;stroke-width:1.5;" x1="1957" x2="2076" y1="97.9688" y2="97.9688"/><line style="stroke:#A80036;stroke-width:1.5;" x1="1957" x2="2076" y1="105.9688" y2="105.9688"/><text fill="#000000" font-family="sans-serif" font-size="11" lengthAdjust="spacing" textLength="63" x="1962" y="120.1792">suspense()</text><!--MD5=[f3d1356aba08e5323d0044b15abb886b]
class Family--><rect codeLine="10" fill="#FEFECE" filter="url(#f1ls6y156qc0cw)" height="39.9688" id="Family" style="stroke:#A80036;stroke-width:1.5;" width="79" x="132" y="80.5"/><text fill="#000000" font-family="sans-serif" font-size="12" lengthAdjust="spacing" textLength="38" x="135" y="96.6387">Family</text><rect fill="#FFFFFF" height="15.9688" style="stroke:#000000;stroke-width:1.0;stroke-dasharray:2.0,2.0;" width="33" x="181" y="77.5"/><text fill="#000000" font-family="sans-serif" font-size="12" font-style="italic" lengthAdjust="spacing" textLength="31" x="182" y="89.6387">actor</text><line style="stroke:#A80036;stroke-width:1.5;" x1="133" x2="210" y1="104.4688" y2="104.4688"/><line style="stroke:#A80036;stroke-width:1.5;" x1="133" x2="210" y1="112.4688" y2="112.4688"/><!--MD5=[f58fd777f29c17413488bea9e7cfcca3]
class Member--><rect codeLine="12" fill="#FEFECE" filter="url(#f1ls6y156qc0cw)" height="39.9688" id="Member" style="stroke:#A80036;stroke-width:1.5;" width="91" x="7" y="268"/><text fill="#000000" font-family="sans-serif" font-size="12" lengthAdjust="spacing" textLength="50" x="10" y="284.1387">Member</text><rect fill="#FFFFFF" height="15.9688" style="stroke:#000000;stroke-width:1.0;stroke-dasharray:2.0,2.0;" width="33" x="68" y="265"/><text fill="#000000" font-family="sans-serif" font-size="12" font-style="italic" lengthAdjust="spacing" textLength="31" x="69" y="277.1387">actor</text><line style="stroke:#A80036;stroke-width:1.5;" x1="8" x2="97" y1="291.9688" y2="291.9688"/><line style="stroke:#A80036;stroke-width:1.5;" x1="8" x2="97" y1="299.9688" y2="299.9688"/><!--MD5=[db6d18d8099558415abc41d00477ab92]
class Admin--><rect codeLine="60" fill="#FEFECE" filter="url(#f1ls6y156qc0cw)" height="65.5781" id="Admin" style="stroke:#A80036;stroke-width:1.5;" width="78" x="2176.5" y="67.5"/><text fill="#000000" font-family="sans-serif" font-size="12" lengthAdjust="spacing" textLength="37" x="2179.5" y="83.6387">Admin</text><rect fill="#FFFFFF" height="15.9688" style="stroke:#000000;stroke-width:1.0;stroke-dasharray:2.0,2.0;" width="33" x="2224.5" y="64.5"/><text fill="#000000" font-family="sans-serif" font-size="12" font-style="italic" lengthAdjust="spacing" textLength="31" x="2225.5" y="76.6387">actor</text><line style="stroke:#A80036;stroke-width:1.5;" x1="2177.5" x2="2253.5" y1="91.4688" y2="91.4688"/><line style="stroke:#A80036;stroke-width:1.5;" x1="2177.5" x2="2253.5" y1="99.4688" y2="99.4688"/><text fill="#000000" font-family="sans-serif" font-size="11" lengthAdjust="spacing" textLength="35" x="2182.5" y="113.6792">view()</text><text fill="#000000" font-family="sans-serif" font-size="11" lengthAdjust="spacing" textLength="32" x="2182.5" y="126.4839">post()</text><!--MD5=[7b57f7066b803747d2119f99dd1555d4]
class Profile--><rect codeLine="24" fill="#FEFECE" filter="url(#f1ls6y156qc0cw)" height="39.9688" id="Profile" style="stroke:#A80036;stroke-width:1.5;" width="43" x="133" y="268"/><text fill="#000000" font-family="sans-serif" font-size="12" lengthAdjust="spacing" textLength="37" x="136" y="284.1387">Profile</text><line style="stroke:#A80036;stroke-width:1.5;" x1="134" x2="175" y1="291.9688" y2="291.9688"/><line style="stroke:#A80036;stroke-width:1.5;" x1="134" x2="175" y1="299.9688" y2="299.9688"/><!--MD5=[ac13618b1a974308c1f12eb6c57723dc]
class Event--><rect codeLine="39" fill="#FEFECE" filter="url(#f1ls6y156qc0cw)" height="39.9688" id="Event" style="stroke:#A80036;stroke-width:1.5;" width="39" x="1123" y="268"/><text fill="#000000" font-family="sans-serif" font-size="12" lengthAdjust="spacing" textLength="33" x="1126" y="284.1387">Event</text><line style="stroke:#A80036;stroke-width:1.5;" x1="1124" x2="1161" y1="291.9688" y2="291.9688"/><line style="stroke:#A80036;stroke-width:1.5;" x1="1124" x2="1161" y1="299.9688" y2="299.9688"/><!--MD5=[91837343f19ad6bb47ed4fe22d7145fa]
class Invitation--><rect codeLine="41" fill="#FEFECE" filter="url(#f1ls6y156qc0cw)" height="39.9688" id="Invitation" style="stroke:#A80036;stroke-width:1.5;" width="59" x="1229" y="268"/><text fill="#000000" font-family="sans-serif" font-size="12" lengthAdjust="spacing" textLength="53" x="1232" y="284.1387">Invitation</text><line style="stroke:#A80036;stroke-width:1.5;" x1="1230" x2="1287" y1="291.9688" y2="291.9688"/><line style="stroke:#A80036;stroke-width:1.5;" x1="1230" x2="1287" y1="299.9688" y2="299.9688"/><!--MD5=[d01592ef2be16addf54c921e7bc91bd9]
class Junk--><rect codeLine="43" fill="#FEFECE" filter="url(#f1ls6y156qc0cw)" height="39.9688" id="Junk" style="stroke:#A80036;stroke-width:1.5;" width="31" x="218" y="268"/><text fill="#000000" font-family="sans-serif" font-size="12" lengthAdjust="spacing" textLength="25" x="221" y="284.1387">Junk</text><line style="stroke:#A80036;stroke-width:1.5;" x1="219" x2="248" y1="291.9688" y2="291.9688"/><line style="stroke:#A80036;stroke-width:1.5;" x1="219" x2="248" y1="299.9688" y2="299.9688"/><!--MD5=[c1ab94e7e41838408b6a4d073da94126]
class member--><rect codeLine="45" fill="#FEFECE" filter="url(#f1ls6y156qc0cw)" height="78.3828" id="member" style="stroke:#A80036;stroke-width:1.5;" width="64" x="2509.5" y="61.5"/><text fill="#000000" font-family="sans-serif" font-size="12" lengthAdjust="spacing" textLength="51" x="2516" y="77.6387">member</text><line style="stroke:#A80036;stroke-width:1.5;" x1="2510.5" x2="2572.5" y1="85.4688" y2="85.4688"/><line style="stroke:#A80036;stroke-width:1.5;" x1="2510.5" x2="2572.5" y1="93.4688" y2="93.4688"/><text fill="#000000" font-family="sans-serif" font-size="11" lengthAdjust="spacing" textLength="52" x="2515.5" y="107.6792">receive()</text><text fill="#000000" font-family="sans-serif" font-size="11" lengthAdjust="spacing" textLength="27" x="2515.5" y="120.4839">get()</text><text fill="#000000" font-family="sans-serif" font-size="11" lengthAdjust="spacing" textLength="36" x="2515.5" y="133.2886">send()</text><!--MD5=[d189332174d53557e6def82bbd003869]
class Link--><rect codeLine="50" fill="#FEFECE" filter="url(#f1ls6y156qc0cw)" height="39.9688" id="Link" style="stroke:#A80036;stroke-width:1.5;" width="29" x="2394" y="268"/><text fill="#000000" font-family="sans-serif" font-size="12" lengthAdjust="spacing" textLength="23" x="2397" y="284.1387">Link</text><line style="stroke:#A80036;stroke-width:1.5;" x1="2395" x2="2422" y1="291.9688" y2="291.9688"/><line style="stroke:#A80036;stroke-width:1.5;" x1="2395" x2="2422" y1="299.9688" y2="299.9688"/><!--MD5=[bea5b0d46523efab5ea1c1d339f396f0]
class Message--><rect codeLine="52" fill="#FEFECE" filter="url(#f1ls6y156qc0cw)" height="39.9688" id="Message" style="stroke:#A80036;stroke-width:1.5;" width="61" x="284" y="268"/><text fill="#000000" font-family="sans-serif" font-size="12" lengthAdjust="spacing" textLength="55" x="287" y="284.1387">Message</text><line style="stroke:#A80036;stroke-width:1.5;" x1="285" x2="344" y1="291.9688" y2="291.9688"/><line style="stroke:#A80036;stroke-width:1.5;" x1="285" x2="344" y1="299.9688" y2="299.9688"/><!--MD5=[f572c118330f78587a09a8d1323f8ced]
class Calendar--><rect codeLine="54" fill="#FEFECE" filter="url(#f1ls6y156qc0cw)" height="39.9688" id="Calendar" style="stroke:#A80036;stroke-width:1.5;" width="59" x="1323" y="268"/><text fill="#000000" font-family="sans-serif" font-size="12" lengthAdjust="spacing" textLength="53" x="1326" y="284.1387">Calendar</text><line style="stroke:#A80036;stroke-width:1.5;" x1="1324" x2="1381" y1="291.9688" y2="291.9688"/><line style="stroke:#A80036;stroke-width:1.5;" x1="1324" x2="1381" y1="299.9688" y2="299.9688"/><!--MD5=[4dacec96385027edaceac523b151f134]
class members--><rect codeLine="56" fill="#FEFECE" filter="url(#f1ls6y156qc0cw)" height="39.9688" id="members" style="stroke:#A80036;stroke-width:1.5;" width="64" x="380.5" y="268"/><text fill="#000000" font-family="sans-serif" font-size="12" lengthAdjust="spacing" textLength="58" x="383.5" y="284.1387">members</text><line style="stroke:#A80036;stroke-width:1.5;" x1="381.5" x2="443.5" y1="291.9688" y2="291.9688"/><line style="stroke:#A80036;stroke-width:1.5;" x1="381.5" x2="443.5" y1="299.9688" y2="299.9688"/><!--MD5=[c508b5b6bbe276ff5e2700b6641f837f]
class Appointment--><rect codeLine="58" fill="#FEFECE" filter="url(#f1ls6y156qc0cw)" height="39.9688" id="Appointment" style="stroke:#A80036;stroke-width:1.5;" width="82" x="1417.5" y="268"/><text fill="#000000" font-family="sans-serif" font-size="12" lengthAdjust="spacing" textLength="76" x="1420.5" y="284.1387">Appointment</text><line style="stroke:#A80036;stroke-width:1.5;" x1="1418.5" x2="1498.5" y1="291.9688" y2="291.9688"/><line style="stroke:#A80036;stroke-width:1.5;" x1="1418.5" x2="1498.5" y1="299.9688" y2="299.9688"/><!--MD5=[3d4177ac58b4411586d067f34e84928f]
class List--><rect codeLine="64" fill="#FEFECE" filter="url(#f1ls6y156qc0cw)" height="39.9688" id="List" style="stroke:#A80036;stroke-width:1.5;" width="26" x="2106.5" y="268"/><text fill="#000000" font-family="sans-serif" font-size="12" lengthAdjust="spacing" textLength="20" x="2109.5" y="284.1387">List</text><line style="stroke:#A80036;stroke-width:1.5;" x1="2107.5" x2="2131.5" y1="291.9688" y2="291.9688"/><line style="stroke:#A80036;stroke-width:1.5;" x1="2107.5" x2="2131.5" y1="299.9688" y2="299.9688"/><!--MD5=[b34797a66dc35cbf1d65f7e3ca75530e]
class Task--><rect codeLine="66" fill="#FEFECE" filter="url(#f1ls6y156qc0cw)" height="39.9688" id="Task" style="stroke:#A80036;stroke-width:1.5;" width="34" x="1534.5" y="268"/><text fill="#000000" font-family="sans-serif" font-size="12" lengthAdjust="spacing" textLength="28" x="1537.5" y="284.1387">Task</text><line style="stroke:#A80036;stroke-width:1.5;" x1="1535.5" x2="1567.5" y1="291.9688" y2="291.9688"/><line style="stroke:#A80036;stroke-width:1.5;" x1="1535.5" x2="1567.5" y1="299.9688" y2="299.9688"/><!--MD5=[76b5e19c9337179d2d7ae334371d68c8]
class Notification--><rect codeLine="68" fill="#FEFECE" filter="url(#f1ls6y156qc0cw)" height="39.9688" id="Notification" style="stroke:#A80036;stroke-width:1.5;" width="72" x="2458.5" y="268"/><text fill="#000000" font-family="sans-serif" font-size="12" lengthAdjust="spacing" textLength="66" x="2461.5" y="284.1387">Notification</text><line style="stroke:#A80036;stroke-width:1.5;" x1="2459.5" x2="2529.5" y1="291.9688" y2="291.9688"/><line style="stroke:#A80036;stroke-width:1.5;" x1="2459.5" x2="2529.5" y1="299.9688" y2="299.9688"/><!--MD5=[f9a29335b499db729be669fd1bd54958]
class Account--><rect codeLine="70" fill="#FEFECE" filter="url(#f1ls6y156qc0cw)" height="39.9688" id="Account" style="stroke:#A80036;stroke-width:1.5;" width="54" x="479.5" y="268"/><text fill="#000000" font-family="sans-serif" font-size="12" lengthAdjust="spacing" textLength="48" x="482.5" y="284.1387">Account</text><line style="stroke:#A80036;stroke-width:1.5;" x1="480.5" x2="532.5" y1="291.9688" y2="291.9688"/><line style="stroke:#A80036;stroke-width:1.5;" x1="480.5" x2="532.5" y1="299.9688" y2="299.9688"/><!--MD5=[b76c921dec148580e221480ea486da2a]
class Friend--><rect codeLine="72" fill="#FEFECE" filter="url(#f1ls6y156qc0cw)" height="39.9688" id="Friend" style="stroke:#A80036;stroke-width:1.5;" width="44" x="1609.5" y="268"/><text fill="#000000" font-family="sans-serif" font-size="12" lengthAdjust="spacing" textLength="38" x="1612.5" y="284.1387">Friend</text><line style="stroke:#A80036;stroke-width:1.5;" x1="1610.5" x2="1652.5" y1="291.9688" y2="291.9688"/><line style="stroke:#A80036;stroke-width:1.5;" x1="1610.5" x2="1652.5" y1="299.9688" y2="299.9688"/><!--MD5=[04df7bfd972d2d3ea0273e95b66a80a5]
class Announcement--><rect codeLine="74" fill="#FEFECE" filter="url(#f1ls6y156qc0cw)" height="39.9688" id="Announcement" style="stroke:#A80036;stroke-width:1.5;" width="95" x="2168" y="268"/><text fill="#000000" font-family="sans-serif" font-size="12" lengthAdjust="spacing" textLength="89" x="2171" y="284.1387">Announcement</text><line style="stroke:#A80036;stroke-width:1.5;" x1="2169" x2="2262" y1="291.9688" y2="291.9688"/><line style="stroke:#A80036;stroke-width:1.5;" x1="2169" x2="2262" y1="299.9688" y2="299.9688"/><!--MD5=[5cdf5007a7931426b408c5d6fc2e1f01]
class Messaging--><rect codeLine="76" fill="#FEFECE" filter="url(#f1ls6y156qc0cw)" height="39.9688" id="Messaging" style="stroke:#A80036;stroke-width:1.5;" width="71" x="1692" y="268"/><text fill="#000000" font-family="sans-serif" font-size="12" lengthAdjust="spacing" textLength="65" x="1695" y="284.1387">Messaging</text><line style="stroke:#A80036;stroke-width:1.5;" x1="1693" x2="1762" y1="291.9688" y2="291.9688"/><line style="stroke:#A80036;stroke-width:1.5;" x1="1693" x2="1762" y1="299.9688" y2="299.9688"/><!--MD5=[46d3da454668c9651b5b64aea62c92af]
class CalendarEvent--><rect codeLine="78" fill="#FEFECE" filter="url(#f1ls6y156qc0cw)" height="39.9688" id="CalendarEvent" style="stroke:#A80036;stroke-width:1.5;" width="92" x="1798.5" y="268"/><text fill="#000000" font-family="sans-serif" font-size="12" lengthAdjust="spacing" textLength="86" x="1801.5" y="284.1387">CalendarEvent</text><line style="stroke:#A80036;stroke-width:1.5;" x1="1799.5" x2="1889.5" y1="291.9688" y2="291.9688"/><line style="stroke:#A80036;stroke-width:1.5;" x1="1799.5" x2="1889.5" y1="299.9688" y2="299.9688"/><!--MD5=[08dbe06e87f91eb667838fe2f259c34a]
class Money--><rect codeLine="80" fill="#FEFECE" filter="url(#f1ls6y156qc0cw)" height="39.9688" id="Money" style="stroke:#A80036;stroke-width:1.5;" width="46" x="2565.5" y="268"/><text fill="#000000" font-family="sans-serif" font-size="12" lengthAdjust="spacing" textLength="40" x="2568.5" y="284.1387">Money</text><line style="stroke:#A80036;stroke-width:1.5;" x1="2566.5" x2="2610.5" y1="291.9688" y2="291.9688"/><line style="stroke:#A80036;stroke-width:1.5;" x1="2566.5" x2="2610.5" y1="299.9688" y2="299.9688"/><!--MD5=[99e07dfb23cbce7e3835f47d20f0f5cf]
class SupportGroup--><rect codeLine="82" fill="#FEFECE" filter="url(#f1ls6y156qc0cw)" height="52.7734" id="SupportGroup" style="stroke:#A80036;stroke-width:1.5;" width="91" x="2722" y="74"/><text fill="#000000" font-family="sans-serif" font-size="12" lengthAdjust="spacing" textLength="85" x="2725" y="90.1387">SupportGroup</text><line style="stroke:#A80036;stroke-width:1.5;" x1="2723" x2="2812" y1="97.9688" y2="97.9688"/><line style="stroke:#A80036;stroke-width:1.5;" x1="2723" x2="2812" y1="105.9688" y2="105.9688"/><text fill="#000000" font-family="sans-serif" font-size="11" lengthAdjust="spacing" textLength="47" x="2728" y="120.1792">access()</text><!--MD5=[ea03bdbd065578ac5244a06dd30cb289]
class kind--><rect codeLine="85" fill="#FEFECE" filter="url(#f1ls6y156qc0cw)" height="39.9688" id="kind" style="stroke:#A80036;stroke-width:1.5;" width="31" x="2752" y="268"/><text fill="#000000" font-family="sans-serif" font-size="12" lengthAdjust="spacing" textLength="25" x="2755" y="284.1387">kind</text><line style="stroke:#A80036;stroke-width:1.5;" x1="2753" x2="2782" y1="291.9688" y2="291.9688"/><line style="stroke:#A80036;stroke-width:1.5;" x1="2753" x2="2782" y1="299.9688" y2="299.9688"/><!--MD5=[2053f490fa4847b7d50893a5306c8fae]
class AdMessage--><rect codeLine="87" fill="#FEFECE" filter="url(#f1ls6y156qc0cw)" height="39.9688" id="AdMessage" style="stroke:#A80036;stroke-width:1.5;" width="77" x="569" y="268"/><text fill="#000000" font-family="sans-serif" font-size="12" lengthAdjust="spacing" textLength="71" x="572" y="284.1387">AdMessage</text><line style="stroke:#A80036;stroke-width:1.5;" x1="570" x2="645" y1="291.9688" y2="291.9688"/><line style="stroke:#A80036;stroke-width:1.5;" x1="570" x2="645" y1="299.9688" y2="299.9688"/><!--MD5=[40d2668bbcd459976779c45dfe17221f]
class Statistics--><rect codeLine="89" fill="#FEFECE" filter="url(#f1ls6y156qc0cw)" height="39.9688" id="Statistics" style="stroke:#A80036;stroke-width:1.5;" width="60" x="2298.5" y="268"/><text fill="#000000" font-family="sans-serif" font-size="12" lengthAdjust="spacing" textLength="54" x="2301.5" y="284.1387">Statistics</text><line style="stroke:#A80036;stroke-width:1.5;" x1="2299.5" x2="2357.5" y1="291.9688" y2="291.9688"/><line style="stroke:#A80036;stroke-width:1.5;" x1="2299.5" x2="2357.5" y1="299.9688" y2="299.9688"/><!--MD5=[30fd7b95ab383a5e7c83ea23d4ea0fbf]
class Information--><rect codeLine="91" fill="#FEFECE" filter="url(#f1ls6y156qc0cw)" height="39.9688" id="Information" style="stroke:#A80036;stroke-width:1.5;" width="73" x="833" y="268"/><text fill="#000000" font-family="sans-serif" font-size="12" lengthAdjust="spacing" textLength="67" x="836" y="284.1387">Information</text><line style="stroke:#A80036;stroke-width:1.5;" x1="834" x2="905" y1="291.9688" y2="291.9688"/><line style="stroke:#A80036;stroke-width:1.5;" x1="834" x2="905" y1="299.9688" y2="299.9688"/><!--MD5=[466d2dab18863e33ee0825aa5cd16315]
class HealthCondition--><rect codeLine="96" fill="#FEFECE" filter="url(#f1ls6y156qc0cw)" height="39.9688" id="HealthCondition" style="stroke:#A80036;stroke-width:1.5;" width="100" x="1925.5" y="268"/><text fill="#000000" font-family="sans-serif" font-size="12" lengthAdjust="spacing" textLength="94" x="1928.5" y="284.1387">HealthCondition</text><line style="stroke:#A80036;stroke-width:1.5;" x1="1926.5" x2="2024.5" y1="291.9688" y2="291.9688"/><line style="stroke:#A80036;stroke-width:1.5;" x1="1926.5" x2="2024.5" y1="299.9688" y2="299.9688"/><!--MD5=[6b13f1b330d33795af281e5c1dfe1e98]
class Resource--><rect codeLine="98" fill="#FEFECE" filter="url(#f1ls6y156qc0cw)" height="39.9688" id="Resource" style="stroke:#A80036;stroke-width:1.5;" width="63" x="2647" y="268"/><text fill="#000000" font-family="sans-serif" font-size="12" lengthAdjust="spacing" textLength="57" x="2650" y="284.1387">Resource</text><line style="stroke:#A80036;stroke-width:1.5;" x1="2648" x2="2709" y1="291.9688" y2="291.9688"/><line style="stroke:#A80036;stroke-width:1.5;" x1="2648" x2="2709" y1="299.9688" y2="299.9688"/><!--MD5=[476399e0028f8378b22438544fe03a66]
link Patient to Information--><path codeLine="100" d="M1298.3,119.245 C1236.93,146.116 1115.99,198.209 1011.5,238 C977.978,250.7656 939.487,263.9586 911.042,273.4346 " fill="none" id="Patient-to-Information" style="stroke:#A80036;stroke-width:1.0;"/><polygon fill="#A80036" points="906.21,275.0411,916.0123,275.998,910.9547,273.4639,913.4888,268.4064,906.21,275.0411" style="stroke:#A80036;stroke-width:1.0;"/><text fill="#000000" font-family="sans-serif" font-size="13" lengthAdjust="spacing" textLength="21" x="1048.5" y="234.0669">get</text><!--MD5=[3f83b2c02ba7b82a5614d810b0135429]
link Patient to Calendar--><path codeLine="101" d="M1345.27,191.261 C1347.26,217.6354 1349.28,244.332 1350.67,262.809 " fill="none" id="Patient-to-Calendar" style="stroke:#A80036;stroke-width:1.0;"/><polygon fill="#A80036" points="1351.05,267.7954,1354.3613,258.5199,1350.6737,262.8096,1346.384,259.122,1351.05,267.7954" style="stroke:#A80036;stroke-width:1.0;"/><text fill="#000000" font-family="sans-serif" font-size="13" lengthAdjust="spacing" textLength="36" x="1350.5" y="234.0669">share</text><!--MD5=[e8a44440e7d883fedaa906df2c0e3d75]
link User to Message--><path codeLine="102" d="M366.181,159.177 C352.012,194.22 334.676,237.0968 324.118,263.212 " fill="none" id="User-to-Message" style="stroke:#A80036;stroke-width:1.0;"/><polygon fill="#A80036" points="322.227,267.8875,329.3089,261.043,324.1012,263.252,321.8922,258.0443,322.227,267.8875" style="stroke:#A80036;stroke-width:1.0;"/><text fill="#000000" font-family="sans-serif" font-size="13" lengthAdjust="spacing" textLength="33" x="342.5" y="234.0669">block</text><!--MD5=[cb6cacb86706513405edfabcbb08067b]
link Patient to Event--><path codeLine="103" d="M1298.46,109.28 C1244.76,122.101 1151.44,153.317 1110.5,221 C1102.27,234.6069 1109.68,250.6444 1119.44,263.5031 " fill="none" id="Patient-to-Event" style="stroke:#A80036;stroke-width:1.0;"/><polygon fill="#A80036" points="1122.82,267.7339,1120.3212,258.2073,1119.6965,263.8296,1114.0743,263.2049,1122.82,267.7339" style="stroke:#A80036;stroke-width:1.0;"/><text fill="#000000" font-family="sans-serif" font-size="13" lengthAdjust="spacing" textLength="44" x="1111.5" y="234.0669">posted</text><!--MD5=[cb6cacb86706513405edfabcbb08067b]
link Patient to Event--><path codeLine="117" d="M1298.36,139.486 C1258.54,177.173 1198.87,233.6539 1166.11,264.6528 " fill="none" id="Patient-to-Event-1" style="stroke:#A80036;stroke-width:1.0;"/><polygon fill="#A80036" points="1162.25,268.3039,1171.5334,265.0147,1165.8786,264.8639,1166.0294,259.2091,1162.25,268.3039" style="stroke:#A80036;stroke-width:1.0;"/><text fill="#000000" font-family="sans-serif" font-size="13" lengthAdjust="spacing" textLength="58" x="1212.5" y="234.0669">attended</text><!--MD5=[9f8933b7956579e11faa4fb1fad64c81]
link User to members--><path codeLine="104" d="M381.564,159.028 C379.868,183.676 380.174,212.5828 386.5,238 C388.657,246.6677 392.664,255.4867 396.897,263.2096 " fill="none" id="User-to-members" style="stroke:#A80036;stroke-width:1.0;"/><polygon fill="#A80036" points="399.548,267.8654,398.572,258.065,397.0745,263.5201,391.6195,262.0226,399.548,267.8654" style="stroke:#A80036;stroke-width:1.0;"/><text fill="#000000" font-family="sans-serif" font-size="13" lengthAdjust="spacing" textLength="53" x="387.5" y="234.0669">manage</text><!--MD5=[9d661380b54d9bff4ee137bc0bb1b8a2]
link User to Information--><path codeLine="105" d="M424.756,124.467 C472.65,154.69 561.806,207.537 644.5,238 C706.268,260.7542 781.658,274.5086 827.595,281.4273 " fill="none" id="User-to-Information" style="stroke:#A80036;stroke-width:1.0;"/><polygon fill="#A80036" points="832.773,282.1969,824.4595,276.9162,827.8274,281.4612,823.2824,284.8291,832.773,282.1969" style="stroke:#A80036;stroke-width:1.0;"/><text fill="#000000" font-family="sans-serif" font-size="13" lengthAdjust="spacing" textLength="45" x="645.5" y="234.0669">update</text><!--MD5=[11fb3861e08ab9014ebee506c327af7d]
link Patient to Friend--><path codeLine="106" d="M1378.69,121.983 C1421.78,144.493 1491.69,182.582 1548.5,221 C1568.32,234.4047 1589.41,251.2124 1605.38,264.5115 " fill="none" id="Patient-to-Friend" style="stroke:#A80036;stroke-width:1.0;"/><polygon fill="#A80036" points="1609.32,267.8129,1604.9933,258.9653,1605.4885,264.6005,1599.8534,265.0957,1609.32,267.8129" style="stroke:#A80036;stroke-width:1.0;"/><text fill="#000000" font-family="sans-serif" font-size="13" lengthAdjust="spacing" textLength="59" x="1571.5" y="234.0669">message</text><!--MD5=[11fb3861e08ab9014ebee506c327af7d]
link Patient to Friend--><path codeLine="111" d="M1378.63,103.83 C1445.98,110.156 1580.21,133.664 1639.5,221 C1647.76,233.162 1645.82,249.5581 1641.78,262.9653 " fill="none" id="Patient-to-Friend-1" style="stroke:#A80036;stroke-width:1.0;"/><polygon fill="#A80036" points="1640.22,267.7562,1646.8159,260.4423,1641.7719,263.0032,1639.2111,257.9592,1640.22,267.7562" style="stroke:#A80036;stroke-width:1.0;"/><text fill="#000000" font-family="sans-serif" font-size="13" lengthAdjust="spacing" textLength="22" x="1646.5" y="234.0669">pull</text><!--MD5=[b27dcfc3b359db2263782af9766b36fc]
link Patient to Invitation--><path codeLine="107" d="M1299.79,191.261 C1288.41,217.6354 1276.9,244.332 1268.93,262.809 " fill="none" id="Patient-to-Invitation" style="stroke:#A80036;stroke-width:1.0;"/><polygon fill="#A80036" points="1266.78,267.7954,1274.0201,261.1185,1268.7621,263.2051,1266.6756,257.9471,1266.78,267.7954" style="stroke:#A80036;stroke-width:1.0;"/><text fill="#000000" font-family="sans-serif" font-size="13" lengthAdjust="spacing" textLength="36" x="1288.5" y="234.0669">share</text><!--MD5=[06b011e000f56fac8c11b4b408d55f67]
link Administrator to Account--><path codeLine="108" d="M2002.42,127.142 C1982.87,159.807 1944.1,214.8018 1893.5,238 C1757.92,300.157 697.343,236.7724 551.5,268 C547.115,268.9388 542.622,270.3004 538.253,271.87 " fill="none" id="Administrator-to-Account" style="stroke:#A80036;stroke-width:1.0;"/><polygon fill="#A80036" points="533.57,273.6447,543.4034,274.1965,538.2457,271.8732,540.569,266.7155,533.57,273.6447" style="stroke:#A80036;stroke-width:1.0;"/><text fill="#000000" font-family="sans-serif" font-size="13" lengthAdjust="spacing" textLength="61" x="1920.5" y="234.0669">suspense</text><!--MD5=[7b8e7edcd25d6aa0d651839237af6aba]
link Admin to Announcement--><path codeLine="109" d="M2215.5,133.812 C2215.5,170.564 2215.5,229.7411 2215.5,262.7536 " fill="none" id="Admin-to-Announcement" style="stroke:#A80036;stroke-width:1.0;"/><polygon fill="#A80036" points="2215.5,267.8198,2219.5,258.8198,2215.5,262.8198,2211.5,258.8198,2215.5,267.8198" style="stroke:#A80036;stroke-width:1.0;"/><text fill="#000000" font-family="sans-serif" font-size="13" lengthAdjust="spacing" textLength="28" x="2216.5" y="234.0669">post</text><!--MD5=[1daed810571f157784195d6aff3fa27d]
link Patient to members--><path codeLine="110" d="M1298.4,109.396 C1218.08,125.78 1032.29,166.537 882.5,221 C865.871,227.0463 863.602,233.4602 846.5,238 C680.615,282.0351 628.848,229.9031 461.5,268 C457.472,268.9171 453.335,270.1042 449.255,271.4371 " fill="none" id="Patient-to-members" style="stroke:#A80036;stroke-width:1.0;"/><polygon fill="#A80036" points="444.501,273.0613,454.3107,273.9382,449.2327,271.4455,451.7254,266.3675,444.501,273.0613" style="stroke:#A80036;stroke-width:1.0;"/><text fill="#000000" font-family="sans-serif" font-size="13" lengthAdjust="spacing" textLength="59" x="883.5" y="234.0669">message</text><!--MD5=[1daed810571f157784195d6aff3fa27d]
link Patient to members--><path codeLine="113" d="M1298.39,112.471 C1231.18,131.378 1092.11,172.748 979.5,221 C964.697,227.343 963,233.627 947.5,238 C739.22,296.7641 672.893,221.6647 461.5,268 C457.615,268.8516 453.632,269.9642 449.697,271.2241 " fill="none" id="Patient-to-members-1" style="stroke:#A80036;stroke-width:1.0;"/><polygon fill="#A80036" points="444.75,272.8902,454.5559,273.8087,449.4885,271.2945,452.0027,266.227,444.75,272.8902" style="stroke:#A80036;stroke-width:1.0;"/><text fill="#000000" font-family="sans-serif" font-size="13" lengthAdjust="spacing" textLength="22" x="980.5" y="234.0669">pull</text><!--MD5=[1503cfb9e49873958d6a2233129525cf]
link Patient to Profile--><path codeLine="112" d="M1298.47,105.205 C1199.27,115.26 935.064,147.404 727.5,221 C712.321,226.3819 711.002,233.6356 695.5,238 C483.344,297.7297 415.293,218.5868 200.5,268 C193.924,269.5128 187.079,271.8707 180.742,274.4174 " fill="none" id="Patient-to-Profile" style="stroke:#A80036;stroke-width:1.0;"/><polygon fill="#A80036" points="176.008,276.3907,185.8542,276.6191,180.6229,274.4665,182.7755,269.2352,176.008,276.3907" style="stroke:#A80036;stroke-width:1.0;"/><text fill="#000000" font-family="sans-serif" font-size="13" lengthAdjust="spacing" textLength="36" x="728.5" y="234.0669">share</text><!--MD5=[8b0e353601124fd593a7642acb102679]
link Patient to HealthCondition--><path codeLine="114" d="M1378.65,110.238 C1459.62,128.21 1647.94,171.785 1802.5,221 C1844.25,234.2934 1890.58,252.1401 1924.78,265.9235 " fill="none" id="Patient-to-HealthCondition" style="stroke:#A80036;stroke-width:1.0;"/><polygon fill="#A80036" points="1929.74,267.9266,1922.8918,260.8483,1925.1036,266.0549,1919.897,268.2667,1929.74,267.9266" style="stroke:#A80036;stroke-width:1.0;"/><text fill="#000000" font-family="sans-serif" font-size="13" lengthAdjust="spacing" textLength="32" x="1852.5" y="234.0669">have</text><!--MD5=[e241a6ce5f43f685d1b78e0c3c760cfb]
link Patient to Messaging--><path codeLine="115" d="M1378.57,107.867 C1445.81,120.141 1583.25,152.185 1677.5,221 C1692.73,232.1195 1705.48,249.1718 1714.29,263.1578 " fill="none" id="Patient-to-Messaging" style="stroke:#A80036;stroke-width:1.0;"/><polygon fill="#A80036" points="1717.13,267.7703,1715.8215,258.0087,1714.5103,263.5115,1709.0075,262.2003,1717.13,267.7703" style="stroke:#A80036;stroke-width:1.0;"/><text fill="#000000" font-family="sans-serif" font-size="13" lengthAdjust="spacing" textLength="31" x="1697.5" y="234.0669">send</text><!--MD5=[98a6411f592920e3079385eeec443a7a]
link User to Junk--><path codeLine="116" d="M354.344,141.581 C334.271,164.642 308.748,194.261 286.5,221 C274.846,235.006 262.049,250.9263 251.949,263.6215 " fill="none" id="User-to-Junk" style="stroke:#A80036;stroke-width:1.0;"/><polygon fill="#A80036" points="248.633,267.7957,257.3628,263.2361,251.7428,263.8804,251.0984,258.2604,248.633,267.7957" style="stroke:#A80036;stroke-width:1.0;"/><text fill="#000000" font-family="sans-serif" font-size="13" lengthAdjust="spacing" textLength="39" x="287.5" y="234.0669">report</text><!--MD5=[6febe4e6e2eeb0e27cfc72a266cc7812]
link member to Resource--><path codeLine="118" d="M2569.89,139.936 C2597.49,177.31 2638.51,232.8524 2661.43,263.8842 " fill="none" id="member-to-Resource" style="stroke:#A80036;stroke-width:1.0;"/><polygon fill="#A80036" points="2664.4,267.9119,2662.2783,258.2943,2661.4327,263.8876,2655.8394,263.042,2664.4,267.9119" style="stroke:#A80036;stroke-width:1.0;"/><text fill="#000000" font-family="sans-serif" font-size="13" lengthAdjust="spacing" textLength="47" x="2643.5" y="234.0669">receive</text><!--MD5=[96a5526f8bc343d0a87392a143f0d1fa]
link Patient to CalendarEvent--><path codeLine="119" d="M1378.52,109.826 C1451.83,125.864 1611.66,164.524 1737.5,221 C1764.46,233.0976 1792.82,250.856 1813.57,264.9057 " fill="none" id="Patient-to-CalendarEvent" style="stroke:#A80036;stroke-width:1.0;"/><polygon fill="#A80036" points="1817.88,267.844,1812.714,259.4587,1813.7545,265.0191,1808.1941,266.0596,1817.88,267.844" style="stroke:#A80036;stroke-width:1.0;"/><text fill="#000000" font-family="sans-serif" font-size="13" lengthAdjust="spacing" textLength="24" x="1769.5" y="234.0669">add</text><!--MD5=[769704aea6c8338c742acf0d6f000464]
link Patient to Appointment--><path codeLine="120" d="M1378.63,163.527 C1400.82,197.834 1427.1,238.463 1443.29,263.4852 " fill="none" id="Patient-to-Appointment" style="stroke:#A80036;stroke-width:1.0;"/><polygon fill="#A80036" points="1446.19,267.9707,1444.6619,258.2411,1443.475,263.772,1437.9441,262.5851,1446.19,267.9707" style="stroke:#A80036;stroke-width:1.0;"/><text fill="#000000" font-family="sans-serif" font-size="13" lengthAdjust="spacing" textLength="23" x="1427.5" y="234.0669">has</text><!--MD5=[f56f3f1ba6337d081cbeebdc8b2805be]
link member to Money--><path codeLine="121" d="M2551.24,139.936 C2560.59,176.853 2574.44,231.4949 2582.35,262.7333 " fill="none" id="member-to-Money" style="stroke:#A80036;stroke-width:1.0;"/><polygon fill="#A80036" points="2583.66,267.9119,2585.3249,258.2048,2582.4309,263.0653,2577.5704,260.1713,2583.66,267.9119" style="stroke:#A80036;stroke-width:1.0;"/><text fill="#000000" font-family="sans-serif" font-size="13" lengthAdjust="spacing" textLength="31" x="2577.5" y="234.0669">send</text><!--MD5=[8a5d498d2c8e5ae3c93cf91d7a5ddd88]
link member to Link--><path codeLine="122" d="M2513.94,139.936 C2487.25,177.158 2447.65,232.3993 2425.35,263.503 " fill="none" id="member-to-Link" style="stroke:#A80036;stroke-width:1.0;"/><polygon fill="#A80036" points="2422.19,267.9119,2430.6886,262.9347,2425.1064,263.8506,2424.1905,258.2684,2422.19,267.9119" style="stroke:#A80036;stroke-width:1.0;"/><text fill="#000000" font-family="sans-serif" font-size="13" lengthAdjust="spacing" textLength="31" x="2456.5" y="234.0669">send</text><!--MD5=[d79e548e622331a9bbe4aaaa68e4a30e]
link Admin to List--><path codeLine="123" d="M2198.78,133.812 C2179.68,170.715 2148.88,230.2285 2131.84,263.1598 " fill="none" id="Admin-to-List" style="stroke:#A80036;stroke-width:1.0;"/><polygon fill="#A80036" points="2129.43,267.8198,2137.1178,261.6637,2131.7272,263.3788,2130.0121,257.9882,2129.43,267.8198" style="stroke:#A80036;stroke-width:1.0;"/><text fill="#000000" font-family="sans-serif" font-size="13" lengthAdjust="spacing" textLength="30" x="2154.5" y="234.0669">view</text><!--MD5=[f79443fc503a70c0409b5c2caacb3246]
link Patient to Patient--><path codeLine="124" d="M1378.62,76.975 C1397.24,74.408 1413.5,82.25 1413.5,100.5 C1413.5,117.039 1400.14,125.03 1383.79,124.473 " fill="none" id="Patient-to-Patient" style="stroke:#A80036;stroke-width:1.0;"/><polygon fill="#A80036" points="1378.62,124.025,1387.2304,128.8063,1383.6004,124.4678,1387.9389,120.8377,1378.62,124.025" style="stroke:#A80036;stroke-width:1.0;"/><text fill="#000000" font-family="sans-serif" font-size="13" lengthAdjust="spacing" textLength="48" x="1419.5" y="105.0669">contact</text><!--MD5=[671ec7d8d2820e5845f084a63d5cbffe]
link Patient to Message--><path codeLine="125" d="M1298.34,106.751 C1208.07,119.354 983.152,155.256 805.5,221 C790.396,226.5894 788.975,233.5401 773.5,238 C597.51,288.7206 541.041,227.1578 362.5,268 C358.356,268.9481 354.099,270.1972 349.914,271.6032 " fill="none" id="Patient-to-Message" style="stroke:#A80036;stroke-width:1.0;"/><polygon fill="#A80036" points="345.045,273.3173,354.8625,274.1023,349.7614,271.6573,352.2065,266.5561,345.045,273.3173" style="stroke:#A80036;stroke-width:1.0;"/><text fill="#000000" font-family="sans-serif" font-size="13" lengthAdjust="spacing" textLength="31" x="806.5" y="234.0669">send</text><!--MD5=[ebda0c6048a133cdcd16c495edc9e9f1]
link SupportGroup to kind--><path codeLine="126" d="M2767.5,127.293 C2767.5,163.107 2767.5,227.4408 2767.5,262.5341 " fill="none" id="SupportGroup-to-kind" style="stroke:#A80036;stroke-width:1.0;"/><polygon fill="#A80036" points="2767.5,267.9065,2771.5,258.9065,2767.5,262.9065,2763.5,258.9065,2767.5,267.9065" style="stroke:#A80036;stroke-width:1.0;"/><text fill="#000000" font-family="sans-serif" font-size="13" lengthAdjust="spacing" textLength="44" x="2768.5" y="234.0669">access</text><!--MD5=[9beb9af3f943f649e2219fa2a61903b1]
link Patient to Task--><path codeLine="127" d="M1378.56,136.391 C1423.61,175.622 1495.06,237.8477 1530.35,268.5806 " fill="none" id="Patient-to-Task" style="stroke:#A80036;stroke-width:1.0;"/><polygon fill="#A80036" points="1534.47,272.1687,1530.3126,263.2403,1530.7004,268.8838,1525.0569,269.2716,1534.47,272.1687" style="stroke:#A80036;stroke-width:1.0;"/><text fill="#000000" font-family="sans-serif" font-size="13" lengthAdjust="spacing" textLength="44" x="1495.5" y="234.0669">posted</text><!--MD5=[5a1b16b0b2680fedf0567d56af65bce6]
link User to AdMessage--><path codeLine="128" d="M424.525,131.304 C468.073,168.359 541.448,230.7951 580.747,264.2351 " fill="none" id="User-to-AdMessage" style="stroke:#A80036;stroke-width:1.0;"/><polygon fill="#A80036" points="584.904,267.7724,580.6415,258.8937,581.0959,264.5323,575.4573,264.9867,584.904,267.7724" style="stroke:#A80036;stroke-width:1.0;"/><text fill="#000000" font-family="sans-serif" font-size="13" lengthAdjust="spacing" textLength="39" x="550.5" y="234.0669">report</text><!--MD5=[67e0d6af1e4e2dd48d9e9c773d4b451d]
link member to Notification--><path codeLine="129" d="M2531.76,139.936 C2522.41,176.853 2508.56,231.4949 2500.65,262.7333 " fill="none" id="member-to-Notification" style="stroke:#A80036;stroke-width:1.0;"/><polygon fill="#A80036" points="2499.34,267.9119,2505.4296,260.1713,2500.5691,263.0653,2497.6751,258.2048,2499.34,267.9119" style="stroke:#A80036;stroke-width:1.0;"/><text fill="#000000" font-family="sans-serif" font-size="13" lengthAdjust="spacing" textLength="21" x="2512.5" y="234.0669">get</text><!--MD5=[cc26e55aed3e4647cfe30d8e26a7c8f6]
link Admin to Statistics--><path codeLine="130" d="M2235.18,133.812 C2257.66,170.715 2293.92,230.2285 2313.98,263.1598 " fill="none" id="Admin-to-Statistics" style="stroke:#A80036;stroke-width:1.0;"/><polygon fill="#A80036" points="2316.82,267.8198,2315.5554,258.0525,2314.2194,263.5493,2308.7226,262.2134,2316.82,267.8198" style="stroke:#A80036;stroke-width:1.0;"/><text fill="#000000" font-family="sans-serif" font-size="13" lengthAdjust="spacing" textLength="30" x="2299.5" y="234.0669">view</text><!--MD5=[3b3a110f6aeec0a0bf442c01daca6c1c]
link User to Profile--><path codeLine="131" d="M354.291,123.57 C318.937,146.337 263.541,183.688 219.5,221 C203.82,234.2837 187.599,250.75 175.283,263.9123 " fill="none" id="User-to-Profile" style="stroke:#A80036;stroke-width:1.0;"/><polygon fill="#A80036" points="171.592,267.8838,180.6489,264.0143,174.9958,264.2213,174.7889,258.5682,171.592,267.8838" style="stroke:#A80036;stroke-width:1.0;"/><text fill="#000000" font-family="sans-serif" font-size="13" lengthAdjust="spacing" textLength="44" x="220.5" y="234.0669">access</text><!--MD5=[87e802f94dff5db0b14b612664619da8]
link User to Account--><path codeLine="132" d="M424.604,157.156 C447.001,192.667 474.877,236.8632 491.651,263.4567 " fill="none" id="User-to-Account" style="stroke:#A80036;stroke-width:1.0;"/><polygon fill="#A80036" points="494.447,267.8903,493.0299,258.1439,491.78,263.661,486.263,262.4111,494.447,267.8903" style="stroke:#A80036;stroke-width:1.0;"/><text fill="#000000" font-family="sans-serif" font-size="13" lengthAdjust="spacing" textLength="40" x="476.5" y="234.0669">delete</text><!--MD5=[01c0dc6d53e6dd035e1d8bf6cc7ffde5]
link Support to Family--><!--MD5=[d1775bca10c9c7b6be778bbd37fdf3b7]
link Support to Member--><!--MD5=[bc9a014f43592bb8ac71b76fbab377fb]
@startuml
hide circle
class User<actor> {
}
class Patient<actor> {
}
class Support<actor> {
}
class Administrator<actor> {
}
class Family<actor> {
}
class Member<actor> {
}
class Admin<actor> {
}
class User {
	manage()
	update()
	access()
	delete()
	block()
	report()
}
class Profile {
}
class Patient {
	attended()
	has()
	contact()
	send()
	add()
	have()
	posted()
	pull()
	get()
	message()
	share()
}
class Event {
}
class Invitation {
}
class Junk {
}
class member {
	receive()
	get()
	send()
}
class Link {
}
class Message {
}
class Calendar {
}
class members {
}
class Appointment {
}
class Admin {
	view()
	post()
}
class List {
}
class Task {
}
class Notification {
}
class Account {
}
class Friend {
}
class Announcement {
}
class Messaging {
}
class CalendarEvent {
}
class Money {
}
class SupportGroup {
	access()
}
class kind {
}
class AdMessage {
}
class Statistics {
}
class Information {
}
class Administrator {
	suspense()
}
class HealthCondition {
}
class Resource {
}
Patient - -> Information : get
Patient - -> Calendar : share
User - -> Message : block
Patient - -> Event : posted
User - -> members : manage
User - -> Information : update
Patient - -> Friend : message
Patient - -> Invitation : share
Administrator - -> Account : suspense
Admin - -> Announcement : post
Patient - -> members : message
Patient - -> Friend : pull
Patient - -> Profile : share
Patient - -> members : pull
Patient - -> HealthCondition : have
Patient - -> Messaging : send
User - -> Junk : report
Patient - -> Event : attended
member - -> Resource : receive
Patient - -> CalendarEvent : add
Patient - -> Appointment : has
member - -> Money : send
member - -> Link : send
Admin - -> List : view
Patient - -> Patient : contact
Patient - -> Message : send
SupportGroup - -> kind : access
Patient - -> Task : posted
User - -> AdMessage : report
member - -> Notification : get
Admin - -> Statistics : view
User - -> Profile : access
User - -> Account : delete
@enduml

PlantUML version 1.2021.6beta6(Unknown compile time)
(GPL source distribution)
Java Runtime: Java(TM) SE Runtime Environment
JVM: Java HotSpot(TM) 64-Bit Server VM
Default Encoding: UTF-8
Language: en
Country: US
--></g></svg>