<?xml version="1.0" encoding="UTF-8" standalone="no"?><svg xmlns="http://www.w3.org/2000/svg" xmlns:xlink="http://www.w3.org/1999/xlink" contentScriptType="application/ecmascript" contentStyleType="text/css" height="821px" preserveAspectRatio="none" style="width:2444px;height:821px;background:#FFFFFF;" version="1.1" viewBox="0 0 2444 821" width="2444px" zoomAndPan="magnify"><defs><filter height="300%" id="frtm1johmjrbr" width="300%" x="-1" y="-1"><feGaussianBlur result="blurOut" stdDeviation="2.0"/><feColorMatrix in="blurOut" result="blurOut2" type="matrix" values="0 0 0 0 0 0 0 0 0 0 0 0 0 0 0 0 0 0 .4 0"/><feOffset dx="4.0" dy="4.0" in="blurOut2" result="blurOut3"/><feBlend in="SourceGraphic" in2="blurOut3" mode="normal"/></filter></defs><g><!--MD5=[3fd616f346a44cd59a91eb10b19e157c]
class User--><rect codeLine="26" fill="#FEFECE" filter="url(#frtm1johmjrbr)" height="449.7188" id="User" style="stroke:#A80036;stroke-width:1.5;" width="103" x="1062.5" y="10"/><text fill="#000000" font-family="sans-serif" font-size="12" lengthAdjust="spacing" textLength="29" x="1082" y="26.1387">User</text><rect fill="#FFFFFF" height="15.9688" style="stroke:#000000;stroke-width:1.0;stroke-dasharray:2.0,2.0;" width="33" x="1135.5" y="7"/><text fill="#000000" font-family="sans-serif" font-size="12" font-style="italic" lengthAdjust="spacing" textLength="31" x="1136.5" y="19.1387">actor</text><line style="stroke:#A80036;stroke-width:1.5;" x1="1063.5" x2="1164.5" y1="33.9688" y2="33.9688"/><text fill="#000000" font-family="sans-serif" font-size="11" lengthAdjust="spacing" textLength="30" x="1068.5" y="48.1792">order</text><text fill="#000000" font-family="sans-serif" font-size="11" lengthAdjust="spacing" textLength="52" x="1068.5" y="60.9839">recipelist</text><text fill="#000000" font-family="sans-serif" font-size="11" lengthAdjust="spacing" textLength="69" x="1068.5" y="73.7886">orderHistory</text><text fill="#000000" font-family="sans-serif" font-size="11" lengthAdjust="spacing" textLength="59" x="1068.5" y="86.5933">coffeeApp</text><text fill="#000000" font-family="sans-serif" font-size="11" lengthAdjust="spacing" textLength="91" x="1068.5" y="99.3979">coffeeSelection</text><text fill="#000000" font-family="sans-serif" font-size="11" lengthAdjust="spacing" textLength="36" x="1068.5" y="112.2026">recipe</text><text fill="#000000" font-family="sans-serif" font-size="11" lengthAdjust="spacing" textLength="76" x="1068.5" y="125.0073">coffeeRecipe</text><text fill="#000000" font-family="sans-serif" font-size="11" lengthAdjust="spacing" textLength="37" x="1068.5" y="137.812">coffee</text><text fill="#000000" font-family="sans-serif" font-size="11" lengthAdjust="spacing" textLength="58" x="1068.5" y="150.6167">username</text><line style="stroke:#A80036;stroke-width:1.5;" x1="1063.5" x2="1164.5" y1="157.2109" y2="157.2109"/><text fill="#000000" font-family="sans-serif" font-size="11" lengthAdjust="spacing" textLength="67" x="1068.5" y="171.4214">customize()</text><text fill="#000000" font-family="sans-serif" font-size="11" lengthAdjust="spacing" textLength="50" x="1068.5" y="184.2261">change()</text><text fill="#000000" font-family="sans-serif" font-size="11" lengthAdjust="spacing" textLength="30" x="1068.5" y="197.0308">see()</text><text fill="#000000" font-family="sans-serif" font-size="11" lengthAdjust="spacing" textLength="40" x="1068.5" y="209.8354">share()</text><text fill="#000000" font-family="sans-serif" font-size="11" lengthAdjust="spacing" textLength="51" x="1068.5" y="222.6401">identify()</text><text fill="#000000" font-family="sans-serif" font-size="11" lengthAdjust="spacing" textLength="32" x="1068.5" y="235.4448">hold()</text><text fill="#000000" font-family="sans-serif" font-size="11" lengthAdjust="spacing" textLength="34" x="1068.5" y="248.2495">earn()</text><text fill="#000000" font-family="sans-serif" font-size="11" lengthAdjust="spacing" textLength="66" x="1068.5" y="261.0542">customise()</text><text fill="#000000" font-family="sans-serif" font-size="11" lengthAdjust="spacing" textLength="37" x="1068.5" y="273.8589">vend()</text><text fill="#000000" font-family="sans-serif" font-size="11" lengthAdjust="spacing" textLength="28" x="1068.5" y="286.6636">like()</text><text fill="#000000" font-family="sans-serif" font-size="11" lengthAdjust="spacing" textLength="35" x="1068.5" y="299.4683">want()</text><text fill="#000000" font-family="sans-serif" font-size="11" lengthAdjust="spacing" textLength="54" x="1068.5" y="312.2729">produce()</text><text fill="#000000" font-family="sans-serif" font-size="11" lengthAdjust="spacing" textLength="51" x="1068.5" y="325.0776">replace()</text><text fill="#000000" font-family="sans-serif" font-size="11" lengthAdjust="spacing" textLength="46" x="1068.5" y="337.8823">delete()</text><text fill="#000000" font-family="sans-serif" font-size="11" lengthAdjust="spacing" textLength="36" x="1068.5" y="350.687">send()</text><text fill="#000000" font-family="sans-serif" font-size="11" lengthAdjust="spacing" textLength="48" x="1068.5" y="363.4917">update()</text><text fill="#000000" font-family="sans-serif" font-size="11" lengthAdjust="spacing" textLength="36" x="1068.5" y="376.2964">exist()</text><text fill="#000000" font-family="sans-serif" font-size="11" lengthAdjust="spacing" textLength="29" x="1068.5" y="389.1011">add()</text><text fill="#000000" font-family="sans-serif" font-size="11" lengthAdjust="spacing" textLength="49" x="1068.5" y="401.9058">browse()</text><text fill="#000000" font-family="sans-serif" font-size="11" lengthAdjust="spacing" textLength="35" x="1068.5" y="414.7104">view()</text><text fill="#000000" font-family="sans-serif" font-size="11" lengthAdjust="spacing" textLength="36" x="1068.5" y="427.5151">save()</text><text fill="#000000" font-family="sans-serif" font-size="11" lengthAdjust="spacing" textLength="41" x="1068.5" y="440.3198">log_in()</text><text fill="#000000" font-family="sans-serif" font-size="11" lengthAdjust="spacing" textLength="41" x="1068.5" y="453.1245">check()</text><!--MD5=[db6d18d8099558415abc41d00477ab92]
class Admin--><rect codeLine="82" fill="#FEFECE" filter="url(#frtm1johmjrbr)" height="52.7734" id="Admin" style="stroke:#A80036;stroke-width:1.5;" width="78" x="2054" y="208.5"/><text fill="#000000" font-family="sans-serif" font-size="12" lengthAdjust="spacing" textLength="37" x="2057" y="224.6387">Admin</text><rect fill="#FFFFFF" height="15.9688" style="stroke:#000000;stroke-width:1.0;stroke-dasharray:2.0,2.0;" width="33" x="2102" y="205.5"/><text fill="#000000" font-family="sans-serif" font-size="12" font-style="italic" lengthAdjust="spacing" textLength="31" x="2103" y="217.6387">actor</text><line style="stroke:#A80036;stroke-width:1.5;" x1="2055" x2="2131" y1="232.4688" y2="232.4688"/><line style="stroke:#A80036;stroke-width:1.5;" x1="2055" x2="2131" y1="240.4688" y2="240.4688"/><text fill="#000000" font-family="sans-serif" font-size="11" lengthAdjust="spacing" textLength="37" x="2060" y="254.6792">have()</text><!--MD5=[6f6af049516bc56aac6e320b3234ce97]
class Supplier--><rect codeLine="21" fill="#FEFECE" filter="url(#frtm1johmjrbr)" height="52.7734" id="Supplier" style="stroke:#A80036;stroke-width:1.5;" width="91" x="2167.5" y="208.5"/><text fill="#000000" font-family="sans-serif" font-size="12" lengthAdjust="spacing" textLength="50" x="2170.5" y="224.6387">Supplier</text><rect fill="#FFFFFF" height="15.9688" style="stroke:#000000;stroke-width:1.0;stroke-dasharray:2.0,2.0;" width="33" x="2228.5" y="205.5"/><text fill="#000000" font-family="sans-serif" font-size="12" font-style="italic" lengthAdjust="spacing" textLength="31" x="2229.5" y="217.6387">actor</text><line style="stroke:#A80036;stroke-width:1.5;" x1="2168.5" x2="2257.5" y1="232.4688" y2="232.4688"/><line style="stroke:#A80036;stroke-width:1.5;" x1="2168.5" x2="2257.5" y1="240.4688" y2="240.4688"/><text fill="#000000" font-family="sans-serif" font-size="11" lengthAdjust="spacing" textLength="52" x="2173.5" y="254.6792">receive()</text><!--MD5=[15c6922f6693225acd2805a9f7199676]
class Maintainer--><rect codeLine="54" fill="#FEFECE" filter="url(#frtm1johmjrbr)" height="65.5781" id="Maintainer" style="stroke:#A80036;stroke-width:1.5;" width="102" x="2294" y="202"/><text fill="#000000" font-family="sans-serif" font-size="12" lengthAdjust="spacing" textLength="61" x="2297" y="218.1387">Maintainer</text><rect fill="#FFFFFF" height="15.9688" style="stroke:#000000;stroke-width:1.0;stroke-dasharray:2.0,2.0;" width="33" x="2366" y="199"/><text fill="#000000" font-family="sans-serif" font-size="12" font-style="italic" lengthAdjust="spacing" textLength="31" x="2367" y="211.1387">actor</text><line style="stroke:#A80036;stroke-width:1.5;" x1="2295" x2="2395" y1="225.9688" y2="225.9688"/><line style="stroke:#A80036;stroke-width:1.5;" x1="2295" x2="2395" y1="233.9688" y2="233.9688"/><text fill="#000000" font-family="sans-serif" font-size="11" lengthAdjust="spacing" textLength="48" x="2300" y="248.1792">update()</text><text fill="#000000" font-family="sans-serif" font-size="11" lengthAdjust="spacing" textLength="35" x="2300" y="260.9839">track()</text><!--MD5=[7bff1aba3b0d0725284345139f4478e9]
class History--><rect codeLine="19" fill="#FEFECE" filter="url(#frtm1johmjrbr)" height="39.9688" id="History" style="stroke:#A80036;stroke-width:1.5;" width="49" x="1763.5" y="644.5"/><text fill="#000000" font-family="sans-serif" font-size="12" lengthAdjust="spacing" textLength="43" x="1766.5" y="660.6387">History</text><line style="stroke:#A80036;stroke-width:1.5;" x1="1764.5" x2="1811.5" y1="668.4688" y2="668.4688"/><line style="stroke:#A80036;stroke-width:1.5;" x1="1764.5" x2="1811.5" y1="676.4688" y2="676.4688"/><!--MD5=[e2d3da46aad6ad2235ed97afaf326e98]
class Update--><rect codeLine="24" fill="#FEFECE" filter="url(#frtm1johmjrbr)" height="39.9688" id="Update" style="stroke:#A80036;stroke-width:1.5;" width="50" x="2188" y="537"/><text fill="#000000" font-family="sans-serif" font-size="12" lengthAdjust="spacing" textLength="44" x="2191" y="553.1387">Update</text><line style="stroke:#A80036;stroke-width:1.5;" x1="2189" x2="2237" y1="560.9688" y2="560.9688"/><line style="stroke:#A80036;stroke-width:1.5;" x1="2189" x2="2237" y1="568.9688" y2="568.9688"/><!--MD5=[20418cb98520644da1e87dc0310aa74a]
class Recipe--><rect codeLine="51" fill="#FEFECE" filter="url(#frtm1johmjrbr)" height="52.7734" id="Recipe" style="stroke:#A80036;stroke-width:1.5;" width="61" x="475.5" y="638"/><text fill="#000000" font-family="sans-serif" font-size="12" lengthAdjust="spacing" textLength="41" x="485.5" y="654.1387">Recipe</text><line style="stroke:#A80036;stroke-width:1.5;" x1="476.5" x2="535.5" y1="661.9688" y2="661.9688"/><line style="stroke:#A80036;stroke-width:1.5;" x1="476.5" x2="535.5" y1="669.9688" y2="669.9688"/><text fill="#000000" font-family="sans-serif" font-size="11" lengthAdjust="spacing" textLength="49" x="481.5" y="684.1792">contain()</text><!--MD5=[cf4d6237fcae255cd2e1656cf84a30e2]
class Order--><rect codeLine="58" fill="#FEFECE" filter="url(#frtm1johmjrbr)" height="39.9688" id="Order" style="stroke:#A80036;stroke-width:1.5;" width="42" x="1154" y="537"/><text fill="#000000" font-family="sans-serif" font-size="12" lengthAdjust="spacing" textLength="36" x="1157" y="553.1387">Order</text><line style="stroke:#A80036;stroke-width:1.5;" x1="1155" x2="1195" y1="560.9688" y2="560.9688"/><line style="stroke:#A80036;stroke-width:1.5;" x1="1155" x2="1195" y1="568.9688" y2="568.9688"/><!--MD5=[9536a87e044ce6588050cb9af3778782]
class Coffee--><rect codeLine="60" fill="#FEFECE" filter="url(#frtm1johmjrbr)" height="39.9688" id="Coffee" style="stroke:#A80036;stroke-width:1.5;" width="46" x="165" y="537"/><text fill="#000000" font-family="sans-serif" font-size="12" lengthAdjust="spacing" textLength="40" x="168" y="553.1387">Coffee</text><line style="stroke:#A80036;stroke-width:1.5;" x1="166" x2="210" y1="560.9688" y2="560.9688"/><line style="stroke:#A80036;stroke-width:1.5;" x1="166" x2="210" y1="568.9688" y2="568.9688"/><!--MD5=[4f1f3706c1a355a8488e154afcaed5df]
class Location--><rect codeLine="62" fill="#FEFECE" filter="url(#frtm1johmjrbr)" height="39.9688" id="Location" style="stroke:#A80036;stroke-width:1.5;" width="56" x="2296" y="537"/><text fill="#000000" font-family="sans-serif" font-size="12" lengthAdjust="spacing" textLength="50" x="2299" y="553.1387">Location</text><line style="stroke:#A80036;stroke-width:1.5;" x1="2297" x2="2351" y1="560.9688" y2="560.9688"/><line style="stroke:#A80036;stroke-width:1.5;" x1="2297" x2="2351" y1="568.9688" y2="568.9688"/><!--MD5=[18eee71c88ab61f27581b8cbdd3ef5ee]
class Color--><rect codeLine="64" fill="#FEFECE" filter="url(#frtm1johmjrbr)" height="39.9688" id="Color" style="stroke:#A80036;stroke-width:1.5;" width="38" x="857" y="537"/><text fill="#000000" font-family="sans-serif" font-size="12" lengthAdjust="spacing" textLength="32" x="860" y="553.1387">Color</text><line style="stroke:#A80036;stroke-width:1.5;" x1="858" x2="894" y1="560.9688" y2="560.9688"/><line style="stroke:#A80036;stroke-width:1.5;" x1="858" x2="894" y1="568.9688" y2="568.9688"/><!--MD5=[b6d0b56ae52ba0825bce80fcb609e3e2]
class MediaAccount--><rect codeLine="66" fill="#FEFECE" filter="url(#frtm1johmjrbr)" height="39.9688" id="MediaAccount" style="stroke:#A80036;stroke-width:1.5;" width="90" x="930" y="537"/><text fill="#000000" font-family="sans-serif" font-size="12" lengthAdjust="spacing" textLength="84" x="933" y="553.1387">MediaAccount</text><line style="stroke:#A80036;stroke-width:1.5;" x1="931" x2="1019" y1="560.9688" y2="560.9688"/><line style="stroke:#A80036;stroke-width:1.5;" x1="931" x2="1019" y1="568.9688" y2="568.9688"/><!--MD5=[6297e4407eab3680b14668dc9d60aa2d]
class ApplePay--><rect codeLine="68" fill="#FEFECE" filter="url(#frtm1johmjrbr)" height="52.7734" id="ApplePay" style="stroke:#A80036;stroke-width:1.5;" width="72" x="7" y="208.5"/><text fill="#000000" font-family="sans-serif" font-size="12" lengthAdjust="spacing" textLength="55" x="15.5" y="224.6387">ApplePay</text><line style="stroke:#A80036;stroke-width:1.5;" x1="8" x2="78" y1="232.4688" y2="232.4688"/><line style="stroke:#A80036;stroke-width:1.5;" x1="8" x2="78" y1="240.4688" y2="240.4688"/><text fill="#000000" font-family="sans-serif" font-size="11" lengthAdjust="spacing" textLength="60" x="13" y="254.6792">purchase()</text><!--MD5=[bfae69cc07df8cd4d6d77ba5fc314eec]
class Kiosk--><rect codeLine="71" fill="#FEFECE" filter="url(#frtm1johmjrbr)" height="39.9688" id="Kiosk" style="stroke:#A80036;stroke-width:1.5;" width="39" x="2391.5" y="537"/><text fill="#000000" font-family="sans-serif" font-size="12" lengthAdjust="spacing" textLength="33" x="2394.5" y="553.1387">Kiosk</text><line style="stroke:#A80036;stroke-width:1.5;" x1="2392.5" x2="2429.5" y1="560.9688" y2="560.9688"/><line style="stroke:#A80036;stroke-width:1.5;" x1="2392.5" x2="2429.5" y1="568.9688" y2="568.9688"/><!--MD5=[73dda7005de60a227966661ed5e41803]
class Paypal--><rect codeLine="73" fill="#FEFECE" filter="url(#frtm1johmjrbr)" height="52.7734" id="Paypal" style="stroke:#A80036;stroke-width:1.5;" width="72" x="114" y="208.5"/><text fill="#000000" font-family="sans-serif" font-size="12" lengthAdjust="spacing" textLength="38" x="131" y="224.6387">Paypal</text><line style="stroke:#A80036;stroke-width:1.5;" x1="115" x2="185" y1="232.4688" y2="232.4688"/><line style="stroke:#A80036;stroke-width:1.5;" x1="115" x2="185" y1="240.4688" y2="240.4688"/><text fill="#000000" font-family="sans-serif" font-size="11" lengthAdjust="spacing" textLength="60" x="120" y="254.6792">purchase()</text><!--MD5=[b10c05c113ef53de34dc5ef0710f8af5]
class Cup--><rect codeLine="76" fill="#FEFECE" filter="url(#frtm1johmjrbr)" height="39.9688" id="Cup" style="stroke:#A80036;stroke-width:1.5;" width="29" x="1055.5" y="537"/><text fill="#000000" font-family="sans-serif" font-size="12" lengthAdjust="spacing" textLength="23" x="1058.5" y="553.1387">Cup</text><line style="stroke:#A80036;stroke-width:1.5;" x1="1056.5" x2="1083.5" y1="560.9688" y2="560.9688"/><line style="stroke:#A80036;stroke-width:1.5;" x1="1056.5" x2="1083.5" y1="568.9688" y2="568.9688"/><!--MD5=[4c122067c55db3bfdcadf29dc88875c9]
class Reward--><rect codeLine="78" fill="#FEFECE" filter="url(#frtm1johmjrbr)" height="39.9688" id="Reward" style="stroke:#A80036;stroke-width:1.5;" width="51" x="1231.5" y="537"/><text fill="#000000" font-family="sans-serif" font-size="12" lengthAdjust="spacing" textLength="45" x="1234.5" y="553.1387">Reward</text><line style="stroke:#A80036;stroke-width:1.5;" x1="1232.5" x2="1281.5" y1="560.9688" y2="560.9688"/><line style="stroke:#A80036;stroke-width:1.5;" x1="1232.5" x2="1281.5" y1="568.9688" y2="568.9688"/><!--MD5=[3ea633b366b7e3c88379499281652b08]
class Allergen--><rect codeLine="80" fill="#FEFECE" filter="url(#frtm1johmjrbr)" height="39.9688" id="Allergen" style="stroke:#A80036;stroke-width:1.5;" width="56" x="478" y="768"/><text fill="#000000" font-family="sans-serif" font-size="12" lengthAdjust="spacing" textLength="50" x="481" y="784.1387">Allergen</text><line style="stroke:#A80036;stroke-width:1.5;" x1="479" x2="533" y1="791.9688" y2="791.9688"/><line style="stroke:#A80036;stroke-width:1.5;" x1="479" x2="533" y1="799.9688" y2="799.9688"/><!--MD5=[f5ea1f64bc04260f09f32845b6b2c213]
class Portal--><rect codeLine="85" fill="#FEFECE" filter="url(#frtm1johmjrbr)" height="39.9688" id="Portal" style="stroke:#A80036;stroke-width:1.5;" width="39" x="2073.5" y="537"/><text fill="#000000" font-family="sans-serif" font-size="12" lengthAdjust="spacing" textLength="33" x="2076.5" y="553.1387">Portal</text><line style="stroke:#A80036;stroke-width:1.5;" x1="2074.5" x2="2111.5" y1="560.9688" y2="560.9688"/><line style="stroke:#A80036;stroke-width:1.5;" x1="2074.5" x2="2111.5" y1="568.9688" y2="568.9688"/><!--MD5=[18b89e0834131a909517048318a5909c]
class Picture--><rect codeLine="87" fill="#FEFECE" filter="url(#frtm1johmjrbr)" height="39.9688" id="Picture" style="stroke:#A80036;stroke-width:1.5;" width="46" x="1318" y="537"/><text fill="#000000" font-family="sans-serif" font-size="12" lengthAdjust="spacing" textLength="40" x="1321" y="553.1387">Picture</text><line style="stroke:#A80036;stroke-width:1.5;" x1="1319" x2="1363" y1="560.9688" y2="560.9688"/><line style="stroke:#A80036;stroke-width:1.5;" x1="1319" x2="1363" y1="568.9688" y2="568.9688"/><!--MD5=[03be55fb4aae919908819e432b9694ea]
class Phone--><rect codeLine="89" fill="#FEFECE" filter="url(#frtm1johmjrbr)" height="39.9688" id="Phone" style="stroke:#A80036;stroke-width:1.5;" width="42" x="1399" y="537"/><text fill="#000000" font-family="sans-serif" font-size="12" lengthAdjust="spacing" textLength="36" x="1402" y="553.1387">Phone</text><line style="stroke:#A80036;stroke-width:1.5;" x1="1400" x2="1440" y1="560.9688" y2="560.9688"/><line style="stroke:#A80036;stroke-width:1.5;" x1="1400" x2="1440" y1="568.9688" y2="568.9688"/><!--MD5=[777cea8e2e96d6ad11bff111726e5d90]
class DefaultPaymentMethod--><rect codeLine="91" fill="#FEFECE" filter="url(#frtm1johmjrbr)" height="39.9688" id="DefaultPaymentMethod" style="stroke:#A80036;stroke-width:1.5;" width="143" x="1476.5" y="537"/><text fill="#000000" font-family="sans-serif" font-size="12" lengthAdjust="spacing" textLength="137" x="1479.5" y="553.1387">DefaultPaymentMethod</text><line style="stroke:#A80036;stroke-width:1.5;" x1="1477.5" x2="1618.5" y1="560.9688" y2="560.9688"/><line style="stroke:#A80036;stroke-width:1.5;" x1="1477.5" x2="1618.5" y1="568.9688" y2="568.9688"/><!--MD5=[bbad56bc7779fe6d833d77eae0c25c05]
class Theme--><rect codeLine="93" fill="#FEFECE" filter="url(#frtm1johmjrbr)" height="39.9688" id="Theme" style="stroke:#A80036;stroke-width:1.5;" width="47" x="1654.5" y="537"/><text fill="#000000" font-family="sans-serif" font-size="12" lengthAdjust="spacing" textLength="41" x="1657.5" y="553.1387">Theme</text><line style="stroke:#A80036;stroke-width:1.5;" x1="1655.5" x2="1700.5" y1="560.9688" y2="560.9688"/><line style="stroke:#A80036;stroke-width:1.5;" x1="1655.5" x2="1700.5" y1="568.9688" y2="568.9688"/><!--MD5=[9c15a27e365caab2c2ad3f8df173ca8e]
class NutritionDetail--><rect codeLine="95" fill="#FEFECE" filter="url(#frtm1johmjrbr)" height="39.9688" id="NutritionDetail" style="stroke:#A80036;stroke-width:1.5;" width="89" x="1736.5" y="537"/><text fill="#000000" font-family="sans-serif" font-size="12" lengthAdjust="spacing" textLength="83" x="1739.5" y="553.1387">NutritionDetail</text><line style="stroke:#A80036;stroke-width:1.5;" x1="1737.5" x2="1824.5" y1="560.9688" y2="560.9688"/><line style="stroke:#A80036;stroke-width:1.5;" x1="1737.5" x2="1824.5" y1="568.9688" y2="568.9688"/><!--MD5=[a496b9cf805c96d2500bd6bbc041cbac]
class Baserecipe--><rect codeLine="97" fill="#FEFECE" filter="url(#frtm1johmjrbr)" height="39.9688" id="Baserecipe" style="stroke:#A80036;stroke-width:1.5;" width="75" x="1860.5" y="537"/><text fill="#000000" font-family="sans-serif" font-size="12" lengthAdjust="spacing" textLength="69" x="1863.5" y="553.1387">Baserecipe</text><line style="stroke:#A80036;stroke-width:1.5;" x1="1861.5" x2="1934.5" y1="560.9688" y2="560.9688"/><line style="stroke:#A80036;stroke-width:1.5;" x1="1861.5" x2="1934.5" y1="568.9688" y2="568.9688"/><!--MD5=[8619c9e2929ae26e449179efd5100e13]
reverse link User to Recipe--><path codeLine="99" d="M1049.3,250.085 C921.396,279.913 630.193,357.778 418,490 C380.336,513.469 347.594,538.127 369,577 C391.524,617.902 442.442,642.13 475.459,654.11 " fill="none" id="User-backto-Recipe" style="stroke:#A80036;stroke-width:1.0;"/><polygon fill="#FFFFFF" points="1062.26,247.099,1055.516,244.5459,1050.5654,249.7892,1057.3095,252.3423,1062.26,247.099" style="stroke:#A80036;stroke-width:1.0;"/><text fill="#000000" font-family="sans-serif" font-size="13" lengthAdjust="spacing" textLength="30" x="370" y="561.5669">view</text><!--MD5=[8619c9e2929ae26e449179efd5100e13]
reverse link User to Recipe--><path codeLine="105" d="M1049.07,242.08 C910.051,259.125 586.878,321.325 471,537 C453.636,569.318 471.956,611.019 487.944,637.519 " fill="none" id="User-backto-Recipe-1" style="stroke:#A80036;stroke-width:1.0;"/><polygon fill="#FFFFFF" points="1062.33,240.523,1055.9013,237.2561,1050.4132,241.9338,1056.8419,245.2007,1062.33,240.523" style="stroke:#A80036;stroke-width:1.0;"/><text fill="#000000" font-family="sans-serif" font-size="13" lengthAdjust="spacing" textLength="52" x="472" y="561.5669">produce</text><!--MD5=[8619c9e2929ae26e449179efd5100e13]
reverse link User to Recipe--><path codeLine="114" d="M1049.75,259.138 C943.154,300.312 728.328,395.485 595,537 C565.169,568.662 537.453,610.909 521.121,637.665 " fill="none" id="User-backto-Recipe-2" style="stroke:#A80036;stroke-width:1.0;"/><polygon fill="#FFFFFF" points="1062.2,254.385,1055.1689,252.7838,1050.9866,258.6583,1058.0177,260.2594,1062.2,254.385" style="stroke:#A80036;stroke-width:1.0;"/><text fill="#000000" font-family="sans-serif" font-size="13" lengthAdjust="spacing" textLength="40" x="596" y="561.5669">delete</text><!--MD5=[8619c9e2929ae26e449179efd5100e13]
reverse link User to Recipe--><path codeLine="117" d="M1051.47,280.057 C980.163,330.423 860.233,415.53 758,490 C705.622,528.153 694.313,540.165 641,577 C605.847,601.288 564.313,627.549 536.689,644.685 " fill="none" id="User-backto-Recipe-3" style="stroke:#A80036;stroke-width:1.0;"/><polygon fill="#FFFFFF" points="1062.48,272.279,1055.2715,272.4728,1052.6779,279.2014,1059.8864,279.0075,1062.48,272.279" style="stroke:#A80036;stroke-width:1.0;"/><text fill="#000000" font-family="sans-serif" font-size="13" lengthAdjust="spacing" textLength="32" x="697" y="561.5669">want</text><!--MD5=[8619c9e2929ae26e449179efd5100e13]
reverse link User to Recipe--><path codeLine="121" d="M1053.35,304.869 C983.677,380.425 862.815,501.032 738,577 C671.354,617.564 582.593,644.089 536.576,656.093 " fill="none" id="User-backto-Recipe-4" style="stroke:#A80036;stroke-width:1.0;"/><polygon fill="#FFFFFF" points="1062.42,294.973,1055.4173,296.6941,1054.3126,303.8201,1061.3153,302.099,1062.42,294.973" style="stroke:#A80036;stroke-width:1.0;"/><text fill="#000000" font-family="sans-serif" font-size="13" lengthAdjust="spacing" textLength="36" x="797" y="561.5669">share</text><!--MD5=[886e22bab51f7976c0e0b0f77c911140]
reverse link User to Order--><path codeLine="100" d="M1159.27,473.498 C1164.24,499.575 1168.52,522.03 1171.36,536.901 " fill="none" id="User-backto-Order" style="stroke:#A80036;stroke-width:1.0;"/><polygon fill="#FFFFFF" points="1156.78,460.423,1153.9755,467.0664,1159.0292,472.2103,1161.8337,465.5669,1156.78,460.423" style="stroke:#A80036;stroke-width:1.0;"/><text fill="#000000" font-family="sans-serif" font-size="13" lengthAdjust="spacing" textLength="47" x="1166" y="503.0669">replace</text><!--MD5=[886e22bab51f7976c0e0b0f77c911140]
reverse link User to Order--><path codeLine="101" d="M1110.8,473.088 C1114.07,484.757 1118.09,496.13 1123,507 C1129.53,521.471 1142.53,533.721 1153.9,542.353 " fill="none" id="User-backto-Order-1" style="stroke:#A80036;stroke-width:1.0;"/><polygon fill="#FFFFFF" points="1107.54,460.318,1105.1476,467.1207,1110.5069,471.9454,1112.8993,465.1428,1107.54,460.318" style="stroke:#A80036;stroke-width:1.0;"/><text fill="#000000" font-family="sans-serif" font-size="13" lengthAdjust="spacing" textLength="31" x="1124" y="503.0669">send</text><!--MD5=[c711a915f17cfd755a4cd63707574c2b]
reverse link User to Coffee--><path codeLine="102" d="M1049.45,242.852 C898.636,261.304 515.688,322.493 248,490 C228.703,502.075 211.784,522.045 200.874,536.861 " fill="none" id="User-backto-Coffee" style="stroke:#A80036;stroke-width:1.0;"/><polygon fill="#FFFFFF" points="1062.46,241.296,1056.0277,238.0364,1050.5448,242.7203,1056.9772,245.9799,1062.46,241.296" style="stroke:#A80036;stroke-width:1.0;"/><text fill="#000000" font-family="sans-serif" font-size="13" lengthAdjust="spacing" textLength="66" x="249" y="503.0669">customise</text><!--MD5=[9aecce486f7bede5d8dc488e17d94ab5]
link User to History--><path codeLine="103" d="M1165.71,235.37 C1319.25,236.688 1773,264.343 1953,537 C1991.9,595.92 1875.03,638.652 1817.72,655.536 " fill="none" id="User-to-History" style="stroke:#A80036;stroke-width:1.0;"/><polygon fill="#A80036" points="1812.7,656.994,1822.4598,658.3156,1817.5002,655.5948,1820.221,650.6352,1812.7,656.994" style="stroke:#A80036;stroke-width:1.0;"/><text fill="#000000" font-family="sans-serif" font-size="13" lengthAdjust="spacing" textLength="30" x="1962" y="561.5669">view</text><!--MD5=[6d3e05a8613df1ec5a6822b82839e883]
reverse link Order to History--><path codeLine="104" d="M1208.43,575.075 C1210.29,575.778 1212.16,576.427 1214,577 C1419.94,641.033 1682.68,658.456 1763.35,662.45 " fill="none" id="Order-backto-History" style="stroke:#A80036;stroke-width:1.0;"/><polygon fill="#FFFFFF" points="1196.39,569.859,1200.31,575.9116,1207.4047,574.621,1203.4847,568.5685,1196.39,569.859" style="stroke:#A80036;stroke-width:1.0;"/><!--MD5=[5c6598d20cfe9667f89e2e591a706980]
link Maintainer to Location--><path codeLine="106" d="M2341,268.008 C2335.21,316.104 2324.78,409.917 2321,490 C2320.35,503.835 2320.98,519.302 2321.83,531.784 " fill="none" id="Maintainer-to-Location" style="stroke:#A80036;stroke-width:1.0;"/><polygon fill="#A80036" points="2322.2,536.937,2325.5388,527.6713,2321.8385,531.9501,2317.5597,528.2498,2322.2,536.937" style="stroke:#A80036;stroke-width:1.0;"/><text fill="#000000" font-family="sans-serif" font-size="13" lengthAdjust="spacing" textLength="45" x="2322" y="503.0669">update</text><!--MD5=[3331e5322b59e2927d9473ff20587c76]
link Admin to Portal--><path codeLine="107" d="M2093,261.646 C2093,322.111 2093,472.921 2093,531.857 " fill="none" id="Admin-to-Portal" style="stroke:#A80036;stroke-width:1.0;"/><polygon fill="#A80036" points="2093,536.937,2097,527.937,2093,531.937,2089,527.937,2093,536.937" style="stroke:#A80036;stroke-width:1.0;"/><text fill="#000000" font-family="sans-serif" font-size="13" lengthAdjust="spacing" textLength="32" x="2094" y="503.0669">have</text><!--MD5=[46c8de438bfe71dc7eaa5e2247ca5ff3]
link User to Color--><path codeLine="108" d="M1062.25,293.491 C1018.73,343.382 956.376,418.622 910,490 C901.244,503.477 892.952,519.483 886.748,532.357 " fill="none" id="User-to-Color" style="stroke:#A80036;stroke-width:1.0;"/><polygon fill="#A80036" points="884.561,536.948,892.0447,530.5453,886.7127,532.4346,884.8233,527.1026,884.561,536.948" style="stroke:#A80036;stroke-width:1.0;"/><text fill="#000000" font-family="sans-serif" font-size="13" lengthAdjust="spacing" textLength="66" x="911" y="503.0669">customize</text><!--MD5=[c0646aff05db046bf03bd07f9451b561]
link User to Picture--><path codeLine="109" d="M1165.51,308.613 C1216.45,380.426 1291.43,486.118 1324.4,532.604 " fill="none" id="User-to-Picture" style="stroke:#A80036;stroke-width:1.0;"/><polygon fill="#A80036" points="1327.46,536.915,1325.5238,527.2583,1324.5707,532.8343,1318.9947,531.8812,1327.46,536.915" style="stroke:#A80036;stroke-width:1.0;"/><text fill="#000000" font-family="sans-serif" font-size="13" lengthAdjust="spacing" textLength="31" x="1304" y="503.0669">save</text><!--MD5=[9949363513e3770c5085325b55773415]
link User to MediaAccount--><path codeLine="110" d="M1062.46,328.46 C1037.8,375.674 1009.49,434.693 990,490 C985.25,503.479 981.628,519.048 979.134,531.678 " fill="none" id="User-to-MediaAccount" style="stroke:#A80036;stroke-width:1.0;"/><polygon fill="#A80036" points="978.134,536.897,983.7549,528.8097,979.0742,531.9862,975.8976,527.3054,978.134,536.897" style="stroke:#A80036;stroke-width:1.0;"/><text fill="#000000" font-family="sans-serif" font-size="13" lengthAdjust="spacing" textLength="37" x="991" y="503.0669">log_in</text><!--MD5=[898d7de36cd24f4f38d7977ec8648f6d]
link ApplePay to Coffee--><path codeLine="111" d="M38.1199,261.805 C29.8107,313.839 18.7584,432.707 74,507 C94.3659,534.389 133.189,546.645 159.822,552.008 " fill="none" id="ApplePay-to-Coffee" style="stroke:#A80036;stroke-width:1.0;"/><polygon fill="#A80036" points="164.977,552.991,156.8846,547.3773,160.0653,552.0552,155.3874,555.236,164.977,552.991" style="stroke:#A80036;stroke-width:1.0;"/><text fill="#000000" font-family="sans-serif" font-size="13" lengthAdjust="spacing" textLength="59" x="75" y="503.0669">purchase</text><!--MD5=[a7d4735a8fd37d3d30f1107e6e258b49]
link User to Phone--><path codeLine="112" d="M1165.56,289.922 C1233.46,360.923 1349.86,482.648 1398.08,533.079 " fill="none" id="User-to-Phone" style="stroke:#A80036;stroke-width:1.0;"/><polygon fill="#A80036" points="1401.71,536.873,1398.3815,527.6036,1398.2546,533.2591,1392.5992,533.1322,1401.71,536.873" style="stroke:#A80036;stroke-width:1.0;"/><text fill="#000000" font-family="sans-serif" font-size="13" lengthAdjust="spacing" textLength="31" x="1370" y="503.0669">save</text><!--MD5=[83bd9f4480df998fb6384a670b0530a6]
link User to DefaultPaymentMethod--><path codeLine="113" d="M1165.92,274.282 C1257.47,341.783 1444.82,479.922 1517.88,533.792 " fill="none" id="User-to-DefaultPaymentMethod" style="stroke:#A80036;stroke-width:1.0;"/><polygon fill="#A80036" points="1522.11,536.91,1517.2261,528.3574,1518.0808,533.9493,1512.4889,534.804,1522.11,536.91" style="stroke:#A80036;stroke-width:1.0;"/><text fill="#000000" font-family="sans-serif" font-size="13" lengthAdjust="spacing" textLength="24" x="1477" y="503.0669">add</text><!--MD5=[b7980b232572675be84c01c8606156ba]
link Maintainer to Kiosk--><path codeLine="115" d="M2351.63,268.148 C2364.86,332.303 2394.28,474.935 2406.02,531.858 " fill="none" id="Maintainer-to-Kiosk" style="stroke:#A80036;stroke-width:1.0;"/><polygon fill="#A80036" points="2407.03,536.773,2409.1307,527.1508,2406.0206,531.8759,2401.2955,528.7658,2407.03,536.773" style="stroke:#A80036;stroke-width:1.0;"/><text fill="#000000" font-family="sans-serif" font-size="13" lengthAdjust="spacing" textLength="32" x="2401" y="503.0669">track</text><!--MD5=[d81a890eb7aa0270f5b87571bfdf2d7c]
link Paypal to Coffee--><path codeLine="116" d="M143.912,261.651 C133.448,310.96 116.001,421.646 147,507 C150.387,516.325 156.411,525.115 162.817,532.605 " fill="none" id="Paypal-to-Coffee" style="stroke:#A80036;stroke-width:1.0;"/><polygon fill="#A80036" points="166.401,536.628,163.4025,527.2467,163.0756,532.8941,157.4282,532.5673,166.401,536.628" style="stroke:#A80036;stroke-width:1.0;"/><text fill="#000000" font-family="sans-serif" font-size="13" lengthAdjust="spacing" textLength="59" x="148" y="503.0669">purchase</text><!--MD5=[3eb9bc51fc2321bc0ae44e2b98954b67]
link User to Theme--><path codeLine="118" d="M1165.55,265.246 C1281.74,331.172 1560.9,489.561 1650.1,540.169 " fill="none" id="User-to-Theme" style="stroke:#A80036;stroke-width:1.0;"/><polygon fill="#A80036" points="1654.45,542.639,1648.6018,534.7144,1650.103,540.1685,1644.649,541.6696,1654.45,542.639" style="stroke:#A80036;stroke-width:1.0;"/><text fill="#000000" font-family="sans-serif" font-size="13" lengthAdjust="spacing" textLength="66" x="1585" y="503.0669">customize</text><!--MD5=[5415ccf067fe8dd7703fabc7fe6cc68e]
link User to Cup--><path codeLine="119" d="M1062.41,382.106 C1052.29,417.02 1043.2,454.476 1038,490 C1036.91,497.476 1035.84,499.758 1038,507 C1040.93,516.86 1046.55,526.585 1052.27,534.74 " fill="none" id="User-to-Cup" style="stroke:#A80036;stroke-width:1.0;"/><polygon fill="#A80036" points="1055.45,539.1,1053.3896,529.4691,1052.5084,535.0569,1046.9206,534.1757,1055.45,539.1" style="stroke:#A80036;stroke-width:1.0;"/><text fill="#000000" font-family="sans-serif" font-size="13" lengthAdjust="spacing" textLength="31" x="1039" y="503.0669">send</text><!--MD5=[fef5e09ca540de9e98146eaaf14b5f90]
link User to NutritionDetail--><path codeLine="120" d="M1165.71,258.73 C1263.27,301.905 1480.8,399.561 1660,490 C1688.04,504.15 1719.13,521.14 1742.78,534.337 " fill="none" id="User-to-NutritionDetail" style="stroke:#A80036;stroke-width:1.0;"/><polygon fill="#A80036" points="1747.4,536.924,1741.4817,529.0516,1743.0312,534.4921,1737.5907,536.0417,1747.4,536.924" style="stroke:#A80036;stroke-width:1.0;"/><text fill="#000000" font-family="sans-serif" font-size="13" lengthAdjust="spacing" textLength="23" x="1692" y="503.0669">see</text><!--MD5=[e38a3bde52c7ecfcc01cfe2c1b1a0001]
link User to Reward--><path codeLine="122" d="M1165.63,351.527 C1195.03,417.319 1229.3,494.007 1246.3,532.054 " fill="none" id="User-to-Reward" style="stroke:#A80036;stroke-width:1.0;"/><polygon fill="#A80036" points="1248.48,536.941,1248.4537,527.0922,1246.4371,532.3774,1241.1519,530.3608,1248.48,536.941" style="stroke:#A80036;stroke-width:1.0;"/><text fill="#000000" font-family="sans-serif" font-size="13" lengthAdjust="spacing" textLength="29" x="1235" y="503.0669">earn</text><!--MD5=[b20ff45f37a96faaa98c66e3cfd08e0d]
link User to Baserecipe--><path codeLine="123" d="M1165.74,257.12 C1311.16,316.473 1721.56,483.983 1855.29,538.567 " fill="none" id="User-to-Baserecipe" style="stroke:#A80036;stroke-width:1.0;"/><polygon fill="#A80036" points="1860.31,540.616,1853.4844,533.516,1855.6795,538.7295,1850.466,540.9247,1860.31,540.616" style="stroke:#A80036;stroke-width:1.0;"/><text fill="#000000" font-family="sans-serif" font-size="13" lengthAdjust="spacing" textLength="66" x="1768" y="503.0669">customize</text><!--MD5=[56423cb6ef95a107d5e2d8d1f962102a]
link Recipe to Allergen--><path codeLine="124" d="M506,691.267 C506,712.3301 506,741.9042 506,762.5902 " fill="none" id="Recipe-to-Allergen" style="stroke:#A80036;stroke-width:1.0;"/><polygon fill="#A80036" points="506,767.6472,510,758.6472,506,762.6472,502,758.6472,506,767.6472" style="stroke:#A80036;stroke-width:1.0;"/><text fill="#000000" font-family="sans-serif" font-size="13" lengthAdjust="spacing" textLength="47" x="507" y="734.0669">contain</text><!--MD5=[75c043049648c0068dbb9f6175b5095b]
reverse link Coffee to Recipe--><path codeLine="125" d="M223.389,572.795 C248.916,583.227 284.316,597.208 316,608 C371.625,626.947 437.713,645.345 475.467,655.474 " fill="none" id="Coffee-backto-Recipe" style="stroke:#A80036;stroke-width:1.0;"/><polygon fill="#FFFFFF" points="211.362,567.843,215.3877,573.8258,222.4586,572.4109,218.4329,566.4281,211.362,567.843" style="stroke:#A80036;stroke-width:1.0;"/><!--MD5=[5b707910882fd4cdd21b206b1d647b61]
link Supplier to Update--><path codeLine="126" d="M2213,261.646 C2213,322.111 2213,472.921 2213,531.857 " fill="none" id="Supplier-to-Update" style="stroke:#A80036;stroke-width:1.0;"/><polygon fill="#A80036" points="2213,536.937,2217,527.937,2213,531.937,2209,527.937,2213,536.937" style="stroke:#A80036;stroke-width:1.0;"/><text fill="#000000" font-family="sans-serif" font-size="13" lengthAdjust="spacing" textLength="47" x="2214" y="503.0669">receive</text><!--MD5=[3cb72444058baf218cd411b7233255cd]
@startuml
hide circle
class User<actor> {
	order
	recipelist
	orderHistory
	coffeeApp
	coffeeSelection
	recipe
	coffeeRecipe
	coffee
	username
}
class Admin<actor> {
}
class Supplier<actor> {
}
class Maintainer<actor> {
}
class History {
}
class Supplier {
	receive()
}
class Update {
}
class User {
	customize()
	change()
	see()
	share()
	identify()
	hold()
	earn()
	customise()
	vend()
	like()
	want()
	produce()
	replace()
	delete()
	send()
	update()
	exist()
	add()
	browse()
	view()
	save()
	log_in()
	check()
}
class Recipe {
	contain()
}
class Maintainer {
	update()
	track()
}
class Order {
}
class Coffee {
}
class Location {
}
class Color {
}
class MediaAccount {
}
class ApplePay {
	purchase()
}
class Kiosk {
}
class Paypal {
	purchase()
}
class Cup {
}
class Reward {
}
class Allergen {
}
class Admin {
	have()
}
class Portal {
}
class Picture {
}
class Phone {
}
class DefaultPaymentMethod {
}
class Theme {
}
class NutritionDetail {
}
class Baserecipe {
}
User o- - Recipe : view
User o- - Order : replace
User o- - Order : send
User o- - Coffee : customise
User - -> History : view
Order o- - History
User o- - Recipe : produce
Maintainer - -> Location : update
Admin - -> Portal : have
User - -> Color : customize
User - -> Picture : save
User - -> MediaAccount : log_in
ApplePay - -> Coffee : purchase
User - -> Phone : save
User - -> DefaultPaymentMethod : add
User o- - Recipe : delete
Maintainer - -> Kiosk : track
Paypal - -> Coffee : purchase
User o- - Recipe : want
User - -> Theme : customize
User - -> Cup : send
User - -> NutritionDetail : see
User o- - Recipe : share
User - -> Reward : earn
User - -> Baserecipe : customize
Recipe - -> Allergen : contain
Coffee o- - Recipe
Supplier - -> Update : receive
@enduml

PlantUML version 1.2021.10beta2(Unknown compile time)
(GPL source distribution)
Java Runtime: Java(TM) SE Runtime Environment
JVM: Java HotSpot(TM) 64-Bit Server VM
Default Encoding: UTF-8
Language: en
Country: US
--></g></svg>