<?xml version="1.0" encoding="UTF-8" standalone="no"?><svg xmlns="http://www.w3.org/2000/svg" xmlns:xlink="http://www.w3.org/1999/xlink" contentScriptType="application/ecmascript" contentStyleType="text/css" height="798px" preserveAspectRatio="none" style="width:1857px;height:798px;background:#FFFFFF;" version="1.1" viewBox="0 0 1857 798" width="1857px" zoomAndPan="magnify"><defs><filter height="300%" id="f15g2hak050h8k" width="300%" x="-1" y="-1"><feGaussianBlur result="blurOut" stdDeviation="2.0"/><feColorMatrix in="blurOut" result="blurOut2" type="matrix" values="0 0 0 0 0 0 0 0 0 0 0 0 0 0 0 0 0 0 .4 0"/><feOffset dx="4.0" dy="4.0" in="blurOut2" result="blurOut3"/><feBlend in="SourceGraphic" in2="blurOut3" mode="normal"/></filter></defs><g><!--MD5=[da547346deef918ea16944ba046651ef]
class Administrator--><rect codeLine="52" fill="#FEFECE" filter="url(#f15g2hak050h8k)" height="129.6016" id="Administrator" style="stroke:#A80036;stroke-width:1.5;" width="121" x="1611" y="286.5"/><text fill="#000000" font-family="sans-serif" font-size="12" lengthAdjust="spacing" textLength="80" x="1614" y="302.6387">Administrator</text><rect fill="#FFFFFF" height="15.9688" style="stroke:#000000;stroke-width:1.0;stroke-dasharray:2.0,2.0;" width="33" x="1702" y="283.5"/><text fill="#000000" font-family="sans-serif" font-size="12" font-style="italic" lengthAdjust="spacing" textLength="31" x="1703" y="295.6387">actor</text><line style="stroke:#A80036;stroke-width:1.5;" x1="1612" x2="1731" y1="310.4688" y2="310.4688"/><line style="stroke:#A80036;stroke-width:1.5;" x1="1612" x2="1731" y1="318.4688" y2="318.4688"/><text fill="#000000" font-family="sans-serif" font-size="11" lengthAdjust="spacing" textLength="30" x="1617" y="332.6792">see()</text><text fill="#000000" font-family="sans-serif" font-size="11" lengthAdjust="spacing" textLength="30" x="1617" y="345.4839">edit()</text><text fill="#000000" font-family="sans-serif" font-size="11" lengthAdjust="spacing" textLength="29" x="1617" y="358.2886">add()</text><text fill="#000000" font-family="sans-serif" font-size="11" lengthAdjust="spacing" textLength="37" x="1617" y="371.0933">block()</text><text fill="#000000" font-family="sans-serif" font-size="11" lengthAdjust="spacing" textLength="45" x="1617" y="383.8979">cancel()</text><text fill="#000000" font-family="sans-serif" font-size="11" lengthAdjust="spacing" textLength="38" x="1617" y="396.7026">close()</text><text fill="#000000" font-family="sans-serif" font-size="11" lengthAdjust="spacing" textLength="37" x="1617" y="409.5073">open()</text><!--MD5=[15c6922f6693225acd2805a9f7199676]
class Maintainer--><rect codeLine="46" fill="#FEFECE" filter="url(#f15g2hak050h8k)" height="91.1875" id="Maintainer" style="stroke:#A80036;stroke-width:1.5;" width="102" x="1197.5" y="10"/><text fill="#000000" font-family="sans-serif" font-size="12" lengthAdjust="spacing" textLength="61" x="1200.5" y="26.1387">Maintainer</text><rect fill="#FFFFFF" height="15.9688" style="stroke:#000000;stroke-width:1.0;stroke-dasharray:2.0,2.0;" width="33" x="1269.5" y="7"/><text fill="#000000" font-family="sans-serif" font-size="12" font-style="italic" lengthAdjust="spacing" textLength="31" x="1270.5" y="19.1387">actor</text><line style="stroke:#A80036;stroke-width:1.5;" x1="1198.5" x2="1298.5" y1="33.9688" y2="33.9688"/><line style="stroke:#A80036;stroke-width:1.5;" x1="1198.5" x2="1298.5" y1="41.9688" y2="41.9688"/><text fill="#000000" font-family="sans-serif" font-size="11" lengthAdjust="spacing" textLength="40" x="1203.5" y="56.1792">make()</text><text fill="#000000" font-family="sans-serif" font-size="11" lengthAdjust="spacing" textLength="30" x="1203.5" y="68.9839">see()</text><text fill="#000000" font-family="sans-serif" font-size="11" lengthAdjust="spacing" textLength="58" x="1203.5" y="81.7886">withdraw()</text><text fill="#000000" font-family="sans-serif" font-size="11" lengthAdjust="spacing" textLength="67" x="1203.5" y="94.5933">guarantee()</text><!--MD5=[d342058c8fb6f80e9d50d673c6908241]
class Developer--><rect codeLine="81" fill="#FEFECE" filter="url(#f15g2hak050h8k)" height="52.7734" id="Developer" style="stroke:#A80036;stroke-width:1.5;" width="105" x="758" y="29"/><text fill="#000000" font-family="sans-serif" font-size="12" lengthAdjust="spacing" textLength="64" x="761" y="45.1387">Developer</text><rect fill="#FFFFFF" height="15.9688" style="stroke:#000000;stroke-width:1.0;stroke-dasharray:2.0,2.0;" width="33" x="833" y="26"/><text fill="#000000" font-family="sans-serif" font-size="12" font-style="italic" lengthAdjust="spacing" textLength="31" x="834" y="38.1387">actor</text><line style="stroke:#A80036;stroke-width:1.5;" x1="759" x2="862" y1="52.9688" y2="52.9688"/><line style="stroke:#A80036;stroke-width:1.5;" x1="759" x2="862" y1="60.9688" y2="60.9688"/><text fill="#000000" font-family="sans-serif" font-size="11" lengthAdjust="spacing" textLength="67" x="764" y="75.1792">guarantee()</text><!--MD5=[3fd616f346a44cd59a91eb10b19e157c]
class User--><rect codeLine="18" fill="#FEFECE" filter="url(#f15g2hak050h8k)" height="347.2813" id="User" style="stroke:#A80036;stroke-width:1.5;" width="120" x="750.5" y="178"/><text fill="#000000" font-family="sans-serif" font-size="12" lengthAdjust="spacing" textLength="29" x="778.5" y="194.1387">User</text><rect fill="#FFFFFF" height="15.9688" style="stroke:#000000;stroke-width:1.0;stroke-dasharray:2.0,2.0;" width="33" x="840.5" y="175"/><text fill="#000000" font-family="sans-serif" font-size="12" font-style="italic" lengthAdjust="spacing" textLength="31" x="841.5" y="187.1387">actor</text><line style="stroke:#A80036;stroke-width:1.5;" x1="751.5" x2="869.5" y1="201.9688" y2="201.9688"/><text fill="#000000" font-family="sans-serif" font-size="11" lengthAdjust="spacing" textLength="64" x="756.5" y="216.1792">information</text><text fill="#000000" font-family="sans-serif" font-size="11" lengthAdjust="spacing" textLength="26" x="756.5" y="228.9839">area</text><text fill="#000000" font-family="sans-serif" font-size="11" lengthAdjust="spacing" textLength="33" x="756.5" y="241.7886">friend</text><text fill="#000000" font-family="sans-serif" font-size="11" lengthAdjust="spacing" textLength="108" x="756.5" y="254.5933">accountInformation</text><line style="stroke:#A80036;stroke-width:1.5;" x1="751.5" x2="869.5" y1="261.1875" y2="261.1875"/><text fill="#000000" font-family="sans-serif" font-size="11" lengthAdjust="spacing" textLength="27" x="756.5" y="275.3979">call()</text><text fill="#000000" font-family="sans-serif" font-size="11" lengthAdjust="spacing" textLength="30" x="756.5" y="288.2026">see()</text><text fill="#000000" font-family="sans-serif" font-size="11" lengthAdjust="spacing" textLength="45" x="756.5" y="301.0073">create()</text><text fill="#000000" font-family="sans-serif" font-size="11" lengthAdjust="spacing" textLength="53" x="756.5" y="313.812">consent()</text><text fill="#000000" font-family="sans-serif" font-size="11" lengthAdjust="spacing" textLength="46" x="756.5" y="326.6167">search()</text><text fill="#000000" font-family="sans-serif" font-size="11" lengthAdjust="spacing" textLength="44" x="756.5" y="339.4214">import()</text><text fill="#000000" font-family="sans-serif" font-size="11" lengthAdjust="spacing" textLength="46" x="756.5" y="352.2261">delete()</text><text fill="#000000" font-family="sans-serif" font-size="11" lengthAdjust="spacing" textLength="32" x="756.5" y="365.0308">lose()</text><text fill="#000000" font-family="sans-serif" font-size="11" lengthAdjust="spacing" textLength="49" x="756.5" y="377.8354">contact()</text><text fill="#000000" font-family="sans-serif" font-size="11" lengthAdjust="spacing" textLength="27" x="756.5" y="390.6401">get()</text><text fill="#000000" font-family="sans-serif" font-size="11" lengthAdjust="spacing" textLength="50" x="756.5" y="403.4448">confirm()</text><text fill="#000000" font-family="sans-serif" font-size="11" lengthAdjust="spacing" textLength="37" x="756.5" y="416.2495">have()</text><text fill="#000000" font-family="sans-serif" font-size="11" lengthAdjust="spacing" textLength="37" x="756.5" y="429.0542">block()</text><text fill="#000000" font-family="sans-serif" font-size="11" lengthAdjust="spacing" textLength="41" x="756.5" y="441.8589">leave()</text><text fill="#000000" font-family="sans-serif" font-size="11" lengthAdjust="spacing" textLength="39" x="756.5" y="454.6636">enter()</text><text fill="#000000" font-family="sans-serif" font-size="11" lengthAdjust="spacing" textLength="51" x="756.5" y="467.4683">unblock()</text><text fill="#000000" font-family="sans-serif" font-size="11" lengthAdjust="spacing" textLength="38" x="756.5" y="480.2729">close()</text><text fill="#000000" font-family="sans-serif" font-size="11" lengthAdjust="spacing" textLength="29" x="756.5" y="493.0776">find()</text><text fill="#000000" font-family="sans-serif" font-size="11" lengthAdjust="spacing" textLength="41" x="756.5" y="505.8823">reject()</text><text fill="#000000" font-family="sans-serif" font-size="11" lengthAdjust="spacing" textLength="52" x="756.5" y="518.687">receive()</text><!--MD5=[3136c82974d04597cbdda55447e25a1d]
class Venue--><rect codeLine="14" fill="#FEFECE" filter="url(#f15g2hak050h8k)" height="65.5781" id="Venue" style="stroke:#A80036;stroke-width:1.5;" width="44" x="918.5" y="602"/><text fill="#000000" font-family="sans-serif" font-size="12" lengthAdjust="spacing" textLength="38" x="921.5" y="618.1387">Venue</text><line style="stroke:#A80036;stroke-width:1.5;" x1="919.5" x2="961.5" y1="625.9688" y2="625.9688"/><text fill="#000000" font-family="sans-serif" font-size="11" lengthAdjust="spacing" textLength="32" x="924.5" y="640.1792">detail</text><line style="stroke:#A80036;stroke-width:1.5;" x1="919.5" x2="961.5" y1="646.7734" y2="646.7734"/><text fill="#000000" font-family="sans-serif" font-size="11" lengthAdjust="spacing" textLength="23" x="924.5" y="660.9839">be()</text><!--MD5=[bea5b0d46523efab5ea1c1d339f396f0]
class Message--><rect codeLine="40" fill="#FEFECE" filter="url(#f15g2hak050h8k)" height="39.9688" id="Message" style="stroke:#A80036;stroke-width:1.5;" width="61" x="317" y="615"/><text fill="#000000" font-family="sans-serif" font-size="12" lengthAdjust="spacing" textLength="55" x="320" y="631.1387">Message</text><line style="stroke:#A80036;stroke-width:1.5;" x1="318" x2="377" y1="638.9688" y2="638.9688"/><line style="stroke:#A80036;stroke-width:1.5;" x1="318" x2="377" y1="646.9688" y2="646.9688"/><!--MD5=[88dbfe8572c16244f15eec58f6037418]
class Info--><rect codeLine="42" fill="#FEFECE" filter="url(#f15g2hak050h8k)" height="39.9688" id="Info" style="stroke:#A80036;stroke-width:1.5;" width="28" x="414.5" y="615"/><text fill="#000000" font-family="sans-serif" font-size="12" lengthAdjust="spacing" textLength="22" x="417.5" y="631.1387">Info</text><line style="stroke:#A80036;stroke-width:1.5;" x1="415.5" x2="441.5" y1="638.9688" y2="638.9688"/><line style="stroke:#A80036;stroke-width:1.5;" x1="415.5" x2="441.5" y1="646.9688" y2="646.9688"/><!--MD5=[fc7123defb831ecdd44b2d9bcef6cceb]
class Question--><rect codeLine="44" fill="#FEFECE" filter="url(#f15g2hak050h8k)" height="39.9688" id="Question" style="stroke:#A80036;stroke-width:1.5;" width="60" x="477.5" y="615"/><text fill="#000000" font-family="sans-serif" font-size="12" lengthAdjust="spacing" textLength="54" x="480.5" y="631.1387">Question</text><line style="stroke:#A80036;stroke-width:1.5;" x1="478.5" x2="536.5" y1="638.9688" y2="638.9688"/><line style="stroke:#A80036;stroke-width:1.5;" x1="478.5" x2="536.5" y1="646.9688" y2="646.9688"/><!--MD5=[901a10995e74f8499be24535fbd917d6]
class LocationInformation--><rect codeLine="61" fill="#FEFECE" filter="url(#f15g2hak050h8k)" height="39.9688" id="LocationInformation" style="stroke:#A80036;stroke-width:1.5;" width="123" x="573" y="615"/><text fill="#000000" font-family="sans-serif" font-size="12" lengthAdjust="spacing" textLength="117" x="576" y="631.1387">LocationInformation</text><line style="stroke:#A80036;stroke-width:1.5;" x1="574" x2="695" y1="638.9688" y2="638.9688"/><line style="stroke:#A80036;stroke-width:1.5;" x1="574" x2="695" y1="646.9688" y2="646.9688"/><!--MD5=[b76c921dec148580e221480ea486da2a]
class Friend--><rect codeLine="63" fill="#FEFECE" filter="url(#f15g2hak050h8k)" height="39.9688" id="Friend" style="stroke:#A80036;stroke-width:1.5;" width="44" x="783.5" y="745"/><text fill="#000000" font-family="sans-serif" font-size="12" lengthAdjust="spacing" textLength="38" x="786.5" y="761.1387">Friend</text><line style="stroke:#A80036;stroke-width:1.5;" x1="784.5" x2="826.5" y1="768.9688" y2="768.9688"/><line style="stroke:#A80036;stroke-width:1.5;" x1="784.5" x2="826.5" y1="776.9688" y2="776.9688"/><!--MD5=[f9a29335b499db729be669fd1bd54958]
class Account--><rect codeLine="65" fill="#FEFECE" filter="url(#f15g2hak050h8k)" height="52.7734" id="Account" style="stroke:#A80036;stroke-width:1.5;" width="54" x="1424.5" y="608.5"/><text fill="#000000" font-family="sans-serif" font-size="12" lengthAdjust="spacing" textLength="48" x="1427.5" y="624.6387">Account</text><line style="stroke:#A80036;stroke-width:1.5;" x1="1425.5" x2="1477.5" y1="632.4688" y2="632.4688"/><line style="stroke:#A80036;stroke-width:1.5;" x1="1425.5" x2="1477.5" y1="640.4688" y2="640.4688"/><text fill="#000000" font-family="sans-serif" font-size="11" lengthAdjust="spacing" textLength="41" x="1430.5" y="654.6792">follow()</text><!--MD5=[9445d644bbe92584b3fa45e77778917b]
class Policy--><rect codeLine="68" fill="#FEFECE" filter="url(#f15g2hak050h8k)" height="39.9688" id="Policy" style="stroke:#A80036;stroke-width:1.5;" width="40" x="1443.5" y="745"/><text fill="#000000" font-family="sans-serif" font-size="12" lengthAdjust="spacing" textLength="34" x="1446.5" y="761.1387">Policy</text><line style="stroke:#A80036;stroke-width:1.5;" x1="1444.5" x2="1482.5" y1="768.9688" y2="768.9688"/><line style="stroke:#A80036;stroke-width:1.5;" x1="1444.5" x2="1482.5" y1="776.9688" y2="776.9688"/><!--MD5=[ac13618b1a974308c1f12eb6c57723dc]
class Event--><rect codeLine="70" fill="#FEFECE" filter="url(#f15g2hak050h8k)" height="39.9688" id="Event" style="stroke:#A80036;stroke-width:1.5;" width="39" x="1804" y="615"/><text fill="#000000" font-family="sans-serif" font-size="12" lengthAdjust="spacing" textLength="33" x="1807" y="631.1387">Event</text><line style="stroke:#A80036;stroke-width:1.5;" x1="1805" x2="1842" y1="638.9688" y2="638.9688"/><line style="stroke:#A80036;stroke-width:1.5;" x1="1805" x2="1842" y1="646.9688" y2="646.9688"/><!--MD5=[b07065dfc0d0e09965ec10bfc328bb3e]
class Option--><rect codeLine="72" fill="#FEFECE" filter="url(#f15g2hak050h8k)" height="39.9688" id="Option" style="stroke:#A80036;stroke-width:1.5;" width="46" x="1111.5" y="615"/><text fill="#000000" font-family="sans-serif" font-size="12" lengthAdjust="spacing" textLength="40" x="1114.5" y="631.1387">Option</text><line style="stroke:#A80036;stroke-width:1.5;" x1="1112.5" x2="1156.5" y1="638.9688" y2="638.9688"/><line style="stroke:#A80036;stroke-width:1.5;" x1="1112.5" x2="1156.5" y1="646.9688" y2="646.9688"/><!--MD5=[30fd7b95ab383a5e7c83ea23d4ea0fbf]
class Information--><rect codeLine="74" fill="#FEFECE" filter="url(#f15g2hak050h8k)" height="39.9688" id="Information" style="stroke:#A80036;stroke-width:1.5;" width="73" x="1331" y="745"/><text fill="#000000" font-family="sans-serif" font-size="12" lengthAdjust="spacing" textLength="67" x="1334" y="761.1387">Information</text><line style="stroke:#A80036;stroke-width:1.5;" x1="1332" x2="1403" y1="768.9688" y2="768.9688"/><line style="stroke:#A80036;stroke-width:1.5;" x1="1332" x2="1403" y1="776.9688" y2="776.9688"/><!--MD5=[e5e36b65d50d59334a745ddcd9fb3f2f]
class TutorialEntrance--><rect codeLine="76" fill="#FEFECE" filter="url(#f15g2hak050h8k)" height="52.7734" id="TutorialEntrance" style="stroke:#A80036;stroke-width:1.5;" width="102" x="1192.5" y="608.5"/><text fill="#000000" font-family="sans-serif" font-size="12" lengthAdjust="spacing" textLength="96" x="1195.5" y="624.6387">TutorialEntrance</text><line style="stroke:#A80036;stroke-width:1.5;" x1="1193.5" x2="1293.5" y1="632.4688" y2="632.4688"/><line style="stroke:#A80036;stroke-width:1.5;" x1="1193.5" x2="1293.5" y1="640.4688" y2="640.4688"/><text fill="#000000" font-family="sans-serif" font-size="11" lengthAdjust="spacing" textLength="61" x="1198.5" y="654.6792">introduce()</text><!--MD5=[028fba31e0312914fa4880b63f0540b8]
class Detail--><rect codeLine="79" fill="#FEFECE" filter="url(#f15g2hak050h8k)" height="39.9688" id="Detail" style="stroke:#A80036;stroke-width:1.5;" width="40" x="1702.5" y="615"/><text fill="#000000" font-family="sans-serif" font-size="12" lengthAdjust="spacing" textLength="34" x="1705.5" y="631.1387">Detail</text><line style="stroke:#A80036;stroke-width:1.5;" x1="1703.5" x2="1741.5" y1="638.9688" y2="638.9688"/><line style="stroke:#A80036;stroke-width:1.5;" x1="1703.5" x2="1741.5" y1="646.9688" y2="646.9688"/><!--MD5=[e4460efd977c3af4b4cb6b09b781f305]
class Analytic--><rect codeLine="84" fill="#FEFECE" filter="url(#f15g2hak050h8k)" height="39.9688" id="Analytic" style="stroke:#A80036;stroke-width:1.5;" width="52" x="1222.5" y="331.5"/><text fill="#000000" font-family="sans-serif" font-size="12" lengthAdjust="spacing" textLength="46" x="1225.5" y="347.6387">Analytic</text><line style="stroke:#A80036;stroke-width:1.5;" x1="1223.5" x2="1273.5" y1="355.4688" y2="355.4688"/><line style="stroke:#A80036;stroke-width:1.5;" x1="1223.5" x2="1273.5" y1="363.4688" y2="363.4688"/><!--MD5=[26da3ee9003e2f6a8aecdc3e5c8e3b45]
class GpsRecording--><rect codeLine="86" fill="#FEFECE" filter="url(#f15g2hak050h8k)" height="52.7734" id="GpsRecording" style="stroke:#A80036;stroke-width:1.5;" width="91" x="1431" y="29"/><text fill="#000000" font-family="sans-serif" font-size="12" lengthAdjust="spacing" textLength="85" x="1434" y="45.1387">GpsRecording</text><line style="stroke:#A80036;stroke-width:1.5;" x1="1432" x2="1521" y1="52.9688" y2="52.9688"/><line style="stroke:#A80036;stroke-width:1.5;" x1="1432" x2="1521" y1="60.9688" y2="60.9688"/><text fill="#000000" font-family="sans-serif" font-size="11" lengthAdjust="spacing" textLength="23" x="1437" y="75.1792">let()</text><!--MD5=[fc92a9f5bb5fae84dd7fa4034e6b4444]
class Route--><rect codeLine="89" fill="#FEFECE" filter="url(#f15g2hak050h8k)" height="39.9688" id="Route" style="stroke:#A80036;stroke-width:1.5;" width="40" x="843.5" y="615"/><text fill="#000000" font-family="sans-serif" font-size="12" lengthAdjust="spacing" textLength="34" x="846.5" y="631.1387">Route</text><line style="stroke:#A80036;stroke-width:1.5;" x1="844.5" x2="882.5" y1="638.9688" y2="638.9688"/><line style="stroke:#A80036;stroke-width:1.5;" x1="844.5" x2="882.5" y1="646.9688" y2="646.9688"/><!--MD5=[83d663719cacb629c6960fa896b4e935]
class Profession--><rect codeLine="91" fill="#FEFECE" filter="url(#f15g2hak050h8k)" height="39.9688" id="Profession" style="stroke:#A80036;stroke-width:1.5;" width="69" x="7" y="615"/><text fill="#000000" font-family="sans-serif" font-size="12" lengthAdjust="spacing" textLength="63" x="10" y="631.1387">Profession</text><line style="stroke:#A80036;stroke-width:1.5;" x1="8" x2="75" y1="638.9688" y2="638.9688"/><line style="stroke:#A80036;stroke-width:1.5;" x1="8" x2="75" y1="646.9688" y2="646.9688"/><!--MD5=[6016c9c5425d34ae3d7a539916a91923]
class Recommendation--><rect codeLine="93" fill="#FEFECE" filter="url(#f15g2hak050h8k)" height="39.9688" id="Recommendation" style="stroke:#A80036;stroke-width:1.5;" width="110" x="111.5" y="615"/><text fill="#000000" font-family="sans-serif" font-size="12" lengthAdjust="spacing" textLength="104" x="114.5" y="631.1387">Recommendation</text><line style="stroke:#A80036;stroke-width:1.5;" x1="112.5" x2="220.5" y1="638.9688" y2="638.9688"/><line style="stroke:#A80036;stroke-width:1.5;" x1="112.5" x2="220.5" y1="646.9688" y2="646.9688"/><!--MD5=[e8a44440e7d883fedaa906df2c0e3d75]
link User to Message--><path codeLine="95" d="M750.112,358.159 C646.014,371.538 435.146,415.369 343.5,555 C332.983,571.023 335.122,593.055 339.243,609.782 " fill="none" id="User-to-Message" style="stroke:#A80036;stroke-width:1.0;"/><polygon fill="#A80036" points="340.574,614.79,342.1277,605.0645,339.2895,609.9578,334.3962,607.1196,340.574,614.79" style="stroke:#A80036;stroke-width:1.0;"/><text fill="#000000" font-family="sans-serif" font-size="13" lengthAdjust="spacing" textLength="33" x="344.5" y="568.0669">block</text><!--MD5=[e8a44440e7d883fedaa906df2c0e3d75]
link User to Message--><path codeLine="96" d="M750.496,375.459 C670.049,407.96 525.037,472.699 418.5,555 C397.648,571.109 377.954,593.847 364.621,610.796 " fill="none" id="User-to-Message-1" style="stroke:#A80036;stroke-width:1.0;"/><polygon fill="#A80036" points="361.372,614.972,370.0557,610.3251,364.4424,611.0258,363.7417,605.4125,361.372,614.972" style="stroke:#A80036;stroke-width:1.0;"/><text fill="#000000" font-family="sans-serif" font-size="13" lengthAdjust="spacing" textLength="26" x="419.5" y="568.0669">lose</text><!--MD5=[e8a44440e7d883fedaa906df2c0e3d75]
link User to Message--><path codeLine="118" d="M750.436,390.146 C679.327,434.476 557.089,509.931 450.5,572 C426.774,585.816 420.009,587.818 396.5,602 C391.266,605.157 385.787,608.598 380.466,612.014 " fill="none" id="User-to-Message-2" style="stroke:#A80036;stroke-width:1.0;"/><polygon fill="#A80036" points="376.042,614.871,385.7724,613.3478,380.242,612.1581,381.4318,606.6278,376.042,614.871" style="stroke:#A80036;stroke-width:1.0;"/><text fill="#000000" font-family="sans-serif" font-size="13" lengthAdjust="spacing" textLength="21" x="471.5" y="568.0669">call</text><!--MD5=[e8a44440e7d883fedaa906df2c0e3d75]
link User to Message--><path codeLine="128" d="M750.262,354.663 C635.439,362.43 387.034,397.557 278.5,555 C263.321,577.019 288.265,599.773 312.293,615.173 " fill="none" id="User-to-Message-3" style="stroke:#A80036;stroke-width:1.0;"/><polygon fill="#A80036" points="316.759,617.961,311.2418,609.8025,312.5173,615.3137,307.0061,616.5892,316.759,617.961" style="stroke:#A80036;stroke-width:1.0;"/><text fill="#000000" font-family="sans-serif" font-size="13" lengthAdjust="spacing" textLength="49" x="279.5" y="568.0669">unblock</text><!--MD5=[0f120cf87151f7b1c32a560e874f16be]
link User to Venue--><path codeLine="97" d="M849.139,525.133 C855.769,541.518 863.499,557.43 872.5,572 C878.306,581.397 897.68,598.732 914.27,612.688 " fill="none" id="User-to-Venue" style="stroke:#A80036;stroke-width:1.0;"/><polygon fill="#A80036" points="918.418,616.156,914.0793,607.3143,914.5822,612.9488,908.9477,613.4516,918.418,616.156" style="stroke:#A80036;stroke-width:1.0;"/><text fill="#000000" font-family="sans-serif" font-size="13" lengthAdjust="spacing" textLength="23" x="873.5" y="568.0669">see</text><!--MD5=[0f120cf87151f7b1c32a560e874f16be]
link User to Venue--><path codeLine="111" d="M870.553,482.538 C889.94,524.518 909.917,567.777 923.533,597.259 " fill="none" id="User-to-Venue-1" style="stroke:#A80036;stroke-width:1.0;"/><polygon fill="#A80036" points="925.662,601.87,925.518,592.0222,923.5647,597.3311,918.2558,595.3778,925.662,601.87" style="stroke:#A80036;stroke-width:1.0;"/><text fill="#000000" font-family="sans-serif" font-size="13" lengthAdjust="spacing" textLength="35" x="910.5" y="568.0669">leave</text><!--MD5=[0f120cf87151f7b1c32a560e874f16be]
link User to Venue--><path codeLine="113" d="M870.649,415.18 C902.265,452.565 937.835,502.81 954.5,555 C958.727,568.237 957.533,583.154 954.502,596.431 " fill="none" id="User-to-Venue-2" style="stroke:#A80036;stroke-width:1.0;"/><polygon fill="#A80036" points="953.206,601.624,959.2651,593.8595,954.416,596.7726,951.5029,591.9235,953.206,601.624" style="stroke:#A80036;stroke-width:1.0;"/><text fill="#000000" font-family="sans-serif" font-size="13" lengthAdjust="spacing" textLength="34" x="958.5" y="568.0669">enter</text><!--MD5=[14f3182dfe2ee2060054c2fdc9b8258d]
link User to TutorialEntrance--><path codeLine="98" d="M870.802,384.662 C940.042,422.461 1056.09,488.502 1149.5,555 C1170.97,570.287 1193.63,589.237 1211.32,604.745 " fill="none" id="User-to-TutorialEntrance" style="stroke:#A80036;stroke-width:1.0;"/><polygon fill="#A80036" points="1215.25,608.201,1211.1344,599.2533,1211.4958,604.8986,1205.8505,605.26,1215.25,608.201" style="stroke:#A80036;stroke-width:1.0;"/><text fill="#000000" font-family="sans-serif" font-size="13" lengthAdjust="spacing" textLength="23" x="1172.5" y="568.0669">see</text><!--MD5=[81d0ac5c60bf3b5f88007ee90c1d6620]
reverse link User to Info--><path codeLine="99" d="M740.101,408.562 C681.052,454.591 593.738,520.368 513.5,572 C490.412,586.857 481.287,585.293 459.5,602 C453.607,606.519 447.775,612.148 442.786,617.42 " fill="none" id="User-backto-Info" style="stroke:#A80036;stroke-width:1.0;"/><polygon fill="#FFFFFF" points="750.424,400.492,743.2335,401.0364,740.9704,407.8832,748.1609,407.3388,750.424,400.492" style="stroke:#A80036;stroke-width:1.0;"/><text fill="#000000" font-family="sans-serif" font-size="13" lengthAdjust="spacing" textLength="47" x="540.5" y="568.0669">receive</text><!--MD5=[658927cb44a983a3932a63580c32fed4]
link Maintainer to User--><path codeLine="100" d="M1197.4,90.801 C1117.4,144.5 962.691,248.344 875.089,307.146 " fill="none" id="Maintainer-to-User" style="stroke:#A80036;stroke-width:1.0;"/><polygon fill="#A80036" points="870.71,310.085,880.4118,308.3894,874.8612,307.298,875.9526,301.7474,870.71,310.085" style="stroke:#A80036;stroke-width:1.0;"/><text fill="#000000" font-family="sans-serif" font-size="13" lengthAdjust="spacing" textLength="66" x="1132.5" y="144.0669">guarantee</text><!--MD5=[993a1ed30139d6bc9fd462e29443e622]
link User to User--><path codeLine="101" d="M870.8,338.253 C890.158,338.389 905.5,342.805 905.5,351.5 C905.5,359.38 892.899,363.745 876.129,364.596 " fill="none" id="User-to-User" style="stroke:#A80036;stroke-width:1.0;"/><polygon fill="#A80036" points="870.8,364.747,879.9096,368.4908,875.798,364.6055,879.6832,360.494,870.8,364.747" style="stroke:#A80036;stroke-width:1.0;"/><text fill="#000000" font-family="sans-serif" font-size="13" lengthAdjust="spacing" textLength="48" x="911.5" y="356.0669">contact</text><!--MD5=[993a1ed30139d6bc9fd462e29443e622]
link User to User--><path codeLine="114" d="M870.887,327.786 C916.547,320.201 965.5,328.105 965.5,351.5 C965.5,374.026 920.112,382.191 875.981,375.995 " fill="none" id="User-to-User-1" style="stroke:#A80036;stroke-width:1.0;"/><polygon fill="#A80036" points="870.887,375.214,879.1774,380.531,875.8293,375.9713,880.389,372.6232,870.887,375.214" style="stroke:#A80036;stroke-width:1.0;"/><text fill="#000000" font-family="sans-serif" font-size="13" lengthAdjust="spacing" textLength="49" x="971.5" y="356.0669">confirm</text><!--MD5=[993a1ed30139d6bc9fd462e29443e622]
link User to User--><path codeLine="116" d="M870.679,320.778 C938.745,302.13 1026.5,312.371 1026.5,351.5 C1026.5,389.635 943.145,400.331 875.9,383.587 " fill="none" id="User-to-User-2" style="stroke:#A80036;stroke-width:1.0;"/><polygon fill="#A80036" points="870.679,382.222,878.375,388.3679,875.5165,383.4864,880.398,380.6279,870.679,382.222" style="stroke:#A80036;stroke-width:1.0;"/><text fill="#000000" font-family="sans-serif" font-size="13" lengthAdjust="spacing" textLength="23" x="1032.5" y="356.0669">see</text><!--MD5=[230d2250dd088f95bd28c8224becb2ce]
link User to Recommendation--><path codeLine="102" d="M750.495,359.767 C635.975,376.275 382.942,425.721 217.5,555 C199.04,569.425 185.25,592.503 176.695,609.999 " fill="none" id="User-to-Recommendation" style="stroke:#A80036;stroke-width:1.0;"/><polygon fill="#A80036" points="174.421,614.774,181.9006,608.3665,176.5698,610.2593,174.677,604.9285,174.421,614.774" style="stroke:#A80036;stroke-width:1.0;"/><text fill="#000000" font-family="sans-serif" font-size="13" lengthAdjust="spacing" textLength="47" x="218.5" y="568.0669">receive</text><!--MD5=[8ced16826088b50f43016efebd8d5708]
link Administrator to Detail--><path codeLine="103" d="M1674.61,416.715 C1677.84,460.922 1684.37,520.698 1697.5,572 C1700.82,584.986 1706.24,598.875 1711.18,610.208 " fill="none" id="Administrator-to-Detail" style="stroke:#A80036;stroke-width:1.0;"/><polygon fill="#A80036" points="1713.26,614.899,1713.2683,605.0501,1711.2332,610.3282,1705.9551,608.2931,1713.26,614.899" style="stroke:#A80036;stroke-width:1.0;"/><text fill="#000000" font-family="sans-serif" font-size="13" lengthAdjust="spacing" textLength="24" x="1698.5" y="568.0669">edit</text><!--MD5=[526f299adb64cc247c759a3a576897eb]
link Route to Friend--><path codeLine="104" d="M854.817,655.163 C844.566,677.785 827.509,715.4281 816.385,739.9788 " fill="none" id="Route-to-Friend" style="stroke:#A80036;stroke-width:1.0;"/><polygon fill="#A80036" points="814.243,744.7061,821.6011,738.1594,816.3067,740.1519,814.3143,734.8575,814.243,744.7061" style="stroke:#A80036;stroke-width:1.0;"/><text fill="#000000" font-family="sans-serif" font-size="13" lengthAdjust="spacing" textLength="13" x="835.5" y="711.0669">to</text><!--MD5=[89a729879333f4a514a72f7623177c63]
link User to Question--><path codeLine="105" d="M750.324,424.527 C710.788,469.602 656.545,527.376 602.5,572 C583.39,587.778 576.255,588.46 555.5,602 C550.52,605.249 545.267,608.713 540.137,612.116 " fill="none" id="User-to-Question" style="stroke:#A80036;stroke-width:1.0;"/><polygon fill="#A80036" points="535.865,614.955,545.5747,613.3055,540.0294,612.1878,541.1472,606.6424,535.865,614.955" style="stroke:#A80036;stroke-width:1.0;"/><text fill="#000000" font-family="sans-serif" font-size="13" lengthAdjust="spacing" textLength="23" x="622.5" y="568.0669">see</text><!--MD5=[a57644ce49db6336a5ca34674e0b6052]
reverse link Account to Information--><path codeLine="106" d="M1427.5,672.571 C1412.08,696.0752 1392.66,725.666 1380.16,744.7072 " fill="none" id="Account-backto-Information" style="stroke:#A80036;stroke-width:1.0;"/><polygon fill="#FFFFFF" points="1434.7,661.595,1428.0624,664.4133,1428.1111,671.6242,1434.7486,668.8059,1434.7,661.595" style="stroke:#A80036;stroke-width:1.0;"/><!--MD5=[071ebfd4254af037737a7bc1fc329019]
link User to LocationInformation--><path codeLine="107" d="M750.423,448.589 C714.399,506.208 671.409,574.966 649.282,610.358 " fill="none" id="User-to-LocationInformation" style="stroke:#A80036;stroke-width:1.0;"/><polygon fill="#A80036" points="646.43,614.919,654.5928,609.4082,649.0806,610.6794,647.8095,605.1672,646.43,614.919" style="stroke:#A80036;stroke-width:1.0;"/><text fill="#000000" font-family="sans-serif" font-size="13" lengthAdjust="spacing" textLength="21" x="683.5" y="568.0669">get</text><!--MD5=[cc80b15a1005322d35f5aa76e49edf09]
link Developer to User--><path codeLine="108" d="M810.5,82.076 C810.5,103.714 810.5,136.824 810.5,172.485 " fill="none" id="Developer-to-User" style="stroke:#A80036;stroke-width:1.0;"/><polygon fill="#A80036" points="810.5,177.764,814.5,168.764,810.5,172.764,806.5,168.764,810.5,177.764" style="stroke:#A80036;stroke-width:1.0;"/><text fill="#000000" font-family="sans-serif" font-size="13" lengthAdjust="spacing" textLength="66" x="811.5" y="144.0669">guarantee</text><!--MD5=[61d196a21c8107c2c60a1c496a3b4f23]
link Maintainer to Account--><path codeLine="109" d="M1269.05,101.138 C1273.33,110.91 1277.69,121.249 1281.5,131 C1353.87,316.39 1362.39,366.255 1425.5,555 C1430.85,570.994 1436.73,588.838 1441.54,603.515 " fill="none" id="Maintainer-to-Account" style="stroke:#A80036;stroke-width:1.0;"/><polygon fill="#A80036" points="1443.13,608.363,1444.1318,598.5652,1441.5746,603.6111,1436.5287,601.0539,1443.13,608.363" style="stroke:#A80036;stroke-width:1.0;"/><text fill="#000000" font-family="sans-serif" font-size="13" lengthAdjust="spacing" textLength="59" x="1416.5" y="356.0669">withdraw</text><!--MD5=[f9f733986f7d9c1f35e0b86acaa26406]
reverse link User to Friend--><path codeLine="110" d="M782.357,538.173 C779.286,580.865 778.754,626.045 783.5,668 C786.556,695.0147 794.302,725.5048 799.734,744.7321 " fill="none" id="User-backto-Friend" style="stroke:#A80036;stroke-width:1.0;"/><polygon fill="#FFFFFF" points="783.388,525.01,778.9314,530.6791,782.4504,536.9733,786.907,531.3042,783.388,525.01" style="stroke:#A80036;stroke-width:1.0;"/><text fill="#000000" font-family="sans-serif" font-size="13" lengthAdjust="spacing" textLength="40" x="784.5" y="639.5669">delete</text><!--MD5=[6fc93ce37a31dca4e1dfcd246bfad8b2]
link Maintainer to Analytic--><path codeLine="112" d="M1248.5,101.152 C1248.5,164.078 1248.5,276.675 1248.5,326.103 " fill="none" id="Maintainer-to-Analytic" style="stroke:#A80036;stroke-width:1.0;"/><polygon fill="#A80036" points="1248.5,331.249,1252.5,322.249,1248.5,326.249,1244.5,322.249,1248.5,331.249" style="stroke:#A80036;stroke-width:1.0;"/><text fill="#000000" font-family="sans-serif" font-size="13" lengthAdjust="spacing" textLength="23" x="1249.5" y="144.0669">see</text><!--MD5=[f6b1d8e217240600ec439250fbbf3b8f]
link Account to Policy--><path codeLine="115" d="M1453.9,661.595 C1456.03,684.289 1459.11,717.2065 1461.21,739.5484 " fill="none" id="Account-to-Policy" style="stroke:#A80036;stroke-width:1.0;"/><polygon fill="#A80036" points="1461.69,744.7072,1464.8335,735.3735,1461.2238,739.729,1456.8683,736.1193,1461.69,744.7072" style="stroke:#A80036;stroke-width:1.0;"/><text fill="#000000" font-family="sans-serif" font-size="13" lengthAdjust="spacing" textLength="38" x="1460.5" y="711.0669">follow</text><!--MD5=[6504c221f3acd114f9fc88269cb5eccf]
link Administrator to Information--><path codeLine="117" d="M1661.16,416.841 C1644.3,499.482 1602.68,641.046 1507.5,715 C1503.4,718.1883 1448.79,736.8415 1409.02,750.1869 " fill="none" id="Administrator-to-Information" style="stroke:#A80036;stroke-width:1.0;"/><polygon fill="#A80036" points="1404.24,751.7867,1414.044,752.7253,1408.9818,750.2007,1411.5064,745.1384,1404.24,751.7867" style="stroke:#A80036;stroke-width:1.0;"/><text fill="#000000" font-family="sans-serif" font-size="13" lengthAdjust="spacing" textLength="23" x="1597.5" y="639.5669">see</text><!--MD5=[689af8ad89214d1124ca5e0696f67ac4]
link Administrator to Event--><path codeLine="119" d="M1691.27,416.628 C1706.95,462.151 1731.54,523.534 1763.5,572 C1773.74,587.526 1788.16,602.575 1800.3,613.958 " fill="none" id="Administrator-to-Event" style="stroke:#A80036;stroke-width:1.0;"/><polygon fill="#A80036" points="1803.98,617.37,1800.0962,608.3192,1800.3121,613.972,1794.6594,614.1878,1803.98,617.37" style="stroke:#A80036;stroke-width:1.0;"/><text fill="#000000" font-family="sans-serif" font-size="13" lengthAdjust="spacing" textLength="41" x="1764.5" y="568.0669">cancel</text><!--MD5=[689af8ad89214d1124ca5e0696f67ac4]
link Administrator to Event--><path codeLine="121" d="M1726.42,416.662 C1755.93,454.525 1790.3,504.755 1810.5,555 C1817.54,572.495 1820.76,593.634 1822.25,609.641 " fill="none" id="Administrator-to-Event-1" style="stroke:#A80036;stroke-width:1.0;"/><polygon fill="#A80036" points="1822.68,614.86,1825.913,605.5569,1822.2617,609.8775,1817.9411,606.2262,1822.68,614.86" style="stroke:#A80036;stroke-width:1.0;"/><text fill="#000000" font-family="sans-serif" font-size="13" lengthAdjust="spacing" textLength="24" x="1816.5" y="568.0669">add</text><!--MD5=[8de23a9518bd0a3de017f4a170eb144b]
link Administrator to Venue--><path codeLine="120" d="M1627.87,416.776 C1600.61,452.8 1562.73,496.15 1520.5,525 C1323.59,659.519 1215.36,525.494 989.5,602 C981.69,604.645 973.908,608.83 966.92,613.311 " fill="none" id="Administrator-to-Venue" style="stroke:#A80036;stroke-width:1.0;"/><polygon fill="#A80036" points="962.678,616.129,972.3877,614.4795,966.8424,613.3618,967.9602,607.8164,962.678,616.129" style="stroke:#A80036;stroke-width:1.0;"/><text fill="#000000" font-family="sans-serif" font-size="13" lengthAdjust="spacing" textLength="33" x="1465.5" y="568.0669">close</text><!--MD5=[c8ecc96e049822d047e1e20cd7f62a56]
reverse link User to Account--><path codeLine="122" d="M882.734,387.358 C960.925,424.324 1089.84,483.055 1204.5,525 C1248.48,541.088 1262.02,537.608 1305.5,555 C1326.82,563.527 1377.39,590.92 1397.5,602 C1406.38,606.891 1415.93,612.452 1424.5,617.55 " fill="none" id="User-backto-Account" style="stroke:#A80036;stroke-width:1.0;"/><polygon fill="#FFFFFF" points="870.63,381.618,874.3374,387.8031,881.4726,386.7597,877.7652,380.5747,870.63,381.618" style="stroke:#A80036;stroke-width:1.0;"/><text fill="#000000" font-family="sans-serif" font-size="13" lengthAdjust="spacing" textLength="41" x="1340.5" y="568.0669">create</text><!--MD5=[c8ecc96e049822d047e1e20cd7f62a56]
reverse link User to Account--><path codeLine="124" d="M882.795,390.759 C960.284,430.176 1087.92,490.572 1204.5,525 C1283.97,548.467 1316.99,513.141 1388.5,555 C1410,567.585 1427.03,590.515 1437.94,608.441 " fill="none" id="User-backto-Account-1" style="stroke:#A80036;stroke-width:1.0;"/><polygon fill="#FFFFFF" points="870.799,384.621,874.3184,390.915,881.4818,390.087,877.9624,383.7931,870.799,384.621" style="stroke:#A80036;stroke-width:1.0;"/><!--MD5=[87124c9ddd046e983f03a9e038c77925]
reverse link User to Information--><path codeLine="123" d="M880.487,414.792 C919.8,452.485 967.618,503.164 1001.5,555 C1031.35,600.674 1008.88,631.565 1049.5,668 C1130.96,741.0675 1266.37,758.5599 1331,762.7202 " fill="none" id="User-backto-Information" style="stroke:#A80036;stroke-width:1.0;"/><polygon fill="#FFFFFF" points="870.689,405.496,872.2885,412.5275,879.3942,413.7555,877.7948,406.724,870.689,405.496" style="stroke:#A80036;stroke-width:1.0;"/><text fill="#000000" font-family="sans-serif" font-size="13" lengthAdjust="spacing" textLength="42" x="1050.5" y="639.5669">import</text><!--MD5=[87124c9ddd046e983f03a9e038c77925]
reverse link User to Information--><path codeLine="130" d="M883.018,380.641 C1006.682,429.888 1250.9,533.011 1311.5,602 C1348.52,644.143 1361.38,712.0567 1365.59,744.9408 " fill="none" id="User-backto-Information-1" style="stroke:#A80036;stroke-width:1.0;"/><polygon fill="#FFFFFF" points="870.715,375.762,874.8176,381.6923,881.8697,380.1862,877.7671,374.2559,870.715,375.762" style="stroke:#A80036;stroke-width:1.0;"/><text fill="#000000" font-family="sans-serif" font-size="13" lengthAdjust="spacing" textLength="23" x="1349.5" y="639.5669">see</text><!--MD5=[2d3d24ce923cffcb9d23da37a39a64b9]
link User to Option--><path codeLine="125" d="M870.601,383.444 C933.331,418.195 1031.33,479.701 1095.5,555 C1109.35,571.247 1119.69,593.258 1126.23,609.921 " fill="none" id="User-to-Option" style="stroke:#A80036;stroke-width:1.0;"/><polygon fill="#A80036" points="1128.14,614.908,1128.6527,605.0725,1126.3499,610.2394,1121.183,607.9366,1128.14,614.908" style="stroke:#A80036;stroke-width:1.0;"/><text fill="#000000" font-family="sans-serif" font-size="13" lengthAdjust="spacing" textLength="32" x="1108.5" y="568.0669">have</text><!--MD5=[feb9921cfc84d3fd7181744cd332885c]
link Maintainer to Maintainer--><path codeLine="126" d="M1299.71,39.785 C1318.79,39.269 1334.5,44.508 1334.5,55.5 C1334.5,65.462 1321.6,70.698 1304.98,71.209 " fill="none" id="Maintainer-to-Maintainer" style="stroke:#A80036;stroke-width:1.0;"/><polygon fill="#A80036" points="1299.71,71.215,1308.71,75.215,1304.71,71.215,1308.71,67.215,1299.71,71.215" style="stroke:#A80036;stroke-width:1.0;"/><text fill="#000000" font-family="sans-serif" font-size="13" lengthAdjust="spacing" textLength="66" x="1340.5" y="60.0669">guarantee</text><!--MD5=[ca103b65d9182c1c85a77129b58a4ad6]
link User to Route--><path codeLine="127" d="M795.707,525.186 C798.016,541.305 801.786,557.15 807.5,572 C813.958,588.784 827.296,603.853 839.335,614.932 " fill="none" id="User-to-Route" style="stroke:#A80036;stroke-width:1.0;"/><polygon fill="#A80036" points="843.356,618.533,839.3189,609.5496,839.6309,615.1978,833.9826,615.5098,843.356,618.533" style="stroke:#A80036;stroke-width:1.0;"/><text fill="#000000" font-family="sans-serif" font-size="13" lengthAdjust="spacing" textLength="23" x="808.5" y="568.0669">see</text><!--MD5=[06b011e000f56fac8c11b4b408d55f67]
link Administrator to Account--><path codeLine="129" d="M1644.45,416.775 C1622.57,463.531 1588.38,526.375 1545.5,572 C1527.73,590.911 1503.11,606.881 1483.53,617.875 " fill="none" id="Administrator-to-Account" style="stroke:#A80036;stroke-width:1.0;"/><polygon fill="#A80036" points="1478.66,620.561,1488.4703,619.6909,1483.0318,618.1346,1484.5881,612.696,1478.66,620.561" style="stroke:#A80036;stroke-width:1.0;"/><text fill="#000000" font-family="sans-serif" font-size="13" lengthAdjust="spacing" textLength="33" x="1560.5" y="568.0669">block</text><!--MD5=[ef9d44819f98ec8a18ed7aea4134e0e0]
link User to Profession--><path codeLine="131" d="M750.228,366.134 C634.262,393.522 373.433,460.763 168.5,555 C133.933,570.895 97.3309,594.475 72.3474,611.735 " fill="none" id="User-to-Profession" style="stroke:#A80036;stroke-width:1.0;"/><polygon fill="#A80036" points="68.1307,614.665,77.8041,612.8145,72.2368,611.812,73.2393,606.2447,68.1307,614.665" style="stroke:#A80036;stroke-width:1.0;"/><text fill="#000000" font-family="sans-serif" font-size="13" lengthAdjust="spacing" textLength="23" x="169.5" y="568.0669">see</text><!--MD5=[77f30266b3410a79adc62bf456763504]
@startuml
hide circle
class Administrator<actor> {
}
class Maintainer<actor> {
}
class Developer<actor> {
}
class User<actor> {
	information
	area
	friend
	accountInformation
}
class Venue {
	detail
	be()
}
class User {
	call()
	see()
	create()
	consent()
	search()
	import()
	delete()
	lose()
	contact()
	get()
	confirm()
	have()
	block()
	leave()
	enter()
	unblock()
	close()
	find()
	reject()
	receive()
}
class Message {
}
class Info {
}
class Question {
}
class Maintainer {
	make()
	see()
	withdraw()
	guarantee()
}
class Administrator {
	see()
	edit()
	add()
	block()
	cancel()
	close()
	open()
}
class LocationInformation {
}
class Friend {
}
class Account {
	follow()
}
class Policy {
}
class Event {
}
class Option {
}
class Information {
}
class TutorialEntrance {
	introduce()
}
class Detail {
}
class Developer {
	guarantee()
}
class Analytic {
}
class GpsRecording {
	let()
}
class Route {
}
class Profession {
}
class Recommendation {
}
User - -> Message : block
User - -> Message : lose
User - -> Venue : see
User - -> TutorialEntrance : see
User o- - Info : receive
Maintainer - -> User : guarantee
User - -> User : contact
User - -> Recommendation : receive
Administrator - -> Detail : edit
Route - -> Friend : to
User - -> Question : see
Account o- - Information
User - -> LocationInformation : get
Developer - -> User : guarantee
Maintainer - -> Account : withdraw
User o- - Friend : delete
User - -> Venue : leave
Maintainer - -> Analytic : see
User - -> Venue : enter
User - -> User : confirm
Account - -> Policy : follow
User - -> User : see
Administrator - -> Information : see
User - -> Message : call
Administrator - -> Event : cancel
Administrator - -> Venue : close
Administrator - -> Event : add
User o- - Account : create
User o- - Information : import
User o- - Account
User - -> Option : have
Maintainer - -> Maintainer : guarantee
User - -> Route : see
User - -> Message : unblock
Administrator - -> Account : block
User o- - Information : see
User - -> Profession : see
@enduml

PlantUML version 1.2021.10beta2(Unknown compile time)
(GPL source distribution)
Java Runtime: Java(TM) SE Runtime Environment
JVM: Java HotSpot(TM) 64-Bit Server VM
Default Encoding: UTF-8
Language: en
Country: US
--></g></svg>