<?xml version="1.0" encoding="UTF-8" standalone="no"?><svg xmlns="http://www.w3.org/2000/svg" xmlns:xlink="http://www.w3.org/1999/xlink" contentScriptType="application/ecmascript" contentStyleType="text/css" height="321px" preserveAspectRatio="none" style="width:2874px;height:321px;background:#FFFFFF;" version="1.1" viewBox="0 0 2874 321" width="2874px" zoomAndPan="magnify"><defs><filter height="300%" id="f1x0qubtujn278" width="300%" x="-1" y="-1"><feGaussianBlur result="blurOut" stdDeviation="2.0"/><feColorMatrix in="blurOut" result="blurOut2" type="matrix" values="0 0 0 0 0 0 0 0 0 0 0 0 0 0 0 0 0 0 .4 0"/><feOffset dx="4.0" dy="4.0" in="blurOut2" result="blurOut3"/><feBlend in="SourceGraphic" in2="blurOut3" mode="normal"/></filter></defs><g><!--MD5=[3fd616f346a44cd59a91eb10b19e157c]
class User--><rect codeLine="42" fill="#FEFECE" filter="url(#f1x0qubtujn278)" height="116.7969" id="User" style="stroke:#A80036;stroke-width:1.5;" width="70" x="329.5" y="42"/><text fill="#000000" font-family="sans-serif" font-size="12" lengthAdjust="spacing" textLength="29" x="332.5" y="58.1387">User</text><rect fill="#FFFFFF" height="15.9688" style="stroke:#000000;stroke-width:1.0;stroke-dasharray:2.0,2.0;" width="33" x="369.5" y="39"/><text fill="#000000" font-family="sans-serif" font-size="12" font-style="italic" lengthAdjust="spacing" textLength="31" x="370.5" y="51.1387">actor</text><line style="stroke:#A80036;stroke-width:1.5;" x1="330.5" x2="398.5" y1="65.9688" y2="65.9688"/><line style="stroke:#A80036;stroke-width:1.5;" x1="330.5" x2="398.5" y1="73.9688" y2="73.9688"/><text fill="#000000" font-family="sans-serif" font-size="11" lengthAdjust="spacing" textLength="42" x="335.5" y="88.1792">report()</text><text fill="#000000" font-family="sans-serif" font-size="11" lengthAdjust="spacing" textLength="48" x="335.5" y="100.9839">update()</text><text fill="#000000" font-family="sans-serif" font-size="11" lengthAdjust="spacing" textLength="55" x="335.5" y="113.7886">manage()</text><text fill="#000000" font-family="sans-serif" font-size="11" lengthAdjust="spacing" textLength="46" x="335.5" y="126.5933">delete()</text><text fill="#000000" font-family="sans-serif" font-size="11" lengthAdjust="spacing" textLength="37" x="335.5" y="139.3979">block()</text><text fill="#000000" font-family="sans-serif" font-size="11" lengthAdjust="spacing" textLength="47" x="335.5" y="152.2026">access()</text><!--MD5=[9dd4eaa2771a2ff8dbee15cc1e732cab]
class Patient--><rect codeLine="16" fill="#FEFECE" filter="url(#f1x0qubtujn278)" height="180.8203" id="Patient" style="stroke:#A80036;stroke-width:1.5;" width="80" x="1408.5" y="10"/><text fill="#000000" font-family="sans-serif" font-size="12" lengthAdjust="spacing" textLength="39" x="1411.5" y="26.1387">Patient</text><rect fill="#FFFFFF" height="15.9688" style="stroke:#000000;stroke-width:1.0;stroke-dasharray:2.0,2.0;" width="33" x="1458.5" y="7"/><text fill="#000000" font-family="sans-serif" font-size="12" font-style="italic" lengthAdjust="spacing" textLength="31" x="1459.5" y="19.1387">actor</text><line style="stroke:#A80036;stroke-width:1.5;" x1="1409.5" x2="1487.5" y1="33.9688" y2="33.9688"/><line style="stroke:#A80036;stroke-width:1.5;" x1="1409.5" x2="1487.5" y1="41.9688" y2="41.9688"/><text fill="#000000" font-family="sans-serif" font-size="11" lengthAdjust="spacing" textLength="60" x="1414.5" y="56.1792">attended()</text><text fill="#000000" font-family="sans-serif" font-size="11" lengthAdjust="spacing" textLength="37" x="1414.5" y="68.9839">have()</text><text fill="#000000" font-family="sans-serif" font-size="11" lengthAdjust="spacing" textLength="28" x="1414.5" y="81.7886">pull()</text><text fill="#000000" font-family="sans-serif" font-size="11" lengthAdjust="spacing" textLength="27" x="1414.5" y="94.5933">get()</text><text fill="#000000" font-family="sans-serif" font-size="11" lengthAdjust="spacing" textLength="61" x="1414.5" y="107.3979">message()</text><text fill="#000000" font-family="sans-serif" font-size="11" lengthAdjust="spacing" textLength="49" x="1414.5" y="120.2026">contact()</text><text fill="#000000" font-family="sans-serif" font-size="11" lengthAdjust="spacing" textLength="47" x="1414.5" y="133.0073">posted()</text><text fill="#000000" font-family="sans-serif" font-size="11" lengthAdjust="spacing" textLength="28" x="1414.5" y="145.812">has()</text><text fill="#000000" font-family="sans-serif" font-size="11" lengthAdjust="spacing" textLength="36" x="1414.5" y="158.6167">send()</text><text fill="#000000" font-family="sans-serif" font-size="11" lengthAdjust="spacing" textLength="29" x="1414.5" y="171.4214">add()</text><text fill="#000000" font-family="sans-serif" font-size="11" lengthAdjust="spacing" textLength="40" x="1414.5" y="184.2261">share()</text><!--MD5=[1372b0db8a45810a4635c25f853d4d30]
class Support--><rect codeLine="6" fill="#FEFECE" filter="url(#f1x0qubtujn278)" height="39.9688" id="Support" style="stroke:#A80036;stroke-width:1.5;" width="89" x="8" y="80.5"/><text fill="#000000" font-family="sans-serif" font-size="12" lengthAdjust="spacing" textLength="48" x="11" y="96.6387">Support</text><rect fill="#FFFFFF" height="15.9688" style="stroke:#000000;stroke-width:1.0;stroke-dasharray:2.0,2.0;" width="33" x="67" y="77.5"/><text fill="#000000" font-family="sans-serif" font-size="12" font-style="italic" lengthAdjust="spacing" textLength="31" x="68" y="89.6387">actor</text><line style="stroke:#A80036;stroke-width:1.5;" x1="9" x2="96" y1="104.4688" y2="104.4688"/><line style="stroke:#A80036;stroke-width:1.5;" x1="9" x2="96" y1="112.4688" y2="112.4688"/><!--MD5=[da547346deef918ea16944ba046651ef]
class Administrator--><rect codeLine="37" fill="#FEFECE" filter="url(#f1x0qubtujn278)" height="52.7734" id="Administrator" style="stroke:#A80036;stroke-width:1.5;" width="121" x="435" y="74"/><text fill="#000000" font-family="sans-serif" font-size="12" lengthAdjust="spacing" textLength="80" x="438" y="90.1387">Administrator</text><rect fill="#FFFFFF" height="15.9688" style="stroke:#000000;stroke-width:1.0;stroke-dasharray:2.0,2.0;" width="33" x="526" y="71"/><text fill="#000000" font-family="sans-serif" font-size="12" font-style="italic" lengthAdjust="spacing" textLength="31" x="527" y="83.1387">actor</text><line style="stroke:#A80036;stroke-width:1.5;" x1="436" x2="555" y1="97.9688" y2="97.9688"/><line style="stroke:#A80036;stroke-width:1.5;" x1="436" x2="555" y1="105.9688" y2="105.9688"/><text fill="#000000" font-family="sans-serif" font-size="11" lengthAdjust="spacing" textLength="63" x="441" y="120.1792">suspense()</text><!--MD5=[f3d1356aba08e5323d0044b15abb886b]
class Family--><rect codeLine="10" fill="#FEFECE" filter="url(#f1x0qubtujn278)" height="39.9688" id="Family" style="stroke:#A80036;stroke-width:1.5;" width="79" x="132" y="80.5"/><text fill="#000000" font-family="sans-serif" font-size="12" lengthAdjust="spacing" textLength="38" x="135" y="96.6387">Family</text><rect fill="#FFFFFF" height="15.9688" style="stroke:#000000;stroke-width:1.0;stroke-dasharray:2.0,2.0;" width="33" x="181" y="77.5"/><text fill="#000000" font-family="sans-serif" font-size="12" font-style="italic" lengthAdjust="spacing" textLength="31" x="182" y="89.6387">actor</text><line style="stroke:#A80036;stroke-width:1.5;" x1="133" x2="210" y1="104.4688" y2="104.4688"/><line style="stroke:#A80036;stroke-width:1.5;" x1="133" x2="210" y1="112.4688" y2="112.4688"/><!--MD5=[f58fd777f29c17413488bea9e7cfcca3]
class Member--><rect codeLine="12" fill="#FEFECE" filter="url(#f1x0qubtujn278)" height="39.9688" id="Member" style="stroke:#A80036;stroke-width:1.5;" width="91" x="7" y="268"/><text fill="#000000" font-family="sans-serif" font-size="12" lengthAdjust="spacing" textLength="50" x="10" y="284.1387">Member</text><rect fill="#FFFFFF" height="15.9688" style="stroke:#000000;stroke-width:1.0;stroke-dasharray:2.0,2.0;" width="33" x="68" y="265"/><text fill="#000000" font-family="sans-serif" font-size="12" font-style="italic" lengthAdjust="spacing" textLength="31" x="69" y="277.1387">actor</text><line style="stroke:#A80036;stroke-width:1.5;" x1="8" x2="97" y1="291.9688" y2="291.9688"/><line style="stroke:#A80036;stroke-width:1.5;" x1="8" x2="97" y1="299.9688" y2="299.9688"/><!--MD5=[db6d18d8099558415abc41d00477ab92]
class Admin--><rect codeLine="31" fill="#FEFECE" filter="url(#f1x0qubtujn278)" height="65.5781" id="Admin" style="stroke:#A80036;stroke-width:1.5;" width="78" x="2223.5" y="67.5"/><text fill="#000000" font-family="sans-serif" font-size="12" lengthAdjust="spacing" textLength="37" x="2226.5" y="83.6387">Admin</text><rect fill="#FFFFFF" height="15.9688" style="stroke:#000000;stroke-width:1.0;stroke-dasharray:2.0,2.0;" width="33" x="2271.5" y="64.5"/><text fill="#000000" font-family="sans-serif" font-size="12" font-style="italic" lengthAdjust="spacing" textLength="31" x="2272.5" y="76.6387">actor</text><line style="stroke:#A80036;stroke-width:1.5;" x1="2224.5" x2="2300.5" y1="91.4688" y2="91.4688"/><line style="stroke:#A80036;stroke-width:1.5;" x1="2224.5" x2="2300.5" y1="99.4688" y2="99.4688"/><text fill="#000000" font-family="sans-serif" font-size="11" lengthAdjust="spacing" textLength="35" x="2229.5" y="113.6792">view()</text><text fill="#000000" font-family="sans-serif" font-size="11" lengthAdjust="spacing" textLength="32" x="2229.5" y="126.4839">post()</text><!--MD5=[ac13618b1a974308c1f12eb6c57723dc]
class Event--><rect codeLine="29" fill="#FEFECE" filter="url(#f1x0qubtujn278)" height="39.9688" id="Event" style="stroke:#A80036;stroke-width:1.5;" width="39" x="1230" y="268"/><text fill="#000000" font-family="sans-serif" font-size="12" lengthAdjust="spacing" textLength="33" x="1233" y="284.1387">Event</text><line style="stroke:#A80036;stroke-width:1.5;" x1="1231" x2="1268" y1="291.9688" y2="291.9688"/><line style="stroke:#A80036;stroke-width:1.5;" x1="1231" x2="1268" y1="299.9688" y2="299.9688"/><!--MD5=[3d4177ac58b4411586d067f34e84928f]
class List--><rect codeLine="35" fill="#FEFECE" filter="url(#f1x0qubtujn278)" height="39.9688" id="List" style="stroke:#A80036;stroke-width:1.5;" width="26" x="2153.5" y="268"/><text fill="#000000" font-family="sans-serif" font-size="12" lengthAdjust="spacing" textLength="20" x="2156.5" y="284.1387">List</text><line style="stroke:#A80036;stroke-width:1.5;" x1="2154.5" x2="2178.5" y1="291.9688" y2="291.9688"/><line style="stroke:#A80036;stroke-width:1.5;" x1="2154.5" x2="2178.5" y1="299.9688" y2="299.9688"/><!--MD5=[f9a29335b499db729be669fd1bd54958]
class Account--><rect codeLine="40" fill="#FEFECE" filter="url(#f1x0qubtujn278)" height="39.9688" id="Account" style="stroke:#A80036;stroke-width:1.5;" width="54" x="389.5" y="268"/><text fill="#000000" font-family="sans-serif" font-size="12" lengthAdjust="spacing" textLength="48" x="392.5" y="284.1387">Account</text><line style="stroke:#A80036;stroke-width:1.5;" x1="390.5" x2="442.5" y1="291.9688" y2="291.9688"/><line style="stroke:#A80036;stroke-width:1.5;" x1="390.5" x2="442.5" y1="299.9688" y2="299.9688"/><!--MD5=[d01592ef2be16addf54c921e7bc91bd9]
class Junk--><rect codeLine="50" fill="#FEFECE" filter="url(#f1x0qubtujn278)" height="39.9688" id="Junk" style="stroke:#A80036;stroke-width:1.5;" width="31" x="133" y="268"/><text fill="#000000" font-family="sans-serif" font-size="12" lengthAdjust="spacing" textLength="25" x="136" y="284.1387">Junk</text><line style="stroke:#A80036;stroke-width:1.5;" x1="134" x2="163" y1="291.9688" y2="291.9688"/><line style="stroke:#A80036;stroke-width:1.5;" x1="134" x2="163" y1="299.9688" y2="299.9688"/><!--MD5=[c1ab94e7e41838408b6a4d073da94126]
class member--><rect codeLine="52" fill="#FEFECE" filter="url(#f1x0qubtujn278)" height="78.3828" id="member" style="stroke:#A80036;stroke-width:1.5;" width="64" x="2543.5" y="61.5"/><text fill="#000000" font-family="sans-serif" font-size="12" lengthAdjust="spacing" textLength="51" x="2550" y="77.6387">member</text><line style="stroke:#A80036;stroke-width:1.5;" x1="2544.5" x2="2606.5" y1="85.4688" y2="85.4688"/><line style="stroke:#A80036;stroke-width:1.5;" x1="2544.5" x2="2606.5" y1="93.4688" y2="93.4688"/><text fill="#000000" font-family="sans-serif" font-size="11" lengthAdjust="spacing" textLength="36" x="2549.5" y="107.6792">send()</text><text fill="#000000" font-family="sans-serif" font-size="11" lengthAdjust="spacing" textLength="52" x="2549.5" y="120.4839">receive()</text><text fill="#000000" font-family="sans-serif" font-size="11" lengthAdjust="spacing" textLength="27" x="2549.5" y="133.2886">get()</text><!--MD5=[d189332174d53557e6def82bbd003869]
class Link--><rect codeLine="57" fill="#FEFECE" filter="url(#f1x0qubtujn278)" height="39.9688" id="Link" style="stroke:#A80036;stroke-width:1.5;" width="29" x="2441" y="268"/><text fill="#000000" font-family="sans-serif" font-size="12" lengthAdjust="spacing" textLength="23" x="2444" y="284.1387">Link</text><line style="stroke:#A80036;stroke-width:1.5;" x1="2442" x2="2469" y1="291.9688" y2="291.9688"/><line style="stroke:#A80036;stroke-width:1.5;" x1="2442" x2="2469" y1="299.9688" y2="299.9688"/><!--MD5=[466d2dab18863e33ee0825aa5cd16315]
class HealthCondition--><rect codeLine="59" fill="#FEFECE" filter="url(#f1x0qubtujn278)" height="39.9688" id="HealthCondition" style="stroke:#A80036;stroke-width:1.5;" width="100" x="1329.5" y="268"/><text fill="#000000" font-family="sans-serif" font-size="12" lengthAdjust="spacing" textLength="94" x="1332.5" y="284.1387">HealthCondition</text><line style="stroke:#A80036;stroke-width:1.5;" x1="1330.5" x2="1428.5" y1="291.9688" y2="291.9688"/><line style="stroke:#A80036;stroke-width:1.5;" x1="1330.5" x2="1428.5" y1="299.9688" y2="299.9688"/><!--MD5=[08dbe06e87f91eb667838fe2f259c34a]
class Money--><rect codeLine="61" fill="#FEFECE" filter="url(#f1x0qubtujn278)" height="39.9688" id="Money" style="stroke:#A80036;stroke-width:1.5;" width="46" x="2505.5" y="268"/><text fill="#000000" font-family="sans-serif" font-size="12" lengthAdjust="spacing" textLength="40" x="2508.5" y="284.1387">Money</text><line style="stroke:#A80036;stroke-width:1.5;" x1="2506.5" x2="2550.5" y1="291.9688" y2="291.9688"/><line style="stroke:#A80036;stroke-width:1.5;" x1="2506.5" x2="2550.5" y1="299.9688" y2="299.9688"/><!--MD5=[b34797a66dc35cbf1d65f7e3ca75530e]
class Task--><rect codeLine="63" fill="#FEFECE" filter="url(#f1x0qubtujn278)" height="39.9688" id="Task" style="stroke:#A80036;stroke-width:1.5;" width="34" x="1464.5" y="268"/><text fill="#000000" font-family="sans-serif" font-size="12" lengthAdjust="spacing" textLength="28" x="1467.5" y="284.1387">Task</text><line style="stroke:#A80036;stroke-width:1.5;" x1="1465.5" x2="1497.5" y1="291.9688" y2="291.9688"/><line style="stroke:#A80036;stroke-width:1.5;" x1="1465.5" x2="1497.5" y1="299.9688" y2="299.9688"/><!--MD5=[04df7bfd972d2d3ea0273e95b66a80a5]
class Announcement--><rect codeLine="65" fill="#FEFECE" filter="url(#f1x0qubtujn278)" height="39.9688" id="Announcement" style="stroke:#A80036;stroke-width:1.5;" width="95" x="2215" y="268"/><text fill="#000000" font-family="sans-serif" font-size="12" lengthAdjust="spacing" textLength="89" x="2218" y="284.1387">Announcement</text><line style="stroke:#A80036;stroke-width:1.5;" x1="2216" x2="2309" y1="291.9688" y2="291.9688"/><line style="stroke:#A80036;stroke-width:1.5;" x1="2216" x2="2309" y1="299.9688" y2="299.9688"/><!--MD5=[4dacec96385027edaceac523b151f134]
class members--><rect codeLine="67" fill="#FEFECE" filter="url(#f1x0qubtujn278)" height="39.9688" id="members" style="stroke:#A80036;stroke-width:1.5;" width="64" x="566.5" y="268"/><text fill="#000000" font-family="sans-serif" font-size="12" lengthAdjust="spacing" textLength="58" x="569.5" y="284.1387">members</text><line style="stroke:#A80036;stroke-width:1.5;" x1="567.5" x2="629.5" y1="291.9688" y2="291.9688"/><line style="stroke:#A80036;stroke-width:1.5;" x1="567.5" x2="629.5" y1="299.9688" y2="299.9688"/><!--MD5=[99e07dfb23cbce7e3835f47d20f0f5cf]
class SupportGroup--><rect codeLine="69" fill="#FEFECE" filter="url(#f1x0qubtujn278)" height="52.7734" id="SupportGroup" style="stroke:#A80036;stroke-width:1.5;" width="91" x="2769" y="74"/><text fill="#000000" font-family="sans-serif" font-size="12" lengthAdjust="spacing" textLength="85" x="2772" y="90.1387">SupportGroup</text><line style="stroke:#A80036;stroke-width:1.5;" x1="2770" x2="2859" y1="97.9688" y2="97.9688"/><line style="stroke:#A80036;stroke-width:1.5;" x1="2770" x2="2859" y1="105.9688" y2="105.9688"/><text fill="#000000" font-family="sans-serif" font-size="11" lengthAdjust="spacing" textLength="47" x="2775" y="120.1792">access()</text><!--MD5=[ea03bdbd065578ac5244a06dd30cb289]
class kind--><rect codeLine="72" fill="#FEFECE" filter="url(#f1x0qubtujn278)" height="39.9688" id="kind" style="stroke:#A80036;stroke-width:1.5;" width="31" x="2799" y="268"/><text fill="#000000" font-family="sans-serif" font-size="12" lengthAdjust="spacing" textLength="25" x="2802" y="284.1387">kind</text><line style="stroke:#A80036;stroke-width:1.5;" x1="2800" x2="2829" y1="291.9688" y2="291.9688"/><line style="stroke:#A80036;stroke-width:1.5;" x1="2800" x2="2829" y1="299.9688" y2="299.9688"/><!--MD5=[2053f490fa4847b7d50893a5306c8fae]
class AdMessage--><rect codeLine="74" fill="#FEFECE" filter="url(#f1x0qubtujn278)" height="39.9688" id="AdMessage" style="stroke:#A80036;stroke-width:1.5;" width="77" x="199" y="268"/><text fill="#000000" font-family="sans-serif" font-size="12" lengthAdjust="spacing" textLength="71" x="202" y="284.1387">AdMessage</text><line style="stroke:#A80036;stroke-width:1.5;" x1="200" x2="275" y1="291.9688" y2="291.9688"/><line style="stroke:#A80036;stroke-width:1.5;" x1="200" x2="275" y1="299.9688" y2="299.9688"/><!--MD5=[5cdf5007a7931426b408c5d6fc2e1f01]
class Messaging--><rect codeLine="76" fill="#FEFECE" filter="url(#f1x0qubtujn278)" height="39.9688" id="Messaging" style="stroke:#A80036;stroke-width:1.5;" width="71" x="1534" y="268"/><text fill="#000000" font-family="sans-serif" font-size="12" lengthAdjust="spacing" textLength="65" x="1537" y="284.1387">Messaging</text><line style="stroke:#A80036;stroke-width:1.5;" x1="1535" x2="1604" y1="291.9688" y2="291.9688"/><line style="stroke:#A80036;stroke-width:1.5;" x1="1535" x2="1604" y1="299.9688" y2="299.9688"/><!--MD5=[46d3da454668c9651b5b64aea62c92af]
class CalendarEvent--><rect codeLine="78" fill="#FEFECE" filter="url(#f1x0qubtujn278)" height="39.9688" id="CalendarEvent" style="stroke:#A80036;stroke-width:1.5;" width="92" x="1640.5" y="268"/><text fill="#000000" font-family="sans-serif" font-size="12" lengthAdjust="spacing" textLength="86" x="1643.5" y="284.1387">CalendarEvent</text><line style="stroke:#A80036;stroke-width:1.5;" x1="1641.5" x2="1731.5" y1="291.9688" y2="291.9688"/><line style="stroke:#A80036;stroke-width:1.5;" x1="1641.5" x2="1731.5" y1="299.9688" y2="299.9688"/><!--MD5=[bea5b0d46523efab5ea1c1d339f396f0]
class Message--><rect codeLine="80" fill="#FEFECE" filter="url(#f1x0qubtujn278)" height="39.9688" id="Message" style="stroke:#A80036;stroke-width:1.5;" width="61" x="1039" y="268"/><text fill="#000000" font-family="sans-serif" font-size="12" lengthAdjust="spacing" textLength="55" x="1042" y="284.1387">Message</text><line style="stroke:#A80036;stroke-width:1.5;" x1="1040" x2="1099" y1="291.9688" y2="291.9688"/><line style="stroke:#A80036;stroke-width:1.5;" x1="1040" x2="1099" y1="299.9688" y2="299.9688"/><!--MD5=[b76c921dec148580e221480ea486da2a]
class Friend--><rect codeLine="82" fill="#FEFECE" filter="url(#f1x0qubtujn278)" height="39.9688" id="Friend" style="stroke:#A80036;stroke-width:1.5;" width="44" x="1767.5" y="268"/><text fill="#000000" font-family="sans-serif" font-size="12" lengthAdjust="spacing" textLength="38" x="1770.5" y="284.1387">Friend</text><line style="stroke:#A80036;stroke-width:1.5;" x1="1768.5" x2="1810.5" y1="291.9688" y2="291.9688"/><line style="stroke:#A80036;stroke-width:1.5;" x1="1768.5" x2="1810.5" y1="299.9688" y2="299.9688"/><!--MD5=[30fd7b95ab383a5e7c83ea23d4ea0fbf]
class Information--><rect codeLine="84" fill="#FEFECE" filter="url(#f1x0qubtujn278)" height="39.9688" id="Information" style="stroke:#A80036;stroke-width:1.5;" width="73" x="693" y="268"/><text fill="#000000" font-family="sans-serif" font-size="12" lengthAdjust="spacing" textLength="67" x="696" y="284.1387">Information</text><line style="stroke:#A80036;stroke-width:1.5;" x1="694" x2="765" y1="291.9688" y2="291.9688"/><line style="stroke:#A80036;stroke-width:1.5;" x1="694" x2="765" y1="299.9688" y2="299.9688"/><!--MD5=[f572c118330f78587a09a8d1323f8ced]
class Calendar--><rect codeLine="86" fill="#FEFECE" filter="url(#f1x0qubtujn278)" height="39.9688" id="Calendar" style="stroke:#A80036;stroke-width:1.5;" width="59" x="1847" y="268"/><text fill="#000000" font-family="sans-serif" font-size="12" lengthAdjust="spacing" textLength="53" x="1850" y="284.1387">Calendar</text><line style="stroke:#A80036;stroke-width:1.5;" x1="1848" x2="1905" y1="291.9688" y2="291.9688"/><line style="stroke:#A80036;stroke-width:1.5;" x1="1848" x2="1905" y1="299.9688" y2="299.9688"/><!--MD5=[76b5e19c9337179d2d7ae334371d68c8]
class Notification--><rect codeLine="88" fill="#FEFECE" filter="url(#f1x0qubtujn278)" height="39.9688" id="Notification" style="stroke:#A80036;stroke-width:1.5;" width="72" x="2586.5" y="268"/><text fill="#000000" font-family="sans-serif" font-size="12" lengthAdjust="spacing" textLength="66" x="2589.5" y="284.1387">Notification</text><line style="stroke:#A80036;stroke-width:1.5;" x1="2587.5" x2="2657.5" y1="291.9688" y2="291.9688"/><line style="stroke:#A80036;stroke-width:1.5;" x1="2587.5" x2="2657.5" y1="299.9688" y2="299.9688"/><!--MD5=[c508b5b6bbe276ff5e2700b6641f837f]
class Appointment--><rect codeLine="90" fill="#FEFECE" filter="url(#f1x0qubtujn278)" height="39.9688" id="Appointment" style="stroke:#A80036;stroke-width:1.5;" width="82" x="1941.5" y="268"/><text fill="#000000" font-family="sans-serif" font-size="12" lengthAdjust="spacing" textLength="76" x="1944.5" y="284.1387">Appointment</text><line style="stroke:#A80036;stroke-width:1.5;" x1="1942.5" x2="2022.5" y1="291.9688" y2="291.9688"/><line style="stroke:#A80036;stroke-width:1.5;" x1="1942.5" x2="2022.5" y1="299.9688" y2="299.9688"/><!--MD5=[91837343f19ad6bb47ed4fe22d7145fa]
class Invitation--><rect codeLine="92" fill="#FEFECE" filter="url(#f1x0qubtujn278)" height="39.9688" id="Invitation" style="stroke:#A80036;stroke-width:1.5;" width="59" x="2059" y="268"/><text fill="#000000" font-family="sans-serif" font-size="12" lengthAdjust="spacing" textLength="53" x="2062" y="284.1387">Invitation</text><line style="stroke:#A80036;stroke-width:1.5;" x1="2060" x2="2117" y1="291.9688" y2="291.9688"/><line style="stroke:#A80036;stroke-width:1.5;" x1="2060" x2="2117" y1="299.9688" y2="299.9688"/><!--MD5=[7b57f7066b803747d2119f99dd1555d4]
class Profile--><rect codeLine="94" fill="#FEFECE" filter="url(#f1x0qubtujn278)" height="39.9688" id="Profile" style="stroke:#A80036;stroke-width:1.5;" width="43" x="860" y="268"/><text fill="#000000" font-family="sans-serif" font-size="12" lengthAdjust="spacing" textLength="37" x="863" y="284.1387">Profile</text><line style="stroke:#A80036;stroke-width:1.5;" x1="861" x2="902" y1="291.9688" y2="291.9688"/><line style="stroke:#A80036;stroke-width:1.5;" x1="861" x2="902" y1="299.9688" y2="299.9688"/><!--MD5=[6b13f1b330d33795af281e5c1dfe1e98]
class Resource--><rect codeLine="96" fill="#FEFECE" filter="url(#f1x0qubtujn278)" height="39.9688" id="Resource" style="stroke:#A80036;stroke-width:1.5;" width="63" x="2694" y="268"/><text fill="#000000" font-family="sans-serif" font-size="12" lengthAdjust="spacing" textLength="57" x="2697" y="284.1387">Resource</text><line style="stroke:#A80036;stroke-width:1.5;" x1="2695" x2="2756" y1="291.9688" y2="291.9688"/><line style="stroke:#A80036;stroke-width:1.5;" x1="2695" x2="2756" y1="299.9688" y2="299.9688"/><!--MD5=[40d2668bbcd459976779c45dfe17221f]
class Statistics--><rect codeLine="98" fill="#FEFECE" filter="url(#f1x0qubtujn278)" height="39.9688" id="Statistics" style="stroke:#A80036;stroke-width:1.5;" width="60" x="2345.5" y="268"/><text fill="#000000" font-family="sans-serif" font-size="12" lengthAdjust="spacing" textLength="54" x="2348.5" y="284.1387">Statistics</text><line style="stroke:#A80036;stroke-width:1.5;" x1="2346.5" x2="2404.5" y1="291.9688" y2="291.9688"/><line style="stroke:#A80036;stroke-width:1.5;" x1="2346.5" x2="2404.5" y1="299.9688" y2="299.9688"/><!--MD5=[b27dcfc3b359db2263782af9766b36fc]
link Patient to Invitation--><path codeLine="100" d="M1488.56,107.919 C1575,122.433 1784.78,161.234 1952.5,221 C1988.37,233.7828 2027.27,253.2792 2054.24,267.7716 " fill="none" id="Patient-to-Invitation" style="stroke:#A80036;stroke-width:1.0;"/><polygon fill="#A80036" points="2058.8,270.2343,2052.7955,262.4275,2054.4048,267.8506,2048.9816,269.4599,2058.8,270.2343" style="stroke:#A80036;stroke-width:1.0;"/><text fill="#000000" font-family="sans-serif" font-size="13" lengthAdjust="spacing" textLength="36" x="1992.5" y="234.0669">share</text><!--MD5=[5a1b16b0b2680fedf0567d56af65bce6]
link User to AdMessage--><path codeLine="101" d="M329.496,134.579 C307.243,157.176 279.202,188.766 260.5,221 C252.92,234.0644 247.273,250.0281 243.472,262.9829 " fill="none" id="User-to-AdMessage" style="stroke:#A80036;stroke-width:1.0;"/><polygon fill="#A80036" points="242.056,267.969,248.363,260.4045,243.4222,263.1593,240.6674,258.2185,242.056,267.969" style="stroke:#A80036;stroke-width:1.0;"/><text fill="#000000" font-family="sans-serif" font-size="13" lengthAdjust="spacing" textLength="39" x="261.5" y="234.0669">report</text><!--MD5=[8a5d498d2c8e5ae3c93cf91d7a5ddd88]
link member to Link--><path codeLine="102" d="M2550.64,139.936 C2526.56,177.158 2490.82,232.3993 2470.7,263.503 " fill="none" id="member-to-Link" style="stroke:#A80036;stroke-width:1.0;"/><polygon fill="#A80036" points="2467.85,267.9119,2476.0959,262.5263,2470.565,263.7132,2469.3781,258.1823,2467.85,267.9119" style="stroke:#A80036;stroke-width:1.0;"/><text fill="#000000" font-family="sans-serif" font-size="13" lengthAdjust="spacing" textLength="31" x="2499.5" y="234.0669">send</text><!--MD5=[87e802f94dff5db0b14b612664619da8]
link User to Account--><path codeLine="103" d="M329.322,145.785 C311.75,173.616 297.658,209.5129 315.5,238 C330.47,261.9014 360.788,274.4382 384.319,280.8214 " fill="none" id="User-to-Account" style="stroke:#A80036;stroke-width:1.0;"/><polygon fill="#A80036" points="389.229,282.092,381.5184,275.9645,384.3885,280.8392,379.5138,283.7093,389.229,282.092" style="stroke:#A80036;stroke-width:1.0;"/><text fill="#000000" font-family="sans-serif" font-size="13" lengthAdjust="spacing" textLength="40" x="316.5" y="234.0669">delete</text><!--MD5=[d79e548e622331a9bbe4aaaa68e4a30e]
link Admin to List--><path codeLine="104" d="M2245.78,133.812 C2226.68,170.715 2195.88,230.2285 2178.84,263.1598 " fill="none" id="Admin-to-List" style="stroke:#A80036;stroke-width:1.0;"/><polygon fill="#A80036" points="2176.43,267.8198,2184.1178,261.6637,2178.7272,263.3788,2177.0121,257.9882,2176.43,267.8198" style="stroke:#A80036;stroke-width:1.0;"/><text fill="#000000" font-family="sans-serif" font-size="13" lengthAdjust="spacing" textLength="30" x="2201.5" y="234.0669">view</text><!--MD5=[1503cfb9e49873958d6a2233129525cf]
link Patient to Profile--><path codeLine="105" d="M1408.39,114.922 C1334.65,139.561 1172.52,193.56 1035.5,238 C990.971,252.4422 939.07,268.8731 908.321,278.5657 " fill="none" id="Patient-to-Profile" style="stroke:#A80036;stroke-width:1.0;"/><polygon fill="#A80036" points="903.202,280.1785,912.9881,281.2884,907.9708,278.6757,910.5836,273.6583,903.202,280.1785" style="stroke:#A80036;stroke-width:1.0;"/><text fill="#000000" font-family="sans-serif" font-size="13" lengthAdjust="spacing" textLength="36" x="1081.5" y="234.0669">share</text><!--MD5=[1daed810571f157784195d6aff3fa27d]
link Patient to members--><path codeLine="106" d="M1408.43,104.043 C1246.44,114.723 646.048,158.319 591.5,221 C581.664,232.3025 583.626,249.151 587.939,262.9954 " fill="none" id="Patient-to-members" style="stroke:#A80036;stroke-width:1.0;"/><polygon fill="#A80036" points="589.616,267.9443,590.5141,258.1365,588.0104,263.2091,582.9378,260.7054,589.616,267.9443" style="stroke:#A80036;stroke-width:1.0;"/><text fill="#000000" font-family="sans-serif" font-size="13" lengthAdjust="spacing" textLength="22" x="592.5" y="234.0669">pull</text><!--MD5=[1daed810571f157784195d6aff3fa27d]
link Patient to members--><path codeLine="128" d="M1408.38,103.794 C1298.86,111.003 986.697,137.901 742.5,221 C727.254,226.1882 724.999,230.9897 710.5,238 C685.808,249.939 657.505,262.3105 635.529,271.6356 " fill="none" id="Patient-to-members-1" style="stroke:#A80036;stroke-width:1.0;"/><polygon fill="#A80036" points="630.656,273.6976,640.5033,273.8739,635.2607,271.749,637.3856,266.5064,630.656,273.6976" style="stroke:#A80036;stroke-width:1.0;"/><text fill="#000000" font-family="sans-serif" font-size="13" lengthAdjust="spacing" textLength="59" x="743.5" y="234.0669">message</text><!--MD5=[e241a6ce5f43f685d1b78e0c3c760cfb]
link Patient to Messaging--><path codeLine="107" d="M1488.69,161.852 C1501.19,180.745 1514.98,201.7 1527.5,221 C1536.58,235.0045 1546.63,250.7747 1554.61,263.3872 " fill="none" id="Patient-to-Messaging" style="stroke:#A80036;stroke-width:1.0;"/><polygon fill="#A80036" points="1557.46,267.8819,1556.0315,258.1372,1554.7881,263.6557,1549.2696,262.4123,1557.46,267.8819" style="stroke:#A80036;stroke-width:1.0;"/><text fill="#000000" font-family="sans-serif" font-size="13" lengthAdjust="spacing" textLength="31" x="1539.5" y="234.0669">send</text><!--MD5=[cb6cacb86706513405edfabcbb08067b]
link Patient to Event--><path codeLine="108" d="M1408.35,109.502 C1355.03,122.52 1262.92,153.899 1222.5,221 C1214.46,234.3384 1220.84,250.5025 1229.41,263.4957 " fill="none" id="Patient-to-Event" style="stroke:#A80036;stroke-width:1.0;"/><polygon fill="#A80036" points="1232.38,267.7718,1230.5374,258.0968,1229.5303,263.6633,1223.9638,262.6563,1232.38,267.7718" style="stroke:#A80036;stroke-width:1.0;"/><text fill="#000000" font-family="sans-serif" font-size="13" lengthAdjust="spacing" textLength="44" x="1223.5" y="234.0669">posted</text><!--MD5=[cb6cacb86706513405edfabcbb08067b]
link Patient to Event--><path codeLine="132" d="M1408.23,139.039 C1367.63,176.883 1306.35,234.0075 1273.06,265.0428 " fill="none" id="Patient-to-Event-1" style="stroke:#A80036;stroke-width:1.0;"/><polygon fill="#A80036" points="1269.14,268.6952,1278.4484,265.4776,1272.7949,265.2832,1272.9893,259.6297,1269.14,268.6952" style="stroke:#A80036;stroke-width:1.0;"/><text fill="#000000" font-family="sans-serif" font-size="13" lengthAdjust="spacing" textLength="58" x="1321.5" y="234.0669">attended</text><!--MD5=[06b011e000f56fac8c11b4b408d55f67]
link Administrator to Account--><path codeLine="109" d="M491.406,127.061 C486.154,155.39 475.388,201.847 456.5,238 C451.78,247.0336 445.225,255.9576 438.786,263.664 " fill="none" id="Administrator-to-Account" style="stroke:#A80036;stroke-width:1.0;"/><polygon fill="#A80036" points="435.233,267.8131,444.1256,263.5797,438.4856,264.0156,438.0496,258.3756,435.233,267.8131" style="stroke:#A80036;stroke-width:1.0;"/><text fill="#000000" font-family="sans-serif" font-size="13" lengthAdjust="spacing" textLength="61" x="464.5" y="234.0669">suspense</text><!--MD5=[6febe4e6e2eeb0e27cfc72a266cc7812]
link member to Resource--><path codeLine="110" d="M2606.58,139.936 C2636.8,177.31 2681.71,232.8524 2706.81,263.8842 " fill="none" id="member-to-Resource" style="stroke:#A80036;stroke-width:1.0;"/><polygon fill="#A80036" points="2710.06,267.9119,2707.5087,258.3992,2706.915,264.0248,2701.2894,263.4311,2710.06,267.9119" style="stroke:#A80036;stroke-width:1.0;"/><text fill="#000000" font-family="sans-serif" font-size="13" lengthAdjust="spacing" textLength="47" x="2686.5" y="234.0669">receive</text><!--MD5=[96a5526f8bc343d0a87392a143f0d1fa]
link Patient to CalendarEvent--><path codeLine="111" d="M1488.6,132.758 C1536.6,170.168 1615.77,231.87 1657.95,264.7506 " fill="none" id="Patient-to-CalendarEvent" style="stroke:#A80036;stroke-width:1.0;"/><polygon fill="#A80036" points="1661.92,267.8408,1657.2774,259.1548,1657.9753,264.7685,1652.3616,265.4664,1661.92,267.8408" style="stroke:#A80036;stroke-width:1.0;"/><text fill="#000000" font-family="sans-serif" font-size="13" lengthAdjust="spacing" textLength="24" x="1624.5" y="234.0669">add</text><!--MD5=[8b0e353601124fd593a7642acb102679]
link Patient to HealthCondition--><path codeLine="112" d="M1415.11,191.261 C1405.3,217.6354 1395.37,244.332 1388.5,262.809 " fill="none" id="Patient-to-HealthCondition" style="stroke:#A80036;stroke-width:1.0;"/><polygon fill="#A80036" points="1386.64,267.7954,1393.527,260.7548,1388.3833,263.1092,1386.029,257.9655,1386.64,267.7954" style="stroke:#A80036;stroke-width:1.0;"/><text fill="#000000" font-family="sans-serif" font-size="13" lengthAdjust="spacing" textLength="32" x="1405.5" y="234.0669">have</text><!--MD5=[3b3a110f6aeec0a0bf442c01daca6c1c]
link User to Profile--><path codeLine="113" d="M387.809,159.429 C395.453,171.774 405.23,183.374 417.5,191 C492.079,237.3503 731.18,185.516 811.5,221 C832.588,230.316 851.284,248.7719 864.038,263.8039 " fill="none" id="User-to-Profile" style="stroke:#A80036;stroke-width:1.0;"/><polygon fill="#A80036" points="867.475,267.9425,864.8015,258.4635,864.2803,264.0962,858.6475,263.575,867.475,267.9425" style="stroke:#A80036;stroke-width:1.0;"/><text fill="#000000" font-family="sans-serif" font-size="13" lengthAdjust="spacing" textLength="44" x="839.5" y="234.0669">access</text><!--MD5=[f79443fc503a70c0409b5c2caacb3246]
link Patient to Patient--><path codeLine="114" d="M1488.62,76.975 C1507.24,74.408 1523.5,82.25 1523.5,100.5 C1523.5,117.039 1510.14,125.03 1493.79,124.473 " fill="none" id="Patient-to-Patient" style="stroke:#A80036;stroke-width:1.0;"/><polygon fill="#A80036" points="1488.62,124.025,1497.2304,128.8063,1493.6004,124.4678,1497.9389,120.8377,1488.62,124.025" style="stroke:#A80036;stroke-width:1.0;"/><text fill="#000000" font-family="sans-serif" font-size="13" lengthAdjust="spacing" textLength="48" x="1529.5" y="105.0669">contact</text><!--MD5=[671ec7d8d2820e5845f084a63d5cbffe]
link Patient to Message--><path codeLine="115" d="M1408.4,117.365 C1355.01,138.915 1258.05,179.53 1178.5,221 C1152.68,234.4622 1124.59,251.5306 1103.4,264.937 " fill="none" id="Patient-to-Message" style="stroke:#A80036;stroke-width:1.0;"/><polygon fill="#A80036" points="1098.98,267.7396,1108.7206,266.2833,1103.1986,265.0556,1104.4262,259.5336,1098.98,267.7396" style="stroke:#A80036;stroke-width:1.0;"/><text fill="#000000" font-family="sans-serif" font-size="13" lengthAdjust="spacing" textLength="31" x="1179.5" y="234.0669">send</text><!--MD5=[cc26e55aed3e4647cfe30d8e26a7c8f6]
link Admin to Statistics--><path codeLine="116" d="M2282.18,133.812 C2304.66,170.715 2340.92,230.2285 2360.98,263.1598 " fill="none" id="Admin-to-Statistics" style="stroke:#A80036;stroke-width:1.0;"/><polygon fill="#A80036" points="2363.82,267.8198,2362.5554,258.0525,2361.2194,263.5493,2355.7226,262.2134,2363.82,267.8198" style="stroke:#A80036;stroke-width:1.0;"/><text fill="#000000" font-family="sans-serif" font-size="13" lengthAdjust="spacing" textLength="30" x="2346.5" y="234.0669">view</text><!--MD5=[f56f3f1ba6337d081cbeebdc8b2805be]
link member to Money--><path codeLine="117" d="M2565.76,139.936 C2556.41,176.853 2542.56,231.4949 2534.65,262.7333 " fill="none" id="member-to-Money" style="stroke:#A80036;stroke-width:1.0;"/><polygon fill="#A80036" points="2533.34,267.9119,2539.4296,260.1713,2534.5691,263.0653,2531.6751,258.2048,2533.34,267.9119" style="stroke:#A80036;stroke-width:1.0;"/><text fill="#000000" font-family="sans-serif" font-size="13" lengthAdjust="spacing" textLength="31" x="2546.5" y="234.0669">send</text><!--MD5=[11fb3861e08ab9014ebee506c327af7d]
link Patient to Friend--><path codeLine="118" d="M1488.97,111.379 C1547.84,127.196 1658.56,162.516 1736.5,221 C1751.95,232.5905 1765.5,249.6719 1775.03,263.5533 " fill="none" id="Patient-to-Friend" style="stroke:#A80036;stroke-width:1.0;"/><polygon fill="#A80036" points="1777.86,267.749,1776.1434,258.0509,1775.064,263.6038,1769.5111,262.5245,1777.86,267.749" style="stroke:#A80036;stroke-width:1.0;"/><text fill="#000000" font-family="sans-serif" font-size="13" lengthAdjust="spacing" textLength="59" x="1755.5" y="234.0669">message</text><!--MD5=[11fb3861e08ab9014ebee506c327af7d]
link Patient to Friend--><path codeLine="121" d="M1488.62,123.325 C1559.14,161.688 1703.48,240.2055 1762.97,272.5667 " fill="none" id="Patient-to-Friend-1" style="stroke:#A80036;stroke-width:1.0;"/><polygon fill="#A80036" points="1767.44,275.0004,1761.4602,267.1747,1763.0523,272.6028,1757.6241,274.1949,1767.44,275.0004" style="stroke:#A80036;stroke-width:1.0;"/><text fill="#000000" font-family="sans-serif" font-size="13" lengthAdjust="spacing" textLength="22" x="1699.5" y="234.0669">pull</text><!--MD5=[476399e0028f8378b22438544fe03a66]
link Patient to Information--><path codeLine="119" d="M1408.34,107.861 C1320.12,122.454 1103.44,161.712 929.5,221 C912.371,226.8386 909.428,231.6019 892.5,238 C852.094,253.2715 804.686,267.0793 771.446,276.1156 " fill="none" id="Patient-to-Information" style="stroke:#A80036;stroke-width:1.0;"/><polygon fill="#A80036" points="766.236,277.5244,775.9683,279.0354,771.0625,276.2187,773.8792,271.313,766.236,277.5244" style="stroke:#A80036;stroke-width:1.0;"/><text fill="#000000" font-family="sans-serif" font-size="13" lengthAdjust="spacing" textLength="21" x="930.5" y="234.0669">get</text><!--MD5=[9beb9af3f943f649e2219fa2a61903b1]
link Patient to Task--><path codeLine="120" d="M1464.47,191.261 C1469.16,217.6354 1473.91,244.332 1477.2,262.809 " fill="none" id="Patient-to-Task" style="stroke:#A80036;stroke-width:1.0;"/><polygon fill="#A80036" points="1478.08,267.7954,1480.4438,258.2344,1477.2053,262.8725,1472.5672,259.634,1478.08,267.7954" style="stroke:#A80036;stroke-width:1.0;"/><text fill="#000000" font-family="sans-serif" font-size="13" lengthAdjust="spacing" textLength="44" x="1474.5" y="234.0669">posted</text><!--MD5=[9d661380b54d9bff4ee137bc0bb1b8a2]
link User to Information--><path codeLine="122" d="M388.477,159.302 C396.065,171.495 405.649,183.058 417.5,191 C494.36,242.5046 536.612,189.209 623.5,221 C638.704,226.5628 672.249,248.1007 697.558,265.0793 " fill="none" id="User-to-Information" style="stroke:#A80036;stroke-width:1.0;"/><polygon fill="#A80036" points="701.862,267.9762,696.6284,259.633,697.7138,265.1847,692.162,266.2701,701.862,267.9762" style="stroke:#A80036;stroke-width:1.0;"/><text fill="#000000" font-family="sans-serif" font-size="13" lengthAdjust="spacing" textLength="45" x="656.5" y="234.0669">update</text><!--MD5=[98a6411f592920e3079385eeec443a7a]
link User to Junk--><path codeLine="123" d="M329.34,124.352 C295.684,146.992 244.292,183.606 204.5,221 C190.507,234.1496 176.531,250.6157 166.041,263.8113 " fill="none" id="User-to-Junk" style="stroke:#A80036;stroke-width:1.0;"/><polygon fill="#A80036" points="162.902,267.7942,171.6155,263.2034,165.9978,263.8679,165.3333,258.2502,162.902,267.7942" style="stroke:#A80036;stroke-width:1.0;"/><text fill="#000000" font-family="sans-serif" font-size="13" lengthAdjust="spacing" textLength="39" x="205.5" y="234.0669">report</text><!--MD5=[7b8e7edcd25d6aa0d651839237af6aba]
link Admin to Announcement--><path codeLine="124" d="M2262.5,133.812 C2262.5,170.564 2262.5,229.7411 2262.5,262.7536 " fill="none" id="Admin-to-Announcement" style="stroke:#A80036;stroke-width:1.0;"/><polygon fill="#A80036" points="2262.5,267.8198,2266.5,258.8198,2262.5,262.8198,2258.5,258.8198,2262.5,267.8198" style="stroke:#A80036;stroke-width:1.0;"/><text fill="#000000" font-family="sans-serif" font-size="13" lengthAdjust="spacing" textLength="28" x="2263.5" y="234.0669">post</text><!--MD5=[e8a44440e7d883fedaa906df2c0e3d75]
link User to Message--><path codeLine="125" d="M387.412,159.147 C395.1,171.661 404.997,183.409 417.5,191 C520.801,253.7204 845.041,185.306 960.5,221 C968.625,223.5118 1006.318,246.8198 1035.13,265.034 " fill="none" id="User-to-Message" style="stroke:#A80036;stroke-width:1.0;"/><polygon fill="#A80036" points="1039.67,267.9095,1034.2014,259.7184,1035.4441,265.2371,1029.9255,266.4798,1039.67,267.9095" style="stroke:#A80036;stroke-width:1.0;"/><text fill="#000000" font-family="sans-serif" font-size="13" lengthAdjust="spacing" textLength="33" x="991.5" y="234.0669">block</text><!--MD5=[9f8933b7956579e11faa4fb1fad64c81]
link User to members--><path codeLine="126" d="M363.235,159.201 C365.692,186.412 373.373,217.3581 393.5,238 C416.469,261.557 508.32,276.1969 560.95,282.8236 " fill="none" id="User-to-members" style="stroke:#A80036;stroke-width:1.0;"/><polygon fill="#A80036" points="566.229,283.478,557.79,278.4002,561.2671,282.8623,556.8049,286.3393,566.229,283.478" style="stroke:#A80036;stroke-width:1.0;"/><text fill="#000000" font-family="sans-serif" font-size="13" lengthAdjust="spacing" textLength="53" x="394.5" y="234.0669">manage</text><!--MD5=[3f83b2c02ba7b82a5614d810b0135429]
link Patient to Calendar--><path codeLine="127" d="M1488.51,106.503 C1560.92,117.143 1716.17,147.356 1823.5,221 C1839.64,232.076 1853.34,249.4973 1862.76,263.6605 " fill="none" id="Patient-to-Calendar" style="stroke:#A80036;stroke-width:1.0;"/><polygon fill="#A80036" points="1865.54,267.9407,1863.9786,258.2164,1862.8106,263.7514,1857.2757,262.5834,1865.54,267.9407" style="stroke:#A80036;stroke-width:1.0;"/><text fill="#000000" font-family="sans-serif" font-size="13" lengthAdjust="spacing" textLength="36" x="1844.5" y="234.0669">share</text><!--MD5=[67e0d6af1e4e2dd48d9e9c773d4b451d]
link member to Notification--><path codeLine="129" d="M2585.24,139.936 C2594.59,176.853 2608.44,231.4949 2616.35,262.7333 " fill="none" id="member-to-Notification" style="stroke:#A80036;stroke-width:1.0;"/><polygon fill="#A80036" points="2617.66,267.9119,2619.3249,258.2048,2616.4309,263.0653,2611.5704,260.1713,2617.66,267.9119" style="stroke:#A80036;stroke-width:1.0;"/><text fill="#000000" font-family="sans-serif" font-size="13" lengthAdjust="spacing" textLength="21" x="2611.5" y="234.0669">get</text><!--MD5=[ebda0c6048a133cdcd16c495edc9e9f1]
link SupportGroup to kind--><path codeLine="130" d="M2814.5,127.293 C2814.5,163.107 2814.5,227.4408 2814.5,262.5341 " fill="none" id="SupportGroup-to-kind" style="stroke:#A80036;stroke-width:1.0;"/><polygon fill="#A80036" points="2814.5,267.9065,2818.5,258.9065,2814.5,262.9065,2810.5,258.9065,2814.5,267.9065" style="stroke:#A80036;stroke-width:1.0;"/><text fill="#000000" font-family="sans-serif" font-size="13" lengthAdjust="spacing" textLength="44" x="2815.5" y="234.0669">access</text><!--MD5=[769704aea6c8338c742acf0d6f000464]
link Patient to Appointment--><path codeLine="131" d="M1488.77,107.526 C1568.36,120.474 1750.15,155.242 1889.5,221 C1913.8,232.4685 1938.48,250.3297 1956.3,264.5807 " fill="none" id="Patient-to-Appointment" style="stroke:#A80036;stroke-width:1.0;"/><polygon fill="#A80036" points="1960.22,267.7478,1955.7328,258.9805,1956.3306,264.6057,1950.7055,265.2035,1960.22,267.7478" style="stroke:#A80036;stroke-width:1.0;"/><text fill="#000000" font-family="sans-serif" font-size="13" lengthAdjust="spacing" textLength="23" x="1920.5" y="234.0669">has</text><!--MD5=[01c0dc6d53e6dd035e1d8bf6cc7ffde5]
link Support to Family--><!--MD5=[d1775bca10c9c7b6be778bbd37fdf3b7]
link Support to Member--><!--MD5=[331d3456a899057ea5a228aebf6cba97]
@startuml
hide circle
class User<actor> {
}
class Patient<actor> {
}
class Support<actor> {
}
class Administrator<actor> {
}
class Family<actor> {
}
class Member<actor> {
}
class Admin<actor> {
}
class Patient {
	attended()
	have()
	pull()
	get()
	message()
	contact()
	posted()
	has()
	send()
	add()
	share()
}
class Event {
}
class Admin {
	view()
	post()
}
class List {
}
class Administrator {
	suspense()
}
class Account {
}
class User {
	report()
	update()
	manage()
	delete()
	block()
	access()
}
class Junk {
}
class member {
	send()
	receive()
	get()
}
class Link {
}
class HealthCondition {
}
class Money {
}
class Task {
}
class Announcement {
}
class members {
}
class SupportGroup {
	access()
}
class kind {
}
class AdMessage {
}
class Messaging {
}
class CalendarEvent {
}
class Message {
}
class Friend {
}
class Information {
}
class Calendar {
}
class Notification {
}
class Appointment {
}
class Invitation {
}
class Profile {
}
class Resource {
}
class Statistics {
}
Patient - -> Invitation : share
User - -> AdMessage : report
member - -> Link : send
User - -> Account : delete
Admin - -> List : view
Patient - -> Profile : share
Patient - -> members : pull
Patient - -> Messaging : send
Patient - -> Event : posted
Administrator - -> Account : suspense
member - -> Resource : receive
Patient - -> CalendarEvent : add
Patient - -> HealthCondition : have
User - -> Profile : access
Patient - -> Patient : contact
Patient - -> Message : send
Admin - -> Statistics : view
member - -> Money : send
Patient - -> Friend : message
Patient - -> Information : get
Patient - -> Task : posted
Patient - -> Friend : pull
User - -> Information : update
User - -> Junk : report
Admin - -> Announcement : post
User - -> Message : block
User - -> members : manage
Patient - -> Calendar : share
Patient - -> members : message
member - -> Notification : get
SupportGroup - -> kind : access
Patient - -> Appointment : has
Patient - -> Event : attended
@enduml

PlantUML version 1.2021.6beta6(Unknown compile time)
(GPL source distribution)
Java Runtime: Java(TM) SE Runtime Environment
JVM: Java HotSpot(TM) 64-Bit Server VM
Default Encoding: UTF-8
Language: en
Country: US
--></g></svg>