<?xml version="1.0" encoding="UTF-8" standalone="no"?><svg xmlns="http://www.w3.org/2000/svg" xmlns:xlink="http://www.w3.org/1999/xlink" contentScriptType="application/ecmascript" contentStyleType="text/css" height="683px" preserveAspectRatio="none" style="width:1834px;height:683px;background:#FFFFFF;" version="1.1" viewBox="0 0 1834 683" width="1834px" zoomAndPan="magnify"><defs><filter height="300%" id="f5nihwh4mcend" width="300%" x="-1" y="-1"><feGaussianBlur result="blurOut" stdDeviation="2.0"/><feColorMatrix in="blurOut" result="blurOut2" type="matrix" values="0 0 0 0 0 0 0 0 0 0 0 0 0 0 0 0 0 0 .4 0"/><feOffset dx="4.0" dy="4.0" in="blurOut2" result="blurOut3"/><feBlend in="SourceGraphic" in2="blurOut3" mode="normal"/></filter></defs><g><!--MD5=[3fd616f346a44cd59a91eb10b19e157c]
class User--><rect codeLine="32" fill="#FEFECE" filter="url(#f5nihwh4mcend)" height="270.4531" id="User" style="stroke:#A80036;stroke-width:1.5;" width="76" x="400" y="153"/><text fill="#000000" font-family="sans-serif" font-size="12" lengthAdjust="spacing" textLength="29" x="406" y="169.1387">User</text><rect fill="#FFFFFF" height="15.9688" style="stroke:#000000;stroke-width:1.0;stroke-dasharray:2.0,2.0;" width="33" x="446" y="150"/><text fill="#000000" font-family="sans-serif" font-size="12" font-style="italic" lengthAdjust="spacing" textLength="31" x="447" y="162.1387">actor</text><line style="stroke:#A80036;stroke-width:1.5;" x1="401" x2="475" y1="176.9688" y2="176.9688"/><text fill="#000000" font-family="sans-serif" font-size="11" lengthAdjust="spacing" textLength="31" x="406" y="191.1792">score</text><text fill="#000000" font-family="sans-serif" font-size="11" lengthAdjust="spacing" textLength="49" x="406" y="203.9839">progress</text><text fill="#000000" font-family="sans-serif" font-size="11" lengthAdjust="spacing" textLength="64" x="406" y="216.7886">preference</text><line style="stroke:#A80036;stroke-width:1.5;" x1="401" x2="475" y1="223.3828" y2="223.3828"/><text fill="#000000" font-family="sans-serif" font-size="11" lengthAdjust="spacing" textLength="53" x="406" y="237.5933">practice()</text><text fill="#000000" font-family="sans-serif" font-size="11" lengthAdjust="spacing" textLength="41" x="406" y="250.3979">install()</text><text fill="#000000" font-family="sans-serif" font-size="11" lengthAdjust="spacing" textLength="43" x="406" y="263.2026">switch()</text><text fill="#000000" font-family="sans-serif" font-size="11" lengthAdjust="spacing" textLength="35" x="406" y="276.0073">track()</text><text fill="#000000" font-family="sans-serif" font-size="11" lengthAdjust="spacing" textLength="33" x="406" y="288.812">start()</text><text fill="#000000" font-family="sans-serif" font-size="11" lengthAdjust="spacing" textLength="40" x="406" y="301.6167">share()</text><text fill="#000000" font-family="sans-serif" font-size="11" lengthAdjust="spacing" textLength="41" x="406" y="314.4214">check()</text><text fill="#000000" font-family="sans-serif" font-size="11" lengthAdjust="spacing" textLength="40" x="406" y="327.2261">cheat()</text><text fill="#000000" font-family="sans-serif" font-size="11" lengthAdjust="spacing" textLength="62" x="406" y="340.0308">download()</text><text fill="#000000" font-family="sans-serif" font-size="11" lengthAdjust="spacing" textLength="37" x="406" y="352.8354">have()</text><text fill="#000000" font-family="sans-serif" font-size="11" lengthAdjust="spacing" textLength="37" x="406" y="365.6401">keep()</text><text fill="#000000" font-family="sans-serif" font-size="11" lengthAdjust="spacing" textLength="41" x="406" y="378.4448">erase()</text><text fill="#000000" font-family="sans-serif" font-size="11" lengthAdjust="spacing" textLength="60" x="406" y="391.2495">purchase()</text><text fill="#000000" font-family="sans-serif" font-size="11" lengthAdjust="spacing" textLength="31" x="406" y="404.0542">sign()</text><text fill="#000000" font-family="sans-serif" font-size="11" lengthAdjust="spacing" textLength="50" x="406" y="416.8589">change()</text><!--MD5=[ed6624c6556d5e7b1bd23032162d20b7]
class Client--><rect codeLine="49" fill="#FEFECE" filter="url(#f5nihwh4mcend)" height="65.5781" id="Client" style="stroke:#A80036;stroke-width:1.5;" width="74" x="1356" y="10"/><text fill="#000000" font-family="sans-serif" font-size="12" lengthAdjust="spacing" textLength="33" x="1359" y="26.1387">Client</text><rect fill="#FFFFFF" height="15.9688" style="stroke:#000000;stroke-width:1.0;stroke-dasharray:2.0,2.0;" width="33" x="1400" y="7"/><text fill="#000000" font-family="sans-serif" font-size="12" font-style="italic" lengthAdjust="spacing" textLength="31" x="1401" y="19.1387">actor</text><line style="stroke:#A80036;stroke-width:1.5;" x1="1357" x2="1429" y1="33.9688" y2="33.9688"/><line style="stroke:#A80036;stroke-width:1.5;" x1="1357" x2="1429" y1="41.9688" y2="41.9688"/><text fill="#000000" font-family="sans-serif" font-size="11" lengthAdjust="spacing" textLength="37" x="1362" y="56.1792">have()</text><text fill="#000000" font-family="sans-serif" font-size="11" lengthAdjust="spacing" textLength="48" x="1362" y="68.9839">publish()</text><!--MD5=[d342058c8fb6f80e9d50d673c6908241]
class Developer--><rect codeLine="15" fill="#FEFECE" filter="url(#f5nihwh4mcend)" height="65.5781" id="Developer" style="stroke:#A80036;stroke-width:1.5;" width="105" x="1593.5" y="10"/><text fill="#000000" font-family="sans-serif" font-size="12" lengthAdjust="spacing" textLength="64" x="1596.5" y="26.1387">Developer</text><rect fill="#FFFFFF" height="15.9688" style="stroke:#000000;stroke-width:1.0;stroke-dasharray:2.0,2.0;" width="33" x="1668.5" y="7"/><text fill="#000000" font-family="sans-serif" font-size="12" font-style="italic" lengthAdjust="spacing" textLength="31" x="1669.5" y="19.1387">actor</text><line style="stroke:#A80036;stroke-width:1.5;" x1="1594.5" x2="1697.5" y1="33.9688" y2="33.9688"/><line style="stroke:#A80036;stroke-width:1.5;" x1="1594.5" x2="1697.5" y1="41.9688" y2="41.9688"/><text fill="#000000" font-family="sans-serif" font-size="11" lengthAdjust="spacing" textLength="46" x="1599.5" y="56.1792">design()</text><text fill="#000000" font-family="sans-serif" font-size="11" lengthAdjust="spacing" textLength="72" x="1599.5" y="68.9839">understand()</text><!--MD5=[15c6922f6693225acd2805a9f7199676]
class Maintainer--><rect codeLine="21" fill="#FEFECE" filter="url(#f5nihwh4mcend)" height="65.5781" id="Maintainer" style="stroke:#A80036;stroke-width:1.5;" width="102" x="1093" y="255"/><text fill="#000000" font-family="sans-serif" font-size="12" lengthAdjust="spacing" textLength="61" x="1096" y="271.1387">Maintainer</text><rect fill="#FFFFFF" height="15.9688" style="stroke:#000000;stroke-width:1.0;stroke-dasharray:2.0,2.0;" width="33" x="1165" y="252"/><text fill="#000000" font-family="sans-serif" font-size="12" font-style="italic" lengthAdjust="spacing" textLength="31" x="1166" y="264.1387">actor</text><line style="stroke:#A80036;stroke-width:1.5;" x1="1094" x2="1194" y1="278.9688" y2="278.9688"/><line style="stroke:#A80036;stroke-width:1.5;" x1="1094" x2="1194" y1="286.9688" y2="286.9688"/><text fill="#000000" font-family="sans-serif" font-size="11" lengthAdjust="spacing" textLength="37" x="1099" y="301.1792">have()</text><text fill="#000000" font-family="sans-serif" font-size="11" lengthAdjust="spacing" textLength="48" x="1099" y="313.9839">publish()</text><!--MD5=[e4460efd977c3af4b4cb6b09b781f305]
class Analytic--><rect codeLine="13" fill="#FEFECE" filter="url(#f5nihwh4mcend)" height="39.9688" id="Analytic" style="stroke:#A80036;stroke-width:1.5;" width="87" x="1733.5" y="23"/><text fill="#000000" font-family="sans-serif" font-size="12" lengthAdjust="spacing" textLength="46" x="1736.5" y="39.1387">Analytic</text><rect fill="#FFFFFF" height="15.9688" style="stroke:#000000;stroke-width:1.0;stroke-dasharray:2.0,2.0;" width="33" x="1790.5" y="20"/><text fill="#000000" font-family="sans-serif" font-size="12" font-style="italic" lengthAdjust="spacing" textLength="31" x="1791.5" y="32.1387">actor</text><line style="stroke:#A80036;stroke-width:1.5;" x1="1734.5" x2="1819.5" y1="46.9688" y2="46.9688"/><line style="stroke:#A80036;stroke-width:1.5;" x1="1734.5" x2="1819.5" y1="54.9688" y2="54.9688"/><!--MD5=[ba580110b1777f63e0f1dfe3fcefdac0]
class Code--><rect codeLine="19" fill="#FEFECE" filter="url(#f5nihwh4mcend)" height="39.9688" id="Code" style="stroke:#A80036;stroke-width:1.5;" width="38" x="1512" y="268"/><text fill="#000000" font-family="sans-serif" font-size="12" lengthAdjust="spacing" textLength="32" x="1515" y="284.1387">Code</text><line style="stroke:#A80036;stroke-width:1.5;" x1="1513" x2="1549" y1="291.9688" y2="291.9688"/><line style="stroke:#A80036;stroke-width:1.5;" x1="1513" x2="1549" y1="299.9688" y2="299.9688"/><!--MD5=[2470d439e336eeeed736cf589393d082]
class Documentation--><rect codeLine="25" fill="#FEFECE" filter="url(#f5nihwh4mcend)" height="39.9688" id="Documentation" style="stroke:#A80036;stroke-width:1.5;" width="96" x="1109" y="506.5"/><text fill="#000000" font-family="sans-serif" font-size="12" lengthAdjust="spacing" textLength="90" x="1112" y="522.6387">Documentation</text><line style="stroke:#A80036;stroke-width:1.5;" x1="1110" x2="1204" y1="530.4688" y2="530.4688"/><line style="stroke:#A80036;stroke-width:1.5;" x1="1110" x2="1204" y1="538.4688" y2="538.4688"/><!--MD5=[d0cd8811070a728e4cfbdffe8ac46106]
class Way--><rect codeLine="27" fill="#FEFECE" filter="url(#f5nihwh4mcend)" height="52.7734" id="Way" style="stroke:#A80036;stroke-width:1.5;" width="47" x="991.5" y="16.5"/><text fill="#000000" font-family="sans-serif" font-size="12" lengthAdjust="spacing" textLength="26" x="1002" y="32.6387">Way</text><line style="stroke:#A80036;stroke-width:1.5;" x1="992.5" x2="1037.5" y1="40.4688" y2="40.4688"/><line style="stroke:#A80036;stroke-width:1.5;" x1="992.5" x2="1037.5" y1="48.4688" y2="48.4688"/><text fill="#000000" font-family="sans-serif" font-size="11" lengthAdjust="spacing" textLength="35" x="997.5" y="62.6792">draw()</text><!--MD5=[6499b5f81802b705fbd60c822f719fed]
class Attention--><rect codeLine="30" fill="#FEFECE" filter="url(#f5nihwh4mcend)" height="39.9688" id="Attention" style="stroke:#A80036;stroke-width:1.5;" width="59" x="985.5" y="268"/><text fill="#000000" font-family="sans-serif" font-size="12" lengthAdjust="spacing" textLength="53" x="988.5" y="284.1387">Attention</text><line style="stroke:#A80036;stroke-width:1.5;" x1="986.5" x2="1043.5" y1="291.9688" y2="291.9688"/><line style="stroke:#A80036;stroke-width:1.5;" x1="986.5" x2="1043.5" y1="299.9688" y2="299.9688"/><!--MD5=[c022adf30ae969b42e1b85e6b8a5d26c]
class ScreenSpace--><rect codeLine="53" fill="#FEFECE" filter="url(#f5nihwh4mcend)" height="39.9688" id="ScreenSpace" style="stroke:#A80036;stroke-width:1.5;" width="87" x="1281.5" y="268"/><text fill="#000000" font-family="sans-serif" font-size="12" lengthAdjust="spacing" textLength="81" x="1284.5" y="284.1387">ScreenSpace</text><line style="stroke:#A80036;stroke-width:1.5;" x1="1282.5" x2="1367.5" y1="291.9688" y2="291.9688"/><line style="stroke:#A80036;stroke-width:1.5;" x1="1282.5" x2="1367.5" y1="299.9688" y2="299.9688"/><!--MD5=[f33202a4358b6dc53d5337ad154687fb]
class Progress--><rect codeLine="55" fill="#FEFECE" filter="url(#f5nihwh4mcend)" height="39.9688" id="Progress" style="stroke:#A80036;stroke-width:1.5;" width="60" x="296" y="506.5"/><text fill="#000000" font-family="sans-serif" font-size="12" lengthAdjust="spacing" textLength="54" x="299" y="522.6387">Progress</text><line style="stroke:#A80036;stroke-width:1.5;" x1="297" x2="355" y1="530.4688" y2="530.4688"/><line style="stroke:#A80036;stroke-width:1.5;" x1="297" x2="355" y1="538.4688" y2="538.4688"/><!--MD5=[1db584ee1b8127ea75535273dec2b4f2]
class Version--><rect codeLine="57" fill="#FEFECE" filter="url(#f5nihwh4mcend)" height="52.7734" id="Version" style="stroke:#A80036;stroke-width:1.5;" width="65" x="118.5" y="500"/><text fill="#000000" font-family="sans-serif" font-size="12" lengthAdjust="spacing" textLength="46" x="128" y="516.1387">Version</text><line style="stroke:#A80036;stroke-width:1.5;" x1="119.5" x2="182.5" y1="523.9688" y2="523.9688"/><line style="stroke:#A80036;stroke-width:1.5;" x1="119.5" x2="182.5" y1="531.9688" y2="531.9688"/><text fill="#000000" font-family="sans-serif" font-size="11" lengthAdjust="spacing" textLength="53" x="124.5" y="546.1792">remove()</text><!--MD5=[96a16f046dcf5a9f7fab5dd2542af37b]
class Advertisement--><rect codeLine="60" fill="#FEFECE" filter="url(#f5nihwh4mcend)" height="39.9688" id="Advertisement" style="stroke:#A80036;stroke-width:1.5;" width="94" x="104" y="630"/><text fill="#000000" font-family="sans-serif" font-size="12" lengthAdjust="spacing" textLength="88" x="107" y="646.1387">Advertisement</text><line style="stroke:#A80036;stroke-width:1.5;" x1="105" x2="197" y1="653.9688" y2="653.9688"/><line style="stroke:#A80036;stroke-width:1.5;" x1="105" x2="197" y1="661.9688" y2="661.9688"/><!--MD5=[335f4d9be48430461c68bf6d6fdba145]
class App--><rect codeLine="62" fill="#FEFECE" filter="url(#f5nihwh4mcend)" height="52.7734" id="App" style="stroke:#A80036;stroke-width:1.5;" width="41" x="942.5" y="500"/><text fill="#000000" font-family="sans-serif" font-size="12" lengthAdjust="spacing" textLength="24" x="951" y="516.1387">App</text><line style="stroke:#A80036;stroke-width:1.5;" x1="943.5" x2="982.5" y1="523.9688" y2="523.9688"/><line style="stroke:#A80036;stroke-width:1.5;" x1="943.5" x2="982.5" y1="531.9688" y2="531.9688"/><text fill="#000000" font-family="sans-serif" font-size="11" lengthAdjust="spacing" textLength="29" x="948.5" y="546.1792">use()</text><!--MD5=[72850a98001222fbc7e1e8b42ef211c4]
class ColorTheme--><rect codeLine="65" fill="#FEFECE" filter="url(#f5nihwh4mcend)" height="39.9688" id="ColorTheme" style="stroke:#A80036;stroke-width:1.5;" width="79" x="499.5" y="506.5"/><text fill="#000000" font-family="sans-serif" font-size="12" lengthAdjust="spacing" textLength="73" x="502.5" y="522.6387">ColorTheme</text><line style="stroke:#A80036;stroke-width:1.5;" x1="500.5" x2="577.5" y1="530.4688" y2="530.4688"/><line style="stroke:#A80036;stroke-width:1.5;" x1="500.5" x2="577.5" y1="538.4688" y2="538.4688"/><!--MD5=[7a151dc0b837f65b42908359a238c6b7]
class About_levelPage--><rect codeLine="67" fill="#FEFECE" filter="url(#f5nihwh4mcend)" height="39.9688" id="About_levelPage" style="stroke:#A80036;stroke-width:1.5;" width="105" x="1593.5" y="268"/><text fill="#000000" font-family="sans-serif" font-size="12" lengthAdjust="spacing" textLength="99" x="1596.5" y="284.1387">About_levelPage</text><line style="stroke:#A80036;stroke-width:1.5;" x1="1594.5" x2="1697.5" y1="291.9688" y2="291.9688"/><line style="stroke:#A80036;stroke-width:1.5;" x1="1594.5" x2="1697.5" y1="299.9688" y2="299.9688"/><!--MD5=[bffffc91ea6363a28ee965dd72c463ae]
class Ability--><rect codeLine="69" fill="#FEFECE" filter="url(#f5nihwh4mcend)" height="39.9688" id="Ability" style="stroke:#A80036;stroke-width:1.5;" width="42" x="422" y="506.5"/><text fill="#000000" font-family="sans-serif" font-size="12" lengthAdjust="spacing" textLength="36" x="425" y="522.6387">Ability</text><line style="stroke:#A80036;stroke-width:1.5;" x1="423" x2="463" y1="530.4688" y2="530.4688"/><line style="stroke:#A80036;stroke-width:1.5;" x1="423" x2="463" y1="538.4688" y2="538.4688"/><!--MD5=[1d8f74ee8c7c6d0e034cd6529b81a3f2]
class GoogleLeaderboard--><rect codeLine="71" fill="#FEFECE" filter="url(#f5nihwh4mcend)" height="39.9688" id="GoogleLeaderboard" style="stroke:#A80036;stroke-width:1.5;" width="128" x="614" y="506.5"/><text fill="#000000" font-family="sans-serif" font-size="12" lengthAdjust="spacing" textLength="122" x="617" y="522.6387">GoogleLeaderboard</text><line style="stroke:#A80036;stroke-width:1.5;" x1="615" x2="741" y1="530.4688" y2="530.4688"/><line style="stroke:#A80036;stroke-width:1.5;" x1="615" x2="741" y1="538.4688" y2="538.4688"/><!--MD5=[cd4556f80f324df0babf50840a487f61]
class Math--><rect codeLine="73" fill="#FEFECE" filter="url(#f5nihwh4mcend)" height="39.9688" id="Math" style="stroke:#A80036;stroke-width:1.5;" width="34" x="777" y="506.5"/><text fill="#000000" font-family="sans-serif" font-size="12" lengthAdjust="spacing" textLength="28" x="780" y="522.6387">Math</text><line style="stroke:#A80036;stroke-width:1.5;" x1="778" x2="810" y1="530.4688" y2="530.4688"/><line style="stroke:#A80036;stroke-width:1.5;" x1="778" x2="810" y1="538.4688" y2="538.4688"/><!--MD5=[eda295ac397900235f4e214c5a95ea39]
class IOSVersion--><rect codeLine="75" fill="#FEFECE" filter="url(#f5nihwh4mcend)" height="39.9688" id="IOSVersion" style="stroke:#A80036;stroke-width:1.5;" width="73" x="1403.5" y="268"/><text fill="#000000" font-family="sans-serif" font-size="12" lengthAdjust="spacing" textLength="67" x="1406.5" y="284.1387">IOSVersion</text><line style="stroke:#A80036;stroke-width:1.5;" x1="1404.5" x2="1475.5" y1="291.9688" y2="291.9688"/><line style="stroke:#A80036;stroke-width:1.5;" x1="1404.5" x2="1475.5" y1="299.9688" y2="299.9688"/><!--MD5=[107af66394bf1ebaa045812c9c475148]
class Score--><rect codeLine="77" fill="#FEFECE" filter="url(#f5nihwh4mcend)" height="39.9688" id="Score" style="stroke:#A80036;stroke-width:1.5;" width="42" x="7" y="506.5"/><text fill="#000000" font-family="sans-serif" font-size="12" lengthAdjust="spacing" textLength="36" x="10" y="522.6387">Score</text><line style="stroke:#A80036;stroke-width:1.5;" x1="8" x2="48" y1="530.4688" y2="530.4688"/><line style="stroke:#A80036;stroke-width:1.5;" x1="8" x2="48" y1="538.4688" y2="538.4688"/><!--MD5=[6a494c20d032ff54e1efa92c1369bc7b]
class Page--><rect codeLine="79" fill="#FEFECE" filter="url(#f5nihwh4mcend)" height="39.9688" id="Page" style="stroke:#A80036;stroke-width:1.5;" width="35" x="1733.5" y="268"/><text fill="#000000" font-family="sans-serif" font-size="12" lengthAdjust="spacing" textLength="29" x="1736.5" y="284.1387">Page</text><line style="stroke:#A80036;stroke-width:1.5;" x1="1734.5" x2="1767.5" y1="291.9688" y2="291.9688"/><line style="stroke:#A80036;stroke-width:1.5;" x1="1734.5" x2="1767.5" y1="299.9688" y2="299.9688"/><!--MD5=[f948f12ef64b9a346fb1c9677a534905]
class AccodomateAdvertisement--><rect codeLine="81" fill="#FEFECE" filter="url(#f5nihwh4mcend)" height="39.9688" id="AccodomateAdvertisement" style="stroke:#A80036;stroke-width:1.5;" width="170" x="1240" y="506.5"/><text fill="#000000" font-family="sans-serif" font-size="12" lengthAdjust="spacing" textLength="164" x="1243" y="522.6387">AccodomateAdvertisement</text><line style="stroke:#A80036;stroke-width:1.5;" x1="1241" x2="1409" y1="530.4688" y2="530.4688"/><line style="stroke:#A80036;stroke-width:1.5;" x1="1241" x2="1409" y1="538.4688" y2="538.4688"/><!--MD5=[5581631033da91c9ee6f37190eaa72a1]
link Developer to Code--><path codeLine="83" d="M1593.38,73.917 C1581.76,82.834 1570.64,93.596 1563,106 C1532.53,155.462 1529.21,226.107 1529.84,262.796 " fill="none" id="Developer-to-Code" style="stroke:#A80036;stroke-width:1.0;"/><polygon fill="#A80036" points="1529.96,267.956,1533.7533,258.8669,1529.8457,262.9573,1525.7554,259.0498,1529.96,267.956" style="stroke:#A80036;stroke-width:1.0;"/><text fill="#000000" font-family="sans-serif" font-size="13" lengthAdjust="spacing" textLength="73" x="1564" y="119.0669">understand</text><!--MD5=[0214f9738810ef8e203a2a515b7b8642]
link User to App--><path codeLine="84" d="M476.027,299.026 C553.729,320.427 734.936,375.066 872,453 C896.324,466.831 920.969,486.921 938.465,502.448 " fill="none" id="User-to-App" style="stroke:#A80036;stroke-width:1.0;"/><polygon fill="#A80036" points="942.309,505.888,938.27,496.9054,938.5832,502.5536,932.935,502.8668,942.309,505.888" style="stroke:#A80036;stroke-width:1.0;"/><text fill="#000000" font-family="sans-serif" font-size="13" lengthAdjust="spacing" textLength="62" x="898" y="466.0669">download</text><!--MD5=[0214f9738810ef8e203a2a515b7b8642]
link User to App--><path codeLine="89" d="M476.178,307.203 C546.031,340.38 699.262,412.563 830,470 C867.091,486.295 910.47,504.18 937.344,515.125 " fill="none" id="User-to-App-1" style="stroke:#A80036;stroke-width:1.0;"/><polygon fill="#A80036" points="942.165,517.086,935.3341,509.991,937.5331,515.203,932.3212,517.402,942.165,517.086" style="stroke:#A80036;stroke-width:1.0;"/><text fill="#000000" font-family="sans-serif" font-size="13" lengthAdjust="spacing" textLength="32" x="831" y="466.0669">track</text><!--MD5=[77659c8e30287294e4a94d3b65758210]
link Client to ScreenSpace--><path codeLine="85" d="M1376.24,76.254 C1371.81,85.667 1367.34,96.09 1364,106 C1345.57,160.732 1333.8,227.791 1328.42,262.916 " fill="none" id="Client-to-ScreenSpace" style="stroke:#A80036;stroke-width:1.0;"/><polygon fill="#A80036" points="1327.67,267.862,1332.9702,259.5609,1328.4173,262.9182,1325.0601,258.3653,1327.67,267.862" style="stroke:#A80036;stroke-width:1.0;"/><text fill="#000000" font-family="sans-serif" font-size="13" lengthAdjust="spacing" textLength="32" x="1365" y="119.0669">have</text><!--MD5=[2aac095e6c2b5a9b83dc2cc7c58a5031]
reverse link User to Score--><path codeLine="86" d="M387.55,311.558 C323.643,340.922 211,395.339 121,453 C95.1431,469.566 67.6582,491.61 49.3305,507.024 " fill="none" id="User-backto-Score" style="stroke:#A80036;stroke-width:1.0;"/><polygon fill="#FFFFFF" points="399.661,306.025,392.5413,304.8804,388.7464,311.0122,395.8661,312.1568,399.661,306.025" style="stroke:#A80036;stroke-width:1.0;"/><text fill="#000000" font-family="sans-serif" font-size="13" lengthAdjust="spacing" textLength="37" x="122" y="466.0669">check</text><!--MD5=[2aac095e6c2b5a9b83dc2cc7c58a5031]
reverse link User to Score--><path codeLine="90" d="M387.024,296.878 C304.946,312.206 143.471,353.695 52,453 C38.4362,467.725 32.5235,490.303 29.955,506.347 " fill="none" id="User-backto-Score-1" style="stroke:#A80036;stroke-width:1.0;"/><polygon fill="#FFFFFF" points="399.968,294.556,393.3559,291.6784,388.1566,296.6751,394.7687,299.5527,399.968,294.556" style="stroke:#A80036;stroke-width:1.0;"/><text fill="#000000" font-family="sans-serif" font-size="13" lengthAdjust="spacing" textLength="36" x="53" y="466.0669">share</text><!--MD5=[c144791ea6b38abe54f87a163101a94c]
link Client to IOSVersion--><path codeLine="87" d="M1399.19,76.018 C1408.73,125.307 1426.79,218.684 1435.32,262.781 " fill="none" id="Client-to-IOSVersion" style="stroke:#A80036;stroke-width:1.0;"/><polygon fill="#A80036" points="1436.31,267.908,1438.5291,258.3124,1435.361,262.9989,1430.6745,259.8308,1436.31,267.908" style="stroke:#A80036;stroke-width:1.0;"/><text fill="#000000" font-family="sans-serif" font-size="13" lengthAdjust="spacing" textLength="45" x="1410" y="119.0669">publish</text><!--MD5=[a3e16277089072f12642b6385cc45bfe]
reverse link User to Progress--><path codeLine="88" d="M394.529,396.833 C383.88,421.205 372.057,446.741 360,470 C353.551,482.439 345.373,495.85 338.653,506.371 " fill="none" id="User-backto-Progress" style="stroke:#A80036;stroke-width:1.0;"/><polygon fill="#FFFFFF" points="399.821,384.597,393.7681,388.5166,395.0582,395.6113,401.111,391.6918,399.821,384.597" style="stroke:#A80036;stroke-width:1.0;"/><text fill="#000000" font-family="sans-serif" font-size="13" lengthAdjust="spacing" textLength="36" x="369" y="466.0669">erase</text><!--MD5=[a3e16277089072f12642b6385cc45bfe]
reverse link User to Progress--><path codeLine="91" d="M388.437,315.367 C342.616,342.859 277.45,390.645 249,453 C236.882,479.56 269.52,501.095 295.993,513.601 " fill="none" id="User-backto-Progress-1" style="stroke:#A80036;stroke-width:1.0;"/><polygon fill="#FFFFFF" points="399.927,308.653,392.7285,308.2271,389.5667,314.7081,396.7652,315.134,399.927,308.653" style="stroke:#A80036;stroke-width:1.0;"/><text fill="#000000" font-family="sans-serif" font-size="13" lengthAdjust="spacing" textLength="32" x="250" y="466.0669">track</text><!--MD5=[a3e16277089072f12642b6385cc45bfe]
reverse link User to Progress--><path codeLine="103" d="M390.873,336.647 C364.135,367.141 333.246,409.11 319,453 C313.339,470.44 316.337,491.383 320,506.266 " fill="none" id="User-backto-Progress-2" style="stroke:#A80036;stroke-width:1.0;"/><polygon fill="#FFFFFF" points="399.751,326.759,392.7661,328.5508,391.7336,335.6876,398.7185,333.8958,399.751,326.759" style="stroke:#A80036;stroke-width:1.0;"/><text fill="#000000" font-family="sans-serif" font-size="13" lengthAdjust="spacing" textLength="31" x="320" y="466.0669">keep</text><!--MD5=[0c4ceb7666d6f8d42c7f9f159bd4524a]
link Version to Advertisement--><path codeLine="92" d="M151,553.267 C151,574.3301 151,603.9042 151,624.5902 " fill="none" id="Version-to-Advertisement" style="stroke:#A80036;stroke-width:1.0;"/><polygon fill="#A80036" points="151,629.6472,155,620.6472,151,624.6472,147,620.6472,151,629.6472" style="stroke:#A80036;stroke-width:1.0;"/><text fill="#000000" font-family="sans-serif" font-size="13" lengthAdjust="spacing" textLength="50" x="152" y="596.0669">remove</text><!--MD5=[075f81d00cc0db3db01d9493062ad521]
link Developer to Page--><path codeLine="93" d="M1676.5,76.257 C1684.18,85.415 1691.94,95.708 1698,106 C1728.07,157.106 1742.12,226.482 1747.77,262.706 " fill="none" id="Developer-to-Page" style="stroke:#A80036;stroke-width:1.0;"/><polygon fill="#A80036" points="1748.54,267.803,1751.1446,258.3048,1747.7899,262.8596,1743.2351,259.5049,1748.54,267.803" style="stroke:#A80036;stroke-width:1.0;"/><text fill="#000000" font-family="sans-serif" font-size="13" lengthAdjust="spacing" textLength="42" x="1707" y="119.0669">design</text><!--MD5=[dd0fb25622e670714349597d13fa38a0]
link Maintainer to App--><path codeLine="94" d="M1126.96,321.144 C1111.52,349.121 1087.37,390.214 1062,423 C1039.05,452.655 1008.57,483.125 987.527,503.049 " fill="none" id="Maintainer-to-App" style="stroke:#A80036;stroke-width:1.0;"/><polygon fill="#A80036" points="983.711,506.644,993.005,503.3849,987.3507,503.2158,987.5198,497.5614,983.711,506.644" style="stroke:#A80036;stroke-width:1.0;"/><text fill="#000000" font-family="sans-serif" font-size="13" lengthAdjust="spacing" textLength="45" x="1036" y="466.0669">publish</text><!--MD5=[31d0f82e83e1a3228906b303fa097525]
link Maintainer to Documentation--><path codeLine="95" d="M1145.78,321.388 C1148.41,369.309 1153.29,458.046 1155.65,500.974 " fill="none" id="Maintainer-to-Documentation" style="stroke:#A80036;stroke-width:1.0;"/><polygon fill="#A80036" points="1155.94,506.224,1159.4396,497.0179,1155.6653,501.2315,1151.4517,497.4573,1155.94,506.224" style="stroke:#A80036;stroke-width:1.0;"/><text fill="#000000" font-family="sans-serif" font-size="13" lengthAdjust="spacing" textLength="32" x="1155" y="466.0669">have</text><!--MD5=[ad1a9688d303f3d47fcb4cc756c4203d]
link ScreenSpace to AccodomateAdvertisement--><path codeLine="96" d="M1325,308.354 C1325,351.162 1325,453.813 1325,501.008 " fill="none" id="ScreenSpace-to-AccodomateAdvertisement" style="stroke:#A80036;stroke-width:1.0;"/><polygon fill="#A80036" points="1325,506.21,1329,497.21,1325,501.21,1321,497.21,1325,506.21" style="stroke:#A80036;stroke-width:1.0;"/><text fill="#000000" font-family="sans-serif" font-size="13" lengthAdjust="spacing" textLength="13" x="1326" y="466.0669">to</text><!--MD5=[864660da809cd482854d9b6fc5f27f3d]
link User to ColorTheme--><path codeLine="97" d="M476.04,378.074 C494.964,422.386 516.378,472.529 528.723,501.435 " fill="none" id="User-to-ColorTheme" style="stroke:#A80036;stroke-width:1.0;"/><polygon fill="#A80036" points="530.772,506.233,530.9166,496.3852,528.8086,501.6346,523.5592,499.5266,530.772,506.233" style="stroke:#A80036;stroke-width:1.0;"/><text fill="#000000" font-family="sans-serif" font-size="13" lengthAdjust="spacing" textLength="47" x="516" y="466.0669">change</text><!--MD5=[9d9c6880ca964776b77e2c7082356ba0]
link User to Version--><path codeLine="98" d="M399.812,303.676 C343.662,327.088 238.911,378.028 178,453 C168.194,465.07 161.735,481.052 157.602,494.938 " fill="none" id="User-to-Version" style="stroke:#A80036;stroke-width:1.0;"/><polygon fill="#A80036" points="156.182,499.948,162.4834,492.3788,157.5447,495.1373,154.7862,490.1986,156.182,499.948" style="stroke:#A80036;stroke-width:1.0;"/><text fill="#000000" font-family="sans-serif" font-size="13" lengthAdjust="spacing" textLength="59" x="179" y="466.0669">purchase</text><!--MD5=[ec85c1fafb74189c0e2d86544a2228bf]
link Attention to App--><path codeLine="99" d="M1011.01,308.048 C1004.075,341.063 989.256,411.04 976,470 C974.184,478.076 972.167,486.799 970.275,494.884 " fill="none" id="Attention-to-App" style="stroke:#A80036;stroke-width:1.0;"/><polygon fill="#A80036" points="969.115,499.825,975.0664,491.9777,970.258,494.9574,967.2783,490.1489,969.115,499.825" style="stroke:#A80036;stroke-width:1.0;"/><text fill="#000000" font-family="sans-serif" font-size="13" lengthAdjust="spacing" textLength="13" x="981" y="466.0669">to</text><!--MD5=[3386c538d5aa241d8637df0c419c81d3]
link Way to Attention--><path codeLine="100" d="M1015,69.546 C1015,116.714 1015,216.851 1015,262.907 " fill="none" id="Way-to-Attention" style="stroke:#A80036;stroke-width:1.0;"/><polygon fill="#A80036" points="1015,267.984,1019,258.984,1015,262.984,1011,258.984,1015,267.984" style="stroke:#A80036;stroke-width:1.0;"/><text fill="#000000" font-family="sans-serif" font-size="13" lengthAdjust="spacing" textLength="32" x="1016" y="119.0669">draw</text><!--MD5=[e724fbfda431d3ab8c525c1aadcee396]
link Developer to About_levelPage--><path codeLine="101" d="M1646,76.018 C1646,125.307 1646,218.684 1646,262.781 " fill="none" id="Developer-to-About_levelPage" style="stroke:#A80036;stroke-width:1.0;"/><polygon fill="#A80036" points="1646,267.908,1650,258.908,1646,262.908,1642,258.908,1646,267.908" style="stroke:#A80036;stroke-width:1.0;"/><text fill="#000000" font-family="sans-serif" font-size="13" lengthAdjust="spacing" textLength="42" x="1647" y="119.0669">design</text><!--MD5=[a7eff1b4dba9620b1bf69e56ab239b8a]
link User to Ability--><path codeLine="102" d="M440.836,423.143 C441.473,453.257 442.08,481.97 442.488,501.278 " fill="none" id="User-to-Ability" style="stroke:#A80036;stroke-width:1.0;"/><polygon fill="#A80036" points="442.598,506.468,446.4068,497.3854,442.4923,501.4691,438.4086,497.5546,442.598,506.468" style="stroke:#A80036;stroke-width:1.0;"/><text fill="#000000" font-family="sans-serif" font-size="13" lengthAdjust="spacing" textLength="32" x="443" y="466.0669">have</text><!--MD5=[0c604a23ddb9fa5233b70a3d2e249c2a]
link User to Math--><path codeLine="104" d="M476.445,313.422 C537.082,352.132 658.384,430.339 759,500 C763.358,503.017 767.97,506.306 772.365,509.489 " fill="none" id="User-to-Math" style="stroke:#A80036;stroke-width:1.0;"/><polygon fill="#A80036" points="776.672,512.622,771.7462,504.0934,772.6284,509.6811,767.0407,510.5632,776.672,512.622" style="stroke:#A80036;stroke-width:1.0;"/><text fill="#000000" font-family="sans-serif" font-size="13" lengthAdjust="spacing" textLength="51" x="709" y="466.0669">practice</text><!--MD5=[7fab5ee3c86219a471e297c543e8dc33]
link User to GoogleLeaderboard--><path codeLine="105" d="M476.029,326.474 C526.222,375.936 613.067,461.514 654.582,502.423 " fill="none" id="User-to-GoogleLeaderboard" style="stroke:#A80036;stroke-width:1.0;"/><polygon fill="#A80036" points="658.455,506.24,654.8527,497.0736,654.8938,502.7303,649.2371,502.7714,658.455,506.24" style="stroke:#A80036;stroke-width:1.0;"/><text fill="#000000" font-family="sans-serif" font-size="13" lengthAdjust="spacing" textLength="37" x="622" y="466.0669">check</text><!--MD5=[62c0d043670f972c5aecb565bc061fc9]
@startuml
hide circle
class User<actor> {
	score
	progress
	preference
}
class Client<actor> {
}
class Developer<actor> {
}
class Maintainer<actor> {
}
class Analytic<actor> {
}
class Developer {
	design()
	understand()
}
class Code {
}
class Maintainer {
	have()
	publish()
}
class Documentation {
}
class Way {
	draw()
}
class Attention {
}
class User {
	practice()
	install()
	switch()
	track()
	start()
	share()
	check()
	cheat()
	download()
	have()
	keep()
	erase()
	purchase()
	sign()
	change()
}
class Client {
	have()
	publish()
}
class ScreenSpace {
}
class Progress {
}
class Version {
	remove()
}
class Advertisement {
}
class App {
	use()
}
class ColorTheme {
}
class About_levelPage {
}
class Ability {
}
class GoogleLeaderboard {
}
class Math {
}
class IOSVersion {
}
class Score {
}
class Page {
}
class AccodomateAdvertisement {
}
Developer - -> Code : understand
User - -> App : download
Client - -> ScreenSpace : have
User o- - Score : check
Client - -> IOSVersion : publish
User o- - Progress : erase
User - -> App : track
User o- - Score : share
User o- - Progress : track
Version - -> Advertisement : remove
Developer - -> Page : design
Maintainer - -> App : publish
Maintainer - -> Documentation : have
ScreenSpace - -> AccodomateAdvertisement : to
User - -> ColorTheme : change
User - -> Version : purchase
Attention - -> App : to
Way - -> Attention : draw
Developer - -> About_levelPage : design
User - -> Ability : have
User o- - Progress : keep
User - -> Math : practice
User - -> GoogleLeaderboard : check
@enduml

PlantUML version 1.2021.10beta5(Unknown compile time)
(GPL source distribution)
Java Runtime: Java(TM) SE Runtime Environment
JVM: Java HotSpot(TM) 64-Bit Server VM
Default Encoding: UTF-8
Language: en
Country: US
--></g></svg>