<?xml version="1.0" encoding="UTF-8" standalone="no"?><svg xmlns="http://www.w3.org/2000/svg" xmlns:xlink="http://www.w3.org/1999/xlink" contentScriptType="application/ecmascript" contentStyleType="text/css" height="875px" preserveAspectRatio="none" style="width:2992px;height:875px;background:#FFFFFF;" version="1.1" viewBox="0 0 2992 875" width="2992px" zoomAndPan="magnify"><defs><filter height="300%" id="f1lmd0lexz6ngk" width="300%" x="-1" y="-1"><feGaussianBlur result="blurOut" stdDeviation="2.0"/><feColorMatrix in="blurOut" result="blurOut2" type="matrix" values="0 0 0 0 0 0 0 0 0 0 0 0 0 0 0 0 0 0 .4 0"/><feOffset dx="4.0" dy="4.0" in="blurOut2" result="blurOut3"/><feBlend in="SourceGraphic" in2="blurOut3" mode="normal"/></filter></defs><g><!--MD5=[3fd616f346a44cd59a91eb10b19e157c]
class User--><rect codeLine="24" fill="#FEFECE" filter="url(#f1lmd0lexz6ngk)" height="462.5234" id="User" style="stroke:#A80036;stroke-width:1.5;" width="103" x="1374.5" y="10"/><text fill="#000000" font-family="sans-serif" font-size="12" lengthAdjust="spacing" textLength="29" x="1394" y="26.1387">User</text><rect fill="#FFFFFF" height="15.9688" style="stroke:#000000;stroke-width:1.0;stroke-dasharray:2.0,2.0;" width="33" x="1447.5" y="7"/><text fill="#000000" font-family="sans-serif" font-size="12" font-style="italic" lengthAdjust="spacing" textLength="31" x="1448.5" y="19.1387">actor</text><line style="stroke:#A80036;stroke-width:1.5;" x1="1375.5" x2="1476.5" y1="33.9688" y2="33.9688"/><text fill="#000000" font-family="sans-serif" font-size="11" lengthAdjust="spacing" textLength="36" x="1380.5" y="48.1792">recipe</text><text fill="#000000" font-family="sans-serif" font-size="11" lengthAdjust="spacing" textLength="37" x="1380.5" y="60.9839">coffee</text><text fill="#000000" font-family="sans-serif" font-size="11" lengthAdjust="spacing" textLength="59" x="1380.5" y="73.7886">coffeeApp</text><text fill="#000000" font-family="sans-serif" font-size="11" lengthAdjust="spacing" textLength="91" x="1380.5" y="86.5933">coffeeSelection</text><text fill="#000000" font-family="sans-serif" font-size="11" lengthAdjust="spacing" textLength="69" x="1380.5" y="99.3979">orderHistory</text><text fill="#000000" font-family="sans-serif" font-size="11" lengthAdjust="spacing" textLength="30" x="1380.5" y="112.2026">order</text><text fill="#000000" font-family="sans-serif" font-size="11" lengthAdjust="spacing" textLength="76" x="1380.5" y="125.0073">coffeeRecipe</text><text fill="#000000" font-family="sans-serif" font-size="11" lengthAdjust="spacing" textLength="55" x="1380.5" y="137.812">recipeList</text><text fill="#000000" font-family="sans-serif" font-size="11" lengthAdjust="spacing" textLength="58" x="1380.5" y="150.6167">username</text><line style="stroke:#A80036;stroke-width:1.5;" x1="1375.5" x2="1476.5" y1="157.2109" y2="157.2109"/><text fill="#000000" font-family="sans-serif" font-size="11" lengthAdjust="spacing" textLength="48" x="1380.5" y="171.4214">update()</text><text fill="#000000" font-family="sans-serif" font-size="11" lengthAdjust="spacing" textLength="35" x="1380.5" y="184.2261">view()</text><text fill="#000000" font-family="sans-serif" font-size="11" lengthAdjust="spacing" textLength="37" x="1380.5" y="197.0308">vend()</text><text fill="#000000" font-family="sans-serif" font-size="11" lengthAdjust="spacing" textLength="51" x="1380.5" y="209.8354">identify()</text><text fill="#000000" font-family="sans-serif" font-size="11" lengthAdjust="spacing" textLength="30" x="1380.5" y="222.6401">see()</text><text fill="#000000" font-family="sans-serif" font-size="11" lengthAdjust="spacing" textLength="34" x="1380.5" y="235.4448">earn()</text><text fill="#000000" font-family="sans-serif" font-size="11" lengthAdjust="spacing" textLength="66" x="1380.5" y="248.2495">customise()</text><text fill="#000000" font-family="sans-serif" font-size="11" lengthAdjust="spacing" textLength="49" x="1380.5" y="261.0542">choose()</text><text fill="#000000" font-family="sans-serif" font-size="11" lengthAdjust="spacing" textLength="41" x="1380.5" y="273.8589">check()</text><text fill="#000000" font-family="sans-serif" font-size="11" lengthAdjust="spacing" textLength="25" x="1380.5" y="286.6636">log()</text><text fill="#000000" font-family="sans-serif" font-size="11" lengthAdjust="spacing" textLength="46" x="1380.5" y="299.4683">delete()</text><text fill="#000000" font-family="sans-serif" font-size="11" lengthAdjust="spacing" textLength="36" x="1380.5" y="312.2729">save()</text><text fill="#000000" font-family="sans-serif" font-size="11" lengthAdjust="spacing" textLength="33" x="1380.5" y="325.0776">give()</text><text fill="#000000" font-family="sans-serif" font-size="11" lengthAdjust="spacing" textLength="36" x="1380.5" y="337.8823">send()</text><text fill="#000000" font-family="sans-serif" font-size="11" lengthAdjust="spacing" textLength="40" x="1380.5" y="350.687">share()</text><text fill="#000000" font-family="sans-serif" font-size="11" lengthAdjust="spacing" textLength="51" x="1380.5" y="363.4917">replace()</text><text fill="#000000" font-family="sans-serif" font-size="11" lengthAdjust="spacing" textLength="29" x="1380.5" y="376.2964">add()</text><text fill="#000000" font-family="sans-serif" font-size="11" lengthAdjust="spacing" textLength="36" x="1380.5" y="389.1011">exist()</text><text fill="#000000" font-family="sans-serif" font-size="11" lengthAdjust="spacing" textLength="35" x="1380.5" y="401.9058">want()</text><text fill="#000000" font-family="sans-serif" font-size="11" lengthAdjust="spacing" textLength="49" x="1380.5" y="414.7104">browse()</text><text fill="#000000" font-family="sans-serif" font-size="11" lengthAdjust="spacing" textLength="67" x="1380.5" y="427.5151">customize()</text><text fill="#000000" font-family="sans-serif" font-size="11" lengthAdjust="spacing" textLength="50" x="1380.5" y="440.3198">change()</text><text fill="#000000" font-family="sans-serif" font-size="11" lengthAdjust="spacing" textLength="28" x="1380.5" y="453.1245">like()</text><text fill="#000000" font-family="sans-serif" font-size="11" lengthAdjust="spacing" textLength="54" x="1380.5" y="465.9292">produce()</text><!--MD5=[db6d18d8099558415abc41d00477ab92]
class Admin--><rect codeLine="92" fill="#FEFECE" filter="url(#f1lmd0lexz6ngk)" height="52.7734" id="Admin" style="stroke:#A80036;stroke-width:1.5;" width="78" x="2595" y="215"/><text fill="#000000" font-family="sans-serif" font-size="12" lengthAdjust="spacing" textLength="37" x="2598" y="231.1387">Admin</text><rect fill="#FFFFFF" height="15.9688" style="stroke:#000000;stroke-width:1.0;stroke-dasharray:2.0,2.0;" width="33" x="2643" y="212"/><text fill="#000000" font-family="sans-serif" font-size="12" font-style="italic" lengthAdjust="spacing" textLength="31" x="2644" y="224.1387">actor</text><line style="stroke:#A80036;stroke-width:1.5;" x1="2596" x2="2672" y1="238.9688" y2="238.9688"/><line style="stroke:#A80036;stroke-width:1.5;" x1="2596" x2="2672" y1="246.9688" y2="246.9688"/><text fill="#000000" font-family="sans-serif" font-size="11" lengthAdjust="spacing" textLength="37" x="2601" y="261.1792">have()</text><!--MD5=[6f6af049516bc56aac6e320b3234ce97]
class Supplier--><rect codeLine="21" fill="#FEFECE" filter="url(#f1lmd0lexz6ngk)" height="52.7734" id="Supplier" style="stroke:#A80036;stroke-width:1.5;" width="91" x="2708.5" y="215"/><text fill="#000000" font-family="sans-serif" font-size="12" lengthAdjust="spacing" textLength="50" x="2711.5" y="231.1387">Supplier</text><rect fill="#FFFFFF" height="15.9688" style="stroke:#000000;stroke-width:1.0;stroke-dasharray:2.0,2.0;" width="33" x="2769.5" y="212"/><text fill="#000000" font-family="sans-serif" font-size="12" font-style="italic" lengthAdjust="spacing" textLength="31" x="2770.5" y="224.1387">actor</text><line style="stroke:#A80036;stroke-width:1.5;" x1="2709.5" x2="2798.5" y1="238.9688" y2="238.9688"/><line style="stroke:#A80036;stroke-width:1.5;" x1="2709.5" x2="2798.5" y1="246.9688" y2="246.9688"/><text fill="#000000" font-family="sans-serif" font-size="11" lengthAdjust="spacing" textLength="52" x="2714.5" y="261.1792">receive()</text><!--MD5=[15c6922f6693225acd2805a9f7199676]
class Maintainer--><rect codeLine="61" fill="#FEFECE" filter="url(#f1lmd0lexz6ngk)" height="65.5781" id="Maintainer" style="stroke:#A80036;stroke-width:1.5;" width="102" x="2835" y="208.5"/><text fill="#000000" font-family="sans-serif" font-size="12" lengthAdjust="spacing" textLength="61" x="2838" y="224.6387">Maintainer</text><rect fill="#FFFFFF" height="15.9688" style="stroke:#000000;stroke-width:1.0;stroke-dasharray:2.0,2.0;" width="33" x="2907" y="205.5"/><text fill="#000000" font-family="sans-serif" font-size="12" font-style="italic" lengthAdjust="spacing" textLength="31" x="2908" y="217.6387">actor</text><line style="stroke:#A80036;stroke-width:1.5;" x1="2836" x2="2936" y1="232.4688" y2="232.4688"/><line style="stroke:#A80036;stroke-width:1.5;" x1="2836" x2="2936" y1="240.4688" y2="240.4688"/><text fill="#000000" font-family="sans-serif" font-size="11" lengthAdjust="spacing" textLength="35" x="2841" y="254.6792">track()</text><text fill="#000000" font-family="sans-serif" font-size="11" lengthAdjust="spacing" textLength="48" x="2841" y="267.4839">update()</text><!--MD5=[7bff1aba3b0d0725284345139f4478e9]
class History--><rect codeLine="19" fill="#FEFECE" filter="url(#f1lmd0lexz6ngk)" height="39.9688" id="History" style="stroke:#A80036;stroke-width:1.5;" width="49" x="2489.5" y="686"/><text fill="#000000" font-family="sans-serif" font-size="12" lengthAdjust="spacing" textLength="43" x="2492.5" y="702.1387">History</text><line style="stroke:#A80036;stroke-width:1.5;" x1="2490.5" x2="2537.5" y1="709.9688" y2="709.9688"/><line style="stroke:#A80036;stroke-width:1.5;" x1="2490.5" x2="2537.5" y1="717.9688" y2="717.9688"/><!--MD5=[cf4d6237fcae255cd2e1656cf84a30e2]
class Order--><rect codeLine="50" fill="#FEFECE" filter="url(#f1lmd0lexz6ngk)" height="39.9688" id="Order" style="stroke:#A80036;stroke-width:1.5;" width="42" x="2435" y="550"/><text fill="#000000" font-family="sans-serif" font-size="12" lengthAdjust="spacing" textLength="36" x="2438" y="566.1387">Order</text><line style="stroke:#A80036;stroke-width:1.5;" x1="2436" x2="2476" y1="573.9688" y2="573.9688"/><line style="stroke:#A80036;stroke-width:1.5;" x1="2436" x2="2476" y1="581.9688" y2="581.9688"/><!--MD5=[18eee71c88ab61f27581b8cbdd3ef5ee]
class Color--><rect codeLine="52" fill="#FEFECE" filter="url(#f1lmd0lexz6ngk)" height="39.9688" id="Color" style="stroke:#A80036;stroke-width:1.5;" width="38" x="302" y="550"/><text fill="#000000" font-family="sans-serif" font-size="12" lengthAdjust="spacing" textLength="32" x="305" y="566.1387">Color</text><line style="stroke:#A80036;stroke-width:1.5;" x1="303" x2="339" y1="573.9688" y2="573.9688"/><line style="stroke:#A80036;stroke-width:1.5;" x1="303" x2="339" y1="581.9688" y2="581.9688"/><!--MD5=[777cea8e2e96d6ad11bff111726e5d90]
class DefaultPaymentMethod--><rect codeLine="54" fill="#FEFECE" filter="url(#f1lmd0lexz6ngk)" height="39.9688" id="DefaultPaymentMethod" style="stroke:#A80036;stroke-width:1.5;" width="143" x="375.5" y="550"/><text fill="#000000" font-family="sans-serif" font-size="12" lengthAdjust="spacing" textLength="137" x="378.5" y="566.1387">DefaultPaymentMethod</text><line style="stroke:#A80036;stroke-width:1.5;" x1="376.5" x2="517.5" y1="573.9688" y2="573.9688"/><line style="stroke:#A80036;stroke-width:1.5;" x1="376.5" x2="517.5" y1="581.9688" y2="581.9688"/><!--MD5=[20418cb98520644da1e87dc0310aa74a]
class Recipe--><rect codeLine="56" fill="#FEFECE" filter="url(#f1lmd0lexz6ngk)" height="78.3828" id="Recipe" style="stroke:#A80036;stroke-width:1.5;" width="61" x="788.5" y="667"/><text fill="#000000" font-family="sans-serif" font-size="12" lengthAdjust="spacing" textLength="41" x="798.5" y="683.1387">Recipe</text><line style="stroke:#A80036;stroke-width:1.5;" x1="789.5" x2="848.5" y1="690.9688" y2="690.9688"/><line style="stroke:#A80036;stroke-width:1.5;" x1="789.5" x2="848.5" y1="698.9688" y2="698.9688"/><text fill="#000000" font-family="sans-serif" font-size="11" lengthAdjust="spacing" textLength="32" x="794.5" y="713.1792">hold()</text><text fill="#000000" font-family="sans-serif" font-size="11" lengthAdjust="spacing" textLength="49" x="794.5" y="725.9839">contain()</text><text fill="#000000" font-family="sans-serif" font-size="11" lengthAdjust="spacing" textLength="37" x="794.5" y="738.7886">store()</text><!--MD5=[bfae69cc07df8cd4d6d77ba5fc314eec]
class Kiosk--><rect codeLine="65" fill="#FEFECE" filter="url(#f1lmd0lexz6ngk)" height="39.9688" id="Kiosk" style="stroke:#A80036;stroke-width:1.5;" width="39" x="2845.5" y="550"/><text fill="#000000" font-family="sans-serif" font-size="12" lengthAdjust="spacing" textLength="33" x="2848.5" y="566.1387">Kiosk</text><line style="stroke:#A80036;stroke-width:1.5;" x1="2846.5" x2="2883.5" y1="573.9688" y2="573.9688"/><line style="stroke:#A80036;stroke-width:1.5;" x1="2846.5" x2="2883.5" y1="581.9688" y2="581.9688"/><!--MD5=[b10c05c113ef53de34dc5ef0710f8af5]
class Cup--><rect codeLine="67" fill="#FEFECE" filter="url(#f1lmd0lexz6ngk)" height="39.9688" id="Cup" style="stroke:#A80036;stroke-width:1.5;" width="29" x="1334.5" y="550"/><text fill="#000000" font-family="sans-serif" font-size="12" lengthAdjust="spacing" textLength="23" x="1337.5" y="566.1387">Cup</text><line style="stroke:#A80036;stroke-width:1.5;" x1="1335.5" x2="1362.5" y1="573.9688" y2="573.9688"/><line style="stroke:#A80036;stroke-width:1.5;" x1="1335.5" x2="1362.5" y1="581.9688" y2="581.9688"/><!--MD5=[3ea633b366b7e3c88379499281652b08]
class Allergen--><rect codeLine="69" fill="#FEFECE" filter="url(#f1lmd0lexz6ngk)" height="39.9688" id="Allergen" style="stroke:#A80036;stroke-width:1.5;" width="56" x="791" y="822"/><text fill="#000000" font-family="sans-serif" font-size="12" lengthAdjust="spacing" textLength="50" x="794" y="838.1387">Allergen</text><line style="stroke:#A80036;stroke-width:1.5;" x1="792" x2="846" y1="845.9688" y2="845.9688"/><line style="stroke:#A80036;stroke-width:1.5;" x1="792" x2="846" y1="853.9688" y2="853.9688"/><!--MD5=[e2d3da46aad6ad2235ed97afaf326e98]
class Update--><rect codeLine="71" fill="#FEFECE" filter="url(#f1lmd0lexz6ngk)" height="39.9688" id="Update" style="stroke:#A80036;stroke-width:1.5;" width="50" x="2729" y="550"/><text fill="#000000" font-family="sans-serif" font-size="12" lengthAdjust="spacing" textLength="44" x="2732" y="566.1387">Update</text><line style="stroke:#A80036;stroke-width:1.5;" x1="2730" x2="2778" y1="573.9688" y2="573.9688"/><line style="stroke:#A80036;stroke-width:1.5;" x1="2730" x2="2778" y1="581.9688" y2="581.9688"/><!--MD5=[4f1f3706c1a355a8488e154afcaed5df]
class Location--><rect codeLine="73" fill="#FEFECE" filter="url(#f1lmd0lexz6ngk)" height="39.9688" id="Location" style="stroke:#A80036;stroke-width:1.5;" width="56" x="2920" y="550"/><text fill="#000000" font-family="sans-serif" font-size="12" lengthAdjust="spacing" textLength="50" x="2923" y="566.1387">Location</text><line style="stroke:#A80036;stroke-width:1.5;" x1="2921" x2="2975" y1="573.9688" y2="573.9688"/><line style="stroke:#A80036;stroke-width:1.5;" x1="2921" x2="2975" y1="581.9688" y2="581.9688"/><!--MD5=[fe8d49671e069f579285019ac6cfb5c2]
class BaseRecipe--><rect codeLine="75" fill="#FEFECE" filter="url(#f1lmd0lexz6ngk)" height="39.9688" id="BaseRecipe" style="stroke:#A80036;stroke-width:1.5;" width="77" x="1222.5" y="550"/><text fill="#000000" font-family="sans-serif" font-size="12" lengthAdjust="spacing" textLength="71" x="1225.5" y="566.1387">BaseRecipe</text><line style="stroke:#A80036;stroke-width:1.5;" x1="1223.5" x2="1298.5" y1="573.9688" y2="573.9688"/><line style="stroke:#A80036;stroke-width:1.5;" x1="1223.5" x2="1298.5" y1="581.9688" y2="581.9688"/><!--MD5=[18b89e0834131a909517048318a5909c]
class Picture--><rect codeLine="77" fill="#FEFECE" filter="url(#f1lmd0lexz6ngk)" height="39.9688" id="Picture" style="stroke:#A80036;stroke-width:1.5;" width="46" x="1399" y="550"/><text fill="#000000" font-family="sans-serif" font-size="12" lengthAdjust="spacing" textLength="40" x="1402" y="566.1387">Picture</text><line style="stroke:#A80036;stroke-width:1.5;" x1="1400" x2="1444" y1="573.9688" y2="573.9688"/><line style="stroke:#A80036;stroke-width:1.5;" x1="1400" x2="1444" y1="581.9688" y2="581.9688"/><!--MD5=[03be55fb4aae919908819e432b9694ea]
class Phone--><rect codeLine="79" fill="#FEFECE" filter="url(#f1lmd0lexz6ngk)" height="39.9688" id="Phone" style="stroke:#A80036;stroke-width:1.5;" width="42" x="1480" y="550"/><text fill="#000000" font-family="sans-serif" font-size="12" lengthAdjust="spacing" textLength="36" x="1483" y="566.1387">Phone</text><line style="stroke:#A80036;stroke-width:1.5;" x1="1481" x2="1521" y1="573.9688" y2="573.9688"/><line style="stroke:#A80036;stroke-width:1.5;" x1="1481" x2="1521" y1="581.9688" y2="581.9688"/><!--MD5=[335f4d9be48430461c68bf6d6fdba145]
class App--><rect codeLine="81" fill="#FEFECE" filter="url(#f1lmd0lexz6ngk)" height="39.9688" id="App" style="stroke:#A80036;stroke-width:1.5;" width="30" x="1557" y="550"/><text fill="#000000" font-family="sans-serif" font-size="12" lengthAdjust="spacing" textLength="24" x="1560" y="566.1387">App</text><line style="stroke:#A80036;stroke-width:1.5;" x1="1558" x2="1586" y1="573.9688" y2="573.9688"/><line style="stroke:#A80036;stroke-width:1.5;" x1="1558" x2="1586" y1="581.9688" y2="581.9688"/><!--MD5=[9c15a27e365caab2c2ad3f8df173ca8e]
class NutritionDetail--><rect codeLine="83" fill="#FEFECE" filter="url(#f1lmd0lexz6ngk)" height="39.9688" id="NutritionDetail" style="stroke:#A80036;stroke-width:1.5;" width="89" x="1622.5" y="550"/><text fill="#000000" font-family="sans-serif" font-size="12" lengthAdjust="spacing" textLength="83" x="1625.5" y="566.1387">NutritionDetail</text><line style="stroke:#A80036;stroke-width:1.5;" x1="1623.5" x2="1710.5" y1="573.9688" y2="573.9688"/><line style="stroke:#A80036;stroke-width:1.5;" x1="1623.5" x2="1710.5" y1="581.9688" y2="581.9688"/><!--MD5=[73dda7005de60a227966661ed5e41803]
class Paypal--><rect codeLine="85" fill="#FEFECE" filter="url(#f1lmd0lexz6ngk)" height="52.7734" id="Paypal" style="stroke:#A80036;stroke-width:1.5;" width="72" x="7" y="215"/><text fill="#000000" font-family="sans-serif" font-size="12" lengthAdjust="spacing" textLength="38" x="24" y="231.1387">Paypal</text><line style="stroke:#A80036;stroke-width:1.5;" x1="8" x2="78" y1="238.9688" y2="238.9688"/><line style="stroke:#A80036;stroke-width:1.5;" x1="8" x2="78" y1="246.9688" y2="246.9688"/><text fill="#000000" font-family="sans-serif" font-size="11" lengthAdjust="spacing" textLength="60" x="13" y="261.1792">purchase()</text><!--MD5=[9536a87e044ce6588050cb9af3778782]
class Coffee--><rect codeLine="88" fill="#FEFECE" filter="url(#f1lmd0lexz6ngk)" height="39.9688" id="Coffee" style="stroke:#A80036;stroke-width:1.5;" width="46" x="174" y="550"/><text fill="#000000" font-family="sans-serif" font-size="12" lengthAdjust="spacing" textLength="40" x="177" y="566.1387">Coffee</text><line style="stroke:#A80036;stroke-width:1.5;" x1="175" x2="219" y1="573.9688" y2="573.9688"/><line style="stroke:#A80036;stroke-width:1.5;" x1="175" x2="219" y1="581.9688" y2="581.9688"/><!--MD5=[6dd2449eaee61b10560ed2d5df0129fd]
class WaitTime--><rect codeLine="90" fill="#FEFECE" filter="url(#f1lmd0lexz6ngk)" height="39.9688" id="WaitTime" style="stroke:#A80036;stroke-width:1.5;" width="61" x="1746.5" y="550"/><text fill="#000000" font-family="sans-serif" font-size="12" lengthAdjust="spacing" textLength="55" x="1749.5" y="566.1387">WaitTime</text><line style="stroke:#A80036;stroke-width:1.5;" x1="1747.5" x2="1806.5" y1="573.9688" y2="573.9688"/><line style="stroke:#A80036;stroke-width:1.5;" x1="1747.5" x2="1806.5" y1="581.9688" y2="581.9688"/><!--MD5=[f5ea1f64bc04260f09f32845b6b2c213]
class Portal--><rect codeLine="95" fill="#FEFECE" filter="url(#f1lmd0lexz6ngk)" height="39.9688" id="Portal" style="stroke:#A80036;stroke-width:1.5;" width="39" x="2614.5" y="550"/><text fill="#000000" font-family="sans-serif" font-size="12" lengthAdjust="spacing" textLength="33" x="2617.5" y="566.1387">Portal</text><line style="stroke:#A80036;stroke-width:1.5;" x1="2615.5" x2="2652.5" y1="573.9688" y2="573.9688"/><line style="stroke:#A80036;stroke-width:1.5;" x1="2615.5" x2="2652.5" y1="581.9688" y2="581.9688"/><!--MD5=[6297e4407eab3680b14668dc9d60aa2d]
class ApplePay--><rect codeLine="97" fill="#FEFECE" filter="url(#f1lmd0lexz6ngk)" height="52.7734" id="ApplePay" style="stroke:#A80036;stroke-width:1.5;" width="72" x="114" y="215"/><text fill="#000000" font-family="sans-serif" font-size="12" lengthAdjust="spacing" textLength="55" x="122.5" y="231.1387">ApplePay</text><line style="stroke:#A80036;stroke-width:1.5;" x1="115" x2="185" y1="238.9688" y2="238.9688"/><line style="stroke:#A80036;stroke-width:1.5;" x1="115" x2="185" y1="246.9688" y2="246.9688"/><text fill="#000000" font-family="sans-serif" font-size="11" lengthAdjust="spacing" textLength="60" x="120" y="261.1792">purchase()</text><!--MD5=[4c122067c55db3bfdcadf29dc88875c9]
class Reward--><rect codeLine="100" fill="#FEFECE" filter="url(#f1lmd0lexz6ngk)" height="39.9688" id="Reward" style="stroke:#A80036;stroke-width:1.5;" width="51" x="1842.5" y="550"/><text fill="#000000" font-family="sans-serif" font-size="12" lengthAdjust="spacing" textLength="45" x="1845.5" y="566.1387">Reward</text><line style="stroke:#A80036;stroke-width:1.5;" x1="1843.5" x2="1892.5" y1="573.9688" y2="573.9688"/><line style="stroke:#A80036;stroke-width:1.5;" x1="1843.5" x2="1892.5" y1="581.9688" y2="581.9688"/><!--MD5=[b6d0b56ae52ba0825bce80fcb609e3e2]
class MediaAccount--><rect codeLine="102" fill="#FEFECE" filter="url(#f1lmd0lexz6ngk)" height="39.9688" id="MediaAccount" style="stroke:#A80036;stroke-width:1.5;" width="90" x="1929" y="550"/><text fill="#000000" font-family="sans-serif" font-size="12" lengthAdjust="spacing" textLength="84" x="1932" y="566.1387">MediaAccount</text><line style="stroke:#A80036;stroke-width:1.5;" x1="1930" x2="2018" y1="573.9688" y2="573.9688"/><line style="stroke:#A80036;stroke-width:1.5;" x1="1930" x2="2018" y1="581.9688" y2="581.9688"/><!--MD5=[bbad56bc7779fe6d833d77eae0c25c05]
class Theme--><rect codeLine="104" fill="#FEFECE" filter="url(#f1lmd0lexz6ngk)" height="39.9688" id="Theme" style="stroke:#A80036;stroke-width:1.5;" width="47" x="2054.5" y="550"/><text fill="#000000" font-family="sans-serif" font-size="12" lengthAdjust="spacing" textLength="41" x="2057.5" y="566.1387">Theme</text><line style="stroke:#A80036;stroke-width:1.5;" x1="2055.5" x2="2100.5" y1="573.9688" y2="573.9688"/><line style="stroke:#A80036;stroke-width:1.5;" x1="2055.5" x2="2100.5" y1="581.9688" y2="581.9688"/><!--MD5=[ad932b6f5864965112044123d6bad487]
class Someone--><rect codeLine="106" fill="#FEFECE" filter="url(#f1lmd0lexz6ngk)" height="39.9688" id="Someone" style="stroke:#A80036;stroke-width:1.5;" width="64" x="1317" y="686"/><text fill="#000000" font-family="sans-serif" font-size="12" lengthAdjust="spacing" textLength="58" x="1320" y="702.1387">Someone</text><line style="stroke:#A80036;stroke-width:1.5;" x1="1318" x2="1380" y1="709.9688" y2="709.9688"/><line style="stroke:#A80036;stroke-width:1.5;" x1="1318" x2="1380" y1="717.9688" y2="717.9688"/><!--MD5=[f694847fc702e0723b49e5500a5c29a4]
class Username--><rect codeLine="108" fill="#FEFECE" filter="url(#f1lmd0lexz6ngk)" height="39.9688" id="Username" style="stroke:#A80036;stroke-width:1.5;" width="68" x="2137" y="550"/><text fill="#000000" font-family="sans-serif" font-size="12" lengthAdjust="spacing" textLength="62" x="2140" y="566.1387">Username</text><line style="stroke:#A80036;stroke-width:1.5;" x1="2138" x2="2204" y1="573.9688" y2="573.9688"/><line style="stroke:#A80036;stroke-width:1.5;" x1="2138" x2="2204" y1="581.9688" y2="581.9688"/><!--MD5=[2f01b1126ff33a0669651ec2488a5ef9]
class Password--><rect codeLine="110" fill="#FEFECE" filter="url(#f1lmd0lexz6ngk)" height="39.9688" id="Password" style="stroke:#A80036;stroke-width:1.5;" width="64" x="2240" y="550"/><text fill="#000000" font-family="sans-serif" font-size="12" lengthAdjust="spacing" textLength="58" x="2243" y="566.1387">Password</text><line style="stroke:#A80036;stroke-width:1.5;" x1="2241" x2="2303" y1="573.9688" y2="573.9688"/><line style="stroke:#A80036;stroke-width:1.5;" x1="2241" x2="2303" y1="581.9688" y2="581.9688"/><!--MD5=[9949363513e3770c5085325b55773415]
link User to MediaAccount--><path codeLine="112" d="M1477.55,273.216 C1587.45,338.691 1842.45,490.625 1937.46,547.229 " fill="none" id="User-to-MediaAccount" style="stroke:#A80036;stroke-width:1.0;"/><polygon fill="#A80036" points="1941.86,549.852,1936.1737,541.8105,1937.564,547.2938,1932.0806,548.6841,1941.86,549.852" style="stroke:#A80036;stroke-width:1.0;"/><text fill="#000000" font-family="sans-serif" font-size="13" lengthAdjust="spacing" textLength="31" x="1884" y="516.0669">exist</text><!--MD5=[75c043049648c0068dbb9f6175b5095b]
reverse link Coffee to Recipe--><path codeLine="113" d="M233.142,578.921 C248.778,582.34 267.289,586.379 284,590 C475.733,631.543 706.255,680.892 788.233,698.424 " fill="none" id="Coffee-backto-Recipe" style="stroke:#A80036;stroke-width:1.0;"/><polygon fill="#FFFFFF" points="220.259,576.101,225.2654,581.2909,231.9817,578.6658,226.9753,573.4758,220.259,576.101" style="stroke:#A80036;stroke-width:1.0;"/><!--MD5=[83bd9f4480df998fb6384a670b0530a6]
link User to DefaultPaymentMethod--><path codeLine="114" d="M1374.33,251.135 C1233.95,275.939 836.016,355.263 537,503 C513.619,514.552 489.946,532.201 472.75,546.342 " fill="none" id="User-to-DefaultPaymentMethod" style="stroke:#A80036;stroke-width:1.0;"/><polygon fill="#A80036" points="468.522,549.856,478.0005,547.1804,472.3676,546.6604,472.8875,541.0275,468.522,549.856" style="stroke:#A80036;stroke-width:1.0;"/><text fill="#000000" font-family="sans-serif" font-size="13" lengthAdjust="spacing" textLength="24" x="538" y="516.0669">add</text><!--MD5=[83bd9f4480df998fb6384a670b0530a6]
link User to DefaultPaymentMethod--><path codeLine="143" d="M1374.47,250.119 C1195.76,277.485 606.156,375.966 470,503 C458.384,513.837 452.634,530.852 449.788,544.891 " fill="none" id="User-to-DefaultPaymentMethod-1" style="stroke:#A80036;stroke-width:1.0;"/><polygon fill="#A80036" points="448.865,549.912,454.4246,541.7824,449.768,544.9942,446.5561,540.3376,448.865,549.912" style="stroke:#A80036;stroke-width:1.0;"/><text fill="#000000" font-family="sans-serif" font-size="13" lengthAdjust="spacing" textLength="31" x="471" y="516.0669">save</text><!--MD5=[886e22bab51f7976c0e0b0f77c911140]
reverse link User to Order--><path codeLine="115" d="M1490.56,259.031 C1636.6,297.01 2002.84,395.526 2301,503 C2349.7,520.554 2405.15,545.385 2434.74,559.039 " fill="none" id="User-backto-Order" style="stroke:#A80036;stroke-width:1.0;"/><polygon fill="#FFFFFF" points="1477.95,255.759,1482.7563,261.1348,1489.5672,258.7658,1484.7609,253.39,1477.95,255.759" style="stroke:#A80036;stroke-width:1.0;"/><text fill="#000000" font-family="sans-serif" font-size="13" lengthAdjust="spacing" textLength="31" x="2346" y="516.0669">send</text><!--MD5=[886e22bab51f7976c0e0b0f77c911140]
reverse link User to Order--><path codeLine="133" d="M1490.65,249.068 C1651.46,267.642 2078.6,330.856 2386,503 C2407.42,514.997 2427.32,534.978 2440.39,549.818 " fill="none" id="User-backto-Order-1" style="stroke:#A80036;stroke-width:1.0;"/><polygon fill="#FFFFFF" points="1477.73,247.606,1483.2439,252.2533,1489.6544,248.951,1484.1405,244.3037,1477.73,247.606" style="stroke:#A80036;stroke-width:1.0;"/><text fill="#000000" font-family="sans-serif" font-size="13" lengthAdjust="spacing" textLength="47" x="2411" y="516.0669">replace</text><!--MD5=[46c8de438bfe71dc7eaa5e2247ca5ff3]
link User to Color--><path codeLine="116" d="M1374.4,245.193 C1215.59,255.511 724.251,302.736 383,503 C364.814,513.672 348.666,531.279 337.411,545.623 " fill="none" id="User-to-Color" style="stroke:#A80036;stroke-width:1.0;"/><polygon fill="#A80036" points="334.079,549.959,342.7352,545.2611,337.1261,545.9948,336.3924,540.3857,334.079,549.959" style="stroke:#A80036;stroke-width:1.0;"/><text fill="#000000" font-family="sans-serif" font-size="13" lengthAdjust="spacing" textLength="66" x="384" y="516.0669">customize</text><!--MD5=[b7980b232572675be84c01c8606156ba]
link Maintainer to Kiosk--><path codeLine="117" d="M2883.93,274.7 C2879.73,339.978 2870.3,486.623 2866.56,544.674 " fill="none" id="Maintainer-to-Kiosk" style="stroke:#A80036;stroke-width:1.0;"/><polygon fill="#A80036" points="2866.24,549.683,2870.8107,540.959,2866.5617,544.6934,2862.8273,540.4443,2866.24,549.683" style="stroke:#A80036;stroke-width:1.0;"/><text fill="#000000" font-family="sans-serif" font-size="13" lengthAdjust="spacing" textLength="32" x="2871" y="516.0669">track</text><!--MD5=[3eb9bc51fc2321bc0ae44e2b98954b67]
link User to Theme--><path codeLine="118" d="M1477.71,268.393 C1608.46,333.869 1949.03,504.416 2049.63,554.791 " fill="none" id="User-to-Theme" style="stroke:#A80036;stroke-width:1.0;"/><polygon fill="#A80036" points="2054.23,557.099,2047.9797,549.4876,2049.761,554.8566,2044.3919,556.638,2054.23,557.099" style="stroke:#A80036;stroke-width:1.0;"/><text fill="#000000" font-family="sans-serif" font-size="13" lengthAdjust="spacing" textLength="66" x="1970" y="516.0669">customize</text><!--MD5=[8619c9e2929ae26e449179efd5100e13]
reverse link User to Recipe--><path codeLine="119" d="M1362.69,271.814 C1264.84,319.448 1074.93,421.407 948,550 C910.986,587.499 872.908,634.478 847.81,666.83 " fill="none" id="User-backto-Recipe" style="stroke:#A80036;stroke-width:1.0;"/><polygon fill="#FFFFFF" points="1374.44,266.139,1367.2973,265.148,1363.6353,271.36,1370.778,272.3511,1374.44,266.139" style="stroke:#A80036;stroke-width:1.0;"/><text fill="#000000" font-family="sans-serif" font-size="13" lengthAdjust="spacing" textLength="36" x="949" y="574.5669">share</text><!--MD5=[8619c9e2929ae26e449179efd5100e13]
reverse link User to Recipe--><path codeLine="122" d="M1364.33,294.264 C1280.96,363.625 1126.96,489.617 990,590 C942.099,625.108 884.419,663.039 849.783,685.371 " fill="none" id="User-backto-Recipe-1" style="stroke:#A80036;stroke-width:1.0;"/><polygon fill="#FFFFFF" points="1374.38,285.886,1367.2102,286.6562,1365.1635,293.5708,1372.3334,292.8006,1374.38,285.886" style="stroke:#A80036;stroke-width:1.0;"/><text fill="#000000" font-family="sans-serif" font-size="13" lengthAdjust="spacing" textLength="32" x="1039" y="574.5669">want</text><!--MD5=[8619c9e2929ae26e449179efd5100e13]
reverse link User to Recipe--><path codeLine="124" d="M1366,317.462 C1301.73,393.928 1193.55,512.104 1080,590 C1004.054,642.102 900.687,679.201 849.836,695.594 " fill="none" id="User-backto-Recipe-2" style="stroke:#A80036;stroke-width:1.0;"/><polygon fill="#FFFFFF" points="1374.39,307.422,1367.473,309.4605,1366.6943,316.6294,1373.6113,314.5909,1374.39,307.422" style="stroke:#A80036;stroke-width:1.0;"/><text fill="#000000" font-family="sans-serif" font-size="13" lengthAdjust="spacing" textLength="52" x="1135" y="574.5669">produce</text><!--MD5=[8619c9e2929ae26e449179efd5100e13]
reverse link User to Recipe--><path codeLine="126" d="M1361.38,255.394 C1181.61,292.895 684.284,408.302 616,550 C577.597,629.691 722.331,679.308 788.088,697.328 " fill="none" id="User-backto-Recipe-3" style="stroke:#A80036;stroke-width:1.0;"/><polygon fill="#FFFFFF" points="1374.27,252.725,1367.5851,250.021,1362.5179,255.1516,1369.2028,257.8557,1374.27,252.725" style="stroke:#A80036;stroke-width:1.0;"/><text fill="#000000" font-family="sans-serif" font-size="13" lengthAdjust="spacing" textLength="40" x="617" y="574.5669">delete</text><!--MD5=[8619c9e2929ae26e449179efd5100e13]
reverse link User to Recipe--><path codeLine="136" d="M1360.98,246.077 C1211.99,258.345 849.382,312.442 728,550 C703.508,597.933 753.341,651.646 788.455,681.585 " fill="none" id="User-backto-Recipe-4" style="stroke:#A80036;stroke-width:1.0;"/><polygon fill="#FFFFFF" points="1374.3,245.046,1368.0101,241.5194,1362.3356,245.9691,1368.6255,249.4957,1374.3,245.046" style="stroke:#A80036;stroke-width:1.0;"/><text fill="#000000" font-family="sans-serif" font-size="13" lengthAdjust="spacing" textLength="46" x="729" y="574.5669">choose</text><!--MD5=[8619c9e2929ae26e449179efd5100e13]
reverse link User to Recipe--><path codeLine="146" d="M1361.78,261.327 C1247.32,298.088 1007.46,390.123 873,550 C844.754,583.585 830.95,632.854 824.434,666.783 " fill="none" id="User-backto-Recipe-5" style="stroke:#A80036;stroke-width:1.0;"/><polygon fill="#FFFFFF" points="1374.44,257.322,1367.514,255.3144,1362.997,260.9355,1369.923,262.9431,1374.44,257.322" style="stroke:#A80036;stroke-width:1.0;"/><text fill="#000000" font-family="sans-serif" font-size="13" lengthAdjust="spacing" textLength="30" x="874" y="574.5669">view</text><!--MD5=[fef5e09ca540de9e98146eaaf14b5f90]
link User to NutritionDetail--><path codeLine="120" d="M1477.7,312.542 C1531.94,386.025 1614.15,497.397 1649.66,545.505 " fill="none" id="User-to-NutritionDetail" style="stroke:#A80036;stroke-width:1.0;"/><polygon fill="#A80036" points="1652.74,549.686,1650.6049,540.0714,1649.7671,545.6658,1644.1726,544.828,1652.74,549.686" style="stroke:#A80036;stroke-width:1.0;"/><text fill="#000000" font-family="sans-serif" font-size="13" lengthAdjust="spacing" textLength="23" x="1628" y="516.0669">see</text><!--MD5=[6d3e05a8613df1ec5a6822b82839e883]
reverse link Order to History--><path codeLine="121" d="M2469.56,602.333 C2480.76,628.194 2496.28,664.06 2505.71,685.837 " fill="none" id="Order-backto-History" style="stroke:#A80036;stroke-width:1.0;"/><polygon fill="#FFFFFF" points="2464.31,590.199,2463.023,597.2943,2469.0776,601.2113,2470.3646,594.1159,2464.31,590.199" style="stroke:#A80036;stroke-width:1.0;"/><!--MD5=[11cdc39152c3e510ef9b76d2b849db34]
link Cup to Someone--><path codeLine="123" d="M1349,590.199 C1349,613.981 1349,654.528 1349,680.522 " fill="none" id="Cup-to-Someone" style="stroke:#A80036;stroke-width:1.0;"/><polygon fill="#A80036" points="1349,685.837,1353,676.837,1349,680.837,1345,676.837,1349,685.837" style="stroke:#A80036;stroke-width:1.0;"/><text fill="#000000" font-family="sans-serif" font-size="13" lengthAdjust="spacing" textLength="13" x="1350" y="633.0669">to</text><!--MD5=[5415ccf067fe8dd7703fabc7fe6cc68e]
link User to Cup--><path codeLine="125" d="M1374.43,461.187 C1366.48,494.884 1359.38,525.005 1354.71,544.786 " fill="none" id="User-to-Cup" style="stroke:#A80036;stroke-width:1.0;"/><polygon fill="#A80036" points="1353.52,549.836,1359.4764,541.9925,1354.6661,544.9691,1351.6894,540.1588,1353.52,549.836" style="stroke:#A80036;stroke-width:1.0;"/><text fill="#000000" font-family="sans-serif" font-size="13" lengthAdjust="spacing" textLength="31" x="1365" y="516.0669">send</text><!--MD5=[9f2010a726ff0d425086a1b968f0297b]
link User to Username--><path codeLine="127" d="M1477.59,262.506 C1584.61,304.374 1838.02,405.45 2045,503 C2074.76,517.024 2107.66,534.324 2132.38,547.693 " fill="none" id="User-to-Username" style="stroke:#A80036;stroke-width:1.0;"/><polygon fill="#A80036" points="2136.9,550.142,2130.898,542.3333,2132.5055,547.757,2127.0819,549.3645,2136.9,550.142" style="stroke:#A80036;stroke-width:1.0;"/><text fill="#000000" font-family="sans-serif" font-size="13" lengthAdjust="spacing" textLength="88" x="2078" y="516.0669">supported_by</text><!--MD5=[56423cb6ef95a107d5e2d8d1f962102a]
link Recipe to Allergen--><path codeLine="128" d="M819,745.041 C819,768.0538 819,796.7114 819,816.69 " fill="none" id="Recipe-to-Allergen" style="stroke:#A80036;stroke-width:1.0;"/><polygon fill="#A80036" points="819,821.8278,823,812.8278,819,816.8278,815,812.8278,819,821.8278" style="stroke:#A80036;stroke-width:1.0;"/><text fill="#000000" font-family="sans-serif" font-size="13" lengthAdjust="spacing" textLength="47" x="820" y="788.0669">contain</text><!--MD5=[d81a890eb7aa0270f5b87571bfdf2d7c]
link Paypal to Coffee--><path codeLine="129" d="M37.7564,268.229 C28.4998,321.296 15.2927,444.259 73,520 C95.7152,549.814 139.303,561.516 168.273,566.09 " fill="none" id="Paypal-to-Coffee" style="stroke:#A80036;stroke-width:1.0;"/><polygon fill="#A80036" points="173.503,566.864,165.1848,561.5907,168.5568,566.1327,164.0147,569.5047,173.503,566.864" style="stroke:#A80036;stroke-width:1.0;"/><text fill="#000000" font-family="sans-serif" font-size="13" lengthAdjust="spacing" textLength="59" x="74" y="516.0669">purchase</text><!--MD5=[5ab1f46e477a8163e64d30b24bef4255]
link User to Password--><path codeLine="130" d="M1477.83,255.461 C1602.25,287.638 1925.95,377.713 2175,503 C2199.36,515.254 2224.77,532.741 2243.47,546.637 " fill="none" id="User-to-Password" style="stroke:#A80036;stroke-width:1.0;"/><polygon fill="#A80036" points="2247.59,549.724,2242.7871,541.1256,2243.589,546.7254,2237.9892,547.5273,2247.59,549.724" style="stroke:#A80036;stroke-width:1.0;"/><text fill="#000000" font-family="sans-serif" font-size="13" lengthAdjust="spacing" textLength="88" x="2204" y="516.0669">supported_by</text><!--MD5=[9aecce486f7bede5d8dc488e17d94ab5]
link User to History--><path codeLine="131" d="M1477.74,241.827 C1640.6,242.3 2150.63,263.848 2467,503 C2521.93,544.52 2521.02,636.722 2517.04,680.722 " fill="none" id="User-to-History" style="stroke:#A80036;stroke-width:1.0;"/><polygon fill="#A80036" points="2516.55,685.843,2521.4013,677.2718,2517.0334,680.8664,2513.4388,676.4985,2516.55,685.843" style="stroke:#A80036;stroke-width:1.0;"/><text fill="#000000" font-family="sans-serif" font-size="13" lengthAdjust="spacing" textLength="30" x="2515" y="574.5669">view</text><!--MD5=[cf891e5464d0bab7231ac13736eb645d]
link User to WaitTime--><path codeLine="132" d="M1477.79,290.676 C1554.52,362.046 1695.43,493.119 1752.26,545.99 " fill="none" id="User-to-WaitTime" style="stroke:#A80036;stroke-width:1.0;"/><polygon fill="#A80036" points="1756.21,549.659,1752.3386,540.603,1752.5467,546.256,1746.8937,546.4642,1756.21,549.659" style="stroke:#A80036;stroke-width:1.0;"/><text fill="#000000" font-family="sans-serif" font-size="13" lengthAdjust="spacing" textLength="27" x="1720" y="516.0669">give</text><!--MD5=[5b707910882fd4cdd21b206b1d647b61]
link Supplier to Update--><path codeLine="134" d="M2754,268.12 C2754,329.555 2754,484.604 2754,544.687 " fill="none" id="Supplier-to-Update" style="stroke:#A80036;stroke-width:1.0;"/><polygon fill="#A80036" points="2754,549.862,2758,540.862,2754,544.862,2750,540.862,2754,549.862" style="stroke:#A80036;stroke-width:1.0;"/><text fill="#000000" font-family="sans-serif" font-size="13" lengthAdjust="spacing" textLength="47" x="2755" y="516.0669">receive</text><!--MD5=[5c6598d20cfe9667f89e2e591a706980]
link Maintainer to Location--><path codeLine="135" d="M2892.11,274.7 C2904.51,339.978 2932.36,486.623 2943.38,544.674 " fill="none" id="Maintainer-to-Location" style="stroke:#A80036;stroke-width:1.0;"/><polygon fill="#A80036" points="2944.33,549.683,2946.5814,540.0949,2943.3975,544.7707,2938.7217,541.5869,2944.33,549.683" style="stroke:#A80036;stroke-width:1.0;"/><text fill="#000000" font-family="sans-serif" font-size="13" lengthAdjust="spacing" textLength="45" x="2939" y="516.0669">update</text><!--MD5=[0214f9738810ef8e203a2a515b7b8642]
link User to App--><path codeLine="137" d="M1477.68,358.071 C1507.98,425.838 1543.66,505.621 1561.18,544.802 " fill="none" id="User-to-App" style="stroke:#A80036;stroke-width:1.0;"/><polygon fill="#A80036" points="1563.43,549.83,1563.4011,539.9812,1561.3859,545.2669,1556.1002,543.2517,1563.43,549.83" style="stroke:#A80036;stroke-width:1.0;"/><text fill="#000000" font-family="sans-serif" font-size="13" lengthAdjust="spacing" textLength="19" x="1549" y="516.0669">log</text><!--MD5=[3331e5322b59e2927d9473ff20587c76]
link Admin to Portal--><path codeLine="138" d="M2634,268.12 C2634,329.555 2634,484.604 2634,544.687 " fill="none" id="Admin-to-Portal" style="stroke:#A80036;stroke-width:1.0;"/><polygon fill="#A80036" points="2634,549.862,2638,540.862,2634,544.862,2630,540.862,2634,549.862" style="stroke:#A80036;stroke-width:1.0;"/><text fill="#000000" font-family="sans-serif" font-size="13" lengthAdjust="spacing" textLength="32" x="2635" y="516.0669">have</text><!--MD5=[898d7de36cd24f4f38d7977ec8648f6d]
link ApplePay to Coffee--><path codeLine="139" d="M143.187,268.283 C131.186,318.898 110.795,433.828 147,520 C151.861,531.569 160.934,541.777 170.031,549.84 " fill="none" id="ApplePay-to-Coffee" style="stroke:#A80036;stroke-width:1.0;"/><polygon fill="#A80036" points="173.919,553.161,169.6737,544.2741,170.1172,549.9135,164.4777,550.357,173.919,553.161" style="stroke:#A80036;stroke-width:1.0;"/><text fill="#000000" font-family="sans-serif" font-size="13" lengthAdjust="spacing" textLength="59" x="148" y="516.0669">purchase</text><!--MD5=[98a4a8f46cc45c6d77f5230d728b804c]
link User to BaseRecipe--><path codeLine="140" d="M1374.45,331.451 C1346.62,381.123 1312.62,444.6 1286,503 C1279.76,516.682 1273.76,532.412 1269.2,545.083 " fill="none" id="User-to-BaseRecipe" style="stroke:#A80036;stroke-width:1.0;"/><polygon fill="#A80036" points="1267.47,549.955,1274.264,542.8247,1269.1517,545.2463,1266.7301,540.134,1267.47,549.955" style="stroke:#A80036;stroke-width:1.0;"/><text fill="#000000" font-family="sans-serif" font-size="13" lengthAdjust="spacing" textLength="66" x="1287" y="516.0669">customize</text><!--MD5=[c711a915f17cfd755a4cd63707574c2b]
reverse link User to Coffee--><path codeLine="141" d="M1361.41,247.904 C1182.73,264.783 669.708,326.387 286,503 C260.313,514.823 234.78,534.83 217.694,549.724 " fill="none" id="User-backto-Coffee" style="stroke:#A80036;stroke-width:1.0;"/><polygon fill="#FFFFFF" points="1374.44,246.697,1368.0964,243.2679,1362.4912,247.8046,1368.8348,251.2337,1374.44,246.697" style="stroke:#A80036;stroke-width:1.0;"/><text fill="#000000" font-family="sans-serif" font-size="13" lengthAdjust="spacing" textLength="66" x="287" y="516.0669">customise</text><!--MD5=[c0646aff05db046bf03bd07f9451b561]
link User to Picture--><path codeLine="142" d="M1423.17,473.245 C1422.82,502.012 1422.51,527.386 1422.3,544.774 " fill="none" id="User-to-Picture" style="stroke:#A80036;stroke-width:1.0;"/><polygon fill="#A80036" points="1422.23,549.908,1426.3403,540.9578,1422.2914,544.9084,1418.3409,540.8595,1422.23,549.908" style="stroke:#A80036;stroke-width:1.0;"/><text fill="#000000" font-family="sans-serif" font-size="13" lengthAdjust="spacing" textLength="31" x="1424" y="516.0669">save</text><!--MD5=[a7d4735a8fd37d3d30f1107e6e258b49]
link User to Phone--><path codeLine="144" d="M1477.58,467.036 C1484.79,498.452 1491.2,526.325 1495.48,544.954 " fill="none" id="User-to-Phone" style="stroke:#A80036;stroke-width:1.0;"/><polygon fill="#A80036" points="1496.63,549.959,1498.5117,540.2916,1495.5097,545.0861,1490.7151,542.0841,1496.63,549.959" style="stroke:#A80036;stroke-width:1.0;"/><text fill="#000000" font-family="sans-serif" font-size="13" lengthAdjust="spacing" textLength="31" x="1490" y="516.0669">save</text><!--MD5=[e38a3bde52c7ecfcc01cfe2c1b1a0001]
link User to Reward--><path codeLine="145" d="M1477.57,280.593 C1570.67,349.369 1764.05,492.214 1838.18,546.976 " fill="none" id="User-to-Reward" style="stroke:#A80036;stroke-width:1.0;"/><polygon fill="#A80036" points="1842.47,550.142,1837.6087,541.5765,1838.4487,547.1706,1832.8545,548.0106,1842.47,550.142" style="stroke:#A80036;stroke-width:1.0;"/><text fill="#000000" font-family="sans-serif" font-size="13" lengthAdjust="spacing" textLength="29" x="1795" y="516.0669">earn</text><!--MD5=[b264e874add36c9a2c70f8e559712861]
@startuml
hide circle
class User<actor> {
	recipe
	coffee
	coffeeApp
	coffeeSelection
	orderHistory
	order
	coffeeRecipe
	recipeList
	username
}
class Admin<actor> {
}
class Supplier<actor> {
}
class Maintainer<actor> {
}
class History {
}
class Supplier {
	receive()
}
class User {
	update()
	view()
	vend()
	identify()
	see()
	earn()
	customise()
	choose()
	check()
	log()
	delete()
	save()
	give()
	send()
	share()
	replace()
	add()
	exist()
	want()
	browse()
	customize()
	change()
	like()
	produce()
}
class Order {
}
class Color {
}
class DefaultPaymentMethod {
}
class Recipe {
	hold()
	contain()
	store()
}
class Maintainer {
	track()
	update()
}
class Kiosk {
}
class Cup {
}
class Allergen {
}
class Update {
}
class Location {
}
class BaseRecipe {
}
class Picture {
}
class Phone {
}
class App {
}
class NutritionDetail {
}
class Paypal {
	purchase()
}
class Coffee {
}
class WaitTime {
}
class Admin {
	have()
}
class Portal {
}
class ApplePay {
	purchase()
}
class Reward {
}
class MediaAccount {
}
class Theme {
}
class Someone {
}
class Username {
}
class Password {
}
User - -> MediaAccount : exist
Coffee o- - Recipe
User - -> DefaultPaymentMethod : add
User o- - Order : send
User - -> Color : customize
Maintainer - -> Kiosk : track
User - -> Theme : customize
User o- - Recipe : share
User - -> NutritionDetail : see
Order o- - History
User o- - Recipe : want
Cup - -> Someone : to
User o- - Recipe : produce
User - -> Cup : send
User o- - Recipe : delete
User - -> Username : supported_by
Recipe - -> Allergen : contain
Paypal - -> Coffee : purchase
User - -> Password : supported_by
User - -> History : view
User - -> WaitTime : give
User o- - Order : replace
Supplier - -> Update : receive
Maintainer - -> Location : update
User o- - Recipe : choose
User - -> App : log
Admin - -> Portal : have
ApplePay - -> Coffee : purchase
User - -> BaseRecipe : customize
User o- - Coffee : customise
User - -> Picture : save
User - -> DefaultPaymentMethod : save
User - -> Phone : save
User - -> Reward : earn
User o- - Recipe : view
@enduml

PlantUML version 1.2021.10beta2(Unknown compile time)
(GPL source distribution)
Java Runtime: Java(TM) SE Runtime Environment
JVM: Java HotSpot(TM) 64-Bit Server VM
Default Encoding: UTF-8
Language: en
Country: US
--></g></svg>