<?xml version="1.0" encoding="UTF-8" standalone="no"?><svg xmlns="http://www.w3.org/2000/svg" xmlns:xlink="http://www.w3.org/1999/xlink" contentScriptType="application/ecmascript" contentStyleType="text/css" height="671px" preserveAspectRatio="none" style="width:898px;height:671px;background:#FFFFFF;" version="1.1" viewBox="0 0 898 671" width="898px" zoomAndPan="magnify"><defs><filter height="300%" id="f1n7uda2b9eayi" width="300%" x="-1" y="-1"><feGaussianBlur result="blurOut" stdDeviation="2.0"/><feColorMatrix in="blurOut" result="blurOut2" type="matrix" values="0 0 0 0 0 0 0 0 0 0 0 0 0 0 0 0 0 0 .4 0"/><feOffset dx="4.0" dy="4.0" in="blurOut2" result="blurOut3"/><feBlend in="SourceGraphic" in2="blurOut3" mode="normal"/></filter></defs><g><!--MD5=[3fd616f346a44cd59a91eb10b19e157c]
class User--><rect codeLine="22" fill="#FEFECE" filter="url(#f1n7uda2b9eayi)" height="193.625" id="User" style="stroke:#A80036;stroke-width:1.5;" width="95" x="344.3302" y="347"/><text fill="#000000" font-family="sans-serif" font-size="12" lengthAdjust="spacing" textLength="29" x="359.8302" y="363.1387">User</text><rect fill="#FFFFFF" height="15.9688" style="stroke:#000000;stroke-width:1.0;stroke-dasharray:2.0,2.0;" width="33" x="409.3302" y="344"/><text fill="#000000" font-family="sans-serif" font-size="12" font-style="italic" lengthAdjust="spacing" textLength="31" x="410.3302" y="356.1387">actor</text><line style="stroke:#A80036;stroke-width:1.5;" x1="345.3302" x2="438.3302" y1="370.9688" y2="370.9688"/><text fill="#000000" font-family="sans-serif" font-size="11" lengthAdjust="spacing" textLength="28" x="350.3302" y="385.1792">point</text><text fill="#000000" font-family="sans-serif" font-size="11" lengthAdjust="spacing" textLength="83" x="350.3302" y="397.9839">progressreport</text><text fill="#000000" font-family="sans-serif" font-size="11" lengthAdjust="spacing" textLength="73" x="350.3302" y="410.7886">performance</text><line style="stroke:#A80036;stroke-width:1.5;" x1="345.3302" x2="438.3302" y1="417.3828" y2="417.3828"/><text fill="#000000" font-family="sans-serif" font-size="11" lengthAdjust="spacing" textLength="32" x="350.3302" y="431.5933">play()</text><text fill="#000000" font-family="sans-serif" font-size="11" lengthAdjust="spacing" textLength="72" x="350.3302" y="444.3979">understand()</text><text fill="#000000" font-family="sans-serif" font-size="11" lengthAdjust="spacing" textLength="35" x="350.3302" y="457.2026">track()</text><text fill="#000000" font-family="sans-serif" font-size="11" lengthAdjust="spacing" textLength="49" x="350.3302" y="470.0073">answer()</text><text fill="#000000" font-family="sans-serif" font-size="11" lengthAdjust="spacing" textLength="55" x="350.3302" y="482.812">proceed()</text><text fill="#000000" font-family="sans-serif" font-size="11" lengthAdjust="spacing" textLength="37" x="350.3302" y="495.6167">have()</text><text fill="#000000" font-family="sans-serif" font-size="11" lengthAdjust="spacing" textLength="27" x="350.3302" y="508.4214">get()</text><text fill="#000000" font-family="sans-serif" font-size="11" lengthAdjust="spacing" textLength="35" x="350.3302" y="521.2261">view()</text><text fill="#000000" font-family="sans-serif" font-size="11" lengthAdjust="spacing" textLength="30" x="350.3302" y="534.0308">skip()</text><!--MD5=[d342058c8fb6f80e9d50d673c6908241]
class Developer--><rect codeLine="11" fill="#FEFECE" filter="url(#f1n7uda2b9eayi)" height="129.6016" id="Developer" style="stroke:#A80036;stroke-width:1.5;" width="105" x="280.3302" y="10"/><text fill="#000000" font-family="sans-serif" font-size="12" lengthAdjust="spacing" textLength="64" x="283.3302" y="26.1387">Developer</text><rect fill="#FFFFFF" height="15.9688" style="stroke:#000000;stroke-width:1.0;stroke-dasharray:2.0,2.0;" width="33" x="355.3302" y="7"/><text fill="#000000" font-family="sans-serif" font-size="12" font-style="italic" lengthAdjust="spacing" textLength="31" x="356.3302" y="19.1387">actor</text><line style="stroke:#A80036;stroke-width:1.5;" x1="281.3302" x2="384.3302" y1="33.9688" y2="33.9688"/><line style="stroke:#A80036;stroke-width:1.5;" x1="281.3302" x2="384.3302" y1="41.9688" y2="41.9688"/><text fill="#000000" font-family="sans-serif" font-size="11" lengthAdjust="spacing" textLength="50" x="286.3302" y="56.1792">change()</text><text fill="#000000" font-family="sans-serif" font-size="11" lengthAdjust="spacing" textLength="36" x="286.3302" y="68.9839">hand()</text><text fill="#000000" font-family="sans-serif" font-size="11" lengthAdjust="spacing" textLength="51" x="286.3302" y="81.7886">provide()</text><text fill="#000000" font-family="sans-serif" font-size="11" lengthAdjust="spacing" textLength="48" x="286.3302" y="94.5933">publish()</text><text fill="#000000" font-family="sans-serif" font-size="11" lengthAdjust="spacing" textLength="70" x="286.3302" y="107.3979">restructure()</text><text fill="#000000" font-family="sans-serif" font-size="11" lengthAdjust="spacing" textLength="22" x="286.3302" y="120.2026">fix()</text><text fill="#000000" font-family="sans-serif" font-size="11" lengthAdjust="spacing" textLength="57" x="286.3302" y="133.0073">hand_off()</text><!--MD5=[15c6922f6693225acd2805a9f7199676]
class Maintainer--><rect codeLine="47" fill="#FEFECE" filter="url(#f1n7uda2b9eayi)" height="52.7734" id="Maintainer" style="stroke:#A80036;stroke-width:1.5;" width="102" x="601.8302" y="48.5"/><text fill="#000000" font-family="sans-serif" font-size="12" lengthAdjust="spacing" textLength="61" x="604.8302" y="64.6387">Maintainer</text><rect fill="#FFFFFF" height="15.9688" style="stroke:#000000;stroke-width:1.0;stroke-dasharray:2.0,2.0;" width="33" x="673.8302" y="45.5"/><text fill="#000000" font-family="sans-serif" font-size="12" font-style="italic" lengthAdjust="spacing" textLength="31" x="674.8302" y="57.6387">actor</text><line style="stroke:#A80036;stroke-width:1.5;" x1="602.8302" x2="702.8302" y1="72.4688" y2="72.4688"/><line style="stroke:#A80036;stroke-width:1.5;" x1="602.8302" x2="702.8302" y1="80.4688" y2="80.4688"/><text fill="#000000" font-family="sans-serif" font-size="11" lengthAdjust="spacing" textLength="27" x="607.8302" y="94.6792">get()</text><!--MD5=[335f4d9be48430461c68bf6d6fdba145]
class App--><rect codeLine="20" fill="#FEFECE" filter="url(#f1n7uda2b9eayi)" height="39.9688" id="App" style="stroke:#A80036;stroke-width:1.5;" width="30" x="52.83" y="618"/><text fill="#000000" font-family="sans-serif" font-size="12" lengthAdjust="spacing" textLength="24" x="55.83" y="634.1387">App</text><line style="stroke:#A80036;stroke-width:1.5;" x1="53.83" x2="81.83" y1="641.9688" y2="641.9688"/><line style="stroke:#A80036;stroke-width:1.5;" x1="53.83" x2="81.83" y1="649.9688" y2="649.9688"/><!--MD5=[fc7123defb831ecdd44b2d9bcef6cceb]
class Question--><rect codeLine="33" fill="#FEFECE" filter="url(#f1n7uda2b9eayi)" height="39.9688" id="Question" style="stroke:#A80036;stroke-width:1.5;" width="60" x="133.83" y="618"/><text fill="#000000" font-family="sans-serif" font-size="12" lengthAdjust="spacing" textLength="54" x="136.83" y="634.1387">Question</text><line style="stroke:#A80036;stroke-width:1.5;" x1="134.83" x2="192.83" y1="641.9688" y2="641.9688"/><line style="stroke:#A80036;stroke-width:1.5;" x1="134.83" x2="192.83" y1="649.9688" y2="649.9688"/><!--MD5=[2e42295458bb0bec21c9622a623eb29e]
class Time--><rect codeLine="35" fill="#FEFECE" filter="url(#f1n7uda2b9eayi)" height="52.7734" id="Time" style="stroke:#A80036;stroke-width:1.5;" width="35" x="739.3302" y="48.5"/><text fill="#000000" font-family="sans-serif" font-size="12" lengthAdjust="spacing" textLength="29" x="742.3302" y="64.6387">Time</text><line style="stroke:#A80036;stroke-width:1.5;" x1="740.3302" x2="773.3302" y1="72.4688" y2="72.4688"/><line style="stroke:#A80036;stroke-width:1.5;" x1="740.3302" x2="773.3302" y1="80.4688" y2="80.4688"/><text fill="#000000" font-family="sans-serif" font-size="11" lengthAdjust="spacing" textLength="22" x="745.3302" y="94.6792">fix()</text><!--MD5=[b07065dfc0d0e09965ec10bfc328bb3e]
class Option--><rect codeLine="38" fill="#FEFECE" filter="url(#f1n7uda2b9eayi)" height="52.7734" id="Option" style="stroke:#A80036;stroke-width:1.5;" width="60" x="100.83" y="217"/><text fill="#000000" font-family="sans-serif" font-size="12" lengthAdjust="spacing" textLength="40" x="110.83" y="233.1387">Option</text><line style="stroke:#A80036;stroke-width:1.5;" x1="101.83" x2="159.83" y1="240.9688" y2="240.9688"/><line style="stroke:#A80036;stroke-width:1.5;" x1="101.83" x2="159.83" y1="248.9688" y2="248.9688"/><text fill="#000000" font-family="sans-serif" font-size="11" lengthAdjust="spacing" textLength="48" x="106.83" y="263.1792">enable()</text><!--MD5=[79d378210367c0c6ec62ef762ddfbd1b]
class Project--><rect codeLine="41" fill="#FEFECE" filter="url(#f1n7uda2b9eayi)" height="39.9688" id="Project" style="stroke:#A80036;stroke-width:1.5;" width="47" x="196.3302" y="223.5"/><text fill="#000000" font-family="sans-serif" font-size="12" lengthAdjust="spacing" textLength="41" x="199.3302" y="239.6387">Project</text><line style="stroke:#A80036;stroke-width:1.5;" x1="197.3302" x2="242.3302" y1="247.4688" y2="247.4688"/><line style="stroke:#A80036;stroke-width:1.5;" x1="197.3302" x2="242.3302" y1="255.4688" y2="255.4688"/><!--MD5=[972bde5337b4335dd91fa5354c932445]
class Point--><rect codeLine="43" fill="#FEFECE" filter="url(#f1n7uda2b9eayi)" height="39.9688" id="Point" style="stroke:#A80036;stroke-width:1.5;" width="34" x="228.8302" y="618"/><text fill="#000000" font-family="sans-serif" font-size="12" lengthAdjust="spacing" textLength="28" x="231.8302" y="634.1387">Point</text><line style="stroke:#A80036;stroke-width:1.5;" x1="229.8302" x2="261.8302" y1="641.9688" y2="641.9688"/><line style="stroke:#A80036;stroke-width:1.5;" x1="229.8302" x2="261.8302" y1="649.9688" y2="649.9688"/><!--MD5=[56c17820b5ec61b985b118caeb6340b1]
class Ui--><rect codeLine="45" fill="#FEFECE" filter="url(#f1n7uda2b9eayi)" height="39.9688" id="Ui" style="stroke:#A80036;stroke-width:1.5;" width="18" x="323.8302" y="223.5"/><text fill="#000000" font-family="sans-serif" font-size="12" lengthAdjust="spacing" textLength="12" x="326.8302" y="239.6387">Ui</text><line style="stroke:#A80036;stroke-width:1.5;" x1="324.8302" x2="340.8302" y1="247.4688" y2="247.4688"/><line style="stroke:#A80036;stroke-width:1.5;" x1="324.8302" x2="340.8302" y1="255.4688" y2="255.4688"/><!--MD5=[e206c9f78bfa30d1a01c25b4c6393505]
class UserAnalytic--><rect codeLine="50" fill="#FEFECE" filter="url(#f1n7uda2b9eayi)" height="39.9688" id="UserAnalytic" style="stroke:#A80036;stroke-width:1.5;" width="81" x="612.3302" y="223.5"/><text fill="#000000" font-family="sans-serif" font-size="12" lengthAdjust="spacing" textLength="75" x="615.3302" y="239.6387">UserAnalytic</text><line style="stroke:#A80036;stroke-width:1.5;" x1="613.3302" x2="692.3302" y1="247.4688" y2="247.4688"/><line style="stroke:#A80036;stroke-width:1.5;" x1="613.3302" x2="692.3302" y1="255.4688" y2="255.4688"/><!--MD5=[706e73df52f3df32f52be1ce9adb217e]
class Graph--><rect codeLine="52" fill="#FEFECE" filter="url(#f1n7uda2b9eayi)" height="39.9688" id="Graph" style="stroke:#A80036;stroke-width:1.5;" width="42" x="400.8302" y="223.5"/><text fill="#000000" font-family="sans-serif" font-size="12" lengthAdjust="spacing" textLength="36" x="403.8302" y="239.6387">Graph</text><line style="stroke:#A80036;stroke-width:1.5;" x1="401.8302" x2="441.8302" y1="247.4688" y2="247.4688"/><line style="stroke:#A80036;stroke-width:1.5;" x1="401.8302" x2="441.8302" y1="255.4688" y2="255.4688"/><!--MD5=[dd430f8ffb90486aebcb09d1b4424d44]
class SourceCode--><rect codeLine="54" fill="#FEFECE" filter="url(#f1n7uda2b9eayi)" height="39.9688" id="SourceCode" style="stroke:#A80036;stroke-width:1.5;" width="81" x="487.3302" y="223.5"/><text fill="#000000" font-family="sans-serif" font-size="12" lengthAdjust="spacing" textLength="75" x="490.3302" y="239.6387">SourceCode</text><line style="stroke:#A80036;stroke-width:1.5;" x1="488.3302" x2="567.3302" y1="247.4688" y2="247.4688"/><line style="stroke:#A80036;stroke-width:1.5;" x1="488.3302" x2="567.3302" y1="255.4688" y2="255.4688"/><!--MD5=[5e8081d071cf4e3ed9326b3d1ff1f1b8]
class Trouble--><rect codeLine="56" fill="#FEFECE" filter="url(#f1n7uda2b9eayi)" height="39.9688" id="Trouble" style="stroke:#A80036;stroke-width:1.5;" width="52" x="304.8302" y="618"/><text fill="#000000" font-family="sans-serif" font-size="12" lengthAdjust="spacing" textLength="46" x="307.8302" y="634.1387">Trouble</text><line style="stroke:#A80036;stroke-width:1.5;" x1="305.8302" x2="355.8302" y1="641.9688" y2="641.9688"/><line style="stroke:#A80036;stroke-width:1.5;" x1="305.8302" x2="355.8302" y1="649.9688" y2="649.9688"/><!--MD5=[f33202a4358b6dc53d5337ad154687fb]
class Progress--><rect codeLine="58" fill="#FEFECE" filter="url(#f1n7uda2b9eayi)" height="39.9688" id="Progress" style="stroke:#A80036;stroke-width:1.5;" width="60" x="391.8302" y="618"/><text fill="#000000" font-family="sans-serif" font-size="12" lengthAdjust="spacing" textLength="54" x="394.8302" y="634.1387">Progress</text><line style="stroke:#A80036;stroke-width:1.5;" x1="392.8302" x2="450.8302" y1="641.9688" y2="641.9688"/><line style="stroke:#A80036;stroke-width:1.5;" x1="392.8302" x2="450.8302" y1="649.9688" y2="649.9688"/><!--MD5=[f00dbe8c0302c6aec2cb26b3c659c8fc]
class Report--><rect codeLine="60" fill="#FEFECE" filter="url(#f1n7uda2b9eayi)" height="39.9688" id="Report" style="stroke:#A80036;stroke-width:1.5;" width="46" x="486.8302" y="618"/><text fill="#000000" font-family="sans-serif" font-size="12" lengthAdjust="spacing" textLength="40" x="489.8302" y="634.1387">Report</text><line style="stroke:#A80036;stroke-width:1.5;" x1="487.8302" x2="531.8302" y1="641.9688" y2="641.9688"/><line style="stroke:#A80036;stroke-width:1.5;" x1="487.8302" x2="531.8302" y1="649.9688" y2="649.9688"/><!--MD5=[4e13963c9dc916a21a8436ef39422b32]
class Component--><rect codeLine="62" fill="#FEFECE" filter="url(#f1n7uda2b9eayi)" height="52.7734" id="Component" style="stroke:#A80036;stroke-width:1.5;" width="75" x="809.3302" y="48.5"/><text fill="#000000" font-family="sans-serif" font-size="12" lengthAdjust="spacing" textLength="69" x="812.3302" y="64.6387">Component</text><line style="stroke:#A80036;stroke-width:1.5;" x1="810.3302" x2="883.3302" y1="72.4688" y2="72.4688"/><line style="stroke:#A80036;stroke-width:1.5;" x1="810.3302" x2="883.3302" y1="80.4688" y2="80.4688"/><text fill="#000000" font-family="sans-serif" font-size="11" lengthAdjust="spacing" textLength="37" x="815.3302" y="94.6792">have()</text><!--MD5=[3915787db80ab162e3259f8f86339844]
class Structure--><rect codeLine="65" fill="#FEFECE" filter="url(#f1n7uda2b9eayi)" height="39.9688" id="Structure" style="stroke:#A80036;stroke-width:1.5;" width="61" x="816.3302" y="223.5"/><text fill="#000000" font-family="sans-serif" font-size="12" lengthAdjust="spacing" textLength="55" x="819.3302" y="239.6387">Structure</text><line style="stroke:#A80036;stroke-width:1.5;" x1="817.3302" x2="876.3302" y1="247.4688" y2="247.4688"/><line style="stroke:#A80036;stroke-width:1.5;" x1="817.3302" x2="876.3302" y1="255.4688" y2="255.4688"/><!--MD5=[062c2ec8f631acb5cab4b4f82b1c02fd]
class Progressreport--><rect codeLine="67" fill="#FEFECE" filter="url(#f1n7uda2b9eayi)" height="39.9688" id="Progressreport" style="stroke:#A80036;stroke-width:1.5;" width="98" x="567.8302" y="618"/><text fill="#000000" font-family="sans-serif" font-size="12" lengthAdjust="spacing" textLength="92" x="570.8302" y="634.1387">Progressreport</text><line style="stroke:#A80036;stroke-width:1.5;" x1="568.8302" x2="664.8302" y1="641.9688" y2="641.9688"/><line style="stroke:#A80036;stroke-width:1.5;" x1="568.8302" x2="664.8302" y1="649.9688" y2="649.9688"/><!--MD5=[1f3313e11f52906bc19153de0f738949]
class Hint--><rect codeLine="69" fill="#FEFECE" filter="url(#f1n7uda2b9eayi)" height="39.9688" id="Hint" style="stroke:#A80036;stroke-width:1.5;" width="29" x="701.3302" y="618"/><text fill="#000000" font-family="sans-serif" font-size="12" lengthAdjust="spacing" textLength="23" x="704.3302" y="634.1387">Hint</text><line style="stroke:#A80036;stroke-width:1.5;" x1="702.3302" x2="729.3302" y1="641.9688" y2="641.9688"/><line style="stroke:#A80036;stroke-width:1.5;" x1="702.3302" x2="729.3302" y1="649.9688" y2="649.9688"/><!--MD5=[1a502b0dbedafd291c48f46ef8646183]
class Feedback--><rect codeLine="71" fill="#FEFECE" filter="url(#f1n7uda2b9eayi)" height="39.9688" id="Feedback" style="stroke:#A80036;stroke-width:1.5;" width="66" x="765.8302" y="618"/><text fill="#000000" font-family="sans-serif" font-size="12" lengthAdjust="spacing" textLength="60" x="768.8302" y="634.1387">Feedback</text><line style="stroke:#A80036;stroke-width:1.5;" x1="766.8302" x2="830.8302" y1="641.9688" y2="641.9688"/><line style="stroke:#A80036;stroke-width:1.5;" x1="766.8302" x2="830.8302" y1="649.9688" y2="649.9688"/><!--MD5=[89a729879333f4a514a72f7623177c63]
link User to Question--><path codeLine="73" d="M344.3172,476.581 C309.3132,500.744 261.3072,535.797 222.8302,571 C208.3402,584.2568 193.6162,600.7231 182.5012,613.892 " fill="none" id="User-to-Question" style="stroke:#A80036;stroke-width:1.0;"/><polygon fill="#A80036" points="179.1722,617.8659,188.0181,613.5357,182.3831,614.0331,181.8856,608.3982,179.1722,617.8659" style="stroke:#A80036;stroke-width:1.0;"/><text fill="#000000" font-family="sans-serif" font-size="13" lengthAdjust="spacing" textLength="25" x="223.8302" y="584.0669">skip</text><!--MD5=[286dbcb6ce6df1b5e6a36f1c46a62a4b]
reverse link User to Progressreport--><path codeLine="74" d="M449.6472,494.337 C496.8622,534.627 561.0582,589.408 594.4982,617.9436 " fill="none" id="User-backto-Progressreport" style="stroke:#A80036;stroke-width:1.0;"/><polygon fill="#FFFFFF" points="439.5472,485.718,441.5147,492.6555,448.6753,493.5076,446.7078,486.5701,439.5472,485.718" style="stroke:#A80036;stroke-width:1.0;"/><text fill="#000000" font-family="sans-serif" font-size="13" lengthAdjust="spacing" textLength="30" x="557.8302" y="584.0669">view</text><!--MD5=[f855d19d9bb66dd1f18980a08b62cdb3]
link Developer to Ui--><path codeLine="75" d="M329.9142,140.272 C329.5452,155.585 329.4212,171.872 329.8302,187 C330.1052,197.173 330.6622,208.384 331.2232,218.051 " fill="none" id="Developer-to-Ui" style="stroke:#A80036;stroke-width:1.0;"/><polygon fill="#A80036" points="331.5332,223.247,334.9887,214.0242,331.2346,218.2559,327.0029,214.5019,331.5332,223.247" style="stroke:#A80036;stroke-width:1.0;"/><text fill="#000000" font-family="sans-serif" font-size="13" lengthAdjust="spacing" textLength="47" x="330.8302" y="183.0669">change</text><!--MD5=[303c9b9d3701436fb42aa14a6cb527a8]
link User to Hint--><path codeLine="76" d="M439.6372,473.33 C512.1112,516.278 646.6242,595.9889 696.5352,625.5661 " fill="none" id="User-to-Hint" style="stroke:#A80036;stroke-width:1.0;"/><polygon fill="#A80036" points="701.0962,628.269,695.3921,620.2401,696.7945,625.7204,691.3143,627.1228,701.0962,628.269" style="stroke:#A80036;stroke-width:1.0;"/><text fill="#000000" font-family="sans-serif" font-size="13" lengthAdjust="spacing" textLength="21" x="630.8302" y="584.0669">get</text><!--MD5=[38aa0dc04da63292d06c78399db58375]
link Maintainer to UserAnalytic--><path codeLine="77" d="M652.8302,101.651 C652.8302,133.384 652.8302,187.017 652.8302,218.142 " fill="none" id="Maintainer-to-UserAnalytic" style="stroke:#A80036;stroke-width:1.0;"/><polygon fill="#A80036" points="652.8302,223.309,656.8302,214.309,652.8302,218.309,648.8302,214.309,652.8302,223.309" style="stroke:#A80036;stroke-width:1.0;"/><text fill="#000000" font-family="sans-serif" font-size="13" lengthAdjust="spacing" textLength="21" x="653.8302" y="183.0669">get</text><!--MD5=[f3af3e4376504b99e4d7659058753524]
link User to Feedback--><path codeLine="78" d="M439.5042,467.19 C493.3172,492.269 583.4522,534.376 660.8302,571 C694.7542,587.0569 733.2792,605.4994 760.9862,618.8001 " fill="none" id="User-to-Feedback" style="stroke:#A80036;stroke-width:1.0;"/><polygon fill="#A80036" points="765.6842,621.0554,759.3024,613.5539,761.1769,618.8912,755.8396,620.7656,765.6842,621.0554" style="stroke:#A80036;stroke-width:1.0;"/><text fill="#000000" font-family="sans-serif" font-size="13" lengthAdjust="spacing" textLength="21" x="696.8302" y="584.0669">get</text><!--MD5=[42901561eebdb1422153f9267609e171]
link Developer to Graph--><path codeLine="79" d="M367.2402,140.373 C381.9742,167.938 398.2662,198.417 409.1832,218.84 " fill="none" id="Developer-to-Graph" style="stroke:#A80036;stroke-width:1.0;"/><polygon fill="#A80036" points="411.5652,223.296,410.8504,213.4731,409.2083,218.8864,403.795,217.2442,411.5652,223.296" style="stroke:#A80036;stroke-width:1.0;"/><text fill="#000000" font-family="sans-serif" font-size="13" lengthAdjust="spacing" textLength="16" x="391.8302" y="183.0669">fix</text><!--MD5=[4191b4b8ff707877f522bab8020e7a55]
link Developer to SourceCode--><path codeLine="80" d="M385.3432,120.838 C422.9122,152.916 471.8952,194.74 501.5472,220.058 " fill="none" id="Developer-to-SourceCode" style="stroke:#A80036;stroke-width:1.0;"/><polygon fill="#A80036" points="505.4212,223.366,501.1743,214.4799,501.6188,220.1192,495.9794,220.5637,505.4212,223.366" style="stroke:#A80036;stroke-width:1.0;"/><text fill="#000000" font-family="sans-serif" font-size="13" lengthAdjust="spacing" textLength="57" x="460.8302" y="183.0669">hand_off</text><!--MD5=[4191b4b8ff707877f522bab8020e7a55]
link Developer to SourceCode--><path codeLine="83" d="M385.4982,85.606 C431.5542,97.078 495.7882,121.216 526.8302,170 C535.8762,184.217 535.7352,203.39 533.5412,218.448 " fill="none" id="Developer-to-SourceCode-1" style="stroke:#A80036;stroke-width:1.0;"/><polygon fill="#A80036" points="532.7292,223.384,538.1389,215.1539,533.5419,218.4505,530.2453,213.8535,532.7292,223.384" style="stroke:#A80036;stroke-width:1.0;"/><text fill="#000000" font-family="sans-serif" font-size="13" lengthAdjust="spacing" textLength="32" x="534.8302" y="183.0669">hand</text><!--MD5=[63b8d0e8784646f572f6d4b2ac285ae4]
link Developer to Project--><path codeLine="81" d="M280.2982,128.344 C268.9902,141.281 257.7662,155.583 248.8302,170 C239.3972,185.218 231.9792,204.03 227.0072,218.677 " fill="none" id="Developer-to-Project" style="stroke:#A80036;stroke-width:1.0;"/><polygon fill="#A80036" points="225.4152,223.474,232.0474,216.193,226.9908,218.7287,224.455,213.6721,225.4152,223.474" style="stroke:#A80036;stroke-width:1.0;"/><text fill="#000000" font-family="sans-serif" font-size="13" lengthAdjust="spacing" textLength="71" x="249.8302" y="183.0669">restructure</text><!--MD5=[0cfaacdf40786d36b81ef07f701a116c]
link Option to User--><path codeLine="82" d="M161.0252,267.464 C204.8362,300.784 286.6262,362.989 340.1432,403.69 " fill="none" id="Option-to-User" style="stroke:#A80036;stroke-width:1.0;"/><polygon fill="#A80036" points="344.2672,406.827,339.5253,398.1948,340.2875,403.8001,334.6823,404.5623,344.2672,406.827" style="stroke:#A80036;stroke-width:1.0;"/><text fill="#000000" font-family="sans-serif" font-size="13" lengthAdjust="spacing" textLength="43" x="223.8302" y="313.0669">enable</text><!--MD5=[d6e0e09d7ac48566b49fa6bdf6412cc2]
link Developer to Option--><path codeLine="84" d="M280.3002,101.857 C249.4862,118.614 211.0022,142.423 181.8302,170 C168.7562,182.359 156.9872,198.549 148.0582,212.495 " fill="none" id="Developer-to-Option" style="stroke:#A80036;stroke-width:1.0;"/><polygon fill="#A80036" points="145.3802,216.744,153.5627,211.2625,148.046,212.5139,146.7945,206.9972,145.3802,216.744" style="stroke:#A80036;stroke-width:1.0;"/><text fill="#000000" font-family="sans-serif" font-size="13" lengthAdjust="spacing" textLength="48" x="182.8302" y="183.0669">provide</text><!--MD5=[4222519a03778b58d4e28868ac7e5646]
link User to Trouble--><path codeLine="85" d="M361.2402,541.281 C352.7632,567.9653 344.2942,594.6203 338.4552,612.9997 " fill="none" id="User-to-Trouble" style="stroke:#A80036;stroke-width:1.0;"/><polygon fill="#A80036" points="336.8802,617.9574,343.4174,610.5909,338.3941,613.1921,335.7929,608.1687,336.8802,617.9574" style="stroke:#A80036;stroke-width:1.0;"/><text fill="#000000" font-family="sans-serif" font-size="13" lengthAdjust="spacing" textLength="32" x="351.8302" y="584.0669">have</text><!--MD5=[a3e16277089072f12642b6385cc45bfe]
reverse link User to Progress--><path codeLine="86" d="M408.8992,554.244 C412.7502,578.8916 416.4162,602.3523 418.8542,617.9574 " fill="none" id="User-backto-Progress" style="stroke:#A80036;stroke-width:1.0;"/><polygon fill="#FFFFFF" points="406.8742,541.281,403.8485,547.8266,408.7269,553.1371,411.7526,546.5915,406.8742,541.281" style="stroke:#A80036;stroke-width:1.0;"/><text fill="#000000" font-family="sans-serif" font-size="13" lengthAdjust="spacing" textLength="32" x="414.8302" y="584.0669">track</text><!--MD5=[b1ce83990aa10fef32912eaa0d3da128]
link User to Report--><path codeLine="87" d="M439.4852,522.54 C459.5132,555.129 481.3552,590.6675 495.3002,613.3587 " fill="none" id="User-to-Report" style="stroke:#A80036;stroke-width:1.0;"/><polygon fill="#A80036" points="497.9812,617.7209,496.6768,607.9588,495.3633,613.461,489.861,612.1475,497.9812,617.7209" style="stroke:#A80036;stroke-width:1.0;"/><text fill="#000000" font-family="sans-serif" font-size="13" lengthAdjust="spacing" textLength="30" x="479.8302" y="584.0669">view</text><!--MD5=[67edb1c21979ec7637c3149d05d6dea3]
reverse link User to Point--><path codeLine="88" d="M334.2092,490.537 C309.7392,512.528 282.7782,540.703 264.8302,571 C256.2612,585.4647 251.3672,604.0174 248.7002,617.7669 " fill="none" id="User-backto-Point" style="stroke:#A80036;stroke-width:1.0;"/><polygon fill="#FFFFFF" points="344.1522,481.811,337.0042,482.7629,335.1336,489.7271,342.2816,488.7753,344.1522,481.811" style="stroke:#A80036;stroke-width:1.0;"/><text fill="#000000" font-family="sans-serif" font-size="13" lengthAdjust="spacing" textLength="73" x="265.8302" y="584.0669">understand</text><!--MD5=[2dbf9e6a4222adaace334fcdf6ab9817]
link Component to Structure--><path codeLine="89" d="M846.8302,101.651 C846.8302,133.384 846.8302,187.017 846.8302,218.142 " fill="none" id="Component-to-Structure" style="stroke:#A80036;stroke-width:1.0;"/><polygon fill="#A80036" points="846.8302,223.309,850.8302,214.309,846.8302,218.309,842.8302,214.309,846.8302,223.309" style="stroke:#A80036;stroke-width:1.0;"/><text fill="#000000" font-family="sans-serif" font-size="13" lengthAdjust="spacing" textLength="32" x="847.8302" y="183.0669">have</text><!--MD5=[5b66dd66451f01e9d7836fb8e284c875]
link Developer to App--><path codeLine="90" d="M280.3002,88.677 C220.3982,106.257 125.2839,144.416 82.83,217 C6,348.358 44.4024,544.456 61.2711,612.6149 " fill="none" id="Developer-to-App" style="stroke:#A80036;stroke-width:1.0;"/><polygon fill="#A80036" points="62.5432,617.6781,64.2295,607.9747,61.3248,612.8288,56.4706,609.9242,62.5432,617.6781" style="stroke:#A80036;stroke-width:1.0;"/><text fill="#000000" font-family="sans-serif" font-size="13" lengthAdjust="spacing" textLength="45" x="50.83" y="313.0669">publish</text><!--MD5=[0214f9738810ef8e203a2a515b7b8642]
link User to App--><path codeLine="91" d="M343.9962,471.334 C298.9522,496.352 229.7822,535.34 170.8302,571 C141.3102,588.8566 107.7806,610.6266 87.2163,624.1535 " fill="none" id="User-to-App" style="stroke:#A80036;stroke-width:1.0;"/><polygon fill="#A80036" points="83.031,626.9105,92.7473,625.2998,87.2064,624.1599,88.3463,618.6191,83.031,626.9105" style="stroke:#A80036;stroke-width:1.0;"/><text fill="#000000" font-family="sans-serif" font-size="13" lengthAdjust="spacing" textLength="27" x="171.8302" y="584.0669">play</text><!--MD5=[09daea6838575c7934822782259fdbd6]
@startuml
hide circle
class User<actor> {
	point
	progressreport
	performance
}
class Developer<actor> {
}
class Maintainer<actor> {
}
class Developer {
	change()
	hand()
	provide()
	publish()
	restructure()
	fix()
	hand_off()
}
class App {
}
class User {
	play()
	understand()
	track()
	answer()
	proceed()
	have()
	get()
	view()
	skip()
}
class Question {
}
class Time {
	fix()
}
class Option {
	enable()
}
class Project {
}
class Point {
}
class Ui {
}
class Maintainer {
	get()
}
class UserAnalytic {
}
class Graph {
}
class SourceCode {
}
class Trouble {
}
class Progress {
}
class Report {
}
class Component {
	have()
}
class Structure {
}
class Progressreport {
}
class Hint {
}
class Feedback {
}
User - -> Question : skip
User o- - Progressreport : view
Developer - -> Ui : change
User - -> Hint : get
Maintainer - -> UserAnalytic : get
User - -> Feedback : get
Developer - -> Graph : fix
Developer - -> SourceCode : hand_off
Developer - -> Project : restructure
Option - -> User : enable
Developer - -> SourceCode : hand
Developer - -> Option : provide
User - -> Trouble : have
User o- - Progress : track
User - -> Report : view
User o- - Point : understand
Component - -> Structure : have
Developer - -> App : publish
User - -> App : play
@enduml

PlantUML version 1.2021.9beta2(Unknown compile time)
(GPL source distribution)
Java Runtime: Java(TM) SE Runtime Environment
JVM: Java HotSpot(TM) 64-Bit Server VM
Default Encoding: UTF-8
Language: en
Country: US
--></g></svg>