<?xml version="1.0" encoding="UTF-8" standalone="no"?><svg xmlns="http://www.w3.org/2000/svg" xmlns:xlink="http://www.w3.org/1999/xlink" contentScriptType="application/ecmascript" contentStyleType="text/css" height="606px" preserveAspectRatio="none" style="width:545px;height:606px;background:#FFFFFF;" version="1.1" viewBox="0 0 545 606" width="545px" zoomAndPan="magnify"><defs><filter height="300%" id="f1o3dljtv68zex" width="300%" x="-1" y="-1"><feGaussianBlur result="blurOut" stdDeviation="2.0"/><feColorMatrix in="blurOut" result="blurOut2" type="matrix" values="0 0 0 0 0 0 0 0 0 0 0 0 0 0 0 0 0 0 .4 0"/><feOffset dx="4.0" dy="4.0" in="blurOut2" result="blurOut3"/><feBlend in="SourceGraphic" in2="blurOut3" mode="normal"/></filter></defs><g><!--MD5=[3fd616f346a44cd59a91eb10b19e157c]
class User--><rect codeLine="9" fill="#FEFECE" filter="url(#f1o3dljtv68zex)" height="142.4063" id="User" style="stroke:#A80036;stroke-width:1.5;" width="80" x="98" y="191"/><text fill="#000000" font-family="sans-serif" font-size="12" lengthAdjust="spacing" textLength="29" x="106" y="207.1387">User</text><rect fill="#FFFFFF" height="15.9688" style="stroke:#000000;stroke-width:1.0;stroke-dasharray:2.0,2.0;" width="33" x="148" y="188"/><text fill="#000000" font-family="sans-serif" font-size="12" font-style="italic" lengthAdjust="spacing" textLength="31" x="149" y="200.1387">actor</text><line style="stroke:#A80036;stroke-width:1.5;" x1="99" x2="177" y1="214.9688" y2="214.9688"/><text fill="#000000" font-family="sans-serif" font-size="11" lengthAdjust="spacing" textLength="41" x="104" y="229.1792">bidding</text><line style="stroke:#A80036;stroke-width:1.5;" x1="99" x2="177" y1="235.7734" y2="235.7734"/><text fill="#000000" font-family="sans-serif" font-size="11" lengthAdjust="spacing" textLength="42" x="104" y="249.9839">return()</text><text fill="#000000" font-family="sans-serif" font-size="11" lengthAdjust="spacing" textLength="68" x="104" y="262.7886">participate()</text><text fill="#000000" font-family="sans-serif" font-size="11" lengthAdjust="spacing" textLength="35" x="104" y="275.5933">view()</text><text fill="#000000" font-family="sans-serif" font-size="11" lengthAdjust="spacing" textLength="22" x="104" y="288.3979">go()</text><text fill="#000000" font-family="sans-serif" font-size="11" lengthAdjust="spacing" textLength="39" x="104" y="301.2026">place()</text><text fill="#000000" font-family="sans-serif" font-size="11" lengthAdjust="spacing" textLength="37" x="104" y="314.0073">keep()</text><text fill="#000000" font-family="sans-serif" font-size="11" lengthAdjust="spacing" textLength="31" x="104" y="326.812">visit()</text><!--MD5=[d342058c8fb6f80e9d50d673c6908241]
class Developer--><rect codeLine="24" fill="#FEFECE" filter="url(#f1o3dljtv68zex)" height="103.9922" id="Developer" style="stroke:#A80036;stroke-width:1.5;" width="105" x="139.5" y="10"/><text fill="#000000" font-family="sans-serif" font-size="12" lengthAdjust="spacing" textLength="64" x="142.5" y="26.1387">Developer</text><rect fill="#FFFFFF" height="15.9688" style="stroke:#000000;stroke-width:1.0;stroke-dasharray:2.0,2.0;" width="33" x="214.5" y="7"/><text fill="#000000" font-family="sans-serif" font-size="12" font-style="italic" lengthAdjust="spacing" textLength="31" x="215.5" y="19.1387">actor</text><line style="stroke:#A80036;stroke-width:1.5;" x1="140.5" x2="243.5" y1="33.9688" y2="33.9688"/><line style="stroke:#A80036;stroke-width:1.5;" x1="140.5" x2="243.5" y1="41.9688" y2="41.9688"/><text fill="#000000" font-family="sans-serif" font-size="11" lengthAdjust="spacing" textLength="51" x="145.5" y="56.1792">provide()</text><text fill="#000000" font-family="sans-serif" font-size="11" lengthAdjust="spacing" textLength="46" x="145.5" y="68.9839">search()</text><text fill="#000000" font-family="sans-serif" font-size="11" lengthAdjust="spacing" textLength="48" x="145.5" y="81.7886">enable()</text><text fill="#000000" font-family="sans-serif" font-size="11" lengthAdjust="spacing" textLength="29" x="145.5" y="94.5933">pay()</text><text fill="#000000" font-family="sans-serif" font-size="11" lengthAdjust="spacing" textLength="37" x="145.5" y="107.3979">allow()</text><!--MD5=[db6d18d8099558415abc41d00477ab92]
class Admin--><rect codeLine="40" fill="#FEFECE" filter="url(#f1o3dljtv68zex)" height="52.7734" id="Admin" style="stroke:#A80036;stroke-width:1.5;" width="78" x="346" y="35.5"/><text fill="#000000" font-family="sans-serif" font-size="12" lengthAdjust="spacing" textLength="37" x="349" y="51.6387">Admin</text><rect fill="#FFFFFF" height="15.9688" style="stroke:#000000;stroke-width:1.0;stroke-dasharray:2.0,2.0;" width="33" x="394" y="32.5"/><text fill="#000000" font-family="sans-serif" font-size="12" font-style="italic" lengthAdjust="spacing" textLength="31" x="395" y="44.6387">actor</text><line style="stroke:#A80036;stroke-width:1.5;" x1="347" x2="423" y1="59.4688" y2="59.4688"/><line style="stroke:#A80036;stroke-width:1.5;" x1="347" x2="423" y1="67.4688" y2="67.4688"/><text fill="#000000" font-family="sans-serif" font-size="11" lengthAdjust="spacing" textLength="57" x="352" y="81.6792">maintain()</text><!--MD5=[a4beae97a833d06086bb16d2d2128104]
class Auction--><rect codeLine="18" fill="#FEFECE" filter="url(#f1o3dljtv68zex)" height="39.9688" id="Auction" style="stroke:#A80036;stroke-width:1.5;" width="50" x="7" y="553"/><text fill="#000000" font-family="sans-serif" font-size="12" lengthAdjust="spacing" textLength="44" x="10" y="569.1387">Auction</text><line style="stroke:#A80036;stroke-width:1.5;" x1="8" x2="56" y1="576.9688" y2="576.9688"/><line style="stroke:#A80036;stroke-width:1.5;" x1="8" x2="56" y1="584.9688" y2="584.9688"/><!--MD5=[44a1b4afaef76c16e6c9ec4990ad0c8d]
class Item--><rect codeLine="20" fill="#FEFECE" filter="url(#f1o3dljtv68zex)" height="65.5781" id="Item" style="stroke:#A80036;stroke-width:1.5;" width="45" x="115.5" y="410"/><text fill="#000000" font-family="sans-serif" font-size="12" lengthAdjust="spacing" textLength="26" x="125" y="426.1387">Item</text><line style="stroke:#A80036;stroke-width:1.5;" x1="116.5" x2="159.5" y1="433.9688" y2="433.9688"/><line style="stroke:#A80036;stroke-width:1.5;" x1="116.5" x2="159.5" y1="441.9688" y2="441.9688"/><text fill="#000000" font-family="sans-serif" font-size="11" lengthAdjust="spacing" textLength="33" x="121.5" y="456.1792">user()</text><text fill="#000000" font-family="sans-serif" font-size="11" lengthAdjust="spacing" textLength="27" x="121.5" y="468.9839">win()</text><!--MD5=[e1e79fb7675434802d8a5d105105c07e]
class LoginSystem--><rect codeLine="31" fill="#FEFECE" filter="url(#f1o3dljtv68zex)" height="39.9688" id="LoginSystem" style="stroke:#A80036;stroke-width:1.5;" width="83" x="235.5" y="242"/><text fill="#000000" font-family="sans-serif" font-size="12" lengthAdjust="spacing" textLength="77" x="238.5" y="258.1387">LoginSystem</text><line style="stroke:#A80036;stroke-width:1.5;" x1="236.5" x2="317.5" y1="265.9688" y2="265.9688"/><line style="stroke:#A80036;stroke-width:1.5;" x1="236.5" x2="317.5" y1="273.9688" y2="273.9688"/><!--MD5=[43d3c0ba1d3b9c6f5e40c8769cc5b343]
class Source--><rect codeLine="33" fill="#FEFECE" filter="url(#f1o3dljtv68zex)" height="39.9688" id="Source" style="stroke:#A80036;stroke-width:1.5;" width="49" x="113.5" y="553"/><text fill="#000000" font-family="sans-serif" font-size="12" lengthAdjust="spacing" textLength="43" x="116.5" y="569.1387">Source</text><line style="stroke:#A80036;stroke-width:1.5;" x1="114.5" x2="161.5" y1="576.9688" y2="576.9688"/><line style="stroke:#A80036;stroke-width:1.5;" x1="114.5" x2="161.5" y1="584.9688" y2="584.9688"/><!--MD5=[72136138052d025cffdce3c22fbd185f]
class Product--><rect codeLine="35" fill="#FEFECE" filter="url(#f1o3dljtv68zex)" height="52.7734" id="Product" style="stroke:#A80036;stroke-width:1.5;" width="72" x="459" y="35.5"/><text fill="#000000" font-family="sans-serif" font-size="12" lengthAdjust="spacing" textLength="45" x="472.5" y="51.6387">Product</text><line style="stroke:#A80036;stroke-width:1.5;" x1="460" x2="530" y1="59.4688" y2="59.4688"/><line style="stroke:#A80036;stroke-width:1.5;" x1="460" x2="530" y1="67.4688" y2="67.4688"/><text fill="#000000" font-family="sans-serif" font-size="11" lengthAdjust="spacing" textLength="60" x="465" y="81.6792">purchase()</text><!--MD5=[3b034ebaa87c9ec5e8fb5410143f628f]
class Track--><rect codeLine="38" fill="#FEFECE" filter="url(#f1o3dljtv68zex)" height="39.9688" id="Track" style="stroke:#A80036;stroke-width:1.5;" width="39" x="195.5" y="423"/><text fill="#000000" font-family="sans-serif" font-size="12" lengthAdjust="spacing" textLength="33" x="198.5" y="439.1387">Track</text><line style="stroke:#A80036;stroke-width:1.5;" x1="196.5" x2="233.5" y1="446.9688" y2="446.9688"/><line style="stroke:#A80036;stroke-width:1.5;" x1="196.5" x2="233.5" y1="454.9688" y2="454.9688"/><!--MD5=[ed3afe56f065d25b4329669e73deaf58]
class Database--><rect codeLine="43" fill="#FEFECE" filter="url(#f1o3dljtv68zex)" height="39.9688" id="Database" style="stroke:#A80036;stroke-width:1.5;" width="63" x="353.5" y="242"/><text fill="#000000" font-family="sans-serif" font-size="12" lengthAdjust="spacing" textLength="57" x="356.5" y="258.1387">Database</text><line style="stroke:#A80036;stroke-width:1.5;" x1="354.5" x2="415.5" y1="265.9688" y2="265.9688"/><line style="stroke:#A80036;stroke-width:1.5;" x1="354.5" x2="415.5" y1="273.9688" y2="273.9688"/><!--MD5=[250b7f4159edd758a3fb2644dc1f4a4c]
link User to Track--><path codeLine="45" d="M168.211,333.232 C181.138,363.281 195.372,396.372 204.706,418.071 " fill="none" id="User-to-Track" style="stroke:#A80036;stroke-width:1.0;"/><polygon fill="#A80036" points="206.737,422.792,206.8524,412.9438,204.76,418.1995,199.5044,416.107,206.737,422.792" style="stroke:#A80036;stroke-width:1.0;"/><text fill="#000000" font-family="sans-serif" font-size="13" lengthAdjust="spacing" textLength="31" x="189" y="376.0669">keep</text><!--MD5=[53a588df3f5f0f7f452d1b4562b14650]
link User to Item--><path codeLine="46" d="M138,333.232 C138,357.611 138,383.992 138,404.668 " fill="none" id="User-to-Item" style="stroke:#A80036;stroke-width:1.0;"/><polygon fill="#A80036" points="138,409.797,142,400.797,138,404.797,134,400.797,138,409.797" style="stroke:#A80036;stroke-width:1.0;"/><text fill="#000000" font-family="sans-serif" font-size="13" lengthAdjust="spacing" textLength="26" x="139" y="376.0669">visit</text><!--MD5=[9b3225193b6386674c8a141945291f2c]
link Item to Source--><path codeLine="47" d="M138,476.3 C138,498.463 138,527.4116 138,547.6422 " fill="none" id="Item-to-Source" style="stroke:#A80036;stroke-width:1.0;"/><polygon fill="#A80036" points="138,552.8458,142,543.8458,138,547.8458,134,543.8458,138,552.8458" style="stroke:#A80036;stroke-width:1.0;"/><text fill="#000000" font-family="sans-serif" font-size="13" lengthAdjust="spacing" textLength="28" x="139" y="519.0669">user</text><!--MD5=[cc80b15a1005322d35f5aa76e49edf09]
link Developer to User--><path codeLine="48" d="M139.17,105.976 C128.918,117.175 119.621,130.058 114,144 C108.717,157.103 107.946,171.518 109.66,185.62 " fill="none" id="Developer-to-User" style="stroke:#A80036;stroke-width:1.0;"/><polygon fill="#A80036" points="110.4,190.798,113.087,181.3228,109.6929,185.8483,105.1674,182.4541,110.4,190.798" style="stroke:#A80036;stroke-width:1.0;"/><text fill="#000000" font-family="sans-serif" font-size="13" lengthAdjust="spacing" textLength="33" x="115" y="157.0669">allow</text><!--MD5=[cc80b15a1005322d35f5aa76e49edf09]
link Developer to User--><path codeLine="49" d="M178.023,114.247 C172.072,136.07 165.01,161.964 158.487,185.88 " fill="none" id="Developer-to-User-1" style="stroke:#A80036;stroke-width:1.0;"/><polygon fill="#A80036" points="157.104,190.951,163.3317,183.3211,158.4199,186.1273,155.6137,181.2155,157.104,190.951" style="stroke:#A80036;stroke-width:1.0;"/><text fill="#000000" font-family="sans-serif" font-size="13" lengthAdjust="spacing" textLength="43" x="171" y="157.0669">enable</text><!--MD5=[9ffb623563958c437f43103b0bfab89b]
link Admin to Database--><path codeLine="50" d="M385,88.885 C385,127.351 385,199.089 385,236.648 " fill="none" id="Admin-to-Database" style="stroke:#A80036;stroke-width:1.0;"/><polygon fill="#A80036" points="385,241.933,389,232.933,385,236.933,381,232.933,385,241.933" style="stroke:#A80036;stroke-width:1.0;"/><text fill="#000000" font-family="sans-serif" font-size="13" lengthAdjust="spacing" textLength="56" x="386" y="157.0669">maintain</text><!--MD5=[caa6320277df905ac55ee668020bc92e]
link Developer to LoginSystem--><path codeLine="51" d="M214,114.247 C230.996,153.838 253.743,206.826 266.74,237.099 " fill="none" id="Developer-to-LoginSystem" style="stroke:#A80036;stroke-width:1.0;"/><polygon fill="#A80036" points="268.739,241.758,268.8659,231.91,266.7673,237.1632,261.5141,235.0646,268.739,241.758" style="stroke:#A80036;stroke-width:1.0;"/><text fill="#000000" font-family="sans-serif" font-size="13" lengthAdjust="spacing" textLength="48" x="233" y="157.0669">provide</text><!--MD5=[f20c5b094abcab7a5f6b28663b6ace94]
link User to Auction--><path codeLine="52" d="M97.7283,301.901 C72.3205,329.378 41.7867,368.565 28,410 C12.4026,456.877 20.0857,515.6702 26.4496,547.9739 " fill="none" id="User-to-Auction" style="stroke:#A80036;stroke-width:1.0;"/><polygon fill="#A80036" points="27.4558,552.9251,29.5831,543.3087,26.4599,548.0253,21.7434,544.9021,27.4558,552.9251" style="stroke:#A80036;stroke-width:1.0;"/><text fill="#000000" font-family="sans-serif" font-size="13" lengthAdjust="spacing" textLength="68" x="29" y="447.5669">participate</text><!--MD5=[fa756ca6ad206b3ce3bc19c87737ddb8]
link Item to Auction--><path codeLine="53" d="M115.26,471.459 C96.1328,494.5567 69.0973,527.2032 51.0806,548.9592 " fill="none" id="Item-to-Auction" style="stroke:#A80036;stroke-width:1.0;"/><polygon fill="#A80036" points="47.8254,552.8901,56.6465,548.5097,51.0145,549.0392,50.485,543.4071,47.8254,552.8901" style="stroke:#A80036;stroke-width:1.0;"/><text fill="#000000" font-family="sans-serif" font-size="13" lengthAdjust="spacing" textLength="22" x="86" y="519.0669">win</text><!--MD5=[c5ba63197878f62e05ad5fc8ab44ccff]
@startuml
hide circle
class User<actor> {
	bidding
}
class Developer<actor> {
}
class Admin<actor> {
}
class User {
	return()
	participate()
	view()
	go()
	place()
	keep()
	visit()
}
class Auction {
}
class Item {
	user()
	win()
}
class Developer {
	provide()
	search()
	enable()
	pay()
	allow()
}
class LoginSystem {
}
class Source {
}
class Product {
	purchase()
}
class Track {
}
class Admin {
	maintain()
}
class Database {
}
User - -> Track : keep
User - -> Item : visit
Item - -> Source : user
Developer - -> User : allow
Developer - -> User : enable
Admin - -> Database : maintain
Developer - -> LoginSystem : provide
User - -> Auction : participate
Item - -> Auction : win
@enduml

PlantUML version 1.2021.10beta2(Unknown compile time)
(GPL source distribution)
Java Runtime: Java(TM) SE Runtime Environment
JVM: Java HotSpot(TM) 64-Bit Server VM
Default Encoding: UTF-8
Language: en
Country: US
--></g></svg>