<?xml version="1.0" encoding="UTF-8" standalone="no"?><svg xmlns="http://www.w3.org/2000/svg" xmlns:xlink="http://www.w3.org/1999/xlink" contentScriptType="application/ecmascript" contentStyleType="text/css" height="710px" preserveAspectRatio="none" style="width:976px;height:710px;background:#FFFFFF;" version="1.1" viewBox="0 0 976 710" width="976px" zoomAndPan="magnify"><defs><filter height="300%" id="f1fuqgoofoqoec" width="300%" x="-1" y="-1"><feGaussianBlur result="blurOut" stdDeviation="2.0"/><feColorMatrix in="blurOut" result="blurOut2" type="matrix" values="0 0 0 0 0 0 0 0 0 0 0 0 0 0 0 0 0 0 .4 0"/><feOffset dx="4.0" dy="4.0" in="blurOut2" result="blurOut3"/><feBlend in="SourceGraphic" in2="blurOut3" mode="normal"/></filter></defs><g><!--MD5=[d342058c8fb6f80e9d50d673c6908241]
class Developer--><rect codeLine="19" fill="#FEFECE" filter="url(#f1fuqgoofoqoec)" height="129.6016" id="Developer" style="stroke:#A80036;stroke-width:1.5;" width="105" x="232" y="320"/><text fill="#000000" font-family="sans-serif" font-size="12" lengthAdjust="spacing" textLength="64" x="235" y="336.1387">Developer</text><rect fill="#FFFFFF" height="15.9688" style="stroke:#000000;stroke-width:1.0;stroke-dasharray:2.0,2.0;" width="33" x="307" y="317"/><text fill="#000000" font-family="sans-serif" font-size="12" font-style="italic" lengthAdjust="spacing" textLength="31" x="308" y="329.1387">actor</text><line style="stroke:#A80036;stroke-width:1.5;" x1="233" x2="336" y1="343.9688" y2="343.9688"/><line style="stroke:#A80036;stroke-width:1.5;" x1="233" x2="336" y1="351.9688" y2="351.9688"/><text fill="#000000" font-family="sans-serif" font-size="11" lengthAdjust="spacing" textLength="48" x="238" y="366.1792">display()</text><text fill="#000000" font-family="sans-serif" font-size="11" lengthAdjust="spacing" textLength="47" x="238" y="378.9839">access()</text><text fill="#000000" font-family="sans-serif" font-size="11" lengthAdjust="spacing" textLength="38" x="238" y="391.7886">script()</text><text fill="#000000" font-family="sans-serif" font-size="11" lengthAdjust="spacing" textLength="45" x="238" y="404.5933">create()</text><text fill="#000000" font-family="sans-serif" font-size="11" lengthAdjust="spacing" textLength="34" x="238" y="417.3979">filter()</text><text fill="#000000" font-family="sans-serif" font-size="11" lengthAdjust="spacing" textLength="33" x="238" y="430.2026">map()</text><text fill="#000000" font-family="sans-serif" font-size="11" lengthAdjust="spacing" textLength="46" x="238" y="443.0073">design()</text><!--MD5=[3fd616f346a44cd59a91eb10b19e157c]
class User--><rect codeLine="45" fill="#FEFECE" filter="url(#f1fuqgoofoqoec)" height="78.3828" id="User" style="stroke:#A80036;stroke-width:1.5;" width="70" x="596.5" y="10"/><text fill="#000000" font-family="sans-serif" font-size="12" lengthAdjust="spacing" textLength="29" x="599.5" y="26.1387">User</text><rect fill="#FFFFFF" height="15.9688" style="stroke:#000000;stroke-width:1.0;stroke-dasharray:2.0,2.0;" width="33" x="636.5" y="7"/><text fill="#000000" font-family="sans-serif" font-size="12" font-style="italic" lengthAdjust="spacing" textLength="31" x="637.5" y="19.1387">actor</text><line style="stroke:#A80036;stroke-width:1.5;" x1="597.5" x2="665.5" y1="33.9688" y2="33.9688"/><line style="stroke:#A80036;stroke-width:1.5;" x1="597.5" x2="665.5" y1="41.9688" y2="41.9688"/><text fill="#000000" font-family="sans-serif" font-size="11" lengthAdjust="spacing" textLength="27" x="602.5" y="56.1792">get()</text><text fill="#000000" font-family="sans-serif" font-size="11" lengthAdjust="spacing" textLength="36" x="602.5" y="68.9839">input()</text><text fill="#000000" font-family="sans-serif" font-size="11" lengthAdjust="spacing" textLength="29" x="602.5" y="81.7886">find()</text><!--MD5=[e4d1f8ee945ed4d256b1e0ee32730ba8]
class VideoUser--><rect codeLine="12" fill="#FEFECE" filter="url(#f1fuqgoofoqoec)" height="78.3828" id="VideoUser" style="stroke:#A80036;stroke-width:1.5;" width="105" x="380" y="165"/><text fill="#000000" font-family="sans-serif" font-size="12" lengthAdjust="spacing" textLength="64" x="383" y="181.1387">VideoUser</text><rect fill="#FFFFFF" height="15.9688" style="stroke:#000000;stroke-width:1.0;stroke-dasharray:2.0,2.0;" width="33" x="455" y="162"/><text fill="#000000" font-family="sans-serif" font-size="12" font-style="italic" lengthAdjust="spacing" textLength="31" x="456" y="174.1387">actor</text><line style="stroke:#A80036;stroke-width:1.5;" x1="381" x2="484" y1="188.9688" y2="188.9688"/><line style="stroke:#A80036;stroke-width:1.5;" x1="381" x2="484" y1="196.9688" y2="196.9688"/><text fill="#000000" font-family="sans-serif" font-size="11" lengthAdjust="spacing" textLength="30" x="386" y="211.1792">see()</text><text fill="#000000" font-family="sans-serif" font-size="11" lengthAdjust="spacing" textLength="77" x="386" y="223.9839">recommend()</text><text fill="#000000" font-family="sans-serif" font-size="11" lengthAdjust="spacing" textLength="33" x="386" y="236.7886">user()</text><!--MD5=[e09c41c2f9238e7adb85a94dde2227e7]
class Size--><rect codeLine="8" fill="#FEFECE" filter="url(#f1fuqgoofoqoec)" height="39.9688" id="Size" style="stroke:#A80036;stroke-width:1.5;" width="32" x="248.5" y="657"/><text fill="#000000" font-family="sans-serif" font-size="12" lengthAdjust="spacing" textLength="26" x="251.5" y="673.1387">Size</text><line style="stroke:#A80036;stroke-width:1.5;" x1="249.5" x2="279.5" y1="680.9688" y2="680.9688"/><line style="stroke:#A80036;stroke-width:1.5;" x1="249.5" x2="279.5" y1="688.9688" y2="688.9688"/><!--MD5=[90111e5cdc788a7ef73a3273c23dcc2b]
class Title--><rect codeLine="10" fill="#FEFECE" filter="url(#f1fuqgoofoqoec)" height="39.9688" id="Title" style="stroke:#A80036;stroke-width:1.5;" width="31" x="620" y="365"/><text fill="#000000" font-family="sans-serif" font-size="12" lengthAdjust="spacing" textLength="25" x="623" y="381.1387">Title</text><line style="stroke:#A80036;stroke-width:1.5;" x1="621" x2="650" y1="388.9688" y2="388.9688"/><line style="stroke:#A80036;stroke-width:1.5;" x1="621" x2="650" y1="396.9688" y2="396.9688"/><!--MD5=[9d93cc8568a88ed605ddd50c0dd874e2]
class Media--><rect codeLine="17" fill="#FEFECE" filter="url(#f1fuqgoofoqoec)" height="39.9688" id="Media" style="stroke:#A80036;stroke-width:1.5;" width="42" x="492.5" y="365"/><text fill="#000000" font-family="sans-serif" font-size="12" lengthAdjust="spacing" textLength="36" x="495.5" y="381.1387">Media</text><line style="stroke:#A80036;stroke-width:1.5;" x1="493.5" x2="533.5" y1="388.9688" y2="388.9688"/><line style="stroke:#A80036;stroke-width:1.5;" x1="493.5" x2="533.5" y1="396.9688" y2="396.9688"/><!--MD5=[2741598bdf59a7d7e0d5c97658fd3022]
class Result--><rect codeLine="28" fill="#FEFECE" filter="url(#f1fuqgoofoqoec)" height="39.9688" id="Result" style="stroke:#A80036;stroke-width:1.5;" width="42" x="343.5" y="533.5"/><text fill="#000000" font-family="sans-serif" font-size="12" lengthAdjust="spacing" textLength="36" x="346.5" y="549.6387">Result</text><line style="stroke:#A80036;stroke-width:1.5;" x1="344.5" x2="384.5" y1="557.4688" y2="557.4688"/><line style="stroke:#A80036;stroke-width:1.5;" x1="344.5" x2="384.5" y1="565.4688" y2="565.4688"/><!--MD5=[48ddc19a927e510832be6e81b528f8f6]
class TwitterData--><rect codeLine="30" fill="#FEFECE" filter="url(#f1fuqgoofoqoec)" height="39.9688" id="TwitterData" style="stroke:#A80036;stroke-width:1.5;" width="74" x="379.5" y="365"/><text fill="#000000" font-family="sans-serif" font-size="12" lengthAdjust="spacing" textLength="68" x="382.5" y="381.1387">TwitterData</text><line style="stroke:#A80036;stroke-width:1.5;" x1="380.5" x2="452.5" y1="388.9688" y2="388.9688"/><line style="stroke:#A80036;stroke-width:1.5;" x1="380.5" x2="452.5" y1="396.9688" y2="396.9688"/><!--MD5=[e69084ab16b022bdbef99762ea85e9d6]
class Movie--><rect codeLine="32" fill="#FEFECE" filter="url(#f1fuqgoofoqoec)" height="52.7734" id="Movie" style="stroke:#A80036;stroke-width:1.5;" width="50" x="536.5" y="177.5"/><text fill="#000000" font-family="sans-serif" font-size="12" lengthAdjust="spacing" textLength="36" x="543.5" y="193.6387">Movie</text><line style="stroke:#A80036;stroke-width:1.5;" x1="537.5" x2="585.5" y1="201.4688" y2="201.4688"/><line style="stroke:#A80036;stroke-width:1.5;" x1="537.5" x2="585.5" y1="209.4688" y2="209.4688"/><text fill="#000000" font-family="sans-serif" font-size="11" lengthAdjust="spacing" textLength="38" x="542.5" y="223.6792">trend()</text><!--MD5=[60c9ed31c535bee25c55ce21b5b01399]
class Data--><rect codeLine="35" fill="#FEFECE" filter="url(#f1fuqgoofoqoec)" height="52.7734" id="Data" style="stroke:#A80036;stroke-width:1.5;" width="40" x="424.5" y="527"/><text fill="#000000" font-family="sans-serif" font-size="12" lengthAdjust="spacing" textLength="27" x="431" y="543.1387">Data</text><line style="stroke:#A80036;stroke-width:1.5;" x1="425.5" x2="463.5" y1="550.9688" y2="550.9688"/><line style="stroke:#A80036;stroke-width:1.5;" x1="425.5" x2="463.5" y1="558.9688" y2="558.9688"/><text fill="#000000" font-family="sans-serif" font-size="11" lengthAdjust="spacing" textLength="28" x="430.5" y="573.1792">pull()</text><!--MD5=[f3f8fdc802f51c4e105ff9b46824a596]
class BackendSystem--><rect codeLine="38" fill="#FEFECE" filter="url(#f1fuqgoofoqoec)" height="52.7734" id="BackendSystem" style="stroke:#A80036;stroke-width:1.5;" width="103" x="7" y="527"/><text fill="#000000" font-family="sans-serif" font-size="12" lengthAdjust="spacing" textLength="97" x="10" y="543.1387">BackendSystem</text><line style="stroke:#A80036;stroke-width:1.5;" x1="8" x2="109" y1="550.9688" y2="550.9688"/><line style="stroke:#A80036;stroke-width:1.5;" x1="8" x2="109" y1="558.9688" y2="558.9688"/><text fill="#000000" font-family="sans-serif" font-size="11" lengthAdjust="spacing" textLength="51" x="13" y="573.1792">provide()</text><!--MD5=[7923f0ef83cfa7fc76aa895bd44f4146]
class Api--><rect codeLine="41" fill="#FEFECE" filter="url(#f1fuqgoofoqoec)" height="39.9688" id="Api" style="stroke:#A80036;stroke-width:1.5;" width="25" x="46" y="657"/><text fill="#000000" font-family="sans-serif" font-size="12" lengthAdjust="spacing" textLength="19" x="49" y="673.1387">Api</text><line style="stroke:#A80036;stroke-width:1.5;" x1="47" x2="70" y1="680.9688" y2="680.9688"/><line style="stroke:#A80036;stroke-width:1.5;" x1="47" x2="70" y1="688.9688" y2="688.9688"/><!--MD5=[0b89d373aa748124267f386155d3b5a5]
class Hashtag--><rect codeLine="43" fill="#FEFECE" filter="url(#f1fuqgoofoqoec)" height="39.9688" id="Hashtag" style="stroke:#A80036;stroke-width:1.5;" width="55" x="253" y="533.5"/><text fill="#000000" font-family="sans-serif" font-size="12" lengthAdjust="spacing" textLength="49" x="256" y="549.6387">Hashtag</text><line style="stroke:#A80036;stroke-width:1.5;" x1="254" x2="307" y1="557.4688" y2="557.4688"/><line style="stroke:#A80036;stroke-width:1.5;" x1="254" x2="307" y1="565.4688" y2="565.4688"/><!--MD5=[c40581dce3a61b73d493470d15ee44f1]
class Tv--><rect codeLine="50" fill="#FEFECE" filter="url(#f1fuqgoofoqoec)" height="52.7734" id="Tv" style="stroke:#A80036;stroke-width:1.5;" width="49" x="702" y="22.5"/><text fill="#000000" font-family="sans-serif" font-size="12" lengthAdjust="spacing" textLength="14" x="719.5" y="38.6387">Tv</text><line style="stroke:#A80036;stroke-width:1.5;" x1="703" x2="750" y1="46.4688" y2="46.4688"/><line style="stroke:#A80036;stroke-width:1.5;" x1="703" x2="750" y1="54.4688" y2="54.4688"/><text fill="#000000" font-family="sans-serif" font-size="11" lengthAdjust="spacing" textLength="37" x="708" y="68.6792">show()</text><!--MD5=[88dbfe8572c16244f15eec58f6037418]
class Info--><rect codeLine="53" fill="#FEFECE" filter="url(#f1fuqgoofoqoec)" height="52.7734" id="Info" style="stroke:#A80036;stroke-width:1.5;" width="40" x="786.5" y="22.5"/><text fill="#000000" font-family="sans-serif" font-size="12" lengthAdjust="spacing" textLength="22" x="795.5" y="38.6387">Info</text><line style="stroke:#A80036;stroke-width:1.5;" x1="787.5" x2="825.5" y1="46.4688" y2="46.4688"/><line style="stroke:#A80036;stroke-width:1.5;" x1="787.5" x2="825.5" y1="54.4688" y2="54.4688"/><text fill="#000000" font-family="sans-serif" font-size="11" lengthAdjust="spacing" textLength="28" x="792.5" y="68.6792">pull()</text><!--MD5=[7449e65854233b27c3b0ddd3ff813187]
class Timestamp--><rect codeLine="56" fill="#FEFECE" filter="url(#f1fuqgoofoqoec)" height="52.7734" id="Timestamp" style="stroke:#A80036;stroke-width:1.5;" width="72" x="145.5" y="527"/><text fill="#000000" font-family="sans-serif" font-size="12" lengthAdjust="spacing" textLength="66" x="148.5" y="543.1387">Timestamp</text><line style="stroke:#A80036;stroke-width:1.5;" x1="146.5" x2="216.5" y1="550.9688" y2="550.9688"/><line style="stroke:#A80036;stroke-width:1.5;" x1="146.5" x2="216.5" y1="558.9688" y2="558.9688"/><text fill="#000000" font-family="sans-serif" font-size="11" lengthAdjust="spacing" textLength="48" x="151.5" y="573.1792">reduce()</text><!--MD5=[c26911398f42608bb90a3a3e804c0076]
class IMDB--><rect codeLine="59" fill="#FEFECE" filter="url(#f1fuqgoofoqoec)" height="39.9688" id="IMDB" style="stroke:#A80036;stroke-width:1.5;" width="36" x="861.5" y="29"/><text fill="#000000" font-family="sans-serif" font-size="12" lengthAdjust="spacing" textLength="30" x="864.5" y="45.1387">IMDB</text><line style="stroke:#A80036;stroke-width:1.5;" x1="862.5" x2="896.5" y1="52.9688" y2="52.9688"/><line style="stroke:#A80036;stroke-width:1.5;" x1="862.5" x2="896.5" y1="60.9688" y2="60.9688"/><!--MD5=[cbcccfbdcebfc29bde591b8ba10ece28]
class Respect--><rect codeLine="61" fill="#FEFECE" filter="url(#f1fuqgoofoqoec)" height="39.9688" id="Respect" style="stroke:#A80036;stroke-width:1.5;" width="55" x="852" y="184"/><text fill="#000000" font-family="sans-serif" font-size="12" lengthAdjust="spacing" textLength="49" x="855" y="200.1387">Respect</text><line style="stroke:#A80036;stroke-width:1.5;" x1="853" x2="906" y1="207.9688" y2="207.9688"/><line style="stroke:#A80036;stroke-width:1.5;" x1="853" x2="906" y1="215.9688" y2="215.9688"/><!--MD5=[87ad8874bf63d66d92b3c0ca1a67d581]
link Timestamp to Size--><path codeLine="63" d="M199.102,580.267 C213.674,601.5978 234.208,631.6575 248.361,652.3747 " fill="none" id="Timestamp-to-Size" style="stroke:#A80036;stroke-width:1.0;"/><polygon fill="#A80036" points="251.28,656.6472,249.5063,646.9594,248.4597,652.5186,242.9005,651.4719,251.28,656.6472" style="stroke:#A80036;stroke-width:1.0;"/><text fill="#000000" font-family="sans-serif" font-size="13" lengthAdjust="spacing" textLength="44" x="231.5" y="623.0669">reduce</text><!--MD5=[adf66082a9595fb39097941c81aff626]
link VideoUser to TwitterData--><path codeLine="64" d="M419.893,243.095 C417.246,252.744 414.848,263.163 413.5,273 C409.452,302.528 411.388,336.876 413.556,359.451 " fill="none" id="VideoUser-to-TwitterData" style="stroke:#A80036;stroke-width:1.0;"/><polygon fill="#A80036" points="414.079,364.646,417.1562,355.2902,413.5775,359.6712,409.1965,356.0926,414.079,364.646" style="stroke:#A80036;stroke-width:1.0;"/><text fill="#000000" font-family="sans-serif" font-size="13" lengthAdjust="spacing" textLength="28" x="414.5" y="286.0669">user</text><!--MD5=[798f7c510e47a485a685746a418bbc5c]
link VideoUser to Media--><path codeLine="65" d="M449.877,243.4 C465.938,278.894 489.296,330.512 502.788,360.328 " fill="none" id="VideoUser-to-Media" style="stroke:#A80036;stroke-width:1.0;"/><polygon fill="#A80036" points="504.866,364.921,504.7988,355.0724,502.8042,360.3659,497.5107,358.3713,504.866,364.921" style="stroke:#A80036;stroke-width:1.0;"/><text fill="#000000" font-family="sans-serif" font-size="13" lengthAdjust="spacing" textLength="28" x="472.5" y="286.0669">user</text><!--MD5=[0cc357295aadfaf8d2368c83f8928865]
reverse link Data to Size--><path codeLine="66" d="M413.118,575.683 C374.563,601.7077 310.606,644.8784 280.766,665.0202 " fill="none" id="Data-backto-Size" style="stroke:#A80036;stroke-width:1.0;"/><polygon fill="#FFFFFF" points="424.202,568.201,416.991,568.2421,414.2555,574.9142,421.4665,574.8731,424.202,568.201" style="stroke:#A80036;stroke-width:1.0;"/><!--MD5=[18a8aa700d840bd670d8869c8861b00e]
link Movie to Media--><path codeLine="67" d="M554.623,230.646 C545.371,265.149 529.035,326.067 519.987,359.808 " fill="none" id="Movie-to-Media" style="stroke:#A80036;stroke-width:1.0;"/><polygon fill="#A80036" points="518.6,364.982,524.7959,357.3262,519.8959,360.1528,517.0692,355.2528,518.6,364.982" style="stroke:#A80036;stroke-width:1.0;"/><text fill="#000000" font-family="sans-serif" font-size="13" lengthAdjust="spacing" textLength="34" x="544.5" y="286.0669">trend</text><!--MD5=[b2cf15df6d0d800ff60f97cab34c5ee0]
link Developer to BackendSystem--><path codeLine="68" d="M231.798,424.827 C190.813,455.022 134.861,496.243 97.7506,523.583 " fill="none" id="Developer-to-BackendSystem" style="stroke:#A80036;stroke-width:1.0;"/><polygon fill="#A80036" points="93.3206,526.847,102.9391,524.7294,97.3462,523.8814,98.1941,518.2885,93.3206,526.847" style="stroke:#A80036;stroke-width:1.0;"/><text fill="#000000" font-family="sans-serif" font-size="13" lengthAdjust="spacing" textLength="42" x="152.5" y="493.0669">design</text><!--MD5=[f7a0aaa3a6e2647bd345ca53d6081f20]
link IMDB to Respect--><path codeLine="69" d="M879.5,69.068 C879.5,96.784 879.5,148.2 879.5,178.63 " fill="none" id="IMDB-to-Respect" style="stroke:#A80036;stroke-width:1.0;"/><polygon fill="#A80036" points="879.5,183.691,883.5,174.691,879.5,178.691,875.5,174.691,879.5,183.691" style="stroke:#A80036;stroke-width:1.0;"/><text fill="#000000" font-family="sans-serif" font-size="13" lengthAdjust="spacing" textLength="88" x="880.5" y="131.0669">supported_by</text><!--MD5=[1ee2aacd52694472e1ec804961bea17d]
link Developer to Hashtag--><path codeLine="70" d="M278.481,450.236 C277.591,465.551 277.091,481.848 277.5,497 C277.775,507.173 278.332,518.384 278.893,528.051 " fill="none" id="Developer-to-Hashtag" style="stroke:#A80036;stroke-width:1.0;"/><polygon fill="#A80036" points="279.203,533.247,282.6585,524.0242,278.9044,528.2559,274.6727,524.5019,279.203,533.247" style="stroke:#A80036;stroke-width:1.0;"/><text fill="#000000" font-family="sans-serif" font-size="13" lengthAdjust="spacing" textLength="35" x="278.5" y="493.0669">script</text><!--MD5=[7e94c1e788100ffa562aa862b22a7904]
link User to Title--><path codeLine="71" d="M632.768,88.119 C633.052,97.86 633.321,108.317 633.5,118 C635.146,207.143 635.447,313.115 635.495,359.835 " fill="none" id="User-to-Title" style="stroke:#A80036;stroke-width:1.0;"/><polygon fill="#A80036" points="635.5,364.968,639.4897,355.9634,635.4943,359.968,631.4897,355.9726,635.5,364.968" style="stroke:#A80036;stroke-width:1.0;"/><text fill="#000000" font-family="sans-serif" font-size="13" lengthAdjust="spacing" textLength="32" x="636.5" y="208.5669">input</text><!--MD5=[449003eb1088381ff0c1f593ce792dc8]
link Developer to Result--><path codeLine="72" d="M315.43,450.373 C328.619,477.822 343.196,508.161 353.008,528.582 " fill="none" id="Developer-to-Result" style="stroke:#A80036;stroke-width:1.0;"/><polygon fill="#A80036" points="355.273,533.296,354.983,523.4514,353.1086,528.7887,347.7713,526.9144,355.273,533.296" style="stroke:#A80036;stroke-width:1.0;"/><text fill="#000000" font-family="sans-serif" font-size="13" lengthAdjust="spacing" textLength="45" x="337.5" y="493.0669">display</text><!--MD5=[0d5397961f71e6fa31c8351a30aa0029]
link User to Movie--><path codeLine="73" d="M614.017,88.214 C602.096,114.269 586.522,148.308 575.437,172.537 " fill="none" id="User-to-Movie" style="stroke:#A80036;stroke-width:1.0;"/><polygon fill="#A80036" points="573.282,177.247,580.6633,170.7265,575.3619,172.7001,573.3883,167.3987,573.282,177.247" style="stroke:#A80036;stroke-width:1.0;"/><text fill="#000000" font-family="sans-serif" font-size="13" lengthAdjust="spacing" textLength="24" x="600.5" y="131.0669">find</text><!--MD5=[164052c988a3c21ed4ca9b64cbd815b7]
reverse link Media to Data--><path codeLine="74" d="M511.396,418.48 C508.899,441.371 503.439,472.232 491.5,497 C484.921,510.649 474.183,523.697 464.63,533.708 " fill="none" id="Media-backto-Data" style="stroke:#A80036;stroke-width:1.0;"/><polygon fill="#FFFFFF" points="512.599,405.383,508.0672,410.9922,511.5019,417.3327,516.0337,411.7236,512.599,405.383" style="stroke:#A80036;stroke-width:1.0;"/><!--MD5=[4caf7d2653aeb743222e74bb2bbfc946]
link Developer to Data--><path codeLine="75" d="M337.233,428.314 C355.238,443.782 374.983,461.933 391.5,480 C403.608,493.244 415.542,509.234 425.01,522.823 " fill="none" id="Developer-to-Data" style="stroke:#A80036;stroke-width:1.0;"/><polygon fill="#A80036" points="427.867,526.958,426.0416,517.2798,425.0247,522.8445,419.46,521.8275,427.867,526.958" style="stroke:#A80036;stroke-width:1.0;"/><text fill="#000000" font-family="sans-serif" font-size="13" lengthAdjust="spacing" textLength="44" x="407.5" y="493.0669">access</text><!--MD5=[139df0c110c6276746a02f99529e11ff]
link BackendSystem to Api--><path codeLine="76" d="M58.5,580.267 C58.5,601.3301 58.5,630.9042 58.5,651.5902 " fill="none" id="BackendSystem-to-Api" style="stroke:#A80036;stroke-width:1.0;"/><polygon fill="#A80036" points="58.5,656.6472,62.5,647.6472,58.5,651.6472,54.5,647.6472,58.5,656.6472" style="stroke:#A80036;stroke-width:1.0;"/><text fill="#000000" font-family="sans-serif" font-size="13" lengthAdjust="spacing" textLength="48" x="59.5" y="623.0669">provide</text><!--MD5=[132b825696af99bc92bdb50e62537c43]
reverse link Movie to Title--><path codeLine="77" d="M577.231,243.052 C592.702,280.475 615.685,336.07 627.638,364.982 " fill="none" id="Movie-backto-Title" style="stroke:#A80036;stroke-width:1.0;"/><polygon fill="#FFFFFF" points="572.102,230.646,570.6979,237.7191,576.6868,241.7356,578.091,234.6625,572.102,230.646" style="stroke:#A80036;stroke-width:1.0;"/><!--MD5=[3a51808079adc6c61cba2f1ff5e7ac0b]
@startuml
hide circle
class Developer<actor> {
}
class User<actor> {
}
class VideoUser<actor> {
}
class Size {
}
class Title {
}
class VideoUser {
	see()
	recommend()
	user()
}
class Media {
}
class Developer {
	display()
	access()
	script()
	create()
	filter()
	map()
	design()
}
class Result {
}
class TwitterData {
}
class Movie {
	trend()
}
class Data {
	pull()
}
class BackendSystem {
	provide()
}
class Api {
}
class Hashtag {
}
class User {
	get()
	input()
	find()
}
class Tv {
	show()
}
class Info {
	pull()
}
class Timestamp {
	reduce()
}
class IMDB {
}
class Respect {
}
Timestamp - -> Size : reduce
VideoUser - -> TwitterData : user
VideoUser - -> Media : user
Data o- - Size
Movie - -> Media : trend
Developer - -> BackendSystem : design
IMDB - -> Respect : supported_by
Developer - -> Hashtag : script
User - -> Title : input
Developer - -> Result : display
User - -> Movie : find
Media o- - Data
Developer - -> Data : access
BackendSystem - -> Api : provide
Movie o- - Title
@enduml

PlantUML version 1.2021.10beta2(Unknown compile time)
(GPL source distribution)
Java Runtime: Java(TM) SE Runtime Environment
JVM: Java HotSpot(TM) 64-Bit Server VM
Default Encoding: UTF-8
Language: en
Country: US
--></g></svg>