<?xml version="1.0" encoding="UTF-8" standalone="no"?><svg xmlns="http://www.w3.org/2000/svg" xmlns:xlink="http://www.w3.org/1999/xlink" contentScriptType="application/ecmascript" contentStyleType="text/css" height="630px" preserveAspectRatio="none" style="width:2066px;height:630px;background:#FFFFFF;" version="1.1" viewBox="0 0 2066 630" width="2066px" zoomAndPan="magnify"><defs><filter height="300%" id="f1m8nlldav5xlz" width="300%" x="-1" y="-1"><feGaussianBlur result="blurOut" stdDeviation="2.0"/><feColorMatrix in="blurOut" result="blurOut2" type="matrix" values="0 0 0 0 0 0 0 0 0 0 0 0 0 0 0 0 0 0 .4 0"/><feOffset dx="4.0" dy="4.0" in="blurOut2" result="blurOut3"/><feBlend in="SourceGraphic" in2="blurOut3" mode="normal"/></filter></defs><g><!--MD5=[3fd616f346a44cd59a91eb10b19e157c]
class User--><rect codeLine="20" fill="#FEFECE" filter="url(#f1m8nlldav5xlz)" height="347.2813" id="User" style="stroke:#A80036;stroke-width:1.5;" width="111" x="848.5" y="10"/><text fill="#000000" font-family="sans-serif" font-size="12" lengthAdjust="spacing" textLength="29" x="872" y="26.1387">User</text><rect fill="#FFFFFF" height="15.9688" style="stroke:#000000;stroke-width:1.0;stroke-dasharray:2.0,2.0;" width="33" x="929.5" y="7"/><text fill="#000000" font-family="sans-serif" font-size="12" font-style="italic" lengthAdjust="spacing" textLength="31" x="930.5" y="19.1387">actor</text><line style="stroke:#A80036;stroke-width:1.5;" x1="849.5" x2="958.5" y1="33.9688" y2="33.9688"/><text fill="#000000" font-family="sans-serif" font-size="11" lengthAdjust="spacing" textLength="53" x="854.5" y="48.1792">password</text><text fill="#000000" font-family="sans-serif" font-size="11" lengthAdjust="spacing" textLength="36" x="854.5" y="60.9839">phone</text><text fill="#000000" font-family="sans-serif" font-size="11" lengthAdjust="spacing" textLength="99" x="854.5" y="73.7886">giftBuddyAccount</text><text fill="#000000" font-family="sans-serif" font-size="11" lengthAdjust="spacing" textLength="41" x="854.5" y="86.5933">contact</text><text fill="#000000" font-family="sans-serif" font-size="11" lengthAdjust="spacing" textLength="78" x="854.5" y="99.3979">emailAddress</text><text fill="#000000" font-family="sans-serif" font-size="11" lengthAdjust="spacing" textLength="97" x="854.5" y="112.2026">giftBuddyContact</text><line style="stroke:#A80036;stroke-width:1.5;" x1="849.5" x2="958.5" y1="118.7969" y2="118.7969"/><text fill="#000000" font-family="sans-serif" font-size="11" lengthAdjust="spacing" textLength="60" x="854.5" y="133.0073">purchase()</text><text fill="#000000" font-family="sans-serif" font-size="11" lengthAdjust="spacing" textLength="35" x="854.5" y="145.812">view()</text><text fill="#000000" font-family="sans-serif" font-size="11" lengthAdjust="spacing" textLength="36" x="854.5" y="158.6167">input()</text><text fill="#000000" font-family="sans-serif" font-size="11" lengthAdjust="spacing" textLength="46" x="854.5" y="171.4214">search()</text><text fill="#000000" font-family="sans-serif" font-size="11" lengthAdjust="spacing" textLength="42" x="854.5" y="184.2261">forget()</text><text fill="#000000" font-family="sans-serif" font-size="11" lengthAdjust="spacing" textLength="35" x="854.5" y="197.0308">login()</text><text fill="#000000" font-family="sans-serif" font-size="11" lengthAdjust="spacing" textLength="38" x="854.5" y="209.8354">reset()</text><text fill="#000000" font-family="sans-serif" font-size="11" lengthAdjust="spacing" textLength="51" x="854.5" y="222.6401">provide()</text><text fill="#000000" font-family="sans-serif" font-size="11" lengthAdjust="spacing" textLength="41" x="854.5" y="235.4448">install()</text><text fill="#000000" font-family="sans-serif" font-size="11" lengthAdjust="spacing" textLength="52" x="854.5" y="248.2495">receive()</text><text fill="#000000" font-family="sans-serif" font-size="11" lengthAdjust="spacing" textLength="36" x="854.5" y="261.0542">save()</text><text fill="#000000" font-family="sans-serif" font-size="11" lengthAdjust="spacing" textLength="45" x="854.5" y="273.8589">create()</text><text fill="#000000" font-family="sans-serif" font-size="11" lengthAdjust="spacing" textLength="53" x="854.5" y="286.6636">remove()</text><text fill="#000000" font-family="sans-serif" font-size="11" lengthAdjust="spacing" textLength="48" x="854.5" y="299.4683">update()</text><text fill="#000000" font-family="sans-serif" font-size="11" lengthAdjust="spacing" textLength="26" x="854.5" y="312.2729">set()</text><text fill="#000000" font-family="sans-serif" font-size="11" lengthAdjust="spacing" textLength="48" x="854.5" y="325.0776">discard()</text><text fill="#000000" font-family="sans-serif" font-size="11" lengthAdjust="spacing" textLength="39" x="854.5" y="337.8823">enter()</text><text fill="#000000" font-family="sans-serif" font-size="11" lengthAdjust="spacing" textLength="29" x="854.5" y="350.687">add()</text><!--MD5=[72ce1314beffbcf60a64ee91fbbc10dc]
class Contact--><rect codeLine="10" fill="#FEFECE" filter="url(#f1m8nlldav5xlz)" height="52.7734" id="Contact" style="stroke:#A80036;stroke-width:1.5;" width="76" x="7" y="440.5"/><text fill="#000000" font-family="sans-serif" font-size="12" lengthAdjust="spacing" textLength="45" x="22.5" y="456.6387">Contact</text><line style="stroke:#A80036;stroke-width:1.5;" x1="8" x2="82" y1="464.4688" y2="464.4688"/><text fill="#000000" font-family="sans-serif" font-size="11" lengthAdjust="spacing" textLength="64" x="13" y="478.6792">information</text><line style="stroke:#A80036;stroke-width:1.5;" x1="8" x2="82" y1="485.2734" y2="485.2734"/><!--MD5=[12f1018b57d69730cde1a61b197e051f]
class Buddy--><rect codeLine="13" fill="#FEFECE" filter="url(#f1m8nlldav5xlz)" height="39.9688" id="Buddy" style="stroke:#A80036;stroke-width:1.5;" width="44" x="547" y="577"/><text fill="#000000" font-family="sans-serif" font-size="12" lengthAdjust="spacing" textLength="38" x="550" y="593.1387">Buddy</text><line style="stroke:#A80036;stroke-width:1.5;" x1="548" x2="590" y1="600.9688" y2="600.9688"/><line style="stroke:#A80036;stroke-width:1.5;" x1="548" x2="590" y1="608.9688" y2="608.9688"/><!--MD5=[335f4d9be48430461c68bf6d6fdba145]
class App--><rect codeLine="15" fill="#FEFECE" filter="url(#f1m8nlldav5xlz)" height="52.7734" id="App" style="stroke:#A80036;stroke-width:1.5;" width="41" x="1999.5" y="440.5"/><text fill="#000000" font-family="sans-serif" font-size="12" lengthAdjust="spacing" textLength="24" x="2008" y="456.6387">App</text><line style="stroke:#A80036;stroke-width:1.5;" x1="2000.5" x2="2039.5" y1="464.4688" y2="464.4688"/><line style="stroke:#A80036;stroke-width:1.5;" x1="2000.5" x2="2039.5" y1="472.4688" y2="472.4688"/><text fill="#000000" font-family="sans-serif" font-size="11" lengthAdjust="spacing" textLength="29" x="2005.5" y="486.6792">use()</text><!--MD5=[6016c9c5425d34ae3d7a539916a91923]
class Recommendation--><rect codeLine="18" fill="#FEFECE" filter="url(#f1m8nlldav5xlz)" height="39.9688" id="Recommendation" style="stroke:#A80036;stroke-width:1.5;" width="110" x="250" y="577"/><text fill="#000000" font-family="sans-serif" font-size="12" lengthAdjust="spacing" textLength="104" x="253" y="593.1387">Recommendation</text><line style="stroke:#A80036;stroke-width:1.5;" x1="251" x2="359" y1="600.9688" y2="600.9688"/><line style="stroke:#A80036;stroke-width:1.5;" x1="251" x2="359" y1="608.9688" y2="608.9688"/><!--MD5=[e8dcfdde5c6ce5239f59acd294696d72]
class Case--><rect codeLine="40" fill="#FEFECE" filter="url(#f1m8nlldav5xlz)" height="39.9688" id="Case" style="stroke:#A80036;stroke-width:1.5;" width="36" x="252" y="447"/><text fill="#000000" font-family="sans-serif" font-size="12" lengthAdjust="spacing" textLength="30" x="255" y="463.1387">Case</text><line style="stroke:#A80036;stroke-width:1.5;" x1="253" x2="287" y1="470.9688" y2="470.9688"/><line style="stroke:#A80036;stroke-width:1.5;" x1="253" x2="287" y1="478.9688" y2="478.9688"/><!--MD5=[30fd7b95ab383a5e7c83ea23d4ea0fbf]
class Information--><rect codeLine="42" fill="#FEFECE" filter="url(#f1m8nlldav5xlz)" height="39.9688" id="Information" style="stroke:#A80036;stroke-width:1.5;" width="73" x="374.5" y="447"/><text fill="#000000" font-family="sans-serif" font-size="12" lengthAdjust="spacing" textLength="67" x="377.5" y="463.1387">Information</text><line style="stroke:#A80036;stroke-width:1.5;" x1="375.5" x2="446.5" y1="470.9688" y2="470.9688"/><line style="stroke:#A80036;stroke-width:1.5;" x1="375.5" x2="446.5" y1="478.9688" y2="478.9688"/><!--MD5=[2731afa3914a2f1855b4f1ebf120a43f]
class Gift--><rect codeLine="44" fill="#FEFECE" filter="url(#f1m8nlldav5xlz)" height="39.9688" id="Gift" style="stroke:#A80036;stroke-width:1.5;" width="26" x="556" y="447"/><text fill="#000000" font-family="sans-serif" font-size="12" lengthAdjust="spacing" textLength="20" x="559" y="463.1387">Gift</text><line style="stroke:#A80036;stroke-width:1.5;" x1="557" x2="581" y1="470.9688" y2="470.9688"/><line style="stroke:#A80036;stroke-width:1.5;" x1="557" x2="581" y1="478.9688" y2="478.9688"/><!--MD5=[f9a29335b499db729be669fd1bd54958]
class Account--><rect codeLine="46" fill="#FEFECE" filter="url(#f1m8nlldav5xlz)" height="39.9688" id="Account" style="stroke:#A80036;stroke-width:1.5;" width="54" x="1993" y="577"/><text fill="#000000" font-family="sans-serif" font-size="12" lengthAdjust="spacing" textLength="48" x="1996" y="593.1387">Account</text><line style="stroke:#A80036;stroke-width:1.5;" x1="1994" x2="2046" y1="600.9688" y2="600.9688"/><line style="stroke:#A80036;stroke-width:1.5;" x1="1994" x2="2046" y1="608.9688" y2="608.9688"/><!--MD5=[7829b64950ce38e0487c4015ea331f97]
class Date--><rect codeLine="48" fill="#FEFECE" filter="url(#f1m8nlldav5xlz)" height="52.7734" id="Date" style="stroke:#A80036;stroke-width:1.5;" width="46" x="754" y="440.5"/><text fill="#000000" font-family="sans-serif" font-size="12" lengthAdjust="spacing" textLength="28" x="763" y="456.6387">Date</text><line style="stroke:#A80036;stroke-width:1.5;" x1="755" x2="799" y1="464.4688" y2="464.4688"/><line style="stroke:#A80036;stroke-width:1.5;" x1="755" x2="799" y1="472.4688" y2="472.4688"/><text fill="#000000" font-family="sans-serif" font-size="11" lengthAdjust="spacing" textLength="34" x="760" y="486.6792">pass()</text><!--MD5=[03be55fb4aae919908819e432b9694ea]
class Phone--><rect codeLine="51" fill="#FEFECE" filter="url(#f1m8nlldav5xlz)" height="39.9688" id="Phone" style="stroke:#A80036;stroke-width:1.5;" width="42" x="835" y="447"/><text fill="#000000" font-family="sans-serif" font-size="12" lengthAdjust="spacing" textLength="36" x="838" y="463.1387">Phone</text><line style="stroke:#A80036;stroke-width:1.5;" x1="836" x2="876" y1="470.9688" y2="470.9688"/><line style="stroke:#A80036;stroke-width:1.5;" x1="836" x2="876" y1="478.9688" y2="478.9688"/><!--MD5=[2f01b1126ff33a0669651ec2488a5ef9]
class Password--><rect codeLine="53" fill="#FEFECE" filter="url(#f1m8nlldav5xlz)" height="65.5781" id="Password" style="stroke:#A80036;stroke-width:1.5;" width="64" x="912" y="434"/><text fill="#000000" font-family="sans-serif" font-size="12" lengthAdjust="spacing" textLength="58" x="915" y="450.1387">Password</text><line style="stroke:#A80036;stroke-width:1.5;" x1="913" x2="975" y1="457.9688" y2="457.9688"/><line style="stroke:#A80036;stroke-width:1.5;" x1="913" x2="975" y1="465.9688" y2="465.9688"/><text fill="#000000" font-family="sans-serif" font-size="11" lengthAdjust="spacing" textLength="29" x="918" y="480.1792">use()</text><text fill="#000000" font-family="sans-serif" font-size="11" lengthAdjust="spacing" textLength="41" x="918" y="492.9839">name()</text><!--MD5=[0b4e4b4980470ea387cc45de9bd14b5b]
class Application--><rect codeLine="57" fill="#FEFECE" filter="url(#f1m8nlldav5xlz)" height="39.9688" id="Application" style="stroke:#A80036;stroke-width:1.5;" width="72" x="1011" y="447"/><text fill="#000000" font-family="sans-serif" font-size="12" lengthAdjust="spacing" textLength="66" x="1014" y="463.1387">Application</text><line style="stroke:#A80036;stroke-width:1.5;" x1="1012" x2="1082" y1="470.9688" y2="470.9688"/><line style="stroke:#A80036;stroke-width:1.5;" x1="1012" x2="1082" y1="478.9688" y2="478.9688"/><!--MD5=[6a10e9b103e375a5f698786d329ce000]
class EmailAddress--><rect codeLine="59" fill="#FEFECE" filter="url(#f1m8nlldav5xlz)" height="39.9688" id="EmailAddress" style="stroke:#A80036;stroke-width:1.5;" width="88" x="900" y="577"/><text fill="#000000" font-family="sans-serif" font-size="12" lengthAdjust="spacing" textLength="82" x="903" y="593.1387">EmailAddress</text><line style="stroke:#A80036;stroke-width:1.5;" x1="901" x2="987" y1="600.9688" y2="600.9688"/><line style="stroke:#A80036;stroke-width:1.5;" x1="901" x2="987" y1="608.9688" y2="608.9688"/><!--MD5=[41314a0efc36828092cff9ebad2fcafd]
class Group--><rect codeLine="61" fill="#FEFECE" filter="url(#f1m8nlldav5xlz)" height="39.9688" id="Group" style="stroke:#A80036;stroke-width:1.5;" width="43" x="1118.5" y="447"/><text fill="#000000" font-family="sans-serif" font-size="12" lengthAdjust="spacing" textLength="37" x="1121.5" y="463.1387">Group</text><line style="stroke:#A80036;stroke-width:1.5;" x1="1119.5" x2="1160.5" y1="470.9688" y2="470.9688"/><line style="stroke:#A80036;stroke-width:1.5;" x1="1119.5" x2="1160.5" y1="478.9688" y2="478.9688"/><!--MD5=[6d5d4b87aae61dd247ee72d797bb930c]
class Interest--><rect codeLine="63" fill="#FEFECE" filter="url(#f1m8nlldav5xlz)" height="39.9688" id="Interest" style="stroke:#A80036;stroke-width:1.5;" width="52" x="1202" y="447"/><text fill="#000000" font-family="sans-serif" font-size="12" lengthAdjust="spacing" textLength="46" x="1205" y="463.1387">Interest</text><line style="stroke:#A80036;stroke-width:1.5;" x1="1203" x2="1253" y1="470.9688" y2="470.9688"/><line style="stroke:#A80036;stroke-width:1.5;" x1="1203" x2="1253" y1="478.9688" y2="478.9688"/><!--MD5=[1a502b0dbedafd291c48f46ef8646183]
class Feedback--><rect codeLine="65" fill="#FEFECE" filter="url(#f1m8nlldav5xlz)" height="39.9688" id="Feedback" style="stroke:#A80036;stroke-width:1.5;" width="66" x="1299" y="447"/><text fill="#000000" font-family="sans-serif" font-size="12" lengthAdjust="spacing" textLength="60" x="1302" y="463.1387">Feedback</text><line style="stroke:#A80036;stroke-width:1.5;" x1="1300" x2="1364" y1="470.9688" y2="470.9688"/><line style="stroke:#A80036;stroke-width:1.5;" x1="1300" x2="1364" y1="478.9688" y2="478.9688"/><!--MD5=[c0f7ef69a41a7152a3543feb3e336d86]
class Budget--><rect codeLine="67" fill="#FEFECE" filter="url(#f1m8nlldav5xlz)" height="39.9688" id="Budget" style="stroke:#A80036;stroke-width:1.5;" width="49" x="1400.5" y="447"/><text fill="#000000" font-family="sans-serif" font-size="12" lengthAdjust="spacing" textLength="43" x="1403.5" y="463.1387">Budget</text><line style="stroke:#A80036;stroke-width:1.5;" x1="1401.5" x2="1448.5" y1="470.9688" y2="470.9688"/><line style="stroke:#A80036;stroke-width:1.5;" x1="1401.5" x2="1448.5" y1="478.9688" y2="478.9688"/><!--MD5=[76b5e19c9337179d2d7ae334371d68c8]
class Notification--><rect codeLine="69" fill="#FEFECE" filter="url(#f1m8nlldav5xlz)" height="39.9688" id="Notification" style="stroke:#A80036;stroke-width:1.5;" width="72" x="1485" y="447"/><text fill="#000000" font-family="sans-serif" font-size="12" lengthAdjust="spacing" textLength="66" x="1488" y="463.1387">Notification</text><line style="stroke:#A80036;stroke-width:1.5;" x1="1486" x2="1556" y1="470.9688" y2="470.9688"/><line style="stroke:#A80036;stroke-width:1.5;" x1="1486" x2="1556" y1="478.9688" y2="478.9688"/><!--MD5=[d93dddc7538c130e8ed23df1a5b1a611]
class GiftBuddyAccount--><rect codeLine="71" fill="#FEFECE" filter="url(#f1m8nlldav5xlz)" height="39.9688" id="GiftBuddyAccount" style="stroke:#A80036;stroke-width:1.5;" width="112" x="1592" y="447"/><text fill="#000000" font-family="sans-serif" font-size="12" lengthAdjust="spacing" textLength="106" x="1595" y="463.1387">GiftBuddyAccount</text><line style="stroke:#A80036;stroke-width:1.5;" x1="1593" x2="1703" y1="470.9688" y2="470.9688"/><line style="stroke:#A80036;stroke-width:1.5;" x1="1593" x2="1703" y1="478.9688" y2="478.9688"/><!--MD5=[4d51c1c38d44c3b1ba1609bd7daa97a5]
class GiftBuddyContact--><rect codeLine="73" fill="#FEFECE" filter="url(#f1m8nlldav5xlz)" height="39.9688" id="GiftBuddyContact" style="stroke:#A80036;stroke-width:1.5;" width="109" x="1739.5" y="447"/><text fill="#000000" font-family="sans-serif" font-size="12" lengthAdjust="spacing" textLength="103" x="1742.5" y="463.1387">GiftBuddyContact</text><line style="stroke:#A80036;stroke-width:1.5;" x1="1740.5" x2="1847.5" y1="470.9688" y2="470.9688"/><line style="stroke:#A80036;stroke-width:1.5;" x1="1740.5" x2="1847.5" y1="478.9688" y2="478.9688"/><!--MD5=[117fd80234530d4b6c9f28dff4f7f58d]
class GiftBuddy--><rect codeLine="75" fill="#FEFECE" filter="url(#f1m8nlldav5xlz)" height="39.9688" id="GiftBuddy" style="stroke:#A80036;stroke-width:1.5;" width="64" x="1988" y="163.5"/><text fill="#000000" font-family="sans-serif" font-size="12" lengthAdjust="spacing" textLength="58" x="1991" y="179.6387">GiftBuddy</text><line style="stroke:#A80036;stroke-width:1.5;" x1="1989" x2="2051" y1="187.4688" y2="187.4688"/><line style="stroke:#A80036;stroke-width:1.5;" x1="1989" x2="2051" y1="195.4688" y2="195.4688"/><!--MD5=[b07065dfc0d0e09965ec10bfc328bb3e]
class Option--><rect codeLine="77" fill="#FEFECE" filter="url(#f1m8nlldav5xlz)" height="39.9688" id="Option" style="stroke:#A80036;stroke-width:1.5;" width="46" x="1884" y="447"/><text fill="#000000" font-family="sans-serif" font-size="12" lengthAdjust="spacing" textLength="40" x="1887" y="463.1387">Option</text><line style="stroke:#A80036;stroke-width:1.5;" x1="1885" x2="1929" y1="470.9688" y2="470.9688"/><line style="stroke:#A80036;stroke-width:1.5;" x1="1885" x2="1929" y1="478.9688" y2="478.9688"/><!--MD5=[db13520bc643fc154ff6c39302083a7f]
link User to Case--><path codeLine="79" d="M848.327,192.108 C697.423,213.983 286.608,282.261 208,387 C190.266,410.629 223.174,437.59 247.452,453.119 " fill="none" id="User-to-Case" style="stroke:#A80036;stroke-width:1.0;"/><polygon fill="#A80036" points="251.871,455.883,246.3622,447.7188,247.6321,453.2313,242.1196,454.5012,251.871,455.883" style="stroke:#A80036;stroke-width:1.0;"/><text fill="#000000" font-family="sans-serif" font-size="13" lengthAdjust="spacing" textLength="33" x="209" y="400.0669">reset</text><!--MD5=[db13520bc643fc154ff6c39302083a7f]
link User to Case--><path codeLine="98" d="M848.18,189.737 C734.366,203.104 472.623,247.92 311,387 C294.191,401.464 283.344,424.537 277.056,442.022 " fill="none" id="User-to-Case-1" style="stroke:#A80036;stroke-width:1.0;"/><polygon fill="#A80036" points="275.402,446.794,282.1284,439.5999,277.0392,442.0696,274.5694,436.9804,275.402,446.794" style="stroke:#A80036;stroke-width:1.0;"/><text fill="#000000" font-family="sans-serif" font-size="13" lengthAdjust="spacing" textLength="39" x="312" y="400.0669">forget</text><!--MD5=[3fb9f36749efaad5ac659bca00479233]
link User to Interest--><path codeLine="80" d="M959.673,230.439 C1008.51,271.028 1081.17,332.129 1143,387 C1164.01,405.649 1187.36,427.423 1204.25,443.383 " fill="none" id="User-to-Interest" style="stroke:#A80036;stroke-width:1.0;"/><polygon fill="#A80036" points="1207.97,446.901,1204.1701,437.8147,1204.3337,443.4692,1198.6792,443.6328,1207.97,446.901" style="stroke:#A80036;stroke-width:1.0;"/><text fill="#000000" font-family="sans-serif" font-size="13" lengthAdjust="spacing" textLength="32" x="1161" y="400.0669">input</text><!--MD5=[3fb9f36749efaad5ac659bca00479233]
link User to Interest--><path codeLine="102" d="M959.741,208.539 C1026.61,240.109 1137.71,301.713 1202,387 C1214.13,403.092 1220.76,425.117 1224.28,441.824 " fill="none" id="User-to-Interest-1" style="stroke:#A80036;stroke-width:1.0;"/><polygon fill="#A80036" points="1225.28,446.826,1227.4454,437.2181,1224.3035,441.9223,1219.5994,438.7805,1225.28,446.826" style="stroke:#A80036;stroke-width:1.0;"/><text fill="#000000" font-family="sans-serif" font-size="13" lengthAdjust="spacing" textLength="34" x="1213" y="400.0669">enter</text><!--MD5=[0b4e2c718629370d1e9c638e0503ce68]
link User to Date--><path codeLine="81" d="M848.481,307.56 C827.193,354.745 804.69,404.625 790.745,435.533 " fill="none" id="User-to-Date" style="stroke:#A80036;stroke-width:1.0;"/><polygon fill="#A80036" points="788.582,440.327,795.9282,433.767,790.6374,435.769,788.6354,430.4783,788.582,440.327" style="stroke:#A80036;stroke-width:1.0;"/><text fill="#000000" font-family="sans-serif" font-size="13" lengthAdjust="spacing" textLength="34" x="813" y="400.0669">enter</text><!--MD5=[2ef78c2f404252c43e470668bf807ab6]
link App to Account--><path codeLine="82" d="M2020,493.595 C2020,516.289 2020,549.2065 2020,571.5484 " fill="none" id="App-to-Account" style="stroke:#A80036;stroke-width:1.0;"/><polygon fill="#A80036" points="2020,576.7072,2024,567.7072,2020,571.7072,2016,567.7072,2020,576.7072" style="stroke:#A80036;stroke-width:1.0;"/><text fill="#000000" font-family="sans-serif" font-size="13" lengthAdjust="spacing" textLength="23" x="2021" y="543.0669">use</text><!--MD5=[7b2c278a21fda8d0a0b9087fe93111db]
link User to Budget--><path codeLine="83" d="M959.635,205.17 C1043.91,237.689 1207.4,305.56 1333,387 C1358.29,403.399 1384.07,426.165 1401.88,443.046 " fill="none" id="User-to-Budget" style="stroke:#A80036;stroke-width:1.0;"/><polygon fill="#A80036" points="1405.78,446.77,1402.0393,437.6592,1402.1661,443.3146,1396.5107,443.4414,1405.78,446.77" style="stroke:#A80036;stroke-width:1.0;"/><text fill="#000000" font-family="sans-serif" font-size="13" lengthAdjust="spacing" textLength="20" x="1356" y="400.0669">set</text><!--MD5=[230d2250dd088f95bd28c8224becb2ce]
link User to Recommendation--><path codeLine="84" d="M848.424,192.881 C697.617,216.739 285.912,289.631 195,387 C160.592,423.852 163.159,454.558 185,500 C200.797,532.8685 233.936,558.0061 261.393,574.2979 " fill="none" id="User-to-Recommendation" style="stroke:#A80036;stroke-width:1.0;"/><polygon fill="#A80036" points="265.748,576.8366,259.9878,568.8478,261.4286,574.3181,255.9583,575.7589,265.748,576.8366" style="stroke:#A80036;stroke-width:1.0;"/><text fill="#000000" font-family="sans-serif" font-size="13" lengthAdjust="spacing" textLength="47" x="186" y="471.5669">receive</text><!--MD5=[787b9acce24cbb7de0761e46390aefb9]
reverse link User to Phone--><path codeLine="85" d="M872.328,370.244 C867.002,401.477 862.24,429.406 859.252,446.928 " fill="none" id="User-backto-Phone" style="stroke:#A80036;stroke-width:1.0;"/><polygon fill="#FFFFFF" points="874.558,357.165,869.6061,362.407,872.5403,368.9942,877.4922,363.7521,874.558,357.165" style="stroke:#A80036;stroke-width:1.0;"/><text fill="#000000" font-family="sans-serif" font-size="13" lengthAdjust="spacing" textLength="37" x="870" y="400.0669">install</text><!--MD5=[2e2e530a658308b38e0151c4d25adf6b]
link User to Notification--><path codeLine="86" d="M959.804,205.435 C1050.47,240.015 1234.76,312.665 1385,387 C1420.4,404.514 1459.21,427.454 1486.28,444.099 " fill="none" id="User-to-Notification" style="stroke:#A80036;stroke-width:1.0;"/><polygon fill="#A80036" points="1490.85,446.923,1485.2948,438.7903,1486.596,444.2955,1481.0909,445.5967,1490.85,446.923" style="stroke:#A80036;stroke-width:1.0;"/><text fill="#000000" font-family="sans-serif" font-size="13" lengthAdjust="spacing" textLength="47" x="1417" y="400.0669">receive</text><!--MD5=[bf6920a7c0d430d525e3e458e95f72ca]
reverse link User to Password--><path codeLine="87" d="M930.372,370.093 C933.84,394.499 937.023,416.897 939.439,433.899 " fill="none" id="User-backto-Password" style="stroke:#A80036;stroke-width:1.0;"/><polygon fill="#FFFFFF" points="928.535,357.165,925.4194,363.6683,930.2241,369.0455,933.3397,362.5422,928.535,357.165" style="stroke:#A80036;stroke-width:1.0;"/><text fill="#000000" font-family="sans-serif" font-size="13" lengthAdjust="spacing" textLength="33" x="936" y="400.0669">reset</text><!--MD5=[dd9b2d51664e982e6f3a038c80394cfd]
reverse link User to GiftBuddyAccount--><path codeLine="88" d="M972.472,206.842 C1080.03,242.392 1294.73,315.18 1473,387 C1520,405.934 1572.88,430.234 1608.09,446.854 " fill="none" id="User-backto-GiftBuddyAccount" style="stroke:#A80036;stroke-width:1.0;"/><polygon fill="#FFFFFF" points="959.895,202.694,964.3404,208.3719,971.2913,206.4523,966.8459,200.7744,959.895,202.694" style="stroke:#A80036;stroke-width:1.0;"/><text fill="#000000" font-family="sans-serif" font-size="13" lengthAdjust="spacing" textLength="41" x="1513" y="400.0669">create</text><!--MD5=[d42757d650b5fb8b47ce61f89ed387a7]
reverse link User to Gift--><path codeLine="89" d="M835.667,198.326 C745.684,220.606 590.946,273.94 523,387 C508.121,411.758 537.648,441.242 555.961,456.219 " fill="none" id="User-backto-Gift" style="stroke:#A80036;stroke-width:1.0;"/><polygon fill="#FFFFFF" points="848.455,195.261,841.6879,192.7697,836.7855,198.058,843.5526,200.5493,848.455,195.261" style="stroke:#A80036;stroke-width:1.0;"/><text fill="#000000" font-family="sans-serif" font-size="13" lengthAdjust="spacing" textLength="30" x="524" y="400.0669">view</text><!--MD5=[d42757d650b5fb8b47ce61f89ed387a7]
reverse link User to Gift--><path codeLine="94" d="M836.133,212.574 C766.144,244.83 658.523,304.183 595,387 C581.467,404.644 574.807,429.648 571.648,446.772 " fill="none" id="User-backto-Gift-1" style="stroke:#A80036;stroke-width:1.0;"/><polygon fill="#FFFFFF" points="848.315,207.058,841.1994,205.8885,837.3831,212.007,844.4987,213.1765,848.315,207.058" style="stroke:#A80036;stroke-width:1.0;"/><text fill="#000000" font-family="sans-serif" font-size="13" lengthAdjust="spacing" textLength="59" x="596" y="400.0669">purchase</text><!--MD5=[d42757d650b5fb8b47ce61f89ed387a7]
reverse link User to Gift--><path codeLine="103" d="M838.581,247.756 C790.614,293.028 723.115,354.474 660,404 C633.38,424.888 600.069,446.531 582.044,457.899 " fill="none" id="User-backto-Gift-2" style="stroke:#A80036;stroke-width:1.0;"/><polygon fill="#FFFFFF" points="848.21,238.638,841.103,239.8588,839.4965,246.8887,846.6035,245.6679,848.21,238.638" style="stroke:#A80036;stroke-width:1.0;"/><text fill="#000000" font-family="sans-serif" font-size="13" lengthAdjust="spacing" textLength="48" x="682" y="400.0669">provide</text><!--MD5=[9d661380b54d9bff4ee137bc0bb1b8a2]
link User to Information--><path codeLine="90" d="M848.209,186.025 C734.248,192.522 476.065,225.29 364,387 C351.323,405.292 366.405,427.098 382.764,443.161 " fill="none" id="User-to-Information" style="stroke:#A80036;stroke-width:1.0;"/><polygon fill="#A80036" points="386.486,446.703,382.725,437.6006,382.8644,443.2557,377.2093,443.3951,386.486,446.703" style="stroke:#A80036;stroke-width:1.0;"/><text fill="#000000" font-family="sans-serif" font-size="13" lengthAdjust="spacing" textLength="45" x="365" y="400.0669">update</text><!--MD5=[9d661380b54d9bff4ee137bc0bb1b8a2]
link User to Information--><path codeLine="106" d="M848.328,202.599 C763.053,232.091 597.531,296.449 479,387 C458.452,402.698 439.657,425.484 427.06,442.555 " fill="none" id="User-to-Information-1" style="stroke:#A80036;stroke-width:1.0;"/><polygon fill="#A80036" points="423.993,446.764,432.5255,441.8451,426.9372,442.7227,426.0595,437.1344,423.993,446.764" style="stroke:#A80036;stroke-width:1.0;"/><text fill="#000000" font-family="sans-serif" font-size="13" lengthAdjust="spacing" textLength="30" x="480" y="400.0669">view</text><!--MD5=[e6ffa491a986f65065536e29ba062891]
reverse link User to GiftBuddyContact--><path codeLine="91" d="M972.405,202.478 C1113.88,240.297 1448.24,332.962 1721,434 C1731.38,437.845 1742.4,442.412 1752.65,446.875 " fill="none" id="User-backto-GiftBuddyContact" style="stroke:#A80036;stroke-width:1.0;"/><polygon fill="#FFFFFF" points="959.726,199.098,964.4926,204.509,971.3208,202.1902,966.5541,196.7792,959.726,199.098" style="stroke:#A80036;stroke-width:1.0;"/><text fill="#000000" font-family="sans-serif" font-size="13" lengthAdjust="spacing" textLength="20" x="1635" y="400.0669">set</text><!--MD5=[daec92e43429dc276e8b6561a6cfcb69]
reverse link GiftBuddy to App--><path codeLine="92" d="M2020,216.854 C2020,273.295 2020,388.638 2020,440.151 " fill="none" id="GiftBuddy-backto-App" style="stroke:#A80036;stroke-width:1.0;"/><polygon fill="#FFFFFF" points="2020,203.849,2016,209.849,2020,215.849,2024,209.849,2020,203.849" style="stroke:#A80036;stroke-width:1.0;"/><!--MD5=[4981c864524f50ab1b82211e3369f909]
link User to Application--><path codeLine="93" d="M959.697,294.141 C987.353,348.583 1018.33,409.561 1034.93,442.243 " fill="none" id="User-to-Application" style="stroke:#A80036;stroke-width:1.0;"/><polygon fill="#A80036" points="1037.27,446.855,1036.7599,437.0194,1035.0054,442.3972,1029.6275,440.6427,1037.27,446.855" style="stroke:#A80036;stroke-width:1.0;"/><text fill="#000000" font-family="sans-serif" font-size="13" lengthAdjust="spacing" textLength="37" x="1014" y="400.0669">install</text><!--MD5=[5e599d181d0e76bbb7dd3d7ff43f65ce]
reverse link Gift to Buddy--><path codeLine="95" d="M569,500.269 C569,524.3606 569,556.4829 569,576.7061 " fill="none" id="Gift-backto-Buddy" style="stroke:#A80036;stroke-width:1.0;"/><polygon fill="#FFFFFF" points="569,487.163,565,493.163,569,499.163,573,493.163,569,487.163" style="stroke:#A80036;stroke-width:1.0;"/><!--MD5=[e1411bccd5312581d205a1bc169d22c5]
link Password to EmailAddress--><path codeLine="96" d="M944,500.3 C944,522.463 944,551.4116 944,571.6422 " fill="none" id="Password-to-EmailAddress" style="stroke:#A80036;stroke-width:1.0;"/><polygon fill="#A80036" points="944,576.8458,948,567.8458,944,571.8458,940,567.8458,944,576.8458" style="stroke:#A80036;stroke-width:1.0;"/><text fill="#000000" font-family="sans-serif" font-size="13" lengthAdjust="spacing" textLength="23" x="945" y="543.0669">use</text><!--MD5=[d2ae6c44145a7092de8ac1c3bb925686]
reverse link Gift to Recommendation--><path codeLine="97" d="M544.171,480.038 C498.185,502.334 399.438,550.2119 344.292,576.9494 " fill="none" id="Gift-backto-Recommendation" style="stroke:#A80036;stroke-width:1.0;"/><polygon fill="#FFFFFF" points="555.908,474.348,548.764,473.3664,545.1103,479.5833,552.2542,480.5649,555.908,474.348" style="stroke:#A80036;stroke-width:1.0;"/><!--MD5=[2bf7f2e632c4928a1cc79bea667804f9]
reverse link User to Contact--><path codeLine="99" d="M835.486,192.973 C658.075,216.165 189.547,285.777 75,387 C59.609,400.601 52.0797,422.952 48.4165,440.416 " fill="none" id="User-backto-Contact" style="stroke:#A80036;stroke-width:1.0;"/><polygon fill="#FFFFFF" points="848.498,191.287,842.0335,188.0917,836.5976,192.8299,843.0621,196.0253,848.498,191.287" style="stroke:#A80036;stroke-width:1.0;"/><text fill="#000000" font-family="sans-serif" font-size="13" lengthAdjust="spacing" textLength="50" x="76" y="400.0669">remove</text><!--MD5=[2d3d24ce923cffcb9d23da37a39a64b9]
link User to Option--><path codeLine="100" d="M959.654,190.884 C1111.8,209.992 1544.72,275.525 1866,434 C1871.44,436.684 1876.85,440.163 1881.87,443.835 " fill="none" id="User-to-Option" style="stroke:#A80036;stroke-width:1.0;"/><polygon fill="#A80036" points="1885.99,446.952,1881.2441,438.322,1882.0089,443.9269,1876.404,444.6918,1885.99,446.952" style="stroke:#A80036;stroke-width:1.0;"/><text fill="#000000" font-family="sans-serif" font-size="13" lengthAdjust="spacing" textLength="88" x="1795" y="400.0669">supported_by</text><!--MD5=[67141e6eb3ba199f7c4756941637724e]
link User to Group--><path codeLine="101" d="M959.63,250.855 C1011.51,312.74 1085.97,401.55 1120.74,443.025 " fill="none" id="User-to-Group" style="stroke:#A80036;stroke-width:1.0;"/><polygon fill="#A80036" points="1123.98,446.889,1121.2781,437.418,1120.7738,443.0523,1115.1394,442.548,1123.98,446.889" style="stroke:#A80036;stroke-width:1.0;"/><text fill="#000000" font-family="sans-serif" font-size="13" lengthAdjust="spacing" textLength="50" x="1084" y="400.0669">remove</text><!--MD5=[993a1ed30139d6bc9fd462e29443e622]
link User to User--><path codeLine="104" d="M959.676,143.76 C978.942,143.339 994.5,156.586 994.5,183.5 C994.5,207.891 981.722,221.057 964.987,222.998 " fill="none" id="User-to-User" style="stroke:#A80036;stroke-width:1.0;"/><polygon fill="#A80036" points="959.676,223.24,968.8494,226.8245,964.6708,223.0115,968.4838,218.8328,959.676,223.24" style="stroke:#A80036;stroke-width:1.0;"/><text fill="#000000" font-family="sans-serif" font-size="13" lengthAdjust="spacing" textLength="30" x="1000.5" y="188.0669">view</text><!--MD5=[f3af3e4376504b99e4d7659058753524]
link User to Feedback--><path codeLine="105" d="M959.77,210.418 C1031.83,245.247 1159.48,311.566 1256,387 C1277.29,403.638 1298.34,426.118 1312.87,442.844 " fill="none" id="User-to-Feedback" style="stroke:#A80036;stroke-width:1.0;"/><polygon fill="#A80036" points="1316.42,446.965,1313.5742,437.5363,1313.1557,443.1776,1307.5143,442.7591,1316.42,446.965" style="stroke:#A80036;stroke-width:1.0;"/><text fill="#000000" font-family="sans-serif" font-size="13" lengthAdjust="spacing" textLength="48" x="1276" y="400.0669">provide</text><!--MD5=[6d7afb8735144a050dea33d53a7ae2a3]
@startuml
hide circle
class User<actor> {
	password
	phone
	giftBuddyAccount
	contact
	emailAddress
	giftBuddyContact
}
class Contact {
	information
}
class Buddy {
}
class App {
	use()
}
class Recommendation {
}
class User {
	purchase()
	view()
	input()
	search()
	forget()
	login()
	reset()
	provide()
	install()
	receive()
	save()
	create()
	remove()
	update()
	set()
	discard()
	enter()
	add()
}
class Case {
}
class Information {
}
class Gift {
}
class Account {
}
class Date {
	pass()
}
class Phone {
}
class Password {
	use()
	name()
}
class Application {
}
class EmailAddress {
}
class Group {
}
class Interest {
}
class Feedback {
}
class Budget {
}
class Notification {
}
class GiftBuddyAccount {
}
class GiftBuddyContact {
}
class GiftBuddy {
}
class Option {
}
User - -> Case : reset
User - -> Interest : input
User - -> Date : enter
App - -> Account : use
User - -> Budget : set
User - -> Recommendation : receive
User o- - Phone : install
User - -> Notification : receive
User o- - Password : reset
User o- - GiftBuddyAccount : create
User o- - Gift : view
User - -> Information : update
User o- - GiftBuddyContact : set
GiftBuddy o- - App
User - -> Application : install
User o- - Gift : purchase
Gift o- - Buddy
Password - -> EmailAddress : use
Gift o- - Recommendation
User - -> Case : forget
User o- - Contact : remove
User - -> Option : supported_by
User - -> Group : remove
User - -> Interest : enter
User o- - Gift : provide
User - -> User : view
User - -> Feedback : provide
User - -> Information : view
@enduml

PlantUML version 1.2021.10beta2(Unknown compile time)
(GPL source distribution)
Java Runtime: Java(TM) SE Runtime Environment
JVM: Java HotSpot(TM) 64-Bit Server VM
Default Encoding: UTF-8
Language: en
Country: US
--></g></svg>