<?xml version="1.0" encoding="UTF-8" standalone="no"?><svg xmlns="http://www.w3.org/2000/svg" xmlns:xlink="http://www.w3.org/1999/xlink" contentScriptType="application/ecmascript" contentStyleType="text/css" height="643px" preserveAspectRatio="none" style="width:1988px;height:643px;background:#FFFFFF;" version="1.1" viewBox="0 0 1988 643" width="1988px" zoomAndPan="magnify"><defs><filter height="300%" id="f8vnbsasuq9k9" width="300%" x="-1" y="-1"><feGaussianBlur result="blurOut" stdDeviation="2.0"/><feColorMatrix in="blurOut" result="blurOut2" type="matrix" values="0 0 0 0 0 0 0 0 0 0 0 0 0 0 0 0 0 0 .4 0"/><feOffset dx="4.0" dy="4.0" in="blurOut2" result="blurOut3"/><feBlend in="SourceGraphic" in2="blurOut3" mode="normal"/></filter></defs><g><!--MD5=[3fd616f346a44cd59a91eb10b19e157c]
class User--><rect codeLine="17" fill="#FEFECE" filter="url(#f8vnbsasuq9k9)" height="360.0859" id="User" style="stroke:#A80036;stroke-width:1.5;" width="111" x="763.5" y="10"/><text fill="#000000" font-family="sans-serif" font-size="12" lengthAdjust="spacing" textLength="29" x="787" y="26.1387">User</text><rect fill="#FFFFFF" height="15.9688" style="stroke:#000000;stroke-width:1.0;stroke-dasharray:2.0,2.0;" width="33" x="844.5" y="7"/><text fill="#000000" font-family="sans-serif" font-size="12" font-style="italic" lengthAdjust="spacing" textLength="31" x="845.5" y="19.1387">actor</text><line style="stroke:#A80036;stroke-width:1.5;" x1="764.5" x2="873.5" y1="33.9688" y2="33.9688"/><text fill="#000000" font-family="sans-serif" font-size="11" lengthAdjust="spacing" textLength="78" x="769.5" y="48.1792">emailAddress</text><text fill="#000000" font-family="sans-serif" font-size="11" lengthAdjust="spacing" textLength="41" x="769.5" y="60.9839">contact</text><text fill="#000000" font-family="sans-serif" font-size="11" lengthAdjust="spacing" textLength="99" x="769.5" y="73.7886">giftBuddyAccount</text><text fill="#000000" font-family="sans-serif" font-size="11" lengthAdjust="spacing" textLength="36" x="769.5" y="86.5933">phone</text><text fill="#000000" font-family="sans-serif" font-size="11" lengthAdjust="spacing" textLength="97" x="769.5" y="99.3979">giftBuddyContact</text><text fill="#000000" font-family="sans-serif" font-size="11" lengthAdjust="spacing" textLength="53" x="769.5" y="112.2026">password</text><line style="stroke:#A80036;stroke-width:1.5;" x1="764.5" x2="873.5" y1="118.7969" y2="118.7969"/><text fill="#000000" font-family="sans-serif" font-size="11" lengthAdjust="spacing" textLength="43" x="769.5" y="133.0073">select()</text><text fill="#000000" font-family="sans-serif" font-size="11" lengthAdjust="spacing" textLength="29" x="769.5" y="145.812">add()</text><text fill="#000000" font-family="sans-serif" font-size="11" lengthAdjust="spacing" textLength="38" x="769.5" y="158.6167">reset()</text><text fill="#000000" font-family="sans-serif" font-size="11" lengthAdjust="spacing" textLength="26" x="769.5" y="171.4214">set()</text><text fill="#000000" font-family="sans-serif" font-size="11" lengthAdjust="spacing" textLength="36" x="769.5" y="184.2261">input()</text><text fill="#000000" font-family="sans-serif" font-size="11" lengthAdjust="spacing" textLength="60" x="769.5" y="197.0308">purchase()</text><text fill="#000000" font-family="sans-serif" font-size="11" lengthAdjust="spacing" textLength="53" x="769.5" y="209.8354">remove()</text><text fill="#000000" font-family="sans-serif" font-size="11" lengthAdjust="spacing" textLength="42" x="769.5" y="222.6401">forget()</text><text fill="#000000" font-family="sans-serif" font-size="11" lengthAdjust="spacing" textLength="48" x="769.5" y="235.4448">discard()</text><text fill="#000000" font-family="sans-serif" font-size="11" lengthAdjust="spacing" textLength="46" x="769.5" y="248.2495">search()</text><text fill="#000000" font-family="sans-serif" font-size="11" lengthAdjust="spacing" textLength="48" x="769.5" y="261.0542">update()</text><text fill="#000000" font-family="sans-serif" font-size="11" lengthAdjust="spacing" textLength="45" x="769.5" y="273.8589">create()</text><text fill="#000000" font-family="sans-serif" font-size="11" lengthAdjust="spacing" textLength="35" x="769.5" y="286.6636">login()</text><text fill="#000000" font-family="sans-serif" font-size="11" lengthAdjust="spacing" textLength="35" x="769.5" y="299.4683">view()</text><text fill="#000000" font-family="sans-serif" font-size="11" lengthAdjust="spacing" textLength="36" x="769.5" y="312.2729">save()</text><text fill="#000000" font-family="sans-serif" font-size="11" lengthAdjust="spacing" textLength="41" x="769.5" y="325.0776">install()</text><text fill="#000000" font-family="sans-serif" font-size="11" lengthAdjust="spacing" textLength="52" x="769.5" y="337.8823">receive()</text><text fill="#000000" font-family="sans-serif" font-size="11" lengthAdjust="spacing" textLength="51" x="769.5" y="350.687">provide()</text><text fill="#000000" font-family="sans-serif" font-size="11" lengthAdjust="spacing" textLength="39" x="769.5" y="363.4917">enter()</text><!--MD5=[72ce1314beffbcf60a64ee91fbbc10dc]
class Contact--><rect codeLine="10" fill="#FEFECE" filter="url(#f8vnbsasuq9k9)" height="52.7734" id="Contact" style="stroke:#A80036;stroke-width:1.5;" width="76" x="1706" y="453.5"/><text fill="#000000" font-family="sans-serif" font-size="12" lengthAdjust="spacing" textLength="45" x="1721.5" y="469.6387">Contact</text><line style="stroke:#A80036;stroke-width:1.5;" x1="1707" x2="1781" y1="477.4688" y2="477.4688"/><text fill="#000000" font-family="sans-serif" font-size="11" lengthAdjust="spacing" textLength="64" x="1712" y="491.6792">information</text><line style="stroke:#A80036;stroke-width:1.5;" x1="1707" x2="1781" y1="498.2734" y2="498.2734"/><!--MD5=[12f1018b57d69730cde1a61b197e051f]
class Buddy--><rect codeLine="13" fill="#FEFECE" filter="url(#f8vnbsasuq9k9)" height="39.9688" id="Buddy" style="stroke:#A80036;stroke-width:1.5;" width="44" x="955" y="590"/><text fill="#000000" font-family="sans-serif" font-size="12" lengthAdjust="spacing" textLength="38" x="958" y="606.1387">Buddy</text><line style="stroke:#A80036;stroke-width:1.5;" x1="956" x2="998" y1="613.9688" y2="613.9688"/><line style="stroke:#A80036;stroke-width:1.5;" x1="956" x2="998" y1="621.9688" y2="621.9688"/><!--MD5=[6016c9c5425d34ae3d7a539916a91923]
class Recommendation--><rect codeLine="15" fill="#FEFECE" filter="url(#f8vnbsasuq9k9)" height="39.9688" id="Recommendation" style="stroke:#A80036;stroke-width:1.5;" width="110" x="585" y="590"/><text fill="#000000" font-family="sans-serif" font-size="12" lengthAdjust="spacing" textLength="104" x="588" y="606.1387">Recommendation</text><line style="stroke:#A80036;stroke-width:1.5;" x1="586" x2="694" y1="613.9688" y2="613.9688"/><line style="stroke:#A80036;stroke-width:1.5;" x1="586" x2="694" y1="621.9688" y2="621.9688"/><!--MD5=[e8dcfdde5c6ce5239f59acd294696d72]
class Case--><rect codeLine="38" fill="#FEFECE" filter="url(#f8vnbsasuq9k9)" height="39.9688" id="Case" style="stroke:#A80036;stroke-width:1.5;" width="36" x="179" y="460"/><text fill="#000000" font-family="sans-serif" font-size="12" lengthAdjust="spacing" textLength="30" x="182" y="476.1387">Case</text><line style="stroke:#A80036;stroke-width:1.5;" x1="180" x2="214" y1="483.9688" y2="483.9688"/><line style="stroke:#A80036;stroke-width:1.5;" x1="180" x2="214" y1="491.9688" y2="491.9688"/><!--MD5=[6d5d4b87aae61dd247ee72d797bb930c]
class Interest--><rect codeLine="40" fill="#FEFECE" filter="url(#f8vnbsasuq9k9)" height="39.9688" id="Interest" style="stroke:#A80036;stroke-width:1.5;" width="52" x="266" y="460"/><text fill="#000000" font-family="sans-serif" font-size="12" lengthAdjust="spacing" textLength="46" x="269" y="476.1387">Interest</text><line style="stroke:#A80036;stroke-width:1.5;" x1="267" x2="317" y1="483.9688" y2="483.9688"/><line style="stroke:#A80036;stroke-width:1.5;" x1="267" x2="317" y1="491.9688" y2="491.9688"/><!--MD5=[2f01b1126ff33a0669651ec2488a5ef9]
class Password--><rect codeLine="42" fill="#FEFECE" filter="url(#f8vnbsasuq9k9)" height="65.5781" id="Password" style="stroke:#A80036;stroke-width:1.5;" width="64" x="19" y="447"/><text fill="#000000" font-family="sans-serif" font-size="12" lengthAdjust="spacing" textLength="58" x="22" y="463.1387">Password</text><line style="stroke:#A80036;stroke-width:1.5;" x1="20" x2="82" y1="470.9688" y2="470.9688"/><line style="stroke:#A80036;stroke-width:1.5;" x1="20" x2="82" y1="478.9688" y2="478.9688"/><text fill="#000000" font-family="sans-serif" font-size="11" lengthAdjust="spacing" textLength="33" x="25" y="493.1792">user()</text><text fill="#000000" font-family="sans-serif" font-size="11" lengthAdjust="spacing" textLength="41" x="25" y="505.9839">name()</text><!--MD5=[51a4a3ae5810eb893347bca241d8df0e]
class GiftBuddyApp--><rect codeLine="46" fill="#FEFECE" filter="url(#f8vnbsasuq9k9)" height="52.7734" id="GiftBuddyApp" style="stroke:#A80036;stroke-width:1.5;" width="88" x="1886" y="163.5"/><text fill="#000000" font-family="sans-serif" font-size="12" lengthAdjust="spacing" textLength="82" x="1889" y="179.6387">GiftBuddyApp</text><line style="stroke:#A80036;stroke-width:1.5;" x1="1887" x2="1973" y1="187.4688" y2="187.4688"/><line style="stroke:#A80036;stroke-width:1.5;" x1="1887" x2="1973" y1="195.4688" y2="195.4688"/><text fill="#000000" font-family="sans-serif" font-size="11" lengthAdjust="spacing" textLength="33" x="1892" y="209.6792">user()</text><!--MD5=[f9a29335b499db729be669fd1bd54958]
class Account--><rect codeLine="49" fill="#FEFECE" filter="url(#f8vnbsasuq9k9)" height="39.9688" id="Account" style="stroke:#A80036;stroke-width:1.5;" width="54" x="1903" y="460"/><text fill="#000000" font-family="sans-serif" font-size="12" lengthAdjust="spacing" textLength="48" x="1906" y="476.1387">Account</text><line style="stroke:#A80036;stroke-width:1.5;" x1="1904" x2="1956" y1="483.9688" y2="483.9688"/><line style="stroke:#A80036;stroke-width:1.5;" x1="1904" x2="1956" y1="491.9688" y2="491.9688"/><!--MD5=[30fd7b95ab383a5e7c83ea23d4ea0fbf]
class Information--><rect codeLine="51" fill="#FEFECE" filter="url(#f8vnbsasuq9k9)" height="39.9688" id="Information" style="stroke:#A80036;stroke-width:1.5;" width="73" x="499.5" y="460"/><text fill="#000000" font-family="sans-serif" font-size="12" lengthAdjust="spacing" textLength="67" x="502.5" y="476.1387">Information</text><line style="stroke:#A80036;stroke-width:1.5;" x1="500.5" x2="571.5" y1="483.9688" y2="483.9688"/><line style="stroke:#A80036;stroke-width:1.5;" x1="500.5" x2="571.5" y1="491.9688" y2="491.9688"/><!--MD5=[03be55fb4aae919908819e432b9694ea]
class Phone--><rect codeLine="53" fill="#FEFECE" filter="url(#f8vnbsasuq9k9)" height="39.9688" id="Phone" style="stroke:#A80036;stroke-width:1.5;" width="42" x="608" y="460"/><text fill="#000000" font-family="sans-serif" font-size="12" lengthAdjust="spacing" textLength="36" x="611" y="476.1387">Phone</text><line style="stroke:#A80036;stroke-width:1.5;" x1="609" x2="649" y1="483.9688" y2="483.9688"/><line style="stroke:#A80036;stroke-width:1.5;" x1="609" x2="649" y1="491.9688" y2="491.9688"/><!--MD5=[c0f7ef69a41a7152a3543feb3e336d86]
class Budget--><rect codeLine="55" fill="#FEFECE" filter="url(#f8vnbsasuq9k9)" height="39.9688" id="Budget" style="stroke:#A80036;stroke-width:1.5;" width="49" x="685.5" y="460"/><text fill="#000000" font-family="sans-serif" font-size="12" lengthAdjust="spacing" textLength="43" x="688.5" y="476.1387">Budget</text><line style="stroke:#A80036;stroke-width:1.5;" x1="686.5" x2="733.5" y1="483.9688" y2="483.9688"/><line style="stroke:#A80036;stroke-width:1.5;" x1="686.5" x2="733.5" y1="491.9688" y2="491.9688"/><!--MD5=[41314a0efc36828092cff9ebad2fcafd]
class Group--><rect codeLine="57" fill="#FEFECE" filter="url(#f8vnbsasuq9k9)" height="39.9688" id="Group" style="stroke:#A80036;stroke-width:1.5;" width="43" x="769.5" y="460"/><text fill="#000000" font-family="sans-serif" font-size="12" lengthAdjust="spacing" textLength="37" x="772.5" y="476.1387">Group</text><line style="stroke:#A80036;stroke-width:1.5;" x1="770.5" x2="811.5" y1="483.9688" y2="483.9688"/><line style="stroke:#A80036;stroke-width:1.5;" x1="770.5" x2="811.5" y1="491.9688" y2="491.9688"/><!--MD5=[7829b64950ce38e0487c4015ea331f97]
class Date--><rect codeLine="59" fill="#FEFECE" filter="url(#f8vnbsasuq9k9)" height="52.7734" id="Date" style="stroke:#A80036;stroke-width:1.5;" width="46" x="848" y="453.5"/><text fill="#000000" font-family="sans-serif" font-size="12" lengthAdjust="spacing" textLength="28" x="857" y="469.6387">Date</text><line style="stroke:#A80036;stroke-width:1.5;" x1="849" x2="893" y1="477.4688" y2="477.4688"/><line style="stroke:#A80036;stroke-width:1.5;" x1="849" x2="893" y1="485.4688" y2="485.4688"/><text fill="#000000" font-family="sans-serif" font-size="11" lengthAdjust="spacing" textLength="34" x="854" y="499.6792">pass()</text><!--MD5=[2731afa3914a2f1855b4f1ebf120a43f]
class Gift--><rect codeLine="62" fill="#FEFECE" filter="url(#f8vnbsasuq9k9)" height="39.9688" id="Gift" style="stroke:#A80036;stroke-width:1.5;" width="26" x="964" y="460"/><text fill="#000000" font-family="sans-serif" font-size="12" lengthAdjust="spacing" textLength="20" x="967" y="476.1387">Gift</text><line style="stroke:#A80036;stroke-width:1.5;" x1="965" x2="989" y1="483.9688" y2="483.9688"/><line style="stroke:#A80036;stroke-width:1.5;" x1="965" x2="989" y1="491.9688" y2="491.9688"/><!--MD5=[0b4e4b4980470ea387cc45de9bd14b5b]
class Application--><rect codeLine="64" fill="#FEFECE" filter="url(#f8vnbsasuq9k9)" height="39.9688" id="Application" style="stroke:#A80036;stroke-width:1.5;" width="72" x="1076" y="460"/><text fill="#000000" font-family="sans-serif" font-size="12" lengthAdjust="spacing" textLength="66" x="1079" y="476.1387">Application</text><line style="stroke:#A80036;stroke-width:1.5;" x1="1077" x2="1147" y1="483.9688" y2="483.9688"/><line style="stroke:#A80036;stroke-width:1.5;" x1="1077" x2="1147" y1="491.9688" y2="491.9688"/><!--MD5=[6a10e9b103e375a5f698786d329ce000]
class EmailAddress--><rect codeLine="66" fill="#FEFECE" filter="url(#f8vnbsasuq9k9)" height="39.9688" id="EmailAddress" style="stroke:#A80036;stroke-width:1.5;" width="88" x="7" y="590"/><text fill="#000000" font-family="sans-serif" font-size="12" lengthAdjust="spacing" textLength="82" x="10" y="606.1387">EmailAddress</text><line style="stroke:#A80036;stroke-width:1.5;" x1="8" x2="94" y1="613.9688" y2="613.9688"/><line style="stroke:#A80036;stroke-width:1.5;" x1="8" x2="94" y1="621.9688" y2="621.9688"/><!--MD5=[5d1d154cd65940f6cf47a6e5dea0f450]
class Giftbuddyaccount--><rect codeLine="68" fill="#FEFECE" filter="url(#f8vnbsasuq9k9)" height="39.9688" id="Giftbuddyaccount" style="stroke:#A80036;stroke-width:1.5;" width="111" x="1183.5" y="460"/><text fill="#000000" font-family="sans-serif" font-size="12" lengthAdjust="spacing" textLength="105" x="1186.5" y="476.1387">Giftbuddyaccount</text><line style="stroke:#A80036;stroke-width:1.5;" x1="1184.5" x2="1293.5" y1="483.9688" y2="483.9688"/><line style="stroke:#A80036;stroke-width:1.5;" x1="1184.5" x2="1293.5" y1="491.9688" y2="491.9688"/><!--MD5=[76b5e19c9337179d2d7ae334371d68c8]
class Notification--><rect codeLine="70" fill="#FEFECE" filter="url(#f8vnbsasuq9k9)" height="39.9688" id="Notification" style="stroke:#A80036;stroke-width:1.5;" width="72" x="1330" y="460"/><text fill="#000000" font-family="sans-serif" font-size="12" lengthAdjust="spacing" textLength="66" x="1333" y="476.1387">Notification</text><line style="stroke:#A80036;stroke-width:1.5;" x1="1331" x2="1401" y1="483.9688" y2="483.9688"/><line style="stroke:#A80036;stroke-width:1.5;" x1="1331" x2="1401" y1="491.9688" y2="491.9688"/><!--MD5=[1a502b0dbedafd291c48f46ef8646183]
class Feedback--><rect codeLine="72" fill="#FEFECE" filter="url(#f8vnbsasuq9k9)" height="39.9688" id="Feedback" style="stroke:#A80036;stroke-width:1.5;" width="66" x="1437" y="460"/><text fill="#000000" font-family="sans-serif" font-size="12" lengthAdjust="spacing" textLength="60" x="1440" y="476.1387">Feedback</text><line style="stroke:#A80036;stroke-width:1.5;" x1="1438" x2="1502" y1="483.9688" y2="483.9688"/><line style="stroke:#A80036;stroke-width:1.5;" x1="1438" x2="1502" y1="491.9688" y2="491.9688"/><!--MD5=[b07065dfc0d0e09965ec10bfc328bb3e]
class Option--><rect codeLine="74" fill="#FEFECE" filter="url(#f8vnbsasuq9k9)" height="39.9688" id="Option" style="stroke:#A80036;stroke-width:1.5;" width="46" x="1538" y="460"/><text fill="#000000" font-family="sans-serif" font-size="12" lengthAdjust="spacing" textLength="40" x="1541" y="476.1387">Option</text><line style="stroke:#A80036;stroke-width:1.5;" x1="1539" x2="1583" y1="483.9688" y2="483.9688"/><line style="stroke:#A80036;stroke-width:1.5;" x1="1539" x2="1583" y1="491.9688" y2="491.9688"/><!--MD5=[117fd80234530d4b6c9f28dff4f7f58d]
class GiftBuddy--><rect codeLine="76" fill="#FEFECE" filter="url(#f8vnbsasuq9k9)" height="39.9688" id="GiftBuddy" style="stroke:#A80036;stroke-width:1.5;" width="64" x="1787" y="170"/><text fill="#000000" font-family="sans-serif" font-size="12" lengthAdjust="spacing" textLength="58" x="1790" y="186.1387">GiftBuddy</text><line style="stroke:#A80036;stroke-width:1.5;" x1="1788" x2="1850" y1="193.9688" y2="193.9688"/><line style="stroke:#A80036;stroke-width:1.5;" x1="1788" x2="1850" y1="201.9688" y2="201.9688"/><!--MD5=[9d661380b54d9bff4ee137bc0bb1b8a2]
link User to Information--><path codeLine="78" d="M763.426,247.556 C700.955,311.131 602.522,411.303 558.537,456.065 " fill="none" id="User-to-Information" style="stroke:#A80036;stroke-width:1.0;"/><polygon fill="#A80036" points="554.958,459.707,564.1193,456.0917,558.4627,456.1409,558.4135,450.4842,554.958,459.707" style="stroke:#A80036;stroke-width:1.0;"/><text fill="#000000" font-family="sans-serif" font-size="13" lengthAdjust="spacing" textLength="30" x="613" y="413.0669">view</text><!--MD5=[9d661380b54d9bff4ee137bc0bb1b8a2]
link User to Information--><path codeLine="87" d="M763.237,215.646 C697.956,247.771 592.482,310.602 543,400 C533.834,416.56 532.493,438.113 533.217,454.523 " fill="none" id="User-to-Information-1" style="stroke:#A80036;stroke-width:1.0;"/><polygon fill="#A80036" points="533.533,459.876,536.9964,450.6562,533.2387,454.8847,529.0102,451.127,533.533,459.876" style="stroke:#A80036;stroke-width:1.0;"/><text fill="#000000" font-family="sans-serif" font-size="13" lengthAdjust="spacing" textLength="45" x="544" y="413.0669">update</text><!--MD5=[3fb9f36749efaad5ac659bca00479233]
link User to Interest--><path codeLine="79" d="M763.143,193.215 C649.06,201.117 390.66,237.052 279,400 C268.034,416.002 272.889,438.036 279.573,454.769 " fill="none" id="User-to-Interest" style="stroke:#A80036;stroke-width:1.0;"/><polygon fill="#A80036" points="281.691,459.779,281.8707,449.9318,279.744,455.1737,274.5021,453.047,281.691,459.779" style="stroke:#A80036;stroke-width:1.0;"/><text fill="#000000" font-family="sans-serif" font-size="13" lengthAdjust="spacing" textLength="32" x="280" y="413.0669">input</text><!--MD5=[3fb9f36749efaad5ac659bca00479233]
link User to Interest--><path codeLine="81" d="M763.329,206.216 C670.843,233.5 482.879,297.644 353,400 C333.428,415.425 316.595,438.45 305.601,455.669 " fill="none" id="User-to-Interest-1" style="stroke:#A80036;stroke-width:1.0;"/><polygon fill="#A80036" points="302.933,459.914,311.1085,454.4221,305.5934,455.6805,304.3349,450.1654,302.933,459.914" style="stroke:#A80036;stroke-width:1.0;"/><text fill="#000000" font-family="sans-serif" font-size="13" lengthAdjust="spacing" textLength="34" x="354" y="413.0669">enter</text><!--MD5=[2bf7f2e632c4928a1cc79bea667804f9]
reverse link User to Contact--><path codeLine="80" d="M887.78,199.573 C1072.92,223.814 1576.5,297.791 1705,400 C1721.76,413.33 1731.85,435.707 1737.56,453.249 " fill="none" id="User-backto-Contact" style="stroke:#A80036;stroke-width:1.0;"/><polygon fill="#FFFFFF" points="874.75,197.88,880.1849,202.6195,886.6501,199.4255,881.2152,194.6861,874.75,197.88" style="stroke:#A80036;stroke-width:1.0;"/><text fill="#000000" font-family="sans-serif" font-size="13" lengthAdjust="spacing" textLength="50" x="1721" y="413.0669">remove</text><!--MD5=[2bf7f2e632c4928a1cc79bea667804f9]
reverse link User to Contact--><path codeLine="89" d="M887.779,207.448 C1019.32,239.569 1314.98,314.976 1557,400 C1609.54,418.457 1668.46,444.224 1705.87,461.247 " fill="none" id="User-backto-Contact-1" style="stroke:#A80036;stroke-width:1.0;"/><polygon fill="#FFFFFF" points="874.816,204.293,879.6999,209.5984,886.4756,207.1308,881.5917,201.8253,874.816,204.293" style="stroke:#A80036;stroke-width:1.0;"/><text fill="#000000" font-family="sans-serif" font-size="13" lengthAdjust="spacing" textLength="20" x="1600" y="413.0669">set</text><!--MD5=[bf6920a7c0d430d525e3e458e95f72ca]
reverse link User to Password--><path codeLine="82" d="M750.54,201.67 C585.592,228.677 172.595,304.441 75,400 C62.5046,412.235 56.4682,430.75 53.5724,446.781 " fill="none" id="User-backto-Password" style="stroke:#A80036;stroke-width:1.0;"/><polygon fill="#FFFFFF" points="763.384,199.584,756.8203,196.5978,751.5392,201.508,758.103,204.4943,763.384,199.584" style="stroke:#A80036;stroke-width:1.0;"/><text fill="#000000" font-family="sans-serif" font-size="13" lengthAdjust="spacing" textLength="33" x="76" y="413.0669">reset</text><!--MD5=[0b4e2c718629370d1e9c638e0503ce68]
link User to Date--><path codeLine="83" d="M851.341,370.12 C856.763,400.151 861.794,428.013 865.409,448.033 " fill="none" id="User-to-Date" style="stroke:#A80036;stroke-width:1.0;"/><polygon fill="#A80036" points="866.343,453.208,868.6798,443.6404,865.4544,448.2876,860.8071,445.0622,866.343,453.208" style="stroke:#A80036;stroke-width:1.0;"/><text fill="#000000" font-family="sans-serif" font-size="13" lengthAdjust="spacing" textLength="34" x="861" y="413.0669">enter</text><!--MD5=[230d2250dd088f95bd28c8224becb2ce]
link User to Recommendation--><path codeLine="84" d="M763.351,208.649 C674.526,240.195 503.542,315.569 433,447 C419.128,472.846 417.213,488.277 433,513 C465.051,563.1945 530.845,587.5424 579.698,599.0903 " fill="none" id="User-to-Recommendation" style="stroke:#A80036;stroke-width:1.0;"/><polygon fill="#A80036" points="584.669,600.2353,576.7971,594.3164,579.7967,599.1125,575.0006,602.112,584.669,600.2353" style="stroke:#A80036;stroke-width:1.0;"/><text fill="#000000" font-family="sans-serif" font-size="13" lengthAdjust="spacing" textLength="47" x="434" y="484.5669">receive</text><!--MD5=[2e2e530a658308b38e0151c4d25adf6b]
link User to Notification--><path codeLine="85" d="M874.685,217.801 C954.56,256.555 1105.93,331.156 1232,400 C1265.83,418.475 1303.6,440.909 1330.39,457.142 " fill="none" id="User-to-Notification" style="stroke:#A80036;stroke-width:1.0;"/><polygon fill="#A80036" points="1334.93,459.896,1329.3196,451.8013,1330.6582,457.2975,1325.1621,458.6362,1334.93,459.896" style="stroke:#A80036;stroke-width:1.0;"/><text fill="#000000" font-family="sans-serif" font-size="13" lengthAdjust="spacing" textLength="47" x="1263" y="413.0669">receive</text><!--MD5=[2d3d24ce923cffcb9d23da37a39a64b9]
link User to Option--><path codeLine="86" d="M874.746,208.704 C981.071,242.868 1219.74,321.473 1416,400 C1463.09,418.843 1476.59,420.765 1520,447 C1524.73,449.86 1529.55,453.184 1534.14,456.585 " fill="none" id="User-to-Option" style="stroke:#A80036;stroke-width:1.0;"/><polygon fill="#A80036" points="1538.28,459.72,1533.5326,451.0909,1534.2984,456.6956,1528.6936,457.4614,1538.28,459.72" style="stroke:#A80036;stroke-width:1.0;"/><text fill="#000000" font-family="sans-serif" font-size="13" lengthAdjust="spacing" textLength="88" x="1460" y="413.0669">supported_by</text><!--MD5=[787b9acce24cbb7de0761e46390aefb9]
reverse link User to Phone--><path codeLine="88" d="M755.982,286.522 C714.894,348.802 664.77,424.78 641.715,459.727 " fill="none" id="User-backto-Phone" style="stroke:#A80036;stroke-width:1.0;"/><polygon fill="#FFFFFF" points="763.278,275.464,756.6351,278.2697,756.6701,285.4807,763.3129,282.675,763.278,275.464" style="stroke:#A80036;stroke-width:1.0;"/><text fill="#000000" font-family="sans-serif" font-size="13" lengthAdjust="spacing" textLength="37" x="681" y="413.0669">install</text><!--MD5=[d42757d650b5fb8b47ce61f89ed387a7]
reverse link User to Gift--><path codeLine="90" d="M883.537,256.205 C917.147,294.652 955.09,346.208 974,400 C980.873,419.552 980.682,443.524 979.369,459.9 " fill="none" id="User-backto-Gift" style="stroke:#A80036;stroke-width:1.0;"/><polygon fill="#FFFFFF" points="874.646,246.22,875.6485,253.3611,882.6258,255.1823,881.6233,248.0412,874.646,246.22" style="stroke:#A80036;stroke-width:1.0;"/><text fill="#000000" font-family="sans-serif" font-size="13" lengthAdjust="spacing" textLength="48" x="980" y="413.0669">provide</text><!--MD5=[d42757d650b5fb8b47ce61f89ed387a7]
reverse link User to Gift--><path codeLine="96" d="M885.447,232.423 C937.61,269.204 1006.364,328.188 1037,400 C1049.71,429.781 1011.39,458.427 990.141,471.543 " fill="none" id="User-backto-Gift-1" style="stroke:#A80036;stroke-width:1.0;"/><polygon fill="#FFFFFF" points="874.588,224.914,877.2485,231.6164,884.4586,231.7383,881.7981,225.036,874.588,224.914" style="stroke:#A80036;stroke-width:1.0;"/><text fill="#000000" font-family="sans-serif" font-size="13" lengthAdjust="spacing" textLength="59" x="1041" y="413.0669">purchase</text><!--MD5=[d42757d650b5fb8b47ce61f89ed387a7]
reverse link User to Gift--><path codeLine="99" d="M880.539,319.416 C897.06,351.738 915.499,386.034 934,417 C943.271,432.518 955.042,449.322 963.924,461.517 " fill="none" id="User-backto-Gift-2" style="stroke:#A80036;stroke-width:1.0;"/><polygon fill="#FFFFFF" points="874.543,307.607,873.6936,314.7679,879.977,318.3062,880.8264,311.1453,874.543,307.607" style="stroke:#A80036;stroke-width:1.0;"/><text fill="#000000" font-family="sans-serif" font-size="13" lengthAdjust="spacing" textLength="30" x="935" y="413.0669">view</text><!--MD5=[7b2c278a21fda8d0a0b9087fe93111db]
link User to Budget--><path codeLine="91" d="M763.382,337.953 C746.188,383.385 729.142,428.424 719.094,454.973 " fill="none" id="User-to-Budget" style="stroke:#A80036;stroke-width:1.0;"/><polygon fill="#A80036" points="717.3,459.711,724.2272,452.71,719.0702,455.0348,716.7454,449.8778,717.3,459.711" style="stroke:#A80036;stroke-width:1.0;"/><text fill="#000000" font-family="sans-serif" font-size="13" lengthAdjust="spacing" textLength="20" x="741" y="413.0669">set</text><!--MD5=[f3af3e4376504b99e4d7659058753524]
link User to Feedback--><path codeLine="92" d="M874.829,213.413 C967.578,250.853 1159.05,329.02 1319,400 C1363.89,419.919 1375.9,423.462 1419,447 C1424.78,450.154 1430.79,453.692 1436.59,457.234 " fill="none" id="User-to-Feedback" style="stroke:#A80036;stroke-width:1.0;"/><polygon fill="#A80036" points="1440.97,459.937,1435.4161,451.8035,1436.7164,457.3089,1431.2111,458.6092,1440.97,459.937" style="stroke:#A80036;stroke-width:1.0;"/><text fill="#000000" font-family="sans-serif" font-size="13" lengthAdjust="spacing" textLength="48" x="1359" y="413.0669">provide</text><!--MD5=[5e599d181d0e76bbb7dd3d7ff43f65ce]
reverse link Gift to Buddy--><path codeLine="93" d="M977,513.269 C977,537.3606 977,569.4829 977,589.7061 " fill="none" id="Gift-backto-Buddy" style="stroke:#A80036;stroke-width:1.0;"/><polygon fill="#FFFFFF" points="977,500.163,973,506.163,977,512.163,981,506.163,977,500.163" style="stroke:#A80036;stroke-width:1.0;"/><!--MD5=[584bc7886500fe79b6852e3cea7e93fc]
reverse link GiftBuddy to Contact--><path codeLine="94" d="M1821.76,223.062 C1824.37,268.251 1824.49,352.375 1797,417 C1791.29,430.422 1781.6,443.08 1772.05,453.416 " fill="none" id="GiftBuddy-backto-Contact" style="stroke:#A80036;stroke-width:1.0;"/><polygon fill="#FFFFFF" points="1820.88,210.092,1817.2973,216.3502,1821.6962,222.0642,1825.2788,215.8061,1820.88,210.092" style="stroke:#A80036;stroke-width:1.0;"/><!--MD5=[67141e6eb3ba199f7c4756941637724e]
link User to Group--><path codeLine="95" d="M774.202,370.091 C772.56,380.17 771.135,390.189 770,400 C767.813,418.908 773.682,439.689 779.766,455.19 " fill="none" id="User-to-Group" style="stroke:#A80036;stroke-width:1.0;"/><polygon fill="#A80036" points="781.652,459.823,781.9628,449.979,779.7665,455.1921,774.5534,452.9958,781.652,459.823" style="stroke:#A80036;stroke-width:1.0;"/><text fill="#000000" font-family="sans-serif" font-size="13" lengthAdjust="spacing" textLength="50" x="771" y="413.0669">remove</text><!--MD5=[d2ae6c44145a7092de8ac1c3bb925686]
reverse link Gift to Recommendation--><path codeLine="97" d="M951.841,494.012 C939.653,500.105 924.719,507.265 911,513 C837.548,543.7052 750.425,573.4149 695.18,591.4501 " fill="none" id="Gift-backto-Recommendation" style="stroke:#A80036;stroke-width:1.0;"/><polygon fill="#FFFFFF" points="963.8,487.938,956.6391,487.0886,953.1008,493.372,960.2617,494.2214,963.8,487.938" style="stroke:#A80036;stroke-width:1.0;"/><!--MD5=[4981c864524f50ab1b82211e3369f909]
link User to Application--><path codeLine="98" d="M874.687,212.824 C943.667,243.197 1058.27,305.378 1109,400 C1117.91,416.628 1118.12,438.176 1116.4,454.567 " fill="none" id="User-to-Application" style="stroke:#A80036;stroke-width:1.0;"/><polygon fill="#A80036" points="1115.75,459.913,1120.8049,451.4603,1116.3522,454.9494,1112.8631,450.4967,1115.75,459.913" style="stroke:#A80036;stroke-width:1.0;"/><text fill="#000000" font-family="sans-serif" font-size="13" lengthAdjust="spacing" textLength="37" x="1116" y="413.0669">install</text><!--MD5=[db13520bc643fc154ff6c39302083a7f]
link User to Case--><path codeLine="100" d="M763.301,199.142 C612.328,222.461 201.357,294.657 123,400 C103.2794,426.512 145.556,453.873 173.97,468.41 " fill="none" id="User-to-Case" style="stroke:#A80036;stroke-width:1.0;"/><polygon fill="#A80036" points="178.748,470.801,172.4909,463.1952,174.277,468.5626,168.9095,470.3488,178.748,470.801" style="stroke:#A80036;stroke-width:1.0;"/><text fill="#000000" font-family="sans-serif" font-size="13" lengthAdjust="spacing" textLength="39" x="124" y="413.0669">forget</text><!--MD5=[db13520bc643fc154ff6c39302083a7f]
link User to Case--><path codeLine="104" d="M763.212,196.081 C648.975,209.31 386.142,254.614 231,400 C215.498,414.527 206.725,437.309 201.99,454.683 " fill="none" id="User-to-Case-1" style="stroke:#A80036;stroke-width:1.0;"/><polygon fill="#A80036" points="200.647,459.886,206.7699,452.1717,201.897,455.0448,199.0239,450.1718,200.647,459.886" style="stroke:#A80036;stroke-width:1.0;"/><text fill="#000000" font-family="sans-serif" font-size="13" lengthAdjust="spacing" textLength="33" x="232" y="413.0669">reset</text><!--MD5=[3049bd8b9b353a730cf077b6007ccf6d]
link GiftBuddyApp to Account--><path codeLine="101" d="M1930,216.558 C1930,271.526 1930,400.371 1930,454.436 " fill="none" id="GiftBuddyApp-to-Account" style="stroke:#A80036;stroke-width:1.0;"/><polygon fill="#A80036" points="1930,459.735,1934,450.735,1930,454.735,1926,450.735,1930,459.735" style="stroke:#A80036;stroke-width:1.0;"/><text fill="#000000" font-family="sans-serif" font-size="13" lengthAdjust="spacing" textLength="28" x="1931" y="413.0669">user</text><!--MD5=[e1411bccd5312581d205a1bc169d22c5]
link Password to EmailAddress--><path codeLine="102" d="M51,513.3 C51,535.463 51,564.4116 51,584.6422 " fill="none" id="Password-to-EmailAddress" style="stroke:#A80036;stroke-width:1.0;"/><polygon fill="#A80036" points="51,589.8458,55,580.8458,51,584.8458,47,580.8458,51,589.8458" style="stroke:#A80036;stroke-width:1.0;"/><text fill="#000000" font-family="sans-serif" font-size="13" lengthAdjust="spacing" textLength="28" x="52" y="556.0669">user</text><!--MD5=[f34eaf666255912346ce4b9823483b64]
reverse link User to Giftbuddyaccount--><path codeLine="103" d="M886.183,225.382 C957.785,263.485 1072.88,328.998 1162,400 C1184.92,418.26 1207.95,442.912 1222.77,459.793 " fill="none" id="User-backto-Giftbuddyaccount" style="stroke:#A80036;stroke-width:1.0;"/><polygon fill="#FFFFFF" points="874.642,219.277,878.076,225.6179,885.25,224.8869,881.816,218.546,874.642,219.277" style="stroke:#A80036;stroke-width:1.0;"/><text fill="#000000" font-family="sans-serif" font-size="13" lengthAdjust="spacing" textLength="41" x="1182" y="413.0669">create</text><!--MD5=[fd3ac08837ab311d29ec86b205cef341]
@startuml
hide circle
class User<actor> {
	emailAddress
	contact
	giftBuddyAccount
	phone
	giftBuddyContact
	password
}
class Contact {
	information
}
class Buddy {
}
class Recommendation {
}
class User {
	select()
	add()
	reset()
	set()
	input()
	purchase()
	remove()
	forget()
	discard()
	search()
	update()
	create()
	login()
	view()
	save()
	install()
	receive()
	provide()
	enter()
}
class Case {
}
class Interest {
}
class Password {
	user()
	name()
}
class GiftBuddyApp {
	user()
}
class Account {
}
class Information {
}
class Phone {
}
class Budget {
}
class Group {
}
class Date {
	pass()
}
class Gift {
}
class Application {
}
class EmailAddress {
}
class Giftbuddyaccount {
}
class Notification {
}
class Feedback {
}
class Option {
}
class GiftBuddy {
}
User - -> Information : view
User - -> Interest : input
User o- - Contact : remove
User - -> Interest : enter
User o- - Password : reset
User - -> Date : enter
User - -> Recommendation : receive
User - -> Notification : receive
User - -> Option : supported_by
User - -> Information : update
User o- - Phone : install
User o- - Contact : set
User o- - Gift : provide
User - -> Budget : set
User - -> Feedback : provide
Gift o- - Buddy
GiftBuddy o- - Contact
User - -> Group : remove
User o- - Gift : purchase
Gift o- - Recommendation
User - -> Application : install
User o- - Gift : view
User - -> Case : forget
GiftBuddyApp - -> Account : user
Password - -> EmailAddress : user
User o- - Giftbuddyaccount : create
User - -> Case : reset
@enduml

PlantUML version 1.2021.10beta2(Unknown compile time)
(GPL source distribution)
Java Runtime: Java(TM) SE Runtime Environment
JVM: Java HotSpot(TM) 64-Bit Server VM
Default Encoding: UTF-8
Language: en
Country: US
--></g></svg>