<?xml version="1.0" encoding="UTF-8" standalone="no"?><svg xmlns="http://www.w3.org/2000/svg" xmlns:xlink="http://www.w3.org/1999/xlink" contentScriptType="application/ecmascript" contentStyleType="text/css" height="1084px" preserveAspectRatio="none" style="width:2260px;height:1084px;background:#FFFFFF;" version="1.1" viewBox="0 0 2260 1084" width="2260px" zoomAndPan="magnify"><defs><filter height="300%" id="f1bwgvd1u1159s" width="300%" x="-1" y="-1"><feGaussianBlur result="blurOut" stdDeviation="2.0"/><feColorMatrix in="blurOut" result="blurOut2" type="matrix" values="0 0 0 0 0 0 0 0 0 0 0 0 0 0 0 0 0 0 .4 0"/><feOffset dx="4.0" dy="4.0" in="blurOut2" result="blurOut3"/><feBlend in="SourceGraphic" in2="blurOut3" mode="normal"/></filter></defs><g><!--MD5=[d6181cb537bdc20c0a3007a98a56832d]
class Student--><rect codeLine="20" fill="#FEFECE" filter="url(#f1bwgvd1u1159s)" height="257.6484" id="Student" style="stroke:#A80036;stroke-width:1.5;" width="87" x="848.5" y="566"/><text fill="#000000" font-family="sans-serif" font-size="12" lengthAdjust="spacing" textLength="46" x="851.5" y="582.1387">Student</text><rect fill="#FFFFFF" height="15.9688" style="stroke:#000000;stroke-width:1.0;stroke-dasharray:2.0,2.0;" width="33" x="905.5" y="563"/><text fill="#000000" font-family="sans-serif" font-size="12" font-style="italic" lengthAdjust="spacing" textLength="31" x="906.5" y="575.1387">actor</text><line style="stroke:#A80036;stroke-width:1.5;" x1="849.5" x2="934.5" y1="589.9688" y2="589.9688"/><text fill="#000000" font-family="sans-serif" font-size="11" lengthAdjust="spacing" textLength="32" x="854.5" y="604.1792">group</text><line style="stroke:#A80036;stroke-width:1.5;" x1="849.5" x2="934.5" y1="610.7734" y2="610.7734"/><text fill="#000000" font-family="sans-serif" font-size="11" lengthAdjust="spacing" textLength="36" x="854.5" y="624.9839">send()</text><text fill="#000000" font-family="sans-serif" font-size="11" lengthAdjust="spacing" textLength="40" x="854.5" y="637.7886">make()</text><text fill="#000000" font-family="sans-serif" font-size="11" lengthAdjust="spacing" textLength="41" x="854.5" y="650.5933">check()</text><text fill="#000000" font-family="sans-serif" font-size="11" lengthAdjust="spacing" textLength="55" x="854.5" y="663.3979">manage()</text><text fill="#000000" font-family="sans-serif" font-size="11" lengthAdjust="spacing" textLength="28" x="854.5" y="676.2026">talk()</text><text fill="#000000" font-family="sans-serif" font-size="11" lengthAdjust="spacing" textLength="38" x="854.5" y="689.0073">finish()</text><text fill="#000000" font-family="sans-serif" font-size="11" lengthAdjust="spacing" textLength="48" x="854.5" y="701.812">upvote()</text><text fill="#000000" font-family="sans-serif" font-size="11" lengthAdjust="spacing" textLength="37" x="854.5" y="714.6167">have()</text><text fill="#000000" font-family="sans-serif" font-size="11" lengthAdjust="spacing" textLength="60" x="854.5" y="727.4214">schedule()</text><text fill="#000000" font-family="sans-serif" font-size="11" lengthAdjust="spacing" textLength="35" x="854.5" y="740.2261">view()</text><text fill="#000000" font-family="sans-serif" font-size="11" lengthAdjust="spacing" textLength="29" x="854.5" y="753.0308">add()</text><text fill="#000000" font-family="sans-serif" font-size="11" lengthAdjust="spacing" textLength="45" x="854.5" y="765.8354">create()</text><text fill="#000000" font-family="sans-serif" font-size="11" lengthAdjust="spacing" textLength="28" x="854.5" y="778.6401">join()</text><text fill="#000000" font-family="sans-serif" font-size="11" lengthAdjust="spacing" textLength="52" x="854.5" y="791.4448">receive()</text><text fill="#000000" font-family="sans-serif" font-size="11" lengthAdjust="spacing" textLength="63" x="854.5" y="804.2495">bookmark()</text><text fill="#000000" font-family="sans-serif" font-size="11" lengthAdjust="spacing" textLength="29" x="854.5" y="817.0542">find()</text><!--MD5=[61a83f88cb8b7d3a80bc8c481f3736bf]
class Teacher--><rect codeLine="55" fill="#FEFECE" filter="url(#f1bwgvd1u1159s)" height="155.2109" id="Teacher" style="stroke:#A80036;stroke-width:1.5;" width="90" x="383" y="10"/><text fill="#000000" font-family="sans-serif" font-size="12" lengthAdjust="spacing" textLength="49" x="386" y="26.1387">Teacher</text><rect fill="#FFFFFF" height="15.9688" style="stroke:#000000;stroke-width:1.0;stroke-dasharray:2.0,2.0;" width="33" x="443" y="7"/><text fill="#000000" font-family="sans-serif" font-size="12" font-style="italic" lengthAdjust="spacing" textLength="31" x="444" y="19.1387">actor</text><line style="stroke:#A80036;stroke-width:1.5;" x1="384" x2="472" y1="33.9688" y2="33.9688"/><text fill="#000000" font-family="sans-serif" font-size="11" lengthAdjust="spacing" textLength="26" x="389" y="48.1792">time</text><text fill="#000000" font-family="sans-serif" font-size="11" lengthAdjust="spacing" textLength="43" x="389" y="60.9839">student</text><text fill="#000000" font-family="sans-serif" font-size="11" lengthAdjust="spacing" textLength="28" x="389" y="73.7886">class</text><line style="stroke:#A80036;stroke-width:1.5;" x1="384" x2="472" y1="80.3828" y2="80.3828"/><text fill="#000000" font-family="sans-serif" font-size="11" lengthAdjust="spacing" textLength="36" x="389" y="94.5933">send()</text><text fill="#000000" font-family="sans-serif" font-size="11" lengthAdjust="spacing" textLength="30" x="389" y="107.3979">see()</text><text fill="#000000" font-family="sans-serif" font-size="11" lengthAdjust="spacing" textLength="41" x="389" y="120.2026">check()</text><text fill="#000000" font-family="sans-serif" font-size="11" lengthAdjust="spacing" textLength="44" x="389" y="133.0073">assign()</text><text fill="#000000" font-family="sans-serif" font-size="11" lengthAdjust="spacing" textLength="49" x="389" y="145.812">contact()</text><text fill="#000000" font-family="sans-serif" font-size="11" lengthAdjust="spacing" textLength="46" x="389" y="158.6167">upload()</text><!--MD5=[cf9bc73d4b319b8f5d50999aecc13d13]
class Parent--><rect codeLine="10" fill="#FEFECE" filter="url(#f1bwgvd1u1159s)" height="39.9688" id="Parent" style="stroke:#A80036;stroke-width:1.5;" width="78" x="1896" y="67.5"/><text fill="#000000" font-family="sans-serif" font-size="12" lengthAdjust="spacing" textLength="37" x="1899" y="83.6387">Parent</text><rect fill="#FFFFFF" height="15.9688" style="stroke:#000000;stroke-width:1.0;stroke-dasharray:2.0,2.0;" width="33" x="1944" y="64.5"/><text fill="#000000" font-family="sans-serif" font-size="12" font-style="italic" lengthAdjust="spacing" textLength="31" x="1945" y="76.6387">actor</text><line style="stroke:#A80036;stroke-width:1.5;" x1="1897" x2="1973" y1="91.4688" y2="91.4688"/><line style="stroke:#A80036;stroke-width:1.5;" x1="1897" x2="1973" y1="99.4688" y2="99.4688"/><!--MD5=[3fd616f346a44cd59a91eb10b19e157c]
class User--><rect codeLine="40" fill="#FEFECE" filter="url(#f1bwgvd1u1159s)" height="129.6016" id="User" style="stroke:#A80036;stroke-width:1.5;" width="70" x="1766" y="242"/><text fill="#000000" font-family="sans-serif" font-size="12" lengthAdjust="spacing" textLength="29" x="1769" y="258.1387">User</text><rect fill="#FFFFFF" height="15.9688" style="stroke:#000000;stroke-width:1.0;stroke-dasharray:2.0,2.0;" width="33" x="1806" y="239"/><text fill="#000000" font-family="sans-serif" font-size="12" font-style="italic" lengthAdjust="spacing" textLength="31" x="1807" y="251.1387">actor</text><line style="stroke:#A80036;stroke-width:1.5;" x1="1767" x2="1835" y1="265.9688" y2="265.9688"/><line style="stroke:#A80036;stroke-width:1.5;" x1="1767" x2="1835" y1="273.9688" y2="273.9688"/><text fill="#000000" font-family="sans-serif" font-size="11" lengthAdjust="spacing" textLength="32" x="1772" y="288.1792">post()</text><text fill="#000000" font-family="sans-serif" font-size="11" lengthAdjust="spacing" textLength="55" x="1772" y="300.9839">mention()</text><text fill="#000000" font-family="sans-serif" font-size="11" lengthAdjust="spacing" textLength="42" x="1772" y="313.7886">report()</text><text fill="#000000" font-family="sans-serif" font-size="11" lengthAdjust="spacing" textLength="35" x="1772" y="326.5933">bully()</text><text fill="#000000" font-family="sans-serif" font-size="11" lengthAdjust="spacing" textLength="55" x="1772" y="339.3979">improve()</text><text fill="#000000" font-family="sans-serif" font-size="11" lengthAdjust="spacing" textLength="44" x="1772" y="352.2026">dislike()</text><text fill="#000000" font-family="sans-serif" font-size="11" lengthAdjust="spacing" textLength="40" x="1772" y="365.0073">invite()</text><!--MD5=[15c6922f6693225acd2805a9f7199676]
class Maintainer--><rect codeLine="69" fill="#FEFECE" filter="url(#f1bwgvd1u1159s)" height="65.5781" id="Maintainer" style="stroke:#A80036;stroke-width:1.5;" width="102" x="2009" y="54.5"/><text fill="#000000" font-family="sans-serif" font-size="12" lengthAdjust="spacing" textLength="61" x="2012" y="70.6387">Maintainer</text><rect fill="#FFFFFF" height="15.9688" style="stroke:#000000;stroke-width:1.0;stroke-dasharray:2.0,2.0;" width="33" x="2081" y="51.5"/><text fill="#000000" font-family="sans-serif" font-size="12" font-style="italic" lengthAdjust="spacing" textLength="31" x="2082" y="63.6387">actor</text><line style="stroke:#A80036;stroke-width:1.5;" x1="2010" x2="2110" y1="78.4688" y2="78.4688"/><line style="stroke:#A80036;stroke-width:1.5;" x1="2010" x2="2110" y1="86.4688" y2="86.4688"/><text fill="#000000" font-family="sans-serif" font-size="11" lengthAdjust="spacing" textLength="51" x="2015" y="100.6792">monitor()</text><text fill="#000000" font-family="sans-serif" font-size="11" lengthAdjust="spacing" textLength="30" x="2015" y="113.4839">see()</text><!--MD5=[0091d524b458b3ede64454f449a65d6a]
class TeacherUser--><rect codeLine="108" fill="#FEFECE" filter="url(#f1bwgvd1u1159s)" height="39.9688" id="TeacherUser" style="stroke:#A80036;stroke-width:1.5;" width="119" x="1741.5" y="67.5"/><text fill="#000000" font-family="sans-serif" font-size="12" lengthAdjust="spacing" textLength="78" x="1744.5" y="83.6387">TeacherUser</text><rect fill="#FFFFFF" height="15.9688" style="stroke:#000000;stroke-width:1.0;stroke-dasharray:2.0,2.0;" width="33" x="1830.5" y="64.5"/><text fill="#000000" font-family="sans-serif" font-size="12" font-style="italic" lengthAdjust="spacing" textLength="31" x="1831.5" y="76.6387">actor</text><line style="stroke:#A80036;stroke-width:1.5;" x1="1742.5" x2="1859.5" y1="91.4688" y2="91.4688"/><line style="stroke:#A80036;stroke-width:1.5;" x1="1742.5" x2="1859.5" y1="99.4688" y2="99.4688"/><!--MD5=[db6d18d8099558415abc41d00477ab92]
class Admin--><rect codeLine="81" fill="#FEFECE" filter="url(#f1bwgvd1u1159s)" height="78.3828" id="Admin" style="stroke:#A80036;stroke-width:1.5;" width="78" x="1786" y="656"/><text fill="#000000" font-family="sans-serif" font-size="12" lengthAdjust="spacing" textLength="37" x="1789" y="672.1387">Admin</text><rect fill="#FFFFFF" height="15.9688" style="stroke:#000000;stroke-width:1.0;stroke-dasharray:2.0,2.0;" width="33" x="1834" y="653"/><text fill="#000000" font-family="sans-serif" font-size="12" font-style="italic" lengthAdjust="spacing" textLength="31" x="1835" y="665.1387">actor</text><line style="stroke:#A80036;stroke-width:1.5;" x1="1787" x2="1863" y1="679.9688" y2="679.9688"/><line style="stroke:#A80036;stroke-width:1.5;" x1="1787" x2="1863" y1="687.9688" y2="687.9688"/><text fill="#000000" font-family="sans-serif" font-size="11" lengthAdjust="spacing" textLength="46" x="1792" y="702.1792">delete()</text><text fill="#000000" font-family="sans-serif" font-size="11" lengthAdjust="spacing" textLength="43" x="1792" y="714.9839">notice()</text><text fill="#000000" font-family="sans-serif" font-size="11" lengthAdjust="spacing" textLength="55" x="1792" y="727.7886">improve()</text><!--MD5=[41e1c6cf192918703501b24b2053926c]
class Class--><rect codeLine="38" fill="#FEFECE" filter="url(#f1bwgvd1u1159s)" height="39.9688" id="Class" style="stroke:#A80036;stroke-width:1.5;" width="38" x="384" y="907.5"/><text fill="#000000" font-family="sans-serif" font-size="12" lengthAdjust="spacing" textLength="32" x="387" y="923.6387">Class</text><line style="stroke:#A80036;stroke-width:1.5;" x1="385" x2="421" y1="931.4688" y2="931.4688"/><line style="stroke:#A80036;stroke-width:1.5;" x1="385" x2="421" y1="939.4688" y2="939.4688"/><!--MD5=[ad932b6f5864965112044123d6bad487]
class Someone--><rect codeLine="49" fill="#FEFECE" filter="url(#f1bwgvd1u1159s)" height="39.9688" id="Someone" style="stroke:#A80036;stroke-width:1.5;" width="64" x="2065" y="449"/><text fill="#000000" font-family="sans-serif" font-size="12" lengthAdjust="spacing" textLength="58" x="2068" y="465.1387">Someone</text><line style="stroke:#A80036;stroke-width:1.5;" x1="2066" x2="2128" y1="472.9688" y2="472.9688"/><line style="stroke:#A80036;stroke-width:1.5;" x1="2066" x2="2128" y1="480.9688" y2="480.9688"/><!--MD5=[53f6a92bd21ca2f2960392a061f3a1c6]
class Name--><rect codeLine="51" fill="#FEFECE" filter="url(#f1bwgvd1u1159s)" height="39.9688" id="Name" style="stroke:#A80036;stroke-width:1.5;" width="40" x="547" y="907.5"/><text fill="#000000" font-family="sans-serif" font-size="12" lengthAdjust="spacing" textLength="34" x="550" y="923.6387">Name</text><line style="stroke:#A80036;stroke-width:1.5;" x1="548" x2="586" y1="931.4688" y2="931.4688"/><line style="stroke:#A80036;stroke-width:1.5;" x1="548" x2="586" y1="939.4688" y2="939.4688"/><!--MD5=[fc7123defb831ecdd44b2d9bcef6cceb]
class Question--><rect codeLine="53" fill="#FEFECE" filter="url(#f1bwgvd1u1159s)" height="39.9688" id="Question" style="stroke:#A80036;stroke-width:1.5;" width="60" x="920" y="907.5"/><text fill="#000000" font-family="sans-serif" font-size="12" lengthAdjust="spacing" textLength="54" x="923" y="923.6387">Question</text><line style="stroke:#A80036;stroke-width:1.5;" x1="921" x2="979" y1="931.4688" y2="931.4688"/><line style="stroke:#A80036;stroke-width:1.5;" x1="921" x2="979" y1="939.4688" y2="939.4688"/><!--MD5=[f47daed1cda55dafa92e67e20dcc6cf8]
class RecordVideo--><rect codeLine="63" fill="#FEFECE" filter="url(#f1bwgvd1u1159s)" height="39.9688" id="RecordVideo" style="stroke:#A80036;stroke-width:1.5;" width="84" x="7" y="287"/><text fill="#000000" font-family="sans-serif" font-size="12" lengthAdjust="spacing" textLength="78" x="10" y="303.1387">RecordVideo</text><line style="stroke:#A80036;stroke-width:1.5;" x1="8" x2="90" y1="310.9688" y2="310.9688"/><line style="stroke:#A80036;stroke-width:1.5;" x1="8" x2="90" y1="318.9688" y2="318.9688"/><!--MD5=[e3d83ec5fd90ea9f3f2bfe265cb53458]
class Status--><rect codeLine="65" fill="#FEFECE" filter="url(#f1bwgvd1u1159s)" height="39.9688" id="Status" style="stroke:#A80036;stroke-width:1.5;" width="43" x="1040.5" y="907.5"/><text fill="#000000" font-family="sans-serif" font-size="12" lengthAdjust="spacing" textLength="37" x="1043.5" y="923.6387">Status</text><line style="stroke:#A80036;stroke-width:1.5;" x1="1041.5" x2="1082.5" y1="931.4688" y2="931.4688"/><line style="stroke:#A80036;stroke-width:1.5;" x1="1041.5" x2="1082.5" y1="939.4688" y2="939.4688"/><!--MD5=[41314a0efc36828092cff9ebad2fcafd]
class Group--><rect codeLine="67" fill="#FEFECE" filter="url(#f1bwgvd1u1159s)" height="39.9688" id="Group" style="stroke:#A80036;stroke-width:1.5;" width="43" x="1381.5" y="907.5"/><text fill="#000000" font-family="sans-serif" font-size="12" lengthAdjust="spacing" textLength="37" x="1384.5" y="923.6387">Group</text><line style="stroke:#A80036;stroke-width:1.5;" x1="1382.5" x2="1423.5" y1="931.4688" y2="931.4688"/><line style="stroke:#A80036;stroke-width:1.5;" x1="1382.5" x2="1423.5" y1="939.4688" y2="939.4688"/><!--MD5=[44e19a59ce6758d26e9e7982d00c5f84]
class TimeStatistic--><rect codeLine="73" fill="#FEFECE" filter="url(#f1bwgvd1u1159s)" height="39.9688" id="TimeStatistic" style="stroke:#A80036;stroke-width:1.5;" width="82" x="1967" y="287"/><text fill="#000000" font-family="sans-serif" font-size="12" lengthAdjust="spacing" textLength="76" x="1970" y="303.1387">TimeStatistic</text><line style="stroke:#A80036;stroke-width:1.5;" x1="1968" x2="2048" y1="310.9688" y2="310.9688"/><line style="stroke:#A80036;stroke-width:1.5;" x1="1968" x2="2048" y1="318.9688" y2="318.9688"/><!--MD5=[91837343f19ad6bb47ed4fe22d7145fa]
class Invitation--><rect codeLine="75" fill="#FEFECE" filter="url(#f1bwgvd1u1159s)" height="52.7734" id="Invitation" style="stroke:#A80036;stroke-width:1.5;" width="59" x="216.5" y="901"/><text fill="#000000" font-family="sans-serif" font-size="12" lengthAdjust="spacing" textLength="53" x="219.5" y="917.1387">Invitation</text><line style="stroke:#A80036;stroke-width:1.5;" x1="217.5" x2="274.5" y1="924.9688" y2="924.9688"/><line style="stroke:#A80036;stroke-width:1.5;" x1="217.5" x2="274.5" y1="932.9688" y2="932.9688"/><text fill="#000000" font-family="sans-serif" font-size="11" lengthAdjust="spacing" textLength="27" x="222.5" y="947.1792">get()</text><!--MD5=[9bb0bdd047fba1a3c8d48282c35b4537]
class Post--><rect codeLine="78" fill="#FEFECE" filter="url(#f1bwgvd1u1159s)" height="52.7734" id="Post" style="stroke:#A80036;stroke-width:1.5;" width="52" x="1799" y="901"/><text fill="#000000" font-family="sans-serif" font-size="12" lengthAdjust="spacing" textLength="25" x="1812.5" y="917.1387">Post</text><line style="stroke:#A80036;stroke-width:1.5;" x1="1800" x2="1850" y1="924.9688" y2="924.9688"/><line style="stroke:#A80036;stroke-width:1.5;" x1="1800" x2="1850" y1="932.9688" y2="932.9688"/><text fill="#000000" font-family="sans-serif" font-size="11" lengthAdjust="spacing" textLength="40" x="1805" y="947.1792">make()</text><!--MD5=[f9fadfa5a66b7e5a67b370cd443ffe52]
class Answer--><rect codeLine="86" fill="#FEFECE" filter="url(#f1bwgvd1u1159s)" height="39.9688" id="Answer" style="stroke:#A80036;stroke-width:1.5;" width="51" x="789.5" y="907.5"/><text fill="#000000" font-family="sans-serif" font-size="12" lengthAdjust="spacing" textLength="45" x="792.5" y="923.6387">Answer</text><line style="stroke:#A80036;stroke-width:1.5;" x1="790.5" x2="839.5" y1="931.4688" y2="931.4688"/><line style="stroke:#A80036;stroke-width:1.5;" x1="790.5" x2="839.5" y1="939.4688" y2="939.4688"/><!--MD5=[6f40bf13f8a5185dde69e4f16d5bd3eb]
class Homework--><rect codeLine="88" fill="#FEFECE" filter="url(#f1bwgvd1u1159s)" height="39.9688" id="Homework" style="stroke:#A80036;stroke-width:1.5;" width="72" x="622" y="907.5"/><text fill="#000000" font-family="sans-serif" font-size="12" lengthAdjust="spacing" textLength="66" x="625" y="923.6387">Homework</text><line style="stroke:#A80036;stroke-width:1.5;" x1="623" x2="693" y1="931.4688" y2="931.4688"/><line style="stroke:#A80036;stroke-width:1.5;" x1="623" x2="693" y1="939.4688" y2="939.4688"/><!--MD5=[48359b6907e10d79fb84fa58d8a36d48]
class CollaborationNetwork--><rect codeLine="90" fill="#FEFECE" filter="url(#f1bwgvd1u1159s)" height="39.9688" id="CollaborationNetwork" style="stroke:#A80036;stroke-width:1.5;" width="135" x="1757.5" y="1031"/><text fill="#000000" font-family="sans-serif" font-size="12" lengthAdjust="spacing" textLength="129" x="1760.5" y="1047.1387">CollaborationNetwork</text><line style="stroke:#A80036;stroke-width:1.5;" x1="1758.5" x2="1891.5" y1="1054.9688" y2="1054.9688"/><line style="stroke:#A80036;stroke-width:1.5;" x1="1758.5" x2="1891.5" y1="1062.9688" y2="1062.9688"/><!--MD5=[c2297e0e1f3936ff8f88cae54d25be61]
class Assignment--><rect codeLine="92" fill="#FEFECE" filter="url(#f1bwgvd1u1159s)" height="39.9688" id="Assignment" style="stroke:#A80036;stroke-width:1.5;" width="76" x="1213" y="449"/><text fill="#000000" font-family="sans-serif" font-size="12" lengthAdjust="spacing" textLength="70" x="1216" y="465.1387">Assignment</text><line style="stroke:#A80036;stroke-width:1.5;" x1="1214" x2="1288" y1="472.9688" y2="472.9688"/><line style="stroke:#A80036;stroke-width:1.5;" x1="1214" x2="1288" y1="480.9688" y2="480.9688"/><!--MD5=[63288f4f4902411236839d652cc0809f]
class StudyGroup--><rect codeLine="94" fill="#FEFECE" filter="url(#f1bwgvd1u1159s)" height="39.9688" id="StudyGroup" style="stroke:#A80036;stroke-width:1.5;" width="77" x="1118.5" y="907.5"/><text fill="#000000" font-family="sans-serif" font-size="12" lengthAdjust="spacing" textLength="71" x="1121.5" y="923.6387">StudyGroup</text><line style="stroke:#A80036;stroke-width:1.5;" x1="1119.5" x2="1194.5" y1="931.4688" y2="931.4688"/><line style="stroke:#A80036;stroke-width:1.5;" x1="1119.5" x2="1194.5" y1="939.4688" y2="939.4688"/><!--MD5=[53e6cac2272ce2eb99d85cf2b2d574ee]
class Performance--><rect codeLine="96" fill="#FEFECE" filter="url(#f1bwgvd1u1159s)" height="39.9688" id="Performance" style="stroke:#A80036;stroke-width:1.5;" width="82" x="2164" y="449"/><text fill="#000000" font-family="sans-serif" font-size="12" lengthAdjust="spacing" textLength="76" x="2167" y="465.1387">Performance</text><line style="stroke:#A80036;stroke-width:1.5;" x1="2165" x2="2245" y1="472.9688" y2="472.9688"/><line style="stroke:#A80036;stroke-width:1.5;" x1="2165" x2="2245" y1="480.9688" y2="480.9688"/><!--MD5=[fab76ac332c6d72510aaae6c360fa182]
class Quality--><rect codeLine="98" fill="#FEFECE" filter="url(#f1bwgvd1u1159s)" height="39.9688" id="Quality" style="stroke:#A80036;stroke-width:1.5;" width="47" x="1706.5" y="907.5"/><text fill="#000000" font-family="sans-serif" font-size="12" lengthAdjust="spacing" textLength="41" x="1709.5" y="923.6387">Quality</text><line style="stroke:#A80036;stroke-width:1.5;" x1="1707.5" x2="1752.5" y1="931.4688" y2="931.4688"/><line style="stroke:#A80036;stroke-width:1.5;" x1="1707.5" x2="1752.5" y1="939.4688" y2="939.4688"/><!--MD5=[9ac406c7416b14765acfa8d63d28b061]
class Stability--><rect codeLine="100" fill="#FEFECE" filter="url(#f1bwgvd1u1159s)" height="39.9688" id="Stability" style="stroke:#A80036;stroke-width:1.5;" width="53" x="2084.5" y="287"/><text fill="#000000" font-family="sans-serif" font-size="12" lengthAdjust="spacing" textLength="47" x="2087.5" y="303.1387">Stability</text><line style="stroke:#A80036;stroke-width:1.5;" x1="2085.5" x2="2136.5" y1="310.9688" y2="310.9688"/><line style="stroke:#A80036;stroke-width:1.5;" x1="2085.5" x2="2136.5" y1="318.9688" y2="318.9688"/><!--MD5=[a78031611904abe1e5cbb3fd0b6ea028]
class Meeting--><rect codeLine="102" fill="#FEFECE" filter="url(#f1bwgvd1u1159s)" height="39.9688" id="Meeting" style="stroke:#A80036;stroke-width:1.5;" width="54" x="1231" y="907.5"/><text fill="#000000" font-family="sans-serif" font-size="12" lengthAdjust="spacing" textLength="48" x="1234" y="923.6387">Meeting</text><line style="stroke:#A80036;stroke-width:1.5;" x1="1232" x2="1284" y1="931.4688" y2="931.4688"/><line style="stroke:#A80036;stroke-width:1.5;" x1="1232" x2="1284" y1="939.4688" y2="939.4688"/><!--MD5=[cf8fdaefc782a1097e8f7fd601adea66]
class People--><rect codeLine="104" fill="#FEFECE" filter="url(#f1bwgvd1u1159s)" height="39.9688" id="People" style="stroke:#A80036;stroke-width:1.5;" width="47" x="1565.5" y="449"/><text fill="#000000" font-family="sans-serif" font-size="12" lengthAdjust="spacing" textLength="41" x="1568.5" y="465.1387">People</text><line style="stroke:#A80036;stroke-width:1.5;" x1="1566.5" x2="1611.5" y1="472.9688" y2="472.9688"/><line style="stroke:#A80036;stroke-width:1.5;" x1="1566.5" x2="1611.5" y1="480.9688" y2="480.9688"/><!--MD5=[49d42632b649f116d5d2b66ad3e0f715]
class Discussion--><rect codeLine="106" fill="#FEFECE" filter="url(#f1bwgvd1u1159s)" height="39.9688" id="Discussion" style="stroke:#A80036;stroke-width:1.5;" width="71" x="1496.5" y="675"/><text fill="#000000" font-family="sans-serif" font-size="12" lengthAdjust="spacing" textLength="65" x="1499.5" y="691.1387">Discussion</text><line style="stroke:#A80036;stroke-width:1.5;" x1="1497.5" x2="1566.5" y1="698.9688" y2="698.9688"/><line style="stroke:#A80036;stroke-width:1.5;" x1="1497.5" x2="1566.5" y1="706.9688" y2="706.9688"/><!--MD5=[e968fe9e8e740779e8c23127dd7f26ea]
link Student to Name--><path codeLine="110" d="M848.241,707.752 C783.287,727.383 661.565,772.91 592,854 C580.317,867.618 574.007,886.99 570.65,902.284 " fill="none" id="Student-to-Name" style="stroke:#A80036;stroke-width:1.0;"/><polygon fill="#A80036" points="569.621,907.3,575.347,899.2867,570.6252,902.4019,567.5101,897.68,569.621,907.3" style="stroke:#A80036;stroke-width:1.0;"/><text fill="#000000" font-family="sans-serif" font-size="13" lengthAdjust="spacing" textLength="32" x="593" y="867.0669">have</text><!--MD5=[044e9f8f0bbc81bb88acbca0cee7930b]
link Student to Homework--><path codeLine="111" d="M848.386,708.478 C788.454,728.247 682.961,773.082 638,854 C629.552,869.205 635.312,888.218 642.781,902.958 " fill="none" id="Student-to-Homework" style="stroke:#A80036;stroke-width:1.0;"/><polygon fill="#A80036" points="645.14,907.387,644.4377,897.5632,642.7887,902.9744,637.3775,901.3253,645.14,907.387" style="stroke:#A80036;stroke-width:1.0;"/><text fill="#000000" font-family="sans-serif" font-size="13" lengthAdjust="spacing" textLength="34" x="639" y="867.0669">finish</text><!--MD5=[f10ef3b04be7ae3207bc6107e267fc29]
link Homework to Student--><path codeLine="134" d="M677.33,907.459 C713.691,871.642 793.225,793.297 844.611,742.68 " fill="none" id="Homework-to-Student" style="stroke:#A80036;stroke-width:1.0;"/><polygon fill="#A80036" points="848.261,739.085,839.0424,742.5517,844.6991,742.594,844.6568,748.2507,848.261,739.085" style="stroke:#A80036;stroke-width:1.0;"/><text fill="#000000" font-family="sans-serif" font-size="13" lengthAdjust="spacing" textLength="13" x="729" y="867.0669">to</text><!--MD5=[9d419e28e6a453de17836b09fd865dae]
link Admin to Post--><path codeLine="112" d="M1823.37,734.24 C1822.1,769.696 1820.73,823.918 1822,871 C1822.21,878.916 1822.6,887.46 1823.02,895.415 " fill="none" id="Admin-to-Post" style="stroke:#A80036;stroke-width:1.0;"/><polygon fill="#A80036" points="1823.32,900.814,1826.8143,891.6059,1823.0425,895.8217,1818.8267,892.0499,1823.32,900.814" style="stroke:#A80036;stroke-width:1.0;"/><text fill="#000000" font-family="sans-serif" font-size="13" lengthAdjust="spacing" textLength="40" x="1823" y="867.0669">delete</text><!--MD5=[9d419e28e6a453de17836b09fd865dae]
link Admin to Post--><path codeLine="150" d="M1846.79,734.108 C1864.37,769.939 1883.8,824.821 1868,871 C1864.87,880.147 1859.55,888.954 1853.7,896.752 " fill="none" id="Admin-to-Post-1" style="stroke:#A80036;stroke-width:1.0;"/><polygon fill="#A80036" points="1850.41,900.977,1859.0985,896.339,1853.4844,897.0339,1852.7896,891.4199,1850.41,900.977" style="stroke:#A80036;stroke-width:1.0;"/><text fill="#000000" font-family="sans-serif" font-size="13" lengthAdjust="spacing" textLength="39" x="1873" y="867.0669">notice</text><!--MD5=[ae2bd49475a38a02506cf2396ee48db4]
link Student to Answer--><path codeLine="113" d="M849.222,824.057 C839.223,853.987 829.615,882.751 823.138,902.139 " fill="none" id="Student-to-Answer" style="stroke:#A80036;stroke-width:1.0;"/><polygon fill="#A80036" points="821.397,907.352,828.0424,900.083,822.9811,902.6096,820.4545,897.5483,821.397,907.352" style="stroke:#A80036;stroke-width:1.0;"/><text fill="#000000" font-family="sans-serif" font-size="13" lengthAdjust="spacing" textLength="24" x="839" y="867.0669">find</text><!--MD5=[ae2bd49475a38a02506cf2396ee48db4]
link Student to Answer--><path codeLine="118" d="M848.297,740.795 C822.666,770.313 792.701,811.291 779,854 C773.476,871.22 782.602,889.448 793.046,903.319 " fill="none" id="Student-to-Answer-1" style="stroke:#A80036;stroke-width:1.0;"/><polygon fill="#A80036" points="796.315,907.478,793.8983,897.9302,793.2253,903.5469,787.6086,902.8738,796.315,907.478" style="stroke:#A80036;stroke-width:1.0;"/><text fill="#000000" font-family="sans-serif" font-size="13" lengthAdjust="spacing" textLength="45" x="780" y="867.0669">upvote</text><!--MD5=[17768eb088373ab4db3be895666c1b06]
link Student to Question--><path codeLine="114" d="M909.432,824.209 C912.925,840.143 917.077,856.07 922,871 C925.572,881.834 930.968,893.183 936.073,902.775 " fill="none" id="Student-to-Question" style="stroke:#A80036;stroke-width:1.0;"/><polygon fill="#A80036" points="938.546,907.333,937.7696,897.5148,936.1615,902.9382,930.738,901.3301,938.546,907.333" style="stroke:#A80036;stroke-width:1.0;"/><text fill="#000000" font-family="sans-serif" font-size="13" lengthAdjust="spacing" textLength="45" x="923" y="867.0669">upvote</text><!--MD5=[17768eb088373ab4db3be895666c1b06]
link Student to Question--><path codeLine="116" d="M935.586,763.612 C950.557,790.611 965.441,822.687 973,854 C976.981,870.492 971.173,888.69 964.399,902.729 " fill="none" id="Student-to-Question-1" style="stroke:#A80036;stroke-width:1.0;"/><polygon fill="#A80036" points="962.078,907.322,969.7078,901.0941,964.3335,902.8596,962.5679,897.4853,962.078,907.322" style="stroke:#A80036;stroke-width:1.0;"/><text fill="#000000" font-family="sans-serif" font-size="13" lengthAdjust="spacing" textLength="24" x="976" y="867.0669">find</text><!--MD5=[ff546ffb5c71ad99af99f528ed102e6d]
link Student to Class--><path codeLine="115" d="M848.342,715.495 C782.812,744.882 655.261,802.569 548,854 C505.057,874.591 455.533,899.636 426.89,914.251 " fill="none" id="Student-to-Class" style="stroke:#A80036;stroke-width:1.0;"/><polygon fill="#A80036" points="422.134,916.68,431.9686,916.1511,426.5874,914.4069,428.3316,909.0256,422.134,916.68" style="stroke:#A80036;stroke-width:1.0;"/><text fill="#000000" font-family="sans-serif" font-size="13" lengthAdjust="spacing" textLength="24" x="549" y="867.0669">add</text><!--MD5=[de88f60a8086017244e25d5b8e6b5edc]
link Maintainer to Stability--><path codeLine="117" d="M2067.53,120.593 C2077.84,164.585 2096.14,242.627 2105.36,281.944 " fill="none" id="Maintainer-to-Stability" style="stroke:#A80036;stroke-width:1.0;"/><polygon fill="#A80036" points="2106.54,286.999,2108.3813,277.3238,2105.3993,282.1308,2100.5923,279.1489,2106.54,286.999" style="stroke:#A80036;stroke-width:1.0;"/><text fill="#000000" font-family="sans-serif" font-size="13" lengthAdjust="spacing" textLength="50" x="2090" y="208.0669">monitor</text><!--MD5=[dc4d285a7a739d307cd7df7bd5caeecc]
link Student to Invitation--><path codeLine="119" d="M848.323,699.065 C709.277,709.817 281.24,750.899 199,854 C187.273,868.702 198.305,886.393 212.617,900.619 " fill="none" id="Student-to-Invitation" style="stroke:#A80036;stroke-width:1.0;"/><polygon fill="#A80036" points="216.315,904.157,212.5779,895.0447,212.7025,900.7002,207.047,900.8247,216.315,904.157" style="stroke:#A80036;stroke-width:1.0;"/><text fill="#000000" font-family="sans-serif" font-size="13" lengthAdjust="spacing" textLength="47" x="200" y="867.0669">receive</text><!--MD5=[dc4d285a7a739d307cd7df7bd5caeecc]
link Student to Invitation--><path codeLine="129" d="M848.235,701.56 C750.154,715.411 507.368,757.53 329,854 C308.366,865.16 288.458,882.26 273.314,897.051 " fill="none" id="Student-to-Invitation-1" style="stroke:#A80036;stroke-width:1.0;"/><polygon fill="#A80036" points="269.568,900.757,278.7788,897.2698,273.1221,897.2401,273.1518,891.5833,269.568,900.757" style="stroke:#A80036;stroke-width:1.0;"/><text fill="#000000" font-family="sans-serif" font-size="13" lengthAdjust="spacing" textLength="31" x="330" y="867.0669">send</text><!--MD5=[36c506f7328f13d0e0880c2756aa4e96]
link Invitation to Student--><path codeLine="138" d="M275.831,915.856 C378.352,879.275 716.885,758.483 843.577,713.278 " fill="none" id="Invitation-to-Student" style="stroke:#A80036;stroke-width:1.0;"/><polygon fill="#A80036" points="848.359,711.572,838.538,710.8317,843.6502,713.2535,841.2284,718.3657,848.359,711.572" style="stroke:#A80036;stroke-width:1.0;"/><text fill="#000000" font-family="sans-serif" font-size="13" lengthAdjust="spacing" textLength="13" x="438" y="867.0669">to</text><!--MD5=[8fd46e75f0e3376c0d00a2b2d2fdd7e0]
link Student to Post--><path codeLine="120" d="M935.617,710.108 C1038.86,743.003 1306.73,825.443 1536,871 C1639.27,891.521 1669.93,871.49 1771,901 C1778.75,903.262 1786.78,906.506 1794.2,909.926 " fill="none" id="Student-to-Post" style="stroke:#A80036;stroke-width:1.0;"/><polygon fill="#A80036" points="1798.73,912.071,1792.2919,904.6178,1794.2065,909.9408,1788.8835,911.8554,1798.73,912.071" style="stroke:#A80036;stroke-width:1.0;"/><text fill="#000000" font-family="sans-serif" font-size="13" lengthAdjust="spacing" textLength="30" x="1537" y="867.0669">view</text><!--MD5=[8fd46e75f0e3376c0d00a2b2d2fdd7e0]
link Student to Post--><path codeLine="143" d="M935.524,704.846 C1065.77,731.517 1450.94,811.893 1572,854 C1588.71,859.813 1591.16,865.575 1608,871 C1678.11,893.583 1700.89,878.417 1771,901 C1778.76,903.501 1786.86,906.873 1794.34,910.344 " fill="none" id="Student-to-Post-1" style="stroke:#A80036;stroke-width:1.0;"/><polygon fill="#A80036" points="1798.91,912.512,1792.4921,905.0414,1794.3923,910.3695,1789.0641,912.2698,1798.91,912.512" style="stroke:#A80036;stroke-width:1.0;"/><text fill="#000000" font-family="sans-serif" font-size="13" lengthAdjust="spacing" textLength="36" x="1609" y="867.0669">make</text><!--MD5=[d3a03ff06f50e5cf86ecb9973d0971c1]
link Teacher to RecordVideo--><path codeLine="121" d="M382.941,88.265 C307.265,90.457 154.897,106.406 73,195 C51.2592,218.519 47.446,256.884 47.5624,281.785 " fill="none" id="Teacher-to-RecordVideo" style="stroke:#A80036;stroke-width:1.0;"/><polygon fill="#A80036" points="47.6419,286.884,51.5,277.8223,47.5633,281.8846,43.501,277.948,47.6419,286.884" style="stroke:#A80036;stroke-width:1.0;"/><text fill="#000000" font-family="sans-serif" font-size="13" lengthAdjust="spacing" textLength="43" x="74" y="208.0669">upload</text><!--MD5=[b06c6fefa52bc26fcd8ce3c9ae26df26]
reverse link Student to Group--><path codeLine="122" d="M948.712,701.463 C1044.53,713.381 1240.1,749.613 1364,854 C1380.61,867.998 1391.25,890.932 1397.15,907.256 " fill="none" id="Student-backto-Group" style="stroke:#A80036;stroke-width:1.0;"/><polygon fill="#FFFFFF" points="935.595,699.907,941.082,704.5859,947.5115,701.3206,942.0244,696.6416,935.595,699.907" style="stroke:#A80036;stroke-width:1.0;"/><text fill="#000000" font-family="sans-serif" font-size="13" lengthAdjust="spacing" textLength="53" x="1380" y="867.0669">manage</text><!--MD5=[b06c6fefa52bc26fcd8ce3c9ae26df26]
reverse link Student to Group--><path codeLine="131" d="M947.54,721.053 C1059.24,771.436 1306.75,883.082 1381.32,916.721 " fill="none" id="Student-backto-Group-1" style="stroke:#A80036;stroke-width:1.0;"/><polygon fill="#FFFFFF" points="935.568,715.652,939.3924,721.7654,946.5065,720.5865,942.6821,714.4731,935.568,715.652" style="stroke:#A80036;stroke-width:1.0;"/><text fill="#000000" font-family="sans-serif" font-size="13" lengthAdjust="spacing" textLength="22" x="1281" y="867.0669">join</text><!--MD5=[b06162c3e815ddf24874693712f90128]
link Student to Meeting--><path codeLine="123" d="M935.757,723.317 C986.062,754.748 1071.08,807.957 1144,854 C1171.89,871.611 1203.54,891.751 1226.4,906.327 " fill="none" id="Student-to-Meeting" style="stroke:#A80036;stroke-width:1.0;"/><polygon fill="#A80036" points="1230.85,909.166,1225.4285,900.9437,1226.6395,906.4694,1221.1138,907.6804,1230.85,909.166" style="stroke:#A80036;stroke-width:1.0;"/><text fill="#000000" font-family="sans-serif" font-size="13" lengthAdjust="spacing" textLength="57" x="1171" y="867.0669">schedule</text><!--MD5=[7ec57714c5591fc9c2cda847a8a29960]
link Teacher to Homework--><path codeLine="124" d="M471.701,165.235 C490.829,205.776 509,257.144 509,306 C509,306 509,306 509,696 C509,778.97 522.394,806.033 574,871 C585.527,885.512 601.916,897.524 617.161,906.617 " fill="none" id="Teacher-to-Homework" style="stroke:#A80036;stroke-width:1.0;"/><polygon fill="#A80036" points="621.849,909.344,616.0814,901.3606,617.5273,906.8295,612.0583,908.2754,621.849,909.344" style="stroke:#A80036;stroke-width:1.0;"/><text fill="#000000" font-family="sans-serif" font-size="13" lengthAdjust="spacing" textLength="41" x="510" y="473.5669">assign</text><!--MD5=[522d9b76693d46577967195c51475153]
link Student to Status--><path codeLine="125" d="M935.701,754.836 C957.728,784.536 984.827,821.146 1009,854 C1021.06,870.389 1034.6,888.909 1044.97,903.128 " fill="none" id="Student-to-Status" style="stroke:#A80036;stroke-width:1.0;"/><polygon fill="#A80036" points="1048.08,907.396,1046.0107,897.767,1045.1346,903.3556,1039.546,902.4796,1048.08,907.396" style="stroke:#A80036;stroke-width:1.0;"/><text fill="#000000" font-family="sans-serif" font-size="13" lengthAdjust="spacing" textLength="37" x="1022" y="867.0669">check</text><!--MD5=[0ba6518923ac2c74aa2519515f99170d]
link User to People--><path codeLine="126" d="M1765.91,316.015 C1722.82,327.658 1650.36,353.377 1609,402 C1599.07,413.674 1594.07,430.175 1591.55,443.757 " fill="none" id="User-to-People" style="stroke:#A80036;stroke-width:1.0;"/><polygon fill="#A80036" points="1590.68,448.994,1596.1144,440.7802,1591.5076,444.063,1588.2248,439.4561,1590.68,448.994" style="stroke:#A80036;stroke-width:1.0;"/><text fill="#000000" font-family="sans-serif" font-size="13" lengthAdjust="spacing" textLength="35" x="1610" y="415.0669">invite</text><!--MD5=[63c43e72f8c9a8ca56afb6cd2e088dcf]
link Post to CollaborationNetwork--><path codeLine="127" d="M1825,954.267 C1825,975.3301 1825,1004.9042 1825,1025.5902 " fill="none" id="Post-to-CollaborationNetwork" style="stroke:#A80036;stroke-width:1.0;"/><polygon fill="#A80036" points="1825,1030.6472,1829,1021.6472,1825,1025.6472,1821,1021.6472,1825,1030.6472" style="stroke:#A80036;stroke-width:1.0;"/><text fill="#000000" font-family="sans-serif" font-size="13" lengthAdjust="spacing" textLength="36" x="1826" y="997.0669">make</text><!--MD5=[3257620dcc551b4c40ff4eb3eede46d9]
link Assignment to Student--><path codeLine="128" d="M1220.39,489.098 C1157.88,528.102 1015.14,617.168 940.108,663.983 " fill="none" id="Assignment-to-Student" style="stroke:#A80036;stroke-width:1.0;"/><polygon fill="#A80036" points="935.706,666.729,945.4589,665.3572,939.9477,664.0817,941.2232,658.5705,935.706,666.729" style="stroke:#A80036;stroke-width:1.0;"/><text fill="#000000" font-family="sans-serif" font-size="13" lengthAdjust="spacing" textLength="13" x="1166" y="532.0669">to</text><!--MD5=[b7a1afd53de9a98d68e75989ad8bae4e]
reverse link Discussion to Group--><path codeLine="130" d="M1522.92,727.825 C1511.57,764.392 1489.81,825.236 1459,871 C1449.52,885.08 1436.09,898.541 1424.75,908.68 " fill="none" id="Discussion-backto-Group" style="stroke:#A80036;stroke-width:1.0;"/><polygon fill="#FFFFFF" points="1526.76,715.081,1521.1988,719.6715,1523.2973,726.5705,1528.8585,721.98,1526.76,715.081" style="stroke:#A80036;stroke-width:1.0;"/><!--MD5=[b08a2dd312193edc881ffcbd67387b20]
reverse link Teacher to Class--><path codeLine="132" d="M378.739,177.41 C361.795,215.785 347,261.915 347,306 C347,306 347,306 347,696 C347,776.51 379.659,868.48 395.095,907.453 " fill="none" id="Teacher-backto-Class" style="stroke:#A80036;stroke-width:1.0;"/><polygon fill="#FFFFFF" points="384.299,165.235,378.1676,169.0305,379.3129,176.1501,385.4443,172.3546,384.299,165.235" style="stroke:#A80036;stroke-width:1.0;"/><text fill="#000000" font-family="sans-serif" font-size="13" lengthAdjust="spacing" textLength="41" x="348" y="473.5669">assign</text><!--MD5=[61ecb2673a3f96c9fba71b05a03b2447]
link User to Assignment--><path codeLine="133" d="M1765.76,318.252 C1669.02,346.394 1399.55,424.785 1294.1,455.463 " fill="none" id="User-to-Assignment" style="stroke:#A80036;stroke-width:1.0;"/><polygon fill="#A80036" points="1289.2,456.887,1298.9599,458.2078,1294.0001,455.4874,1296.7205,450.5276,1289.2,456.887" style="stroke:#A80036;stroke-width:1.0;"/><text fill="#000000" font-family="sans-serif" font-size="13" lengthAdjust="spacing" textLength="28" x="1478" y="415.0669">post</text><!--MD5=[47c019a4b740da3aaec03b482662a8c9]
reverse link Teacher to User--><path codeLine="135" d="M486.135,97.709 C719.061,134.608 1581.17,271.176 1765.97,300.452 " fill="none" id="Teacher-backto-User" style="stroke:#A80036;stroke-width:1.0;"/><polygon fill="#FFFFFF" points="473.291,95.675,478.5912,100.5646,485.1432,97.5528,479.843,92.6632,473.291,95.675" style="stroke:#A80036;stroke-width:1.0;"/><!--MD5=[77c575690b0287b9077f2f97ff7c450d]
link User to Post--><path codeLine="136" d="M1824.09,372.158 C1841.93,423.889 1866.03,498.83 1881,566 C1909.12,692.132 1912.09,725.079 1921,854 C1921.52,861.538 1924.78,864.456 1921,871 C1907.14,895.029 1878.46,909.592 1856.04,917.731 " fill="none" id="User-to-Post" style="stroke:#A80036;stroke-width:1.0;"/><polygon fill="#A80036" points="1851.07,919.469,1860.8847,920.2882,1855.7921,917.8254,1858.255,912.7328,1851.07,919.469" style="stroke:#A80036;stroke-width:1.0;"/><text fill="#000000" font-family="sans-serif" font-size="13" lengthAdjust="spacing" textLength="39" x="1875" y="532.0669">report</text><!--MD5=[77c575690b0287b9077f2f97ff7c450d]
link User to Post--><path codeLine="146" d="M1836.13,353.118 C1865.58,393.895 1905.53,456.881 1923,519 C1965.46,669.981 2033.09,739.251 1948,871 C1927.81,902.254 1885.34,916.089 1855.99,922.09 " fill="none" id="User-to-Post-1" style="stroke:#A80036;stroke-width:1.0;"/><polygon fill="#A80036" points="1851.04,923.055,1860.6392,925.2586,1855.9476,922.0981,1859.1081,917.4064,1851.04,923.055" style="stroke:#A80036;stroke-width:1.0;"/><text fill="#000000" font-family="sans-serif" font-size="13" lengthAdjust="spacing" textLength="53" x="1928" y="532.0669">mention</text><!--MD5=[77c575690b0287b9077f2f97ff7c450d]
link User to Post--><path codeLine="148" d="M1791.8,372.115 C1777.79,473.948 1751.97,679.046 1745,854 C1744.7,861.55 1741.5,864.306 1745,871 C1755.32,890.713 1776.17,904.827 1794,913.888 " fill="none" id="User-to-Post-2" style="stroke:#A80036;stroke-width:1.0;"/><polygon fill="#A80036" points="1798.94,916.31,1792.619,908.7572,1794.4503,914.1094,1789.0981,915.9408,1798.94,916.31" style="stroke:#A80036;stroke-width:1.0;"/><text fill="#000000" font-family="sans-serif" font-size="13" lengthAdjust="spacing" textLength="39" x="1775" y="532.0669">dislike</text><!--MD5=[62d60d2657533e49a0a1cbd9f193ca73]
link Student to StudyGroup--><path codeLine="137" d="M935.759,734.062 C991.412,782.47 1085.72,864.501 1131.1,903.968 " fill="none" id="Student-to-StudyGroup" style="stroke:#A80036;stroke-width:1.0;"/><polygon fill="#A80036" points="1135.07,907.423,1130.8907,898.5048,1131.2924,904.1474,1125.6498,904.5491,1135.07,907.423" style="stroke:#A80036;stroke-width:1.0;"/><text fill="#000000" font-family="sans-serif" font-size="13" lengthAdjust="spacing" textLength="41" x="1094" y="867.0669">create</text><!--MD5=[9c375f8aa17793347e253434e285154f]
link People to Discussion--><path codeLine="139" d="M1584.14,489.098 C1573.77,529.848 1549.5,625.241 1538.11,670.006 " fill="none" id="People-to-Discussion" style="stroke:#A80036;stroke-width:1.0;"/><polygon fill="#A80036" points="1536.85,674.95,1542.9413,667.2107,1538.0801,670.1037,1535.1871,665.2425,1536.85,674.95" style="stroke:#A80036;stroke-width:1.0;"/><text fill="#000000" font-family="sans-serif" font-size="13" lengthAdjust="spacing" textLength="13" x="1577" y="532.0669">to</text><!--MD5=[79775f38b7730f739d153c2a6dc73b44]
link Maintainer to TimeStatistic--><path codeLine="140" d="M2052.33,120.593 C2041.81,164.585 2023.15,242.627 2013.75,281.944 " fill="none" id="Maintainer-to-TimeStatistic" style="stroke:#A80036;stroke-width:1.0;"/><polygon fill="#A80036" points="2012.54,286.999,2018.5204,279.1737,2013.7009,282.1356,2010.739,277.3162,2012.54,286.999" style="stroke:#A80036;stroke-width:1.0;"/><text fill="#000000" font-family="sans-serif" font-size="13" lengthAdjust="spacing" textLength="23" x="2035" y="208.0669">see</text><!--MD5=[7d3bd5ffe7a3e735064f8f9dd300b0da]
link User to Performance--><path codeLine="141" d="M1836,325.946 C1865.45,340.351 1909.03,360.076 1949,372 C2023.78,394.309 2050.8,370.055 2122,402 C2145.07,412.352 2167.28,430.596 2182.91,445.283 " fill="none" id="User-to-Performance" style="stroke:#A80036;stroke-width:1.0;"/><polygon fill="#A80036" points="2186.74,448.933,2182.9957,439.8236,2183.1247,445.479,2177.4694,445.6081,2186.74,448.933" style="stroke:#A80036;stroke-width:1.0;"/><text fill="#000000" font-family="sans-serif" font-size="13" lengthAdjust="spacing" textLength="53" x="2150" y="415.0669">improve</text><!--MD5=[fb28115623b5b87491321614424ad816]
reverse link TeacherUser to User--><path codeLine="142" d="M1801,128.192 C1801,159.85 1801,204.826 1801,241.621 " fill="none" id="TeacherUser-backto-User" style="stroke:#A80036;stroke-width:1.0;"/><polygon fill="none" points="1794,127.802,1801,107.802,1808,127.802,1794,127.802" style="stroke:#A80036;stroke-width:1.0;"/><!--MD5=[26b37b438e26d48efdf64ad23e6fab4b]
link Teacher to Invitation--><path codeLine="144" d="M382.999,100.315 C302.919,124.364 144,187.071 144,306 C144,306 144,306 144,696 C144,776.091 146.618,801.834 187,871 C193.572,882.257 203.121,892.639 212.628,901.303 " fill="none" id="Teacher-to-Invitation" style="stroke:#A80036;stroke-width:1.0;"/><polygon fill="#A80036" points="216.405,904.661,212.3388,895.6907,212.6691,901.3379,207.0219,901.6682,216.405,904.661" style="stroke:#A80036;stroke-width:1.0;"/><text fill="#000000" font-family="sans-serif" font-size="13" lengthAdjust="spacing" textLength="31" x="145" y="473.5669">send</text><!--MD5=[c193d69033934650b8a94c1441c76782]
link Admin to Quality--><path codeLine="145" d="M1808.83,734.245 C1795.37,766.202 1775.76,813 1759,854 C1752.42,870.093 1745.16,888.258 1739.54,902.379 " fill="none" id="Admin-to-Quality" style="stroke:#A80036;stroke-width:1.0;"/><polygon fill="#A80036" points="1737.55,907.387,1744.5846,900.4939,1739.3922,902.7387,1737.1473,897.5464,1737.55,907.387" style="stroke:#A80036;stroke-width:1.0;"/><text fill="#000000" font-family="sans-serif" font-size="13" lengthAdjust="spacing" textLength="53" x="1760" y="867.0669">improve</text><!--MD5=[2126dce093f5cfa8a27fbaeca5d85891]
link User to Someone--><path codeLine="147" d="M1836.25,324.224 C1866.02,337.691 1909.93,356.997 1949,372 C1987.97,386.964 2003.16,379.012 2038,402 C2054.97,413.199 2070.16,430.452 2080.88,444.51 " fill="none" id="User-to-Someone" style="stroke:#A80036;stroke-width:1.0;"/><polygon fill="#A80036" points="2084.06,448.76,2081.8688,439.158,2081.0637,444.7573,2075.4644,443.9521,2084.06,448.76" style="stroke:#A80036;stroke-width:1.0;"/><text fill="#000000" font-family="sans-serif" font-size="13" lengthAdjust="spacing" textLength="53" x="2060" y="415.0669">mention</text><!--MD5=[865709c2a717b8c060882f6e08ecf5e9]
reverse link Teacher to Student--><path codeLine="149" d="M482.642,139.415 C500.016,156.501 518.89,176.042 535,195 C658.643,340.497 784.165,526.888 848.316,625.572 " fill="none" id="Teacher-backto-Student" style="stroke:#A80036;stroke-width:1.0;"/><polygon fill="#FFFFFF" points="473.172,130.195,474.6817,137.2463,481.7712,138.5648,480.2615,131.5135,473.172,130.195" style="stroke:#A80036;stroke-width:1.0;"/><text fill="#000000" font-family="sans-serif" font-size="13" lengthAdjust="spacing" textLength="48" x="706" y="415.0669">contact</text><!--MD5=[5025116029dc58143a6533882505b3e0]
@startuml
hide circle
class Student<actor> {
	group
}
class Teacher<actor> {
	time
	student
	class
}
class Parent<actor> {
}
class User<actor> {
}
class Maintainer<actor> {
}
class TeacherUser<actor> {
}
class Admin<actor> {
}
class Student {
	send()
	make()
	check()
	manage()
	talk()
	finish()
	upvote()
	have()
	schedule()
	view()
	add()
	create()
	join()
	receive()
	bookmark()
	find()
}
class Class {
}
class User {
	post()
	mention()
	report()
	bully()
	improve()
	dislike()
	invite()
}
class Someone {
}
class Name {
}
class Question {
}
class Teacher {
	send()
	see()
	check()
	assign()
	contact()
	upload()
}
class RecordVideo {
}
class Status {
}
class Group {
}
class Maintainer {
	monitor()
	see()
}
class TimeStatistic {
}
class Invitation {
	get()
}
class Post {
	make()
}
class Admin {
	delete()
	notice()
	improve()
}
class Answer {
}
class Homework {
}
class CollaborationNetwork {
}
class Assignment {
}
class StudyGroup {
}
class Performance {
}
class Quality {
}
class Stability {
}
class Meeting {
}
class People {
}
class Discussion {
}
class TeacherUser {
}
Student - -> Name : have
Student - -> Homework : finish
Admin - -> Post : delete
Student - -> Answer : find
Student - -> Question : upvote
Student - -> Class : add
Student - -> Question : find
Maintainer - -> Stability : monitor
Student - -> Answer : upvote
Student - -> Invitation : receive
Student - -> Post : view
Teacher - -> RecordVideo : upload
Student o- - Group : manage
Student - -> Meeting : schedule
Teacher - -> Homework : assign
Student - -> Status : check
User - -> People : invite
Post - -> CollaborationNetwork : make
Assignment - -> Student : to
Student - -> Invitation : send
Discussion o- - Group
Student o- - Group : join
Teacher o- - Class : assign
User - -> Assignment : post
Homework - -> Student : to
Teacher o- - User
User - -> Post : report
Student - -> StudyGroup : create
Invitation - -> Student : to
People - -> Discussion : to
Maintainer - -> TimeStatistic : see
User - -> Performance : improve
TeacherUser <|- - User
Student - -> Post : make
Teacher - -> Invitation : send
Admin - -> Quality : improve
User - -> Post : mention
User - -> Someone : mention
User - -> Post : dislike
Teacher o- - Student : contact
Admin - -> Post : notice
@enduml

PlantUML version 1.2021.10beta5(Unknown compile time)
(GPL source distribution)
Java Runtime: Java(TM) SE Runtime Environment
JVM: Java HotSpot(TM) 64-Bit Server VM
Default Encoding: UTF-8
Language: en
Country: US
--></g></svg>