<?xml version="1.0" encoding="UTF-8" standalone="no"?><svg xmlns="http://www.w3.org/2000/svg" xmlns:xlink="http://www.w3.org/1999/xlink" contentScriptType="application/ecmascript" contentStyleType="text/css" height="809px" preserveAspectRatio="none" style="width:1137px;height:809px;background:#FFFFFF;" version="1.1" viewBox="0 0 1137 809" width="1137px" zoomAndPan="magnify"><defs><filter height="300%" id="f161yy6evvlsm2" width="300%" x="-1" y="-1"><feGaussianBlur result="blurOut" stdDeviation="2.0"/><feColorMatrix in="blurOut" result="blurOut2" type="matrix" values="0 0 0 0 0 0 0 0 0 0 0 0 0 0 0 0 0 0 .4 0"/><feOffset dx="4.0" dy="4.0" in="blurOut2" result="blurOut3"/><feBlend in="SourceGraphic" in2="blurOut3" mode="normal"/></filter></defs><g><!--MD5=[3fd616f346a44cd59a91eb10b19e157c]
class User--><rect codeLine="31" fill="#FEFECE" filter="url(#f161yy6evvlsm2)" height="206.4297" id="User" style="stroke:#A80036;stroke-width:1.5;" width="98" x="412" y="359"/><text fill="#000000" font-family="sans-serif" font-size="12" lengthAdjust="spacing" textLength="29" x="429" y="375.1387">User</text><rect fill="#FFFFFF" height="15.9688" style="stroke:#000000;stroke-width:1.0;stroke-dasharray:2.0,2.0;" width="33" x="480" y="356"/><text fill="#000000" font-family="sans-serif" font-size="12" font-style="italic" lengthAdjust="spacing" textLength="31" x="481" y="368.1387">actor</text><line style="stroke:#A80036;stroke-width:1.5;" x1="413" x2="509" y1="382.9688" y2="382.9688"/><text fill="#000000" font-family="sans-serif" font-size="11" lengthAdjust="spacing" textLength="86" x="418" y="397.1792">progressReport</text><text fill="#000000" font-family="sans-serif" font-size="11" lengthAdjust="spacing" textLength="73" x="418" y="409.9839">performance</text><text fill="#000000" font-family="sans-serif" font-size="11" lengthAdjust="spacing" textLength="28" x="418" y="422.7886">point</text><line style="stroke:#A80036;stroke-width:1.5;" x1="413" x2="509" y1="429.3828" y2="429.3828"/><text fill="#000000" font-family="sans-serif" font-size="11" lengthAdjust="spacing" textLength="27" x="418" y="443.5933">get()</text><text fill="#000000" font-family="sans-serif" font-size="11" lengthAdjust="spacing" textLength="35" x="418" y="456.3979">track()</text><text fill="#000000" font-family="sans-serif" font-size="11" lengthAdjust="spacing" textLength="72" x="418" y="469.2026">understand()</text><text fill="#000000" font-family="sans-serif" font-size="11" lengthAdjust="spacing" textLength="32" x="418" y="482.0073">play()</text><text fill="#000000" font-family="sans-serif" font-size="11" lengthAdjust="spacing" textLength="31" x="418" y="494.812">rate()</text><text fill="#000000" font-family="sans-serif" font-size="11" lengthAdjust="spacing" textLength="35" x="418" y="507.6167">view()</text><text fill="#000000" font-family="sans-serif" font-size="11" lengthAdjust="spacing" textLength="37" x="418" y="520.4214">have()</text><text fill="#000000" font-family="sans-serif" font-size="11" lengthAdjust="spacing" textLength="30" x="418" y="533.2261">skip()</text><text fill="#000000" font-family="sans-serif" font-size="11" lengthAdjust="spacing" textLength="37" x="418" y="546.0308">show()</text><text fill="#000000" font-family="sans-serif" font-size="11" lengthAdjust="spacing" textLength="55" x="418" y="558.8354">proceed()</text><!--MD5=[d342058c8fb6f80e9d50d673c6908241]
class Developer--><rect codeLine="13" fill="#FEFECE" filter="url(#f161yy6evvlsm2)" height="142.4063" id="Developer" style="stroke:#A80036;stroke-width:1.5;" width="105" x="645.5" y="10"/><text fill="#000000" font-family="sans-serif" font-size="12" lengthAdjust="spacing" textLength="64" x="648.5" y="26.1387">Developer</text><rect fill="#FFFFFF" height="15.9688" style="stroke:#000000;stroke-width:1.0;stroke-dasharray:2.0,2.0;" width="33" x="720.5" y="7"/><text fill="#000000" font-family="sans-serif" font-size="12" font-style="italic" lengthAdjust="spacing" textLength="31" x="721.5" y="19.1387">actor</text><line style="stroke:#A80036;stroke-width:1.5;" x1="646.5" x2="749.5" y1="33.9688" y2="33.9688"/><line style="stroke:#A80036;stroke-width:1.5;" x1="646.5" x2="749.5" y1="41.9688" y2="41.9688"/><text fill="#000000" font-family="sans-serif" font-size="11" lengthAdjust="spacing" textLength="48" x="651.5" y="56.1792">publish()</text><text fill="#000000" font-family="sans-serif" font-size="11" lengthAdjust="spacing" textLength="36" x="651.5" y="68.9839">hand()</text><text fill="#000000" font-family="sans-serif" font-size="11" lengthAdjust="spacing" textLength="22" x="651.5" y="81.7886">fix()</text><text fill="#000000" font-family="sans-serif" font-size="11" lengthAdjust="spacing" textLength="70" x="651.5" y="94.5933">restructure()</text><text fill="#000000" font-family="sans-serif" font-size="11" lengthAdjust="spacing" textLength="57" x="651.5" y="107.3979">hand_off()</text><text fill="#000000" font-family="sans-serif" font-size="11" lengthAdjust="spacing" textLength="51" x="651.5" y="120.2026">provide()</text><text fill="#000000" font-family="sans-serif" font-size="11" lengthAdjust="spacing" textLength="33" x="651.5" y="133.0073">give()</text><text fill="#000000" font-family="sans-serif" font-size="11" lengthAdjust="spacing" textLength="50" x="651.5" y="145.812">change()</text><!--MD5=[15c6922f6693225acd2805a9f7199676]
class Maintainer--><rect codeLine="45" fill="#FEFECE" filter="url(#f161yy6evvlsm2)" height="52.7734" id="Maintainer" style="stroke:#A80036;stroke-width:1.5;" width="102" x="7" y="435.5"/><text fill="#000000" font-family="sans-serif" font-size="12" lengthAdjust="spacing" textLength="61" x="10" y="451.6387">Maintainer</text><rect fill="#FFFFFF" height="15.9688" style="stroke:#000000;stroke-width:1.0;stroke-dasharray:2.0,2.0;" width="33" x="79" y="432.5"/><text fill="#000000" font-family="sans-serif" font-size="12" font-style="italic" lengthAdjust="spacing" textLength="31" x="80" y="444.6387">actor</text><line style="stroke:#A80036;stroke-width:1.5;" x1="8" x2="108" y1="459.4688" y2="459.4688"/><line style="stroke:#A80036;stroke-width:1.5;" x1="8" x2="108" y1="467.4688" y2="467.4688"/><text fill="#000000" font-family="sans-serif" font-size="11" lengthAdjust="spacing" textLength="27" x="13" y="481.6792">get()</text><!--MD5=[e4460efd977c3af4b4cb6b09b781f305]
class Analytic--><rect codeLine="11" fill="#FEFECE" filter="url(#f161yy6evvlsm2)" height="39.9688" id="Analytic" style="stroke:#A80036;stroke-width:1.5;" width="52" x="84" y="648.5"/><text fill="#000000" font-family="sans-serif" font-size="12" lengthAdjust="spacing" textLength="46" x="87" y="664.6387">Analytic</text><line style="stroke:#A80036;stroke-width:1.5;" x1="85" x2="135" y1="672.4688" y2="672.4688"/><line style="stroke:#A80036;stroke-width:1.5;" x1="85" x2="135" y1="680.4688" y2="680.4688"/><!--MD5=[b07065dfc0d0e09965ec10bfc328bb3e]
class Option--><rect codeLine="23" fill="#FEFECE" filter="url(#f161yy6evvlsm2)" height="52.7734" id="Option" style="stroke:#A80036;stroke-width:1.5;" width="60" x="431" y="229"/><text fill="#000000" font-family="sans-serif" font-size="12" lengthAdjust="spacing" textLength="40" x="441" y="245.1387">Option</text><line style="stroke:#A80036;stroke-width:1.5;" x1="432" x2="490" y1="252.9688" y2="252.9688"/><line style="stroke:#A80036;stroke-width:1.5;" x1="432" x2="490" y1="260.9688" y2="260.9688"/><text fill="#000000" font-family="sans-serif" font-size="11" lengthAdjust="spacing" textLength="48" x="437" y="275.1792">enable()</text><!--MD5=[2e42295458bb0bec21c9622a623eb29e]
class Time--><rect codeLine="26" fill="#FEFECE" filter="url(#f161yy6evvlsm2)" height="52.7734" id="Time" style="stroke:#A80036;stroke-width:1.5;" width="35" x="636.5" y="229"/><text fill="#000000" font-family="sans-serif" font-size="12" lengthAdjust="spacing" textLength="29" x="639.5" y="245.1387">Time</text><line style="stroke:#A80036;stroke-width:1.5;" x1="637.5" x2="670.5" y1="252.9688" y2="252.9688"/><line style="stroke:#A80036;stroke-width:1.5;" x1="637.5" x2="670.5" y1="260.9688" y2="260.9688"/><text fill="#000000" font-family="sans-serif" font-size="11" lengthAdjust="spacing" textLength="22" x="642.5" y="275.1792">fix()</text><!--MD5=[79d378210367c0c6ec62ef762ddfbd1b]
class Project--><rect codeLine="29" fill="#FEFECE" filter="url(#f161yy6evvlsm2)" height="39.9688" id="Project" style="stroke:#A80036;stroke-width:1.5;" width="47" x="527.5" y="235.5"/><text fill="#000000" font-family="sans-serif" font-size="12" lengthAdjust="spacing" textLength="41" x="530.5" y="251.6387">Project</text><line style="stroke:#A80036;stroke-width:1.5;" x1="528.5" x2="573.5" y1="259.4688" y2="259.4688"/><line style="stroke:#A80036;stroke-width:1.5;" x1="528.5" x2="573.5" y1="267.4688" y2="267.4688"/><!--MD5=[1f3313e11f52906bc19153de0f738949]
class Hint--><rect codeLine="43" fill="#FEFECE" filter="url(#f161yy6evvlsm2)" height="39.9688" id="Hint" style="stroke:#A80036;stroke-width:1.5;" width="29" x="676.5" y="648.5"/><text fill="#000000" font-family="sans-serif" font-size="12" lengthAdjust="spacing" textLength="23" x="679.5" y="664.6387">Hint</text><line style="stroke:#A80036;stroke-width:1.5;" x1="677.5" x2="704.5" y1="672.4688" y2="672.4688"/><line style="stroke:#A80036;stroke-width:1.5;" x1="677.5" x2="704.5" y1="680.4688" y2="680.4688"/><!--MD5=[fc7123defb831ecdd44b2d9bcef6cceb]
class Question--><rect codeLine="48" fill="#FEFECE" filter="url(#f161yy6evvlsm2)" height="52.7734" id="Question" style="stroke:#A80036;stroke-width:1.5;" width="61" x="765.5" y="642"/><text fill="#000000" font-family="sans-serif" font-size="12" lengthAdjust="spacing" textLength="54" x="769" y="658.1387">Question</text><line style="stroke:#A80036;stroke-width:1.5;" x1="766.5" x2="825.5" y1="665.9688" y2="665.9688"/><line style="stroke:#A80036;stroke-width:1.5;" x1="766.5" x2="825.5" y1="673.9688" y2="673.9688"/><text fill="#000000" font-family="sans-serif" font-size="11" lengthAdjust="spacing" textLength="49" x="771.5" y="688.1792">answer()</text><!--MD5=[335f4d9be48430461c68bf6d6fdba145]
class App--><rect codeLine="51" fill="#FEFECE" filter="url(#f161yy6evvlsm2)" height="39.9688" id="App" style="stroke:#A80036;stroke-width:1.5;" width="30" x="222" y="648.5"/><text fill="#000000" font-family="sans-serif" font-size="12" lengthAdjust="spacing" textLength="24" x="225" y="664.6387">App</text><line style="stroke:#A80036;stroke-width:1.5;" x1="223" x2="251" y1="672.4688" y2="672.4688"/><line style="stroke:#A80036;stroke-width:1.5;" x1="223" x2="251" y1="680.4688" y2="680.4688"/><!--MD5=[df76e760f2062188d44f98c21a88999b]
class UI--><rect codeLine="53" fill="#FEFECE" filter="url(#f161yy6evvlsm2)" height="52.7734" id="UI" style="stroke:#A80036;stroke-width:1.5;" width="52" x="707" y="229"/><text fill="#000000" font-family="sans-serif" font-size="12" lengthAdjust="spacing" textLength="12" x="727" y="245.1387">UI</text><line style="stroke:#A80036;stroke-width:1.5;" x1="708" x2="758" y1="252.9688" y2="252.9688"/><line style="stroke:#A80036;stroke-width:1.5;" x1="708" x2="758" y1="260.9688" y2="260.9688"/><text fill="#000000" font-family="sans-serif" font-size="11" lengthAdjust="spacing" textLength="40" x="713" y="275.1792">make()</text><!--MD5=[1a502b0dbedafd291c48f46ef8646183]
class Feedback--><rect codeLine="56" fill="#FEFECE" filter="url(#f161yy6evvlsm2)" height="39.9688" id="Feedback" style="stroke:#A80036;stroke-width:1.5;" width="66" x="287" y="648.5"/><text fill="#000000" font-family="sans-serif" font-size="12" lengthAdjust="spacing" textLength="60" x="290" y="664.6387">Feedback</text><line style="stroke:#A80036;stroke-width:1.5;" x1="288" x2="352" y1="672.4688" y2="672.4688"/><line style="stroke:#A80036;stroke-width:1.5;" x1="288" x2="352" y1="680.4688" y2="680.4688"/><!--MD5=[dd430f8ffb90486aebcb09d1b4424d44]
class SourceCode--><rect codeLine="58" fill="#FEFECE" filter="url(#f161yy6evvlsm2)" height="39.9688" id="SourceCode" style="stroke:#A80036;stroke-width:1.5;" width="81" x="861.5" y="235.5"/><text fill="#000000" font-family="sans-serif" font-size="12" lengthAdjust="spacing" textLength="75" x="864.5" y="251.6387">SourceCode</text><line style="stroke:#A80036;stroke-width:1.5;" x1="862.5" x2="941.5" y1="259.4688" y2="259.4688"/><line style="stroke:#A80036;stroke-width:1.5;" x1="862.5" x2="941.5" y1="267.4688" y2="267.4688"/><!--MD5=[4e13963c9dc916a21a8436ef39422b32]
class Component--><rect codeLine="60" fill="#FEFECE" filter="url(#f161yy6evvlsm2)" height="52.7734" id="Component" style="stroke:#A80036;stroke-width:1.5;" width="75" x="1048.5" y="54.5"/><text fill="#000000" font-family="sans-serif" font-size="12" lengthAdjust="spacing" textLength="69" x="1051.5" y="70.6387">Component</text><line style="stroke:#A80036;stroke-width:1.5;" x1="1049.5" x2="1122.5" y1="78.4688" y2="78.4688"/><line style="stroke:#A80036;stroke-width:1.5;" x1="1049.5" x2="1122.5" y1="86.4688" y2="86.4688"/><text fill="#000000" font-family="sans-serif" font-size="11" lengthAdjust="spacing" textLength="37" x="1054.5" y="100.6792">have()</text><!--MD5=[3915787db80ab162e3259f8f86339844]
class Structure--><rect codeLine="63" fill="#FEFECE" filter="url(#f161yy6evvlsm2)" height="39.9688" id="Structure" style="stroke:#A80036;stroke-width:1.5;" width="61" x="1055.5" y="235.5"/><text fill="#000000" font-family="sans-serif" font-size="12" lengthAdjust="spacing" textLength="55" x="1058.5" y="251.6387">Structure</text><line style="stroke:#A80036;stroke-width:1.5;" x1="1056.5" x2="1115.5" y1="259.4688" y2="259.4688"/><line style="stroke:#A80036;stroke-width:1.5;" x1="1056.5" x2="1115.5" y1="267.4688" y2="267.4688"/><!--MD5=[81ad4a850856c06a34e54cc318689887]
class Bug--><rect codeLine="65" fill="#FEFECE" filter="url(#f161yy6evvlsm2)" height="39.9688" id="Bug" style="stroke:#A80036;stroke-width:1.5;" width="29" x="639.5" y="442"/><text fill="#000000" font-family="sans-serif" font-size="12" lengthAdjust="spacing" textLength="23" x="642.5" y="458.1387">Bug</text><line style="stroke:#A80036;stroke-width:1.5;" x1="640.5" x2="667.5" y1="465.9688" y2="465.9688"/><line style="stroke:#A80036;stroke-width:1.5;" x1="640.5" x2="667.5" y1="473.9688" y2="473.9688"/><!--MD5=[f33202a4358b6dc53d5337ad154687fb]
class Progress--><rect codeLine="67" fill="#FEFECE" filter="url(#f161yy6evvlsm2)" height="39.9688" id="Progress" style="stroke:#A80036;stroke-width:1.5;" width="60" x="388" y="648.5"/><text fill="#000000" font-family="sans-serif" font-size="12" lengthAdjust="spacing" textLength="54" x="391" y="664.6387">Progress</text><line style="stroke:#A80036;stroke-width:1.5;" x1="389" x2="447" y1="672.4688" y2="672.4688"/><line style="stroke:#A80036;stroke-width:1.5;" x1="389" x2="447" y1="680.4688" y2="680.4688"/><!--MD5=[f00dbe8c0302c6aec2cb26b3c659c8fc]
class Report--><rect codeLine="69" fill="#FEFECE" filter="url(#f161yy6evvlsm2)" height="39.9688" id="Report" style="stroke:#A80036;stroke-width:1.5;" width="46" x="460" y="756"/><text fill="#000000" font-family="sans-serif" font-size="12" lengthAdjust="spacing" textLength="40" x="463" y="772.1387">Report</text><line style="stroke:#A80036;stroke-width:1.5;" x1="461" x2="505" y1="779.9688" y2="779.9688"/><line style="stroke:#A80036;stroke-width:1.5;" x1="461" x2="505" y1="787.9688" y2="787.9688"/><!--MD5=[706e73df52f3df32f52be1ce9adb217e]
class Graph--><rect codeLine="71" fill="#FEFECE" filter="url(#f161yy6evvlsm2)" height="39.9688" id="Graph" style="stroke:#A80036;stroke-width:1.5;" width="42" x="978" y="235.5"/><text fill="#000000" font-family="sans-serif" font-size="12" lengthAdjust="spacing" textLength="36" x="981" y="251.6387">Graph</text><line style="stroke:#A80036;stroke-width:1.5;" x1="979" x2="1019" y1="259.4688" y2="259.4688"/><line style="stroke:#A80036;stroke-width:1.5;" x1="979" x2="1019" y1="267.4688" y2="267.4688"/><!--MD5=[972bde5337b4335dd91fa5354c932445]
class Point--><rect codeLine="73" fill="#FEFECE" filter="url(#f161yy6evvlsm2)" height="39.9688" id="Point" style="stroke:#A80036;stroke-width:1.5;" width="34" x="585" y="648.5"/><text fill="#000000" font-family="sans-serif" font-size="12" lengthAdjust="spacing" textLength="28" x="588" y="664.6387">Point</text><line style="stroke:#A80036;stroke-width:1.5;" x1="586" x2="618" y1="672.4688" y2="672.4688"/><line style="stroke:#A80036;stroke-width:1.5;" x1="586" x2="618" y1="680.4688" y2="680.4688"/><!--MD5=[5e8081d071cf4e3ed9326b3d1ff1f1b8]
class Trouble--><rect codeLine="75" fill="#FEFECE" filter="url(#f161yy6evvlsm2)" height="52.7734" id="Trouble" style="stroke:#A80036;stroke-width:1.5;" width="61" x="790.5" y="435.5"/><text fill="#000000" font-family="sans-serif" font-size="12" lengthAdjust="spacing" textLength="46" x="798" y="451.6387">Trouble</text><line style="stroke:#A80036;stroke-width:1.5;" x1="791.5" x2="850.5" y1="459.4688" y2="459.4688"/><line style="stroke:#A80036;stroke-width:1.5;" x1="791.5" x2="850.5" y1="467.4688" y2="467.4688"/><text fill="#000000" font-family="sans-serif" font-size="11" lengthAdjust="spacing" textLength="49" x="796.5" y="481.6792">answer()</text><!--MD5=[ed6624c6556d5e7b1bd23032162d20b7]
class Client--><rect codeLine="78" fill="#FEFECE" filter="url(#f161yy6evvlsm2)" height="39.9688" id="Client" style="stroke:#A80036;stroke-width:1.5;" width="39" x="886.5" y="442"/><text fill="#000000" font-family="sans-serif" font-size="12" lengthAdjust="spacing" textLength="33" x="889.5" y="458.1387">Client</text><line style="stroke:#A80036;stroke-width:1.5;" x1="887.5" x2="924.5" y1="465.9688" y2="465.9688"/><line style="stroke:#A80036;stroke-width:1.5;" x1="887.5" x2="924.5" y1="473.9688" y2="473.9688"/><!--MD5=[0214f9738810ef8e203a2a515b7b8642]
link User to App--><path codeLine="80" d="M411.924,482.766 C365.619,503.871 297.565,541.648 258,595 C247.551,609.09 242.287,628.269 239.644,643.362 " fill="none" id="User-to-App" style="stroke:#A80036;stroke-width:1.0;"/><polygon fill="#A80036" points="238.844,648.31,244.2301,640.0644,239.6426,643.3742,236.3328,638.7867,238.844,648.31" style="stroke:#A80036;stroke-width:1.0;"/><text fill="#000000" font-family="sans-serif" font-size="13" lengthAdjust="spacing" textLength="27" x="259" y="608.0669">play</text><!--MD5=[0214f9738810ef8e203a2a515b7b8642]
link User to App--><path codeLine="86" d="M411.842,507.878 C362.835,552.619 290.095,619.027 255.97,650.181 " fill="none" id="User-to-App-1" style="stroke:#A80036;stroke-width:1.0;"/><polygon fill="#A80036" points="252.004,653.802,261.3476,650.6879,255.6966,650.4308,255.9537,644.7798,252.004,653.802" style="stroke:#A80036;stroke-width:1.0;"/><text fill="#000000" font-family="sans-serif" font-size="13" lengthAdjust="spacing" textLength="26" x="317" y="608.0669">rate</text><!--MD5=[2fe1c587fc2f8c4cb04fff5c0ebe3941]
link Developer to Time--><path codeLine="81" d="M680.104,152.162 C673.743,177.099 666.908,203.896 661.828,223.812 " fill="none" id="Developer-to-Time" style="stroke:#A80036;stroke-width:1.0;"/><polygon fill="#A80036" points="660.575,228.722,666.6754,220.9899,661.8109,223.8771,658.9237,219.0126,660.575,228.722" style="stroke:#A80036;stroke-width:1.0;"/><text fill="#000000" font-family="sans-serif" font-size="13" lengthAdjust="spacing" textLength="27" x="674" y="195.0669">give</text><!--MD5=[5b66dd66451f01e9d7836fb8e284c875]
link Developer to App--><path codeLine="82" d="M645.395,96.885 C582.398,117.178 477.343,159.212 413,229 C291.168,361.141 284.982,420.731 241,595 C237.016,610.784 236.034,629.093 236.039,643.363 " fill="none" id="Developer-to-App" style="stroke:#A80036;stroke-width:1.0;"/><polygon fill="#A80036" points="236.081,648.425,240.0063,639.3922,236.0396,643.4252,232.0066,639.4585,236.081,648.425" style="stroke:#A80036;stroke-width:1.0;"/><text fill="#000000" font-family="sans-serif" font-size="13" lengthAdjust="spacing" textLength="45" x="345" y="325.0669">publish</text><!--MD5=[42901561eebdb1422153f9267609e171]
link Developer to Graph--><path codeLine="83" d="M750.602,96.926 C800.787,112.797 876.973,141.258 934,182 C952.985,195.564 970.393,215.576 982.406,231.141 " fill="none" id="Developer-to-Graph" style="stroke:#A80036;stroke-width:1.0;"/><polygon fill="#A80036" points="985.648,235.404,983.3833,225.8191,982.6211,231.4243,977.0158,230.6621,985.648,235.404" style="stroke:#A80036;stroke-width:1.0;"/><text fill="#000000" font-family="sans-serif" font-size="13" lengthAdjust="spacing" textLength="16" x="954" y="195.0669">fix</text><!--MD5=[89a729879333f4a514a72f7623177c63]
link User to Question--><path codeLine="84" d="M510.289,496.829 C541.603,517.661 583.375,544.256 622,565 C650.744,580.437 660.498,579.122 689,595 C713.889,608.865 740.41,626.811 760.822,641.379 " fill="none" id="User-to-Question" style="stroke:#A80036;stroke-width:1.0;"/><polygon fill="#A80036" points="765.083,644.434,760.1013,635.938,761.0201,641.5197,755.4384,642.4386,765.083,644.434" style="stroke:#A80036;stroke-width:1.0;"/><text fill="#000000" font-family="sans-serif" font-size="13" lengthAdjust="spacing" textLength="25" x="718" y="608.0669">skip</text><!--MD5=[6fc93ce37a31dca4e1dfcd246bfad8b2]
link Maintainer to Analytic--><path codeLine="85" d="M64.5858,488.9 C74.7339,528.809 94.0495,604.772 103.8973,643.5 " fill="none" id="Maintainer-to-Analytic" style="stroke:#A80036;stroke-width:1.0;"/><polygon fill="#A80036" points="105.1649,648.485,106.825,638.7771,103.9334,643.639,99.0714,640.7474,105.1649,648.485" style="stroke:#A80036;stroke-width:1.0;"/><text fill="#000000" font-family="sans-serif" font-size="13" lengthAdjust="spacing" textLength="21" x="96" y="608.0669">get</text><!--MD5=[67edb1c21979ec7637c3149d05d6dea3]
reverse link User to Point--><path codeLine="87" d="M517.763,545.327 C543.89,583.22 572.635,624.911 588.885,648.479 " fill="none" id="User-backto-Point" style="stroke:#A80036;stroke-width:1.0;"/><polygon fill="#FFFFFF" points="510.117,534.237,510.2293,541.4472,516.9281,544.1167,516.8158,536.9065,510.117,534.237" style="stroke:#A80036;stroke-width:1.0;"/><text fill="#000000" font-family="sans-serif" font-size="13" lengthAdjust="spacing" textLength="73" x="562" y="608.0669">understand</text><!--MD5=[93196170f575658f6b657efa6b030057]
link Trouble to Question--><path codeLine="88" d="M817.834,488.9 C813.232,526.546 804.707,596.273 799.782,636.567 " fill="none" id="Trouble-to-Question" style="stroke:#A80036;stroke-width:1.0;"/><polygon fill="#A80036" points="799.141,641.81,804.2043,633.3623,799.7482,636.847,796.2635,632.3909,799.141,641.81" style="stroke:#A80036;stroke-width:1.0;"/><text fill="#000000" font-family="sans-serif" font-size="13" lengthAdjust="spacing" textLength="47" x="806" y="608.0669">answer</text><!--MD5=[1dc185d8c1d57b06fc612f0c8298ed3e]
link Developer to UI--><path codeLine="89" d="M712.236,152.162 C717.295,177.099 722.733,203.896 726.773,223.812 " fill="none" id="Developer-to-UI" style="stroke:#A80036;stroke-width:1.0;"/><polygon fill="#A80036" points="727.77,228.722,729.9003,219.1063,726.7757,223.8219,722.0601,220.6972,727.77,228.722" style="stroke:#A80036;stroke-width:1.0;"/><text fill="#000000" font-family="sans-serif" font-size="13" lengthAdjust="spacing" textLength="47" x="723" y="195.0669">change</text><!--MD5=[0cfaacdf40786d36b81ef07f701a116c]
link Option to User--><path codeLine="90" d="M461,282.4 C461,300.839 461,326.974 461,353.577 " fill="none" id="Option-to-User" style="stroke:#A80036;stroke-width:1.0;"/><polygon fill="#A80036" points="461,358.902,465,349.902,461,353.902,457,349.902,461,358.902" style="stroke:#A80036;stroke-width:1.0;"/><text fill="#000000" font-family="sans-serif" font-size="13" lengthAdjust="spacing" textLength="43" x="462" y="325.0669">enable</text><!--MD5=[034163ecfd4580692d4a5b183bbb24d9]
reverse link User to Analytic--><path codeLine="91" d="M400.314,498.357 C322.711,543.57 191.736,619.879 136.176,652.249 " fill="none" id="User-backto-Analytic" style="stroke:#A80036;stroke-width:1.0;"/><polygon fill="#FFFFFF" points="411.825,491.65,404.6271,491.2142,401.4564,497.6908,408.6543,498.1266,411.825,491.65" style="stroke:#A80036;stroke-width:1.0;"/><!--MD5=[f3af3e4376504b99e4d7659058753524]
link User to Feedback--><path codeLine="92" d="M411.891,535.119 C395.172,559.57 376.33,587.014 359,612 C351.659,622.584 343.472,634.255 336.502,644.152 " fill="none" id="User-to-Feedback" style="stroke:#A80036;stroke-width:1.0;"/><polygon fill="#A80036" points="333.595,648.277,342.0489,643.2241,336.475,644.1898,335.5093,638.616,333.595,648.277" style="stroke:#A80036;stroke-width:1.0;"/><text fill="#000000" font-family="sans-serif" font-size="13" lengthAdjust="spacing" textLength="21" x="372" y="608.0669">get</text><!--MD5=[603227f654d90511a7b1968648ca81d2]
link SourceCode to Client--><path codeLine="93" d="M902.376,275.739 C903.109,313.212 904.727,395.899 905.529,436.932 " fill="none" id="SourceCode-to-Client" style="stroke:#A80036;stroke-width:1.0;"/><polygon fill="#A80036" points="905.628,441.961,909.4524,432.885,905.5308,436.9619,901.4539,433.0404,905.628,441.961" style="stroke:#A80036;stroke-width:1.0;"/><text fill="#000000" font-family="sans-serif" font-size="13" lengthAdjust="spacing" textLength="13" x="905" y="325.0669">to</text><!--MD5=[63b8d0e8784646f572f6d4b2ac285ae4]
link Developer to Project--><path codeLine="94" d="M645.228,123.098 C625.71,139.971 604.374,160.569 588,182 C576.669,196.83 567.182,215.654 560.652,230.405 " fill="none" id="Developer-to-Project" style="stroke:#A80036;stroke-width:1.0;"/><polygon fill="#A80036" points="558.552,235.239,565.8059,228.5771,560.5436,230.6528,558.468,225.3905,558.552,235.239" style="stroke:#A80036;stroke-width:1.0;"/><text fill="#000000" font-family="sans-serif" font-size="13" lengthAdjust="spacing" textLength="71" x="589" y="195.0669">restructure</text><!--MD5=[4191b4b8ff707877f522bab8020e7a55]
link Developer to SourceCode--><path codeLine="95" d="M750.602,136.87 C771.181,157.247 795.464,180.006 819,199 C833.792,210.937 851.141,222.831 866.142,232.529 " fill="none" id="Developer-to-SourceCode" style="stroke:#A80036;stroke-width:1.0;"/><polygon fill="#A80036" points="870.717,235.465,865.3018,227.2385,866.5086,232.7651,860.982,233.9719,870.717,235.465" style="stroke:#A80036;stroke-width:1.0;"/><text fill="#000000" font-family="sans-serif" font-size="13" lengthAdjust="spacing" textLength="57" x="820" y="195.0669">hand_off</text><!--MD5=[4191b4b8ff707877f522bab8020e7a55]
link Developer to SourceCode--><path codeLine="97" d="M750.748,97.876 C792.27,113.021 848.54,139.859 882,182 C892.942,195.781 897.906,215.144 900.154,230.393 " fill="none" id="Developer-to-SourceCode-1" style="stroke:#A80036;stroke-width:1.0;"/><polygon fill="#A80036" points="900.817,235.393,903.5992,225.9453,900.1597,230.4364,895.6686,226.9969,900.817,235.393" style="stroke:#A80036;stroke-width:1.0;"/><text fill="#000000" font-family="sans-serif" font-size="13" lengthAdjust="spacing" textLength="32" x="893" y="195.0669">hand</text><!--MD5=[d64c8caeb6ffbf982c30d70e9c949b11]
reverse link Progress to Report--><path codeLine="96" d="M436.762,699.9519 C447.851,717.9498 461.554,740.1921 471.154,755.7723 " fill="none" id="Progress-backto-Report" style="stroke:#A80036;stroke-width:1.0;"/><polygon fill="#FFFFFF" points="429.922,688.85,429.6636,696.0565,436.2163,699.0667,436.4747,691.8602,429.922,688.85" style="stroke:#A80036;stroke-width:1.0;"/><!--MD5=[303c9b9d3701436fb42aa14a6cb527a8]
link User to Hint--><path codeLine="98" d="M510.289,491.477 C549.488,515.696 604.171,553.14 644,595 C657.868,609.576 670.106,628.779 678.615,643.761 " fill="none" id="User-to-Hint" style="stroke:#A80036;stroke-width:1.0;"/><polygon fill="#A80036" points="681.134,648.264,680.231,638.4566,678.6929,643.9004,673.2492,642.3623,681.134,648.264" style="stroke:#A80036;stroke-width:1.0;"/><text fill="#000000" font-family="sans-serif" font-size="13" lengthAdjust="spacing" textLength="21" x="659" y="608.0669">get</text><!--MD5=[2dbf9e6a4222adaace334fcdf6ab9817]
link Component to Structure--><path codeLine="99" d="M1086,107.825 C1086,140.876 1086,197.718 1086,230.079 " fill="none" id="Component-to-Structure" style="stroke:#A80036;stroke-width:1.0;"/><polygon fill="#A80036" points="1086,235.44,1090,226.44,1086,230.44,1082,226.44,1086,235.44" style="stroke:#A80036;stroke-width:1.0;"/><text fill="#000000" font-family="sans-serif" font-size="13" lengthAdjust="spacing" textLength="32" x="1087" y="195.0669">have</text><!--MD5=[0f2b107178a2598f77e5330def82e0f2]
link Time to Bug--><path codeLine="100" d="M654,282.4 C654,322.146 654,397.652 654,436.524 " fill="none" id="Time-to-Bug" style="stroke:#A80036;stroke-width:1.0;"/><polygon fill="#A80036" points="654,441.985,658,432.985,654,436.985,650,432.985,654,441.985" style="stroke:#A80036;stroke-width:1.0;"/><text fill="#000000" font-family="sans-serif" font-size="13" lengthAdjust="spacing" textLength="16" x="655" y="325.0669">fix</text><!--MD5=[a3e16277089072f12642b6385cc45bfe]
reverse link User to Progress--><path codeLine="101" d="M436.768,578.243 C431.046,605.457 425.586,631.423 422.045,648.261 " fill="none" id="User-backto-Progress" style="stroke:#A80036;stroke-width:1.0;"/><polygon fill="#FFFFFF" points="439.5,565.25,434.3513,570.2989,437.0316,576.9934,442.1803,571.9445,439.5,565.25" style="stroke:#A80036;stroke-width:1.0;"/><text fill="#000000" font-family="sans-serif" font-size="13" lengthAdjust="spacing" textLength="32" x="435" y="608.0669">track</text><!--MD5=[b1ce83990aa10fef32912eaa0d3da128]
link User to Report--><path codeLine="102" d="M473.379,565.258 C474.366,575.298 475.264,585.341 476,595 C480.227,650.5 481.96,715.8311 482.624,750.4983 " fill="none" id="User-to-Report" style="stroke:#A80036;stroke-width:1.0;"/><polygon fill="#A80036" points="482.721,755.7927,486.5545,746.7205,482.6289,750.7935,478.5559,746.8679,482.721,755.7927" style="stroke:#A80036;stroke-width:1.0;"/><text fill="#000000" font-family="sans-serif" font-size="13" lengthAdjust="spacing" textLength="30" x="483" y="673.0669">view</text><!--MD5=[d6e0e09d7ac48566b49fa6bdf6412cc2]
link Developer to Option--><path codeLine="103" d="M645.274,104.77 C607.711,122.518 557.299,149.56 519,182 C504.509,194.274 491.072,210.605 480.788,224.66 " fill="none" id="Developer-to-Option" style="stroke:#A80036;stroke-width:1.0;"/><polygon fill="#A80036" points="477.7,228.942,486.2094,223.9831,480.6252,224.887,479.7214,219.3028,477.7,228.942" style="stroke:#A80036;stroke-width:1.0;"/><text fill="#000000" font-family="sans-serif" font-size="13" lengthAdjust="spacing" textLength="48" x="520" y="195.0669">provide</text><!--MD5=[d3929d089792608138aadf8a8ea212ac]
@startuml
hide circle
class User<actor> {
	progressReport
	performance
	point
}
class Developer<actor> {
}
class Maintainer<actor> {
}
class Analytic {
}
class Developer {
	publish()
	hand()
	fix()
	restructure()
	hand_off()
	provide()
	give()
	change()
}
class Option {
	enable()
}
class Time {
	fix()
}
class Project {
}
class User {
	get()
	track()
	understand()
	play()
	rate()
	view()
	have()
	skip()
	show()
	proceed()
}
class Hint {
}
class Maintainer {
	get()
}
class Question {
	answer()
}
class App {
}
class UI {
	make()
}
class Feedback {
}
class SourceCode {
}
class Component {
	have()
}
class Structure {
}
class Bug {
}
class Progress {
}
class Report {
}
class Graph {
}
class Point {
}
class Trouble {
	answer()
}
class Client {
}
User - -> App : play
Developer - -> Time : give
Developer - -> App : publish
Developer - -> Graph : fix
User - -> Question : skip
Maintainer - -> Analytic : get
User - -> App : rate
User o- - Point : understand
Trouble - -> Question : answer
Developer - -> UI : change
Option - -> User : enable
User o- - Analytic
User - -> Feedback : get
SourceCode - -> Client : to
Developer - -> Project : restructure
Developer - -> SourceCode : hand_off
Progress o- - Report
Developer - -> SourceCode : hand
User - -> Hint : get
Component - -> Structure : have
Time - -> Bug : fix
User o- - Progress : track
User - -> Report : view
Developer - -> Option : provide
@enduml

PlantUML version 1.2021.10beta2(Unknown compile time)
(GPL source distribution)
Java Runtime: Java(TM) SE Runtime Environment
JVM: Java HotSpot(TM) 64-Bit Server VM
Default Encoding: UTF-8
Language: en
Country: US
--></g></svg>