<?xml version="1.0" encoding="UTF-8" standalone="no"?><svg xmlns="http://www.w3.org/2000/svg" xmlns:xlink="http://www.w3.org/1999/xlink" contentScriptType="application/ecmascript" contentStyleType="text/css" height="346px" preserveAspectRatio="none" style="width:1590px;height:346px;background:#FFFFFF;" version="1.1" viewBox="0 0 1590 346" width="1590px" zoomAndPan="magnify"><defs><filter height="300%" id="fkd5l2w3gc4yd" width="300%" x="-1" y="-1"><feGaussianBlur result="blurOut" stdDeviation="2.0"/><feColorMatrix in="blurOut" result="blurOut2" type="matrix" values="0 0 0 0 0 0 0 0 0 0 0 0 0 0 0 0 0 0 .4 0"/><feOffset dx="4.0" dy="4.0" in="blurOut2" result="blurOut3"/><feBlend in="SourceGraphic" in2="blurOut3" mode="normal"/></filter></defs><g><!--MD5=[3fd616f346a44cd59a91eb10b19e157c]
class User--><rect codeLine="4" fill="#FEFECE" filter="url(#fkd5l2w3gc4yd)" height="206.4297" id="User" style="stroke:#A80036;stroke-width:1.5;" width="72" x="806.5" y="10"/><text fill="#000000" font-family="sans-serif" font-size="12" lengthAdjust="spacing" textLength="29" x="810.5" y="26.1387">User</text><rect fill="#FFFFFF" height="15.9688" style="stroke:#000000;stroke-width:1.0;stroke-dasharray:2.0,2.0;" width="33" x="848.5" y="7"/><text fill="#000000" font-family="sans-serif" font-size="12" font-style="italic" lengthAdjust="spacing" textLength="31" x="849.5" y="19.1387">actor</text><line style="stroke:#A80036;stroke-width:1.5;" x1="807.5" x2="877.5" y1="33.9688" y2="33.9688"/><line style="stroke:#A80036;stroke-width:1.5;" x1="807.5" x2="877.5" y1="41.9688" y2="41.9688"/><text fill="#000000" font-family="sans-serif" font-size="11" lengthAdjust="spacing" textLength="35" x="812.5" y="56.1792">view()</text><text fill="#000000" font-family="sans-serif" font-size="11" lengthAdjust="spacing" textLength="41" x="812.5" y="68.9839">install()</text><text fill="#000000" font-family="sans-serif" font-size="11" lengthAdjust="spacing" textLength="52" x="812.5" y="81.7886">receive()</text><text fill="#000000" font-family="sans-serif" font-size="11" lengthAdjust="spacing" textLength="60" x="812.5" y="94.5933">purchase()</text><text fill="#000000" font-family="sans-serif" font-size="11" lengthAdjust="spacing" textLength="51" x="812.5" y="107.3979">provide()</text><text fill="#000000" font-family="sans-serif" font-size="11" lengthAdjust="spacing" textLength="45" x="812.5" y="120.2026">create()</text><text fill="#000000" font-family="sans-serif" font-size="11" lengthAdjust="spacing" textLength="38" x="812.5" y="133.0073">reset()</text><text fill="#000000" font-family="sans-serif" font-size="11" lengthAdjust="spacing" textLength="48" x="812.5" y="145.812">update()</text><text fill="#000000" font-family="sans-serif" font-size="11" lengthAdjust="spacing" textLength="60" x="812.5" y="158.6167">forgotten()</text><text fill="#000000" font-family="sans-serif" font-size="11" lengthAdjust="spacing" textLength="29" x="812.5" y="171.4214">add()</text><text fill="#000000" font-family="sans-serif" font-size="11" lengthAdjust="spacing" textLength="53" x="812.5" y="184.2261">remove()</text><text fill="#000000" font-family="sans-serif" font-size="11" lengthAdjust="spacing" textLength="26" x="812.5" y="197.0308">set()</text><text fill="#000000" font-family="sans-serif" font-size="11" lengthAdjust="spacing" textLength="39" x="812.5" y="209.8354">enter()</text><!--MD5=[41314a0efc36828092cff9ebad2fcafd]
class Group--><rect codeLine="19" fill="#FEFECE" filter="url(#fkd5l2w3gc4yd)" height="39.9688" id="Group" style="stroke:#A80036;stroke-width:1.5;" width="43" x="7" y="293"/><text fill="#000000" font-family="sans-serif" font-size="12" lengthAdjust="spacing" textLength="37" x="10" y="309.1387">Group</text><line style="stroke:#A80036;stroke-width:1.5;" x1="8" x2="49" y1="316.9688" y2="316.9688"/><line style="stroke:#A80036;stroke-width:1.5;" x1="8" x2="49" y1="324.9688" y2="324.9688"/><!--MD5=[d93dddc7538c130e8ed23df1a5b1a611]
class GiftBuddyAccount--><rect codeLine="21" fill="#FEFECE" filter="url(#fkd5l2w3gc4yd)" height="39.9688" id="GiftBuddyAccount" style="stroke:#A80036;stroke-width:1.5;" width="112" x="85.5" y="293"/><text fill="#000000" font-family="sans-serif" font-size="12" lengthAdjust="spacing" textLength="106" x="88.5" y="309.1387">GiftBuddyAccount</text><line style="stroke:#A80036;stroke-width:1.5;" x1="86.5" x2="196.5" y1="316.9688" y2="316.9688"/><line style="stroke:#A80036;stroke-width:1.5;" x1="86.5" x2="196.5" y1="324.9688" y2="324.9688"/><!--MD5=[4d51c1c38d44c3b1ba1609bd7daa97a5]
class GiftBuddyContact--><rect codeLine="23" fill="#FEFECE" filter="url(#fkd5l2w3gc4yd)" height="39.9688" id="GiftBuddyContact" style="stroke:#A80036;stroke-width:1.5;" width="109" x="233" y="293"/><text fill="#000000" font-family="sans-serif" font-size="12" lengthAdjust="spacing" textLength="103" x="236" y="309.1387">GiftBuddyContact</text><line style="stroke:#A80036;stroke-width:1.5;" x1="234" x2="341" y1="316.9688" y2="316.9688"/><line style="stroke:#A80036;stroke-width:1.5;" x1="234" x2="341" y1="324.9688" y2="324.9688"/><!--MD5=[72ce1314beffbcf60a64ee91fbbc10dc]
class Contact--><rect codeLine="25" fill="#FEFECE" filter="url(#fkd5l2w3gc4yd)" height="39.9688" id="Contact" style="stroke:#A80036;stroke-width:1.5;" width="51" x="377" y="293"/><text fill="#000000" font-family="sans-serif" font-size="12" lengthAdjust="spacing" textLength="45" x="380" y="309.1387">Contact</text><line style="stroke:#A80036;stroke-width:1.5;" x1="378" x2="427" y1="316.9688" y2="316.9688"/><line style="stroke:#A80036;stroke-width:1.5;" x1="378" x2="427" y1="324.9688" y2="324.9688"/><!--MD5=[c0f7ef69a41a7152a3543feb3e336d86]
class Budget--><rect codeLine="27" fill="#FEFECE" filter="url(#fkd5l2w3gc4yd)" height="39.9688" id="Budget" style="stroke:#A80036;stroke-width:1.5;" width="49" x="463" y="293"/><text fill="#000000" font-family="sans-serif" font-size="12" lengthAdjust="spacing" textLength="43" x="466" y="309.1387">Budget</text><line style="stroke:#A80036;stroke-width:1.5;" x1="464" x2="511" y1="316.9688" y2="316.9688"/><line style="stroke:#A80036;stroke-width:1.5;" x1="464" x2="511" y1="324.9688" y2="324.9688"/><!--MD5=[73b95c177b6fad622367ff9ffd1159a8]
class GiftRecommendation--><rect codeLine="29" fill="#FEFECE" filter="url(#fkd5l2w3gc4yd)" height="39.9688" id="GiftRecommendation" style="stroke:#A80036;stroke-width:1.5;" width="130" x="547.5" y="293"/><text fill="#000000" font-family="sans-serif" font-size="12" lengthAdjust="spacing" textLength="124" x="550.5" y="309.1387">GiftRecommendation</text><line style="stroke:#A80036;stroke-width:1.5;" x1="548.5" x2="676.5" y1="316.9688" y2="316.9688"/><line style="stroke:#A80036;stroke-width:1.5;" x1="548.5" x2="676.5" y1="324.9688" y2="324.9688"/><!--MD5=[2731afa3914a2f1855b4f1ebf120a43f]
class Gift--><rect codeLine="31" fill="#FEFECE" filter="url(#fkd5l2w3gc4yd)" height="39.9688" id="Gift" style="stroke:#A80036;stroke-width:1.5;" width="26" x="712.5" y="293"/><text fill="#000000" font-family="sans-serif" font-size="12" lengthAdjust="spacing" textLength="20" x="715.5" y="309.1387">Gift</text><line style="stroke:#A80036;stroke-width:1.5;" x1="713.5" x2="737.5" y1="316.9688" y2="316.9688"/><line style="stroke:#A80036;stroke-width:1.5;" x1="713.5" x2="737.5" y1="324.9688" y2="324.9688"/><!--MD5=[2f01b1126ff33a0669651ec2488a5ef9]
class Password--><rect codeLine="33" fill="#FEFECE" filter="url(#fkd5l2w3gc4yd)" height="39.9688" id="Password" style="stroke:#A80036;stroke-width:1.5;" width="64" x="773.5" y="293"/><text fill="#000000" font-family="sans-serif" font-size="12" lengthAdjust="spacing" textLength="58" x="776.5" y="309.1387">Password</text><line style="stroke:#A80036;stroke-width:1.5;" x1="774.5" x2="836.5" y1="316.9688" y2="316.9688"/><line style="stroke:#A80036;stroke-width:1.5;" x1="774.5" x2="836.5" y1="324.9688" y2="324.9688"/><!--MD5=[6d5d4b87aae61dd247ee72d797bb930c]
class Interest--><rect codeLine="35" fill="#FEFECE" filter="url(#fkd5l2w3gc4yd)" height="39.9688" id="Interest" style="stroke:#A80036;stroke-width:1.5;" width="52" x="872.5" y="293"/><text fill="#000000" font-family="sans-serif" font-size="12" lengthAdjust="spacing" textLength="46" x="875.5" y="309.1387">Interest</text><line style="stroke:#A80036;stroke-width:1.5;" x1="873.5" x2="923.5" y1="316.9688" y2="316.9688"/><line style="stroke:#A80036;stroke-width:1.5;" x1="873.5" x2="923.5" y1="324.9688" y2="324.9688"/><!--MD5=[0b4e4b4980470ea387cc45de9bd14b5b]
class Application--><rect codeLine="37" fill="#FEFECE" filter="url(#fkd5l2w3gc4yd)" height="39.9688" id="Application" style="stroke:#A80036;stroke-width:1.5;" width="72" x="959.5" y="293"/><text fill="#000000" font-family="sans-serif" font-size="12" lengthAdjust="spacing" textLength="66" x="962.5" y="309.1387">Application</text><line style="stroke:#A80036;stroke-width:1.5;" x1="960.5" x2="1030.5" y1="316.9688" y2="316.9688"/><line style="stroke:#A80036;stroke-width:1.5;" x1="960.5" x2="1030.5" y1="324.9688" y2="324.9688"/><!--MD5=[12ab34adcab943d0f705a016118788e5]
class One--><rect codeLine="39" fill="#FEFECE" filter="url(#fkd5l2w3gc4yd)" height="39.9688" id="One" style="stroke:#A80036;stroke-width:1.5;" width="31" x="1067" y="293"/><text fill="#000000" font-family="sans-serif" font-size="12" lengthAdjust="spacing" textLength="25" x="1070" y="309.1387">One</text><line style="stroke:#A80036;stroke-width:1.5;" x1="1068" x2="1097" y1="316.9688" y2="316.9688"/><line style="stroke:#A80036;stroke-width:1.5;" x1="1068" x2="1097" y1="324.9688" y2="324.9688"/><!--MD5=[30fd7b95ab383a5e7c83ea23d4ea0fbf]
class Information--><rect codeLine="41" fill="#FEFECE" filter="url(#fkd5l2w3gc4yd)" height="39.9688" id="Information" style="stroke:#A80036;stroke-width:1.5;" width="73" x="1167" y="293"/><text fill="#000000" font-family="sans-serif" font-size="12" lengthAdjust="spacing" textLength="67" x="1170" y="309.1387">Information</text><line style="stroke:#A80036;stroke-width:1.5;" x1="1168" x2="1239" y1="316.9688" y2="316.9688"/><line style="stroke:#A80036;stroke-width:1.5;" x1="1168" x2="1239" y1="324.9688" y2="324.9688"/><!--MD5=[1a502b0dbedafd291c48f46ef8646183]
class Feedback--><rect codeLine="43" fill="#FEFECE" filter="url(#fkd5l2w3gc4yd)" height="39.9688" id="Feedback" style="stroke:#A80036;stroke-width:1.5;" width="66" x="1329.5" y="293"/><text fill="#000000" font-family="sans-serif" font-size="12" lengthAdjust="spacing" textLength="60" x="1332.5" y="309.1387">Feedback</text><line style="stroke:#A80036;stroke-width:1.5;" x1="1330.5" x2="1394.5" y1="316.9688" y2="316.9688"/><line style="stroke:#A80036;stroke-width:1.5;" x1="1330.5" x2="1394.5" y1="324.9688" y2="324.9688"/><!--MD5=[7829b64950ce38e0487c4015ea331f97]
class Date--><rect codeLine="45" fill="#FEFECE" filter="url(#fkd5l2w3gc4yd)" height="39.9688" id="Date" style="stroke:#A80036;stroke-width:1.5;" width="34" x="1435.5" y="293"/><text fill="#000000" font-family="sans-serif" font-size="12" lengthAdjust="spacing" textLength="28" x="1438.5" y="309.1387">Date</text><line style="stroke:#A80036;stroke-width:1.5;" x1="1436.5" x2="1468.5" y1="316.9688" y2="316.9688"/><line style="stroke:#A80036;stroke-width:1.5;" x1="1436.5" x2="1468.5" y1="324.9688" y2="324.9688"/><!--MD5=[76b5e19c9337179d2d7ae334371d68c8]
class Notification--><rect codeLine="47" fill="#FEFECE" filter="url(#fkd5l2w3gc4yd)" height="39.9688" id="Notification" style="stroke:#A80036;stroke-width:1.5;" width="72" x="1504.5" y="293"/><text fill="#000000" font-family="sans-serif" font-size="12" lengthAdjust="spacing" textLength="66" x="1507.5" y="309.1387">Notification</text><line style="stroke:#A80036;stroke-width:1.5;" x1="1505.5" x2="1575.5" y1="316.9688" y2="316.9688"/><line style="stroke:#A80036;stroke-width:1.5;" x1="1505.5" x2="1575.5" y1="324.9688" y2="324.9688"/><!--MD5=[5e3e488b34a8e2da8ffe5939cdf7e628]
link User to Contact--><path codeLine="49" d="M806.069,127.611 C746.244,150.286 623.813,198.056 523.5,246 C491.794,261.1537 456.644,280.6414 432.437,294.5034 " fill="none" id="User-to-Contact" style="stroke:#A80036;stroke-width:1.0;"/><polygon fill="#A80036" points="428.048,297.024,437.8446,296.0108,432.3839,294.534,433.8607,289.0734,428.048,297.024" style="stroke:#A80036;stroke-width:1.0;"/><text fill="#000000" font-family="sans-serif" font-size="13" lengthAdjust="spacing" textLength="50" x="524.5" y="259.0669">remove</text><!--MD5=[f3af3e4376504b99e4d7659058753524]
link User to Feedback--><path codeLine="50" d="M878.532,121.081 C953.913,136.753 1132.6,178.43 1269.5,246 C1293.43,257.8129 1317.95,275.4858 1335.8,289.5717 " fill="none" id="User-to-Feedback" style="stroke:#A80036;stroke-width:1.0;"/><polygon fill="#A80036" points="1339.73,292.702,1335.1802,283.967,1335.8183,289.5878,1330.1975,290.2258,1339.73,292.702" style="stroke:#A80036;stroke-width:1.0;"/><text fill="#000000" font-family="sans-serif" font-size="13" lengthAdjust="spacing" textLength="48" x="1298.5" y="259.0669">provide</text><!--MD5=[993a1ed30139d6bc9fd462e29443e622]
link User to User--><path codeLine="51" d="M878.666,87.598 C897.032,83.888 913.5,92.355 913.5,113 C913.5,131.709 899.975,140.417 883.77,139.125 " fill="none" id="User-to-User" style="stroke:#A80036;stroke-width:1.0;"/><polygon fill="#A80036" points="878.666,138.402,887.0175,143.6224,883.6168,139.1019,888.1373,135.7012,878.666,138.402" style="stroke:#A80036;stroke-width:1.0;"/><text fill="#000000" font-family="sans-serif" font-size="13" lengthAdjust="spacing" textLength="30" x="919.5" y="117.5669">view</text><!--MD5=[0b4e2c718629370d1e9c638e0503ce68]
link User to Date--><path codeLine="52" d="M878.753,118.926 C964.687,131.525 1186.23,169.463 1355.5,246 C1383.63,258.7172 1412.44,279.5052 1431.28,294.3528 " fill="none" id="User-to-Date" style="stroke:#A80036;stroke-width:1.0;"/><polygon fill="#A80036" points="1435.37,297.6136,1430.8196,288.879,1431.458,294.4997,1425.8373,295.1381,1435.37,297.6136" style="stroke:#A80036;stroke-width:1.0;"/><text fill="#000000" font-family="sans-serif" font-size="13" lengthAdjust="spacing" textLength="34" x="1388.5" y="259.0669">enter</text><!--MD5=[7b2c278a21fda8d0a0b9087fe93111db]
link User to Budget--><path codeLine="53" d="M806.177,134.259 C735.595,173.626 581.2,259.739 516.712,295.7071 " fill="none" id="User-to-Budget" style="stroke:#A80036;stroke-width:1.0;"/><polygon fill="#A80036" points="512.227,298.2088,522.0355,297.3179,516.5936,295.7731,518.1384,290.3313,512.227,298.2088" style="stroke:#A80036;stroke-width:1.0;"/><text fill="#000000" font-family="sans-serif" font-size="13" lengthAdjust="spacing" textLength="20" x="603.5" y="259.0669">set</text><!--MD5=[7443a95ebabf9201e55bed75dce7ce65]
link User to GiftRecommendation--><path codeLine="54" d="M806.223,139.353 C770.78,164.761 715.972,205.777 672.5,246 C657.976,259.4387 643.002,275.9053 631.647,289.0289 " fill="none" id="User-to-GiftRecommendation" style="stroke:#A80036;stroke-width:1.0;"/><polygon fill="#A80036" points="628.243,292.9874,637.1435,288.7707,631.5027,289.196,631.0773,283.5552,628.243,292.9874" style="stroke:#A80036;stroke-width:1.0;"/><text fill="#000000" font-family="sans-serif" font-size="13" lengthAdjust="spacing" textLength="47" x="673.5" y="259.0669">receive</text><!--MD5=[427a7b8a8d0a6ace38972764c6712a0b]
link User to Gift--><path codeLine="55" d="M806.28,146.667 C781.416,171.36 750.028,207.492 733.5,246 C727.923,258.9929 725.852,274.6637 725.208,287.4745 " fill="none" id="User-to-Gift" style="stroke:#A80036;stroke-width:1.0;"/><polygon fill="#A80036" points="725.013,292.7736,729.3407,283.9265,725.1966,287.777,721.3461,283.6328,725.013,292.7736" style="stroke:#A80036;stroke-width:1.0;"/><text fill="#000000" font-family="sans-serif" font-size="13" lengthAdjust="spacing" textLength="59" x="734.5" y="259.0669">purchase</text><!--MD5=[2e2e530a658308b38e0151c4d25adf6b]
link User to Notification--><path codeLine="56" d="M878.551,117.96 C972.506,129.145 1231.47,165.532 1431.5,246 C1459.67,257.3306 1488.96,275.4805 1510.08,289.882 " fill="none" id="User-to-Notification" style="stroke:#A80036;stroke-width:1.0;"/><polygon fill="#A80036" points="1514.45,292.8944,1509.3147,284.4903,1510.3349,290.0544,1504.7707,291.0745,1514.45,292.8944" style="stroke:#A80036;stroke-width:1.0;"/><text fill="#000000" font-family="sans-serif" font-size="13" lengthAdjust="spacing" textLength="47" x="1467.5" y="259.0669">receive</text><!--MD5=[5ab1f46e477a8163e64d30b24bef4255]
link User to Password--><path codeLine="57" d="M808.381,216.014 C805.992,226.058 803.957,236.1699 802.5,246 C801.392,253.4739 802.269,255.448 802.5,263 C802.746,271.0291 803.217,279.7878 803.715,287.6506 " fill="none" id="User-to-Password" style="stroke:#A80036;stroke-width:1.0;"/><polygon fill="#A80036" points="804.061,292.931,807.4634,283.6885,803.7338,287.9417,799.4805,284.2121,804.061,292.931" style="stroke:#A80036;stroke-width:1.0;"/><text fill="#000000" font-family="sans-serif" font-size="13" lengthAdjust="spacing" textLength="33" x="803.5" y="259.0669">reset</text><!--MD5=[3fb9f36749efaad5ac659bca00479233]
link User to Interest--><path codeLine="58" d="M863.974,216.049 C868.025,231.895 872.56,247.9813 877.5,263 C880.23,271.3 883.803,280.1421 887.225,287.9977 " fill="none" id="User-to-Interest" style="stroke:#A80036;stroke-width:1.0;"/><polygon fill="#A80036" points="889.327,292.7478,889.3426,282.899,887.3035,288.1755,882.027,286.1365,889.327,292.7478" style="stroke:#A80036;stroke-width:1.0;"/><text fill="#000000" font-family="sans-serif" font-size="13" lengthAdjust="spacing" textLength="34" x="878.5" y="259.0669">enter</text><!--MD5=[67141e6eb3ba199f7c4756941637724e]
link User to Group--><path codeLine="59" d="M806.224,116.018 C699.639,122.932 379.537,150.786 134.5,246 C105.2596,257.3619 75.207,276.9673 54.6032,291.8663 " fill="none" id="User-to-Group" style="stroke:#A80036;stroke-width:1.0;"/><polygon fill="#A80036" points="50.3537,294.9695,59.981,292.892,54.3916,292.0207,55.2629,286.4314,50.3537,294.9695" style="stroke:#A80036;stroke-width:1.0;"/><text fill="#000000" font-family="sans-serif" font-size="13" lengthAdjust="spacing" textLength="50" x="135.5" y="259.0669">remove</text><!--MD5=[4981c864524f50ab1b82211e3369f909]
link User to Application--><path codeLine="60" d="M878.662,164.313 C899.966,193.501 927.716,230.751 953.5,263 C960.355,271.5734 968.114,280.761 975.081,288.8372 " fill="none" id="User-to-Application" style="stroke:#A80036;stroke-width:1.0;"/><polygon fill="#A80036" points="978.431,292.705,975.5634,283.2828,975.158,288.9251,969.5157,288.5197,978.431,292.705" style="stroke:#A80036;stroke-width:1.0;"/><text fill="#000000" font-family="sans-serif" font-size="13" lengthAdjust="spacing" textLength="37" x="954.5" y="259.0669">install</text><!--MD5=[c7881c19f09c9681d3e6190977e173ae]
link User to One--><path codeLine="61" d="M878.69,143.857 C929.987,186.177 1022.09,262.1644 1062.54,295.5295 " fill="none" id="User-to-One" style="stroke:#A80036;stroke-width:1.0;"/><polygon fill="#A80036" points="1066.75,299.0033,1062.3388,290.1976,1062.8879,295.8277,1057.2578,296.3769,1066.75,299.0033" style="stroke:#A80036;stroke-width:1.0;"/><text fill="#000000" font-family="sans-serif" font-size="13" lengthAdjust="spacing" textLength="60" x="1019.5" y="259.0669">forgotten</text><!--MD5=[fe1fbbb18ecac455204fd4c48d4ca677]
link User to GiftBuddyAccount--><path codeLine="62" d="M806.166,115.633 C707.201,121.327 426.503,145.841 220.5,246 C198.571,256.6621 177.577,274.7062 162.75,289.2353 " fill="none" id="User-to-GiftBuddyAccount" style="stroke:#A80036;stroke-width:1.0;"/><polygon fill="#A80036" points="159.116,292.8467,168.3193,289.3398,162.6625,289.3222,162.6801,283.6654,159.116,292.8467" style="stroke:#A80036;stroke-width:1.0;"/><text fill="#000000" font-family="sans-serif" font-size="13" lengthAdjust="spacing" textLength="41" x="221.5" y="259.0669">create</text><!--MD5=[9d661380b54d9bff4ee137bc0bb1b8a2]
link User to Information--><path codeLine="63" d="M878.525,132.918 C926.615,158.266 1014.34,204.834 1088.5,246 C1114.73,260.559 1144.05,277.3975 1166.52,290.4224 " fill="none" id="User-to-Information" style="stroke:#A80036;stroke-width:1.0;"/><polygon fill="#A80036" points="1170.92,292.9748,1165.1496,284.9934,1166.5974,290.4619,1161.1289,291.9097,1170.92,292.9748" style="stroke:#A80036;stroke-width:1.0;"/><text fill="#000000" font-family="sans-serif" font-size="13" lengthAdjust="spacing" textLength="24" x="1118.5" y="259.0669">add</text><!--MD5=[9d661380b54d9bff4ee137bc0bb1b8a2]
link User to Information--><path codeLine="65" d="M878.868,123.143 C939.937,139.81 1064.9,179.669 1151.5,246 C1166.72,257.6557 1180.01,274.7353 1189.35,288.5996 " fill="none" id="User-to-Information-1" style="stroke:#A80036;stroke-width:1.0;"/><polygon fill="#A80036" points="1192.12,292.7895,1190.4955,283.0755,1189.3635,288.618,1183.8211,287.4859,1192.12,292.7895" style="stroke:#A80036;stroke-width:1.0;"/><text fill="#000000" font-family="sans-serif" font-size="13" lengthAdjust="spacing" textLength="30" x="1169.5" y="259.0669">view</text><!--MD5=[9d661380b54d9bff4ee137bc0bb1b8a2]
link User to Information--><path codeLine="66" d="M878.51,114.403 C954.724,117.445 1131.63,136.555 1208.5,246 C1216.97,258.0598 1215.7,274.6008 1212.32,288.1062 " fill="none" id="User-to-Information-2" style="stroke:#A80036;stroke-width:1.0;"/><polygon fill="#A80036" points="1211,292.9307,1217.2392,285.3102,1212.3233,288.109,1209.5245,283.193,1211,292.9307" style="stroke:#A80036;stroke-width:1.0;"/><text fill="#000000" font-family="sans-serif" font-size="13" lengthAdjust="spacing" textLength="45" x="1215.5" y="259.0669">update</text><!--MD5=[8faf1e81174db6ce73682016e2807f10]
link User to GiftBuddyContact--><path codeLine="64" d="M806.48,116.741 C692.664,126.219 344.329,161.758 277.5,246 C268.199,257.7249 270.826,274.4158 275.715,288.0787 " fill="none" id="User-to-GiftBuddyContact" style="stroke:#A80036;stroke-width:1.0;"/><polygon fill="#A80036" points="277.6,292.9607,278.0891,283.124,275.7987,288.2964,270.6263,286.006,277.6,292.9607" style="stroke:#A80036;stroke-width:1.0;"/><text fill="#000000" font-family="sans-serif" font-size="13" lengthAdjust="spacing" textLength="20" x="278.5" y="259.0669">set</text><!--MD5=[8faf1e81174db6ce73682016e2807f10]
link User to GiftBuddyContact--><path codeLine="67" d="M806.448,125.963 C738.382,148.652 586.389,199.805 459.5,246 C419.54,260.5481 374.691,277.788 340.811,290.9992 " fill="none" id="User-to-GiftBuddyContact-1" style="stroke:#A80036;stroke-width:1.0;"/><polygon fill="#A80036" points="335.893,292.9184,345.7313,293.3737,340.5511,291.1011,342.8237,285.9209,335.893,292.9184" style="stroke:#A80036;stroke-width:1.0;"/><text fill="#000000" font-family="sans-serif" font-size="13" lengthAdjust="spacing" textLength="24" x="460.5" y="259.0669">add</text><!--MD5=[e94282897fc2d418aa8f22af540ee61a]
@startuml
hide circle
class User<actor> {
}
class User {
	view()
	install()
	receive()
	purchase()
	provide()
	create()
	reset()
	update()
	forgotten()
	add()
	remove()
	set()
	enter()
}
class Group {
}
class GiftBuddyAccount {
}
class GiftBuddyContact {
}
class Contact {
}
class Budget {
}
class GiftRecommendation {
}
class Gift {
}
class Password {
}
class Interest {
}
class Application {
}
class One {
}
class Information {
}
class Feedback {
}
class Date {
}
class Notification {
}
User - -> Contact : remove
User - -> Feedback : provide
User - -> User : view
User - -> Date : enter
User - -> Budget : set
User - -> GiftRecommendation : receive
User - -> Gift : purchase
User - -> Notification : receive
User - -> Password : reset
User - -> Interest : enter
User - -> Group : remove
User - -> Application : install
User - -> One : forgotten
User - -> GiftBuddyAccount : create
User - -> Information : add
User - -> GiftBuddyContact : set
User - -> Information : view
User - -> Information : update
User - -> GiftBuddyContact : add
@enduml

PlantUML version 1.2021.6beta6(Unknown compile time)
(GPL source distribution)
Java Runtime: Java(TM) SE Runtime Environment
JVM: Java HotSpot(TM) 64-Bit Server VM
Default Encoding: UTF-8
Language: en
Country: US
--></g></svg>