<?xml version="1.0" encoding="UTF-8" standalone="no"?><svg xmlns="http://www.w3.org/2000/svg" xmlns:xlink="http://www.w3.org/1999/xlink" contentScriptType="application/ecmascript" contentStyleType="text/css" height="864px" preserveAspectRatio="none" style="width:2105px;height:864px;background:#FFFFFF;" version="1.1" viewBox="0 0 2105 864" width="2105px" zoomAndPan="magnify"><defs><filter height="300%" id="fcc4297wj6k17" width="300%" x="-1" y="-1"><feGaussianBlur result="blurOut" stdDeviation="2.0"/><feColorMatrix in="blurOut" result="blurOut2" type="matrix" values="0 0 0 0 0 0 0 0 0 0 0 0 0 0 0 0 0 0 .4 0"/><feOffset dx="4.0" dy="4.0" in="blurOut2" result="blurOut3"/><feBlend in="SourceGraphic" in2="blurOut3" mode="normal"/></filter></defs><g><!--MD5=[db6d18d8099558415abc41d00477ab92]
class Admin--><rect codeLine="16" fill="#FEFECE" filter="url(#fcc4297wj6k17)" height="142.4063" id="Admin" style="stroke:#A80036;stroke-width:1.5;" width="78" x="960.5" y="10"/><text fill="#000000" font-family="sans-serif" font-size="12" lengthAdjust="spacing" textLength="37" x="963.5" y="26.1387">Admin</text><rect fill="#FFFFFF" height="15.9688" style="stroke:#000000;stroke-width:1.0;stroke-dasharray:2.0,2.0;" width="33" x="1008.5" y="7"/><text fill="#000000" font-family="sans-serif" font-size="12" font-style="italic" lengthAdjust="spacing" textLength="31" x="1009.5" y="19.1387">actor</text><line style="stroke:#A80036;stroke-width:1.5;" x1="961.5" x2="1037.5" y1="33.9688" y2="33.9688"/><line style="stroke:#A80036;stroke-width:1.5;" x1="961.5" x2="1037.5" y1="41.9688" y2="41.9688"/><text fill="#000000" font-family="sans-serif" font-size="11" lengthAdjust="spacing" textLength="27" x="966.5" y="56.1792">get()</text><text fill="#000000" font-family="sans-serif" font-size="11" lengthAdjust="spacing" textLength="45" x="966.5" y="68.9839">export()</text><text fill="#000000" font-family="sans-serif" font-size="11" lengthAdjust="spacing" textLength="48" x="966.5" y="81.7886">update()</text><text fill="#000000" font-family="sans-serif" font-size="11" lengthAdjust="spacing" textLength="44" x="966.5" y="94.5933">assign()</text><text fill="#000000" font-family="sans-serif" font-size="11" lengthAdjust="spacing" textLength="35" x="966.5" y="107.3979">view()</text><text fill="#000000" font-family="sans-serif" font-size="11" lengthAdjust="spacing" textLength="36" x="966.5" y="120.2026">send()</text><text fill="#000000" font-family="sans-serif" font-size="11" lengthAdjust="spacing" textLength="43" x="966.5" y="133.0073">match()</text><text fill="#000000" font-family="sans-serif" font-size="11" lengthAdjust="spacing" textLength="35" x="966.5" y="145.812">track()</text><!--MD5=[6b4d6926b64cc43e9c2e68aac29f627b]
class Mentee--><rect codeLine="39" fill="#FEFECE" filter="url(#fcc4297wj6k17)" height="116.7969" id="Mentee" style="stroke:#A80036;stroke-width:1.5;" width="86" x="900.5" y="229"/><text fill="#000000" font-family="sans-serif" font-size="12" lengthAdjust="spacing" textLength="45" x="903.5" y="245.1387">Mentee</text><rect fill="#FFFFFF" height="15.9688" style="stroke:#000000;stroke-width:1.0;stroke-dasharray:2.0,2.0;" width="33" x="956.5" y="226"/><text fill="#000000" font-family="sans-serif" font-size="12" font-style="italic" lengthAdjust="spacing" textLength="31" x="957.5" y="238.1387">actor</text><line style="stroke:#A80036;stroke-width:1.5;" x1="901.5" x2="985.5" y1="252.9688" y2="252.9688"/><line style="stroke:#A80036;stroke-width:1.5;" x1="901.5" x2="985.5" y1="260.9688" y2="260.9688"/><text fill="#000000" font-family="sans-serif" font-size="11" lengthAdjust="spacing" textLength="38" x="906.5" y="275.1792">reset()</text><text fill="#000000" font-family="sans-serif" font-size="11" lengthAdjust="spacing" textLength="43" x="906.5" y="287.9839">select()</text><text fill="#000000" font-family="sans-serif" font-size="11" lengthAdjust="spacing" textLength="48" x="906.5" y="300.7886">update()</text><text fill="#000000" font-family="sans-serif" font-size="11" lengthAdjust="spacing" textLength="36" x="906.5" y="313.5933">send()</text><text fill="#000000" font-family="sans-serif" font-size="11" lengthAdjust="spacing" textLength="46" x="906.5" y="326.3979">upload()</text><text fill="#000000" font-family="sans-serif" font-size="11" lengthAdjust="spacing" textLength="30" x="906.5" y="339.2026">see()</text><!--MD5=[e762170833d07b06faa87c40cb5a3bd7]
class Mentor--><rect codeLine="26" fill="#FEFECE" filter="url(#fcc4297wj6k17)" height="180.8203" id="Mentor" style="stroke:#A80036;stroke-width:1.5;" width="83" x="564" y="423"/><text fill="#000000" font-family="sans-serif" font-size="12" lengthAdjust="spacing" textLength="42" x="567" y="439.1387">Mentor</text><rect fill="#FFFFFF" height="15.9688" style="stroke:#000000;stroke-width:1.0;stroke-dasharray:2.0,2.0;" width="33" x="617" y="420"/><text fill="#000000" font-family="sans-serif" font-size="12" font-style="italic" lengthAdjust="spacing" textLength="31" x="618" y="432.1387">actor</text><line style="stroke:#A80036;stroke-width:1.5;" x1="565" x2="646" y1="446.9688" y2="446.9688"/><line style="stroke:#A80036;stroke-width:1.5;" x1="565" x2="646" y1="454.9688" y2="454.9688"/><text fill="#000000" font-family="sans-serif" font-size="11" lengthAdjust="spacing" textLength="38" x="570" y="469.1792">reset()</text><text fill="#000000" font-family="sans-serif" font-size="11" lengthAdjust="spacing" textLength="42" x="570" y="481.9839">report()</text><text fill="#000000" font-family="sans-serif" font-size="11" lengthAdjust="spacing" textLength="45" x="570" y="494.7886">create()</text><text fill="#000000" font-family="sans-serif" font-size="11" lengthAdjust="spacing" textLength="52" x="570" y="507.5933">register()</text><text fill="#000000" font-family="sans-serif" font-size="11" lengthAdjust="spacing" textLength="43" x="570" y="520.3979">select()</text><text fill="#000000" font-family="sans-serif" font-size="11" lengthAdjust="spacing" textLength="48" x="570" y="533.2026">update()</text><text fill="#000000" font-family="sans-serif" font-size="11" lengthAdjust="spacing" textLength="51" x="570" y="546.0073">provide()</text><text fill="#000000" font-family="sans-serif" font-size="11" lengthAdjust="spacing" textLength="51" x="570" y="558.812">monitor()</text><text fill="#000000" font-family="sans-serif" font-size="11" lengthAdjust="spacing" textLength="46" x="570" y="571.6167">accept()</text><text fill="#000000" font-family="sans-serif" font-size="11" lengthAdjust="spacing" textLength="36" x="570" y="584.4214">mark()</text><text fill="#000000" font-family="sans-serif" font-size="11" lengthAdjust="spacing" textLength="46" x="570" y="597.2261">submit()</text><!--MD5=[3fd616f346a44cd59a91eb10b19e157c]
class User--><rect codeLine="80" fill="#FEFECE" filter="url(#fcc4297wj6k17)" height="65.5781" id="User" style="stroke:#A80036;stroke-width:1.5;" width="70" x="1441.5" y="480.5"/><text fill="#000000" font-family="sans-serif" font-size="12" lengthAdjust="spacing" textLength="29" x="1444.5" y="496.6387">User</text><rect fill="#FFFFFF" height="15.9688" style="stroke:#000000;stroke-width:1.0;stroke-dasharray:2.0,2.0;" width="33" x="1481.5" y="477.5"/><text fill="#000000" font-family="sans-serif" font-size="12" font-style="italic" lengthAdjust="spacing" textLength="31" x="1482.5" y="489.6387">actor</text><line style="stroke:#A80036;stroke-width:1.5;" x1="1442.5" x2="1510.5" y1="504.4688" y2="504.4688"/><line style="stroke:#A80036;stroke-width:1.5;" x1="1442.5" x2="1510.5" y1="512.4688" y2="512.4688"/><text fill="#000000" font-family="sans-serif" font-size="11" lengthAdjust="spacing" textLength="48" x="1447.5" y="526.6792">update()</text><text fill="#000000" font-family="sans-serif" font-size="11" lengthAdjust="spacing" textLength="47" x="1447.5" y="539.4839">access()</text><!--MD5=[d342058c8fb6f80e9d50d673c6908241]
class Developer--><rect codeLine="92" fill="#FEFECE" filter="url(#fcc4297wj6k17)" height="52.7734" id="Developer" style="stroke:#A80036;stroke-width:1.5;" width="105" x="1861" y="54.5"/><text fill="#000000" font-family="sans-serif" font-size="12" lengthAdjust="spacing" textLength="64" x="1864" y="70.6387">Developer</text><rect fill="#FFFFFF" height="15.9688" style="stroke:#000000;stroke-width:1.0;stroke-dasharray:2.0,2.0;" width="33" x="1936" y="51.5"/><text fill="#000000" font-family="sans-serif" font-size="12" font-style="italic" lengthAdjust="spacing" textLength="31" x="1937" y="63.6387">actor</text><line style="stroke:#A80036;stroke-width:1.5;" x1="1862" x2="1965" y1="78.4688" y2="78.4688"/><line style="stroke:#A80036;stroke-width:1.5;" x1="1862" x2="1965" y1="86.4688" y2="86.4688"/><text fill="#000000" font-family="sans-serif" font-size="11" lengthAdjust="spacing" textLength="60" x="1867" y="100.6792">integrate()</text><!--MD5=[087422f3d55259782b777c5ebdb0d28a]
class Enduser--><rect codeLine="12" fill="#FEFECE" filter="url(#fcc4297wj6k17)" height="39.9688" id="Enduser" style="stroke:#A80036;stroke-width:1.5;" width="90" x="2001.5" y="61"/><text fill="#000000" font-family="sans-serif" font-size="12" lengthAdjust="spacing" textLength="49" x="2004.5" y="77.1387">Enduser</text><rect fill="#FFFFFF" height="15.9688" style="stroke:#000000;stroke-width:1.0;stroke-dasharray:2.0,2.0;" width="33" x="2061.5" y="58"/><text fill="#000000" font-family="sans-serif" font-size="12" font-style="italic" lengthAdjust="spacing" textLength="31" x="2062.5" y="70.1387">actor</text><line style="stroke:#A80036;stroke-width:1.5;" x1="2002.5" x2="2090.5" y1="84.9688" y2="84.9688"/><line style="stroke:#A80036;stroke-width:1.5;" x1="2002.5" x2="2090.5" y1="92.9688" y2="92.9688"/><!--MD5=[da547346deef918ea16944ba046651ef]
class Administrator--><rect codeLine="51" fill="#FEFECE" filter="url(#fcc4297wj6k17)" height="52.7734" id="Administrator" style="stroke:#A80036;stroke-width:1.5;" width="121" x="1705" y="54.5"/><text fill="#000000" font-family="sans-serif" font-size="12" lengthAdjust="spacing" textLength="80" x="1708" y="70.6387">Administrator</text><rect fill="#FFFFFF" height="15.9688" style="stroke:#000000;stroke-width:1.0;stroke-dasharray:2.0,2.0;" width="33" x="1796" y="51.5"/><text fill="#000000" font-family="sans-serif" font-size="12" font-style="italic" lengthAdjust="spacing" textLength="31" x="1797" y="63.6387">actor</text><line style="stroke:#A80036;stroke-width:1.5;" x1="1706" x2="1825" y1="78.4688" y2="78.4688"/><line style="stroke:#A80036;stroke-width:1.5;" x1="1706" x2="1825" y1="86.4688" y2="86.4688"/><text fill="#000000" font-family="sans-serif" font-size="11" lengthAdjust="spacing" textLength="27" x="1711" y="100.6792">get()</text><!--MD5=[bac84b5b4bd37519fcdc10dfdffb59c2]
class ContactDetail--><rect codeLine="47" fill="#FEFECE" filter="url(#fcc4297wj6k17)" height="39.9688" id="ContactDetail" style="stroke:#A80036;stroke-width:1.5;" width="85" x="1216" y="493.5"/><text fill="#000000" font-family="sans-serif" font-size="12" lengthAdjust="spacing" textLength="79" x="1219" y="509.6387">ContactDetail</text><line style="stroke:#A80036;stroke-width:1.5;" x1="1217" x2="1300" y1="517.4688" y2="517.4688"/><line style="stroke:#A80036;stroke-width:1.5;" x1="1217" x2="1300" y1="525.4688" y2="525.4688"/><!--MD5=[2f01b1126ff33a0669651ec2488a5ef9]
class Password--><rect codeLine="49" fill="#FEFECE" filter="url(#fcc4297wj6k17)" height="39.9688" id="Password" style="stroke:#A80036;stroke-width:1.5;" width="64" x="1232.5" y="687.5"/><text fill="#000000" font-family="sans-serif" font-size="12" lengthAdjust="spacing" textLength="58" x="1235.5" y="703.6387">Password</text><line style="stroke:#A80036;stroke-width:1.5;" x1="1233.5" x2="1295.5" y1="711.4688" y2="711.4688"/><line style="stroke:#A80036;stroke-width:1.5;" x1="1233.5" x2="1295.5" y1="719.4688" y2="719.4688"/><!--MD5=[40d2668bbcd459976779c45dfe17221f]
class Statistics--><rect codeLine="54" fill="#FEFECE" filter="url(#fcc4297wj6k17)" height="39.9688" id="Statistics" style="stroke:#A80036;stroke-width:1.5;" width="60" x="1712.5" y="267.5"/><text fill="#000000" font-family="sans-serif" font-size="12" lengthAdjust="spacing" textLength="54" x="1715.5" y="283.6387">Statistics</text><line style="stroke:#A80036;stroke-width:1.5;" x1="1713.5" x2="1771.5" y1="291.4688" y2="291.4688"/><line style="stroke:#A80036;stroke-width:1.5;" x1="1713.5" x2="1771.5" y1="299.4688" y2="299.4688"/><!--MD5=[2449a07004f88a39a49d8d677dad46f0]
class Availability--><rect codeLine="56" fill="#FEFECE" filter="url(#fcc4297wj6k17)" height="39.9688" id="Availability" style="stroke:#A80036;stroke-width:1.5;" width="69" x="238" y="687.5"/><text fill="#000000" font-family="sans-serif" font-size="12" lengthAdjust="spacing" textLength="63" x="241" y="703.6387">Availability</text><line style="stroke:#A80036;stroke-width:1.5;" x1="239" x2="306" y1="711.4688" y2="711.4688"/><line style="stroke:#A80036;stroke-width:1.5;" x1="239" x2="306" y1="719.4688" y2="719.4688"/><!--MD5=[028fba31e0312914fa4880b63f0540b8]
class Detail--><rect codeLine="58" fill="#FEFECE" filter="url(#fcc4297wj6k17)" height="39.9688" id="Detail" style="stroke:#A80036;stroke-width:1.5;" width="40" x="775.5" y="687.5"/><text fill="#000000" font-family="sans-serif" font-size="12" lengthAdjust="spacing" textLength="34" x="778.5" y="703.6387">Detail</text><line style="stroke:#A80036;stroke-width:1.5;" x1="776.5" x2="814.5" y1="711.4688" y2="711.4688"/><line style="stroke:#A80036;stroke-width:1.5;" x1="776.5" x2="814.5" y1="719.4688" y2="719.4688"/><!--MD5=[f00dbe8c0302c6aec2cb26b3c659c8fc]
class Report--><rect codeLine="60" fill="#FEFECE" filter="url(#fcc4297wj6k17)" height="39.9688" id="Report" style="stroke:#A80036;stroke-width:1.5;" width="46" x="1545.5" y="687.5"/><text fill="#000000" font-family="sans-serif" font-size="12" lengthAdjust="spacing" textLength="40" x="1548.5" y="703.6387">Report</text><line style="stroke:#A80036;stroke-width:1.5;" x1="1546.5" x2="1590.5" y1="711.4688" y2="711.4688"/><line style="stroke:#A80036;stroke-width:1.5;" x1="1546.5" x2="1590.5" y1="719.4688" y2="719.4688"/><!--MD5=[0851f84a889f989e7bb0bebc385d0f09]
class Request--><rect codeLine="62" fill="#FEFECE" filter="url(#fcc4297wj6k17)" height="52.7734" id="Request" style="stroke:#A80036;stroke-width:1.5;" width="71" x="880" y="681"/><text fill="#000000" font-family="sans-serif" font-size="12" lengthAdjust="spacing" textLength="49" x="891" y="697.1387">Request</text><line style="stroke:#A80036;stroke-width:1.5;" x1="881" x2="950" y1="704.9688" y2="704.9688"/><line style="stroke:#A80036;stroke-width:1.5;" x1="881" x2="950" y1="712.9688" y2="712.9688"/><text fill="#000000" font-family="sans-serif" font-size="11" lengthAdjust="spacing" textLength="59" x="886" y="727.1792">establish()</text><!--MD5=[ad510ca42d1a057b37ac2813b8ee5b40]
class Connection--><rect codeLine="65" fill="#FEFECE" filter="url(#fcc4297wj6k17)" height="39.9688" id="Connection" style="stroke:#A80036;stroke-width:1.5;" width="73" x="879" y="811"/><text fill="#000000" font-family="sans-serif" font-size="12" lengthAdjust="spacing" textLength="67" x="882" y="827.1387">Connection</text><line style="stroke:#A80036;stroke-width:1.5;" x1="880" x2="951" y1="834.9688" y2="834.9688"/><line style="stroke:#A80036;stroke-width:1.5;" x1="880" x2="951" y1="842.9688" y2="842.9688"/><!--MD5=[e3d83ec5fd90ea9f3f2bfe265cb53458]
class Status--><rect codeLine="67" fill="#FEFECE" filter="url(#fcc4297wj6k17)" height="39.9688" id="Status" style="stroke:#A80036;stroke-width:1.5;" width="43" x="1022" y="267.5"/><text fill="#000000" font-family="sans-serif" font-size="12" lengthAdjust="spacing" textLength="37" x="1025" y="283.6387">Status</text><line style="stroke:#A80036;stroke-width:1.5;" x1="1023" x2="1064" y1="291.4688" y2="291.4688"/><line style="stroke:#A80036;stroke-width:1.5;" x1="1023" x2="1064" y1="299.4688" y2="299.4688"/><!--MD5=[aac19edae34d351b2abd4a9d7e5573a2]
class TrainingPhaseActivity--><rect codeLine="69" fill="#FEFECE" filter="url(#fcc4297wj6k17)" height="39.9688" id="TrainingPhaseActivity" style="stroke:#A80036;stroke-width:1.5;" width="131" x="342" y="687.5"/><text fill="#000000" font-family="sans-serif" font-size="12" lengthAdjust="spacing" textLength="125" x="345" y="703.6387">TrainingPhaseActivity</text><line style="stroke:#A80036;stroke-width:1.5;" x1="343" x2="472" y1="711.4688" y2="711.4688"/><line style="stroke:#A80036;stroke-width:1.5;" x1="343" x2="472" y1="719.4688" y2="719.4688"/><!--MD5=[30fd7b95ab383a5e7c83ea23d4ea0fbf]
class Information--><rect codeLine="71" fill="#FEFECE" filter="url(#fcc4297wj6k17)" height="52.7734" id="Information" style="stroke:#A80036;stroke-width:1.5;" width="73" x="508" y="681"/><text fill="#000000" font-family="sans-serif" font-size="12" lengthAdjust="spacing" textLength="67" x="511" y="697.1387">Information</text><line style="stroke:#A80036;stroke-width:1.5;" x1="509" x2="580" y1="704.9688" y2="704.9688"/><line style="stroke:#A80036;stroke-width:1.5;" x1="509" x2="580" y1="712.9688" y2="712.9688"/><text fill="#000000" font-family="sans-serif" font-size="11" lengthAdjust="spacing" textLength="55" x="514" y="727.1792">includes()</text><!--MD5=[03be55fb4aae919908819e432b9694ea]
class Phone--><rect codeLine="74" fill="#FEFECE" filter="url(#fcc4297wj6k17)" height="39.9688" id="Phone" style="stroke:#A80036;stroke-width:1.5;" width="42" x="523.5" y="811"/><text fill="#000000" font-family="sans-serif" font-size="12" lengthAdjust="spacing" textLength="36" x="526.5" y="827.1387">Phone</text><line style="stroke:#A80036;stroke-width:1.5;" x1="524.5" x2="564.5" y1="834.9688" y2="834.9688"/><line style="stroke:#A80036;stroke-width:1.5;" x1="524.5" x2="564.5" y1="842.9688" y2="842.9688"/><!--MD5=[ab5014bb605ebe5fa226a02e47164a83]
class InformationDetail--><rect codeLine="76" fill="#FEFECE" filter="url(#fcc4297wj6k17)" height="39.9688" id="InformationDetail" style="stroke:#A80036;stroke-width:1.5;" width="107" x="1012" y="493.5"/><text fill="#000000" font-family="sans-serif" font-size="12" lengthAdjust="spacing" textLength="101" x="1015" y="509.6387">InformationDetail</text><line style="stroke:#A80036;stroke-width:1.5;" x1="1013" x2="1118" y1="517.4688" y2="517.4688"/><line style="stroke:#A80036;stroke-width:1.5;" x1="1013" x2="1118" y1="525.4688" y2="525.4688"/><!--MD5=[f9c3b96a904ba5ac73ed2ba158aabd13]
class ActivityRecord--><rect codeLine="78" fill="#FEFECE" filter="url(#fcc4297wj6k17)" height="39.9688" id="ActivityRecord" style="stroke:#A80036;stroke-width:1.5;" width="92" x="616.5" y="687.5"/><text fill="#000000" font-family="sans-serif" font-size="12" lengthAdjust="spacing" textLength="86" x="619.5" y="703.6387">ActivityRecord</text><line style="stroke:#A80036;stroke-width:1.5;" x1="617.5" x2="707.5" y1="711.4688" y2="711.4688"/><line style="stroke:#A80036;stroke-width:1.5;" x1="617.5" x2="707.5" y1="719.4688" y2="719.4688"/><!--MD5=[7eeb4b838a05227218a56e467b2beb72]
class Site--><rect codeLine="84" fill="#FEFECE" filter="url(#fcc4297wj6k17)" height="39.9688" id="Site" style="stroke:#A80036;stroke-width:1.5;" width="29" x="1481" y="687.5"/><text fill="#000000" font-family="sans-serif" font-size="12" lengthAdjust="spacing" textLength="23" x="1484" y="703.6387">Site</text><line style="stroke:#A80036;stroke-width:1.5;" x1="1482" x2="1509" y1="711.4688" y2="711.4688"/><line style="stroke:#A80036;stroke-width:1.5;" x1="1482" x2="1509" y1="719.4688" y2="719.4688"/><!--MD5=[50f39069cd7d30b8ca10557b7ad7ab8f]
class Reminder--><rect codeLine="86" fill="#FEFECE" filter="url(#fcc4297wj6k17)" height="39.9688" id="Reminder" style="stroke:#A80036;stroke-width:1.5;" width="63" x="1100" y="267.5"/><text fill="#000000" font-family="sans-serif" font-size="12" lengthAdjust="spacing" textLength="57" x="1103" y="283.6387">Reminder</text><line style="stroke:#A80036;stroke-width:1.5;" x1="1101" x2="1162" y1="291.4688" y2="291.4688"/><line style="stroke:#A80036;stroke-width:1.5;" x1="1101" x2="1162" y1="299.4688" y2="299.4688"/><!--MD5=[8989e31ee208df2a66c314149150408f]
class ActivityReport--><rect codeLine="88" fill="#FEFECE" filter="url(#fcc4297wj6k17)" height="39.9688" id="ActivityReport" style="stroke:#A80036;stroke-width:1.5;" width="89" x="7" y="687.5"/><text fill="#000000" font-family="sans-serif" font-size="12" lengthAdjust="spacing" textLength="83" x="10" y="703.6387">ActivityReport</text><line style="stroke:#A80036;stroke-width:1.5;" x1="8" x2="95" y1="711.4688" y2="711.4688"/><line style="stroke:#A80036;stroke-width:1.5;" x1="8" x2="95" y1="719.4688" y2="719.4688"/><!--MD5=[3d4177ac58b4411586d067f34e84928f]
class List--><rect codeLine="90" fill="#FEFECE" filter="url(#fcc4297wj6k17)" height="39.9688" id="List" style="stroke:#A80036;stroke-width:1.5;" width="26" x="1154.5" y="493.5"/><text fill="#000000" font-family="sans-serif" font-size="12" lengthAdjust="spacing" textLength="20" x="1157.5" y="509.6387">List</text><line style="stroke:#A80036;stroke-width:1.5;" x1="1155.5" x2="1179.5" y1="517.4688" y2="517.4688"/><line style="stroke:#A80036;stroke-width:1.5;" x1="1155.5" x2="1179.5" y1="525.4688" y2="525.4688"/><!--MD5=[5698d5e59d6816aebb6ec6f82004408f]
class WebApplication--><rect codeLine="95" fill="#FEFECE" filter="url(#fcc4297wj6k17)" height="39.9688" id="WebApplication" style="stroke:#A80036;stroke-width:1.5;" width="100" x="1863.5" y="267.5"/><text fill="#000000" font-family="sans-serif" font-size="12" lengthAdjust="spacing" textLength="94" x="1866.5" y="283.6387">WebApplication</text><line style="stroke:#A80036;stroke-width:1.5;" x1="1864.5" x2="1962.5" y1="291.4688" y2="291.4688"/><line style="stroke:#A80036;stroke-width:1.5;" x1="1864.5" x2="1962.5" y1="299.4688" y2="299.4688"/><!--MD5=[8e99fe642d6b0197bff658f760a93d49]
class Interaction--><rect codeLine="97" fill="#FEFECE" filter="url(#fcc4297wj6k17)" height="39.9688" id="Interaction" style="stroke:#A80036;stroke-width:1.5;" width="69" x="134" y="687.5"/><text fill="#000000" font-family="sans-serif" font-size="12" lengthAdjust="spacing" textLength="63" x="137" y="703.6387">Interaction</text><line style="stroke:#A80036;stroke-width:1.5;" x1="135" x2="202" y1="711.4688" y2="711.4688"/><line style="stroke:#A80036;stroke-width:1.5;" x1="135" x2="202" y1="719.4688" y2="719.4688"/><!--MD5=[09ef7273497d65ecc2958b6b6be898a3]
link Developer to WebApplication--><path codeLine="99" d="M1913.5,107.9 C1913.5,147.646 1913.5,223.152 1913.5,262.024 " fill="none" id="Developer-to-WebApplication" style="stroke:#A80036;stroke-width:1.0;"/><polygon fill="#A80036" points="1913.5,267.485,1917.5,258.485,1913.5,262.485,1909.5,258.485,1913.5,267.485" style="stroke:#A80036;stroke-width:1.0;"/><text fill="#000000" font-family="sans-serif" font-size="13" lengthAdjust="spacing" textLength="58" x="1914.5" y="195.0669">integrate</text><!--MD5=[10127d8bbbd1990a336e1a4a06f0b040]
link Mentor to Mentee--><path codeLine="100" d="M647.071,484.95 C710.141,443.152 829.669,363.938 896.054,319.943 " fill="none" id="Mentor-to-Mentee" style="stroke:#A80036;stroke-width:1.0;"/><polygon fill="#A80036" points="900.349,317.097,890.6376,318.7365,896.1817,319.8599,895.0583,325.4041,900.349,317.097" style="stroke:#A80036;stroke-width:1.0;"/><text fill="#000000" font-family="sans-serif" font-size="13" lengthAdjust="spacing" textLength="38" x="806.5" y="389.0669">select</text><!--MD5=[57fc0c8364bedf6f376c1050818651e0]
link Mentee to Mentor--><path codeLine="131" d="M900.399,302.831 C859.149,317.648 796.179,343.211 747.5,376 C711.807,400.042 676.89,433.434 650.612,461.173 " fill="none" id="Mentee-to-Mentor" style="stroke:#A80036;stroke-width:1.0;"/><polygon fill="#A80036" points="647.125,464.873,656.2076,461.0642,650.5532,461.2333,650.3841,455.579,647.125,464.873" style="stroke:#A80036;stroke-width:1.0;"/><text fill="#000000" font-family="sans-serif" font-size="13" lengthAdjust="spacing" textLength="38" x="748.5" y="389.0669">select</text><!--MD5=[0698a8fc5a725ea299a691afadf483e5]
link Mentee to ContactDetail--><path codeLine="101" d="M986.667,334.176 C992.342,338.631 998.338,342.709 1004.5,346 C1057.19,374.136 1081.38,350.727 1135.5,376 C1166.83,390.631 1173.67,397.941 1197.5,423 C1216.61,443.1 1233.95,469.75 1245.22,488.729 " fill="none" id="Mentee-to-ContactDetail" style="stroke:#A80036;stroke-width:1.0;"/><polygon fill="#A80036" points="1247.95,493.38,1246.8453,483.5933,1245.4196,489.0675,1239.9454,487.6419,1247.95,493.38" style="stroke:#A80036;stroke-width:1.0;"/><text fill="#000000" font-family="sans-serif" font-size="13" lengthAdjust="spacing" textLength="45" x="1166.5" y="389.0669">update</text><!--MD5=[b86ea40d6883f98a6bb53ea288a3b606]
link Information to Phone--><path codeLine="102" d="M544.5,734.267 C544.5,755.3301 544.5,784.9042 544.5,805.5902 " fill="none" id="Information-to-Phone" style="stroke:#A80036;stroke-width:1.0;"/><polygon fill="#A80036" points="544.5,810.6472,548.5,801.6472,544.5,805.6472,540.5,801.6472,544.5,810.6472" style="stroke:#A80036;stroke-width:1.0;"/><text fill="#000000" font-family="sans-serif" font-size="13" lengthAdjust="spacing" textLength="52" x="545.5" y="777.0669">includes</text><!--MD5=[26370239ad4af3e134fcaf0dd915ccde]
link Mentor to Interaction--><path codeLine="103" d="M563.602,531.697 C508.202,554.548 407.641,596.42 322.5,634 C276.836,654.156 265.578,659.565 220.5,681 C216.366,682.966 212.057,685.039 207.767,687.119 " fill="none" id="Mentor-to-Interaction" style="stroke:#A80036;stroke-width:1.0;"/><polygon fill="#A80036" points="203.128,689.375,212.971,689.0347,207.6242,687.1876,209.4712,681.8408,203.128,689.375" style="stroke:#A80036;stroke-width:1.0;"/><text fill="#000000" font-family="sans-serif" font-size="13" lengthAdjust="spacing" textLength="39" x="323.5" y="647.0669">report</text><!--MD5=[8329259d838b6f20e7a7ba19da7ab680]
link Mentor to Availability--><path codeLine="104" d="M563.999,538.429 C498.618,576.126 372.638,648.763 309.9,684.936 " fill="none" id="Mentor-to-Availability" style="stroke:#A80036;stroke-width:1.0;"/><polygon fill="#A80036" points="305.494,687.477,315.2889,686.4472,309.8257,684.9797,311.2932,679.5165,305.494,687.477" style="stroke:#A80036;stroke-width:1.0;"/><text fill="#000000" font-family="sans-serif" font-size="13" lengthAdjust="spacing" textLength="33" x="391.5" y="647.0669">mark</text><!--MD5=[77ab4f1c1c996a9c04ef49a0cc8546b4]
link Mentor to Report--><path codeLine="105" d="M647.187,541.427 C682.474,562.66 735.198,590.816 785.5,604 C1037.34,670.005 1113.96,589.684 1370.5,634 C1388.44,637.1 1510.9,673.515 1527.5,681 C1531.97,683.016 1536.54,685.442 1540.93,687.986 " fill="none" id="Mentor-to-Report" style="stroke:#A80036;stroke-width:1.0;"/><polygon fill="#A80036" points="1545.24,690.558,1539.5525,682.5173,1540.9436,688.0005,1535.4605,689.3915,1545.24,690.558" style="stroke:#A80036;stroke-width:1.0;"/><text fill="#000000" font-family="sans-serif" font-size="13" lengthAdjust="spacing" textLength="44" x="1434.5" y="647.0669">submit</text><!--MD5=[25a2bc340f268686ebb69dbb31df2049]
link Admin to Mentee--><path codeLine="106" d="M980.306,152.091 C973.948,175.31 966.916,200.991 960.716,223.632 " fill="none" id="Admin-to-Mentee" style="stroke:#A80036;stroke-width:1.0;"/><polygon fill="#A80036" points="959.324,228.714,965.5586,221.0897,960.6443,223.8915,957.8425,218.9772,959.324,228.714" style="stroke:#A80036;stroke-width:1.0;"/><text fill="#000000" font-family="sans-serif" font-size="13" lengthAdjust="spacing" textLength="32" x="972.5" y="195.0669">track</text><!--MD5=[24261e82f95950dbddf2ffcf7cc6525e]
link Mentor to Detail--><path codeLine="107" d="M634.115,604.344 C642.546,621.339 653.193,637.878 666.5,651 C674.318,658.71 735.009,683.05 770.291,696.799 " fill="none" id="Mentor-to-Detail" style="stroke:#A80036;stroke-width:1.0;"/><polygon fill="#A80036" points="775.302,698.747,768.362,691.7587,770.6415,696.9359,765.4643,699.2155,775.302,698.747" style="stroke:#A80036;stroke-width:1.0;"/><text fill="#000000" font-family="sans-serif" font-size="13" lengthAdjust="spacing" textLength="49" x="667.5" y="647.0669">register</text><!--MD5=[561073891d6609a2e545a1960d3d4b78]
link Mentee to InformationDetail--><path codeLine="108" d="M974.918,346.186 C1000.085,392.394 1034.12,454.877 1052.47,488.575 " fill="none" id="Mentee-to-InformationDetail" style="stroke:#A80036;stroke-width:1.0;"/><polygon fill="#A80036" points="1055.06,493.332,1054.2767,483.5143,1052.6723,488.9389,1047.2478,487.3346,1055.06,493.332" style="stroke:#A80036;stroke-width:1.0;"/><text fill="#000000" font-family="sans-serif" font-size="13" lengthAdjust="spacing" textLength="45" x="998.5" y="389.0669">update</text><!--MD5=[18d21d50725e5bdec5e3d0dfd76601b4]
link Mentee to Password--><path codeLine="109" d="M986.753,334.986 C992.372,339.235 998.332,343.044 1004.5,346 C1134.08,408.104 1241.95,301.396 1318.5,423 C1361.35,491.08 1345.89,528.36 1318.5,604 C1312.59,620.319 1302.39,619.092 1293.5,634 C1284.39,649.274 1277.01,667.93 1271.97,682.492 " fill="none" id="Mentee-to-Password" style="stroke:#A80036;stroke-width:1.0;"/><polygon fill="#A80036" points="1270.35,687.262,1277.0334,680.0279,1271.959,682.528,1269.459,677.4535,1270.35,687.262" style="stroke:#A80036;stroke-width:1.0;"/><text fill="#000000" font-family="sans-serif" font-size="13" lengthAdjust="spacing" textLength="33" x="1346.5" y="518.0669">reset</text><!--MD5=[5ab1f46e477a8163e64d30b24bef4255]
link User to Password--><path codeLine="110" d="M1461.09,546.73 C1450.44,565.859 1434.58,589.191 1414.5,604 C1378.86,630.279 1355.69,608.496 1319.5,634 C1301.44,646.727 1286.7,667.185 1277.04,683.13 " fill="none" id="User-to-Password" style="stroke:#A80036;stroke-width:1.0;"/><polygon fill="#A80036" points="1274.45,687.497,1282.4812,681.7961,1277.0004,683.1964,1275.6002,677.7155,1274.45,687.497" style="stroke:#A80036;stroke-width:1.0;"/><text fill="#000000" font-family="sans-serif" font-size="13" lengthAdjust="spacing" textLength="45" x="1320.5" y="647.0669">update</text><!--MD5=[fe4c75793e5091e8c4f695fbebcc199a]
link Admin to Mentor--><path codeLine="111" d="M960.235,118.683 C929.287,147.96 885.356,190.336 848.5,229 C788.322,292.13 775.205,309.733 718.5,376 C695.812,402.514 671.044,432.331 650.494,457.319 " fill="none" id="Admin-to-Mentor" style="stroke:#A80036;stroke-width:1.0;"/><polygon fill="#A80036" points="647.233,461.286,656.0384,456.874,650.4083,457.4237,649.8586,451.7936,647.233,461.286" style="stroke:#A80036;stroke-width:1.0;"/><text fill="#000000" font-family="sans-serif" font-size="13" lengthAdjust="spacing" textLength="32" x="849.5" y="292.0669">track</text><!--MD5=[fe4c75793e5091e8c4f695fbebcc199a]
link Admin to Mentor--><path codeLine="112" d="M960.165,86.868 C852.661,101.176 559.278,147.312 519.5,229 C484.112,301.673 524.583,391.959 561.111,450.846 " fill="none" id="Admin-to-Mentor-1" style="stroke:#A80036;stroke-width:1.0;"/><polygon fill="#A80036" points="563.956,455.384,562.5618,445.6343,561.2989,451.1484,555.7848,449.8856,563.956,455.384" style="stroke:#A80036;stroke-width:1.0;"/><text fill="#000000" font-family="sans-serif" font-size="13" lengthAdjust="spacing" textLength="41" x="520.5" y="292.0669">assign</text><!--MD5=[fe4c75793e5091e8c4f695fbebcc199a]
link Admin to Mentor--><path codeLine="132" d="M960.381,90.222 C895.652,105.848 766.298,145.963 694.5,229 C648.883,281.759 626.625,357.863 615.777,417.939 " fill="none" id="Admin-to-Mentor-2" style="stroke:#A80036;stroke-width:1.0;"/><polygon fill="#A80036" points="614.889,422.967,620.3938,414.8002,615.7589,418.0433,612.5158,413.4083,614.889,422.967" style="stroke:#A80036;stroke-width:1.0;"/><text fill="#000000" font-family="sans-serif" font-size="13" lengthAdjust="spacing" textLength="41" x="695.5" y="292.0669">match</text><!--MD5=[32c1fc1a01ff24e1849d6ec15f1743e1]
link Mentor to ActivityRecord--><path codeLine="113" d="M575.131,604.149 C574.028,620.337 576.03,636.622 583.5,651 C590.721,664.898 603.195,676.044 616.125,684.596 " fill="none" id="Mentor-to-ActivityRecord" style="stroke:#A80036;stroke-width:1.0;"/><polygon fill="#A80036" points="620.521,687.397,615.0804,679.1873,616.3043,684.7101,610.7814,685.934,620.521,687.397" style="stroke:#A80036;stroke-width:1.0;"/><text fill="#000000" font-family="sans-serif" font-size="13" lengthAdjust="spacing" textLength="41" x="584.5" y="647.0669">create</text><!--MD5=[969d366b4636a5f5dfe0bfbe12dbaa2c]
link Mentee to Detail--><path codeLine="114" d="M910.631,346.234 C898.206,369.58 884.634,397.093 874.5,423 C838.043,516.197 811.128,632.737 800.495,682.346 " fill="none" id="Mentee-to-Detail" style="stroke:#A80036;stroke-width:1.0;"/><polygon fill="#A80036" points="799.398,687.498,805.1845,679.5283,800.4392,682.6076,797.3599,677.8623,799.398,687.498" style="stroke:#A80036;stroke-width:1.0;"/><text fill="#000000" font-family="sans-serif" font-size="13" lengthAdjust="spacing" textLength="43" x="875.5" y="518.0669">upload</text><!--MD5=[e30156a5a6857762cd3b5b2e45ef0967]
link Mentor to ActivityReport--><path codeLine="115" d="M563.723,526.449 C493.625,546.779 348.146,590.169 227.5,634 C183.655,649.929 134.649,670.335 99.5056,685.438 " fill="none" id="Mentor-to-ActivityReport" style="stroke:#A80036;stroke-width:1.0;"/><polygon fill="#A80036" points="94.8575,687.439,104.7057,687.5542,99.45,685.4619,101.5423,680.2062,94.8575,687.439" style="stroke:#A80036;stroke-width:1.0;"/><text fill="#000000" font-family="sans-serif" font-size="13" lengthAdjust="spacing" textLength="48" x="228.5" y="647.0669">provide</text><!--MD5=[bcf838033f09a69a6d2d3b7e9c74c471]
link Mentor to Password--><path codeLine="116" d="M647.106,538.946 C682.776,558.974 736.08,586.734 785.5,604 C944.974,659.716 1145.36,690.681 1227.15,701.76 " fill="none" id="Mentor-to-Password" style="stroke:#A80036;stroke-width:1.0;"/><polygon fill="#A80036" points="1232.36,702.461,1223.9639,697.3126,1227.4034,701.8037,1222.9123,705.2432,1232.36,702.461" style="stroke:#A80036;stroke-width:1.0;"/><text fill="#000000" font-family="sans-serif" font-size="13" lengthAdjust="spacing" textLength="33" x="942.5" y="647.0669">reset</text><!--MD5=[d335cd0b32dabe328b802accba953dd2]
link Admin to Report--><path codeLine="117" d="M1038.62,82.446 C1158.66,84.711 1518.05,98.474 1590.5,182 C1719.31,330.512 1615.43,601.128 1579.54,682.643 " fill="none" id="Admin-to-Report" style="stroke:#A80036;stroke-width:1.0;"/><polygon fill="#A80036" points="1577.48,687.287,1584.7867,680.683,1579.508,682.7168,1577.4743,677.4381,1577.48,687.287" style="stroke:#A80036;stroke-width:1.0;"/><text fill="#000000" font-family="sans-serif" font-size="13" lengthAdjust="spacing" textLength="42" x="1654.5" y="389.0669">export</text><!--MD5=[d335cd0b32dabe328b802accba953dd2]
link Admin to Report--><path codeLine="126" d="M1038.64,94.368 C1139.22,128.387 1407.33,233.627 1528.5,423 C1581.59,505.982 1576.45,630.399 1571.42,682.356 " fill="none" id="Admin-to-Report-1" style="stroke:#A80036;stroke-width:1.0;"/><polygon fill="#A80036" points="1570.91,687.448,1575.7978,678.8976,1571.4146,682.4735,1567.8387,678.0903,1570.91,687.448" style="stroke:#A80036;stroke-width:1.0;"/><text fill="#000000" font-family="sans-serif" font-size="13" lengthAdjust="spacing" textLength="21" x="1507.5" y="389.0669">get</text><!--MD5=[3a04d9be00882512e722753fe1c44b9e]
link User to Site--><path codeLine="118" d="M1479.68,546.636 C1483.46,584.839 1489.68,647.734 1493.09,682.143 " fill="none" id="User-to-Site" style="stroke:#A80036;stroke-width:1.0;"/><polygon fill="#A80036" points="1493.61,687.413,1496.7026,678.0623,1493.1167,682.4374,1488.7416,678.8515,1493.61,687.413" style="stroke:#A80036;stroke-width:1.0;"/><text fill="#000000" font-family="sans-serif" font-size="13" lengthAdjust="spacing" textLength="44" x="1491.5" y="647.0669">access</text><!--MD5=[d8561275cf6c9fd8bb1e8a00733c5837]
link Admin to Reminder--><path codeLine="119" d="M1038.68,126.771 C1052.41,143.516 1067.42,163.073 1079.5,182 C1096.33,208.359 1111.77,240.915 1121.37,262.617 " fill="none" id="Admin-to-Reminder" style="stroke:#A80036;stroke-width:1.0;"/><polygon fill="#A80036" points="1123.45,267.347,1123.4866,257.4982,1121.4363,262.7704,1116.1641,260.7201,1123.45,267.347" style="stroke:#A80036;stroke-width:1.0;"/><text fill="#000000" font-family="sans-serif" font-size="13" lengthAdjust="spacing" textLength="31" x="1090.5" y="195.0669">send</text><!--MD5=[257da3e95c69824ffdd46be393d69e5e]
link Request to Connection--><path codeLine="120" d="M915.5,734.267 C915.5,755.3301 915.5,784.9042 915.5,805.5902 " fill="none" id="Request-to-Connection" style="stroke:#A80036;stroke-width:1.0;"/><polygon fill="#A80036" points="915.5,810.6472,919.5,801.6472,915.5,805.6472,911.5,801.6472,915.5,810.6472" style="stroke:#A80036;stroke-width:1.0;"/><text fill="#000000" font-family="sans-serif" font-size="13" lengthAdjust="spacing" textLength="57" x="916.5" y="777.0669">establish</text><!--MD5=[e69694e61e786937b3f144235e8b4f28]
link Administrator to Statistics--><path codeLine="121" d="M1762.59,107.9 C1758.1,147.809 1749.56,223.772 1745.2,262.5 " fill="none" id="Administrator-to-Statistics" style="stroke:#A80036;stroke-width:1.0;"/><polygon fill="#A80036" points="1744.64,267.485,1749.6199,258.9879,1745.1983,262.5163,1741.6699,258.0947,1744.64,267.485" style="stroke:#A80036;stroke-width:1.0;"/><text fill="#000000" font-family="sans-serif" font-size="13" lengthAdjust="spacing" textLength="21" x="1755.5" y="195.0669">get</text><!--MD5=[b9d095ef71c32140ef35bba6447f7ad1]
link Admin to ActivityReport--><path codeLine="122" d="M960.255,82.842 C877.454,86.2 681.041,102.626 541.5,182 C306.329,315.771 117.609,599.903 65.7036,683.132 " fill="none" id="Admin-to-ActivityReport" style="stroke:#A80036;stroke-width:1.0;"/><polygon fill="#A80036" points="63.0494,687.404,71.1965,681.87,65.688,683.1569,64.4011,677.6483,63.0494,687.404" style="stroke:#A80036;stroke-width:1.0;"/><text fill="#000000" font-family="sans-serif" font-size="13" lengthAdjust="spacing" textLength="30" x="299.5" y="389.0669">view</text><!--MD5=[50fbd0469b5f2ef86a2dc224825d17a3]
link Mentor to Request--><path codeLine="123" d="M647.02,547.044 C685.184,576.176 743.945,619.09 798.5,651 C823.14,665.412 852.119,679.18 875.072,689.399 " fill="none" id="Mentor-to-Request" style="stroke:#A80036;stroke-width:1.0;"/><polygon fill="#A80036" points="879.875,691.524,873.2625,684.225,875.3024,689.5013,870.0262,691.5411,879.875,691.524" style="stroke:#A80036;stroke-width:1.0;"/><text fill="#000000" font-family="sans-serif" font-size="13" lengthAdjust="spacing" textLength="43" x="799.5" y="647.0669">accept</text><!--MD5=[cc26e55aed3e4647cfe30d8e26a7c8f6]
link Admin to Statistics--><path codeLine="124" d="M1038.81,84.386 C1163.37,92.5 1547.4,121.924 1654.5,182 C1688.38,201.007 1714.94,238.475 1729.66,262.997 " fill="none" id="Admin-to-Statistics" style="stroke:#A80036;stroke-width:1.0;"/><polygon fill="#A80036" points="1732.28,267.418,1731.1419,257.6351,1729.7349,263.1142,1724.2558,261.7073,1732.28,267.418" style="stroke:#A80036;stroke-width:1.0;"/><text fill="#000000" font-family="sans-serif" font-size="13" lengthAdjust="spacing" textLength="30" x="1677.5" y="195.0669">view</text><!--MD5=[9b484aa1d3170fb61c3883a964d134dd]
link Mentor to Information--><path codeLine="125" d="M563.908,560.976 C547.99,581.784 531.698,607.565 523.5,634 C519.214,647.823 522.534,663.212 527.695,676.243 " fill="none" id="Mentor-to-Information" style="stroke:#A80036;stroke-width:1.0;"/><polygon fill="#A80036" points="529.669,680.93,529.8602,671.083,527.7274,676.3224,522.488,674.1896,529.669,680.93" style="stroke:#A80036;stroke-width:1.0;"/><text fill="#000000" font-family="sans-serif" font-size="13" lengthAdjust="spacing" textLength="45" x="524.5" y="647.0669">update</text><!--MD5=[1f1142f19237e9077ee9d8de5650fb74]
link Mentee to Request--><path codeLine="127" d="M941.368,346.036 C938.44,417.608 932.382,543.498 922.5,651 C921.77,658.936 920.789,667.487 919.793,675.444 " fill="none" id="Mentee-to-Request" style="stroke:#A80036;stroke-width:1.0;"/><polygon fill="#A80036" points="919.104,680.842,924.2109,672.4206,919.7368,675.8822,916.2753,671.4081,919.104,680.842" style="stroke:#A80036;stroke-width:1.0;"/><text fill="#000000" font-family="sans-serif" font-size="13" lengthAdjust="spacing" textLength="31" x="939.5" y="518.0669">send</text><!--MD5=[b59ec05fccf4ecb7c4fb4d6d1f74254f]
link Admin to Status--><path codeLine="128" d="M1014.58,152.091 C1022.79,190.247 1032.43,235.053 1038.25,262.087 " fill="none" id="Admin-to-Status" style="stroke:#A80036;stroke-width:1.0;"/><polygon fill="#A80036" points="1039.36,267.25,1041.3743,257.6093,1038.3067,262.3622,1033.5538,259.2946,1039.36,267.25" style="stroke:#A80036;stroke-width:1.0;"/><text fill="#000000" font-family="sans-serif" font-size="13" lengthAdjust="spacing" textLength="45" x="1025.5" y="195.0669">update</text><!--MD5=[6730499f97ae6f245a9a35928a976784]
link Mentee to List--><path codeLine="129" d="M986.766,331.513 C992.558,336.6 998.555,341.556 1004.5,346 C1058.9,386.668 1093.37,370.535 1136.5,423 C1151.96,441.809 1159.91,468.804 1163.86,488.221 " fill="none" id="Mentee-to-List" style="stroke:#A80036;stroke-width:1.0;"/><polygon fill="#A80036" points="1164.87,493.484,1167.1025,483.8915,1163.9279,488.5736,1159.2458,485.3989,1164.87,493.484" style="stroke:#A80036;stroke-width:1.0;"/><text fill="#000000" font-family="sans-serif" font-size="13" lengthAdjust="spacing" textLength="23" x="1103.5" y="389.0669">see</text><!--MD5=[5f960b2059178f497042bdca0fb9ca2d]
link Mentor to TrainingPhaseActivity--><path codeLine="130" d="M563.918,545.196 C534.171,568.093 493.989,600.992 462.5,634 C447.972,649.229 433.67,668.241 423.294,682.975 " fill="none" id="Mentor-to-TrainingPhaseActivity" style="stroke:#A80036;stroke-width:1.0;"/><polygon fill="#A80036" points="420.203,687.401,428.6339,682.3099,423.0646,683.3008,422.0737,677.7314,420.203,687.401" style="stroke:#A80036;stroke-width:1.0;"/><text fill="#000000" font-family="sans-serif" font-size="13" lengthAdjust="spacing" textLength="50" x="463.5" y="647.0669">monitor</text><!--MD5=[5ecba2fcb9d3810acfd11d150a518e07]
@startuml
hide circle
class Admin<actor> {
}
class Mentee<actor> {
}
class Mentor<actor> {
}
class User<actor> {
}
class Developer<actor> {
}
class Enduser<actor> {
}
class Administrator<actor> {
}
class Admin {
	get()
	export()
	update()
	assign()
	view()
	send()
	match()
	track()
}
class Mentor {
	reset()
	report()
	create()
	register()
	select()
	update()
	provide()
	monitor()
	accept()
	mark()
	submit()
}
class Mentee {
	reset()
	select()
	update()
	send()
	upload()
	see()
}
class ContactDetail {
}
class Password {
}
class Administrator {
	get()
}
class Statistics {
}
class Availability {
}
class Detail {
}
class Report {
}
class Request {
	establish()
}
class Connection {
}
class Status {
}
class TrainingPhaseActivity {
}
class Information {
	includes()
}
class Phone {
}
class InformationDetail {
}
class ActivityRecord {
}
class User {
	update()
	access()
}
class Site {
}
class Reminder {
}
class ActivityReport {
}
class List {
}
class Developer {
	integrate()
}
class WebApplication {
}
class Interaction {
}
Developer - -> WebApplication : integrate
Mentor - -> Mentee : select
Mentee - -> ContactDetail : update
Information - -> Phone : includes
Mentor - -> Interaction : report
Mentor - -> Availability : mark
Mentor - -> Report : submit
Admin - -> Mentee : track
Mentor - -> Detail : register
Mentee - -> InformationDetail : update
Mentee - -> Password : reset
User - -> Password : update
Admin - -> Mentor : track
Admin - -> Mentor : assign
Mentor - -> ActivityRecord : create
Mentee - -> Detail : upload
Mentor - -> ActivityReport : provide
Mentor - -> Password : reset
Admin - -> Report : export
User - -> Site : access
Admin - -> Reminder : send
Request - -> Connection : establish
Administrator - -> Statistics : get
Admin - -> ActivityReport : view
Mentor - -> Request : accept
Admin - -> Statistics : view
Mentor - -> Information : update
Admin - -> Report : get
Mentee - -> Request : send
Admin - -> Status : update
Mentee - -> List : see
Mentor - -> TrainingPhaseActivity : monitor
Mentee - -> Mentor : select
Admin - -> Mentor : match
@enduml

PlantUML version 1.2021.6beta6(Unknown compile time)
(GPL source distribution)
Java Runtime: Java(TM) SE Runtime Environment
JVM: Java HotSpot(TM) 64-Bit Server VM
Default Encoding: UTF-8
Language: en
Country: US
--></g></svg>