<?xml version="1.0" encoding="UTF-8" standalone="no"?><svg xmlns="http://www.w3.org/2000/svg" xmlns:xlink="http://www.w3.org/1999/xlink" contentScriptType="application/ecmascript" contentStyleType="text/css" height="282px" preserveAspectRatio="none" style="width:1365px;height:282px;background:#FFFFFF;" version="1.1" viewBox="0 0 1365 282" width="1365px" zoomAndPan="magnify"><defs><filter height="300%" id="f704mkngxjvsx" width="300%" x="-1" y="-1"><feGaussianBlur result="blurOut" stdDeviation="2.0"/><feColorMatrix in="blurOut" result="blurOut2" type="matrix" values="0 0 0 0 0 0 0 0 0 0 0 0 0 0 0 0 0 0 .4 0"/><feOffset dx="4.0" dy="4.0" in="blurOut2" result="blurOut3"/><feBlend in="SourceGraphic" in2="blurOut3" mode="normal"/></filter></defs><g><!--MD5=[3fd616f346a44cd59a91eb10b19e157c]
class User--><rect codeLine="8" fill="#FEFECE" filter="url(#f704mkngxjvsx)" height="142.4063" id="User" style="stroke:#A80036;stroke-width:1.5;" width="70" x="459" y="10"/><text fill="#000000" font-family="sans-serif" font-size="12" lengthAdjust="spacing" textLength="29" x="462" y="26.1387">User</text><rect fill="#FFFFFF" height="15.9688" style="stroke:#000000;stroke-width:1.0;stroke-dasharray:2.0,2.0;" width="33" x="499" y="7"/><text fill="#000000" font-family="sans-serif" font-size="12" font-style="italic" lengthAdjust="spacing" textLength="31" x="500" y="19.1387">actor</text><line style="stroke:#A80036;stroke-width:1.5;" x1="460" x2="528" y1="33.9688" y2="33.9688"/><line style="stroke:#A80036;stroke-width:1.5;" x1="460" x2="528" y1="41.9688" y2="41.9688"/><text fill="#000000" font-family="sans-serif" font-size="11" lengthAdjust="spacing" textLength="49" x="465" y="56.1792">disable()</text><text fill="#000000" font-family="sans-serif" font-size="11" lengthAdjust="spacing" textLength="48" x="465" y="68.9839">update()</text><text fill="#000000" font-family="sans-serif" font-size="11" lengthAdjust="spacing" textLength="30" x="465" y="81.7886">see()</text><text fill="#000000" font-family="sans-serif" font-size="11" lengthAdjust="spacing" textLength="52" x="465" y="94.5933">resume()</text><text fill="#000000" font-family="sans-serif" font-size="11" lengthAdjust="spacing" textLength="29" x="465" y="107.3979">sort()</text><text fill="#000000" font-family="sans-serif" font-size="11" lengthAdjust="spacing" textLength="29" x="465" y="120.2026">find()</text><text fill="#000000" font-family="sans-serif" font-size="11" lengthAdjust="spacing" textLength="34" x="465" y="133.0073">filter()</text><text fill="#000000" font-family="sans-serif" font-size="11" lengthAdjust="spacing" textLength="31" x="465" y="145.812">look()</text><!--MD5=[9519312da563c9b60cbd933eb7c20278]
class SystemAdmin--><rect codeLine="32" fill="#FEFECE" filter="url(#f704mkngxjvsx)" height="52.7734" id="SystemAdmin" style="stroke:#A80036;stroke-width:1.5;" width="123" x="1228.5" y="54.5"/><text fill="#000000" font-family="sans-serif" font-size="12" lengthAdjust="spacing" textLength="82" x="1231.5" y="70.6387">SystemAdmin</text><rect fill="#FFFFFF" height="15.9688" style="stroke:#000000;stroke-width:1.0;stroke-dasharray:2.0,2.0;" width="33" x="1321.5" y="51.5"/><text fill="#000000" font-family="sans-serif" font-size="12" font-style="italic" lengthAdjust="spacing" textLength="31" x="1322.5" y="63.6387">actor</text><line style="stroke:#A80036;stroke-width:1.5;" x1="1229.5" x2="1350.5" y1="78.4688" y2="78.4688"/><line style="stroke:#A80036;stroke-width:1.5;" x1="1229.5" x2="1350.5" y1="86.4688" y2="86.4688"/><text fill="#000000" font-family="sans-serif" font-size="11" lengthAdjust="spacing" textLength="55" x="1234.5" y="100.6792">approve()</text><!--MD5=[db6d18d8099558415abc41d00477ab92]
class Admin--><rect codeLine="20" fill="#FEFECE" filter="url(#f704mkngxjvsx)" height="91.1875" id="Admin" style="stroke:#A80036;stroke-width:1.5;" width="78" x="1033" y="35.5"/><text fill="#000000" font-family="sans-serif" font-size="12" lengthAdjust="spacing" textLength="37" x="1036" y="51.6387">Admin</text><rect fill="#FFFFFF" height="15.9688" style="stroke:#000000;stroke-width:1.0;stroke-dasharray:2.0,2.0;" width="33" x="1081" y="32.5"/><text fill="#000000" font-family="sans-serif" font-size="12" font-style="italic" lengthAdjust="spacing" textLength="31" x="1082" y="44.6387">actor</text><line style="stroke:#A80036;stroke-width:1.5;" x1="1034" x2="1110" y1="59.4688" y2="59.4688"/><line style="stroke:#A80036;stroke-width:1.5;" x1="1034" x2="1110" y1="67.4688" y2="67.4688"/><text fill="#000000" font-family="sans-serif" font-size="11" lengthAdjust="spacing" textLength="55" x="1039" y="81.6792">approve()</text><text fill="#000000" font-family="sans-serif" font-size="11" lengthAdjust="spacing" textLength="53" x="1039" y="94.4839">remove()</text><text fill="#000000" font-family="sans-serif" font-size="11" lengthAdjust="spacing" textLength="41" x="1039" y="107.2886">reject()</text><text fill="#000000" font-family="sans-serif" font-size="11" lengthAdjust="spacing" textLength="62" x="1039" y="120.0933">authorize()</text><!--MD5=[fd5b4f13a6c28069687f581866a189b5]
class Papers--><rect codeLine="18" fill="#FEFECE" filter="url(#f704mkngxjvsx)" height="39.9688" id="Papers" style="stroke:#A80036;stroke-width:1.5;" width="47" x="514.5" y="229"/><text fill="#000000" font-family="sans-serif" font-size="12" lengthAdjust="spacing" textLength="41" x="517.5" y="245.1387">Papers</text><line style="stroke:#A80036;stroke-width:1.5;" x1="515.5" x2="560.5" y1="252.9688" y2="252.9688"/><line style="stroke:#A80036;stroke-width:1.5;" x1="515.5" x2="560.5" y1="260.9688" y2="260.9688"/><!--MD5=[fd7366e9f96236d9aa60dcc04f2b83e5]
class Content--><rect codeLine="26" fill="#FEFECE" filter="url(#f704mkngxjvsx)" height="39.9688" id="Content" style="stroke:#A80036;stroke-width:1.5;" width="52" x="1172" y="229"/><text fill="#000000" font-family="sans-serif" font-size="12" lengthAdjust="spacing" textLength="46" x="1175" y="245.1387">Content</text><line style="stroke:#A80036;stroke-width:1.5;" x1="1173" x2="1223" y1="252.9688" y2="252.9688"/><line style="stroke:#A80036;stroke-width:1.5;" x1="1173" x2="1223" y1="260.9688" y2="260.9688"/><!--MD5=[ac13618b1a974308c1f12eb6c57723dc]
class Event--><rect codeLine="28" fill="#FEFECE" filter="url(#f704mkngxjvsx)" height="39.9688" id="Event" style="stroke:#A80036;stroke-width:1.5;" width="39" x="596.5" y="229"/><text fill="#000000" font-family="sans-serif" font-size="12" lengthAdjust="spacing" textLength="33" x="599.5" y="245.1387">Event</text><line style="stroke:#A80036;stroke-width:1.5;" x1="597.5" x2="634.5" y1="252.9688" y2="252.9688"/><line style="stroke:#A80036;stroke-width:1.5;" x1="597.5" x2="634.5" y1="260.9688" y2="260.9688"/><!--MD5=[a64a835c3d62471a77f615251fdde58a]
class Position--><rect codeLine="30" fill="#FEFECE" filter="url(#f704mkngxjvsx)" height="39.9688" id="Position" style="stroke:#A80036;stroke-width:1.5;" width="52" x="671" y="229"/><text fill="#000000" font-family="sans-serif" font-size="12" lengthAdjust="spacing" textLength="46" x="674" y="245.1387">Position</text><line style="stroke:#A80036;stroke-width:1.5;" x1="672" x2="722" y1="252.9688" y2="252.9688"/><line style="stroke:#A80036;stroke-width:1.5;" x1="672" x2="722" y1="260.9688" y2="260.9688"/><!--MD5=[0851f84a889f989e7bb0bebc385d0f09]
class Request--><rect codeLine="35" fill="#FEFECE" filter="url(#f704mkngxjvsx)" height="39.9688" id="Request" style="stroke:#A80036;stroke-width:1.5;" width="55" x="1262.5" y="229"/><text fill="#000000" font-family="sans-serif" font-size="12" lengthAdjust="spacing" textLength="49" x="1265.5" y="245.1387">Request</text><line style="stroke:#A80036;stroke-width:1.5;" x1="1263.5" x2="1316.5" y1="252.9688" y2="252.9688"/><line style="stroke:#A80036;stroke-width:1.5;" x1="1263.5" x2="1316.5" y1="260.9688" y2="260.9688"/><!--MD5=[9d93cc8568a88ed605ddd50c0dd874e2]
class Media--><rect codeLine="37" fill="#FEFECE" filter="url(#f704mkngxjvsx)" height="39.9688" id="Media" style="stroke:#A80036;stroke-width:1.5;" width="42" x="758" y="229"/><text fill="#000000" font-family="sans-serif" font-size="12" lengthAdjust="spacing" textLength="36" x="761" y="245.1387">Media</text><line style="stroke:#A80036;stroke-width:1.5;" x1="759" x2="799" y1="252.9688" y2="252.9688"/><line style="stroke:#A80036;stroke-width:1.5;" x1="759" x2="799" y1="260.9688" y2="260.9688"/><!--MD5=[7b57f7066b803747d2119f99dd1555d4]
class Profile--><rect codeLine="39" fill="#FEFECE" filter="url(#f704mkngxjvsx)" height="39.9688" id="Profile" style="stroke:#A80036;stroke-width:1.5;" width="43" x="869.5" y="229"/><text fill="#000000" font-family="sans-serif" font-size="12" lengthAdjust="spacing" textLength="37" x="872.5" y="245.1387">Profile</text><line style="stroke:#A80036;stroke-width:1.5;" x1="870.5" x2="911.5" y1="252.9688" y2="252.9688"/><line style="stroke:#A80036;stroke-width:1.5;" x1="870.5" x2="911.5" y1="260.9688" y2="260.9688"/><!--MD5=[99fbc0257732a9f9771663dcb533c304]
class Alumnus--><rect codeLine="41" fill="#FEFECE" filter="url(#f704mkngxjvsx)" height="39.9688" id="Alumnus" style="stroke:#A80036;stroke-width:1.5;" width="56" x="7" y="229"/><text fill="#000000" font-family="sans-serif" font-size="12" lengthAdjust="spacing" textLength="50" x="10" y="245.1387">Alumnus</text><line style="stroke:#A80036;stroke-width:1.5;" x1="8" x2="62" y1="252.9688" y2="252.9688"/><line style="stroke:#A80036;stroke-width:1.5;" x1="8" x2="62" y1="260.9688" y2="260.9688"/><!--MD5=[f572c118330f78587a09a8d1323f8ced]
class Calendar--><rect codeLine="43" fill="#FEFECE" filter="url(#f704mkngxjvsx)" height="39.9688" id="Calendar" style="stroke:#A80036;stroke-width:1.5;" width="59" x="98.5" y="229"/><text fill="#000000" font-family="sans-serif" font-size="12" lengthAdjust="spacing" textLength="53" x="101.5" y="245.1387">Calendar</text><line style="stroke:#A80036;stroke-width:1.5;" x1="99.5" x2="156.5" y1="252.9688" y2="252.9688"/><line style="stroke:#A80036;stroke-width:1.5;" x1="99.5" x2="156.5" y1="260.9688" y2="260.9688"/><!--MD5=[7dde244f1b93ccf44d7f9e836b89e039]
class UserProfile--><rect codeLine="45" fill="#FEFECE" filter="url(#f704mkngxjvsx)" height="39.9688" id="UserProfile" style="stroke:#A80036;stroke-width:1.5;" width="72" x="1027" y="229"/><text fill="#000000" font-family="sans-serif" font-size="12" lengthAdjust="spacing" textLength="66" x="1030" y="245.1387">UserProfile</text><line style="stroke:#A80036;stroke-width:1.5;" x1="1028" x2="1098" y1="252.9688" y2="252.9688"/><line style="stroke:#A80036;stroke-width:1.5;" x1="1028" x2="1098" y1="260.9688" y2="260.9688"/><!--MD5=[59e25865eff7d5dcb20dd0fd75436df0]
class Updated--><rect codeLine="47" fill="#FEFECE" filter="url(#f704mkngxjvsx)" height="39.9688" id="Updated" style="stroke:#A80036;stroke-width:1.5;" width="58" x="193" y="229"/><text fill="#000000" font-family="sans-serif" font-size="12" lengthAdjust="spacing" textLength="52" x="196" y="245.1387">Updated</text><line style="stroke:#A80036;stroke-width:1.5;" x1="194" x2="250" y1="252.9688" y2="252.9688"/><line style="stroke:#A80036;stroke-width:1.5;" x1="194" x2="250" y1="260.9688" y2="260.9688"/><!--MD5=[3004c4c4227775b76e79e426d01396e8]
class ResearchPapers--><rect codeLine="49" fill="#FEFECE" filter="url(#f704mkngxjvsx)" height="39.9688" id="ResearchPapers" style="stroke:#A80036;stroke-width:1.5;" width="103" x="286.5" y="229"/><text fill="#000000" font-family="sans-serif" font-size="12" lengthAdjust="spacing" textLength="97" x="289.5" y="245.1387">ResearchPapers</text><line style="stroke:#A80036;stroke-width:1.5;" x1="287.5" x2="388.5" y1="252.9688" y2="252.9688"/><line style="stroke:#A80036;stroke-width:1.5;" x1="287.5" x2="388.5" y1="260.9688" y2="260.9688"/><!--MD5=[f9a29335b499db729be669fd1bd54958]
class Account--><rect codeLine="51" fill="#FEFECE" filter="url(#f704mkngxjvsx)" height="39.9688" id="Account" style="stroke:#A80036;stroke-width:1.5;" width="54" x="425" y="229"/><text fill="#000000" font-family="sans-serif" font-size="12" lengthAdjust="spacing" textLength="48" x="428" y="245.1387">Account</text><line style="stroke:#A80036;stroke-width:1.5;" x1="426" x2="478" y1="252.9688" y2="252.9688"/><line style="stroke:#A80036;stroke-width:1.5;" x1="426" x2="478" y1="260.9688" y2="260.9688"/><!--MD5=[f7c6b7228bc1f88e06bb3e78f43786b7]
link SystemAdmin to Request--><path codeLine="53" d="M1290,107.574 C1290,139.212 1290,192.684 1290,223.7149 " fill="none" id="SystemAdmin-to-Request" style="stroke:#A80036;stroke-width:1.0;"/><polygon fill="#A80036" points="1290,228.8665,1294,219.8665,1290,223.8665,1286,219.8665,1290,228.8665" style="stroke:#A80036;stroke-width:1.0;"/><text fill="#000000" font-family="sans-serif" font-size="13" lengthAdjust="spacing" textLength="53" x="1291" y="195.0669">approve</text><!--MD5=[29793cb2e6ce1def3d6fecaef4efbf08]
link User to Event--><path codeLine="54" d="M529.287,130.014 C552.172,161.152 580.966,200.3313 598.932,224.7763 " fill="none" id="User-to-Event" style="stroke:#A80036;stroke-width:1.0;"/><polygon fill="#A80036" points="601.938,228.8665,599.8307,219.2457,598.9767,224.8377,593.3847,223.9838,601.938,228.8665" style="stroke:#A80036;stroke-width:1.0;"/><text fill="#000000" font-family="sans-serif" font-size="13" lengthAdjust="spacing" textLength="23" x="581" y="195.0669">see</text><!--MD5=[1539466c1f232f3bf2ff5ab5f2e17ab4]
link User to Papers--><path codeLine="55" d="M512.66,152.399 C519.425,177.9229 526.622,205.0745 531.61,223.894 " fill="none" id="User-to-Papers" style="stroke:#A80036;stroke-width:1.0;"/><polygon fill="#A80036" points="532.957,228.9729,534.5173,219.2484,531.6758,224.1398,526.7844,221.2983,532.957,228.9729" style="stroke:#A80036;stroke-width:1.0;"/><text fill="#000000" font-family="sans-serif" font-size="13" lengthAdjust="spacing" textLength="26" x="526" y="195.0669">look</text><!--MD5=[d72d85c617b7da5cdfe749ca1b11ab7a]
link User to Alumnus--><path codeLine="56" d="M458.942,92.709 C402.492,110.161 288.147,146.38 193,182 C149.264,198.3737 99.707,219.5056 67.9431,233.39 " fill="none" id="User-to-Alumnus" style="stroke:#A80036;stroke-width:1.0;"/><polygon fill="#A80036" points="63.0016,235.5543,72.8503,235.6075,67.5816,233.5483,69.6407,228.2796,63.0016,235.5543" style="stroke:#A80036;stroke-width:1.0;"/><text fill="#000000" font-family="sans-serif" font-size="13" lengthAdjust="spacing" textLength="26" x="194" y="195.0669">look</text><!--MD5=[d78fbed77c243871336248e5e701f57e]
link User to ResearchPapers--><path codeLine="57" d="M458.991,119.254 C428.509,151.689 385.29,197.6781 359.604,225.011 " fill="none" id="User-to-ResearchPapers" style="stroke:#A80036;stroke-width:1.0;"/><polygon fill="#A80036" points="355.945,228.9045,365.0229,225.0845,359.3688,225.2606,359.1927,219.6065,355.945,228.9045" style="stroke:#A80036;stroke-width:1.0;"/><text fill="#000000" font-family="sans-serif" font-size="13" lengthAdjust="spacing" textLength="25" x="399" y="195.0669">sort</text><!--MD5=[7ce0c4b758ebd1f3408bd95deedd9c67]
link Admin to Profile--><path codeLine="58" d="M1032.93,111.962 C1008.62,131.163 977.128,157.076 951,182 C936.784,195.5613 921.921,211.8917 910.545,224.9155 " fill="none" id="Admin-to-Profile" style="stroke:#A80036;stroke-width:1.0;"/><polygon fill="#A80036" points="907.131,228.8445,916.0535,224.6745,910.4105,225.0703,910.0148,219.4273,907.131,228.8445" style="stroke:#A80036;stroke-width:1.0;"/><text fill="#000000" font-family="sans-serif" font-size="13" lengthAdjust="spacing" textLength="60" x="952" y="195.0669">authorize</text><!--MD5=[478f285255d4ca4880442b35c8107bbf]
link User to Media--><path codeLine="59" d="M529.03,101.128 C565.102,120.953 622.828,153.039 672,182 C700.092,198.5457 731.831,218.2536 753.396,231.8001 " fill="none" id="User-to-Media" style="stroke:#A80036;stroke-width:1.0;"/><polygon fill="#A80036" points="757.839,234.5939,752.3493,226.4169,753.6062,231.9324,748.0908,233.1893,757.839,234.5939" style="stroke:#A80036;stroke-width:1.0;"/><text fill="#000000" font-family="sans-serif" font-size="13" lengthAdjust="spacing" textLength="45" x="700" y="195.0669">update</text><!--MD5=[215e30600a2d0921b2ed19f712031f74]
link User to Position--><path codeLine="60" d="M529.36,110.915 C569.203,143.496 633.128,195.7699 669.444,225.4661 " fill="none" id="User-to-Position" style="stroke:#A80036;stroke-width:1.0;"/><polygon fill="#A80036" points="673.732,228.9729,669.2978,220.1787,669.8617,225.8074,664.233,226.3712,673.732,228.9729" style="stroke:#A80036;stroke-width:1.0;"/><text fill="#000000" font-family="sans-serif" font-size="13" lengthAdjust="spacing" textLength="24" x="639" y="195.0669">find</text><!--MD5=[15b1a548bbc213b4d077167fcbd08dd4]
link User to Updated--><path codeLine="61" d="M458.752,102.586 C424.636,122.604 371.542,154.003 326,182 C302.359,196.5332 275.962,213.2916 255.678,226.2849 " fill="none" id="User-to-Updated" style="stroke:#A80036;stroke-width:1.0;"/><polygon fill="#A80036" points="251.446,228.9982,261.1819,227.5106,255.6559,226.3007,256.8658,220.7747,251.446,228.9982" style="stroke:#A80036;stroke-width:1.0;"/><text fill="#000000" font-family="sans-serif" font-size="13" lengthAdjust="spacing" textLength="49" x="327" y="195.0669">resume</text><!--MD5=[765245b9744207597b6285f87c5157a9]
link User to Calendar--><path codeLine="62" d="M458.774,96.529 C413.098,115.518 331.096,150.117 262,182 C227.721,197.8172 189.096,216.9881 162.152,230.5834 " fill="none" id="User-to-Calendar" style="stroke:#A80036;stroke-width:1.0;"/><polygon fill="#A80036" points="157.597,232.8853,167.4337,232.3952,162.0594,230.6298,163.8248,225.2555,157.597,232.8853" style="stroke:#A80036;stroke-width:1.0;"/><text fill="#000000" font-family="sans-serif" font-size="13" lengthAdjust="spacing" textLength="29" x="263" y="195.0669">filter</text><!--MD5=[87e802f94dff5db0b14b612664619da8]
link User to Account--><path codeLine="63" d="M458.931,147.851 C454.41,158.975 450.493,170.6128 448,182 C445.035,195.5405 445.757,210.9912 447.347,223.5377 " fill="none" id="User-to-Account" style="stroke:#A80036;stroke-width:1.0;"/><polygon fill="#A80036" points="448.074,228.7228,450.786,219.2547,447.38,223.7712,442.8635,220.3651,448.074,228.7228" style="stroke:#A80036;stroke-width:1.0;"/><text fill="#000000" font-family="sans-serif" font-size="13" lengthAdjust="spacing" textLength="45" x="449" y="195.0669">disable</text><!--MD5=[ffbfde574bb7ae168ad208d635d3b889]
link Admin to Content--><path codeLine="64" d="M1106.1,126.922 C1130.07,158.509 1161.18,199.4902 1180.36,224.7535 " fill="none" id="Admin-to-Content" style="stroke:#A80036;stroke-width:1.0;"/><polygon fill="#A80036" points="1183.56,228.9754,1181.3083,219.3874,1180.5385,224.9916,1174.9342,224.2218,1183.56,228.9754" style="stroke:#A80036;stroke-width:1.0;"/><text fill="#000000" font-family="sans-serif" font-size="13" lengthAdjust="spacing" textLength="50" x="1162" y="195.0669">remove</text><!--MD5=[3b3a110f6aeec0a0bf442c01daca6c1c]
link User to Profile--><path codeLine="65" d="M529.272,94.527 C579.617,112.641 674.761,147.743 754,182 C793.173,198.9353 837.499,220.7986 864.852,234.614 " fill="none" id="User-to-Profile" style="stroke:#A80036;stroke-width:1.0;"/><polygon fill="#A80036" points="869.424,236.9285,863.2012,229.2946,864.9631,234.6701,859.5877,236.432,869.424,236.9285" style="stroke:#A80036;stroke-width:1.0;"/><text fill="#000000" font-family="sans-serif" font-size="13" lengthAdjust="spacing" textLength="23" x="790" y="195.0669">see</text><!--MD5=[1ea45b0a590556417bcb17102e17e1d4]
link Admin to UserProfile--><path codeLine="66" d="M1044.16,126.602 C1035.24,143.33 1026.5,162.92 1022,182 C1020.26,189.3534 1019.42,191.8983 1022,199 C1025.39,208.3246 1031.41,217.1145 1037.82,224.6053 " fill="none" id="Admin-to-UserProfile" style="stroke:#A80036;stroke-width:1.0;"/><polygon fill="#A80036" points="1041.4,228.6283,1038.3941,219.2493,1038.0717,224.897,1032.4241,224.5746,1041.4,228.6283" style="stroke:#A80036;stroke-width:1.0;"/><text fill="#000000" font-family="sans-serif" font-size="13" lengthAdjust="spacing" textLength="53" x="1023" y="195.0669">approve</text><!--MD5=[1ea45b0a590556417bcb17102e17e1d4]
link Admin to UserProfile--><path codeLine="67" d="M1080.7,126.708 C1083.63,148.625 1085.21,175.3319 1081,199 C1079.5,207.4236 1076.66,216.2981 1073.67,224.1454 " fill="none" id="Admin-to-UserProfile-1" style="stroke:#A80036;stroke-width:1.0;"/><polygon fill="#A80036" points="1071.8,228.8855,1078.8283,221.986,1073.6379,224.2356,1071.3883,219.0452,1071.8,228.8855" style="stroke:#A80036;stroke-width:1.0;"/><text fill="#000000" font-family="sans-serif" font-size="13" lengthAdjust="spacing" textLength="36" x="1084" y="195.0669">reject</text><!--MD5=[d7df2e29f2ef703968baedbdc8e1b2a3]
@startuml
hide circle
class User<actor> {
}
class SystemAdmin<actor> {
}
class Admin<actor> {
}
class User {
	disable()
	update()
	see()
	resume()
	sort()
	find()
	filter()
	look()
}
class Papers {
}
class Admin {
	approve()
	remove()
	reject()
	authorize()
}
class Content {
}
class Event {
}
class Position {
}
class SystemAdmin {
	approve()
}
class Request {
}
class Media {
}
class Profile {
}
class Alumnus {
}
class Calendar {
}
class UserProfile {
}
class Updated {
}
class ResearchPapers {
}
class Account {
}
SystemAdmin - -> Request : approve
User - -> Event : see
User - -> Papers : look
User - -> Alumnus : look
User - -> ResearchPapers : sort
Admin - -> Profile : authorize
User - -> Media : update
User - -> Position : find
User - -> Updated : resume
User - -> Calendar : filter
User - -> Account : disable
Admin - -> Content : remove
User - -> Profile : see
Admin - -> UserProfile : approve
Admin - -> UserProfile : reject
@enduml

PlantUML version 1.2021.6beta6(Unknown compile time)
(GPL source distribution)
Java Runtime: Java(TM) SE Runtime Environment
JVM: Java HotSpot(TM) 64-Bit Server VM
Default Encoding: UTF-8
Language: en
Country: US
--></g></svg>