<?xml version="1.0" encoding="UTF-8" standalone="no"?><svg xmlns="http://www.w3.org/2000/svg" xmlns:xlink="http://www.w3.org/1999/xlink" contentScriptType="application/ecmascript" contentStyleType="text/css" height="809px" preserveAspectRatio="none" style="width:1004px;height:809px;background:#FFFFFF;" version="1.1" viewBox="0 0 1004 809" width="1004px" zoomAndPan="magnify"><defs><filter height="300%" id="f1a1v26gvukbvs" width="300%" x="-1" y="-1"><feGaussianBlur result="blurOut" stdDeviation="2.0"/><feColorMatrix in="blurOut" result="blurOut2" type="matrix" values="0 0 0 0 0 0 0 0 0 0 0 0 0 0 0 0 0 0 .4 0"/><feOffset dx="4.0" dy="4.0" in="blurOut2" result="blurOut3"/><feBlend in="SourceGraphic" in2="blurOut3" mode="normal"/></filter></defs><g><!--MD5=[3fd616f346a44cd59a91eb10b19e157c]
class User--><rect codeLine="13" fill="#FEFECE" filter="url(#f1a1v26gvukbvs)" height="206.4297" id="User" style="stroke:#A80036;stroke-width:1.5;" width="98" x="291" y="359"/><text fill="#000000" font-family="sans-serif" font-size="12" lengthAdjust="spacing" textLength="29" x="308" y="375.1387">User</text><rect fill="#FFFFFF" height="15.9688" style="stroke:#000000;stroke-width:1.0;stroke-dasharray:2.0,2.0;" width="33" x="359" y="356"/><text fill="#000000" font-family="sans-serif" font-size="12" font-style="italic" lengthAdjust="spacing" textLength="31" x="360" y="368.1387">actor</text><line style="stroke:#A80036;stroke-width:1.5;" x1="292" x2="388" y1="382.9688" y2="382.9688"/><text fill="#000000" font-family="sans-serif" font-size="11" lengthAdjust="spacing" textLength="73" x="297" y="397.1792">performance</text><text fill="#000000" font-family="sans-serif" font-size="11" lengthAdjust="spacing" textLength="86" x="297" y="409.9839">progressReport</text><text fill="#000000" font-family="sans-serif" font-size="11" lengthAdjust="spacing" textLength="28" x="297" y="422.7886">point</text><line style="stroke:#A80036;stroke-width:1.5;" x1="292" x2="388" y1="429.3828" y2="429.3828"/><text fill="#000000" font-family="sans-serif" font-size="11" lengthAdjust="spacing" textLength="72" x="297" y="443.5933">understand()</text><text fill="#000000" font-family="sans-serif" font-size="11" lengthAdjust="spacing" textLength="37" x="297" y="456.3979">show()</text><text fill="#000000" font-family="sans-serif" font-size="11" lengthAdjust="spacing" textLength="32" x="297" y="469.2026">play()</text><text fill="#000000" font-family="sans-serif" font-size="11" lengthAdjust="spacing" textLength="37" x="297" y="482.0073">have()</text><text fill="#000000" font-family="sans-serif" font-size="11" lengthAdjust="spacing" textLength="30" x="297" y="494.812">skip()</text><text fill="#000000" font-family="sans-serif" font-size="11" lengthAdjust="spacing" textLength="27" x="297" y="507.6167">get()</text><text fill="#000000" font-family="sans-serif" font-size="11" lengthAdjust="spacing" textLength="35" x="297" y="520.4214">view()</text><text fill="#000000" font-family="sans-serif" font-size="11" lengthAdjust="spacing" textLength="31" x="297" y="533.2261">rate()</text><text fill="#000000" font-family="sans-serif" font-size="11" lengthAdjust="spacing" textLength="35" x="297" y="546.0308">track()</text><text fill="#000000" font-family="sans-serif" font-size="11" lengthAdjust="spacing" textLength="55" x="297" y="558.8354">proceed()</text><!--MD5=[d342058c8fb6f80e9d50d673c6908241]
class Developer--><rect codeLine="27" fill="#FEFECE" filter="url(#f1a1v26gvukbvs)" height="142.4063" id="Developer" style="stroke:#A80036;stroke-width:1.5;" width="105" x="512.5" y="10"/><text fill="#000000" font-family="sans-serif" font-size="12" lengthAdjust="spacing" textLength="64" x="515.5" y="26.1387">Developer</text><rect fill="#FFFFFF" height="15.9688" style="stroke:#000000;stroke-width:1.0;stroke-dasharray:2.0,2.0;" width="33" x="587.5" y="7"/><text fill="#000000" font-family="sans-serif" font-size="12" font-style="italic" lengthAdjust="spacing" textLength="31" x="588.5" y="19.1387">actor</text><line style="stroke:#A80036;stroke-width:1.5;" x1="513.5" x2="616.5" y1="33.9688" y2="33.9688"/><line style="stroke:#A80036;stroke-width:1.5;" x1="513.5" x2="616.5" y1="41.9688" y2="41.9688"/><text fill="#000000" font-family="sans-serif" font-size="11" lengthAdjust="spacing" textLength="51" x="518.5" y="56.1792">provide()</text><text fill="#000000" font-family="sans-serif" font-size="11" lengthAdjust="spacing" textLength="22" x="518.5" y="68.9839">fix()</text><text fill="#000000" font-family="sans-serif" font-size="11" lengthAdjust="spacing" textLength="33" x="518.5" y="81.7886">give()</text><text fill="#000000" font-family="sans-serif" font-size="11" lengthAdjust="spacing" textLength="48" x="518.5" y="94.5933">publish()</text><text fill="#000000" font-family="sans-serif" font-size="11" lengthAdjust="spacing" textLength="70" x="518.5" y="107.3979">restructure()</text><text fill="#000000" font-family="sans-serif" font-size="11" lengthAdjust="spacing" textLength="36" x="518.5" y="120.2026">hand()</text><text fill="#000000" font-family="sans-serif" font-size="11" lengthAdjust="spacing" textLength="50" x="518.5" y="133.0073">change()</text><text fill="#000000" font-family="sans-serif" font-size="11" lengthAdjust="spacing" textLength="57" x="518.5" y="145.812">hand_off()</text><!--MD5=[15c6922f6693225acd2805a9f7199676]
class Maintainer--><rect codeLine="52" fill="#FEFECE" filter="url(#f1a1v26gvukbvs)" height="52.7734" id="Maintainer" style="stroke:#A80036;stroke-width:1.5;" width="102" x="7" y="435.5"/><text fill="#000000" font-family="sans-serif" font-size="12" lengthAdjust="spacing" textLength="61" x="10" y="451.6387">Maintainer</text><rect fill="#FFFFFF" height="15.9688" style="stroke:#000000;stroke-width:1.0;stroke-dasharray:2.0,2.0;" width="33" x="79" y="432.5"/><text fill="#000000" font-family="sans-serif" font-size="12" font-style="italic" lengthAdjust="spacing" textLength="31" x="80" y="444.6387">actor</text><line style="stroke:#A80036;stroke-width:1.5;" x1="8" x2="108" y1="459.4688" y2="459.4688"/><line style="stroke:#A80036;stroke-width:1.5;" x1="8" x2="108" y1="467.4688" y2="467.4688"/><text fill="#000000" font-family="sans-serif" font-size="11" lengthAdjust="spacing" textLength="27" x="13" y="481.6792">get()</text><!--MD5=[e4460efd977c3af4b4cb6b09b781f305]
class Analytic--><rect codeLine="11" fill="#FEFECE" filter="url(#f1a1v26gvukbvs)" height="39.9688" id="Analytic" style="stroke:#A80036;stroke-width:1.5;" width="52" x="45" y="648.5"/><text fill="#000000" font-family="sans-serif" font-size="12" lengthAdjust="spacing" textLength="46" x="48" y="664.6387">Analytic</text><line style="stroke:#A80036;stroke-width:1.5;" x1="46" x2="96" y1="672.4688" y2="672.4688"/><line style="stroke:#A80036;stroke-width:1.5;" x1="46" x2="96" y1="680.4688" y2="680.4688"/><!--MD5=[335f4d9be48430461c68bf6d6fdba145]
class App--><rect codeLine="25" fill="#FEFECE" filter="url(#f1a1v26gvukbvs)" height="39.9688" id="App" style="stroke:#A80036;stroke-width:1.5;" width="30" x="632" y="648.5"/><text fill="#000000" font-family="sans-serif" font-size="12" lengthAdjust="spacing" textLength="24" x="635" y="664.6387">App</text><line style="stroke:#A80036;stroke-width:1.5;" x1="633" x2="661" y1="672.4688" y2="672.4688"/><line style="stroke:#A80036;stroke-width:1.5;" x1="633" x2="661" y1="680.4688" y2="680.4688"/><!--MD5=[972bde5337b4335dd91fa5354c932445]
class Point--><rect codeLine="37" fill="#FEFECE" filter="url(#f1a1v26gvukbvs)" height="39.9688" id="Point" style="stroke:#A80036;stroke-width:1.5;" width="34" x="145" y="648.5"/><text fill="#000000" font-family="sans-serif" font-size="12" lengthAdjust="spacing" textLength="28" x="148" y="664.6387">Point</text><line style="stroke:#A80036;stroke-width:1.5;" x1="146" x2="178" y1="672.4688" y2="672.4688"/><line style="stroke:#A80036;stroke-width:1.5;" x1="146" x2="178" y1="680.4688" y2="680.4688"/><!--MD5=[4e13963c9dc916a21a8436ef39422b32]
class Component--><rect codeLine="39" fill="#FEFECE" filter="url(#f1a1v26gvukbvs)" height="52.7734" id="Component" style="stroke:#A80036;stroke-width:1.5;" width="75" x="915.5" y="54.5"/><text fill="#000000" font-family="sans-serif" font-size="12" lengthAdjust="spacing" textLength="69" x="918.5" y="70.6387">Component</text><line style="stroke:#A80036;stroke-width:1.5;" x1="916.5" x2="989.5" y1="78.4688" y2="78.4688"/><line style="stroke:#A80036;stroke-width:1.5;" x1="916.5" x2="989.5" y1="86.4688" y2="86.4688"/><text fill="#000000" font-family="sans-serif" font-size="11" lengthAdjust="spacing" textLength="37" x="921.5" y="100.6792">have()</text><!--MD5=[3915787db80ab162e3259f8f86339844]
class Structure--><rect codeLine="42" fill="#FEFECE" filter="url(#f1a1v26gvukbvs)" height="39.9688" id="Structure" style="stroke:#A80036;stroke-width:1.5;" width="61" x="922.5" y="235.5"/><text fill="#000000" font-family="sans-serif" font-size="12" lengthAdjust="spacing" textLength="55" x="925.5" y="251.6387">Structure</text><line style="stroke:#A80036;stroke-width:1.5;" x1="923.5" x2="982.5" y1="259.4688" y2="259.4688"/><line style="stroke:#A80036;stroke-width:1.5;" x1="923.5" x2="982.5" y1="267.4688" y2="267.4688"/><!--MD5=[1a502b0dbedafd291c48f46ef8646183]
class Feedback--><rect codeLine="44" fill="#FEFECE" filter="url(#f1a1v26gvukbvs)" height="39.9688" id="Feedback" style="stroke:#A80036;stroke-width:1.5;" width="66" x="224" y="648.5"/><text fill="#000000" font-family="sans-serif" font-size="12" lengthAdjust="spacing" textLength="60" x="227" y="664.6387">Feedback</text><line style="stroke:#A80036;stroke-width:1.5;" x1="225" x2="289" y1="672.4688" y2="672.4688"/><line style="stroke:#A80036;stroke-width:1.5;" x1="225" x2="289" y1="680.4688" y2="680.4688"/><!--MD5=[fc7123defb831ecdd44b2d9bcef6cceb]
class Question--><rect codeLine="46" fill="#FEFECE" filter="url(#f1a1v26gvukbvs)" height="52.7734" id="Question" style="stroke:#A80036;stroke-width:1.5;" width="61" x="742.5" y="642"/><text fill="#000000" font-family="sans-serif" font-size="12" lengthAdjust="spacing" textLength="54" x="746" y="658.1387">Question</text><line style="stroke:#A80036;stroke-width:1.5;" x1="743.5" x2="802.5" y1="665.9688" y2="665.9688"/><line style="stroke:#A80036;stroke-width:1.5;" x1="743.5" x2="802.5" y1="673.9688" y2="673.9688"/><text fill="#000000" font-family="sans-serif" font-size="11" lengthAdjust="spacing" textLength="49" x="748.5" y="688.1792">answer()</text><!--MD5=[5e8081d071cf4e3ed9326b3d1ff1f1b8]
class Trouble--><rect codeLine="49" fill="#FEFECE" filter="url(#f1a1v26gvukbvs)" height="52.7734" id="Trouble" style="stroke:#A80036;stroke-width:1.5;" width="61" x="922.5" y="435.5"/><text fill="#000000" font-family="sans-serif" font-size="12" lengthAdjust="spacing" textLength="46" x="930" y="451.6387">Trouble</text><line style="stroke:#A80036;stroke-width:1.5;" x1="923.5" x2="982.5" y1="459.4688" y2="459.4688"/><line style="stroke:#A80036;stroke-width:1.5;" x1="923.5" x2="982.5" y1="467.4688" y2="467.4688"/><text fill="#000000" font-family="sans-serif" font-size="11" lengthAdjust="spacing" textLength="49" x="928.5" y="481.6792">answer()</text><!--MD5=[dd430f8ffb90486aebcb09d1b4424d44]
class SourceCode--><rect codeLine="55" fill="#FEFECE" filter="url(#f1a1v26gvukbvs)" height="39.9688" id="SourceCode" style="stroke:#A80036;stroke-width:1.5;" width="81" x="391.5" y="235.5"/><text fill="#000000" font-family="sans-serif" font-size="12" lengthAdjust="spacing" textLength="75" x="394.5" y="251.6387">SourceCode</text><line style="stroke:#A80036;stroke-width:1.5;" x1="392.5" x2="471.5" y1="259.4688" y2="259.4688"/><line style="stroke:#A80036;stroke-width:1.5;" x1="392.5" x2="471.5" y1="267.4688" y2="267.4688"/><!--MD5=[2e42295458bb0bec21c9622a623eb29e]
class Time--><rect codeLine="57" fill="#FEFECE" filter="url(#f1a1v26gvukbvs)" height="52.7734" id="Time" style="stroke:#A80036;stroke-width:1.5;" width="35" x="507.5" y="229"/><text fill="#000000" font-family="sans-serif" font-size="12" lengthAdjust="spacing" textLength="29" x="510.5" y="245.1387">Time</text><line style="stroke:#A80036;stroke-width:1.5;" x1="508.5" x2="541.5" y1="252.9688" y2="252.9688"/><line style="stroke:#A80036;stroke-width:1.5;" x1="508.5" x2="541.5" y1="260.9688" y2="260.9688"/><text fill="#000000" font-family="sans-serif" font-size="11" lengthAdjust="spacing" textLength="22" x="513.5" y="275.1792">fix()</text><!--MD5=[81ad4a850856c06a34e54cc318689887]
class Bug--><rect codeLine="60" fill="#FEFECE" filter="url(#f1a1v26gvukbvs)" height="39.9688" id="Bug" style="stroke:#A80036;stroke-width:1.5;" width="29" x="510.5" y="442"/><text fill="#000000" font-family="sans-serif" font-size="12" lengthAdjust="spacing" textLength="23" x="513.5" y="458.1387">Bug</text><line style="stroke:#A80036;stroke-width:1.5;" x1="511.5" x2="538.5" y1="465.9688" y2="465.9688"/><line style="stroke:#A80036;stroke-width:1.5;" x1="511.5" x2="538.5" y1="473.9688" y2="473.9688"/><!--MD5=[79d378210367c0c6ec62ef762ddfbd1b]
class Project--><rect codeLine="62" fill="#FEFECE" filter="url(#f1a1v26gvukbvs)" height="39.9688" id="Project" style="stroke:#A80036;stroke-width:1.5;" width="47" x="577.5" y="235.5"/><text fill="#000000" font-family="sans-serif" font-size="12" lengthAdjust="spacing" textLength="41" x="580.5" y="251.6387">Project</text><line style="stroke:#A80036;stroke-width:1.5;" x1="578.5" x2="623.5" y1="259.4688" y2="259.4688"/><line style="stroke:#A80036;stroke-width:1.5;" x1="578.5" x2="623.5" y1="267.4688" y2="267.4688"/><!--MD5=[1f3313e11f52906bc19153de0f738949]
class Hint--><rect codeLine="64" fill="#FEFECE" filter="url(#f1a1v26gvukbvs)" height="39.9688" id="Hint" style="stroke:#A80036;stroke-width:1.5;" width="29" x="325.5" y="648.5"/><text fill="#000000" font-family="sans-serif" font-size="12" lengthAdjust="spacing" textLength="23" x="328.5" y="664.6387">Hint</text><line style="stroke:#A80036;stroke-width:1.5;" x1="326.5" x2="353.5" y1="672.4688" y2="672.4688"/><line style="stroke:#A80036;stroke-width:1.5;" x1="326.5" x2="353.5" y1="680.4688" y2="680.4688"/><!--MD5=[df76e760f2062188d44f98c21a88999b]
class UI--><rect codeLine="66" fill="#FEFECE" filter="url(#f1a1v26gvukbvs)" height="52.7734" id="UI" style="stroke:#A80036;stroke-width:1.5;" width="52" x="687" y="229"/><text fill="#000000" font-family="sans-serif" font-size="12" lengthAdjust="spacing" textLength="12" x="707" y="245.1387">UI</text><line style="stroke:#A80036;stroke-width:1.5;" x1="688" x2="738" y1="252.9688" y2="252.9688"/><line style="stroke:#A80036;stroke-width:1.5;" x1="688" x2="738" y1="260.9688" y2="260.9688"/><text fill="#000000" font-family="sans-serif" font-size="11" lengthAdjust="spacing" textLength="40" x="693" y="275.1792">make()</text><!--MD5=[706e73df52f3df32f52be1ce9adb217e]
class Graph--><rect codeLine="69" fill="#FEFECE" filter="url(#f1a1v26gvukbvs)" height="39.9688" id="Graph" style="stroke:#A80036;stroke-width:1.5;" width="42" x="774" y="235.5"/><text fill="#000000" font-family="sans-serif" font-size="12" lengthAdjust="spacing" textLength="36" x="777" y="251.6387">Graph</text><line style="stroke:#A80036;stroke-width:1.5;" x1="775" x2="815" y1="259.4688" y2="259.4688"/><line style="stroke:#A80036;stroke-width:1.5;" x1="775" x2="815" y1="267.4688" y2="267.4688"/><!--MD5=[f33202a4358b6dc53d5337ad154687fb]
class Progress--><rect codeLine="71" fill="#FEFECE" filter="url(#f1a1v26gvukbvs)" height="39.9688" id="Progress" style="stroke:#A80036;stroke-width:1.5;" width="60" x="390" y="648.5"/><text fill="#000000" font-family="sans-serif" font-size="12" lengthAdjust="spacing" textLength="54" x="393" y="664.6387">Progress</text><line style="stroke:#A80036;stroke-width:1.5;" x1="391" x2="449" y1="672.4688" y2="672.4688"/><line style="stroke:#A80036;stroke-width:1.5;" x1="391" x2="449" y1="680.4688" y2="680.4688"/><!--MD5=[b07065dfc0d0e09965ec10bfc328bb3e]
class Option--><rect codeLine="73" fill="#FEFECE" filter="url(#f1a1v26gvukbvs)" height="52.7734" id="Option" style="stroke:#A80036;stroke-width:1.5;" width="60" x="267" y="229"/><text fill="#000000" font-family="sans-serif" font-size="12" lengthAdjust="spacing" textLength="40" x="277" y="245.1387">Option</text><line style="stroke:#A80036;stroke-width:1.5;" x1="268" x2="326" y1="252.9688" y2="252.9688"/><line style="stroke:#A80036;stroke-width:1.5;" x1="268" x2="326" y1="260.9688" y2="260.9688"/><text fill="#000000" font-family="sans-serif" font-size="11" lengthAdjust="spacing" textLength="48" x="273" y="275.1792">enable()</text><!--MD5=[f00dbe8c0302c6aec2cb26b3c659c8fc]
class Report--><rect codeLine="76" fill="#FEFECE" filter="url(#f1a1v26gvukbvs)" height="39.9688" id="Report" style="stroke:#A80036;stroke-width:1.5;" width="46" x="462" y="756"/><text fill="#000000" font-family="sans-serif" font-size="12" lengthAdjust="spacing" textLength="40" x="465" y="772.1387">Report</text><line style="stroke:#A80036;stroke-width:1.5;" x1="463" x2="507" y1="779.9688" y2="779.9688"/><line style="stroke:#A80036;stroke-width:1.5;" x1="463" x2="507" y1="787.9688" y2="787.9688"/><!--MD5=[ed6624c6556d5e7b1bd23032162d20b7]
class Client--><rect codeLine="78" fill="#FEFECE" filter="url(#f1a1v26gvukbvs)" height="39.9688" id="Client" style="stroke:#A80036;stroke-width:1.5;" width="39" x="424.5" y="442"/><text fill="#000000" font-family="sans-serif" font-size="12" lengthAdjust="spacing" textLength="33" x="427.5" y="458.1387">Client</text><line style="stroke:#A80036;stroke-width:1.5;" x1="425.5" x2="462.5" y1="465.9688" y2="465.9688"/><line style="stroke:#A80036;stroke-width:1.5;" x1="425.5" x2="462.5" y1="473.9688" y2="473.9688"/><!--MD5=[5b66dd66451f01e9d7836fb8e284c875]
link Developer to App--><path codeLine="80" d="M617.602,91.357 C684.49,106.589 795.772,144.065 833,229 C883.664,344.586 914,363.809 729,612 C712.805,633.727 685.462,649.741 666.841,658.839 " fill="none" id="Developer-to-App" style="stroke:#A80036;stroke-width:1.0;"/><polygon fill="#A80036" points="662.307,661.002,672.1523,660.7371,666.8198,658.8492,668.7078,653.5167,662.307,661.002" style="stroke:#A80036;stroke-width:1.0;"/><text fill="#000000" font-family="sans-serif" font-size="13" lengthAdjust="spacing" textLength="45" x="872" y="325.0669">publish</text><!--MD5=[0214f9738810ef8e203a2a515b7b8642]
link User to App--><path codeLine="81" d="M389.065,549.413 C394.581,555.224 400.559,560.531 407,565 C456.431,599.295 483.76,571.165 539,595 C572.824,609.594 607.394,635.027 628.025,651.559 " fill="none" id="User-to-App" style="stroke:#A80036;stroke-width:1.0;"/><polygon fill="#A80036" points="631.961,654.741,627.4757,645.9727,628.0723,651.5981,622.447,652.1946,631.961,654.741" style="stroke:#A80036;stroke-width:1.0;"/><text fill="#000000" font-family="sans-serif" font-size="13" lengthAdjust="spacing" textLength="27" x="572" y="608.0669">play</text><!--MD5=[0214f9738810ef8e203a2a515b7b8642]
link User to App--><path codeLine="103" d="M389.16,550.413 C394.63,555.921 400.574,560.891 407,565 C483.097,613.656 534.108,543.056 608,595 C624.424,606.546 634.566,627.249 640.375,643.584 " fill="none" id="User-to-App-1" style="stroke:#A80036;stroke-width:1.0;"/><polygon fill="#A80036" points="642.041,648.499,642.9409,638.6913,640.4363,643.7635,635.3641,641.2589,642.041,648.499" style="stroke:#A80036;stroke-width:1.0;"/><text fill="#000000" font-family="sans-serif" font-size="13" lengthAdjust="spacing" textLength="26" x="625" y="608.0669">rate</text><!--MD5=[d6e0e09d7ac48566b49fa6bdf6412cc2]
link Developer to Option--><path codeLine="82" d="M512.447,99.705 C467.861,116.386 403.722,144.426 356,182 C340.863,193.918 327.077,210.374 316.644,224.596 " fill="none" id="Developer-to-Option" style="stroke:#A80036;stroke-width:1.0;"/><polygon fill="#A80036" points="313.516,228.931,322.0262,223.9736,316.4419,224.8765,315.539,219.2921,313.516,228.931" style="stroke:#A80036;stroke-width:1.0;"/><text fill="#000000" font-family="sans-serif" font-size="13" lengthAdjust="spacing" textLength="48" x="357" y="195.0669">provide</text><!--MD5=[89a729879333f4a514a72f7623177c63]
link User to Question--><path codeLine="83" d="M389.025,550.628 C394.525,556.088 400.513,560.989 407,565 C503.307,624.553 553.411,556.787 660,595 C688.387,605.177 716.942,623.584 738.245,639.304 " fill="none" id="User-to-Question" style="stroke:#A80036;stroke-width:1.0;"/><polygon fill="#A80036" points="742.407,642.408,737.5859,633.8198,738.3996,639.4178,732.8016,640.2316,742.407,642.408" style="stroke:#A80036;stroke-width:1.0;"/><text fill="#000000" font-family="sans-serif" font-size="13" lengthAdjust="spacing" textLength="25" x="695" y="608.0669">skip</text><!--MD5=[f3af3e4376504b99e4d7659058753524]
link User to Feedback--><path codeLine="84" d="M298.5,565.25 C286.619,594.523 274.738,623.795 266.752,643.471 " fill="none" id="User-to-Feedback" style="stroke:#A80036;stroke-width:1.0;"/><polygon fill="#A80036" points="264.808,648.261,271.8986,641.4256,266.6881,643.6279,264.4857,638.4174,264.808,648.261" style="stroke:#A80036;stroke-width:1.0;"/><text fill="#000000" font-family="sans-serif" font-size="13" lengthAdjust="spacing" textLength="21" x="288" y="608.0669">get</text><!--MD5=[93196170f575658f6b657efa6b030057]
link Trouble to Question--><path codeLine="85" d="M949.122,488.548 C942.971,521.008 928.093,577.009 895,612 C871.744,636.589 835.533,651.153 808.594,659.146 " fill="none" id="Trouble-to-Question" style="stroke:#A80036;stroke-width:1.0;"/><polygon fill="#A80036" points="803.677,660.562,813.4326,661.9138,808.4815,659.1776,811.2177,654.2265,803.677,660.562" style="stroke:#A80036;stroke-width:1.0;"/><text fill="#000000" font-family="sans-serif" font-size="13" lengthAdjust="spacing" textLength="47" x="910" y="608.0669">answer</text><!--MD5=[b1ce83990aa10fef32912eaa0d3da128]
link User to Report--><path codeLine="86" d="M389.008,541.784 C394.812,549.822 400.862,557.704 407,565 C419.55,579.918 426.78,579.81 439,595 C454.241,613.945 458.612,619.178 467,642 C480.338,678.291 483.947,723.4157 484.836,750.674 " fill="none" id="User-to-Report" style="stroke:#A80036;stroke-width:1.0;"/><polygon fill="#A80036" points="484.98,755.8796,488.73,746.7726,484.842,750.8815,480.7331,746.9935,484.98,755.8796" style="stroke:#A80036;stroke-width:1.0;"/><text fill="#000000" font-family="sans-serif" font-size="13" lengthAdjust="spacing" textLength="30" x="481" y="673.0669">view</text><!--MD5=[603227f654d90511a7b1968648ca81d2]
link SourceCode to Client--><path codeLine="87" d="M433.129,275.739 C435.328,313.212 440.18,395.899 442.588,436.932 " fill="none" id="SourceCode-to-Client" style="stroke:#A80036;stroke-width:1.0;"/><polygon fill="#A80036" points="442.883,441.961,446.349,432.7422,442.5901,436.9696,438.3627,433.2107,442.883,441.961" style="stroke:#A80036;stroke-width:1.0;"/><text fill="#000000" font-family="sans-serif" font-size="13" lengthAdjust="spacing" textLength="13" x="438" y="325.0669">to</text><!--MD5=[6fc93ce37a31dca4e1dfcd246bfad8b2]
link Maintainer to Analytic--><path codeLine="88" d="M54.9989,488.724 C52.093,518.543 48.938,569.088 55,612 C56.4811,622.485 59.4626,633.763 62.4547,643.395 " fill="none" id="Maintainer-to-Analytic" style="stroke:#A80036;stroke-width:1.0;"/><polygon fill="#A80036" points="64.0124,648.27,65.084,638.4796,62.4909,643.5071,57.4634,640.914,64.0124,648.27" style="stroke:#A80036;stroke-width:1.0;"/><text fill="#000000" font-family="sans-serif" font-size="13" lengthAdjust="spacing" textLength="21" x="56" y="608.0669">get</text><!--MD5=[4191b4b8ff707877f522bab8020e7a55]
link Developer to SourceCode--><path codeLine="89" d="M512.27,132.948 C498.018,148.044 483.182,165.08 471,182 C460.046,197.214 450.078,215.872 442.962,230.45 " fill="none" id="Developer-to-SourceCode" style="stroke:#A80036;stroke-width:1.0;"/><polygon fill="#A80036" points="440.661,235.226,448.1708,228.854,442.8311,230.7215,440.9636,225.3818,440.661,235.226" style="stroke:#A80036;stroke-width:1.0;"/><text fill="#000000" font-family="sans-serif" font-size="13" lengthAdjust="spacing" textLength="57" x="472" y="195.0669">hand_off</text><!--MD5=[4191b4b8ff707877f522bab8020e7a55]
link Developer to SourceCode--><path codeLine="90" d="M512.428,102.331 C478.785,118.423 437.851,144.488 418,182 C410.081,196.964 414.059,215.785 419.766,230.499 " fill="none" id="Developer-to-SourceCode-1" style="stroke:#A80036;stroke-width:1.0;"/><polygon fill="#A80036" points="421.753,235.321,422.021,225.4758,419.8474,230.6984,414.6248,228.5248,421.753,235.321" style="stroke:#A80036;stroke-width:1.0;"/><text fill="#000000" font-family="sans-serif" font-size="13" lengthAdjust="spacing" textLength="32" x="419" y="195.0669">hand</text><!--MD5=[0cfaacdf40786d36b81ef07f701a116c]
link Option to User--><path codeLine="91" d="M302.446,282.4 C306.339,300.916 311.864,327.192 317.482,353.91 " fill="none" id="Option-to-User" style="stroke:#A80036;stroke-width:1.0;"/><polygon fill="#A80036" points="318.532,358.902,320.5949,349.2716,317.5034,354.0089,312.7661,350.9174,318.532,358.902" style="stroke:#A80036;stroke-width:1.0;"/><text fill="#000000" font-family="sans-serif" font-size="13" lengthAdjust="spacing" textLength="43" x="314" y="325.0669">enable</text><!--MD5=[2fe1c587fc2f8c4cb04fff5c0ebe3941]
link Developer to Time--><path codeLine="92" d="M548.73,152.162 C542.948,177.099 536.734,203.896 532.116,223.812 " fill="none" id="Developer-to-Time" style="stroke:#A80036;stroke-width:1.0;"/><polygon fill="#A80036" points="530.978,228.722,536.906,220.857,532.1065,223.851,529.1125,219.0514,530.978,228.722" style="stroke:#A80036;stroke-width:1.0;"/><text fill="#000000" font-family="sans-serif" font-size="13" lengthAdjust="spacing" textLength="27" x="543" y="195.0669">give</text><!--MD5=[034163ecfd4580692d4a5b183bbb24d9]
reverse link User to Analytic--><path codeLine="93" d="M280.529,508.211 C222.815,552.086 137.999,616.566 96.1921,648.348 " fill="none" id="User-backto-Analytic" style="stroke:#A80036;stroke-width:1.0;"/><polygon fill="#FFFFFF" points="290.974,500.271,283.7768,500.7185,281.4217,507.5341,288.6189,507.0867,290.974,500.271" style="stroke:#A80036;stroke-width:1.0;"/><!--MD5=[0f2b107178a2598f77e5330def82e0f2]
link Time to Bug--><path codeLine="94" d="M525,282.4 C525,322.146 525,397.652 525,436.524 " fill="none" id="Time-to-Bug" style="stroke:#A80036;stroke-width:1.0;"/><polygon fill="#A80036" points="525,441.985,529,432.985,525,436.985,521,432.985,525,441.985" style="stroke:#A80036;stroke-width:1.0;"/><text fill="#000000" font-family="sans-serif" font-size="13" lengthAdjust="spacing" textLength="16" x="526" y="325.0669">fix</text><!--MD5=[d64c8caeb6ffbf982c30d70e9c949b11]
reverse link Progress to Report--><path codeLine="95" d="M438.762,699.9519 C449.851,717.9498 463.554,740.1921 473.154,755.7723 " fill="none" id="Progress-backto-Report" style="stroke:#A80036;stroke-width:1.0;"/><polygon fill="#FFFFFF" points="431.922,688.85,431.6636,696.0565,438.2163,699.0667,438.4747,691.8602,431.922,688.85" style="stroke:#A80036;stroke-width:1.0;"/><!--MD5=[63b8d0e8784646f572f6d4b2ac285ae4]
link Developer to Project--><path codeLine="96" d="M579.643,152.162 C585.457,180.023 591.756,210.205 595.995,230.519 " fill="none" id="Developer-to-Project" style="stroke:#A80036;stroke-width:1.0;"/><polygon fill="#A80036" points="597.027,235.463,599.1045,225.8358,596.0058,230.5684,591.2732,227.4697,597.027,235.463" style="stroke:#A80036;stroke-width:1.0;"/><text fill="#000000" font-family="sans-serif" font-size="13" lengthAdjust="spacing" textLength="71" x="591" y="195.0669">restructure</text><!--MD5=[2dbf9e6a4222adaace334fcdf6ab9817]
link Component to Structure--><path codeLine="97" d="M953,107.825 C953,140.876 953,197.718 953,230.079 " fill="none" id="Component-to-Structure" style="stroke:#A80036;stroke-width:1.0;"/><polygon fill="#A80036" points="953,235.44,957,226.44,953,230.44,949,226.44,953,235.44" style="stroke:#A80036;stroke-width:1.0;"/><text fill="#000000" font-family="sans-serif" font-size="13" lengthAdjust="spacing" textLength="32" x="954" y="195.0669">have</text><!--MD5=[303c9b9d3701436fb42aa14a6cb527a8]
link User to Hint--><path codeLine="98" d="M340,565.25 C340,594.399 340,623.547 340,643.221 " fill="none" id="User-to-Hint" style="stroke:#A80036;stroke-width:1.0;"/><polygon fill="#A80036" points="340,648.261,344,639.261,340,643.261,336,639.261,340,648.261" style="stroke:#A80036;stroke-width:1.0;"/><text fill="#000000" font-family="sans-serif" font-size="13" lengthAdjust="spacing" textLength="21" x="341" y="608.0669">get</text><!--MD5=[1dc185d8c1d57b06fc612f0c8298ed3e]
link Developer to UI--><path codeLine="99" d="M617.616,126.05 C635.683,142.569 655.293,162.166 671,182 C681.304,195.012 690.767,210.827 698.091,224.362 " fill="none" id="Developer-to-UI" style="stroke:#A80036;stroke-width:1.0;"/><polygon fill="#A80036" points="700.491,228.858,699.7825,219.0347,698.1369,224.4469,692.7247,222.8013,700.491,228.858" style="stroke:#A80036;stroke-width:1.0;"/><text fill="#000000" font-family="sans-serif" font-size="13" lengthAdjust="spacing" textLength="47" x="684" y="195.0669">change</text><!--MD5=[42901561eebdb1422153f9267609e171]
link Developer to Graph--><path codeLine="100" d="M617.554,105.081 C654.299,122.802 703.185,149.68 740,182 C756.032,196.074 770.453,215.472 780.503,230.662 " fill="none" id="Developer-to-Graph" style="stroke:#A80036;stroke-width:1.0;"/><polygon fill="#A80036" points="783.478,235.23,781.9163,225.5058,780.7485,231.0408,775.2135,229.873,783.478,235.23" style="stroke:#A80036;stroke-width:1.0;"/><text fill="#000000" font-family="sans-serif" font-size="13" lengthAdjust="spacing" textLength="16" x="757" y="195.0669">fix</text><!--MD5=[a3e16277089072f12642b6385cc45bfe]
reverse link User to Progress--><path codeLine="101" d="M384.794,577.503 C395.545,604.986 405.827,631.271 412.474,648.261 " fill="none" id="User-backto-Progress" style="stroke:#A80036;stroke-width:1.0;"/><polygon fill="#FFFFFF" points="380,565.25,378.4608,572.2949,384.3717,576.4253,385.911,569.3804,380,565.25" style="stroke:#A80036;stroke-width:1.0;"/><text fill="#000000" font-family="sans-serif" font-size="13" lengthAdjust="spacing" textLength="32" x="398" y="608.0669">track</text><!--MD5=[67edb1c21979ec7637c3149d05d6dea3]
reverse link User to Point--><path codeLine="102" d="M280.712,510.271 C253.618,533.821 222.421,563.877 199,595 C186.509,611.598 176.164,633.04 169.618,648.289 " fill="none" id="User-backto-Point" style="stroke:#A80036;stroke-width:1.0;"/><polygon fill="#FFFFFF" points="290.87,501.575,283.7108,502.4383,281.7541,509.3788,288.9133,508.5156,290.87,501.575" style="stroke:#A80036;stroke-width:1.0;"/><text fill="#000000" font-family="sans-serif" font-size="13" lengthAdjust="spacing" textLength="73" x="200" y="608.0669">understand</text><!--MD5=[846b63b21118cf9018c269af9d3cb4e6]
@startuml
hide circle
class User<actor> {
	performance
	progressReport
	point
}
class Developer<actor> {
}
class Maintainer<actor> {
}
class Analytic {
}
class User {
	understand()
	show()
	play()
	have()
	skip()
	get()
	view()
	rate()
	track()
	proceed()
}
class App {
}
class Developer {
	provide()
	fix()
	give()
	publish()
	restructure()
	hand()
	change()
	hand_off()
}
class Point {
}
class Component {
	have()
}
class Structure {
}
class Feedback {
}
class Question {
	answer()
}
class Trouble {
	answer()
}
class Maintainer {
	get()
}
class SourceCode {
}
class Time {
	fix()
}
class Bug {
}
class Project {
}
class Hint {
}
class UI {
	make()
}
class Graph {
}
class Progress {
}
class Option {
	enable()
}
class Report {
}
class Client {
}
Developer - -> App : publish
User - -> App : play
Developer - -> Option : provide
User - -> Question : skip
User - -> Feedback : get
Trouble - -> Question : answer
User - -> Report : view
SourceCode - -> Client : to
Maintainer - -> Analytic : get
Developer - -> SourceCode : hand_off
Developer - -> SourceCode : hand
Option - -> User : enable
Developer - -> Time : give
User o- - Analytic
Time - -> Bug : fix
Progress o- - Report
Developer - -> Project : restructure
Component - -> Structure : have
User - -> Hint : get
Developer - -> UI : change
Developer - -> Graph : fix
User o- - Progress : track
User o- - Point : understand
User - -> App : rate
@enduml

PlantUML version 1.2021.10beta5(Unknown compile time)
(GPL source distribution)
Java Runtime: Java(TM) SE Runtime Environment
JVM: Java HotSpot(TM) 64-Bit Server VM
Default Encoding: UTF-8
Language: en
Country: US
--></g></svg>