<?xml version="1.0" encoding="UTF-8" standalone="no"?><svg xmlns="http://www.w3.org/2000/svg" xmlns:xlink="http://www.w3.org/1999/xlink" contentScriptType="application/ecmascript" contentStyleType="text/css" height="849px" preserveAspectRatio="none" style="width:1686px;height:849px;background:#FFFFFF;" version="1.1" viewBox="0 0 1686 849" width="1686px" zoomAndPan="magnify"><defs><filter height="300%" id="fbcxbqvlm31pk" width="300%" x="-1" y="-1"><feGaussianBlur result="blurOut" stdDeviation="2.0"/><feColorMatrix in="blurOut" result="blurOut2" type="matrix" values="0 0 0 0 0 0 0 0 0 0 0 0 0 0 0 0 0 0 .4 0"/><feOffset dx="4.0" dy="4.0" in="blurOut2" result="blurOut3"/><feBlend in="SourceGraphic" in2="blurOut3" mode="normal"/></filter></defs><g><!--MD5=[3fd616f346a44cd59a91eb10b19e157c]
class User--><rect codeLine="22" fill="#FEFECE" filter="url(#fbcxbqvlm31pk)" height="321.6719" id="User" style="stroke:#A80036;stroke-width:1.5;" width="129" x="669.5" y="10"/><text fill="#000000" font-family="sans-serif" font-size="12" lengthAdjust="spacing" textLength="29" x="702" y="26.1387">User</text><rect fill="#FFFFFF" height="15.9688" style="stroke:#000000;stroke-width:1.0;stroke-dasharray:2.0,2.0;" width="33" x="768.5" y="7"/><text fill="#000000" font-family="sans-serif" font-size="12" font-style="italic" lengthAdjust="spacing" textLength="31" x="769.5" y="19.1387">actor</text><line style="stroke:#A80036;stroke-width:1.5;" x1="670.5" x2="797.5" y1="33.9688" y2="33.9688"/><text fill="#000000" font-family="sans-serif" font-size="11" lengthAdjust="spacing" textLength="44" x="675.5" y="48.1792">resume</text><text fill="#000000" font-family="sans-serif" font-size="11" lengthAdjust="spacing" textLength="64" x="675.5" y="60.9839">information</text><text fill="#000000" font-family="sans-serif" font-size="11" lengthAdjust="spacing" textLength="44" x="675.5" y="73.7886">account</text><text fill="#000000" font-family="sans-serif" font-size="11" lengthAdjust="spacing" textLength="36" x="675.5" y="86.5933">media</text><text fill="#000000" font-family="sans-serif" font-size="11" lengthAdjust="spacing" textLength="74" x="675.5" y="99.3979">profilePicture</text><text fill="#000000" font-family="sans-serif" font-size="11" lengthAdjust="spacing" textLength="117" x="675.5" y="112.2026">linkedinProfilePicture</text><text fill="#000000" font-family="sans-serif" font-size="11" lengthAdjust="spacing" textLength="44" x="675.5" y="125.0073">interest</text><text fill="#000000" font-family="sans-serif" font-size="11" lengthAdjust="spacing" textLength="36" x="675.5" y="137.812">profile</text><line style="stroke:#A80036;stroke-width:1.5;" x1="670.5" x2="797.5" y1="144.4063" y2="144.4063"/><text fill="#000000" font-family="sans-serif" font-size="11" lengthAdjust="spacing" textLength="30" x="675.5" y="158.6167">see()</text><text fill="#000000" font-family="sans-serif" font-size="11" lengthAdjust="spacing" textLength="46" x="675.5" y="171.4214">search()</text><text fill="#000000" font-family="sans-serif" font-size="11" lengthAdjust="spacing" textLength="44" x="675.5" y="184.2261">author()</text><text fill="#000000" font-family="sans-serif" font-size="11" lengthAdjust="spacing" textLength="51" x="675.5" y="197.0308">look_up()</text><text fill="#000000" font-family="sans-serif" font-size="11" lengthAdjust="spacing" textLength="80" x="675.5" y="209.8354">authenticate()</text><text fill="#000000" font-family="sans-serif" font-size="11" lengthAdjust="spacing" textLength="32" x="675.5" y="222.6401">click()</text><text fill="#000000" font-family="sans-serif" font-size="11" lengthAdjust="spacing" textLength="38" x="675.5" y="235.4448">trend()</text><text fill="#000000" font-family="sans-serif" font-size="11" lengthAdjust="spacing" textLength="49" x="675.5" y="248.2495">disable()</text><text fill="#000000" font-family="sans-serif" font-size="11" lengthAdjust="spacing" textLength="41" x="675.5" y="261.0542">log_in()</text><text fill="#000000" font-family="sans-serif" font-size="11" lengthAdjust="spacing" textLength="29" x="675.5" y="273.8589">find()</text><text fill="#000000" font-family="sans-serif" font-size="11" lengthAdjust="spacing" textLength="37" x="675.5" y="286.6636">have()</text><text fill="#000000" font-family="sans-serif" font-size="11" lengthAdjust="spacing" textLength="48" x="675.5" y="299.4683">update()</text><text fill="#000000" font-family="sans-serif" font-size="11" lengthAdjust="spacing" textLength="29" x="675.5" y="312.2729">sort()</text><text fill="#000000" font-family="sans-serif" font-size="11" lengthAdjust="spacing" textLength="34" x="675.5" y="325.0776">filter()</text><!--MD5=[9519312da563c9b60cbd933eb7c20278]
class SystemAdmin--><rect codeLine="67" fill="#FEFECE" filter="url(#fbcxbqvlm31pk)" height="52.7734" id="SystemAdmin" style="stroke:#A80036;stroke-width:1.5;" width="123" x="1377.5" y="144.5"/><text fill="#000000" font-family="sans-serif" font-size="12" lengthAdjust="spacing" textLength="82" x="1380.5" y="160.6387">SystemAdmin</text><rect fill="#FFFFFF" height="15.9688" style="stroke:#000000;stroke-width:1.0;stroke-dasharray:2.0,2.0;" width="33" x="1470.5" y="141.5"/><text fill="#000000" font-family="sans-serif" font-size="12" font-style="italic" lengthAdjust="spacing" textLength="31" x="1471.5" y="153.6387">actor</text><line style="stroke:#A80036;stroke-width:1.5;" x1="1378.5" x2="1499.5" y1="168.4688" y2="168.4688"/><line style="stroke:#A80036;stroke-width:1.5;" x1="1378.5" x2="1499.5" y1="176.4688" y2="176.4688"/><text fill="#000000" font-family="sans-serif" font-size="11" lengthAdjust="spacing" textLength="55" x="1383.5" y="190.6792">approve()</text><!--MD5=[db6d18d8099558415abc41d00477ab92]
class Admin--><rect codeLine="40" fill="#FEFECE" filter="url(#fbcxbqvlm31pk)" height="103.9922" id="Admin" style="stroke:#A80036;stroke-width:1.5;" width="78" x="133" y="119"/><text fill="#000000" font-family="sans-serif" font-size="12" lengthAdjust="spacing" textLength="37" x="136" y="135.1387">Admin</text><rect fill="#FFFFFF" height="15.9688" style="stroke:#000000;stroke-width:1.0;stroke-dasharray:2.0,2.0;" width="33" x="181" y="116"/><text fill="#000000" font-family="sans-serif" font-size="12" font-style="italic" lengthAdjust="spacing" textLength="31" x="182" y="128.1387">actor</text><line style="stroke:#A80036;stroke-width:1.5;" x1="134" x2="210" y1="142.9688" y2="142.9688"/><line style="stroke:#A80036;stroke-width:1.5;" x1="134" x2="210" y1="150.9688" y2="150.9688"/><text fill="#000000" font-family="sans-serif" font-size="11" lengthAdjust="spacing" textLength="53" x="139" y="165.1792">remove()</text><text fill="#000000" font-family="sans-serif" font-size="11" lengthAdjust="spacing" textLength="35" x="139" y="177.9839">login()</text><text fill="#000000" font-family="sans-serif" font-size="11" lengthAdjust="spacing" textLength="55" x="139" y="190.7886">approve()</text><text fill="#000000" font-family="sans-serif" font-size="11" lengthAdjust="spacing" textLength="41" x="139" y="203.5933">reject()</text><text fill="#000000" font-family="sans-serif" font-size="11" lengthAdjust="spacing" textLength="62" x="139" y="216.3979">authorize()</text><!--MD5=[21bc47177812100412265a444b535d59]
class Professor--><rect codeLine="16" fill="#FEFECE" filter="url(#fbcxbqvlm31pk)" height="52.7734" id="Professor" style="stroke:#A80036;stroke-width:1.5;" width="64" x="449" y="666"/><text fill="#000000" font-family="sans-serif" font-size="12" lengthAdjust="spacing" textLength="58" x="452" y="682.1387">Professor</text><line style="stroke:#A80036;stroke-width:1.5;" x1="450" x2="512" y1="689.9688" y2="689.9688"/><line style="stroke:#A80036;stroke-width:1.5;" x1="450" x2="512" y1="697.9688" y2="697.9688"/><text fill="#000000" font-family="sans-serif" font-size="11" lengthAdjust="spacing" textLength="44" x="455" y="712.1792">author()</text><!--MD5=[18b89e0834131a909517048318a5909c]
class Picture--><rect codeLine="19" fill="#FEFECE" filter="url(#fbcxbqvlm31pk)" height="52.7734" id="Picture" style="stroke:#A80036;stroke-width:1.5;" width="58" x="293" y="552"/><text fill="#000000" font-family="sans-serif" font-size="12" lengthAdjust="spacing" textLength="40" x="302" y="568.1387">Picture</text><line style="stroke:#A80036;stroke-width:1.5;" x1="294" x2="350" y1="575.9688" y2="575.9688"/><line style="stroke:#A80036;stroke-width:1.5;" x1="294" x2="350" y1="583.9688" y2="583.9688"/><text fill="#000000" font-family="sans-serif" font-size="11" lengthAdjust="spacing" textLength="46" x="299" y="598.1792">upload()</text><!--MD5=[99fbc0257732a9f9771663dcb533c304]
class Alumnus--><rect codeLine="38" fill="#FEFECE" filter="url(#fbcxbqvlm31pk)" height="39.9688" id="Alumnus" style="stroke:#A80036;stroke-width:1.5;" width="56" x="1092" y="422"/><text fill="#000000" font-family="sans-serif" font-size="12" lengthAdjust="spacing" textLength="50" x="1095" y="438.1387">Alumnus</text><line style="stroke:#A80036;stroke-width:1.5;" x1="1093" x2="1147" y1="445.9688" y2="445.9688"/><line style="stroke:#A80036;stroke-width:1.5;" x1="1093" x2="1147" y1="453.9688" y2="453.9688"/><!--MD5=[fd7366e9f96236d9aa60dcc04f2b83e5]
class Content--><rect codeLine="47" fill="#FEFECE" filter="url(#fbcxbqvlm31pk)" height="39.9688" id="Content" style="stroke:#A80036;stroke-width:1.5;" width="52" x="7" y="422"/><text fill="#000000" font-family="sans-serif" font-size="12" lengthAdjust="spacing" textLength="46" x="10" y="438.1387">Content</text><line style="stroke:#A80036;stroke-width:1.5;" x1="8" x2="58" y1="445.9688" y2="445.9688"/><line style="stroke:#A80036;stroke-width:1.5;" x1="8" x2="58" y1="453.9688" y2="453.9688"/><!--MD5=[3004c4c4227775b76e79e426d01396e8]
class ResearchPapers--><rect codeLine="49" fill="#FEFECE" filter="url(#fbcxbqvlm31pk)" height="52.7734" id="ResearchPapers" style="stroke:#A80036;stroke-width:1.5;" width="103" x="1183.5" y="415.5"/><text fill="#000000" font-family="sans-serif" font-size="12" lengthAdjust="spacing" textLength="97" x="1186.5" y="431.6387">ResearchPapers</text><line style="stroke:#A80036;stroke-width:1.5;" x1="1184.5" x2="1285.5" y1="439.4688" y2="439.4688"/><line style="stroke:#A80036;stroke-width:1.5;" x1="1184.5" x2="1285.5" y1="447.4688" y2="447.4688"/><text fill="#000000" font-family="sans-serif" font-size="11" lengthAdjust="spacing" textLength="30" x="1189.5" y="461.6792">see()</text><!--MD5=[f9a29335b499db729be669fd1bd54958]
class Account--><rect codeLine="52" fill="#FEFECE" filter="url(#fbcxbqvlm31pk)" height="39.9688" id="Account" style="stroke:#A80036;stroke-width:1.5;" width="54" x="1322" y="422"/><text fill="#000000" font-family="sans-serif" font-size="12" lengthAdjust="spacing" textLength="48" x="1325" y="438.1387">Account</text><line style="stroke:#A80036;stroke-width:1.5;" x1="1323" x2="1375" y1="445.9688" y2="445.9688"/><line style="stroke:#A80036;stroke-width:1.5;" x1="1323" x2="1375" y1="453.9688" y2="453.9688"/><!--MD5=[7b57f7066b803747d2119f99dd1555d4]
class Profile--><rect codeLine="54" fill="#FEFECE" filter="url(#fbcxbqvlm31pk)" height="39.9688" id="Profile" style="stroke:#A80036;stroke-width:1.5;" width="43" x="300.5" y="422"/><text fill="#000000" font-family="sans-serif" font-size="12" lengthAdjust="spacing" textLength="37" x="303.5" y="438.1387">Profile</text><line style="stroke:#A80036;stroke-width:1.5;" x1="301.5" x2="342.5" y1="445.9688" y2="445.9688"/><line style="stroke:#A80036;stroke-width:1.5;" x1="301.5" x2="342.5" y1="453.9688" y2="453.9688"/><!--MD5=[9d93cc8568a88ed605ddd50c0dd874e2]
class Media--><rect codeLine="56" fill="#FEFECE" filter="url(#fbcxbqvlm31pk)" height="65.5781" id="Media" style="stroke:#A80036;stroke-width:1.5;" width="49" x="456.5" y="409"/><text fill="#000000" font-family="sans-serif" font-size="12" lengthAdjust="spacing" textLength="36" x="463" y="425.1387">Media</text><line style="stroke:#A80036;stroke-width:1.5;" x1="457.5" x2="504.5" y1="432.9688" y2="432.9688"/><line style="stroke:#A80036;stroke-width:1.5;" x1="457.5" x2="504.5" y1="440.9688" y2="440.9688"/><text fill="#000000" font-family="sans-serif" font-size="11" lengthAdjust="spacing" textLength="37" x="462.5" y="455.1792">keep()</text><text fill="#000000" font-family="sans-serif" font-size="11" lengthAdjust="spacing" textLength="37" x="462.5" y="467.9839">have()</text><!--MD5=[2ec01a623eca64bb107b03d3c92ed8e1]
class Csse--><rect codeLine="60" fill="#FEFECE" filter="url(#fbcxbqvlm31pk)" height="39.9688" id="Csse" style="stroke:#A80036;stroke-width:1.5;" width="36" x="463" y="558.5"/><text fill="#000000" font-family="sans-serif" font-size="12" lengthAdjust="spacing" textLength="30" x="466" y="574.6387">Csse</text><line style="stroke:#A80036;stroke-width:1.5;" x1="464" x2="498" y1="582.4688" y2="582.4688"/><line style="stroke:#A80036;stroke-width:1.5;" x1="464" x2="498" y1="590.4688" y2="590.4688"/><!--MD5=[d6181cb537bdc20c0a3007a98a56832d]
class Student--><rect codeLine="62" fill="#FEFECE" filter="url(#fbcxbqvlm31pk)" height="52.7734" id="Student" style="stroke:#A80036;stroke-width:1.5;" width="56" x="548" y="666"/><text fill="#000000" font-family="sans-serif" font-size="12" lengthAdjust="spacing" textLength="46" x="553" y="682.1387">Student</text><line style="stroke:#A80036;stroke-width:1.5;" x1="549" x2="603" y1="689.9688" y2="689.9688"/><line style="stroke:#A80036;stroke-width:1.5;" x1="549" x2="603" y1="697.9688" y2="697.9688"/><text fill="#000000" font-family="sans-serif" font-size="11" lengthAdjust="spacing" textLength="44" x="554" y="712.1792">author()</text><!--MD5=[fd5b4f13a6c28069687f581866a189b5]
class Papers--><rect codeLine="65" fill="#FEFECE" filter="url(#fbcxbqvlm31pk)" height="39.9688" id="Papers" style="stroke:#A80036;stroke-width:1.5;" width="47" x="507.5" y="796"/><text fill="#000000" font-family="sans-serif" font-size="12" lengthAdjust="spacing" textLength="41" x="510.5" y="812.1387">Papers</text><line style="stroke:#A80036;stroke-width:1.5;" x1="508.5" x2="553.5" y1="819.9688" y2="819.9688"/><line style="stroke:#A80036;stroke-width:1.5;" x1="508.5" x2="553.5" y1="827.9688" y2="827.9688"/><!--MD5=[0851f84a889f989e7bb0bebc385d0f09]
class Request--><rect codeLine="70" fill="#FEFECE" filter="url(#fbcxbqvlm31pk)" height="39.9688" id="Request" style="stroke:#A80036;stroke-width:1.5;" width="55" x="1411.5" y="422"/><text fill="#000000" font-family="sans-serif" font-size="12" lengthAdjust="spacing" textLength="49" x="1414.5" y="438.1387">Request</text><line style="stroke:#A80036;stroke-width:1.5;" x1="1412.5" x2="1465.5" y1="445.9688" y2="445.9688"/><line style="stroke:#A80036;stroke-width:1.5;" x1="1412.5" x2="1465.5" y1="453.9688" y2="453.9688"/><!--MD5=[f3d16dc473dc36cf4c83a84ae0cad75f]
class ViewCount--><rect codeLine="72" fill="#FEFECE" filter="url(#fbcxbqvlm31pk)" height="39.9688" id="ViewCount" style="stroke:#A80036;stroke-width:1.5;" width="69" x="635.5" y="558.5"/><text fill="#000000" font-family="sans-serif" font-size="12" lengthAdjust="spacing" textLength="63" x="638.5" y="574.6387">ViewCount</text><line style="stroke:#A80036;stroke-width:1.5;" x1="636.5" x2="703.5" y1="582.4688" y2="582.4688"/><line style="stroke:#A80036;stroke-width:1.5;" x1="636.5" x2="703.5" y1="590.4688" y2="590.4688"/><!--MD5=[f5ea1f64bc04260f09f32845b6b2c213]
class Portal--><rect codeLine="74" fill="#FEFECE" filter="url(#fbcxbqvlm31pk)" height="52.7734" id="Portal" style="stroke:#A80036;stroke-width:1.5;" width="41" x="1535.5" y="144.5"/><text fill="#000000" font-family="sans-serif" font-size="12" lengthAdjust="spacing" textLength="33" x="1539.5" y="160.6387">Portal</text><line style="stroke:#A80036;stroke-width:1.5;" x1="1536.5" x2="1575.5" y1="168.4688" y2="168.4688"/><line style="stroke:#A80036;stroke-width:1.5;" x1="1536.5" x2="1575.5" y1="176.4688" y2="176.4688"/><text fill="#000000" font-family="sans-serif" font-size="11" lengthAdjust="spacing" textLength="29" x="1541.5" y="190.6792">use()</text><!--MD5=[27f2b114121e060bc210878a9b990693]
class LinkedIn--><rect codeLine="77" fill="#FEFECE" filter="url(#fbcxbqvlm31pk)" height="39.9688" id="LinkedIn" style="stroke:#A80036;stroke-width:1.5;" width="55" x="1528.5" y="422"/><text fill="#000000" font-family="sans-serif" font-size="12" lengthAdjust="spacing" textLength="49" x="1531.5" y="438.1387">LinkedIn</text><line style="stroke:#A80036;stroke-width:1.5;" x1="1529.5" x2="1582.5" y1="445.9688" y2="445.9688"/><line style="stroke:#A80036;stroke-width:1.5;" x1="1529.5" x2="1582.5" y1="453.9688" y2="453.9688"/><!--MD5=[cf4d6237fcae255cd2e1656cf84a30e2]
class Order--><rect codeLine="79" fill="#FEFECE" filter="url(#fbcxbqvlm31pk)" height="39.9688" id="Order" style="stroke:#A80036;stroke-width:1.5;" width="42" x="730" y="422"/><text fill="#000000" font-family="sans-serif" font-size="12" lengthAdjust="spacing" textLength="36" x="733" y="438.1387">Order</text><line style="stroke:#A80036;stroke-width:1.5;" x1="731" x2="771" y1="445.9688" y2="445.9688"/><line style="stroke:#A80036;stroke-width:1.5;" x1="731" x2="771" y1="453.9688" y2="453.9688"/><!--MD5=[ac13618b1a974308c1f12eb6c57723dc]
class Event--><rect codeLine="81" fill="#FEFECE" filter="url(#fbcxbqvlm31pk)" height="65.5781" id="Event" style="stroke:#A80036;stroke-width:1.5;" width="50" x="645" y="409"/><text fill="#000000" font-family="sans-serif" font-size="12" lengthAdjust="spacing" textLength="33" x="653.5" y="425.1387">Event</text><line style="stroke:#A80036;stroke-width:1.5;" x1="646" x2="694" y1="432.9688" y2="432.9688"/><line style="stroke:#A80036;stroke-width:1.5;" x1="646" x2="694" y1="440.9688" y2="440.9688"/><text fill="#000000" font-family="sans-serif" font-size="11" lengthAdjust="spacing" textLength="37" x="651" y="455.1792">have()</text><text fill="#000000" font-family="sans-serif" font-size="11" lengthAdjust="spacing" textLength="38" x="651" y="467.9839">trend()</text><!--MD5=[f572c118330f78587a09a8d1323f8ced]
class Calendar--><rect codeLine="85" fill="#FEFECE" filter="url(#fbcxbqvlm31pk)" height="39.9688" id="Calendar" style="stroke:#A80036;stroke-width:1.5;" width="59" x="807.5" y="422"/><text fill="#000000" font-family="sans-serif" font-size="12" lengthAdjust="spacing" textLength="53" x="810.5" y="438.1387">Calendar</text><line style="stroke:#A80036;stroke-width:1.5;" x1="808.5" x2="865.5" y1="445.9688" y2="445.9688"/><line style="stroke:#A80036;stroke-width:1.5;" x1="808.5" x2="865.5" y1="453.9688" y2="453.9688"/><!--MD5=[59b530d44ae785dc18db921986a9c15c]
class Document--><rect codeLine="87" fill="#FEFECE" filter="url(#fbcxbqvlm31pk)" height="65.5781" id="Document" style="stroke:#A80036;stroke-width:1.5;" width="67" x="989.5" y="409"/><text fill="#000000" font-family="sans-serif" font-size="12" lengthAdjust="spacing" textLength="61" x="992.5" y="425.1387">Document</text><line style="stroke:#A80036;stroke-width:1.5;" x1="990.5" x2="1055.5" y1="432.9688" y2="432.9688"/><line style="stroke:#A80036;stroke-width:1.5;" x1="990.5" x2="1055.5" y1="440.9688" y2="440.9688"/><text fill="#000000" font-family="sans-serif" font-size="11" lengthAdjust="spacing" textLength="37" x="995.5" y="455.1792">have()</text><text fill="#000000" font-family="sans-serif" font-size="11" lengthAdjust="spacing" textLength="38" x="995.5" y="467.9839">trend()</text><!--MD5=[a64a835c3d62471a77f615251fdde58a]
class Position--><rect codeLine="91" fill="#FEFECE" filter="url(#fbcxbqvlm31pk)" height="39.9688" id="Position" style="stroke:#A80036;stroke-width:1.5;" width="52" x="902" y="422"/><text fill="#000000" font-family="sans-serif" font-size="12" lengthAdjust="spacing" textLength="46" x="905" y="438.1387">Position</text><line style="stroke:#A80036;stroke-width:1.5;" x1="903" x2="953" y1="445.9688" y2="445.9688"/><line style="stroke:#A80036;stroke-width:1.5;" x1="903" x2="953" y1="453.9688" y2="453.9688"/><!--MD5=[6b68c170fd0f2fe0d96a3a05e78fe460]
class Resume--><rect codeLine="93" fill="#FEFECE" filter="url(#fbcxbqvlm31pk)" height="52.7734" id="Resume" style="stroke:#A80036;stroke-width:1.5;" width="60" x="1612" y="144.5"/><text fill="#000000" font-family="sans-serif" font-size="12" lengthAdjust="spacing" textLength="48" x="1618" y="160.6387">Resume</text><line style="stroke:#A80036;stroke-width:1.5;" x1="1613" x2="1671" y1="168.4688" y2="168.4688"/><line style="stroke:#A80036;stroke-width:1.5;" x1="1613" x2="1671" y1="176.4688" y2="176.4688"/><text fill="#000000" font-family="sans-serif" font-size="11" lengthAdjust="spacing" textLength="48" x="1618" y="190.6792">update()</text><!--MD5=[7ce0c4b758ebd1f3408bd95deedd9c67]
link Admin to Profile--><path codeLine="96" d="M203.139,223.057 C225.954,260.995 257.295,314.229 283,362 C292.852,380.31 303.238,401.45 310.813,417.252 " fill="none" id="Admin-to-Profile" style="stroke:#A80036;stroke-width:1.0;"/><polygon fill="#A80036" points="313.07,421.975,312.7989,412.1299,310.9143,417.4636,305.5806,415.579,313.07,421.975" style="stroke:#A80036;stroke-width:1.0;"/><text fill="#000000" font-family="sans-serif" font-size="13" lengthAdjust="spacing" textLength="36" x="292" y="375.0669">reject</text><!--MD5=[7ce0c4b758ebd1f3408bd95deedd9c67]
link Admin to Profile--><path codeLine="97" d="M138.18,223.009 C113.016,267.993 88.3325,333.315 122,379 C162.308,433.695 250.365,441.574 294.963,441.842 " fill="none" id="Admin-to-Profile-1" style="stroke:#A80036;stroke-width:1.0;"/><polygon fill="#A80036" points="300.181,441.839,291.181,437.839,295.181,441.839,291.181,445.839,300.181,441.839" style="stroke:#A80036;stroke-width:1.0;"/><text fill="#000000" font-family="sans-serif" font-size="13" lengthAdjust="spacing" textLength="53" x="123" y="375.0669">approve</text><!--MD5=[7ce0c4b758ebd1f3408bd95deedd9c67]
link Admin to Profile--><path codeLine="101" d="M170.64,223.041 C171.926,268.046 180.116,333.381 213,379 C233.17,406.981 270.124,424.075 295.362,433.041 " fill="none" id="Admin-to-Profile-2" style="stroke:#A80036;stroke-width:1.0;"/><polygon fill="#A80036" points="300.244,434.726,293.042,428.008,295.5177,433.0944,290.4314,435.5701,300.244,434.726" style="stroke:#A80036;stroke-width:1.0;"/><text fill="#000000" font-family="sans-serif" font-size="13" lengthAdjust="spacing" textLength="60" x="214" y="375.0669">authorize</text><!--MD5=[860da135582b81397978f889c73b5334]
link Event to ViewCount--><path codeLine="98" d="M670,475.216 C670,499.247 670,531.558 670,553.383 " fill="none" id="Event-to-ViewCount" style="stroke:#A80036;stroke-width:1.0;"/><polygon fill="#A80036" points="670,558.42,674,549.42,670,553.42,666,549.42,670,558.42" style="stroke:#A80036;stroke-width:1.0;"/><text fill="#000000" font-family="sans-serif" font-size="13" lengthAdjust="spacing" textLength="32" x="671" y="518.0669">have</text><!--MD5=[c6ac01c158124ef578e1979e8d427316]
reverse link User to Profile--><path codeLine="99" d="M658.053,221.587 C561.821,284.418 401.523,389.079 343.662,426.857 " fill="none" id="User-backto-Profile" style="stroke:#A80036;stroke-width:1.0;"/><polygon fill="#FFFFFF" points="669.172,214.327,661.9612,214.2578,659.124,220.8872,666.3347,220.9565,669.172,214.327" style="stroke:#A80036;stroke-width:1.0;"/><text fill="#000000" font-family="sans-serif" font-size="13" lengthAdjust="spacing" textLength="23" x="434" y="375.0669">see</text><!--MD5=[c6ac01c158124ef578e1979e8d427316]
reverse link User to Profile--><path codeLine="109" d="M657.815,212.322 C591.478,248.57 493.714,304.77 414,362 C388.005,380.663 360.446,405.014 342.344,421.719 " fill="none" id="User-backto-Profile-1" style="stroke:#A80036;stroke-width:1.0;"/><polygon fill="#FFFFFF" points="669.414,206.012,662.232,205.365,658.8724,211.7457,666.0544,212.3927,669.414,206.012" style="stroke:#A80036;stroke-width:1.0;"/><!--MD5=[bb813e58dcb6d929d30ff5a4a5d12263]
reverse link User to Media--><path codeLine="100" d="M658.335,216.674 C607.356,250.487 542.456,301.386 503,362 C493.913,375.96 488.536,393.661 485.377,408.768 " fill="none" id="User-backto-Media" style="stroke:#A80036;stroke-width:1.0;"/><polygon fill="#FFFFFF" points="669.316,209.509,662.1053,209.4373,659.2657,216.0659,666.4765,216.1375,669.316,209.509" style="stroke:#A80036;stroke-width:1.0;"/><text fill="#000000" font-family="sans-serif" font-size="13" lengthAdjust="spacing" textLength="45" x="504" y="375.0669">update</text><!--MD5=[c8ecc96e049822d047e1e20cd7f62a56]
reverse link User to Account--><path codeLine="102" d="M811.056,197.808 C923.016,236.676 1135.67,315.703 1304,409 C1310.71,412.718 1317.62,417.237 1323.95,421.693 " fill="none" id="User-backto-Account" style="stroke:#A80036;stroke-width:1.0;"/><polygon fill="#FFFFFF" points="798.568,193.495,802.9332,199.2348,809.9104,197.4129,805.5452,191.6732,798.568,193.495" style="stroke:#A80036;stroke-width:1.0;"/><text fill="#000000" font-family="sans-serif" font-size="13" lengthAdjust="spacing" textLength="45" x="1246" y="375.0669">disable</text><!--MD5=[759f087ba8e248219c7731b7c792122c]
link Media to Csse--><path codeLine="103" d="M481,475.216 C481,499.247 481,531.558 481,553.383 " fill="none" id="Media-to-Csse" style="stroke:#A80036;stroke-width:1.0;"/><polygon fill="#A80036" points="481,558.42,485,549.42,481,553.42,477,549.42,481,558.42" style="stroke:#A80036;stroke-width:1.0;"/><text fill="#000000" font-family="sans-serif" font-size="13" lengthAdjust="spacing" textLength="32" x="482" y="518.0669">have</text><!--MD5=[765245b9744207597b6285f87c5157a9]
link User to Calendar--><path codeLine="104" d="M798.521,310.164 C805.564,327.437 812.251,345.003 818,362 C824.091,380.008 829.034,400.95 832.351,416.745 " fill="none" id="User-to-Calendar" style="stroke:#A80036;stroke-width:1.0;"/><polygon fill="#A80036" points="833.412,421.893,835.5116,412.2705,832.402,416.9961,827.6765,413.8865,833.412,421.893" style="stroke:#A80036;stroke-width:1.0;"/><text fill="#000000" font-family="sans-serif" font-size="13" lengthAdjust="spacing" textLength="29" x="824" y="375.0669">filter</text><!--MD5=[f8464584a4f2d720983a506184ef1a80]
link Professor to Papers--><path codeLine="105" d="M484.659,719.05 C487.264,733.274 491.484,751.0703 498,766 C501.877,774.8831 507.388,783.8849 512.799,791.7074 " fill="none" id="Professor-to-Papers" style="stroke:#A80036;stroke-width:1.0;"/><polygon fill="#A80036" points="515.784,795.9236,513.8491,786.2667,512.8953,791.8425,507.3194,790.8887,515.784,795.9236" style="stroke:#A80036;stroke-width:1.0;"/><text fill="#000000" font-family="sans-serif" font-size="13" lengthAdjust="spacing" textLength="42" x="499" y="762.0669">author</text><!--MD5=[95ec0f854f669aad4c162ca67ac3551c]
link Document to ViewCount--><path codeLine="106" d="M989.483,465.124 C983.457,468.666 977.138,472.111 971,475 C881.062,517.334 768.727,550.825 709.999,566.969 " fill="none" id="Document-to-ViewCount" style="stroke:#A80036;stroke-width:1.0;"/><polygon fill="#A80036" points="704.83,568.383,714.5667,569.8652,709.6526,567.0631,712.4548,562.149,704.83,568.383" style="stroke:#A80036;stroke-width:1.0;"/><text fill="#000000" font-family="sans-serif" font-size="13" lengthAdjust="spacing" textLength="32" x="900" y="518.0669">have</text><!--MD5=[8c113d56cfb06f2e9f7a4cf37185420e]
link Student to Papers--><path codeLine="107" d="M566.457,719.267 C558.622,740.4193 547.609,770.155 539.943,790.8527 " fill="none" id="Student-to-Papers" style="stroke:#A80036;stroke-width:1.0;"/><polygon fill="#A80036" points="538.168,795.6472,545.0449,788.5968,539.9046,790.9585,537.543,785.8182,538.168,795.6472" style="stroke:#A80036;stroke-width:1.0;"/><text fill="#000000" font-family="sans-serif" font-size="13" lengthAdjust="spacing" textLength="42" x="556" y="762.0669">author</text><!--MD5=[215e30600a2d0921b2ed19f712031f74]
link User to Position--><path codeLine="108" d="M798.599,261.573 C838.263,316.57 886.092,382.89 911.017,417.451 " fill="none" id="User-to-Position" style="stroke:#A80036;stroke-width:1.0;"/><polygon fill="#A80036" points="914.233,421.91,912.2139,412.2703,911.3087,417.8543,905.7248,416.9492,914.233,421.91" style="stroke:#A80036;stroke-width:1.0;"/><text fill="#000000" font-family="sans-serif" font-size="13" lengthAdjust="spacing" textLength="24" x="883" y="375.0669">find</text><!--MD5=[d78fbed77c243871336248e5e701f57e]
link User to ResearchPapers--><path codeLine="110" d="M798.727,206.754 C899.138,260.667 1090.46,363.394 1182.7,412.921 " fill="none" id="User-to-ResearchPapers" style="stroke:#A80036;stroke-width:1.0;"/><polygon fill="#A80036" points="1187.29,415.384,1181.2424,407.6105,1182.8816,413.0247,1177.4675,414.6639,1187.29,415.384" style="stroke:#A80036;stroke-width:1.0;"/><text fill="#000000" font-family="sans-serif" font-size="13" lengthAdjust="spacing" textLength="25" x="1115" y="375.0669">sort</text><!--MD5=[9f87876b319f80c07c6651f71fa9eace]
reverse link Profile to Picture--><path codeLine="111" d="M322,475.372 C322,498.818 322,530.085 322,551.821 " fill="none" id="Profile-backto-Picture" style="stroke:#A80036;stroke-width:1.0;"/><polygon fill="#FFFFFF" points="322,462.271,318,468.271,322,474.271,326,468.271,322,462.271" style="stroke:#A80036;stroke-width:1.0;"/><!--MD5=[f7c6b7228bc1f88e06bb3e78f43786b7]
link SystemAdmin to Request--><path codeLine="112" d="M1439,197.793 C1439,249.686 1439,366.063 1439,416.696 " fill="none" id="SystemAdmin-to-Request" style="stroke:#A80036;stroke-width:1.0;"/><polygon fill="#A80036" points="1439,421.962,1443,412.962,1439,416.962,1435,412.962,1439,421.962" style="stroke:#A80036;stroke-width:1.0;"/><text fill="#000000" font-family="sans-serif" font-size="13" lengthAdjust="spacing" textLength="53" x="1440" y="375.0669">approve</text><!--MD5=[ffbfde574bb7ae168ad208d635d3b889]
link Admin to Content--><path codeLine="113" d="M132.868,208.76 C98.2516,244.186 50.1987,301.233 30,362 C24.1267,379.67 25.3209,400.797 27.7413,416.756 " fill="none" id="Admin-to-Content" style="stroke:#A80036;stroke-width:1.0;"/><polygon fill="#A80036" points="28.6007,421.958,31.0788,412.426,27.785,417.025,23.186,413.7312,28.6007,421.958" style="stroke:#A80036;stroke-width:1.0;"/><text fill="#000000" font-family="sans-serif" font-size="13" lengthAdjust="spacing" textLength="50" x="31" y="375.0669">remove</text><!--MD5=[29793cb2e6ce1def3d6fecaef4efbf08]
link User to Event--><path codeLine="114" d="M695.847,332.363 C689.534,358.897 683.553,384.036 678.937,403.435 " fill="none" id="User-to-Event" style="stroke:#A80036;stroke-width:1.0;"/><polygon fill="#A80036" points="677.673,408.751,683.6494,400.9227,678.8315,403.8871,675.8671,399.0691,677.673,408.751" style="stroke:#A80036;stroke-width:1.0;"/><text fill="#000000" font-family="sans-serif" font-size="13" lengthAdjust="spacing" textLength="23" x="689" y="375.0669">see</text><!--MD5=[2f7ca67174ea2eb0014fcf8d56a39d6b]
reverse link Csse to Professor--><path codeLine="115" d="M481,611.843 C481,628.988 481,649.759 481,665.792 " fill="none" id="Csse-backto-Professor" style="stroke:#A80036;stroke-width:1.0;"/><polygon fill="#FFFFFF" points="481,598.753,477,604.753,481,610.753,485,604.753,481,598.753" style="stroke:#A80036;stroke-width:1.0;"/><!--MD5=[964ddf863bfce31c2c4fb45b4aa12346]
link User to ViewCount--><path codeLine="116" d="M669.426,255.235 C639.9,298.529 608.169,353.835 593,409 C585.223,437.284 583.713,447.176 593,475 C603.372,506.074 627.271,535.299 645.713,554.53 " fill="none" id="User-to-ViewCount" style="stroke:#A80036;stroke-width:1.0;"/><polygon fill="#A80036" points="649.324,558.24,645.9151,548.9999,645.8374,554.6562,640.181,554.5785,649.324,558.24" style="stroke:#A80036;stroke-width:1.0;"/><text fill="#000000" font-family="sans-serif" font-size="13" lengthAdjust="spacing" textLength="32" x="594" y="446.5669">have</text><!--MD5=[480b0ce421c4a4b48e1ccef8d2524322]
link Portal to LinkedIn--><path codeLine="117" d="M1556,197.793 C1556,249.686 1556,366.063 1556,416.696 " fill="none" id="Portal-to-LinkedIn" style="stroke:#A80036;stroke-width:1.0;"/><polygon fill="#A80036" points="1556,421.962,1560,412.962,1556,416.962,1552,412.962,1556,421.962" style="stroke:#A80036;stroke-width:1.0;"/><text fill="#000000" font-family="sans-serif" font-size="13" lengthAdjust="spacing" textLength="23" x="1557" y="375.0669">use</text><!--MD5=[5b2a2bdb39cc116e4a78ea074bb38160]
link User to Order--><path codeLine="118" d="M726.253,332.014 C727.106,347.94 728.612,363.822 731,379 C733.03,391.904 737.299,405.785 741.374,417.134 " fill="none" id="User-to-Order" style="stroke:#A80036;stroke-width:1.0;"/><polygon fill="#A80036" points="743.101,421.833,743.749,412.0055,741.3753,417.1402,736.2406,414.7666,743.101,421.833" style="stroke:#A80036;stroke-width:1.0;"/><text fill="#000000" font-family="sans-serif" font-size="13" lengthAdjust="spacing" textLength="81" x="732" y="375.0669">authenticate</text><!--MD5=[d72d85c617b7da5cdfe749ca1b11ab7a]
link User to Alumnus--><path codeLine="119" d="M798.608,217.025 C882.234,275.303 1024.72,374.598 1088.04,418.726 " fill="none" id="User-to-Alumnus" style="stroke:#A80036;stroke-width:1.0;"/><polygon fill="#A80036" points="1092.46,421.807,1087.3602,413.3813,1088.3569,418.9497,1082.7885,419.9463,1092.46,421.807" style="stroke:#A80036;stroke-width:1.0;"/><text fill="#000000" font-family="sans-serif" font-size="13" lengthAdjust="spacing" textLength="49" x="1028" y="375.0669">look_up</text><!--MD5=[e8b9c4bb40b9173ca033155d85a57c59]
@startuml
hide circle
class User<actor> {
	resume
	information
	account
	media
	profilePicture
	linkedinProfilePicture
	interest
	profile
}
class SystemAdmin<actor> {
}
class Admin<actor> {
}
class Professor {
	author()
}
class Picture {
	upload()
}
class User {
	see()
	search()
	author()
	look_up()
	authenticate()
	click()
	trend()
	disable()
	log_in()
	find()
	have()
	update()
	sort()
	filter()
}
class Alumnus {
}
class Admin {
	remove()
	login()
	approve()
	reject()
	authorize()
}
class Content {
}
class ResearchPapers {
	see()
}
class Account {
}
class Profile {
}
class Media {
	keep()
	have()
}
class Csse {
}
class Student {
	author()
}
class Papers {
}
class SystemAdmin {
	approve()
}
class Request {
}
class ViewCount {
}
class Portal {
	use()
}
class LinkedIn {
}
class Order {
}
class Event {
	have()
	trend()
}
class Calendar {
}
class Document {
	have()
	trend()
}
class Position {
}
class Resume {
	update()
}
Admin - -> Profile : reject
Admin - -> Profile : approve
Event - -> ViewCount : have
User o- - Profile : see
User o- - Media : update
Admin - -> Profile : authorize
User o- - Account : disable
Media - -> Csse : have
User - -> Calendar : filter
Professor - -> Papers : author
Document - -> ViewCount : have
Student - -> Papers : author
User - -> Position : find
User o- - Profile
User - -> ResearchPapers : sort
Profile o- - Picture
SystemAdmin - -> Request : approve
Admin - -> Content : remove
User - -> Event : see
Csse o- - Professor
User - -> ViewCount : have
Portal - -> LinkedIn : use
User - -> Order : authenticate
User - -> Alumnus : look_up
@enduml

PlantUML version 1.2021.10beta5(Unknown compile time)
(GPL source distribution)
Java Runtime: Java(TM) SE Runtime Environment
JVM: Java HotSpot(TM) 64-Bit Server VM
Default Encoding: UTF-8
Language: en
Country: US
--></g></svg>