<?xml version="1.0" encoding="UTF-8" standalone="no"?><svg xmlns="http://www.w3.org/2000/svg" xmlns:xlink="http://www.w3.org/1999/xlink" contentScriptType="application/ecmascript" contentStyleType="text/css" height="581px" preserveAspectRatio="none" style="width:910px;height:581px;background:#FFFFFF;" version="1.1" viewBox="0 0 910 581" width="910px" zoomAndPan="magnify"><defs><filter height="300%" id="f1lsuajzayx1d4" width="300%" x="-1" y="-1"><feGaussianBlur result="blurOut" stdDeviation="2.0"/><feColorMatrix in="blurOut" result="blurOut2" type="matrix" values="0 0 0 0 0 0 0 0 0 0 0 0 0 0 0 0 0 0 .4 0"/><feOffset dx="4.0" dy="4.0" in="blurOut2" result="blurOut3"/><feBlend in="SourceGraphic" in2="blurOut3" mode="normal"/></filter></defs><g><!--MD5=[3fd616f346a44cd59a91eb10b19e157c]
class User--><rect codeLine="18" fill="#FEFECE" filter="url(#f1lsuajzayx1d4)" height="116.7969" id="User" style="stroke:#A80036;stroke-width:1.5;" width="84" x="425.5" y="334"/><text fill="#000000" font-family="sans-serif" font-size="12" lengthAdjust="spacing" textLength="29" x="435.5" y="350.1387">User</text><rect fill="#FFFFFF" height="15.9688" style="stroke:#000000;stroke-width:1.0;stroke-dasharray:2.0,2.0;" width="33" x="479.5" y="331"/><text fill="#000000" font-family="sans-serif" font-size="12" font-style="italic" lengthAdjust="spacing" textLength="31" x="480.5" y="343.1387">actor</text><line style="stroke:#A80036;stroke-width:1.5;" x1="426.5" x2="508.5" y1="357.9688" y2="357.9688"/><line style="stroke:#A80036;stroke-width:1.5;" x1="426.5" x2="508.5" y1="365.9688" y2="365.9688"/><text fill="#000000" font-family="sans-serif" font-size="11" lengthAdjust="spacing" textLength="35" x="431.5" y="380.1792">view()</text><text fill="#000000" font-family="sans-serif" font-size="11" lengthAdjust="spacing" textLength="72" x="431.5" y="392.9839">understand()</text><text fill="#000000" font-family="sans-serif" font-size="11" lengthAdjust="spacing" textLength="30" x="431.5" y="405.7886">skip()</text><text fill="#000000" font-family="sans-serif" font-size="11" lengthAdjust="spacing" textLength="32" x="431.5" y="418.5933">play()</text><text fill="#000000" font-family="sans-serif" font-size="11" lengthAdjust="spacing" textLength="35" x="431.5" y="431.3979">track()</text><text fill="#000000" font-family="sans-serif" font-size="11" lengthAdjust="spacing" textLength="27" x="431.5" y="444.2026">get()</text><!--MD5=[d342058c8fb6f80e9d50d673c6908241]
class Developer--><rect codeLine="8" fill="#FEFECE" filter="url(#f1lsuajzayx1d4)" height="116.7969" id="Developer" style="stroke:#A80036;stroke-width:1.5;" width="105" x="178" y="10"/><text fill="#000000" font-family="sans-serif" font-size="12" lengthAdjust="spacing" textLength="64" x="181" y="26.1387">Developer</text><rect fill="#FFFFFF" height="15.9688" style="stroke:#000000;stroke-width:1.0;stroke-dasharray:2.0,2.0;" width="33" x="253" y="7"/><text fill="#000000" font-family="sans-serif" font-size="12" font-style="italic" lengthAdjust="spacing" textLength="31" x="254" y="19.1387">actor</text><line style="stroke:#A80036;stroke-width:1.5;" x1="179" x2="282" y1="33.9688" y2="33.9688"/><line style="stroke:#A80036;stroke-width:1.5;" x1="179" x2="282" y1="41.9688" y2="41.9688"/><text fill="#000000" font-family="sans-serif" font-size="11" lengthAdjust="spacing" textLength="82" x="184" y="56.1792">maintainable()</text><text fill="#000000" font-family="sans-serif" font-size="11" lengthAdjust="spacing" textLength="48" x="184" y="68.9839">publish()</text><text fill="#000000" font-family="sans-serif" font-size="11" lengthAdjust="spacing" textLength="51" x="184" y="81.7886">provide()</text><text fill="#000000" font-family="sans-serif" font-size="11" lengthAdjust="spacing" textLength="50" x="184" y="94.5933">change()</text><text fill="#000000" font-family="sans-serif" font-size="11" lengthAdjust="spacing" textLength="70" x="184" y="107.3979">restructure()</text><text fill="#000000" font-family="sans-serif" font-size="11" lengthAdjust="spacing" textLength="22" x="184" y="120.2026">fix()</text><!--MD5=[15c6922f6693225acd2805a9f7199676]
class Maintainer--><rect codeLine="37" fill="#FEFECE" filter="url(#f1lsuajzayx1d4)" height="52.7734" id="Maintainer" style="stroke:#A80036;stroke-width:1.5;" width="102" x="538.5" y="42"/><text fill="#000000" font-family="sans-serif" font-size="12" lengthAdjust="spacing" textLength="61" x="541.5" y="58.1387">Maintainer</text><rect fill="#FFFFFF" height="15.9688" style="stroke:#000000;stroke-width:1.0;stroke-dasharray:2.0,2.0;" width="33" x="610.5" y="39"/><text fill="#000000" font-family="sans-serif" font-size="12" font-style="italic" lengthAdjust="spacing" textLength="31" x="611.5" y="51.1387">actor</text><line style="stroke:#A80036;stroke-width:1.5;" x1="539.5" x2="639.5" y1="65.9688" y2="65.9688"/><line style="stroke:#A80036;stroke-width:1.5;" x1="539.5" x2="639.5" y1="73.9688" y2="73.9688"/><text fill="#000000" font-family="sans-serif" font-size="11" lengthAdjust="spacing" textLength="27" x="544.5" y="88.1792">get()</text><!--MD5=[79d378210367c0c6ec62ef762ddfbd1b]
class Project--><rect codeLine="16" fill="#FEFECE" filter="url(#f1lsuajzayx1d4)" height="39.9688" id="Project" style="stroke:#A80036;stroke-width:1.5;" width="47" x="7" y="210.5"/><text fill="#000000" font-family="sans-serif" font-size="12" lengthAdjust="spacing" textLength="41" x="10" y="226.6387">Project</text><line style="stroke:#A80036;stroke-width:1.5;" x1="8" x2="53" y1="234.4688" y2="234.4688"/><line style="stroke:#A80036;stroke-width:1.5;" x1="8" x2="53" y1="242.4688" y2="242.4688"/><!--MD5=[fc7123defb831ecdd44b2d9bcef6cceb]
class Question--><rect codeLine="26" fill="#FEFECE" filter="url(#f1lsuajzayx1d4)" height="39.9688" id="Question" style="stroke:#A80036;stroke-width:1.5;" width="60" x="274.5" y="528"/><text fill="#000000" font-family="sans-serif" font-size="12" lengthAdjust="spacing" textLength="54" x="277.5" y="544.1387">Question</text><line style="stroke:#A80036;stroke-width:1.5;" x1="275.5" x2="333.5" y1="551.9688" y2="551.9688"/><line style="stroke:#A80036;stroke-width:1.5;" x1="275.5" x2="333.5" y1="559.9688" y2="559.9688"/><!--MD5=[706e73df52f3df32f52be1ce9adb217e]
class Graph--><rect codeLine="28" fill="#FEFECE" filter="url(#f1lsuajzayx1d4)" height="39.9688" id="Graph" style="stroke:#A80036;stroke-width:1.5;" width="42" x="105.5" y="210.5"/><text fill="#000000" font-family="sans-serif" font-size="12" lengthAdjust="spacing" textLength="36" x="108.5" y="226.6387">Graph</text><line style="stroke:#A80036;stroke-width:1.5;" x1="106.5" x2="146.5" y1="234.4688" y2="234.4688"/><line style="stroke:#A80036;stroke-width:1.5;" x1="106.5" x2="146.5" y1="242.4688" y2="242.4688"/><!--MD5=[335f4d9be48430461c68bf6d6fdba145]
class App--><rect codeLine="30" fill="#FEFECE" filter="url(#f1lsuajzayx1d4)" height="39.9688" id="App" style="stroke:#A80036;stroke-width:1.5;" width="30" x="197.5" y="528"/><text fill="#000000" font-family="sans-serif" font-size="12" lengthAdjust="spacing" textLength="24" x="200.5" y="544.1387">App</text><line style="stroke:#A80036;stroke-width:1.5;" x1="198.5" x2="226.5" y1="551.9688" y2="551.9688"/><line style="stroke:#A80036;stroke-width:1.5;" x1="198.5" x2="226.5" y1="559.9688" y2="559.9688"/><!--MD5=[b07065dfc0d0e09965ec10bfc328bb3e]
class Option--><rect codeLine="32" fill="#FEFECE" filter="url(#f1lsuajzayx1d4)" height="52.7734" id="Option" style="stroke:#A80036;stroke-width:1.5;" width="66" x="253.5" y="204"/><text fill="#000000" font-family="sans-serif" font-size="12" lengthAdjust="spacing" textLength="40" x="266.5" y="220.1387">Option</text><line style="stroke:#A80036;stroke-width:1.5;" x1="254.5" x2="318.5" y1="227.9688" y2="227.9688"/><line style="stroke:#A80036;stroke-width:1.5;" x1="254.5" x2="318.5" y1="235.9688" y2="235.9688"/><text fill="#000000" font-family="sans-serif" font-size="11" lengthAdjust="spacing" textLength="54" x="259.5" y="250.1792">enables()</text><!--MD5=[1f3313e11f52906bc19153de0f738949]
class Hint--><rect codeLine="35" fill="#FEFECE" filter="url(#f1lsuajzayx1d4)" height="39.9688" id="Hint" style="stroke:#A80036;stroke-width:1.5;" width="29" x="370" y="528"/><text fill="#000000" font-family="sans-serif" font-size="12" lengthAdjust="spacing" textLength="23" x="373" y="544.1387">Hint</text><line style="stroke:#A80036;stroke-width:1.5;" x1="371" x2="398" y1="551.9688" y2="551.9688"/><line style="stroke:#A80036;stroke-width:1.5;" x1="371" x2="398" y1="559.9688" y2="559.9688"/><!--MD5=[e206c9f78bfa30d1a01c25b4c6393505]
class UserAnalytic--><rect codeLine="40" fill="#FEFECE" filter="url(#f1lsuajzayx1d4)" height="39.9688" id="UserAnalytic" style="stroke:#A80036;stroke-width:1.5;" width="81" x="549" y="210.5"/><text fill="#000000" font-family="sans-serif" font-size="12" lengthAdjust="spacing" textLength="75" x="552" y="226.6387">UserAnalytic</text><line style="stroke:#A80036;stroke-width:1.5;" x1="550" x2="629" y1="234.4688" y2="234.4688"/><line style="stroke:#A80036;stroke-width:1.5;" x1="550" x2="629" y1="242.4688" y2="242.4688"/><!--MD5=[1a502b0dbedafd291c48f46ef8646183]
class Feedback--><rect codeLine="42" fill="#FEFECE" filter="url(#f1lsuajzayx1d4)" height="39.9688" id="Feedback" style="stroke:#A80036;stroke-width:1.5;" width="66" x="434.5" y="528"/><text fill="#000000" font-family="sans-serif" font-size="12" lengthAdjust="spacing" textLength="60" x="437.5" y="544.1387">Feedback</text><line style="stroke:#A80036;stroke-width:1.5;" x1="435.5" x2="499.5" y1="551.9688" y2="551.9688"/><line style="stroke:#A80036;stroke-width:1.5;" x1="435.5" x2="499.5" y1="559.9688" y2="559.9688"/><!--MD5=[4e13963c9dc916a21a8436ef39422b32]
class Component--><rect codeLine="44" fill="#FEFECE" filter="url(#f1lsuajzayx1d4)" height="52.7734" id="Component" style="stroke:#A80036;stroke-width:1.5;" width="75" x="676" y="42"/><text fill="#000000" font-family="sans-serif" font-size="12" lengthAdjust="spacing" textLength="69" x="679" y="58.1387">Component</text><line style="stroke:#A80036;stroke-width:1.5;" x1="677" x2="750" y1="65.9688" y2="65.9688"/><line style="stroke:#A80036;stroke-width:1.5;" x1="677" x2="750" y1="73.9688" y2="73.9688"/><text fill="#000000" font-family="sans-serif" font-size="11" lengthAdjust="spacing" textLength="37" x="682" y="88.1792">have()</text><!--MD5=[3915787db80ab162e3259f8f86339844]
class Structure--><rect codeLine="47" fill="#FEFECE" filter="url(#f1lsuajzayx1d4)" height="39.9688" id="Structure" style="stroke:#A80036;stroke-width:1.5;" width="61" x="683" y="210.5"/><text fill="#000000" font-family="sans-serif" font-size="12" lengthAdjust="spacing" textLength="55" x="686" y="226.6387">Structure</text><line style="stroke:#A80036;stroke-width:1.5;" x1="684" x2="743" y1="234.4688" y2="234.4688"/><line style="stroke:#A80036;stroke-width:1.5;" x1="684" x2="743" y1="242.4688" y2="242.4688"/><!--MD5=[dd430f8ffb90486aebcb09d1b4424d44]
class SourceCode--><rect codeLine="49" fill="#FEFECE" filter="url(#f1lsuajzayx1d4)" height="39.9688" id="SourceCode" style="stroke:#A80036;stroke-width:1.5;" width="81" x="355" y="210.5"/><text fill="#000000" font-family="sans-serif" font-size="12" lengthAdjust="spacing" textLength="75" x="358" y="226.6387">SourceCode</text><line style="stroke:#A80036;stroke-width:1.5;" x1="356" x2="435" y1="234.4688" y2="234.4688"/><line style="stroke:#A80036;stroke-width:1.5;" x1="356" x2="435" y1="242.4688" y2="242.4688"/><!--MD5=[f00dbe8c0302c6aec2cb26b3c659c8fc]
class Report--><rect codeLine="51" fill="#FEFECE" filter="url(#f1lsuajzayx1d4)" height="39.9688" id="Report" style="stroke:#A80036;stroke-width:1.5;" width="46" x="535.5" y="528"/><text fill="#000000" font-family="sans-serif" font-size="12" lengthAdjust="spacing" textLength="40" x="538.5" y="544.1387">Report</text><line style="stroke:#A80036;stroke-width:1.5;" x1="536.5" x2="580.5" y1="551.9688" y2="551.9688"/><line style="stroke:#A80036;stroke-width:1.5;" x1="536.5" x2="580.5" y1="559.9688" y2="559.9688"/><!--MD5=[972bde5337b4335dd91fa5354c932445]
class Point--><rect codeLine="53" fill="#FEFECE" filter="url(#f1lsuajzayx1d4)" height="39.9688" id="Point" style="stroke:#A80036;stroke-width:1.5;" width="34" x="616.5" y="528"/><text fill="#000000" font-family="sans-serif" font-size="12" lengthAdjust="spacing" textLength="28" x="619.5" y="544.1387">Point</text><line style="stroke:#A80036;stroke-width:1.5;" x1="617.5" x2="649.5" y1="551.9688" y2="551.9688"/><line style="stroke:#A80036;stroke-width:1.5;" x1="617.5" x2="649.5" y1="559.9688" y2="559.9688"/><!--MD5=[56c17820b5ec61b985b118caeb6340b1]
class Ui--><rect codeLine="55" fill="#FEFECE" filter="url(#f1lsuajzayx1d4)" height="39.9688" id="Ui" style="stroke:#A80036;stroke-width:1.5;" width="18" x="491.5" y="210.5"/><text fill="#000000" font-family="sans-serif" font-size="12" lengthAdjust="spacing" textLength="12" x="494.5" y="226.6387">Ui</text><line style="stroke:#A80036;stroke-width:1.5;" x1="492.5" x2="508.5" y1="234.4688" y2="234.4688"/><line style="stroke:#A80036;stroke-width:1.5;" x1="492.5" x2="508.5" y1="242.4688" y2="242.4688"/><!--MD5=[f33202a4358b6dc53d5337ad154687fb]
class Progress--><rect codeLine="57" fill="#FEFECE" filter="url(#f1lsuajzayx1d4)" height="39.9688" id="Progress" style="stroke:#A80036;stroke-width:1.5;" width="60" x="701.5" y="528"/><text fill="#000000" font-family="sans-serif" font-size="12" lengthAdjust="spacing" textLength="54" x="704.5" y="544.1387">Progress</text><line style="stroke:#A80036;stroke-width:1.5;" x1="702.5" x2="760.5" y1="551.9688" y2="551.9688"/><line style="stroke:#A80036;stroke-width:1.5;" x1="702.5" x2="760.5" y1="559.9688" y2="559.9688"/><!--MD5=[91408fb186fde962f522ce8c7a1482f7]
class ProgressReport--><rect codeLine="59" fill="#FEFECE" filter="url(#f1lsuajzayx1d4)" height="39.9688" id="ProgressReport" style="stroke:#A80036;stroke-width:1.5;" width="100" x="796.5" y="528"/><text fill="#000000" font-family="sans-serif" font-size="12" lengthAdjust="spacing" textLength="94" x="799.5" y="544.1387">ProgressReport</text><line style="stroke:#A80036;stroke-width:1.5;" x1="797.5" x2="895.5" y1="551.9688" y2="551.9688"/><line style="stroke:#A80036;stroke-width:1.5;" x1="797.5" x2="895.5" y1="559.9688" y2="559.9688"/><!--MD5=[42901561eebdb1422153f9267609e171]
link Developer to Graph--><path codeLine="61" d="M177.711,126.906 C170.075,136.584 162.711,146.806 156.5,157 C147.204,172.259 139.558,190.916 134.312,205.481 " fill="none" id="Developer-to-Graph" style="stroke:#A80036;stroke-width:1.0;"/><polygon fill="#A80036" points="132.626,210.254,139.3958,203.1007,134.2917,205.5396,131.8528,200.4355,132.626,210.254" style="stroke:#A80036;stroke-width:1.0;"/><text fill="#000000" font-family="sans-serif" font-size="13" lengthAdjust="spacing" textLength="16" x="157.5" y="170.0669">fix</text><!--MD5=[63b8d0e8784646f572f6d4b2ac285ae4]
link Developer to Project--><path codeLine="62" d="M177.92,88.108 C143.131,102.549 98.4016,125.45 67.5,157 C54.1744,170.605 44.6251,189.978 38.569,205.275 " fill="none" id="Developer-to-Project" style="stroke:#A80036;stroke-width:1.0;"/><polygon fill="#A80036" points="36.6487,210.292,43.6013,203.3162,38.4358,205.6223,36.1298,200.4568,36.6487,210.292" style="stroke:#A80036;stroke-width:1.0;"/><text fill="#000000" font-family="sans-serif" font-size="13" lengthAdjust="spacing" textLength="71" x="68.5" y="170.0669">restructure</text><!--MD5=[ad15121185b3664ad9c5a64410b2869c]
link User to Point--><path codeLine="63" d="M509.947,428.414 C528.565,444.108 550.468,463.094 569.5,481 C584.354,494.9751 600.325,511.4426 612.597,524.4326 " fill="none" id="User-to-Point" style="stroke:#A80036;stroke-width:1.0;"/><polygon fill="#A80036" points="616.281,528.3457,613.0232,519.0512,612.8533,524.7055,607.199,524.5356,616.281,528.3457" style="stroke:#A80036;stroke-width:1.0;"/><text fill="#000000" font-family="sans-serif" font-size="13" lengthAdjust="spacing" textLength="73" x="587.5" y="494.0669">understand</text><!--MD5=[5b66dd66451f01e9d7836fb8e284c875]
link Developer to App--><path codeLine="64" d="M228.329,127.098 C224.383,231.775 216.188,449.159 213.429,522.3439 " fill="none" id="Developer-to-App" style="stroke:#A80036;stroke-width:1.0;"/><polygon fill="#A80036" points="213.225,527.7656,217.5614,518.9228,213.4135,522.7692,209.5671,518.6212,213.225,527.7656" style="stroke:#A80036;stroke-width:1.0;"/><text fill="#000000" font-family="sans-serif" font-size="13" lengthAdjust="spacing" textLength="45" x="223.5" y="300.0669">publish</text><!--MD5=[4191b4b8ff707877f522bab8020e7a55]
link Developer to SourceCode--><path codeLine="65" d="M283.28,117.097 C297.166,129.894 312.026,143.839 325.5,157 C342.089,173.203 360.264,192.062 373.936,206.483 " fill="none" id="Developer-to-SourceCode" style="stroke:#A80036;stroke-width:1.0;"/><polygon fill="#A80036" points="377.668,210.427,374.3883,201.1403,374.2317,206.7949,368.577,206.6383,377.668,210.427" style="stroke:#A80036;stroke-width:1.0;"/><text fill="#000000" font-family="sans-serif" font-size="13" lengthAdjust="spacing" textLength="83" x="342.5" y="170.0669">maintainable</text><!--MD5=[f3af3e4376504b99e4d7659058753524]
link User to Feedback--><path codeLine="66" d="M467.5,451.094 C467.5,475.8221 467.5,503.3839 467.5,522.5919 " fill="none" id="User-to-Feedback" style="stroke:#A80036;stroke-width:1.0;"/><polygon fill="#A80036" points="467.5,527.7788,471.5,518.7788,467.5,522.7788,463.5,518.7788,467.5,527.7788" style="stroke:#A80036;stroke-width:1.0;"/><text fill="#000000" font-family="sans-serif" font-size="13" lengthAdjust="spacing" textLength="21" x="468.5" y="494.0669">get</text><!--MD5=[303c9b9d3701436fb42aa14a6cb527a8]
link User to Hint--><path codeLine="67" d="M436.358,451.094 C422.873,476.0335 407.829,503.8552 397.433,523.0826 " fill="none" id="User-to-Hint" style="stroke:#A80036;stroke-width:1.0;"/><polygon fill="#A80036" points="394.893,527.7788,402.692,521.7642,397.271,523.3805,395.6548,517.9594,394.893,527.7788" style="stroke:#A80036;stroke-width:1.0;"/><text fill="#000000" font-family="sans-serif" font-size="13" lengthAdjust="spacing" textLength="21" x="420.5" y="494.0669">get</text><!--MD5=[0cfaacdf40786d36b81ef07f701a116c]
link Option to User--><path codeLine="68" d="M315.581,257.207 C344.101,282.418 388.029,321.25 421.327,350.684 " fill="none" id="Option-to-User" style="stroke:#A80036;stroke-width:1.0;"/><polygon fill="#A80036" points="425.333,354.225,421.2395,345.2671,421.587,350.9133,415.9408,351.2608,425.333,354.225" style="stroke:#A80036;stroke-width:1.0;"/><text fill="#000000" font-family="sans-serif" font-size="13" lengthAdjust="spacing" textLength="50" x="367.5" y="300.0669">enables</text><!--MD5=[0214f9738810ef8e203a2a515b7b8642]
link User to App--><path codeLine="69" d="M425.285,418.452 C395.86,435.887 355.723,459.755 320.5,481 C289.582,499.6479 253.861,521.5474 232.24,534.8421 " fill="none" id="User-to-App" style="stroke:#A80036;stroke-width:1.0;"/><polygon fill="#A80036" points="227.847,537.5442,237.6088,536.2377,232.1063,534.9254,233.4187,529.4228,227.847,537.5442" style="stroke:#A80036;stroke-width:1.0;"/><text fill="#000000" font-family="sans-serif" font-size="13" lengthAdjust="spacing" textLength="27" x="321.5" y="494.0669">play</text><!--MD5=[f855d19d9bb66dd1f18980a08b62cdb3]
link Developer to Ui--><path codeLine="70" d="M283.109,85.125 C326.292,99.518 387.725,123.696 434.5,157 C456.173,172.431 475.984,196.046 488.128,212.099 " fill="none" id="Developer-to-Ui" style="stroke:#A80036;stroke-width:1.0;"/><polygon fill="#A80036" points="491.345,216.413,489.1702,206.8073,488.3555,212.4051,482.7576,211.5904,491.345,216.413" style="stroke:#A80036;stroke-width:1.0;"/><text fill="#000000" font-family="sans-serif" font-size="13" lengthAdjust="spacing" textLength="47" x="454.5" y="170.0669">change</text><!--MD5=[b5e9f595a827ebd329737bf51730f76a]
link User to Progress--><path codeLine="71" d="M509.51,406.087 C552.244,420.129 619.161,445.614 669.5,481 C686.401,492.8804 702.287,509.9541 713.747,523.7593 " fill="none" id="User-to-Progress" style="stroke:#A80036;stroke-width:1.0;"/><polygon fill="#A80036" points="717.158,527.9294,714.5559,518.4305,713.9923,524.0592,708.3636,523.4957,717.158,527.9294" style="stroke:#A80036;stroke-width:1.0;"/><text fill="#000000" font-family="sans-serif" font-size="13" lengthAdjust="spacing" textLength="32" x="690.5" y="494.0669">track</text><!--MD5=[b1ce83990aa10fef32912eaa0d3da128]
link User to Report--><path codeLine="72" d="M501.644,451.094 C516.429,476.0335 532.922,503.8552 544.321,523.0826 " fill="none" id="User-to-Report" style="stroke:#A80036;stroke-width:1.0;"/><polygon fill="#A80036" points="547.105,527.7788,545.9565,517.9971,544.5553,523.4777,539.0748,522.0766,547.105,527.7788" style="stroke:#A80036;stroke-width:1.0;"/><text fill="#000000" font-family="sans-serif" font-size="13" lengthAdjust="spacing" textLength="30" x="530.5" y="494.0669">view</text><!--MD5=[89a729879333f4a514a72f7623177c63]
link User to Question--><path codeLine="73" d="M425.099,433.43 C394.477,462.267 354.204,500.1931 328.829,524.0893 " fill="none" id="User-to-Question" style="stroke:#A80036;stroke-width:1.0;"/><polygon fill="#A80036" points="324.888,527.8005,334.1827,524.5435,328.5284,524.3731,328.6989,518.7188,324.888,527.8005" style="stroke:#A80036;stroke-width:1.0;"/><text fill="#000000" font-family="sans-serif" font-size="13" lengthAdjust="spacing" textLength="25" x="372.5" y="494.0669">skip</text><!--MD5=[87f287036308ea1239ee411fa2579fb7]
link User to ProgressReport--><path codeLine="74" d="M509.63,404.629 C562.573,419.251 655.685,447.095 731.5,481 C759.869,493.6869 790.298,511.3471 812.725,525.2072 " fill="none" id="User-to-ProgressReport" style="stroke:#A80036;stroke-width:1.0;"/><polygon fill="#A80036" points="817.101,527.926,811.5691,519.7775,812.8546,525.2863,807.3457,526.5718,817.101,527.926" style="stroke:#A80036;stroke-width:1.0;"/><text fill="#000000" font-family="sans-serif" font-size="13" lengthAdjust="spacing" textLength="30" x="765.5" y="494.0669">view</text><!--MD5=[d6e0e09d7ac48566b49fa6bdf6412cc2]
link Developer to Option--><path codeLine="75" d="M250.717,127.264 C259.244,151.627 268.818,178.979 275.915,199.257 " fill="none" id="Developer-to-Option" style="stroke:#A80036;stroke-width:1.0;"/><polygon fill="#A80036" points="277.572,203.993,278.3718,194.1767,275.919,199.2741,270.8216,196.8214,277.572,203.993" style="stroke:#A80036;stroke-width:1.0;"/><text fill="#000000" font-family="sans-serif" font-size="13" lengthAdjust="spacing" textLength="48" x="268.5" y="170.0669">provide</text><!--MD5=[2dbf9e6a4222adaace334fcdf6ab9817]
link Component to Structure--><path codeLine="76" d="M713.5,95.207 C713.5,125.477 713.5,175.384 713.5,205.083 " fill="none" id="Component-to-Structure" style="stroke:#A80036;stroke-width:1.0;"/><polygon fill="#A80036" points="713.5,210.384,717.5,201.384,713.5,205.384,709.5,201.384,713.5,210.384" style="stroke:#A80036;stroke-width:1.0;"/><text fill="#000000" font-family="sans-serif" font-size="13" lengthAdjust="spacing" textLength="32" x="714.5" y="170.0669">have</text><!--MD5=[38aa0dc04da63292d06c78399db58375]
link Maintainer to UserAnalytic--><path codeLine="77" d="M589.5,95.207 C589.5,125.477 589.5,175.384 589.5,205.083 " fill="none" id="Maintainer-to-UserAnalytic" style="stroke:#A80036;stroke-width:1.0;"/><polygon fill="#A80036" points="589.5,210.384,593.5,201.384,589.5,205.384,585.5,201.384,589.5,210.384" style="stroke:#A80036;stroke-width:1.0;"/><text fill="#000000" font-family="sans-serif" font-size="13" lengthAdjust="spacing" textLength="21" x="590.5" y="170.0669">get</text><!--MD5=[85106edc7b5930718cc50a48d522ae09]
@startuml
hide circle
class User<actor> {
}
class Developer<actor> {
}
class Maintainer<actor> {
}
class Developer {
	maintainable()
	publish()
	provide()
	change()
	restructure()
	fix()
}
class Project {
}
class User {
	view()
	understand()
	skip()
	play()
	track()
	get()
}
class Question {
}
class Graph {
}
class App {
}
class Option {
	enables()
}
class Hint {
}
class Maintainer {
	get()
}
class UserAnalytic {
}
class Feedback {
}
class Component {
	have()
}
class Structure {
}
class SourceCode {
}
class Report {
}
class Point {
}
class Ui {
}
class Progress {
}
class ProgressReport {
}
Developer - -> Graph : fix
Developer - -> Project : restructure
User - -> Point : understand
Developer - -> App : publish
Developer - -> SourceCode : maintainable
User - -> Feedback : get
User - -> Hint : get
Option - -> User : enables
User - -> App : play
Developer - -> Ui : change
User - -> Progress : track
User - -> Report : view
User - -> Question : skip
User - -> ProgressReport : view
Developer - -> Option : provide
Component - -> Structure : have
Maintainer - -> UserAnalytic : get
@enduml

PlantUML version 1.2021.6beta6(Unknown compile time)
(GPL source distribution)
Java Runtime: Java(TM) SE Runtime Environment
JVM: Java HotSpot(TM) 64-Bit Server VM
Default Encoding: UTF-8
Language: en
Country: US
--></g></svg>