<?xml version="1.0" encoding="UTF-8" standalone="no"?><svg xmlns="http://www.w3.org/2000/svg" xmlns:xlink="http://www.w3.org/1999/xlink" contentScriptType="application/ecmascript" contentStyleType="text/css" height="577px" preserveAspectRatio="none" style="width:3020px;height:577px;background:#FFFFFF;" version="1.1" viewBox="0 0 3020 577" width="3020px" zoomAndPan="magnify"><defs><filter height="300%" id="fgc4emuirlx44" width="300%" x="-1" y="-1"><feGaussianBlur result="blurOut" stdDeviation="2.0"/><feColorMatrix in="blurOut" result="blurOut2" type="matrix" values="0 0 0 0 0 0 0 0 0 0 0 0 0 0 0 0 0 0 .4 0"/><feOffset dx="4.0" dy="4.0" in="blurOut2" result="blurOut3"/><feBlend in="SourceGraphic" in2="blurOut3" mode="normal"/></filter></defs><g><!--MD5=[3fd616f346a44cd59a91eb10b19e157c]
class User--><rect codeLine="16" fill="#FEFECE" filter="url(#fgc4emuirlx44)" height="411.3047" id="User" style="stroke:#A80036;stroke-width:1.5;" width="111" x="1382.3751" y="10"/><text fill="#000000" font-family="sans-serif" font-size="12" lengthAdjust="spacing" textLength="29" x="1405.8751" y="26.1387">User</text><rect fill="#FFFFFF" height="15.9688" style="stroke:#000000;stroke-width:1.0;stroke-dasharray:2.0,2.0;" width="33" x="1463.3751" y="7"/><text fill="#000000" font-family="sans-serif" font-size="12" font-style="italic" lengthAdjust="spacing" textLength="31" x="1464.3751" y="19.1387">actor</text><line style="stroke:#A80036;stroke-width:1.5;" x1="1383.3751" x2="1492.3751" y1="33.9688" y2="33.9688"/><text fill="#000000" font-family="sans-serif" font-size="11" lengthAdjust="spacing" textLength="53" x="1388.3751" y="48.1792">password</text><text fill="#000000" font-family="sans-serif" font-size="11" lengthAdjust="spacing" textLength="99" x="1388.3751" y="60.9839">giftBuddyAccount</text><text fill="#000000" font-family="sans-serif" font-size="11" lengthAdjust="spacing" textLength="22" x="1388.3751" y="73.7886">one</text><text fill="#000000" font-family="sans-serif" font-size="11" lengthAdjust="spacing" textLength="44" x="1388.3751" y="86.5933">interest</text><text fill="#000000" font-family="sans-serif" font-size="11" lengthAdjust="spacing" textLength="36" x="1388.3751" y="99.3979">phone</text><text fill="#000000" font-family="sans-serif" font-size="11" lengthAdjust="spacing" textLength="77" x="1388.3751" y="112.2026">emailaddress</text><text fill="#000000" font-family="sans-serif" font-size="11" lengthAdjust="spacing" textLength="97" x="1388.3751" y="125.0073">giftBuddyContact</text><text fill="#000000" font-family="sans-serif" font-size="11" lengthAdjust="spacing" textLength="41" x="1388.3751" y="137.812">contact</text><line style="stroke:#A80036;stroke-width:1.5;" x1="1383.3751" x2="1492.3751" y1="144.4063" y2="144.4063"/><text fill="#000000" font-family="sans-serif" font-size="11" lengthAdjust="spacing" textLength="36" x="1388.3751" y="158.6167">save()</text><text fill="#000000" font-family="sans-serif" font-size="11" lengthAdjust="spacing" textLength="39" x="1388.3751" y="171.4214">enter()</text><text fill="#000000" font-family="sans-serif" font-size="11" lengthAdjust="spacing" textLength="29" x="1388.3751" y="184.2261">add()</text><text fill="#000000" font-family="sans-serif" font-size="11" lengthAdjust="spacing" textLength="48" x="1388.3751" y="197.0308">update()</text><text fill="#000000" font-family="sans-serif" font-size="11" lengthAdjust="spacing" textLength="35" x="1388.3751" y="209.8354">view()</text><text fill="#000000" font-family="sans-serif" font-size="11" lengthAdjust="spacing" textLength="52" x="1388.3751" y="222.6401">receive()</text><text fill="#000000" font-family="sans-serif" font-size="11" lengthAdjust="spacing" textLength="38" x="1388.3751" y="235.4448">reset()</text><text fill="#000000" font-family="sans-serif" font-size="11" lengthAdjust="spacing" textLength="53" x="1388.3751" y="248.2495">remove()</text><text fill="#000000" font-family="sans-serif" font-size="11" lengthAdjust="spacing" textLength="35" x="1388.3751" y="261.0542">login()</text><text fill="#000000" font-family="sans-serif" font-size="11" lengthAdjust="spacing" textLength="51" x="1388.3751" y="273.8589">provide()</text><text fill="#000000" font-family="sans-serif" font-size="11" lengthAdjust="spacing" textLength="46" x="1388.3751" y="286.6636">search()</text><text fill="#000000" font-family="sans-serif" font-size="11" lengthAdjust="spacing" textLength="52" x="1388.3751" y="299.4683">input_in()</text><text fill="#000000" font-family="sans-serif" font-size="11" lengthAdjust="spacing" textLength="29" x="1388.3751" y="312.2729">use()</text><text fill="#000000" font-family="sans-serif" font-size="11" lengthAdjust="spacing" textLength="48" x="1388.3751" y="325.0776">discard()</text><text fill="#000000" font-family="sans-serif" font-size="11" lengthAdjust="spacing" textLength="60" x="1388.3751" y="337.8823">purchase()</text><text fill="#000000" font-family="sans-serif" font-size="11" lengthAdjust="spacing" textLength="45" x="1388.3751" y="350.687">create()</text><text fill="#000000" font-family="sans-serif" font-size="11" lengthAdjust="spacing" textLength="36" x="1388.3751" y="363.4917">input()</text><text fill="#000000" font-family="sans-serif" font-size="11" lengthAdjust="spacing" textLength="58" x="1388.3751" y="376.2964">navigate()</text><text fill="#000000" font-family="sans-serif" font-size="11" lengthAdjust="spacing" textLength="42" x="1388.3751" y="389.1011">forget()</text><text fill="#000000" font-family="sans-serif" font-size="11" lengthAdjust="spacing" textLength="26" x="1388.3751" y="401.9058">set()</text><text fill="#000000" font-family="sans-serif" font-size="11" lengthAdjust="spacing" textLength="41" x="1388.3751" y="414.7104">install()</text><!--MD5=[72ce1314beffbcf60a64ee91fbbc10dc]
class Contact--><rect codeLine="12" fill="#FEFECE" filter="url(#fgc4emuirlx44)" height="65.5781" id="Contact" style="stroke:#A80036;stroke-width:1.5;" width="76" x="70.8733" y="498"/><text fill="#000000" font-family="sans-serif" font-size="12" lengthAdjust="spacing" textLength="45" x="86.3733" y="514.1387">Contact</text><line style="stroke:#A80036;stroke-width:1.5;" x1="71.8733" x2="145.8733" y1="521.9688" y2="521.9688"/><text fill="#000000" font-family="sans-serif" font-size="11" lengthAdjust="spacing" textLength="44" x="76.8733" y="536.1792">interest</text><text fill="#000000" font-family="sans-serif" font-size="11" lengthAdjust="spacing" textLength="64" x="76.8733" y="548.9839">information</text><line style="stroke:#A80036;stroke-width:1.5;" x1="71.8733" x2="145.8733" y1="555.5781" y2="555.5781"/><!--MD5=[b5e265065262f4f9caf90311e5706eef]
class PhoneNumber--><rect codeLine="39" fill="#FEFECE" filter="url(#fgc4emuirlx44)" height="39.9688" id="PhoneNumber" style="stroke:#A80036;stroke-width:1.5;" width="89" x="182.3731" y="511"/><text fill="#000000" font-family="sans-serif" font-size="12" lengthAdjust="spacing" textLength="83" x="185.3731" y="527.1387">PhoneNumber</text><line style="stroke:#A80036;stroke-width:1.5;" x1="183.3731" x2="270.3731" y1="534.9688" y2="534.9688"/><line style="stroke:#A80036;stroke-width:1.5;" x1="183.3731" x2="270.3731" y1="542.9688" y2="542.9688"/><!--MD5=[73b95c177b6fad622367ff9ffd1159a8]
class GiftRecommendation--><rect codeLine="41" fill="#FEFECE" filter="url(#fgc4emuirlx44)" height="39.9688" id="GiftRecommendation" style="stroke:#A80036;stroke-width:1.5;" width="130" x="306.8731" y="511"/><text fill="#000000" font-family="sans-serif" font-size="12" lengthAdjust="spacing" textLength="124" x="309.8731" y="527.1387">GiftRecommendation</text><line style="stroke:#A80036;stroke-width:1.5;" x1="307.8731" x2="435.8731" y1="534.9688" y2="534.9688"/><line style="stroke:#A80036;stroke-width:1.5;" x1="307.8731" x2="435.8731" y1="542.9688" y2="542.9688"/><!--MD5=[30fd7b95ab383a5e7c83ea23d4ea0fbf]
class Information--><rect codeLine="43" fill="#FEFECE" filter="url(#fgc4emuirlx44)" height="39.9688" id="Information" style="stroke:#A80036;stroke-width:1.5;" width="73" x="472.3731" y="511"/><text fill="#000000" font-family="sans-serif" font-size="12" lengthAdjust="spacing" textLength="67" x="475.3731" y="527.1387">Information</text><line style="stroke:#A80036;stroke-width:1.5;" x1="473.3731" x2="544.3731" y1="534.9688" y2="534.9688"/><line style="stroke:#A80036;stroke-width:1.5;" x1="473.3731" x2="544.3731" y1="542.9688" y2="542.9688"/><!--MD5=[7829b64950ce38e0487c4015ea331f97]
class Date--><rect codeLine="45" fill="#FEFECE" filter="url(#fgc4emuirlx44)" height="52.7734" id="Date" style="stroke:#A80036;stroke-width:1.5;" width="46" x="626.8731" y="504.5"/><text fill="#000000" font-family="sans-serif" font-size="12" lengthAdjust="spacing" textLength="28" x="635.8731" y="520.6387">Date</text><line style="stroke:#A80036;stroke-width:1.5;" x1="627.8731" x2="671.8731" y1="528.4688" y2="528.4688"/><line style="stroke:#A80036;stroke-width:1.5;" x1="627.8731" x2="671.8731" y1="536.4688" y2="536.4688"/><text fill="#000000" font-family="sans-serif" font-size="11" lengthAdjust="spacing" textLength="34" x="632.8731" y="550.6792">pass()</text><!--MD5=[2731afa3914a2f1855b4f1ebf120a43f]
class Gift--><rect codeLine="48" fill="#FEFECE" filter="url(#fgc4emuirlx44)" height="39.9688" id="Gift" style="stroke:#A80036;stroke-width:1.5;" width="26" x="834.8731" y="511"/><text fill="#000000" font-family="sans-serif" font-size="12" lengthAdjust="spacing" textLength="20" x="837.8731" y="527.1387">Gift</text><line style="stroke:#A80036;stroke-width:1.5;" x1="835.8731" x2="859.8731" y1="534.9688" y2="534.9688"/><line style="stroke:#A80036;stroke-width:1.5;" x1="835.8731" x2="859.8731" y1="542.9688" y2="542.9688"/><!--MD5=[d93dddc7538c130e8ed23df1a5b1a611]
class GiftBuddyAccount--><rect codeLine="50" fill="#FEFECE" filter="url(#fgc4emuirlx44)" height="39.9688" id="GiftBuddyAccount" style="stroke:#A80036;stroke-width:1.5;" width="112" x="1034.8751" y="511"/><text fill="#000000" font-family="sans-serif" font-size="12" lengthAdjust="spacing" textLength="106" x="1037.8751" y="527.1387">GiftBuddyAccount</text><line style="stroke:#A80036;stroke-width:1.5;" x1="1035.8751" x2="1145.8751" y1="534.9688" y2="534.9688"/><line style="stroke:#A80036;stroke-width:1.5;" x1="1035.8751" x2="1145.8751" y1="542.9688" y2="542.9688"/><!--MD5=[2f01b1126ff33a0669651ec2488a5ef9]
class Password--><rect codeLine="52" fill="#FEFECE" filter="url(#fgc4emuirlx44)" height="39.9688" id="Password" style="stroke:#A80036;stroke-width:1.5;" width="64" x="1198.8751" y="511"/><text fill="#000000" font-family="sans-serif" font-size="12" lengthAdjust="spacing" textLength="58" x="1201.8751" y="527.1387">Password</text><line style="stroke:#A80036;stroke-width:1.5;" x1="1199.8751" x2="1261.8751" y1="534.9688" y2="534.9688"/><line style="stroke:#A80036;stroke-width:1.5;" x1="1199.8751" x2="1261.8751" y1="542.9688" y2="542.9688"/><!--MD5=[a0556d858be1a2d8453aa8ee71dcacb5]
class Shoppinglink--><rect codeLine="54" fill="#FEFECE" filter="url(#fgc4emuirlx44)" height="39.9688" id="Shoppinglink" style="stroke:#A80036;stroke-width:1.5;" width="83" x="1298.3751" y="511"/><text fill="#000000" font-family="sans-serif" font-size="12" lengthAdjust="spacing" textLength="77" x="1301.3751" y="527.1387">Shoppinglink</text><line style="stroke:#A80036;stroke-width:1.5;" x1="1299.3751" x2="1380.3751" y1="534.9688" y2="534.9688"/><line style="stroke:#A80036;stroke-width:1.5;" x1="1299.3751" x2="1380.3751" y1="542.9688" y2="542.9688"/><!--MD5=[11ce86fd4409221905d4cddf5201631a]
class Series--><rect codeLine="56" fill="#FEFECE" filter="url(#fgc4emuirlx44)" height="39.9688" id="Series" style="stroke:#A80036;stroke-width:1.5;" width="45" x="1416.3751" y="511"/><text fill="#000000" font-family="sans-serif" font-size="12" lengthAdjust="spacing" textLength="39" x="1419.3751" y="527.1387">Series</text><line style="stroke:#A80036;stroke-width:1.5;" x1="1417.3751" x2="1460.3751" y1="534.9688" y2="534.9688"/><line style="stroke:#A80036;stroke-width:1.5;" x1="1417.3751" x2="1460.3751" y1="542.9688" y2="542.9688"/><!--MD5=[41314a0efc36828092cff9ebad2fcafd]
class Group--><rect codeLine="58" fill="#FEFECE" filter="url(#fgc4emuirlx44)" height="39.9688" id="Group" style="stroke:#A80036;stroke-width:1.5;" width="43" x="1496.3751" y="511"/><text fill="#000000" font-family="sans-serif" font-size="12" lengthAdjust="spacing" textLength="37" x="1499.3751" y="527.1387">Group</text><line style="stroke:#A80036;stroke-width:1.5;" x1="1497.3751" x2="1538.3751" y1="534.9688" y2="534.9688"/><line style="stroke:#A80036;stroke-width:1.5;" x1="1497.3751" x2="1538.3751" y1="542.9688" y2="542.9688"/><!--MD5=[89335796042a83d3543a952b2ee6dffe]
class Mediaaccount--><rect codeLine="60" fill="#FEFECE" filter="url(#fgc4emuirlx44)" height="39.9688" id="Mediaaccount" style="stroke:#A80036;stroke-width:1.5;" width="89" x="1574.3751" y="511"/><text fill="#000000" font-family="sans-serif" font-size="12" lengthAdjust="spacing" textLength="83" x="1577.3751" y="527.1387">Mediaaccount</text><line style="stroke:#A80036;stroke-width:1.5;" x1="1575.3751" x2="1662.3751" y1="534.9688" y2="534.9688"/><line style="stroke:#A80036;stroke-width:1.5;" x1="1575.3751" x2="1662.3751" y1="542.9688" y2="542.9688"/><!--MD5=[e8dcfdde5c6ce5239f59acd294696d72]
class Case--><rect codeLine="62" fill="#FEFECE" filter="url(#fgc4emuirlx44)" height="39.9688" id="Case" style="stroke:#A80036;stroke-width:1.5;" width="36" x="1698.8751" y="511"/><text fill="#000000" font-family="sans-serif" font-size="12" lengthAdjust="spacing" textLength="30" x="1701.8751" y="527.1387">Case</text><line style="stroke:#A80036;stroke-width:1.5;" x1="1699.8751" x2="1733.8751" y1="534.9688" y2="534.9688"/><line style="stroke:#A80036;stroke-width:1.5;" x1="1699.8751" x2="1733.8751" y1="542.9688" y2="542.9688"/><!--MD5=[c0f7ef69a41a7152a3543feb3e336d86]
class Budget--><rect codeLine="64" fill="#FEFECE" filter="url(#fgc4emuirlx44)" height="39.9688" id="Budget" style="stroke:#A80036;stroke-width:1.5;" width="49" x="1770.3751" y="511"/><text fill="#000000" font-family="sans-serif" font-size="12" lengthAdjust="spacing" textLength="43" x="1773.3751" y="527.1387">Budget</text><line style="stroke:#A80036;stroke-width:1.5;" x1="1771.3751" x2="1818.3751" y1="534.9688" y2="534.9688"/><line style="stroke:#A80036;stroke-width:1.5;" x1="1771.3751" x2="1818.3751" y1="542.9688" y2="542.9688"/><!--MD5=[3507a60a1befbc7906f5a024a4f6351d]
class Favorite--><rect codeLine="66" fill="#FEFECE" filter="url(#fgc4emuirlx44)" height="39.9688" id="Favorite" style="stroke:#A80036;stroke-width:1.5;" width="55" x="1854.3751" y="511"/><text fill="#000000" font-family="sans-serif" font-size="12" lengthAdjust="spacing" textLength="49" x="1857.3751" y="527.1387">Favorite</text><line style="stroke:#A80036;stroke-width:1.5;" x1="1855.3751" x2="1908.3751" y1="534.9688" y2="534.9688"/><line style="stroke:#A80036;stroke-width:1.5;" x1="1855.3751" x2="1908.3751" y1="542.9688" y2="542.9688"/><!--MD5=[76b5e19c9337179d2d7ae334371d68c8]
class Notification--><rect codeLine="68" fill="#FEFECE" filter="url(#fgc4emuirlx44)" height="39.9688" id="Notification" style="stroke:#A80036;stroke-width:1.5;" width="72" x="1944.8751" y="511"/><text fill="#000000" font-family="sans-serif" font-size="12" lengthAdjust="spacing" textLength="66" x="1947.8751" y="527.1387">Notification</text><line style="stroke:#A80036;stroke-width:1.5;" x1="1945.8751" x2="2015.8751" y1="534.9688" y2="534.9688"/><line style="stroke:#A80036;stroke-width:1.5;" x1="1945.8751" x2="2015.8751" y1="542.9688" y2="542.9688"/><!--MD5=[0b4e4b4980470ea387cc45de9bd14b5b]
class Application--><rect codeLine="70" fill="#FEFECE" filter="url(#fgc4emuirlx44)" height="39.9688" id="Application" style="stroke:#A80036;stroke-width:1.5;" width="72" x="2051.8751" y="511"/><text fill="#000000" font-family="sans-serif" font-size="12" lengthAdjust="spacing" textLength="66" x="2054.8751" y="527.1387">Application</text><line style="stroke:#A80036;stroke-width:1.5;" x1="2052.8751" x2="2122.8751" y1="534.9688" y2="534.9688"/><line style="stroke:#A80036;stroke-width:1.5;" x1="2052.8751" x2="2122.8751" y1="542.9688" y2="542.9688"/><!--MD5=[03be55fb4aae919908819e432b9694ea]
class Phone--><rect codeLine="72" fill="#FEFECE" filter="url(#fgc4emuirlx44)" height="39.9688" id="Phone" style="stroke:#A80036;stroke-width:1.5;" width="42" x="2158.8751" y="511"/><text fill="#000000" font-family="sans-serif" font-size="12" lengthAdjust="spacing" textLength="36" x="2161.8751" y="527.1387">Phone</text><line style="stroke:#A80036;stroke-width:1.5;" x1="2159.8751" x2="2199.8751" y1="534.9688" y2="534.9688"/><line style="stroke:#A80036;stroke-width:1.5;" x1="2159.8751" x2="2199.8751" y1="542.9688" y2="542.9688"/><!--MD5=[1a502b0dbedafd291c48f46ef8646183]
class Feedback--><rect codeLine="74" fill="#FEFECE" filter="url(#fgc4emuirlx44)" height="39.9688" id="Feedback" style="stroke:#A80036;stroke-width:1.5;" width="66" x="2235.8751" y="511"/><text fill="#000000" font-family="sans-serif" font-size="12" lengthAdjust="spacing" textLength="60" x="2238.8751" y="527.1387">Feedback</text><line style="stroke:#A80036;stroke-width:1.5;" x1="2236.8751" x2="2300.8751" y1="534.9688" y2="534.9688"/><line style="stroke:#A80036;stroke-width:1.5;" x1="2236.8751" x2="2300.8751" y1="542.9688" y2="542.9688"/><!--MD5=[5ddae161507dc419796d548b35226dc4]
class GiftGiving--><rect codeLine="76" fill="#FEFECE" filter="url(#fgc4emuirlx44)" height="39.9688" id="GiftGiving" style="stroke:#A80036;stroke-width:1.5;" width="63" x="2337.3751" y="511"/><text fill="#000000" font-family="sans-serif" font-size="12" lengthAdjust="spacing" textLength="57" x="2340.3751" y="527.1387">GiftGiving</text><line style="stroke:#A80036;stroke-width:1.5;" x1="2338.3751" x2="2399.3751" y1="534.9688" y2="534.9688"/><line style="stroke:#A80036;stroke-width:1.5;" x1="2338.3751" x2="2399.3751" y1="542.9688" y2="542.9688"/><!--MD5=[53f6a92bd21ca2f2960392a061f3a1c6]
class Name--><rect codeLine="78" fill="#FEFECE" filter="url(#fgc4emuirlx44)" height="39.9688" id="Name" style="stroke:#A80036;stroke-width:1.5;" width="40" x="2435.8751" y="511"/><text fill="#000000" font-family="sans-serif" font-size="12" lengthAdjust="spacing" textLength="34" x="2438.8751" y="527.1387">Name</text><line style="stroke:#A80036;stroke-width:1.5;" x1="2436.8751" x2="2474.8751" y1="534.9688" y2="534.9688"/><line style="stroke:#A80036;stroke-width:1.5;" x1="2436.8751" x2="2474.8751" y1="542.9688" y2="542.9688"/><!--MD5=[4d51c1c38d44c3b1ba1609bd7daa97a5]
class GiftBuddyContact--><rect codeLine="80" fill="#FEFECE" filter="url(#fgc4emuirlx44)" height="39.9688" id="GiftBuddyContact" style="stroke:#A80036;stroke-width:1.5;" width="109" x="2511.3751" y="511"/><text fill="#000000" font-family="sans-serif" font-size="12" lengthAdjust="spacing" textLength="103" x="2514.3751" y="527.1387">GiftBuddyContact</text><line style="stroke:#A80036;stroke-width:1.5;" x1="2512.3751" x2="2619.3751" y1="534.9688" y2="534.9688"/><line style="stroke:#A80036;stroke-width:1.5;" x1="2512.3751" x2="2619.3751" y1="542.9688" y2="542.9688"/><!--MD5=[12ab34adcab943d0f705a016118788e5]
class One--><rect codeLine="82" fill="#FEFECE" filter="url(#fgc4emuirlx44)" height="39.9688" id="One" style="stroke:#A80036;stroke-width:1.5;" width="31" x="2655.3751" y="511"/><text fill="#000000" font-family="sans-serif" font-size="12" lengthAdjust="spacing" textLength="25" x="2658.3751" y="527.1387">One</text><line style="stroke:#A80036;stroke-width:1.5;" x1="2656.3751" x2="2685.3751" y1="534.9688" y2="534.9688"/><line style="stroke:#A80036;stroke-width:1.5;" x1="2656.3751" x2="2685.3751" y1="542.9688" y2="542.9688"/><!--MD5=[ac13618b1a974308c1f12eb6c57723dc]
class Event--><rect codeLine="84" fill="#FEFECE" filter="url(#fgc4emuirlx44)" height="39.9688" id="Event" style="stroke:#A80036;stroke-width:1.5;" width="39" x="2721.3751" y="511"/><text fill="#000000" font-family="sans-serif" font-size="12" lengthAdjust="spacing" textLength="33" x="2724.3751" y="527.1387">Event</text><line style="stroke:#A80036;stroke-width:1.5;" x1="2722.3751" x2="2759.3751" y1="534.9688" y2="534.9688"/><line style="stroke:#A80036;stroke-width:1.5;" x1="2722.3751" x2="2759.3751" y1="542.9688" y2="542.9688"/><!--MD5=[51a4a3ae5810eb893347bca241d8df0e]
class GiftBuddyApp--><rect codeLine="86" fill="#FEFECE" filter="url(#fgc4emuirlx44)" height="39.9688" id="GiftBuddyApp" style="stroke:#A80036;stroke-width:1.5;" width="88" x="2795.8751" y="511"/><text fill="#000000" font-family="sans-serif" font-size="12" lengthAdjust="spacing" textLength="82" x="2798.8751" y="527.1387">GiftBuddyApp</text><line style="stroke:#A80036;stroke-width:1.5;" x1="2796.8751" x2="2882.8751" y1="534.9688" y2="534.9688"/><line style="stroke:#A80036;stroke-width:1.5;" x1="2796.8751" x2="2882.8751" y1="542.9688" y2="542.9688"/><!--MD5=[6a10e9b103e375a5f698786d329ce000]
class EmailAddress--><rect codeLine="88" fill="#FEFECE" filter="url(#fgc4emuirlx44)" height="39.9688" id="EmailAddress" style="stroke:#A80036;stroke-width:1.5;" width="88" x="2918.8751" y="511"/><text fill="#000000" font-family="sans-serif" font-size="12" lengthAdjust="spacing" textLength="82" x="2921.8751" y="527.1387">EmailAddress</text><line style="stroke:#A80036;stroke-width:1.5;" x1="2919.8751" x2="3005.8751" y1="534.9688" y2="534.9688"/><line style="stroke:#A80036;stroke-width:1.5;" x1="2919.8751" x2="3005.8751" y1="542.9688" y2="542.9688"/><!--MD5=[9d661380b54d9bff4ee137bc0bb1b8a2]
link User to Information--><path codeLine="90" d="M1382.1651,220.519 C1187.6651,235.815 544.0071,297.466 421.8731,451 C417.1701,456.913 418.4121,461.284 421.8731,468 C427.4651,478.8514 450.3101,494.9364 471.1851,508.0035 " fill="none" id="User-to-Information" style="stroke:#A80036;stroke-width:1.0;"/><polygon fill="#A80036" points="475.6031,510.7431,470.0614,502.6013,471.3535,508.1086,465.8462,509.4007,475.6031,510.7431" style="stroke:#A80036;stroke-width:1.0;"/><text fill="#000000" font-family="sans-serif" font-size="13" lengthAdjust="spacing" textLength="30" x="422.8731" y="464.0669">view</text><!--MD5=[9d661380b54d9bff4ee137bc0bb1b8a2]
link User to Information--><path codeLine="97" d="M1382.2451,221.551 C1196.9051,239.634 605.8291,307.83 493.8731,451 C481.6891,466.5808 487.5861,489.1126 495.2821,506.1294 " fill="none" id="User-to-Information-1" style="stroke:#A80036;stroke-width:1.0;"/><polygon fill="#A80036" points="497.4871,510.7724,497.2401,500.9266,495.3425,506.2557,490.0134,504.3581,497.4871,510.7724" style="stroke:#A80036;stroke-width:1.0;"/><text fill="#000000" font-family="sans-serif" font-size="13" lengthAdjust="spacing" textLength="24" x="494.8731" y="464.0669">add</text><!--MD5=[9d661380b54d9bff4ee137bc0bb1b8a2]
link User to Information--><path codeLine="98" d="M1382.1751,224.4 C1244.4251,245.561 879.2681,311.625 607.8731,451 C579.0831,465.7854 550.6721,489.684 531.7221,507.3289 " fill="none" id="User-to-Information-2" style="stroke:#A80036;stroke-width:1.0;"/><polygon fill="#A80036" points="528.0611,510.7699,537.3586,507.5209,531.7045,507.3456,531.8798,501.6915,528.0611,510.7699" style="stroke:#A80036;stroke-width:1.0;"/><text fill="#000000" font-family="sans-serif" font-size="13" lengthAdjust="spacing" textLength="45" x="608.8731" y="464.0669">update</text><!--MD5=[7445bc1a891e36b2b3a8540902c418b3]
reverse link User to One--><path codeLine="91" d="M1506.5651,225.1 C1682.4851,248.395 2162.1051,319.947 2541.8751,451 C2586.7851,466.4967 2599.0051,470.6826 2637.8751,498 C2644.0151,502.3137 2650.0851,507.774 2655.3251,512.9572 " fill="none" id="User-backto-One" style="stroke:#A80036;stroke-width:1.0;"/><polygon fill="#FFFFFF" points="1493.4451,223.377,1498.8705,228.1273,1505.3421,224.9462,1499.9166,220.196,1493.4451,223.377" style="stroke:#A80036;stroke-width:1.0;"/><text fill="#000000" font-family="sans-serif" font-size="13" lengthAdjust="spacing" textLength="39" x="2588.8751" y="464.0669">forget</text><!--MD5=[e6ffa491a986f65065536e29ba062891]
reverse link User to GiftBuddyContact--><path codeLine="92" d="M1506.7651,229.636 C1664.2351,260.514 2061.6751,343.305 2382.8751,451 C2433.8951,468.1064 2490.4551,493.5791 2526.9951,510.9428 " fill="none" id="User-backto-GiftBuddyContact" style="stroke:#A80036;stroke-width:1.0;"/><polygon fill="#FFFFFF" points="1493.6151,227.069,1498.7396,232.1425,1505.3937,229.3635,1500.2692,224.2901,1493.6151,227.069" style="stroke:#A80036;stroke-width:1.0;"/><text fill="#000000" font-family="sans-serif" font-size="13" lengthAdjust="spacing" textLength="20" x="2430.8751" y="464.0669">set</text><!--MD5=[e6ffa491a986f65065536e29ba062891]
reverse link User to GiftBuddyContact--><path codeLine="122" d="M1506.7951,222.432 C1676.1951,239.069 2123.6251,295.563 2459.8751,451 C2492.7851,466.2163 2525.4551,492.7427 2545.6351,510.8221 " fill="none" id="User-backto-GiftBuddyContact-1" style="stroke:#A80036;stroke-width:1.0;"/><polygon fill="#FFFFFF" points="1493.6451,221.167,1499.2352,225.7223,1505.5901,222.3142,1500,217.7589,1493.6451,221.167" style="stroke:#A80036;stroke-width:1.0;"/><text fill="#000000" font-family="sans-serif" font-size="13" lengthAdjust="spacing" textLength="43" x="2489.8751" y="464.0669">search</text><!--MD5=[18321e14a835830d9a9a79e9f8c86f43]
link User to PhoneNumber--><path codeLine="93" d="M1382.3051,218.785 C1214.0551,227.615 698.6201,268.821 321.8731,451 C293.3271,464.8037 266.0731,489.0062 248.1361,506.9961 " fill="none" id="User-to-PhoneNumber" style="stroke:#A80036;stroke-width:1.0;"/><polygon fill="#A80036" points="244.2301,510.9641,253.394,507.3553,247.7373,507.4005,247.6922,501.7438,244.2301,510.9641" style="stroke:#A80036;stroke-width:1.0;"/><text fill="#000000" font-family="sans-serif" font-size="13" lengthAdjust="spacing" textLength="23" x="322.8731" y="464.0669">use</text><!--MD5=[bf6920a7c0d430d525e3e458e95f72ca]
reverse link User to Password--><path codeLine="94" d="M1373.0051,277.768 C1330.2551,321.886 1276.6751,385.041 1245.8751,451 C1236.8951,470.2268 1233.2951,494.4724 1231.8451,510.9987 " fill="none" id="User-backto-Password" style="stroke:#A80036;stroke-width:1.0;"/><polygon fill="#FFFFFF" points="1382.2251,268.371,1375.1671,269.8489,1373.8167,276.9324,1380.8747,275.4545,1382.2251,268.371" style="stroke:#A80036;stroke-width:1.0;"/><text fill="#000000" font-family="sans-serif" font-size="13" lengthAdjust="spacing" textLength="33" x="1246.8751" y="464.0669">reset</text><!--MD5=[bf6920a7c0d430d525e3e458e95f72ca]
reverse link User to Password--><path codeLine="119" d="M1375.4851,328.136 C1349.1451,372.741 1317.1451,423.886 1284.8751,468 C1273.8351,483.0925 1259.9551,498.9738 1249.0251,510.8846 " fill="none" id="User-backto-Password-1" style="stroke:#A80036;stroke-width:1.0;"/><polygon fill="#FFFFFF" points="1382.2251,316.645,1375.7384,319.7951,1376.1513,326.9943,1382.638,323.8443,1382.2251,316.645" style="stroke:#A80036;stroke-width:1.0;"/><text fill="#000000" font-family="sans-serif" font-size="13" lengthAdjust="spacing" textLength="23" x="1295.8751" y="464.0669">use</text><!--MD5=[2bf7f2e632c4928a1cc79bea667804f9]
reverse link User to Contact--><path codeLine="95" d="M1368.7851,216.773 C1109.7151,219.395 201.7791,243.47 25.8733,451 C6,474.446 40.3456,498.3662 70.7046,513.6485 " fill="none" id="User-backto-Contact" style="stroke:#A80036;stroke-width:1.0;"/><polygon fill="#FFFFFF" points="1382.0651,216.652,1376.0302,212.7049,1370.0656,216.7575,1376.1005,220.7046,1382.0651,216.652" style="stroke:#A80036;stroke-width:1.0;"/><text fill="#000000" font-family="sans-serif" font-size="13" lengthAdjust="spacing" textLength="50" x="26.8733" y="464.0669">remove</text><!--MD5=[2bf7f2e632c4928a1cc79bea667804f9]
reverse link User to Contact--><path codeLine="118" d="M1368.6751,218.311 C1121.9851,226.283 291.1001,266.615 117.8733,451 C106.3422,463.274 103.7576,481.791 104.2113,497.8133 " fill="none" id="User-backto-Contact-1" style="stroke:#A80036;stroke-width:1.0;"/><polygon fill="#FFFFFF" points="1382.0351,217.893,1375.9149,214.0795,1370.0408,218.2623,1376.161,222.0757,1382.0351,217.893" style="stroke:#A80036;stroke-width:1.0;"/><text fill="#000000" font-family="sans-serif" font-size="13" lengthAdjust="spacing" textLength="32" x="118.8733" y="464.0669">input</text><!--MD5=[2bf7f2e632c4928a1cc79bea667804f9]
reverse link User to Contact--><path codeLine="123" d="M1369.2251,222.81 C1184.0651,241.359 660.8031,303.923 251.8731,451 C214.3751,464.4868 174.9631,486.9655 147.0341,504.5037 " fill="none" id="User-backto-Contact-2" style="stroke:#A80036;stroke-width:1.0;"/><polygon fill="#FFFFFF" points="1382.2251,221.525,1375.8589,218.138,1370.2839,222.7117,1376.6501,226.0988,1382.2251,221.525" style="stroke:#A80036;stroke-width:1.0;"/><text fill="#000000" font-family="sans-serif" font-size="13" lengthAdjust="spacing" textLength="34" x="252.8731" y="464.0669">enter</text><!--MD5=[7443a95ebabf9201e55bed75dce7ce65]
link User to GiftRecommendation--><path codeLine="96" d="M1382.0851,219.762 C1180.1651,232.834 492.5301,288.801 361.8731,451 C349.5071,466.3519 354.0191,489.1118 360.4441,506.2641 " fill="none" id="User-to-GiftRecommendation" style="stroke:#A80036;stroke-width:1.0;"/><polygon fill="#A80036" points="362.2941,510.9424,362.7036,501.1021,360.4551,506.2929,355.2643,504.0444,362.2941,510.9424" style="stroke:#A80036;stroke-width:1.0;"/><text fill="#000000" font-family="sans-serif" font-size="13" lengthAdjust="spacing" textLength="47" x="362.8731" y="464.0669">receive</text><!--MD5=[62fa56b0a99f29e81f8a0821561e7aff]
link User to Shoppinglink--><path codeLine="99" d="M1382.2851,394.318 C1368.4351,438.628 1355.2951,480.6501 1347.4151,505.8738 " fill="none" id="User-to-Shoppinglink" style="stroke:#A80036;stroke-width:1.0;"/><polygon fill="#A80036" points="1345.9051,510.6902,1352.4086,503.294,1347.3972,505.918,1344.7731,500.9066,1345.9051,510.6902" style="stroke:#A80036;stroke-width:1.0;"/><text fill="#000000" font-family="sans-serif" font-size="13" lengthAdjust="spacing" textLength="56" x="1364.8751" y="464.0669">navigate</text><!--MD5=[29793cb2e6ce1def3d6fecaef4efbf08]
link User to Event--><path codeLine="100" d="M1493.4251,219.185 C1668.4851,229.325 2221.6751,274.264 2636.8751,451 C2668.1651,464.3207 2698.4951,489.1537 2718.2451,507.4348 " fill="none" id="User-to-Event" style="stroke:#A80036;stroke-width:1.0;"/><polygon fill="#A80036" points="2722.0451,510.9982,2718.2052,501.9288,2718.3937,507.5825,2712.74,507.771,2722.0451,510.9982" style="stroke:#A80036;stroke-width:1.0;"/><text fill="#000000" font-family="sans-serif" font-size="13" lengthAdjust="spacing" textLength="47" x="2669.8751" y="464.0669">receive</text><!--MD5=[787b9acce24cbb7de0761e46390aefb9]
reverse link User to Phone--><path codeLine="101" d="M1506.1851,236.156 C1635.6251,275.033 1923.1451,369.26 2140.8751,498 C2147.0551,501.6554 2153.2751,506.2523 2158.8851,510.8124 " fill="none" id="User-backto-Phone" style="stroke:#A80036;stroke-width:1.0;"/><polygon fill="#FFFFFF" points="1493.4151,232.347,1498.022,237.8946,1504.9148,235.7758,1500.3079,230.2282,1493.4151,232.347" style="stroke:#A80036;stroke-width:1.0;"/><text fill="#000000" font-family="sans-serif" font-size="13" lengthAdjust="spacing" textLength="37" x="2088.8751" y="464.0669">install</text><!--MD5=[8904c0e2cb59d8224fea5ac7cfc08776]
link User to Series--><path codeLine="102" d="M1449.8251,421.077 C1449.5851,436.961 1448.9751,452.746 1447.8751,468 C1446.9651,480.5122 1445.0551,494.3348 1443.2251,505.7473 " fill="none" id="User-to-Series" style="stroke:#A80036;stroke-width:1.0;"/><polygon fill="#A80036" points="1442.3851,510.8079,1447.7943,502.5774,1443.1975,505.8743,1439.9006,501.2776,1442.3851,510.8079" style="stroke:#A80036;stroke-width:1.0;"/><text fill="#000000" font-family="sans-serif" font-size="13" lengthAdjust="spacing" textLength="34" x="1449.8751" y="464.0669">enter</text><!--MD5=[413e0634e88c40ca569e92ba0f0e72e7]
link User to GiftBuddyApp--><path codeLine="103" d="M1493.5751,218.295 C1677.0051,225.916 2276.0451,264.491 2725.8751,451 C2759.1651,464.8046 2792.5051,489.4743 2814.4451,507.5839 " fill="none" id="User-to-GiftBuddyApp" style="stroke:#A80036;stroke-width:1.0;"/><polygon fill="#A80036" points="2818.4051,510.8849,2814.0499,502.0513,2814.5633,507.6848,2808.9298,508.1982,2818.4051,510.8849" style="stroke:#A80036;stroke-width:1.0;"/><text fill="#000000" font-family="sans-serif" font-size="13" lengthAdjust="spacing" textLength="30" x="2757.8751" y="464.0669">login</text><!--MD5=[993a1ed30139d6bc9fd462e29443e622]
link User to User--><path codeLine="104" d="M1493.5451,192.631 C1512.8151,192.389 1528.3751,200.012 1528.3751,215.5 C1528.3751,229.536 1515.5951,237.113 1498.8651,238.23 " fill="none" id="User-to-User" style="stroke:#A80036;stroke-width:1.0;"/><polygon fill="#A80036" points="1493.5451,238.369,1502.645,242.1363,1498.5434,238.2404,1502.4393,234.1389,1493.5451,238.369" style="stroke:#A80036;stroke-width:1.0;"/><text fill="#000000" font-family="sans-serif" font-size="13" lengthAdjust="spacing" textLength="30" x="1534.3751" y="220.0669">view</text><!--MD5=[993a1ed30139d6bc9fd462e29443e622]
link User to User--><path codeLine="124" d="M1493.6951,173.889 C1532.0251,161.956 1570.3751,175.826 1570.3751,215.5 C1570.3751,253.469 1535.2451,267.805 1498.6351,258.506 " fill="none" id="User-to-User-1" style="stroke:#A80036;stroke-width:1.0;"/><polygon fill="#A80036" points="1493.6951,257.111,1501.2539,263.4248,1498.5036,258.4816,1503.4468,255.7313,1493.6951,257.111" style="stroke:#A80036;stroke-width:1.0;"/><text fill="#000000" font-family="sans-serif" font-size="13" lengthAdjust="spacing" textLength="47" x="1576.3751" y="220.0669">receive</text><!--MD5=[67141e6eb3ba199f7c4756941637724e]
link User to Group--><path codeLine="105" d="M1490.1151,421.233 C1498.8051,455.292 1506.6451,486.0067 1511.7551,506.0408 " fill="none" id="User-to-Group" style="stroke:#A80036;stroke-width:1.0;"/><polygon fill="#A80036" points="1512.9951,510.8996,1514.6444,501.1898,1511.7582,506.055,1506.893,503.1688,1512.9951,510.8996" style="stroke:#A80036;stroke-width:1.0;"/><text fill="#000000" font-family="sans-serif" font-size="13" lengthAdjust="spacing" textLength="50" x="1501.8751" y="464.0669">remove</text><!--MD5=[0b4e2c718629370d1e9c638e0503ce68]
link User to Date--><path codeLine="106" d="M1382.1351,216.752 C1242.4551,220.485 874.3391,249.958 673.8731,451 C661.1241,463.786 655.1101,483.1173 652.2911,499.4563 " fill="none" id="User-to-Date" style="stroke:#A80036;stroke-width:1.0;"/><polygon fill="#A80036" points="651.5141,504.4204,656.8569,496.1467,652.2868,499.4805,648.953,494.9104,651.5141,504.4204" style="stroke:#A80036;stroke-width:1.0;"/><text fill="#000000" font-family="sans-serif" font-size="13" lengthAdjust="spacing" textLength="34" x="674.8731" y="464.0669">enter</text><!--MD5=[b90eb25375c272d9d59f66ece7c015fd]
reverse link User to EmailAddress--><path codeLine="107" d="M1506.3851,222.139 C1708.0451,240.042 2315.5651,303.345 2796.8751,451 C2845.3851,465.8835 2897.6751,492.7537 2930.3351,510.9795 " fill="none" id="User-backto-EmailAddress" style="stroke:#A80036;stroke-width:1.0;"/><polygon fill="#FFFFFF" points="1493.4151,221.001,1499.0402,225.513,1505.3686,222.0559,1499.7435,217.5439,1493.4151,221.001" style="stroke:#A80036;stroke-width:1.0;"/><text fill="#000000" font-family="sans-serif" font-size="13" lengthAdjust="spacing" textLength="23" x="2840.8751" y="464.0669">use</text><!--MD5=[f3af3e4376504b99e4d7659058753524]
link User to Feedback--><path codeLine="108" d="M1493.4451,231.287 C1613.3251,264.025 1904.0451,347.946 2134.8751,451 C2171.1251,467.1833 2209.9251,490.8287 2236.3951,508.0308 " fill="none" id="User-to-Feedback" style="stroke:#A80036;stroke-width:1.0;"/><polygon fill="#A80036" points="2240.8651,510.9489,2235.5293,502.6706,2236.6829,508.2086,2231.1449,509.3622,2240.8651,510.9489" style="stroke:#A80036;stroke-width:1.0;"/><text fill="#000000" font-family="sans-serif" font-size="13" lengthAdjust="spacing" textLength="48" x="2170.8751" y="464.0669">provide</text><!--MD5=[89a62dea124aabdc246e57e6c3769150]
link User to Mediaaccount--><path codeLine="109" d="M1493.4051,312.691 C1532.3551,380.145 1581.5051,465.2791 1605.0551,506.071 " fill="none" id="User-to-Mediaaccount" style="stroke:#A80036;stroke-width:1.0;"/><polygon fill="#A80036" points="1607.8051,510.8217,1606.7677,501.0276,1605.3044,506.492,1599.8401,505.0287,1607.8051,510.8217" style="stroke:#A80036;stroke-width:1.0;"/><text fill="#000000" font-family="sans-serif" font-size="13" lengthAdjust="spacing" textLength="23" x="1580.8751" y="464.0669">use</text><!--MD5=[ee323ed032abd2920f113f486335ae68]
link User to GiftGiving--><path codeLine="110" d="M1493.6851,229.224 C1624.5651,259.887 1960.4451,343.362 2227.8751,451 C2266.5451,466.5637 2307.8151,490.6663 2335.6451,508.1571 " fill="none" id="User-to-GiftGiving" style="stroke:#A80036;stroke-width:1.0;"/><polygon fill="#A80036" points="2339.9951,510.9051,2334.5242,502.7155,2335.7685,508.2338,2330.2502,509.4781,2339.9951,510.9051" style="stroke:#A80036;stroke-width:1.0;"/><text fill="#000000" font-family="sans-serif" font-size="13" lengthAdjust="spacing" textLength="20" x="2265.8751" y="464.0669">set</text><!--MD5=[db13520bc643fc154ff6c39302083a7f]
link User to Case--><path codeLine="111" d="M1493.6651,279.188 C1556.1551,349.403 1654.2051,459.577 1696.4151,507.015 " fill="none" id="User-to-Case" style="stroke:#A80036;stroke-width:1.0;"/><polygon fill="#A80036" points="1699.8451,510.8648,1696.8416,501.4851,1696.5178,507.1327,1690.8702,506.8088,1699.8451,510.8648" style="stroke:#A80036;stroke-width:1.0;"/><text fill="#000000" font-family="sans-serif" font-size="13" lengthAdjust="spacing" textLength="33" x="1657.8751" y="464.0669">reset</text><!--MD5=[0a0c22abab0b6a2b3d71e15ac743b391]
link User to Name--><path codeLine="112" d="M1493.5751,229.732 C1630.9551,262.803 1996.5151,353.435 2294.8751,451 C2350.4951,469.189 2367.4551,468.2921 2417.8751,498 C2422.5351,500.7488 2427.2051,504.0739 2431.5851,507.5273 " fill="none" id="User-to-Name" style="stroke:#A80036;stroke-width:1.0;"/><polygon fill="#A80036" points="2435.5151,510.7221,2431.0371,501.9501,2431.629,507.5759,2426.0032,508.1679,2435.5151,510.7221" style="stroke:#A80036;stroke-width:1.0;"/><text fill="#000000" font-family="sans-serif" font-size="13" lengthAdjust="spacing" textLength="23" x="2350.8751" y="464.0669">use</text><!--MD5=[d42757d650b5fb8b47ce61f89ed387a7]
reverse link User to Gift--><path codeLine="113" d="M1369.0251,228.611 C1205.3251,258.948 800.7271,343.533 722.8731,451 C691.0941,494.8669 796.6181,520.0895 834.6981,527.6014 " fill="none" id="User-backto-Gift" style="stroke:#A80036;stroke-width:1.0;"/><polygon fill="#FFFFFF" points="1382.2451,226.181,1375.6194,223.335,1370.4439,228.3564,1377.0696,231.2024,1382.2451,226.181" style="stroke:#A80036;stroke-width:1.0;"/><text fill="#000000" font-family="sans-serif" font-size="13" lengthAdjust="spacing" textLength="30" x="723.8731" y="464.0669">view</text><!--MD5=[d42757d650b5fb8b47ce61f89ed387a7]
reverse link User to Gift--><path codeLine="116" d="M1368.8951,217.736 C1232.0351,224.373 927.8831,260.913 794.8731,451 C777.1671,476.3049 813.6081,506.7941 834.5391,521.3914 " fill="none" id="User-backto-Gift-1" style="stroke:#A80036;stroke-width:1.0;"/><polygon fill="#FFFFFF" points="1382.0051,217.167,1375.8351,213.4346,1370.0167,217.6945,1376.1867,221.4269,1382.0051,217.167" style="stroke:#A80036;stroke-width:1.0;"/><text fill="#000000" font-family="sans-serif" font-size="13" lengthAdjust="spacing" textLength="59" x="795.8731" y="464.0669">purchase</text><!--MD5=[d42757d650b5fb8b47ce61f89ed387a7]
reverse link User to Gift--><path codeLine="120" d="M1369.3251,231.761 C1258.7851,259.274 1039.0651,326.272 895.8731,451 C876.9951,467.4435 863.3001,493.1822 855.4821,510.7815 " fill="none" id="User-backto-Gift-2" style="stroke:#A80036;stroke-width:1.0;"/><polygon fill="#FFFFFF" points="1382.2551,228.601,1375.4771,226.1395,1370.598,231.4493,1377.376,233.9109,1382.2551,228.601" style="stroke:#A80036;stroke-width:1.0;"/><text fill="#000000" font-family="sans-serif" font-size="13" lengthAdjust="spacing" textLength="43" x="896.8731" y="464.0669">search</text><!--MD5=[d42757d650b5fb8b47ce61f89ed387a7]
reverse link User to Gift--><path codeLine="127" d="M1370.8051,252.137 C1233.5351,325.075 927.8361,487.5111 860.9621,523.0451 " fill="none" id="User-backto-Gift-3" style="stroke:#A80036;stroke-width:1.0;"/><polygon fill="#FFFFFF" points="1382.3651,245.993,1375.1897,245.2761,1371.7682,251.6238,1378.9436,252.3407,1382.3651,245.993" style="stroke:#A80036;stroke-width:1.0;"/><text fill="#000000" font-family="sans-serif" font-size="13" lengthAdjust="spacing" textLength="48" x="991.8731" y="464.0669">provide</text><!--MD5=[7b2c278a21fda8d0a0b9087fe93111db]
link User to Budget--><path codeLine="114" d="M1493.6551,265.484 C1571.9851,334.268 1711.4151,456.709 1768.9451,507.232 " fill="none" id="User-to-Budget" style="stroke:#A80036;stroke-width:1.0;"/><polygon fill="#A80036" points="1772.9451,510.7436,1768.8229,501.7989,1769.1885,507.4439,1763.5434,507.8095,1772.9451,510.7436" style="stroke:#A80036;stroke-width:1.0;"/><text fill="#000000" font-family="sans-serif" font-size="13" lengthAdjust="spacing" textLength="20" x="1718.8751" y="464.0669">set</text><!--MD5=[dd9b2d51664e982e6f3a038c80394cfd]
reverse link User to GiftBuddyAccount--><path codeLine="115" d="M1369.8351,237.272 C1282.4251,268.057 1134.4051,335.016 1070.8751,451 C1060.5451,469.8609 1069.5351,494.1751 1078.5351,510.8175 " fill="none" id="User-backto-GiftBuddyAccount" style="stroke:#A80036;stroke-width:1.0;"/><polygon fill="#FFFFFF" points="1382.2751,232.991,1375.3003,231.1602,1370.9277,236.8944,1377.9025,238.7251,1382.2751,232.991" style="stroke:#A80036;stroke-width:1.0;"/><text fill="#000000" font-family="sans-serif" font-size="13" lengthAdjust="spacing" textLength="50" x="1071.8751" y="464.0669">remove</text><!--MD5=[dd9b2d51664e982e6f3a038c80394cfd]
reverse link User to GiftBuddyAccount--><path codeLine="126" d="M1372.1851,275.847 C1292.5051,347.833 1162.5751,465.2176 1111.9751,510.9325 " fill="none" id="User-backto-GiftBuddyAccount-1" style="stroke:#A80036;stroke-width:1.0;"/><polygon fill="#FFFFFF" points="1382.1251,266.869,1374.9915,267.9231,1373.2208,274.9135,1380.3544,273.8593,1382.1251,266.869" style="stroke:#A80036;stroke-width:1.0;"/><text fill="#000000" font-family="sans-serif" font-size="13" lengthAdjust="spacing" textLength="41" x="1175.8751" y="464.0669">create</text><!--MD5=[4981c864524f50ab1b82211e3369f909]
link User to Application--><path codeLine="117" d="M1493.7751,240.8 C1600.3551,287.583 1839.3151,394.697 2033.8751,498 C2039.8551,501.1764 2046.1151,504.6968 2052.1651,508.2069 " fill="none" id="User-to-Application" style="stroke:#A80036;stroke-width:1.0;"/><polygon fill="#A80036" points="2056.7451,510.8832,2051.0011,502.8828,2052.4308,508.356,2046.9576,509.7858,2056.7451,510.8832" style="stroke:#A80036;stroke-width:1.0;"/><text fill="#000000" font-family="sans-serif" font-size="13" lengthAdjust="spacing" textLength="37" x="1971.8751" y="464.0669">install</text><!--MD5=[7c2617532a94409584d52ee7a062d051]
link User to Favorite--><path codeLine="121" d="M1493.4351,255.599 C1570.5651,309.902 1714.4251,411.269 1836.8751,498 C1841.3051,501.1393 1845.9751,504.4564 1850.5751,507.7189 " fill="none" id="User-to-Favorite" style="stroke:#A80036;stroke-width:1.0;"/><polygon fill="#A80036" points="1854.7551,510.693,1849.741,502.2161,1850.6811,507.7942,1845.103,508.7344,1854.7551,510.693" style="stroke:#A80036;stroke-width:1.0;"/><text fill="#000000" font-family="sans-serif" font-size="13" lengthAdjust="spacing" textLength="20" x="1794.8751" y="464.0669">set</text><!--MD5=[2e2e530a658308b38e0151c4d25adf6b]
link User to Notification--><path codeLine="125" d="M1493.7451,248.356 C1584.7051,300.292 1770.3851,406.598 1926.8751,498 C1932.5751,501.3287 1938.5951,504.8733 1944.4751,508.3455 " fill="none" id="User-to-Notification" style="stroke:#A80036;stroke-width:1.0;"/><polygon fill="#A80036" points="1948.9351,510.9818,1943.2213,502.9598,1944.6304,508.4383,1939.1518,509.8474,1948.9351,510.9818" style="stroke:#A80036;stroke-width:1.0;"/><text fill="#000000" font-family="sans-serif" font-size="13" lengthAdjust="spacing" textLength="47" x="1875.8751" y="464.0669">receive</text><!--MD5=[308e284422856bb985a3ab14d9e6ca0b]
@startuml
hide circle
class User<actor> {
	password
	giftBuddyAccount
	one
	interest
	phone
	emailaddress
	giftBuddyContact
	contact
}
class Contact {
	interest
	information
}
class User {
	save()
	enter()
	add()
	update()
	view()
	receive()
	reset()
	remove()
	login()
	provide()
	search()
	input_in()
	use()
	discard()
	purchase()
	create()
	input()
	navigate()
	forget()
	set()
	install()
}
class PhoneNumber {
}
class GiftRecommendation {
}
class Information {
}
class Date {
	pass()
}
class Gift {
}
class GiftBuddyAccount {
}
class Password {
}
class Shoppinglink {
}
class Series {
}
class Group {
}
class Mediaaccount {
}
class Case {
}
class Budget {
}
class Favorite {
}
class Notification {
}
class Application {
}
class Phone {
}
class Feedback {
}
class GiftGiving {
}
class Name {
}
class GiftBuddyContact {
}
class One {
}
class Event {
}
class GiftBuddyApp {
}
class EmailAddress {
}
User - -> Information : view
User o- - One : forget
User o- - GiftBuddyContact : set
User - -> PhoneNumber : use
User o- - Password : reset
User o- - Contact : remove
User - -> GiftRecommendation : receive
User - -> Information : add
User - -> Information : update
User - -> Shoppinglink : navigate
User - -> Event : receive
User o- - Phone : install
User - -> Series : enter
User - -> GiftBuddyApp : login
User - -> User : view
User - -> Group : remove
User - -> Date : enter
User o- - EmailAddress : use
User - -> Feedback : provide
User - -> Mediaaccount : use
User - -> GiftGiving : set
User - -> Case : reset
User - -> Name : use
User o- - Gift : view
User - -> Budget : set
User o- - GiftBuddyAccount : remove
User o- - Gift : purchase
User - -> Application : install
User o- - Contact : input
User o- - Password : use
User o- - Gift : search
User - -> Favorite : set
User o- - GiftBuddyContact : search
User o- - Contact : enter
User - -> User : receive
User - -> Notification : receive
User o- - GiftBuddyAccount : create
User o- - Gift : provide
@enduml

PlantUML version 1.2021.9beta2(Unknown compile time)
(GPL source distribution)
Java Runtime: Java(TM) SE Runtime Environment
JVM: Java HotSpot(TM) 64-Bit Server VM
Default Encoding: UTF-8
Language: en
Country: US
--></g></svg>