<?xml version="1.0" encoding="UTF-8" standalone="no"?><svg xmlns="http://www.w3.org/2000/svg" xmlns:xlink="http://www.w3.org/1999/xlink" contentScriptType="application/ecmascript" contentStyleType="text/css" height="828px" preserveAspectRatio="none" style="width:714px;height:828px;background:#FFFFFF;" version="1.1" viewBox="0 0 714 828" width="714px" zoomAndPan="magnify"><defs><filter height="300%" id="fv2y6n2b8s6y8" width="300%" x="-1" y="-1"><feGaussianBlur result="blurOut" stdDeviation="2.0"/><feColorMatrix in="blurOut" result="blurOut2" type="matrix" values="0 0 0 0 0 0 0 0 0 0 0 0 0 0 0 0 0 0 .4 0"/><feOffset dx="4.0" dy="4.0" in="blurOut2" result="blurOut3"/><feBlend in="SourceGraphic" in2="blurOut3" mode="normal"/></filter></defs><g><!--MD5=[d342058c8fb6f80e9d50d673c6908241]
class Developer--><rect codeLine="24" fill="#FEFECE" filter="url(#fv2y6n2b8s6y8)" height="142.4063" id="Developer" style="stroke:#A80036;stroke-width:1.5;" width="105" x="28" y="296"/><text fill="#000000" font-family="sans-serif" font-size="12" lengthAdjust="spacing" textLength="64" x="31" y="312.1387">Developer</text><rect fill="#FFFFFF" height="15.9688" style="stroke:#000000;stroke-width:1.0;stroke-dasharray:2.0,2.0;" width="33" x="103" y="293"/><text fill="#000000" font-family="sans-serif" font-size="12" font-style="italic" lengthAdjust="spacing" textLength="31" x="104" y="305.1387">actor</text><line style="stroke:#A80036;stroke-width:1.5;" x1="29" x2="132" y1="319.9688" y2="319.9688"/><line style="stroke:#A80036;stroke-width:1.5;" x1="29" x2="132" y1="327.9688" y2="327.9688"/><text fill="#000000" font-family="sans-serif" font-size="11" lengthAdjust="spacing" textLength="48" x="34" y="342.1792">display()</text><text fill="#000000" font-family="sans-serif" font-size="11" lengthAdjust="spacing" textLength="34" x="34" y="354.9839">filter()</text><text fill="#000000" font-family="sans-serif" font-size="11" lengthAdjust="spacing" textLength="38" x="34" y="367.7886">script()</text><text fill="#000000" font-family="sans-serif" font-size="11" lengthAdjust="spacing" textLength="27" x="34" y="380.5933">link()</text><text fill="#000000" font-family="sans-serif" font-size="11" lengthAdjust="spacing" textLength="45" x="34" y="393.3979">create()</text><text fill="#000000" font-family="sans-serif" font-size="11" lengthAdjust="spacing" textLength="46" x="34" y="406.2026">design()</text><text fill="#000000" font-family="sans-serif" font-size="11" lengthAdjust="spacing" textLength="47" x="34" y="419.0073">access()</text><text fill="#000000" font-family="sans-serif" font-size="11" lengthAdjust="spacing" textLength="33" x="34" y="431.812">map()</text><!--MD5=[3fd616f346a44cd59a91eb10b19e157c]
class User--><rect codeLine="50" fill="#FEFECE" filter="url(#fv2y6n2b8s6y8)" height="65.5781" id="User" style="stroke:#A80036;stroke-width:1.5;" width="70" x="493.5" y="10"/><text fill="#000000" font-family="sans-serif" font-size="12" lengthAdjust="spacing" textLength="29" x="496.5" y="26.1387">User</text><rect fill="#FFFFFF" height="15.9688" style="stroke:#000000;stroke-width:1.0;stroke-dasharray:2.0,2.0;" width="33" x="533.5" y="7"/><text fill="#000000" font-family="sans-serif" font-size="12" font-style="italic" lengthAdjust="spacing" textLength="31" x="534.5" y="19.1387">actor</text><line style="stroke:#A80036;stroke-width:1.5;" x1="494.5" x2="562.5" y1="33.9688" y2="33.9688"/><line style="stroke:#A80036;stroke-width:1.5;" x1="494.5" x2="562.5" y1="41.9688" y2="41.9688"/><text fill="#000000" font-family="sans-serif" font-size="11" lengthAdjust="spacing" textLength="36" x="499.5" y="56.1792">input()</text><text fill="#000000" font-family="sans-serif" font-size="11" lengthAdjust="spacing" textLength="29" x="499.5" y="68.9839">find()</text><!--MD5=[e4d1f8ee945ed4d256b1e0ee32730ba8]
class VideoUser--><rect codeLine="34" fill="#FEFECE" filter="url(#fv2y6n2b8s6y8)" height="65.5781" id="VideoUser" style="stroke:#A80036;stroke-width:1.5;" width="105" x="193" y="153"/><text fill="#000000" font-family="sans-serif" font-size="12" lengthAdjust="spacing" textLength="64" x="196" y="169.1387">VideoUser</text><rect fill="#FFFFFF" height="15.9688" style="stroke:#000000;stroke-width:1.0;stroke-dasharray:2.0,2.0;" width="33" x="268" y="150"/><text fill="#000000" font-family="sans-serif" font-size="12" font-style="italic" lengthAdjust="spacing" textLength="31" x="269" y="162.1387">actor</text><line style="stroke:#A80036;stroke-width:1.5;" x1="194" x2="297" y1="176.9688" y2="176.9688"/><line style="stroke:#A80036;stroke-width:1.5;" x1="194" x2="297" y1="184.9688" y2="184.9688"/><text fill="#000000" font-family="sans-serif" font-size="11" lengthAdjust="spacing" textLength="29" x="199" y="199.1792">use()</text><text fill="#000000" font-family="sans-serif" font-size="11" lengthAdjust="spacing" textLength="30" x="199" y="211.9839">see()</text><!--MD5=[90111e5cdc788a7ef73a3273c23dcc2b]
class Title--><rect codeLine="8" fill="#FEFECE" filter="url(#fv2y6n2b8s6y8)" height="52.7734" id="Title" style="stroke:#A80036;stroke-width:1.5;" width="39" x="386" y="645"/><text fill="#000000" font-family="sans-serif" font-size="12" lengthAdjust="spacing" textLength="25" x="393" y="661.1387">Title</text><line style="stroke:#A80036;stroke-width:1.5;" x1="387" x2="424" y1="668.9688" y2="668.9688"/><line style="stroke:#A80036;stroke-width:1.5;" x1="387" x2="424" y1="676.9688" y2="676.9688"/><text fill="#000000" font-family="sans-serif" font-size="11" lengthAdjust="spacing" textLength="27" x="392" y="691.1792">get()</text><!--MD5=[c40581dce3a61b73d493470d15ee44f1]
class Tv--><rect codeLine="11" fill="#FEFECE" filter="url(#fv2y6n2b8s6y8)" height="39.9688" id="Tv" style="stroke:#A80036;stroke-width:1.5;" width="20" x="412.5" y="23"/><text fill="#000000" font-family="sans-serif" font-size="12" lengthAdjust="spacing" textLength="14" x="415.5" y="39.1387">Tv</text><line style="stroke:#A80036;stroke-width:1.5;" x1="413.5" x2="431.5" y1="46.9688" y2="46.9688"/><line style="stroke:#A80036;stroke-width:1.5;" x1="413.5" x2="431.5" y1="54.9688" y2="54.9688"/><!--MD5=[6ea451e4742352fdf230812c2c4c6482]
class Show--><rect codeLine="13" fill="#FEFECE" filter="url(#fv2y6n2b8s6y8)" height="52.7734" id="Show" style="stroke:#A80036;stroke-width:1.5;" width="50" x="346.5" y="159.5"/><text fill="#000000" font-family="sans-serif" font-size="12" lengthAdjust="spacing" textLength="33" x="355" y="175.6387">Show</text><line style="stroke:#A80036;stroke-width:1.5;" x1="347.5" x2="395.5" y1="183.4688" y2="183.4688"/><line style="stroke:#A80036;stroke-width:1.5;" x1="347.5" x2="395.5" y1="191.4688" y2="191.4688"/><text fill="#000000" font-family="sans-serif" font-size="11" lengthAdjust="spacing" textLength="38" x="352.5" y="205.6792">trend()</text><!--MD5=[8ff30bed5357c8f0650937ea6f051ad0]
class Buzz--><rect codeLine="16" fill="#FEFECE" filter="url(#fv2y6n2b8s6y8)" height="52.7734" id="Buzz" style="stroke:#A80036;stroke-width:1.5;" width="44" x="300.5" y="515"/><text fill="#000000" font-family="sans-serif" font-size="12" lengthAdjust="spacing" textLength="29" x="308" y="531.1387">Buzz</text><line style="stroke:#A80036;stroke-width:1.5;" x1="301.5" x2="343.5" y1="538.9688" y2="538.9688"/><line style="stroke:#A80036;stroke-width:1.5;" x1="301.5" x2="343.5" y1="546.9688" y2="546.9688"/><text fill="#000000" font-family="sans-serif" font-size="11" lengthAdjust="spacing" textLength="32" x="306.5" y="561.1792">rank()</text><!--MD5=[e09c41c2f9238e7adb85a94dde2227e7]
class Size--><rect codeLine="19" fill="#FEFECE" filter="url(#fv2y6n2b8s6y8)" height="39.9688" id="Size" style="stroke:#A80036;stroke-width:1.5;" width="32" x="619.5" y="651.5"/><text fill="#000000" font-family="sans-serif" font-size="12" lengthAdjust="spacing" textLength="26" x="622.5" y="667.6387">Size</text><line style="stroke:#A80036;stroke-width:1.5;" x1="620.5" x2="650.5" y1="675.4688" y2="675.4688"/><line style="stroke:#A80036;stroke-width:1.5;" x1="620.5" x2="650.5" y1="683.4688" y2="683.4688"/><!--MD5=[48ddc19a927e510832be6e81b528f8f6]
class TwitterData--><rect codeLine="21" fill="#FEFECE" filter="url(#fv2y6n2b8s6y8)" height="52.7734" id="TwitterData" style="stroke:#A80036;stroke-width:1.5;" width="89" x="168" y="340.5"/><text fill="#000000" font-family="sans-serif" font-size="12" lengthAdjust="spacing" textLength="68" x="178.5" y="356.6387">TwitterData</text><line style="stroke:#A80036;stroke-width:1.5;" x1="169" x2="256" y1="364.4688" y2="364.4688"/><line style="stroke:#A80036;stroke-width:1.5;" x1="169" x2="256" y1="372.4688" y2="372.4688"/><text fill="#000000" font-family="sans-serif" font-size="11" lengthAdjust="spacing" textLength="77" x="174" y="386.6792">recommend()</text><!--MD5=[9d93cc8568a88ed605ddd50c0dd874e2]
class Media--><rect codeLine="38" fill="#FEFECE" filter="url(#fv2y6n2b8s6y8)" height="52.7734" id="Media" style="stroke:#A80036;stroke-width:1.5;" width="89" x="298" y="340.5"/><text fill="#000000" font-family="sans-serif" font-size="12" lengthAdjust="spacing" textLength="36" x="324.5" y="356.6387">Media</text><line style="stroke:#A80036;stroke-width:1.5;" x1="299" x2="386" y1="364.4688" y2="364.4688"/><line style="stroke:#A80036;stroke-width:1.5;" x1="299" x2="386" y1="372.4688" y2="372.4688"/><text fill="#000000" font-family="sans-serif" font-size="11" lengthAdjust="spacing" textLength="77" x="304" y="386.6792">recommend()</text><!--MD5=[60c9ed31c535bee25c55ce21b5b01399]
class Data--><rect codeLine="41" fill="#FEFECE" filter="url(#fv2y6n2b8s6y8)" height="52.7734" id="Data" style="stroke:#A80036;stroke-width:1.5;" width="40" x="384.5" y="515"/><text fill="#000000" font-family="sans-serif" font-size="12" lengthAdjust="spacing" textLength="27" x="391" y="531.1387">Data</text><line style="stroke:#A80036;stroke-width:1.5;" x1="385.5" x2="423.5" y1="538.9688" y2="538.9688"/><line style="stroke:#A80036;stroke-width:1.5;" x1="385.5" x2="423.5" y1="546.9688" y2="546.9688"/><text fill="#000000" font-family="sans-serif" font-size="11" lengthAdjust="spacing" textLength="28" x="390.5" y="561.1792">pull()</text><!--MD5=[88dbfe8572c16244f15eec58f6037418]
class Info--><rect codeLine="44" fill="#FEFECE" filter="url(#fv2y6n2b8s6y8)" height="52.7734" id="Info" style="stroke:#A80036;stroke-width:1.5;" width="40" x="598.5" y="16.5"/><text fill="#000000" font-family="sans-serif" font-size="12" lengthAdjust="spacing" textLength="22" x="607.5" y="32.6387">Info</text><line style="stroke:#A80036;stroke-width:1.5;" x1="599.5" x2="637.5" y1="40.4688" y2="40.4688"/><line style="stroke:#A80036;stroke-width:1.5;" x1="599.5" x2="637.5" y1="48.4688" y2="48.4688"/><text fill="#000000" font-family="sans-serif" font-size="11" lengthAdjust="spacing" textLength="28" x="604.5" y="62.6792">pull()</text><!--MD5=[f3f8fdc802f51c4e105ff9b46824a596]
class BackendSystem--><rect codeLine="47" fill="#FEFECE" filter="url(#fv2y6n2b8s6y8)" height="52.7734" id="BackendSystem" style="stroke:#A80036;stroke-width:1.5;" width="103" x="8" y="515"/><text fill="#000000" font-family="sans-serif" font-size="12" lengthAdjust="spacing" textLength="97" x="11" y="531.1387">BackendSystem</text><line style="stroke:#A80036;stroke-width:1.5;" x1="9" x2="110" y1="538.9688" y2="538.9688"/><line style="stroke:#A80036;stroke-width:1.5;" x1="9" x2="110" y1="546.9688" y2="546.9688"/><text fill="#000000" font-family="sans-serif" font-size="11" lengthAdjust="spacing" textLength="51" x="14" y="561.1792">provide()</text><!--MD5=[e69084ab16b022bdbef99762ea85e9d6]
class Movie--><rect codeLine="54" fill="#FEFECE" filter="url(#fv2y6n2b8s6y8)" height="52.7734" id="Movie" style="stroke:#A80036;stroke-width:1.5;" width="50" x="443.5" y="159.5"/><text fill="#000000" font-family="sans-serif" font-size="12" lengthAdjust="spacing" textLength="36" x="450.5" y="175.6387">Movie</text><line style="stroke:#A80036;stroke-width:1.5;" x1="444.5" x2="492.5" y1="183.4688" y2="183.4688"/><line style="stroke:#A80036;stroke-width:1.5;" x1="444.5" x2="492.5" y1="191.4688" y2="191.4688"/><text fill="#000000" font-family="sans-serif" font-size="11" lengthAdjust="spacing" textLength="38" x="449.5" y="205.6792">trend()</text><!--MD5=[7923f0ef83cfa7fc76aa895bd44f4146]
class Api--><rect codeLine="57" fill="#FEFECE" filter="url(#fv2y6n2b8s6y8)" height="39.9688" id="Api" style="stroke:#A80036;stroke-width:1.5;" width="25" x="47" y="651.5"/><text fill="#000000" font-family="sans-serif" font-size="12" lengthAdjust="spacing" textLength="19" x="50" y="667.6387">Api</text><line style="stroke:#A80036;stroke-width:1.5;" x1="48" x2="71" y1="675.4688" y2="675.4688"/><line style="stroke:#A80036;stroke-width:1.5;" x1="48" x2="71" y1="683.4688" y2="683.4688"/><!--MD5=[7449e65854233b27c3b0ddd3ff813187]
class Timestamp--><rect codeLine="59" fill="#FEFECE" filter="url(#fv2y6n2b8s6y8)" height="52.7734" id="Timestamp" style="stroke:#A80036;stroke-width:1.5;" width="72" x="628.5" y="515"/><text fill="#000000" font-family="sans-serif" font-size="12" lengthAdjust="spacing" textLength="66" x="631.5" y="531.1387">Timestamp</text><line style="stroke:#A80036;stroke-width:1.5;" x1="629.5" x2="699.5" y1="538.9688" y2="538.9688"/><line style="stroke:#A80036;stroke-width:1.5;" x1="629.5" x2="699.5" y1="546.9688" y2="546.9688"/><text fill="#000000" font-family="sans-serif" font-size="11" lengthAdjust="spacing" textLength="48" x="634.5" y="561.1792">reduce()</text><!--MD5=[2741598bdf59a7d7e0d5c97658fd3022]
class Result--><rect codeLine="62" fill="#FEFECE" filter="url(#fv2y6n2b8s6y8)" height="39.9688" id="Result" style="stroke:#A80036;stroke-width:1.5;" width="42" x="217.5" y="521.5"/><text fill="#000000" font-family="sans-serif" font-size="12" lengthAdjust="spacing" textLength="36" x="220.5" y="537.6387">Result</text><line style="stroke:#A80036;stroke-width:1.5;" x1="218.5" x2="258.5" y1="545.4688" y2="545.4688"/><line style="stroke:#A80036;stroke-width:1.5;" x1="218.5" x2="258.5" y1="553.4688" y2="553.4688"/><!--MD5=[a545b1e4f6d3f31f00e10c38ec2a1da6]
class FrontendSystem--><rect codeLine="64" fill="#FEFECE" filter="url(#fv2y6n2b8s6y8)" height="39.9688" id="FrontendSystem" style="stroke:#A80036;stroke-width:1.5;" width="105" x="7" y="775"/><text fill="#000000" font-family="sans-serif" font-size="12" lengthAdjust="spacing" textLength="99" x="10" y="791.1387">FrontendSystem</text><line style="stroke:#A80036;stroke-width:1.5;" x1="8" x2="111" y1="798.9688" y2="798.9688"/><line style="stroke:#A80036;stroke-width:1.5;" x1="8" x2="111" y1="806.9688" y2="806.9688"/><!--MD5=[c26911398f42608bb90a3a3e804c0076]
class IMDB--><rect codeLine="66" fill="#FEFECE" filter="url(#fv2y6n2b8s6y8)" height="39.9688" id="IMDB" style="stroke:#A80036;stroke-width:1.5;" width="36" x="146.5" y="521.5"/><text fill="#000000" font-family="sans-serif" font-size="12" lengthAdjust="spacing" textLength="30" x="149.5" y="537.6387">IMDB</text><line style="stroke:#A80036;stroke-width:1.5;" x1="147.5" x2="181.5" y1="545.4688" y2="545.4688"/><line style="stroke:#A80036;stroke-width:1.5;" x1="147.5" x2="181.5" y1="553.4688" y2="553.4688"/><!--MD5=[cbcccfbdcebfc29bde591b8ba10ece28]
class Respect--><rect codeLine="68" fill="#FEFECE" filter="url(#fv2y6n2b8s6y8)" height="39.9688" id="Respect" style="stroke:#A80036;stroke-width:1.5;" width="55" x="137" y="651.5"/><text fill="#000000" font-family="sans-serif" font-size="12" lengthAdjust="spacing" textLength="49" x="140" y="667.6387">Respect</text><line style="stroke:#A80036;stroke-width:1.5;" x1="138" x2="191" y1="675.4688" y2="675.4688"/><line style="stroke:#A80036;stroke-width:1.5;" x1="138" x2="191" y1="683.4688" y2="683.4688"/><!--MD5=[12f125d603bbb4fc7dd777ab567edeeb]
reverse link IMDB to Title--><path codeLine="70" d="M193.346,564.085 C195.403,565.448 197.468,566.766 199.5,568 C233.816,588.836 341.238,640.141 385.812,661.225 " fill="none" id="IMDB-backto-Title" style="stroke:#A80036;stroke-width:1.0;"/><polygon fill="#FFFFFF" points="182.63,556.596,185.2566,563.3117,192.4659,563.4702,189.8394,556.7545,182.63,556.596" style="stroke:#A80036;stroke-width:1.0;"/><!--MD5=[164052c988a3c21ed4ca9b64cbd815b7]
reverse link Media to Data--><path codeLine="71" d="M376.639,403.731 C391.333,421.559 406.869,444.343 414.5,468 C419.375,483.116 417.106,500.755 413.506,514.85 " fill="none" id="Media-backto-Data" style="stroke:#A80036;stroke-width:1.0;"/><polygon fill="#FFFFFF" points="368.151,393.837,369.0215,400.9954,375.9641,402.945,375.0935,395.7866,368.151,393.837" style="stroke:#A80036;stroke-width:1.0;"/><!--MD5=[d23566c002465db23ab477f747297617]
reverse link Tv to Movie--><path codeLine="72" d="M432.801,75.574 C441.044,100.841 452.456,135.823 460.139,159.373 " fill="none" id="Tv-backto-Movie" style="stroke:#A80036;stroke-width:1.0;"/><polygon fill="#FFFFFF" points="428.704,63.016,426.7619,69.9607,432.4255,74.4244,434.3675,67.4797,428.704,63.016" style="stroke:#A80036;stroke-width:1.0;"/><!--MD5=[7e94c1e788100ffa562aa862b22a7904]
link User to Title--><path codeLine="73" d="M541.963,76.137 C552.542,104.316 565.5,146.658 565.5,185 C565.5,185 565.5,185 565.5,542.5 C565.5,611.006 474.957,648.878 430.095,663.438 " fill="none" id="User-to-Title" style="stroke:#A80036;stroke-width:1.0;"/><polygon fill="#A80036" points="425.119,665.018,434.9074,666.1074,429.8846,663.5052,432.4869,658.4824,425.119,665.018" style="stroke:#A80036;stroke-width:1.0;"/><text fill="#000000" font-family="sans-serif" font-size="13" lengthAdjust="spacing" textLength="32" x="566.5" y="371.5669">input</text><!--MD5=[0cc357295aadfaf8d2368c83f8928865]
reverse link Data to Size--><path codeLine="74" d="M436.269,560.104 C486.265,587.807 581.508,640.582 619.383,661.57 " fill="none" id="Data-backto-Size" style="stroke:#A80036;stroke-width:1.0;"/><polygon fill="#FFFFFF" points="424.596,553.635,427.9053,560.0419,435.0922,559.4514,431.7829,553.0445,424.596,553.635" style="stroke:#A80036;stroke-width:1.0;"/><!--MD5=[b2cf15df6d0d800ff60f97cab34c5ee0]
link Developer to BackendSystem--><path codeLine="75" d="M71.9585,438.162 C68.9356,462.994 65.6881,489.669 63.2668,509.558 " fill="none" id="Developer-to-BackendSystem" style="stroke:#A80036;stroke-width:1.0;"/><polygon fill="#A80036" points="62.6382,514.722,67.6966,506.2714,63.2425,509.7587,59.7552,505.3045,62.6382,514.722" style="stroke:#A80036;stroke-width:1.0;"/><text fill="#000000" font-family="sans-serif" font-size="13" lengthAdjust="spacing" textLength="42" x="69.5" y="481.0669">design</text><!--MD5=[132b825696af99bc92bdb50e62537c43]
reverse link Movie to Title--><path codeLine="76" d="M468.291,225.757 C467.356,294.973 462.791,444.191 441.5,568 C436.865,594.953 425.931,624.257 417.321,644.601 " fill="none" id="Movie-backto-Title" style="stroke:#A80036;stroke-width:1.0;"/><polygon fill="#FFFFFF" points="468.437,212.625,464.3706,218.5802,468.3038,224.6243,472.3702,218.669,468.437,212.625" style="stroke:#A80036;stroke-width:1.0;"/><!--MD5=[c68f36befa0002b7e5f2cf82e3db951a]
link Buzz to Title--><path codeLine="77" d="M338.05,568.176 C346.593,582.123 357.465,599.614 367.5,615 C372.936,623.335 378.964,632.271 384.587,640.484 " fill="none" id="Buzz-to-Title" style="stroke:#A80036;stroke-width:1.0;"/><polygon fill="#A80036" points="387.663,644.964,385.866,635.2805,384.8327,640.8422,379.271,639.8089,387.663,644.964" style="stroke:#A80036;stroke-width:1.0;"/><text fill="#000000" font-family="sans-serif" font-size="13" lengthAdjust="spacing" textLength="28" x="368.5" y="611.0669">rank</text><!--MD5=[adf66082a9595fb39097941c81aff626]
link VideoUser to TwitterData--><path codeLine="78" d="M222.641,219.036 C217.259,228.275 212.283,238.664 209.5,249 C201.806,277.575 203.837,311.505 207.018,335.448 " fill="none" id="VideoUser-to-TwitterData" style="stroke:#A80036;stroke-width:1.0;"/><polygon fill="#A80036" points="207.712,340.4,210.4262,330.9325,207.0191,335.4482,202.5034,332.0412,207.712,340.4" style="stroke:#A80036;stroke-width:1.0;"/><text fill="#000000" font-family="sans-serif" font-size="13" lengthAdjust="spacing" textLength="23" x="210.5" y="262.0669">use</text><!--MD5=[2afcc3f4a1a6976d55ecc09044b15cdc]
reverse link Tv to Show--><path codeLine="79" d="M411.079,75.574 C401.941,100.841 389.288,135.823 380.769,159.373 " fill="none" id="Tv-backto-Show" style="stroke:#A80036;stroke-width:1.0;"/><polygon fill="#FFFFFF" points="415.622,63.016,409.8199,67.298,411.5409,74.3007,417.343,70.0187,415.622,63.016" style="stroke:#A80036;stroke-width:1.0;"/><!--MD5=[3e9ec72bf6cea31fdcbb4f8fbca05f45]
link Data to Title--><path codeLine="80" d="M404.7,568.095 C404.861,588.763 405.089,617.91 405.26,639.826 " fill="none" id="Data-to-Title" style="stroke:#A80036;stroke-width:1.0;"/><polygon fill="#A80036" points="405.3,644.949,409.2305,635.9184,405.2614,639.9491,401.2307,635.9801,405.3,644.949" style="stroke:#A80036;stroke-width:1.0;"/><text fill="#000000" font-family="sans-serif" font-size="13" lengthAdjust="spacing" textLength="13" x="406.5" y="611.0669">to</text><!--MD5=[87d2be30ec97dfd76ad68aaa82b74df6]
link Show to Media--><path codeLine="81" d="M354.706,212.761 C348.651,223.508 342.559,236.405 339.5,249 C332.546,277.637 334.434,311.378 337.378,335.249 " fill="none" id="Show-to-Media" style="stroke:#A80036;stroke-width:1.0;"/><polygon fill="#A80036" points="338.06,340.489,340.8643,331.0478,337.4143,335.5309,332.9313,332.0809,338.06,340.489" style="stroke:#A80036;stroke-width:1.0;"/><text fill="#000000" font-family="sans-serif" font-size="13" lengthAdjust="spacing" textLength="34" x="340.5" y="262.0669">trend</text><!--MD5=[f9cb83c824c2bbe20866d05aa6230ceb]
reverse link Media to Buzz--><path codeLine="82" d="M337.972,407.05 C334.15,440.021 328.786,486.287 325.482,514.781 " fill="none" id="Media-backto-Buzz" style="stroke:#A80036;stroke-width:1.0;"/><polygon fill="#FFFFFF" points="339.506,393.825,334.841,399.3239,338.1227,405.745,342.7877,400.2461,339.506,393.825" style="stroke:#A80036;stroke-width:1.0;"/><!--MD5=[0d5397961f71e6fa31c8351a30aa0029]
link User to Movie--><path codeLine="83" d="M514.735,76.348 C504.722,99.879 491.256,131.524 481.44,154.592 " fill="none" id="User-to-Movie" style="stroke:#A80036;stroke-width:1.0;"/><polygon fill="#A80036" points="479.403,159.378,486.6072,152.6624,481.3605,154.7771,479.2458,149.5304,479.403,159.378" style="stroke:#A80036;stroke-width:1.0;"/><text fill="#000000" font-family="sans-serif" font-size="13" lengthAdjust="spacing" textLength="24" x="503.5" y="119.0669">find</text><!--MD5=[798f7c510e47a485a685746a418bbc5c]
link VideoUser to Media--><path codeLine="84" d="M262.842,219.002 C280.761,252.069 308.52,303.295 326.089,335.716 " fill="none" id="VideoUser-to-Media" style="stroke:#A80036;stroke-width:1.0;"/><polygon fill="#A80036" points="328.605,340.358,327.8324,330.5395,326.2222,335.9623,320.7993,334.352,328.605,340.358" style="stroke:#A80036;stroke-width:1.0;"/><text fill="#000000" font-family="sans-serif" font-size="13" lengthAdjust="spacing" textLength="23" x="289.5" y="262.0669">use</text><!--MD5=[139df0c110c6276746a02f99529e11ff]
link BackendSystem to Api--><path codeLine="85" d="M59.5,568.095 C59.5,590.789 59.5,623.707 59.5,646.048 " fill="none" id="BackendSystem-to-Api" style="stroke:#A80036;stroke-width:1.0;"/><polygon fill="#A80036" points="59.5,651.207,63.5,642.207,59.5,646.207,55.5,642.207,59.5,651.207" style="stroke:#A80036;stroke-width:1.0;"/><text fill="#000000" font-family="sans-serif" font-size="13" lengthAdjust="spacing" textLength="48" x="60.5" y="611.0669">provide</text><!--MD5=[10fda9b5bed94357b6438143dd1e9fea]
link Api to FrontendSystem--><path codeLine="86" d="M59.5,691.752 C59.5,712.903 59.5,746.9094 59.5,769.8366 " fill="none" id="Api-to-FrontendSystem" style="stroke:#A80036;stroke-width:1.0;"/><polygon fill="#A80036" points="59.5,774.838,63.5,765.838,59.5,769.838,55.5,765.838,59.5,774.838" style="stroke:#A80036;stroke-width:1.0;"/><text fill="#000000" font-family="sans-serif" font-size="13" lengthAdjust="spacing" textLength="13" x="60.5" y="741.0669">to</text><!--MD5=[4caf7d2653aeb743222e74bb2bbfc946]
link Developer to Data--><path codeLine="87" d="M133.392,425.729 C138.903,430.224 144.64,434.405 150.5,438 C187.158,460.491 202.036,453.427 242.5,468 C296.001,487.268 310.439,489.974 361.5,515 C367.586,517.983 373.961,521.519 379.881,524.993 " fill="none" id="Developer-to-Data" style="stroke:#A80036;stroke-width:1.0;"/><polygon fill="#A80036" points="384.308,527.627,378.6194,519.5871,380.0112,525.0701,374.5283,526.462,384.308,527.627" style="stroke:#A80036;stroke-width:1.0;"/><text fill="#000000" font-family="sans-serif" font-size="13" lengthAdjust="spacing" textLength="44" x="292.5" y="481.0669">access</text><!--MD5=[18a8aa700d840bd670d8869c8861b00e]
link Movie to Media--><path codeLine="88" d="M445.17,212.538 C435.588,223.463 424.626,236.551 415.5,249 C394.712,277.358 373.751,311.684 359.657,335.798 " fill="none" id="Movie-to-Media" style="stroke:#A80036;stroke-width:1.0;"/><polygon fill="#A80036" points="357.106,340.178,365.0909,334.4124,359.6215,335.8569,358.1771,330.3876,357.106,340.178" style="stroke:#A80036;stroke-width:1.0;"/><text fill="#000000" font-family="sans-serif" font-size="13" lengthAdjust="spacing" textLength="34" x="416.5" y="262.0669">trend</text><!--MD5=[87ad8874bf63d66d92b3c0ca1a67d581]
link Timestamp to Size--><path codeLine="89" d="M658.701,568.095 C653.538,590.885 646.039,623.984 640.976,646.331 " fill="none" id="Timestamp-to-Size" style="stroke:#A80036;stroke-width:1.0;"/><polygon fill="#A80036" points="639.871,651.207,645.7597,643.3125,640.9752,646.3304,637.9572,641.5459,639.871,651.207" style="stroke:#A80036;stroke-width:1.0;"/><text fill="#000000" font-family="sans-serif" font-size="13" lengthAdjust="spacing" textLength="44" x="653.5" y="611.0669">reduce</text><!--MD5=[449003eb1088381ff0c1f593ce792dc8]
link Developer to Result--><path codeLine="90" d="M133.112,425.44 C161.795,456.755 195.721,493.795 217.176,517.219 " fill="none" id="Developer-to-Result" style="stroke:#A80036;stroke-width:1.0;"/><polygon fill="#A80036" points="220.771,521.144,217.6419,511.8055,217.3939,517.4569,211.7424,517.2089,220.771,521.144" style="stroke:#A80036;stroke-width:1.0;"/><text fill="#000000" font-family="sans-serif" font-size="13" lengthAdjust="spacing" textLength="45" x="188.5" y="481.0669">display</text><!--MD5=[f7a0aaa3a6e2647bd345ca53d6081f20]
link IMDB to Respect--><path codeLine="91" d="M162.999,561.576 C162.021,576.193 161.01,596.866 161.5,615 C161.775,625.173 162.332,636.384 162.893,646.051 " fill="none" id="IMDB-to-Respect" style="stroke:#A80036;stroke-width:1.0;"/><polygon fill="#A80036" points="163.203,651.247,166.6585,642.0242,162.9044,646.2559,158.6727,642.5019,163.203,651.247" style="stroke:#A80036;stroke-width:1.0;"/><text fill="#000000" font-family="sans-serif" font-size="13" lengthAdjust="spacing" textLength="88" x="162.5" y="611.0669">supported_by</text><!--MD5=[529577a6e8fcc6dc4fd9d66a137cd334]
@startuml
hide circle
class Developer<actor> {
}
class User<actor> {
}
class VideoUser<actor> {
}
class Title {
	get()
}
class Tv {
}
class Show {
	trend()
}
class Buzz {
	rank()
}
class Size {
}
class TwitterData {
	recommend()
}
class Developer {
	display()
	filter()
	script()
	link()
	create()
	design()
	access()
	map()
}
class VideoUser {
	use()
	see()
}
class Media {
	recommend()
}
class Data {
	pull()
}
class Info {
	pull()
}
class BackendSystem {
	provide()
}
class User {
	input()
	find()
}
class Movie {
	trend()
}
class Api {
}
class Timestamp {
	reduce()
}
class Result {
}
class FrontendSystem {
}
class IMDB {
}
class Respect {
}
IMDB o- - Title
Media o- - Data
Tv o- - Movie
User - -> Title : input
Data o- - Size
Developer - -> BackendSystem : design
Movie o- - Title
Buzz - -> Title : rank
VideoUser - -> TwitterData : use
Tv o- - Show
Data - -> Title : to
Show - -> Media : trend
Media o- - Buzz
User - -> Movie : find
VideoUser - -> Media : use
BackendSystem - -> Api : provide
Api - -> FrontendSystem : to
Developer - -> Data : access
Movie - -> Media : trend
Timestamp - -> Size : reduce
Developer - -> Result : display
IMDB - -> Respect : supported_by
@enduml

PlantUML version 1.2021.10beta2(Unknown compile time)
(GPL source distribution)
Java Runtime: Java(TM) SE Runtime Environment
JVM: Java HotSpot(TM) 64-Bit Server VM
Default Encoding: UTF-8
Language: en
Country: US
--></g></svg>