<?xml version="1.0" encoding="UTF-8" standalone="no"?><svg xmlns="http://www.w3.org/2000/svg" xmlns:xlink="http://www.w3.org/1999/xlink" contentScriptType="application/ecmascript" contentStyleType="text/css" height="630px" preserveAspectRatio="none" style="width:2295px;height:630px;background:#FFFFFF;" version="1.1" viewBox="0 0 2295 630" width="2295px" zoomAndPan="magnify"><defs><filter height="300%" id="fumchxxk0i1j2" width="300%" x="-1" y="-1"><feGaussianBlur result="blurOut" stdDeviation="2.0"/><feColorMatrix in="blurOut" result="blurOut2" type="matrix" values="0 0 0 0 0 0 0 0 0 0 0 0 0 0 0 0 0 0 .4 0"/><feOffset dx="4.0" dy="4.0" in="blurOut2" result="blurOut3"/><feBlend in="SourceGraphic" in2="blurOut3" mode="normal"/></filter></defs><g><!--MD5=[d6181cb537bdc20c0a3007a98a56832d]
class Student--><rect codeLine="18" fill="#FEFECE" filter="url(#fumchxxk0i1j2)" height="257.6484" id="Student" style="stroke:#A80036;stroke-width:1.5;" width="87" x="632.0063" y="242"/><text fill="#000000" font-family="sans-serif" font-size="12" lengthAdjust="spacing" textLength="46" x="635.0063" y="258.1387">Student</text><rect fill="#FFFFFF" height="15.9688" style="stroke:#000000;stroke-width:1.0;stroke-dasharray:2.0,2.0;" width="33" x="689.0063" y="239"/><text fill="#000000" font-family="sans-serif" font-size="12" font-style="italic" lengthAdjust="spacing" textLength="31" x="690.0063" y="251.1387">actor</text><line style="stroke:#A80036;stroke-width:1.5;" x1="633.0063" x2="718.0063" y1="265.9688" y2="265.9688"/><text fill="#000000" font-family="sans-serif" font-size="11" lengthAdjust="spacing" textLength="32" x="638.0063" y="280.1792">group</text><line style="stroke:#A80036;stroke-width:1.5;" x1="633.0063" x2="718.0063" y1="286.7734" y2="286.7734"/><text fill="#000000" font-family="sans-serif" font-size="11" lengthAdjust="spacing" textLength="45" x="638.0063" y="300.9839">create()</text><text fill="#000000" font-family="sans-serif" font-size="11" lengthAdjust="spacing" textLength="66" x="638.0063" y="313.7886">talk_about()</text><text fill="#000000" font-family="sans-serif" font-size="11" lengthAdjust="spacing" textLength="29" x="638.0063" y="326.5933">add()</text><text fill="#000000" font-family="sans-serif" font-size="11" lengthAdjust="spacing" textLength="55" x="638.0063" y="339.3979">manage()</text><text fill="#000000" font-family="sans-serif" font-size="11" lengthAdjust="spacing" textLength="35" x="638.0063" y="352.2026">view()</text><text fill="#000000" font-family="sans-serif" font-size="11" lengthAdjust="spacing" textLength="37" x="638.0063" y="365.0073">have()</text><text fill="#000000" font-family="sans-serif" font-size="11" lengthAdjust="spacing" textLength="29" x="638.0063" y="377.812">find()</text><text fill="#000000" font-family="sans-serif" font-size="11" lengthAdjust="spacing" textLength="63" x="638.0063" y="390.6167">bookmark()</text><text fill="#000000" font-family="sans-serif" font-size="11" lengthAdjust="spacing" textLength="36" x="638.0063" y="403.4214">send()</text><text fill="#000000" font-family="sans-serif" font-size="11" lengthAdjust="spacing" textLength="28" x="638.0063" y="416.2261">talk()</text><text fill="#000000" font-family="sans-serif" font-size="11" lengthAdjust="spacing" textLength="48" x="638.0063" y="429.0308">upvote()</text><text fill="#000000" font-family="sans-serif" font-size="11" lengthAdjust="spacing" textLength="38" x="638.0063" y="441.8354">finish()</text><text fill="#000000" font-family="sans-serif" font-size="11" lengthAdjust="spacing" textLength="52" x="638.0063" y="454.6401">receive()</text><text fill="#000000" font-family="sans-serif" font-size="11" lengthAdjust="spacing" textLength="41" x="638.0063" y="467.4448">check()</text><text fill="#000000" font-family="sans-serif" font-size="11" lengthAdjust="spacing" textLength="60" x="638.0063" y="480.2495">schedule()</text><text fill="#000000" font-family="sans-serif" font-size="11" lengthAdjust="spacing" textLength="28" x="638.0063" y="493.0542">join()</text><!--MD5=[61a83f88cb8b7d3a80bc8c481f3736bf]
class Teacher--><rect codeLine="38" fill="#FEFECE" filter="url(#fumchxxk0i1j2)" height="155.2109" id="Teacher" style="stroke:#A80036;stroke-width:1.5;" width="90" x="414.5063" y="10"/><text fill="#000000" font-family="sans-serif" font-size="12" lengthAdjust="spacing" textLength="49" x="417.5063" y="26.1387">Teacher</text><rect fill="#FFFFFF" height="15.9688" style="stroke:#000000;stroke-width:1.0;stroke-dasharray:2.0,2.0;" width="33" x="474.5063" y="7"/><text fill="#000000" font-family="sans-serif" font-size="12" font-style="italic" lengthAdjust="spacing" textLength="31" x="475.5063" y="19.1387">actor</text><line style="stroke:#A80036;stroke-width:1.5;" x1="415.5063" x2="503.5063" y1="33.9688" y2="33.9688"/><text fill="#000000" font-family="sans-serif" font-size="11" lengthAdjust="spacing" textLength="43" x="420.5063" y="48.1792">student</text><text fill="#000000" font-family="sans-serif" font-size="11" lengthAdjust="spacing" textLength="28" x="420.5063" y="60.9839">class</text><text fill="#000000" font-family="sans-serif" font-size="11" lengthAdjust="spacing" textLength="26" x="420.5063" y="73.7886">time</text><line style="stroke:#A80036;stroke-width:1.5;" x1="415.5063" x2="503.5063" y1="80.3828" y2="80.3828"/><text fill="#000000" font-family="sans-serif" font-size="11" lengthAdjust="spacing" textLength="49" x="420.5063" y="94.5933">contact()</text><text fill="#000000" font-family="sans-serif" font-size="11" lengthAdjust="spacing" textLength="46" x="420.5063" y="107.3979">upload()</text><text fill="#000000" font-family="sans-serif" font-size="11" lengthAdjust="spacing" textLength="36" x="420.5063" y="120.2026">send()</text><text fill="#000000" font-family="sans-serif" font-size="11" lengthAdjust="spacing" textLength="44" x="420.5063" y="133.0073">assign()</text><text fill="#000000" font-family="sans-serif" font-size="11" lengthAdjust="spacing" textLength="30" x="420.5063" y="145.812">see()</text><text fill="#000000" font-family="sans-serif" font-size="11" lengthAdjust="spacing" textLength="41" x="420.5063" y="158.6167">check()</text><!--MD5=[cf9bc73d4b319b8f5d50999aecc13d13]
class Parent--><rect codeLine="10" fill="#FEFECE" filter="url(#fumchxxk0i1j2)" height="39.9688" id="Parent" style="stroke:#A80036;stroke-width:1.5;" width="78" x="2002.5053" y="67.5"/><text fill="#000000" font-family="sans-serif" font-size="12" lengthAdjust="spacing" textLength="37" x="2005.5053" y="83.6387">Parent</text><rect fill="#FFFFFF" height="15.9688" style="stroke:#000000;stroke-width:1.0;stroke-dasharray:2.0,2.0;" width="33" x="2050.5053" y="64.5"/><text fill="#000000" font-family="sans-serif" font-size="12" font-style="italic" lengthAdjust="spacing" textLength="31" x="2051.5053" y="76.6387">actor</text><line style="stroke:#A80036;stroke-width:1.5;" x1="2003.5053" x2="2079.5053" y1="91.4688" y2="91.4688"/><line style="stroke:#A80036;stroke-width:1.5;" x1="2003.5053" x2="2079.5053" y1="99.4688" y2="99.4688"/><!--MD5=[3fd616f346a44cd59a91eb10b19e157c]
class User--><rect codeLine="52" fill="#FEFECE" filter="url(#fumchxxk0i1j2)" height="103.9922" id="User" style="stroke:#A80036;stroke-width:1.5;" width="70" x="1761.5053" y="319"/><text fill="#000000" font-family="sans-serif" font-size="12" lengthAdjust="spacing" textLength="29" x="1764.5053" y="335.1387">User</text><rect fill="#FFFFFF" height="15.9688" style="stroke:#000000;stroke-width:1.0;stroke-dasharray:2.0,2.0;" width="33" x="1801.5053" y="316"/><text fill="#000000" font-family="sans-serif" font-size="12" font-style="italic" lengthAdjust="spacing" textLength="31" x="1802.5053" y="328.1387">actor</text><line style="stroke:#A80036;stroke-width:1.5;" x1="1762.5053" x2="1830.5053" y1="342.9688" y2="342.9688"/><line style="stroke:#A80036;stroke-width:1.5;" x1="1762.5053" x2="1830.5053" y1="350.9688" y2="350.9688"/><text fill="#000000" font-family="sans-serif" font-size="11" lengthAdjust="spacing" textLength="42" x="1767.5053" y="365.1792">report()</text><text fill="#000000" font-family="sans-serif" font-size="11" lengthAdjust="spacing" textLength="44" x="1767.5053" y="377.9839">dislike()</text><text fill="#000000" font-family="sans-serif" font-size="11" lengthAdjust="spacing" textLength="40" x="1767.5053" y="390.7886">invite()</text><text fill="#000000" font-family="sans-serif" font-size="11" lengthAdjust="spacing" textLength="55" x="1767.5053" y="403.5933">mention()</text><text fill="#000000" font-family="sans-serif" font-size="11" lengthAdjust="spacing" textLength="32" x="1767.5053" y="416.3979">post()</text><!--MD5=[15c6922f6693225acd2805a9f7199676]
class Maintainer--><rect codeLine="63" fill="#FEFECE" filter="url(#fumchxxk0i1j2)" height="65.5781" id="Maintainer" style="stroke:#A80036;stroke-width:1.5;" width="102" x="2115.5053" y="54.5"/><text fill="#000000" font-family="sans-serif" font-size="12" lengthAdjust="spacing" textLength="61" x="2118.5053" y="70.6387">Maintainer</text><rect fill="#FFFFFF" height="15.9688" style="stroke:#000000;stroke-width:1.0;stroke-dasharray:2.0,2.0;" width="33" x="2187.5053" y="51.5"/><text fill="#000000" font-family="sans-serif" font-size="12" font-style="italic" lengthAdjust="spacing" textLength="31" x="2188.5053" y="63.6387">actor</text><line style="stroke:#A80036;stroke-width:1.5;" x1="2116.5053" x2="2216.5053" y1="78.4688" y2="78.4688"/><line style="stroke:#A80036;stroke-width:1.5;" x1="2116.5053" x2="2216.5053" y1="86.4688" y2="86.4688"/><text fill="#000000" font-family="sans-serif" font-size="11" lengthAdjust="spacing" textLength="30" x="2121.5053" y="100.6792">see()</text><text fill="#000000" font-family="sans-serif" font-size="11" lengthAdjust="spacing" textLength="51" x="2121.5053" y="113.4839">monitor()</text><!--MD5=[0091d524b458b3ede64454f449a65d6a]
class TeacherUser--><rect codeLine="59" fill="#FEFECE" filter="url(#fumchxxk0i1j2)" height="65.5781" id="TeacherUser" style="stroke:#A80036;stroke-width:1.5;" width="119" x="1848.0053" y="54.5"/><text fill="#000000" font-family="sans-serif" font-size="12" lengthAdjust="spacing" textLength="78" x="1851.0053" y="70.6387">TeacherUser</text><rect fill="#FFFFFF" height="15.9688" style="stroke:#000000;stroke-width:1.0;stroke-dasharray:2.0,2.0;" width="33" x="1937.0053" y="51.5"/><text fill="#000000" font-family="sans-serif" font-size="12" font-style="italic" lengthAdjust="spacing" textLength="31" x="1938.0053" y="63.6387">actor</text><line style="stroke:#A80036;stroke-width:1.5;" x1="1849.0053" x2="1966.0053" y1="78.4688" y2="78.4688"/><line style="stroke:#A80036;stroke-width:1.5;" x1="1849.0053" x2="1966.0053" y1="86.4688" y2="86.4688"/><text fill="#000000" font-family="sans-serif" font-size="11" lengthAdjust="spacing" textLength="55" x="1854.0053" y="100.6792">improve()</text><text fill="#000000" font-family="sans-serif" font-size="11" lengthAdjust="spacing" textLength="32" x="1854.0053" y="113.4839">post()</text><!--MD5=[bea5b0d46523efab5ea1c1d339f396f0]
class Message--><rect codeLine="36" fill="#FEFECE" filter="url(#fumchxxk0i1j2)" height="39.9688" id="Message" style="stroke:#A80036;stroke-width:1.5;" width="61" x="1285.0053" y="577"/><text fill="#000000" font-family="sans-serif" font-size="12" lengthAdjust="spacing" textLength="55" x="1288.0053" y="593.1387">Message</text><line style="stroke:#A80036;stroke-width:1.5;" x1="1286.0053" x2="1345.0053" y1="600.9688" y2="600.9688"/><line style="stroke:#A80036;stroke-width:1.5;" x1="1286.0053" x2="1345.0053" y1="608.9688" y2="608.9688"/><!--MD5=[a78031611904abe1e5cbb3fd0b6ea028]
class Meeting--><rect codeLine="46" fill="#FEFECE" filter="url(#fumchxxk0i1j2)" height="39.9688" id="Meeting" style="stroke:#A80036;stroke-width:1.5;" width="54" x="45.5066" y="577"/><text fill="#000000" font-family="sans-serif" font-size="12" lengthAdjust="spacing" textLength="48" x="48.5066" y="593.1387">Meeting</text><line style="stroke:#A80036;stroke-width:1.5;" x1="46.5066" x2="98.5066" y1="600.9688" y2="600.9688"/><line style="stroke:#A80036;stroke-width:1.5;" x1="46.5066" x2="98.5066" y1="608.9688" y2="608.9688"/><!--MD5=[91837343f19ad6bb47ed4fe22d7145fa]
class Invitation--><rect codeLine="48" fill="#FEFECE" filter="url(#fumchxxk0i1j2)" height="39.9688" id="Invitation" style="stroke:#A80036;stroke-width:1.5;" width="59" x="135.0066" y="577"/><text fill="#000000" font-family="sans-serif" font-size="12" lengthAdjust="spacing" textLength="53" x="138.0066" y="593.1387">Invitation</text><line style="stroke:#A80036;stroke-width:1.5;" x1="136.0066" x2="193.0066" y1="600.9688" y2="600.9688"/><line style="stroke:#A80036;stroke-width:1.5;" x1="136.0066" x2="193.0066" y1="608.9688" y2="608.9688"/><!--MD5=[6f40bf13f8a5185dde69e4f16d5bd3eb]
class Homework--><rect codeLine="50" fill="#FEFECE" filter="url(#fumchxxk0i1j2)" height="39.9688" id="Homework" style="stroke:#A80036;stroke-width:1.5;" width="72" x="229.5063" y="577"/><text fill="#000000" font-family="sans-serif" font-size="12" lengthAdjust="spacing" textLength="66" x="232.5063" y="593.1387">Homework</text><line style="stroke:#A80036;stroke-width:1.5;" x1="230.5063" x2="300.5063" y1="600.9688" y2="600.9688"/><line style="stroke:#A80036;stroke-width:1.5;" x1="230.5063" x2="300.5063" y1="608.9688" y2="608.9688"/><!--MD5=[44e19a59ce6758d26e9e7982d00c5f84]
class TimeStatistic--><rect codeLine="67" fill="#FEFECE" filter="url(#fumchxxk0i1j2)" height="39.9688" id="TimeStatistic" style="stroke:#A80036;stroke-width:1.5;" width="82" x="2110.5053" y="351"/><text fill="#000000" font-family="sans-serif" font-size="12" lengthAdjust="spacing" textLength="76" x="2113.5053" y="367.1387">TimeStatistic</text><line style="stroke:#A80036;stroke-width:1.5;" x1="2111.5053" x2="2191.5053" y1="374.9688" y2="374.9688"/><line style="stroke:#A80036;stroke-width:1.5;" x1="2111.5053" x2="2191.5053" y1="382.9688" y2="382.9688"/><!--MD5=[5257ad9c0ce653a530e1f2e2617a299d]
class DiscussionGroup--><rect codeLine="69" fill="#FEFECE" filter="url(#fumchxxk0i1j2)" height="39.9688" id="DiscussionGroup" style="stroke:#A80036;stroke-width:1.5;" width="108" x="336.5063" y="577"/><text fill="#000000" font-family="sans-serif" font-size="12" lengthAdjust="spacing" textLength="102" x="339.5063" y="593.1387">DiscussionGroup</text><line style="stroke:#A80036;stroke-width:1.5;" x1="337.5063" x2="443.5063" y1="600.9688" y2="600.9688"/><line style="stroke:#A80036;stroke-width:1.5;" x1="337.5063" x2="443.5063" y1="608.9688" y2="608.9688"/><!--MD5=[cf8fdaefc782a1097e8f7fd601adea66]
class People--><rect codeLine="71" fill="#FEFECE" filter="url(#fumchxxk0i1j2)" height="39.9688" id="People" style="stroke:#A80036;stroke-width:1.5;" width="47" x="1814.0053" y="577"/><text fill="#000000" font-family="sans-serif" font-size="12" lengthAdjust="spacing" textLength="41" x="1817.0053" y="593.1387">People</text><line style="stroke:#A80036;stroke-width:1.5;" x1="1815.0053" x2="1860.0053" y1="600.9688" y2="600.9688"/><line style="stroke:#A80036;stroke-width:1.5;" x1="1815.0053" x2="1860.0053" y1="608.9688" y2="608.9688"/><!--MD5=[ad932b6f5864965112044123d6bad487]
class Someone--><rect codeLine="73" fill="#FEFECE" filter="url(#fumchxxk0i1j2)" height="39.9688" id="Someone" style="stroke:#A80036;stroke-width:1.5;" width="64" x="1896.5053" y="577"/><text fill="#000000" font-family="sans-serif" font-size="12" lengthAdjust="spacing" textLength="58" x="1899.5053" y="593.1387">Someone</text><line style="stroke:#A80036;stroke-width:1.5;" x1="1897.5053" x2="1959.5053" y1="600.9688" y2="600.9688"/><line style="stroke:#A80036;stroke-width:1.5;" x1="1897.5053" x2="1959.5053" y1="608.9688" y2="608.9688"/><!--MD5=[166247bf81aba95c770c3b8fd8e3cb19]
class Video--><rect codeLine="75" fill="#FEFECE" filter="url(#fumchxxk0i1j2)" height="39.9688" id="Video" style="stroke:#A80036;stroke-width:1.5;" width="41" x="397.0063" y="351"/><text fill="#000000" font-family="sans-serif" font-size="12" lengthAdjust="spacing" textLength="35" x="400.0063" y="367.1387">Video</text><line style="stroke:#A80036;stroke-width:1.5;" x1="398.0063" x2="437.0063" y1="374.9688" y2="374.9688"/><line style="stroke:#A80036;stroke-width:1.5;" x1="398.0063" x2="437.0063" y1="382.9688" y2="382.9688"/><!--MD5=[e3d83ec5fd90ea9f3f2bfe265cb53458]
class Status--><rect codeLine="77" fill="#FEFECE" filter="url(#fumchxxk0i1j2)" height="39.9688" id="Status" style="stroke:#A80036;stroke-width:1.5;" width="43" x="1076.0053" y="577"/><text fill="#000000" font-family="sans-serif" font-size="12" lengthAdjust="spacing" textLength="37" x="1079.0053" y="593.1387">Status</text><line style="stroke:#A80036;stroke-width:1.5;" x1="1077.0053" x2="1118.0053" y1="600.9688" y2="600.9688"/><line style="stroke:#A80036;stroke-width:1.5;" x1="1077.0053" x2="1118.0053" y1="608.9688" y2="608.9688"/><!--MD5=[db6d18d8099558415abc41d00477ab92]
class Admin--><rect codeLine="79" fill="#FEFECE" filter="url(#fumchxxk0i1j2)" height="65.5781" id="Admin" style="stroke:#A80036;stroke-width:1.5;" width="58" x="1517.5053" y="338"/><text fill="#000000" font-family="sans-serif" font-size="12" lengthAdjust="spacing" textLength="37" x="1528.0053" y="354.1387">Admin</text><line style="stroke:#A80036;stroke-width:1.5;" x1="1518.5053" x2="1574.5053" y1="361.9688" y2="361.9688"/><line style="stroke:#A80036;stroke-width:1.5;" x1="1518.5053" x2="1574.5053" y1="369.9688" y2="369.9688"/><text fill="#000000" font-family="sans-serif" font-size="11" lengthAdjust="spacing" textLength="46" x="1523.5053" y="384.1792">delete()</text><text fill="#000000" font-family="sans-serif" font-size="11" lengthAdjust="spacing" textLength="43" x="1523.5053" y="396.9839">notice()</text><!--MD5=[41314a0efc36828092cff9ebad2fcafd]
class Group--><rect codeLine="83" fill="#FEFECE" filter="url(#fumchxxk0i1j2)" height="39.9688" id="Group" style="stroke:#A80036;stroke-width:1.5;" width="43" x="1155.0053" y="577"/><text fill="#000000" font-family="sans-serif" font-size="12" lengthAdjust="spacing" textLength="37" x="1158.0053" y="593.1387">Group</text><line style="stroke:#A80036;stroke-width:1.5;" x1="1156.0053" x2="1197.0053" y1="600.9688" y2="600.9688"/><line style="stroke:#A80036;stroke-width:1.5;" x1="1156.0053" x2="1197.0053" y1="608.9688" y2="608.9688"/><!--MD5=[9bb0bdd047fba1a3c8d48282c35b4537]
class Post--><rect codeLine="85" fill="#FEFECE" filter="url(#fumchxxk0i1j2)" height="39.9688" id="Post" style="stroke:#A80036;stroke-width:1.5;" width="31" x="1572.0053" y="577"/><text fill="#000000" font-family="sans-serif" font-size="12" lengthAdjust="spacing" textLength="25" x="1575.0053" y="593.1387">Post</text><line style="stroke:#A80036;stroke-width:1.5;" x1="1573.0053" x2="1602.0053" y1="600.9688" y2="600.9688"/><line style="stroke:#A80036;stroke-width:1.5;" x1="1573.0053" x2="1602.0053" y1="608.9688" y2="608.9688"/><!--MD5=[49d42632b649f116d5d2b66ad3e0f715]
class Discussion--><rect codeLine="87" fill="#FEFECE" filter="url(#fumchxxk0i1j2)" height="39.9688" id="Discussion" style="stroke:#A80036;stroke-width:1.5;" width="71" x="1996.0053" y="577"/><text fill="#000000" font-family="sans-serif" font-size="12" lengthAdjust="spacing" textLength="65" x="1999.0053" y="593.1387">Discussion</text><line style="stroke:#A80036;stroke-width:1.5;" x1="1997.0053" x2="2066.0053" y1="600.9688" y2="600.9688"/><line style="stroke:#A80036;stroke-width:1.5;" x1="1997.0053" x2="2066.0053" y1="608.9688" y2="608.9688"/><!--MD5=[63288f4f4902411236839d652cc0809f]
class StudyGroup--><rect codeLine="89" fill="#FEFECE" filter="url(#fumchxxk0i1j2)" height="39.9688" id="StudyGroup" style="stroke:#A80036;stroke-width:1.5;" width="77" x="480.0063" y="577"/><text fill="#000000" font-family="sans-serif" font-size="12" lengthAdjust="spacing" textLength="71" x="483.0063" y="593.1387">StudyGroup</text><line style="stroke:#A80036;stroke-width:1.5;" x1="481.0063" x2="556.0063" y1="600.9688" y2="600.9688"/><line style="stroke:#A80036;stroke-width:1.5;" x1="481.0063" x2="556.0063" y1="608.9688" y2="608.9688"/><!--MD5=[9ac406c7416b14765acfa8d63d28b061]
class Stability--><rect codeLine="91" fill="#FEFECE" filter="url(#fumchxxk0i1j2)" height="39.9688" id="Stability" style="stroke:#A80036;stroke-width:1.5;" width="53" x="2228.0053" y="351"/><text fill="#000000" font-family="sans-serif" font-size="12" lengthAdjust="spacing" textLength="47" x="2231.0053" y="367.1387">Stability</text><line style="stroke:#A80036;stroke-width:1.5;" x1="2229.0053" x2="2280.0053" y1="374.9688" y2="374.9688"/><line style="stroke:#A80036;stroke-width:1.5;" x1="2229.0053" x2="2280.0053" y1="382.9688" y2="382.9688"/><!--MD5=[53f6a92bd21ca2f2960392a061f3a1c6]
class Name--><rect codeLine="93" fill="#FEFECE" filter="url(#fumchxxk0i1j2)" height="39.9688" id="Name" style="stroke:#A80036;stroke-width:1.5;" width="40" x="592.5063" y="577"/><text fill="#000000" font-family="sans-serif" font-size="12" lengthAdjust="spacing" textLength="34" x="595.5063" y="593.1387">Name</text><line style="stroke:#A80036;stroke-width:1.5;" x1="593.5063" x2="631.5063" y1="600.9688" y2="600.9688"/><line style="stroke:#A80036;stroke-width:1.5;" x1="593.5063" x2="631.5063" y1="608.9688" y2="608.9688"/><!--MD5=[53e6cac2272ce2eb99d85cf2b2d574ee]
class Performance--><rect codeLine="95" fill="#FEFECE" filter="url(#fumchxxk0i1j2)" height="39.9688" id="Performance" style="stroke:#A80036;stroke-width:1.5;" width="82" x="1866.5053" y="351"/><text fill="#000000" font-family="sans-serif" font-size="12" lengthAdjust="spacing" textLength="76" x="1869.5053" y="367.1387">Performance</text><line style="stroke:#A80036;stroke-width:1.5;" x1="1867.5053" x2="1947.5053" y1="374.9688" y2="374.9688"/><line style="stroke:#A80036;stroke-width:1.5;" x1="1867.5053" x2="1947.5053" y1="382.9688" y2="382.9688"/><!--MD5=[f9fadfa5a66b7e5a67b370cd443ffe52]
class Answer--><rect codeLine="97" fill="#FEFECE" filter="url(#fumchxxk0i1j2)" height="39.9688" id="Answer" style="stroke:#A80036;stroke-width:1.5;" width="51" x="668.0063" y="577"/><text fill="#000000" font-family="sans-serif" font-size="12" lengthAdjust="spacing" textLength="45" x="671.0063" y="593.1387">Answer</text><line style="stroke:#A80036;stroke-width:1.5;" x1="669.0063" x2="718.0063" y1="600.9688" y2="600.9688"/><line style="stroke:#A80036;stroke-width:1.5;" x1="669.0063" x2="718.0063" y1="608.9688" y2="608.9688"/><!--MD5=[a7e7e9fd45c705ab6e23144cf5eeeabf]
class Tutor--><rect codeLine="99" fill="#FEFECE" filter="url(#fumchxxk0i1j2)" height="39.9688" id="Tutor" style="stroke:#A80036;stroke-width:1.5;" width="37" x="799.0063" y="577"/><text fill="#000000" font-family="sans-serif" font-size="12" lengthAdjust="spacing" textLength="31" x="802.0063" y="593.1387">Tutor</text><line style="stroke:#A80036;stroke-width:1.5;" x1="800.0063" x2="835.0063" y1="600.9688" y2="600.9688"/><line style="stroke:#A80036;stroke-width:1.5;" x1="800.0063" x2="835.0063" y1="608.9688" y2="608.9688"/><!--MD5=[fc7123defb831ecdd44b2d9bcef6cceb]
class Question--><rect codeLine="101" fill="#FEFECE" filter="url(#fumchxxk0i1j2)" height="39.9688" id="Question" style="stroke:#A80036;stroke-width:1.5;" width="60" x="961.5063" y="577"/><text fill="#000000" font-family="sans-serif" font-size="12" lengthAdjust="spacing" textLength="54" x="964.5063" y="593.1387">Question</text><line style="stroke:#A80036;stroke-width:1.5;" x1="962.5063" x2="1020.5063" y1="600.9688" y2="600.9688"/><line style="stroke:#A80036;stroke-width:1.5;" x1="962.5063" x2="1020.5063" y1="608.9688" y2="608.9688"/><!--MD5=[c2297e0e1f3936ff8f88cae54d25be61]
class Assignment--><rect codeLine="103" fill="#FEFECE" filter="url(#fumchxxk0i1j2)" height="39.9688" id="Assignment" style="stroke:#A80036;stroke-width:1.5;" width="76" x="1983.5053" y="351"/><text fill="#000000" font-family="sans-serif" font-size="12" lengthAdjust="spacing" textLength="70" x="1986.5053" y="367.1387">Assignment</text><line style="stroke:#A80036;stroke-width:1.5;" x1="1984.5053" x2="2058.5053" y1="374.9688" y2="374.9688"/><line style="stroke:#A80036;stroke-width:1.5;" x1="1984.5053" x2="2058.5053" y1="382.9688" y2="382.9688"/><!--MD5=[7ec57714c5591fc9c2cda847a8a29960]
link Teacher to Homework--><path codeLine="105" d="M414.4393,124.448 C332.6193,192.961 162.2213,351.421 98.5066,530 C95.9676,537.1162 93.9002,541.0111 98.5066,547 C130.1864,588.1878 161.8483,561.6982 211.5063,577 C215.7613,578.3111 220.1803,579.7451 224.5763,581.2189 " fill="none" id="Teacher-to-Homework" style="stroke:#A80036;stroke-width:1.0;"/><polygon fill="#A80036" points="229.3283,582.8297,222.0877,576.1534,224.5927,581.2254,219.5207,583.7304,229.3283,582.8297" style="stroke:#A80036;stroke-width:1.0;"/><text fill="#000000" font-family="sans-serif" font-size="13" lengthAdjust="spacing" textLength="41" x="285.5063" y="375.5669">assign</text><!--MD5=[00e54b2b0512fb35660c24f94ccdcc4b]
link Student to Tutor--><path codeLine="106" d="M719.1393,481.217 C730.6093,504.02 744.1443,527.1413 759.5063,547 C769.4193,559.8147 783.1833,571.619 794.8143,580.4295 " fill="none" id="Student-to-Tutor" style="stroke:#A80036;stroke-width:1.0;"/><polygon fill="#A80036" points="798.9923,583.5363,794.1561,574.9566,794.9797,580.5532,789.3831,581.3768,798.9923,583.5363" style="stroke:#A80036;stroke-width:1.0;"/><text fill="#000000" font-family="sans-serif" font-size="13" lengthAdjust="spacing" textLength="57" x="760.5063" y="543.0669">schedule</text><!--MD5=[00e54b2b0512fb35660c24f94ccdcc4b]
link Student to Tutor--><path codeLine="123" d="M719.3123,403.648 C754.6923,432.141 801.8703,477.524 822.5063,530 C827.7043,543.2171 826.7173,559.0557 824.3073,571.9037 " fill="none" id="Student-to-Tutor-1" style="stroke:#A80036;stroke-width:1.0;"/><polygon fill="#A80036" points="823.2823,576.849,829.0247,568.8475,824.2965,571.9529,821.191,567.2247,823.2823,576.849" style="stroke:#A80036;stroke-width:1.0;"/><text fill="#000000" font-family="sans-serif" font-size="13" lengthAdjust="spacing" textLength="88" x="827.5063" y="543.0669">supported_by</text><!--MD5=[dc4d285a7a739d307cd7df7bd5caeecc]
link Student to Invitation--><path codeLine="107" d="M631.7453,404.679 C589.0983,434.717 521.2483,477.838 455.5063,500 C352.8063,534.6207 307.1393,475.421 213.5063,530 C196.7463,539.7695 183.9693,557.7735 175.6713,572.5122 " fill="none" id="Student-to-Invitation" style="stroke:#A80036;stroke-width:1.0;"/><polygon fill="#A80036" points="173.2403,576.9687,181.0614,570.9829,175.6345,572.5792,174.0382,567.1522,173.2403,576.9687" style="stroke:#A80036;stroke-width:1.0;"/><text fill="#000000" font-family="sans-serif" font-size="13" lengthAdjust="spacing" textLength="31" x="214.5063" y="543.0669">send</text><!--MD5=[dc4d285a7a739d307cd7df7bd5caeecc]
link Student to Invitation--><path codeLine="138" d="M631.7223,403.2 C588.7863,432.375 520.4903,475.081 455.5063,500 C394.4663,523.4066 373.6903,509.827 311.5063,530 C271.5983,542.9468 227.9973,563.3762 198.7273,578.0773 " fill="none" id="Student-to-Invitation-1" style="stroke:#A80036;stroke-width:1.0;"/><polygon fill="#A80036" points="194.1563,580.3855,203.9931,579.8986,198.6194,578.1314,200.3865,572.7577,194.1563,580.3855" style="stroke:#A80036;stroke-width:1.0;"/><text fill="#000000" font-family="sans-serif" font-size="13" lengthAdjust="spacing" textLength="47" x="312.5063" y="543.0669">receive</text><!--MD5=[77c575690b0287b9077f2f97ff7c450d]
link User to Post--><path codeLine="108" d="M1761.2853,409.745 C1716.8353,457.384 1641.9553,537.6446 1606.8153,575.3098 " fill="none" id="User-to-Post" style="stroke:#A80036;stroke-width:1.0;"/><polygon fill="#A80036" points="1603.1353,579.2538,1612.1991,575.4005,1606.5456,575.5974,1606.3488,569.9439,1603.1353,579.2538" style="stroke:#A80036;stroke-width:1.0;"/><text fill="#000000" font-family="sans-serif" font-size="13" lengthAdjust="spacing" textLength="39" x="1645.5053" y="543.0669">report</text><!--MD5=[77c575690b0287b9077f2f97ff7c450d]
link User to Post--><path codeLine="118" d="M1776.3953,423.214 C1759.2153,461.456 1731.2653,512.805 1693.5053,547 C1668.4953,569.6475 1631.2153,583.5568 1608.1753,590.5183 " fill="none" id="User-to-Post-1" style="stroke:#A80036;stroke-width:1.0;"/><polygon fill="#A80036" points="1603.2053,591.9793,1612.9691,593.2709,1608.0012,590.5653,1610.7068,585.5974,1603.2053,591.9793" style="stroke:#A80036;stroke-width:1.0;"/><text fill="#000000" font-family="sans-serif" font-size="13" lengthAdjust="spacing" textLength="53" x="1710.5053" y="543.0669">mention</text><!--MD5=[26b37b438e26d48efdf64ad23e6fab4b]
link Teacher to Invitation--><path codeLine="109" d="M414.4193,90.793 C329.9333,97.809 149.2313,126.302 70.5066,242 C6,336.802 49.6538,387.245 70.5066,500 C74.5744,521.9954 74.4078,529.6342 88.5066,547 C99.7159,560.8067 115.8865,571.9891 130.4326,580.1662 " fill="none" id="Teacher-to-Invitation" style="stroke:#A80036;stroke-width:1.0;"/><polygon fill="#A80036" points="134.8875,582.607,128.9166,574.7745,130.5026,580.2045,125.0726,581.7904,134.8875,582.607" style="stroke:#A80036;stroke-width:1.0;"/><text fill="#000000" font-family="sans-serif" font-size="13" lengthAdjust="spacing" textLength="31" x="71.5066" y="375.5669">send</text><!--MD5=[865709c2a717b8c060882f6e08ecf5e9]
reverse link Teacher to Student--><path codeLine="110" d="M513.4213,147.164 C526.8673,162.445 541.0083,179.093 553.5063,195 C580.8503,229.801 609.2503,270.244 631.7613,303.479 " fill="none" id="Teacher-backto-Student" style="stroke:#A80036;stroke-width:1.0;"/><polygon fill="#FFFFFF" points="504.7093,137.341,505.6979,144.484,512.6717,146.3188,511.6831,139.1758,504.7093,137.341" style="stroke:#A80036;stroke-width:1.0;"/><text fill="#000000" font-family="sans-serif" font-size="13" lengthAdjust="spacing" textLength="41" x="565.5063" y="208.0669">assign</text><!--MD5=[865709c2a717b8c060882f6e08ecf5e9]
reverse link Teacher to Student--><path codeLine="119" d="M516.5413,115.657 C549.5553,133.958 589.5773,160.965 615.5063,195 C626.2113,209.052 635.0863,225.143 642.4233,241.749 " fill="none" id="Teacher-backto-Student-1" style="stroke:#A80036;stroke-width:1.0;"/><polygon fill="#FFFFFF" points="504.7343,109.311,508.1255,115.6749,515.3042,114.9923,511.913,108.6283,504.7343,109.311" style="stroke:#A80036;stroke-width:1.0;"/><text fill="#000000" font-family="sans-serif" font-size="13" lengthAdjust="spacing" textLength="31" x="628.5063" y="208.0669">send</text><!--MD5=[865709c2a717b8c060882f6e08ecf5e9]
reverse link Teacher to Student--><path codeLine="128" d="M478.8733,177.757 C483.3533,189.749 488.8293,201.514 495.5063,212 C530.6823,267.242 590.7083,314.315 631.6923,342.362 " fill="none" id="Teacher-backto-Student-2" style="stroke:#A80036;stroke-width:1.0;"/><polygon fill="#FFFFFF" points="474.5553,165.222,472.7277,172.1977,478.4638,176.5677,480.2914,169.592,474.5553,165.222" style="stroke:#A80036;stroke-width:1.0;"/><text fill="#000000" font-family="sans-serif" font-size="13" lengthAdjust="spacing" textLength="48" x="496.5063" y="208.0669">contact</text><!--MD5=[8fd46e75f0e3376c0d00a2b2d2fdd7e0]
link Student to Post--><path codeLine="111" d="M719.2103,380.837 C829.0893,403.297 1125.5253,465.38 1369.5053,530 C1442.6753,549.3788 1528.2953,576.6751 1566.8453,589.216 " fill="none" id="Student-to-Post" style="stroke:#A80036;stroke-width:1.0;"/><polygon fill="#A80036" points="1571.7553,590.8139,1564.4296,584.231,1566.9995,589.2704,1561.9601,591.8403,1571.7553,590.8139" style="stroke:#A80036;stroke-width:1.0;"/><text fill="#000000" font-family="sans-serif" font-size="13" lengthAdjust="spacing" textLength="30" x="1431.5053" y="543.0669">view</text><!--MD5=[9d419e28e6a453de17836b09fd865dae]
link Admin to Post--><path codeLine="112" d="M1552.3853,404.094 C1560.6653,449.362 1575.6053,530.9681 1583.0453,571.6164 " fill="none" id="Admin-to-Post" style="stroke:#A80036;stroke-width:1.0;"/><polygon fill="#A80036" points="1583.9953,576.8368,1586.3078,567.2633,1583.0942,571.9187,1578.4388,568.7051,1583.9953,576.8368" style="stroke:#A80036;stroke-width:1.0;"/><text fill="#000000" font-family="sans-serif" font-size="13" lengthAdjust="spacing" textLength="39" x="1579.5053" y="543.0669">notice</text><!--MD5=[9d419e28e6a453de17836b09fd865dae]
link Admin to Post--><path codeLine="116" d="M1533.2853,404.028 C1520.3853,440.468 1505.6353,500.89 1527.5053,547 C1535.6853,564.2485 1553.2453,577.4345 1567.2653,585.7599 " fill="none" id="Admin-to-Post-1" style="stroke:#A80036;stroke-width:1.0;"/><polygon fill="#A80036" points="1571.8653,588.3958,1566.0449,580.4508,1567.527,585.9101,1562.0677,587.3921,1571.8653,588.3958" style="stroke:#A80036;stroke-width:1.0;"/><text fill="#000000" font-family="sans-serif" font-size="13" lengthAdjust="spacing" textLength="40" x="1528.5053" y="543.0669">delete</text><!--MD5=[358bea38a724abfd1435c4dd0950a8a6]
link TeacherUser to Student--><path codeLine="113" d="M1847.6653,102.172 C1634.9953,150.766 918.0263,314.587 724.1723,358.88 " fill="none" id="TeacherUser-to-Student" style="stroke:#A80036;stroke-width:1.0;"/><polygon fill="#A80036" points="719.1403,360.03,728.8054,361.9237,724.0146,358.9157,727.0225,354.1249,719.1403,360.03" style="stroke:#A80036;stroke-width:1.0;"/><text fill="#000000" font-family="sans-serif" font-size="13" lengthAdjust="spacing" textLength="28" x="1439.5053" y="208.0669">post</text><!--MD5=[17768eb088373ab4db3be895666c1b06]
link Student to Question--><path codeLine="114" d="M719.2223,395.943 C770.4693,424.852 856.9763,476.317 924.5063,530 C941.0963,543.188 958.0873,559.9693 970.8073,573.3101 " fill="none" id="Student-to-Question" style="stroke:#A80036;stroke-width:1.0;"/><polygon fill="#A80036" points="974.2783,576.9757,970.9959,567.6899,970.8409,573.3446,965.1862,573.1897,974.2783,576.9757" style="stroke:#A80036;stroke-width:1.0;"/><text fill="#000000" font-family="sans-serif" font-size="13" lengthAdjust="spacing" textLength="64" x="945.5063" y="543.0669">bookmark</text><!--MD5=[4816c64fb8fc9ecb22970fd822d24e69]
link User to Discussion--><path codeLine="115" d="M1806.1553,423.059 C1813.5953,449.359 1826.4753,480.015 1848.5053,500 C1883.1853,531.465 1908.0453,508.243 1949.5053,530 C1971.2853,541.4283 1992.8353,559.0833 2008.3653,573.2586 " fill="none" id="User-to-Discussion" style="stroke:#A80036;stroke-width:1.0;"/><polygon fill="#A80036" points="2012.1853,576.7816,2008.2775,567.7412,2008.5084,573.3933,2002.8563,573.6243,2012.1853,576.7816" style="stroke:#A80036;stroke-width:1.0;"/><text fill="#000000" font-family="sans-serif" font-size="13" lengthAdjust="spacing" textLength="35" x="1977.5053" y="543.0669">invite</text><!--MD5=[79775f38b7730f739d153c2a6dc73b44]
link Maintainer to TimeStatistic--><path codeLine="117" d="M2164.8053,120.518 C2161.7753,177.384 2155.5153,294.796 2152.8053,345.641 " fill="none" id="Maintainer-to-TimeStatistic" style="stroke:#A80036;stroke-width:1.0;"/><polygon fill="#A80036" points="2152.5253,350.928,2156.9986,342.1536,2152.7914,345.9351,2149.0099,341.7279,2152.5253,350.928" style="stroke:#A80036;stroke-width:1.0;"/><text fill="#000000" font-family="sans-serif" font-size="13" lengthAdjust="spacing" textLength="23" x="2162.5053" y="208.0669">see</text><!--MD5=[38b718a1e088fa001c91414ba5a31b91]
link Student to Message--><path codeLine="120" d="M719.0313,375.821 C851.5823,388.445 1245.8553,433.614 1321.5053,530 C1330.6853,541.6881 1329.0753,558.3793 1325.2253,572.0516 " fill="none" id="Student-to-Message" style="stroke:#A80036;stroke-width:1.0;"/><polygon fill="#A80036" points="1323.7253,576.9373,1330.1916,569.5085,1325.1934,572.1577,1322.5442,567.1595,1323.7253,576.9373" style="stroke:#A80036;stroke-width:1.0;"/><text fill="#000000" font-family="sans-serif" font-size="13" lengthAdjust="spacing" textLength="31" x="1329.5053" y="543.0669">send</text><!--MD5=[38b718a1e088fa001c91414ba5a31b91]
link Student to Message--><path codeLine="131" d="M719.3023,383.455 C807.5593,407.04 1012.5283,464.35 1178.5053,530 C1213.8953,543.9986 1252.8753,563.1605 1280.1753,577.2315 " fill="none" id="Student-to-Message-1" style="stroke:#A80036;stroke-width:1.0;"/><polygon fill="#A80036" points="1284.7953,579.6205,1278.6431,571.9295,1280.3554,577.321,1274.964,579.0333,1284.7953,579.6205" style="stroke:#A80036;stroke-width:1.0;"/><text fill="#000000" font-family="sans-serif" font-size="13" lengthAdjust="spacing" textLength="47" x="1218.5053" y="543.0669">receive</text><!--MD5=[bc5da163aeba26223efd504ba0a844b1]
link Student to DiscussionGroup--><path codeLine="121" d="M631.9113,406.265 C572.7603,452.755 468.7463,534.506 418.8163,573.7498 " fill="none" id="Student-to-DiscussionGroup" style="stroke:#A80036;stroke-width:1.0;"/><polygon fill="#A80036" points="414.7353,576.957,424.283,574.54,418.6663,573.8671,419.3392,568.2504,414.7353,576.957" style="stroke:#A80036;stroke-width:1.0;"/><text fill="#000000" font-family="sans-serif" font-size="13" lengthAdjust="spacing" textLength="22" x="468.5063" y="543.0669">join</text><!--MD5=[5eb2e3127d673f22b1d3b924d64bc7ef]
link TeacherUser to Assignment--><path codeLine="122" d="M1929.5953,120.941 C1942.8353,141.479 1959.2353,168.981 1970.5053,195 C1992.8953,246.68 2008.8053,311.086 2016.4253,345.544 " fill="none" id="TeacherUser-to-Assignment" style="stroke:#A80036;stroke-width:1.0;"/><polygon fill="#A80036" points="2017.5753,350.811,2019.56,341.1642,2016.507,345.9265,2011.7447,342.8735,2017.5753,350.811" style="stroke:#A80036;stroke-width:1.0;"/><text fill="#000000" font-family="sans-serif" font-size="13" lengthAdjust="spacing" textLength="28" x="1977.5053" y="208.0669">post</text><!--MD5=[16e7c306992a3cd1e0c31573e53d2284]
link Student to Student--><path codeLine="124" d="M719.0983,340.247 C737.9043,337.73 754.0063,347.98 754.0063,371 C754.0063,391.861 740.7823,402.236 724.3053,402.124 " fill="none" id="Student-to-Student" style="stroke:#A80036;stroke-width:1.0;"/><polygon fill="#A80036" points="719.0983,401.753,727.7909,406.3832,724.0856,402.1087,728.3601,398.4034,719.0983,401.753" style="stroke:#A80036;stroke-width:1.0;"/><text fill="#000000" font-family="sans-serif" font-size="13" lengthAdjust="spacing" textLength="31" x="760.0063" y="375.5669">send</text><!--MD5=[62d60d2657533e49a0a1cbd9f193ca73]
link Student to StudyGroup--><path codeLine="125" d="M631.9823,434.099 C599.7603,480.071 557.6573,540.1411 534.8733,572.6481 " fill="none" id="Student-to-StudyGroup" style="stroke:#A80036;stroke-width:1.0;"/><polygon fill="#A80036" points="531.9243,576.8561,540.3655,571.782,534.7941,572.7617,533.8144,567.1903,531.9243,576.8561" style="stroke:#A80036;stroke-width:1.0;"/><text fill="#000000" font-family="sans-serif" font-size="13" lengthAdjust="spacing" textLength="41" x="562.5063" y="543.0669">create</text><!--MD5=[0ba6518923ac2c74aa2519515f99170d]
link User to People--><path codeLine="126" d="M1805.8653,423.109 C1814.3953,469.753 1826.6453,536.641 1833.1153,571.9885 " fill="none" id="User-to-People" style="stroke:#A80036;stroke-width:1.0;"/><polygon fill="#A80036" points="1834.0253,576.9687,1836.338,567.3952,1833.1243,572.0505,1828.469,568.8368,1834.0253,576.9687" style="stroke:#A80036;stroke-width:1.0;"/><text fill="#000000" font-family="sans-serif" font-size="13" lengthAdjust="spacing" textLength="35" x="1829.5053" y="543.0669">invite</text><!--MD5=[de88f60a8086017244e25d5b8e6b5edc]
link Maintainer to Stability--><path codeLine="127" d="M2176.5153,120.518 C2194.3253,177.499 2231.1453,295.271 2246.9853,345.949 " fill="none" id="Maintainer-to-Stability" style="stroke:#A80036;stroke-width:1.0;"/><polygon fill="#A80036" points="2248.5453,350.928,2249.6781,341.1445,2247.0536,346.1557,2242.0424,343.5312,2248.5453,350.928" style="stroke:#A80036;stroke-width:1.0;"/><text fill="#000000" font-family="sans-serif" font-size="13" lengthAdjust="spacing" textLength="50" x="2204.5053" y="208.0669">monitor</text><!--MD5=[e968fe9e8e740779e8c23127dd7f26ea]
link Student to Name--><path codeLine="129" d="M636.7343,500.326 C633.8893,510.349 631.1153,520.3292 628.5063,530 C624.7983,543.7454 621.0293,559.2077 618.0803,571.7092 " fill="none" id="Student-to-Name" style="stroke:#A80036;stroke-width:1.0;"/><polygon fill="#A80036" points="616.8703,576.8721,622.8198,569.0233,618.012,572.0042,615.0311,567.1965,616.8703,576.8721" style="stroke:#A80036;stroke-width:1.0;"/><text fill="#000000" font-family="sans-serif" font-size="13" lengthAdjust="spacing" textLength="32" x="629.5063" y="543.0669">have</text><!--MD5=[2126dce093f5cfa8a27fbaeca5d85891]
link User to Someone--><path codeLine="130" d="M1813.1953,423.255 C1822.0753,447.376 1834.1353,476.037 1848.5053,500 C1848.5853,500.126 1885.2853,544.1605 1908.9453,572.5397 " fill="none" id="User-to-Someone" style="stroke:#A80036;stroke-width:1.0;"/><polygon fill="#A80036" points="1912.3353,576.6061,1909.6299,567.1361,1909.1277,572.7706,1903.4931,572.2683,1912.3353,576.6061" style="stroke:#A80036;stroke-width:1.0;"/><text fill="#000000" font-family="sans-serif" font-size="13" lengthAdjust="spacing" textLength="53" x="1887.5053" y="543.0669">mention</text><!--MD5=[055551996712e178d60bb90ca1754dcc]
link TeacherUser to Performance--><path codeLine="132" d="M1907.5053,120.518 C1907.5053,177.384 1907.5053,294.796 1907.5053,345.641 " fill="none" id="TeacherUser-to-Performance" style="stroke:#A80036;stroke-width:1.0;"/><polygon fill="#A80036" points="1907.5053,350.928,1911.5053,341.928,1907.5053,345.928,1903.5053,341.928,1907.5053,350.928" style="stroke:#A80036;stroke-width:1.0;"/><text fill="#000000" font-family="sans-serif" font-size="13" lengthAdjust="spacing" textLength="53" x="1908.5053" y="208.0669">improve</text><!--MD5=[27d02d46f9ce16bf33e2b6bedabcdcc4]
link Teacher to Video--><path codeLine="133" d="M422.8573,165.291 C419.4303,175.107 416.4993,185.164 414.5063,195 C403.7963,247.863 409.3813,311.553 413.8123,345.64 " fill="none" id="Teacher-to-Video" style="stroke:#A80036;stroke-width:1.0;"/><polygon fill="#A80036" points="414.5113,350.851,417.2801,341.3994,413.847,345.8953,409.3511,342.4622,414.5113,350.851" style="stroke:#A80036;stroke-width:1.0;"/><text fill="#000000" font-family="sans-serif" font-size="13" lengthAdjust="spacing" textLength="43" x="415.5063" y="208.0669">upload</text><!--MD5=[044e9f8f0bbc81bb88acbca0cee7930b]
link Student to Homework--><path codeLine="134" d="M631.6963,398.516 C587.6053,424.959 517.4473,466.371 455.5063,500 C404.6333,527.6205 344.8853,557.3802 306.1673,576.3214 " fill="none" id="Student-to-Homework" style="stroke:#A80036;stroke-width:1.0;"/><polygon fill="#A80036" points="301.5523,578.5769,311.3946,578.2186,306.0445,576.3813,307.8817,571.0311,301.5523,578.5769" style="stroke:#A80036;stroke-width:1.0;"/><text fill="#000000" font-family="sans-serif" font-size="13" lengthAdjust="spacing" textLength="34" x="400.5063" y="543.0669">finish</text><!--MD5=[b06162c3e815ddf24874693712f90128]
link Student to Meeting--><path codeLine="135" d="M631.8993,405.15 C589.3653,435.529 521.5923,478.888 455.5063,500 C316.4843,544.4123 258.0023,462.692 128.5066,530 C110.3812,539.4209 95.715,557.4466 85.9451,572.2822 " fill="none" id="Student-to-Meeting" style="stroke:#A80036;stroke-width:1.0;"/><polygon fill="#A80036" points="83.0718,576.7709,91.2928,571.3473,85.7674,572.5597,84.5549,567.0344,83.0718,576.7709" style="stroke:#A80036;stroke-width:1.0;"/><text fill="#000000" font-family="sans-serif" font-size="13" lengthAdjust="spacing" textLength="57" x="129.5066" y="543.0669">schedule</text><!--MD5=[522d9b76693d46577967195c51475153]
link Student to Status--><path codeLine="136" d="M719.0843,387.781 C786.1173,412.984 917.3743,466.055 1018.5063,530 C1038.4153,542.5911 1058.7753,559.7162 1073.8353,573.3669 " fill="none" id="Student-to-Status" style="stroke:#A80036;stroke-width:1.0;"/><polygon fill="#A80036" points="1077.5453,576.7576,1073.5975,567.7346,1073.8534,573.3856,1068.2024,573.6416,1077.5453,576.7576" style="stroke:#A80036;stroke-width:1.0;"/><text fill="#000000" font-family="sans-serif" font-size="13" lengthAdjust="spacing" textLength="37" x="1043.5053" y="543.0669">check</text><!--MD5=[ae2bd49475a38a02506cf2396ee48db4]
link Student to Answer--><path codeLine="137" d="M666.8463,500.198 C667.6703,516.057 669.4213,531.9682 672.5063,547 C674.2323,555.409 677.4643,564.1567 680.8843,571.8939 " fill="none" id="Student-to-Answer" style="stroke:#A80036;stroke-width:1.0;"/><polygon fill="#A80036" points="683.0263,576.5687,682.9137,566.7205,680.9435,572.0232,675.6409,570.0529,683.0263,576.5687" style="stroke:#A80036;stroke-width:1.0;"/><text fill="#000000" font-family="sans-serif" font-size="13" lengthAdjust="spacing" textLength="45" x="673.5063" y="543.0669">upvote</text><!--MD5=[b06c6fefa52bc26fcd8ce3c9ae26df26]
reverse link Student to Group--><path codeLine="139" d="M731.7853,387.882 C813.5673,412.183 968.6773,462.922 1089.5053,530 C1113.3753,543.2509 1137.9153,562.4773 1154.8253,576.7642 " fill="none" id="Student-backto-Group" style="stroke:#A80036;stroke-width:1.0;"/><polygon fill="#FFFFFF" points="719.3053,384.211,723.932,389.7421,730.8172,387.5986,726.1905,382.0675,719.3053,384.211" style="stroke:#A80036;stroke-width:1.0;"/><text fill="#000000" font-family="sans-serif" font-size="13" lengthAdjust="spacing" textLength="53" x="1116.5053" y="543.0669">manage</text><!--MD5=[b7bee07975ed2d9788e66023198d4742]
@startuml
hide circle
class Student<actor> {
	group
}
class Teacher<actor> {
	student
	class
	time
}
class Parent<actor> {
}
class User<actor> {
}
class Maintainer<actor> {
}
class TeacherUser<actor> {
}
class Student {
	create()
	talk_about()
	add()
	manage()
	view()
	have()
	find()
	bookmark()
	send()
	talk()
	upvote()
	finish()
	receive()
	check()
	schedule()
	join()
}
class Message {
}
class Teacher {
	contact()
	upload()
	send()
	assign()
	see()
	check()
}
class Meeting {
}
class Invitation {
}
class Homework {
}
class User {
	report()
	dislike()
	invite()
	mention()
	post()
}
class TeacherUser {
	improve()
	post()
}
class Maintainer {
	see()
	monitor()
}
class TimeStatistic {
}
class DiscussionGroup {
}
class People {
}
class Someone {
}
class Video {
}
class Status {
}
class Admin {
	delete()
	notice()
}
class Group {
}
class Post {
}
class Discussion {
}
class StudyGroup {
}
class Stability {
}
class Name {
}
class Performance {
}
class Answer {
}
class Tutor {
}
class Question {
}
class Assignment {
}
Teacher - -> Homework : assign
Student - -> Tutor : schedule
Student - -> Invitation : send
User - -> Post : report
Teacher - -> Invitation : send
Teacher o- - Student : assign
Student - -> Post : view
Admin - -> Post : notice
TeacherUser - -> Student : post
Student - -> Question : bookmark
User - -> Discussion : invite
Admin - -> Post : delete
Maintainer - -> TimeStatistic : see
User - -> Post : mention
Teacher o- - Student : send
Student - -> Message : send
Student - -> DiscussionGroup : join
TeacherUser - -> Assignment : post
Student - -> Tutor : supported_by
Student - -> Student : send
Student - -> StudyGroup : create
User - -> People : invite
Maintainer - -> Stability : monitor
Teacher o- - Student : contact
Student - -> Name : have
User - -> Someone : mention
Student - -> Message : receive
TeacherUser - -> Performance : improve
Teacher - -> Video : upload
Student - -> Homework : finish
Student - -> Meeting : schedule
Student - -> Status : check
Student - -> Answer : upvote
Student - -> Invitation : receive
Student o- - Group : manage
@enduml

PlantUML version 1.2021.9beta2(Unknown compile time)
(GPL source distribution)
Java Runtime: Java(TM) SE Runtime Environment
JVM: Java HotSpot(TM) 64-Bit Server VM
Default Encoding: UTF-8
Language: en
Country: US
--></g></svg>