<?xml version="1.0" encoding="UTF-8" standalone="no"?><svg xmlns="http://www.w3.org/2000/svg" xmlns:xlink="http://www.w3.org/1999/xlink" contentScriptType="application/ecmascript" contentStyleType="text/css" height="604px" preserveAspectRatio="none" style="width:1935px;height:604px;background:#FFFFFF;" version="1.1" viewBox="0 0 1935 604" width="1935px" zoomAndPan="magnify"><defs><filter height="300%" id="fglc3zda01d44" width="300%" x="-1" y="-1"><feGaussianBlur result="blurOut" stdDeviation="2.0"/><feColorMatrix in="blurOut" result="blurOut2" type="matrix" values="0 0 0 0 0 0 0 0 0 0 0 0 0 0 0 0 0 0 .4 0"/><feOffset dx="4.0" dy="4.0" in="blurOut2" result="blurOut3"/><feBlend in="SourceGraphic" in2="blurOut3" mode="normal"/></filter></defs><g><!--MD5=[3fd616f346a44cd59a91eb10b19e157c]
class User--><rect codeLine="20" fill="#FEFECE" filter="url(#fglc3zda01d44)" height="334.4766" id="User" style="stroke:#A80036;stroke-width:1.5;" width="131" x="1071.5" y="10"/><text fill="#000000" font-family="sans-serif" font-size="12" lengthAdjust="spacing" textLength="29" x="1105" y="26.1387">User</text><rect fill="#FFFFFF" height="15.9688" style="stroke:#000000;stroke-width:1.0;stroke-dasharray:2.0,2.0;" width="33" x="1172.5" y="7"/><text fill="#000000" font-family="sans-serif" font-size="12" font-style="italic" lengthAdjust="spacing" textLength="31" x="1173.5" y="19.1387">actor</text><line style="stroke:#A80036;stroke-width:1.5;" x1="1072.5" x2="1201.5" y1="33.9688" y2="33.9688"/><text fill="#000000" font-family="sans-serif" font-size="11" lengthAdjust="spacing" textLength="44" x="1077.5" y="48.1792">resume</text><text fill="#000000" font-family="sans-serif" font-size="11" lengthAdjust="spacing" textLength="75" x="1077.5" y="60.9839">profilepicture</text><text fill="#000000" font-family="sans-serif" font-size="11" lengthAdjust="spacing" textLength="36" x="1077.5" y="73.7886">profile</text><text fill="#000000" font-family="sans-serif" font-size="11" lengthAdjust="spacing" textLength="44" x="1077.5" y="86.5933">interest</text><text fill="#000000" font-family="sans-serif" font-size="11" lengthAdjust="spacing" textLength="36" x="1077.5" y="99.3979">media</text><text fill="#000000" font-family="sans-serif" font-size="11" lengthAdjust="spacing" textLength="119" x="1077.5" y="112.2026">linkedinprofilepicture</text><text fill="#000000" font-family="sans-serif" font-size="11" lengthAdjust="spacing" textLength="64" x="1077.5" y="125.0073">information</text><text fill="#000000" font-family="sans-serif" font-size="11" lengthAdjust="spacing" textLength="44" x="1077.5" y="137.812">account</text><line style="stroke:#A80036;stroke-width:1.5;" x1="1072.5" x2="1201.5" y1="144.4063" y2="144.4063"/><text fill="#000000" font-family="sans-serif" font-size="11" lengthAdjust="spacing" textLength="80" x="1077.5" y="158.6167">authenticate()</text><text fill="#000000" font-family="sans-serif" font-size="11" lengthAdjust="spacing" textLength="29" x="1077.5" y="171.4214">sort()</text><text fill="#000000" font-family="sans-serif" font-size="11" lengthAdjust="spacing" textLength="37" x="1077.5" y="184.2261">keep()</text><text fill="#000000" font-family="sans-serif" font-size="11" lengthAdjust="spacing" textLength="34" x="1077.5" y="197.0308">filter()</text><text fill="#000000" font-family="sans-serif" font-size="11" lengthAdjust="spacing" textLength="38" x="1077.5" y="209.8354">trend()</text><text fill="#000000" font-family="sans-serif" font-size="11" lengthAdjust="spacing" textLength="48" x="1077.5" y="222.6401">update()</text><text fill="#000000" font-family="sans-serif" font-size="11" lengthAdjust="spacing" textLength="44" x="1077.5" y="235.4448">author()</text><text fill="#000000" font-family="sans-serif" font-size="11" lengthAdjust="spacing" textLength="49" x="1077.5" y="248.2495">disable()</text><text fill="#000000" font-family="sans-serif" font-size="11" lengthAdjust="spacing" textLength="32" x="1077.5" y="261.0542">click()</text><text fill="#000000" font-family="sans-serif" font-size="11" lengthAdjust="spacing" textLength="29" x="1077.5" y="273.8589">find()</text><text fill="#000000" font-family="sans-serif" font-size="11" lengthAdjust="spacing" textLength="30" x="1077.5" y="286.6636">see()</text><text fill="#000000" font-family="sans-serif" font-size="11" lengthAdjust="spacing" textLength="41" x="1077.5" y="299.4683">log_in()</text><text fill="#000000" font-family="sans-serif" font-size="11" lengthAdjust="spacing" textLength="46" x="1077.5" y="312.2729">search()</text><text fill="#000000" font-family="sans-serif" font-size="11" lengthAdjust="spacing" textLength="51" x="1077.5" y="325.0776">look_up()</text><text fill="#000000" font-family="sans-serif" font-size="11" lengthAdjust="spacing" textLength="37" x="1077.5" y="337.8823">have()</text><!--MD5=[9519312da563c9b60cbd933eb7c20278]
class SystemAdmin--><rect codeLine="49" fill="#FEFECE" filter="url(#fglc3zda01d44)" height="129.6016" id="SystemAdmin" style="stroke:#A80036;stroke-width:1.5;" width="123" x="235.5" y="112"/><text fill="#000000" font-family="sans-serif" font-size="12" lengthAdjust="spacing" textLength="82" x="238.5" y="128.1387">SystemAdmin</text><rect fill="#FFFFFF" height="15.9688" style="stroke:#000000;stroke-width:1.0;stroke-dasharray:2.0,2.0;" width="33" x="328.5" y="109"/><text fill="#000000" font-family="sans-serif" font-size="12" font-style="italic" lengthAdjust="spacing" textLength="31" x="329.5" y="121.1387">actor</text><line style="stroke:#A80036;stroke-width:1.5;" x1="236.5" x2="357.5" y1="135.9688" y2="135.9688"/><line style="stroke:#A80036;stroke-width:1.5;" x1="236.5" x2="357.5" y1="143.9688" y2="143.9688"/><text fill="#000000" font-family="sans-serif" font-size="11" lengthAdjust="spacing" textLength="37" x="241.5" y="158.1792">fetch()</text><text fill="#000000" font-family="sans-serif" font-size="11" lengthAdjust="spacing" textLength="46" x="241.5" y="170.9839">persist()</text><text fill="#000000" font-family="sans-serif" font-size="11" lengthAdjust="spacing" textLength="46" x="241.5" y="183.7886">render()</text><text fill="#000000" font-family="sans-serif" font-size="11" lengthAdjust="spacing" textLength="55" x="241.5" y="196.5933">approve()</text><text fill="#000000" font-family="sans-serif" font-size="11" lengthAdjust="spacing" textLength="30" x="241.5" y="209.3979">see()</text><text fill="#000000" font-family="sans-serif" font-size="11" lengthAdjust="spacing" textLength="27" x="241.5" y="222.2026">get()</text><text fill="#000000" font-family="sans-serif" font-size="11" lengthAdjust="spacing" textLength="56" x="241.5" y="235.0073">highlight()</text><!--MD5=[db6d18d8099558415abc41d00477ab92]
class Admin--><rect codeLine="67" fill="#FEFECE" filter="url(#fglc3zda01d44)" height="78.3828" id="Admin" style="stroke:#A80036;stroke-width:1.5;" width="78" x="1594" y="138"/><text fill="#000000" font-family="sans-serif" font-size="12" lengthAdjust="spacing" textLength="37" x="1597" y="154.1387">Admin</text><rect fill="#FFFFFF" height="15.9688" style="stroke:#000000;stroke-width:1.0;stroke-dasharray:2.0,2.0;" width="33" x="1642" y="135"/><text fill="#000000" font-family="sans-serif" font-size="12" font-style="italic" lengthAdjust="spacing" textLength="31" x="1643" y="147.1387">actor</text><line style="stroke:#A80036;stroke-width:1.5;" x1="1595" x2="1671" y1="161.9688" y2="161.9688"/><line style="stroke:#A80036;stroke-width:1.5;" x1="1595" x2="1671" y1="169.9688" y2="169.9688"/><text fill="#000000" font-family="sans-serif" font-size="11" lengthAdjust="spacing" textLength="35" x="1600" y="184.1792">login()</text><text fill="#000000" font-family="sans-serif" font-size="11" lengthAdjust="spacing" textLength="62" x="1600" y="196.9839">authorize()</text><text fill="#000000" font-family="sans-serif" font-size="11" lengthAdjust="spacing" textLength="53" x="1600" y="209.7886">remove()</text><!--MD5=[d58b938f28840c580982ca3a2de6ef9e]
class Research--><rect codeLine="16" fill="#FEFECE" filter="url(#fglc3zda01d44)" height="39.9688" id="Research" style="stroke:#A80036;stroke-width:1.5;" width="62" x="642" y="157"/><text fill="#000000" font-family="sans-serif" font-size="12" lengthAdjust="spacing" textLength="56" x="645" y="173.1387">Research</text><line style="stroke:#A80036;stroke-width:1.5;" x1="643" x2="703" y1="180.9688" y2="180.9688"/><line style="stroke:#A80036;stroke-width:1.5;" x1="643" x2="703" y1="188.9688" y2="188.9688"/><!--MD5=[59b530d44ae785dc18db921986a9c15c]
class Document--><rect codeLine="18" fill="#FEFECE" filter="url(#fglc3zda01d44)" height="39.9688" id="Document" style="stroke:#A80036;stroke-width:1.5;" width="67" x="478.5" y="427.5"/><text fill="#000000" font-family="sans-serif" font-size="12" lengthAdjust="spacing" textLength="61" x="481.5" y="443.6387">Document</text><line style="stroke:#A80036;stroke-width:1.5;" x1="479.5" x2="544.5" y1="451.4688" y2="451.4688"/><line style="stroke:#A80036;stroke-width:1.5;" x1="479.5" x2="544.5" y1="459.4688" y2="459.4688"/><!--MD5=[fd5b4f13a6c28069687f581866a189b5]
class Papers--><rect codeLine="37" fill="#FEFECE" filter="url(#fglc3zda01d44)" height="52.7734" id="Papers" style="stroke:#A80036;stroke-width:1.5;" width="56" x="719" y="421"/><text fill="#000000" font-family="sans-serif" font-size="12" lengthAdjust="spacing" textLength="41" x="726.5" y="437.1387">Papers</text><line style="stroke:#A80036;stroke-width:1.5;" x1="720" x2="774" y1="444.9688" y2="444.9688"/><line style="stroke:#A80036;stroke-width:1.5;" x1="720" x2="774" y1="452.9688" y2="452.9688"/><text fill="#000000" font-family="sans-serif" font-size="11" lengthAdjust="spacing" textLength="44" x="725" y="467.1792">author()</text><!--MD5=[f5ea1f64bc04260f09f32845b6b2c213]
class Portal--><rect codeLine="40" fill="#FEFECE" filter="url(#fglc3zda01d44)" height="52.7734" id="Portal" style="stroke:#A80036;stroke-width:1.5;" width="45" x="1756.5" y="150.5"/><text fill="#000000" font-family="sans-serif" font-size="12" lengthAdjust="spacing" textLength="33" x="1762.5" y="166.6387">Portal</text><line style="stroke:#A80036;stroke-width:1.5;" x1="1757.5" x2="1800.5" y1="174.4688" y2="174.4688"/><line style="stroke:#A80036;stroke-width:1.5;" x1="1757.5" x2="1800.5" y1="182.4688" y2="182.4688"/><text fill="#000000" font-family="sans-serif" font-size="11" lengthAdjust="spacing" textLength="33" x="1762.5" y="196.6792">user()</text><!--MD5=[27f2b114121e060bc210878a9b990693]
class LinkedIn--><rect codeLine="43" fill="#FEFECE" filter="url(#fglc3zda01d44)" height="39.9688" id="LinkedIn" style="stroke:#A80036;stroke-width:1.5;" width="55" x="1751.5" y="427.5"/><text fill="#000000" font-family="sans-serif" font-size="12" lengthAdjust="spacing" textLength="49" x="1754.5" y="443.6387">LinkedIn</text><line style="stroke:#A80036;stroke-width:1.5;" x1="1752.5" x2="1805.5" y1="451.4688" y2="451.4688"/><line style="stroke:#A80036;stroke-width:1.5;" x1="1752.5" x2="1805.5" y1="459.4688" y2="459.4688"/><!--MD5=[cf4d6237fcae255cd2e1656cf84a30e2]
class Order--><rect codeLine="45" fill="#FEFECE" filter="url(#fglc3zda01d44)" height="39.9688" id="Order" style="stroke:#A80036;stroke-width:1.5;" width="42" x="863" y="427.5"/><text fill="#000000" font-family="sans-serif" font-size="12" lengthAdjust="spacing" textLength="36" x="866" y="443.6387">Order</text><line style="stroke:#A80036;stroke-width:1.5;" x1="864" x2="904" y1="451.4688" y2="451.4688"/><line style="stroke:#A80036;stroke-width:1.5;" x1="864" x2="904" y1="459.4688" y2="459.4688"/><!--MD5=[f9a29335b499db729be669fd1bd54958]
class Account--><rect codeLine="47" fill="#FEFECE" filter="url(#fglc3zda01d44)" height="39.9688" id="Account" style="stroke:#A80036;stroke-width:1.5;" width="54" x="979" y="427.5"/><text fill="#000000" font-family="sans-serif" font-size="12" lengthAdjust="spacing" textLength="48" x="982" y="443.6387">Account</text><line style="stroke:#A80036;stroke-width:1.5;" x1="980" x2="1032" y1="451.4688" y2="451.4688"/><line style="stroke:#A80036;stroke-width:1.5;" x1="980" x2="1032" y1="459.4688" y2="459.4688"/><!--MD5=[150c68e7fc60f4582d22e8a6f1438a4f]
class Userinformation--><rect codeLine="58" fill="#FEFECE" filter="url(#fglc3zda01d44)" height="39.9688" id="Userinformation" style="stroke:#A80036;stroke-width:1.5;" width="102" x="248" y="427.5"/><text fill="#000000" font-family="sans-serif" font-size="12" lengthAdjust="spacing" textLength="96" x="251" y="443.6387">Userinformation</text><line style="stroke:#A80036;stroke-width:1.5;" x1="249" x2="349" y1="451.4688" y2="451.4688"/><line style="stroke:#A80036;stroke-width:1.5;" x1="249" x2="349" y1="459.4688" y2="459.4688"/><!--MD5=[7b57f7066b803747d2119f99dd1555d4]
class Profile--><rect codeLine="60" fill="#FEFECE" filter="url(#fglc3zda01d44)" height="39.9688" id="Profile" style="stroke:#A80036;stroke-width:1.5;" width="43" x="1547.5" y="427.5"/><text fill="#000000" font-family="sans-serif" font-size="12" lengthAdjust="spacing" textLength="37" x="1550.5" y="443.6387">Profile</text><line style="stroke:#A80036;stroke-width:1.5;" x1="1548.5" x2="1589.5" y1="451.4688" y2="451.4688"/><line style="stroke:#A80036;stroke-width:1.5;" x1="1548.5" x2="1589.5" y1="459.4688" y2="459.4688"/><!--MD5=[9d93cc8568a88ed605ddd50c0dd874e2]
class Media--><rect codeLine="62" fill="#FEFECE" filter="url(#fglc3zda01d44)" height="52.7734" id="Media" style="stroke:#A80036;stroke-width:1.5;" width="49" x="1068.5" y="421"/><text fill="#000000" font-family="sans-serif" font-size="12" lengthAdjust="spacing" textLength="36" x="1075" y="437.1387">Media</text><line style="stroke:#A80036;stroke-width:1.5;" x1="1069.5" x2="1116.5" y1="444.9688" y2="444.9688"/><line style="stroke:#A80036;stroke-width:1.5;" x1="1069.5" x2="1116.5" y1="452.9688" y2="452.9688"/><text fill="#000000" font-family="sans-serif" font-size="11" lengthAdjust="spacing" textLength="37" x="1074.5" y="467.1792">have()</text><!--MD5=[99fbc0257732a9f9771663dcb533c304]
class Alumnus--><rect codeLine="65" fill="#FEFECE" filter="url(#fglc3zda01d44)" height="39.9688" id="Alumnus" style="stroke:#A80036;stroke-width:1.5;" width="56" x="1153" y="427.5"/><text fill="#000000" font-family="sans-serif" font-size="12" lengthAdjust="spacing" textLength="50" x="1156" y="443.6387">Alumnus</text><line style="stroke:#A80036;stroke-width:1.5;" x1="1154" x2="1208" y1="451.4688" y2="451.4688"/><line style="stroke:#A80036;stroke-width:1.5;" x1="1154" x2="1208" y1="459.4688" y2="459.4688"/><!--MD5=[0851f84a889f989e7bb0bebc385d0f09]
class Request--><rect codeLine="72" fill="#FEFECE" filter="url(#fglc3zda01d44)" height="39.9688" id="Request" style="stroke:#A80036;stroke-width:1.5;" width="55" x="385.5" y="427.5"/><text fill="#000000" font-family="sans-serif" font-size="12" lengthAdjust="spacing" textLength="49" x="388.5" y="443.6387">Request</text><line style="stroke:#A80036;stroke-width:1.5;" x1="386.5" x2="439.5" y1="451.4688" y2="451.4688"/><line style="stroke:#A80036;stroke-width:1.5;" x1="386.5" x2="439.5" y1="459.4688" y2="459.4688"/><!--MD5=[d0cd8811070a728e4cfbdffe8ac46106]
class Way--><rect codeLine="74" fill="#FEFECE" filter="url(#fglc3zda01d44)" height="39.9688" id="Way" style="stroke:#A80036;stroke-width:1.5;" width="32" x="7" y="427.5"/><text fill="#000000" font-family="sans-serif" font-size="12" lengthAdjust="spacing" textLength="26" x="10" y="443.6387">Way</text><line style="stroke:#A80036;stroke-width:1.5;" x1="8" x2="38" y1="451.4688" y2="451.4688"/><line style="stroke:#A80036;stroke-width:1.5;" x1="8" x2="38" y1="459.4688" y2="459.4688"/><!--MD5=[f572c118330f78587a09a8d1323f8ced]
class Calendar--><rect codeLine="76" fill="#FEFECE" filter="url(#fglc3zda01d44)" height="39.9688" id="Calendar" style="stroke:#A80036;stroke-width:1.5;" width="59" x="1244.5" y="427.5"/><text fill="#000000" font-family="sans-serif" font-size="12" lengthAdjust="spacing" textLength="53" x="1247.5" y="443.6387">Calendar</text><line style="stroke:#A80036;stroke-width:1.5;" x1="1245.5" x2="1302.5" y1="451.4688" y2="451.4688"/><line style="stroke:#A80036;stroke-width:1.5;" x1="1245.5" x2="1302.5" y1="459.4688" y2="459.4688"/><!--MD5=[6b68c170fd0f2fe0d96a3a05e78fe460]
class Resume--><rect codeLine="78" fill="#FEFECE" filter="url(#fglc3zda01d44)" height="52.7734" id="Resume" style="stroke:#A80036;stroke-width:1.5;" width="60" x="74" y="421"/><text fill="#000000" font-family="sans-serif" font-size="12" lengthAdjust="spacing" textLength="48" x="80" y="437.1387">Resume</text><line style="stroke:#A80036;stroke-width:1.5;" x1="75" x2="133" y1="444.9688" y2="444.9688"/><line style="stroke:#A80036;stroke-width:1.5;" x1="75" x2="133" y1="452.9688" y2="452.9688"/><text fill="#000000" font-family="sans-serif" font-size="11" lengthAdjust="spacing" textLength="48" x="80" y="467.1792">update()</text><!--MD5=[fd7366e9f96236d9aa60dcc04f2b83e5]
class Content--><rect codeLine="81" fill="#FEFECE" filter="url(#fglc3zda01d44)" height="39.9688" id="Content" style="stroke:#A80036;stroke-width:1.5;" width="52" x="1661" y="427.5"/><text fill="#000000" font-family="sans-serif" font-size="12" lengthAdjust="spacing" textLength="46" x="1664" y="443.6387">Content</text><line style="stroke:#A80036;stroke-width:1.5;" x1="1662" x2="1712" y1="451.4688" y2="451.4688"/><line style="stroke:#A80036;stroke-width:1.5;" x1="1662" x2="1712" y1="459.4688" y2="459.4688"/><!--MD5=[2ec01a623eca64bb107b03d3c92ed8e1]
class Csse--><rect codeLine="83" fill="#FEFECE" filter="url(#fglc3zda01d44)" height="39.9688" id="Csse" style="stroke:#A80036;stroke-width:1.5;" width="36" x="1075" y="551"/><text fill="#000000" font-family="sans-serif" font-size="12" lengthAdjust="spacing" textLength="30" x="1078" y="567.1387">Csse</text><line style="stroke:#A80036;stroke-width:1.5;" x1="1076" x2="1110" y1="574.9688" y2="574.9688"/><line style="stroke:#A80036;stroke-width:1.5;" x1="1076" x2="1110" y1="582.9688" y2="582.9688"/><!--MD5=[beda3184aa15b1b3c35e5c391843a5ed]
class Tweet--><rect codeLine="85" fill="#FEFECE" filter="url(#fglc3zda01d44)" height="39.9688" id="Tweet" style="stroke:#A80036;stroke-width:1.5;" width="43" x="169.5" y="427.5"/><text fill="#000000" font-family="sans-serif" font-size="12" lengthAdjust="spacing" textLength="37" x="172.5" y="443.6387">Tweet</text><line style="stroke:#A80036;stroke-width:1.5;" x1="170.5" x2="211.5" y1="451.4688" y2="451.4688"/><line style="stroke:#A80036;stroke-width:1.5;" x1="170.5" x2="211.5" y1="459.4688" y2="459.4688"/><!--MD5=[a64a835c3d62471a77f615251fdde58a]
class Position--><rect codeLine="87" fill="#FEFECE" filter="url(#fglc3zda01d44)" height="39.9688" id="Position" style="stroke:#A80036;stroke-width:1.5;" width="52" x="1339" y="427.5"/><text fill="#000000" font-family="sans-serif" font-size="12" lengthAdjust="spacing" textLength="46" x="1342" y="443.6387">Position</text><line style="stroke:#A80036;stroke-width:1.5;" x1="1340" x2="1390" y1="451.4688" y2="451.4688"/><line style="stroke:#A80036;stroke-width:1.5;" x1="1340" x2="1390" y1="459.4688" y2="459.4688"/><!--MD5=[ac13618b1a974308c1f12eb6c57723dc]
class Event--><rect codeLine="89" fill="#FEFECE" filter="url(#fglc3zda01d44)" height="39.9688" id="Event" style="stroke:#A80036;stroke-width:1.5;" width="39" x="587.5" y="427.5"/><text fill="#000000" font-family="sans-serif" font-size="12" lengthAdjust="spacing" textLength="33" x="590.5" y="443.6387">Event</text><line style="stroke:#A80036;stroke-width:1.5;" x1="588.5" x2="625.5" y1="451.4688" y2="451.4688"/><line style="stroke:#A80036;stroke-width:1.5;" x1="588.5" x2="625.5" y1="459.4688" y2="459.4688"/><!--MD5=[f3d16dc473dc36cf4c83a84ae0cad75f]
class ViewCount--><rect codeLine="91" fill="#FEFECE" filter="url(#fglc3zda01d44)" height="39.9688" id="ViewCount" style="stroke:#A80036;stroke-width:1.5;" width="69" x="1426.5" y="427.5"/><text fill="#000000" font-family="sans-serif" font-size="12" lengthAdjust="spacing" textLength="63" x="1429.5" y="443.6387">ViewCount</text><line style="stroke:#A80036;stroke-width:1.5;" x1="1427.5" x2="1494.5" y1="451.4688" y2="451.4688"/><line style="stroke:#A80036;stroke-width:1.5;" x1="1427.5" x2="1494.5" y1="459.4688" y2="459.4688"/><!--MD5=[95516949f424a155247bd801577e8fa0]
class Profilepicture--><rect codeLine="93" fill="#FEFECE" filter="url(#fglc3zda01d44)" height="52.7734" id="Profilepicture" style="stroke:#A80036;stroke-width:1.5;" width="85" x="1836.5" y="150.5"/><text fill="#000000" font-family="sans-serif" font-size="12" lengthAdjust="spacing" textLength="79" x="1839.5" y="166.6387">Profilepicture</text><line style="stroke:#A80036;stroke-width:1.5;" x1="1837.5" x2="1920.5" y1="174.4688" y2="174.4688"/><line style="stroke:#A80036;stroke-width:1.5;" x1="1837.5" x2="1920.5" y1="182.4688" y2="182.4688"/><text fill="#000000" font-family="sans-serif" font-size="11" lengthAdjust="spacing" textLength="46" x="1842.5" y="196.6792">upload()</text><!--MD5=[1539466c1f232f3bf2ff5ab5f2e17ab4]
link User to Papers--><path codeLine="96" d="M1071.28,223.244 C986.908,281.332 843.761,379.884 779.695,423.991 " fill="none" id="User-to-Papers" style="stroke:#A80036;stroke-width:1.0;"/><polygon fill="#A80036" points="775.221,427.071,784.9027,425.264,779.3399,424.2365,780.3674,418.6737,775.221,427.071" style="stroke:#A80036;stroke-width:1.0;"/><text fill="#000000" font-family="sans-serif" font-size="13" lengthAdjust="spacing" textLength="25" x="853" y="387.0669">sort</text><!--MD5=[5b2a2bdb39cc116e4a78ea074bb38160]
link User to Order--><path codeLine="97" d="M1071.3,237.864 C1031.25,275.515 979.883,325.916 938,374 C924.361,389.658 910.395,408.498 900.084,423.047 " fill="none" id="User-to-Order" style="stroke:#A80036;stroke-width:1.0;"/><polygon fill="#A80036" points="897.006,427.416,905.4599,422.3631,899.886,423.3288,898.9203,417.755,897.006,427.416" style="stroke:#A80036;stroke-width:1.0;"/><text fill="#000000" font-family="sans-serif" font-size="13" lengthAdjust="spacing" textLength="81" x="939" y="387.0669">authenticate</text><!--MD5=[a85f0377672c444e315b4467b5d19b9a]
link SystemAdmin to Userinformation--><path codeLine="98" d="M272.066,242.338 C259.048,285.103 248.549,342.165 263,391 C266.391,402.46 272.974,413.774 279.593,423.167 " fill="none" id="SystemAdmin-to-Userinformation" style="stroke:#A80036;stroke-width:1.0;"/><polygon fill="#A80036" points="282.626,427.341,280.5733,417.7084,279.6876,423.2955,274.1005,422.4099,282.626,427.341" style="stroke:#A80036;stroke-width:1.0;"/><text fill="#000000" font-family="sans-serif" font-size="13" lengthAdjust="spacing" textLength="21" x="264" y="387.0669">get</text><!--MD5=[a85f0377672c444e315b4467b5d19b9a]
link SystemAdmin to Userinformation--><path codeLine="99" d="M297.479,242.312 C297.909,300.07 298.518,381.789 298.818,422.087 " fill="none" id="SystemAdmin-to-Userinformation-1" style="stroke:#A80036;stroke-width:1.0;"/><polygon fill="#A80036" points="298.857,427.258,302.7875,418.2274,298.8184,422.2581,294.7877,418.2891,298.857,427.258" style="stroke:#A80036;stroke-width:1.0;"/><text fill="#000000" font-family="sans-serif" font-size="13" lengthAdjust="spacing" textLength="33" x="300" y="387.0669">fetch</text><!--MD5=[759f087ba8e248219c7731b7c792122c]
link Media to Csse--><path codeLine="100" d="M1093,474.267 C1093,495.3301 1093,524.9042 1093,545.5902 " fill="none" id="Media-to-Csse" style="stroke:#A80036;stroke-width:1.0;"/><polygon fill="#A80036" points="1093,550.6472,1097,541.6472,1093,545.6472,1089,541.6472,1093,550.6472" style="stroke:#A80036;stroke-width:1.0;"/><text fill="#000000" font-family="sans-serif" font-size="13" lengthAdjust="spacing" textLength="32" x="1094" y="517.0669">have</text><!--MD5=[c6ac01c158124ef578e1979e8d427316]
reverse link User to Profile--><path codeLine="101" d="M1213.68,225.657 C1314.82,288.518 1487.05,395.564 1547.36,433.053 " fill="none" id="User-backto-Profile" style="stroke:#A80036;stroke-width:1.0;"/><polygon fill="#FFFFFF" points="1202.61,218.779,1205.5967,225.3425,1212.8041,225.1099,1209.8174,218.5464,1202.61,218.779" style="stroke:#A80036;stroke-width:1.0;"/><text fill="#000000" font-family="sans-serif" font-size="13" lengthAdjust="spacing" textLength="23" x="1477" y="387.0669">see</text><!--MD5=[c8ecc96e049822d047e1e20cd7f62a56]
reverse link User to Account--><path codeLine="102" d="M1065.41,311.247 C1054.87,332.084 1044.4,353.503 1035,374 C1026.86,391.743 1018.7,412.464 1013.12,427.2 " fill="none" id="User-backto-Account" style="stroke:#A80036;stroke-width:1.0;"/><polygon fill="#FFFFFF" points="1071.44,299.4,1065.1532,302.9321,1065.9955,310.0938,1072.2824,306.5617,1071.44,299.4" style="stroke:#A80036;stroke-width:1.0;"/><text fill="#000000" font-family="sans-serif" font-size="13" lengthAdjust="spacing" textLength="45" x="1036" y="387.0669">disable</text><!--MD5=[03048cbf0664903f9d4809d957302fce]
link SystemAdmin to Tweet--><path codeLine="103" d="M269.994,242.164 C254.146,280.305 233.965,329.728 217,374 C210.864,390.014 204.35,408.178 199.378,422.32 " fill="none" id="SystemAdmin-to-Tweet" style="stroke:#A80036;stroke-width:1.0;"/><polygon fill="#A80036" points="197.619,427.336,204.3714,420.1662,199.2732,422.6176,196.8219,417.5195,197.619,427.336" style="stroke:#A80036;stroke-width:1.0;"/><text fill="#000000" font-family="sans-serif" font-size="13" lengthAdjust="spacing" textLength="33" x="218" y="387.0669">fetch</text><!--MD5=[bb813e58dcb6d929d30ff5a4a5d12263]
reverse link User to Media--><path codeLine="104" d="M1093.2,357.267 C1092.38,362.895 1091.64,368.483 1091,374 C1089.2,389.51 1089.62,407.005 1090.52,420.922 " fill="none" id="User-backto-Media" style="stroke:#A80036;stroke-width:1.0;"/><polygon fill="#FFFFFF" points="1095.25,344.077,1090.3727,349.3885,1093.3996,355.9335,1098.277,350.622,1095.25,344.077" style="stroke:#A80036;stroke-width:1.0;"/><text fill="#000000" font-family="sans-serif" font-size="13" lengthAdjust="spacing" textLength="45" x="1092" y="387.0669">update</text><!--MD5=[215e30600a2d0921b2ed19f712031f74]
link User to Position--><path codeLine="105" d="M1202.64,255.301 C1251.13,312.401 1313.94,386.373 1345.33,423.336 " fill="none" id="User-to-Position" style="stroke:#A80036;stroke-width:1.0;"/><polygon fill="#A80036" points="1348.63,427.226,1345.8561,417.7758,1345.3947,423.4138,1339.7567,422.9524,1348.63,427.226" style="stroke:#A80036;stroke-width:1.0;"/><text fill="#000000" font-family="sans-serif" font-size="13" lengthAdjust="spacing" textLength="24" x="1317" y="387.0669">find</text><!--MD5=[d72d85c617b7da5cdfe749ca1b11ab7a]
link User to Alumnus--><path codeLine="106" d="M1164.24,344.226 C1169.25,374.821 1173.88,403.064 1177,422.083 " fill="none" id="User-to-Alumnus" style="stroke:#A80036;stroke-width:1.0;"/><polygon fill="#A80036" points="1177.84,427.197,1180.3346,417.6693,1177.0328,422.2626,1172.4395,418.9608,1177.84,427.197" style="stroke:#A80036;stroke-width:1.0;"/><text fill="#000000" font-family="sans-serif" font-size="13" lengthAdjust="spacing" textLength="49" x="1173" y="387.0669">look_up</text><!--MD5=[7ce0c4b758ebd1f3408bd95deedd9c67]
link Admin to Profile--><path codeLine="107" d="M1623.9,216.184 C1610.51,272.34 1585.9,375.589 1574.76,422.353 " fill="none" id="Admin-to-Profile" style="stroke:#A80036;stroke-width:1.0;"/><polygon fill="#A80036" points="1573.59,427.235,1579.5712,419.4103,1574.7515,422.3718,1571.79,417.552,1573.59,427.235" style="stroke:#A80036;stroke-width:1.0;"/><text fill="#000000" font-family="sans-serif" font-size="13" lengthAdjust="spacing" textLength="60" x="1588" y="387.0669">authorize</text><!--MD5=[29793cb2e6ce1def3d6fecaef4efbf08]
link User to Event--><path codeLine="108" d="M1071.48,211.193 C953.321,271.052 709.574,394.536 631.577,434.049 " fill="none" id="User-to-Event" style="stroke:#A80036;stroke-width:1.0;"/><polygon fill="#A80036" points="626.682,436.529,636.5182,436.029,631.1421,434.269,632.9021,428.8929,626.682,436.529" style="stroke:#A80036;stroke-width:1.0;"/><text fill="#000000" font-family="sans-serif" font-size="13" lengthAdjust="spacing" textLength="23" x="751" y="387.0669">see</text><!--MD5=[964ddf863bfce31c2c4fb45b4aa12346]
link User to ViewCount--><path codeLine="109" d="M1202.57,232.335 C1273.43,291.059 1383,381.857 1433.63,423.816 " fill="none" id="User-to-ViewCount" style="stroke:#A80036;stroke-width:1.0;"/><polygon fill="#A80036" points="1437.76,427.237,1433.3761,418.4176,1433.9078,424.0495,1428.276,424.5812,1437.76,427.237" style="stroke:#A80036;stroke-width:1.0;"/><text fill="#000000" font-family="sans-serif" font-size="13" lengthAdjust="spacing" textLength="32" x="1393" y="387.0669">have</text><!--MD5=[f7c6b7228bc1f88e06bb3e78f43786b7]
link SystemAdmin to Request--><path codeLine="110" d="M324.785,242.312 C349.84,300.306 385.331,382.456 402.665,422.578 " fill="none" id="SystemAdmin-to-Request" style="stroke:#A80036;stroke-width:1.0;"/><polygon fill="#A80036" points="404.687,427.258,404.7899,417.4097,402.7041,422.668,397.4458,420.5823,404.687,427.258" style="stroke:#A80036;stroke-width:1.0;"/><text fill="#000000" font-family="sans-serif" font-size="13" lengthAdjust="spacing" textLength="53" x="389" y="387.0669">approve</text><!--MD5=[83469b6625d4fdf9b9ed5c1eb2cd8737]
link SystemAdmin to Event--><path codeLine="111" d="M358.617,231.368 C427.658,291.167 536.109,385.099 583.51,426.155 " fill="none" id="SystemAdmin-to-Event" style="stroke:#A80036;stroke-width:1.0;"/><polygon fill="#A80036" points="587.361,429.49,583.177,420.5741,583.5816,426.2164,577.9392,426.6211,587.361,429.49" style="stroke:#A80036;stroke-width:1.0;"/><text fill="#000000" font-family="sans-serif" font-size="13" lengthAdjust="spacing" textLength="54" x="542" y="387.0669">highlight</text><!--MD5=[e4e2ccddaf901db8c11d8cf1371d8163]
reverse link Research to Document--><path codeLine="112" d="M675.188,210.107 C676.545,255.286 672.514,338.009 631,391 C628.109,394.69 579.798,416.554 545.632,431.712 " fill="none" id="Research-backto-Document" style="stroke:#A80036;stroke-width:1.0;"/><polygon fill="#FFFFFF" points="674.614,197.105,670.883,203.2758,675.1441,209.0933,678.8752,202.9224,674.614,197.105" style="stroke:#A80036;stroke-width:1.0;"/><!--MD5=[e2f7577ae2ddd33fc12136d8099c6e9e]
reverse link Research to Papers--><path codeLine="113" d="M676.334,210.066 C681.446,252.505 693.129,329.171 716,391 C719.752,401.144 725.175,411.655 730.439,420.765 " fill="none" id="Research-backto-Papers" style="stroke:#A80036;stroke-width:1.0;"/><polygon fill="#FFFFFF" points="674.845,197.057,671.5534,203.473,676.2098,208.9791,679.5015,202.5631,674.845,197.057" style="stroke:#A80036;stroke-width:1.0;"/><!--MD5=[4ba3762b234b69310d713de99be38ab7]
link SystemAdmin to Way--><path codeLine="114" d="M235.167,238.591 C173.546,298.976 82.5394,388.156 42.7889,427.108 " fill="none" id="SystemAdmin-to-Way" style="stroke:#A80036;stroke-width:1.0;"/><polygon fill="#A80036" points="39.1048,430.718,48.3327,427.2762,42.6761,427.2186,42.7337,421.5621,39.1048,430.718" style="stroke:#A80036;stroke-width:1.0;"/><text fill="#000000" font-family="sans-serif" font-size="13" lengthAdjust="spacing" textLength="23" x="98" y="387.0669">see</text><!--MD5=[765245b9744207597b6285f87c5157a9]
link User to Calendar--><path codeLine="115" d="M1202.69,306.745 C1225.19,350.837 1248.09,395.723 1261.67,422.334 " fill="none" id="User-to-Calendar" style="stroke:#A80036;stroke-width:1.0;"/><polygon fill="#A80036" points="1264.09,427.086,1263.5649,417.2511,1261.8186,422.6317,1256.438,420.8854,1264.09,427.086" style="stroke:#A80036;stroke-width:1.0;"/><text fill="#000000" font-family="sans-serif" font-size="13" lengthAdjust="spacing" textLength="29" x="1246" y="387.0669">filter</text><!--MD5=[059466322560f8fc7c6cc380ba253757]
link SystemAdmin to Resume--><path codeLine="116" d="M250.772,242.312 C211.096,297.51 155.689,374.59 125.572,416.489 " fill="none" id="SystemAdmin-to-Resume" style="stroke:#A80036;stroke-width:1.0;"/><polygon fill="#A80036" points="122.56,420.679,131.06,415.704,125.4775,416.6185,124.5631,411.036,122.56,420.679" style="stroke:#A80036;stroke-width:1.0;"/><text fill="#000000" font-family="sans-serif" font-size="13" lengthAdjust="spacing" textLength="33" x="157" y="387.0669">fetch</text><!--MD5=[6983024d7f6b1ba07e30316c58351ddd]
link SystemAdmin to Document--><path codeLine="117" d="M348.498,242.312 C395.124,300.541 461.252,383.125 493.235,423.065 " fill="none" id="SystemAdmin-to-Document" style="stroke:#A80036;stroke-width:1.0;"/><polygon fill="#A80036" points="496.592,427.258,494.0902,417.7322,493.4673,423.3546,487.8449,422.7317,496.592,427.258" style="stroke:#A80036;stroke-width:1.0;"/><text fill="#000000" font-family="sans-serif" font-size="13" lengthAdjust="spacing" textLength="33" x="467" y="387.0669">fetch</text><!--MD5=[480b0ce421c4a4b48e1ccef8d2524322]
link Portal to LinkedIn--><path codeLine="118" d="M1779,203.745 C1779,255.542 1779,371.702 1779,422.241 " fill="none" id="Portal-to-LinkedIn" style="stroke:#A80036;stroke-width:1.0;"/><polygon fill="#A80036" points="1779,427.498,1783,418.498,1779,422.498,1775,418.498,1779,427.498" style="stroke:#A80036;stroke-width:1.0;"/><text fill="#000000" font-family="sans-serif" font-size="13" lengthAdjust="spacing" textLength="28" x="1780" y="387.0669">user</text><!--MD5=[ffbfde574bb7ae168ad208d635d3b889]
link Admin to Content--><path codeLine="119" d="M1640.68,216.184 C1651.95,272.227 1672.65,375.171 1682.09,422.068 " fill="none" id="Admin-to-Content" style="stroke:#A80036;stroke-width:1.0;"/><polygon fill="#A80036" points="1683.13,427.235,1685.2819,417.6241,1682.1467,422.3326,1677.4381,419.1974,1683.13,427.235" style="stroke:#A80036;stroke-width:1.0;"/><text fill="#000000" font-family="sans-serif" font-size="13" lengthAdjust="spacing" textLength="50" x="1677" y="387.0669">remove</text><!--MD5=[42615306d7f4a7ad3352c572356f39e2]
@startuml
hide circle
class User<actor> {
	resume
	profilepicture
	profile
	interest
	media
	linkedinprofilepicture
	information
	account
}
class SystemAdmin<actor> {
}
class Admin<actor> {
}
class Research {
}
class Document {
}
class User {
	authenticate()
	sort()
	keep()
	filter()
	trend()
	update()
	author()
	disable()
	click()
	find()
	see()
	log_in()
	search()
	look_up()
	have()
}
class Papers {
	author()
}
class Portal {
	user()
}
class LinkedIn {
}
class Order {
}
class Account {
}
class SystemAdmin {
	fetch()
	persist()
	render()
	approve()
	see()
	get()
	highlight()
}
class Userinformation {
}
class Profile {
}
class Media {
	have()
}
class Alumnus {
}
class Admin {
	login()
	authorize()
	remove()
}
class Request {
}
class Way {
}
class Calendar {
}
class Resume {
	update()
}
class Content {
}
class Csse {
}
class Tweet {
}
class Position {
}
class Event {
}
class ViewCount {
}
class Profilepicture {
	upload()
}
User - -> Papers : sort
User - -> Order : authenticate
SystemAdmin - -> Userinformation : get
SystemAdmin - -> Userinformation : fetch
Media - -> Csse : have
User o- - Profile : see
User o- - Account : disable
SystemAdmin - -> Tweet : fetch
User o- - Media : update
User - -> Position : find
User - -> Alumnus : look_up
Admin - -> Profile : authorize
User - -> Event : see
User - -> ViewCount : have
SystemAdmin - -> Request : approve
SystemAdmin - -> Event : highlight
Research o- - Document
Research o- - Papers
SystemAdmin - -> Way : see
User - -> Calendar : filter
SystemAdmin - -> Resume : fetch
SystemAdmin - -> Document : fetch
Portal - -> LinkedIn : user
Admin - -> Content : remove
@enduml

PlantUML version 1.2021.10beta2(Unknown compile time)
(GPL source distribution)
Java Runtime: Java(TM) SE Runtime Environment
JVM: Java HotSpot(TM) 64-Bit Server VM
Default Encoding: UTF-8
Language: en
Country: US
--></g></svg>