<?xml version="1.0" encoding="UTF-8" standalone="no"?><svg xmlns="http://www.w3.org/2000/svg" xmlns:xlink="http://www.w3.org/1999/xlink" contentScriptType="application/ecmascript" contentStyleType="text/css" height="619px" preserveAspectRatio="none" style="width:1003px;height:619px;background:#FFFFFF;" version="1.1" viewBox="0 0 1003 619" width="1003px" zoomAndPan="magnify"><defs><filter height="300%" id="f1f0ruuz8sxi43" width="300%" x="-1" y="-1"><feGaussianBlur result="blurOut" stdDeviation="2.0"/><feColorMatrix in="blurOut" result="blurOut2" type="matrix" values="0 0 0 0 0 0 0 0 0 0 0 0 0 0 0 0 0 0 .4 0"/><feOffset dx="4.0" dy="4.0" in="blurOut2" result="blurOut3"/><feBlend in="SourceGraphic" in2="blurOut3" mode="normal"/></filter></defs><g><!--MD5=[3fd616f346a44cd59a91eb10b19e157c]
class User--><rect codeLine="14" fill="#FEFECE" filter="url(#f1f0ruuz8sxi43)" height="180.8203" id="User" style="stroke:#A80036;stroke-width:1.5;" width="80" x="548" y="165"/><text fill="#000000" font-family="sans-serif" font-size="12" lengthAdjust="spacing" textLength="29" x="556" y="181.1387">User</text><rect fill="#FFFFFF" height="15.9688" style="stroke:#000000;stroke-width:1.0;stroke-dasharray:2.0,2.0;" width="33" x="598" y="162"/><text fill="#000000" font-family="sans-serif" font-size="12" font-style="italic" lengthAdjust="spacing" textLength="31" x="599" y="174.1387">actor</text><line style="stroke:#A80036;stroke-width:1.5;" x1="549" x2="627" y1="188.9688" y2="188.9688"/><text fill="#000000" font-family="sans-serif" font-size="11" lengthAdjust="spacing" textLength="41" x="554" y="203.1792">bidding</text><line style="stroke:#A80036;stroke-width:1.5;" x1="549" x2="627" y1="209.7734" y2="209.7734"/><text fill="#000000" font-family="sans-serif" font-size="11" lengthAdjust="spacing" textLength="40" x="554" y="223.9839">make()</text><text fill="#000000" font-family="sans-serif" font-size="11" lengthAdjust="spacing" textLength="46" x="554" y="236.7886">search()</text><text fill="#000000" font-family="sans-serif" font-size="11" lengthAdjust="spacing" textLength="35" x="554" y="249.5933">view()</text><text fill="#000000" font-family="sans-serif" font-size="11" lengthAdjust="spacing" textLength="39" x="554" y="262.3979">place()</text><text fill="#000000" font-family="sans-serif" font-size="11" lengthAdjust="spacing" textLength="29" x="554" y="275.2026">pay()</text><text fill="#000000" font-family="sans-serif" font-size="11" lengthAdjust="spacing" textLength="42" x="554" y="288.0073">return()</text><text fill="#000000" font-family="sans-serif" font-size="11" lengthAdjust="spacing" textLength="68" x="554" y="300.812">participate()</text><text fill="#000000" font-family="sans-serif" font-size="11" lengthAdjust="spacing" textLength="37" x="554" y="313.6167">keep()</text><text fill="#000000" font-family="sans-serif" font-size="11" lengthAdjust="spacing" textLength="22" x="554" y="326.4214">go()</text><text fill="#000000" font-family="sans-serif" font-size="11" lengthAdjust="spacing" textLength="31" x="554" y="339.2261">visit()</text><!--MD5=[d342058c8fb6f80e9d50d673c6908241]
class Developer--><rect codeLine="9" fill="#FEFECE" filter="url(#f1f0ruuz8sxi43)" height="78.3828" id="Developer" style="stroke:#A80036;stroke-width:1.5;" width="105" x="567.5" y="10"/><text fill="#000000" font-family="sans-serif" font-size="12" lengthAdjust="spacing" textLength="64" x="570.5" y="26.1387">Developer</text><rect fill="#FFFFFF" height="15.9688" style="stroke:#000000;stroke-width:1.0;stroke-dasharray:2.0,2.0;" width="33" x="642.5" y="7"/><text fill="#000000" font-family="sans-serif" font-size="12" font-style="italic" lengthAdjust="spacing" textLength="31" x="643.5" y="19.1387">actor</text><line style="stroke:#A80036;stroke-width:1.5;" x1="568.5" x2="671.5" y1="33.9688" y2="33.9688"/><line style="stroke:#A80036;stroke-width:1.5;" x1="568.5" x2="671.5" y1="41.9688" y2="41.9688"/><text fill="#000000" font-family="sans-serif" font-size="11" lengthAdjust="spacing" textLength="48" x="573.5" y="56.1792">enable()</text><text fill="#000000" font-family="sans-serif" font-size="11" lengthAdjust="spacing" textLength="37" x="573.5" y="68.9839">allow()</text><text fill="#000000" font-family="sans-serif" font-size="11" lengthAdjust="spacing" textLength="51" x="573.5" y="81.7886">provide()</text><!--MD5=[db6d18d8099558415abc41d00477ab92]
class Admin--><rect codeLine="30" fill="#FEFECE" filter="url(#f1f0ruuz8sxi43)" height="52.7734" id="Admin" style="stroke:#A80036;stroke-width:1.5;" width="78" x="93" y="229"/><text fill="#000000" font-family="sans-serif" font-size="12" lengthAdjust="spacing" textLength="37" x="96" y="245.1387">Admin</text><rect fill="#FFFFFF" height="15.9688" style="stroke:#000000;stroke-width:1.0;stroke-dasharray:2.0,2.0;" width="33" x="141" y="226"/><text fill="#000000" font-family="sans-serif" font-size="12" font-style="italic" lengthAdjust="spacing" textLength="31" x="142" y="238.1387">actor</text><line style="stroke:#A80036;stroke-width:1.5;" x1="94" x2="170" y1="252.9688" y2="252.9688"/><line style="stroke:#A80036;stroke-width:1.5;" x1="94" x2="170" y1="260.9688" y2="260.9688"/><text fill="#000000" font-family="sans-serif" font-size="11" lengthAdjust="spacing" textLength="57" x="99" y="275.1792">maintain()</text><!--MD5=[a4beae97a833d06086bb16d2d2128104]
class Auction--><rect codeLine="26" fill="#FEFECE" filter="url(#f1f0ruuz8sxi43)" height="39.9688" id="Auction" style="stroke:#A80036;stroke-width:1.5;" width="50" x="296" y="566"/><text fill="#000000" font-family="sans-serif" font-size="12" lengthAdjust="spacing" textLength="44" x="299" y="582.1387">Auction</text><line style="stroke:#A80036;stroke-width:1.5;" x1="297" x2="345" y1="589.9688" y2="589.9688"/><line style="stroke:#A80036;stroke-width:1.5;" x1="297" x2="345" y1="597.9688" y2="597.9688"/><!--MD5=[d024bddb254d47e78f99ea0a4101978b]
class Raffle--><rect codeLine="28" fill="#FEFECE" filter="url(#f1f0ruuz8sxi43)" height="39.9688" id="Raffle" style="stroke:#A80036;stroke-width:1.5;" width="39" x="556.5" y="436"/><text fill="#000000" font-family="sans-serif" font-size="12" lengthAdjust="spacing" textLength="33" x="559.5" y="452.1387">Raffle</text><line style="stroke:#A80036;stroke-width:1.5;" x1="557.5" x2="594.5" y1="459.9688" y2="459.9688"/><line style="stroke:#A80036;stroke-width:1.5;" x1="557.5" x2="594.5" y1="467.9688" y2="467.9688"/><!--MD5=[f9a29335b499db729be669fd1bd54958]
class Account--><rect codeLine="33" fill="#FEFECE" filter="url(#f1f0ruuz8sxi43)" height="39.9688" id="Account" style="stroke:#A80036;stroke-width:1.5;" width="54" x="7" y="436"/><text fill="#000000" font-family="sans-serif" font-size="12" lengthAdjust="spacing" textLength="48" x="10" y="452.1387">Account</text><line style="stroke:#A80036;stroke-width:1.5;" x1="8" x2="60" y1="459.9688" y2="459.9688"/><line style="stroke:#A80036;stroke-width:1.5;" x1="8" x2="60" y1="467.9688" y2="467.9688"/><!--MD5=[ecbc73e2c4b6370b2ac356834b2f2e94]
class Bid--><rect codeLine="35" fill="#FEFECE" filter="url(#f1f0ruuz8sxi43)" height="39.9688" id="Bid" style="stroke:#A80036;stroke-width:1.5;" width="25" x="630.5" y="436"/><text fill="#000000" font-family="sans-serif" font-size="12" lengthAdjust="spacing" textLength="19" x="633.5" y="452.1387">Bid</text><line style="stroke:#A80036;stroke-width:1.5;" x1="631.5" x2="654.5" y1="459.9688" y2="459.9688"/><line style="stroke:#A80036;stroke-width:1.5;" x1="631.5" x2="654.5" y1="467.9688" y2="467.9688"/><!--MD5=[945ea4aec4ad1e8e84b7919efb233646]
class PushNotification--><rect codeLine="37" fill="#FEFECE" filter="url(#f1f0ruuz8sxi43)" height="52.7734" id="PushNotification" style="stroke:#A80036;stroke-width:1.5;" width="99" x="745.5" y="22.5"/><text fill="#000000" font-family="sans-serif" font-size="12" lengthAdjust="spacing" textLength="93" x="748.5" y="38.6387">PushNotification</text><line style="stroke:#A80036;stroke-width:1.5;" x1="746.5" x2="843.5" y1="46.4688" y2="46.4688"/><line style="stroke:#A80036;stroke-width:1.5;" x1="746.5" x2="843.5" y1="54.4688" y2="54.4688"/><text fill="#000000" font-family="sans-serif" font-size="11" lengthAdjust="spacing" textLength="40" x="751.5" y="68.6792">notify()</text><!--MD5=[44a1b4afaef76c16e6c9ec4990ad0c8d]
class Item--><rect codeLine="40" fill="#FEFECE" filter="url(#f1f0ruuz8sxi43)" height="65.5781" id="Item" style="stroke:#A80036;stroke-width:1.5;" width="41" x="307.5" y="423"/><text fill="#000000" font-family="sans-serif" font-size="12" lengthAdjust="spacing" textLength="26" x="315" y="439.1387">Item</text><line style="stroke:#A80036;stroke-width:1.5;" x1="308.5" x2="347.5" y1="446.9688" y2="446.9688"/><line style="stroke:#A80036;stroke-width:1.5;" x1="308.5" x2="347.5" y1="454.9688" y2="454.9688"/><text fill="#000000" font-family="sans-serif" font-size="11" lengthAdjust="spacing" textLength="27" x="313.5" y="469.1792">win()</text><text fill="#000000" font-family="sans-serif" font-size="11" lengthAdjust="spacing" textLength="29" x="313.5" y="481.9839">use()</text><!--MD5=[ed3afe56f065d25b4329669e73deaf58]
class Database--><rect codeLine="44" fill="#FEFECE" filter="url(#f1f0ruuz8sxi43)" height="39.9688" id="Database" style="stroke:#A80036;stroke-width:1.5;" width="63" x="100.5" y="436"/><text fill="#000000" font-family="sans-serif" font-size="12" lengthAdjust="spacing" textLength="57" x="103.5" y="452.1387">Database</text><line style="stroke:#A80036;stroke-width:1.5;" x1="101.5" x2="162.5" y1="459.9688" y2="459.9688"/><line style="stroke:#A80036;stroke-width:1.5;" x1="101.5" x2="162.5" y1="467.9688" y2="467.9688"/><!--MD5=[43d3c0ba1d3b9c6f5e40c8769cc5b343]
class Source--><rect codeLine="46" fill="#FEFECE" filter="url(#f1f0ruuz8sxi43)" height="39.9688" id="Source" style="stroke:#A80036;stroke-width:1.5;" width="49" x="381.5" y="566"/><text fill="#000000" font-family="sans-serif" font-size="12" lengthAdjust="spacing" textLength="43" x="384.5" y="582.1387">Source</text><line style="stroke:#A80036;stroke-width:1.5;" x1="382.5" x2="429.5" y1="589.9688" y2="589.9688"/><line style="stroke:#A80036;stroke-width:1.5;" x1="382.5" x2="429.5" y1="597.9688" y2="597.9688"/><!--MD5=[e1e79fb7675434802d8a5d105105c07e]
class LoginSystem--><rect codeLine="48" fill="#FEFECE" filter="url(#f1f0ruuz8sxi43)" height="39.9688" id="LoginSystem" style="stroke:#A80036;stroke-width:1.5;" width="83" x="663.5" y="235.5"/><text fill="#000000" font-family="sans-serif" font-size="12" lengthAdjust="spacing" textLength="77" x="666.5" y="251.6387">LoginSystem</text><line style="stroke:#A80036;stroke-width:1.5;" x1="664.5" x2="745.5" y1="259.4688" y2="259.4688"/><line style="stroke:#A80036;stroke-width:1.5;" x1="664.5" x2="745.5" y1="267.4688" y2="267.4688"/><!--MD5=[3b034ebaa87c9ec5e8fb5410143f628f]
class Track--><rect codeLine="50" fill="#FEFECE" filter="url(#f1f0ruuz8sxi43)" height="39.9688" id="Track" style="stroke:#A80036;stroke-width:1.5;" width="39" x="715.5" y="436"/><text fill="#000000" font-family="sans-serif" font-size="12" lengthAdjust="spacing" textLength="33" x="718.5" y="452.1387">Track</text><line style="stroke:#A80036;stroke-width:1.5;" x1="716.5" x2="753.5" y1="459.9688" y2="459.9688"/><line style="stroke:#A80036;stroke-width:1.5;" x1="716.5" x2="753.5" y1="467.9688" y2="467.9688"/><!--MD5=[72136138052d025cffdce3c22fbd185f]
class Product--><rect codeLine="52" fill="#FEFECE" filter="url(#f1f0ruuz8sxi43)" height="52.7734" id="Product" style="stroke:#A80036;stroke-width:1.5;" width="72" x="880" y="22.5"/><text fill="#000000" font-family="sans-serif" font-size="12" lengthAdjust="spacing" textLength="45" x="893.5" y="38.6387">Product</text><line style="stroke:#A80036;stroke-width:1.5;" x1="881" x2="951" y1="46.4688" y2="46.4688"/><line style="stroke:#A80036;stroke-width:1.5;" x1="881" x2="951" y1="54.4688" y2="54.4688"/><text fill="#000000" font-family="sans-serif" font-size="11" lengthAdjust="spacing" textLength="60" x="886" y="68.6792">purchase()</text><!--MD5=[4b8d3a1a41ef70ac94b1f924d93da636]
class DescriptionStory--><rect codeLine="55" fill="#FEFECE" filter="url(#f1f0ruuz8sxi43)" height="39.9688" id="DescriptionStory" style="stroke:#A80036;stroke-width:1.5;" width="107" x="789.5" y="436"/><text fill="#000000" font-family="sans-serif" font-size="12" lengthAdjust="spacing" textLength="101" x="792.5" y="452.1387">DescriptionStory</text><line style="stroke:#A80036;stroke-width:1.5;" x1="790.5" x2="895.5" y1="459.9688" y2="459.9688"/><line style="stroke:#A80036;stroke-width:1.5;" x1="790.5" x2="895.5" y1="467.9688" y2="467.9688"/><!--MD5=[b8198f8fbe707aa7c65b1598e49c1d3e]
class Story--><rect codeLine="57" fill="#FEFECE" filter="url(#f1f0ruuz8sxi43)" height="39.9688" id="Story" style="stroke:#A80036;stroke-width:1.5;" width="38" x="943" y="436"/><text fill="#000000" font-family="sans-serif" font-size="12" lengthAdjust="spacing" textLength="32" x="946" y="452.1387">Story</text><line style="stroke:#A80036;stroke-width:1.5;" x1="944" x2="980" y1="459.9688" y2="459.9688"/><line style="stroke:#A80036;stroke-width:1.5;" x1="944" x2="980" y1="467.9688" y2="467.9688"/><!--MD5=[33ae7c9fddac52a75b546961b7f24f14]
link Admin to Account--><path codeLine="59" d="M115.315,282.381 C100.4314,306.128 78.6384,342.585 63,376 C54.5814,393.988 46.9264,415.148 41.5978,431.039 " fill="none" id="Admin-to-Account" style="stroke:#A80036;stroke-width:1.0;"/><polygon fill="#A80036" points="40.0205,435.793,46.6508,428.5102,41.5948,431.0473,39.0577,425.9913,40.0205,435.793" style="stroke:#A80036;stroke-width:1.0;"/><text fill="#000000" font-family="sans-serif" font-size="13" lengthAdjust="spacing" textLength="56" x="64" y="389.0669">maintain</text><!--MD5=[53a588df3f5f0f7f452d1b4562b14650]
link User to Item--><path codeLine="60" d="M547.665,261.366 C487.117,271.082 374.557,299.05 325,376 C317.19,388.127 316.298,403.611 317.96,417.652 " fill="none" id="User-to-Item" style="stroke:#A80036;stroke-width:1.0;"/><polygon fill="#A80036" points="318.68,422.751,321.3835,413.2805,317.9815,417.8,313.4619,414.3981,318.68,422.751" style="stroke:#A80036;stroke-width:1.0;"/><text fill="#000000" font-family="sans-serif" font-size="13" lengthAdjust="spacing" textLength="26" x="326" y="389.0669">visit</text><!--MD5=[53a588df3f5f0f7f452d1b4562b14650]
link User to Item--><path codeLine="71" d="M547.678,276.122 C506.321,297.365 441.375,333.908 393,376 C377.813,389.214 363.332,406.213 351.91,421.056 " fill="none" id="User-to-Item-1" style="stroke:#A80036;stroke-width:1.0;"/><polygon fill="#A80036" points="348.771,425.18,357.4051,420.4415,351.7995,421.2015,351.0395,415.596,348.771,425.18" style="stroke:#A80036;stroke-width:1.0;"/><text fill="#000000" font-family="sans-serif" font-size="13" lengthAdjust="spacing" textLength="30" x="394" y="389.0669">view</text><!--MD5=[f20c5b094abcab7a5f6b28663b6ace94]
link User to Auction--><path codeLine="61" d="M547.759,309.379 C523.884,341.57 493.581,383.895 469,423 C438.514,471.499 447.18,495.169 407,536 C398.316,544.8249 372.159,559.2406 350.952,570.1568 " fill="none" id="User-to-Auction" style="stroke:#A80036;stroke-width:1.0;"/><polygon fill="#A80036" points="346.234,572.5696,356.0682,572.0319,350.6854,570.2925,352.4248,564.9097,346.234,572.5696" style="stroke:#A80036;stroke-width:1.0;"/><text fill="#000000" font-family="sans-serif" font-size="13" lengthAdjust="spacing" textLength="68" x="470" y="460.5669">participate</text><!--MD5=[11d85d570c1111b5dcf44dfac3740e81]
link User to DescriptionStory--><path codeLine="62" d="M628.279,329.533 C633.657,335.671 639.566,341.31 646,346 C687.297,376.102 712.238,351.344 757,376 C783.085,390.368 807.55,414.258 823.665,432.011 " fill="none" id="User-to-DescriptionStory" style="stroke:#A80036;stroke-width:1.0;"/><polygon fill="#A80036" points="827.176,435.927,824.1472,426.5554,823.8386,432.2039,818.1902,431.8953,827.176,435.927" style="stroke:#A80036;stroke-width:1.0;"/><text fill="#000000" font-family="sans-serif" font-size="13" lengthAdjust="spacing" textLength="88" x="782" y="389.0669">supported_by</text><!--MD5=[0c33994447a5a115d17347b31ff58a4b]
link Admin to Item--><path codeLine="63" d="M145.603,282.257 C162.017,311.609 191.835,359.8 227,393 C249.766,414.494 281.155,432.343 302.871,443.284 " fill="none" id="Admin-to-Item" style="stroke:#A80036;stroke-width:1.0;"/><polygon fill="#A80036" points="307.352,445.513,301.0755,437.9232,302.8753,443.2861,297.5124,445.0859,307.352,445.513" style="stroke:#A80036;stroke-width:1.0;"/><text fill="#000000" font-family="sans-serif" font-size="13" lengthAdjust="spacing" textLength="56" x="228" y="389.0669">maintain</text><!--MD5=[9b3225193b6386674c8a141945291f2c]
link Item to Source--><path codeLine="64" d="M347.683,489.3 C361.361,511.7459 379.28,541.1518 391.626,561.4127 " fill="none" id="Item-to-Source" style="stroke:#A80036;stroke-width:1.0;"/><polygon fill="#A80036" points="394.328,565.8458,393.0593,556.079,391.7256,561.5764,386.2282,560.2428,394.328,565.8458" style="stroke:#A80036;stroke-width:1.0;"/><text fill="#000000" font-family="sans-serif" font-size="13" lengthAdjust="spacing" textLength="23" x="375" y="532.0669">use</text><!--MD5=[cc80b15a1005322d35f5aa76e49edf09]
link Developer to User--><path codeLine="65" d="M567.326,84.776 C557.066,94.239 547.728,105.408 542,118 C531.705,140.633 536.346,166.276 545.874,189.176 " fill="none" id="Developer-to-User" style="stroke:#A80036;stroke-width:1.0;"/><polygon fill="#A80036" points="547.978,194.019,548.0631,184.1705,545.9869,189.4326,540.7248,187.3563,547.978,194.019" style="stroke:#A80036;stroke-width:1.0;"/><text fill="#000000" font-family="sans-serif" font-size="13" lengthAdjust="spacing" textLength="33" x="543" y="131.0669">allow</text><!--MD5=[cc80b15a1005322d35f5aa76e49edf09]
link Developer to User--><path codeLine="73" d="M613.981,88.465 C610.807,108.749 606.761,134.608 602.811,159.847 " fill="none" id="Developer-to-User-1" style="stroke:#A80036;stroke-width:1.0;"/><polygon fill="#A80036" points="602.023,164.885,607.366,156.6114,602.7958,159.9451,599.4622,155.3749,602.023,164.885" style="stroke:#A80036;stroke-width:1.0;"/><text fill="#000000" font-family="sans-serif" font-size="13" lengthAdjust="spacing" textLength="43" x="610" y="131.0669">enable</text><!--MD5=[fa756ca6ad206b3ce3bc19c87737ddb8]
link Item to Auction--><path codeLine="66" d="M326.234,489.3 C325.022,511.463 323.438,540.4116 322.332,560.6422 " fill="none" id="Item-to-Auction" style="stroke:#A80036;stroke-width:1.0;"/><polygon fill="#A80036" points="322.047,565.8458,326.5327,557.0777,322.3201,560.8533,318.5446,556.6407,322.047,565.8458" style="stroke:#A80036;stroke-width:1.0;"/><text fill="#000000" font-family="sans-serif" font-size="13" lengthAdjust="spacing" textLength="22" x="326" y="532.0669">win</text><!--MD5=[313cb6e70a103f8561f87d75f55657ef]
reverse link User to Bid--><path codeLine="67" d="M616.357,358.844 C624.558,388.441 632.657,417.671 637.733,435.992 " fill="none" id="User-backto-Bid" style="stroke:#A80036;stroke-width:1.0;"/><polygon fill="#FFFFFF" points="612.845,346.168,610.5924,353.0182,616.0492,357.7323,618.3019,350.8821,612.845,346.168" style="stroke:#A80036;stroke-width:1.0;"/><text fill="#000000" font-family="sans-serif" font-size="13" lengthAdjust="spacing" textLength="68" x="627" y="389.0669">participate</text><!--MD5=[caa6320277df905ac55ee668020bc92e]
link Developer to LoginSystem--><path codeLine="68" d="M645.927,88.275 C651.692,97.741 657.438,108.032 662,118 C679.327,155.858 692.395,202.639 699.355,230.442 " fill="none" id="Developer-to-LoginSystem" style="stroke:#A80036;stroke-width:1.0;"/><polygon fill="#A80036" points="700.583,235.406,702.3036,225.7086,699.3818,230.5524,694.5379,227.6306,700.583,235.406" style="stroke:#A80036;stroke-width:1.0;"/><text fill="#000000" font-family="sans-serif" font-size="13" lengthAdjust="spacing" textLength="48" x="670" y="131.0669">provide</text><!--MD5=[b54eb46c4cab57f99595fd06a7b39772]
link User to Raffle--><path codeLine="69" d="M547.976,325.642 C540.545,341.678 533.9,359.031 530,376 C525.051,397.531 539.085,419.005 552.921,434.118 " fill="none" id="User-to-Raffle" style="stroke:#A80036;stroke-width:1.0;"/><polygon fill="#A80036" points="556.423,437.819,553.1433,428.5323,552.9867,434.1869,547.332,434.0303,556.423,437.819" style="stroke:#A80036;stroke-width:1.0;"/><text fill="#000000" font-family="sans-serif" font-size="13" lengthAdjust="spacing" textLength="68" x="531" y="389.0669">participate</text><!--MD5=[01e696e664f9b9f28ca355e1d9842332]
link User to Story--><path codeLine="70" d="M628.033,330.877 C633.437,336.664 639.419,341.857 646,346 C734.355,401.631 784.73,331.114 879,376 C905.717,388.721 929.409,413.331 944.571,431.719 " fill="none" id="User-to-Story" style="stroke:#A80036;stroke-width:1.0;"/><polygon fill="#A80036" points="947.862,435.777,945.2982,426.2677,944.7119,431.8941,939.0856,431.3078,947.862,435.777" style="stroke:#A80036;stroke-width:1.0;"/><text fill="#000000" font-family="sans-serif" font-size="13" lengthAdjust="spacing" textLength="88" x="907" y="389.0669">supported_by</text><!--MD5=[3170249d767cedec358057fed54079b4]
link PushNotification to User--><path codeLine="72" d="M779.756,75.816 C767.56,94.511 748.91,119.18 727,135 C695.876,157.474 675.965,141.003 646,165 C640.933,169.058 636.165,173.684 631.711,178.645 " fill="none" id="PushNotification-to-User" style="stroke:#A80036;stroke-width:1.0;"/><polygon fill="#A80036" points="628.366,182.5,637.2853,178.3231,631.6426,178.7233,631.2425,173.0806,628.366,182.5" style="stroke:#A80036;stroke-width:1.0;"/><text fill="#000000" font-family="sans-serif" font-size="13" lengthAdjust="spacing" textLength="37" x="746" y="131.0669">notify</text><!--MD5=[250b7f4159edd758a3fb2644dc1f4a4c]
link User to Track--><path codeLine="74" d="M628.318,326.819 C633.776,333.724 639.691,340.279 646,346 C667.499,365.496 684.566,354.445 704,376 C717.858,391.371 725.842,413.659 730.225,430.645 " fill="none" id="User-to-Track" style="stroke:#A80036;stroke-width:1.0;"/><polygon fill="#A80036" points="731.472,435.733,733.2148,426.0396,730.2819,430.8767,725.4447,427.9438,731.472,435.733" style="stroke:#A80036;stroke-width:1.0;"/><text fill="#000000" font-family="sans-serif" font-size="13" lengthAdjust="spacing" textLength="31" x="717" y="389.0669">keep</text><!--MD5=[9ffb623563958c437f43103b0bfab89b]
link Admin to Database--><path codeLine="75" d="M130.73,282.162 C129.538,309.597 128.066,354.374 129,393 C129.3,405.426 129.939,419.24 130.55,430.669 " fill="none" id="Admin-to-Database" style="stroke:#A80036;stroke-width:1.0;"/><polygon fill="#A80036" points="130.828,435.739,134.3309,426.5341,130.5552,430.7464,126.3428,426.9707,130.828,435.739" style="stroke:#A80036;stroke-width:1.0;"/><text fill="#000000" font-family="sans-serif" font-size="13" lengthAdjust="spacing" textLength="56" x="130" y="389.0669">maintain</text><!--MD5=[448939fd73e68d7cef946dca714cb70f]
@startuml
hide circle
class User<actor> {
	bidding
}
class Developer<actor> {
}
class Admin<actor> {
}
class Developer {
	enable()
	allow()
	provide()
}
class User {
	make()
	search()
	view()
	place()
	pay()
	return()
	participate()
	keep()
	go()
	visit()
}
class Auction {
}
class Raffle {
}
class Admin {
	maintain()
}
class Account {
}
class Bid {
}
class PushNotification {
	notify()
}
class Item {
	win()
	use()
}
class Database {
}
class Source {
}
class LoginSystem {
}
class Track {
}
class Product {
	purchase()
}
class DescriptionStory {
}
class Story {
}
Admin - -> Account : maintain
User - -> Item : visit
User - -> Auction : participate
User - -> DescriptionStory : supported_by
Admin - -> Item : maintain
Item - -> Source : use
Developer - -> User : allow
Item - -> Auction : win
User o- - Bid : participate
Developer - -> LoginSystem : provide
User - -> Raffle : participate
User - -> Story : supported_by
User - -> Item : view
PushNotification - -> User : notify
Developer - -> User : enable
User - -> Track : keep
Admin - -> Database : maintain
@enduml

PlantUML version 1.2021.10beta5(Unknown compile time)
(GPL source distribution)
Java Runtime: Java(TM) SE Runtime Environment
JVM: Java HotSpot(TM) 64-Bit Server VM
Default Encoding: UTF-8
Language: en
Country: US
--></g></svg>