<?xml version="1.0" encoding="UTF-8" standalone="no"?><svg xmlns="http://www.w3.org/2000/svg" xmlns:xlink="http://www.w3.org/1999/xlink" contentScriptType="application/ecmascript" contentStyleType="text/css" height="849px" preserveAspectRatio="none" style="width:1633px;height:849px;background:#FFFFFF;" version="1.1" viewBox="0 0 1633 849" width="1633px" zoomAndPan="magnify"><defs><filter height="300%" id="flr7sly4dfuac" width="300%" x="-1" y="-1"><feGaussianBlur result="blurOut" stdDeviation="2.0"/><feColorMatrix in="blurOut" result="blurOut2" type="matrix" values="0 0 0 0 0 0 0 0 0 0 0 0 0 0 0 0 0 0 .4 0"/><feOffset dx="4.0" dy="4.0" in="blurOut2" result="blurOut3"/><feBlend in="SourceGraphic" in2="blurOut3" mode="normal"/></filter></defs><g><!--MD5=[3fd616f346a44cd59a91eb10b19e157c]
class User--><rect codeLine="33" fill="#FEFECE" filter="url(#flr7sly4dfuac)" height="321.6719" id="User" style="stroke:#A80036;stroke-width:1.5;" width="129" x="455.5" y="10"/><text fill="#000000" font-family="sans-serif" font-size="12" lengthAdjust="spacing" textLength="29" x="488" y="26.1387">User</text><rect fill="#FFFFFF" height="15.9688" style="stroke:#000000;stroke-width:1.0;stroke-dasharray:2.0,2.0;" width="33" x="554.5" y="7"/><text fill="#000000" font-family="sans-serif" font-size="12" font-style="italic" lengthAdjust="spacing" textLength="31" x="555.5" y="19.1387">actor</text><line style="stroke:#A80036;stroke-width:1.5;" x1="456.5" x2="583.5" y1="33.9688" y2="33.9688"/><text fill="#000000" font-family="sans-serif" font-size="11" lengthAdjust="spacing" textLength="36" x="461.5" y="48.1792">profile</text><text fill="#000000" font-family="sans-serif" font-size="11" lengthAdjust="spacing" textLength="44" x="461.5" y="60.9839">account</text><text fill="#000000" font-family="sans-serif" font-size="11" lengthAdjust="spacing" textLength="117" x="461.5" y="73.7886">linkedinProfilePicture</text><text fill="#000000" font-family="sans-serif" font-size="11" lengthAdjust="spacing" textLength="44" x="461.5" y="86.5933">interest</text><text fill="#000000" font-family="sans-serif" font-size="11" lengthAdjust="spacing" textLength="36" x="461.5" y="99.3979">media</text><text fill="#000000" font-family="sans-serif" font-size="11" lengthAdjust="spacing" textLength="74" x="461.5" y="112.2026">profilePicture</text><text fill="#000000" font-family="sans-serif" font-size="11" lengthAdjust="spacing" textLength="44" x="461.5" y="125.0073">resume</text><text fill="#000000" font-family="sans-serif" font-size="11" lengthAdjust="spacing" textLength="64" x="461.5" y="137.812">information</text><line style="stroke:#A80036;stroke-width:1.5;" x1="456.5" x2="583.5" y1="144.4063" y2="144.4063"/><text fill="#000000" font-family="sans-serif" font-size="11" lengthAdjust="spacing" textLength="41" x="461.5" y="158.6167">log_in()</text><text fill="#000000" font-family="sans-serif" font-size="11" lengthAdjust="spacing" textLength="29" x="461.5" y="171.4214">sort()</text><text fill="#000000" font-family="sans-serif" font-size="11" lengthAdjust="spacing" textLength="44" x="461.5" y="184.2261">author()</text><text fill="#000000" font-family="sans-serif" font-size="11" lengthAdjust="spacing" textLength="80" x="461.5" y="197.0308">authenticate()</text><text fill="#000000" font-family="sans-serif" font-size="11" lengthAdjust="spacing" textLength="32" x="461.5" y="209.8354">click()</text><text fill="#000000" font-family="sans-serif" font-size="11" lengthAdjust="spacing" textLength="48" x="461.5" y="222.6401">update()</text><text fill="#000000" font-family="sans-serif" font-size="11" lengthAdjust="spacing" textLength="34" x="461.5" y="235.4448">filter()</text><text fill="#000000" font-family="sans-serif" font-size="11" lengthAdjust="spacing" textLength="49" x="461.5" y="248.2495">disable()</text><text fill="#000000" font-family="sans-serif" font-size="11" lengthAdjust="spacing" textLength="30" x="461.5" y="261.0542">see()</text><text fill="#000000" font-family="sans-serif" font-size="11" lengthAdjust="spacing" textLength="51" x="461.5" y="273.8589">look_up()</text><text fill="#000000" font-family="sans-serif" font-size="11" lengthAdjust="spacing" textLength="29" x="461.5" y="286.6636">find()</text><text fill="#000000" font-family="sans-serif" font-size="11" lengthAdjust="spacing" textLength="38" x="461.5" y="299.4683">trend()</text><text fill="#000000" font-family="sans-serif" font-size="11" lengthAdjust="spacing" textLength="37" x="461.5" y="312.2729">have()</text><text fill="#000000" font-family="sans-serif" font-size="11" lengthAdjust="spacing" textLength="46" x="461.5" y="325.0776">search()</text><!--MD5=[9519312da563c9b60cbd933eb7c20278]
class SystemAdmin--><rect codeLine="22" fill="#FEFECE" filter="url(#flr7sly4dfuac)" height="52.7734" id="SystemAdmin" style="stroke:#A80036;stroke-width:1.5;" width="123" x="1317.5" y="144.5"/><text fill="#000000" font-family="sans-serif" font-size="12" lengthAdjust="spacing" textLength="82" x="1320.5" y="160.6387">SystemAdmin</text><rect fill="#FFFFFF" height="15.9688" style="stroke:#000000;stroke-width:1.0;stroke-dasharray:2.0,2.0;" width="33" x="1410.5" y="141.5"/><text fill="#000000" font-family="sans-serif" font-size="12" font-style="italic" lengthAdjust="spacing" textLength="31" x="1411.5" y="153.6387">actor</text><line style="stroke:#A80036;stroke-width:1.5;" x1="1318.5" x2="1439.5" y1="168.4688" y2="168.4688"/><line style="stroke:#A80036;stroke-width:1.5;" x1="1318.5" x2="1439.5" y1="176.4688" y2="176.4688"/><text fill="#000000" font-family="sans-serif" font-size="11" lengthAdjust="spacing" textLength="55" x="1323.5" y="190.6792">approve()</text><!--MD5=[db6d18d8099558415abc41d00477ab92]
class Admin--><rect codeLine="51" fill="#FEFECE" filter="url(#flr7sly4dfuac)" height="103.9922" id="Admin" style="stroke:#A80036;stroke-width:1.5;" width="78" x="1102" y="119"/><text fill="#000000" font-family="sans-serif" font-size="12" lengthAdjust="spacing" textLength="37" x="1105" y="135.1387">Admin</text><rect fill="#FFFFFF" height="15.9688" style="stroke:#000000;stroke-width:1.0;stroke-dasharray:2.0,2.0;" width="33" x="1150" y="116"/><text fill="#000000" font-family="sans-serif" font-size="12" font-style="italic" lengthAdjust="spacing" textLength="31" x="1151" y="128.1387">actor</text><line style="stroke:#A80036;stroke-width:1.5;" x1="1103" x2="1179" y1="142.9688" y2="142.9688"/><line style="stroke:#A80036;stroke-width:1.5;" x1="1103" x2="1179" y1="150.9688" y2="150.9688"/><text fill="#000000" font-family="sans-serif" font-size="11" lengthAdjust="spacing" textLength="35" x="1108" y="165.1792">login()</text><text fill="#000000" font-family="sans-serif" font-size="11" lengthAdjust="spacing" textLength="55" x="1108" y="177.9839">approve()</text><text fill="#000000" font-family="sans-serif" font-size="11" lengthAdjust="spacing" textLength="62" x="1108" y="190.7886">authorize()</text><text fill="#000000" font-family="sans-serif" font-size="11" lengthAdjust="spacing" textLength="53" x="1108" y="203.5933">remove()</text><text fill="#000000" font-family="sans-serif" font-size="11" lengthAdjust="spacing" textLength="41" x="1108" y="216.3979">reject()</text><!--MD5=[18b89e0834131a909517048318a5909c]
class Picture--><rect codeLine="16" fill="#FEFECE" filter="url(#flr7sly4dfuac)" height="52.7734" id="Picture" style="stroke:#A80036;stroke-width:1.5;" width="58" x="983" y="552"/><text fill="#000000" font-family="sans-serif" font-size="12" lengthAdjust="spacing" textLength="40" x="992" y="568.1387">Picture</text><line style="stroke:#A80036;stroke-width:1.5;" x1="984" x2="1040" y1="575.9688" y2="575.9688"/><line style="stroke:#A80036;stroke-width:1.5;" x1="984" x2="1040" y1="583.9688" y2="583.9688"/><text fill="#000000" font-family="sans-serif" font-size="11" lengthAdjust="spacing" textLength="46" x="989" y="598.1792">upload()</text><!--MD5=[21bc47177812100412265a444b535d59]
class Professor--><rect codeLine="19" fill="#FEFECE" filter="url(#flr7sly4dfuac)" height="52.7734" id="Professor" style="stroke:#A80036;stroke-width:1.5;" width="64" x="7" y="666"/><text fill="#000000" font-family="sans-serif" font-size="12" lengthAdjust="spacing" textLength="58" x="10" y="682.1387">Professor</text><line style="stroke:#A80036;stroke-width:1.5;" x1="8" x2="70" y1="689.9688" y2="689.9688"/><line style="stroke:#A80036;stroke-width:1.5;" x1="8" x2="70" y1="697.9688" y2="697.9688"/><text fill="#000000" font-family="sans-serif" font-size="11" lengthAdjust="spacing" textLength="44" x="13" y="712.1792">author()</text><!--MD5=[0851f84a889f989e7bb0bebc385d0f09]
class Request--><rect codeLine="25" fill="#FEFECE" filter="url(#flr7sly4dfuac)" height="39.9688" id="Request" style="stroke:#A80036;stroke-width:1.5;" width="55" x="1351.5" y="422"/><text fill="#000000" font-family="sans-serif" font-size="12" lengthAdjust="spacing" textLength="49" x="1354.5" y="438.1387">Request</text><line style="stroke:#A80036;stroke-width:1.5;" x1="1352.5" x2="1405.5" y1="445.9688" y2="445.9688"/><line style="stroke:#A80036;stroke-width:1.5;" x1="1352.5" x2="1405.5" y1="453.9688" y2="453.9688"/><!--MD5=[ac13618b1a974308c1f12eb6c57723dc]
class Event--><rect codeLine="27" fill="#FEFECE" filter="url(#flr7sly4dfuac)" height="65.5781" id="Event" style="stroke:#A80036;stroke-width:1.5;" width="50" x="279" y="409"/><text fill="#000000" font-family="sans-serif" font-size="12" lengthAdjust="spacing" textLength="33" x="287.5" y="425.1387">Event</text><line style="stroke:#A80036;stroke-width:1.5;" x1="280" x2="328" y1="432.9688" y2="432.9688"/><line style="stroke:#A80036;stroke-width:1.5;" x1="280" x2="328" y1="440.9688" y2="440.9688"/><text fill="#000000" font-family="sans-serif" font-size="11" lengthAdjust="spacing" textLength="37" x="285" y="455.1792">have()</text><text fill="#000000" font-family="sans-serif" font-size="11" lengthAdjust="spacing" textLength="38" x="285" y="467.9839">trend()</text><!--MD5=[f3d16dc473dc36cf4c83a84ae0cad75f]
class ViewCount--><rect codeLine="31" fill="#FEFECE" filter="url(#flr7sly4dfuac)" height="39.9688" id="ViewCount" style="stroke:#A80036;stroke-width:1.5;" width="69" x="364.5" y="558.5"/><text fill="#000000" font-family="sans-serif" font-size="12" lengthAdjust="spacing" textLength="63" x="367.5" y="574.6387">ViewCount</text><line style="stroke:#A80036;stroke-width:1.5;" x1="365.5" x2="432.5" y1="582.4688" y2="582.4688"/><line style="stroke:#A80036;stroke-width:1.5;" x1="365.5" x2="432.5" y1="590.4688" y2="590.4688"/><!--MD5=[f9a29335b499db729be669fd1bd54958]
class Account--><rect codeLine="49" fill="#FEFECE" filter="url(#flr7sly4dfuac)" height="39.9688" id="Account" style="stroke:#A80036;stroke-width:1.5;" width="54" x="99" y="422"/><text fill="#000000" font-family="sans-serif" font-size="12" lengthAdjust="spacing" textLength="48" x="102" y="438.1387">Account</text><line style="stroke:#A80036;stroke-width:1.5;" x1="100" x2="152" y1="445.9688" y2="445.9688"/><line style="stroke:#A80036;stroke-width:1.5;" x1="100" x2="152" y1="453.9688" y2="453.9688"/><!--MD5=[fd7366e9f96236d9aa60dcc04f2b83e5]
class Content--><rect codeLine="58" fill="#FEFECE" filter="url(#flr7sly4dfuac)" height="39.9688" id="Content" style="stroke:#A80036;stroke-width:1.5;" width="52" x="1261" y="422"/><text fill="#000000" font-family="sans-serif" font-size="12" lengthAdjust="spacing" textLength="46" x="1264" y="438.1387">Content</text><line style="stroke:#A80036;stroke-width:1.5;" x1="1262" x2="1312" y1="445.9688" y2="445.9688"/><line style="stroke:#A80036;stroke-width:1.5;" x1="1262" x2="1312" y1="453.9688" y2="453.9688"/><!--MD5=[99fbc0257732a9f9771663dcb533c304]
class Alumnus--><rect codeLine="60" fill="#FEFECE" filter="url(#flr7sly4dfuac)" height="39.9688" id="Alumnus" style="stroke:#A80036;stroke-width:1.5;" width="56" x="188" y="422"/><text fill="#000000" font-family="sans-serif" font-size="12" lengthAdjust="spacing" textLength="50" x="191" y="438.1387">Alumnus</text><line style="stroke:#A80036;stroke-width:1.5;" x1="189" x2="243" y1="445.9688" y2="445.9688"/><line style="stroke:#A80036;stroke-width:1.5;" x1="189" x2="243" y1="453.9688" y2="453.9688"/><!--MD5=[59b530d44ae785dc18db921986a9c15c]
class Document--><rect codeLine="62" fill="#FEFECE" filter="url(#flr7sly4dfuac)" height="65.5781" id="Document" style="stroke:#A80036;stroke-width:1.5;" width="67" x="788.5" y="409"/><text fill="#000000" font-family="sans-serif" font-size="12" lengthAdjust="spacing" textLength="61" x="791.5" y="425.1387">Document</text><line style="stroke:#A80036;stroke-width:1.5;" x1="789.5" x2="854.5" y1="432.9688" y2="432.9688"/><line style="stroke:#A80036;stroke-width:1.5;" x1="789.5" x2="854.5" y1="440.9688" y2="440.9688"/><text fill="#000000" font-family="sans-serif" font-size="11" lengthAdjust="spacing" textLength="37" x="794.5" y="455.1792">have()</text><text fill="#000000" font-family="sans-serif" font-size="11" lengthAdjust="spacing" textLength="38" x="794.5" y="467.9839">trend()</text><!--MD5=[f572c118330f78587a09a8d1323f8ced]
class Calendar--><rect codeLine="66" fill="#FEFECE" filter="url(#flr7sly4dfuac)" height="39.9688" id="Calendar" style="stroke:#A80036;stroke-width:1.5;" width="59" x="606.5" y="422"/><text fill="#000000" font-family="sans-serif" font-size="12" lengthAdjust="spacing" textLength="53" x="609.5" y="438.1387">Calendar</text><line style="stroke:#A80036;stroke-width:1.5;" x1="607.5" x2="664.5" y1="445.9688" y2="445.9688"/><line style="stroke:#A80036;stroke-width:1.5;" x1="607.5" x2="664.5" y1="453.9688" y2="453.9688"/><!--MD5=[a64a835c3d62471a77f615251fdde58a]
class Position--><rect codeLine="68" fill="#FEFECE" filter="url(#flr7sly4dfuac)" height="39.9688" id="Position" style="stroke:#A80036;stroke-width:1.5;" width="52" x="701" y="422"/><text fill="#000000" font-family="sans-serif" font-size="12" lengthAdjust="spacing" textLength="46" x="704" y="438.1387">Position</text><line style="stroke:#A80036;stroke-width:1.5;" x1="702" x2="752" y1="445.9688" y2="445.9688"/><line style="stroke:#A80036;stroke-width:1.5;" x1="702" x2="752" y1="453.9688" y2="453.9688"/><!--MD5=[cf4d6237fcae255cd2e1656cf84a30e2]
class Order--><rect codeLine="70" fill="#FEFECE" filter="url(#flr7sly4dfuac)" height="39.9688" id="Order" style="stroke:#A80036;stroke-width:1.5;" width="42" x="891" y="422"/><text fill="#000000" font-family="sans-serif" font-size="12" lengthAdjust="spacing" textLength="36" x="894" y="438.1387">Order</text><line style="stroke:#A80036;stroke-width:1.5;" x1="892" x2="932" y1="445.9688" y2="445.9688"/><line style="stroke:#A80036;stroke-width:1.5;" x1="892" x2="932" y1="453.9688" y2="453.9688"/><!--MD5=[d6181cb537bdc20c0a3007a98a56832d]
class Student--><rect codeLine="72" fill="#FEFECE" filter="url(#flr7sly4dfuac)" height="52.7734" id="Student" style="stroke:#A80036;stroke-width:1.5;" width="56" x="106" y="666"/><text fill="#000000" font-family="sans-serif" font-size="12" lengthAdjust="spacing" textLength="46" x="111" y="682.1387">Student</text><line style="stroke:#A80036;stroke-width:1.5;" x1="107" x2="161" y1="689.9688" y2="689.9688"/><line style="stroke:#A80036;stroke-width:1.5;" x1="107" x2="161" y1="697.9688" y2="697.9688"/><text fill="#000000" font-family="sans-serif" font-size="11" lengthAdjust="spacing" textLength="44" x="112" y="712.1792">author()</text><!--MD5=[fd5b4f13a6c28069687f581866a189b5]
class Papers--><rect codeLine="75" fill="#FEFECE" filter="url(#flr7sly4dfuac)" height="39.9688" id="Papers" style="stroke:#A80036;stroke-width:1.5;" width="47" x="65.5" y="796"/><text fill="#000000" font-family="sans-serif" font-size="12" lengthAdjust="spacing" textLength="41" x="68.5" y="812.1387">Papers</text><line style="stroke:#A80036;stroke-width:1.5;" x1="66.5" x2="111.5" y1="819.9688" y2="819.9688"/><line style="stroke:#A80036;stroke-width:1.5;" x1="66.5" x2="111.5" y1="827.9688" y2="827.9688"/><!--MD5=[7b57f7066b803747d2119f99dd1555d4]
class Profile--><rect codeLine="77" fill="#FEFECE" filter="url(#flr7sly4dfuac)" height="39.9688" id="Profile" style="stroke:#A80036;stroke-width:1.5;" width="43" x="990.5" y="422"/><text fill="#000000" font-family="sans-serif" font-size="12" lengthAdjust="spacing" textLength="37" x="993.5" y="438.1387">Profile</text><line style="stroke:#A80036;stroke-width:1.5;" x1="991.5" x2="1032.5" y1="445.9688" y2="445.9688"/><line style="stroke:#A80036;stroke-width:1.5;" x1="991.5" x2="1032.5" y1="453.9688" y2="453.9688"/><!--MD5=[9d93cc8568a88ed605ddd50c0dd874e2]
class Media--><rect codeLine="79" fill="#FEFECE" filter="url(#flr7sly4dfuac)" height="65.5781" id="Media" style="stroke:#A80036;stroke-width:1.5;" width="49" x="14.5" y="409"/><text fill="#000000" font-family="sans-serif" font-size="12" lengthAdjust="spacing" textLength="36" x="21" y="425.1387">Media</text><line style="stroke:#A80036;stroke-width:1.5;" x1="15.5" x2="62.5" y1="432.9688" y2="432.9688"/><line style="stroke:#A80036;stroke-width:1.5;" x1="15.5" x2="62.5" y1="440.9688" y2="440.9688"/><text fill="#000000" font-family="sans-serif" font-size="11" lengthAdjust="spacing" textLength="37" x="20.5" y="455.1792">keep()</text><text fill="#000000" font-family="sans-serif" font-size="11" lengthAdjust="spacing" textLength="37" x="20.5" y="467.9839">have()</text><!--MD5=[2ec01a623eca64bb107b03d3c92ed8e1]
class Csse--><rect codeLine="83" fill="#FEFECE" filter="url(#flr7sly4dfuac)" height="39.9688" id="Csse" style="stroke:#A80036;stroke-width:1.5;" width="36" x="21" y="558.5"/><text fill="#000000" font-family="sans-serif" font-size="12" lengthAdjust="spacing" textLength="30" x="24" y="574.6387">Csse</text><line style="stroke:#A80036;stroke-width:1.5;" x1="22" x2="56" y1="582.4688" y2="582.4688"/><line style="stroke:#A80036;stroke-width:1.5;" x1="22" x2="56" y1="590.4688" y2="590.4688"/><!--MD5=[6b68c170fd0f2fe0d96a3a05e78fe460]
class Resume--><rect codeLine="85" fill="#FEFECE" filter="url(#flr7sly4dfuac)" height="52.7734" id="Resume" style="stroke:#A80036;stroke-width:1.5;" width="60" x="1476" y="144.5"/><text fill="#000000" font-family="sans-serif" font-size="12" lengthAdjust="spacing" textLength="48" x="1482" y="160.6387">Resume</text><line style="stroke:#A80036;stroke-width:1.5;" x1="1477" x2="1535" y1="168.4688" y2="168.4688"/><line style="stroke:#A80036;stroke-width:1.5;" x1="1477" x2="1535" y1="176.4688" y2="176.4688"/><text fill="#000000" font-family="sans-serif" font-size="11" lengthAdjust="spacing" textLength="48" x="1482" y="190.6792">update()</text><!--MD5=[3004c4c4227775b76e79e426d01396e8]
class ResearchPapers--><rect codeLine="88" fill="#FEFECE" filter="url(#flr7sly4dfuac)" height="52.7734" id="ResearchPapers" style="stroke:#A80036;stroke-width:1.5;" width="103" x="468.5" y="415.5"/><text fill="#000000" font-family="sans-serif" font-size="12" lengthAdjust="spacing" textLength="97" x="471.5" y="431.6387">ResearchPapers</text><line style="stroke:#A80036;stroke-width:1.5;" x1="469.5" x2="570.5" y1="439.4688" y2="439.4688"/><line style="stroke:#A80036;stroke-width:1.5;" x1="469.5" x2="570.5" y1="447.4688" y2="447.4688"/><text fill="#000000" font-family="sans-serif" font-size="11" lengthAdjust="spacing" textLength="30" x="474.5" y="461.6792">see()</text><!--MD5=[f5ea1f64bc04260f09f32845b6b2c213]
class Portal--><rect codeLine="91" fill="#FEFECE" filter="url(#flr7sly4dfuac)" height="52.7734" id="Portal" style="stroke:#A80036;stroke-width:1.5;" width="41" x="1571.5" y="144.5"/><text fill="#000000" font-family="sans-serif" font-size="12" lengthAdjust="spacing" textLength="33" x="1575.5" y="160.6387">Portal</text><line style="stroke:#A80036;stroke-width:1.5;" x1="1572.5" x2="1611.5" y1="168.4688" y2="168.4688"/><line style="stroke:#A80036;stroke-width:1.5;" x1="1572.5" x2="1611.5" y1="176.4688" y2="176.4688"/><text fill="#000000" font-family="sans-serif" font-size="11" lengthAdjust="spacing" textLength="29" x="1577.5" y="190.6792">use()</text><!--MD5=[27f2b114121e060bc210878a9b990693]
class LinkedIn--><rect codeLine="94" fill="#FEFECE" filter="url(#flr7sly4dfuac)" height="39.9688" id="LinkedIn" style="stroke:#A80036;stroke-width:1.5;" width="55" x="1564.5" y="422"/><text fill="#000000" font-family="sans-serif" font-size="12" lengthAdjust="spacing" textLength="49" x="1567.5" y="438.1387">LinkedIn</text><line style="stroke:#A80036;stroke-width:1.5;" x1="1565.5" x2="1618.5" y1="445.9688" y2="445.9688"/><line style="stroke:#A80036;stroke-width:1.5;" x1="1565.5" x2="1618.5" y1="453.9688" y2="453.9688"/><!--MD5=[964ddf863bfce31c2c4fb45b4aa12346]
link User to ViewCount--><path codeLine="96" d="M455.487,301.091 C440.678,335.427 426.508,372.998 417,409 C403.737,459.22 400.207,520.316 399.293,553.399 " fill="none" id="User-to-ViewCount" style="stroke:#A80036;stroke-width:1.0;"/><polygon fill="#A80036" points="399.167,558.462,403.3895,549.5642,399.2913,553.4635,395.3919,549.3654,399.167,558.462" style="stroke:#A80036;stroke-width:1.0;"/><text fill="#000000" font-family="sans-serif" font-size="13" lengthAdjust="spacing" textLength="32" x="418" y="446.5669">have</text><!--MD5=[ffbfde574bb7ae168ad208d635d3b889]
link Admin to Content--><path codeLine="97" d="M1168.81,223.23 C1200.42,281.473 1250.67,374.061 1274.14,417.3 " fill="none" id="Admin-to-Content" style="stroke:#A80036;stroke-width:1.0;"/><polygon fill="#A80036" points="1276.59,421.826,1275.819,412.0074,1274.2078,417.4299,1268.7853,415.8188,1276.59,421.826" style="stroke:#A80036;stroke-width:1.0;"/><text fill="#000000" font-family="sans-serif" font-size="13" lengthAdjust="spacing" textLength="50" x="1253" y="375.0669">remove</text><!--MD5=[c8ecc96e049822d047e1e20cd7f62a56]
reverse link User to Account--><path codeLine="98" d="M443.729,212.582 C378.906,248.458 284.605,303.978 209,362 C184.854,380.53 159.923,405.129 143.77,421.924 " fill="none" id="User-backto-Account" style="stroke:#A80036;stroke-width:1.0;"/><polygon fill="#FFFFFF" points="455.479,206.116,448.2939,205.5046,444.966,211.9019,452.1511,212.5133,455.479,206.116" style="stroke:#A80036;stroke-width:1.0;"/><text fill="#000000" font-family="sans-serif" font-size="13" lengthAdjust="spacing" textLength="45" x="210" y="375.0669">disable</text><!--MD5=[d72d85c617b7da5cdfe749ca1b11ab7a]
link User to Alumnus--><path codeLine="99" d="M455.302,216.712 C404.788,253.064 334.158,307.149 279,362 C261.718,379.186 244.638,400.987 232.631,417.331 " fill="none" id="User-to-Alumnus" style="stroke:#A80036;stroke-width:1.0;"/><polygon fill="#A80036" points="229.383,421.788,237.9163,416.8705,232.3279,417.7472,231.4511,412.1587,229.383,421.788" style="stroke:#A80036;stroke-width:1.0;"/><text fill="#000000" font-family="sans-serif" font-size="13" lengthAdjust="spacing" textLength="49" x="280" y="375.0669">look_up</text><!--MD5=[d78fbed77c243871336248e5e701f57e]
link User to ResearchPapers--><path codeLine="100" d="M520,332.363 C520,362.109 520,390.101 520,410.22 " fill="none" id="User-to-ResearchPapers" style="stroke:#A80036;stroke-width:1.0;"/><polygon fill="#A80036" points="520,415.42,524,406.42,520,410.42,516,406.42,520,415.42" style="stroke:#A80036;stroke-width:1.0;"/><text fill="#000000" font-family="sans-serif" font-size="13" lengthAdjust="spacing" textLength="25" x="521" y="375.0669">sort</text><!--MD5=[c6ac01c158124ef578e1979e8d427316]
reverse link User to Profile--><path codeLine="101" d="M596.049,213.58 C710.842,276.342 922.206,391.905 990.271,429.12 " fill="none" id="User-backto-Profile" style="stroke:#A80036;stroke-width:1.0;"/><polygon fill="#FFFFFF" points="584.573,207.305,587.9191,213.6928,595.1025,213.0609,591.7564,206.6731,584.573,207.305" style="stroke:#A80036;stroke-width:1.0;"/><text fill="#000000" font-family="sans-serif" font-size="13" lengthAdjust="spacing" textLength="23" x="895" y="375.0669">see</text><!--MD5=[c6ac01c158124ef578e1979e8d427316]
reverse link User to Profile--><path codeLine="114" d="M596.964,199.591 C681.725,231.826 820.158,290.03 927,362 C952.899,379.446 978.596,404.727 994.842,421.959 " fill="none" id="User-backto-Profile-1" style="stroke:#A80036;stroke-width:1.0;"/><polygon fill="#FFFFFF" points="584.602,194.929,588.8045,200.789,595.83,199.1636,591.6275,193.3036,584.602,194.929" style="stroke:#A80036;stroke-width:1.0;"/><!--MD5=[f8464584a4f2d720983a506184ef1a80]
link Professor to Papers--><path codeLine="102" d="M42.6585,719.05 C45.2643,733.274 49.4843,751.0703 56,766 C59.8768,774.8831 65.3882,783.8849 70.7991,791.7074 " fill="none" id="Professor-to-Papers" style="stroke:#A80036;stroke-width:1.0;"/><polygon fill="#A80036" points="73.7838,795.9236,71.8484,786.2668,70.8949,791.8427,65.3189,790.8891,73.7838,795.9236" style="stroke:#A80036;stroke-width:1.0;"/><text fill="#000000" font-family="sans-serif" font-size="13" lengthAdjust="spacing" textLength="42" x="57" y="762.0669">author</text><!--MD5=[765245b9744207597b6285f87c5157a9]
link User to Calendar--><path codeLine="103" d="M584.614,321.838 C600.575,358.85 615.858,394.291 625.545,416.755 " fill="none" id="User-to-Calendar" style="stroke:#A80036;stroke-width:1.0;"/><polygon fill="#A80036" points="627.645,421.625,627.7541,411.7767,625.6651,417.0337,620.4081,414.9446,627.645,421.625" style="stroke:#A80036;stroke-width:1.0;"/><text fill="#000000" font-family="sans-serif" font-size="13" lengthAdjust="spacing" textLength="29" x="609" y="375.0669">filter</text><!--MD5=[480b0ce421c4a4b48e1ccef8d2524322]
link Portal to LinkedIn--><path codeLine="104" d="M1592,197.793 C1592,249.686 1592,366.063 1592,416.696 " fill="none" id="Portal-to-LinkedIn" style="stroke:#A80036;stroke-width:1.0;"/><polygon fill="#A80036" points="1592,421.962,1596,412.962,1592,416.962,1588,412.962,1592,421.962" style="stroke:#A80036;stroke-width:1.0;"/><text fill="#000000" font-family="sans-serif" font-size="13" lengthAdjust="spacing" textLength="23" x="1593" y="375.0669">use</text><!--MD5=[f7c6b7228bc1f88e06bb3e78f43786b7]
link SystemAdmin to Request--><path codeLine="105" d="M1379,197.793 C1379,249.686 1379,366.063 1379,416.696 " fill="none" id="SystemAdmin-to-Request" style="stroke:#A80036;stroke-width:1.0;"/><polygon fill="#A80036" points="1379,421.962,1383,412.962,1379,416.962,1375,412.962,1379,421.962" style="stroke:#A80036;stroke-width:1.0;"/><text fill="#000000" font-family="sans-serif" font-size="13" lengthAdjust="spacing" textLength="53" x="1380" y="375.0669">approve</text><!--MD5=[29793cb2e6ce1def3d6fecaef4efbf08]
link User to Event--><path codeLine="106" d="M455.196,236.115 C421.17,271.55 380.015,317.339 348,362 C338.55,375.183 329.561,390.593 322.2,404.285 " fill="none" id="User-to-Event" style="stroke:#A80036;stroke-width:1.0;"/><polygon fill="#A80036" points="319.767,408.857,327.5256,402.7903,322.1155,404.4429,320.463,399.0328,319.767,408.857" style="stroke:#A80036;stroke-width:1.0;"/><text fill="#000000" font-family="sans-serif" font-size="13" lengthAdjust="spacing" textLength="23" x="349" y="375.0669">see</text><!--MD5=[bb813e58dcb6d929d30ff5a4a5d12263]
reverse link User to Media--><path codeLine="107" d="M442.837,203.79 C363.041,238.088 236.183,296.644 135,362 C109.254,378.63 82.5328,401.118 63.8398,417.848 " fill="none" id="User-backto-Media" style="stroke:#A80036;stroke-width:1.0;"/><polygon fill="#FFFFFF" points="455.228,198.497,448.139,197.1759,444.1929,203.2115,451.2819,204.5326,455.228,198.497" style="stroke:#A80036;stroke-width:1.0;"/><text fill="#000000" font-family="sans-serif" font-size="13" lengthAdjust="spacing" textLength="45" x="136" y="375.0669">update</text><!--MD5=[215e30600a2d0921b2ed19f712031f74]
link User to Position--><path codeLine="108" d="M584.645,256.007 C627.847,312.15 681.616,382.023 709.06,417.687 " fill="none" id="User-to-Position" style="stroke:#A80036;stroke-width:1.0;"/><polygon fill="#A80036" points="712.274,421.864,709.9568,412.2916,709.2253,417.901,703.6159,417.1695,712.274,421.864" style="stroke:#A80036;stroke-width:1.0;"/><text fill="#000000" font-family="sans-serif" font-size="13" lengthAdjust="spacing" textLength="24" x="678" y="375.0669">find</text><!--MD5=[7ce0c4b758ebd1f3408bd95deedd9c67]
link Admin to Profile--><path codeLine="109" d="M1121.26,223.197 C1104.28,265.714 1078.26,327.367 1051,379 C1044.08,392.104 1035.38,406.125 1027.95,417.513 " fill="none" id="Admin-to-Profile" style="stroke:#A80036;stroke-width:1.0;"/><polygon fill="#A80036" points="1025.07,421.9,1033.3511,416.5686,1027.8125,417.7192,1026.6618,412.1806,1025.07,421.9" style="stroke:#A80036;stroke-width:1.0;"/><text fill="#000000" font-family="sans-serif" font-size="13" lengthAdjust="spacing" textLength="60" x="1061" y="375.0669">authorize</text><!--MD5=[7ce0c4b758ebd1f3408bd95deedd9c67]
link Admin to Profile--><path codeLine="117" d="M1151.52,223.051 C1157.84,267.76 1159.72,332.645 1130,379 C1109.54,410.913 1066.95,427.371 1038.93,435.085 " fill="none" id="Admin-to-Profile-1" style="stroke:#A80036;stroke-width:1.0;"/><polygon fill="#A80036" points="1033.88,436.426,1043.6059,437.9777,1038.7119,435.1405,1041.5491,430.2466,1033.88,436.426" style="stroke:#A80036;stroke-width:1.0;"/><text fill="#000000" font-family="sans-serif" font-size="13" lengthAdjust="spacing" textLength="53" x="1140" y="375.0669">approve</text><!--MD5=[7ce0c4b758ebd1f3408bd95deedd9c67]
link Admin to Profile--><path codeLine="118" d="M1101.88,210.823 C1068.84,246.58 1023.97,302.905 1005,362 C999.328,379.668 1001.568,400.627 1004.961,416.516 " fill="none" id="Admin-to-Profile-2" style="stroke:#A80036;stroke-width:1.0;"/><polygon fill="#A80036" points="1006.147,421.698,1008.0407,412.0329,1005.0327,416.8237,1000.2419,413.8158,1006.147,421.698" style="stroke:#A80036;stroke-width:1.0;"/><text fill="#000000" font-family="sans-serif" font-size="13" lengthAdjust="spacing" textLength="36" x="1006" y="375.0669">reject</text><!--MD5=[2f7ca67174ea2eb0014fcf8d56a39d6b]
reverse link Csse to Professor--><path codeLine="110" d="M39,611.843 C39,628.988 39,649.759 39,665.792 " fill="none" id="Csse-backto-Professor" style="stroke:#A80036;stroke-width:1.0;"/><polygon fill="#FFFFFF" points="39,598.753,35,604.753,39,610.753,43,604.753,39,598.753" style="stroke:#A80036;stroke-width:1.0;"/><!--MD5=[9f87876b319f80c07c6651f71fa9eace]
reverse link Profile to Picture--><path codeLine="111" d="M1012,475.372 C1012,498.818 1012,530.085 1012,551.821 " fill="none" id="Profile-backto-Picture" style="stroke:#A80036;stroke-width:1.0;"/><polygon fill="#FFFFFF" points="1012,462.271,1008,468.271,1012,474.271,1016,468.271,1012,462.271" style="stroke:#A80036;stroke-width:1.0;"/><!--MD5=[5b2a2bdb39cc116e4a78ea074bb38160]
link User to Order--><path codeLine="112" d="M584.751,234.599 C634.681,279.988 707.287,340.008 780,379 C818.275,399.524 834.877,388.194 873,409 C877.944,411.698 882.866,415.061 887.464,418.583 " fill="none" id="User-to-Order" style="stroke:#A80036;stroke-width:1.0;"/><polygon fill="#A80036" points="891.587,421.848,887.0147,413.1248,887.6672,418.7439,882.0481,419.3964,891.587,421.848" style="stroke:#A80036;stroke-width:1.0;"/><text fill="#000000" font-family="sans-serif" font-size="13" lengthAdjust="spacing" textLength="81" x="781" y="375.0669">authenticate</text><!--MD5=[860da135582b81397978f889c73b5334]
link Event to ViewCount--><path codeLine="113" d="M314.873,475.338 C320.744,490.297 328.879,507.845 339,522 C347.673,534.131 359.337,545.655 370.074,555.026 " fill="none" id="Event-to-ViewCount" style="stroke:#A80036;stroke-width:1.0;"/><polygon fill="#A80036" points="373.981,558.379,369.7555,549.4826,370.1864,555.123,364.546,555.5539,373.981,558.379" style="stroke:#A80036;stroke-width:1.0;"/><text fill="#000000" font-family="sans-serif" font-size="13" lengthAdjust="spacing" textLength="32" x="340" y="518.0669">have</text><!--MD5=[95ec0f854f669aad4c162ca67ac3551c]
link Document to ViewCount--><path codeLine="115" d="M788.338,465.595 C782.382,469.043 776.123,472.334 770,475 C654.605,525.237 508.192,557.035 438.862,570.333 " fill="none" id="Document-to-ViewCount" style="stroke:#A80036;stroke-width:1.0;"/><polygon fill="#A80036" points="433.603,571.335,443.1926,573.58,438.5147,570.3992,441.6954,565.7213,433.603,571.335" style="stroke:#A80036;stroke-width:1.0;"/><text fill="#000000" font-family="sans-serif" font-size="13" lengthAdjust="spacing" textLength="32" x="693" y="518.0669">have</text><!--MD5=[8c113d56cfb06f2e9f7a4cf37185420e]
link Student to Papers--><path codeLine="116" d="M124.457,719.267 C116.622,740.4193 105.6093,770.155 97.9435,790.8527 " fill="none" id="Student-to-Papers" style="stroke:#A80036;stroke-width:1.0;"/><polygon fill="#A80036" points="96.1677,795.6472,103.0445,788.5967,97.9043,790.9585,95.5426,785.8182,96.1677,795.6472" style="stroke:#A80036;stroke-width:1.0;"/><text fill="#000000" font-family="sans-serif" font-size="13" lengthAdjust="spacing" textLength="42" x="114" y="762.0669">author</text><!--MD5=[759f087ba8e248219c7731b7c792122c]
link Media to Csse--><path codeLine="119" d="M39,475.216 C39,499.247 39,531.558 39,553.383 " fill="none" id="Media-to-Csse" style="stroke:#A80036;stroke-width:1.0;"/><polygon fill="#A80036" points="39,558.42,43,549.42,39,553.42,35,549.42,39,558.42" style="stroke:#A80036;stroke-width:1.0;"/><text fill="#000000" font-family="sans-serif" font-size="13" lengthAdjust="spacing" textLength="32" x="40" y="518.0669">have</text><!--MD5=[bafc7b0e62127690848aeb8441bbbe4f]
@startuml
hide circle
class User<actor> {
	profile
	account
	linkedinProfilePicture
	interest
	media
	profilePicture
	resume
	information
}
class SystemAdmin<actor> {
}
class Admin<actor> {
}
class Picture {
	upload()
}
class Professor {
	author()
}
class SystemAdmin {
	approve()
}
class Request {
}
class Event {
	have()
	trend()
}
class ViewCount {
}
class User {
	log_in()
	sort()
	author()
	authenticate()
	click()
	update()
	filter()
	disable()
	see()
	look_up()
	find()
	trend()
	have()
	search()
}
class Account {
}
class Admin {
	login()
	approve()
	authorize()
	remove()
	reject()
}
class Content {
}
class Alumnus {
}
class Document {
	have()
	trend()
}
class Calendar {
}
class Position {
}
class Order {
}
class Student {
	author()
}
class Papers {
}
class Profile {
}
class Media {
	keep()
	have()
}
class Csse {
}
class Resume {
	update()
}
class ResearchPapers {
	see()
}
class Portal {
	use()
}
class LinkedIn {
}
User - -> ViewCount : have
Admin - -> Content : remove
User o- - Account : disable
User - -> Alumnus : look_up
User - -> ResearchPapers : sort
User o- - Profile : see
Professor - -> Papers : author
User - -> Calendar : filter
Portal - -> LinkedIn : use
SystemAdmin - -> Request : approve
User - -> Event : see
User o- - Media : update
User - -> Position : find
Admin - -> Profile : authorize
Csse o- - Professor
Profile o- - Picture
User - -> Order : authenticate
Event - -> ViewCount : have
User o- - Profile
Document - -> ViewCount : have
Student - -> Papers : author
Admin - -> Profile : approve
Admin - -> Profile : reject
Media - -> Csse : have
@enduml

PlantUML version 1.2021.10beta2(Unknown compile time)
(GPL source distribution)
Java Runtime: Java(TM) SE Runtime Environment
JVM: Java HotSpot(TM) 64-Bit Server VM
Default Encoding: UTF-8
Language: en
Country: US
--></g></svg>